<?xml version="1.0" encoding="UTF-8"?>
<svg xmlns="http://www.w3.org/2000/svg" viewBox="5740563.464924727 -3007525.799000501 536518.646092494 421218.5382409808">
  <g id="map"><g><path fill-rule="evenodd" fill="currentColor"    d="M 6267048.217395078,-2955880.5916266423 L 6274353.558978386,-2945844.444412011 L 6275397.179204574,-2877993.885762108 L 6277082.111017221,-2873189.906371765 L 6273179.47230899,-2872464.3818949456 L 6268798.382429331,-2867308.610641138 L 6263710.747741605,-2859380.460275662 L 6256677.248354813,-2855283.2561949566 L 6251089.455194955,-2850648.2144200746 L 6245751.796930908,-2844907.298141798 L 6241001.126341814,-2843692.354138306 L 6234826.345507002,-2850983.472592512 L 6230586.742700139,-2858428.011293364 L 6231630.362926328,-2860039.4677768187 L 6234598.140550876,-2860572.7314501284 L 6235750.408600077,-2864413.741177896 L 6233956.717644924,-2870000.2166163996 L 6229782.236740177,-2872092.6684833774 L 6224520.609688342,-2872278.462646324 L 6219498.208222222,-2869778.353399334 L 6214171.459268273,-2864851.1766191414 L 6211149.246412727,-2859554.1969528156 L 6210692.725180984,-2848905.947389933 L 6212095.016806506,-2836931.032412643 L 6212062.400195704,-2831129.3877159227 L 6209127.239181957,-2823919.472214911 L 6208083.6189557705,-2813307.8908387953 L 6210159.950098047,-2805103.279439576 L 6212073.309505802,-2800214.8735816777 L 6212258.099860518,-2796091.674941033 L 6207268.315005201,-2783007.242173728 L 6211594.9696538625,-2780563.2792342384 L 6225944.71993406,-2779645.48851387 L 6230141.019459004,-2770797.4863662324 L 6233021.856561243,-2764740.8857838954 L 6232239.057901985,-2761133.020401411 L 6222107.314447435,-2758454.4230288635 L 6209301.231546068,-2755490.7385818763 L 6200115.147165806,-2756347.6338003324 L 6183558.599300123,-2752354.957552517 L 6174720.388328591,-2746234.1120719705 L 6177318.585243706,-2742404.618843092 L 6180384.212700662,-2739461.7364949067 L 6181753.999034873,-2731373.1633092593 L 6179177.509420463,-2719886.243525985 L 6174481.274062367,-2708739.9682735875 L 6168643.457326187,-2694874.3940903284 L 6161892.598126519,-2678942.017076087 L 6152652.189834751,-2655005.007332621 L 6144824.982478604,-2636223.5389813236 L 6143966.263926624,-2622703.278216647 L 6144172.761582046,-2613888.7260485394 L 6143259.607799068,-2596273.7859177925 L 6135867.32569345,-2586601.7625552816 L 6134182.282561312,-2586307.2607595203 L 6125354.980899878,-2587473.23872577 L 6122376.293965232,-2587861.956476499 L 6113940.391633427,-2588980.8825126397 L 6100851.668544935,-2590712.550543233 L 6083860.195428722,-2592962.686823842 L 6063759.680254144,-2595625.558495914 L 6041321.78973138,-2598595.401704271 L 6017329.433839177,-2601771.951184174 L 5992565.188597815,-2605049.4425161066 L 5967790.034046355,-2608333.3824007628 L 5943797.678154154,-2611511.810211733 L 5921348.989640782,-2614484.5187917696 L 5901259.27245681,-2617150.871638488 L 5884267.799340597,-2619398.700852697 L 5871168.278261499,-2621139.490985387 L 5862743.173920301,-2622260.6794961896 L 5859764.486985655,-2622650.218918673 L 5850404.521560775,-2623895.4052221933 L 5845338.594173754,-2630442.1090891114 L 5839218.24856994,-2638361.722582055 L 5833097.791646634,-2646291.2404947523 L 5826966.536732723,-2654224.509800001 L 5820846.19112891,-2662155.8500776268 L 5814725.734205604,-2670090.9641598184 L 5808594.479291692,-2678035.9299251507 L 5802474.133687878,-2685979.000725428 L 5796342.878773966,-2693931.8363337214 L 5790222.421850661,-2701882.799792814 L 5784102.0762468465,-2709843.5625106627 L 5777970.821332935,-2717808.433380055 L 5771850.36440963,-2725771.2233284567 L 5765719.109495718,-2733738.1444150214 L 5759598.652572414,-2741714.934171913 L 5753478.306968599,-2749695.7683646735 L 5747347.0520546865,-2757674.8109430824 L 5743259.511672249,-2763020.126425394 L 5740987.480865157,-2769052.274024638 L 5740563.464924727,-2784867.206676851 L 5740563.464924727,-2788319.6102316445 L 5744694.531228065,-2794701.59580253 L 5746662.214547327,-2790138.439148118 L 5751271.509383113,-2783955.022164182 L 5759087.807429163,-2785463.433870901 L 5762740.422561072,-2784438.0300693656 L 5765425.559998496,-2762520.102839425 L 5771154.617592173,-2754735.0375641226 L 5778155.611687652,-2751623.288357905 L 5801811.003481222,-2749886.1828169296 L 5816541.243780951,-2752825.047124474 L 5845545.203148666,-2767122.728470614 L 5860775.4906010395,-2772262.898315124 L 5902868.173057245,-2771369.263669526 L 5936622.803014055,-2765407.8041480244 L 5989184.304342932,-2761877.082112588 L 5999381.281019087,-2762799.923870483 L 6027722.110180146,-2774282.3963513505 L 6045126.689926693,-2784426.064575763 L 6055454.133046058,-2787341.6443113084 L 6062281.134777429,-2797123.837882326 L 6066781.781790201,-2809891.727219046 L 6070771.472340231,-2818242.3022781424 L 6075870.016338053,-2822227.9853784693 L 6080729.3347501615,-2829299.7122062147 L 6084610.266157688,-2840843.768600773 L 6094383.338212902,-2852480.4525095983 L 6133497.445053952,-2880855.3583795154 L 6156359.240197658,-2904860.284054308 L 6158381.2474284265,-2912614.0807174454 L 6170817.63830087,-2924276.1811870355 L 6180775.612030291,-2937055.6545435605 L 6227347.122879075,-2973588.509136088 L 6236696.178993856,-2988682.878207627 L 6242196.920311916,-3005619.8140585544 L 6242849.252527964,-3006841.989910152 L 6246860.650378699,-3007525.799000501 L 6252535.272741376,-3004960.3799621575 L 6253100.664435117,-2992291.101310632 L 6251046.040593545,-2980327.355317468 L 6250806.81500783,-2967667.4316463973 L 6249991.51105726,-2960801.6008772887 L 6254329.07501602,-2955169.063027636 L 6261667.033210131,-2952757.505778151 L 6264895.7437211,-2953046.7829269273 L 6267048.217395078,-2955880.5916266423 z M 6265265.324430533,-2904704.114484099 L 6265928.454637189,-2910004.94651034 L 6264765.27727789,-2912746.322480655 L 6259971.080767895,-2913107.099730581 L 6257992.599458027,-2908538.308931236 L 6257329.469251372,-2901964.212849068 L 6260634.210974552,-2901417.5476782853 L 6265265.324430533,-2904704.114484099 z" /><path fill-rule="evenodd" fill="currentColor"    d="M 5936916.3525112765,-2784950.7235038024 L 5928686.947834893,-2784259.1591110677 L 5921185.90658677,-2788898.016702382 L 5936948.969122079,-2795089.3929627845 L 5941221.1885397425,-2797881.5995502956 L 5945841.392685627,-2803575.104276791 L 5949504.9171276335,-2798705.024677861 L 5945460.902666095,-2790973.4229587596 L 5942525.74165235,-2787669.5393499117 L 5936916.3525112765,-2784950.7235038024 z" /><path fill-rule="evenodd" fill="currentColor"    d="M 5857285.958523142,-2788611.7418841966 L 5855405.21572619,-2787723.2732761027 L 5853426.734416322,-2794313.808359316 L 5853578.908160235,-2796401.9153281837 L 5858677.452158058,-2799385.379482943 L 5861819.110827226,-2793991.6369556147 L 5857285.958523142,-2788611.7418841966 z" /><path fill-rule="evenodd" fill="currentColor"    d="M 6003218.797825204,-2775015.248979085 L 6003251.414436006,-2770886.7832535403 L 5991923.765691863,-2772078.1892887177 L 5988890.754845711,-2769933.8215488954 L 5979617.72994314,-2771125.1547713964 L 5970562.223325579,-2774109.6209345493 L 5976704.276230099,-2779115.0279838215 L 5992749.978952533,-2784992.482085768 L 5999424.8069399875,-2779645.48851387 L 6003218.797825204,-2775015.248979085 z" /><path fill-rule="evenodd" fill="currentColor"    d="M 6063063.933436686,-2807455.498005184 L 6062085.546432104,-2805079.438744745 L 6058943.776443446,-2805294.373109471 L 6051073.154485889,-2807455.498005184 L 6048518.483491674,-2810912.9498341316 L 6053432.125815289,-2815016.2570768106 L 6055595.508799366,-2815231.3301632022 L 6058737.278788025,-2810912.9498341316 L 6063063.933436686,-2807455.498005184 z" /></g></g>
</svg>
