<?xml version="1.0" encoding="UTF-8"?>
<svg xmlns="http://www.w3.org/2000/svg" viewBox="6733241.99969332 -4644101.406919705 1603620.383028387 1218474.6002948089">
  <g id="map"><path fill-rule="evenodd" fill="currentColor"    d="M 7405224.777534695,-4487793.199394831 L 7439229.319748336,-4490986.822656206 L 7466070.007451464,-4485878.863076996 L 7480169.734155341,-4471942.23638744 L 7493997.72998219,-4468358.539205574 L 7507575.590913228,-4475131.052573019 L 7515989.785944328,-4476339.819008546 L 7519240.203756002,-4472003.757721037 L 7526023.790885962,-4470167.360693432 L 7536329.526704621,-4470829.461338158 L 7542221.667352309,-4466993.741327491 L 7542895.595549571,-4463138.878928763 L 7543678.394208829,-4458658.120219828 L 7551298.992590065,-4448060.476801018 L 7565050.8458852125,-4435207.592684854 L 7577269.829792135,-4432112.559094297 L 7593337.239815273,-4442108.634913586 L 7598772.859231218,-4440930.9638890335 L 7601425.380057841,-4444171.652356132 L 7603066.897269077,-4451439.687972571 L 7612796.443403392,-4458289.883041061 L 7630559.694549276,-4464707.873298731 L 7640637.225411807,-4470440.388290725 L 7644213.809331505,-4475185.599331336 L 7650236.305102911,-4476531.175451914 L 7656780.666647157,-4475131.052573019 L 7661422.578093746,-4476906.764544367 L 7663064.206624474,-4481402.1437852075 L 7664944.8381019365,-4483363.535986899 L 7668271.398445312,-4484935.544930456 L 7671228.266759763,-4485755.938524297 L 7676642.06755551,-4484511.793301996 L 7686610.839275539,-4476319.396669457 L 7701101.965309046,-4461194.934764925 L 7710527.16395553,-4454226.860090809 L 7714875.525904897,-4455419.692790945 L 7720430.702453953,-4460042.371147593 L 7727181.561653621,-4468106.11166427 L 7728877.514095856,-4479728.097642804 L 7725485.720530876,-4494913.411719366 L 7727812.075249475,-4507168.033296469 L 7735824.0729603395,-4516481.409001661 L 7750706.487003982,-4522235.3730911305 L 7772426.812089092,-4524417.024372288 L 7785754.7607633,-4523113.486723777 L 7790690.221707109,-4518319.041262259 L 7797343.34239386,-4515658.749755511 L 7805703.102193962,-4515137.723557813 L 7813367.226496099,-4520609.722800525 L 7820357.31128148,-4532090.916626214 L 7820748.599291619,-4546334.8297853265 L 7814563.020466201,-4563338.866524073 L 7816258.861588945,-4568753.541979181 L 7818944.11034586,-4571124.224436193 L 7827238.636924357,-4577280.762447495 L 7838870.6331563275,-4590088.301662364 L 7850089.634077456,-4606583.459152202 L 7860917.124349463,-4626777.0250949925 L 7874288.598944571,-4639292.413379316 L 7890203.723904303,-4644101.406919705 L 7909488.935128312,-4638626.321584968 L 7932165.939917301,-4622883.302197155 L 7940721.510701708,-4603506.406174435 L 7935166.445472143,-4580543.290851311 L 7934688.105620204,-4567906.0030696355 L 7939297.400455989,-4565570.478502821 L 7947059.26327104,-4566197.447457583 L 7957984.714694946,-4569807.911521425 L 7965126.973224243,-4569987.013981611 L 7968497.059488519,-4566734.718307253 L 7968290.450513607,-4560267.728077956 L 7964485.550318291,-4550598.659732818 L 7959908.872093308,-4523484.002555017 L 7957082.470222066,-4500059.9749234775 L 7954310.280942842,-4477063.85847996 L 7951875.16708174,-4456899.0202478925 L 7956212.7310405,-4441210.068589792 L 7962778.79988545,-4417540.02671232 L 7970192.900611263,-4401942.986943713 L 7977780.882381697,-4396945.677482499 L 7985368.864152129,-4395156.097240839 L 7992967.75523266,-4396579.574172691 L 8008545.916093761,-4406603.429016337 L 8032092.660064317,-4425251.980802086 L 8054943.545897924,-4436724.9292824315 L 8088187.219391991,-4443157.174838946 L 8099275.642550419,-4463207.054781003 L 8114690.831677,-4476462.773517002 L 8149826.045958627,-4496199.85103026 L 8168948.174128623,-4503736.675854195 L 8179906.24216333,-4505058.421315131 L 8193636.388157774,-4501463.422112211 L 8196745.430216138,-4500224.28491103 L 8199474.093574463,-4499279.677802459 L 8206540.209572058,-4497636.981724555 L 8208007.845738676,-4491616.054122827 L 8206170.628862625,-4485126.91771347 L 8198550.030481388,-4479775.951823129 L 8196180.149841891,-4475629.536528666 L 8199071.896254227,-4472522.508699082 L 8209768.920083026,-4471464.339710258 L 8231945.877719371,-4478648.637890571 L 8246295.627999569,-4483274.653806528 L 8256242.692418892,-4485126.91771347 L 8260297.616190528,-4491150.990723714 L 8266548.428237553,-4497171.651633099 L 8276495.381337385,-4497636.981724555 L 8287170.80918497,-4494393.415458398 L 8295998.110846403,-4492539.518131546 L 8311043.607944058,-4494236.062461995 L 8318968.553813122,-4488989.836618508 L 8330089.704901843,-4479038.014175758 L 8335090.3990672575,-4472891.242909997 L 8336862.382721707,-4471443.926817996 L 8331176.739729439,-4470522.311928801 L 8323067.003505659,-4473895.014817379 L 8319903.526216296,-4478997.159070804 L 8318533.739882084,-4479707.668731491 L 8312108.935470951,-4476346.673090129 L 8299868.13294383,-4472140.224506287 L 8279071.870951795,-4461113.083514213 L 8279517.5941929305,-4458269.495616243 L 8293073.747823264,-4447086.497709997 L 8296248.134422725,-4443381.815710036 L 8297911.358934667,-4442197.171174334 L 8285627.141806139,-4436833.766711018 L 8259319.229185946,-4424742.223538663 L 8241968.973350906,-4414843.832449836 L 8237848.816357667,-4414477.252866055 L 8227380.108804486,-4418626.903782817 L 8211943.2123772,-4423573.298553493 L 8207790.438773157,-4423478.097657072 L 8172089.944117282,-4422628.564849541 L 8139324.610475154,-4420800.852102214 L 8125627.081091514,-4418443.408103251 L 8100297.555475901,-4416134.192918569 L 8084338.904595268,-4415380.37419894 L 8074152.72590972,-4411544.2364798235 L 8062998.958210198,-4406515.188875032 L 8051399.578589031,-4403258.874358506 L 8042811.502513311,-4402193.983442518 L 8032451.331463654,-4397494.786572877 L 8025646.037032989,-4388177.087385027 L 8006176.035454263,-4374374.8615604 L 7995218.078739045,-4367713.571991715 L 7989695.51880079,-4360205.19205383 L 7983433.79744367,-4359475.506047086 L 7972758.480915575,-4360847.06341014 L 7964452.933707489,-4352715.607404989 L 7955256.051336621,-4341049.1642940305 L 7938482.096505418,-4324202.629084237 L 7929611.268923085,-4317390.662983476 L 7924284.519969135,-4306414.43774471 L 7928198.067987463,-4300715.489797602 L 7941852.071450205,-4292165.800515476 L 7947939.911762707,-4284146.275681654 L 7951277.2700966885,-4277768.302151129 L 7957517.284153105,-4261421.500297536 L 7961463.448782236,-4245379.76638092 L 7967355.589429925,-4238443.164053393 L 7969073.137853373,-4226685.156583692 L 7970540.774019994,-4219453.584493145 L 7967355.589429925,-4214333.013270874 L 7964409.519106081,-4208615.260395498 L 7964409.519106081,-4203206.637043321 L 7967942.577104878,-4197634.362053203 L 7971062.52847334,-4192696.9387881868 L 7972758.480915575,-4188779.0954809855 L 7970660.331153104,-4184377.399114816 L 7964409.519106081,-4177671.728345454 L 7961246.041816717,-4170830.7276539323 L 7954342.897553644,-4159389.7367326343 L 7943547.912572949,-4151605.50031308 L 7936427.472663847,-4145919.997372196 L 7928817.672273219,-4133961.8591847857 L 7916294.229558976,-4120694.517036991 L 7910989.187905732,-4109601.8555362015 L 7905499.355897772,-4103521.866972942 L 7899857.238826405,-4100242.1747173197 L 7901335.67298363,-4094285.818106059 L 7906238.5173166385,-4086843.1786365123 L 7914337.455549812,-4078516.516852777 L 7913967.874840379,-4065551.02747167 L 7913598.294130945,-4056234.378700231 L 7913848.317707266,-4044961.997198776 L 7909423.813226198,-4035478.416224845 L 7886812.041658813,-4026369.8835093663 L 7865167.747785914,-4022398.207462758 L 7838642.428200202,-4022149.1345200855 L 7828619.332568666,-4023584.330847289 L 7820596.425547705,-4025576.78011591 L 7791777.367854197,-4035760.563619908 L 7780080.02708113,-4029778.9227262186 L 7777677.52983083,-4015067.9920756905 L 7798669.602807173,-3991249.550318863 L 7807301.204803792,-3977991.257091583 L 7816824.253282685,-3955812.745817842 L 7823999.128422783,-3944391.3231335646 L 7821433.54811847,-3933728.871130163 L 7802409.15846139,-3921627.5095649725 L 7783471.820646112,-3910245.994774269 L 7759381.614921501,-3907884.1486865496 L 7744249.065982047,-3903823.2300911075 L 7736878.602496623,-3897967.9577862555 L 7731486.509001578,-3873133.5206456804 L 7726083.617515927,-3864054.797524034 L 7726170.558038237,-3853265.0167756667 L 7721061.216049807,-3841052.7815554817 L 7713320.949215969,-3833158.938488981 L 7707918.057730316,-3820355.6586645897 L 7709603.100862455,-3796101.252243057 L 7712136.064555964,-3755019.599911273 L 7701852.036038011,-3742075.613634261 L 7690296.071018252,-3729030.413944308 L 7678087.996421426,-3719728.233165077 L 7666455.888869963,-3715392.6858914983 L 7656813.283257959,-3716988.8149397513 L 7649170.97757602,-3725049.2849472384 L 7644670.330563247,-3731810.9122832767 L 7636256.135532147,-3737476.2538602385 L 7627689.766757132,-3736318.6649800665 L 7619069.074070611,-3731126.8557699146 L 7605328.018766071,-3732852.978041638 L 7593543.8487901855,-3738051.8150433786 L 7587651.7081424985,-3737476.2538602385 L 7584216.499976109,-3732277.5329856663 L 7571638.733350358,-3721114.1979195196 L 7540764.940495788,-3704148.9629648672 L 7528176.2645599395,-3702918.136692304 L 7522773.373074288,-3698703.207216222 L 7524925.846748268,-3691762.3759174645 L 7530437.386056932,-3686105.617933044 L 7540058.284368233,-3682100.2803432643 L 7540547.533530269,-3677497.969868938 L 7532046.286657369,-3673463.6511038393 L 7524795.380305056,-3668864.7094122237 L 7508814.910804229,-3663256.5183093427 L 7490388.529451692,-3661069.903605905 L 7471309.815883103,-3664337.2767450646 L 7461493.21790699,-3671803.2373280306 L 7449980.778808131,-3672502.996699265 L 7439403.312112445,-3667039.5233988157 L 7428499.679308734,-3658038.5499381297 L 7416574.133579541,-3638730.407992114 L 7413410.656290178,-3635343.0295851245 L 7410181.945779211,-3632305.2589754425 L 7402452.588255471,-3628146.2711575334 L 7391298.9318754375,-3621352.792092273 L 7385700.340724973,-3607163.160800896 L 7379025.512737516,-3581932.7999968287 L 7380590.998736544,-3568368.3382688854 L 7381091.045889187,-3544896.9352366994 L 7378460.232363268,-3528441.25393146 L 7373633.530561964,-3517648.140344156 L 7374601.0082564475,-3509143.3608653564 L 7381971.583061361,-3499508.5219803536 L 7379025.512737516,-3493273.2974452027 L 7372829.024602001,-3486301.437845453 L 7366795.619520497,-3482434.6985633853 L 7342814.0616189,-3475161.8118563932 L 7309929.17084366,-3465214.5441552764 L 7288197.936448451,-3458839.557229529 L 7255856.618746754,-3449373.7332637534 L 7246398.803489465,-3447048.9614097048 L 7226743.900236533,-3446192.8278278643 L 7216546.923560378,-3447648.800579215 L 7202762.453654428,-3448030.0655026603 L 7182455.32950494,-3447692.5706032645 L 7168279.460269359,-3445111.9281618935 L 7154070.97442298,-3440326.957642101 L 7143613.0648604045,-3434370.0281112245 L 7137579.6597789,-3428478.196468655 L 7135437.984095528,-3425626.806624896 L 7121218.70025854,-3430500.040564322 L 7076310.413921699,-3439184.005168217 L 6954859.068354385,-3427723.216832982 L 6943379.35718582,-3429900.9948915793 L 6901917.188325466,-3443331.398249834 L 6848540.271726528,-3460647.3366358196 L 6815470.59059657,-3471379.8458752064 L 6773051.742032339,-3485398.79051975 L 6802077.520020249,-3520067.483287741 L 6827407.04563586,-3550388.9890493504 L 6852769.187862273,-3580827.636384302 L 6877783.456679957,-3610941.754970425 L 6880751.234304505,-3621492.1440837802 L 6881131.724324037,-3642175.9002544438 L 6874543.836858892,-3669856.862688839 L 6863977.168153812,-3682514.1466986258 L 6829059.3608377045,-3687627.8673039177 L 6802816.681439117,-3691475.685114935 L 6774247.647321931,-3695668.9309907407 L 6770529.687648926,-3697224.2264660606 L 6767290.179147351,-3718840.5715365517 L 6768703.380082972,-3728506.3274060898 L 6766833.546596116,-3747201.597726273 L 6767105.277473144,-3761618.601999542 L 6771258.051077187,-3785379.4199676784 L 6771486.367352803,-3796094.8026251295 L 6758256.268511004,-3842330.217266117 L 6750918.310316893,-3868043.705381811 L 6743352.147166655,-3894623.4596662866 L 6741721.4279460255,-3903109.8221806535 L 6741569.254202111,-3913614.5085017066 L 6759104.189072377,-3938326.9841726962 L 6764539.8084883215,-3943694.8850806323 L 6774823.725686786,-3956021.2911017216 L 6781248.53009792,-3962557.749265372 L 6780128.878659521,-3967063.0170360697 L 6768942.494349196,-3969697.8242947226 L 6752038.073074783,-3969926.1242158553 L 6743047.688359336,-3973657.845339814 L 6736035.896273251,-3980419.706726722 L 6733263.818313516,-3990184.4004785116 L 6737840.4965385,-4007605.0938050044 L 6733241.99969332,-4041535.1035336372 L 6742645.4910391,-4058331.098234371 L 6750711.812661473,-4070123.4835000657 L 6778182.902640964,-4071775.2819607714 L 6768659.854162071,-4085070.6951859402 L 6764061.468636382,-4092795.6006447566 L 6761115.398312539,-4095031.0682997745 L 6760017.454174845,-4098606.0646720035 L 6761484.979021973,-4102182.196903975 L 6768485.973117453,-4103521.866972942 L 6773269.260317348,-4107990.750600586 L 6780998.506521598,-4114251.6097493423 L 6785053.430293234,-4116940.6215376076 L 6785792.703031592,-4124548.7955996087 L 6789467.025464205,-4129925.771136821 L 6794989.58540246,-4136648.96564599 L 6799403.180573433,-4144277.069351518 L 6798305.236435737,-4153249.508508715 L 6802360.160207373,-4164033.75632582 L 6804197.377083426,-4170777.5592036997 L 6807143.336087778,-4176628.704189495 L 6804566.9577928595,-4185175.1142275906 L 6802360.160207373,-4192384.2504917043 L 6801620.887469015,-4200949.383115069 L 6806034.482639986,-4203206.637043321 L 6811557.042578242,-4206363.584688332 L 6812665.896026033,-4213133.232151755 L 6815611.966349877,-4221714.630737158 L 6817818.763935363,-4228493.724503639 L 6821493.197687468,-4233921.488543271 L 6821862.778396901,-4239345.095690378 L 6819655.980811414,-4248401.634871031 L 6828863.772492381,-4249759.077071755 L 6832538.094924994,-4244778.093706637 L 6837440.939258003,-4238302.928007075 L 6850910.152366025,-4226278.023806468 L 6859617.896894348,-4222788.561625567 L 6870608.581539859,-4221027.648634553 L 6884110.4112586845,-4222675.166186397 L 6894916.1942299865,-4224916.787320784 L 6900014.738227809,-4224343.016699832 L 6911787.998893596,-4215599.552718257 L 6925529.054198137,-4203353.109260372 L 6929953.558679206,-4197940.519465854 L 6931997.273210681,-4189610.363336676 L 6936074.015602512,-4187116.6108288253 L 6944846.882032948,-4195351.671096765 L 6953337.219595751,-4198093.601352849 L 6961153.40632231,-4196529.621425734 L 6969774.210328322,-4195611.15556557 L 6978405.812324941,-4198632.744564038 L 6982254.127121665,-4200816.305036794 L 6997321.442839515,-4211500.380047183 L 7010931.920381356,-4219627.042865225 L 7019433.167254256,-4224629.96659089 L 7022498.794711214,-4241349.532141185 L 7026412.342729541,-4250862.602193865 L 7032021.843190106,-4256421.77648159 L 7029912.784117536,-4263296.0095747085 L 7027597.227389544,-4268573.5397606455 L 7025216.548759439,-4275703.499470312 L 7027597.227389544,-4279478.077537279 L 7033043.644796097,-4281161.337634497 L 7046708.557568935,-4281154.607372222 L 7070679.206160432,-4288675.45541607 L 7090671.073511995,-4296194.631706348 L 7109140.980785433,-4302321.3965682965 L 7117555.175816533,-4303336.116435732 L 7125523.647606499,-4302287.679715798 L 7129165.4647478005,-4304075.367907417 L 7130165.559053086,-4309930.73730007 L 7134709.731986758,-4316139.130617434 L 7144971.941884518,-4321132.756701083 L 7164300.6790294275,-4331773.56074638 L 7181335.56674705,-4347599.410474349 L 7187434.205050158,-4359617.454731216 L 7191521.745432596,-4377196.10529861 L 7199511.924523266,-4404344.155693407 L 7208284.902273192,-4434200.799638256 L 7211546.229394963,-4447372.460505471 L 7215318.512979475,-4457533.061182454 L 7230374.919387227,-4466120.307443566 L 7245746.471273417,-4472324.513399399 L 7269564.946121,-4473560.366944068 L 7297546.992563234,-4474174.991658724 L 7303450.042521019,-4490583.277070575 L 7307146.183573828,-4504517.304610972 L 7311799.004330514,-4511717.50965993 L 7318571.682150378,-4517571.647983498 L 7320930.653479778,-4518737.419434479 L 7336030.585808432,-4510168.709075451 L 7359153.202519065,-4497075.784984095 L 7386080.830744503,-4490549.100370755 L 7399615.277074131,-4487266.834182694 L 7405224.777534695,-4487793.199394831 z" /></g>
</svg>
