<?xml version="1.0" encoding="UTF-8"?>
<svg xmlns="http://www.w3.org/2000/svg" viewBox="2146313.698636201 -5258538.693880613 194852.63480912847 442819.51526912954">
  <g id="map"><path fill-rule="evenodd" fill="currentColor"    d="M 2153184.2262884714,-5141390.186302279 L 2153532.0996972,-5148831.008789886 L 2155271.4667408452,-5160643.010079563 L 2154271.2611160674,-5164578.652482405 L 2155304.0833516475,-5171334.715882425 L 2151901.3804765693,-5180367.2277939785 L 2146313.698636201,-5186863.095641932 L 2151694.8828211483,-5198392.024857647 L 2159554.5954686073,-5212332.041787491 L 2166849.1390613085,-5223406.025084942 L 2175687.2387133497,-5234957.357869156 L 2181579.379361038,-5246058.05547132 L 2187928.041240469,-5255605.311012833 L 2193374.4586470206,-5258538.693880613 L 2196092.2126952475,-5256506.640722953 L 2197527.232251064,-5252333.28770885 L 2197201.0661430396,-5239971.273532456 L 2199059.9903197964,-5235709.358508043 L 2202821.3645942104,-5232576.744535333 L 2210779.038393568,-5234109.711627108 L 2219606.340055002,-5237183.791783279 L 2231477.4505531965,-5243711.359722298 L 2233510.367094063,-5243313.047650813 L 2237913.164274428,-5239897.56238272 L 2247066.5207243958,-5224989.0814742325 L 2253165.159027505,-5211890.773497278 L 2265155.9379783026,-5207347.3576704245 L 2271841.675275856,-5202255.166647298 L 2280429.751351575,-5194500.992088623 L 2284593.434265716,-5186701.628631245 L 2290442.048992504,-5162939.864987005 L 2291115.9771897662,-5148619.17115534 L 2289420.1360670216,-5142076.360906926 L 2287963.4092105012,-5140382.9891627105 L 2282625.7509464542,-5117114.561778781 L 2283897.687448258,-5105276.176408278 L 2283854.1615273575,-5097491.274480478 L 2279331.807213881,-5094418.3505846765 L 2276331.4129785304,-5089538.416229676 L 2281201.6407007356,-5070246.511676714 L 2280603.743715685,-5062041.080061052 L 2280821.1506812046,-5052634.669192412 L 2289604.926421738,-5031215.178431305 L 2294790.410941871,-5024600.282054265 L 2299421.5243978524,-5021442.234674801 L 2305346.1703368523,-5001781.842009937 L 2308857.5210349443,-4998379.477370226 L 2323261.7065461404,-5000242.410551075 L 2330306.1152430293,-4998063.107257198 L 2333100.011822959,-4993411.237390833 L 2333730.525418812,-4990227.388420996 L 2332784.7550250324,-4979253.718203896 L 2336361.3389447294,-4970801.9495939985 L 2341166.3334453297,-4962121.222422237 L 2341144.5148251345,-4956813.228044349 L 2337926.713624264,-4948151.920346124 L 2332165.039419786,-4938047.203296878 L 2324533.6430479437,-4934173.952411326 L 2316119.4480168438,-4930887.898982063 L 2312108.0501661077,-4923055.892804054 L 2310064.2243151437,-4914730.803902179 L 2306302.8500407296,-4908564.754555359 L 2303976.4953221316,-4901811.430741311 L 2300410.709393041,-4888019.907212169 L 2299573.6981417667,-4883014.747788369 L 2293877.2571588936,-4877962.359017732 L 2285060.8648075573,-4875902.384291706 L 2277157.626239198,-4875476.185935391 L 2271809.058665053,-4873132.713403443 L 2269102.102607433,-4868440.161918668 L 2264068.9031507066,-4864643.8092933195 L 2261024.982994455,-4862955.441806165 L 2261046.6902951594,-4858792.484208833 L 2264710.2147371667,-4850060.908954757 L 2268873.897651307,-4842979.2127297595 L 2268960.838173616,-4837303.338578951 L 2266917.1236421433,-4835725.654795461 L 2260470.5006108135,-4836440.2107179845 L 2259100.825596093,-4834346.382226802 L 2258405.0787786352,-4828024.973019796 L 2256676.509725597,-4822611.958051681 L 2254023.9888989753,-4819313.2269701995 L 2249414.694063189,-4815719.178611483 L 2240978.7917313837,-4816891.118895957 L 2233042.936552222,-4822315.211375891 L 2228901.0722582773,-4823989.608961452 L 2226531.191618779,-4823805.978717528 L 2225900.566703435,-4837069.763613778 L 2222476.267847143,-4847397.6474286 L 2209898.3899019016,-4872273.593490959 L 2169012.4107258944,-4896500.313672086 L 2159391.6237340854,-4907424.554267538 L 2155162.70759834,-4916599.220144692 L 2150944.812092183,-4925275.575773322 L 2154988.826553721,-4925518.258339731 L 2158989.315094359,-4923319.860479918 L 2164109.5663928865,-4920686.785550629 L 2166186.008854653,-4925025.735938363 L 2163968.3019590694,-4934516.9438813655 L 2153434.249864793,-4956755.883026787 L 2152640.6532149278,-4962880.643778196 L 2157804.4304343555,-4981522.187764849 L 2166414.2138107796,-5002508.548833162 L 2165838.135445924,-5027997.359918551 L 2168512.363573251,-5047269.9856388075 L 2165544.5859487024,-5059804.417955715 L 2164120.4757029843,-5075196.401129844 L 2170436.520971613,-5095696.70686727 L 2175828.6144666574,-5100775.958522506 L 2179155.1748100324,-5107268.8571079625 L 2179361.6724654543,-5129200.93356975 L 2167197.0124700377,-5139456.007177689 L 2153184.2262884714,-5141390.186302279 z" /></g>
</svg>
