<?xml version="1.0" encoding="UTF-8"?>
<svg xmlns="http://www.w3.org/2000/svg" viewBox="4835657.7882983405 -5055354.425510503 350134.64154546335 352423.9974923199">
  <g id="map"><g><path fill-rule="evenodd" fill="currentColor"    d="M 4983580.129539859,-4822951.10790918 L 4979742.612733743,-4829170.1262401175 L 4960446.492199637,-4849621.745927719 L 4942541.865300446,-4865324.990920808 L 4930257.648171918,-4871812.072675506 L 4917875.469891491,-4871137.569712344 L 4898655.4918890875,-4867993.063498607 L 4891600.173882101,-4869306.21807025 L 4874869.633652307,-4876158.11210517 L 4860900.373391641,-4884322.61551295 L 4862802.823489298,-4887714.064845199 L 4865759.691803749,-4890167.769591077 L 4862226.633804953,-4900778.90297915 L 4854464.65967041,-4917897.374127483 L 4855290.872931077,-4923262.8568941085 L 4852834.05176927,-4930680.774409091 L 4850116.297721043,-4936289.013301807 L 4861085.163746358,-4949718.926569434 L 4866096.767221871,-4960523.474860178 L 4867183.802049467,-4971060.155136992 L 4864270.348336426,-4982024.762575473 L 4857052.058594918,-5001875.403207774 L 4852605.7354936525,-5007654.218579158 L 4844343.714206466,-5013054.703892698 L 4837418.86264269,-5021889.14517055 L 4835657.7882983405,-5028156.031552346 L 4841506.403025128,-5029396.83276544 L 4858541.402062241,-5029562.767608018 L 4875032.716706319,-5031698.748784668 L 4887947.558750192,-5035820.125200484 L 4906656.580289855,-5039300.712262847 L 4914364.119193399,-5042384.981214013 L 4923365.413218943,-5043858.895311917 L 4950716.9460653225,-5040557.438090692 L 4960935.741361673,-5043100.232855223 L 4991722.482374443,-5043569.895171574 L 4992516.079024307,-5044870.537751999 L 4988330.800128953,-5049077.180000765 L 4988374.214730362,-5050675.0227779 L 5006691.948259885,-5053357.93710659 L 5009529.259441226,-5055354.425510503 L 5011931.756691526,-5048650.629785209 L 5018813.193653894,-5041214.710290799 L 5026335.942202722,-5038210.08450267 L 5030369.047354162,-5034109.275183046 L 5030553.837708878,-5030998.673237121 L 5017247.707654867,-5027225.460918905 L 5016345.463181988,-5025350.260695935 L 5017226.000354162,-5023496.98242495 L 5021183.074293391,-5022574.093514414 L 5039816.064620842,-5013263.5811334085 L 5050447.855228035,-5013061.931914335 L 5056035.648387895,-5010231.613591998 L 5058829.433648333,-5004674.40388773 L 5067711.059221274,-4997121.12748561 L 5074777.286538359,-4989789.140476924 L 5075212.100469397,-4987260.107622973 L 5073875.04206548,-4983546.907508474 L 5054057.055758534,-4969238.761974064 L 5051556.708675827,-4964313.946144962 L 5051252.361187998,-4959105.103618763 L 5059960.10571632,-4943609.559262796 L 5072776.986608295,-4926703.395464903 L 5091279.510492535,-4913882.371013186 L 5116761.20985206,-4899974.247874211 L 5117087.375960086,-4891377.076002446 L 5113043.361498547,-4881166.791204412 L 5109575.536721354,-4874240.459789363 L 5107999.252731722,-4869554.652632839 L 5104900.897344473,-4867581.4484393485 L 5079527.957127453,-4868007.307545809 L 5075723.056932138,-4866353.826559841 L 5074048.923110099,-4864345.952326774 L 5073918.45666689,-4862678.844823725 L 5083050.105816152,-4859579.56799415 L 5097280.298963238,-4848679.649239763 L 5105466.289038211,-4838131.182783104 L 5114010.839193031,-4833525.80487966 L 5123577.413592824,-4825127.352485582 L 5131252.335885566,-4817300.643572996 L 5143188.7909248555,-4807187.314831253 L 5156505.830288964,-4810503.289150777 L 5174290.788735553,-4801510.663673705 L 5175030.061473911,-4795400.299235861 L 5173921.208026118,-4789955.580822808 L 5162734.935035284,-4784014.10665487 L 5161343.441400368,-4781551.237437248 L 5161354.239390975,-4779489.895392558 L 5162821.875557594,-4776578.053708433 L 5169377.146411937,-4771719.899900508 L 5177095.594625579,-4764524.813246102 L 5185792.429843804,-4753762.934764672 L 5181922.296426885,-4750563.889218586 L 5173812.448883613,-4750100.911901202 L 5167485.605624378,-4751419.655925562 L 5165256.989418696,-4749238.219023409 L 5165387.455861906,-4745718.259772453 L 5173616.86053829,-4737567.940245885 L 5175225.761138724,-4731622.28305392 L 5174877.887729996,-4721307.889140798 L 5175312.701661034,-4708314.372381623 L 5156070.905038436,-4709166.574568039 L 5139633.914305864,-4702930.428018183 L 5133437.426170346,-4704180.12524177 L 5129317.269177106,-4715211.008373813 L 5125805.918479014,-4724182.762543685 L 5115337.099606343,-4747218.662689129 L 5118185.320097779,-4756668.0401589945 L 5112347.614681088,-4762137.037169635 L 5098280.504588015,-4771958.8650338175 L 5094682.213367613,-4776029.630028799 L 5096671.603987579,-4781614.494923438 L 5098041.2790023,-4791835.884494537 L 5096704.220598382,-4800128.887775106 L 5092921.027703773,-4802631.556637185 L 5085898.326307588,-4802793.716039209 L 5077364.574143376,-4800735.222969352 L 5060231.836593347,-4792751.428777756 L 5048327.998164859,-4797859.498765831 L 5041468.379822686,-4803012.3393718945 L 5037489.598582753,-4807328.4561374355 L 5028586.265709107,-4803738.566990164 L 5026390.266114228,-4805480.486062141 L 5025922.835572387,-4816163.935819438 L 5023248.49612557,-4821912.570187518 L 5017889.130560818,-4828639.951732856 L 5012899.345705501,-4831871.094836556 L 4994592.521486075,-4825212.160236331 L 4983580.129539859,-4822951.10790918 z M 5012007.899223228,-5016361.273637516 L 5012573.1795974765,-5020288.807526263 L 5011725.259036104,-5023850.361360333 L 5008746.572101457,-5024975.264130706 L 5005083.047659451,-5024037.7622632915 L 5004800.407472326,-5020108.7122354135 L 5005930.968220823,-5016361.273637516 L 5009605.401972928,-5014675.390347067 L 5012007.899223228,-5016361.273637516 z" /><path fill-rule="evenodd" fill="currentColor"    d="M 5070863.73852003,-4955875.07053331 L 5066634.822384285,-4953455.223637915 L 5062677.859764547,-4954543.296329177 L 5062677.859764547,-4960609.452249219 L 5065536.8782465905,-4963031.214315462 L 5068841.731289262,-4962909.407561507 L 5071972.591967822,-4960731.230389151 L 5070863.73852003,-4955875.07053331 z" /></g></g>
</svg>
