<?xml version="1.0" encoding="UTF-8"?>
<svg xmlns="http://www.w3.org/2000/svg" viewBox="1307232.1274718042 493515.27570466016 1369632.045396991 1546342.4088744095">
  <g id="map"><g><path fill-rule="evenodd" fill="currentColor"    d="M 1455252.3185457303,516503.38895192795 L 1453534.6588027899,518324.76401591295 L 1441304.7655857687,523265.741488251 L 1428194.3351965724,527879.859463973 L 1410952.8385040376,546731.7258996572 L 1402201.5680548153,554893.6225555021 L 1399679.5136714028,556923.3148414673 L 1391797.9824037487,561430.3181601712 L 1386090.7434302683,565293.6544118654 L 1386286.4430950826,567432.8268769127 L 1390091.231970906,569899.4194866596 L 1393983.0726885297,573948.8616589081 L 1393602.5826689983,604768.8912113542 L 1391906.7415462534,635100.5878317794 L 1389775.9751729793,637667.9855618804 L 1378807.1091476642,638673.0901142956 L 1364250.7498925542,640770.8381237478 L 1359619.7477560632,642136.5931025211 L 1357989.0285354326,639142.9796759654 L 1353140.6194334223,628043.4283179084 L 1355880.080782354,617524.6623590456 L 1358826.1511061979,609650.3590969311 L 1355553.9146743298,593609.696935812 L 1348139.925268007,579341.0996920674 L 1340280.101301057,561233.8601056221 L 1337877.6040507567,557785.4258827743 L 1344465.4915159023,551958.2439849972 L 1354434.2632359308,539170.7544338618 L 1358576.1275298763,532570.5494700922 L 1370110.2739294397,531108.7553468273 L 1374426.1305874947,526483.6099397488 L 1377469.9394242554,519066.48272688227 L 1378644.026093652,514758.33484197524 L 1391656.7179699317,511224.67601414013 L 1407267.4954418356,504932.1327159652 L 1415920.916058651,498073.1846865847 L 1424693.7824890872,493700.6197187525 L 1430248.959038144,493515.27570466016 L 1433912.4834801506,495325.3006464186 L 1443968.1957224885,507233.20682529896 L 1452501.947886701,514769.1680191497 L 1455252.3185457303,516503.38895192795 z" /><path fill-rule="evenodd" fill="currentColor"    d="M 2667939.0213749544,1217569.0756218666 L 2670363.2259259596,1232427.9608029507 L 2672787.541796455,1253066.4310926176 L 2674515.9995300025,1267918.9893848798 L 2676277.073874352,1274560.503863309 L 2676864.172868795,1278109.1226037068 L 2674929.106160336,1281946.4989002356 L 2673298.386939706,1290865.2379471778 L 2670200.1428719475,1298765.4376651312 L 2668439.0685275975,1304292.348027238 L 2669874.088083414,1314427.4725339916 L 2668710.9107241146,1328975.44207918 L 2667471.590833113,1344330.357236497 L 2667091.100813582,1359114.6719704696 L 2671276.3797089364,1385644.7371444174 L 2670700.3013440813,1393791.9416587155 L 2665514.816823949,1407654.0872157027 L 2661579.4501854256,1418191.4883172305 L 2659035.5771818175,1430415.6219225088 L 2658579.055950074,1436780.366920355 L 2668112.902419573,1454812.5089454404 L 2667547.622045325,1458415.8267544783 L 2660253.189772114,1459531.4252219412 L 2654208.875380512,1459843.8920549254 L 2631129.6732712877,1459843.8920549254 L 2598049.0828312314,1459843.8920549254 L 2564968.492391176,1459843.8920549254 L 2531887.9019511207,1459843.8920549254 L 2501459.8323376873,1459843.8920549254 L 2472358.023137565,1459843.8920549254 L 2446680.6241132254,1459843.8920549254 L 2446691.5334233227,1477656.1029472717 L 2446702.442733421,1514365.4933661257 L 2446702.442733421,1551135.4263117157 L 2446724.1500341254,1587944.8540381724 L 2446735.0593442232,1624806.0627449928 L 2446745.8573348303,1661720.5882905107 L 2446756.766644928,1698689.515729073 L 2446767.6759550255,1735714.3998625681 L 2446778.4739456326,1772796.3438429674 L 2446778.4739456326,1799577.6316146234 L 2453507.6258445955,1835175.805136184 L 2465802.863602712,1873982.9695291754 L 2470618.65609392,1877579.195343421 L 2482989.925064249,1884716.676184716 L 2500177.0978452764,1899316.47061862 L 2509808.7941471823,1910380.5752025223 L 2529398.4641785105,1929591.3514731904 L 2555434.534602186,1954112.6092108476 L 2580568.471872473,1976120.267710562 L 2602723.6108886227,1995526.8636029228 L 2567947.1793258227,2002326.7997081485 L 2518494.7200553096,2012005.7579371582 L 2485120.691437523,2018536.9388510997 L 2444669.5261925543,2026452.5405447658 L 2417687.574055608,2031434.14733881 L 2384117.845773007,2037628.605901622 L 2378758.3688887646,2037491.425288815 L 2369757.1861827113,2033216.8095954815 L 2350341.508515493,2032371.2136136964 L 2327501.420672493,2038257.2840096366 L 2309379.3868077835,2039857.6845790697 L 2295975.4069213653,2037159.948253737 L 2282897.4818234807,2031994.0650792446 L 2270134.9248430133,2024373.344572202 L 2248023.200428273,2021597.7423513872 L 2216573.2178893574,2023665.1974203172 L 2186242.998108331,2022180.2020954147 L 2157054.2483858992,2017132.2915780009 L 2136160.136561456,2015145.4597276254 L 2123582.3699357053,2016218.8305350207 L 2110091.338207487,2014563.1967181298 L 2095698.1733258802,2010213.4576879991 L 2083685.5757548872,2002840.362990111 L 2069227.177651675,1987280.9321624823 L 2057921.2362082377,1972427.9158246682 L 2054996.9845045896,1970308.5542738335 L 2051420.4005848921,1968041.3602462553 L 2047876.4332759979,1967369.1700869955 L 2015861.170362834,1966970.4390415081 L 1985422.3027587933,1966594.4627905386 L 1967996.0157115422,1966571.7154483444 L 1925414.084093299,1966503.3569146614 L 1882821.3544844487,1966434.9985999695 L 1840228.6248755988,1966366.6405042608 L 1797635.8952667487,1966298.2826275262 L 1755043.0543384084,1966229.924969757 L 1712450.3247295583,1966172.9993058073 L 1669857.5951207085,1966104.6420493282 L 1627264.8655118586,1966036.2850117912 L 1604642.184634377,1966002.106575123 L 1583617.606366724,1967175.519789376 L 1560418.7358048966,1968474.2936587988 L 1557070.4681608162,1967927.3827417367 L 1551569.7268427575,1966127.5055441917 L 1547808.3525683437,1962858.2743051683 L 1535317.5264649028,1954420.0462756783 L 1524446.5102719949,1948022.368194599 L 1509683.6533614635,1937269.0429615928 L 1500138.8975818665,1925486.3134947715 L 1492094.2832601997,1921734.4220207368 L 1477842.3828124092,1919608.7493021823 L 1467134.3383540227,1917528.6749556079 L 1458415.7958350936,1917062.661171589 L 1443055.0419395114,1922621.2569792129 L 1431488.1676096546,1928113.0339671383 L 1423237.0556325666,1933424.1501731756 L 1408919.9219631709,1939521.6883450088 L 1396853.1118001617,1945598.1052889575 L 1375828.422213018,1944801.45980571 L 1371284.3605988366,1945677.818072338 L 1359587.1311452608,1945279.490177783 L 1348563.8298889478,1939988.1839616927 L 1337388.466208211,1940454.6896478059 L 1324984.5806270796,1947214.2113932401 L 1307232.1274718042,1949854.994221258 L 1311352.2844650445,1905847.4540876513 L 1315678.9391137066,1886407.7859786574 L 1315787.6982562116,1863197.7617211093 L 1313233.0272619969,1803150.8743722178 L 1310167.399805041,1794919.8106302284 L 1308101.8666533716,1785267.934507495 L 1319103.3492894894,1777912.904549071 L 1324691.031129858,1772299.4127565983 L 1332257.3055995859,1762374.5491250285 L 1337627.580474435,1748471.0115726872 L 1343987.151663964,1717825.8497034535 L 1367055.5557825814,1647458.4066803572 L 1378013.512497799,1578698.4105277641 L 1391906.7415462534,1546176.976827578 L 1397113.9333670903,1509793.7493676944 L 1435760.4983468095,1462900.9934064036 L 1445283.5468257018,1434116.2053870952 L 1465264.5048671681,1420018.5798330773 L 1493572.7174174252,1404992.4765257125 L 1513716.7585129037,1378289.6159079303 L 1523468.1232674127,1359804.0804198082 L 1534578.3650460353,1324410.4042538982 L 1534458.6965934327,1287492.6458432109 L 1541492.3072997148,1238275.9295405534 L 1539948.6399208845,1224134.1573450956 L 1529414.5878266077,1204575.754348419 L 1527457.8138174436,1190580.7749594296 L 1517673.832452132,1176845.7504901693 L 1507205.0135794603,1166476.1239940287 L 1502302.169246452,1147966.610826778 L 1484136.7207803333,1118768.5735639785 L 1479157.7339156226,1099312.4467531242 L 1470460.8986973981,1085358.4207703597 L 1469069.4050624822,1068135.3067336765 L 1464481.8175274006,1049961.1670575987 L 1455611.1012645569,1031993.8514917487 L 1446990.2972585442,1011436.6611834097 L 1446990.2972585442,1005008.5147175142 L 1452360.5721333933,997260.8273582349 L 1457480.8234319207,994718.890229384 L 1455752.3656983739,998614.2850613435 L 1452338.8648326886,1003225.458841601 L 1453143.3707926518,1006791.5357877549 L 1487115.296395489,970782.127825783 L 1489267.7700694678,963744.4997795514 L 1488126.3000108735,955872.5188283812 L 1487941.5096561566,946243.4033201254 L 1489289.5886896632,935045.2005370532 L 1457263.4164664017,868759.1669673754 L 1431825.2430277767,807190.4244782553 L 1427498.5883791144,776111.3492683741 L 1393863.5155554176,735255.468441371 L 1380600.8001028164,708713.1572598538 L 1373045.434943186,690110.2457508633 L 1367370.812580508,683057.6766096081 L 1369512.376944389,679504.4442601519 L 1378176.5955518112,678575.1393165932 L 1397451.0087852124,674278.7595562144 L 1423845.861927715,669578.2676186713 L 1448240.5264596436,658801.2528542783 L 1454741.362082989,654014.5462117062 L 1467677.911427566,653052.8400174138 L 1480842.7770477603,655916.0689753752 L 1485723.802760573,653850.6052560455 L 1488506.790030405,653675.6980762728 L 1519402.2901856792,653664.8433282223 L 1532262.8083180445,652932.6557597021 L 1556081.2831656274,653162.1698454806 L 1571137.6895733809,654047.334454505 L 1579714.8563390025,655260.3996465947 L 1602848.493679225,657129.1705724 L 1631711.0772936326,656702.9036701636 L 1641897.2559791803,655719.3338793053 L 1679739.3149989366,655096.4554160488 L 1717103.145486245,654462.6163857549 L 1750716.3996897463,653905.2148917499 L 1787808.3879805373,654025.4010205551 L 1816203.5410531037,654101.944262315 L 1829140.090397681,657970.6338295495 L 1840902.5530728616,665315.3181042766 L 1846251.1206470062,671972.2358309733 L 1848794.993650614,674912.9150479127 L 1852306.344348706,681964.4121899386 L 1858731.1487598396,687529.6892353898 L 1861013.9775575376,696168.3398790593 L 1859144.255390174,707881.8442100357 L 1860079.1164738557,721960.9100900581 L 1863818.7834475646,738407.2445046655 L 1871624.1721835167,755679.6070675133 L 1883462.7773903997,773778.6800175749 L 1888626.4432903368,788148.543922831 L 1887093.685221604,798797.0875535187 L 1890735.502362906,810061.5659613875 L 1899530.1874135379,821920.4228655043 L 1905965.7898152785,828201.7176606498 L 1909694.54747889,832948.8303501282 L 1919706.8451198188,851141.3286934594 L 1938220.1669946664,880193.4518483038 L 1952102.486733023,901994.3707017752 L 1956951.0071545239,904596.6297974541 L 1964049.7397629204,903663.3793602049 L 1979127.964790869,901489.3176624435 L 1994075.6120561177,901072.0797279173 L 2004729.2212835064,905562.9578125038 L 2009001.5520206615,904794.3014547508 L 2025068.9620437992,896142.4180390016 L 2041027.6129244321,893496.6881773925 L 2057703.8292427184,889929.0449223744 L 2066389.7551508455,886262.8821907225 L 2076488.9933140832,886273.7845942886 L 2103753.585638154,893255.2244609157 L 2108884.746246779,893628.4370731157 L 2130952.944740619,893628.4370731157 L 2153010.2339243614,889709.5187971672 L 2156249.8537454274,860486.9482540253 L 2156445.553410242,854706.0241179711 L 2161750.595063486,843727.4996331963 L 2168490.6562725464,834165.8534450254 L 2169327.667523821,825022.6366923226 L 2168925.470203585,812538.2894821655 L 2173806.607235888,797383.8035520284 L 2188580.3734565177,785344.3577121693 L 2212496.5868170173,779648.8469040041 L 2226107.1756783472,778542.701436685 L 2247544.860576334,775158.5769409344 L 2280071.0799522395,771741.8139092183 L 2292072.656893644,772201.7952062611 L 2293040.134588128,773910.1078983928 L 2286158.808945251,794841.9649041905 L 2286039.2518121395,801689.7462409905 L 2288550.3968854537,808604.0928617299 L 2294051.2495230036,812341.0000200596 L 2327794.9701697147,812757.4634943599 L 2358896.9679804104,813152.0464572636 L 2394575.755335581,814467.2331363932 L 2421318.481886812,815453.6176892288 L 2424721.18476189,816483.7924324096 L 2427438.938810117,818051.148718331 L 2431396.0127493455,828420.9605441904 L 2430504.5662670736,848706.4628241922 L 2424547.1923977803,878338.7497466384 L 2426862.7491257708,906046.129561737 L 2437440.215821457,931825.7321770794 L 2438494.7453577416,971474.9189038157 L 2434765.9876941303,995148.0754857099 L 2430047.933715839,1025011.8125037625 L 2428232.535459982,1058887.365817045 L 2433070.1465713857,1073052.1780826556 L 2443310.6491684406,1087884.073698247 L 2458954.0432511466,1103383.797007067 L 2471042.6720343516,1123482.3812449756 L 2479587.333508662,1148187.549381422 L 2482696.3755670274,1163757.1526590365 L 2480380.930158527,1170168.1171778177 L 2480554.811203146,1181290.8163522535 L 2483207.332029768,1197118.4575819059 L 2480250.463715317,1207618.8482291023 L 2471684.0949403024,1212776.2410487297 L 2468835.8744488657,1219893.8193681624 L 2473151.61978743,1233546.4842978714 L 2474206.1493237144,1245941.7820366006 L 2477597.942888695,1250672.8819219237 L 2480065.6733606,1254130.2740256183 L 2484087.869201943,1254640.0230264307 L 2492773.9064295604,1250196.439570589 L 2503144.8754698248,1241942.4493671877 L 2511482.927969223,1238441.9826998631 L 2523223.6833436987,1238885.135456326 L 2539725.907297875,1241211.2455737877 L 2568838.625808095,1242075.397243029 L 2577796.2825932484,1240590.9941102888 L 2604897.791863306,1229437.9682020138 L 2611996.635791193,1228629.5922745105 L 2622682.8616293846,1229681.5393554675 L 2637869.734480348,1232970.6038920816 L 2653176.1644644225,1233657.2840106362 L 2660666.296402448,1230202.0255510563 L 2661351.133909808,1225695.2686156672 L 2663731.923859404,1219805.2839199263 L 2667939.0213749544,1217569.0756218666 z" /></g></g>
</svg>
