<?xml version="1.0" encoding="UTF-8"?>
<svg xmlns="http://www.w3.org/2000/svg" viewBox="-8190472.91086841 2487834.1276390874 2216116.696657614 4880270.0677113235">
  <g id="map"><g><path fill-rule="evenodd" fill="currentColor"    d="M -6412991.966007238,3527711.7943150634 L -6417095.759035331,3532756.0209218813 L -6417666.494064629,3541528.5615742705 L -6424547.8197075045,3553066.615898589 L -6437739.847283454,3567365.265782622 L -6442338.344128633,3579747.9164821943 L -6436332.101002881,3595404.626684697 L -6435446.109175657,3614398.4668677268 L -6438060.558736429,3622036.981268457 L -6443876.556852413,3624622.2670829995 L -6445208.271920773,3629528.1607716167 L -6442066.501932115,3636782.8833633442 L -6441881.711577399,3646314.255706174 L -6444659.244192181,3658140.1860012277 L -6450779.701115486,3671695.104546859 L -6460248.314363381,3686971.8550444795 L -6462525.79982552,3697192.3718604357 L -6457606.702846857,3702344.1070715287 L -6455193.296286458,3707804.2947834423 L -6455291.146118866,3713611.5240386515 L -6457307.698694586,3722027.5352076096 L -6461243.065333109,3733057.500023823 L -6467200.439202403,3741256.6746373144 L -6475174.254327925,3746606.3314685053 L -6477571.408242667,3753367.2987676067 L -6474386.112333108,3761541.6914499956 L -6473935.0457564145,3770080.9768907065 L -6476234.238519258,3778947.0344709866 L -6474875.361495145,3787601.3054331574 L -6469858.414684073,3796030.569885475 L -6470227.995393506,3805636.2785203145 L -6478924.830611731,3825386.459951175 L -6481017.525719155,3837569.6021630033 L -6475565.653657554,3889899.9128664955 L -6478881.304690831,3897248.4018384083 L -6484403.864629085,3905704.2535647885 L -6490915.609562529,3906314.0570853204 L -6498384.03419985,3904848.058099489 L -6503781.471030453,3910116.1492687385 L -6507162.355285334,3933319.2437218344 L -6517446.383803291,3983704.2228898155 L -6515592.802962091,3995687.600053204 L -6507358.05495015,4015159.7265540287 L -6504341.296749652,4027582.6006098506 L -6502063.811287512,4036961.1117454427 L -6500221.139756411,4054742.573080498 L -6505009.8816113565,4062762.460841916 L -6509434.386092425,4064169.7910154723 L -6515027.522587843,4068642.9190355237 L -6508428.837132091,4090389.2513886006 L -6503167.210080256,4100413.7848141333 L -6488072.843726141,4120952.267024531 L -6430211.644079577,4149557.5492299413 L -6406197.58088667,4166455.9920201325 L -6379014.474429861,4189524.00555274 L -6364208.091598429,4213253.218036083 L -6362898.195150265,4232853.033283672 L -6384607.610925279,4262204.803397464 L -6387010.1081755785,4286910.501469592 L -6382552.987083707,4304303.856493672 L -6374709.527081903,4320473.120235841 L -6353690.403469299,4341534.645492314 L -6338215.435776162,4349239.253523703 L -6317321.323951719,4348402.370245088 L -6313750.19468707,4354288.747893909 L -6311603.175668141,4359462.086044378 L -6308282.069979814,4402268.575129009 L -6308700.519945706,4418395.969629139 L -6314837.229514668,4433214.44133871 L -6354973.13796171,4501511.375373177 L -6389265.886337013,4543413.002504435 L -6401680.569908751,4566617.611209094 L -6406099.731054262,4591531.653790459 L -6417079.395070185,4603416.493212616 L -6476478.8074405305,4641179.671416093 L -6568654.462763103,4674987.760366676 L -6643131.988841908,4692589.431415946 L -6660058.117417025,4698519.252969626 L -6779797.2578964485,4717937.383683897 L -6802979.764493128,4720664.4921929585 L -6833108.829954292,4718930.159312561 L -6857563.273052776,4721503.695026657 L -6884876.734633304,4716203.517146656 L -6909255.146519578,4710095.823982755 L -6922876.533371515,4694960.859652669 L -6939074.409837863,4693077.642481547 L -6943493.459663883,4700626.898042939 L -6935606.47374118,4719965.13795934 L -6939443.990547297,4743264.736308099 L -6934655.248692351,4756576.910553706 L -6925083.330957001,4759244.157788559 L -6915886.448586133,4766140.525799597 L -6907782.055697911,4775361.5671274625 L -6921773.134578773,4776317.951983342 L -6916342.969817876,4783676.273052134 L -6910358.545312321,4787998.056800537 L -6911021.675518975,4803414.220208545 L -6916451.728960381,4840600.923411489 L -6930078.570467367,4848587.533394733 L -6933747.549564423,4850741.091357964 L -6937873.161212712,4858778.398591103 L -6946542.723155691,4894550.296534928 L -6949342.07439067,4917804.611866016 L -6945624.226037157,4932837.950877197 L -6929230.6499059955,4964464.391957347 L -6935410.774076365,4985040.607871889 L -6945781.85443612,4996250.952250261 L -6990641.160197011,5019301.424466112 L -7008567.494396906,5028531.151070175 L -7036821.383035657,5034852.745229665 L -7082343.819003205,5035935.750052598 L -7099177.663720454,5034491.869071033 L -7138161.192798804,5013494.000358259 L -7167132.535555718,5000911.397612453 L -7193630.693185674,4990902.899819237 L -7219400.598706866,4984911.466417358 L -7215715.255644663,4981895.513978256 L -7213992.252566163,4976497.861774909 L -7221237.704263426,4973455.85810446 L -7226515.695280407,4972795.9492650265 L -7243496.259086522,4983661.765482068 L -7250616.698995623,4994755.533915409 L -7252671.322837194,5004523.336920185 L -7253019.196245923,5027939.594632939 L -7250002.549364917,5047624.232497559 L -7237799.818103649,5096321.590826627 L -7236549.58890255,5122875.343173586 L -7242343.879717831,5156474.969808652 L -7234250.396139706,5176278.46807741 L -7224417.545517936,5185249.600249709 L -7202316.730413293,5194111.961515635 L -7193739.45232818,5200161.778120479 L -7184308.799026647,5199192.411158822 L -7181411.709278751,5201542.676708946 L -7182803.202913667,5205906.916230044 L -7188358.268143234,5214450.1146015525 L -7188010.394734505,5223501.773013197 L -7171247.237893909,5226182.0529506905 L -7153902.548033409,5224355.857271873 L -7135677.209681245,5220351.044238014 L -7131372.262333285,5214067.64554846 L -7131258.159855222,5200925.609808991 L -7152603.449575852,5198619.561105069 L -7149885.695527623,5193730.312163139 L -7133714.981017031,5188403.403578767 L -7112521.865040315,5179663.582582661 L -7101688.92011326,5178051.458742431 L -7094334.597954002,5183915.215419133 L -7089355.722408782,5189283.627311643 L -7083246.174795575,5203423.30864911 L -7079462.981900965,5222073.495498993 L -7079300.010166444,5244567.273827483 L -7081849.22650561,5265783.684763825 L -7084871.328041666,5273345.003236091 L -7090214.440960761,5282379.223839048 L -7128317.544186427,5293914.317538275 L -7138992.86071452,5290903.200339259 L -7148929.015823746,5274840.198285789 L -7152048.96719221,5258257.951461375 L -7160544.759410062,5247091.342920385 L -7178753.733797081,5238208.858675081 L -7196859.403696643,5240922.773032354 L -7214834.718472487,5256307.21201207 L -7232505.574441011,5261317.814422178 L -7238761.841143084,5275343.703400543 L -7194489.523057145,5298128.528573186 L -7173600.86588775,5304468.4588168645 L -7166790.116802036,5304245.652283431 L -7159974.024380765,5307246.153218495 L -7166268.36234869,5315718.338119273 L -7172562.700316613,5320983.988851886 L -7204066.895447544,5332626.292921909 L -7217949.215185901,5340763.656585545 L -7234158.000962347,5356761.188802978 L -7256889.329662843,5391776.861984396 L -7263857.707147519,5399426.13459439 L -7267336.441234809,5408358.157295766 L -7269684.614573603,5432615.993357732 L -7262324.837759296,5472986.362467737 L -7270097.609884446,5489957.19134813 L -7265325.231994648,5508826.900877939 L -7268032.188052268,5521438.614358413 L -7275984.295877085,5539611.889486385 L -7307858.18303694,5568376.4992406545 L -7313505.754763356,5589492.79441413 L -7302460.7462063385,5601956.267437762 L -7303194.564289648,5612870.159270741 L -7306874.452696801,5622751.409561576 L -7320115.349529208,5622643.871167812 L -7368252.346377016,5615973.171822629 L -7385798.190557379,5626811.725301929 L -7402034.138289578,5640050.767603391 L -7406469.440761255,5646400.222867201 L -7412214.862320077,5650363.03236374 L -7445322.614715886,5657429.746862244 L -7451883.228905788,5662123.262908168 L -7487083.676409019,5712859.488412052 L -7502156.446781919,5744459.362000942 L -7520370.875823988,5775561.741055816 L -7525148.708368835,5788772.632911975 L -7526186.873939972,5807118.964485079 L -7523648.455591415,5823647.457990146 L -7521120.946552953,5835875.249851677 L -7514783.082664128,5851590.0455790935 L -7501444.335999316,5869546.036795103 L -7433565.495376264,5943030.462797288 L -7419487.587292583,5949473.282887234 L -7346923.309302043,5957389.906389492 L -7330796.12071235,5967695.33458194 L -7321381.831375963,5984081.39721601 L -7317930.259244426,5998556.978361916 L -7322083.032848469,6035343.225904533 L -7326415.14215218,6046871.24554442 L -7334432.483198604,6057348.219084046 L -7351608.746669533,6070879.261101645 L -7372160.4397402955,6078081.77949443 L -7366273.753747658,6083199.980546833 L -7357924.7919381615,6082471.01612256 L -7339764.7981270915,6078081.77949443 L -7331910.428815189,6082471.01612256 L -7325942.25695529,6097063.72159439 L -7337307.865645793,6102989.064862296 L -7340786.5997330835,6110072.259368833 L -7348999.640444321,6120886.994511532 L -7390874.915935007,6164005.363074656 L -7413464.980201686,6176935.813686359 L -7434228.62558292,6194300.090760771 L -7462091.114892041,6211930.090914358 L -7472983.9497051425,6222068.0071045915 L -7487719.6446599215,6243403.429066618 L -7510315.16358165,6266679.696698098 L -7534644.483572483,6316821.955139757 L -7535628.325232115,6326602.823782795 L -7532095.267233318,6333124.087469369 L -7545624.258907896,6421873.32565467 L -7550353.222196285,6432368.616303952 L -7560148.001552204,6443587.272233828 L -7585939.503054605,6462120.824144453 L -7598359.752600885,6464408.727634433 L -7614769.581377703,6453669.855307844 L -7624037.151625224,6442454.582722614 L -7633098.112897833,6423272.9826632 L -7644039.816967395,6403529.73943106 L -7644605.097341644,6410582.770319994 L -7640800.30846582,6422581.500303267 L -7643376.686760739,6435154.915323321 L -7671358.7332029715,6440865.649365958 L -7678772.833928786,6446800.080598113 L -7653513.996189828,6444145.104426249 L -7636288.75214295,6447916.55939812 L -7629010.572515395,6452535.793203593 L -7622460.756316101,6462120.824144453 L -7616688.284121015,6473668.11608162 L -7621536.804542515,6480067.672530754 L -7635332.072439073,6485367.374010387 L -7653198.739391902,6495109.539512643 L -7674304.803526816,6512752.792875849 L -7686029.194936146,6533167.73625122 L -7691084.324332559,6547878.516572785 L -7696786.10865099,6577636.920704047 L -7698297.159419017,6597351.960806459 L -7707222.31091286,6612557.608428813 L -7720963.366217399,6626270.21827909 L -7720202.386178337,6629399.391625298 L -7710875.037364259,6622382.012465349 L -7703422.865372594,6620170.911845088 L -7697019.879581656,6638465.082725349 L -7688361.115629284,6675158.818333824 L -7684338.808468449,6700654.842583428 L -7684974.77671935,6708246.018132656 L -7687534.902368615,6718658.141548678 L -7705319.860815202,6721175.735677606 L -7721180.773182918,6720861.128135774 L -7732856.295335789,6725338.760132929 L -7726583.66466857,6729958.854379641 L -7715891.98417533,6728313.448179996 L -7701096.510653997,6739294.677080862 L -7684664.974576474,6734616.548135682 L -7677185.640629055,6741958.869718554 L -7671782.749143404,6748693.693937879 L -7646627.104572412,6802491.9169617 L -7624662.210566028,6835925.783568715 L -7613557.423442454,6855832.124343054 L -7619079.872061218,6864869.393842238 L -7621042.100725432,6852810.2433846155 L -7635381.053015022,6849700.532483187 L -7649339.51528508,6846449.992293719 L -7672647.033669922,6837841.327147705 L -7703999.05505694,6824777.5737881325 L -7735416.420985052,6824777.5737881325 L -7760370.911236181,6813768.610003073 L -7787939.851048081,6801608.797922793 L -7846116.19617308,6800531.570191353 L -7897356.891743696,6799790.053555608 L -7949853.15985097,6799030.706776176 L -7983455.616063864,6798554.162654611 L -8005947.719178645,6798236.361644655 L -8011785.535914825,6793647.715127789 L -8009823.307250614,6778523.832649587 L -8018166.81440506,6767401.59583583 L -8030249.988533216,6753976.803489815 L -8044947.612222144,6744466.266175412 L -8052242.044495353,6731762.193011764 L -8060384.508649428,6717521.880494621 L -8055791.466459298,6704912.11401509 L -8048757.967072506,6674341.583537141 L -8048605.682009101,6660895.4744541 L -8054987.071818824,6651492.815652768 L -8056949.300483038,6638188.031344074 L -8054987.071818824,6631941.528764851 L -8049219.942959297,6627203.569878339 L -8045762.916172713,6605434.021702655 L -8048469.872230332,6584151.818644492 L -8052878.012746256,6565205.995960742 L -8058704.920172339,6556854.757379884 L -8066227.668721166,6552896.58460109 L -8071755.57199498,6552160.010418629 L -8084067.062398752,6559203.220810996 L -8104461.127070552,6557454.667489291 L -8111396.887944427,6560163.406377623 L -8121376.457655063,6567779.85190006 L -8135492.548324085,6579011.745474726 L -8143346.917635986,6575128.584453805 L -8145749.414886286,6563130.346924322 L -8150994.677972974,6552725.196742404 L -8154332.036306956,6543565.24796673 L -8156843.292699762,6528520.536894115 L -8161023.228259559,6509190.492902269 L -8169361.280758958,6486403.94928274 L -8182123.9490589155,6468002.722308546 L -8182841.403177078,6451520.242897272 L -8185200.374506478,6430866.134085625 L -8178688.629573035,6410767.975806985 L -8182488.075113299,6394146.192310094 L -8190472.91086841,6374354.095287051 L -8188015.978387111,6353939.601901457 L -8180161.720394702,6342606.643369592 L -8177704.787913404,6328286.838430605 L -8141379.234316724,6326036.040783609 L -8142895.739739801,6306819.430545052 L -8136851.425348197,6291315.069106067 L -8130067.949537729,6277297.488265962 L -8124289.911368105,6270918.63264625 L -8111342.564032921,6265355.380103162 L -8096095.912615401,6257282.093778028 L -8087502.381884632,6248027.1807838 L -8083398.477537047,6239788.737546678 L -8080876.423153634,6229118.949574188 L -8080229.656912126,6217787.531001822 L -8082729.892675343,6193692.857143714 L -8079887.126838954,6186310.525375484 L -8070456.5848569125,6176575.531077517 L -8054492.3680017395,6167931.467872572 L -8047621.951668961,6145054.2286876105 L -8051551.752332944,6125184.300894231 L -8060411.670605182,6109503.431573443 L -8071674.086127719,6102420.706280992 L -8072657.92778735,6086311.299273395 L -8067570.293099624,6071024.88596955 L -8060933.53637802,6054699.588841321 L -8053019.388499563,6035955.5203890465 L -8053513.980997157,6022865.401038374 L -8046496.734256022,6015226.482368695 L -8026515.776214557,5998203.928441582 L -8019645.248562286,5981567.079786189 L -8012611.749175494,5977052.744883272 L -8004425.759100519,5975052.460379356 L -8003931.166602926,5965665.285835804 L -8009910.247772924,5956368.012727399 L -8010883.1801224565,5944688.683208439 L -8010176.635314392,5931766.926649031 L -8008350.216428946,5914573.144082605 L -7999022.867614868,5908124.3066131035 L -7985249.307019017,5894194.23927421 L -7981569.418611864,5885352.800457181 L -7981074.82611427,5873530.608785449 L -7985091.678620055,5849176.683475911 L -7988521.432131394,5831750.208148859 L -7990250.001184432,5825330.293462321 L -7996538.884497307,5813541.250821618 L -8001164.543298241,5806114.421958864 L -7993772.14987313,5796827.727608893 L -7979879.032144167,5787065.467015509 L -7973986.891496479,5772934.4759093765 L -7979389.782982131,5760933.83102656 L -7987244.152294033,5754596.354660803 L -7989695.51880079,5736295.820222938 L -7986749.448476946,5713123.498514934 L -7980862.873803798,5706106.027900152 L -7960245.83619194,5702599.199243567 L -7958278.264192169,5690692.825173988 L -7942569.525568367,5673929.951668856 L -7943064.229385451,5657877.380391418 L -7953049.253751136,5648049.9049819335 L -7962827.780461399,5632212.722093071 L -7970062.434168053,5618247.388678929 L -7994114.679946303,5610612.548734507 L -8019645.248562286,5606452.167187357 L -8023075.113393117,5593292.887363753 L -8022096.726388535,5585679.085808712 L -8010220.049915802,5588757.562817161 L -7990826.079549289,5586077.226132575 L -7976226.305692769,5585449.367275566 L -7966067.288962974,5584132.635847042 L -7954353.806863742,5582219.028479983 L -7943553.367227998,5587761.871752855 L -7932753.038911743,5584301.0187844755 L -7928339.33242128,5563578.623772838 L -7921463.461433453,5552556.120584489 L -7920479.619773822,5542217.521539364 L -7927350.147426092,5533976.420234255 L -7939944.1666974975,5531433.935035106 L -7994968.055162724,5524921.244491194 L -7996642.188984764,5516680.665727498 L -7996163.849132825,5502876.6364139635 L -7994087.406671058,5488805.617011283 L -7994114.679946303,5481869.134162842 L -7989086.712505644,5475769.8156392025 L -7983406.635487915,5463039.658639032 L -7979389.782982131,5454552.531139658 L -7983384.928187212,5443555.033253882 L -7992152.45128209,5427331.957438711 L -7985771.061472366,5419855.126434307 L -7985254.761674066,5410941.835977981 L -7987244.152294033,5402232.478246659 L -7996348.639487541,5392556.474478242 L -8004425.759100519,5379206.954348917 L -8004425.759100519,5365024.389081122 L -7994989.762463429,5361257.880072111 L -7988717.131796209,5356925.450952509 L -7987244.152294033,5348162.124228645 L -7990679.360460421,5337394.610252959 L -8003713.759637407,5334116.1874269005 L -8021091.177428199,5327503.030591143 L -8026401.673736493,5321965.981493875 L -8031304.5180695,5310455.804055333 L -8027651.791618101,5278053.633861168 L -8029478.099184055,5258583.038327544 L -8031000.059262181,5247829.345146882 L -8026738.637835124,5239565.718292432 L -8020955.256329942,5232134.530677372 L -8023700.172333921,5214832.5991073735 L -8028874.747543957,5205774.623339036 L -8027048.439978002,5198781.080563846 L -8022172.757600746,5191792.840384025 L -8017911.33617369,5183167.315043651 L -8014258.721041781,5181114.757779459 L -8008779.687024427,5186041.670143427 L -7999506.662121857,5183152.751015022 L -7988390.965688185,5176190.547384285 L -7987173.464417378,5167988.989250594 L -7989402.08062306,5156270.298750298 L -7997691.152546508,5126883.070260494 L -8005126.960573027,5108752.7263912065 L -8003605.000494901,5102237.088431877 L -8000659.041490549,5095377.139054308 L -8003001.648854802,5070536.310743329 L -8002267.942090984,5055564.216282122 L -8001724.36901744,5011549.474849133 L -8000870.993801018,4996567.410778321 L -8008475.228217107,4981292.376481772 L -8007447.971956067,4966973.141537798 L -8002066.787771119,4956541.025523994 L -7997028.022339853,4942443.909424106 L -7993255.850074831,4929966.549900539 L -7989304.230790652,4924369.077748929 L -7982607.584183003,4921571.462253387 L -7981085.624104877,4914780.748355653 L -7984129.544261127,4909590.945356172 L -7992804.6721786475,4901512.307422016 L -7994777.810152958,4891647.336362357 L -7992956.845922561,4884080.943944988 L -7988695.424495505,4879703.051514584 L -7982096.739039752,4879745.688714478 L -7977128.661485139,4868965.484706645 L -7975720.803885076,4855658.998884052 L -7974693.547624036,4849508.295003886 L -7978498.3364998605,4841747.522524453 L -7981254.161813937,4823459.70959885 L -7983825.196773299,4813079.093139204 L -7980781.276617046,4808732.320982131 L -7976519.85518999,4807152.065931356 L -7969029.723251965,4809593.056740093 L -7963735.479589326,4808337.161581733 L -7962822.3258063495,4802807.867206885 L -7962213.519511201,4796887.060791459 L -7960207.876245579,4792857.168202836 L -7955489.822267287,4779468.861999658 L -7950440.258845414,4762895.408647942 L -7949255.26286592,4751216.230572537 L -7951059.863131169,4719615.550540429 L -7948385.523684353,4712373.5959173 L -7942998.996163846,4705765.202616091 L -7935492.500260675,4699552.010220056 L -7925643.39699325,4694402.843631512 L -7913380.775845935,4686997.670728747 L -7898297.207482427,4684279.57888178 L -7892209.478489417,4676087.86639779 L -7887948.057062359,4665175.752623167 L -7886724.989817013,4656221.084717304 L -7892513.825977244,4649996.306188341 L -7900118.171712824,4642609.165401563 L -7903738.170233931,4623998.684305308 L -7905705.853553193,4606860.082002212 L -7906820.161656033,4585249.181902043 L -7914391.77946132,4566714.118649653 L -7922338.543950579,4545901.685294938 L -7924469.310323853,4527436.567305921 L -7921811.334842182,4517338.537365547 L -7918691.272154229,4501333.304426598 L -7922039.6511178,4494065.120649665 L -7925991.270401977,4481046.825768975 L -7921882.022718835,4470856.723552418 L -7916864.964588274,4455058.408711764 L -7917468.316228373,4447045.626585405 L -7921425.390167601,4427991.614312443 L -7925078.005299511,4417336.240932169 L -7921425.390167601,4405931.710645597 L -7915642.008662418,4395298.519681555 L -7911076.128428042,4389606.432765095 L -7911837.108467103,4380451.276057253 L -7909864.081812285,4372927.185912377 L -7901227.025160616,4367882.629141419 L -7893122.6322723925,4358556.89714421 L -7887339.2507672105,4357422.16389889 L -7880338.25667173,4357422.16389889 L -7875772.487756846,4354774.82668287 L -7873946.068871399,4347592.638779212 L -7872728.567600593,4339659.966398275 L -7861591.163866217,4329819.726582744 L -7855079.418932774,4320782.737690938 L -7843208.197115089,4318898.151043728 L -7837424.815609905,4309117.13786764 L -7837299.803821744,4296564.076762807 L -7838642.428200202,4283918.210666091 L -7834685.354260975,4269276.9550893605 L -7839088.151441338,4246977.542237357 L -7838642.428200202,4235190.285995577 L -7843208.197115089,4225470.63622549 L -7842295.043332111,4215013.024596036 L -7844730.157193214,4208295.435503041 L -7851622.392146189,4205804.01142563 L -7854166.265149797,4197481.286527313 L -7850817.997505716,4193382.1589959515 L -7844306.252572272,4190228.917256982 L -7836131.171807397,4183858.8266013796 L -7830005.3715485325,4153256.0252913837 L -7827108.170481148,4144190.9274463137 L -7824287.223264955,4133280.2902428787 L -7824640.440009242,4127630.51867276 L -7820715.982680816,4119484.904041334 L -7815818.593002857,4107119.3032117416 L -7808089.346798609,4095176.126353797 L -7803659.38766249,4086961.812985809 L -7799376.147615236,4075895.8560763993 L -7798158.646344432,4069261.425642481 L -7792679.6123270765,4065958.9379773717 L -7786390.729014201,4065103.797697874 L -7778982.082943436,4063012.4246095563 L -7775938.162787185,4058962.101456996 L -7776487.190515777,4053060.4219642533 L -7776949.166402571,4040032.1886522463 L -7779172.327953203,4019377.7592888526 L -7780601.892853969,3992785.4188999254 L -7779291.885086315,3975348.0055425484 L -7774416.314028551,3957819.633132759 L -7769850.433794173,3948336.1513176016 L -7771067.935064979,3941046.4031814355 L -7772285.547655277,3933033.072412107 L -7780808.390509391,3928664.541306545 L -7788918.238052663,3932447.967896485 L -7794571.1531146355,3931394.6143211704 L -7801811.261476339,3922114.6857375 L -7803942.027849615,3912296.8681485215 L -7802724.415259316,3898856.1791756996 L -7797055.247551688,3890483.0211206395 L -7794810.37870035,3879992.5650617066 L -7798158.646344432,3876730.8460070915 L -7805295.450218678,3869770.263336878 L -7812062.673383492,3845776.0700703436 L -7811247.369432922,3825386.459951175 L -7817943.904721083,3819975.681196217 L -7821063.856089546,3804066.950070056 L -7827988.818972814,3798370.1542302393 L -7830728.280321744,3786496.7556201136 L -7832859.04669502,3774275.7717471747 L -7831945.781592551,3768875.3411977566 L -7824749.199151748,3767387.769146723 L -7820683.477389505,3757761.342766216 L -7823727.286226266,3752368.315311384 L -7829206.320243618,3747707.354586872 L -7836207.3143391,3748065.7757201 L -7842474.379031778,3742574.7350207805 L -7850877.776072271,3719600.448793339 L -7857509.078138828,3706923.904825234 L -7855416.383031405,3688449.5954389004 L -7854111.94123829,3674036.3270654446 L -7851258.266091805,3661724.6626278926 L -7850203.7365555195,3652041.6848456115 L -7845029.161345484,3647406.1412967127 L -7840164.388278327,3649552.228902536 L -7835598.50804395,3648485.5101340674 L -7831391.410528401,3640602.0875471206 L -7826771.206382516,3635691.8059268203 L -7827075.553870345,3631785.292908531 L -7829815.126538768,3627525.0941959447 L -7831119.679651375,3620073.1364529943 L -7827901.767131014,3611207.5220640795 L -7822352.156556496,3590903.9487607623 L -7813954.214171051,3568589.1438277583 L -7810334.215649945,3560264.2664512913 L -7811247.369432922,3553205.2093991213 L -7809421.061866967,3550029.9422718138 L -7803719.166229046,3553558.0231923815 L -7787505.0371170435,3549677.0981333256 L -7782026.003099687,3539803.782857858 L -7779900.691381463,3530994.6931009186 L -7775030.463659257,3526064.3538812106 L -7777155.775377481,3519024.351409745 L -7783852.310665642,3516912.995309953 L -7787907.234437279,3513621.1270547686 L -7786292.879181794,3505658.856196255 L -7783917.543887247,3487366.93108287 L -7784308.943216877,3473909.4541354454 L -7790429.2888206905,3445249.354928851 L -7795348.497118846,3416951.898659072 L -7791875.106367113,3407504.076175716 L -7781270.477715673,3394602.17597452 L -7773204.156093302,3388790.581356246 L -7771752.883891829,3381439.459637274 L -7763773.502791768,3348168.342452979 L -7762854.894353742,3330046.5798729183 L -7757620.540577152,3320017.211044142 L -7754174.423100665,3301216.781686751 L -7739726.711668569,3285035.0553542445 L -7735465.290241512,3274323.7233468024 L -7729681.9087363295,3273287.614562666 L -7726637.988580077,3269834.4084945824 L -7718973.975597433,3257903.1119688167 L -7709010.658532453,3245649.9207141767 L -7700460.542403094,3239484.377083277 L -7698329.77602982,3229841.803488351 L -7694236.892311824,3216680.2458648505 L -7685741.100093972,3194870.512814573 L -7680979.631514272,3179684.121302716 L -7674587.44371394,3174184.9787051 L -7667140.837696814,3154325.1045529363 L -7663939.289141601,3142689.067783304 L -7655416.334967995,3137900.6189282564 L -7648719.799679835,3136532.7202197956 L -7642327.611879503,3142017.127523785 L -7635636.531246392,3140978.692434723 L -7629543.347598331,3134139.4065776207 L -7614851.067244963,3129488.119381762 L -7608241.472479112,3126961.6670840248 L -7605197.552322861,3120129.0881701843 L -7605197.552322861,3108180.178805296 L -7611285.392635363,3099310.351813735 L -7623727.238162856,3082341.752905402 L -7634418.918656096,3063424.8687638654 L -7635582.207334884,3057460.8585108058 L -7635647.329236998,3050953.0243176795 L -7633821.021671046,3042737.53473452 L -7628706.225027565,3033423.390445816 L -7615867.525515396,3018131.1978606824 L -7617231.85719456,3007186.9885129686 L -7626591.822619439,2967039.8632948156 L -7630048.8494060235,2955989.139187062 L -7636549.685029369,2935514.0830202657 L -7635636.531246392,2927423.4600326605 L -7629929.180953421,2904848.346685249 L -7624977.4673639545,2895777.3443372776 L -7617672.125780646,2894095.904071912 L -7613720.506496466,2891069.8599390914 L -7612497.550570612,2887036.082324792 L -7617373.121628376,2882007.3002438685 L -7619498.4333466,2875612.708228035 L -7621634.654374924,2866559.308756972 L -7628396.422884689,2863371.01673734 L -7632288.263602312,2855822.240710981 L -7632288.263602312,2844745.618710095 L -7626194.968634762,2830340.1059086304 L -7619498.4333466,2826322.441187638 L -7616764.426652718,2819975.080839104 L -7609589.440193128,2814120.2739228494 L -7603066.897269077,2809605.185542062 L -7597587.863251724,2801247.3119042157 L -7574997.798985045,2791021.183047901 L -7557060.555475052,2783090.6269116974 L -7522055.807636634,2767908.7882406963 L -7498057.997089384,2757525.9869691883 L -7495764.258981588,2750338.289338418 L -7493932.496760585,2745449.1391593693 L -7482800.547681257,2708870.4708017875 L -7468396.362170062,2661688.4304086333 L -7459384.270153911,2632183.9539494235 L -7480099.046278686,2610468.0471653137 L -7476430.06718163,2604689.778772407 L -7464575.209329092,2589852.604437823 L -7462140.095467989,2577959.4282115856 L -7457416.58683465,2572851.4957212727 L -7436174.601601476,2560782.370568113 L -7432521.875150078,2552764.5527491192 L -7430646.698327664,2543893.1033594566 L -7426314.589023953,2537515.601314271 L -7418221.105445829,2536200.3995443326 L -7403523.370437411,2530553.4588401294 L -7387738.711920887,2525190.1726982426 L -7382982.586676747,2517904.721237344 L -7378492.8489740705,2505218.467986595 L -7374649.877512906,2491183.1413868465 L -7371595.159366049,2487834.1276390874 L -7366529.2319790255,2488208.8058087947 L -7358060.713036421,2491733.5789101426 L -7353609.046599597,2497062.9440779546 L -7331519.029485562,2513893.8615002027 L -7321599.238341482,2523488.692559115 L -7312152.332394293,2524767.700420776 L -7293519.342066842,2522878.5995532777 L -7289741.603827281,2523312.7989794817 L -7242202.503964523,2523864.1545637446 L -7234946.142957163,2524697.2893985775 L -7218297.08859463,2528816.345833792 L -7208899.1632233905,2532102.9848845843 L -7202381.963634898,2533816.992759436 L -7191853.36619567,2539018.7459084755 L -7182737.9696920635,2556196.954351513 L -7177628.5163841415,2569898.1833249517 L -7174041.134473839,2581950.4027591916 L -7166078.117338924,2603145.330147258 L -7160658.861888126,2611187.5143195144 L -7158723.795179667,2607283.9042107514 L -7154103.591033782,2584116.871772238 L -7147722.312543548,2570615.8897556 L -7139123.327157732,2555503.339765929 L -7121789.435287838,2520239.0407868624 L -7115728.8682505805,2514960.913845879 L -7108977.8977314215,2512392.9445867487 L -7104259.84375313,2512181.8662492083 L -7099465.758562627,2514796.756826351 L -7092937.649664037,2514831.9417746575 L -7088306.647527546,2512041.148811629 L -7042871.0407628175,2511595.5912869563 L -6995690.7236188855,2511196.9886702434 L -6994679.7200035015,2511419.70072896 L -6992543.610294669,2517482.4303305475 L -6984694.695637817,2530729.5478522014 L -6975867.393976384,2537715.211202291 L -6974274.857341095,2539605.8504505637 L -6971459.25346046,2542953.290308097 L -6971491.870071263,2546430.7284693695 L -6962093.833380531,2553552.0556504773 L -6943276.052698364,2564333.963828823 L -6925648.611331249,2585212.0301124477 L -6909222.529908775,2616236.506647001 L -6893796.431472097,2639188.7637929884 L -6879381.447970295,2654047.1017191387 L -6866129.641827792,2664551.92140363 L -6854051.922354684,2670694.758834886 L -6847599.955987796,2675667.4403253556 L -6846762.944736523,2679492.777118601 L -6835457.003293085,2687442.5152826137 L -6813687.697632024,2699522.560880394 L -6799919.591691222,2711599.9687824133 L -6794152.462831695,2723662.8432214134 L -6772660.4540222,2736127.093752974 L -6735427.089978101,2748970.0704756244 L -6708358.197318846,2755109.8977621854 L -6691448.321389385,2754526.772231903 L -6667200.3759463215,2764812.3443162995 L -6635598.330982981,2785952.3499339838 L -6616318.463094532,2800638.620845869 L -6609366.449575001,2808816.8871157872 L -6588695.199371126,2822078.6626971946 L -6537128.337692485,2849558.4924704195 L -6514375.301691285,2856457.1728227455 L -6503596.680675737,2862747.8218729915 L -6497204.492875404,2870743.5496513722 L -6490893.790942334,2873177.9941279097 L -6484670.140851064,2870072.166316742 L -6471722.79351588,2872938.031958688 L -6452056.980952849,2881791.2813955005 L -6436679.974411611,2892510.8099767147 L -6416889.150060419,2916137.6036565565 L -6410573.10479179,2925581.9412803636 L -6407898.876664463,2934044.806272073 L -6408850.101713291,2941500.5950719453 L -6414878.052139748,2949466.220188829 L -6425971.929953225,2957918.8012682493 L -6429233.257074994,2961609.884161454 L -6429488.735306365,2965181.4147453513 L -6432315.248497098,2972314.7194359046 L -6441528.38351362,2987558.879294396 L -6443865.6475423165,2994654.816757188 L -6444354.896704353,2999891.3446049434 L -6450198.056776091,3005638.0288412953 L -6465705.64108003,3016254.074266354 L -6468901.734980196,3021413.6801688108 L -6469673.513009865,3026962.788957891 L -6471630.398338521,3030259.442865353 L -6473750.144082206,3031641.3500794624 L -6476734.285671901,3037206.5654973905 L -6479131.328267153,3046401.7582504777 L -6479370.553852868,3058225.9197711 L -6477451.739790064,3072661.318081683 L -6477826.886474038,3077318.2129347078 L -6481251.18533033,3079811.5142825614 L -6483175.342728692,3083156.736871522 L -6483865.746210591,3089910.6203157622 L -6486773.745268584,3094853.2110299612 L -6491893.9965671105,3097994.9614341184 L -6493785.537354671,3101612.548242367 L -6492437.569640655,3105694.109140919 L -6496209.741905675,3109740.279546187 L -6505102.276788714,3113726.6841395614 L -6510548.694195266,3119531.4205098217 L -6512548.99412533,3127156.8682066654 L -6517500.707714798,3133968.364083267 L -6525393.148292549,3139989.2422585217 L -6527969.526587468,3147992.537398389 L -6523860.278904325,3162801.4489556155 L -6475261.306169725,3157675.9470084463 L -6435625.444875326,3163082.9760048916 L -6388765.83918437,3177356.874751502 L -6357658.275399134,3182330.4381402554 L -6342313.885468699,3178018.2325522443 L -6330931.91281305,3178630.703390521 L -6323523.266742285,3184156.207722067 L -6313565.404332354,3185295.8832313353 L -6301058.214263767,3182048.645416102 L -6290725.316489354,3184560.6424773275 L -6282555.690379526,3192834.892756178 L -6275136.246318154,3190774.9668759974 L -6268461.418330699,3178398.029011609 L -6260797.294028563,3169373.4047163064 L -6252154.782721846,3163694.662351605 L -6241387.0710163945,3161969.555434987 L -6228488.592937668,3164220.919591841 L -6218199.109764664,3168761.3428431056 L -6210513.278161825,3175593.1993588083 L -6202126.245086477,3175397.3189573186 L -6193027.2125480175,3168161.5910116336 L -6188673.395943602,3159510.623853888 L -6189059.340618182,3149434.7818682976 L -6185455.594742731,3142224.798777878 L -6177867.612972299,3137888.3625225094 L -6172736.452363673,3132014.901831614 L -6170067.5675719045,3124630.8354792846 L -6161066.384865851,3120116.9721889845 L -6145727.338270973,3118494.6491431817 L -6137704.431250012,3114872.731383579 L -6137003.341096995,3109240.529292324 L -6132464.622818372,3104061.343253671 L -6124088.499053123,3099334.7975068735 L -6118359.441459448,3093440.8663105266 L -6115277.561356835,3086356.82964692 L -6110206.179314767,3081903.7588228215 L -6103145.406652731,3080091.2595763034 L -6095307.401305976,3065235.2490086374 L -6086697.506610062,3037376.3219830026 L -6081599.073931729,2999794.609344203 L -6079810.726312136,2946669.926274937 L -6071124.8004040085,2946718.180565846 L -6067080.785942471,2950647.670337302 L -6060672.234176992,2952709.2317402842 L -6053926.829632374,2948224.7563454746 L -6048197.772038698,2946151.727084585 L -6039093.284845189,2945970.935501437 L -6034201.238502788,2940934.3414300717 L -6028461.382918505,2940127.1898679095 L -6024526.0162799815,2942862.036468474 L -6020715.772749108,2946151.727084585 L -6012622.289170983,2946898.9812926967 L -6006219.192060555,2955506.6705438606 L -5999136.712097814,2958123.8234256385 L -5996136.317862464,2968005.326148406 L -5991575.892283135,2994074.3759410633 L -5983080.211384774,3009450.1298909215 L -5974660.561698625,3026987.1111693303 L -5974356.214210796,3034817.7688314775 L -5979074.2681890875,3042725.3603158914 L -5979878.66282956,3054073.0439490518 L -5982819.278498355,3081867.259925279 L -5983792.210847888,3092101.7125639287 L -5980878.757134846,3099091.215523018 L -5979780.812997152,3108838.2706600036 L -5984368.400532234,3120763.380610764 L -5993239.228114568,3138609.007395276 L -6001859.92080109,3143422.096246544 L -6004055.920395969,3143617.652067938 L -6015720.5332387425,3153958.236395544 L -6023922.664639882,3157834.8809753247 L -6028667.8805739265,3155217.7739490694 L -6034098.0453348225,3159706.280211667 L -6040212.9362835875,3171283.090980334 L -6047654.198965155,3176487.236698665 L -6061139.7760383235,3179365.628911375 L -6065167.426534716,3180725.4506701026 L -6073027.250501666,3180321.2535273596 L -6079761.857055677,3183212.6144730337 L -6085376.700851799,3189414.2812784766 L -6091372.1459869435,3191719.077074311 L -6097758.879132225,3190162.0831136857 L -6103547.7152924575,3192430.215511542 L -6108738.543148148,3198537.7987166625 L -6111749.846693597,3205163.470123017 L -6112576.059954264,3212283.5897525456 L -6117663.69464199,3217134.6931072013 L -6127018.205411821,3219726.7016368285 L -6130252.370577838,3223314.6852026107 L -6129681.63554854,3228305.026931665 L -6133872.480418435,3232190.294937227 L -6149706.119510907,3236224.2927228 L -6161142.416078063,3243422.108920884 L -6168192.279430001,3253739.458404497 L -6175633.542111568,3260244.088830591 L -6187401.459441797,3264237.19925554 L -6203332.948366677,3274730.8374693613 L -6205615.888483865,3281220.933120447 L -6199549.866791558,3287207.9045655234 L -6197375.685816875,3292530.5735820285 L -6199076.981594668,3297175.752999011 L -6204055.857139888,3297805.87745474 L -6212301.625781419,3294408.237393145 L -6218182.857119009,3293704.019453074 L -6221705.005807708,3295705.451147306 L -6223362.886984092,3299449.401553658 L -6223167.187319277,3304974.8052221346 L -6226118.712298171,3308721.4732272653 L -6232211.895946232,3310712.6102870153 L -6236076.574708101,3315277.437833087 L -6237701.839273684,3322406.1737613305 L -6245344.144955622,3331396.856876036 L -6258998.148418363,3342240.7042807364 L -6269776.769433913,3356878.45264965 L -6277669.210011665,3375298.062582859 L -6286877.001692629,3387421.9405341684 L -6297421.851777514,3393233.0556105813 L -6304672.869449316,3401512.288297419 L -6308646.196034199,3412264.5921695055 L -6319881.449600983,3428939.921113347 L -6338378.518830175,3451573.846139138 L -6355157.928316426,3467123.3234734638 L -6370219.789379229,3475575.187248096 L -6378682.964986278,3485123.07987067 L -6380552.687153643,3495769.4629591326 L -6390320.415873298,3507906.4455065145 L -6407980.362531724,3521550.6669516102 L -6412991.966007238,3527711.7943150634 z" /><path fill-rule="evenodd" fill="currentColor"    d="M -7642441.825677058,7333507.057643699 L -7641805.857426154,7289968.359240649 L -7640947.027554686,7231762.779382834 L -7640773.035190575,7180186.982226445 L -7640599.154145955,7130271.202704184 L -7640419.818446288,7078913.484977736 L -7640240.371427131,7027867.893860588 L -7640044.671762314,6973664.46173072 L -7639849.083416992,6919001.868166779 L -7633310.065208303,6926764.920404295 L -7607437.07783864,6964540.091144843 L -7600697.0166295795,6980035.943174849 L -7596457.302503227,6998149.734732025 L -7606795.65493269,6986629.579789014 L -7617720.995037103,6993228.480932129 L -7623102.17922205,7004070.080417447 L -7627700.676067231,7015851.167171587 L -7627668.059456429,7024144.708863414 L -7624107.728182387,7031410.999546335 L -7613486.7355658,7037737.92224561 L -7587662.617452596,7039884.343022388 L -7585765.622009988,7042231.669954309 L -7570671.144336383,7088023.564710868 L -7563077.7079109,7098280.218277297 L -7554261.315559564,7106440.142174747 L -7533894.412843517,7129939.943391985 L -7514353.723388139,7155392.741698341 L -7491160.307481361,7179594.413182684 L -7466140.584008628,7198244.631864886 L -7443393.002662477,7212419.489842969 L -7421678.020912923,7229768.560724389 L -7398517.332936438,7254125.864008946 L -7373318.2737640375,7271848.5619079275 L -7346260.179095387,7284411.715498144 L -7318930.353549712,7294890.08985493 L -7276875.742359357,7290794.715076504 L -7263814.1812266195,7291940.449852738 L -7255693.535692742,7299645.6775679225 L -7263857.707147519,7320996.857248319 L -7274283.000099291,7338210.767106515 L -7288214.300413597,7345318.620049962 L -7302928.17674818,7347929.1181368185 L -7316223.508811583,7347588.543526185 L -7329497.022254792,7344410.951915766 L -7341938.979101775,7346226.587585892 L -7353837.362875213,7353474.363969094 L -7366235.682481806,7357072.46390858 L -7379009.26009186,7357545.93509502 L -7391467.4695844995,7363685.822021731 L -7403985.457643693,7368104.19535041 L -7416960.078254122,7364444.1111028865 L -7450665.727634983,7347304.74271954 L -7472554.590429155,7343219.737358579 L -7546711.405054984,7336415.7613132475 L -7570518.970592468,7332506.408009661 L -7594228.686297545,7326541.912284105 L -7606648.824524333,7326296.74267738 L -7624385.025033953,7330146.350110802 L -7638593.399560843,7329674.540159505 L -7642441.825677058,7333507.057643699 z" /><path fill-rule="evenodd" fill="currentColor"    d="M -7185580.735528451,7306982.118918332 L -7173296.407080431,7311443.675248836 L -7148994.2490453515,7308092.643250103 L -7136171.802178838,7308036.168835202 L -7130562.413037764,7309617.413999885 L -7128056.611300007,7312027.582792069 L -7111304.36376951,7308280.765747541 L -7103901.172353793,7308694.998157189 L -7105808.965787009,7316963.229476669 L -7121245.862214295,7325202.5571030285 L -7127599.978748773,7321713.353915202 L -7160392.474346657,7322467.571008343 L -7174905.307680867,7330939.27157475 L -7181074.633860629,7330863.687336312 L -7195397.333504565,7342973.8493473325 L -7205871.495712793,7335320.155708448 L -7208752.332815033,7328277.832970757 L -7201169.805699651,7318263.537027788 L -7194033.001825402,7318056.260675289 L -7189162.774103196,7314023.958411744 L -7185580.735528451,7306982.118918332 z" /><path fill-rule="evenodd" fill="currentColor"    d="M -6887980.433356112,4746321.179848156 L -6886887.943873467,4755369.736613976 L -6892682.234688748,4754303.105480202 L -6906439.542638943,4745606.12261885 L -6911081.454085533,4737462.779823009 L -6912163.14557757,4734030.817641509 L -6898095.924165006,4737757.030906465 L -6891470.076753499,4741120.22183037 L -6887980.433356112,4746321.179848156 z" /></g></g>
</svg>
