<?xml version="1.0" encoding="UTF-8"?>
<svg xmlns="http://www.w3.org/2000/svg" viewBox="1060209.3906634257 -6275051.945758786 848626.326943994 430416.3911048211">
  <g id="map"><path fill-rule="evenodd" fill="currentColor"    d="M 1060600.789993055,-5986380.2107819645 L 1069678.1152308108,-6006261.448332778 L 1071547.9487176654,-6018643.046976865 L 1063590.386237799,-6025906.739387438 L 1060209.3906634257,-6028063.694190275 L 1062981.5799426506,-6029681.680985918 L 1074298.319376695,-6028337.349102803 L 1081484.1038268914,-6032443.542338639 L 1085245.4781013054,-6036527.595426603 L 1095290.2810335455,-6032693.254932866 L 1110031.4306433722,-6024949.089397144 L 1116988.898817952,-6019720.552089617 L 1119858.8266100935,-6015684.591219294 L 1121456.9292199216,-6012301.445299664 L 1120576.3920477468,-6006518.299753693 L 1123935.4576824338,-6004254.421574355 L 1130871.218556309,-6003379.544800219 L 1135491.422702193,-6001597.844094429 L 1133871.6127916598,-5994001.618779397 L 1133567.265303831,-5987702.131928565 L 1139981.160404867,-5988575.428917756 L 1148014.865416436,-5993384.402529848 L 1154287.4960836556,-6002031.07267525 L 1158157.5181810837,-6010405.381249196 L 1161103.5885049275,-6030841.034195282 L 1162114.5921203122,-6032572.356190828 L 1166941.4052411085,-6030961.908725905 L 1186520.0546428477,-6031855.740111404 L 1195749.664944009,-6028047.538930006 L 1210382.0554113307,-6027403.660985935 L 1210110.2132148137,-6024200.808582106 L 1212708.4101299287,-6019205.908505605 L 1219187.5384525694,-6012004.108961372 L 1222383.6323527351,-6007305.345173326 L 1229188.9267834004,-6006478.17649479 L 1239657.7456560722,-6009072.099849495 L 1245799.9098800817,-6011754.992738225 L 1248104.557297975,-6009851.152129344 L 1257681.9296883743,-6011706.782830322 L 1266161.3579410797,-6017525.501514375 L 1268259.5077035513,-6021956.354389497 L 1276825.876478566,-6025077.956445303 L 1288403.5487990296,-6032274.48737888 L 1304307.8757681553,-6037841.019725655 L 1356499.7963876,-6043790.15204183 L 1358521.8036183692,-6048283.071872631 L 1357749.9142692084,-6058592.190069027 L 1359130.4985940268,-6060111.004349732 L 1365707.4767490749,-6057542.081480672 L 1376263.347463547,-6055135.651415658 L 1384340.4670765253,-6051486.60144102 L 1389591.1848182627,-6046726.028058499 L 1394450.6145498613,-6046532.4085441 L 1401984.1610892962,-6049864.525486314 L 1412181.2490849416,-6052019.37132735 L 1421704.2975638337,-6047072.8028727025 L 1424465.4662134703,-6041726.023205717 L 1422791.3323914302,-6038985.457426646 L 1422976.2340656377,-6034650.466430609 L 1425933.1023800885,-6031026.221920786 L 1433673.2578944357,-6025134.1509894105 L 1443598.503693564,-6020066.4097714005 L 1448751.3716028938,-6020460.374979313 L 1450664.7310106487,-6025391.727721001 L 1452491.0385766032,-6037123.80161311 L 1453175.9874034543,-6049670.835552077 L 1450893.0472862658,-6056879.79141805 L 1445544.4797121212,-6058648.768548193 L 1439152.29191179,-6059214.242869851 L 1435760.4983468095,-6060708.842005664 L 1436945.494326304,-6064668.887948761 L 1442054.8363147336,-6074932.992180288 L 1441978.805102522,-6088677.982686921 L 1430444.5473834677,-6104328.797322802 L 1420443.2703721276,-6119504.020904603 L 1420475.88698293,-6124671.3177296035 L 1426476.6754536324,-6133654.713847714 L 1435738.7910461049,-6140812.246444793 L 1456295.938771917,-6152743.976457999 L 1462785.9764046557,-6155226.9504804 L 1471113.119593956,-6157228.676211979 L 1483093.1005541463,-6162141.024514852 L 1488854.6634391337,-6167187.049413928 L 1492724.796856053,-6172678.138977304 L 1498345.0953072235,-6201295.22412569 L 1499660.5577299276,-6202519.063842159 L 1501323.78224187,-6204203.287863752 L 1522315.7438987207,-6194316.562134821 L 1524207.396005771,-6195949.907562704 L 1527740.4540045678,-6197567.088781521 L 1534578.3650460353,-6205148.180931677 L 1536078.5065039655,-6210910.514387088 L 1535926.3327600511,-6221820.975208673 L 1536535.1390551997,-6232127.213123864 L 1537850.4901584128,-6235408.621505865 L 1541013.967447776,-6234212.963192994 L 1550047.7667646317,-6228838.635490071 L 1557222.7532242215,-6222833.7673367085 L 1563940.9958130864,-6207679.463461501 L 1579606.2085159884,-6203652.723602407 L 1599391.4668926399,-6203258.499756688 L 1606457.6942097247,-6209997.815889614 L 1612871.5893107604,-6211560.071881357 L 1620133.404973169,-6209504.460641552 L 1635429.0369666372,-6207128.842440598 L 1637135.7873994794,-6219375.999937205 L 1645963.0890609138,-6232102.39590356 L 1649963.5776015518,-6236604.44840395 L 1661171.6692125814,-6236159.202754057 L 1663932.837862218,-6245681.8468519505 L 1666694.1178313454,-6272136.108738058 L 1669063.998470843,-6275051.945758786 L 1677228.169925622,-6274496.931207149 L 1685348.8154595003,-6269659.955529921 L 1687794.8386307007,-6265752.670259069 L 1692012.7341368583,-6266067.261368675 L 1697926.5820852509,-6268732.602347617 L 1704405.8217273823,-6270454.789512545 L 1714646.3243244374,-6267631.576693825 L 1736518.823153463,-6255603.893207377 L 1747802.9459767046,-6251215.596429885 L 1754956.1138160988,-6252058.450910352 L 1761652.649104259,-6251893.122307928 L 1787482.333192004,-6233355.503004797 L 1805528.2245250102,-6230758.829046959 L 1821997.8318683845,-6230684.727203072 L 1827292.075531022,-6236274.565752651 L 1834314.7769272064,-6241010.025619699 L 1841620.118510515,-6240358.041725766 L 1848012.3063108462,-6237932.55437192 L 1860448.6971832893,-6229885.346180307 L 1866210.3713877676,-6227825.126726372 L 1873863.5863798053,-6226523.571553689 L 1879483.8848309757,-6224736.072289648 L 1884451.962385589,-6210778.823793976 L 1887213.2423547162,-6207063.026171788 L 1886734.902502777,-6205337.172143417 L 1886126.096207629,-6199003.963012444 L 1881799.441558967,-6191034.51402818 L 1877146.62080228,-6180605.760143348 L 1877451.0796095997,-6171466.624539203 L 1889387.4233293994,-6139874.452723042 L 1899986.7086452811,-6120716.193525527 L 1901997.917885443,-6113437.236070764 L 1908835.7176074197,-6107845.924651667 L 1902345.791294172,-6100805.130496328 L 1901084.652782975,-6090380.4455368025 L 1896877.5552674246,-6085744.042715145 L 1895779.6111297307,-6079798.232655449 L 1897540.6854740803,-6074398.803976597 L 1897508.0688632778,-6067644.174489093 L 1899845.4442114641,-6058341.727226114 L 1889474.4751711998,-6056314.470160778 L 1877146.62080228,-6056637.648109483 L 1872733.0256313086,-6056096.48900805 L 1868602.0706474613,-6053561.167597128 L 1864329.739910306,-6054820.632442183 L 1853186.8815208809,-6063545.371471151 L 1846892.5435529565,-6065452.969726431 L 1842446.3317711826,-6064927.481359475 L 1839119.7714278076,-6061137.099946026 L 1833390.7138341316,-6056274.115116008 L 1828009.5296491846,-6052866.944931684 L 1829216.2329293839,-6049864.525486314 L 1852328.0516494105,-6042032.473866821 L 1856426.501341947,-6030011.778243749 L 1851980.178240682,-6020219.085631175 L 1850469.1274726538,-6015435.5337062795 L 1845055.3266769047,-6011666.635535003 L 1838413.1153002512,-6008357.262579429 L 1830412.0268994852,-6007530.157941396 L 1829466.2565057052,-6002255.913036393 L 1832608.0264943638,-5986772.812000198 L 1830064.153490756,-5983424.705092535 L 1827520.3918066388,-5978621.242748142 L 1829911.9797468416,-5965920.939182108 L 1834858.3500007498,-5965018.002531933 L 1835956.2941384441,-5962117.684444036 L 1835075.7569662693,-5956982.769583523 L 1834206.0177847017,-5951523.579518018 L 1832455.7414309587,-5945741.0502405325 L 1831586.1135688815,-5943181.95394596 L 1828303.0791464066,-5941580.002982227 L 1818051.6672392539,-5942432.686123035 L 1809224.3655778195,-5937492.558092021 L 1791471.9124225439,-5919786.534132141 L 1785253.7169863225,-5916782.0791492965 L 1778535.363077967,-5909712.1649267385 L 1778937.6717176936,-5894194.23927421 L 1778024.5179347163,-5892791.46193104 L 1776393.798714086,-5889614.048748496 L 1755162.7227910112,-5895074.133222686 L 1754423.4500526527,-5894986.951594705 L 1740214.9642062718,-5892989.479835781 L 1730496.327382056,-5885883.437654586 L 1718690.3387859755,-5881829.872201339 L 1693947.8008453175,-5883991.000191481 L 1669868.504430806,-5881236.263169897 L 1664161.1541378351,-5879170.6157598635 L 1657910.342090811,-5877983.797514461 L 1652050.8180539254,-5873862.778555567 L 1648702.5504098455,-5868052.186989905 L 1642712.5599297502,-5860697.68076346 L 1634189.7170756354,-5854927.458252072 L 1624927.601483163,-5850509.515402401 L 1622720.6925781863,-5846771.732860001 L 1619676.8837414258,-5844635.554653965 L 1614524.0158320956,-5847434.066255148 L 1610338.6256172506,-5847284.221477455 L 1605218.374318723,-5849192.510882422 L 1588226.9012025099,-5851258.877817045 L 1569550.4962736503,-5854682.784765238 L 1560657.9613906112,-5857958.159672494 L 1550547.925236766,-5860547.609943069 L 1539698.616344563,-5862656.1133751115 L 1529968.9588907585,-5863153.837297746 L 1525077.0238678479,-5864117.499262802 L 1501704.2722614012,-5869830.461950472 L 1486289.0831348212,-5870209.925670727 L 1465938.5443839212,-5872597.491118392 L 1425509.086439657,-5881220.377952889 L 1413735.8257738696,-5884719.386227717 L 1402473.4102513327,-5885796.3473794 L 1389178.0781879288,-5888782.237065982 L 1379057.1327239857,-5893671.215035497 L 1372578.004401345,-5902957.34661345 L 1365664.0621476655,-5915327.998791674 L 1352988.4456895078,-5931512.273202885 L 1350390.248774393,-5939587.850286713 L 1354260.270871821,-5946673.99942133 L 1358239.163431245,-5952018.376313213 L 1357782.530880011,-5954324.585056655 L 1354695.1961223504,-5955489.933981465 L 1332442.0959543025,-5948556.042026624 L 1310863.146622499,-5939802.922769986 L 1302372.809059696,-5939571.858766069 L 1294143.4043833124,-5941516.185679318 L 1283239.7715796023,-5941651.655190826 L 1272738.336096128,-5939308.981950034 L 1251724.6671385723,-5938105.985097666 L 1239418.6313898482,-5931663.5644954955 L 1231580.6260430939,-5919110.901624029 L 1227308.295305939,-5908997.633679297 L 1223764.3279970442,-5905750.780267903 L 1216426.3698029332,-5904528.502728094 L 1205468.301768225,-5905465.02509916 L 1197771.672174778,-5908402.181343277 L 1189922.757517926,-5917036.466352103 L 1177736.2789023137,-5918228.587919922 L 1166560.915221577,-5918459.087851118 L 1163603.9355876355,-5920056.801759118 L 1163799.63525245,-5925671.303785025 L 1159385.9287619875,-5936265.833447387 L 1152091.4964887765,-5939587.850286713 L 1133208.4825850045,-5919635.611208204 L 1128055.6146756744,-5917870.966935121 L 1112847.0345240068,-5923380.63727072 L 1099584.3190714053,-5931910.233615191 L 1098127.5922148847,-5938153.788534835 L 1095975.2298603968,-5943277.616738197 L 1084810.6641702668,-5948133.310616651 L 1070884.81851101,-5951459.852779217 L 1066471.1120205473,-5951443.839466848 L 1068188.7717634877,-5954460.253795237 L 1069841.198284823,-5959577.816060927 L 1068797.578058636,-5963659.600640654 L 1065536.2509368656,-5967887.2004902065 L 1063742.5599817133,-5972404.802781492 L 1063220.6942088746,-5976788.734050913 L 1062231.5092136855,-5980374.296282871 L 1061633.500909144,-5983737.136087048 L 1060600.789993055,-5986380.2107819645 z" /></g>
</svg>
