<?xml version="1.0" encoding="UTF-8"?>
<svg xmlns="http://www.w3.org/2000/svg" viewBox="2172849.927532011 -8490646.76687477 121592.6100011305 88310.22171438485">
  <g id="map"><g><path fill-rule="evenodd" fill="currentColor"    d="M 2225226.638506172,-8478340.92384837 L 2228640.1393718575,-8478274.989734074 L 2230162.0994499833,-8480176.06516426 L 2236119.361999785,-8478846.363389255 L 2245077.130104429,-8470137.463380173 L 2246881.7303696787,-8465430.489801383 L 2253056.511204491,-8463017.838610422 L 2255208.9848784697,-8458139.931065671 L 2248066.7263491736,-8442957.426224457 L 2243653.0198587105,-8442673.014427766 L 2240359.0761261377,-8444597.823664542 L 2234543.078010152,-8442935.479095561 L 2231129.5771444673,-8440071.04541953 L 2229988.107085873,-8433766.641115218 L 2230172.89744059,-8420596.398608366 L 2204104.210406112,-8417958.481345443 L 2198114.219926017,-8421806.625467231 L 2189906.6338698287,-8451798.265608419 L 2191537.241770969,-8459564.648236401 L 2197059.690389732,-8462875.242538791 L 2201788.653678121,-8463588.026005842 L 2202484.400495579,-8447398.36484478 L 2209430.959360061,-8449007.030110355 L 2211605.251654235,-8459674.184247155 L 2212094.389496781,-8467196.571363196 L 2210213.7580193193,-8470993.703244396 L 2205495.704041028,-8473936.117026411 L 2202767.0406827033,-8478989.270017048 L 2206691.498011129,-8487125.583008403 L 2213953.3136735377,-8490646.76687477 L 2220215.0350306598,-8479769.566778123 L 2225226.638506172,-8478340.92384837 z" /><path fill-rule="evenodd" fill="currentColor"    d="M 2188797.780422037,-8441524.953635689 L 2189373.858786892,-8436508.46208798 L 2185112.437359835,-8437764.94962266 L 2181840.3122474574,-8436049.55641857 L 2179622.6053518737,-8429868.86776887 L 2174795.792231077,-8432085.05231965 L 2172849.927532011,-8440945.505180132 L 2176448.2187524126,-8454229.214685148 L 2185069.0227584257,-8454732.997177808 L 2188797.780422037,-8441524.953635689 z" /><path fill-rule="evenodd" fill="currentColor"    d="M 2294442.5375331417,-8408799.080363832 L 2293562.000360967,-8403511.028496627 L 2284473.765813113,-8402336.545160385 L 2280658.0676271925,-8407036.048656149 L 2272167.7300643893,-8406448.39094713 L 2270689.295907164,-8408799.080363832 L 2274211.555915354,-8413491.782541517 L 2280951.6171244145,-8416432.907869553 L 2289746.302175046,-8415256.361315282 L 2294442.5375331417,-8408799.080363832 z" /></g></g>
</svg>
