<?xml version="1.0" encoding="UTF-8"?>
<svg xmlns="http://www.w3.org/2000/svg" viewBox="4983580.129539859 -5144660.796234292 623128.2155559128 508753.6642610077">
  <g id="map"><g><path fill-rule="evenodd" fill="currentColor"    d="M 4989026.546946411,-4815274.296613954 L 4985265.061352506,-4820224.344965843 L 4983580.129539859,-4822951.10790918 L 4994592.521486075,-4825212.160236331 L 5012899.345705501,-4831871.094836556 L 5017889.130560818,-4828639.951732856 L 5023248.49612557,-4821912.570187518 L 5025922.835572387,-4816163.935819438 L 5026390.266114228,-4805480.486062141 L 5028586.265709107,-4803738.566990164 L 5037489.598582753,-4807328.4561374355 L 5041468.379822686,-4803012.3393718945 L 5048327.998164859,-4797859.498765831 L 5060231.836593347,-4792751.428777756 L 5077364.574143376,-4800735.222969352 L 5085898.326307588,-4802793.716039209 L 5092921.027703773,-4802631.556637185 L 5096704.220598382,-4800128.887775106 L 5098041.2790023,-4791835.884494537 L 5096671.603987579,-4781614.494923438 L 5094682.213367613,-4776029.630028799 L 5098280.504588015,-4771958.8650338175 L 5112347.614681088,-4762137.037169635 L 5118185.320097779,-4756668.0401589945 L 5115337.099606343,-4747218.662689129 L 5125805.918479014,-4724182.762543685 L 5129317.269177106,-4715211.008373813 L 5133437.426170346,-4704180.12524177 L 5111999.74127236,-4708489.041536921 L 5073385.792903443,-4717776.584085276 L 5062775.709596954,-4722566.870997798 L 5052709.088044519,-4735417.462113181 L 5046730.006874521,-4741624.696542109 L 5037870.088602285,-4749596.013596673 L 5030597.363629778,-4752605.236127944 L 5025096.62231172,-4758163.172013968 L 5021965.761633159,-4766400.364519626 L 5017356.466797373,-4773786.704218718 L 5009398.792998015,-4782522.190058778 L 4991363.810975106,-4812189.872934246 L 4989026.546946411,-4815274.296613954 z" /><path fill-rule="evenodd" fill="currentColor"    d="M 5440044.365703788,-4641131.0681423405 L 5436880.888414424,-4641380.908473308 L 5414084.3264923245,-4635907.131973284 L 5409311.948602525,-4637662.071159291 L 5389798.4211029,-4662574.688093881 L 5385776.113942067,-4665335.723597283 L 5377351.009600868,-4666455.732988613 L 5372426.457967156,-4670560.729202695 L 5368404.150806323,-4677250.699732676 L 5366121.322008625,-4682230.962437234 L 5345922.845682149,-4695784.0820126105 L 5342944.158747503,-4700745.542891033 L 5342520.254126562,-4705108.775545834 L 5345488.03175111,-4709047.831348248 L 5348912.441926893,-4712366.583521891 L 5358761.5451943185,-4715749.267342838 L 5370273.984293178,-4718657.505061751 L 5373959.327355379,-4720755.441865341 L 5375850.868142938,-4724371.746566966 L 5375731.311009827,-4730166.054501851 L 5373850.568212874,-4735879.7669991385 L 5357304.818337797,-4746286.143735942 L 5355489.420081941,-4750767.301420738 L 5354956.756318495,-4756268.024691143 L 5355902.526712274,-4762017.670413542 L 5358478.905007194,-4766512.877053781 L 5371969.936735413,-4772647.720996785 L 5379199.135787019,-4778997.495045259 L 5374698.488774246,-4786097.424825892 L 5360153.038829234,-4802286.164419948 L 5342878.925525897,-4820118.460657886 L 5331344.779126334,-4820280.903847086 L 5318049.558382421,-4815006.104651328 L 5296785.754529053,-4799804.657871555 L 5285023.291853872,-4793307.9797620345 L 5269695.154569092,-4782571.475108081 L 5252986.3216400035,-4770630.521145287 L 5239299.7015664615,-4757959.610593092 L 5230776.7473928565,-4747513.1980445 L 5215600.7838519905,-4742956.401142702 L 5207882.335638349,-4734198.903019825 L 5182454.960190331,-4707986.214213997 L 5175312.701661034,-4708314.372381623 L 5174877.887729996,-4721307.889140798 L 5175225.761138724,-4731622.28305392 L 5173616.86053829,-4737567.940245885 L 5165387.455861906,-4745718.259772453 L 5165256.989418696,-4749238.219023409 L 5167485.605624378,-4751419.655925562 L 5173812.448883613,-4750100.911901202 L 5181922.296426885,-4750563.889218586 L 5185792.429843804,-4753762.934764672 L 5177095.594625579,-4764524.813246102 L 5169377.146411937,-4771719.899900508 L 5162821.875557594,-4776578.053708433 L 5161354.239390975,-4779489.895392558 L 5161343.441400368,-4781551.237437248 L 5162734.935035284,-4784014.10665487 L 5173921.208026118,-4789955.580822808 L 5175030.061473911,-4795400.299235861 L 5174290.788735553,-4801510.663673705 L 5156505.830288964,-4810503.289150777 L 5143188.7909248555,-4807187.314831253 L 5131252.335885566,-4817300.643572996 L 5123577.413592824,-4825127.352485582 L 5114010.839193031,-4833525.80487966 L 5105466.289038211,-4838131.182783104 L 5097280.298963238,-4848679.649239763 L 5083050.105816152,-4859579.56799415 L 5073918.45666689,-4862678.844823725 L 5074048.923110099,-4864345.952326774 L 5075723.056932138,-4866353.826559841 L 5079527.957127453,-4868007.307545809 L 5104900.897344473,-4867581.4484393485 L 5107999.252731722,-4869554.652632839 L 5109575.536721354,-4874240.459789363 L 5113043.361498547,-4881166.791204412 L 5117087.375960086,-4891377.076002446 L 5116761.20985206,-4899974.247874211 L 5091279.510492535,-4913882.371013186 L 5072776.986608295,-4926703.395464903 L 5059960.10571632,-4943609.559262796 L 5051252.361187998,-4959105.103618763 L 5051556.708675827,-4964313.946144962 L 5054057.055758534,-4969238.761974064 L 5073875.04206548,-4983546.907508474 L 5075212.100469397,-4987260.107622973 L 5074777.286538359,-4989789.140476924 L 5067711.059221274,-4997121.12748561 L 5058829.433648333,-5004674.40388773 L 5056035.648387895,-5010231.613591998 L 5050447.855228035,-5013061.931914335 L 5039816.064620842,-5013263.5811334085 L 5021183.074293391,-5022574.093514414 L 5017226.000354162,-5023496.98242495 L 5016345.463181988,-5025350.260695935 L 5017247.707654867,-5027225.460918905 L 5030553.837708878,-5030998.673237121 L 5030369.047354162,-5034109.275183046 L 5026335.942202722,-5038210.08450267 L 5018813.193653894,-5041214.710290799 L 5011931.756691526,-5048650.629785209 L 5009529.259441226,-5055354.425510503 L 5033554.34326372,-5074964.360041882 L 5040653.075872117,-5078879.669407345 L 5056383.521796623,-5075276.1247889465 L 5089040.096296247,-5062272.662290951 L 5086822.389400664,-5055065.081726593 L 5090138.040433941,-5051007.625227581 L 5097628.172371967,-5045499.241854452 L 5112010.650582458,-5039921.806731095 L 5124175.310577874,-5037047.563766985 L 5130328.27279249,-5039495.65975081 L 5139699.147527468,-5041568.73561216 L 5151863.807522885,-5035148.729888233 L 5163082.808444013,-5027001.806349007 L 5168670.4902843805,-5023713.320279506 L 5171670.884519732,-5022703.883309074 L 5180182.92938324,-5025415.100090441 L 5190423.431980295,-5035921.259906009 L 5194434.82983103,-5048621.759485236 L 5195565.501899018,-5054739.450694334 L 5189597.218719627,-5063177.695022873 L 5177334.708891803,-5072347.863521485 L 5163550.238985853,-5080409.816394629 L 5154701.230023715,-5087520.420732665 L 5149048.314961742,-5101568.201279773 L 5143351.873978868,-5103123.997728764 L 5141905.945112955,-5104948.992716069 L 5140971.084029273,-5109749.3014698345 L 5141210.198295496,-5116466.554444183 L 5143166.972304661,-5121644.2320238035 L 5148732.946844324,-5123866.225069387 L 5154375.06391569,-5124660.377285131 L 5159462.698603415,-5129601.955345012 L 5165833.179103042,-5139295.490889714 L 5168550.933151268,-5144660.796234292 L 5180552.510092674,-5141587.213531626 L 5182161.410693109,-5132904.97746263 L 5184292.177066383,-5131081.969670352 L 5189271.163931094,-5132102.823188415 L 5197543.983208886,-5135749.575437783 L 5204110.052053836,-5132948.738697637 L 5212600.38961664,-5122620.365453209 L 5224319.32637092,-5111735.608950894 L 5230657.190259744,-5104432.699571022 L 5233146.628032355,-5099387.830447291 L 5239136.61851245,-5094505.522745652 L 5247887.777642181,-5088761.585044734 L 5254866.953117466,-5079778.8352509 L 5261085.259873178,-5058928.750470592 L 5267379.597841102,-5054088.517808779 L 5289969.55078829,-5046185.860621784 L 5297894.6079768445,-5044567.004320268 L 5320071.56561319,-5041778.227647853 L 5327876.954349142,-5043772.179566069 L 5339291.543615594,-5061729.742665235 L 5349575.572133549,-5080235.728014889 L 5359174.651824652,-5084109.64132622 L 5376524.907659692,-5093067.431869539 L 5386906.674690564,-5101531.877559672 L 5391276.855260125,-5110680.564728722 L 5401071.634616044,-5127983.6382832285 L 5407105.151017039,-5137711.9942007605 L 5417323.834993899,-5129069.701872213 L 5435054.58084847,-5105654.305632942 L 5460318.873242476,-5067660.3700351 L 5466526.270688091,-5056946.045266951 L 5470602.901760431,-5044516.391675395 L 5474103.343148425,-5029483.419960464 L 5479865.017352903,-5016210.0250088405 L 5505498.890456344,-4982864.846644604 L 5516565.606314065,-4970586.93038628 L 5534622.40695717,-4954707.961971919 L 5541036.413377697,-4951171.704783218 L 5549472.3157095015,-4950176.927137357 L 5564930.919437492,-4950119.767498184 L 5579237.25511628,-4943924.172238666 L 5586292.573123267,-4939569.699961416 L 5593587.005396477,-4933273.803064342 L 5600131.366940723,-4926025.133344011 L 5606708.345095771,-4906640.80685324 L 5581911.483243607,-4913026.710616066 L 5556940.740346823,-4912028.631357129 L 5542819.195022752,-4907866.433732435 L 5529132.57494921,-4902195.885333713 L 5516011.235249915,-4894194.557202905 L 5507792.73988363,-4878630.1970059825 L 5500867.888319852,-4842696.067065509 L 5490768.650156613,-4809190.927728924 L 5491116.523565343,-4793723.6099106185 L 5495551.93735651,-4778899.104304774 L 5495040.980893769,-4771867.596957459 L 5490409.867437787,-4768894.639461788 L 5484637.395242702,-4762600.423690864 L 5476897.239728355,-4732084.271148797 L 5473059.7229222385,-4726008.848219266 L 5468124.261978428,-4722231.089009898 L 5466754.475644217,-4725834.020369212 L 5467048.0251414385,-4733813.831005641 L 5456155.301647826,-4740881.842968886 L 5450393.627443348,-4732959.55410175 L 5446436.553504119,-4716196.645267861 L 5438457.172404057,-4698609.861573086 L 5438054.9750838205,-4695253.880317775 L 5440044.365703788,-4641131.0681423405 z M 5070863.73852003,-4955875.07053331 L 5071972.591967822,-4960731.230389151 L 5068841.731289262,-4962909.407561507 L 5065536.8782465905,-4963031.214315462 L 5062677.859764547,-4960609.452249219 L 5062677.859764547,-4954543.296329177 L 5066634.822384285,-4953455.223637915 L 5070863.73852003,-4955875.07053331 z" /><path fill-rule="evenodd" fill="currentColor"    d="M 5012007.899223228,-5016361.273637516 L 5009605.401972928,-5014675.390347067 L 5005930.968220823,-5016361.273637516 L 5004800.407472326,-5020108.7122354135 L 5005083.047659451,-5024037.7622632915 L 5008746.572101457,-5024975.264130706 L 5011725.259036104,-5023850.361360333 L 5012573.1795974765,-5020288.807526263 L 5012007.899223228,-5016361.273637516 z" /></g></g>
</svg>
