<?xml version="1.0" encoding="UTF-8"?>
<svg xmlns="http://www.w3.org/2000/svg" viewBox="1751792.6365267353 -5665166.101984498 428264.78275617654 419971.50138246175">
  <g id="map"><path fill-rule="evenodd" fill="currentColor"    d="M 2153879.9731059293,-5602792.332674798 L 2154793.1268889066,-5599279.713508428 L 2152303.6891162964,-5587057.362563584 L 2147563.9278373006,-5573910.881299416 L 2139910.7128452626,-5560264.276033409 L 2131920.422435103,-5547415.878736816 L 2129811.4746820247,-5540617.448061954 L 2129246.1943077766,-5529820.637871916 L 2128256.8979930966,-5521317.011853603 L 2129354.8421307905,-5516695.760967507 L 2131974.7463466106,-5512380.783673499 L 2140845.5739289443,-5508963.575073771 L 2152792.826958842,-5500456.665789393 L 2162957.298343685,-5489381.386075445 L 2175980.7882105717,-5476821.36257493 L 2180057.419282912,-5472169.718874112 L 2180046.5099728145,-5467157.618099908 L 2176241.721096991,-5463447.488053602 L 2165098.862707566,-5462042.440380349 L 2153499.483086398,-5463137.74645722 L 2149053.159985133,-5464414.530787458 L 2144911.295691188,-5462880.925682572 L 2142345.8267063657,-5460033.481097552 L 2143704.7037304793,-5456673.616932183 L 2155597.6328488695,-5441452.0958999 L 2169414.7193656215,-5419682.0456521325 L 2170186.497395291,-5410340.9589413535 L 2168501.4542631535,-5403005.440284465 L 2165305.4716824787,-5397918.356858844 L 2159554.5954686073,-5398765.933082861 L 2155184.5262185354,-5402742.758128954 L 2148553.1128324894,-5402487.614669146 L 2143400.2449231595,-5401346.932806037 L 2136703.7096349993,-5393501.216950843 L 2133366.2399815265,-5393831.047357399 L 2127626.3843972436,-5392646.445799579 L 2123984.5672559417,-5391109.837219867 L 2118222.8930514636,-5393381.295492761 L 2112200.397280057,-5394888.334345061 L 2109580.493064237,-5392481.550222375 L 2108417.2043854473,-5387887.302793887 L 2112156.8713591564,-5379551.301640292 L 2119157.8654546365,-5366519.325058211 L 2118038.102696746,-5356589.435486483 L 2112700.4444327,-5355514.022881833 L 2107797.6000996917,-5363783.614143871 L 2103449.126830834,-5365121.441627467 L 2098491.958586319,-5364837.481591532 L 2087153.51185157,-5355230.356121431 L 2078804.5500420746,-5347169.88309637 L 2076869.4833336147,-5341538.999651663 L 2073879.8870888706,-5335390.094081072 L 2072977.6426159912,-5330957.881327295 L 2073173.342280806,-5316186.888340939 L 2058127.8451831501,-5313822.601648007 L 2054975.1658843942,-5311652.210994597 L 2053159.7676285373,-5307171.91245008 L 2054409.8855101457,-5288271.087697386 L 2055627.4981004423,-5278127.644384997 L 2064226.4834862596,-5262507.970954004 L 2064519.921663991,-5257578.150589503 L 2063302.4203931848,-5254327.377280462 L 2057192.8727799773,-5248139.407971308 L 2054279.4190669358,-5245917.793464176 L 2052322.6450577718,-5245194.600602036 L 2042332.166037039,-5249268.9332046015 L 2037592.4047580424,-5251195.984989618 L 2017546.2134949716,-5264992.326764896 L 2008708.0025234395,-5272671.538259443 L 1994717.0349620685,-5282705.297702124 L 1986085.4329654486,-5288419.270561756 L 1981704.3430857891,-5297104.507934624 L 1974833.8154335187,-5299115.724778401 L 1966745.7865104424,-5296325.39712509 L 1957570.6114402795,-5302597.200784741 L 1964060.6490730185,-5305849.825600838 L 1965658.7516828466,-5308940.006840271 L 1964843.3364127853,-5312975.2703929655 L 1961984.317930742,-5318484.601485459 L 1937209.163379282,-5342299.594789376 L 1925055.3013744724,-5358605.863378121 L 1923076.8200646036,-5364456.330548465 L 1922913.7370105912,-5380067.846547837 L 1920043.8092184498,-5383819.448253635 L 1901845.632822038,-5390929.9253016515 L 1881505.892061745,-5411287.365658959 L 1860535.74902509,-5431275.929160888 L 1857665.7099134577,-5436863.515680571 L 1846849.0176320567,-5452017.021938931 L 1833662.4447111576,-5465842.691018236 L 1823139.3019269789,-5474673.001095113 L 1814518.609240457,-5484730.963894603 L 1804962.9441507624,-5498795.714816831 L 1800016.573896854,-5520077.879768204 L 1795613.776716489,-5539048.076382213 L 1792624.291791236,-5546424.713212796 L 1786569.0680895357,-5549017.148402455 L 1767762.196717466,-5571586.721548713 L 1751792.6365267353,-5584729.67253098 L 1751944.8102706498,-5598942.235907864 L 1754564.7144864697,-5622705.43398595 L 1757521.6941204113,-5649738.423012987 L 1761391.8275373303,-5653502.213169317 L 1768675.3505004435,-5655546.8322301805 L 1777013.514319332,-5654767.483613657 L 1784264.4206716425,-5651419.676421952 L 1798625.080261938,-5632897.748802498 L 1806832.777637617,-5625711.816836303 L 1813768.4271920007,-5622912.95573724 L 1821747.8082920627,-5630712.181763992 L 1831597.0228789796,-5647063.122210699 L 1840185.098954699,-5655701.066569534 L 1869145.5324015138,-5652568.858576813 L 1883375.7255485996,-5665166.101984498 L 1906389.80575571,-5648604.9191832645 L 1915880.2376237998,-5646122.700569234 L 1921228.6938784535,-5648412.278794206 L 1928512.3281610576,-5647371.460461821 L 1944655.880715898,-5642531.469205181 L 1948384.6383795093,-5640489.806566094 L 1953243.9567916174,-5640836.572560927 L 1965180.4118309077,-5647294.414378249 L 1969257.0429032482,-5646492.574335993 L 1982911.0463659877,-5633829.065159431 L 1989770.6647081606,-5633690.496591394 L 1998032.6859953464,-5639149.566425128 L 2003337.7276485907,-5643872.213088058 L 2019024.647652197,-5640335.832864033 L 2028015.0323676432,-5642469.7707577 L 2035472.5476948663,-5642685.480474893 L 2043560.5766179424,-5640520.727832036 L 2050942.0607329537,-5637593.9328777725 L 2058106.0265629548,-5635045.37563427 L 2077510.9062395657,-5633721.236874719 L 2086805.6384428407,-5625696.539087086 L 2090512.688805748,-5617940.045595239 L 2090599.6293280574,-5613215.707152509 L 2091512.7831110342,-5608133.0670527285 L 2096861.350685179,-5603160.590373858 L 2108536.8728380497,-5600322.691558917 L 2115863.921722063,-5600951.426256188 L 2119755.762439687,-5601288.978859854 L 2129713.6248496175,-5605730.79962162 L 2141432.5616038977,-5608033.248011948 L 2149879.373245801,-5605393.238240572 L 2153879.9731059293,-5602792.332674798 z" /></g>
</svg>
