<?xml version="1.0" encoding="UTF-8"?>
<svg xmlns="http://www.w3.org/2000/svg" viewBox="9798724.296033287 -3070041.6901012613 512982.81143203564 703134.6145366747">
  <g id="map"><g><path fill-rule="evenodd" fill="currentColor"    d="M 9913163.738195023,-2522714.365977784 L 9913652.876037568,-2533899.1031263047 L 9913000.65514101,-2544527.413606645 L 9904260.294001887,-2572980.9131621127 L 9898607.378939914,-2587579.251753667 L 9899303.125757372,-2592297.0962071787 L 9898911.837747235,-2594276.4533334565 L 9896270.11491122,-2613104.2744030696 L 9892628.297769915,-2624627.307608818 L 9890801.990203962,-2636920.4289942775 L 9899433.592200581,-2654602.9464984704 L 9895976.565413995,-2657482.86699723 L 9886018.703004064,-2659819.129171612 L 9876756.587411592,-2662883.4184828787 L 9874484.5566045,-2667469.1260017673 L 9878582.894977547,-2684906.6585814664 L 9873777.900476946,-2691750.715305478 L 9866885.66552397,-2698668.739302772 L 9864733.191849992,-2701432.07575854 L 9862461.161042903,-2705008.4618409015 L 9859275.976452835,-2713783.9289657357 L 9865418.140676843,-2732264.400996489 L 9874017.12606266,-2753717.5006197984 L 9875571.702751588,-2761895.004402616 L 9876995.701677818,-2776117.5213486007 L 9877778.500337075,-2781570.604408641 L 9876658.737579186,-2786942.07358133 L 9867614.028952232,-2793180.4349031406 L 9851611.8521507,-2795703.852659937 L 9840306.022026753,-2800913.1399880988 L 9833685.517950805,-2808810.8949303725 L 9828076.01749024,-2811975.9494110686 L 9821162.07523656,-2809641.0182471857 L 9812313.066274423,-2812716.5821968694 L 9804920.784168804,-2820560.6720359228 L 9798724.296033287,-2830100.9413508824 L 9799485.164752858,-2834586.1747392025 L 9801137.591274196,-2840538.6339518377 L 9812791.406126361,-2865264.689921982 L 9817139.768075729,-2865995.883709528 L 9827228.096928868,-2861249.829103629 L 9831000.38051338,-2861237.803546257 L 9837631.682579935,-2871019.3313292842 L 9846904.707482506,-2898906.5647108685 L 9859993.430570997,-2898840.504843317 L 9871538.486280657,-2897927.506103466 L 9879333.077026002,-2896510.020289103 L 9887094.939841054,-2897404.9740441954 L 9895204.787384326,-2899639.393613313 L 9899618.382555297,-2903159.858710058 L 9902053.496416401,-2907624.718437042 L 9901216.485165127,-2911501.7694667084 L 9891269.420745803,-2916769.0515606175 L 9887431.903939687,-2920708.5999293015 L 9884659.825979952,-2931889.5549647026 L 9881735.574276304,-2936110.220544438 L 9862178.520855779,-2936706.2587194014 L 9852046.666081738,-2941849.980677765 L 9846469.893551467,-2946465.0632653483 L 9836533.73844224,-2961748.617364378 L 9824271.228614418,-2973069.361255362 L 9812530.473239942,-2975743.929870658 L 9807986.41162576,-2979415.3792096335 L 9805529.479144461,-2985244.5704897866 L 9806953.589390181,-2993675.460100967 L 9810475.849398369,-3001336.876420216 L 9812900.053949375,-3009879.845642821 L 9822292.635985058,-3021153.187701943 L 9833294.118621176,-3031011.0161401 L 9838196.962954184,-3037776.5677686105 L 9845143.633138156,-3044915.3066761163 L 9845969.846398823,-3048834.9853901016 L 9844730.526507821,-3053320.2636647476 L 9839110.11673716,-3057600.511472192 L 9835240.094639732,-3058972.863976883 L 9834620.379034486,-3061736.2499729013 L 9837294.718481304,-3069117.933255397 L 9842664.993356153,-3070041.6901012613 L 9853807.851745578,-3063351.9656723444 L 9865146.298480326,-3052519.040576532 L 9871886.359689387,-3042864.994063149 L 9872125.5852751,-3035254.1993854353 L 9876506.56383527,-3034029.6199344704 L 9880931.068316342,-3033726.56407671 L 9888290.733811157,-3030350.2998484247 L 9895911.332192391,-3031380.6729930807 L 9900835.995145597,-3029501.8271415518 L 9904140.736868775,-3030186.708042854 L 9905380.056759777,-3034563.1180238426 L 9901673.00639687,-3041002.784049637 L 9898987.868959446,-3045613.0984311285 L 9902086.113027204,-3050212.588663168 L 9905586.554415198,-3051135.1248944476 L 9909511.011743626,-3049982.0260257297 L 9914870.488627866,-3045837.5023452267 L 9918784.036646193,-3037321.8059657635 L 9919490.69277375,-3024151.6159382053 L 9928187.527991975,-3012210.100956012 L 9939634.73386923,-3003738.3624332286 L 9948592.501973873,-2999836.969648095 L 9959409.194255272,-2997043.0639645206 L 9968649.49122755,-2999734.041755548 L 9973269.695373436,-3008052.2473739455 L 9971193.364231158,-3015479.08927258 L 9972639.181777582,-3022140.4789699754 L 9976346.232140489,-3025817.7059170627 L 9982118.704335572,-3025587.4097649097 L 9986456.268294333,-3020305.2552035963 L 9999044.94423018,-2991825.6337026465 L 9996446.747315068,-2979228.2412701575 L 9999262.3511957,-2944705.5797379008 L 9996077.166605633,-2921977.947247094 L 9996588.123068374,-2917087.803123152 L 9998055.759234993,-2913299.435740215 L 10000197.323598875,-2911748.2585684815 L 10003871.757350978,-2911796.399522443 L 10019178.187335053,-2907510.615867392 L 10032071.210758729,-2902787.3857725374 L 10046627.570013838,-2898480.0715883765 L 10067662.946272101,-2895128.8262186786 L 10080566.879005875,-2896221.8408040297 L 10087002.592727106,-2896359.9645525506 L 10100036.991904091,-2895345.0368058174 L 10134335.083614951,-2897140.6397860525 L 10162708.529386815,-2897621.2174473545 L 10174231.87779577,-2894378.1396992644 L 10183472.286087539,-2893213.3217200865 L 10215063.533060271,-2895489.1789283375 L 10246926.510910029,-2896576.0698883603 L 10264178.916912662,-2889376.898727568 L 10282964.080984026,-2877603.9782913947 L 10293530.638369616,-2868885.162812088 L 10295433.088467272,-2863874.328506265 L 10294269.911107972,-2859602.1712023043 L 10290725.943799078,-2857259.8307658145 L 10284246.815476438,-2857181.9307257333 L 10269364.401432795,-2862861.585545124 L 10266809.61911909,-2861177.9213209646 L 10267059.64269541,-2849510.549930765 L 10266624.828764372,-2847642.7476933245 L 10263439.644174304,-2837194.1944339545 L 10254470.966759562,-2813714.0158541477 L 10252742.509026015,-2803211.0541472323 L 10250861.877548553,-2800537.1746681198 L 10248535.411510464,-2799092.9222384305 L 10241512.71011428,-2798669.217359828 L 10236011.968796222,-2796938.832851936 L 10233718.230688427,-2793126.6820517844 L 10230152.444759335,-2785207.0155190425 L 10227695.623597529,-2777225.851743006 L 10224271.213421745,-2774782.919004963 L 10216063.627365557,-2779097.207948798 L 10210954.174057636,-2778417.742802645 L 10204518.571655897,-2776588.3263579328 L 10198104.67655486,-2772042.4433428594 L 10193680.17207379,-2766402.198284128 L 10188668.568598276,-2764472.858227752 L 10173786.154554633,-2765610.2388325464 L 10170937.934063198,-2764806.3691022634 L 10169057.191266244,-2760781.7887549386 L 10167524.433197513,-2755699.016724201 L 10155903.234956149,-2743718.6833102126 L 10151500.437775783,-2724541.8481426477 L 10147934.763166184,-2712110.411755973 L 10148500.043540433,-2702440.3014690625 L 10158327.550826646,-2677266.2022657646 L 10165165.350548621,-2644648.338472631 L 10167796.164074538,-2641333.386863329 L 10170079.104191728,-2640287.598268217 L 10171111.815107817,-2641038.0231220042 L 10170905.317452395,-2647804.3000340047 L 10171329.222073337,-2655980.7729752026 L 10174536.225283599,-2657902.804845445 L 10178634.563656643,-2656211.370838975 L 10182548.222994464,-2649110.6074814256 L 10186983.52546614,-2636093.5029180762 L 10191690.781453824,-2630997.1477837213 L 10199039.537638541,-2629562.429533967 L 10207432.025368938,-2632603.238583428 L 10213672.039425356,-2638491.7767479806 L 10216215.801109472,-2644855.1747404663 L 10214443.817455024,-2657411.889250879 L 10214030.71082469,-2666800.4927682085 L 10218020.40137472,-2675738.4984261575 L 10232391.970275115,-2689083.834603738 L 10234479.210727489,-2693167.2933349046 L 10233544.238324316,-2704528.0087311263 L 10233555.147634415,-2715190.5539082577 L 10239001.565040966,-2715920.6574224248 L 10246295.997314177,-2714193.4321341114 L 10255536.405605944,-2719446.9249042133 L 10258352.009486578,-2719553.8047879343 L 10262222.031584008,-2713920.4288487737 L 10268788.211748447,-2714899.7860997273 L 10273604.004239656,-2691685.4125049203 L 10278593.900414465,-2671227.416407368 L 10278550.374493565,-2661357.1982162697 L 10279376.587754231,-2640464.856096946 L 10281648.618561324,-2623435.127304414 L 10285159.969259415,-2619569.8109394447 L 10289312.742863458,-2610485.6801958284 L 10293095.824438578,-2599933.1520278486 L 10296096.218673928,-2594017.1665089508 L 10298118.225904698,-2574758.0344210993 L 10300596.8656867,-2560858.8329109736 L 10303868.990799077,-2517294.8289207416 L 10305390.950877203,-2508893.2002946613 L 10306271.488049379,-2504362.8845019634 L 10306434.57110339,-2464649.2029747427 L 10307456.484028872,-2447691.2135989117 L 10311000.451337768,-2433749.105991522 L 10311707.107465323,-2428427.4615459233 L 10308163.14015643,-2424122.306168922 L 10304684.406069139,-2423305.7180161723 L 10301412.169637268,-2430055.2967295577 L 10293922.037699243,-2435214.033859984 L 10282877.029142227,-2440718.7692216816 L 10278191.591774737,-2444397.36981164 L 10272527.878722157,-2442937.53200319 L 10264570.204922799,-2434601.2019494637 L 10261385.020332733,-2426863.935532776 L 10262765.604657551,-2416010.665634364 L 10265298.56835106,-2405321.3466727166 L 10270831.926279921,-2399210.336200125 L 10271277.649521058,-2392437.5906335325 L 10273256.130830927,-2383723.5315682427 L 10276115.260632463,-2375723.375763703 L 10277474.137656575,-2367075.6836206913 L 10275658.739400718,-2366907.0755645866 L 10269016.528024064,-2378003.8163242843 L 10263059.154154774,-2390003.886905057 L 10247633.167037586,-2412734.4637678033 L 10242610.765571464,-2453544.618272476 L 10242284.59946344,-2473719.4428431434 L 10231728.84006846,-2497490.607765251 L 10224695.229362177,-2530430.25772056 L 10221890.534791641,-2539001.068149428 L 10225564.968543744,-2549667.857078764 L 10226184.5728295,-2553657.8532176414 L 10224184.272899436,-2552770.4501575376 L 10218803.08871449,-2547276.6484915707 L 10211791.296628403,-2560423.664493848 L 10207214.61840342,-2572239.608249688 L 10189038.2606272,-2596703.85998848 L 10183744.016964566,-2607537.3619779972 L 10183515.700688949,-2618094.770138297 L 10175666.786032096,-2607490.1477770363 L 10165002.378814101,-2600021.5024013114 L 10154142.160611799,-2588810.089734793 L 10146923.759550799,-2585412.3305998594 L 10124018.438486196,-2583357.3455792135 L 10110788.450963886,-2598359.7014257987 L 10091807.587227708,-2635101.2711859085 L 10089285.532844294,-2643419.1148458477 L 10091785.879927002,-2665072.62169989 L 10087285.23291423,-2685599.8265185035 L 10087339.556825737,-2696439.4978127093 L 10085991.589111723,-2703691.653997671 L 10082588.997556133,-2702084.421242714 L 10081273.53513343,-2697103.4171495982 L 10081990.989251593,-2689474.9849058487 L 10080610.404926775,-2683076.150089312 L 10064173.414194202,-2684332.0544181853 L 10048714.810466215,-2687240.95708727 L 10062336.19731815,-2676454.9174307245 L 10076946.88048477,-2673932.79844094 L 10084534.8622552,-2664267.888106722 L 10085458.925348276,-2656725.867827661 L 10085002.292797042,-2648223.9872032623 L 10077501.251548918,-2642296.47204499 L 10070630.835216139,-2638538.9594462817 L 10071913.56970855,-2630418.529431565 L 10080229.914907243,-2620519.891102599 L 10070141.586054102,-2617729.021148245 L 10067391.215395074,-2611252.3729861774 L 10067184.717739653,-2602043.068883223 L 10072261.44311728,-2593928.848239596 L 10074240.03574664,-2587914.9038442727 L 10073011.513846245,-2582356.594165282 L 10077946.974790055,-2576399.874037302 L 10085045.818717942,-2563934.1129809176 L 10087339.556825737,-2555062.5326402844 L 10084371.77920119,-2542583.2976688277 L 10080295.148128847,-2537738.659506825 L 10073761.6958947,-2533018.631506939 L 10058357.416078217,-2517318.248957978 L 10050834.66752939,-2499452.9593864237 L 10044420.661108863,-2491101.1169153694 L 10036430.482018193,-2489549.5612033946 L 10033310.530649731,-2493215.0511579886 L 10026679.117263684,-2497994.3409190034 L 10026548.762139967,-2506712.871625354 L 10028538.152759932,-2513624.046915054 L 10042083.397080168,-2530336.3850797373 L 10034723.731585352,-2528088.7656654087 L 10026385.679085955,-2523318.5659531574 L 10013655.6273968,-2514269.1114178477 L 10009633.320235966,-2525477.5944440276 L 10006959.092108639,-2535865.7837458663 L 10006937.384807935,-2548592.595332433 L 10017101.744873287,-2567615.752029273 L 10005600.215084525,-2558125.069650882 L 10002415.030494457,-2546254.475423713 L 10003817.322119981,-2532314.3112883843 L 10002338.887962755,-2522444.53138397 L 9997816.533649277,-2509543.847881741 L 9991685.278735368,-2501808.1506275865 L 9981770.830926843,-2496846.297210853 L 9977357.235755872,-2489227.492177228 L 9970725.933689317,-2483625.4645804493 L 9970508.526723798,-2494796.324966052 L 9968377.760350524,-2509567.257252407 L 9961224.59251113,-2544639.0489103044 L 9959680.925132299,-2537110.376456852 L 9963377.06618511,-2515353.8403756088 L 9963159.65921959,-2501245.63009272 L 9957745.85842384,-2490058.9366186326 L 9946809.609009327,-2478071.993790848 L 9938449.737889735,-2476381.068364383 L 9933514.276945924,-2478224.055800639 L 9926035.054317996,-2485644.7317848136 L 9917892.590163922,-2496254.6708975057 L 9916522.915149203,-2513319.174791468 L 9913163.738195023,-2522714.365977784 z" /><path fill-rule="evenodd" fill="currentColor"    d="M 10146858.526329195,-2532572.522563284 L 10135052.649052605,-2524157.561381285 L 10138922.671150034,-2574040.1495622443 L 10147695.64889996,-2555456.393616638 L 10149913.355795544,-2545537.8122698246 L 10146858.526329195,-2532572.522563284 z" /><path fill-rule="evenodd" fill="currentColor"    d="M 10192049.45285316,-2557478.4473103974 L 10186896.584943831,-2553934.085506497 L 10182048.17584182,-2557019.891503311 L 10175862.48569691,-2568733.436944094 L 10178928.113153866,-2583575.228010726 L 10180841.472561622,-2585706.6959101716 L 10183950.514619987,-2580890.662512229 L 10188298.987888845,-2570545.2864100724 L 10191114.591769477,-2562675.7291693958 L 10192049.45285316,-2557478.4473103974 z" /><path fill-rule="evenodd" fill="currentColor"    d="M 10105320.32625663,-2522250.9883777117 L 10085948.063190822,-2518033.716627865 L 10076088.050613299,-2519347.507607591 L 10094503.63397523,-2550890.0040330207 L 10093883.918369984,-2565033.846281079 L 10091024.89988794,-2576564.633384008 L 10081643.115842866,-2585842.1225904725 L 10081132.270699613,-2592467.924958732 L 10076925.173184063,-2601512.667366813 L 10074740.082899282,-2612119.3538147225 L 10085154.466540957,-2615522.6172821634 L 10093590.480192252,-2609441.9822769 L 10094786.274162354,-2606075.233608071 L 10096590.874427604,-2597410.9000260634 L 10100787.062633056,-2588386.130808972 L 10115397.745799672,-2569839.2693963996 L 10115136.812913252,-2558483.606072473 L 10111136.324372616,-2530741.3272508667 L 10105320.32625663,-2522250.9883777117 z" /><path fill-rule="evenodd" fill="currentColor"    d="M 10227347.7501888,-2491382.2082558433 L 10223314.64503736,-2481565.325136157 L 10221325.254417393,-2488706.391056901 L 10223042.802840842,-2497765.9256675546 L 10224771.37189388,-2502769.086055039 L 10225956.256553885,-2502722.1659995555 L 10228315.339202775,-2497560.906381489 L 10227347.7501888,-2491382.2082558433 z" /><path fill-rule="evenodd" fill="currentColor"    d="M 10235740.237919195,-2452563.091081895 L 10229021.88401084,-2451996.312172704 L 10225749.758898461,-2455542.902685475 L 10227282.516967196,-2460504.605608909 L 10225477.916701945,-2476597.5771226897 L 10231120.03377331,-2478294.2755897776 L 10234044.285476958,-2478200.6892107045 L 10235675.004697591,-2473456.130045167 L 10237153.438854815,-2464736.9686790863 L 10235740.237919195,-2452563.091081895 z" /><path fill-rule="evenodd" fill="currentColor"    d="M 10090198.686627273,-2627543.275519362 L 10092177.16793714,-2622349.2708003167 L 10085980.679801624,-2625436.004132686 L 10081349.677665133,-2629048.6702176626 L 10078457.931252796,-2633819.7933938527 L 10083306.451674297,-2636306.1577818235 L 10090198.686627273,-2627543.275519362 z" /></g></g>
</svg>
