<?xml version="1.0" encoding="UTF-8"?>
<svg xmlns="http://www.w3.org/2000/svg" viewBox="281070.804942918 -6708630.044476612 427416.86219480436 346632.65258971136">
  <g id="map"><path fill-rule="evenodd" fill="currentColor"    d="M 470455.31504479056,-6689943.512040016 L 479173.85756371974,-6685493.829413447 L 486881.39646726445,-6684510.311747683 L 490251.48273153993,-6686486.380689551 L 488109.91836765903,-6697280.476385831 L 494360.7304146828,-6703036.096565711 L 501318.19858926244,-6705697.385573736 L 504459.96857792104,-6701029.937733904 L 510819.53976745,-6696269.29552808 L 515852.739224177,-6696234.484859357 L 529398.0948639027,-6708630.044476612 L 532572.4814633635,-6706177.450001051 L 535507.6424771098,-6701771.247934357 L 536116.4487722582,-6698213.216179265 L 536638.2032256062,-6694508.775950694 L 539682.1233818576,-6692940.104094433 L 550357.439909951,-6693741.891521958 L 555771.2407057002,-6700454.263065262 L 560043.5714428553,-6704693.917025904 L 563217.9580423161,-6701841.095332833 L 564772.5347312443,-6693576.281075429 L 567718.4937355975,-6682813.0998178525 L 580437.6361146553,-6670786.761886418 L 591200.0044845489,-6667363.874740864 L 604440.901316955,-6669726.720019221 L 609680.7097485942,-6671873.1048515905 L 613235.5863675867,-6670082.958473647 L 616757.8463757767,-6663734.0272492515 L 624367.535446914,-6656470.278238582 L 640348.0049477424,-6651328.058994558 L 645261.6472713576,-6648415.89314864 L 648675.1481370425,-6643547.2602951005 L 647685.9631418535,-6636595.743572835 L 640065.3647606184,-6619307.506113058 L 639065.1591358408,-6614205.68076344 L 640087.0720613231,-6612497.177149215 L 638597.7285939999,-6609296.898348271 L 628683.3921049694,-6597739.462844878 L 627781.036312599,-6593675.568471096 L 631085.8893552697,-6587041.272992739 L 633803.6434034967,-6581546.965991956 L 633814.4413941037,-6581529.714561581 L 639760.9059532988,-6578874.129484446 L 645359.4971037649,-6577989.183384937 L 655945.7580392236,-6577640.087833856 L 667242.9052428881,-6577267.430585682 L 668580.074966297,-6574063.766489582 L 681212.2768230453,-6564751.332131666 L 685114.9155312759,-6557377.613983154 L 694181.4427784247,-6550258.798629564 L 686669.492220204,-6541263.972029377 L 687810.9622787981,-6537261.96233178 L 690517.8070169273,-6533167.73625122 L 700747.5116233752,-6530783.975081529 L 705867.7629219027,-6524883.085605144 L 706172.1104097314,-6515881.759791691 L 708487.6671377224,-6501210.638335801 L 687408.7649585621,-6486667.420476579 L 681418.7744784668,-6470444.740796658 L 680886.1107150209,-6467256.644871999 L 680168.6565968583,-6467739.842607465 L 677831.3925681628,-6473091.273683081 L 674015.5830627509,-6473040.367527375 L 665275.3332431171,-6475280.185975781 L 653099.7639376028,-6460629.791450548 L 647588.1133094463,-6448474.681724492 L 644326.7861876757,-6439564.26526943 L 639423.9418546675,-6432368.616303952 L 638445.5548500854,-6424765.8059703745 L 639065.1591358408,-6421578.227456784 L 637391.0253138007,-6417464.861395905 L 637304.0847914912,-6413142.90178866 L 644315.876877578,-6404623.553306697 L 646066.1532313206,-6400022.333323895 L 654599.905395533,-6384982.896057288 L 651947.3845689108,-6379494.918779795 L 649838.4368158322,-6373566.041336975 L 647370.706343927,-6369359.018810624 L 644511.5765423925,-6366694.91404608 L 635684.2748809583,-6366854.105175621 L 624508.9112002215,-6364969.736847068 L 616975.253341296,-6362022.4228152 L 613072.5033135746,-6361997.3918869 L 604984.4743904986,-6369476.2190607255 L 595950.6750736427,-6380694.531903872 L 590210.7081698691,-6386049.183701278 L 587634.3298749496,-6390684.695367626 L 580535.4859470626,-6392633.708266066 L 570414.5404831198,-6398180.763582154 L 563391.8390869354,-6404219.645686761 L 557369.3433155285,-6407981.360408044 L 548868.0964426277,-6409858.714913641 L 541856.304356541,-6409665.08082208 L 539801.6805149695,-6419841.520976197 L 538953.7599535971,-6431482.238326921 L 533224.7023599213,-6439277.019042205 L 541073.6170167736,-6469842.765739506 L 536409.8869499894,-6472845.259109691 L 531311.4542716574,-6470393.850854147 L 523940.8794667439,-6463103.657001205 L 520429.5287686517,-6454397.726251126 L 518320.4696960823,-6446698.589949347 L 505949.3120452442,-6439395.377131306 L 486327.0254031139,-6436751.236045664 L 464878.4311950291,-6439395.377131306 L 461899.7442603827,-6441355.797784142 L 460530.0692456623,-6443587.272233828 L 460508.2506254668,-6446275.841017161 L 462008.50340288767,-6450411.944091585 L 465748.17037659703,-6455430.444988341 L 466672.2334696719,-6462595.3943610815 L 462834.7166635554,-6468799.746597059 L 460334.3695808477,-6471216.638756057 L 461323.6658955275,-6477232.222409397 L 464160.9770768665,-6484772.66760257 L 464715.34814101696,-6489072.4603866 L 450191.7168162002,-6502113.027135774 L 439679.37202262814,-6504658.934761766 L 429482.2840269828,-6505118.67653024 L 421742.12851263565,-6506583.706756873 L 417230.68350925663,-6505978.929578965 L 413980.26569758385,-6502172.655204303 L 410697.1199556178,-6499448.857456674 L 408240.29879381025,-6502717.522193787 L 403728.8537904313,-6525856.2500319835 L 400239.21039304376,-6529357.5117419 L 387052.6374721449,-6533227.588473722 L 369158.9198830525,-6534612.010822289 L 364386.5419932541,-6538843.725027912 L 361766.63777743443,-6549291.172825975 L 360114.2112560991,-6561886.718552408 L 354222.0706084111,-6573969.146114019 L 351199.9690723553,-6577001.232025835 L 345851.4014982109,-6582372.084263894 L 336502.34538342856,-6580163.269650396 L 325272.5464716939,-6573153.486154417 L 318641.13308564783,-6571213.144974089 L 316119.0787022354,-6570466.318923943 L 307172.21990768926,-6577301.915628722 L 297127.4169754491,-6588004.708639797 L 289071.89334368455,-6599376.097556936 L 287126.0286446181,-6605701.318425675 L 289593.75911652343,-6613385.844487419 L 286625.98149197473,-6619272.844444438 L 282310.1248339195,-6630056.499729414 L 281070.804942918,-6638490.962603277 L 329523.0585886535,-6668380.200592994 L 359027.06510901195,-6683726.898203045 L 372931.2034675642,-6688375.895630253 L 376268.5618015466,-6672950.691823319 L 378801.5254950567,-6668058.726962891 L 382106.3785377274,-6664880.074045399 L 386498.26640799444,-6664254.840712596 L 391520.66787411453,-6668058.726962891 L 398554.16726090596,-6672072.983477508 L 409860.1087043432,-6670204.673871026 L 418078.604070629,-6666495.303552689 L 421002.96709376835,-6662648.764944383 L 426438.4751902222,-6658986.356394661 L 434374.3303693839,-6658109.967665528 L 449735.08426496614,-6665114.459949587 L 464487.1431848908,-6675793.433486517 L 468813.797833553,-6683213.397585151 L 470455.31504479056,-6689943.512040016 z" /></g>
</svg>
