<?xml version="1.0" encoding="UTF-8"?>
<svg xmlns="http://www.w3.org/2000/svg" viewBox="-614877.1035788243 -1698177.2835108517 880837.1782024817 644260.1655220997">
  <g id="map"><path fill-rule="evenodd" fill="currentColor"    d="M 100241.86562545333,-1231342.7010543307 L 71574.98167586033,-1230185.4696564116 L 61127.87010389317,-1227051.676849762 L 54844.441446066856,-1227001.7870866794 L 54627.03448054759,-1229631.7590734828 L 53898.6710522872,-1231198.682815374 L 17730.634535080237,-1240003.8757478485 L -7636.96234638174,-1245221.6078384393 L -33336.06867142608,-1251038.5864528932 L -34792.795527946866,-1245592.6975313362 L -38488.93658075592,-1242080.8422185876 L -44038.54715527299,-1241826.063694897 L -47903.22591714307,-1242684.6728679526 L -50485.170186602256,-1238491.8895491066 L -54735.682303561814,-1232970.6038920816 L -60693.056172854645,-1230257.363121344 L -66530.76158954471,-1226852.345012847 L -69813.79601201993,-1223873.9602832408 L -72194.58596161567,-1223801.9671160937 L -78081.27195425479,-1230855.4229458387 L -85892.1153452556,-1231569.7294903165 L -100513.7078219705,-1230373.708393287 L -107068.86735682322,-1232300.6082262055 L -116048.34276217183,-1233247.5423829947 L -137214.2967831325,-1231791.2027714218 L -171072.23122739742,-1234676.1596142075 L -176605.58915625868,-1233114.629765817 L -178073.11400338644,-1231840.9862659355 L -211577.7203838735,-1231503.2764519185 L -248457.75636419424,-1231132.230514177 L -279320.6399086662,-1230827.7536548295 L -306313.39003621915,-1230561.9481887554 L -306362.3706121682,-1231763.5327062933 L -315026.58921959024,-1231924.1101247277 L -315988.6122590257,-1229554.1972326 L -323641.82725106325,-1201272.907540508 L -324484.4044768776,-1185907.7952817203 L -320424.0260501929,-1176353.7006994982 L -315836.43851511134,-1170317.425968219 L -310710.732561535,-1167802.579980231 L -310205.2307538428,-1164348.3976458544 L -314303.56912688795,-1159938.6316538835 L -313955.69571815897,-1155402.4583908054 L -309145.35788200004,-1150734.1541752687 L -307965.81655755447,-1145823.4757187124 L -310411.83972875506,-1140664.8647546442 L -309824.74073431134,-1128285.100677713 L -306210.08554876305,-1108680.551837511 L -306106.8923807976,-1095975.140405655 L -309525.84790153144,-1090172.813752893 L -307906.0379909985,-1080257.9353570875 L -301252.91730424773,-1066244.7693868098 L -300100.64925504656,-1060309.1658389468 L -302475.87323010265,-1057575.8754514037 L -307976.7258676522,-1053917.117988752 L -313558.95305297174,-1054043.840526628 L -320059.7886763173,-1062519.0523560173 L -322924.3731329006,-1066321.865552689 L -328186.0001847355,-1074915.5023963132 L -332653.91926721437,-1083566.2954134948 L -338703.68831386557,-1087354.6020869333 L -344622.9909173071,-1090878.7550058751 L -351846.73531386425,-1101844.57438282 L -358842.2747542951,-1107074.8914707873 L -366207.39490415965,-1105579.6975499978 L -376958.85396395565,-1107621.140423267 L -398652.01709331316,-1110335.8933691138 L -421970.44478825264,-1109530.2499257873 L -431656.5763211569,-1107014.2101946822 L -441212.2414108516,-1103025.1704185153 L -465443.71156927734,-1094226.565246161 L -475021.0839596766,-1089880.501471624 L -482261.30364087113,-1078862.9477966737 L -490496.05165281286,-1079122.0904762214 L -498741.7089748522,-1082650.8975198518 L -503900.03153923084,-1087646.8947975046 L -514945.0400962486,-1086527.4304886989 L -525625.8112793909,-1091380.602571753 L -535942.4564081483,-1100939.8037194717 L -543541.3474886788,-1104078.9142073628 L -553249.1863222878,-1110987.065887938 L -555934.3237597123,-1124144.7526750383 L -562087.285974329,-1133397.7305135482 L -567713.1504000394,-1146210.1242483798 L -576110.9814659932,-1151982.633767693 L -585797.1129988974,-1155043.3189511953 L -599152.1123093665,-1154402.4439601416 L -607946.7973599983,-1159557.3793295214 L -614877.1035788243,-1167078.5069825621 L -613039.8867027721,-1173578.6060218092 L -609919.935334309,-1182822.3429175853 L -609550.3546248754,-1191753.1961658953 L -607479.3668181574,-1206191.3762140896 L -608756.7579750102,-1224289.1427823503 L -611197.3264911618,-1236913.50827111 L -603821.2970311996,-1242169.550071313 L -595271.1809018406,-1246883.4323307818 L -589977.0485586941,-1255471.1623641849 L -584454.4886204399,-1274748.996689452 L -582133.5885568908,-1291408.8529360613 L -583845.6823252913,-1297578.0839213638 L -586688.4481616791,-1302477.6677026758 L -588938.7716680652,-1309686.9975810924 L -590216.162824918,-1318457.990641866 L -588672.4954460877,-1326131.9534372422 L -582220.5290792004,-1333224.440711833 L -574132.5001561242,-1339151.9226647867 L -568387.078597302,-1342013.222037697 L -553145.8818348317,-1344947.1666124684 L -534105.2395320962,-1349365.113463123 L -523125.4641966832,-1354378.4997585888 L -515102.66849521204,-1359392.7106217965 L -510612.93079253763,-1363356.8032044698 L -506063.4145233074,-1371492.4824004686 L -498698.29437344277,-1377794.4854758133 L -493001.85339056933,-1384153.5354377097 L -492208.2567407041,-1401874.5701243496 L -492246.3280065554,-1411969.9673456382 L -496469.67816776154,-1417534.1512790956 L -498779.7802407035,-1422308.3389329251 L -470558.6195322467,-1436172.8355893574 L -470352.01055733435,-1445967.8474131746 L -474292.83185090707,-1456915.2931643424 L -479815.28046967054,-1465729.7661721744 L -481869.90431124205,-1473335.9276633156 L -474075.31356589694,-1482283.94355449 L -467117.8453913173,-1489012.246798126 L -462089.9892701484,-1494736.7823332218 L -450974.4041559677,-1503457.1089521232 L -439412.9844811599,-1505719.986375478 L -428965.9842286835,-1502440.2192092335 L -398054.1201082626,-1481926.6357300628 L -392694.7545435112,-1480614.7549122265 L -386269.95013237745,-1482177.9512847557 L -378122.14264274534,-1487588.3017611024 L -367550.0192826173,-1491826.9571284088 L -363652.7239099449,-1505557.945582252 L -364033.2139294763,-1525781.5380976992 L -361636.1713342247,-1535048.8138106063 L -356048.37817436556,-1536710.2010551628 L -338263.4197277782,-1532844.9010723983 L -333648.67023694306,-1532615.5734168421 L -328484.8930175154,-1533913.3278282033 L -324728.9733981504,-1537470.9310476189 L -324886.60179711366,-1543988.9991878504 L -325707.3604027325,-1549764.2849580382 L -319923.9788975495,-1568564.764522837 L -309340.9462273238,-1582676.7578225438 L -287952.2419052858,-1600340.130993249 L -281293.66656348616,-1603867.5140322342 L -273537.25840348325,-1605684.62588568 L -235243.9101680511,-1593550.2942499837 L -228998.55277607607,-1596555.3284467773 L -219638.58735119607,-1626647.1865030047 L -209256.70900083377,-1629515.7001141254 L -196787.5901980976,-1630037.7948497443 L -188694.10661997265,-1632620.372277554 L -184492.46375947134,-1634725.9743941752 L -166272.58006235465,-1646143.8376190267 L -134137.7600160788,-1661731.754833645 L -116836.596076479,-1668410.4713714633 L -113455.60050210568,-1670923.8577229984 L -101073.53354116988,-1681986.9987029014 L -84652.7954542541,-1694704.232280539 L -74189.43123663114,-1697242.7726234612 L -59725.46715887951,-1698177.2835108517 L -50593.818009616494,-1696077.6236765054 L -48120.632882662336,-1692486.7257282361 L -45131.14795740897,-1690640.7619427033 L -26259.04336373451,-1696049.4957026427 L 815.3039505699355,-1687450.069638476 L 24209.762857721136,-1679000.0577134548 L 22687.91409908629,-1673651.2598992824 L 22568.245646483523,-1664182.6438353828 L 20600.673646712414,-1649233.747338637 L 18241.590997821364,-1631323.4742869588 L 27895.105919923248,-1619738.2536106135 L 39472.77824038688,-1607283.1466168142 L 42581.931618243005,-1602431.8331480864 L 39505.3948511893,-1590170.1023333268 L 41636.04990497256,-1582979.393029686 L 47778.214128982225,-1571018.027859322 L 58149.18316924676,-1555837.4096363322 L 68813.70170673318,-1540212.257559032 L 76205.98381235129,-1538147.8154723393 L 83239.59451863349,-1536900.381542197 L 87501.0159456908,-1534097.87542019 L 93762.73730281243,-1531390.7308957747 L 99959.22543832922,-1529617.7684115162 L 105373.0262340785,-1526206.5248483832 L 108840.85101127053,-1522862.811041311 L 113308.88141324016,-1513236.4794690588 L 125343.18628493781,-1506882.3366242368 L 133713.855395138,-1500607.8069186776 L 130343.76913086243,-1497412.389089199 L 119874.9502581906,-1498691.541549021 L 110036.75630086269,-1501445.792917979 L 108732.2031882563,-1496831.4645034645 L 108319.09655792247,-1479202.3280083959 L 109906.28985765297,-1464519.0816794096 L 112200.02796544839,-1462566.3265776709 L 122092.6571537742,-1459860.5722824994 L 145682.81572574,-1440805.1008373972 L 167033.56010141748,-1422793.0347612996 L 174208.43524151633,-1418107.8658269942 L 186025.3331476947,-1416330.9731000343 L 199244.52267939594,-1415584.587214263 L 204930.0543521716,-1417250.0931724191 L 217757.8445542437,-1426325.4656523142 L 224574.04829500665,-1427328.4362878425 L 230857.47695283292,-1427072.127144171 L 234281.88712861564,-1425623.4410846068 L 240424.05135262528,-1418224.9145639157 L 246185.61423761275,-1407047.1640252376 L 247827.24276834112,-1398795.9838769906 L 247283.6696947976,-1394370.7786326 L 245326.89568563344,-1392701.096072062 L 234814.55089206144,-1390563.9756406986 L 230270.48927788,-1388888.8086480543 L 229139.81720989273,-1386473.7845558305 L 230759.62712042566,-1380937.6658871341 L 232814.2509619971,-1377360.6549471514 L 244283.2754594465,-1361244.0894044347 L 260861.53062583474,-1339563.0203912011 L 265960.07462365745,-1333996.5417647546 L 263079.23752141837,-1327514.7663444113 L 254610.71857881086,-1310591.7468475846 L 248338.0879115915,-1303532.0039660688 L 220453.89130176598,-1279589.664926777 L 206788.97852892848,-1282423.4062665615 L 178111.18526923773,-1277571.2972604528 L 173817.14723137798,-1283077.8450852842 L 167131.40993382473,-1283809.873753752 L 158825.9740452294,-1282850.4595907072 L 155814.67049978056,-1280759.7696305616 L 154901.51671680337,-1278408.5870964578 L 151933.73909225466,-1275103.8430934602 L 146650.4047397151,-1265607.5623697727 L 142541.1570565722,-1263190.9621220357 L 137442.6130587495,-1261722.17802061 L 131213.5083124303,-1261916.1581614637 L 127549.98387042366,-1260685.7828701567 L 127517.36725962123,-1255975.3714296487 L 126408.51381182943,-1251886.2014622586 L 122179.70899557455,-1249841.8638203877 L 120396.81603102946,-1245265.9659409656 L 120733.78012966072,-1240768.175222329 L 118255.25166714849,-1238707.8509599706 L 112863.1581721039,-1239832.1433199476 L 109656.26628133128,-1241067.2981059302 L 106644.96273588242,-1235257.6267232741 L 102927.00306287789,-1231292.8049013407 L 100241.86562545333,-1231342.7010543307 z" /></g>
</svg>
