<?xml version="1.0" encoding="UTF-8"?>
<svg xmlns="http://www.w3.org/2000/svg" viewBox="2487327.489023009 -5502315.24436132 694779.3397634756 453982.62728194613">
  <g id="map"><path fill-rule="evenodd" fill="currentColor"    d="M 3118554.642812095,-5156343.3629693035 L 3103498.2364043416,-5158975.545369973 L 3098236.7206719974,-5158178.53644945 L 3094866.634407722,-5154472.017378557 L 3087876.54962234,-5155217.517467303 L 3079223.2403250155,-5155188.325102763 L 3070178.531698062,-5150934.979236437 L 3065166.928222549,-5149123.190867057 L 3058481.3022444868,-5153024.8955590455 L 3046023.0927518485,-5164732.4016038105 L 3038456.8182821204,-5172901.756854337 L 3032825.610520852,-5174959.89300206 L 3027150.876838683,-5172535.655950728 L 3006930.8045309926,-5169767.93283181 L 3002147.517331097,-5165003.042049894 L 2992809.2592069213,-5159758.09264094 L 2983405.879180632,-5157257.162147589 L 2969914.8474524138,-5155488.03762849 L 2962805.205533919,-5155722.035522189 L 2958837.333604084,-5153185.642773243 L 2955499.863950611,-5145522.479926943 L 2953227.83314352,-5138040.448076916 L 2951238.4425235535,-5135005.443818334 L 2934420.9617714505,-5131300.586829706 L 2930735.618709248,-5127006.958076378 L 2929702.907793159,-5122809.845030653 L 2930028.9625816927,-5118614.570084878 L 2916635.8920053723,-5122678.700892315 L 2906264.922965108,-5119976.397379983 L 2903829.809104005,-5116765.055833252 L 2901655.6281293216,-5112157.659129211 L 2902873.1294001276,-5107232.511817876 L 2906688.8275860483,-5102469.639234796 L 2910287.2301259413,-5089574.694663796 L 2911580.87392845,-5076697.008972052 L 2909374.076342964,-5069406.099101535 L 2901699.042730731,-5064205.893785043 L 2885773.0084609007,-5058458.341707193 L 2870368.728644418,-5061201.381598472 L 2863574.3435238507,-5058921.488157448 L 2852170.552248006,-5058190.542034293 L 2841658.318773925,-5056663.9144407185 L 2825503.9682284775,-5051412.5093635125 L 2810947.6089733676,-5048332.617079373 L 2797837.0672646803,-5059029.978791561 L 2782269.8157136766,-5066327.585656551 L 2765941.4728041193,-5070666.745422502 L 2760255.941131344,-5067500.900885446 L 2757799.0086500454,-5065009.667373942 L 2744145.0051873056,-5074486.043445116 L 2738013.7502733935,-5077864.458454205 L 2735045.972648845,-5081526.908848749 L 2729360.4409760693,-5094185.845767748 L 2725979.5567211867,-5094585.4064608365 L 2714717.1411986495,-5089872.361407826 L 2703889.5396071514,-5090097.476140327 L 2697312.561452103,-5090954.268759272 L 2677907.793094983,-5090424.1546413 L 2675331.3034805725,-5081780.798060833 L 2672928.8062302717,-5080438.930458031 L 2668721.7087147217,-5079285.724331078 L 2658405.0635859645,-5079829.633050634 L 2645207.692674459,-5073449.475352552 L 2631053.5307395845,-5069558.329424181 L 2619997.72419196,-5069449.5720383 L 2608593.9329161155,-5071333.340174217 L 2601766.9311847454,-5069985.655446316 L 2587047.600195114,-5069290.221684426 L 2577709.3420709386,-5059963.611803982 L 2563196.5087367287,-5060492.053396068 L 2550999.23213051,-5062069.990471392 L 2552521.192208635,-5065009.667373942 L 2554945.3967596404,-5102084.340455909 L 2560978.801841145,-5118672.732008547 L 2560750.4855655283,-5122088.649079129 L 2559456.8417630196,-5124675.001524759 L 2554108.274188875,-5127349.52369524 L 2550238.252091447,-5136325.82795688 L 2542182.7284596823,-5160021.402413889 L 2537649.5761555987,-5164827.559466796 L 2524984.7576880483,-5169841.100613971 L 2513896.334529621,-5176696.027445527 L 2504492.843183841,-5185740.994198756 L 2487327.489023009,-5208126.521534184 L 2496013.4149311357,-5210368.63099412 L 2498644.228457053,-5214928.26031063 L 2507308.447064475,-5227264.7558672195 L 2508297.743379155,-5233335.800821913 L 2507384.5895961775,-5236763.5586113455 L 2501579.3894707994,-5242715.459987158 L 2497589.698920768,-5255686.710085358 L 2500601.002466217,-5267854.707356085 L 2500861.9353526365,-5274114.779914835 L 2497926.7743388903,-5280312.430868597 L 2500992.401795846,-5288026.348174728 L 2507221.5065421658,-5292252.797622218 L 2511156.7618611986,-5293491.542307586 L 2527637.27851467,-5294322.375245818 L 2538073.4807765395,-5309801.885704256 L 2544411.344665364,-5314751.922775905 L 2550912.1802887097,-5323543.480441728 L 2553923.483834158,-5326758.581371295 L 2556782.6136356927,-5333616.986759367 L 2557771.7986308816,-5340629.451525067 L 2544715.6921531926,-5350460.392098224 L 2540280.389681516,-5357858.924938326 L 2534475.189556138,-5366033.387070151 L 2526615.4769086787,-5371686.476149763 L 2510765.47385106,-5381408.022981145 L 2504590.6930162483,-5391282.230501837 L 2501807.705746416,-5404093.752449301 L 2497600.608230866,-5413819.387873988 L 2492980.404084982,-5420155.869711046 L 2492099.8669128073,-5425315.458632034 L 2490175.7095144456,-5431659.842036476 L 2489708.2789726043,-5444127.971286661 L 2493447.834626823,-5460728.245468323 L 2495872.1504973187,-5466590.826764897 L 2501242.425372168,-5468230.933835591 L 2515537.8517408585,-5477101.351270651 L 2516200.981947514,-5488464.765132634 L 2518777.4715619246,-5495527.661309858 L 2523332.331166713,-5499584.446403256 L 2527517.721381558,-5502315.24436132 L 2535323.1101175104,-5495702.02118729 L 2554271.3572428874,-5485162.5564495595 L 2563522.674844753,-5477517.553920237 L 2563066.0422935192,-5472752.032679744 L 2558717.6803441523,-5468072.111106623 L 2550477.366357671,-5463462.650497852 L 2545683.2811671677,-5457383.125101848 L 2544367.818744464,-5449829.034271388 L 2545618.0479455628,-5444505.008978929 L 2551336.196229141,-5439862.1291913465 L 2585351.6477528787,-5445945.0583781125 L 2619856.348438652,-5442808.769711671 L 2666188.7450212114,-5432488.007347542 L 2696910.3641318665,-5428912.364829914 L 2719598.1669114623,-5433677.7289647665 L 2761636.5254561617,-5425052.141298073 L 2800761.43028782,-5417028.3413171405 L 2838320.849120452,-5414638.412331897 L 2859367.2460083007,-5420945.425187751 L 2874141.0122289294,-5429431.674242168 L 2886892.659899299,-5445432.383609598 L 2918331.7331281174,-5466568.075358285 L 2948770.712051648,-5478448.112548569 L 2988678.3042230736,-5488093.519419527 L 3015301.473641193,-5491381.7318742145 L 3019062.8479156066,-5488086.072939888 L 3052980.560926428,-5468616.392237827 L 3068080.381935591,-5468548.27792899 L 3080310.275152612,-5465102.198807464 L 3084745.6889437796,-5459965.585082504 L 3087843.9330115374,-5458681.841651354 L 3104063.51677859,-5463485.394211164 L 3111260.210538884,-5452854.593017823 L 3122511.7167513235,-5438001.034671333 L 3141655.6635415154,-5430357.53258715 L 3158712.2585598426,-5426030.104934756 L 3164082.644754182,-5425368.153816738 L 3182106.8287864844,-5425638.876221731 L 3179486.8132511736,-5388591.541738885 L 3168757.1728115734,-5371417.327391083 L 3152526.6797344233,-5377170.875120999 L 3131828.1562553034,-5372382.132393082 L 3120859.2902299883,-5352893.607547235 L 3114641.0947937667,-5347125.117087182 L 3109031.594333203,-5340346.237859553 L 3105422.3938027034,-5315123.585737003 L 3104574.473241331,-5273951.966434062 L 3096725.558584479,-5268942.055619627 L 3089528.9761436754,-5267410.835122106 L 3059590.1556922784,-5231353.3870898485 L 3076820.743074715,-5221234.390701987 L 3084463.0487566553,-5213545.409687509 L 3097062.6340026013,-5192189.14000329 L 3115021.584813298,-5168084.179652695 L 3118554.642812095,-5156343.3629693035 z" /></g>
</svg>
