<?xml version="1.0" encoding="UTF-8"?>
<svg xmlns="http://www.w3.org/2000/svg" viewBox="3229841.516994566 257550.60991847145 200070.73594006384 238974.10120820804">
  <g id="map"><path fill-rule="evenodd" fill="currentColor"    d="M 3401212.641054744,267255.8593888091 L 3398994.9341591597,270171.8991649951 L 3388787.0481729074,291031.8673107572 L 3386808.5668630386,294166.02311417396 L 3387939.127611535,296092.2407918267 L 3392276.6915702955,300042.7153694144 L 3389732.818566688,306605.4007841085 L 3388711.016960696,308368.5220383048 L 3386786.7482428434,314496.1653409178 L 3387841.2777791284,320123.5320524426 L 3390298.0989409355,322202.4960273775 L 3396918.6030168836,324923.747965943 L 3406854.75812611,326894.0006496123 L 3418562.8968897834,331574.7579340547 L 3426444.3168379473,332423.82746914326 L 3428292.443024097,335798.5386972892 L 3427922.862314664,341840.4589851648 L 3429879.6363238273,347087.9110491999 L 3429912.25293463,356473.0432271142 L 3427553.170285739,364726.4195267924 L 3415486.3601227296,368602.94985086174 L 3409278.962677115,372838.899977869 L 3407594.030864468,374962.4006089493 L 3409115.8796231034,377445.353294457 L 3409931.294893164,380788.6090516528 L 3398571.02953822,389022.0747271792 L 3386895.507385349,399772.34778142517 L 3384112.520115516,407026.9423540865 L 3381786.1653969185,415600.3100083395 L 3378372.6645312337,421069.26797681063 L 3369480.1296481946,428957.37106531305 L 3360413.6024010456,444844.57858276967 L 3355967.3906192714,455165.15177542414 L 3333714.401770714,479941.398654611 L 3313929.0320745725,492304.9671806832 L 3308167.357870094,496524.7111266795 L 3273151.8120410694,495794.14278258156 L 3270477.472594252,479091.0806474944 L 3265150.723640303,456287.6625059307 L 3253116.418768605,435691.1646933949 L 3251844.482266802,427094.25945834524 L 3252398.964650443,410491.0709818285 L 3252442.4905713433,387148.89038484887 L 3251648.8939214777,374613.92644123436 L 3251898.9174977997,365466.9037596947 L 3253431.6755665317,349570.2481335573 L 3253246.885211815,340076.8677298542 L 3245321.9393427516,329125.4531235054 L 3235472.724755835,317478.50854821556 L 3230113.3591910833,311775.13526584953 L 3229841.516994566,307171.3356302328 L 3229863.2242952706,302926.77143372316 L 3231450.4175950014,296723.43536784826 L 3235298.8437112155,289812.99223196955 L 3239625.498359878,289051.22853994404 L 3250257.400286562,291793.6417667472 L 3261334.9141348912,297670.2326786025 L 3267205.3474818743,310871.8157722972 L 3271705.883175156,312776.5399356681 L 3279880.9639400323,312754.69507723657 L 3300775.0757644754,311013.24811026483 L 3305971.4695947054,311231.0252320879 L 3315472.6994534023,308074.6297146666 L 3324908.807409985,302502.2778401784 L 3327626.5614582123,296734.2450459953 L 3329833.3590436983,283806.13546329545 L 3331811.9516730574,260510.02846511267 L 3336627.855483756,260237.95972345545 L 3349814.4284046553,268528.8065765716 L 3352640.830275896,269094.7004887954 L 3355423.8175457283,268800.88997743814 L 3359989.697780105,264688.0480519055 L 3365609.996231276,261347.74023369435 L 3369751.860525221,261434.8651899647 L 3385058.290509296,257550.60991847145 L 3393265.987884975,264579.19528254436 L 3398462.2703957143,266755.26259382564 L 3401212.641054744,267255.8593888091 z" /></g>
</svg>
