<?xml version="1.0" encoding="UTF-8"?>
<svg xmlns="http://www.w3.org/2000/svg" viewBox="84978.96156227839 -1389423.1012194706 341872.62025827775 696010.4926005338">
  <g id="map"><path fill-rule="evenodd" fill="currentColor"    d="M 180633.2396526501,-693412.6086189369 L 179328.79785953453,-697223.6795617241 L 197918.26226608487,-702128.7282337374 L 194048.12884916592,-716873.7014213632 L 182481.36583880006,-734270.5821172761 L 177948.10221522558,-737482.4808259117 L 175610.83818653,-746134.19932352 L 178437.351377262,-751815.2621185305 L 177089.27234375547,-755646.7612720078 L 176110.88533917337,-767389.1215149247 L 170425.3536663977,-780333.4283904101 L 180861.5559282671,-780880.9654338789 L 180861.5559282671,-822605.4592487882 L 180850.64661816938,-862659.0901389682 L 180850.64661816938,-896861.5748976456 L 180850.64661816938,-923937.600608223 L 178850.45800759582,-956378.1950438386 L 178535.2012096693,-980218.7829339908 L 178132.8925699424,-1011662.3314822827 L 174360.72030492153,-1021493.7390956082 L 158554.13184871222,-1038156.5073271989 L 154260.09381085253,-1046804.5018684388 L 153499.11377178968,-1058237.088570071 L 149955.14646289503,-1070036.8873656073 L 149737.73949737576,-1090663.582710135 L 149487.71592105407,-1114700.9575919367 L 148063.60567533574,-1118547.8141385054 L 130930.86812530617,-1130013.2395166587 L 106677.57934668486,-1146259.7847915834 L 88185.9647725418,-1158651.1717869195 L 86826.97642893752,-1159557.3793295214 L 84978.96156227839,-1162624.262539314 L 87664.09899970294,-1199264.7284286742 L 91490.70649572172,-1204061.214429541 L 97382.8471434097,-1219152.1012708743 L 100241.86562545333,-1231342.7010543307 L 102927.00306287789,-1231292.8049013407 L 106644.96273588242,-1235257.6267232741 L 109656.26628133128,-1241067.2981059302 L 112863.1581721039,-1239832.1433199476 L 118255.25166714849,-1238707.8509599706 L 120733.78012966072,-1240768.175222329 L 120396.81603102946,-1245265.9659409656 L 122179.70899557455,-1249841.8638203877 L 126408.51381182943,-1251886.2014622586 L 127517.36725962123,-1255975.3714296487 L 127549.98387042366,-1260685.7828701567 L 131213.5083124303,-1261916.1581614637 L 137442.6130587495,-1261722.17802061 L 142541.1570565722,-1263190.9621220357 L 146650.4047397151,-1265607.5623697727 L 151933.73909225466,-1275103.8430934602 L 154901.51671680337,-1278408.5870964578 L 155814.67049978056,-1280759.7696305616 L 158825.9740452294,-1282850.4595907072 L 167131.40993382473,-1283809.873753752 L 173817.14723137798,-1283077.8450852842 L 178111.18526923773,-1277571.2972604528 L 206788.97852892848,-1282423.4062665615 L 220453.89130176598,-1279589.664926777 L 248338.0879115915,-1303532.0039660688 L 254610.71857881086,-1310591.7468475846 L 263079.23752141837,-1327514.7663444113 L 265960.07462365745,-1333996.5417647546 L 268579.9788394772,-1345630.5649067159 L 263079.23752141837,-1367160.2645581658 L 263383.696328738,-1370975.2532334456 L 274885.226117499,-1375630.6358211904 L 289256.79501789215,-1379224.188345148 L 294822.7695575559,-1379502.29848682 L 298486.2939995625,-1381327.1114628527 L 303737.0117412996,-1385978.518546069 L 312281.5618961189,-1389423.1012194706 L 317282.25606153434,-1388265.6313971519 L 320391.40943939047,-1387586.73862326 L 350612.87007791153,-1359148.0319200165 L 363723.41178659856,-1344786.0211220277 L 367256.4697853955,-1337418.5000086129 L 374029.1476052583,-1332108.0168691354 L 384030.5359360891,-1328864.313657415 L 393151.2757752544,-1321528.441029886 L 400239.21039304376,-1311163.4381113201 L 395619.00624715973,-1303842.8449574378 L 388563.6882401728,-1288768.458983584 L 388259.340752344,-1276977.9509423578 L 405076.821504447,-1252168.744649107 L 407011.8882129065,-1249642.3953627083 L 411360.25016227335,-1245753.3417468402 L 413708.42350106663,-1241133.770223905 L 415687.0161304263,-1228923.0500984173 L 416882.81010052765,-1215150.4144558972 L 418209.0705138387,-1205892.5631258723 L 426318.9180571103,-1192864.9433141388 L 426851.58182055614,-1187616.5422653784 L 421209.4647491898,-1168195.0140690093 L 419872.29502578103,-1166127.9644492401 L 418393.86086855555,-1165569.7392169475 L 409686.11634023336,-1167277.492576651 L 405935.6513759171,-1165149.7179023568 L 401206.7994070189,-1158551.8162736953 L 398293.3456939773,-1151966.0021713525 L 398141.1719500629,-1149237.054417786 L 405859.50884421455,-1136997.9788023413 L 400978.4831314019,-1119403.2784330663 L 395988.69827608415,-1108415.6678948035 L 387030.9301714402,-1102153.4758869046 L 379018.93246057595,-1100652.94357588 L 373420.3413101098,-1097734.7554506115 L 370159.0141883393,-1093857.0692880787 L 370637.354040278,-1081272.421786316 L 358831.47676368814,-1069821.9458968823 L 352287.00389995164,-1061813.6356360973 L 349112.72861998144,-1056953.1559346404 L 350438.9890332925,-1042171.7337435889 L 346253.598818447,-1027247.2311606226 L 338959.1665452362,-1015471.2992822863 L 322609.11633497407,-1012939.2748033049 L 308889.8796506295,-1011491.6696120439 L 304226.1495838453,-981516.8283948251 L 304421.84924865986,-962540.5629545137 L 303193.4386677561,-943166.1452542485 L 300910.4985505676,-935281.3761952191 L 301845.3596342496,-924162.8052069601 L 300823.5580282581,-899062.8476636499 L 299008.0484529106,-879271.4857517848 L 301421.45501330873,-873976.6021593435 L 302834.6559489294,-862346.4510606624 L 302715.0988158174,-850346.1652270262 L 306237.35882400733,-841994.9323998489 L 310042.14769983065,-834692.0793298933 L 309911.6812566209,-830936.9911206458 L 307889.67402585194,-828590.922159001 L 306182.9235930094,-825510.3743823812 L 306193.8329031072,-797246.8190581081 L 306878.67041046737,-788800.3706575575 L 305878.57610518066,-783405.6317115447 L 302943.4150914344,-778969.7697410536 L 304095.68314063555,-764679.1004950275 L 306454.7657895266,-755575.5767665874 L 308868.061030434,-748859.766818483 L 306541.70631183614,-743261.1629049233 L 304530.60839116486,-735857.3457827416 L 301454.07162411115,-717032.3267291051 L 301280.0792600013,-710485.141844544 L 254578.10196800844,-705874.7351198987 L 202397.09065866141,-698322.825303843 L 180633.2396526501,-693412.6086189369 z" /></g>
</svg>
