<?xml version="1.0" encoding="UTF-8"?>
<svg xmlns="http://www.w3.org/2000/svg" viewBox="12697531.59235168 -559804.2470259011 140584.38304740936 111488.69621299714">
  <g id="map"><g><path fill-rule="evenodd" fill="currentColor"    d="M 12817330.511397662,-546104.3717668864 L 12820493.988687025,-542411.0776032 L 12827114.49276297,-529439.7792862211 L 12831430.238101536,-516416.051567813 L 12832832.641046548,-496579.31140604056 L 12838115.97539909,-488140.0329967315 L 12837278.852828322,-486411.8875551982 L 12834093.668238256,-484994.587048708 L 12829201.733215347,-484394.9628168267 L 12820733.102953246,-486291.98267016944 L 12813656.077645555,-489219.4303020433 L 12807481.296810744,-510684.82993933035 L 12804720.128161106,-522823.99167625094 L 12804948.444436723,-537321.6293832132 L 12804720.128161106,-546098.897105764 L 12817330.511397662,-546104.3717668864 z" /><path fill-rule="evenodd" fill="currentColor"    d="M 12804720.128161106,-546098.897105764 L 12795588.479011845,-541243.7006093927 L 12786663.327518003,-535156.0698641225 L 12777716.468723455,-529914.2960689935 L 12773541.987818707,-525807.275724525 L 12775020.421975935,-520048.1176128487 L 12777172.895649914,-507374.9183345196 L 12778379.598930111,-497424.33631339297 L 12781510.459608672,-493498.9743835628 L 12783956.371460382,-489530.14479807724 L 12782934.569854392,-485207.1526887845 L 12777640.326191753,-476976.2067933425 L 12780640.720427105,-475384.5880452163 L 12776825.022241184,-464478.58094634896 L 12771128.581258308,-456412.994415919 L 12763236.252000049,-449841.17336297035 L 12758137.708002225,-448315.55081290397 L 12754071.874920493,-451116.28364713024 L 12747440.572853938,-458314.8691767139 L 12740189.555182135,-468358.95550973737 L 12736797.872936646,-474196.3073037536 L 12726372.468665384,-474970.33443172136 L 12722665.418302476,-479592.5406250413 L 12722437.213346351,-485234.39328237757 L 12719480.23371241,-491879.8002695667 L 12715370.986029267,-498983.6579348265 L 12709218.023814648,-504463.2380137212 L 12701010.32643897,-508738.1087255371 L 12697531.59235168,-511802.7196361916 L 12710229.027430035,-511611.8620338333 L 12723752.564449564,-513422.29156859627 L 12737667.500798725,-519366.36647031305 L 12751060.682694534,-526532.7574951613 L 12762322.986897582,-534752.4570454435 L 12772889.65560266,-544009.5051993541 L 12783999.897381283,-551314.5323060994 L 12801230.484763721,-559804.2470259011 L 12807046.482879706,-559133.0883991922 L 12806981.2496581,-553109.4750232376 L 12804720.128161106,-546098.897105764 z" /></g></g>
</svg>
