<?xml version="1.0" encoding="UTF-8"?>
<svg xmlns="http://www.w3.org/2000/svg" viewBox="-7752924.193899565 1086174.4989087349 1352537.267793323 1532752.2083773934">
  <g id="map"><path fill-rule="evenodd" fill="currentColor"    d="M -7737922.11140332,1979813.2615654718 L -7737938.475368465,1979676.4595821057 L -7737927.566058368,1974479.2210502403 L -7739145.178648665,1966150.2524128775 L -7743808.797395958,1959612.399525214 L -7750717.396314079,1955125.990674231 L -7752924.193899565,1949775.2659718527 L -7750603.293836017,1944141.4177346192 L -7737074.190841947,1933026.0479860776 L -7729839.537135291,1931115.3057732068 L -7727920.834391979,1925486.3134947715 L -7723518.037211614,1920984.1677874103 L -7710793.440177508,1904643.3938011732 L -7703287.055593827,1893888.6385725965 L -7695796.923655801,1887451.966220439 L -7687116.341083231,1882946.2102385005 L -7683349.51215377,1879213.0634719683 L -7685317.195473032,1867654.1259952313 L -7684708.389177883,1859909.9619340429 L -7681740.611553335,1855001.67886611 L -7673032.867025011,1849822.7103916511 L -7665216.568978962,1845845.6393873144 L -7663542.435156921,1843885.7867150381 L -7664216.474673675,1840974.5105359575 L -7671413.16843397,1835073.8771124124 L -7686192.277990157,1829944.6682597257 L -7695981.714010518,1830442.8366605842 L -7701971.5931711225,1825903.2626492258 L -7705265.536903696,1821998.2803077528 L -7724670.416580307,1774275.8659227975 L -7727899.015771783,1763142.2360507473 L -7727632.739549805,1758841.4987240464 L -7714652.664284329,1735274.5900403669 L -7709353.077286134,1727596.937973195 L -7700243.135437574,1716485.038938542 L -7701873.743338715,1712113.7554354502 L -7717859.667494593,1693691.1257957416 L -7722757.057172551,1684935.008032121 L -7722648.298030047,1676238.3187598526 L -7721061.216049807,1665621.92924659 L -7711771.827182091,1659933.08463593 L -7709135.670320614,1651323.8160236813 L -7707195.148957104,1642807.214816416 L -7703227.277027271,1639987.8100990017 L -7699155.989290489,1635203.211707902 L -7694372.813410083,1628230.2267774101 L -7686920.641418418,1622168.1849829976 L -7682507.046247447,1617532.8723703048 L -7681544.911888519,1604641.4364683118 L -7677903.094747217,1601119.575532718 L -7667722.370716719,1597037.484340735 L -7666673.295835482,1593696.105954177 L -7668988.852563474,1585041.6976689908 L -7674081.941906247,1575897.1284692886 L -7678180.3915987825,1571460.5961735414 L -7683610.44504019,1549019.8265832548 L -7689295.9767129645,1537851.4186609539 L -7686926.096073465,1533398.640300712 L -7682996.184089991,1527727.644840504 L -7679202.193204775,1516500.822632905 L -7677957.529978216,1503445.8951552482 L -7678876.138416243,1455459.5029085039 L -7678664.07478628,1446034.7642695613 L -7673668.8352759145,1439411.4384094926 L -7666314.6244361475,1431775.4074024328 L -7660096.317680435,1428855.2686919207 L -7654225.995652943,1424018.7305743764 L -7654650.011593373,1414949.6665961596 L -7650779.878176455,1409591.9462572462 L -7646007.500286656,1402887.8763104146 L -7660862.7523745475,1376498.3670456617 L -7673924.313507285,1353311.280583721 L -7686186.823335107,1331563.6980502014 L -7700384.399871393,1306390.151427476 L -7709733.567305665,1289833.4741851364 L -7721343.85623693,1269271.569963021 L -7731540.832913086,1251249.0698035175 L -7745455.769262246,1226636.460217552 L -7732535.583882813,1226226.8044932135 L -7706483.149493992,1227079.3430230748 L -7681229.655090594,1231464.493340359 L -7664162.150762168,1233369.3416109884 L -7657008.982922775,1237168.24913499 L -7655432.69893314,1243183.1278717765 L -7650709.1902998015,1245997.1457936282 L -7645241.065592545,1244900.3253519607 L -7639039.122801981,1244490.445125926 L -7625200.328984523,1238320.1649323187 L -7614030.308639345,1234233.1762608448 L -7604360.541071586,1229293.9581576583 L -7599403.372827071,1224521.5655886144 L -7587385.43192052,1207740.6682875464 L -7577704.755042665,1198457.0713673932 L -7568801.310849527,1195204.5433711791 L -7551358.771156619,1193888.1448131294 L -7545868.827829168,1196520.9922565399 L -7538753.731255626,1196189.0715602792 L -7532617.021686665,1186654.342460388 L -7523240.803616128,1176127.0385829944 L -7504819.765599149,1162983.478713641 L -7495443.547528612,1159369.527212924 L -7489627.549412628,1154772.5523864708 L -7479609.90843614,1154109.618617815 L -7470820.566721068,1149303.3495065244 L -7428347.394245328,1116119.3218857925 L -7411133.170828041,1107576.9565619722 L -7400397.964413899,1106021.0627709688 L -7391527.2481510565,1103990.6679526276 L -7376427.315822403,1099235.1705265772 L -7338704.813935757,1094645.7685186437 L -7314446.0705020875,1092726.3506453084 L -7306689.551022593,1097315.5176298716 L -7297960.0991935665,1096002.704359556 L -7290535.200477147,1088578.9035121147 L -7284387.692917579,1086174.4989087349 L -7279865.338604101,1086395.0666428506 L -7273380.755626412,1095186.3002646463 L -7270200.914371902,1104498.2280164002 L -7272293.609479325,1111605.1366291137 L -7271896.866814137,1121936.7814872875 L -7269005.120401802,1135484.9397862526 L -7270619.475657284,1147502.5651093884 L -7279789.196072399,1163259.7403894966 L -7284403.945563234,1169681.7077223149 L -7285539.960966781,1176292.902575038 L -7284746.364316914,1185216.5286611621 L -7280550.176111462,1199773.644840811 L -7272951.285030931,1219949.1399709906 L -7271809.814972337,1234919.8823546716 L -7277131.220590728,1244623.4032259248 L -7279582.698416977,1253010.9419899485 L -7279169.5917866435,1260048.4802994002 L -7277272.596344035,1265003.3103706043 L -7273880.802779055,1267852.4630367225 L -7272000.059982103,1273495.9942121564 L -7271614.115307524,1281946.4989002356 L -7267189.610826453,1290110.781563981 L -7258721.091883845,1298010.7941669936 L -7255291.338372506,1305546.5578934771 L -7256889.329662843,1312728.8499495757 L -7256443.606421707,1317214.4086783552 L -7253954.168649097,1318991.0506870293 L -7251649.5212312015,1317536.414007973 L -7248583.893774248,1315571.1187521315 L -7245817.1591500705,1316270.5837357743 L -7239897.85654663,1326298.574699408 L -7239136.876507566,1328342.2315119198 L -7235902.82266104,1336607.5169267894 L -7234935.233647066,1342885.5695941842 L -7226232.943773792,1346386.3608314567 L -7216829.563747502,1349153.8642374114 L -7211660.331873026,1352466.4109836824 L -7201262.200877008,1362383.7796627232 L -7192538.20370303,1368923.0537424479 L -7181601.954288517,1374284.6027019732 L -7177965.591802264,1382851.558247384 L -7171258.147204006,1395795.6913558803 L -7152837.109187026,1400761.193499304 L -7131307.0291116815,1403244.200764184 L -7117609.499728041,1406050.477829673 L -7100857.252197543,1399180.1910564045 L -7089779.627029723,1400159.8849799358 L -7078321.623161861,1404825.4211652072 L -7073451.395439656,1407988.231041118 L -7064917.531955954,1414660.0442561067 L -7051720.161044448,1423205.2835957988 L -7040930.630718799,1426381.1536342301 L -7033239.344460911,1421623.0694939364 L -7026129.702542417,1419962.9040436123 L -7020639.759214966,1421957.3730804378 L -7017731.760156971,1431229.2713345296 L -7014818.417763421,1437527.2987139695 L -7008442.482608746,1442265.7389667104 L -6994777.569835909,1454444.3549318633 L -6987021.161675906,1459419.9205239157 L -6978291.709846878,1459085.1805701181 L -6960310.940415986,1467074.5495360978 L -6941085.507758534,1474865.2254519872 L -6931187.42391516,1476148.9443104884 L -6921408.8972048955,1475010.2838832901 L -6914946.132847402,1477991.0634998025 L -6912358.733922893,1487392.8595254095 L -6895655.466968345,1506183.7990901675 L -6887795.643001395,1513527.1133931968 L -6878424.768266416,1519843.7556907404 L -6854573.788127523,1519754.3352875987 L -6847436.872933784,1521632.7978638036 L -6836804.971007101,1519955.617478549 L -6804865.850625639,1516746.7287614162 L -6799060.761819752,1515740.5653978528 L -6780971.344565845,1523947.5634411832 L -6759582.528924316,1535736.7499948204 L -6745439.276299539,1545013.0587051993 L -6735563.01107636,1550116.864001786 L -6730393.779201884,1558434.9986454938 L -6726186.681686333,1567103.0319617302 L -6724251.614977875,1576423.7660154726 L -6726822.649937235,1585691.7893914066 L -6730709.03599981,1589413.3703740847 L -6732008.1344573675,1595422.8311859693 L -6730393.779201884,1604417.1137373876 L -6723278.682628341,1612427.2044130994 L -6720658.778412522,1622302.8941907228 L -6716799.5543057,1639751.9057933462 L -6712440.283046235,1645278.808887278 L -6709597.517209848,1699432.6922849708 L -6723920.105534292,1699894.220191709 L -6744091.308585524,1700536.0847251215 L -6738220.986558031,1705704.8205867626 L -6721523.062939039,1725906.2067993197 L -6706145.9450783115,1744533.8911992824 L -6703705.3765621595,1774479.1874940854 L -6702172.618493427,1793371.1535535653 L -6700009.23550935,1820029.1197014784 L -6698715.591706842,1835934.539677764 L -6660373.374214952,1837372.7606569454 L -6616193.451306372,1839026.3284892575 L -6563093.831558998,1841019.8622420602 L -6516413.56156771,1842764.2898526485 L -6511809.721386972,1842582.9856265427 L -6503694.530508142,1840408.1437882928 L -6498318.800978245,1837588.002966541 L -6495003.038625476,1837678.576982587 L -6494443.212906277,1844123.5957214797 L -6495579.228309821,1852281.7251352028 L -6495535.813708413,1861633.0944621135 L -6508917.974974636,1880143.386673473 L -6509755.097545401,1886010.5361858213 L -6507716.726349486,1910437.35422154 L -6502993.329035636,1930205.4155619377 L -6500612.53908604,1948113.3955441352 L -6495242.264211192,1953691.3914396015 L -6479413.968454277,1963131.663085755 L -6455519.462394482,1980611.2129087076 L -6445958.342649739,1982879.7486707764 L -6437881.223036761,1980519.9302359007 L -6433027.247960211,1987634.3882471423 L -6432059.770265726,1999166.1206689316 L -6418867.742689779,2031388.3950643784 L -6410497.073579579,2051864.5393014424 L -6406665.011428511,2058991.8341337217 L -6400386.926106242,2062688.0777330971 L -6401555.558120591,2065343.4632193488 L -6406784.568561623,2066419.3344353114 L -6409110.9232802205,2070265.813295628 L -6416361.940952023,2093222.1139036901 L -6425917.606041716,2123549.9329660563 L -6432385.825054259,2144843.780121866 L -6426569.826938275,2145188.565890827 L -6426319.803361954,2151096.1679798705 L -6425004.45225874,2160121.951518111 L -6432201.034699542,2161237.571211855 L -6434310.093772112,2164469.6125265923 L -6442561.205749202,2181973.6006714157 L -6453377.898030601,2204945.0593386474 L -6464547.807056289,2228694.1699840343 L -6471168.311132238,2242791.5472985534 L -6459862.481008291,2253224.216338518 L -6441028.336360978,2270613.2389814625 L -6444017.932605721,2275448.928477401 L -6452095.0522187,2277855.749877374 L -6458884.09400371,2279568.4284187 L -6464058.669213745,2286108.2285455083 L -6466966.668271737,2290936.3301782464 L -6474315.535775945,2292545.977098791 L -6472108.626870969,2272892.0880155964 L -6474348.152386747,2255847.726814521 L -6476587.566583036,2251467.6820301637 L -6509320.283614363,2231152.69409944 L -6539030.787790142,2212738.920082348 L -6577927.376346183,2188664.016664773 L -6628059.218469008,2189320.5894354703 L -6679990.206202033,2190000.1840514964 L -6729442.554153055,2200761.1879854114 L -6778106.871428752,2211355.23827131 L -6801175.164227879,2216371.8273115386 L -6847464.034889539,2226466.7508437247 L -6874739.536523705,2231060.3799297316 L -6881870.885742905,2250473.994559782 L -6892562.566236145,2279591.5369703234 L -6903123.780286175,2296622.8976170225 L -6915348.330167638,2314528.016164703 L -6932568.008239977,2339787.187383367 L -6932589.826860173,2370523.803563071 L -6932606.079505829,2399752.033611619 L -6944716.415589739,2441039.937269929 L -6955000.444107693,2476176.3041427867 L -6964920.235251772,2510165.227517369 L -6971774.510258386,2533629.090156737 L -6974274.857341095,2539605.8504505637 L -6975867.393976384,2537715.211202291 L -6984694.695637817,2530729.5478522014 L -6992543.610294669,2517482.4303305475 L -6994679.7200035015,2511419.70072896 L -6995690.7236188855,2511196.9886702434 L -7042871.0407628175,2511595.5912869563 L -7088306.647527546,2512041.148811629 L -7092937.649664037,2514831.9417746575 L -7099465.758562627,2514796.756826351 L -7104259.84375313,2512181.8662492083 L -7108977.8977314215,2512392.9445867487 L -7115728.8682505805,2514960.913845879 L -7121789.435287838,2520239.0407868624 L -7139123.327157732,2555503.339765929 L -7147722.312543548,2570615.8897556 L -7154103.591033782,2584116.871772238 L -7158723.795179667,2607283.9042107514 L -7160658.861888126,2611187.5143195144 L -7166078.117338924,2603145.330147258 L -7174041.134473839,2581950.4027591916 L -7177628.5163841415,2569898.1833249517 L -7182737.9696920635,2556196.954351513 L -7191853.36619567,2539018.7459084755 L -7202381.963634898,2533816.992759436 L -7208899.1632233905,2532102.9848845843 L -7218297.08859463,2528816.345833792 L -7234946.142957163,2524697.2893985775 L -7242202.503964523,2523864.1545637446 L -7289741.603827281,2523312.7989794817 L -7293519.342066842,2522878.5995532777 L -7312152.332394293,2524767.700420776 L -7321599.238341482,2523488.692559115 L -7331519.029485562,2513893.8615002027 L -7353609.046599597,2497062.9440779546 L -7358060.713036421,2491733.5789101426 L -7366529.2319790255,2488208.8058087947 L -7371595.159366049,2487834.1276390874 L -7374649.877512906,2491183.1413868465 L -7378492.8489740705,2505218.467986595 L -7382982.586676747,2517904.721237344 L -7387738.711920887,2525190.1726982426 L -7403523.370437411,2530553.4588401294 L -7418221.105445829,2536200.3995443326 L -7426314.589023953,2537515.601314271 L -7430646.698327664,2543893.1033594566 L -7432521.875150078,2552764.5527491192 L -7436174.601601476,2560782.370568113 L -7457416.58683465,2572851.4957212727 L -7462140.095467989,2577959.4282115856 L -7464575.209329092,2589852.604437823 L -7476430.06718163,2604689.778772407 L -7480099.046278686,2610468.0471653137 L -7498732.036606137,2614513.994906292 L -7522963.618084054,2618926.7072861283 L -7537144.830655191,2618619.9066703497 L -7546841.871498192,2617451.7243265803 L -7549744.415901137,2614820.718762464 L -7556305.030091038,2610621.310233831 L -7557386.721583076,2605939.6410320266 L -7557479.116760435,2599302.5227289246 L -7555669.061840136,2587402.5637505283 L -7556560.508322409,2570862.8833338986 L -7564202.925323838,2551636.260189004 L -7563594.119028691,2545443.855507082 L -7564594.213333978,2536036.036589383 L -7568431.730140094,2518385.6364087705 L -7578270.035416912,2509461.855313992 L -7581058.477341793,2494802.202241965 L -7582210.7453909945,2481898.8764763954 L -7590478.221333229,2465789.3536314047 L -7591826.189047245,2445290.888588387 L -7591657.651338185,2427721.5516207707 L -7604664.888559415,2407349.231433895 L -7618204.789544092,2385708.068417009 L -7629151.948268703,2382774.965129927 L -7631869.702316929,2380191.3632571823 L -7633060.041631982,2373978.423095013 L -7633293.812562647,2364372.3107458544 L -7632418.730045523,2358536.6486026975 L -7623982.716394227,2349089.8408201803 L -7623640.297640545,2347626.1547392188 L -7625368.866693583,2345674.8366370387 L -7647181.586956053,2331522.227452976 L -7652676.873619063,2327437.550550864 L -7654389.078706955,2322402.565489414 L -7654242.359618089,2317867.597246689 L -7649018.803832106,2313229.513794601 L -7646377.080996091,2309798.0724699274 L -7651497.332294618,2299727.5348424492 L -7650991.830486925,2290623.7613710063 L -7654253.157608696,2286721.719675062 L -7653861.869598557,2283792.9120150153 L -7650709.1902998015,2281281.2646837058 L -7636538.775719272,2278353.314561314 L -7632141.433193956,2269132.6929616104 L -7631994.714105091,2261465.814474749 L -7634098.20720312,2256044.197144958 L -7647225.001557463,2242341.169225423 L -7647458.772488128,2240019.787248747 L -7633766.697759537,2220997.515867424 L -7623939.301792815,2208507.303640429 L -7621254.164355392,2205959.5043579526 L -7622064.013650914,2203262.147994101 L -7624493.672856967,2199954.473311272 L -7630711.979612679,2195137.901470999 L -7638805.463190805,2189896.509532334 L -7645496.543823915,2183493.474948338 L -7654225.995652943,2174042.5005450696 L -7665232.932944109,2165930.513958445 L -7673364.487788085,2157902.442755025 L -7677517.261392128,2151165.146595612 L -7677604.201914439,2144303.6671202597 L -7678691.236742035,2132930.6067388314 L -7684029.006325572,2114506.426009679 L -7685431.297951095,2102038.180752389 L -7687741.400024038,2088294.1819771514 L -7690056.956752026,2079335.2865973674 L -7691317.983943734,2070632.1769619733 L -7695111.97482895,2061257.568623914 L -7697237.286547176,2054415.4319163428 L -7694187.911735875,2049576.8891961644 L -7691111.486288312,2045825.8680324012 L -7691502.774298451,2043458.923176347 L -7712473.028654597,2033434.0067259548 L -7715930.055441182,2030897.061795719 L -7720898.1329957945,2010841.3063970513 L -7736150.239068362,1993062.9653950268 L -7737922.11140332,1979813.2615654718 z" /></g>
</svg>
