<?xml version="1.0" encoding="UTF-8"?>
<svg xmlns="http://www.w3.org/2000/svg" viewBox="-8237870.63497786 -586136.5877726828 4363343.549076792 4580373.072495915">
  <g id="map"><g><path fill-rule="evenodd" fill="currentColor"    d="M -7444605.049278232,-136159.31004371116 L -7415997.9438951975,-110449.92809490481 L -7394870.061140087,-91472.13468324844 L -7385727.502680726,-85405.41828427947 L -7380667.029948754,-83709.42812529813 L -7368371.903510128,-84970.56556947938 L -7353772.1296536075,-87427.72244798834 L -7346678.74038077,-90145.73984390966 L -7338835.2803789675,-96087.38310924558 L -7326083.521389107,-104339.51414922677 L -7315707.0976937935,-108878.75522539037 L -7311625.0119664045,-109482.19526594192 L -7307532.1282484075,-108025.25663878131 L -7298775.514463628,-103094.57501900523 L -7293986.772608683,-93891.13996278023 L -7298405.822434703,-83214.79328134835 L -7297666.6610158365,-76588.31431967259 L -7288464.323989919,-76952.57807878587 L -7281099.203840055,-87998.5114475207 L -7275935.426620626,-96701.60288074877 L -7265151.350950029,-103741.53761703367 L -7254649.915466554,-113798.7131618107 L -7247317.411927491,-123361.37490703657 L -7238723.769877233,-128966.51729191061 L -7225760.058576902,-135789.64534513903 L -7215503.303334192,-139954.18979876922 L -7205882.405022892,-139530.07208431745 L -7198745.601148645,-144042.7432982006 L -7189499.738201828,-152508.095215249 L -7183031.519189285,-159315.42330208124 L -7178552.579477218,-161740.39571628807 L -7169545.942116114,-161082.5095510453 L -7158310.688549331,-162017.67052904508 L -7147271.134647363,-170282.49585334517 L -7137231.786370171,-180282.20548599964 L -7131910.38075178,-197123.4231625848 L -7128393.57539864,-212040.67298804602 L -7125393.181163288,-215064.58004491183 L -7121751.364021986,-217452.0850603458 L -7117451.8713290775,-219007.5718027111 L -7107135.22620032,-220089.90419638655 L -7089062.17291156,-228047.03154193715 L -7076609.418073971,-236107.77753833286 L -7064770.812867087,-237837.42840593422 L -7061275.826134142,-240013.13503443945 L -7056981.676776791,-247470.74970077598 L -7054856.476378056,-260607.9599585671 L -7056459.922323442,-268572.3710849737 L -7078207.409364308,-271026.0425209651 L -7092448.511821493,-271036.85026214144 L -7116006.053782654,-273087.88395978586 L -7127219.488729242,-276368.6161366688 L -7129632.895289642,-278653.71752235404 L -7129882.918865963,-281183.6610703523 L -7127643.504669675,-286863.91092524 L -7125452.959729845,-297539.6241857395 L -7128654.508285059,-311987.45247506094 L -7140427.880270337,-334655.49166207726 L -7148809.458690635,-356930.2785716475 L -7149912.857483377,-372463.224314358 L -7149722.612473613,-388880.5475448787 L -7149059.482266956,-399608.94440948515 L -7155092.887348462,-408007.3270697892 L -7187667.975980824,-434459.8950485796 L -7198919.482193264,-446958.6822294283 L -7202659.149166974,-455606.5430094715 L -7215492.394024093,-471563.72950070584 L -7212241.976212421,-476447.41279486567 L -7204849.694106804,-476267.57669560896 L -7198533.537518683,-472103.3210315216 L -7192761.065323597,-463241.45121853147 L -7188608.291719555,-461252.3027221776 L -7182949.922002533,-461263.1289617028 L -7152907.79706368,-461301.29983741784 L -7145874.186357398,-459797.1342575067 L -7141623.674240438,-456816.2228499604 L -7137998.221064283,-453116.14280568913 L -7132617.036879337,-442784.9785832063 L -7126838.998709711,-437728.84838184796 L -7114946.069591321,-437903.1392419211 L -7096280.573972558,-438115.5915385103 L -7085811.755099886,-439036.3725461951 L -7079544.5790877165,-436159.687411915 L -7071771.806962567,-433778.82633529644 L -7055405.3927871585,-439265.23022165004 L -7050828.714562175,-439379.6034792386 L -7045936.779539265,-436966.0786475839 L -7028292.974207002,-418465.44207997655 L -7018172.02874306,-410659.95800446585 L -7009638.276578847,-400338.7404744324 L -6997207.229041964,-400284.30953130533 L -6986923.311843498,-409151.1399984907 L -6984178.284520027,-438981.91990108014 L -6981080.040452268,-447639.8480402323 L -6975872.848631431,-450064.5897775859 L -6969687.2698060125,-450358.8708813847 L -6962360.109602509,-455050.64709784667 L -6954413.456432739,-461099.61940292915 L -6947521.221479765,-463132.4051621585 L -6918854.226210682,-456620.1328469686 L -6910891.209075767,-459737.20031214715 L -6881865.542407346,-467628.63050357054 L -6852187.543522879,-477761.0873482224 L -6843854.945678528,-490538.6630473245 L -6831402.079521448,-493973.2771511962 L -6821667.078732087,-503340.09048369277 L -6813801.9114295775,-502353.189653387 L -6801892.618346041,-501976.879645332 L -6794527.498196177,-503612.6684028687 L -6790804.195187614,-505390.1982340408 L -6786749.271415979,-509796.0015424349 L -6780052.736127818,-522316.79225985555 L -6771942.888584548,-527050.819306714 L -6761740.457253343,-532068.759746821 L -6754772.079768666,-537987.1170518862 L -6749032.224184383,-545296.9194489827 L -6746390.501348367,-551647.2817156003 L -6746461.189225022,-556699.6034345652 L -6749858.437445052,-566466.8889306963 L -6753973.139783244,-575673.3897683534 L -6758424.806220066,-578713.4632455532 L -6761783.983174243,-579886.9188025207 L -6751679.290355957,-582021.0529695678 L -6743335.783201509,-578817.0815576363 L -6730323.091325231,-578325.9298727303 L -6724675.630918306,-580792.9006886096 L -6716484.297507774,-579581.2014538696 L -6706069.802546609,-586136.5877726828 L -6699400.429214202,-583996.8505426083 L -6694981.3793881815,-583996.8505426083 L -6690964.526882396,-579013.587901258 L -6687860.82815959,-573397.611651376 L -6678131.282025277,-566565.1249986838 L -6679098.759719761,-556170.3867614286 L -6680892.561994404,-546971.8313082224 L -6682148.13453106,-536377.8690630787 L -6682707.960250259,-528316.1646879215 L -6686844.369889157,-520064.42431497143 L -6693035.514689115,-512358.87839430117 L -6694856.367600021,-509228.9165437776 L -6695715.197471491,-505166.6369225746 L -6691540.716566743,-502702.1433715636 L -6684181.051071928,-501966.0481961473 L -6674978.71404601,-501644.343647436 L -6668716.99268889,-499256.22125153686 L -6660618.054455716,-498765.58560423244 L -6650872.1443562545,-492146.86914583034 L -6646137.726412817,-488178.2158241093 L -6645740.983747629,-485098.1904027437 L -6648833.773160339,-477744.6774547574 L -6650067.638396291,-470947.9027366896 L -6647654.343155384,-466642.26056225674 L -6644795.213353851,-463541.1332468045 L -6636891.974785491,-448222.92734482436 L -6633130.600511077,-442893.9999755531 L -6629939.96126596,-441177.68123674544 L -6629200.688527602,-438224.6074274191 L -6631902.189930174,-432634.722344925 L -6635136.2437766995,-425519.92003097764 L -6642457.949325155,-418051.4468838657 L -6643436.336329736,-412146.93476893124 L -6649295.860366622,-408437.67761512176 L -6662960.773139458,-399619.87513881753 L -6660585.4378449125,-385640.4190767277 L -6660112.552648024,-378550.69038853224 L -6660373.374214952,-373045.8622487837 L -6665037.104281736,-365673.74069507525 L -6673119.678549763,-343903.5148735564 L -6676087.456174311,-333049.8486343276 L -6678712.81504518,-307965.85517132917 L -6678538.934000561,-299558.3863126441 L -6674804.7216819,-288235.08956565935 L -6666885.119148394,-263115.76249661477 L -6662373.674145016,-259117.3801845001 L -6651921.2192374915,-253220.48633942052 L -6650616.666124884,-236232.87503690398 L -6651535.27456291,-218496.31479267607 L -6652029.867060505,-211616.5345589047 L -6650306.863982008,-208668.86504369383 L -6645610.51730442,-207254.9128418112 L -6642267.704315389,-205123.0329672929 L -6641740.495206992,-199875.1259110647 L -6642055.752004919,-194426.10623844288 L -6634266.615914623,-191277.55416551267 L -6627483.0287846625,-189270.90698162137 L -6621221.30742754,-181744.97589204786 L -6609893.7700028885,-170043.29648441434 L -6605393.1229901165,-167911.78227358757 L -6603137.344828682,-163056.28457097762 L -6593587.134394036,-153193.12938700043 L -6579025.431803369,-149588.3682544389 L -6564344.060760098,-145238.84476563678 L -6558566.133909963,-139035.3616519118 L -6552543.526819066,-133995.44187563471 L -6548010.26319549,-133729.10700646992 L -6544161.948398768,-134539.13539654834 L -6537829.539164992,-138883.15179078444 L -6532741.904477267,-142618.2734480309 L -6523887.440860079,-142406.1568796664 L -6513511.017164767,-143020.5716040021 L -6511711.871554566,-146092.44254698473 L -6510728.029894935,-150045.12678236992 L -6512864.250923258,-160169.06617983957 L -6509178.907861055,-163241.13538353503 L -6500590.831785336,-164964.7087956169 L -6498873.172042395,-170364.12213597627 L -6496905.488723134,-173311.1503983047 L -6494454.122216375,-176747.76352268027 L -6491508.051892531,-177237.08970892403 L -6487828.163485378,-175274.11175476343 L -6482180.7030784525,-174045.24055671823 L -6475799.424588219,-172327.0589231257 L -6472364.105102339,-168890.51032147591 L -6466694.937394709,-168596.85808316775 L -6460389.690116689,-169254.87567454312 L -6457840.473777522,-171446.09061849822 L -6455986.892936323,-175274.11175476343 L -6454617.106602113,-183528.599856348 L -6450556.839494918,-183767.81324941025 L -6442441.537296598,-185627.51689870007 L -6433782.773344224,-189270.90698162137 L -6422216.010333859,-189803.80595591865 L -6411383.065406803,-189727.74108929196 L -6405963.809956005,-192174.74918311293 L -6400919.589869689,-197493.18072691603 L -6391151.972469524,-212541.10853238456 L -6386042.630481094,-216016.3483006152 L -6380552.687153643,-218616.0535089275 L -6375889.068406348,-218142.89110499687 L -6366317.150670998,-220633.80172644876 L -6358446.417393951,-224239.73941313068 L -6355527.620345351,-223331.48151440753 L -6349396.365431439,-215608.4629439287 L -6346330.7379744835,-213911.5490087773 L -6341819.181651614,-213373.12868156255 L -6327034.617440377,-209457.43046805135 L -6319191.157438573,-210675.59213702416 L -6310684.567230116,-213139.33845030947 L -6302514.941120288,-214069.26613276982 L -6296628.255127649,-212350.75797884568 L -6292388.541001296,-214580.51109994913 L -6287637.870412203,-216239.33788307 L -6284300.51207822,-215146.11225773813 L -6276842.996750997,-214205.2638426234 L -6259177.48411803,-209914.30980885687 L -6236109.191318904,-205112.11801532898 L -6229809.39869593,-206765.40596812376 L -6226058.933731615,-210153.5537350823 L -6225167.487249342,-220084.4462935908 L -6224466.285776835,-227089.74283503188 L -6229657.224952016,-233279.35057672384 L -6236125.44396456,-240301.4341259663 L -6242088.272488901,-249059.1455397604 L -6249219.6217081,-251539.58277842886 L -6248295.669934516,-256049.25237468284 L -6243664.556478534,-260705.89151342644 L -6238913.88588944,-263278.98442301253 L -6236158.060575362,-266439.73035895504 L -6233168.575650108,-278109.62661475135 L -6231173.7303750925,-280166.21844955767 L -6229157.177799373,-280666.74896188476 L -6226760.023884631,-280236.97455038974 L -6222063.788526534,-277217.335273778 L -6203898.228740926,-267930.380797848 L -6195924.413615403,-269334.0277889437 L -6165469.182046216,-271771.33280615584 L -6160865.230545988,-277135.772449905 L -6154413.2641791,-278348.9684234191 L -6143466.10545449,-283680.99995027593 L -6139139.450805828,-284045.48668638564 L -6135274.772043958,-282756.02568814467 L -6130399.089666703,-283773.4865611287 L -6123218.871191046,-288746.56879085954 L -6120196.658335499,-289268.8589690374 L -6119055.188276906,-283773.4865611287 L -6114396.912865169,-278093.2470918782 L -6108776.614414,-272859.46997047146 L -6106058.860365773,-271651.6671705962 L -6096617.409073631,-273343.5966216435 L -6091649.331519018,-271885.53892553237 L -6089502.3125000885,-267016.4239483673 L -6088888.051549892,-262767.59343373467 L -6084930.977610663,-259171.74894134546 L -6079854.252233036,-259084.73665715673 L -6077147.296175416,-257637.7327656722 L -6072532.54668458,-255331.1102630198 L -6068591.836710498,-250027.36381238874 L -6059465.530896793,-245800.82279660623 L -6043876.460725595,-239866.31211518572 L -6036631.009028332,-239762.93459727583 L -6029885.493164224,-237951.72165832165 L -6025732.71956018,-236167.59707885777 L -6021242.981857506,-239447.45531965757 L -6005289.785631922,-248591.24784500498 L -5997516.902187281,-253682.82702145175 L -5992277.093755642,-257545.15081583438 L -5988347.181772168,-261228.0827644887 L -5985401.111448323,-262212.75283192826 L -5983438.8827841105,-260004.1057655984 L -5981721.334360661,-257055.61490876586 L -5976041.146023443,-255314.8445933702 L -5962713.308668728,-251860.54398966188 L -5956592.851745423,-250881.39704386645 L -5948004.775669703,-253813.3967275026 L -5940677.7267856905,-258801.86350792824 L -5937160.921432548,-260531.7538764503 L -5931714.504025997,-255570.52774327868 L -5928007.453663091,-248558.60646050904 L -5925512.561235432,-245507.0555460265 L -5919979.203306571,-246225.0427874865 L -5909091.823148517,-245153.46607579157 L -5901014.703535538,-242928.67697204524 L -5896019.464025171,-243129.97733520257 L -5889187.0076387515,-246246.76626693652 L -5885507.119231598,-252388.16505472016 L -5875820.987698695,-258018.4222922894 L -5866607.852682171,-263197.42914542236 L -5861324.518329632,-270111.9555529225 L -5853513.67493863,-281607.9783169959 L -5850893.77072281,-286537.52667599235 L -5850361.106959365,-294840.6698560893 L -5839359.513003756,-318969.70612007607 L -5835190.486754058,-323394.3601291705 L -5832739.120247299,-331014.17684217234 L -5828314.61576623,-339859.0403748196 L -5828314.61576623,-347234.95901227026 L -5825113.067211015,-354371.6349334474 L -5818807.819932993,-360545.18948984554 L -5814154.999176308,-364399.8319720848 L -5806713.847814231,-374771.8269176543 L -5801539.161284705,-384540.47314095264 L -5788559.197338719,-406242.66380632564 L -5787569.901024039,-412392.014779943 L -5782417.033114709,-416085.02157977823 L -5780699.373371769,-420753.324449597 L -5775198.63205371,-426511.312382895 L -5769409.795893478,-431087.51506904623 L -5766936.6107665235,-437821.4612822184 L -5762686.098649565,-444822.8184667915 L -5753375.002481143,-450070.05801842094 L -5749934.339659704,-452478.57127993053 L -5739389.378255329,-471732.72822334594 L -5738193.584285228,-480339.377644799 L -5728670.535806336,-480660.9996174165 L -5713706.635895432,-470724.4336046881 L -5701775.63551119,-456086.1050569428 L -5685784.368019755,-409009.5849073353 L -5683126.392538085,-365532.2441193501 L -5676641.809560395,-342754.9281101112 L -5658057.688489402,-295308.60070968955 L -5656867.34917435,-286526.6063555958 L -5653883.207584654,-275911.5555536387 L -5648012.885557163,-264655.4033545421 L -5641533.75723452,-246116.31403067638 L -5641289.076993757,-242673.01360543494 L -5645501.629164357,-237614.41196753323 L -5639326.959649035,-237271.755907623 L -5633733.711834127,-234280.22814819132 L -5630081.096702218,-222526.48409313298 L -5625466.347211383,-214580.51109994913 L -5617057.606835331,-203703.64873046594 L -5599848.726753599,-200146.99040609482 L -5586857.853497515,-198847.25642066705 L -5572062.37997618,-192691.39535646501 L -5561202.161773881,-184800.95525704476 L -5552793.4213978285,-158081.1761049844 L -5555538.337401809,-141280.7725493793 L -5554717.57879619,-129472.1228465538 L -5559065.940745558,-124845.65597215312 L -5571230.712060465,-117109.451910799 L -5573877.778232038,-113004.99107205923 L -5598750.782615906,-93037.67311890122 L -5604186.290712359,-83606.1147515543 L -5617514.128067075,-70945.93103210653 L -5630711.610298071,-46811.156680249456 L -5650029.438132882,-24775.216854870283 L -5656850.985209203,-19209.209051255853 L -5667292.642126122,-17920.903124633172 L -5673630.506014945,-14501.93651917658 L -5688643.386501798,3478.734259764259 L -5708787.427597277,9484.980709030846 L -5710641.008438475,19904.959139769166 L -5722283.802661054,43712.834568997474 L -5732540.669223255,56715.02232209061 L -5739079.576112452,61128.80591636091 L -5755511.223509465,84861.90811724092 L -5757614.716607495,95233.91190856976 L -5757511.41212004,113380.08549769639 L -5768480.389464845,124437.81481428827 L -5779889.524076248,131461.92969085363 L -5781319.088977015,146989.46907202454 L -5786477.411541394,152296.08239535108 L -5790891.006712366,155754.0059380164 L -5814133.291875602,151687.10322937285 L -5850219.731206058,168564.34143712503 L -5862547.474255486,172762.03197056724 L -5823156.293201851,173631.98047738674 L -5810507.838699447,182604.1561079944 L -5782775.815833535,176655.33288520866 L -5749238.592842246,155232.09642731372 L -5736427.05528583,150751.97938102932 L -5710396.328197712,136213.64633912963 L -5699818.861502025,126525.45922741345 L -5680517.286312872,114902.28929425341 L -5676408.038629728,109802.95410668408 L -5665596.801003376,104377.59051126581 L -5659737.27696649,111281.61031785894 L -5659280.755734747,115652.48253733391 L -5668151.471997591,124155.12095516946 L -5665846.824579698,129635.23954441362 L -5659992.755197861,136518.1747352282 L -5657872.898134685,146000.0231464367 L -5657106.463440574,153220.41053082558 L -5653486.4649194665,165878.169717814 L -5641555.464535226,183017.4324368543 L -5641147.812559941,188683.66163739839 L -5642789.329771178,196144.5711659811 L -5637082.090797698,202311.450197544 L -5631162.788194257,205965.93638010777 L -5610861.118699814,224413.7280154268 L -5594967.589721296,214101.90111897094 L -5585199.97232113,211121.5590664284 L -5578954.614929155,206814.4122896679 L -5565887.599141369,203953.79998919688 L -5555174.211347424,208271.79905681306 L -5534752.87340038,214482.60591141053 L -5519816.135445229,207891.2179131394 L -5489572.856186512,192805.54994108167 L -5499030.6714437995,219518.83021937835 L -5505879.380475874,244016.6152994675 L -5511092.02695176,253905.86509898983 L -5516255.804171189,280606.9125208338 L -5521370.600814667,287734.5326053848 L -5525512.465108612,295874.59969014453 L -5518761.605908945,293034.15290343016 L -5512978.224403761,289181.82904381334 L -5505585.942298144,278898.52009260526 L -5500036.220404136,261043.13750867316 L -5478147.357609963,213384.04409716782 L -5471885.636252842,209152.91909076396 L -5453687.571175921,203725.3671042644 L -5422373.509735263,165628.06170868952 L -5410127.252553096,165747.77054145883 L -5402289.247206341,174512.84560723286 L -5394869.691825478,179689.52725248065 L -5392967.353047313,169271.13404362358 L -5382275.672554073,165008.2492795293 L -5393592.411988117,159853.71016825063 L -5395440.426854775,155177.7564313724 L -5396516.663691765,147380.9726214766 L -5388820.034098319,136844.3043937118 L -5393407.621633399,127525.86321997266 L -5377454.314088325,115761.25957676044 L -5378688.179324278,106932.61203881315 L -5372997.1929964535,99648.02223779965 L -5365795.1559006,92167.95359785989 L -5357636.439100871,88525.77103626818 L -5356147.095633548,82100.3916022304 L -5350999.682379267,79447.65804528797 L -5346961.011253286,78490.90501235185 L -5338987.196127765,85677.28492963786 L -5330355.482811654,77186.25474826002 L -5321925.035134898,73859.57248818633 L -5318147.296895337,75338.10777252725 L -5313445.606882192,79088.84761759621 L -5308504.691283333,80687.07559055163 L -5304493.293432598,80012.98258682257 L -5294057.091170728,74577.07518070102 L -5284414.485558724,83328.90548419738 L -5278620.194743443,85264.14120677186 L -5280207.388043174,80360.88348823666 L -5283262.217509523,75805.57112585082 L -5280892.336870025,72098.27152996002 L -5276331.911290698,69760.862961121 L -5261916.927788895,71848.23203482923 L -5254339.744009068,75751.24338019083 L -5246142.955943488,82981.00250987567 L -5234755.52863279,83513.71164491435 L -5225819.579148341,82752.66696402089 L -5220177.462076975,86818.85935412433 L -5211002.287006812,86797.1500428719 L -5206403.901481123,93124.62289960701 L -5192434.641220457,102018.19904940417 L -5189406.973709861,108052.42249138375 L -5178171.831462569,110977.21663222513 L -5167643.23402334,114673.9360422144 L -5156413.4351116065,115685.1045118485 L -5145091.241022513,114804.42359679237 L -5144629.15381623,122437.25160111113 L -5136323.717927635,124503.06045806034 L -5125664.654045197,122795.98928181051 L -5117609.241732923,132190.44869791105 L -5096073.707002529,139247.36439950299 L -5081153.1103735445,150056.03911155037 L -5071374.694982772,148142.15688084843 L -5060427.536258161,150991.1605467677 L -5048675.871573588,174502.04357477516 L -5046017.896091917,191195.92029847665 L -5040783.542315326,188890.24975627256 L -5035935.021893825,181418.67759501046 L -5029646.13858095,167781.27065196796 L -5017878.22125072,163257.39335312357 L -5012247.013489452,168499.08544150056 L -5000446.47954842,176894.53899675634 L -4990271.210172971,186116.9738257826 L -4985982.626790159,192033.4206694884 L -4978334.866453171,193001.33911877128 L -4984721.599598453,200277.52113260017 L -4978313.047832975,199548.79989699292 L -4970556.639672972,194371.75709243477 L -4963919.771631878,205063.22349298224 L -4958924.532121511,216701.57986733687 L -4957924.437816224,228558.20398060078 L -4962626.127829369,235367.99979508593 L -4966773.446778363,239632.37601159906 L -4971377.398278591,248030.9978165077 L -4976818.361030094,249543.19825527875 L -4982253.869126548,252263.0554274255 L -4976051.926335982,258377.4990324391 L -4971795.848244484,264263.66752639547 L -4962512.0253513055,248357.41090310938 L -4955983.916452716,243886.053414047 L -4946531.555850477,241405.61973475709 L -4941617.913526862,252720.0458275849 L -4940563.383990577,263404.102780873 L -4955956.754496963,267854.2825109507 L -4956016.533063518,276297.86190688063 L -4960620.4845637465,281085.7161683613 L -4963626.333454146,286570.176210348 L -4966050.538005152,298094.599701025 L -4969186.853338761,307639.3091801884 L -4978362.028408924,349973.0503760781 L -4978546.818763642,356941.2049690287 L -4967371.343763413,349483.17703205097 L -4946765.326781143,327917.26025447913 L -4940487.241458875,304951.07492652367 L -4932361.141269947,282304.40507002606 L -4923506.6776527595,275187.9720447178 L -4918027.754954896,275177.0525794165 L -4909809.14826912,277658.02044087194 L -4909341.717727279,285079.3370222454 L -4910597.290263936,289366.8094870266 L -4919386.63197901,300630.35393499024 L -4923126.1876332285,306801.21530511475 L -4919506.189112122,312885.3184689733 L -4899530.574406214,294231.32574378507 L -4890589.170266717,287690.96239280625 L -4882968.5718854815,289018.5784329023 L -4867846.932256123,280411.0235624246 L -4837402.609997034,278615.6099220192 L -4835119.669879844,268768.24440026534 L -4829048.193532489,264579.19528254436 L -4812306.743992598,265689.0069185345 L -4779693.695413874,274491.57918616006 L -4768067.042517462,281684.1950971917 L -4750657.119435357,288376.4983425154 L -4741492.853675292,296331.61296970583 L -4703204.960094908,310926.2042340679 L -4675402.360671834,312493.5601400506 L -4661634.14341154,305865.2757677889 L -4644457.87994061,312809.19577679265 L -4635358.847402151,320580.62924079626 L -4617524.908379613,324804.0357175487 L -4599522.431648016,327002.7912491716 L -4585754.214387722,321418.8122185751 L -4550249.419396661,319579.27533822774 L -4505607.520601289,311328.88016740547 L -4478978.896528121,313288.11190379894 L -4448849.719747468,318675.7898030974 L -4427379.418238678,332532.73441115936 L -4409300.910294869,340381.64832783403 L -4398364.660880356,348111.3419426701 L -4380720.966867586,356113.70056726015 L -4343058.132228007,377619.53903730324 L -4329882.4686172055,390056.8238044446 L -4306531.424311464,407005.19083950255 L -4283104.34879351,414118.63576914417 L -4270428.732335352,431855.70415925706 L -4260405.636703817,439842.7887193357 L -4235576.15824085,469792.38824683696 L -4207392.957478753,490767.65522311494 L -4188542.560185783,511737.2763108475 L -4152380.089643116,525251.0217822125 L -4138263.9989740937,547517.2946777992 L -4113798.7578850025,550234.280264622 L -4103362.555623133,553573.3022925418 L -4090697.7371555823,562969.1462299306 L -4073260.652117723,568207.7771045279 L -4050551.030717932,566723.3758747629 L -4025509.599944495,567782.0787208151 L -4005262.2543615606,563383.8643060786 L -3957342.6644792706,571765.9053536096 L -3949803.5519652967,575859.0453368027 L -3939883.7608212167,585345.1199245495 L -3922392.2405523607,620659.3227015102 L -3911961.4929455398,659872.3895677408 L -3906808.6250362103,689891.5653449694 L -3894866.826661362,713230.8177872332 L -3888344.1724178204,757080.8967963521 L -3882810.8144889595,770887.6856580398 L -3882376.000557921,781510.8307786476 L -3877690.5631904313,783920.449809485 L -3874527.0859010685,813535.6343411846 L -3875766.4057920706,825482.9846127513 L -3880348.538672103,841029.9139663872 L -3880690.957425783,847960.753609409 L -3880016.91790903,852369.7024050527 L -3882044.379794848,858863.4111340926 L -3882669.4387356522,865083.6576505533 L -3878027.527289063,879052.0101655961 L -3877777.503712741,890258.2798714305 L -3883995.6991489623,903828.1022870863 L -3892469.6727466197,939308.7105824449 L -3913744.385910085,998196.1068335017 L -3934127.541271787,1032026.8959969261 L -3962647.7061325153,1066999.821794299 L -3981226.372548458,1085281.1732120023 L -3988591.4926983225,1087145.096918198 L -3995347.806553039,1083527.6734421807 L -3990553.721362536,1093178.634019236 L -3994749.9095679885,1101673.5159091202 L -4013622.0141616627,1127457.0160989475 L -4032385.470932323,1144343.209163711 L -4051844.6745204404,1173650.4939592523 L -4053323.108677666,1174313.7944998955 L -4078272.144273746,1185636.790852115 L -4093029.657848719,1194894.8379891436 L -4111896.307787345,1211746.9212602323 L -4129213.8356920914,1238320.1649323187 L -4132790.419611788,1241743.0285525683 L -4139171.698102022,1239870.936168581 L -4138992.362402354,1253376.6725045827 L -4153902.049721242,1274771.2525414461 L -4158451.565990472,1277942.7546425199 L -4158326.554202311,1271877.098259709 L -4155739.2665972942,1267264.8573813108 L -4154532.563317096,1262354.0649046996 L -4154641.2111401088,1256512.9533036156 L -4158810.348709299,1260757.8561600929 L -4167632.1957156844,1276789.4451128512 L -4164664.306771645,1288546.5994796462 L -4171067.4038820737,1306312.406214097 L -4195489.230369757,1357091.1691579984 L -4225389.979555302,1399870.4084357743 L -4232282.214508277,1413078.293783279 L -4256829.052784119,1441942.389545016 L -4274864.14612652,1455872.2205545078 L -4279935.416849097,1455972.630763461 L -4285680.838407921,1454779.040201879 L -4288572.473500766,1432589.0951075708 L -4302944.042401159,1419160.750947175 L -4307058.744739351,1416798.914193931 L -4312950.774067549,1431017.4395166957 L -4317859.073055605,1434918.7725401903 L -4324957.916983493,1435765.9953911558 L -4317369.93521306,1441964.7681305455 L -4315157.682972525,1449135.1505409603 L -4322886.929176775,1463492.411588694 L -4323126.15476249,1476550.8758428055 L -4336916.079323488,1490944.541635819 L -4344900.803759107,1501479.3174639433 L -4348961.182185792,1514678.576034206 L -4351407.094037502,1527011.8534716542 L -4345346.527000244,1523645.5964584611 L -4342471.144553053,1526240.079730882 L -4340193.659090914,1530087.599614748 L -4341596.0620359285,1535759.2041606375 L -4346036.819162653,1546479.081199197 L -4345346.527000244,1573185.8574827309 L -4346819.617821911,1579258.7256895977 L -4342405.91133145,1585826.3089737152 L -4337731.383274058,1574608.68927797 L -4335040.791181584,1577734.7835825265 L -4348091.443004224,1649447.1878289978 L -4342949.484404992,1681784.570715114 L -4341036.124997239,1718468.186739119 L -4335138.641013992,1754327.0665142713 L -4328686.674647105,1786431.7623644827 L -4328170.263529315,1789008.4044365431 L -4337095.4150231555,1826333.3011122367 L -4348499.09497951,1863209.1398298952 L -4355380.531941877,1893320.9327595227 L -4359712.641245588,1925895.6879586666 L -4364044.750549299,1941569.7303130191 L -4365419.880219068,1957619.5419498917 L -4360451.802664456,1995697.9945767426 L -4358603.787797797,2002920.1738394464 L -4372448.036270302,2019930.2199051578 L -4387390.340199993,2028189.1458892552 L -4395646.90683213,2036394.130244002 L -4413904.750475607,2067106.2151519568 L -4423813.743629079,2112578.925842315 L -4424052.8578953035,2136812.803068099 L -4419367.531847305,2187673.597586569 L -4422884.225880955,2208449.572437474 L -4428656.809395531,2222370.4368770556 L -4435494.720436999,2231510.489626785 L -4452931.805474858,2242491.254632485 L -4468553.492256859,2269271.5039695133 L -4475347.877377426,2297457.012953944 L -4486050.467180764,2307734.8390405304 L -4488241.012120594,2323539.334163043 L -4496856.250152066,2340611.6191195142 L -4519190.836187375,2366116.3296516826 L -4533714.578831684,2373547.9290948026 L -4540639.43039546,2380680.169242295 L -4545036.772920777,2395616.894762458 L -4559038.649792245,2420267.258380591 L -4569360.749576052,2452276.7679108307 L -4566675.612138626,2463193.530538904 L -4566501.619774517,2464865.5647981437 L -4562745.700155152,2501960.5431243293 L -4564131.739135019,2511407.934735995 L -4577736.8733413005,2521658.47938414 L -4628988.366902524,2540803.813996689 L -4642637.027029705,2548745.409223276 L -4673238.977687758,2581385.199546932 L -4675146.882440465,2589098.7257312625 L -4673874.94593866,2600104.059735135 L -4668841.635162442,2606434.8068600525 L -4674027.119682574,2613298.873866087 L -4680136.667295781,2625618.903223666 L -4689050.909479525,2624863.3848399194 L -4740101.360040376,2624887.077366579 L -4767735.533073879,2628794.8798018214 L -4782096.192664174,2628039.214670337 L -4788542.704376013,2625075.8935245173 L -4795771.9034276195,2620236.625622467 L -4797946.195721794,2613900.564380017 L -4794021.738393367,2604312.4964412274 L -4796342.638456916,2598595.401704271 L -4803914.367581693,2598819.2778442316 L -4812230.712780386,2601530.2908118903 L -4813671.07567176,2607260.2370815305 L -4813078.6333417585,2611329.0683877473 L -4809985.84392905,2617286.5567260473 L -4808290.002806304,2624591.8902739873 L -4811692.594361892,2630955.7913089735 L -4827868.652208043,2631782.4569818843 L -4846050.5759588,2637629.3253004868 L -4868727.469428298,2640075.0124144964 L -4886795.1793815,2644293.733558496 L -4895144.141190995,2638952.4793019667 L -4886795.1793815,2636282.5696481927 L -4874837.017041505,2637582.024262422 L -4861987.5195387285,2633164.276897942 L -4864987.91377408,2627944.789211103 L -4883158.816895247,2621204.388993379 L -4903340.929256577,2625335.670404033 L -4914532.656902459,2633353.188729218 L -4939014.261956698,2632620.895455649 L -4968996.608328995,2638728.0545549057 L -4973883.088696857,2644955.628646384 L -4973067.784746287,2657027.573173336 L -4967197.462718794,2659677.274627873 L -4961473.859780168,2665190.8934120047 L -4966974.601098226,2670327.7032825015 L -4972328.512007928,2672600.721362658 L -5003995.901512363,2678213.6019361215 L -5033358.643598906,2701776.0386236543 L -5045599.446126025,2704705.975134113 L -5056497.624274686,2715113.4853333435 L -5057622.730368134,2724007.2876532623 L -5061063.5045090625,2729365.0206477745 L -5068053.589294445,2729638.2902069227 L -5083365.362614078,2724779.395832788 L -5103237.672832531,2724636.8424644824 L -5117587.423112728,2728509.5933708022 L -5190912.681142331,2766860.7579953996 L -5217242.301063228,2782232.261656987 L -5247289.88065713,2813618.4776497316 L -5297938.022578254,2848876.030548717 L -5324539.484695669,2869964.2418946335 L -5329594.614092082,2875432.768632726 L -5333796.256952584,2875732.58726517 L -5342128.854796932,2880135.3626434193 L -5338813.203763655,2883783.367877985 L -5333133.126745928,2884119.3610615134 L -5335475.845429673,2896426.0134909526 L -5346047.85747031,2904848.346685249 L -5365903.803723615,2926990.1119746 L -5370322.964869126,2925365.2925152006 L -5364033.970236761,2913852.569503284 L -5373779.88033622,2913419.7393573653 L -5388140.539926516,2909199.472108261 L -5394375.099327884,2913960.809786958 L -5390939.891161494,2925365.2925152006 L -5396337.3279920975,2930252.2417600765 L -5406137.562003065,2930806.0059699146 L -5415024.642231055,2929457.6286689797 L -5424792.259631219,2921105.6674382756 L -5420389.4624508545,2936236.6284585767 L -5399777.990813536,2939910.328586498 L -5391189.914737816,2943476.4842259567 L -5387993.82083765,2949297.4845824447 L -5404023.159594937,2976299.4051890667 L -5417448.84678206,2979814.029343103 L -5418921.937603727,2983631.503005961 L -5411556.817453863,2983607.3770153853 L -5407490.98437213,2991088.2198284506 L -5412290.635537172,3021316.8012317396 L -5418921.937603727,3027071.8669508854 L -5422792.071020646,3027217.3055572235 L -5426634.931162321,3032392.8712671455 L -5421335.344164126,3042288.7030387055 L -5415872.562792428,3049508.607411569 L -5416600.926220688,3063522.156404094 L -5418644.752071652,3075129.3996940535 L -5418780.56185042,3086405.5517868116 L -5411872.074251789,3108253.312473356 L -5409393.434469786,3130720.9533285066 L -5406604.992544905,3138902.1786520523 L -5405023.253900223,3147980.2721383236 L -5409627.205400452,3156477.3001826596 L -5407007.301184633,3170120.124174468 L -5414867.013832091,3193349.8281348115 L -5410757.766148948,3226952.700836763 L -5412442.809281087,3258506.801538175 L -5415519.34604814,3275125.5844224165 L -5420503.676248409,3288133.9405538547 L -5432086.803223922,3304900.616842179 L -5432353.079445899,3321700.6075822385 L -5457280.407741274,3337344.4008352123 L -5484854.8022082215,3359261.728348477 L -5510303.884956944,3385245.123752929 L -5537698.943724223,3421952.9308740706 L -5569687.044681634,3477992.859736789 L -5599316.062990153,3558398.2730091233 L -5634989.395690275,3619464.947294333 L -5649257.660103213,3641591.9676645324 L -5668542.87132722,3666352.7068407885 L -5694187.653740758,3695292.8648543716 L -5728545.524018176,3724314.4501159224 L -5766143.125436149,3750229.6382985828 L -5779731.895677284,3761939.111661154 L -5792978.247164739,3778395.145448484 L -5796288.443542968,3771594.496689524 L -5793418.515750826,3760362.6328443363 L -5795244.823316782,3751958.489786684 L -5795652.475292066,3741064.723359878 L -5788069.948176682,3739056.034444995 L -5776720.592131835,3745966.266173047 L -5770937.210626653,3741282.224695819 L -5766730.113111102,3736651.2083160635 L -5753065.200338265,3733760.783459896 L -5726963.785373494,3705341.7669515396 L -5707591.633627176,3694846.717409116 L -5696698.798814072,3676950.6780542256 L -5694829.076646709,3667446.5005043475 L -5695263.8905777475,3648193.4561964367 L -5689089.109742934,3643318.242123899 L -5675076.3235613685,3644993.7986263167 L -5672217.305079324,3639523.407304216 L -5673434.806350131,3633459.417510367 L -5670706.142991806,3620250.4873219226 L -5651709.026609971,3608536.4967664136 L -5642707.843903917,3594393.043320812 L -5645713.692794318,3558423.5762669942 L -5642234.958707028,3556809.9498276315 L -5634418.660660978,3562408.0537093896 L -5630755.136218971,3560087.764397767 L -5626814.314925399,3544349.1249458925 L -5628705.855712958,3536191.263161858 L -5637908.192738875,3534026.79733469 L -5669711.503341569,3551755.9889867124 L -5680071.563071735,3551025.183618585 L -5681789.222814675,3537097.5184236197 L -5697253.281197714,3530705.3702332852 L -5703297.595589316,3519162.572724101 L -5705107.6505096145,3511259.6017613704 L -5710472.470729414,3508031.9446999044 L -5710135.506630784,3521689.044474913 L -5708662.415809116,3534970.653265221 L -5694801.803371464,3550458.270900614 L -5698171.88963574,3556608.196514713 L -5704743.413135738,3563795.344034492 L -5709320.091360723,3579773.1334570404 L -5708803.791562423,3600526.7261131164 L -5712516.185260888,3594203.3724687276 L -5717266.855849982,3590550.083954737 L -5719201.922558442,3612878.873430231 L -5728404.259584358,3621428.8256665645 L -5731312.25864235,3629832.498390487 L -5728909.761392051,3639586.948201152 L -5733654.977326095,3646326.866836537 L -5757098.416809196,3664445.3447922864 L -5780465.713760593,3676836.1135096075 L -5785547.89379327,3682692.397796021 L -5788042.786220929,3696542.112194851 L -5791613.915485577,3710790.4901990793 L -5801952.267915038,3723330.6837459905 L -5810159.965290718,3748296.2511103665 L -5809937.103670149,3759055.487852759 L -5807213.894966873,3774930.219858687 L -5802794.845140853,3785353.6446217364 L -5809784.929926234,3792329.214698461 L -5819182.855297475,3805880.640243332 L -5826645.825279748,3821173.5548655777 L -5845219.037040642,3878762.8692532345 L -5861221.213842175,3913607.9943769313 L -5873538.158900998,3930718.526390462 L -5891122.074347212,3948778.8450969197 L -5941188.571928941,3994236.4847232327 L -5944189.077483783,3993582.8130985796 L -5951537.833668501,3989909.931953866 L -5957690.907202607,3985545.946654801 L -5959082.400837524,3982633.2186615486 L -5959783.49099054,3978271.9919940704 L -5958973.641695019,3961899.3315128507 L -5959082.400837524,3918009.846100039 L -5956913.563198398,3909739.7782345912 L -5953684.852687431,3904407.0323115787 L -5943928.144597363,3896678.0988770975 L -5934453.965374929,3885625.2019049353 L -5923762.284881689,3871581.189734479 L -5913913.181614263,3860409.7296069334 L -5917440.7849580115,3852916.2531688833 L -5925675.644289444,3845685.79427045 L -5940313.489411814,3839839.9529664023 L -5954413.216115691,3829549.2493914654 L -5966914.951529229,3816331.2309762575 L -5972692.878379364,3802587.776273622 L -5977981.667386952,3787794.000494614 L -5983042.140118923,3776110.707943888 L -5984727.183251061,3770773.5497709853 L -5989668.098849921,3768554.6467034942 L -5997506.104196675,3762592.757316977 L -6002414.291865242,3757056.6609473135 L -6009600.076315438,3753879.609892511 L -6022433.321172559,3750396.165852669 L -6035804.795767665,3744315.203703088 L -6052432.031510003,3729886.8808404393 L -6064428.265115849,3713892.460678319 L -6070352.911054848,3703338.978305567 L -6076668.9563234765,3695917.472550581 L -6110994.321309582,3683660.2409196733 L -6126583.391480782,3669036.379931843 L -6132720.101049743,3673590.953552471 L -6141889.821464857,3669112.707655625 L -6150918.2774461545,3662080.56415576 L -6153625.122184285,3656691.5934488974 L -6157446.275025254,3651165.161120615 L -6161033.768255049,3644828.832666101 L -6163322.051707795,3638749.3780521387 L -6172616.8952305615,3628133.548725738 L -6184613.017516917,3616652.8487853226 L -6189700.652204641,3613385.3407247663 L -6192385.789642067,3614335.054913086 L -6194983.986557181,3618742.8910679244 L -6196625.503768419,3623000.0741969333 L -6201158.767391994,3625813.740635153 L -6206768.267852558,3631075.1147824605 L -6212491.870791185,3637518.7232083594 L -6219829.828985295,3641795.0997760766 L -6228548.371504225,3643254.6820418816 L -6234413.238876668,3643038.91814933 L -6235619.942156867,3640500.5958516314 L -6235946.108264891,3631696.5995773557 L -6233777.381945257,3611625.3712697336 L -6238881.269278637,3603904.621129943 L -6245675.654399205,3595632.2539448254 L -6253502.8617553525,3584585.590589986 L -6279223.786700592,3561197.431457192 L -6314228.534539009,3527598.5927430466 L -6326588.894199241,3517340.334205177 L -6338226.34508626,3516548.5911918185 L -6348852.792357896,3517692.1500247503 L -6358625.86441311,3522129.0306543577 L -6366018.146518728,3537638.6992311114 L -6369083.773975683,3540030.276370275 L -6387939.6259237025,3539677.8402973735 L -6406692.173384264,3537172.9137431406 L -6412991.966007238,3527711.7943150634 L -6407980.362531724,3521550.6669516102 L -6390320.415873298,3507906.4455065145 L -6380552.687153643,3495769.4629591326 L -6378682.964986278,3485123.07987067 L -6370219.789379229,3475575.187248096 L -6355157.928316426,3467123.3234734638 L -6338378.518830175,3451573.846139138 L -6319881.449600983,3428939.921113347 L -6308646.196034199,3412264.5921695055 L -6304672.869449316,3401512.288297419 L -6297421.851777514,3393233.0556105813 L -6286877.001692629,3387421.9405341684 L -6277669.210011665,3375298.062582859 L -6269776.769433913,3356878.45264965 L -6258998.148418363,3342240.7042807364 L -6245344.144955622,3331396.856876036 L -6237701.839273684,3322406.1737613305 L -6236076.574708101,3315277.437833087 L -6232211.895946232,3310712.6102870153 L -6226118.712298171,3308721.4732272653 L -6223167.187319277,3304974.8052221346 L -6223362.886984092,3299449.401553658 L -6221705.005807708,3295705.451147306 L -6218182.857119009,3293704.019453074 L -6212301.625781419,3294408.237393145 L -6204055.857139888,3297805.87745474 L -6199076.981594668,3297175.752999011 L -6197375.685816875,3292530.5735820285 L -6199549.866791558,3287207.9045655234 L -6205615.888483865,3281220.933120447 L -6203332.948366677,3274730.8374693613 L -6187401.459441797,3264237.19925554 L -6175633.542111568,3260244.088830591 L -6168192.279430001,3253739.458404497 L -6161142.416078063,3243422.108920884 L -6149706.119510907,3236224.2927228 L -6133872.480418435,3232190.294937227 L -6129681.63554854,3228305.026931665 L -6130252.370577838,3223314.6852026107 L -6127018.205411821,3219726.7016368285 L -6117663.69464199,3217134.6931072013 L -6112576.059954264,3212283.5897525456 L -6111749.846693597,3205163.470123017 L -6108738.543148148,3198537.7987166625 L -6103547.7152924575,3192430.215511542 L -6097758.879132225,3190162.0831136857 L -6091372.1459869435,3191719.077074311 L -6085376.700851799,3189414.2812784766 L -6079761.857055677,3183212.6144730337 L -6073027.250501666,3180321.2535273596 L -6065167.426534716,3180725.4506701026 L -6061139.7760383235,3179365.628911375 L -6047654.198965155,3176487.236698665 L -6040212.9362835875,3171283.090980334 L -6034098.0453348225,3159706.280211667 L -6028667.8805739265,3155217.7739490694 L -6023922.664639882,3157834.8809753247 L -6015720.5332387425,3153958.236395544 L -6004055.920395969,3143617.652067938 L -6001859.92080109,3143422.096246544 L -5993239.228114568,3138609.007395276 L -5984368.400532234,3120763.380610764 L -5979780.812997152,3108838.2706600036 L -5980878.757134846,3099091.215523018 L -5983792.210847888,3092101.7125639287 L -5982819.278498355,3081867.259925279 L -5979878.66282956,3054073.0439490518 L -5979074.2681890875,3042725.3603158914 L -5974356.214210796,3034817.7688314775 L -5974660.561698625,3026987.1111693303 L -5983080.211384774,3009450.1298909215 L -5991575.892283135,2994074.3759410633 L -5996136.317862464,2968005.326148406 L -5999136.712097814,2958123.8234256385 L -6006219.192060555,2955506.6705438606 L -6012622.289170983,2946898.9812926967 L -6020715.772749108,2946151.727084585 L -6024526.0162799815,2942862.036468474 L -6028461.382918505,2940127.1898679095 L -6034201.238502788,2940934.3414300717 L -6039093.284845189,2945970.935501437 L -6048197.772038698,2946151.727084585 L -6053926.829632374,2948224.7563454746 L -6060672.234176992,2952709.2317402842 L -6067080.785942471,2950647.670337302 L -6071124.8004040085,2946718.180565846 L -6079810.726312136,2946669.926274937 L -6079218.2839821335,2928988.2278207317 L -6063922.763308156,2902817.4096764456 L -6059813.404305522,2890649.614005425 L -6061802.90624498,2883759.2808712497 L -6057226.116700505,2859476.285131844 L -6046088.712966129,2817895.7700219997 L -6042533.947666627,2790746.83937552 L -6046572.507473117,2777952.984742716 L -6046681.266615621,2769028.4886669964 L -6040963.118332043,2761430.6164549296 L -6038169.221752114,2759168.73584897 L -6052529.881342409,2749898.00004075 L -6060259.127546659,2741441.4552917173 L -6070206.191965982,2735402.0213166242 L -6080881.508494076,2730577.0059259916 L -6086034.376403405,2732585.3026885157 L -6091556.93634166,2735402.0213166242 L -6102232.252869753,2739824.422812259 L -6114386.114874563,2747483.0853985474 L -6120642.381576636,2750302.593038824 L -6131687.390133654,2753122.4853624166 L -6144205.3781928485,2755538.2681657737 L -6154511.114011508,2753931.7262628805 L -6163349.32498304,2752313.4080632133 L -6168871.773601803,2747483.0853985474 L -6171817.843925647,2737006.792451006 L -6171817.843925647,2728153.1283097295 L -6173655.060801699,2715279.657316837 L -6180286.362868254,2708051.749183166 L -6182493.16045374,2702428.3981795087 L -6182862.852482664,2695597.617833858 L -6182123.579744307,2687975.728418286 L -6180286.362868254,2682359.4357656767 L -6181389.761660998,2675537.208375247 L -6184335.831984842,2670718.3971111355 L -6183596.559246483,2662303.6631549085 L -6185069.650068151,2650688.9453377244 L -6189488.699894171,2643478.292627172 L -6191700.952134706,2635077.684795486 L -6191700.952134706,2626681.4024343393 L -6195011.148512934,2618289.549605322 L -6195380.840541859,2609099.97487036 L -6192434.770218016,2600716.976365734 L -6191331.371425273,2592338.2348907944 L -6194641.567803501,2586354.41446275 L -6200903.289160623,2582762.7955079735 L -6205686.576360519,2573192.7550534834 L -6206425.737779386,2560841.13214855 L -6211578.717008206,2554069.2544237725 L -6217101.16562697,2548498.6214959845 L -6223357.432329044,2548498.6214959845 L -6232934.8047194425,2545314.5304755736 L -6241403.32366205,2545714.057805014 L -6255024.821833478,2545314.5304755736 L -6261281.088535551,2543329.185174792 L -6264591.28491378,2538948.2754963445 L -6273059.803856387,2532983.4087880556 L -6277848.545711332,2522655.7372592795 L -6283740.68635902,2520673.0525292763 L -6292203.750646579,2523840.7254913845 L -6295149.8209704235,2527818.8454635115 L -6298465.4720037,2533382.6439742455 L -6304357.612651388,2539746.7970672403 L -6312086.858855638,2539347.531553724 L -6320185.797088811,2542929.8347466076 L -6327920.609267601,2543329.185174792 L -6338226.34508626,2544128.0347482967 L -6348537.535559968,2540944.7706331625 L -6361055.523619163,2537362.88932004 L -6371730.840147257,2534979.318403604 L -6382042.030620964,2537362.88932004 L -6389032.115406347,2535366.8181425394 L -6398239.907087313,2534180.9022088456 L -6408545.642905972,2533382.6439742455 L -6416644.581139146,2527020.767317562 L -6425482.792110678,2523441.8354845853 L -6430265.967991084,2524638.6538217827 L -6436527.689348206,2528616.841056121 L -6443153.648079203,2527818.8454635115 L -6451622.16702181,2524638.6538217827 L -6454937.818055088,2517095.459654408 L -6454198.65663622,2512322.5848500663 L -6452355.985105119,2507562.691305805 L -6449045.78872689,2500812.113142004 L -6450888.3489385005,2493666.0063629495 L -6450149.187519634,2487330.6929472764 L -6448676.096697966,2481770.153418147 L -6447203.11719579,2475439.220997101 L -6448311.970643581,2469496.619668278 L -6448676.096697966,2463158.451276298 L -6449415.369436325,2457220.0641519134 L -6450518.768229067,2450886.3787490306 L -6446099.718403046,2441787.2796703274 L -6442419.829995893,2434268.558070278 L -6444626.627581378,2427954.900220892 L -6443892.92081756,2423603.154307353 L -6440946.850493717,2416488.757108817 L -6437266.962086564,2407815.3925621356 L -6437631.199460439,2391634.0297889104 L -6440946.850493717,2382169.7872375804 L -6444534.232404021,2379609.508514466 L -6445452.840842048,2376747.2208251036 L -6443708.019143353,2373012.86352706 L -6445610.469241011,2369163.053823913 L -6446344.28732432,2365232.630990087 L -6444441.837226662,2361791.358752477 L -6447083.560062678,2354992.0588322207 L -6452355.985105119,2353028.2856818936 L -6454198.65663622,2351064.7259710403 L -6456041.2168478295,2343584.354865577 L -6457514.307669498,2334934.570398664 L -6456780.489586189,2328249.778800943 L -6459356.979200599,2322356.12221168 L -6463036.756288262,2318830.2220509606 L -6466716.644695415,2312545.4535893947 L -6470401.876438126,2307827.532991936 L -6471869.512604744,2301164.2528392863 L -6474315.535775945,2292545.977098791 L -6466966.668271737,2290936.3301782464 L -6464058.669213745,2286108.2285455083 L -6458884.09400371,2279568.4284187 L -6452095.0522187,2277855.749877374 L -6444017.932605721,2275448.928477401 L -6441028.336360978,2270613.2389814625 L -6459862.481008291,2253224.216338518 L -6471168.311132238,2242791.5472985534 L -6464547.807056289,2228694.1699840343 L -6453377.898030601,2204945.0593386474 L -6442561.205749202,2181973.6006714157 L -6434310.093772112,2164469.6125265923 L -6432201.034699542,2161237.571211855 L -6425004.45225874,2160121.951518111 L -6426319.803361954,2151096.1679798705 L -6426569.826938275,2145188.565890827 L -6432385.825054259,2144843.780121866 L -6425917.606041716,2123549.9329660563 L -6416361.940952023,2093222.1139036901 L -6409110.9232802205,2070265.813295628 L -6406784.568561623,2066419.3344353114 L -6401555.558120591,2065343.4632193488 L -6400386.926106242,2062688.0777330971 L -6406665.011428511,2058991.8341337217 L -6410497.073579579,2051864.5393014424 L -6418867.742689779,2031388.3950643784 L -6432059.770265726,1999166.1206689316 L -6433027.247960211,1987634.3882471423 L -6437881.223036761,1980519.9302359007 L -6445958.342649739,1982879.7486707764 L -6455519.462394482,1980611.2129087076 L -6479413.968454277,1963131.663085755 L -6495242.264211192,1953691.3914396015 L -6500612.53908604,1948113.3955441352 L -6502993.329035636,1930205.4155619377 L -6507716.726349486,1910437.35422154 L -6509755.097545401,1886010.5361858213 L -6508917.974974636,1880143.386673473 L -6495535.813708413,1861633.0944621135 L -6495579.228309821,1852281.7251352028 L -6494443.212906277,1844123.5957214797 L -6495003.038625476,1837678.576982587 L -6498318.800978245,1837588.002966541 L -6503694.530508142,1840408.1437882928 L -6511809.721386972,1842582.9856265427 L -6516413.56156771,1842764.2898526485 L -6563093.831558998,1841019.8622420602 L -6616193.451306372,1839026.3284892575 L -6660373.374214952,1837372.7606569454 L -6698715.591706842,1835934.539677764 L -6700009.23550935,1820029.1197014784 L -6702172.618493427,1793371.1535535653 L -6703705.3765621595,1774479.1874940854 L -6706145.9450783115,1744533.8911992824 L -6721523.062939039,1725906.2067993197 L -6738220.986558031,1705704.8205867626 L -6744091.308585524,1700536.0847251215 L -6723920.105534292,1699894.220191709 L -6709597.517209848,1699432.6922849708 L -6712440.283046235,1645278.808887278 L -6716799.5543057,1639751.9057933462 L -6720658.778412522,1622302.8941907228 L -6723278.682628341,1612427.2044130994 L -6730393.779201884,1604417.1137373876 L -6732008.1344573675,1595422.8311859693 L -6730709.03599981,1589413.3703740847 L -6726822.649937235,1585691.7893914066 L -6724251.614977875,1576423.7660154726 L -6726186.681686333,1567103.0319617302 L -6730393.779201884,1558434.9986454938 L -6735563.01107636,1550116.864001786 L -6745439.276299539,1545013.0587051993 L -6759582.528924316,1535736.7499948204 L -6780971.344565845,1523947.5634411832 L -6799060.761819752,1515740.5653978528 L -6804865.850625639,1516746.7287614162 L -6836804.971007101,1519955.617478549 L -6847436.872933784,1521632.7978638036 L -6854573.788127523,1519754.3352875987 L -6878424.768266416,1519843.7556907404 L -6887795.643001395,1513527.1133931968 L -6895655.466968345,1506183.7990901675 L -6912358.733922893,1487392.8595254095 L -6914946.132847402,1477991.0634998025 L -6921408.8972048955,1475010.2838832901 L -6931187.42391516,1476148.9443104884 L -6941085.507758534,1474865.2254519872 L -6960310.940415986,1467074.5495360978 L -6978291.709846878,1459085.1805701181 L -6987021.161675906,1459419.9205239157 L -6994777.569835909,1454444.3549318633 L -7008442.482608746,1442265.7389667104 L -7014818.417763421,1437527.2987139695 L -7017731.760156971,1431229.2713345296 L -7020639.759214966,1421957.3730804378 L -7026129.702542417,1419962.9040436123 L -7033239.344460911,1421623.0694939364 L -7040930.630718799,1426381.1536342301 L -7051720.161044448,1423205.2835957988 L -7064917.531955954,1414660.0442561067 L -7073451.395439656,1407988.231041118 L -7078321.623161861,1404825.4211652072 L -7089779.627029723,1400159.8849799358 L -7100857.252197543,1399180.1910564045 L -7117609.499728041,1406050.477829673 L -7131307.0291116815,1403244.200764184 L -7152837.109187026,1400761.193499304 L -7171258.147204006,1395795.6913558803 L -7177965.591802264,1382851.558247384 L -7181601.954288517,1374284.6027019732 L -7192538.20370303,1368923.0537424479 L -7201262.200877008,1362383.7796627232 L -7211660.331873026,1352466.4109836824 L -7216829.563747502,1349153.8642374114 L -7226232.943773792,1346386.3608314567 L -7234935.233647066,1342885.5695941842 L -7235902.82266104,1336607.5169267894 L -7239136.876507566,1328342.2315119198 L -7239897.85654663,1326298.574699408 L -7245817.1591500705,1316270.5837357743 L -7248583.893774248,1315571.1187521315 L -7251649.5212312015,1317536.414007973 L -7253954.168649097,1318991.0506870293 L -7256443.606421707,1317214.4086783552 L -7256889.329662843,1312728.8499495757 L -7255291.338372506,1305546.5578934771 L -7258721.091883845,1298010.7941669936 L -7267189.610826453,1290110.781563981 L -7271614.115307524,1281946.4989002356 L -7272000.059982103,1273495.9942121564 L -7273880.802779055,1267852.4630367225 L -7277272.596344035,1265003.3103706043 L -7279169.5917866435,1260048.4802994002 L -7279582.698416977,1253010.9419899485 L -7277131.220590728,1244623.4032259248 L -7271809.814972337,1234919.8823546716 L -7272951.285030931,1219949.1399709906 L -7280550.176111462,1199773.644840811 L -7284746.364316914,1185216.5286611621 L -7285539.960966781,1176292.902575038 L -7284403.945563234,1169681.7077223149 L -7279789.196072399,1163259.7403894966 L -7270619.475657284,1147502.5651093884 L -7269005.120401802,1135484.9397862526 L -7271896.866814137,1121936.7814872875 L -7272293.609479325,1111605.1366291137 L -7270200.914371902,1104498.2280164002 L -7273380.755626412,1095186.3002646463 L -7279865.338604101,1086395.0666428506 L -7284387.692917579,1086174.4989087349 L -7290535.200477147,1088578.9035121147 L -7297960.0991935665,1096002.704359556 L -7306689.551022593,1097315.5176298716 L -7314446.0705020875,1092726.3506453084 L -7338704.813935757,1094645.7685186437 L -7376427.315822403,1099235.1705265772 L -7391527.2481510565,1103990.6679526276 L -7400397.964413899,1106021.0627709688 L -7411133.170828041,1107576.9565619722 L -7428347.394245328,1116119.3218857925 L -7470820.566721068,1149303.3495065244 L -7479609.90843614,1154109.618617815 L -7489627.549412628,1154772.5523864708 L -7495443.547528612,1159369.527212924 L -7504819.765599149,1162983.478713641 L -7523240.803616128,1176127.0385829944 L -7532617.021686665,1186654.342460388 L -7538753.731255626,1196189.0715602792 L -7545868.827829168,1196520.9922565399 L -7551358.771156619,1193888.1448131294 L -7568801.310849527,1195204.5433711791 L -7577704.755042665,1198457.0713673932 L -7587385.43192052,1207740.6682875464 L -7599403.372827071,1224521.5655886144 L -7604360.541071586,1229293.9581576583 L -7614030.308639345,1234233.1762608448 L -7625200.328984523,1238320.1649323187 L -7639039.122801981,1244490.445125926 L -7645241.065592545,1244900.3253519607 L -7650709.1902998015,1245997.1457936282 L -7655432.69893314,1243183.1278717765 L -7657008.982922775,1237168.24913499 L -7664162.150762168,1233369.3416109884 L -7681229.655090594,1231464.493340359 L -7706483.149493992,1227079.3430230748 L -7732535.583882813,1226226.8044932135 L -7745455.769262246,1226636.460217552 L -7756076.761878832,1226902.2345537976 L -7774530.416506614,1224554.7851745612 L -7787950.760358179,1224156.2656849434 L -7799745.839644161,1230113.4629496029 L -7816862.213229043,1237511.5739439756 L -7824689.420585191,1239394.649329288 L -7830434.730824524,1239671.5277970717 L -7836033.321974989,1238752.200351852 L -7842555.97621853,1234919.8823546716 L -7851725.696633645,1226082.8082349498 L -7858770.105330532,1229482.191883192 L -7863868.649328357,1233269.65673496 L -7863781.708806047,1214060.1577936504 L -7863645.787707788,1185194.4455016095 L -7863537.028565284,1159756.3225956021 L -7863444.633387925,1139416.7788146953 L -7863341.440219959,1115699.876411474 L -7863265.297688258,1098970.3537925386 L -7858465.757842706,1092615.9916170419 L -7855508.778208763,1085512.8034245397 L -7859063.654827755,1076018.1400287373 L -7858291.765478595,1067319.5016080858 L -7855834.944316789,1061268.0469548444 L -7852600.77915077,1055360.7411821818 L -7860036.587177289,1058314.2816195125 L -7863265.297688258,1059956.476017032 L -7867222.371627485,1064442.4788197502 L -7876799.744017884,1070505.495550393 L -7883230.003084068,1076558.4057071912 L -7890828.782845108,1081498.4942474915 L -7900427.973855703,1092417.5269125318 L -7908331.212424061,1098407.737435134 L -7916517.091179545,1102214.1492336246 L -7930171.094642284,1115048.733791594 L -7941466.126775623,1117598.4393840681 L -7971366.987280659,1119574.4188990537 L -8002474.439746405,1119519.1429281598 L -8030918.573394921,1119475.0578576603 L -8035218.066087829,1119309.4567196018 L -8034940.880555754,1108735.69856196 L -8034245.133738297,1101265.3062222875 L -8043942.063261808,1093388.1727421267 L -8044594.284158366,1083693.1157890651 L -8047176.228427825,1076999.4307610146 L -8050410.2822743505,1068807.7635212336 L -8057199.32405936,1063560.6095817068 L -8066738.625183909,1061532.6012002886 L -8082403.837886809,1057002.8106221429 L -8105646.123050045,1052297.2949560957 L -8127855.697297193,1051966.6810383885 L -8149635.800948861,1052418.4831485036 L -8136324.216239802,1035981.0443463353 L -8123023.429521348,1019561.3597801424 L -8123431.0814966345,1005250.6042819719 L -8134171.742565824,992815.272518196 L -8139966.033381104,985069.9893877299 L -8148934.599476355,974400.3750119702 L -8159990.406023979,967043.2564976289 L -8166034.720415582,957246.706744796 L -8165474.894696383,951299.5265453494 L -8166442.372390865,947375.5264328872 L -8170644.126570858,945089.3637545481 L -8174845.76943136,941495.6510984956 L -8180661.767547345,937572.5374984064 L -8187450.698012864,932353.1804547638 L -8187450.698012864,927123.4185079727 L -8190037.985617881,921564.8100319526 L -8194239.628478383,915040.4567107023 L -8194239.628478383,909812.7301337733 L -8198115.216550349,901654.0326958877 L -8202316.859410852,895780.0895846613 L -8206518.502271352,891860.9874660437 L -8212660.666495363,886317.731422381 L -8212339.955042387,881740.8541224798 L -8207812.146073862,879458.1475739229 L -8205871.736029844,874245.4952855356 L -8206518.502271352,869022.5248615572 L -8211693.188800879,865763.9114578434 L -8217835.241705396,864129.1842377455 L -8225912.472637865,854673.1142235963 L -8231728.470753851,849781.2477536919 L -8235609.402161378,846842.0990878098 L -8237870.63497786,843584.9976021673 L -8235609.402161378,841304.0113902915 L -8233022.11455636,838036.3899268227 L -8232375.3483148515,832828.2523982505 L -8233668.992117361,827938.5825814176 L -8233668.992117361,823696.1715882267 L -8229787.949390343,822391.74215019 L -8225591.761184892,823049.5088466196 L -8221390.11832439,820440.6058390873 L -8215894.831661379,819465.1224476378 L -8209752.667437371,818807.5153040539 L -8206518.502271352,815880.9934203355 L -8206844.668379377,810664.2952251132 L -8210725.599786903,800561.1388391497 L -8214601.187858871,796332.0278091225 L -8215894.831661379,790142.3003144605 L -8212736.809027065,778214.103451396 L -8210714.690476806,770613.9683305252 L -8203637.665169113,762544.0326037157 L -8181971.66399551,745247.6373545522 L -8162555.986328292,733504.5590222661 L -8153076.463770299,732311.8430331873 L -8146075.469674819,727956.6961324253 L -8141613.00524739,721304.3981581146 L -8140384.483346995,714029.3870142367 L -8141390.143626821,707695.914878926 L -8144993.889502273,698322.825303843 L -8149309.634840838,686654.8985402804 L -8152543.800006853,680160.4855553998 L -8149630.346293812,672354.8406899667 L -8144455.771083778,661686.5710694552 L -8133899.900369306,645589.4314631153 L -8124083.413712682,628283.7031887979 L -8123007.176875693,623226.1489150262 L -8121751.604339035,612664.5381171772 L -8117223.795370511,591120.3595296622 L -8114723.448287803,579461.1504706051 L -8116022.546745361,574931.2194455521 L -8113750.515938269,571023.6640263813 L -8107613.806369308,567782.0787208151 L -8092785.604917681,564813.5479418392 L -8082724.549339785,558374.6619981794 L -8067211.510380797,546273.5278206008 L -8054280.41569127,533399.6491366958 L -8043588.735198029,529254.3521478428 L -8024189.421495957,517343.1506521069 L -8013046.563106532,509785.05736696336 L -8008676.38253697,507407.63820628414 L -7997718.425821754,501944.27363772434 L -7978085.229869524,500035.9516529 L -7961718.927013608,498073.1846865847 L -7952473.064066791,494485.76837551047 L -7938949.52704726,493002.79050487175 L -7929845.039853751,488968.6712626796 L -7919740.347035464,488859.59243247827 L -7900754.139963725,484760.14027507143 L -7894291.264286742,478600.5636628891 L -7888768.815667978,471264.0198970354 L -7881365.624252261,464985.42521717114 L -7872690.496334742,463372.26201924746 L -7863004.364801837,464462.1735722982 L -7851437.601791472,464342.2993815063 L -7837408.56296425,462391.2973647554 L -7830619.52117924,467252.58750739327 L -7827640.945564085,473204.3929095809 L -7818987.524947269,479254.6241486952 L -7812845.36072326,478916.70901505 L -7806703.307818741,477630.25481594936 L -7798299.910778248,482819.5042680034 L -7792804.624115239,482165.41628144664 L -7789249.7474962445,479254.6241486952 L -7788570.364643934,471972.6087480564 L -7786597.2266696235,468026.5525084155 L -7782460.817030726,445258.6913139643 L -7775639.269954405,407691.4255173611 L -7769448.236473937,373644.7838334879 L -7762599.416122372,335972.66090881004 L -7755522.390814681,297071.68573658454 L -7748358.313665189,257692.10101179988 L -7742477.082327599,225381.9186038988 L -7737422.064250676,197612.7952135046 L -7734323.820182918,180581.32928879448 L -7729459.047115761,158276.93595540983 L -7727562.051673153,138681.94984990868 L -7725599.82300894,133027.75220889624 L -7726844.597554991,128276.08476515242 L -7731040.785760443,121523.93081563381 L -7730997.259839541,118555.5161995596 L -7730508.121996998,114619.60335446312 L -7730997.259839541,111183.74560492764 L -7735416.420985052,107508.88314046562 L -7738851.629151444,105290.86764589624 L -7741553.130554014,102105.26203659862 L -7742781.541134918,97680.10347945117 L -7744988.338720405,93266.01374513879 L -7745972.180380035,88601.80957830536 L -7749162.81962515,84916.23684027976 L -7750141.206629734,80252.1157247784 L -7747934.409044249,75838.19004135841 L -7746950.5673846165,71174.15015149045 L -7747934.409044249,66749.38695822112 L -7749162.81962515,61596.25809093517 L -7751619.640786959,56693.202839628495 L -7755348.398450571,53703.605934344654 L -7764251.842643707,50376.93482481639 L -7773209.610748351,42451.778607459746 L -7783765.3701433325,35341.892790642785 L -7797267.199862158,21839.924897122535 L -7800213.270186002,15458.618862643412 L -7800262.139442462,-2065.533187773379 L -7799680.606422557,-21078.94055043387 L -7798810.86724099,-49800.72737254956 L -7798365.143999851,-64411.9993655457 L -7790744.545618617,-65216.546865098695 L -7784026.303029753,-65613.31039680976 L -7777009.056288617,-66624.36833695462 L -7770894.054020361,-67624.62935356889 L -7765284.553559797,-69728.24440026705 L -7761072.001389197,-72337.51245070357 L -7756055.054578126,-74038.92024158961 L -7752146.961214847,-73435.52828027183 L -7748238.756532076,-75740.33330078254 L -7743923.011193511,-77947.29106236967 L -7739715.9136779625,-79752.02923498799 L -7733600.911409707,-81257.85661363993 L -7727888.217781176,-77746.23308730104 L -7724681.2145709125,-74240.08815135091 L -7720968.820872448,-72533.1134093906 L -7717462.813509913,-72935.44820839759 L -7715054.9729240555,-72630.96957765704 L -7712549.171186299,-69826.10008830314 L -7709342.167976037,-69624.93374856908 L -7704732.87314025,-70125.12223582676 L -7700422.471137242,-70728.51065798201 L -7698416.827871621,-71527.50032400197 L -7698112.3690643,-73337.67197076166 L -7699215.767857043,-76441.5846731665 L -7700721.475289514,-79355.2557082395 L -7699520.2266643625,-83861.614999262 L -7699416.922176907,-89275.9146280404 L -7699215.767857043,-96190.58800026041 L -7702623.925387172,-100001.3935774533 L -7706031.971597807,-107220.74748024023 L -7709842.215128678,-113037.61280384228 L -7715756.063077071,-116946.34140426753 L -7721273.168360278,-118452.30521965736 L -7725882.4631960625,-116043.94643141022 L -7730192.8651990695,-115647.02698557726 L -7733399.757089843,-117848.85005631296 L -7738612.514885219,-117946.71660601787 L -7744227.358681341,-118647.92735137651 L -7750162.9139304375,-119479.74017976587 L -7760860.049078727,-117903.18324544099 L -7764681.201919696,-119854.84155558902 L -7769893.959715074,-120056.03145205365 L -7775905.546176383,-117952.06085526518 L -7775753.372432468,-145706.39689279426 L -7775606.653343604,-171886.5186810461 L -7775508.803511196,-190244.26995319148 L -7770095.002715445,-189847.3511552553 L -7763376.760126581,-193153.58259248058 L -7753407.988406553,-193664.77399356654 L -7745749.3187594665,-197150.59809354442 L -7741482.44267736,-197427.91624116927 L -7733383.5044441875,-195720.35514189108 L -7724942.147457331,-192142.11776852107 L -7716636.711568737,-191636.38716961571 L -7694878.315217775,-191641.8442870192 L -7671380.551823168,-191652.7585222469 L -7645251.974902642,-191663.56138827986 L -7619090.781371315,-191674.47562462394 L -7596392.069281624,-191685.3898615291 L -7589380.165876045,-191478.68767419824 L -7593467.706258481,-197574.81704962233 L -7598218.376847576,-205476.5440833152 L -7596381.159971525,-211698.06529770518 L -7594032.986632732,-217963.3392075763 L -7591298.979938849,-221237.51538286172 L -7584227.297966716,-217756.7210777419 L -7578302.652027715,-207102.54743168363 L -7573383.44372956,-199075.68379074748 L -7568583.903884008,-195122.17749288568 L -7562626.530014716,-194670.7889415298 L -7555870.216159999,-196019.5002974622 L -7549141.064261038,-199304.1114160899 L -7537650.332462884,-214009.4539029779 L -7526224.945205824,-226589.37939867767 L -7520305.642602384,-230815.44499708083 L -7514027.557280114,-234704.4192903344 L -7509363.938532822,-236178.5138687544 L -7502982.548723098,-235683.47156057408 L -7497585.111892493,-232245.951901153 L -7494095.468495106,-226257.5496518241 L -7481316.658868982,-205400.36205037942 L -7471679.396592538,-189673.28177968424 L -7468439.888090962,-179868.93419755925 L -7468233.279116049,-155928.0502416266 L -7468831.1761011025,-134707.71064928954 L -7467564.694254346,-131967.5392913374 L -7465667.698811739,-131184.68540280787 L -7444605.049278232,-136159.31004371116 z" /><path fill-rule="evenodd" fill="currentColor"    d="M -5524637.382591486,25514.38401820582 L -5514233.796940419,26003.637170348025 L -5499503.55664069,23894.561952709373 L -5489638.089408118,18687.34097534103 L -5478598.535506149,17665.423899116307 L -5467678.538737292,18208.99912238845 L -5430896.352589378,23992.412474591343 L -5408795.537484735,25786.228413033044 L -5400712.963216709,27634.259490973025 L -5392815.067983908,30265.100135001285 L -5387048.050443871,33102.44634746666 L -5385602.121577957,39277.32682183135 L -5390983.305762904,49148.486853678645 L -5394983.905623033,59530.743135453886 L -5398712.663286644,74022.55517414278 L -5401593.500388883,76968.8319076187 L -5406414.74753514,76196.99824303656 L -5403414.353299789,89167.25617460786 L -5404506.954101925,94353.2774842668 L -5406893.087387078,99397.9682232618 L -5412806.935335471,109868.19700099407 L -5421770.158095164,123198.37272915749 L -5424433.588231884,125992.69109401069 L -5431260.5899632545,130624.74177062174 L -5436810.200537771,136550.68747449986 L -5435619.861222718,142118.10171844528 L -5432842.328607936,147728.93912614143 L -5436130.817685459,154753.61533334223 L -5446740.900991947,165029.96384599028 L -5453089.67419087,167520.35897726836 L -5458938.288917658,168564.34143712503 L -5464324.816438163,167563.78855795585 L -5473880.4815278575,157265.62301536024 L -5474880.575833144,165323.61178649255 L -5477451.610792506,173566.72309148524 L -5480702.028604178,178079.99381832362 L -5493040.680963704,177601.4680105758 L -5499916.663271024,173186.09248905184 L -5511054.0670054,168292.4044522442 L -5513173.924068576,181527.48076276435 L -5520098.7756323535,190652.10367159933 L -5527077.951107637,193512.53015010737 L -5538008.7458671015,195437.58206405217 L -5544281.37653432,199320.37199789227 L -5556103.617776057,196285.90245187067 L -5567083.39311147,190217.09591549772 L -5573290.790557085,189695.1100493596 L -5578139.199659095,194600.17952035845 L -5603648.172293865,195502.84592266267 L -5615339.947092392,200484.23207924643 L -5622482.205621689,199070.22647858947 L -5632994.550415261,189020.7734569385 L -5634679.593547397,182332.20266067126 L -5640935.86024947,168781.8244304941 L -5646550.704045592,152687.48224433212 L -5650551.303905721,138073.00026670418 L -5647181.217641445,125438.21233996474 L -5640370.579875222,125862.19922140344 L -5632309.601588408,127743.31371734294 L -5630597.507820007,126851.68967980967 L -5630200.65383533,122806.9006139959 L -5631978.092144826,119447.1178475438 L -5644968.965400911,119979.87543957503 L -5653171.208121541,112477.69959846424 L -5654595.318367259,100887.49527380204 L -5652910.275235121,76794.93823053624 L -5651844.9477082295,71848.23203482923 L -5646115.890114553,64944.69051693626 L -5644240.60197265,58834.96636546792 L -5645659.257563319,52344.68194936773 L -5643196.981746463,40570.995970259326 L -5637832.161526663,30373.86050633935 L -5617356.499668111,17524.15892779032 L -5593608.712697182,12958.265559869102 L -5524637.382591486,25514.38401820582 z" /><path fill-rule="evenodd" fill="currentColor"    d="M -4912450.871105135,2649187.480854913 L -4908972.137017845,2652509.8481799997 L -4915396.94142898,2652178.8037560596 L -4922604.4331798805,2655111.4582424928 L -4933687.401683259,2657713.6073849997 L -4938149.97743018,2652840.8993644128 L -4928572.60503978,2646078.4551061513 L -4925093.87095249,2640984.7831981205 L -4922593.523869783,2642048.2836912232 L -4919386.63197901,2645723.818984935 L -4912450.871105135,2649187.480854913 z" /><path fill-rule="evenodd" fill="currentColor"    d="M -5408393.340164499,3048901.849039948 L -5410469.671306776,3050419.0416965294 L -5417448.84678206,3034999.540860371 L -5403419.807954838,3020190.2746221065 L -5398728.9159323,3026199.3901720634 L -5402457.784915402,3037922.1144509083 L -5406572.3759341035,3046183.434187251 L -5408393.340164499,3048901.849039948 z" /><path fill-rule="evenodd" fill="currentColor"    d="M -5038348.428454223,2739907.5776496953 L -5038419.116330877,2746257.984632001 L -5043055.573122417,2743022.9741242244 L -5055334.446915387,2745484.8244320103 L -5059628.484953248,2740692.2741273213 L -5043033.865821712,2720242.522480472 L -5039685.598177632,2723211.5010022703 L -5037103.653908173,2726941.328860977 L -5035326.215598677,2732145.6312996717 L -5037239.575006431,2735509.0090928418 L -5038348.428454223,2739907.5776496953 z" /><path fill-rule="evenodd" fill="currentColor"    d="M -4953641.197768971,327383.7820287172 L -4964599.26580368,338302.3777902663 L -4960990.06527318,325631.3232572439 L -4962832.73680428,316901.6062134404 L -4961408.626558563,310142.5890479403 L -4953934.747266193,303601.5730152446 L -4951651.807149005,302632.8911108818 L -4952304.139365053,310675.8837550257 L -4951776.818937166,313146.56564588216 L -4953641.197768971,327383.7820287172 z" /><path fill-rule="evenodd" fill="currentColor"    d="M -4312945.43073199,1470824.466051894 L -4317304.701991456,1473291.2353332678 L -4317744.970577543,1466025.5033139468 L -4306379.25056755,1456865.0292319462 L -4304514.871735743,1446045.9551584297 L -4298552.154530893,1451053.4039989228 L -4296964.961231163,1456586.180258581 L -4297062.81106357,1458884.3384939935 L -4312945.43073199,1470824.466051894 z" /><path fill-rule="evenodd" fill="currentColor"    d="M -4330724.934523529,1513873.7261396786 L -4334546.19868399,1520615.2335242277 L -4338965.24851001,1519608.927575588 L -4340704.615553655,1515092.1711719336 L -4343927.8714095745,1510687.8699121615 L -4342193.959020979,1507245.4595570385 L -4339247.888697135,1505289.8250939602 L -4331121.788508207,1505591.4751313739 L -4330724.934523529,1513873.7261396786 z" /><path fill-rule="evenodd" fill="currentColor"    d="M -4996364.393821031,146717.6661656274 L -5003490.399704672,152078.6135379698 L -5005800.5017776145,154840.5814622285 L -5011698.097080351,152785.36013420203 L -5010627.203578918,149708.06964715157 L -5008887.836535274,150023.413475613 L -5007001.750402764,141085.02493834286 L -4996940.583505376,142150.61508122442 L -4996364.393821031,146717.6661656274 z" /><path fill-rule="evenodd" fill="currentColor"    d="M -5536834.659197705,-29851.988917041315 L -5532274.3449378675,-24041.393397789285 L -5548048.205463784,-766.434695956222 L -5556745.0406820085,2581.8330204775466 L -5566251.725195754,3261.327263886929 L -5578568.670254575,-3674.4339553552213 L -5597766.940956274,-3179.7300667330223 L -5603762.274771927,-4826.702261999521 L -5604392.788367781,-14969.479628413146 L -5596326.466745409,-25797.026491924273 L -5580221.096775911,-25215.48882184225 L -5552505.326555655,-33901.50867587945 L -5536834.659197705,-29851.988917041315 z" /><path fill-rule="evenodd" fill="currentColor"    d="M -5599256.284423597,-215836.79843904419 L -5610366.41488273,-210751.7762248108 L -5616747.804692455,-212715.08620792255 L -5622634.379365602,-225974.73183118878 L -5620634.190755029,-237010.64264666522 L -5612589.576433362,-240671.3889728412 L -5606344.107721896,-239888.03476973623 L -5604044.914959052,-238473.8400512216 L -5598489.849729486,-220410.80688694934 L -5599256.284423597,-215836.79843904419 z" /><path fill-rule="evenodd" fill="currentColor"    d="M -5638652.920132282,14654.221980363089 L -5669097.242391371,36439.965634281645 L -5679408.4328650795,29286.70246782978 L -5681533.744583305,25144.800394324324 L -5679783.468229562,20970.292137135828 L -5680158.503594045,19187.39033221974 L -5676745.00272836,11718.94334793287 L -5659726.367656393,5587.6825551216425 L -5651165.453536427,4549.516655025467 L -5640223.749466865,6457.422125096156 L -5638397.441900911,11784.176680262151 L -5638652.920132282,14654.221980363089 z" /><path fill-rule="evenodd" fill="currentColor"    d="M -5504069.325555576,12512.541430109957 L -5533562.534085328,16002.193589532259 L -5547058.909149104,10452.459586128938 L -5544009.645657295,5772.472983122368 L -5533948.478759908,-1685.0431517395 L -5521691.312267642,-6979.1768680355 L -5510700.738941622,-9316.442816901768 L -5499237.169099222,-6370.481558826107 L -5496100.8537656125,-119.55713311897728 L -5497052.07881444,6174.781799364449 L -5504069.325555576,12512.541430109957 z" /><path fill-rule="evenodd" fill="currentColor"    d="M -5613410.3350389805,-15502.144911745387 L -5615394.271003898,853.3752189673686 L -5635429.664276362,-6055.224611302808 L -5633929.4114989415,-22796.610458830128 L -5624553.193428406,-27487.539032306715 L -5616242.1915652715,-36390.98426000819 L -5613404.880383932,-47305.76263989477 L -5613236.453994362,-62145.31165129384 L -5610154.46257226,-64721.81738260192 L -5607469.325134834,-65776.4021016553 L -5605045.1205838295,-64759.89060973603 L -5604104.693525608,-42478.941165238386 L -5602963.223467014,-28835.519888214592 L -5613410.3350389805,-15502.144911745387 z" /><path fill-rule="evenodd" fill="currentColor"    d="M -5582998.629390693,-43750.906729754875 L -5595065.439553703,-39983.99659100863 L -5597315.763060089,-43506.22076464521 L -5597332.015705745,-57497.74103439315 L -5593934.878805207,-65173.01867035921 L -5578530.598988725,-67320.15351024063 L -5576954.314999091,-69576.06158241854 L -5572524.355862973,-71027.42194624542 L -5570072.878036724,-66216.69425711107 L -5570431.6607555505,-58198.97134824277 L -5582998.629390693,-43750.906729754875 z" /><path fill-rule="evenodd" fill="currentColor"    d="M -5769969.732932169,159625.32228378463 L -5781753.902908053,161724.1378451906 L -5766577.939367188,133875.85838126193 L -5752994.512461611,120915.01456415995 L -5752798.812796797,95190.38113787804 L -5738079.481807166,72315.69242766083 L -5724545.035477538,62998.72793470824 L -5705569.626396407,60269.93715216602 L -5695187.748046044,74218.26805353187 L -5708053.609513968,113749.7247928477 L -5711814.983788382,113978.07745184007 L -5729072.844446063,134832.75034600962 L -5748281.913138369,149392.72618457628 L -5769969.732932169,159625.32228378463 z" /><path fill-rule="evenodd" fill="currentColor"    d="M -5397424.474139185,3219628.4466985385 L -5405072.234476172,3225317.9534031907 L -5403691.538831864,3195471.4241518867 L -5399571.493158114,3185516.500735568 L -5395070.846145342,3178091.7326390482 L -5389521.235570825,3173486.940542627 L -5385406.533232633,3179990.4529216625 L -5388928.681921332,3194404.4949152125 L -5398636.520754942,3212087.061544952 L -5397424.474139185,3219628.4466985385 z" /></g></g>
</svg>
