<?xml version="1.0" encoding="UTF-8"?>
<svg xmlns="http://www.w3.org/2000/svg" viewBox="-8792641.781378275 -3115988.528381724 694453.1736554522 731572.5198322898">
  <g id="map"><g><path fill-rule="evenodd" fill="currentColor"    d="M -8644817.289969163,-2783835.8597336705 L -8644643.297605053,-2781040.078190085 L -8655677.396851974,-2773341.1839964194 L -8647660.05580555,-2767849.2682880317 L -8640104.69064592,-2779794.401533475 L -8634109.245510776,-2770088.618970837 L -8630826.211088302,-2751902.7929282957 L -8631358.874851746,-2748738.12710665 L -8630809.958442647,-2746025.959500727 L -8629635.871773249,-2742547.3327928185 L -8629347.776931075,-2737506.125768846 L -8635468.12253489,-2721655.6790866996 L -8657460.289816517,-2723282.7711090427 L -8657960.336969161,-2736644.2927012336 L -8661357.58518919,-2739223.9678217694 L -8666472.381832669,-2758329.4825825887 L -8673353.707475547,-2764490.783494098 L -8682909.372565242,-2780217.590826044 L -8677359.761990726,-2784276.985066344 L -8669962.025230058,-2782923.735798352 L -8666173.488999888,-2784819.587634535 L -8655916.622437688,-2786333.9447262813 L -8649687.517691368,-2788486.5593776037 L -8644817.289969163,-2783835.8597336705 z" /><path fill-rule="evenodd" fill="currentColor"    d="M -8596718.364387205,-2987220.4094600575 L -8599033.921115197,-2986138.843646595 L -8608698.234027905,-2998536.6140853786 L -8616481.915463153,-3002141.3331385655 L -8604322.598803293,-3010914.8348881374 L -8599071.881061556,-3018458.2343859696 L -8599180.640204063,-3034926.7821089374 L -8596212.862579511,-3043956.892287614 L -8597218.411539849,-3051778.524025008 L -8594538.728757473,-3059768.4783210466 L -8598164.181933628,-3068747.3022863315 L -8608328.65331847,-3075871.127862291 L -8628440.077803148,-3104244.124793399 L -8660210.660475548,-3111142.1460712533 L -8676658.560518216,-3111428.5029729046 L -8667619.306546314,-3115988.528381724 L -8659270.344736816,-3115433.740464539 L -8646420.735914549,-3112720.801431294 L -8631032.820063213,-3111410.2778180325 L -8621629.328717433,-3103050.1611579517 L -8612649.853312084,-3091973.812673855 L -8604540.005768811,-3087494.678572303 L -8601202.64743483,-3084647.174711225 L -8601577.682799313,-3081435.3841824546 L -8600229.715085298,-3078418.848233161 L -8589646.682415072,-3073244.9339652145 L -8578987.618532633,-3064895.077585515 L -8575862.212509122,-3040438.740154626 L -8590222.872099418,-3028877.6680703536 L -8592864.594935434,-2993566.6330014714 L -8596718.364387205,-2987220.4094600575 z" /><path fill-rule="evenodd" fill="currentColor"    d="M -8129312.312834223,-2414833.0445342916 L -8132861.734798168,-2406078.8674482554 L -8144640.561438495,-2389392.62179281 L -8170937.564748589,-2385190.0412973305 L -8199908.907505501,-2384416.008549434 L -8202148.32170179,-2388967.7172671678 L -8202778.835297642,-2392967.395440713 L -8200664.4328895155,-2399221.9071898037 L -8200860.132554331,-2401685.9841604116 L -8202061.381179481,-2404202.666607587 L -8191451.297872993,-2406900.506260573 L -8184553.608264969,-2414646.4328936264 L -8173579.287584604,-2415952.397629486 L -8159892.556191572,-2410507.814939259 L -8152522.092706149,-2410309.6707573994 L -8141607.5505923405,-2416313.8295286936 L -8132834.5728424145,-2429285.154018262 L -8127621.9263665285,-2427628.236945206 L -8129312.312834223,-2414833.0445342916 z" /><path fill-rule="evenodd" fill="currentColor"    d="M -8654405.571669659,-2839850.571587938 L -8654650.140590932,-2825019.2407025346 L -8653432.528000636,-2813935.0649089133 L -8654557.745413575,-2809987.364594786 L -8666602.84827588,-2802584.316366838 L -8669695.637688588,-2798448.5092377216 L -8681050.448388483,-2794278.0112055386 L -8687920.976040754,-2788474.5907616103 L -8691361.638862193,-2797905.4291358474 L -8698031.012194598,-2803736.350177676 L -8699150.77495249,-2813654.3196978527 L -8704249.318950312,-2810303.7548767617 L -8711598.075135028,-2812346.3225075975 L -8723719.320529036,-2819861.514223149 L -8731377.990176124,-2830071.0613513016 L -8720648.238417031,-2831841.06212242 L -8718430.531521449,-2825497.4148778017 L -8709940.305278135,-2833282.3930202345 L -8711869.917331547,-2837385.688084806 L -8713402.67540028,-2837912.154854886 L -8716185.662670111,-2845547.6587059344 L -8703412.196379546,-2865564.429687819 L -8700656.371065466,-2878491.665084158 L -8706450.661880748,-2899254.9522934845 L -8701042.315740047,-2900618.5640808023 L -8686627.332238244,-2893333.3410172216 L -8680169.91121631,-2886165.7141214646 L -8679957.958905838,-2876332.365232079 L -8673897.280549088,-2868723.227790018 L -8665124.414118653,-2850510.50810211 L -8654405.571669659,-2839850.571587938 z" /><path fill-rule="evenodd" fill="currentColor"    d="M -8737786.43062211,-3089661.093115408 L -8724300.964868432,-3085784.886596108 L -8717077.109152384,-3086314.2134877653 L -8712744.999848673,-3088863.807107054 L -8692791.20376296,-3087823.302234624 L -8676680.267818922,-3091553.8454214903 L -8674288.67987872,-3084933.1204412435 L -8674696.331854004,-3081477.985705776 L -8708956.463618504,-3078236.523942442 L -8740384.627537224,-3068528.5125679537 L -8757609.760264613,-3061954.9356332184 L -8765703.243842738,-3061226.120833465 L -8771888.933987647,-3064682.443456422 L -8792641.781378275,-3084732.397150005 L -8787092.059484266,-3082730.926210123 L -8771758.467544438,-3071397.064968104 L -8762235.419065546,-3073463.671589638 L -8753413.57205916,-3080954.9425091646 L -8752065.604345147,-3086618.510622249 L -8753380.955448357,-3089302.0159734874 L -8749391.264898328,-3098250.7464563726 L -8737786.43062211,-3089661.093115408 z" /><path fill-rule="evenodd" fill="currentColor"    d="M -8610290.881982684,-2877447.968988757 L -8622863.193953386,-2874898.9809246906 L -8631848.124013783,-2877411.9765204494 L -8634152.771431677,-2879433.4613438817 L -8630304.456634954,-2882829.256935985 L -8621835.937692346,-2885661.6586275403 L -8608236.258141113,-2885943.735883057 L -8602278.884271821,-2882595.285327192 L -8601561.430153657,-2881131.3249091846 L -8610290.881982684,-2877447.968988757 z" /><path fill-rule="evenodd" fill="currentColor"    d="M -8244045.415812673,-2598613.022034342 L -8241512.452119163,-2596450.4479860994 L -8248616.639382609,-2591607.8876635423 L -8264607.906874045,-2597599.5215549897 L -8268211.652749495,-2597187.0429770346 L -8271386.039348955,-2603557.957689945 L -8272592.742629155,-2608280.2487704516 L -8271820.853279994,-2612632.4618100305 L -8262297.804801102,-2609247.3076977683 L -8257166.755511968,-2603009.7616785867 L -8244045.415812673,-2598613.022034342 z" /><path fill-rule="evenodd" fill="currentColor"    d="M -8285447.694786982,-2761704.4439624846 L -8294269.541793365,-2748500.2181657213 L -8298971.343126001,-2749624.3787685963 L -8296297.003679183,-2766217.5586285726 L -8290187.456065976,-2768849.7947036433 L -8287790.4134707255,-2768706.8410063554 L -8285447.694786982,-2761704.4439624846 z" /><path fill-rule="evenodd" fill="currentColor"    d="M -8260656.287589865,-2537210.2989522517 L -8268467.130980866,-2533593.8661650713 L -8266733.218592269,-2539829.056558827 L -8251752.954716218,-2550396.4895195267 L -8243469.226128328,-2559694.716525216 L -8238762.081460133,-2562987.3958443096 L -8237082.492983045,-2565545.498056214 L -8230516.312818604,-2568980.402645078 L -8227222.369086031,-2574969.7784046526 L -8228130.17953345,-2579860.6453090217 L -8235011.505176327,-2587944.453132179 L -8234913.655343919,-2593640.1280080248 L -8232543.774704422,-2597652.500094203 L -8220938.940428205,-2599526.529152277 L -8224004.5678851595,-2593457.584135441 L -8219444.142305832,-2576293.9323491505 L -8234815.805511512,-2554945.0502288584 L -8247986.125786755,-2548334.138465932 L -8260656.287589865,-2537210.2989522517 z" /><path fill-rule="evenodd" fill="currentColor"    d="M -8532508.50286121,-2935730.7566285334 L -8514185.425996128,-2921827.5122933122 L -8498552.82990403,-2916582.582593339 L -8481653.751965173,-2899200.8237477927 L -8474375.572337618,-2893015.095227987 L -8473076.473880062,-2887384.194539829 L -8475924.6943715,-2861705.212077582 L -8479724.139911762,-2846266.012509713 L -8479153.404882466,-2832744.082660045 L -8483121.388131792,-2836745.547567039 L -8487132.785982529,-2845601.595357781 L -8493709.764137575,-2850696.03792104 L -8495900.309077406,-2853366.7900224486 L -8484078.06783567,-2853953.66294127 L -8483028.992954433,-2867913.9469757923 L -8477261.864094907,-2878935.6509299297 L -8478136.946612032,-2890409.496313585 L -8491932.32582808,-2903051.69663446 L -8501390.141085368,-2914189.3606790453 L -8515930.13637533,-2917755.3806484416 L -8529377.64218265,-2928855.8417132827 L -8537400.43788412,-2930222.162550312 L -8547184.419249432,-2928265.9120073146 L -8543651.361250635,-2934887.7574851 L -8541205.338079434,-2943651.1993342186 L -8539411.647124281,-2945290.1176941465 L -8532508.50286121,-2935730.7566285334 z" /><path fill-rule="evenodd" fill="currentColor"    d="M -8422939.28842168,-2686547.7181823403 L -8427592.109178366,-2685830.8487118194 L -8435902.99972201,-2689036.382641699 L -8455378.455955783,-2703804.380151711 L -8464412.255272638,-2705079.6503104293 L -8461444.47764809,-2713416.005024901 L -8454563.152005212,-2710502.207316998 L -8438854.5247009,-2697761.535609437 L -8432924.312787363,-2691383.178107383 L -8422939.28842168,-2686547.7181823403 z" /><path fill-rule="evenodd" fill="currentColor"    d="M -8331204.013004684,-2619245.355830533 L -8331916.012467797,-2616147.948367624 L -8345994.031870969,-2640311.313196934 L -8363670.342494543,-2646184.8474520645 L -8373823.904569286,-2652025.0290186233 L -8371714.9568162095,-2655342.164834107 L -8364670.43679983,-2656785.094166093 L -8363496.350130433,-2664451.3459020224 L -8366502.199020832,-2672748.751425804 L -8375818.749844302,-2689516.369967753 L -8381047.648965844,-2700886.511456284 L -8383450.146216145,-2703507.868346303 L -8384135.095042996,-2713047.96806184 L -8373073.833840323,-2698277.364019901 L -8368475.3369951425,-2685155.506426983 L -8361072.1455794275,-2672316.6674850686 L -8356109.5226798635,-2650192.315920033 L -8341960.81540004,-2642680.560365233 L -8331774.63671449,-2632006.7861484913 L -8331204.013004684,-2619245.355830533 z" /><path fill-rule="evenodd" fill="currentColor"    d="M -8383292.517817182,-2777797.987111389 L -8382553.356398314,-2771595.6869336744 L -8390010.871725539,-2772852.664244813 L -8401017.809016703,-2770428.227208013 L -8404980.337610982,-2770362.598315628 L -8402512.607139075,-2774610.138036088 L -8394870.190137645,-2780354.669031501 L -8394484.356782556,-2785827.0667778165 L -8403942.060720354,-2793723.226992866 L -8414948.998011518,-2813385.567535181 L -8420101.865920847,-2818051.1701730206 L -8422547.889092049,-2825449.6702421787 L -8431782.842728768,-2833389.9348809435 L -8429853.230675356,-2837636.851023962 L -8427956.23523275,-2838636.0303582065 L -8421710.877840774,-2836595.960702891 L -8407567.625215998,-2808279.556325073 L -8406643.562122924,-2805568.9750683764 L -8383292.517817182,-2777797.987111389 z" /><path fill-rule="evenodd" fill="currentColor"    d="M -8130888.708143347,-2563116.7368117957 L -8123980.109225227,-2561376.2573506744 L -8120224.189605861,-2561499.685372547 L -8107483.3399260985,-2557884.0431006816 L -8099895.358155665,-2552923.302078475 L -8098188.607722823,-2550878.330881419 L -8102265.238795163,-2546454.1889116894 L -8113984.175549445,-2554833.3464044738 L -8124213.880155892,-2555914.7862595413 L -8138590.792391842,-2555714.9601942203 L -8144347.011941273,-2557296.1792039885 L -8140504.151799599,-2566280.603360225 L -8130888.708143347,-2563116.7368117957 z" /><path fill-rule="evenodd" fill="currentColor"    d="M -8116984.569784794,-2452399.4088927605 L -8131812.659916932,-2446528.926065216 L -8133302.003384256,-2453433.5759675754 L -8125741.183569576,-2458973.2743435707 L -8116984.569784794,-2452399.4088927605 z" /></g></g>
</svg>
