<?xml version="1.0" encoding="UTF-8"?>
<svg xmlns="http://www.w3.org/2000/svg" viewBox="9878354.69002142 -3288263.671604498 372322.28585292585 202028.45966396667">
  <g id="map"><path fill-rule="evenodd" fill="currentColor"    d="M 10200420.233282851,-3218743.9323863834 L 10199746.193766098,-3215894.1493557026 L 10196604.42377744,-3208311.8270499115 L 10194560.709245965,-3200071.2421173286 L 10196278.368988907,-3193319.1901345225 L 10203333.575676404,-3185277.561344485 L 10212791.39093369,-3178869.5279530217 L 10224836.605115484,-3178379.5908318586 L 10235935.937584009,-3180848.0168176536 L 10240371.240055686,-3179831.139562535 L 10246393.847146584,-3169110.175945069 L 10250676.975874346,-3159828.660779303 L 10244860.977758361,-3150272.185657807 L 10241675.793168293,-3141894.9031737894 L 10240534.323109698,-3135958.737811435 L 10241240.979237255,-3133382.3593241884 L 10244828.36114756,-3128572.594991218 L 10248981.134751601,-3120373.0338065904 L 10249568.233746044,-3112836.654685616 L 10246926.510910029,-3107845.091675697 L 10241208.362626452,-3105365.070288953 L 10235131.431624047,-3106096.2781524216 L 10230109.030157927,-3105998.82317636 L 10223814.692190003,-3105115.3951848303 L 10213976.386913184,-3102343.561871892 L 10204833.828453824,-3098756.219195851 L 10187690.181593696,-3099419.9835942583 L 10180819.653941426,-3106851.857807368 L 10177580.145439852,-3106876.191763353 L 10161969.256648457,-3097252.0762056443 L 10144977.894851735,-3098932.8208873174 L 10114017.161474854,-3095729.888141889 L 10101091.410120884,-3094975.0273729004 L 10087807.09868707,-3096040.497480057 L 10081077.835468616,-3098080.2641650247 L 10068587.009365173,-3104841.1444613356 L 10057259.360621033,-3109776.8503775243 L 10045736.123531567,-3105261.5063665933 L 10041692.109070031,-3104433.02233089 L 10032440.791468164,-3092844.3276203834 L 10012427.216815894,-3089022.0891800006 L 9992467.966075135,-3086235.211940531 L 9986575.936746936,-3087774.575226907 L 9975335.228525104,-3088462.252166211 L 9974911.212584672,-3091164.305443607 L 9975248.288002795,-3093793.939287434 L 9972682.707698481,-3095882.1369899996 L 9968116.827464106,-3098037.6127352817 L 9960267.912807252,-3098932.8208873174 L 9950201.402574308,-3101819.6233501663 L 9944407.111759027,-3104573.1375261117 L 9923936.904555524,-3100522.335355659 L 9911989.651525628,-3106620.2505622176 L 9898433.497895295,-3115006.9569840427 L 9891584.67754373,-3118659.3833975866 L 9889084.330461022,-3131666.995330025 L 9886681.833210722,-3135848.820989105 L 9881344.174946675,-3140251.921320142 L 9878354.69002142,-3145426.078819384 L 9880757.18727172,-3150748.864859222 L 9894259.016990548,-3160684.979092717 L 9895346.051818144,-3163015.5693652895 L 9901596.975184659,-3181564.74316938 L 9910271.991782686,-3188323.2185720657 L 9918827.562567094,-3197703.627998974 L 9925295.781579638,-3212621.202363801 L 9937786.60768308,-3227954.5648725415 L 9951505.844367422,-3243698.990089246 L 9960941.952324007,-3256535.605358007 L 9967203.673681127,-3262524.0092455354 L 9980096.697104804,-3268946.6235546945 L 9990902.591395598,-3272720.2703878316 L 9998371.01603292,-3281325.827260544 L 10007383.10804907,-3286109.109767577 L 10016645.223641543,-3288263.671604498 L 10030386.167626591,-3287109.159814304 L 10043333.626281267,-3284035.033011324 L 10057520.293507453,-3279764.6318622325 L 10059161.81071869,-3276297.5140505005 L 10057955.10743849,-3270192.013786779 L 10055911.392907018,-3264003.0647983258 L 10055835.250375316,-3260829.4593478204 L 10058020.340660095,-3259092.0969958366 L 10071891.862407846,-3257909.293815603 L 10088894.133514665,-3258882.528288575 L 10098428.091303656,-3258020.1890562926 L 10119680.985846926,-3252317.0098852194 L 10125899.181283148,-3248290.4688370475 L 10132389.218915887,-3245200.5731051886 L 10138726.97148522,-3245754.539539569 L 10146760.676496787,-3252347.7803121125 L 10155218.39744879,-3257958.4963701456 L 10160469.115190526,-3258857.925311566 L 10164230.48946494,-3257046.8903462566 L 10170992.257974705,-3251701.2376868613 L 10184994.134846173,-3246677.7410329413 L 10197484.960949615,-3242886.7624957897 L 10201529.086730644,-3239299.8041583933 L 10200137.593095727,-3223892.3031026977 L 10200420.233282851,-3218743.9323863834 z" /></g>
</svg>
