<?xml version="1.0" encoding="UTF-8"?>
<svg xmlns="http://www.w3.org/2000/svg" viewBox="2223867.7614820586 2012702.1686223364 1045011.7198218559 1092565.4517378518">
  <g id="map"><path fill-rule="evenodd" fill="currentColor"    d="M 2811795.52953474,2013398.6025374162 L 2809599.6412593517,2019187.8423309105 L 2807925.396117821,2027629.2139978802 L 2809958.3126586876,2033925.4002480952 L 2814426.3430606574,2042372.783904608 L 2820861.9454623978,2049782.7813158901 L 2825775.6991055035,2054175.1703671792 L 2831602.606531587,2065068.7319238642 L 2837451.221258375,2078705.3440369223 L 2845137.0528612146,2089325.507157275 L 2867727.005808403,2113680.3484859676 L 2870227.352891111,2122413.5249309028 L 2873369.122879769,2131058.702653738 L 2887555.7901059547,2147716.865730114 L 2889762.6990109314,2153245.9193268768 L 2888816.9286171515,2164561.607687406 L 2903427.611783769,2198537.022167561 L 2913015.782164775,2218413.4414547435 L 2921136.5390181444,2222082.0455500623 L 2947139.992831018,2243276.7092285333 L 2969806.199629399,2260332.733684154 L 2996353.226515816,2271862.555836638 L 3015845.0467147366,2279452.649082078 L 3025465.945026036,2284996.8832368827 L 3030281.737517244,2290311.079266024 L 3034206.19484567,2300538.537124159 L 3036195.5854656366,2318319.927223923 L 3036880.5342924874,2329827.881526617 L 3057828.970028438,2329363.7404585173 L 3075157.407243282,2330408.133896359 L 3081245.2475557844,2332717.562199475 L 3083506.3690527775,2336002.462937381 L 3082973.705289332,2343595.8900291133 L 3083212.9308750466,2354922.328377658 L 3084028.2348256167,2364046.695150311 L 3082223.6345603666,2373803.913351106 L 3080984.3146693655,2385300.6542007904 L 3080147.3034180906,2399542.319240995 L 3082821.5315454174,2405123.2605741327 L 3099595.597696111,2423089.8708132813 L 3106640.0063930005,2434747.1465150504 L 3114119.229020928,2452405.2717515975 L 3118511.228210686,2458084.9175603827 L 3122022.467589287,2460340.9682795904 L 3137165.925838841,2462293.2251812476 L 3176171.162217896,2469707.1734010098 L 3200185.3367302935,2476457.151652561 L 3219285.757599585,2483455.7346681617 L 3227232.5220888443,2485305.233766867 L 3231113.4534963705,2487155.051784283 L 3232418.0066089765,2488887.9233378316 L 3230026.3073492832,2504315.9600667898 L 3230863.429920049,2509274.2222694224 L 3232983.286983225,2513729.5947011495 L 3236222.7954848,2517224.448900545 L 3240158.1621233243,2519417.896425731 L 3254670.9954575337,2521071.8774233414 L 3263356.92136566,2530471.364726044 L 3268879.4813039145,2534826.6293574586 L 3242723.7424276364,2537151.4997226465 L 3229765.485782355,2544985.628316806 L 3222231.8279234287,2559030.334717104 L 3210436.748637446,2569356.881784997 L 3194369.3386143083,2575934.8926681066 L 3177377.8654980953,2580455.091500497 L 3159440.6219881023,2582915.801796123 L 3140340.201118811,2595012.8307801113 L 3120054.895589516,2616755.542678422 L 3109716.543160054,2630448.034239181 L 3109303.43652972,2636081.7694824627 L 3104759.2635960476,2640961.1882875543 L 3096084.246998019,2645085.6145016025 L 3091181.4026650107,2650038.6810832447 L 3090039.9326064163,2655832.8965566014 L 3085419.7284605326,2658600.7470047246 L 3077299.082926654,2658364.1797585683 L 3071602.6419437807,2662599.5356883556 L 3068319.6075213053,2671322.094073257 L 3061144.6210617153,2676626.6299090665 L 3050067.1072133863,2678474.231532018 L 3040511.442123692,2683402.0060832924 L 3032477.7371121226,2691389.125636849 L 3026281.248976606,2695443.5491291974 L 3021921.9777171416,2695562.0447071143 L 3015149.299897278,2702060.736663139 L 3004180.4338719635,2717452.2091072053 L 3002354.014986518,2724613.124238535 L 2987265.1032874533,2782780.6528185946 L 2979035.6986110695,2789661.360635838 L 2963076.936410946,2801677.076906616 L 2950140.4983858597,2816079.5402123327 L 2944596.2311469004,2824576.948990288 L 2938519.3001444954,2828355.0185813154 L 2908873.9178708303,2835447.461710778 L 2897850.727934007,2839240.225581719 L 2884522.7792598014,2844757.6312244884 L 2881152.8043150166,2849726.108623894 L 2877880.5678831483,2867794.1299523255 L 2868694.594822378,2893747.636312645 L 2861204.4628843525,2912926.7100153733 L 2856366.851772949,2929626.261587897 L 2847974.3640425536,2950394.485669153 L 2840669.022459245,2957376.0003633066 L 2832374.384561257,2963757.492340532 L 2821525.075669054,2966907.0120716165 L 2806740.511457817,2968922.6488282117 L 2793282.096340401,2968331.239807922 L 2782867.7126987274,2968645.0482309354 L 2768430.910576729,2975997.5514510297 L 2754950.8994781,2976480.5698831063 L 2733545.719871424,2972242.2738864664 L 2716217.2826565797,2968126.075264999 L 2708466.217832135,2967269.111720137 L 2693148.9898574534,2953685.8549094624 L 2683299.7752705365,2953926.9957204983 L 2668275.9854735853,2952841.8313947488 L 2659840.0831417805,2949731.4858425325 L 2652012.9871051237,2942789.7356599453 L 2635010.604678813,2929144.652032849 L 2618399.621582132,2918110.2435322404 L 2603680.2905925005,2911579.9511337136 L 2589961.0539081558,2908526.3686252083 L 2576904.8361109756,2911243.3419562783 L 2566751.385355721,2914153.279944469 L 2562805.1094071,2915608.4002180514 L 2554923.689458936,2921298.2298977743 L 2546857.3678365643,2932094.216405243 L 2540193.337839716,2949020.2538233115 L 2537649.5761555987,2959390.3308141655 L 2530181.1515182783,2981420.614136797 L 2520299.320320559,3007900.928689509 L 2515559.5590415634,3015527.571117541 L 2510102.3436444043,3021195.610440883 L 2501448.9230275895,3026235.747488659 L 2473249.4696198376,3047324.0494193113 L 2459149.742915961,3071117.4904599288 L 2450246.4100423153,3078047.9751869743 L 2439516.6582832243,3081295.4976223055 L 2430461.0403461726,3083339.2488594134 L 2425460.3461807575,3087293.919056109 L 2419872.664340389,3099359.11851902 L 2415045.962539084,3103610.575408901 L 2409653.869044039,3105267.620360188 L 2393521.225799296,3103829.9065406895 L 2388357.4485798683,3102599.425576156 L 2345612.5452271043,3104963.046877828 L 2332578.14605012,3101137.5343965786 L 2323337.737758352,3099602.7051170752 L 2308748.87321193,3104597.4675547346 L 2302650.2349088206,3101308.0535491947 L 2297790.805177222,3091298.305988084 L 2295399.217237019,3071202.5074171503 L 2296160.197276082,3054158.083878598 L 2304074.345154539,3041269.7220286257 L 2310662.1213001944,3031835.2472363063 L 2317119.54232213,3019523.975808753 L 2317967.4628835027,3014026.07318484 L 2316673.8190809945,3009062.814082405 L 2315380.1752784853,2998959.938340824 L 2314684.428461028,2988634.4858084205 L 2305509.2533908645,2966074.340332472 L 2294214.2212575246,2936200.4941837997 L 2279060.0763368546,2902949.5647890815 L 2274331.113048466,2893819.6995291375 L 2264818.9738796717,2879415.5241580033 L 2229575.000455539,2852061.2783689513 L 2224215.6348907882,2848349.1849952335 L 2224215.6348907882,2845308.2558268486 L 2224183.0182799855,2818827.8274016134 L 2224150.4016691833,2783782.1392648425 L 2224117.785058381,2748827.298206609 L 2224085.168447578,2713950.087037257 L 2224041.642526678,2679149.292753558 L 2223998.2279252685,2644423.7141203973 L 2223965.611314466,2609772.1614272404 L 2223932.994703664,2575193.456249256 L 2223900.3780928617,2540674.644872077 L 2223867.7614820586,2511548.646939789 L 2249251.611009177,2511548.646939789 L 2280658.0676271925,2511548.646939789 L 2317978.3721936,2511548.646939789 L 2334480.596147777,2511548.646939789 L 2335426.3665415565,2506953.1694496963 L 2335404.6592408516,2485621.3551173266 L 2335339.426019247,2436778.304784753 L 2335274.192797642,2388082.8896889314 L 2335198.0502659394,2339520.152767073 L 2335132.8170443345,2291086.924772485 L 2335056.785832123,2242768.484084773 L 2334991.552610518,2194584.947760689 L 2334926.3193889135,2146521.6374842864 L 2334850.1768572107,2098564.0254772166 L 2334828.469556506,2074903.1164018407 L 2363593.3146579973,2073494.6131360596 L 2396673.905098052,2068663.0351903292 L 2450300.7339538224,2060811.3387304791 L 2500242.3310668813,2051098.173868589 L 2532822.7630348024,2045414.2822493336 L 2571469.328014522,2038668.72680358 L 2584764.6600779253,2037514.2496449524 L 2588352.1533077206,2038428.766282138 L 2593591.96173936,2040749.3601045893 L 2611529.205249352,2064610.9327949611 L 2622704.568930089,2082829.00289382 L 2624976.59973718,2090631.9594182079 L 2627107.366110454,2091457.0875660647 L 2632390.7004629937,2090219.3493396065 L 2638326.255712091,2087274.2908982183 L 2656557.048719305,2069120.9254128444 L 2660351.039604522,2064393.4056290302 L 2671961.3285357873,2055593.8203292089 L 2686061.0552396635,2046626.3469357954 L 2698823.612220131,2040292.1037960555 L 2711629.695121498,2034999.7425597075 L 2717554.4523799885,2036314.0738799882 L 2724533.627855273,2040886.5623887577 L 2730730.1159907896,2043721.8905944857 L 2759853.7438111077,2021711.8938187717 L 2772866.3243678967,2016652.7546171949 L 2807034.0609550388,2012702.1686223364 L 2811795.52953474,2013398.6025374162 z" /></g>
</svg>
