<?xml version="1.0" encoding="UTF-8"?>
<svg xmlns="http://www.w3.org/2000/svg" viewBox="2579840.1084442125 -7587495.431699808 1061448.7105544275 919184.7928808415">
  <g id="map"><path fill-rule="evenodd" fill="currentColor"    d="M 3535883.176153759,-6818421.602725448 L 3514771.5460443054,-6819695.877097487 L 3489420.31312799,-6819200.352424306 L 3475168.4126802,-6809215.317391819 L 3469656.7620520433,-6811513.6429128675 L 3459731.516252915,-6814051.521293986 L 3448751.740917502,-6808481.692533657 L 3433727.951120551,-6791645.436224131 L 3423661.329568115,-6781192.273343729 L 3413866.550212197,-6766583.874791702 L 3410768.3061444387,-6758657.098762264 L 3404582.7273190194,-6744080.545407579 L 3398918.9029469485,-6727464.706376997 L 3402006.237704609,-6715852.859392375 L 3406637.3511605905,-6705077.776071198 L 3407680.9713867777,-6693489.194171765 L 3409996.528114768,-6684405.852266065 L 3403810.8379698587,-6677802.1265531 L 3400201.637439359,-6668310.638818966 L 3389624.170743673,-6669961.244888333 L 3376698.4193897024,-6679080.723912516 L 3373980.665341476,-6692286.669020645 L 3364022.8029315453,-6701500.974506746 L 3357478.4413872994,-6706264.672484869 L 3346683.5677260943,-6707006.458781898 L 3329431.1617234615,-6702713.434334422 L 3306862.9160769787,-6699416.615208053 L 3289838.8263499634,-6698527.129245344 L 3280544.094146688,-6693846.4705395335 L 3266835.6554529504,-6689246.617743615 L 3261530.6137997056,-6694682.972451684 L 3253920.924728568,-6709686.389038071 L 3247659.203371447,-6724647.611249999 L 3243365.165333587,-6731219.302829605 L 3239625.498359878,-6733057.8890903145 L 3235027.0015146984,-6732681.316232732 L 3229721.9598614546,-6727928.492660754 L 3225786.5932229306,-6723064.531760671 L 3220198.9113825625,-6721341.907799312 L 3211512.9854744356,-6717408.406291046 L 3205251.2641173135,-6712070.461812548 L 3198348.119854241,-6698317.852525736 L 3193782.239619864,-6699294.46362876 L 3189053.3876509657,-6702451.704970454 L 3183628.677545119,-6717845.308547043 L 3176171.162217896,-6721394.374486077 L 3164212.999877901,-6721604.244613814 L 3149406.72836596,-6724866.343313253 L 3137405.040105065,-6729529.905431749 L 3133024.0615448956,-6728418.471795009 L 3125881.6916961083,-6721857.815055718 L 3118141.5361817614,-6720913.591724864 L 3101204.4982965463,-6726755.995930653 L 3097888.8472632687,-6724079.042864541 L 3093442.524162004,-6715433.420833136 L 3088148.3918188573,-6707102.449073626 L 3083549.894973678,-6706282.188587992 L 3080962.6073686606,-6708420.508306851 L 3082408.4249150837,-6723178.263913618 L 3072570.1196382646,-6728409.689904967 L 3055980.955161779,-6729214.974861205 L 3044327.1403096127,-6727071.010553348 L 3038608.9920260347,-6727657.170892557 L 3035695.538312993,-6730554.006959237 L 3021432.7285551047,-6755416.662406113 L 3013877.363395475,-6756997.2410099795 L 3000375.5336766494,-6755767.855531531 L 2980405.4849452805,-6758771.3298876975 L 2957413.2233583652,-6764386.106395302 L 2944781.021501617,-6766460.8906250615 L 2938204.0433465694,-6772045.855115165 L 2924039.0834210883,-6773955.164268073 L 2885990.4154264196,-6784504.742451959 L 2870455.6691667275,-6786364.280650151 L 2847582.9647129243,-6786531.7917941725 L 2812730.5019379123,-6788876.5892935 L 2790412.16854826,-6787571.954669794 L 2780073.8161187978,-6784073.083072734 L 2768115.653778803,-6781905.7498415895 L 2747938.996072522,-6779950.378725894 L 2739720.5007062363,-6780170.604982072 L 2726794.860671757,-6779008.216987725 L 2711955.8612295226,-6776208.348785794 L 2707705.237793072,-6770963.722378135 L 2702845.9193809642,-6759491.652616824 L 2685789.2130431463,-6739715.167694477 L 2669254.3724781675,-6726563.552723408 L 2666232.2709421115,-6725443.745371691 L 2656557.048719305,-6732418.801465822 L 2648479.817786836,-6734774.206154534 L 2639032.9118396463,-6735527.563105888 L 2632336.376551486,-6733294.242291792 L 2628096.662425134,-6730002.593027016 L 2628672.8521094797,-6714760.8253242 L 2627726.9703962095,-6713424.2088138275 L 2620421.6288129007,-6731508.134543328 L 2620997.8184972466,-6747904.263416075 L 2625063.65157898,-6757278.177039762 L 2629999.1125227907,-6765722.3045767415 L 2627966.195981924,-6778418.159197336 L 2632825.5143940323,-6795244.618226889 L 2632977.688137946,-6807430.15290471 L 2630847.033084163,-6812716.201700631 L 2626911.666445639,-6818784.417894929 L 2616138.5000851387,-6825548.048561679 L 2611376.920185947,-6830837.070423191 L 2596766.23701933,-6837903.454605361 L 2582275.2223053155,-6846716.41054226 L 2579840.1084442125,-6852117.050638505 L 2580524.9459515726,-6855823.203203178 L 2583068.8189551807,-6861452.584316937 L 2594113.716192708,-6877953.773056589 L 2606093.6971528986,-6894006.650690338 L 2613736.0028348383,-6900476.00239983 L 2654382.867744622,-6921125.611107623 L 2660677.205712546,-6928361.422024168 L 2662253.4897021786,-6940615.523231289 L 2662351.339534586,-6949541.695638416 L 2661579.4501854256,-6965423.193477158 L 2659100.810403422,-6988093.5154838795 L 2655991.768345057,-7003762.033979617 L 2648208.0869098096,-7033273.888285256 L 2627020.425588144,-7094615.617055031 L 2614301.2832090864,-7158762.422891554 L 2622585.011796977,-7154986.518343815 L 2642022.3967649,-7153556.113206879 L 2657481.1118123797,-7157986.7128390595 L 2665482.200213147,-7158605.459315308 L 2672613.5494323457,-7157220.532918932 L 2683234.5420489316,-7159750.6086828215 L 2692964.1995027363,-7160775.615780939 L 2698008.308269561,-7155014.3049428705 L 2707063.926206612,-7149911.906481255 L 2724935.9364949996,-7157257.403150913 L 2740764.1209324226,-7166338.019694488 L 2757179.4043642897,-7165358.282703845 L 2759527.577703083,-7169823.356873906 L 2763582.501474719,-7192724.620844219 L 2768463.5271875313,-7197697.074752531 L 2788118.4304404645,-7195396.078857518 L 2795391.1554129706,-7199553.335578765 L 2802968.2278733053,-7210839.076391561 L 2814567.607494474,-7217888.180206903 L 2824242.829717281,-7217878.843753525 L 2834320.360579814,-7225800.142990204 L 2839277.528824329,-7220493.484068793 L 2841690.935384727,-7211006.412687479 L 2838353.4657312543,-7203415.518024669 L 2839799.394597168,-7200444.367064339 L 2846778.570072452,-7196694.997561233 L 2858747.530403054,-7196806.354284861 L 2866389.947404485,-7199943.0425032815 L 2868172.729049539,-7204279.216296803 L 2868151.0217488348,-7212159.016755305 L 2866270.390271373,-7219488.497875628 L 2861193.553574255,-7225837.526541853 L 2851659.7071047556,-7229106.986696584 L 2845050.112338905,-7229218.803486443 L 2843919.440270918,-7233254.241649806 L 2846169.763777304,-7241891.126758953 L 2852040.197124287,-7257837.259676887 L 2859258.486865795,-7272288.881735512 L 2863672.193356258,-7277752.633739619 L 2864433.173395321,-7282769.852758637 L 2863574.3435238507,-7291545.95348117 L 2863411.260469838,-7307302.038586147 L 2869912.096093184,-7329570.749664565 L 2878641.547922211,-7346217.096763854 L 2890349.6866858844,-7351619.243161215 L 2904656.0223646727,-7354553.716400807 L 2913809.37881464,-7362500.973335498 L 2918331.7331281174,-7371652.127017343 L 2920049.392871057,-7379379.555532649 L 2922223.573845741,-7386068.949533195 L 2926789.4540801174,-7389006.901118351 L 2961228.9215442864,-7387171.719535149 L 2966490.5485961214,-7401598.260600916 L 2969447.4169105724,-7405637.922692586 L 2976057.0116764233,-7409908.555340241 L 2980655.5085216025,-7415049.90114688 L 2978926.9394685645,-7419010.545603118 L 2970143.1637280304,-7421569.434891407 L 2949444.7515684017,-7423833.169604414 L 2945248.4520434584,-7428620.230381496 L 2946574.7124567693,-7434386.15984081 L 2952108.0703856307,-7449332.244916304 L 2957380.606747563,-7468658.1407572795 L 2960076.5421755947,-7483660.960511641 L 2960381.000982914,-7492512.78699821 L 2963348.778607463,-7494903.392869517 L 2980231.492581171,-7497738.137643555 L 2985862.700342439,-7500747.79869032 L 3000397.240977354,-7521266.86939339 L 3011474.8661451745,-7524759.813181815 L 3040044.0115818507,-7519477.514703022 L 3053176.1492717518,-7519883.762610949 L 3056741.935200842,-7519400.268619555 L 3069830.6582893333,-7518462.0875772815 L 3071243.8592249537,-7520522.195425922 L 3077125.0905625443,-7540861.441099979 L 3082908.4720677272,-7546789.29883224 L 3105400.686501999,-7573594.314736878 L 3120511.416821259,-7584998.009730782 L 3130067.081910954,-7587495.431699808 L 3133415.349555034,-7586919.753868206 L 3148591.3130958993,-7569553.417513262 L 3152157.0990249896,-7568881.802282228 L 3160593.0013567945,-7575698.360432932 L 3162256.225868737,-7576156.271664107 L 3179726.0388368885,-7576750.499547855 L 3187846.6843707673,-7570721.757145014 L 3193847.472841469,-7558940.626107278 L 3199413.4473811327,-7549536.409471317 L 3205414.347171326,-7546993.042016213 L 3222416.6182781453,-7558833.718043765 L 3231798.2910037306,-7562752.062823255 L 3237994.7791392477,-7562625.78122366 L 3259769.539455356,-7552022.3377820905 L 3270010.042052411,-7546226.39935046 L 3272358.2153912047,-7540958.367412954 L 3272564.713046626,-7534773.417917387 L 3269803.54439699,-7525582.600313507 L 3267607.544802111,-7515610.021015118 L 3274238.846868666,-7503835.723154588 L 3281946.4970917013,-7495877.021723653 L 3298405.1951249777,-7509039.6694624005 L 3304471.216817285,-7512710.722345339 L 3311102.630203331,-7512845.88525141 L 3319984.255776272,-7517736.892627984 L 3326409.060187406,-7525108.263019489 L 3332572.9317121203,-7527673.5606012875 L 3344335.3943873006,-7525921.373899402 L 3365588.288930571,-7527663.844958171 L 3390374.241472638,-7516093.277434854 L 3392505.007845912,-7512527.078736158 L 3404897.9841169454,-7498982.357379055 L 3409224.638765608,-7492262.319598037 L 3413312.1791480463,-7490132.786625114 L 3419921.7739138966,-7483555.0911366595 L 3428727.2569551356,-7479416.873016973 L 3434869.421179145,-7480677.458561183 L 3437793.7842022846,-7478483.734664272 L 3440533.245551216,-7473290.6789046405 L 3440750.6525167353,-7464499.172476303 L 3439837.498733758,-7439380.863515074 L 3435521.642075703,-7432128.938991717 L 3430977.580461522,-7426231.027275289 L 3429814.4031022224,-7421674.460071269 L 3430249.217033261,-7416147.21724503 L 3437261.009119348,-7405351.99623094 L 3446327.536366497,-7388617.005627545 L 3448425.574809478,-7378923.62133018 L 3448425.574809478,-7371670.976445195 L 3436076.1244593444,-7350370.144726848 L 3431966.876776201,-7345384.854719433 L 3429140.3635854693,-7334923.462182773 L 3427640.2221275386,-7324306.497834627 L 3428509.8499896163,-7319912.873182997 L 3449143.140247131,-7303068.403290785 L 3464406.0443103057,-7293941.127841888 L 3467841.252476696,-7289489.547425027 L 3468145.711284016,-7286720.128822028 L 3460025.065750137,-7268701.619515782 L 3459231.4691002714,-7263852.479111688 L 3471472.2716273903,-7256416.175732862 L 3478234.040137156,-7244681.831873708 L 3484202.211997055,-7225595.299544286 L 3495834.208229026,-7207353.998651583 L 3520859.3863568082,-7191241.016856366 L 3539068.360743827,-7180751.718298911 L 3542851.5536384364,-7175975.1156604765 L 3544166.9047416495,-7170304.207438659 L 3542775.4111067336,-7157857.561306408 L 3538068.26643854,-7142738.942306186 L 3534861.2632282763,-7134339.023003834 L 3542275.36395409,-7130850.845681194 L 3561354.0775226774,-7131780.322946793 L 3584531.129464309,-7128836.034323739 L 3612339.183542432,-7112212.200078423 L 3612426.2353842324,-7104770.745563409 L 3609556.1962726004,-7098005.2815417005 L 3611469.555680355,-7090870.210216328 L 3614502.5665265084,-7084821.021743944 L 3638560.155640315,-7066326.6804746045 L 3640864.8030582084,-7060961.868091445 L 3641288.81899864,-7052001.254861183 L 3640625.6887919838,-7045453.431694085 L 3633961.7701146267,-7044069.880657545 L 3626569.376689518,-7040994.196875745 L 3614469.9499157057,-7033155.688262859 L 3609675.8647252033,-7022047.882687829 L 3590129.720614775,-7006778.099991237 L 3578030.1825214727,-6999878.25726819 L 3568398.4862195663,-6999561.475536949 L 3545493.1651549605,-7002666.442049814 L 3537448.5508332937,-7010212.165177289 L 3534111.192499312,-7017139.166884738 L 3525294.8001479753,-7020250.98929661 L 3513575.752074204,-7020541.274985393 L 3497421.401528757,-7019343.589516827 L 3494138.3671062817,-7017256.943617314 L 3491485.8462796593,-7008744.16530638 L 3484626.227937487,-6994268.6887882035 L 3479712.4742943817,-6986087.380959671 L 3483756.4887559195,-6981110.494632554 L 3490203.0004677577,-6970696.8922234345 L 3500193.479488491,-6957478.411820216 L 3510477.508006446,-6945765.000943403 L 3513782.3610491166,-6938585.391478018 L 3513630.187305202,-6933476.188425866 L 3508727.342972194,-6927464.395506839 L 3509477.413701159,-6915400.755106037 L 3519467.8927218923,-6899492.755742485 L 3516087.0084670098,-6896981.638454523 L 3515086.9141617226,-6877525.852186904 L 3515173.8546840325,-6856792.388026826 L 3517869.7901120638,-6851788.218949486 L 3523250.9742970113,-6847675.407228425 L 3527784.2379205856,-6840121.282100039 L 3535350.5123903127,-6822909.187422255 L 3535883.176153759,-6818421.602725448 z" /></g>
</svg>
