<?xml version="1.0" encoding="UTF-8"?>
<svg xmlns="http://www.w3.org/2000/svg" viewBox="-9933873.05966475 -2094081.7385913075 161288.24986208603 302247.7964452787">
  <g id="map"><g><path fill-rule="evenodd" fill="currentColor"    d="M -9925409.99537719,-2015887.6932543523 L -9925507.845209599,-2026075.4997302704 L -9922300.841999335,-2034131.1359889824 L -9913049.52439747,-2037514.2496449524 L -9901047.947456066,-2030485.656673224 L -9896058.162600746,-2027549.3085276005 L -9891557.515587976,-2029217.4429929364 L -9885877.438570248,-2033513.9349079793 L -9878892.808439916,-2045934.5327375173 L -9861368.671560256,-2071582.4085353445 L -9854335.060853975,-2089806.747708067 L -9847464.533201704,-2093428.4486485925 L -9837571.904013379,-2094081.7385913075 L -9829027.242539069,-2092918.3667174152 L -9834995.525718458,-2079592.9693626938 L -9829027.242539069,-2077863.49643838 L -9823640.715018563,-2079106.1076846004 L -9810617.113832187,-2078642.2453029829 L -9805605.621676164,-2064032.8969663337 L -9806937.336744525,-2051790.162064678 L -9819210.755882446,-2019541.9535984993 L -9820765.332571374,-2008466.896026015 L -9826363.923721839,-1991933.7847484644 L -9818765.03264131,-1981044.4024101754 L -9825858.310594657,-1966571.7154483444 L -9828266.262500007,-1957255.1570863782 L -9828842.452184351,-1943202.6638745344 L -9825260.413609605,-1916522.7540300158 L -9831005.835168429,-1878118.15061731 L -9841148.487933075,-1861378.0351210115 L -9847448.28055605,-1855013.0528305836 L -9858710.696078585,-1838380.7987823938 L -9873500.714944871,-1833420.596358934 L -9893976.376803422,-1806651.0099211722 L -9897607.284634627,-1799628.5748228298 L -9895639.601315364,-1792059.9860715026 L -9900439.141160917,-1791969.5913865156 L -9920077.680448703,-1793224.268566432 L -9933351.19389191,-1791833.9421460289 L -9933873.05966475,-1792500.8532694543 L -9932775.115527056,-1821268.2851544898 L -9931084.617739871,-1865850.990988875 L -9929839.95451331,-1898600.9389940836 L -9928627.796578063,-1930683.1235483026 L -9927714.642795084,-1954750.2224989978 L -9926480.777559131,-1987543.1920411545 L -9925409.99537719,-2015887.6932543523 z" /><path fill-rule="evenodd" fill="currentColor"    d="M -9790614.448490016,-2028766.0576879692 L -9795903.237497604,-2026589.6479944051 L -9791554.764228746,-2033336.8762617207 L -9790918.795977846,-2037674.2549425382 L -9784798.45037403,-2055691.0559244049 L -9780412.017158812,-2055588.0799289914 L -9779254.183135072,-2053986.453983593 L -9790614.448490016,-2028766.0576879692 z" /><path fill-rule="evenodd" fill="currentColor"    d="M -9779743.432297107,-1970103.560053939 L -9788320.59906273,-1953793.8679611392 L -9788864.172136273,-1958450.8290441688 L -9785298.497526674,-1970525.1012499952 L -9780466.341070319,-1974764.0786152368 L -9777471.401490018,-1979231.8592310331 L -9776791.907318214,-1984510.1206504197 L -9772584.809802664,-1981933.5717424108 L -9773644.793993998,-1976724.3429745347 L -9779743.432297107,-1970103.560053939 z" /></g></g>
</svg>
