<?xml version="1.0" encoding="UTF-8"?>
<svg xmlns="http://www.w3.org/2000/svg" viewBox="1359619.7477560632 -592190.2739064512 2121788.567661063 2103817.162003611">
  <g id="map"><path fill-rule="evenodd" fill="currentColor"    d="M 3423204.808336372,915238.0617713346 L 3403919.5971123637,918203.7046674405 L 3376046.1984931454,922498.5454716868 L 3345302.872081785,927233.3288201353 L 3313559.4513651384,932122.4210544709 L 3282120.3781363205,936979.0879752332 L 3252268.498207233,941583.540629654 L 3225177.898247273,945759.7923998946 L 3216926.786270185,948067.9380302537 L 3220970.800731723,959863.2681174894 L 3219111.765235475,972288.7827703438 L 3213741.490360626,981890.7955199719 L 3205283.8807281163,993739.6344245045 L 3201413.747311197,998427.2255595713 L 3192782.145314577,1007672.0298324832 L 3185574.6535636764,1014166.7700152039 L 3170855.2112545543,1025121.9792717184 L 3161549.681060672,1031366.1238880396 L 3161495.245829674,1037027.4218110034 L 3177116.932611676,1063549.6611205991 L 3184204.8672294654,1082601.3225676084 L 3187085.704331704,1099819.9431359484 L 3186955.2378884945,1109706.8819927117 L 3186357.3409034437,1130062.8777972222 L 3185650.7960953787,1154286.3544908941 L 3184563.649948292,1163834.4530781389 L 3188803.3640746446,1181135.912278211 L 3188064.091336286,1194618.2124933444 L 3177530.0392420096,1209699.481320389 L 3174605.7875383613,1224532.6765727531 L 3169300.745885117,1244534.6888029843 L 3161940.9690708104,1272320.7026737833 L 3156712.069949269,1286926.9467303825 L 3159625.4123428194,1296435.0890462769 L 3162256.225868737,1302816.228899075 L 3165017.5058378642,1311396.5965480707 L 3170659.6229092306,1324332.614359886 L 3177236.6010642787,1331963.5467834028 L 3180910.923496892,1335251.9439057272 L 3202598.7432906916,1351543.820052754 L 3211567.3093859423,1359426.0708766559 L 3225308.364690483,1375063.2121712533 L 3235429.1988349347,1385433.2340317094 L 3249550.7441590065,1387870.5109565891 L 3266531.307965121,1391810.5535426568 L 3275858.6567791994,1394827.1992155917 L 3282316.077801135,1393368.9350185394 L 3284468.5514751137,1389684.6664620286 L 3284175.0019778917,1381872.3209999506 L 3283033.5319192978,1376097.933936403 L 3284838.132184548,1371692.7245730464 L 3290578.0990883214,1368756.2005040108 L 3305297.4300779523,1368289.1302351067 L 3311711.3251789887,1364385.429542337 L 3316777.2525660093,1363406.907076571 L 3316799.0711862044,1380570.4431786307 L 3316820.7784869093,1397031.4311875743 L 3316831.5764775155,1417021.70789725 L 3316853.3950977116,1439980.1066225946 L 3316886.0117085134,1458828.5873620855 L 3316907.7190092183,1478872.954907834 L 3316929.426309923,1502004.5025289855 L 3316799.0711862044,1504641.5633422628 L 3314559.545670425,1509827.2840849909 L 3308710.9309436376,1511626.8880971603 L 3300818.601685376,1507111.3335407746 L 3300361.969134142,1502373.1678223503 L 3298426.902425682,1493859.879248739 L 3294741.6706829714,1489514.8935843345 L 3289958.383483075,1488185.8443158062 L 3281859.445249901,1490363.7525419132 L 3270771.022091474,1496641.5626953584 L 3256508.2123335856,1502127.390412556 L 3250735.6288190093,1505278.6105508457 L 3240690.825886769,1504909.7919492244 L 3229852.426304664,1501903.927098722 L 3221840.4285937995,1494842.9368458474 L 3219546.690486004,1484265.9701906587 L 3212545.6963905245,1473380.6200644444 L 3203011.8499210253,1457668.348910197 L 3198217.6534110312,1451220.7262208909 L 3191858.0822215024,1443893.7308146 L 3185455.0964305643,1443068.647785977 L 3178269.3119803676,1441017.004643988 L 3173855.6054899055,1430293.0457800943 L 3169757.26711686,1416732.0650069122 L 3167202.5961226453,1411496.5147616642 L 3162908.558084785,1404725.1884041613 L 3156766.3938607755,1400616.3949164504 L 3143362.413974358,1395205.6551807462 L 3124609.866513795,1387636.7689708006 L 3101074.031853337,1378144.9266938851 L 3089876.849552404,1377688.7614912833 L 3077353.406838161,1376086.7697328017 L 3069504.492181309,1371559.22964339 L 3065003.845168537,1367944.270504995 L 3059840.1792686,1354778.7592696194 L 3052784.861261613,1339396.327737636 L 3032129.863703394,1321078.6913628376 L 3027487.9522568053,1300796.2802583033 L 3023346.0879628593,1297855.4586923616 L 3016247.244034973,1299508.962569253 L 3010757.4120270116,1302028.1904045315 L 3008594.029042935,1307466.8968577788 L 3003049.7618039763,1325754.2439682786 L 3000016.7509578224,1334196.538077174 L 2997929.5105054486,1336529.6964380678 L 2993428.974812167,1339285.275657953 L 2986036.5813870584,1341752.0687962777 L 2975535.2572230753,1342974.558174179 L 2960696.257780841,1342529.9592341206 L 2942139.409985093,1339774.2036417455 L 2932116.2030340666,1337729.6783264074 L 2905036.512384204,1334696.5345156724 L 2897198.50703745,1333207.83170676 L 2886131.7911797278,1329241.9471718029 L 2878152.4100796655,1325243.3596814177 L 2851877.114070275,1316603.7219279632 L 2839973.2756417873,1317658.5313018782 L 2834189.894136604,1311563.139346664 L 2829004.4096164717,1308576.870839273 L 2821883.85838788,1302838.390634352 L 2818687.7644877145,1294937.1791132549 L 2814448.050361362,1278064.7198761923 L 2815469.963286844,1269038.7186471976 L 2818535.5907438,1258984.4453554677 L 2815132.999188213,1256202.5687738813 L 2810371.4192890213,1256202.5687738813 L 2803566.124858356,1259671.6661003216 L 2791444.99078384,1261611.3976027183 L 2769278.8311381014,1266045.4051747457 L 2761430.02780074,1268550.882955493 L 2752722.2832724177,1270435.7380594565 L 2746058.3645950602,1272154.3644994295 L 2729393.0575868716,1281868.9268776304 L 2723609.676081689,1282911.4514460822 L 2713738.7541940673,1279439.983629711 L 2708977.1742948764,1274238.933095644 L 2713738.7541940673,1268340.2882426742 L 2715782.468725541,1261057.1606409461 L 2712379.877169954,1246839.1855114074 L 2707281.3331721313,1240247.524071147 L 2692507.566951502,1235506.7976125493 L 2686865.4498801357,1235052.8021613874 L 2684484.771250031,1227079.3430230748 L 2680397.2308675926,1219805.2839199263 L 2671972.126526395,1218399.4038529012 L 2667939.0213749544,1217569.0756218666 L 2663731.923859404,1219805.2839199263 L 2661351.133909808,1225695.2686156672 L 2660666.296402448,1230202.0255510563 L 2653176.1644644225,1233657.2840106362 L 2637869.734480348,1232970.6038920816 L 2622682.8616293846,1229681.5393554675 L 2611996.635791193,1228629.5922745105 L 2604897.791863306,1229437.9682020138 L 2577796.2825932484,1240590.9941102888 L 2568838.625808095,1242075.397243029 L 2539725.907297875,1241211.2455737877 L 2523223.6833436987,1238885.135456326 L 2511482.927969223,1238441.9826998631 L 2503144.8754698248,1241942.4493671877 L 2492773.9064295604,1250196.439570589 L 2484087.869201943,1254640.0230264307 L 2480065.6733606,1254130.2740256183 L 2477597.942888695,1250672.8819219237 L 2474206.1493237144,1245941.7820366006 L 2473151.61978743,1233546.4842978714 L 2468835.8744488657,1219893.8193681624 L 2471684.0949403024,1212776.2410487297 L 2480250.463715317,1207618.8482291023 L 2483207.332029768,1197118.4575819059 L 2480554.811203146,1181290.8163522535 L 2480380.930158527,1170168.1171778177 L 2482696.3755670274,1163757.1526590365 L 2479587.333508662,1148187.549381422 L 2471042.6720343516,1123482.3812449756 L 2458954.0432511466,1103383.797007067 L 2443310.6491684406,1087884.073698247 L 2433070.1465713857,1073052.1780826556 L 2428232.535459982,1058887.365817045 L 2430047.933715839,1025011.8125037625 L 2434765.9876941303,995148.0754857099 L 2438494.7453577416,971474.9189038157 L 2437440.215821457,931825.7321770794 L 2426862.7491257708,906046.129561737 L 2424547.1923977803,878338.7497466384 L 2430504.5662670736,848706.4628241922 L 2431396.0127493455,828420.9605441904 L 2427438.938810117,818051.148718331 L 2424721.18476189,816483.7924324096 L 2421318.481886812,815453.6176892288 L 2394575.755335581,814467.2331363932 L 2358896.9679804104,813152.0464572636 L 2327794.9701697147,812757.4634943599 L 2294051.2495230036,812341.0000200596 L 2288550.3968854537,808604.0928617299 L 2286039.2518121395,801689.7462409905 L 2286158.808945251,794841.9649041905 L 2293040.134588128,773910.1078983928 L 2292072.656893644,772201.7952062611 L 2280071.0799522395,771741.8139092183 L 2247544.860576334,775158.5769409344 L 2226107.1756783472,778542.701436685 L 2212496.5868170173,779648.8469040041 L 2188580.3734565177,785344.3577121693 L 2173806.607235888,797383.8035520284 L 2168925.470203585,812538.2894821655 L 2169327.667523821,825022.6366923226 L 2168490.6562725464,834165.8534450254 L 2161750.595063486,843727.4996331963 L 2156445.553410242,854706.0241179711 L 2156249.8537454274,860486.9482540253 L 2153010.2339243614,889709.5187971672 L 2130952.944740619,893628.4370731157 L 2108884.746246779,893628.4370731157 L 2103753.585638154,893255.2244609157 L 2076488.9933140832,886273.7845942886 L 2066389.7551508455,886262.8821907225 L 2057703.8292427184,889929.0449223744 L 2041027.6129244321,893496.6881773925 L 2025068.9620437992,896142.4180390016 L 2009001.5520206615,904794.3014547508 L 2004729.2212835064,905562.9578125038 L 1994075.6120561177,901072.0797279173 L 1979127.964790869,901489.3176624435 L 1964049.7397629204,903663.3793602049 L 1956951.0071545239,904596.6297974541 L 1952102.486733023,901994.3707017752 L 1938220.1669946664,880193.4518483038 L 1919706.8451198188,851141.3286934594 L 1909694.54747889,832948.8303501282 L 1905965.7898152785,828201.7176606498 L 1899530.1874135379,821920.4228655043 L 1890735.502362906,810061.5659613875 L 1887093.685221604,798797.0875535187 L 1888626.4432903368,788148.543922831 L 1883462.7773903997,773778.6800175749 L 1871624.1721835167,755679.6070675133 L 1863818.7834475646,738407.2445046655 L 1860079.1164738557,721960.9100900581 L 1859144.255390174,707881.8442100357 L 1861013.9775575376,696168.3398790593 L 1858731.1487598396,687529.6892353898 L 1852306.344348706,681964.4121899386 L 1848794.993650614,674912.9150479127 L 1846251.1206470062,671972.2358309733 L 1840902.5530728616,665315.3181042766 L 1829140.090397681,657970.6338295495 L 1816203.5410531037,654101.944262315 L 1787808.3879805373,654025.4010205551 L 1750716.3996897463,653905.2148917499 L 1717103.145486245,654462.6163857549 L 1679739.3149989366,655096.4554160488 L 1641897.2559791803,655719.3338793053 L 1631711.0772936326,656702.9036701636 L 1602848.493679225,657129.1705724 L 1579714.8563390025,655260.3996465947 L 1571137.6895733809,654047.334454505 L 1556081.2831656274,653162.1698454806 L 1532262.8083180445,652932.6557597021 L 1519402.2901856792,653664.8433282223 L 1488506.790030405,653675.6980762728 L 1485723.802760573,653850.6052560455 L 1480842.7770477603,655916.0689753752 L 1467677.911427566,653052.8400174138 L 1454741.362082989,654014.5462117062 L 1447522.96102199,650801.7175290078 L 1431662.1599737643,652812.4717330167 L 1423954.6210702197,655457.0213849025 L 1411605.0594005955,664757.9307893116 L 1393113.4448264528,669611.0641347747 L 1386253.8264842802,669195.6802114946 L 1381666.2389491985,667610.7327602821 L 1370903.8705793049,657424.2801410242 L 1362598.4346907097,647578.0878122019 L 1359619.7477560632,642136.5931025211 L 1364250.7498925542,640770.8381237478 L 1378807.1091476642,638673.0901142956 L 1389775.9751729793,637667.9855618804 L 1391906.7415462534,635100.5878317794 L 1393602.5826689983,604768.8912113542 L 1393983.0726885297,573948.8616589081 L 1390091.231970906,569899.4194866596 L 1386286.4430950826,567432.8268769127 L 1386090.7434302683,565293.6544118654 L 1391797.9824037487,561430.3181601712 L 1399679.5136714028,556923.3148414673 L 1402201.5680548153,554893.6225555021 L 1410952.8385040376,546731.7258996572 L 1428194.3351965724,527879.859463973 L 1441304.7655857687,523265.741488251 L 1453534.6588027899,518324.76401591295 L 1455252.3185457303,516503.38895192795 L 1456882.9264468702,512838.7638845274 L 1462361.9604642242,513100.5411327462 L 1464112.236817967,514889.22652519774 L 1466797.3742553915,518859.18945658655 L 1471602.3687559923,524443.7904688261 L 1480244.8800627096,531076.0255970542 L 1488985.1298823436,538243.5050803012 L 1493344.4011418081,539138.0212210515 L 1500410.6284588927,535516.0053796199 L 1508563.8906035738,530126.9806236727 L 1520576.376855076,526189.0603577482 L 1523446.415966708,522524.09468392277 L 1525011.7906462431,514670.9993852694 L 1525924.9444292204,506284.44967887783 L 1526979.4739655051,496372.0761825333 L 1529425.4971367056,495030.8660241499 L 1533762.9497759747,494071.4206489565 L 1541720.6235753319,496862.8091459869 L 1545373.2387072407,499741.5001014323 L 1551895.8929507819,499741.5001014323 L 1556070.3738555296,497124.4229354293 L 1563690.9722367649,492239.53956750344 L 1573377.1037696688,490287.900033132 L 1583748.0728099335,485610.51533244253 L 1593673.318609062,479581.71209472447 L 1598358.7559765507,479058.3719849854 L 1603326.8335311636,486908.03212530375 L 1607762.13600284,492414.0505346827 L 1608544.9346620983,495816.02735815855 L 1604109.520870931,502358.549571148 L 1599152.352626416,511006.5706128277 L 1603326.8335311636,521738.7832892534 L 1604326.9278364503,532166.9503089004 L 1604196.461393241,538450.7387395244 L 1607555.6383474185,541003.7252672792 L 1609860.2857653114,542214.6701004028 L 1613458.5769857136,540730.9050661325 L 1620546.5116035028,541189.1810046172 L 1629047.6471569126,544462.3265892417 L 1637277.0518332962,544091.2876905435 L 1645223.8163225558,540065.3932602787 L 1660008.380533792,524411.0635425075 L 1681620.0577958887,497102.6496688756 L 1699535.5940051768,479974.10765693075 L 1713722.2612313621,472975.44827806996 L 1723332.250232564,464810.97045020614 L 1728343.8537080772,455459.3379539042 L 1736594.9656851653,449094.70762872236 L 1753792.9364568,444027.2944915477 L 1766914.276156094,438306.2857411487 L 1780002.9992445852,419554.93502580415 L 1797450.9935925417,385863.6884214931 L 1802332.130624845,355787.1378945723 L 1805310.8175594914,337485.8179981931 L 1803582.2485064531,274458.9323692637 L 1802440.88976735,253775.4067252733 L 1805082.501283874,242493.54818091865 L 1811605.1555274152,234737.0579899859 L 1829379.3159833956,218322.331790513 L 1841304.8617125885,204878.33770870298 L 1850403.894251049,189151.29723674039 L 1867949.7384314123,153231.21163752262 L 1875635.5700342522,141661.35616956739 L 1879059.980210035,136474.63884675785 L 1889615.7396050163,126906.02434027054 L 1904411.2131263507,118501.18290745871 L 1923468.2193942324,111281.61031785894 L 1952863.466772086,86275.2362364834 L 1976236.2183785327,61117.89610530986 L 1973040.124478367,30895.620978186995 L 1978497.4511950163,5832.362893952368 L 1991249.0988653859,-26063.416234864202 L 1995423.5797701334,-59813.39569237034 L 1991031.6918998666,-95391.55790810677 L 1992890.616076623,-124470.43763454635 L 2005055.3873915304,-158325.82026440624 L 2010186.5480001557,-170880.60668341105 L 2011860.6818221959,-191429.7963995991 L 2011784.5392904936,-224163.5498344275 L 2027308.3762400877,-268909.63433988433 L 2041984.2926283097,-295705.8807115027 L 2058399.5760601768,-325685.7179947307 L 2064650.3881072006,-343810.9853908886 L 2073010.2592267937,-368009.51949727983 L 2071694.9081235803,-387453.79915777984 L 2070172.9480454547,-409793.88519085915 L 2074292.9937192046,-440540.19317329046 L 2072760.2356504719,-458652.8158482455 L 2066922.418914291,-474387.0785570277 L 2069890.3078583307,-484285.8899427533 L 2081663.568524118,-488347.1359687806 L 2096339.48491234,-504070.72644108796 L 2122701.832763531,-545171.4506106272 L 2151075.2785353926,-565211.8483351053 L 2170838.8296113396,-571552.9893814421 L 2191439.3919385616,-570870.8801782356 L 2204854.2811350776,-567285.5269280577 L 2211083.3858813965,-560802.8388055589 L 2226650.748751891,-551129.0514180065 L 2251588.875037872,-538270.7638149539 L 2270200.1580646182,-522245.978950209 L 2280549.308484687,-506093.60522460006 L 2288517.7802746515,-497288.00176392484 L 2298464.844693975,-494267.7079947515 L 2314662.721160323,-495570.60780848796 L 2332784.7550250324,-491754.4166417273 L 2351689.476229509,-482716.01535523805 L 2363288.855850677,-479369.0489696372 L 2367582.893888537,-481702.12097486755 L 2376692.835737095,-480393.8556994684 L 2397554.4422702272,-472964.5089593706 L 2414187.1326676137,-477046.98082139215 L 2438810.0021556686,-473978.29947950627 L 2496024.324241233,-460701.8404150202 L 2499089.951698189,-462952.59665807616 L 2500437.9194122045,-463470.3702474657 L 2505319.0564445085,-468816.8209576165 L 2517733.8513357374,-495374.4290135708 L 2528256.9941199166,-511699.0824495689 L 2533159.8384529245,-517834.01164747815 L 2545270.174536834,-526456.3553997367 L 2559554.691595427,-528687.126599482 L 2573252.220979067,-527912.5878553058 L 2584710.3361664186,-524122.1066030335 L 2595179.15503909,-519715.39461619663 L 2606789.443970356,-519671.8358188047 L 2618638.8471678463,-523931.21913244296 L 2636249.9245698145,-531697.8932296135 L 2654795.974374956,-536786.9644855388 L 2670743.7159454906,-542362.0315405047 L 2697019.0119548813,-552149.2020602142 L 2707270.423862034,-556650.5479276815 L 2720326.5303397225,-558418.3548331902 L 2756885.854867068,-549492.2585850019 L 2780584.772581539,-555401.040364204 L 2790249.0854942477,-553666.0457489139 L 2810740.999998455,-560049.8707256735 L 2814502.374272869,-564311.4288310964 L 2827536.773449853,-585907.3071075999 L 2841440.9118084055,-592190.2739064512 L 2862454.580765961,-589013.2244929416 L 2874260.5693620415,-585661.7059845398 L 2913624.588459924,-576432.1104772498 L 2964729.362932281,-566827.0885020663 L 2979753.1527292323,-565342.8275081016 L 2985819.174421539,-564278.6844832358 L 2991167.7419956834,-565763.0353340779 L 3007919.9895261815,-577911.125094179 L 3013627.339819153,-579630.3844111688 L 3018421.425009656,-579417.556588806 L 3050523.62844513,-569506.569535598 L 3054524.2283052583,-561686.7872391072 L 3060285.9025097364,-553682.3596701834 L 3079560.204423647,-540098.1268747965 L 3085691.459337559,-532537.8190962857 L 3090387.8060151455,-524149.3603234092 L 3093355.5836396944,-517610.4154290645 L 3099312.9575089873,-512369.8229229064 L 3107661.9193184827,-509038.0650916564 L 3114793.268537681,-505035.76115754014 L 3119152.539797146,-499152.71184715413 L 3125696.9013413917,-493057.388450079 L 3138329.10319814,-484732.8998351979 L 3144471.2674221494,-484542.10536227643 L 3151570.000030546,-483370.1076075609 L 3157820.92339706,-481206.00707847864 L 3164539.165985925,-481822.0193240617 L 3175366.767577424,-487256.92042558093 L 3188140.233867989,-496372.0761825333 L 3197880.6893124003,-502009.5973305084 L 3221514.2624857756,-500008.7061859759 L 3234657.420805265,-495417.9746362498 L 3245126.2396779372,-488968.6712626796 L 3253301.2091233227,-489382.9934837127 L 3271107.986190105,-501273.6200960886 L 3280544.094146688,-513940.26672064397 L 3289719.269216851,-516645.1169586589 L 3303612.3869458144,-511159.2331634053 L 3315081.411443264,-499327.1258275718 L 3325137.1236856026,-482154.4757847026 L 3332235.856293998,-475608.0692681705 L 3341965.5137478034,-465465.0380971879 L 3361283.3415826135,-443624.12303066254 L 3386417.16753341,-432683.815657429 L 3396168.5322879185,-427306.68737367773 L 3399353.7168779867,-421897.2858889938 L 3401201.8430641363,-414728.72765713854 L 3401854.0639606942,-406901.6760041028 L 3404897.9841169454,-403715.5237400249 L 3411681.4599274155,-404821.13970753446 L 3417497.4580434007,-405932.233529028 L 3423878.8478531255,-403715.5237400249 L 3428303.352334195,-398018.75884018245 L 3430521.059229778,-393580.26720132446 L 3432934.3544706856,-388826.12264310394 L 3439250.5110588055,-385809.2650811501 L 3440489.719630316,-379705.10622472514 L 3436163.0649816543,-372256.3746559274 L 3431738.560500584,-365619.3274910207 L 3426335.6690149326,-352324.783357893 L 3423520.0651342985,-338770.46691770514 L 3427140.063655405,-334263.5540761849 L 3431021.106382422,-330497.07119633607 L 3433086.5282146,-326698.0440511732 L 3434293.2314947997,-322256.88928096014 L 3433836.7102630557,-317059.42931480956 L 3425248.5228678463,-298219.85954680166 L 3420834.927696874,-281760.3004894553 L 3420693.5519435667,-273414.349440043 L 3431988.584076906,-267293.8526691878 L 3446664.500465128,-267609.3866720303 L 3451306.411911717,-263833.9402623704 L 3455948.4346777964,-257833.48082141532 L 3460046.773050841,-254776.29589228547 L 3466221.5538856536,-254863.3058096744 L 3470537.299224218,-252768.95345815225 L 3472211.433046258,-248558.60646050904 L 3477212.127211673,-244000.23935772254 L 3481408.315417126,-238979.69598517145 L 3479408.1268065525,-232539.6962738509 L 3479038.4347776277,-227649.92430599552 L 3468580.5252150535,-213998.53845152646 L 3444512.0267911493,-187356.7135499635 L 3392809.355333741,-137942.50328095956 L 3392776.7387229386,-137915.33497378434 L 3375328.744374982,-131956.7389895202 L 3366316.652358832,-122768.82229303246 L 3359946.1718592043,-108373.18010425307 L 3344857.148840649,-96130.80263961523 L 3333225.152608678,-91200.26461314785 L 3331975.03472707,-88264.8130901023 L 3331105.2955455016,-75022.82907367374 L 3332290.291524996,-55551.68858963115 L 3326832.9648083467,-46637.15964741858 L 3318951.433540692,-29346.481665860094 L 3314853.095167647,-18518.80254939087 L 3311722.234489086,-16388.139508337736 L 3308156.559879487,-10947.1640994516 L 3305949.7622940014,6701.991176519729 L 3304449.50951658,12643.008127003512 L 3298753.068533707,49170.19479914974 L 3300383.7877543373,59585.06941536281 L 3295970.081263875,76958.03313087267 L 3295774.3815990607,87177.56411968452 L 3293948.0740331057,98756.46792734788 L 3290817.2133545456,108802.7129426664 L 3291056.43894026,124840.2002721642 L 3292828.3112752168,151045.4996866291 L 3292491.347176585,154514.43078913755 L 3288132.0759171206,156950.27057179142 L 3280359.3037919714,163442.2443148304 L 3273010.4362877617,167824.8116373776 L 3267411.845137296,168955.7664230175 L 3258117.112934021,180537.78592573473 L 3250148.641144057,191489.60190104303 L 3244213.085894959,202191.83295005874 L 3242669.4185161293,207118.92002491173 L 3243919.536397738,220965.5098337034 L 3244745.7496584053,237369.67348293416 L 3242908.5327823535,244419.1074889605 L 3240114.636202424,248661.98943442214 L 3227102.055645634,257528.8849192987 L 3218546.4848612263,263937.33317887766 L 3214502.4703996885,267277.5857503287 L 3212415.229947315,272445.9858284562 L 3216176.604221729,284578.6797452611 L 3216459.2444088524,293436.8868000799 L 3219557.488476611,298671.4200163735 L 3229863.2242952706,302926.77143372316 L 3229841.516994566,307171.3356302328 L 3230113.3591910833,311775.13526584953 L 3235472.724755835,317478.50854821556 L 3245321.9393427516,329125.4531235054 L 3253246.885211815,340076.8677298542 L 3253431.6755665317,349570.2481335573 L 3251898.9174977997,365466.9037596947 L 3251648.8939214777,374613.92644123436 L 3252442.4905713433,387148.89038484887 L 3252398.964650443,410491.0709818285 L 3251844.482266802,427094.25945834524 L 3253116.418768605,435691.1646933949 L 3265150.723640303,456287.6625059307 L 3270477.472594252,479091.0806474944 L 3273151.8120410694,495794.14278258156 L 3273260.4598640837,501082.78745708615 L 3269183.8287917436,520309.9187747099 L 3264520.21004445,538941.7339587868 L 3264270.1864681286,546000.6884570706 L 3266422.548822616,555417.3546703449 L 3275032.443518531,576994.226277257 L 3281305.074185751,592692.5915794728 L 3284338.0850319043,602126.4059520267 L 3288643.032379862,613177.8556545187 L 3294404.7065843395,630064.315357228 L 3295839.614820665,638104.9758720072 L 3294654.7301606615,644070.6517186663 L 3282903.0654760883,665271.6671077941 L 3281707.271505987,671939.4380426685 L 3284620.7252190285,688404.3808456907 L 3288469.0400157515,704283.32183002 L 3294013.3072547107,713307.4369354048 L 3307265.1133972146,738232.1971650792 L 3317114.3279841314,746637.786361388 L 3335334.1003617565,759106.2171082334 L 3351412.4196949922,771654.2362554142 L 3357597.9985204116,778159.3747033715 L 3363261.8228924824,785432.0703656855 L 3374448.2072028075,804034.5559532471 L 3381275.208934177,819180.1470649074 L 3384862.5908444817,832872.1499237487 L 3393646.477904507,851569.0152728779 L 3401799.7400491876,868956.6852499803 L 3412366.4087542663,890192.4102120019 L 3419834.722072096,905200.6667202029 L 3423204.808336372,915238.0617713346 z" /></g>
</svg>
