<?xml version="1.0" encoding="UTF-8"?>
<svg xmlns="http://www.w3.org/2000/svg" viewBox="1606468.4922003315 -1231680.4092467178 1444055.1362447983 978911.4557885656">
  <g id="map"><path fill-rule="evenodd" fill="currentColor"    d="M 2688072.1531603346,-968351.8182554059 L 2693355.4875128744,-966971.7546316825 L 2696258.031915818,-961891.8270472629 L 2691703.060991539,-945331.221071354 L 2694866.5382809024,-934979.265111352 L 2704106.9465726702,-926233.5712851367 L 2713466.91199755,-922525.992033823 L 2722435.589412292,-920389.4853522901 L 2753678.9629762955,-915001.9929927051 L 2766658.926922282,-908928.7382081008 L 2783791.7757918024,-889511.9124586928 L 2805294.693911394,-871875.288658741 L 2810523.5930329356,-862511.0272500855 L 2809556.1153384517,-854020.5370290991 L 2803174.836848218,-843716.6070281806 L 2804153.2238527997,-839461.8278988487 L 2814034.9437310277,-829149.9810042569 L 2825362.59247517,-818588.2026093164 L 2846061.1159542897,-806839.7627265368 L 2881946.4009648818,-788466.2116848605 L 2898372.4823873555,-776160.6929371989 L 2903981.9828479197,-766841.6121694163 L 2913157.157918083,-756708.5985958584 L 2925984.9481201544,-747436.7205084934 L 2934583.933505972,-740295.1462268083 L 2928659.287566972,-720128.2973408945 L 2930442.0692120264,-713509.7388631635 L 2933638.1631121924,-707761.5501045156 L 2941117.497059611,-699837.4741484617 L 2944117.891294962,-689629.1051358823 L 2951553.6993214805,-676891.5453231435 L 2960391.798973521,-671103.1563877624 L 2975165.5651941504,-668944.2797282299 L 2982970.9539301023,-663041.9259215359 L 2999201.4470072524,-652905.3513609204 L 3014910.0743115637,-644168.88905907 L 3021650.135520624,-638137.7558594467 L 3025802.909124667,-632789.9168972084 L 3029379.4930443643,-626486.8087153104 L 3031129.7693981067,-620189.6789644504 L 3031510.2594176386,-606576.1548584991 L 3034206.19484567,-589679.1875988822 L 3042631.299186868,-578129.4254456878 L 3050523.62844513,-569506.569535598 L 3018421.425009656,-579417.556588806 L 3013627.339819153,-579630.3844111688 L 3007919.9895261815,-577911.125094179 L 2991167.7419956834,-565763.0353340779 L 2985819.174421539,-564278.6844832358 L 2979753.1527292323,-565342.8275081016 L 2964729.362932281,-566827.0885020663 L 2913624.588459924,-576432.1104772498 L 2874260.5693620415,-585661.7059845398 L 2862454.580765961,-589013.2244929416 L 2841440.9118084055,-592190.2739064512 L 2827536.773449853,-585907.3071075999 L 2814502.374272869,-564311.4288310964 L 2810740.999998455,-560049.8707256735 L 2790249.0854942477,-553666.0457489139 L 2780584.772581539,-555401.040364204 L 2756885.854867068,-549492.2585850019 L 2720326.5303397225,-558418.3548331902 L 2707270.423862034,-556650.5479276815 L 2697019.0119548813,-552149.2020602142 L 2670743.7159454906,-542362.0315405047 L 2654795.974374956,-536786.9644855388 L 2636249.9245698145,-531697.8932296135 L 2618638.8471678463,-523931.21913244296 L 2606789.443970356,-519671.8358188047 L 2595179.15503909,-519715.39461619663 L 2584710.3361664186,-524122.1066030335 L 2573252.220979067,-527912.5878553058 L 2559554.691595427,-528687.126599482 L 2545270.174536834,-526456.3553997367 L 2533159.8384529245,-517834.01164747815 L 2528256.9941199166,-511699.0824495689 L 2517733.8513357374,-495374.4290135708 L 2505319.0564445085,-468816.8209576165 L 2500437.9194122045,-463470.3702474657 L 2499089.951698189,-462952.59665807616 L 2496024.324241233,-460701.8404150202 L 2438810.0021556686,-473978.29947950627 L 2414187.1326676137,-477046.98082139215 L 2397554.4422702272,-472964.5089593706 L 2376692.835737095,-480393.8556994684 L 2367582.893888537,-481702.12097486755 L 2363288.855850677,-479369.0489696372 L 2351689.476229509,-482716.01535523805 L 2332784.7550250324,-491754.4166417273 L 2314662.721160323,-495570.60780848796 L 2298464.844693975,-494267.7079947515 L 2288517.7802746515,-497288.00176392484 L 2280549.308484687,-506093.60522460006 L 2270200.1580646182,-522245.978950209 L 2251588.875037872,-538270.7638149539 L 2226650.748751891,-551129.0514180065 L 2211083.3858813965,-560802.8388055589 L 2204854.2811350776,-567285.5269280577 L 2191439.3919385616,-570870.8801782356 L 2170838.8296113396,-571552.9893814421 L 2151075.2785353926,-565211.8483351053 L 2122701.832763531,-545171.4506106272 L 2096339.48491234,-504070.72644108796 L 2081663.568524118,-488347.1359687806 L 2069890.3078583307,-484285.8899427533 L 2066922.418914291,-474387.0785570277 L 2072760.2356504719,-458652.8158482455 L 2074292.9937192046,-440540.19317329046 L 2070172.9480454547,-409793.88519085915 L 2071694.9081235803,-387453.79915777984 L 2065400.5701556564,-390998.9027203675 L 2059388.8723748561,-401471.6468636703 L 2056562.3591841243,-403579.33036002517 L 2039168.6887476754,-398873.79978156957 L 2030145.6874214266,-394620.41521670955 L 2025340.6929208254,-390465.23911929864 L 2021666.3704882124,-389839.0103916027 L 2016143.8105499577,-395557.07044637203 L 2011795.448600591,-396586.41953429655 L 2004946.6282490257,-395529.85624246305 L 1997956.5434636436,-395633.3594825568 L 1993412.4818494623,-396373.9460483018 L 1990433.7949148158,-395867.46902695816 L 1982226.2088586276,-399249.569450748 L 1952287.2770877397,-407887.52530411835 L 1947156.2277986058,-410752.5448033565 L 1941187.944619215,-410452.9208487469 L 1925653.309679014,-402931.2710111446 L 1917445.6123033348,-400839.77421248244 L 1892713.9836727749,-396183.3337252572 L 1866199.4620776696,-393906.94348519214 L 1856067.71862312,-393787.15834359895 L 1849099.3411384425,-390459.7742397065 L 1844609.603435768,-385743.91250051605 L 1841565.683279517,-375310.8758946665 L 1836358.49145868,-357393.09046336287 L 1834184.3104839968,-352520.7818435285 L 1834553.8911934302,-345367.8314465694 L 1833010.2238146001,-333354.6115222947 L 1832270.9510762417,-322578.0105852941 L 1833271.1567010193,-315356.04232955485 L 1825781.024762994,-300788.1575568393 L 1816692.7902151402,-283153.15883083263 L 1809137.42505551,-268001.1310694936 L 1801527.624664882,-252768.95345815225 L 1796266.1089325377,-263208.347745666 L 1792993.8725006694,-275432.7688407303 L 1791743.754619061,-289443.030415101 L 1792450.299427126,-293170.21754525765 L 1790406.5848956523,-297332.90195398004 L 1790254.4111517377,-298241.5905815662 L 1787710.53814813,-308809.30602561723 L 1790287.0277625404,-316177.8069861448 L 1788178.0800094616,-323922.3596416232 L 1782025.0064753545,-331509.4365616425 L 1776437.3246349858,-337311.6936083686 L 1773175.9975132155,-342558.94595995196 L 1770523.4766865934,-344796.2608765694 L 1764337.7865416834,-345601.83392825996 L 1756064.9672638907,-348290.9449536426 L 1745107.0105486729,-359717.6588460886 L 1734453.2900017938,-370824.3835832328 L 1720820.9938397587,-385046.89517079946 L 1709884.744425246,-397348.8739421493 L 1696491.6738489254,-412408.3014112293 L 1684120.4048785965,-426326.1088894684 L 1676706.304152783,-439750.1738029529 L 1673673.2933066294,-447465.42714837805 L 1677293.4031472267,-448201.0548287871 L 1682641.970721371,-448370.00899241486 L 1684914.001528462,-449759.48478152754 L 1685033.558661574,-453355.9726482866 L 1679532.8173435149,-463939.03666197 L 1676869.387206795,-477434.0063936412 L 1672325.3255926138,-485659.6379567125 L 1657942.9587016136,-498313.02875310736 L 1644234.5200078757,-507941.990216883 L 1639875.2487484112,-512887.902892692 L 1637396.6089664083,-519944.4696128927 L 1632135.0932340643,-564627.9210400226 L 1629786.9198952708,-577316.251678931 L 1625460.2652466088,-582877.988930335 L 1622318.49525795,-585437.9045318214 L 1621144.4085885533,-588592.9901999714 L 1621709.6889628016,-596546.6854597875 L 1623525.1985381492,-603666.0167664789 L 1623438.2580158396,-606450.577428824 L 1627145.3083787465,-612697.3053275696 L 1627145.3083787465,-654047.334454505 L 1625134.0991385842,-656156.4492201594 L 1622731.601888284,-659741.2244064341 L 1618861.4684713648,-659467.9272415772 L 1614480.4899111958,-659839.5982513467 L 1610110.3093416337,-665861.8535941361 L 1606468.4922003315,-673475.3562117318 L 1607533.931046714,-678848.5220773324 L 1611349.6292326348,-683336.5657964833 L 1615480.5842164825,-687267.2394781878 L 1620742.2112683174,-690547.6089871939 L 1636342.1907496143,-697158.0562302707 L 1640766.695230684,-700466.3029379353 L 1643527.9751998112,-704562.199598552 L 1645343.3734556676,-710091.4250053095 L 1654420.6986934235,-731376.1996156315 L 1667868.2045007418,-752625.2574925511 L 1673640.6766958272,-757009.7104017453 L 1679402.3509003052,-771079.3222681194 L 1687283.88216796,-788312.8739311144 L 1690479.9760681256,-796315.5361370908 L 1692806.3307867234,-804308.4495185107 L 1697165.602046188,-810751.9390111887 L 1711993.803497815,-821366.833254271 L 1723234.4004001569,-839960.7129629052 L 1735388.2624049662,-838979.3413945604 L 1747857.3812077024,-835991.444726436 L 1763859.5580092357,-834516.7074986163 L 1776393.798714086,-838140.4752445092 L 1784525.3535580623,-845388.9312994782 L 1802386.4545363523,-851152.2229734897 L 1823291.4756708934,-857903.5586093547 L 1826128.898171723,-867881.3553996815 L 1832249.2437755372,-873120.7165116032 L 1839358.8856940314,-877724.1655867264 L 1841815.8181753296,-878344.2562056106 L 1842359.2799293823,-875019.1475163088 L 1846675.1365874377,-864622.8207445829 L 1855513.2362394787,-854333.1215191197 L 1868471.6042042514,-843014.7690773936 L 1872189.4525577647,-843727.4996331963 L 1880223.1575693341,-852303.8858460401 L 1900443.341196515,-857596.4548122553 L 1905563.5924950421,-859965.833197421 L 1919924.252085338,-872445.862201935 L 1937198.2540691842,-880489.6895921166 L 1941014.063574596,-881203.0953654987 L 1947275.7849317174,-883326.7449120898 L 1964723.7792796737,-891619.5323589798 L 1977127.6648608053,-890521.7594526083 L 1997086.9156015667,-891828.051475813 L 2030341.387086241,-895752.6593128928 L 2054409.8855101457,-897064.6091951118 L 2066552.8382048577,-898623.5964433152 L 2069607.6676712069,-900297.9903901035 L 2074282.1957285975,-912322.2103257328 L 2077913.103559802,-915693.8950998773 L 2086957.8121867557,-920878.3284607823 L 2104655.8301110333,-939023.0007699612 L 2116277.028352397,-954344.4942909599 L 2119505.738863365,-959489.495995422 L 2119788.379050489,-959868.7846582456 L 2122179.9669906916,-960830.8127192798 L 2127169.7518460094,-967285.1251209324 L 2122212.5836014943,-973960.4793846532 L 2102383.7993039424,-987545.2043260348 L 2102666.4394910666,-989399.0084684526 L 2101524.969432472,-991731.5059341986 L 2102633.822880264,-993596.5395037925 L 2110200.097349992,-999131.520287852 L 2120397.1853456376,-1005459.7852485944 L 2131268.2015385455,-1007820.6967964981 L 2159630.73800031,-1007330.853037492 L 2183807.8842472285,-1008679.2337789158 L 2189471.708619299,-1008376.4838659305 L 2208322.105912269,-1011585.2292009719 L 2221215.2406554366,-1014491.4328876479 L 2234477.844788547,-1021036.7651119173 L 2264471.100470942,-1020348.6643253864 L 2289496.278598724,-1037021.8948982263 L 2296681.95172943,-1040001.5769281607 L 2299823.7217180887,-1042612.4803698072 L 2300769.492111868,-1045162.8611707143 L 2312466.721565444,-1051768.3140323847 L 2325577.263274131,-1065478.5570224207 L 2335948.2323143953,-1077798.8440164933 L 2338763.83619503,-1086488.8054960337 L 2367082.8467358937,-1116019.9701815844 L 2376942.859313417,-1115401.93852337 L 2381791.379734918,-1119044.4964522056 L 2393021.1786466525,-1138754.1288941104 L 2396489.003423845,-1142387.9390630638 L 2401804.9543871866,-1143603.0987597888 L 2408142.818276011,-1145834.4484252764 L 2413708.7928156746,-1151667.766153528 L 2418502.878006178,-1160347.6139199836 L 2418546.4039270775,-1171107.7882969745 L 2416361.313642297,-1179742.7124312993 L 2416361.313642297,-1183922.705694078 L 2419046.4510797216,-1187760.2629615527 L 2423590.512693903,-1191625.9959983455 L 2445115.24943369,-1202257.6097526087 L 2450561.666840242,-1207397.5334600399 L 2453833.7919526193,-1212007.02499989 L 2459845.4897334194,-1212842.6571606474 L 2466422.4678884675,-1212388.854097674 L 2470586.0394831174,-1215255.5996130628 L 2475293.295470802,-1220104.2195213097 L 2490197.4168151505,-1226608.7944092676 L 2504003.705341295,-1231680.4092467178 L 2518494.7200553096,-1229537.6416582454 L 2530311.6179614877,-1226896.6786694317 L 2540019.456795097,-1223851.7387537963 L 2544770.127384191,-1222999.2820770738 L 2552640.7493417477,-1208902.5702285864 L 2556380.3049959657,-1203972.7202361939 L 2588830.3818401685,-1170676.6073320906 L 2595113.9218174852,-1162767.880666599 L 2611181.3318406236,-1138593.9818393625 L 2621019.637117442,-1122290.052449544 L 2632292.850630586,-1098876.5838117304 L 2633401.704078378,-1086163.5439652076 L 2631901.451300957,-1075273.8617797724 L 2629662.0371046686,-1044430.231637907 L 2626705.168790218,-1035551.425127331 L 2612474.975643132,-1018955.8120894642 L 2611866.169347984,-1011486.1462213731 L 2614790.5323711233,-1005267.1719164063 L 2619127.9850103925,-1002708.1719359619 L 2621780.5058370144,-999621.2657925469 L 2620160.807245972,-985267.9155473073 L 2625270.149234402,-979635.7794458587 L 2635967.28438269,-975879.6788765661 L 2662981.8531304393,-973317.0868136192 L 2677027.255922808,-971244.0623561955 L 2688072.1531603346,-968351.8182554059 z" /></g>
</svg>
