<?xml version="1.0" encoding="UTF-8"?>
<svg xmlns="http://www.w3.org/2000/svg" viewBox="1239005.5247595145 -410752.5448033565 834004.7344672792 968537.9706861308">
  <g id="map"><path fill-rule="evenodd" fill="currentColor"    d="M 1239005.5247595145,436301.3939600253 L 1245669.4434368722,419086.49395561265 L 1250615.8136907804,411144.64527749555 L 1256605.692851385,405599.9414576471 L 1280652.4839745848,392126.24121698196 L 1284272.4824956912,392648.98334995424 L 1300850.8489815702,410164.22967366833 L 1306155.8906348145,411558.61135956313 L 1312058.9405926003,411079.2764989602 L 1319038.1160678845,411798.3354359586 L 1322462.5262436671,408366.8447772228 L 1323006.0993172107,403846.2517109394 L 1317961.8792308953,398792.0430138804 L 1317233.5158026349,393367.7999088636 L 1320777.4831115294,387475.54652540095 L 1322788.5810322007,380962.9117346689 L 1327963.267561726,373241.8969167719 L 1328506.8406352696,369626.57452707505 L 1323038.7159280132,365684.6679400784 L 1311830.6243169834,359652.4333655613 L 1304155.702024241,353838.15004182234 L 1301220.5410104948,348263.74249353504 L 1303329.4887635733,341143.71470026334 L 1309504.2695983853,335363.01131528424 L 1309134.577569461,332227.86209983664 L 1303699.069473007,327035.4507407446 L 1299731.1975431715,321473.2051352076 L 1295654.566470831,317990.09914976254 L 1284381.2416381962,315911.2038000623 L 1286533.715312175,308433.83153238 L 1290697.2869068251,297441.6678979142 L 1291686.5832215047,289018.5784329023 L 1288544.8132328463,266918.48838800564 L 1288827.4534199703,262892.82279210136 L 1291914.8994971218,260847.27403716635 L 1298644.0513960845,263295.3623323057 L 1305416.7292159472,266657.43861792673 L 1323854.0198785833,261837.40094726352 L 1330300.5315904217,261097.50693459873 L 1335638.1898544682,265329.913288331 L 1343008.7646593817,268648.5811502473 L 1385525.4630560197,259443.70441957697 L 1386351.6763166874,250043.6289481279 L 1388786.7901777902,241536.1796889502 L 1389102.0469757172,235161.36164488795 L 1387330.0633212696,231071.09072055007 L 1385231.913558798,227981.7566312891 L 1383970.886367092,221607.31882218638 L 1383938.2697562894,214765.40613312603 L 1388003.9915185322,211545.80778480228 L 1401560.2564683552,203399.03486458884 L 1405789.0612846103,203703.64873046594 L 1415279.4931527001,208141.37447258976 L 1424172.028035739,215091.75744528326 L 1432064.3572940005,229733.0484476937 L 1437532.482001257,242319.54154037862 L 1446261.9338302838,257594.1713360672 L 1464807.9836354249,263806.75506738067 L 1486930.506040772,267778.0728445474 L 1498910.3756814718,266733.5363067457 L 1516010.6079401898,253720.9284093346 L 1525696.628153603,243570.56641277057 L 1528838.3981422617,238109.45983969275 L 1534469.6059035305,240927.0492991997 L 1540840.086403157,254286.65709954718 L 1544949.3340862999,259465.54109455718 L 1545971.1356922914,264405.1647099403 L 1543090.2985900522,270574.4579065919 L 1545884.195169982,274535.1454274113 L 1557788.0335984698,277342.46521322906 L 1568202.4172401438,274698.37966769 L 1572920.4712184349,269247.0097649382 L 1580715.0619637799,262142.00522715496 L 1580780.2951853848,256168.90590537217 L 1576605.814280637,252263.0554274255 L 1576605.814280637,246921.30957649284 L 1580932.4689292992,242722.02964551232 L 1585150.3644354565,231234.28088618367 L 1586465.8268581606,222847.39103877195 L 1590575.0745413036,217506.55193891554 L 1598391.3725873532,213797.3823869064 L 1601217.7744585942,210436.34756540088 L 1605587.9550281567,190554.21014387326 L 1603326.8335311636,183365.44934293733 L 1603326.8335311636,177394.77902514033 L 1608262.2944749745,169793.18417838548 L 1609186.2462485584,157330.87607601835 L 1607109.9151062823,136909.55263733616 L 1605674.8955504664,122893.85726395242 L 1604185.6634026337,108215.52898368891 L 1608001.361588555,88928.00727353948 L 1611969.2335183905,68836.7453241533 L 1611251.7794002276,63835.891886083264 L 1605751.0380821687,57736.865057188654 L 1598967.562271699,52159.88539346073 L 1581486.8399934496,47572.15754970363 L 1574986.0043701043,40288.350104814584 L 1569920.0769830837,32548.06794138301 L 1566202.22862957,30069.39828118473 L 1547123.5150609834,27003.740111146286 L 1542894.7102447285,22633.526370577398 L 1544612.258668178,10110.04038753907 L 1546297.3018003155,-8381.580832638894 L 1545623.2622835624,-21242.02450196746 L 1549025.9651586404,-31613.083710598163 L 1552863.3706452663,-39386.08803226406 L 1561288.4749864643,-47615.573359823065 L 1565767.303379041,-57329.196497069446 L 1568213.3265502413,-59731.79492246898 L 1584182.886740972,-61351.67780987994 L 1589987.9755468597,-65395.89196551057 L 1594564.7650913342,-69489.11589373645 L 1596488.9224896962,-75011.9190089907 L 1601957.0471969526,-84128.02564051215 L 1606838.1842292561,-90336.00389554385 L 1607359.938682604,-94527.17759036798 L 1606327.227766515,-100354.76522404149 L 1601489.6166551115,-111819.81103956283 L 1595706.2351499284,-121371.61814442059 L 1592205.6824424432,-124780.4102599026 L 1585161.2737455543,-147239.67050853188 L 1578606.0028912106,-152546.17736775798 L 1565843.4459107434,-155406.02903106363 L 1541927.1212307534,-157950.66962075932 L 1527435.9951972482,-153889.07781098032 L 1505411.322624308,-146353.44400769347 L 1488604.6398628121,-141139.36214582398 L 1477668.3904482992,-138160.07251970854 L 1471232.7880465589,-138986.3694421815 L 1468319.334333517,-142417.06890926033 L 1472569.8464504767,-145331.2639143342 L 1474689.703513653,-152154.66637479115 L 1471950.2421647212,-161941.61479694681 L 1467699.618728271,-170902.43313567733 L 1465264.5048671681,-183490.51283155804 L 1466319.0344034526,-199135.491486599 L 1470471.8080074957,-213819.10188530397 L 1479288.2003588323,-232898.60644968593 L 1479831.7734323759,-240682.19465201197 L 1506541.8833728046,-240453.71595386873 L 1533175.9621010218,-240219.89043827684 L 1562299.478601849,-240383.08925147605 L 1590422.9007973892,-240546.28822198117 L 1612360.6328480195,-239920.67445590554 L 1622916.3922430007,-244865.15864674866 L 1632961.306494732,-237396.85425323105 L 1637874.948818347,-235732.48558714526 L 1639549.0826403871,-236319.87522080465 L 1643397.5087566013,-231060.1742507031 L 1655877.4255499444,-231647.65951891593 L 1657855.9068598133,-230407.52653164585 L 1658932.1436968027,-224054.8349353791 L 1670509.8160172661,-224218.01869664498 L 1676228.0756203348,-222782.11800798945 L 1680880.7850575305,-222945.30062869124 L 1687610.0482759841,-226649.19570222258 L 1692447.6593873873,-225409.0975217307 L 1701231.4351279214,-220650.06409791502 L 1707504.0657951408,-216527.59853408023 L 1716266.0229154793,-217865.43225934333 L 1736616.6729858702,-217158.4765563701 L 1752347.1189103767,-213215.4121339516 L 1767936.1890815762,-202257.09896268343 L 1778350.57272325,-195954.23627666934 L 1787721.4474582276,-186622.69145135742 L 1791167.5649347152,-188297.54841678074 L 1794417.9827463878,-190842.43376472895 L 1796266.1089325377,-191968.15788886754 L 1796135.642489328,-199956.65180917384 L 1790895.8340576885,-213558.02254045708 L 1788862.9175168218,-225099.10215650682 L 1790026.094876121,-234579.32289770505 L 1793994.078125447,-241378.43832356407 L 1800766.7559453102,-245496.1381535004 L 1801440.6841425723,-251920.3691800202 L 1801527.624664882,-252768.95345815225 L 1809137.42505551,-268001.1310694936 L 1816692.7902151402,-283153.15883083263 L 1825781.024762994,-300788.1575568393 L 1833271.1567010193,-315356.04232955485 L 1832270.9510762417,-322578.0105852941 L 1833010.2238146001,-333354.6115222947 L 1834553.8911934302,-345367.8314465694 L 1834184.3104839968,-352520.7818435285 L 1836358.49145868,-357393.09046336287 L 1841565.683279517,-375310.8758946665 L 1844609.603435768,-385743.91250051605 L 1849099.3411384425,-390459.7742397065 L 1856067.71862312,-393787.15834359895 L 1866199.4620776696,-393906.94348519214 L 1892713.9836727749,-396183.3337252572 L 1917445.6123033348,-400839.77421248244 L 1925653.309679014,-402931.2710111446 L 1941187.944619215,-410452.9208487469 L 1947156.2277986058,-410752.5448033565 L 1952287.2770877397,-407887.52530411835 L 1982226.2088586276,-399249.569450748 L 1990433.7949148158,-395867.46902695816 L 1993412.4818494623,-396373.9460483018 L 1997956.5434636436,-395633.3594825568 L 2004946.6282490257,-395529.85624246305 L 2011795.448600591,-396586.41953429655 L 2016143.8105499577,-395557.07044637203 L 2021666.3704882124,-389839.0103916027 L 2025340.6929208254,-390465.23911929864 L 2030145.6874214266,-394620.41521670955 L 2039168.6887476754,-398873.79978156957 L 2056562.3591841243,-403579.33036002517 L 2059388.8723748561,-401471.6468636703 L 2065400.5701556564,-390998.9027203675 L 2071694.9081235803,-387453.79915777984 L 2073010.2592267937,-368009.51949727983 L 2064650.3881072006,-343810.9853908886 L 2058399.5760601768,-325685.7179947307 L 2041984.2926283097,-295705.8807115027 L 2027308.3762400877,-268909.63433988433 L 2011784.5392904936,-224163.5498344275 L 2011860.6818221959,-191429.7963995991 L 2010186.5480001557,-170880.60668341105 L 2005055.3873915304,-158325.82026440624 L 1992890.616076623,-124470.43763454635 L 1991031.6918998666,-95391.55790810677 L 1995423.5797701334,-59813.39569237034 L 1991249.0988653859,-26063.416234864202 L 1978497.4511950163,5832.362893952368 L 1973040.124478367,30895.620978186995 L 1976236.2183785327,61117.89610530986 L 1952863.466772086,86275.2362364834 L 1923468.2193942324,111281.61031785894 L 1904411.2131263507,118501.18290745871 L 1889615.7396050163,126906.02434027054 L 1879059.980210035,136474.63884675785 L 1875635.5700342522,141661.35616956739 L 1867949.7384314123,153231.21163752262 L 1850403.894251049,189151.29723674039 L 1841304.8617125885,204878.33770870298 L 1829379.3159833956,218322.331790513 L 1811605.1555274152,234737.0579899859 L 1805082.501283874,242493.54818091865 L 1802440.88976735,253775.4067252733 L 1803582.2485064531,274458.9323692637 L 1805310.8175594914,337485.8179981931 L 1802332.130624845,355787.1378945723 L 1797450.9935925417,385863.6884214931 L 1780002.9992445852,419554.93502580415 L 1766914.276156094,438306.2857411487 L 1753792.9364568,444027.2944915477 L 1736594.9656851653,449094.70762872236 L 1728343.8537080772,455459.3379539042 L 1723332.250232564,464810.97045020614 L 1713722.2612313621,472975.44827806996 L 1699535.5940051768,479974.10765693075 L 1681620.0577958887,497102.6496688756 L 1660008.380533792,524411.0635425075 L 1645223.8163225558,540065.3932602787 L 1637277.0518332962,544091.2876905435 L 1629047.6471569126,544462.3265892417 L 1620546.5116035028,541189.1810046172 L 1613458.5769857136,540730.9050661325 L 1609860.2857653114,542214.6701004028 L 1607555.6383474185,541003.7252672792 L 1604196.461393241,538450.7387395244 L 1604326.9278364503,532166.9503089004 L 1603326.8335311636,521738.7832892534 L 1599152.352626416,511006.5706128277 L 1604109.520870931,502358.549571148 L 1608544.9346620983,495816.02735815855 L 1607762.13600284,492414.0505346827 L 1603326.8335311636,486908.03212530375 L 1598358.7559765507,479058.3719849854 L 1593673.318609062,479581.71209472447 L 1583748.0728099335,485610.51533244253 L 1573377.1037696688,490287.900033132 L 1563690.9722367649,492239.53956750344 L 1556070.3738555296,497124.4229354293 L 1551895.8929507819,499741.5001014323 L 1545373.2387072407,499741.5001014323 L 1541720.6235753319,496862.8091459869 L 1533762.9497759747,494071.4206489565 L 1529425.4971367056,495030.8660241499 L 1526979.4739655051,496372.0761825333 L 1525924.9444292204,506284.44967887783 L 1525011.7906462431,514670.9993852694 L 1523446.415966708,522524.09468392277 L 1520576.376855076,526189.0603577482 L 1508563.8906035738,530126.9806236727 L 1500410.6284588927,535516.0053796199 L 1493344.4011418081,539138.0212210515 L 1488985.1298823436,538243.5050803012 L 1480244.8800627096,531076.0255970542 L 1471602.3687559923,524443.7904688261 L 1466797.3742553915,518859.18945658655 L 1464112.236817967,514889.22652519774 L 1462361.9604642242,513100.5411327462 L 1456882.9264468702,512838.7638845274 L 1455252.3185457303,516503.38895192795 L 1452501.947886701,514769.1680191497 L 1443968.1957224885,507233.20682529896 L 1433912.4834801506,495325.3006464186 L 1430248.959038144,493515.27570466016 L 1424693.7824890872,493700.6197187525 L 1415920.916058651,498073.1846865847 L 1407267.4954418356,504932.1327159652 L 1391656.7179699317,511224.67601414013 L 1378644.026093652,514758.33484197524 L 1377469.9394242554,519066.48272688227 L 1374426.1305874947,526483.6099397488 L 1370110.2739294397,531108.7553468273 L 1358576.1275298763,532570.5494700922 L 1354434.2632359308,539170.7544338618 L 1344465.4915159023,551958.2439849972 L 1337877.6040507567,557785.4258827743 L 1336138.2370071118,555297.344037301 L 1332137.7484664738,552209.3165242666 L 1323951.8697109905,542302.0367419416 L 1315874.6387785214,529985.228089895 L 1313711.3671139355,524367.5021261167 L 1311439.2249873541,521171.6126523109 L 1311069.6442779205,508803.5495942181 L 1298883.1656623085,494114.96558296395 L 1268357.3575359585,467993.8480506729 L 1265085.12110409,460211.3157589663 L 1239005.5247595145,436301.3939600253 z" /></g>
</svg>
