<?xml version="1.0" encoding="UTF-8"?>
<svg xmlns="http://www.w3.org/2000/svg" viewBox="664579.5864256591 -6069609.331072599 499220.04882679076 316456.3710632967">
  <g id="map"><path fill-rule="evenodd" fill="currentColor"    d="M 1060209.3906634257,-6028063.694190275 L 1063590.386237799,-6025906.739387438 L 1071547.9487176654,-6018643.046976865 L 1069678.1152308108,-6006261.448332778 L 1060600.789993055,-5986380.2107819645 L 1055784.8861823564,-5970301.602011257 L 1055252.2224189104,-5958004.735395613 L 1056165.3762018878,-5952241.763069359 L 1057796.0954225184,-5952321.510423798 L 1066471.1120205473,-5951443.839466848 L 1070884.81851101,-5951459.852779217 L 1084810.6641702668,-5948133.310616651 L 1095975.2298603968,-5943277.616738197 L 1098127.5922148847,-5938153.788534835 L 1099584.3190714053,-5931910.233615191 L 1112847.0345240068,-5923380.63727072 L 1128055.6146756744,-5917870.966935121 L 1133208.4825850045,-5919635.611208204 L 1152091.4964887765,-5939587.850286713 L 1159385.9287619875,-5936265.833447387 L 1163799.63525245,-5925671.303785025 L 1163603.9355876355,-5920056.801759118 L 1158396.7437667984,-5898903.837432521 L 1157494.3879744282,-5887570.272790793 L 1161984.1256771022,-5880080.76971521 L 1162451.5562189433,-5874250.190864612 L 1161136.20511573,-5868937.394662034 L 1153613.456566902,-5868455.205205524 L 1143503.420413057,-5871332.5478588585 L 1134958.758938747,-5880444.792897406 L 1128501.3379168108,-5879352.606587989 L 1122881.03946564,-5877010.67443831 L 1120011.0003540078,-5868407.7808172675 L 1117456.329359793,-5858123.868122396 L 1118271.633310363,-5852418.342633042 L 1122315.759091392,-5848033.309385394 L 1125403.0938490524,-5838686.788284548 L 1127653.4173554385,-5826620.217509116 L 1129360.167788281,-5821068.827957898 L 1127479.4249913287,-5818608.600888038 L 1122163.4740279866,-5816958.585271771 L 1117760.7881671127,-5818585.1029396895 L 1110042.33995347,-5833017.534938518 L 1106433.1394229708,-5838521.283954539 L 1100334.5011198611,-5839482.252560698 L 1089572.1327499675,-5835977.650756719 L 1073058.9994856932,-5827894.540918647 L 1066395.0808083354,-5827926.119410811 L 1060731.2564362644,-5829554.659464033 L 1055426.2147830203,-5836418.552649379 L 1050925.5677702485,-5849657.817048268 L 1049479.7502238255,-5857981.762831757 L 1046327.070925069,-5857713.401878195 L 1035760.5135394806,-5860121.345159941 L 1030835.8505862771,-5856829.323618743 L 1030792.4359848677,-5843272.139242485 L 1029824.8469708924,-5826423.688433518 L 1024519.8053176481,-5815552.139226673 L 1009778.6557078212,-5796780.686859605 L 1004364.8549120722,-5788600.361678457 L 1002212.3812380934,-5782736.155229511 L 1001755.8600063502,-5777642.197898463 L 1004006.1835127361,-5768838.672743014 L 1007071.8109696922,-5760434.155888081 L 1004517.0286559865,-5755657.400757813 L 996722.5492301323,-5753152.960009302 L 991221.8079120734,-5758256.22025019 L 989091.0415387994,-5767330.556301364 L 977165.4958096069,-5779738.8463452775 L 982590.2059154538,-5790135.522321433 L 981677.0521324766,-5792720.872147863 L 961989.5322687413,-5798121.365910611 L 953499.306025429,-5805996.616687879 L 941584.5582868437,-5819842.491960853 L 939366.9627107508,-5825794.341575 L 939867.0098633941,-5845132.09882896 L 939182.0610365432,-5849831.283536863 L 937594.9790563035,-5852118.64745473 L 931822.3955417275,-5851968.722914997 L 923788.6905301585,-5845234.6073707845 L 916374.7011238358,-5835198.143724927 L 901209.5355735773,-5823891.271294433 L 899633.2515839445,-5821469.701944609 L 904720.8862716694,-5810463.065044319 L 904492.5699960524,-5806177.10207422 L 892143.119645919,-5788670.777541357 L 889794.9463071257,-5782900.45795074 L 874118.935613617,-5771933.802335772 L 866944.0604735182,-5767830.6195799755 L 845201.9167682114,-5775898.092294247 L 839190.2189874115,-5776852.278047274 L 829504.198773998,-5771449.196665741 L 815741.4361687533,-5766314.994461239 L 793597.0951432105,-5761207.10525291 L 785443.8329985294,-5764947.921549698 L 781584.6088917083,-5768463.540048302 L 779671.2494839535,-5773755.432716435 L 774083.5676435851,-5783096.18253287 L 767800.1389857588,-5788647.3589918045 L 763429.9584161964,-5794687.867315423 L 757603.0509901134,-5801312.999231218 L 753863.3840164043,-5806852.146859645 L 758842.370881115,-5824559.6183867855 L 755211.4630499107,-5830805.876341282 L 753341.629563056,-5839710.693618053 L 754309.1072575405,-5845754.917154742 L 752308.8073274761,-5847228.99915287 L 732284.4346846004,-5850714.658934636 L 715662.5422778212,-5849610.493916261 L 703747.9058587264,-5843666.115077862 L 694040.0670251173,-5833812.487772365 L 692876.8896658183,-5831687.346259473 L 693474.7866508691,-5829916.5980849955 L 698301.4884521747,-5820864.373134321 L 690115.6096966913,-5811342.345403683 L 677559.5503716455,-5803940.821831486 L 668656.2174979995,-5803187.755265984 L 664742.5581601805,-5804615.695930055 L 664579.5864256591,-5814821.570751929 L 671939.2519204748,-5818585.1029396895 L 678592.2612877347,-5825236.069387521 L 680820.8774934161,-5834623.31353795 L 681636.1814439861,-5841231.203633526 L 674624.3893578993,-5849231.918018182 L 675483.2192293694,-5854138.354108957 L 679831.5811787363,-5863438.055635787 L 682353.7468816395,-5871680.340519219 L 685810.6623487337,-5878814.585845201 L 699660.3654762881,-5890493.482986328 L 713575.3018254474,-5902243.366567982 L 715673.4515879189,-5914739.925729843 L 716738.7791148106,-5929984.019490222 L 718706.4624340725,-5933645.9183050515 L 737469.9192047328,-5942783.47909994 L 742155.3565722216,-5946402.906399541 L 744514.3279016219,-5951587.470126617 L 759277.1848121535,-5968750.649453001 L 773898.7772888683,-5985795.361402162 L 776844.8476127123,-5991516.601564887 L 779301.6687745199,-5994875.714141228 L 779301.6687745199,-5997658.528244017 L 777464.4518984676,-5999808.458132982 L 770496.0744137904,-6001236.617693419 L 768148.0123944879,-6006662.843689611 L 775714.175544725,-6016367.931210491 L 785182.9001121101,-6022318.281237091 L 794379.782482978,-6022398.839613944 L 798075.923535787,-6019664.228004449 L 797880.2238709724,-6016448.269592486 L 801848.2071202988,-6012992.417365312 L 808816.5846049761,-6011851.413359066 L 817437.2772914979,-6013056.597135406 L 825992.8480759058,-6016689.453844922 L 831265.2731183475,-6025335.36670577 L 834330.9005753035,-6031879.818766548 L 847767.497072524,-6039364.274285536 L 856942.6721426873,-6035593.022295245 L 882435.2808123099,-6034602.128773369 L 900992.128608058,-6036632.378200572 L 912624.1248400287,-6041710.007494961 L 927050.0176519292,-6041710.007494961 L 936725.2398747355,-6038848.4602127895 L 938431.9903075781,-6039267.546484261 L 941095.420444298,-6039936.410018289 L 943726.2339702153,-6042661.260132222 L 952836.1758187738,-6044532.037915707 L 954064.5863996774,-6046806.649068704 L 953684.0963801461,-6049138.210647676 L 952042.5791689084,-6050332.572351528 L 940845.3968679763,-6049122.181180272 L 936562.1568207234,-6050921.633512762 L 935464.2126830294,-6055070.993039646 L 939062.5039034311,-6062276.521914459 L 947313.6158805193,-6068161.713329212 L 954303.7006659015,-6069609.331072599 L 959337.0114421191,-6068032.201493021 L 971632.1378807457,-6057097.957776137 L 974578.2082045896,-6056766.823440991 L 976284.9586374322,-6058729.501056054 L 978839.6296316468,-6059828.233142323 L 983079.3437579995,-6057687.4811383905 L 987851.7216477979,-6050921.633512762 L 988645.3182976631,-6049880.5563326655 L 1016072.9936757454,-6052245.349751128 L 1022226.0672098529,-6052245.349751128 L 1040837.2389171079,-6040387.9056766 L 1060209.3906634257,-6028063.694190275 z" /></g>
</svg>
