<?xml version="1.0" encoding="UTF-8"?>
<svg xmlns="http://www.w3.org/2000/svg" viewBox="-957744.3634873399 -1200830.2483069885 678793.4156075981 715977.4458138157">
  <g id="map"><g><path fill-rule="evenodd" fill="currentColor"    d="M -343611.98730192264,-571645.7558423935 L -346650.452803125,-567214.5593062493 L -361386.147757903,-570052.2012590173 L -357880.2517148596,-573757.8461176567 L -343611.98730192264,-571645.7558423935 z" /><path fill-rule="evenodd" fill="currentColor"    d="M -889512.3061200015,-1137263.0696633807 L -886207.5643968217,-1137373.562460582 L -877651.9936124139,-1139891.6910652695 L -869873.7668322154,-1145641.125663681 L -862622.7491604141,-1157601.3895997864 L -852833.4244595444,-1167238.78198056 L -841810.1232032313,-1166536.9051252254 L -838548.7960814607,-1168299.9431054418 L -834667.8646739348,-1168637.1443592398 L -830058.5698381484,-1162314.846112214 L -825411.203736511,-1157490.9475732443 L -822101.0073582821,-1157358.3270687654 L -819665.8934971794,-1148220.695938588 L -799532.6503923079,-1144409.4952041726 L -790911.9577057859,-1141902.022404437 L -783660.9400339845,-1135258.537864014 L -781138.8856505719,-1135087.4368509222 L -778062.3488835184,-1136489.9688116326 L -775692.4682440204,-1138814.8628146395 L -775208.6737370328,-1141360.6900130059 L -778317.8271148889,-1147369.9817225842 L -776953.4954357265,-1152767.1561039789 L -773708.5322791026,-1157606.934341727 L -768528.5024140192,-1157916.3096817203 L -760717.6590230184,-1159264.5115234158 L -751765.3455734233,-1159281.1465310974 L -745090.5175859678,-1158413.6469390783 L -742427.087449248,-1163248.6491376543 L -744949.1418326604,-1176812.5771043578 L -744296.9209361026,-1184287.5758790025 L -743209.7747890155,-1190602.8615529677 L -740736.5896620613,-1193169.0800776123 L -730767.9292615236,-1185238.7250818422 L -721641.6234478188,-1182385.4688025278 L -715108.1712136706,-1182147.7835046395 L -713281.8636477162,-1183646.1679009506 L -716075.648908155,-1192295.1896654803 L -715325.57817919,-1194905.8260256373 L -712906.7169637429,-1196415.8648089394 L -708618.133580932,-1197289.859770786 L -696986.1373489613,-1200830.2483069885 L -695773.9794137134,-1200133.244381897 L -693594.3437839812,-1186493.9784225058 L -694605.3473993656,-1182031.6025251655 L -692159.324228165,-1172766.1127618735 L -689142.677347158,-1164166.0658722334 L -689360.0843126774,-1160673.648819075 L -691849.5220852873,-1155347.127598308 L -694779.3397634755,-1150463.4203156757 L -694453.1736554512,-1148474.7828531773 L -689832.9695095671,-1145138.5366039088 L -680962.2532467236,-1141719.6922405155 L -671765.259556365,-1140918.8982315282 L -666655.9175679353,-1145928.3387320356 L -661312.8046488396,-1149999.4553562484 L -657627.4615866377,-1153634.518013609 L -656360.9797398825,-1159010.347682128 L -650534.1836332902,-1162950.3184035597 L -633885.1292707573,-1167890.9819705468 L -618556.9919859775,-1168653.6705862978 L -614877.1035788243,-1167078.5069825621 L -607946.7973599983,-1159557.3793295214 L -599152.1123093665,-1154402.4439601416 L -585797.1129988974,-1155043.3189511953 L -576110.9814659932,-1151982.633767693 L -567713.1504000394,-1146210.1242483798 L -562087.285974329,-1133397.7305135482 L -555934.3237597123,-1124144.7526750383 L -553249.1863222878,-1110987.065887938 L -543541.3474886788,-1104078.9142073628 L -535942.4564081483,-1100939.8037194717 L -525625.8112793909,-1091380.602571753 L -514945.0400962486,-1086527.4304886989 L -503900.03153923084,-1087646.8947975046 L -498741.7089748522,-1082650.8975198518 L -490496.05165281286,-1079122.0904762214 L -482261.30364087113,-1078862.9477966737 L -475021.0839596766,-1089880.501471624 L -465443.71156927734,-1094226.565246161 L -441212.2414108516,-1103025.1704185153 L -431656.5763211569,-1107014.2101946822 L -421970.44478825264,-1109530.2499257873 L -398652.01709331316,-1110335.8933691138 L -376958.85396395565,-1107621.140423267 L -366207.39490415965,-1105579.6975499978 L -358842.2747542951,-1107074.8914707873 L -351846.73531386425,-1101844.57438282 L -344622.9909173071,-1090878.7550058751 L -338703.68831386557,-1087354.6020869333 L -332653.91926721437,-1083566.2954134948 L -328186.0001847355,-1074915.5023963132 L -322924.3731329006,-1066321.865552689 L -320059.7886763173,-1062519.0523560173 L -313558.95305297174,-1054043.840526628 L -307976.7258676522,-1053917.117988752 L -302475.87323010265,-1057575.8754514037 L -300100.64925504656,-1060309.1658389468 L -299018.9577630083,-1054710.5229675588 L -301204.0480477895,-1045642.1125216602 L -300763.7794617021,-1040034.6281142279 L -297692.69734969724,-1037886.584151471 L -299361.37651668844,-1030666.7933174293 L -305759.0189720686,-1018377.7824157226 L -305786.1809278222,-1011106.3867358487 L -299437.519048391,-1008849.8838295789 L -294909.7100798654,-1001128.9658980973 L -292202.7540222454,-987946.8266971093 L -289474.2019834115,-983535.2768653892 L -289207.8144419432,-980823.7590164167 L -284631.1362169593,-948919.8491175432 L -278950.9478797417,-916935.0044562502 L -282560.14841024124,-912761.4821746212 L -287511.9733191984,-911542.4177884397 L -290735.2291751176,-910054.3943488275 L -291653.8376131438,-907078.3825352531 L -289539.4352050163,-902708.1106240535 L -290920.0195298345,-898711.5138044344 L -297094.8003646466,-895961.3096625794 L -310553.1041625718,-885812.8511996487 L -311488.0765657445,-881773.7829174527 L -315048.29652029497,-873126.2223559344 L -318026.98345494136,-867848.4363794288 L -322418.8713252084,-858068.1194311574 L -329403.5014555415,-832186.8590112616 L -331990.78906055883,-810757.4377941366 L -332376.7337351391,-804166.0605862252 L -335089.03312831715,-799553.1661936756 L -338154.6605852732,-792913.8772267225 L -352759.88909684145,-774561.7572820853 L -360206.60643345746,-759566.0895493727 L -359244.4720745312,-753052.2305778186 L -358907.50797589996,-746511.8051055366 L -361108.8509063369,-741794.5533274338 L -360706.65358610085,-729127.5819736266 L -358896.5986658022,-718530.999222632 L -356287.6037600803,-708133.4097888174 L -345710.0257449034,-678728.2872457458 L -340209.2844268446,-660888.8170830549 L -336774.07626045495,-646507.2736783394 L -333768.227370055,-636837.6450651435 L -330930.916188716,-632915.6564316563 L -329756.8295193194,-629195.9280308479 L -314053.5455505662,-626530.4329312608 L -310987.91809361026,-624395.0058804158 L -306682.97074565286,-605653.5072742753 L -307454.86009481334,-597201.8761471523 L -310536.85151691595,-593991.8370952782 L -310433.5470294598,-586824.3225100231 L -311161.91045772017,-577927.4445031462 L -313439.39591985976,-574407.2339901666 L -322239.5356255404,-573959.7033989968 L -328207.7074854402,-570587.1076797232 L -336089.23875309475,-571924.1677162793 L -336839.30948205985,-574128.9241751872 L -341079.0236084124,-574931.2194455521 L -352738.1817961367,-579996.0160646515 L -350814.02439777507,-596235.527985607 L -356216.91588342655,-596928.841995064 L -360407.760753321,-594794.2489092146 L -368691.4893412116,-575275.0311172343 L -372648.56328044005,-571907.7379207687 L -430873.77766189864,-581971.8683381631 L -443516.88882874465,-590072.261998627 L -458654.7811037588,-591922.8496552764 L -485049.63424626103,-590994.8105815203 L -506818.93990732136,-588587.5123023646 L -513058.9539637383,-583669.4288009555 L -458100.4100396083,-586545.9635153352 L -452186.56209121563,-585989.2488675484 L -449419.82746703963,-583025.3212674664 L -518918.366681133,-576590.3832353911 L -545432.8882762381,-572764.5512187105 L -553270.8936229924,-573817.8667444189 L -559233.7221473341,-580061.5192152263 L -588031.0725401369,-580803.8552603669 L -593939.4658334806,-578762.5338188024 L -597510.5950981289,-574156.1962534453 L -586182.946353987,-575154.9874508239 L -568272.9761192388,-575427.8244204958 L -563478.7796092449,-571907.7379207687 L -619464.691113906,-567301.8439029757 L -658317.8650685375,-558527.4194152066 L -674787.4724119115,-552034.6718505323 L -728968.672331832,-530688.8549398049 L -762000.3935154292,-520604.3344368391 L -770653.7028127536,-516901.4342130755 L -785688.4019198023,-506448.0469526432 L -804995.3204445153,-499888.6699134796 L -826666.7762731682,-487611.16913898196 L -839902.3297700163,-484852.8024931728 L -842864.6527395159,-488772.3964589724 L -843207.0714931961,-509528.76307363337 L -845049.7430242971,-537365.1981471615 L -844364.9055169368,-548002.8744015454 L -842614.6291631942,-558025.4554962805 L -842565.6485872451,-566319.5909593006 L -835983.327096639,-569430.1233091375 L -834243.960052994,-572928.2924751579 L -833249.2090832653,-583729.4578685076 L -827085.3375585509,-593576.9389695453 L -826982.0330710948,-610726.0451877492 L -825150.2708500915,-614308.1747047587 L -823753.3225601267,-618857.1571984118 L -826405.8433867488,-630124.3858628148 L -829819.4555719246,-651380.9119660446 L -831493.5893939645,-652768.7176428542 L -832982.821541797,-651850.7840285825 L -836445.3029834309,-651462.8232032137 L -850050.4371897125,-658812.2204124755 L -860540.963363089,-660079.9936977633 L -867906.0835129535,-666353.7732783023 L -868395.3326749901,-673497.1846417132 L -871993.6238953918,-677689.6205529177 L -874472.2636773947,-685949.6338038631 L -878157.4954201061,-695435.6380218553 L -888506.757159666,-701177.2292097901 L -898230.8486389307,-702549.8297553145 L -905139.447557052,-701335.8113005684 L -913249.1837808328,-701691.2786577372 L -922516.7540283544,-704863.0306955323 L -928947.0130945372,-708472.5658320542 L -935007.5801317955,-715407.7824896437 L -940638.7878930639,-720932.4527958864 L -945139.434905836,-720248.6174511128 L -950618.46892319,-721556.0228213561 L -955999.653108137,-724072.4430611987 L -957744.3634873399,-726009.0460530521 L -935219.6437617566,-748120.8900051597 L -927577.226760326,-758930.9912706311 L -926745.6701641002,-765527.635100968 L -926680.4369424954,-772212.7845693993 L -924212.7064705901,-779046.4809075384 L -923576.7382196881,-789484.9602023058 L -936056.6550130312,-827390.426419058 L -939220.1323023946,-839132.8337906657 L -942573.8546015235,-842570.538973278 L -944704.6209747974,-843859.1094459302 L -938421.0809974804,-848728.3625913748 L -929713.447788649,-847461.6739399419 L -916369.2464687867,-843661.6948607687 L -913482.9547114987,-847423.2661323819 L -903405.535168456,-866575.735006083 L -903671.8113904337,-873685.7992956785 L -904677.3603507694,-878596.6550030232 L -898774.4217124744,-891712.8319006667 L -894088.9843449855,-896806.6006501805 L -891653.8704838826,-902290.8614899314 L -892420.3051779942,-909757.8526333153 L -895964.272486889,-912547.3562918699 L -900633.3458892312,-912031.1641665796 L -906210.2297389928,-913865.1913559281 L -914727.7292575492,-918165.2382266306 L -919065.293216309,-921993.2617926288 L -917733.5781479493,-939341.6815477129 L -916934.526843035,-944715.7199235536 L -913928.6779526351,-947820.6629798827 L -909232.3312750485,-948656.0238857291 L -896024.0510534449,-949178.0482385433 L -885337.8252152539,-947199.6115333072 L -875945.2431795715,-946051.0612578943 L -870917.3870584024,-946067.6055678813 L -866889.6252425201,-940924.2046719111 L -861497.6430669663,-935665.9660568101 L -856725.265177168,-935704.4477326381 L -855067.3840007837,-939616.478070753 L -856154.5301478708,-956741.0202790693 L -859339.7147379387,-965806.2349151853 L -866514.5898780377,-974543.2914013776 L -885098.7109490299,-982000.733480454 L -885544.3228706754,-992435.686206749 L -883674.6007033116,-1003742.7522923708 L -879657.7481975271,-1007947.2726608723 L -865840.6616807751,-1015135.468029714 L -868270.3208868292,-1018988.8458283723 L -872678.4614027521,-1023112.3009248305 L -881435.0751875323,-1027274.7461723397 L -879423.9772668612,-1040827.7520817622 L -878999.9613264297,-1052919.827130126 L -886403.1527421456,-1051564.4190764118 L -894007.4984777248,-1050864.7300941562 L -900426.8482338098,-1054589.3276463186 L -905802.5777637076,-1061929.3230957063 L -906813.5813790923,-1082149.16585614 L -906791.8740783875,-1105524.4425190624 L -907830.0396495257,-1115859.9229487635 L -905764.5064978565,-1121384.7812327368 L -899220.1449536107,-1126474.396716098 L -892061.5224591676,-1133055.4337826115 L -889512.3061200015,-1137263.0696633807 z" /></g></g>
</svg>
