<?xml version="1.0" encoding="UTF-8"?>
<svg xmlns="http://www.w3.org/2000/svg" viewBox="-12182151.738324393 1979813.2615654718 4786553.313756046 5557072.868370344">
  <g id="map"><g><path fill-rule="evenodd" fill="currentColor"    d="M -12164991.72749912,3141027.6038612034 L -12182151.738324393,3144888.393685705 L -12181597.255940754,3137998.2953618043 L -12177292.419912286,3132014.901831614 L -12164600.43948898,3135458.05428997 L -12158632.267629081,3136105.294916859 L -12164991.72749912,3141027.6038612034 z" /><path fill-rule="evenodd" fill="currentColor"    d="M -8772437.85039675,3981431.6673434465 L -8792386.303146904,3984278.818691378 L -8793065.685999215,3983469.0962891523 L -8791935.12525072,3981118.3618900087 L -8787352.992370687,3977031.730112997 L -8781803.27047668,3972059.323722499 L -8780596.567196479,3971902.7304957802 L -8778547.398009956,3972294.2175493957 L -8776226.497946408,3973220.745318542 L -8770269.124077113,3976574.8533202875 L -8768518.847723372,3978872.5202913135 L -8769160.270629324,3980778.8569850484 L -8772437.85039675,3981431.6673434465 z" /><path fill-rule="evenodd" fill="currentColor"    d="M -7838925.068387325,2078040.940647729 L -7834386.350108703,2076632.33676726 L -7823787.064792822,2075670.3767155388 L -7812823.653422556,2075647.3924911886 L -7798941.333684199,2070758.0903510717 L -7784167.567463568,2061681.074186408 L -7774519.507196516,2048490.4266958993 L -7770388.552212669,2036405.4832915103 L -7770372.188247522,2025847.0324741977 L -7774720.661516379,2012416.6806877244 L -7775900.202840824,2002908.8390443912 L -7770779.951542298,1998367.4675508428 L -7757272.667168423,1996599.2294606513 L -7746325.508443813,1987657.1581679308 L -7737922.11140332,1979813.2615654718 L -7736150.239068362,1993062.9653950268 L -7720898.1329957945,2010841.3063970513 L -7715930.055441182,2030897.061795719 L -7712473.028654597,2033434.0067259548 L -7691502.774298451,2043458.923176347 L -7691111.486288312,2045825.8680324012 L -7694187.911735875,2049576.8891961644 L -7697237.286547176,2054415.4319163428 L -7695111.97482895,2061257.568623914 L -7691317.983943734,2070632.1769619733 L -7690056.956752026,2079335.2865973674 L -7687741.400024038,2088294.1819771514 L -7685431.297951095,2102038.180752389 L -7684029.006325572,2114506.426009679 L -7678691.236742035,2132930.6067388314 L -7677604.201914439,2144303.6671202597 L -7677517.261392128,2151165.146595612 L -7673364.487788085,2157902.442755025 L -7665232.932944109,2165930.513958445 L -7654225.995652943,2174042.5005450696 L -7645496.543823915,2183493.474948338 L -7638805.463190805,2189896.509532334 L -7630711.979612679,2195137.901470999 L -7624493.672856967,2199954.473311272 L -7622064.013650914,2203262.147994101 L -7621254.164355392,2205959.5043579526 L -7623939.301792815,2208507.303640429 L -7633766.697759537,2220997.515867424 L -7647458.772488128,2240019.787248747 L -7647225.001557463,2242341.169225423 L -7634098.20720312,2256044.197144958 L -7631994.714105091,2261465.814474749 L -7632141.433193956,2269132.6929616104 L -7636538.775719272,2278353.314561314 L -7650709.1902998015,2281281.2646837058 L -7653861.869598557,2283792.9120150153 L -7654253.157608696,2286721.719675062 L -7650991.830486925,2290623.7613710063 L -7651497.332294618,2299727.5348424492 L -7646377.080996091,2309798.0724699274 L -7649018.803832106,2313229.513794601 L -7654242.359618089,2317867.597246689 L -7654389.078706955,2322402.565489414 L -7652676.873619063,2327437.550550864 L -7647181.586956053,2331522.227452976 L -7625368.866693583,2345674.8366370387 L -7623640.297640545,2347626.1547392188 L -7623982.716394227,2349089.8408201803 L -7632418.730045523,2358536.6486026975 L -7633293.812562647,2364372.3107458544 L -7633060.041631982,2373978.423095013 L -7631869.702316929,2380191.3632571823 L -7629151.948268703,2382774.965129927 L -7618204.789544092,2385708.068417009 L -7604664.888559415,2407349.231433895 L -7591657.651338185,2427721.5516207707 L -7591826.189047245,2445290.888588387 L -7590478.221333229,2465789.3536314047 L -7582210.7453909945,2481898.8764763954 L -7581058.477341793,2494802.202241965 L -7578270.035416912,2509461.855313992 L -7568431.730140094,2518385.6364087705 L -7564594.213333978,2536036.036589383 L -7563594.119028691,2545443.855507082 L -7564202.925323838,2551636.260189004 L -7556560.508322409,2570862.8833338986 L -7555669.061840136,2587402.5637505283 L -7557479.116760435,2599302.5227289246 L -7557386.721583076,2605939.6410320266 L -7556305.030091038,2610621.310233831 L -7549744.415901137,2614820.718762464 L -7546841.871498192,2617451.7243265803 L -7537144.830655191,2618619.9066703497 L -7522963.618084054,2618926.7072861283 L -7498732.036606137,2614513.994906292 L -7480099.046278686,2610468.0471653137 L -7459384.270153911,2632183.9539494235 L -7468396.362170062,2661688.4304086333 L -7482800.547681257,2708870.4708017875 L -7493932.496760585,2745449.1391593693 L -7495764.258981588,2750338.289338418 L -7498057.997089384,2757525.9869691883 L -7522055.807636634,2767908.7882406963 L -7557060.555475052,2783090.6269116974 L -7574997.798985045,2791021.183047901 L -7597587.863251724,2801247.3119042157 L -7603066.897269077,2809605.185542062 L -7609589.440193128,2814120.2739228494 L -7616764.426652718,2819975.080839104 L -7619498.4333466,2826322.441187638 L -7626194.968634762,2830340.1059086304 L -7632288.263602312,2844745.618710095 L -7632288.263602312,2855822.240710981 L -7628396.422884689,2863371.01673734 L -7621634.654374924,2866559.308756972 L -7619498.4333466,2875612.708228035 L -7617373.121628376,2882007.3002438685 L -7612497.550570612,2887036.082324792 L -7613720.506496466,2891069.8599390914 L -7617672.125780646,2894095.904071912 L -7624977.4673639545,2895777.3443372776 L -7629929.180953421,2904848.346685249 L -7635636.531246392,2927423.4600326605 L -7636549.685029369,2935514.0830202657 L -7630048.8494060235,2955989.139187062 L -7626591.822619439,2967039.8632948156 L -7617231.85719456,3007186.9885129686 L -7615867.525515396,3018131.1978606824 L -7628706.225027565,3033423.390445816 L -7633821.021671046,3042737.53473452 L -7635647.329236998,3050953.0243176795 L -7635582.207334884,3057460.8585108058 L -7634418.918656096,3063424.8687638654 L -7623727.238162856,3082341.752905402 L -7611285.392635363,3099310.351813735 L -7605197.552322861,3108180.178805296 L -7605197.552322861,3120129.0881701843 L -7608241.472479112,3126961.6670840248 L -7614851.067244963,3129488.119381762 L -7629543.347598331,3134139.4065776207 L -7635636.531246392,3140978.692434723 L -7642327.611879503,3142017.127523785 L -7648719.799679835,3136532.7202197956 L -7655416.334967995,3137900.6189282564 L -7663939.289141601,3142689.067783304 L -7667140.837696814,3154325.1045529363 L -7674587.44371394,3174184.9787051 L -7680979.631514272,3179684.121302716 L -7685741.100093972,3194870.512814573 L -7694236.892311824,3216680.2458648505 L -7698329.77602982,3229841.803488351 L -7700460.542403094,3239484.377083277 L -7709010.658532453,3245649.9207141767 L -7718973.975597433,3257903.1119688167 L -7726637.988580077,3269834.4084945824 L -7729681.9087363295,3273287.614562666 L -7735465.290241512,3274323.7233468024 L -7739726.711668569,3285035.0553542445 L -7754174.423100665,3301216.781686751 L -7757620.540577152,3320017.211044142 L -7762854.894353742,3330046.5798729183 L -7763773.502791768,3348168.342452979 L -7771752.883891829,3381439.459637274 L -7773204.156093302,3388790.581356246 L -7781270.477715673,3394602.17597452 L -7791875.106367113,3407504.076175716 L -7795348.497118846,3416951.898659072 L -7790429.2888206905,3445249.354928851 L -7784308.943216877,3473909.4541354454 L -7783917.543887247,3487366.93108287 L -7786292.879181794,3505658.856196255 L -7787907.234437279,3513621.1270547686 L -7783852.310665642,3516912.995309953 L -7777155.775377481,3519024.351409745 L -7775030.463659257,3526064.3538812106 L -7779900.691381463,3530994.6931009186 L -7782026.003099687,3539803.782857858 L -7787505.0371170435,3549677.0981333256 L -7803719.166229046,3553558.0231923815 L -7809421.061866967,3550029.9422718138 L -7811247.369432922,3553205.2093991213 L -7810334.215649945,3560264.2664512913 L -7813954.214171051,3568589.1438277583 L -7822352.156556496,3590903.9487607623 L -7827901.767131014,3611207.5220640795 L -7831119.679651375,3620073.1364529943 L -7829815.126538768,3627525.0941959447 L -7827075.553870345,3631785.292908531 L -7826771.206382516,3635691.8059268203 L -7831391.410528401,3640602.0875471206 L -7835598.50804395,3648485.5101340674 L -7840164.388278327,3649552.228902536 L -7845029.161345484,3647406.1412967127 L -7850203.7365555195,3652041.6848456115 L -7851258.266091805,3661724.6626278926 L -7854111.94123829,3674036.3270654446 L -7855416.383031405,3688449.5954389004 L -7857509.078138828,3706923.904825234 L -7850877.776072271,3719600.448793339 L -7842474.379031778,3742574.7350207805 L -7836207.3143391,3748065.7757201 L -7829206.320243618,3747707.354586872 L -7823727.286226266,3752368.315311384 L -7820683.477389505,3757761.342766216 L -7824749.199151748,3767387.769146723 L -7831945.781592551,3768875.3411977566 L -7832859.04669502,3774275.7717471747 L -7830728.280321744,3786496.7556201136 L -7827988.818972814,3798370.1542302393 L -7821063.856089546,3804066.950070056 L -7817943.904721083,3819975.681196217 L -7811247.369432922,3825386.459951175 L -7812062.673383492,3845776.0700703436 L -7805295.450218678,3869770.263336878 L -7798158.646344432,3876730.8460070915 L -7794810.37870035,3879992.5650617066 L -7797055.247551688,3890483.0211206395 L -7802724.415259316,3898856.1791756996 L -7803942.027849615,3912296.8681485215 L -7801811.261476339,3922114.6857375 L -7794571.1531146355,3931394.6143211704 L -7788918.238052663,3932447.967896485 L -7780808.390509391,3928664.541306545 L -7772285.547655277,3933033.072412107 L -7771067.935064979,3941046.4031814355 L -7769850.433794173,3948336.1513176016 L -7774416.314028551,3957819.633132759 L -7779291.885086315,3975348.0055425484 L -7780601.892853969,3992785.4188999254 L -7779172.327953203,4019377.7592888526 L -7776949.166402571,4040032.1886522463 L -7776487.190515777,4053060.4219642533 L -7775938.162787185,4058962.101456996 L -7778982.082943436,4063012.4246095563 L -7786390.729014201,4065103.797697874 L -7792679.6123270765,4065958.9379773717 L -7798158.646344432,4069261.425642481 L -7799376.147615236,4075895.8560763993 L -7803659.38766249,4086961.812985809 L -7808089.346798609,4095176.126353797 L -7815818.593002857,4107119.3032117416 L -7820715.982680816,4119484.904041334 L -7824640.440009242,4127630.51867276 L -7824287.223264955,4133280.2902428787 L -7827108.170481148,4144190.9274463137 L -7830005.3715485325,4153256.0252913837 L -7836131.171807397,4183858.8266013796 L -7844306.252572272,4190228.917256982 L -7850817.997505716,4193382.1589959515 L -7854166.265149797,4197481.286527313 L -7851622.392146189,4205804.01142563 L -7844730.157193214,4208295.435503041 L -7842295.043332111,4215013.024596036 L -7843208.197115089,4225470.63622549 L -7838642.428200202,4235190.285995577 L -7839088.151441338,4246977.542237357 L -7834685.354260975,4269276.9550893605 L -7838642.428200202,4283918.210666091 L -7837299.803821744,4296564.076762807 L -7837424.815609905,4309117.13786764 L -7843208.197115089,4318898.151043728 L -7855079.418932774,4320782.737690938 L -7861591.163866217,4329819.726582744 L -7872728.567600593,4339659.966398275 L -7873946.068871399,4347592.638779212 L -7875772.487756846,4354774.82668287 L -7880338.25667173,4357422.16389889 L -7887339.2507672105,4357422.16389889 L -7893122.6322723925,4358556.89714421 L -7901227.025160616,4367882.629141419 L -7909864.081812285,4372927.185912377 L -7911837.108467103,4380451.276057253 L -7911076.128428042,4389606.432765095 L -7915642.008662418,4395298.519681555 L -7921425.390167601,4405931.710645597 L -7925078.005299511,4417336.240932169 L -7921425.390167601,4427991.614312443 L -7917468.316228373,4447045.626585405 L -7916864.964588274,4455058.408711764 L -7921882.022718835,4470856.723552418 L -7925991.270401977,4481046.825768975 L -7922039.6511178,4494065.120649665 L -7918691.272154229,4501333.304426598 L -7921811.334842182,4517338.537365547 L -7924469.310323853,4527436.567305921 L -7922338.543950579,4545901.685294938 L -7914391.77946132,4566714.118649653 L -7906820.161656033,4585249.181902043 L -7905705.853553193,4606860.082002212 L -7903738.170233931,4623998.684305308 L -7900118.171712824,4642609.165401563 L -7892513.825977244,4649996.306188341 L -7886724.989817013,4656221.084717304 L -7887948.057062359,4665175.752623167 L -7892209.478489417,4676087.86639779 L -7898297.207482427,4684279.57888178 L -7913380.775845935,4686997.670728747 L -7925643.39699325,4694402.843631512 L -7935492.500260675,4699552.010220056 L -7942998.996163846,4705765.202616091 L -7948385.523684353,4712373.5959173 L -7951059.863131169,4719615.550540429 L -7949255.26286592,4751216.230572537 L -7950440.258845414,4762895.408647942 L -7955489.822267287,4779468.861999658 L -7960207.876245579,4792857.168202836 L -7962213.519511201,4796887.060791459 L -7962822.3258063495,4802807.867206885 L -7963735.479589326,4808337.161581733 L -7969029.723251965,4809593.056740093 L -7976519.85518999,4807152.065931356 L -7980781.276617046,4808732.320982131 L -7983825.196773299,4813079.093139204 L -7981254.161813937,4823459.70959885 L -7978498.3364998605,4841747.522524453 L -7974693.547624036,4849508.295003886 L -7975720.803885076,4855658.998884052 L -7977128.661485139,4868965.484706645 L -7982096.739039752,4879745.688714478 L -7988695.424495505,4879703.051514584 L -7992956.845922561,4884080.943944988 L -7994777.810152958,4891647.336362357 L -7992804.6721786475,4901512.307422016 L -7984129.544261127,4909590.945356172 L -7981085.624104877,4914780.748355653 L -7982607.584183003,4921571.462253387 L -7989304.230790652,4924369.077748929 L -7993255.850074831,4929966.549900539 L -7997028.022339853,4942443.909424106 L -8002066.787771119,4956541.025523994 L -8007447.971956067,4966973.141537798 L -8008475.228217107,4981292.376481772 L -8000870.993801018,4996567.410778321 L -8001724.36901744,5011549.474849133 L -8002267.942090984,5055564.216282122 L -8003001.648854802,5070536.310743329 L -8000659.041490549,5095377.139054308 L -8003605.000494901,5102237.088431877 L -8005126.960573027,5108752.7263912065 L -7997691.152546508,5126883.070260494 L -7989402.08062306,5156270.298750298 L -7987173.464417378,5167988.989250594 L -7988390.965688185,5176190.547384285 L -7999506.662121857,5183152.751015022 L -8008779.687024427,5186041.670143427 L -8014258.721041781,5181114.757779459 L -8017911.33617369,5183167.315043651 L -8022172.757600746,5191792.840384025 L -8027048.439978002,5198781.080563846 L -8028874.747543957,5205774.623339036 L -8023700.172333921,5214832.5991073735 L -8020955.256329942,5232134.530677372 L -8026738.637835124,5239565.718292432 L -8031000.059262181,5247829.345146882 L -8029478.099184055,5258583.038327544 L -8027651.791618101,5278053.633861168 L -8031304.5180695,5310455.804055333 L -8026401.673736493,5321965.981493875 L -8021091.177428199,5327503.030591143 L -8003713.759637407,5334116.1874269005 L -7990679.360460421,5337394.610252959 L -7987244.152294033,5348162.124228645 L -7988717.131796209,5356925.450952509 L -7994989.762463429,5361257.880072111 L -8004425.759100519,5365024.389081122 L -8004425.759100519,5379206.954348917 L -7996348.639487541,5392556.474478242 L -7987244.152294033,5402232.478246659 L -7985254.761674066,5410941.835977981 L -7985771.061472366,5419855.126434307 L -7992152.45128209,5427331.957438711 L -7983384.928187212,5443555.033253882 L -7979389.782982131,5454552.531139658 L -7983406.635487915,5463039.658639032 L -7989086.712505644,5475769.8156392025 L -7994114.679946303,5481869.134162842 L -7994087.406671058,5488805.617011283 L -7996163.849132825,5502876.6364139635 L -7996642.188984764,5516680.665727498 L -7994968.055162724,5524921.244491194 L -7939944.1666974975,5531433.935035106 L -7927350.147426092,5533976.420234255 L -7920479.619773822,5542217.521539364 L -7921463.461433453,5552556.120584489 L -7928339.33242128,5563578.623772838 L -7932753.038911743,5584301.0187844755 L -7943553.367227998,5587761.871752855 L -7954353.806863742,5582219.028479983 L -7966067.288962974,5584132.635847042 L -7976226.305692769,5585449.367275566 L -7990826.079549289,5586077.226132575 L -8010220.049915802,5588757.562817161 L -8022096.726388535,5585679.085808712 L -8023075.113393117,5593292.887363753 L -8019645.248562286,5606452.167187357 L -7994114.679946303,5610612.548734507 L -7970062.434168053,5618247.388678929 L -7962827.780461399,5632212.722093071 L -7953049.253751136,5648049.9049819335 L -7943064.229385451,5657877.380391418 L -7942569.525568367,5673929.951668856 L -7958278.264192169,5690692.825173988 L -7960245.83619194,5702599.199243567 L -7980862.873803798,5706106.027900152 L -7986749.448476946,5713123.498514934 L -7989695.51880079,5736295.820222938 L -7987244.152294033,5754596.354660803 L -7979389.782982131,5760933.83102656 L -7973986.891496479,5772934.4759093765 L -7979879.032144167,5787065.467015509 L -7993772.14987313,5796827.727608893 L -8001164.543298241,5806114.421958864 L -7996538.884497307,5813541.250821618 L -7990250.001184432,5825330.293462321 L -7988521.432131394,5831750.208148859 L -7985091.678620055,5849176.683475911 L -7981074.82611427,5873530.608785449 L -7981569.418611864,5885352.800457181 L -7985249.307019017,5894194.23927421 L -7999022.867614868,5908124.3066131035 L -8008350.216428946,5914573.144082605 L -8010176.635314392,5931766.926649031 L -8010883.1801224565,5944688.683208439 L -8009910.247772924,5956368.012727399 L -8003931.166602926,5965665.285835804 L -8004425.759100519,5975052.460379356 L -8012611.749175494,5977052.744883272 L -8019645.248562286,5981567.079786189 L -8026515.776214557,5998203.928441582 L -8046496.734256022,6015226.482368695 L -8053513.980997157,6022865.401038374 L -8053019.388499563,6035955.5203890465 L -8060933.53637802,6054699.588841321 L -8067570.293099624,6071024.88596955 L -8072657.92778735,6086311.299273395 L -8071674.086127719,6102420.706280992 L -8060411.670605182,6109503.431573443 L -8051551.752332944,6125184.300894231 L -8047621.951668961,6145054.2286876105 L -8054492.3680017395,6167931.467872572 L -8070456.5848569125,6176575.531077517 L -8079887.126838954,6186310.525375484 L -8082729.892675343,6193692.857143714 L -8080229.656912126,6217787.531001822 L -8080876.423153634,6229118.949574188 L -8083398.477537047,6239788.737546678 L -8087502.381884632,6248027.1807838 L -8096095.912615401,6257282.093778028 L -8111342.564032921,6265355.380103162 L -8124289.911368105,6270918.63264625 L -8130067.949537729,6277297.488265962 L -8136851.425348197,6291315.069106067 L -8142895.739739801,6306819.430545052 L -8141379.234316724,6326036.040783609 L -8177704.787913404,6328286.838430605 L -8180161.720394702,6342606.643369592 L -8188015.978387111,6353939.601901457 L -8190472.91086841,6374354.095287051 L -8182488.075113299,6394146.192310094 L -8178688.629573035,6410767.975806985 L -8185200.374506478,6430866.134085625 L -8182841.403177078,6451520.242897272 L -8182123.9490589155,6468002.722308546 L -8169361.280758958,6486403.94928274 L -8161023.228259559,6509190.492902269 L -8156843.292699762,6528520.536894115 L -8154332.036306956,6543565.24796673 L -8150994.677972974,6552725.196742404 L -8145749.414886286,6563130.346924322 L -8143346.917635986,6575128.584453805 L -8135492.548324085,6579011.745474726 L -8121376.457655063,6567779.85190006 L -8111396.887944427,6560163.406377623 L -8104461.127070552,6557454.667489291 L -8084067.062398752,6559203.220810996 L -8071755.57199498,6552160.010418629 L -8066227.668721166,6552896.58460109 L -8058704.920172339,6556854.757379884 L -8052878.012746256,6565205.995960742 L -8048469.872230332,6584151.818644492 L -8045762.916172713,6605434.021702655 L -8049219.942959297,6627203.569878339 L -8054987.071818824,6631941.528764851 L -8056949.300483038,6638188.031344074 L -8054987.071818824,6651492.815652768 L -8048605.682009101,6660895.4744541 L -8048757.967072506,6674341.583537141 L -8055791.466459298,6704912.11401509 L -8060384.508649428,6717521.880494621 L -8052242.044495353,6731762.193011764 L -8044947.612222144,6744466.266175412 L -8030249.988533216,6753976.803489815 L -8018166.81440506,6767401.59583583 L -8009823.307250614,6778523.832649587 L -8011785.535914825,6793647.715127789 L -8005947.719178645,6798236.361644655 L -7983455.616063864,6798554.162654611 L -7949853.15985097,6799030.706776176 L -7897356.891743696,6799790.053555608 L -7846116.19617308,6800531.570191353 L -7787939.851048081,6801608.797922793 L -7760370.911236181,6813768.610003073 L -7735416.420985052,6824777.5737881325 L -7703999.05505694,6824777.5737881325 L -7672647.033669922,6837841.327147705 L -7649339.51528508,6846449.992293719 L -7635381.053015022,6849700.532483187 L -7621042.100725432,6852810.2433846155 L -7619079.872061218,6864869.393842238 L -7681849.370695839,6847764.165199567 L -7695938.188089617,6838444.637686606 L -7707874.643128908,6837362.489456898 L -7730790.762184121,6848989.961749168 L -7743450.125996622,6876714.800107808 L -7750097.680708833,6884597.680671375 L -7766018.3716431055,6892059.599666958 L -7782036.912409786,6893524.279496201 L -7835886.6028861245,6920507.259800889 L -7855030.438356825,6922819.7597688595 L -7868097.454144612,6929994.25685515 L -7880876.375090226,6940336.959070264 L -7885768.310113136,6962593.919189547 L -7883778.919493169,6976172.746283001 L -7898346.188058376,7025088.916382258 L -7901939.024623729,7052411.186082136 L -7902025.96514604,7066363.129720049 L -7897873.302861486,7089213.276330584 L -7903221.870435632,7128468.098886004 L -7912902.435993996,7137082.8079677 L -7936829.669984085,7148104.126073178 L -7953098.123007594,7140085.45066781 L -7980917.197715306,7132958.345538236 L -8000740.527357809,7117804.658723378 L -8026238.5906824805,7107118.9341622535 L -8034419.014782915,7100828.1064739 L -8056949.300483038,7070635.579765802 L -8059335.433768191,7060651.611733704 L -8060966.152988823,7048039.054374218 L -8049073.223870433,7030066.171474059 L -8042681.036070101,7028758.03385496 L -8024037.136432554,7029302.956542001 L -8008513.299482958,7026414.67749797 L -7998609.760984535,7036028.35285758 L -7995881.2089457,7057022.64305921 L -8000235.025550117,7068243.390054344 L -8004181.190179247,7075184.654947297 L -8002947.324943296,7080431.011452925 L -7991788.213908214,7073138.118338133 L -7986118.934881094,7026142.217333989 L -7948249.713905583,7002820.349906328 L -7935851.282979502,6989232.2766176965 L -7923746.401550641,6968307.566518181 L -7921860.20409864,6962323.629356884 L -7920947.050315663,6954489.931517945 L -7928969.846017134,6948048.8890787475 L -7946847.31096057,6939510.523197084 L -8003648.526415802,6983323.109428997 L -8029374.906016091,6994910.736593188 L -8045953.161182477,7007511.885137743 L -8066021.171065746,7030211.492020256 L -8069836.869251666,7036937.656507359 L -8074092.947343166,7052046.780999031 L -8076109.499918885,7068681.6455569845 L -8095911.122260684,7061071.3292771205 L -8126143.492209303,7036955.906958383 L -8132193.149936464,7028158.457353428 L -8126127.128244157,7015851.167171587 L -8116919.33656319,7005591.570375733 L -8116294.277622386,6971265.013840154 L -8113984.175549445,6959279.30227267 L -8107608.351714259,6949685.557588627 L -8096008.972093091,6939151.237841031 L -8090252.752543662,6936708.23036687 L -8085366.160856309,6941271.309606489 L -8084757.35456116,6949325.815462567 L -8065483.052647251,6948750.224846565 L -8028092.060204188,6918517.993287871 L -8012698.689697805,6917801.317565554 L -7992413.272849019,6924541.075799937 L -7969497.153793806,6920489.2734474605 L -7965371.542145518,6917407.044777709 L -7960599.164255718,6910333.241451455 L -7977683.032549288,6902031.758710413 L -7994065.699370353,6897812.672827613 L -8040126.365075887,6894882.017061251 L -8050111.38944157,6898098.549486443 L -8063727.321638459,6914075.305170635 L -8068244.221296887,6910082.6716728415 L -8071152.331674371,6902031.758710413 L -8086784.816446979,6896365.143706234 L -8094274.948385004,6897544.558315176 L -8101449.823525103,6905215.251072767 L -8100275.848175197,6917156.25406713 L -8104270.882060786,6929976.249211366 L -8118740.300793585,6942709.112237053 L -8128578.606070406,6963008.319838005 L -8128116.518864124,6978826.205611923 L -8128882.953558234,6987081.316896475 L -8132497.608743783,6991438.070282724 L -8139955.124071006,6996683.953449017 L -8163969.298583403,6993120.133744177 L -8177514.542903638,6976497.657589335 L -8182819.695876372,6965170.894939091 L -8198147.833161152,6952906.273741148 L -8164833.471790431,6937678.207563015 L -8153130.787681806,6929007.387360188 L -8142444.561843615,6909706.74002389 L -8134470.635398603,6897455.249801704 L -8140118.207125017,6888845.482421423 L -8146782.125802376,6888827.749646304 L -8146157.066861571,6902514.457779636 L -8153500.479710731,6913752.916656621 L -8168861.233606314,6908453.883813672 L -8191521.874430156,6925078.936580225 L -8205453.174744462,6920632.614792143 L -8228146.432179106,6925527.395712475 L -8239251.219302679,6916564.991411517 L -8241632.0092522735,6905179.530058309 L -8237631.409392147,6893345.7527874205 L -8241800.546961335,6873310.8427475365 L -8248051.359008361,6868447.936963027 L -8254432.637498594,6869587.701981237 L -8257297.110635688,6857681.5623870995 L -8264189.456908152,6836794.860176097 L -8267249.62971006,6831156.1554797925 L -8270554.3714332385,6821466.166917603 L -8267135.415912504,6819111.907909036 L -8259340.936486652,6821891.123193485 L -8252508.480100232,6828161.100117973 L -8242121.147094821,6828958.572100657 L -8219215.937349706,6842543.838158398 L -8209714.596171519,6839278.555769241 L -8204556.2736071395,6836156.256837469 L -8202621.20689868,6824883.854310272 L -8202501.649765569,6814192.980651662 L -8198571.737782094,6814192.980651662 L -8185570.066535403,6827859.913892887 L -8177302.590593168,6826566.573727494 L -8162697.3620815985,6830181.3339453535 L -8155315.8779665865,6828710.521752479 L -8141613.00524739,6823608.761648554 L -8120055.651896801,6808605.497243204 L -8108869.378905966,6793100.850918311 L -8103504.558686164,6791001.719479431 L -8096867.69064507,6792994.987187838 L -8092421.478863296,6797441.91369878 L -8092350.790986642,6808216.713383024 L -8087312.136874867,6818209.212990795 L -8080457.861868252,6826407.120258735 L -8078550.068435037,6836386.918312617 L -8079952.3600605605,6846219.042980412 L -8092214.981207875,6860064.77125633 L -8094487.012014966,6864887.073905495 L -8090372.309676774,6869979.453676052 L -8085300.927634705,6867593.127887339 L -8078310.8428493235,6860740.794726422 L -8074326.60695434,6851335.119224381 L -8073261.279427449,6846449.992293719 L -8072815.556186313,6839473.694140438 L -8073348.219949757,6830978.82394593 L -8083306.082359688,6806820.4673149185 L -8084550.85690574,6801379.307644556 L -8084534.4929405935,6790454.853303829 L -8073206.955515942,6780426.0100005 L -8070010.861615775,6772608.959973314 L -8069510.703143642,6757506.602102531 L -8075397.389136282,6747167.36312095 L -8099743.07309226,6723326.92408385 L -8140433.463922944,6699486.26385722 L -8145107.991980337,6701980.613282831 L -8148255.105304552,6706290.767917539 L -8144510.094995285,6709433.197162702 L -8139123.45615529,6711022.392521926 L -8102873.9337708205,6730676.628139755 L -8093437.937133729,6742099.256299168 L -8087257.701643869,6745167.901111608 L -8079936.107414904,6752765.491531563 L -8081800.486246711,6763885.133790704 L -8118348.901463958,6774826.4415475335 L -8147325.698875918,6798430.511632089 L -8168986.245394474,6812795.883649007 L -8184004.580536377,6807545.073560388 L -8191146.839065674,6792959.7598028295 L -8198713.113535402,6774175.227744912 L -8210105.995501148,6763234.797589492 L -8216563.416523083,6764254.334822326 L -8221786.860989576,6762232.845429904 L -8225890.765337163,6756452.662866161 L -8234663.631767598,6761248.831733902 L -8253943.499656048,6748237.525253912 L -8259536.636151466,6742572.495420128 L -8245387.928871641,6724306.5371063715 L -8229826.020656194,6731324.363954911 L -8226053.737071683,6680133.249823602 L -8230907.712148233,6668536.58331471 L -8251138.69376602,6655932.551542487 L -8261074.848875247,6657563.427243245 L -8274636.4571606275,6655863.273169538 L -8283768.106309891,6650088.58448156 L -8294177.146616008,6647800.611866983 L -8302971.831666638,6644439.298215449 L -8314462.563464792,6636612.933808251 L -8328339.428548101,6632425.961243729 L -8347081.066698564,6600280.6376549695 L -8355120.2263651835,6583446.780889089 L -8359501.3162448425,6565103.044381527 L -8330774.542409203,6564691.25092011 L -8313978.768957806,6561723.924427797 L -8309880.43058476,6554078.678864869 L -8315794.278533153,6539510.80729397 L -8324012.773899439,6528059.318622521 L -8317979.368817935,6517323.018919233 L -8309385.726767675,6509020.183183118 L -8300438.867973128,6512701.642694195 L -8278338.052868486,6531202.653975125 L -8274538.607328221,6543753.443084524 L -8258813.727378254,6582122.797228976 L -8255019.736493037,6585544.815496244 L -8253160.70099679,6589122.956863788 L -8220661.754896129,6610694.16179293 L -8216106.783971851,6610400.911073339 L -8218117.88189252,6592306.929328569 L -8208763.371122691,6567814.2972568 L -8199686.045884933,6559734.829214874 L -8195136.529615703,6559820.507751526 L -8194669.099073862,6555740.879672872 L -8203496.400735297,6545584.801983604 L -8199175.089422192,6532039.900395631 L -8202012.511923022,6531612.605420981 L -8209834.15330463,6540297.574742035 L -8225564.599229137,6582948.149281719 L -8235196.295531044,6590757.877757435 L -8248410.141727187,6571401.971884592 L -8255911.071655819,6557489.069742652 L -8259596.41471802,6552553.987860046 L -8258302.770915513,6530758.431631351 L -8232114.415428433,6535167.595179933 L -8241099.34548883,6528042.1786591895 L -8271657.770225981,6515498.083437572 L -8279289.277917314,6509377.907439692 L -8284964.011599484,6507145.786164427 L -8295128.371664836,6492405.127266752 L -8307727.956910781,6479948.734203418 L -8285991.2678605225,6457580.8945854185 L -8274794.085559593,6441879.727720531 L -8239805.701686321,6450217.3658947665 L -8233033.023866459,6445362.700378917 L -8238892.436583851,6433905.262692245 L -8245801.035501974,6437367.775488344 L -8256715.577615783,6430241.432896104 L -8273701.596076946,6408848.349554546 L -8273125.4063926,6397945.387376416 L -8270016.253014743,6377993.496853505 L -8263287.101115782,6373733.775586648 L -8248997.129402139,6369627.054591028 L -8232690.605112778,6376098.035485528 L -8225570.053884187,6381365.716716508 L -8219427.889660176,6378899.29963157 L -8225673.247052152,6364149.12442838 L -8236310.603633884,6358574.173284368 L -8248154.663495817,6348087.467772192 L -8246937.050905518,6336478.488140687 L -8243121.3527195975,6326886.229602924 L -8240251.424927456,6316389.002718188 L -8238267.377643049,6301714.697543422 L -8239354.523790136,6290302.380332483 L -8235946.477579499,6285041.652163092 L -8230728.376448564,6282686.203588602 L -8230402.210340541,6278408.091566844 L -8240729.653459905,6279303.402158265 L -8244469.320433615,6293722.7540949145 L -8245866.268723578,6306886.027044301 L -8253204.226917691,6317471.34024927 L -8256329.632941202,6329420.916792745 L -8258188.557117959,6343759.420625029 L -8262276.097500397,6360231.185618054 L -8271206.703649287,6353956.387345455 L -8276441.057425878,6347502.461546131 L -8278446.812010991,6343091.067663673 L -8277511.839607818,6334692.691459959 L -8279941.498813872,6282984.781098722 L -8280180.724399588,6239920.709970461 L -8275604.0461746035,6206537.019310931 L -8262988.2082830025,6193298.926363452 L -8257259.150689325,6189459.560002536 L -8252035.594903342,6191149.266062738 L -8243980.182591069,6191050.811075041 L -8238653.32231763,6186244.869896012 L -8256737.284916487,6178262.683985115 L -8267706.150941802,6182818.389743242 L -8275821.453140123,6189197.011992051 L -8290453.843607443,6184392.116315188 L -8293236.830877277,6167342.529155871 L -8301895.59482965,6152629.572621727 L -8303401.302262119,6133833.950561308 L -8302727.262745365,6106692.298436062 L -8282224.438931061,6109032.1551885735 L -8265521.060657022,6114331.511486654 L -8221368.411023684,6113876.286841946 L -8185118.888639218,6139898.8357283855 L -8169122.166492733,6136409.4324143315 L -8169855.873256551,6131161.476406967 L -8182091.332448113,6124614.469682024 L -8189728.183475003,6110072.259368833 L -8194217.921177677,6105847.5577422185 L -8196332.3235858055,6097128.696177155 L -8197022.615748215,6086975.856892216 L -8206013.00046366,6049727.35554443 L -8209616.746339112,6050695.6897554565 L -8213068.318470647,6063456.483021125 L -8220574.814373821,6084755.499218329 L -8231059.885892148,6095116.706224273 L -8247078.426658827,6099319.840419769 L -8262917.520406349,6101689.943554206 L -8276669.373701495,6097599.31959083 L -8279870.922256709,6088775.266683251 L -8279523.04884798,6078567.611605697 L -8285474.968062225,6073581.425936638 L -8301009.603002425,6069164.419449284 L -8305423.309492887,6066689.997181732 L -8310549.0154464645,6057461.360089719 L -8303145.824030749,6043532.191524976 L -8297063.438373295,6035230.539407445 L -8289616.83235617,6036874.125983499 L -8282566.857684741,6040629.758579005 L -8273549.422333032,6051583.466246119 L -8264689.504060796,6053666.157312262 L -8254557.649286755,6044967.586992173 L -8252568.258666788,6039049.830361758 L -8258906.122555612,6035343.225904533 L -8264684.049405745,6033909.428701674 L -8273674.434121194,6029254.980528164 L -8291372.45204547,6012622.816971406 L -8282534.24107394,5995701.612371302 L -8261651.038559593,5976348.569948907 L -8255275.103404918,5971917.035009539 L -8260803.117998221,5955649.488906881 L -8254552.194631706,5937898.785514125 L -8260960.746397184,5923285.192292126 L -8272549.216708255,5907568.583622368 L -8288203.520101058,5904092.132476456 L -8291568.151710286,5908680.064897727 L -8292117.068119387,5915113.365440446 L -8289627.630346777,5919961.39307619 L -8291095.266513396,5923460.12125675 L -8294666.395778043,5923348.713578219 L -8314544.049332054,5919897.896407083 L -8327882.907316357,5909442.216814353 L -8349624.939702173,5899919.028734313 L -8352462.250883512,5892482.27078895 L -8354810.424222305,5881568.562567612 L -8347200.735151167,5862798.294226945 L -8351049.049947891,5862545.637690959 L -8365186.847917619,5877042.429665777 L -8386521.22832815,5884655.982457522 L -8402219.057641855,5887142.532060369 L -8409111.29259483,5893037.037261154 L -8411867.117908906,5897904.679229023 L -8407692.63700416,5900775.779318523 L -8398609.857111353,5901489.639703108 L -8391978.555044798,5919691.128399344 L -8393625.526911087,5926689.606835193 L -8396870.49006771,5931400.762764738 L -8404246.519527672,5932308.375212658 L -8419677.961299907,5919707.083551767 L -8427787.697523689,5905425.3647094555 L -8427597.452513922,5894099.11212126 L -8422075.003895158,5878703.906752593 L -8397598.85349597,5858092.342859744 L -8390820.721021058,5849381.795949083 L -8376460.061430763,5839734.409236622 L -8357294.518659358,5818019.239722797 L -8340553.069119467,5805973.152251076 L -8348700.876609099,5796012.497029755 L -8357256.447393507,5781069.095628014 L -8356386.708211938,5760324.790742069 L -8322594.1183087705,5752131.189743188 L -8307847.514043893,5755501.431826042 L -8289160.199804936,5754861.604313423 L -8278734.906853165,5749900.668646017 L -8271168.632383436,5748840.149451151 L -8255215.324838361,5743119.103629762 L -8248350.251841141,5735081.308977788 L -8246752.260550802,5728948.778140276 L -8246828.403082505,5723598.114833515 L -8248692.781914311,5717022.8506080955 L -8251301.776820033,5699977.801608341 L -8248654.71064846,5694287.9913996495 L -8241822.254262041,5687517.452413271 L -8232875.395467495,5685411.468534344 L -8228771.491119909,5685937.878439823 L -8218161.407813421,5692149.314702873 L -8220292.174186695,5700970.424194456 L -8224542.686303655,5711601.571555456 L -8233217.814221175,5753987.748469987 L -8237587.994790737,5763588.896506025 L -8244436.703822812,5771918.112672625 L -8239860.0255978275,5789305.1871469105 L -8246719.643939999,5801501.260126669 L -8277359.665863903,5814499.502714975 L -8281387.427679786,5815253.694464398 L -8279104.487562598,5819905.430499478 L -8261368.398372468,5818805.116999856 L -8247632.7977229785,5816054.932853551 L -8234033.118171745,5805078.657204631 L -8229760.787434589,5788349.660086137 L -8224140.488983419,5755844.694935299 L -8216775.368833555,5751257.6021675 L -8208170.928792687,5750228.223921247 L -8203675.736434965,5757873.701771232 L -8205127.008636436,5775014.316642257 L -8205154.17059219,5791623.935720549 L -8216563.416523083,5841026.44224947 L -8230385.846375395,5860950.445920059 L -8231924.170418667,5866195.143092909 L -8231380.597345122,5872423.574906597 L -8220427.983965463,5871522.310117268 L -8212068.224165361,5860808.294947462 L -8206051.071729512,5847142.291113966 L -8200023.121303055,5828146.366425414 L -8200707.958810415,5814405.233272999 L -8198865.287279316,5805910.312867377 L -8196392.102152361,5778189.784521643 L -8192206.823257006,5764198.000660276 L -8192484.008789081,5744661.902520457 L -8200012.211992959,5737308.119167063 L -8210546.264087236,5732855.055224031 L -8213193.330258809,5720923.906788491 L -8207670.881640045,5697403.690198544 L -8187537.638535174,5698008.446910328 L -8168464.379621635,5681990.082484724 L -8155957.300872539,5676187.8255536305 L -8148847.658954044,5677394.5174733605 L -8123893.168702916,5692831.15382431 L -8118957.707759105,5693017.133389983 L -8119734.940443825,5687455.444004914 L -8123599.619205695,5683538.049073524 L -8133432.469827466,5678338.220011193 L -8151521.887081372,5661783.581685294 L -8175856.773046744,5659096.947178028 L -8171394.197299823,5637647.870047728 L -8166670.688666482,5618093.794513422 L -8154870.154725451,5615389.328845661 L -8135052.279737998,5608969.704015987 L -8097264.544629748,5579770.194425255 L -8090709.273775404,5557821.360236237 L -8088904.673510155,5533230.390972158 L -8107124.557207271,5526838.091629721 L -8126436.930387033,5510801.1786102345 L -8142015.202567626,5502269.719198926 L -8155832.289084378,5491578.671093613 L -8153119.989691201,5475618.608550939 L -8151309.934770901,5449663.113920811 L -8133981.497556058,5444112.995087906 L -8125942.33788944,5408598.544145328 L -8137563.536130804,5381512.914526026 L -8134780.54886097,5361362.544222204 L -8119642.545266465,5344193.641125979 L -8116913.993227633,5332328.373083546 L -8112744.855658444,5319302.880337295 L -8099384.401692925,5317978.925137315 L -8099090.8521957025,5310901.718277383 L -8100275.848175197,5298009.828845951 L -8109065.078570779,5282794.2151092645 L -8109407.49732446,5261746.562284589 L -8101156.385347373,5236955.32636921 L -8087899.124549818,5238680.80742004 L -8085338.998900557,5237633.641698959 L -8094742.490246335,5222662.390716343 L -8102406.503228981,5206215.60682425 L -8101080.242815669,5199662.417677506 L -8093747.7392766075,5194067.918487268 L -8085252.058378248,5190956.412440379 L -8076055.064687888,5199368.679674181 L -8062901.108377791,5226196.834072479 L -8060906.374422266,5219306.058424207 L -8066222.214066118,5191983.6993415775 L -8070597.8492907295,5158112.646171811 L -8084463.91638343,5162559.464453298 L -8097177.604107439,5160174.928248826 L -8101966.234642892,5154925.14874171 L -8106738.612532692,5147326.255618221 L -8102259.784140115,5138054.943344169 L -8097791.753738146,5131154.841501848 L -8088458.950269019,5122481.913454569 L -8069108.505823406,5119437.370425518 L -8055122.8815975925,5108563.524393659 L -8050432.100894546,5086228.436000221 L -8055019.688429627,5088434.962985745 L -8062618.468190668,5108083.385201132 L -8075381.136490625,5114748.637443935 L -8081887.426769019,5113773.305275504 L -8089562.349061761,5110091.250837818 L -8104629.664779612,5092965.6967215715 L -8112962.262623962,5088986.673790162 L -8121072.110167234,5088565.640212338 L -8127991.507075962,5092893.114408307 L -8145700.434310337,5123093.922221842 L -8153239.546824312,5128209.499503996 L -8184352.453945106,5130629.818332997 L -8195788.750512261,5127130.847495358 L -8208160.01948259,5122481.913454569 L -8206681.585325365,5115025.1710318895 L -8202920.211050951,5107094.281807631 L -8195902.964309815,5103022.15607144 L -8195777.952521655,5098472.246029002 L -8205431.467443757,5097324.168100803 L -8216574.214513692,5088972.103817669 L -8221504.220802452,5078408.286947249 L -8223857.848796295,5059558.369310358 L -8233842.873161978,5029800.962210778 L -8235816.01113629,5008554.0175125105 L -8228771.491119909,4993418.450840798 L -8213600.982234092,4934252.529178184 L -8208975.323433161,4904232.898593773 L -8200843.879908674,4877912.600342599 L -8201017.760953294,4860593.720116599 L -8180004.091995738,4844791.651722804 L -8172008.346930529,4835350.721777271 L -8154141.791297192,4782353.2969289515 L -8151532.796391469,4753868.1213668445 L -8179841.008941726,4667958.293992501 L -8184232.896811993,4651635.439184445 L -8185608.0264817625,4631372.299964289 L -8178851.712627046,4597817.803628904 L -8178063.5706322305,4585124.939577105 L -8183846.952137414,4566796.799714379 L -8199995.848027812,4536926.017059906 L -8200305.761490179,4521727.786802025 L -8193495.012404467,4506099.497325226 L -8200061.081249417,4486747.2161607435 L -8196859.644013694,4474775.946093942 L -8193299.312739652,4465410.7131166095 L -8168018.7676999895,4470419.8375803605 L -8156500.873946084,4468058.310451398 L -8150364.164377122,4462395.399548993 L -8145564.62453157,4446568.854954444 L -8143162.127281269,4421860.787019101 L -8141661.874503849,4411252.286089196 L -8139465.87490897,4395759.392842728 L -8127056.64599228,4389525.131278174 L -8122740.7893342255,4374875.428801133 L -8112359.022303353,4354477.783605077 L -8101656.432500016,4297665.609306418 L -8091078.854484838,4283703.476709738 L -8080387.285311091,4267602.250820335 L -8084458.461728381,4243768.808933131 L -8077571.681430454,4232772.899911243 L -8071239.27219668,4224790.115213825 L -8065651.479036821,4210294.220324515 L -8058052.699275781,4196602.813040189 L -8039914.301445924,4176960.8122490146 L -8035310.461265188,4153043.9602781856 L -8021232.441862016,4111794.4058801234 L -8018427.747291479,4085406.70880341 L -8014057.566721918,4067603.5267519723 L -8015318.593913624,4051023.737841185 L -8006860.872961623,4030900.2748931954 L -7998745.682082793,4013981.048164412 L -7996185.55643353,4004595.114010621 L -7977639.506628389,3982254.4857772975 L -7974514.100604877,3964428.677482162 L -7981107.442725072,3952386.4966753502 L -7981226.999858184,3933735.2633497817 L -7986390.777077611,3907935.970488489 L -7974432.614737617,3898298.676289075 L -7969589.548971163,3891260.4112292617 L -7954027.6407557195,3850204.263178963 L -7955049.553681201,3834126.135719087 L -7950581.523279231,3814194.029629707 L -7960794.863920532,3790633.0936268335 L -7962224.4288213,3737853.4961509905 L -7967948.031759927,3697383.631294458 L -7977373.230406411,3654785.5978437704 L -7976476.329269091,3631011.7474200083 L -7982238.003473568,3601525.981967108 L -7982602.240847443,3584535.0079438775 L -7978210.241657686,3546087.034362792 L -7948255.168560633,3521940.444893085 L -7942428.261134549,3494966.5983568868 L -7938829.9699141495,3458601.9463476967 L -7940052.9258400025,3432172.709161733 L -7943009.794154455,3420318.9970567347 L -7957767.307729427,3400902.076831428 L -7961485.156082942,3366290.0021967874 L -7958631.592255947,3357238.3950541993 L -7946439.658985286,3347510.939790791 L -7937829.76428937,3334023.344821769 L -7933389.007162645,3313112.44982852 L -7924436.69371305,3296693.8163338033 L -7920881.817094058,3257053.071802594 L -7913315.542624329,3225600.634426972 L -7909543.370359309,3214641.3933737692 L -7897650.441240919,3200880.931973544 L -7895421.825035238,3197213.0220524482 L -7893584.608159186,3186729.8344885483 L -7894139.090542828,3161993.985333396 L -7892318.126312431,3146916.9901548624 L -7882838.6037544375,3117299.478084142 L -7881746.1142717935,3103610.575408901 L -7871222.860168124,3073208.4572720635 L -7868836.72688297,3051414.3088372243 L -7864341.534525245,3039935.454306812 L -7866086.35622394,3027023.4704700047 L -7863102.214634243,2998173.8629867435 L -7870244.4731635405,2981891.8118707347 L -7871815.413817617,2972375.173419208 L -7862830.483757219,2942910.154949892 L -7856720.936144011,2935742.8421023344 L -7846855.468911439,2922056.183880603 L -7842702.695307396,2906711.183779691 L -7841941.715268334,2896966.469550398 L -7854552.209824377,2848564.727236314 L -7856275.212902876,2832122.140380889 L -7853193.332800264,2793872.3973626113 L -7848850.314186455,2769219.1384761757 L -7850258.060467025,2749576.867101284 L -7848850.314186455,2739491.442613085 L -7846665.223901672,2726834.399104429 L -7838001.00529425,2711493.1424343744 L -7836038.776630038,2700601.834375942 L -7839077.242131241,2696060.075688463 L -7849355.815994145,2690512.070978586 L -7857835.244246851,2676626.6299090665 L -7858416.777266757,2662942.6673778007 L -7855688.225227922,2652994.6818413814 L -7855057.711632069,2638917.030874795 L -7842420.055120272,2636152.654077769 L -7835685.448566262,2628346.191859594 L -7829287.80611088,2613723.5942939348 L -7821254.101099311,2578418.5597019987 L -7817802.640287266,2534732.732291101 L -7813008.4437772725,2508477.014948075 L -7809627.559522389,2495516.7260970995 L -7806790.24834105,2468455.6260343697 L -7802110.26562861,2450769.4910980407 L -7801273.143057844,2434478.6859517884 L -7802202.6608059695,2422098.464998405 L -7814296.632924733,2359164.3581579174 L -7813921.597560248,2336095.300279907 L -7808779.638961018,2300272.0745713185 L -7808855.78149272,2249953.9801755203 L -7809888.492408808,2238218.248852201 L -7814443.463333087,2227239.9599755355 L -7815785.976392056,2212346.878544989 L -7823064.156019609,2186464.3597806427 L -7829641.134174657,2134641.9111571866 L -7829777.055272916,2107336.516970914 L -7832619.821109304,2084192.2848122467 L -7838925.068387325,2078040.940647729 z" /><path fill-rule="evenodd" fill="currentColor"    d="M -7639849.083416992,6919001.868166779 L -7640044.671762314,6973664.46173072 L -7640240.371427131,7027867.893860588 L -7640419.818446288,7078913.484977736 L -7640599.154145955,7130271.202704184 L -7640773.035190575,7180186.982226445 L -7640947.027554686,7231762.779382834 L -7641805.857426154,7289968.359240649 L -7642441.825677058,7333507.057643699 L -7659210.32585321,7333507.057643699 L -7663629.486998722,7337983.998585516 L -7690133.099283731,7344391.974704324 L -7735177.195399338,7334526.982232281 L -7746450.520231973,7325617.495015374 L -7761577.5031968905,7306191.626610197 L -7766964.142036886,7311406.073716068 L -7781172.627883267,7319639.536048384 L -7795761.60374918,7326145.664848337 L -7807736.01873483,7326862.634351666 L -7818835.351203354,7318810.124522661 L -7821205.231842853,7314721.103202604 L -7823727.286226266,7313835.697551797 L -7847708.84412786,7324994.903255734 L -7874201.547102771,7313609.636204031 L -7895302.267902126,7306624.441112552 L -7929203.6169478,7302729.973323986 L -7952766.613564012,7288391.083115567 L -7996250.789655133,7289649.14810701 L -8004045.269080988,7284918.274230403 L -8006958.72279403,7270930.589069756 L -8004648.620721089,7264432.653453165 L -7995348.433862764,7260521.572642133 L -7992755.6916026985,7252779.902495218 L -7983368.564222063,7254630.467719496 L -7971176.742270895,7264881.9491264215 L -7967442.529952234,7264526.382377606 L -7959387.11763996,7254873.59263345 L -7947477.824556422,7246315.731511363 L -7943227.312439464,7245400.744029857 L -7921365.611601045,7255957.983269163 L -7912581.835860512,7254742.648829568 L -7899949.634003763,7250014.248049466 L -7897693.855842329,7245904.977847997 L -7895688.212576705,7238644.2316998225 L -7892356.197578281,7234410.305499519 L -7881115.600675939,7232377.999485151 L -7870157.532641232,7236498.907247436 L -7868901.960104575,7249098.82903812 L -7870413.0108726015,7262635.919987029 L -7856150.201114713,7266267.375770098 L -7838886.997121474,7265855.38368013 L -7826983.158692987,7270893.181800101 L -7825499.269880714,7262654.699710142 L -7844496.497582039,7241163.171927277 L -7852475.7673626095,7227830.747088599 L -7863178.357165947,7219991.070200815 L -7876951.917761798,7215990.440625823 L -7888442.649559952,7191101.824633322 L -7887735.993432399,7169361.093767973 L -7888959.060677743,7148251.815516745 L -7864107.76359458,7136677.713998204 L -7869798.749922405,7118704.944453729 L -7861243.290457488,7105100.952729669 L -7851508.289668127,7099893.247538878 L -7841697.14634706,7150004.091519574 L -7834636.373685024,7167641.432706715 L -7843632.21305552,7171229.060785186 L -7862477.155693441,7171210.49825437 L -7851954.0129092615,7195980.527743277 L -7834663.535640779,7204446.413066595 L -7819759.414296429,7222876.384879384 L -7819454.955489109,7236275.067800783 L -7811176.681556269,7242320.401404083 L -7791266.411391457,7242712.426505671 L -7777557.972697717,7240062.098962376 L -7771111.46098588,7231147.798344346 L -7763626.7837029025,7228296.45797652 L -7750249.965772239,7239409.210055403 L -7727719.680072116,7247641.840097484 L -7721653.658379809,7253471.612103988 L -7717234.608553787,7263160.04446629 L -7716941.059056566,7273609.989790807 L -7715783.336352316,7279140.147422722 L -7709228.065497972,7276440.232965101 L -7699878.898063701,7262224.310421243 L -7695280.512538011,7257304.29906882 L -7689643.850121694,7254892.353766934 L -7686078.175512094,7251714.704828528 L -7685980.325679687,7247567.056448996 L -7702824.968387545,7237562.231801406 L -7791043.549770888,7190842.246256682 L -7801892.8586630905,7172265.032941946 L -7809187.290936301,7148989.548655075 L -7808931.812704931,7125046.911988112 L -7802507.008293797,7117639.288218995 L -7786765.764378684,7108201.589720246 L -7757827.038232574,7094927.016933386 L -7724452.898295295,7075915.608608589 L -7720278.417390548,7072279.471073655 L -7720669.816720178,7060378.162836454 L -7724855.206935024,7052374.614208397 L -7738101.558422478,7046509.432141256 L -7751956.716205081,7045034.7245846465 L -7765159.541771635,7045617.303925811 L -7778351.569347584,7048093.69584354 L -7802425.522426536,7060724.645101762 L -7816057.818588572,7059940.365350986 L -7829021.529888902,7053158.334055898 L -7838636.973545154,7039575.094565358 L -7843599.596444718,7021240.085459769 L -7843566.979833915,7009559.604929464 L -7841718.853647766,6998837.50319853 L -7835853.986275322,6987894.730209658 L -7827988.818972814,6983124.442879122 L -7820900.884355024,6983756.715413549 L -7814236.854358176,6981191.6789759 L -7810274.43708339,6977436.2412486235 L -7806904.350819114,6972419.48157281 L -7807899.101788841,6968091.179363158 L -7810480.934738811,6964341.706439536 L -7821216.141152951,6956632.321372215 L -7825466.653269911,6949217.877557672 L -7834679.899605925,6937247.092090207 L -7829646.588829707,6933907.101070737 L -7813475.874319113,6932040.225306391 L -7802186.296840823,6940301.0812992565 L -7791646.901410987,6950009.394588002 L -7785178.571078954,6949973.473455756 L -7779362.572962968,6945908.7950484855 L -7766045.533598861,6933458.356789171 L -7754880.96790873,6917837.094789379 L -7744705.698533281,6900064.821871566 L -7736525.274432845,6889470.359198682 L -7727138.035732721,6888524.104792071 L -7699639.7837974755,6921744.010082595 L -7689942.854273965,6922980.951075211 L -7657644.951173676,6905090.136626133 L -7654052.114608323,6906056.114686326 L -7643110.410538761,6915132.052739545 L -7639849.083416992,6919001.868166779 z" /><path fill-rule="evenodd" fill="currentColor"    d="M -7467303.872687417,7391774.708538684 L -7470592.361764941,7399236.47178444 L -7477615.063161127,7409088.606893428 L -7487061.969108316,7416757.990215289 L -7496220.780213333,7418857.852394806 L -7502852.19359938,7414887.710860946 L -7506205.915898507,7407906.385489098 L -7507749.583277337,7401007.794832986 L -7509999.906783723,7397217.944616725 L -7513478.6408710135,7396380.230458213 L -7517990.085874392,7396589.796740978 L -7523550.605759007,7399217.360393275 L -7535378.301655793,7409164.954711669 L -7540444.229042812,7411796.777409544 L -7543873.982554154,7412407.208084965 L -7577519.964687948,7404894.73094663 L -7580802.999110423,7402112.68709059 L -7584765.41638521,7395447.485389034 L -7589130.142299723,7375714.1651440775 L -7603273.394924499,7358114.293704205 L -7581629.21237109,7348175.162525276 L -7555712.587761036,7348231.928199635 L -7505667.797480012,7355841.302004942 L -7485708.546739251,7357527.11983668 L -7470353.136179226,7374214.318986638 L -7467923.476973172,7384262.878524324 L -7467303.872687417,7391774.708538684 z" /><path fill-rule="evenodd" fill="currentColor"    d="M -8212416.097574089,5364770.1284627365 L -8220786.76668429,5367969.788304729 L -8228592.155420242,5368762.409892585 L -8236522.555944354,5366414.7559157815 L -8250377.713726957,5366609.044177134 L -8264200.254898759,5360630.378936099 L -8277153.168208483,5352176.93673057 L -8280762.368738982,5347296.695826532 L -8279180.6300943,5340286.542708068 L -8269853.169960733,5324079.177521239 L -8260960.746397184,5293528.60843546 L -8255041.443793742,5249852.118141304 L -8259775.750417691,5233357.989306547 L -8259188.762742736,5226520.817935057 L -8257019.92510361,5218305.192925616 L -8255938.2336115725,5209861.354704992 L -8256601.363818227,5201351.625376252 L -8255476.257724781,5193451.337547648 L -8245692.276359471,5176849.822345177 L -8244251.9134680955,5169409.148956642 L -8243969.273280972,5161330.57034916 L -8239735.013809667,5144653.468816671 L -8241039.5669222735,5139134.97729715 L -8244659.56544338,5134465.71944639 L -8241724.404429633,5130396.58349224 L -8207692.588940749,5142609.18929161 L -8185080.817373367,5145456.676972895 L -8183868.659438117,5158112.646171811 L -8179509.388178654,5168047.602440744 L -8176916.645918587,5185865.648905271 L -8173399.840565447,5189914.512019339 L -8175220.804795842,5202688.614189174 L -8185635.188437517,5208199.985420285 L -8184716.691318981,5219968.336628822 L -8178732.155493934,5231088.241557046 L -8187467.06197801,5235053.222919202 L -8196886.805969446,5237412.413734059 L -8199066.441599179,5240509.775117408 L -8205887.9886755,5242929.408640622 L -8214182.626573489,5249128.623417205 L -8211687.734145829,5254593.32812859 L -8201246.07722891,5267085.443121295 L -8189581.464386138,5275758.232230565 L -8183178.367275707,5288738.114580938 L -8174894.638687819,5302314.985790094 L -8178938.653149356,5310946.310868815 L -8186526.63491979,5323201.046659002 L -8198636.971003699,5331345.137333928 L -8209774.374738075,5336217.18138452 L -8208464.47828991,5356432.520268899 L -8212416.097574089,5364770.1284627365 z" /><path fill-rule="evenodd" fill="currentColor"    d="M -8290649.543272259,6299986.123111283 L -8289605.923046072,6324985.71528971 L -8291475.756532926,6350177.084063789 L -8295758.885260688,6381231.509817176 L -8295057.683788182,6387526.77196215 L -8290057.100942257,6389072.04470753 L -8288719.931218848,6392952.90928642 L -8290182.112730418,6409336.620078259 L -8292867.250167842,6421974.514449755 L -8298041.825377878,6432284.244690701 L -8301074.83622403,6444669.383019269 L -8303847.025503256,6447426.024674313 L -8315940.997622018,6449608.190553171 L -8322577.754343624,6448254.85812937 L -8327904.614617063,6434107.93372686 L -8329448.2819958925,6425432.075173437 L -8329138.479853014,6414103.067237583 L -8335650.224786459,6398937.5593473995 L -8335851.379106321,6393137.89658528 L -8333302.051447664,6383161.649842976 L -8328035.081060271,6378194.644289465 L -8327236.029755357,6362876.433694556 L -8324583.508928736,6358289.6964341765 L -8318577.265802984,6351966.175991884 L -8317664.112020006,6349341.140899143 L -8318218.483084158,6347084.527113314 L -8320447.09928984,6346850.581906684 L -8344520.941049301,6365790.429591171 L -8346880.023698194,6371135.387594143 L -8347939.896570035,6378261.80902675 L -8348238.900722306,6403395.176442679 L -8352473.160193609,6417961.92065089 L -8356310.676999727,6420743.582567312 L -8367545.8192470195,6421367.4000866255 L -8382368.566043598,6419900.562025215 L -8399186.046795702,6406525.317640546 L -8410165.822131114,6410212.371667189 L -8412426.943628106,6393978.048530536 L -8406931.656965097,6381013.449673153 L -8386483.268381789,6382137.8348182 L -8383009.877630057,6359109.735699177 L -8389505.369917845,6353705.465585895 L -8396701.952358648,6344444.251035656 L -8401001.445051556,6335977.8662282 L -8397180.292210588,6329687.68052284 L -8385325.434358049,6320569.56944576 L -8378976.772478617,6319586.79354941 L -8373100.995796076,6324685.646373426 L -8358539.181885917,6320836.223279936 L -8359392.557102338,6306370.471459926 L -8372356.268402669,6300019.309220859 L -8369470.087964871,6289057.468360547 L -8353092.764479366,6278607.041276502 L -8343308.894433544,6268103.403056804 L -8342863.171192409,6256124.655118806 L -8346820.245131637,6244179.401954218 L -8345570.015930538,6239524.798862097 L -8337411.299130808,6229712.179387883 L -8325969.547908603,6224966.658117395 L -8320762.356087765,6225609.19402552 L -8310173.86876249,6232531.051836187 L -8300716.164824695,6233355.503004797 L -8298433.224707506,6235400.514780287 L -8296715.564964565,6243122.811484933 L -8290649.543272259,6299986.123111283 z" /><path fill-rule="evenodd" fill="currentColor"    d="M -8405763.02495075,6234823.268283235 L -8418297.37697509,6235021.027360493 L -8421422.782998601,6204959.193919669 L -8406676.178733727,6161732.307665204 L -8405627.10385249,6145315.255066992 L -8410578.928761449,6132970.177618967 L -8412579.117372021,6122823.699197712 L -8411377.868746871,6118657.8510574065 L -8392532.92610895,6110137.332477101 L -8386629.987470656,6119178.471369526 L -8379628.993375175,6143275.551046191 L -8366273.994064706,6177885.9056357425 L -8366605.503508288,6211074.877887365 L -8374019.604234103,6219285.477543462 L -8397272.687387945,6227685.074261229 L -8405763.02495075,6234823.268283235 z" /><path fill-rule="evenodd" fill="currentColor"    d="M -8280582.921719823,6968650.068398104 L -8278756.6141538685,6970327.154657225 L -8274375.524274209,6969930.472230031 L -8268211.652749495,6972924.729110294 L -8244985.731551404,6976587.851466634 L -8224194.8128949255,6985256.204274342 L -8213350.958657771,6993373.31656459 L -8199126.220165735,6995923.928646346 L -8187467.06197801,7006279.980923565 L -8182488.075113299,7008943.470793617 L -8176481.831987549,7009740.928170989 L -8160871.054515645,7028939.6085920455 L -8159995.860679029,7031138.368325561 L -8142281.478789604,7046309.183992169 L -8141373.779661675,7048731.145236129 L -8151451.199204717,7049568.970977688 L -8171894.244452466,7042504.681582645 L -8182096.6757836705,7042122.46792707 L -8189472.705243632,7039957.185824111 L -8191201.16297718,7038720.066527894 L -8192663.344488749,7029920.853580897 L -8195016.972482593,7025597.510938798 L -8214655.511770378,7005355.992164982 L -8222830.481215765,7000937.315264134 L -8236973.73384054,6997027.674446172 L -8253068.305819431,6999760.5516453255 L -8263955.685977486,6997154.4195103 L -8267722.514906948,6998095.434869847 L -8283773.560964941,6982058.683059936 L -8299792.10173162,6968559.964055324 L -8306651.720073792,6952492.395989901 L -8316848.696749947,6940229.142252788 L -8316903.131980944,6936654.346187621 L -8312223.149268506,6933925.117547678 L -8301265.081233796,6940804.120715379 L -8290470.20757259,6952654.369640107 L -8284648.754801556,6957154.456835633 L -8280582.921719823,6968650.068398104 z" /><path fill-rule="evenodd" fill="currentColor"    d="M -8300792.196036906,6205912.4179023355 L -8302906.598445035,6209907.393347973 L -8316631.289784428,6207457.594756093 L -8340395.440720502,6211716.363800059 L -8350391.374396286,6196450.54690096 L -8354766.898301406,6172219.6308495095 L -8357745.585236051,6167211.510478668 L -8363648.635193837,6153446.322459763 L -8366605.503508288,6144417.738733713 L -8372660.727209988,6130460.9576151995 L -8374997.991238684,6115746.292119625 L -8376487.334706007,6111307.567675995 L -8371035.462644407,6102631.716237357 L -8346189.731535783,6094029.739802406 L -8337346.065909201,6080170.720508559 L -8329752.629483721,6082001.220170232 L -8331839.869936096,6110316.078030316 L -8327279.555676256,6119878.234875757 L -8318827.289379306,6127822.222938149 L -8317261.80338028,6131096.41032794 L -8315832.349799004,6141171.023570311 L -8311597.97900821,6156795.595726618 L -8306119.056310347,6164119.751901691 L -8304705.744055235,6168684.329805006 L -8304450.265823863,6172497.918034858 L -8306461.475064026,6177885.9056357425 L -8300792.196036906,6205912.4179023355 z" /><path fill-rule="evenodd" fill="currentColor"    d="M -8117778.166434661,7072590.182157177 L -8114777.772199309,7087785.531355265 L -8113212.397519774,7090696.214008157 L -8105102.5499765035,7088261.417777336 L -8091312.625415504,7086870.387775716 L -8068689.944538024,7092527.490543549 L -8066124.4755532,7094542.271032965 L -8056514.375232509,7111193.28468998 L -8049143.800427596,7118319.22955959 L -8037870.586914452,7133768.361497611 L -8049094.931171139,7144084.521267269 L -8055742.597202838,7158956.2677620305 L -8056095.925266617,7166513.688654176 L -8060482.358481836,7170877.706011019 L -8067380.048089858,7175410.53229844 L -8077664.076607813,7184132.257855228 L -8090317.8744457755,7185114.331645396 L -8102792.447903561,7189711.176885944 L -8108554.122108038,7193884.047257365 L -8111962.168318676,7194162.3426086055 L -8116000.728125163,7191899.222419928 L -8120322.039438269,7187616.365082172 L -8121713.533073185,7182650.27166777 L -8113157.962288776,7178039.155144816 L -8102020.558554401,7161597.760532429 L -8100025.824598876,7144600.80577802 L -8112043.765505427,7141522.66371458 L -8119213.185990476,7143844.984267477 L -8124567.208219669,7143789.678490587 L -8130714.715779237,7138556.44646211 L -8134454.3827529475,7146573.568872456 L -8135845.876387863,7154248.224546263 L -8134209.813831674,7165995.968627384 L -8135313.212624416,7169786.427854161 L -8139677.938538931,7171932.006747519 L -8149771.72204712,7167475.015474867 L -8160245.884255351,7159547.287617295 L -8161072.097516018,7154949.658720523 L -8158925.0784970885,7139127.453880627 L -8159153.394772705,7130878.547498827 L -8161316.666437292,7119035.733473723 L -8162479.955116079,7117804.658723378 L -8166409.755780064,7118061.845886564 L -8178748.40813959,7120340.5845510755 L -8191070.807853461,7105174.396582206 L -8197734.726530819,7089194.90539111 L -8220438.893275562,7084601.444768743 L -8202746.218686841,7062348.176547663 L -8176090.43265792,7059210.880992579 L -8167051.178686015,7070453.050088941 L -8137384.089111645,7078255.262716747 L -8139161.52742114,7066308.362455458 L -8138666.934923545,7062038.052850291 L -8134595.647186764,7056730.836412185 L -8132290.99976887,7056293.426560189 L -8128779.649070779,7060049.812460206 L -8123088.662742953,7061636.778230836 L -8120452.505881477,7065267.85619776 L -8117778.166434661,7072590.182157177 z" /><path fill-rule="evenodd" fill="currentColor"    d="M -8329252.582331077,6733530.781695155 L -8324485.659096328,6768492.078804898 L -8321077.612885692,6773383.135302661 L -8309717.347530749,6775970.743482204 L -8297400.402471926,6793824.229893783 L -8296846.031407776,6798677.634785459 L -8311777.426027368,6829118.075946578 L -8314951.701307338,6850766.5059982 L -8332465.04019639,6849220.808508419 L -8339802.998390502,6827700.434891455 L -8350869.714248223,6806979.534904086 L -8354603.926566885,6782769.041152955 L -8360691.655559896,6762039.560465678 L -8349864.053968398,6750325.6184530305 L -8339520.358203378,6752940.939007437 L -8338906.097253179,6737086.695502413 L -8329252.582331077,6733530.781695155 z" /><path fill-rule="evenodd" fill="currentColor"    d="M -7759300.129054241,7346169.836515981 L -7669999.856178858,7365316.254282506 L -7642474.4422878595,7353701.583632534 L -7620710.591281849,7354042.425554468 L -7614231.462959208,7370020.172866183 L -7636305.116108096,7386810.3426420335 L -7637995.502575792,7392117.027545849 L -7634908.167818133,7396437.348893974 L -7612220.253719045,7399141.305322889 L -7606469.488824665,7404570.7778135035 L -7601191.609127175,7411548.907425654 L -7605654.184874095,7421913.265632876 L -7606078.089495035,7426708.926434662 L -7603724.572820684,7431392.800915979 L -7586711.3924037665,7447128.1592713725 L -7579732.216928484,7455257.202793825 L -7576215.411575342,7463049.311535729 L -7574796.755984672,7476733.02496939 L -7575106.558127549,7487705.19185246 L -7578927.7109685205,7489169.351543612 L -7587211.439556409,7485836.828369803 L -7595288.670488879,7479503.375287987 L -7602381.948442226,7463721.409139558 L -7607355.480651888,7460553.347657843 L -7621678.068976333,7457367.720282451 L -7635870.190857568,7449696.349347578 L -7646931.563379732,7450137.223233133 L -7657112.28741023,7446879.157243853 L -7666243.936559493,7449734.625470886 L -7669483.556380559,7444560.820492333 L -7673397.104398888,7434127.77228474 L -7673484.044921198,7429576.156941597 L -7668684.505075646,7413132.169082185 L -7668809.516863807,7408821.688325173 L -7671320.661937119,7408306.81720195 L -7681958.018518854,7411663.368073664 L -7686257.511211762,7409431.8850826025 L -7697829.7288771765,7397541.591217649 L -7702488.004288913,7395295.2548688585 L -7714114.545865835,7394115.130957196 L -7720691.524020882,7415212.094822593 L -7721034.054094054,7420442.801687323 L -7714331.952831354,7433879.187685841 L -7701177.996521257,7454566.787918108 L -7707852.824508713,7454950.387785195 L -7726888.012156399,7448565.424353401 L -7731774.603843751,7444599.071244406 L -7737672.087826998,7434185.169231206 L -7748978.029270434,7428123.226459365 L -7752945.901200271,7424396.614196399 L -7754103.735224011,7420003.6135564335 L -7754223.292357124,7406438.572802151 L -7756723.639439831,7404475.350822808 L -7772774.685497822,7407906.385489098 L -7776079.538540494,7404646.886069984 L -7777422.05159946,7398950.780890064 L -7779759.426947647,7395733.047482602 L -7790114.032022765,7390538.043586575 L -7791027.185805742,7387285.821547882 L -7786412.436314907,7383445.632034616 L -7783553.417832863,7373739.832924895 L -7779498.494061225,7339004.315355945 L -7759300.129054241,7346169.836515981 z" /><path fill-rule="evenodd" fill="currentColor"    d="M -7947151.76976789,7176373.134281521 L -7922469.010393789,7191509.913577 L -7906124.414838575,7191361.4115689425 L -7906227.719326031,7200843.624490173 L -7904227.419395967,7217013.650367255 L -7906803.797690886,7223583.95962761 L -7912918.799959143,7230290.493612089 L -7916767.114755866,7239838.348943483 L -7919631.69921245,7241312.42678662 L -7937596.104678194,7229768.560724389 L -7956370.359439463,7214055.83141995 L -7965811.810731604,7216808.8453509165 L -7978335.253445846,7212958.7422584435 L -7988423.582298987,7213795.494550637 L -7994696.2129662065,7222690.301969833 L -8009274.279522022,7227346.368381227 L -8011926.800348644,7209500.704552232 L -8025194.970456294,7192678.277728386 L -8038430.41263365,7179205.522490572 L -8031260.9921486005,7158586.926472664 L -8022678.259408439,7155263.443583103 L -8014611.937786068,7148380.809963583 L -7982178.224907014,7155651.155244283 L -7965371.542145518,7161838.026098049 L -7947151.76976789,7176373.134281521 z" /><path fill-rule="evenodd" fill="currentColor"    d="M -8208181.838102787,5526701.149483509 L -8213660.76080065,5533397.832975036 L -8222314.181417464,5534585.4499188075 L -8235783.394525488,5542339.403303573 L -8237202.050116157,5549078.056559581 L -8237870.63497786,5557348.174999345 L -8228575.902774585,5567321.85693987 L -8223993.769894552,5578928.575227451 L -8218482.119266397,5596343.342264185 L -8214503.338026465,5612992.994758746 L -8214862.0094258,5618155.168917571 L -8213872.82443061,5626811.725301929 L -8207268.573000318,5640281.87958749 L -8206659.878024661,5646369.281390561 L -8207382.786797872,5652414.520007371 L -8210046.2169345915,5663621.46101889 L -8212149.710032621,5665166.2601794675 L -8218704.980886964,5666263.09291753 L -8219215.937349706,5673079.338177945 L -8220830.292605189,5675306.273294066 L -8239452.373622544,5675986.831613013 L -8248670.963294116,5672893.930346534 L -8247578.47381147,5652383.715799471 L -8259373.553097453,5644349.9487111885 L -8267472.491330626,5630812.0944445 L -8276593.231169792,5607495.973286251 L -8284257.355471929,5600330.23046192 L -8293171.597655672,5581958.832925329 L -8306412.494488077,5566267.493661411 L -8291133.337779247,5556355.926026021 L -8293503.218418744,5539017.65580467 L -8284583.521579951,5533078.074430381 L -8271174.087038485,5526883.739468905 L -8261297.710495815,5531753.635881079 L -8252426.882913481,5530033.68084346 L -8248464.465638693,5525894.806045984 L -8249676.5122544505,5508234.825132753 L -8246860.908373818,5494337.50711724 L -8237077.038327996,5487169.42651893 L -8226532.076923622,5486336.318100723 L -8222564.204993786,5494170.779901364 L -8217356.901853458,5501875.229076632 L -8204605.2541830875,5507961.500588559 L -8204659.578094596,5515936.050082826 L -8208181.838102787,5526701.149483509 z" /><path fill-rule="evenodd" fill="currentColor"    d="M -8124779.160530139,5586965.460464461 L -8151755.658012036,5599502.088136615 L -8165284.649686615,5595300.8230013475 L -8170524.458118256,5586061.858438071 L -8173084.583767519,5578301.2115750415 L -8175867.571037353,5565182.744592173 L -8171258.276201566,5558157.310140253 L -8161381.899658895,5548041.111788953 L -8157712.920561839,5541516.538012569 L -8155935.593571833,5533824.091218388 L -8156555.1978575885,5526640.390828273 L -8155267.008710129,5519811.828498388 L -8149445.555939095,5517425.3421232365 L -8129486.305198334,5525073.424779162 L -8108782.438383657,5536550.027492627 L -8101428.116224399,5544488.5983495405 L -8100058.329890187,5550801.614164726 L -8109103.038517142,5564785.520726451 L -8114875.622031716,5576297.041188446 L -8124779.160530139,5586965.460464461 z" /><path fill-rule="evenodd" fill="currentColor"    d="M -8353690.6614644155,5604242.355582371 L -8356473.648734249,5606820.574060783 L -8359952.382821538,5606068.53077399 L -8362789.805322368,5601066.56027894 L -8364784.650597383,5592541.968317354 L -8360919.971835514,5589324.3149061315 L -8357810.818457657,5589324.3149061315 L -8354353.791671072,5593844.699575594 L -8352549.302725313,5601158.605722882 L -8353690.6614644155,5604242.355582371 z" /><path fill-rule="evenodd" fill="currentColor"    d="M -8382580.518354068,6564879.92847697 L -8385749.450298479,6581125.724562382 L -8394756.087659582,6579716.227540787 L -8397778.189195637,6575626.742789514 L -8399349.129849711,6565326.166324374 L -8402104.955163792,6560351.9803613005 L -8398240.276401922,6550053.269489732 L -8395690.948743265,6538638.479781495 L -8396566.142579881,6529921.140031734 L -8382770.763363834,6530519.096836216 L -8366344.5706218695,6532757.53268214 L -8361800.509007688,6535150.440472734 L -8366822.910473808,6542846.676447815 L -8371606.197673704,6547450.576949274 L -8381504.281517079,6550292.99552739 L -8382580.518354068,6564879.92847697 z" /><path fill-rule="evenodd" fill="currentColor"    d="M -8360838.374648762,6247168.1530955825 L -8361773.347051934,6260623.062285308 L -8378204.883129456,6286568.025198088 L -8392369.843054937,6301914.197434274 L -8405301.049063956,6314091.26591667 L -8413568.4136867,6313974.665286113 L -8420335.636851514,6308083.66159938 L -8412731.402435426,6298457.150924571 L -8403246.313902894,6288858.272290452 L -8406241.364802688,6276485.378809602 L -8409089.585294124,6272906.408123592 L -8413100.983144859,6271597.738114542 L -8419966.056142082,6265123.6926242495 L -8417884.270344757,6255529.573817201 L -8413872.76117453,6250951.301580317 L -8408546.01222058,6247449.073810033 L -8403561.682020312,6249530.308239059 L -8382053.309245669,6242792.6751051545 L -8375253.469470056,6237379.799168957 L -8362164.746381564,6236423.036694304 L -8360838.374648762,6247168.1530955825 z" /><path fill-rule="evenodd" fill="currentColor"    d="M -8361452.6355989585,6079895.416266333 L -8369649.42366454,6082049.824281956 L -8370595.1940583205,6076640.694171452 L -8378020.09277474,6067660.238427123 L -8371573.581062902,6061726.899572646 L -8358963.197826349,6055539.322466729 L -8349402.078081606,6056217.717603408 L -8340775.930740034,6060918.996837121 L -8339612.753380736,6066463.639837788 L -8354669.15978849,6073727.096510556 L -8358365.300841298,6077709.382049007 L -8361452.6355989585,6079895.416266333 z" /><path fill-rule="evenodd" fill="currentColor"    d="M -8312087.228170247,5404949.427898195 L -8327861.088696163,5407652.412702278 L -8331448.5819259565,5403058.008352419 L -8331372.439394254,5399185.986029598 L -8328665.594656127,5395975.692210141 L -8320577.565733048,5393906.136088907 L -8315283.322070412,5396530.631822284 L -8312522.0421012845,5400281.378375396 L -8311646.959584159,5403688.3873167075 L -8312087.228170247,5404949.427898195 z" /><path fill-rule="evenodd" fill="currentColor"    d="M -8196696.560959681,5593461.440766553 L -8200332.923445934,5595254.829963115 L -8203643.119824163,5594978.876644061 L -8207002.29677834,5589600.095846988 L -8208127.402871789,5582509.798016537 L -8215394.673189244,5571923.024727945 L -8217433.04438516,5566924.539446024 L -8217269.961331149,5560951.537805681 L -8213095.480426402,5552388.32569956 L -8206909.901600983,5550054.204481778 L -8202740.875351283,5550374.560022091 L -8197702.1099200165,5560462.865104862 L -8196256.292373594,5571403.231775555 L -8194962.648571084,5582708.874725451 L -8196696.560959681,5593461.440766553 z" /><path fill-rule="evenodd" fill="currentColor"    d="M -8299830.172997472,6670447.932149146 L -8300080.196573794,6685372.064321519 L -8303607.799917541,6690126.351852431 L -8306700.58933025,6691589.753058073 L -8314533.251341447,6687043.595906904 L -8319006.625078974,6686538.623572772 L -8326404.361839642,6694447.736663184 L -8332633.46658596,6698457.48878526 L -8341911.946143581,6697411.167803606 L -8354234.23453796,6692060.245096229 L -8365246.626484175,6714568.486459718 L -8370383.24174785,6722155.089894557 L -8381145.498798253,6732672.709056884 L -8382363.111388548,6720318.9644914605 L -8375508.947701426,6701910.943329542 L -8372340.015757012,6689377.358927485 L -8366067.385089793,6670760.779697232 L -8353451.547198192,6677767.394532058 L -8335764.327264521,6670882.3272242015 L -8319648.047984926,6658101.2611113135 L -8305722.202325667,6658014.551444247 L -8301150.978755733,6664819.255735383 L -8299830.172997472,6670447.932149146 z" /><path fill-rule="evenodd" fill="currentColor"    d="M -8355060.447798627,6497712.892570471 L -8376835.208114736,6511695.986066396 L -8383232.7392506255,6505902.1799357645 L -8398957.730520085,6505953.288141803 L -8394837.573526843,6490840.743437989 L -8393250.491546603,6479711.036540397 L -8390896.863552762,6475416.088887636 L -8390021.781035636,6465815.552486082 L -8385325.434358049,6448322.415590399 L -8372301.94449116,6454143.770237765 L -8362605.01496765,6455853.6591935 L -8349434.694692409,6461646.4545146655 L -8335155.632288864,6465340.972001801 L -8330991.949374722,6480509.18511259 L -8344885.178423178,6487474.766404677 L -8355060.447798627,6497712.892570471 z" /><path fill-rule="evenodd" fill="currentColor"    d="M -8216563.416523083,5438746.908668021 L -8214226.041174897,5446344.71743547 L -8219123.542172346,5447385.333153486 L -8226972.34550971,5446178.859908301 L -8230771.791049974,5452182.984760053 L -8232706.857758434,5453375.254525892 L -8250752.749091441,5448049.022657824 L -8253557.554981466,5445681.150841547 L -8253220.479563344,5437782.560882684 L -8233989.592250844,5437089.527192617 L -8221716.284432414,5432043.770901669 L -8219987.715379377,5432841.9007125525 L -8216563.416523083,5438746.908668021 z" /><path fill-rule="evenodd" fill="currentColor"    d="M -8253470.503139667,6787668.901331362 L -8256797.063483044,6789661.348955766 L -8269157.423143275,6785447.723875358 L -8275343.113288185,6781694.316124007 L -8284800.92854547,6772168.923974618 L -8286301.0700034015,6762355.945515612 L -8290562.602749949,6750676.771247444 L -8287823.030081528,6750536.236424207 L -8277952.108193905,6755170.854235257 L -8273897.295741761,6758683.542675119 L -8268483.494946011,6766135.522762951 L -8252492.116135085,6776815.734201754 L -8250491.927524512,6779985.729957676 L -8250877.760879602,6784073.083072734 L -8253470.503139667,6787668.901331362 z" /><path fill-rule="evenodd" fill="currentColor"    d="M -8272473.185496042,5731049.591687464 L -8278658.764321462,5738117.977367857 L -8289464.547292764,5741529.663654301 L -8300161.682441054,5735984.403563877 L -8313087.322475533,5738554.0362874735 L -8314435.401509038,5726444.192226826 L -8309603.245052684,5716479.015326829 L -8299802.899722226,5704647.264113718 L -8292709.621768879,5688818.459285287 L -8293562.9969852995,5666525.73250107 L -8287736.089559217,5661428.4166428335 L -8284605.228880656,5653571.7288990775 L -8272212.252609623,5648743.717562221 L -8269412.901374645,5665274.307994508 L -8272755.825683167,5694876.982932449 L -8264363.337952771,5712424.683965445 L -8263156.634672572,5718281.53154003 L -8264792.697228761,5725013.156799159 L -8272473.185496042,5731049.591687464 z" /><path fill-rule="evenodd" fill="currentColor"    d="M -7522436.297656165,7536478.984871362 L -7526469.514127097,7536886.129935816 L -7536275.202793114,7533203.748740153 L -7550972.82648204,7531556.832893679 L -7552630.707658424,7530045.932054306 L -7552994.83371281,7527141.002799167 L -7551255.466669165,7524159.874171947 L -7543238.125622742,7521895.708367422 L -7519055.413401283,7523850.310426923 L -7515989.785944328,7525205.189579768 L -7515158.118028611,7527489.56029772 L -7519104.393977234,7534056.212070102 L -7522436.297656165,7536478.984871362 z" /><path fill-rule="evenodd" fill="currentColor"    d="M -7399642.439029885,7406457.701971549 L -7408502.357302123,7415002.220759242 L -7415117.406723021,7414429.688163311 L -7417237.263786199,7411339.13239409 L -7417954.71790436,7407487.037897413 L -7416633.912146099,7403332.074445696 L -7413845.470221216,7399541.0903052315 L -7407371.796553624,7394819.480626705 L -7405322.627367103,7394058.02958978 L -7395598.424568347,7398779.371396595 L -7399642.439029885,7406457.701971549 z" /><path fill-rule="evenodd" fill="currentColor"    d="M -7902748.985238741,7336283.638281437 L -7897574.298709216,7348553.543582319 L -7895661.050620954,7350805.416810013 L -7881958.066582263,7355595.209328649 L -7875777.831092401,7352698.144735153 L -7860857.345782909,7351316.301439203 L -7851894.234342706,7346604.874046096 L -7838843.471200575,7344202.979691245 L -7823874.116634622,7374669.977246974 L -7825521.088500909,7383977.932152406 L -7837354.127733252,7394077.128293954 L -7845306.34687756,7396304.203157616 L -7852861.712037191,7393239.7526718695 L -7852334.5029287925,7388103.471829691 L -7853709.632598562,7383616.703674622 L -7858873.409817989,7377802.961503894 L -7863711.020929393,7378353.7411584165 L -7871510.955010298,7382647.542073244 L -7875234.36933835,7382115.333016258 L -7883143.062561757,7377385.235145418 L -7896987.311034263,7373891.641990811 L -7899732.227038244,7369564.786802026 L -7900042.029181122,7363192.954310646 L -7902651.135406335,7360008.99267012 L -7917082.371553794,7349802.350818711 L -7926317.325190512,7341121.226064881 L -7934144.53254666,7339949.286849733 L -7937003.551028704,7340988.82972049 L -7939900.75209609,7345148.581575147 L -7946939.70613793,7349121.052737243 L -7948950.915378091,7348458.801286266 L -7951206.582220035,7345148.581575147 L -7952353.506933678,7340402.944816738 L -7949385.7293091295,7330750.409004831 L -7945347.169502641,7329825.493045696 L -7925621.578373054,7331732.273636878 L -7913549.313554997,7336189.044982066 L -7902748.985238741,7336283.638281437 z" /><path fill-rule="evenodd" fill="currentColor"    d="M -7490562.410496309,7514121.441013231 L -7494617.334267945,7515687.4271146385 L -7497617.728503296,7511976.372012172 L -7502194.406728281,7509348.639305291 L -7520740.456533422,7503826.037492337 L -7521131.855863051,7500468.019656472 L -7519202.2438096395,7495703.4536650255 L -7515489.738791685,7491423.934631135 L -7508369.187563094,7487204.379572365 L -7502640.129969416,7476271.33076512 L -7500047.38770935,7477098.4211134985 L -7497432.9381485805,7481581.888339826 L -7492964.907746611,7496687.057584378 L -7487621.794827514,7507571.737228012 L -7488159.9132460095,7511338.646153172 L -7490562.410496309,7514121.441013231 z" /></g></g>
</svg>
