<?xml version="1.0" encoding="UTF-8"?>
<svg xmlns="http://www.w3.org/2000/svg" viewBox="949868.3981942252 -1468703.9625052898 851659.2264706568 1282081.2710539324">
  <g id="map"><path fill-rule="evenodd" fill="currentColor"    d="M 952433.8671790469,-529957.9723134976 L 955695.1943008173,-538625.2399748475 L 961859.0658255317,-549148.5690822938 L 970218.936945125,-562543.4787574772 L 979720.2781233124,-579373.8509549202 L 986199.4064459534,-609148.0277796201 L 990613.001616925,-627704.7183234714 L 994646.2180878562,-644633.3366796625 L 1001560.1603415357,-659932.4883736208 L 1008571.9524276222,-670157.6380226637 L 1028455.1719561721,-689979.0150160738 L 1043435.435832223,-704928.6627060238 L 1051099.5601343582,-710950.1008216107 L 1056448.0163890116,-716020.3138028459 L 1065775.3652030895,-721818.627847644 L 1075341.9396028817,-728717.152890581 L 1082647.2811861902,-741942.2660178777 L 1088691.5955777925,-754289.227230872 L 1093235.657191974,-756955.0034410108 L 1099193.031061267,-759122.585001902 L 1117521.5625813978,-772366.0752094057 L 1129175.377433564,-780782.4935810944 L 1131871.3128615955,-776604.2273086751 L 1133849.905490955,-771402.3812229809 L 1136067.6123865389,-769026.1889813534 L 1145818.8658215571,-767361.7627329455 L 1159190.3404166636,-767471.1979451749 L 1166886.9700101106,-768987.8406603163 L 1170974.5103925487,-773384.5104754409 L 1175127.2839965918,-785382.7179593346 L 1177551.488547597,-787655.6691901599 L 1180682.3492261579,-788258.1345940803 L 1195303.9417028727,-779867.8806041593 L 1207425.075777389,-767925.6480101538 L 1219415.8547281865,-756128.3521354159 L 1225481.8764204937,-751930.1583194864 L 1228134.5085666066,-747310.84949737 L 1233385.2263083437,-725752.023577258 L 1236363.8019234994,-720396.3852354976 L 1241581.903054434,-718180.9170871415 L 1250931.070488707,-719592.2373805617 L 1260649.7073129232,-723416.0186435088 L 1269237.894708133,-728936.0928464575 L 1277673.7970399384,-736048.8586711168 L 1283413.763943712,-742505.8865931216 L 1285924.9090170267,-747239.7879859221 L 1287185.9362087327,-764881.7026045264 L 1289088.3863063897,-768719.515316581 L 1297709.1903124026,-775749.9083034087 L 1312124.1738142052,-787485.8449795427 L 1320407.9024020957,-794239.4227391595 L 1319668.6296637375,-796660.6282833588 L 1314526.6710645054,-803837.2996412574 L 1309939.0835294242,-811727.3651549807 L 1314591.9042861103,-819898.032237177 L 1319407.6967773184,-826146.1805034718 L 1337616.782483828,-847368.4620622097 L 1337682.0157054327,-854360.5275148835 L 1338638.5840898193,-862872.9845364067 L 1353194.9433449295,-886998.1820205207 L 1361565.6124551296,-919032.9907121315 L 1361815.6360314512,-925211.9002548945 L 1370490.763948971,-940671.4562419654 L 1380753.0851662215,-960462.5487429444 L 1400701.4265968853,-963678.5205021213 L 1408365.5508990204,-968593.6943513225 L 1417225.3578517665,-977364.4410255746 L 1422911.000844033,-985498.9620160069 L 1425617.845582162,-993244.4379724162 L 1427607.2362021287,-1008211.4714593173 L 1431118.586900221,-1025270.597766678 L 1433314.5864950998,-1040243.9905366561 L 1439304.4656557043,-1054093.4914998414 L 1449316.763296633,-1061097.1711556173 L 1466688.6151128863,-1066889.5373899587 L 1469275.9027179037,-1069612.537167699 L 1471776.2498006113,-1078802.312051851 L 1473733.1351292664,-1097872.6948710901 L 1474287.506193417,-1109386.8429364036 L 1474961.5457101702,-1114375.4501792626 L 1477200.9599064584,-1122980.0993851142 L 1493300.9865403988,-1138273.689860644 L 1500421.5377689907,-1162237.4358418104 L 1506748.492347717,-1187351.073925981 L 1525066.1145577503,-1217724.1442465966 L 1546460.384854328,-1247996.996801158 L 1556407.337954161,-1256141.6270740686 L 1564788.9163744587,-1259904.4505041514 L 1574420.723995856,-1260303.3998370643 L 1580997.702150904,-1262531.3631881604 L 1604055.196959424,-1277632.2791174976 L 1613697.802571428,-1282739.6069059847 L 1620785.7371892177,-1287980.7681488337 L 1622525.1042328624,-1292540.5333918217 L 1623220.8510503203,-1299214.8687173042 L 1621013.9421453436,-1314849.3854776719 L 1624971.0160845723,-1326348.5043844858 L 1627286.5728125633,-1344185.8298941238 L 1628286.66711785,-1358080.645549863 L 1627460.565176673,-1362895.3959867405 L 1623818.748035371,-1369551.5235756398 L 1623144.7085186176,-1370991.882793222 L 1616241.5642555454,-1379669.2113850964 L 1604718.3271660798,-1384899.1269743615 L 1588846.6168077562,-1386306.8336353658 L 1580454.1290773607,-1389417.5166271753 L 1579051.726132347,-1396647.3659294446 L 1578247.331491875,-1400850.2392798653 L 1577432.0275413047,-1405410.062060723 L 1576290.5574827106,-1415528.919888794 L 1565593.4223344217,-1468703.9625052898 L 1585726.5541198023,-1468570.0220759194 L 1609871.1950754095,-1462220.3521934403 L 1615937.2167677167,-1457417.2519505627 L 1619111.6033671775,-1439199.6606115557 L 1627851.853186811,-1428894.2993221465 L 1643212.6070823935,-1420414.1320005723 L 1652768.2721720883,-1402904.6377161262 L 1656507.9391457972,-1376381.5972372668 L 1664976.458088405,-1360549.0690269605 L 1666878.908186062,-1358041.8218560356 L 1676456.2805764612,-1335140.9067364137 L 1678837.070526057,-1328131.240018939 L 1679554.5246442198,-1314355.278351776 L 1678478.2878072304,-1305058.165951015 L 1683370.3341496314,-1293544.6621597365 L 1675967.142733916,-1273928.493162558 L 1673771.1431390368,-1261888.4628572713 L 1673118.9222424787,-1245000.0451118818 L 1677434.6675810434,-1215222.3891779492 L 1684511.804208226,-1192267.5517555298 L 1692165.0192002633,-1173700.1929502324 L 1700524.7790003656,-1159308.7583978015 L 1714309.2489063153,-1143415.3305473002 L 1729006.9839147325,-1128892.495270048 L 1742693.603988275,-1119773.0287492203 L 1730007.0782200196,-1114403.0277791994 L 1705416.825342767,-1113724.2179309733 L 1691295.2800186956,-1116798.1758590117 L 1684566.128119733,-1116952.6886608964 L 1677760.8336890677,-1115043.1955683574 L 1651518.1542904798,-1112300.407930581 L 1625036.249306177,-1113586.2196543757 L 1600467.7037296293,-1117201.131234681 L 1585552.6730751833,-1116599.4690543069 L 1574029.3246662267,-1107792.2262547286 L 1564701.975852149,-1094524.4464757352 L 1555939.9074123197,-1084040.4906028423 L 1559027.2421699807,-1072429.3214304785 L 1565615.1296351263,-1065996.663007452 L 1578279.9481026772,-1051861.968409002 L 1589651.0114482285,-1038162.0343985268 L 1595467.0095642137,-1028965.2642720388 L 1618154.9236633002,-1008866.3402131461 L 1640049.2411125212,-990884.3647895997 L 1644332.369840283,-987897.2573864192 L 1650452.826763588,-984646.428315021 L 1654290.2322502139,-983331.8393279561 L 1666226.6872895043,-973042.0741185138 L 1682728.9112436806,-956158.339981201 L 1697883.1674838415,-929716.22731222 L 1708645.4245342442,-902889.2458404043 L 1719103.4454163092,-876813.2608988468 L 1723723.649562193,-872418.4457485668 L 1730996.3745346991,-869625.9840198536 L 1731887.8210169717,-864024.9303036003 L 1731311.6313326259,-855764.544189045 L 1729061.3078262398,-849013.622005989 L 1723234.4004001569,-839960.7129629052 L 1711993.803497815,-821366.833254271 L 1697165.602046188,-810751.9390111887 L 1692806.3307867234,-804308.4495185107 L 1690479.9760681256,-796315.5361370908 L 1687283.88216796,-788312.8739311144 L 1679402.3509003052,-771079.3222681194 L 1673640.6766958272,-757009.7104017453 L 1667868.2045007418,-752625.2574925511 L 1654420.6986934235,-731376.1996156315 L 1645343.3734556676,-710091.4250053095 L 1643527.9751998112,-704562.199598552 L 1640766.695230684,-700466.3029379353 L 1636342.1907496143,-697158.0562302707 L 1620742.2112683174,-690547.6089871939 L 1615480.5842164825,-687267.2394781878 L 1611349.6292326348,-683336.5657964833 L 1607533.931046714,-678848.5220773324 L 1606468.4922003315,-673475.3562117318 L 1610110.3093416337,-665861.8535941361 L 1614480.4899111958,-659839.5982513467 L 1618861.4684713648,-659467.9272415772 L 1622731.601888284,-659741.2244064341 L 1625134.0991385842,-656156.4492201594 L 1627145.3083787465,-654047.334454505 L 1627145.3083787465,-612697.3053275696 L 1623438.2580158396,-606450.577428824 L 1623525.1985381492,-603666.0167664789 L 1621709.6889628016,-596546.6854597875 L 1621144.4085885533,-588592.9901999714 L 1622318.49525795,-585437.9045318214 L 1625460.2652466088,-582877.988930335 L 1629786.9198952708,-577316.251678931 L 1632135.0932340643,-564627.9210400226 L 1637396.6089664083,-519944.4696128927 L 1639875.2487484112,-512887.902892692 L 1644234.5200078757,-507941.990216883 L 1657942.9587016136,-498313.02875310736 L 1672325.3255926138,-485659.6379567125 L 1676869.387206795,-477434.0063936412 L 1679532.8173435149,-463939.03666197 L 1685033.558661574,-453355.9726482866 L 1684914.001528462,-449759.48478152754 L 1682641.970721371,-448370.00899241486 L 1677293.4031472267,-448201.0548287871 L 1673673.2933066294,-447465.42714837805 L 1676706.304152783,-439750.1738029529 L 1684120.4048785965,-426326.1088894684 L 1696491.6738489254,-412408.3014112293 L 1709884.744425246,-397348.8739421493 L 1720820.9938397587,-385046.89517079946 L 1734453.2900017938,-370824.3835832328 L 1745107.0105486729,-359717.6588460886 L 1756064.9672638907,-348290.9449536426 L 1764337.7865416834,-345601.83392825996 L 1770523.4766865934,-344796.2608765694 L 1773175.9975132155,-342558.94595995196 L 1776437.3246349858,-337311.6936083686 L 1782025.0064753545,-331509.4365616425 L 1788178.0800094616,-323922.3596416232 L 1790287.0277625404,-316177.8069861448 L 1787710.53814813,-308809.30602561723 L 1790254.4111517377,-298241.5905815662 L 1790406.5848956523,-297332.90195398004 L 1792450.299427126,-293170.21754525765 L 1791743.754619061,-289443.030415101 L 1792993.8725006694,-275432.7688407303 L 1796266.1089325377,-263208.347745666 L 1801527.624664882,-252768.95345815225 L 1801440.6841425723,-251920.3691800202 L 1800766.7559453102,-245496.1381535004 L 1793994.078125447,-241378.43832356407 L 1790026.094876121,-234579.32289770505 L 1788862.9175168218,-225099.10215650682 L 1790895.8340576885,-213558.02254045708 L 1796135.642489328,-199956.65180917384 L 1796266.1089325377,-191968.15788886754 L 1794417.9827463878,-190842.43376472895 L 1791167.5649347152,-188297.54841678074 L 1787721.4474582276,-186622.69145135742 L 1778350.57272325,-195954.23627666934 L 1767936.1890815762,-202257.09896268343 L 1752347.1189103767,-213215.4121339516 L 1736616.6729858702,-217158.4765563701 L 1716266.0229154793,-217865.43225934333 L 1707504.0657951408,-216527.59853408023 L 1701231.4351279214,-220650.06409791502 L 1692447.6593873873,-225409.0975217307 L 1687610.0482759841,-226649.19570222258 L 1680880.7850575305,-222945.30062869124 L 1676228.0756203348,-222782.11800798945 L 1670509.8160172661,-224218.01869664498 L 1658932.1436968027,-224054.8349353791 L 1657855.9068598133,-230407.52653164585 L 1655877.4255499444,-231647.65951891593 L 1643397.5087566013,-231060.1742507031 L 1639549.0826403871,-236319.87522080465 L 1637874.948818347,-235732.48558714526 L 1632961.306494732,-237396.85425323105 L 1622916.3922430007,-244865.15864674866 L 1612360.6328480195,-239920.67445590554 L 1590422.9007973892,-240546.28822198117 L 1562299.478601849,-240383.08925147605 L 1533175.9621010218,-240219.89043827684 L 1506541.8833728046,-240453.71595386873 L 1479831.7734323759,-240682.19465201197 L 1477200.9599064584,-247661.13803883822 L 1471678.511287695,-251251.264121453 L 1461720.5375582732,-251583.1425583552 L 1432401.3213926319,-250174.19571309598 L 1409941.8348886534,-251289.36493462944 L 1402777.7577391614,-252208.68903013266 L 1394809.2859491974,-254025.62843049946 L 1376056.7384886348,-255657.53809398625 L 1352912.3031578052,-254362.8601715342 L 1347650.6761059703,-254711.0106332764 L 1329126.4449210248,-254449.8698638941 L 1286740.2129675967,-256348.38637036917 L 1263302.339459036,-256070.97717104797 L 1263845.8012130887,-251806.17772787387 L 1262356.4577457653,-248732.73105441322 L 1261106.339864157,-241334.99263444447 L 1235265.8577858051,-241340.33979557827 L 1201239.49695197,-241351.25691675278 L 1169104.6769056942,-241356.71547760515 L 1147373.4425104854,-241367.6325998398 L 1110955.4937364473,-241372.9797620086 L 1098736.398510033,-246442.61191829175 L 1095040.257457224,-249684.68228911376 L 1094311.8940289635,-253372.78009900896 L 1093844.4634871224,-255858.85415816153 L 1091017.9502963906,-256598.61211209017 L 1093355.2143250862,-282761.48570428055 L 1098453.7583229088,-304570.1504708518 L 1100443.1489428754,-324809.49744706246 L 1107455.0523484529,-342923.7093563249 L 1103737.0926754484,-360828.28173306445 L 1099410.4380267863,-368646.54848611605 L 1076689.9073168973,-394054.05410499166 L 1087115.31158816,-403671.91060652235 L 1073385.1655937177,-402326.71680980205 L 1070439.0952698737,-411776.4713267447 L 1063785.9745831229,-423106.6376654718 L 1067862.6056554632,-424920.69382369093 L 1071797.9722939872,-431136.6075763842 L 1084212.6558657254,-429229.82867540576 L 1083821.367855587,-432264.2918118292 L 1073113.3233972006,-441771.54332144844 L 1074146.1456327806,-446571.9019429088 L 1078559.740803752,-451933.6314375883 L 1076407.2671297733,-454195.10313436197 L 1068710.6375363267,-448642.41197454685 L 1063166.3702973675,-448811.36695895385 L 1058850.5136393122,-452407.8170777575 L 1055719.6529607514,-453018.04599995236 L 1057622.1030584085,-445721.79453995946 L 1053306.357719844,-439227.06863927806 L 1049218.8173374059,-436971.4345279898 L 1042207.025251319,-437352.8186363889 L 1036488.8769677411,-438987.38748080656 L 1034977.7148802225,-442621.5025306781 L 1029607.4400053733,-445400.41181126604 L 1014551.0335976199,-450222.6109111875 L 1001886.3264495598,-455862.6736875067 L 999320.7461452472,-471356.667447559 L 994309.1426697342,-478033.58134678117 L 992254.5188281628,-485577.8041463182 L 991058.7248580614,-494213.1092492827 L 992776.3846010016,-507456.77387492015 L 989569.3813907382,-509577.90004228137 L 985894.9476386338,-510303.1205408846 L 980405.1156306727,-509654.17407839943 L 975371.8048544548,-510390.33952583314 L 969360.1070736548,-517724.89393310476 L 964065.9747305083,-520549.82948117197 L 967327.190532788,-507064.1360529231 L 963609.3421792744,-503280.01403170364 L 954499.400330716,-504381.49718200875 L 950618.46892319,-509479.7378099883 L 949868.3981942252,-513274.9853239202 L 954064.5863996774,-529608.8981619504 L 952433.8671790469,-529957.9723134976 z" /></g>
</svg>
