<?xml version="1.0" encoding="UTF-8"?>
<svg xmlns="http://www.w3.org/2000/svg" viewBox="-8797071.629194902 -1395183.426458781 1352466.57991667 1867156.0352068373">
  <g id="map"><g><path fill-rule="evenodd" fill="currentColor"    d="M -7939275.693155285,-1329997.3417307732 L -7943265.2723858245,-1328614.4183416485 L -7948233.349940437,-1325632.0950034652 L -7963360.444224845,-1320007.0509966 L -7983776.21619735,-1314638.3714505092 L -8010339.607048913,-1307766.5234656448 L -8016373.123449909,-1300441.1490001157 L -8042664.672104955,-1254390.7080232138 L -8064662.294041631,-1245066.525118785 L -8072668.837097446,-1238220.4652478434 L -8078707.696834001,-1229515.416379512 L -8091823.581878246,-1213495.718070482 L -8097286.251930454,-1201184.3072567007 L -8111777.377963958,-1174463.120930836 L -8119686.071187366,-1141023.860048433 L -8122691.920077766,-1122251.3903093827 L -8127051.191337231,-1095064.9764739212 L -8133454.17712817,-1081404.7677391418 L -8142047.8191784285,-1068581.7661552401 L -8151288.227470196,-1056049.5645591193 L -8159234.880639965,-1042331.4713928482 L -8165991.305814172,-1031597.3195713406 L -8167089.249951867,-1027908.0477473319 L -8163806.215529392,-1024951.2603766016 L -8147825.746028562,-1027908.0477473319 L -8141542.317370736,-1031140.3428637097 L -8132823.663532316,-1035287.0463845856 L -8127355.53882506,-1033073.1691592028 L -8121887.414117803,-1021256.9643618888 L -8115685.471327239,-1019781.5509498841 L -8109858.675220645,-1021256.9643618888 L -8103656.73243008,-1018306.1916447178 L -8095769.746507376,-988925.94537776 L -8089078.665874265,-964068.8806168697 L -8073527.555649428,-948546.0596637789 L -8061373.8049641065,-936424.128814295 L -8058454.896596017,-925744.7816623254 L -8055541.442882976,-910641.8608403484 L -8054813.079454716,-903279.0656715934 L -8058607.070339931,-898826.7510116514 L -8064656.839386582,-889654.5531263739 L -8066162.435499562,-872094.73055744 L -8067200.6010707,-866263.0700644867 L -8068320.363828589,-850006.090852481 L -8067543.131143872,-840015.6209491387 L -8064314.420632903,-832225.2548090399 L -8058933.2364479555,-827757.7341564868 L -8047991.532378394,-825450.0944585685 L -8038126.065145821,-822726.1245079313 L -8032445.876808604,-809195.8075080091 L -8024385.009841282,-792048.4095268311 L -8015742.609854055,-784840.5175567691 L -8003056.084085799,-780097.9062278809 L -7993995.011493701,-781833.9537459889 L -7972801.895516985,-784873.381425437 L -7954571.21382926,-784139.50140386 L -7927931.680445995,-779522.9001369136 L -7918000.979991819,-779692.6984317509 L -7905162.28047965,-780557.9605044859 L -7882610.287478821,-789884.8598052054 L -7874424.408723338,-791281.5600569808 L -7865287.304919027,-790465.476901893 L -7851981.174865014,-785727.7371254764 L -7844757.319148967,-781981.7767201408 L -7835500.658211543,-778110.0291597666 L -7821987.919182621,-775344.7340222475 L -7813307.4479295425,-775804.7466892683 L -7806746.72242015,-775979.9159033073 L -7802941.9335443275,-774222.1943556996 L -7781699.836991664,-747573.57613969 L -7763306.072249927,-724504.6857361187 L -7747260.369527495,-705136.4232293996 L -7729942.8416227475,-684244.0002816926 L -7728594.762589241,-683019.4987852365 L -7720794.828508337,-685709.1358489175 L -7715647.415254057,-684544.7274489581 L -7710896.744664963,-680302.5541451444 L -7702699.956599383,-682051.8502172282 L -7691057.051057314,-689782.1694594163 L -7674054.779950494,-691329.4066309406 L -7651709.395924579,-686693.1906576266 L -7622243.349350582,-686665.8711327892 L -7585651.4082124345,-691252.9284044949 L -7562920.079511939,-696228.4749172891 L -7554049.363249093,-701598.3238462696 L -7539351.628240677,-701045.9737380362 L -7521642.701006302,-696212.1253477212 L -7512059.873960853,-689322.8657053573 L -7510902.151256602,-682549.2753812727 L -7507314.658026809,-671999.5486784299 L -7511157.629487974,-661304.032868711 L -7522436.297656165,-650462.8867871566 L -7528687.221022681,-636619.153861013 L -7529904.722293488,-619774.6191427275 L -7535731.629719571,-607329.7361858571 L -7546173.2866364885,-599276.3899812247 L -7550233.553743682,-587533.975304387 L -7547928.906325788,-572115.1783378182 L -7549054.1237387275,-549574.1588215745 L -7553614.437998565,-519933.6357242549 L -7553614.437998565,-502222.3184378986 L -7549054.1237387275,-496437.5070748322 L -7546950.519321207,-488134.5623591513 L -7547309.302040033,-477325.0541082276 L -7545591.642297094,-467764.91719033715 L -7539927.817925023,-455295.83906690317 L -7532057.195967466,-430493.720896738 L -7525480.217812417,-419843.65381971427 L -7519756.614873791,-415943.4565483616 L -7513918.909457101,-411177.32968293526 L -7497112.226695605,-385820.1943562626 L -7493041.0502783125,-380478.2550734351 L -7494269.460859218,-375806.4375564486 L -7495840.290193801,-372310.7911319256 L -7497769.90224721,-370083.8635242403 L -7515718.055067301,-354986.84587309853 L -7551331.609200868,-322164.3761791897 L -7554277.568205221,-317984.63771425147 L -7554038.453938996,-311105.8646413242 L -7543727.263465287,-315530.2475287525 L -7532682.25490827,-311840.4464545872 L -7527279.363422619,-311105.8646413242 L -7524827.99691586,-308401.1767813036 L -7521637.357670742,-299552.9256405333 L -7517957.469263589,-298083.7899154496 L -7512554.577777937,-294394.4710145798 L -7501998.818382957,-285062.9567096613 L -7493166.062066474,-275231.53849083185 L -7486540.1033354765,-270525.43325829104 L -7481876.484588183,-266146.0363926246 L -7480403.393766517,-259753.87461872588 L -7482365.622430729,-253372.78009900896 L -7476826.92116631,-238566.2998433934 L -7473038.273616651,-233964.75893687544 L -7471076.044952437,-228318.9363328219 L -7473038.273616651,-222667.9459539043 L -7468374.654869358,-216038.0680535336 L -7463292.36351719,-202991.17600133762 L -7457085.077391067,-187063.14896032904 L -7456351.259307758,-178221.3133605969 L -7453769.426357789,-174148.58353086936 L -7450736.415511637,-162322.2277545027 L -7445545.476336455,-151214.08471080934 L -7446773.886917359,-143602.3627753499 L -7444605.049278232,-136159.31004371116 L -7465667.698811739,-131184.68540280787 L -7467564.694254346,-131967.5392913374 L -7468831.1761011025,-134707.71064928954 L -7468233.279116049,-155928.0502416266 L -7468439.888090962,-179868.93419755925 L -7471679.396592538,-189673.28177968424 L -7481316.658868982,-205400.36205037942 L -7494095.468495106,-226257.5496518241 L -7497585.111892493,-232245.951901153 L -7502982.548723098,-235683.47156057408 L -7509363.938532822,-236178.5138687544 L -7514027.557280114,-234704.4192903344 L -7520305.642602384,-230815.44499708083 L -7526224.945205824,-226589.37939867767 L -7537650.332462884,-214009.4539029779 L -7549141.064261038,-199304.1114160899 L -7555870.216159999,-196019.5002974622 L -7562626.530014716,-194670.7889415298 L -7568583.903884008,-195122.17749288568 L -7573383.44372956,-199075.68379074748 L -7578302.652027715,-207102.54743168363 L -7584227.297966716,-217756.7210777419 L -7591298.979938849,-221237.51538286172 L -7594032.986632732,-217963.3392075763 L -7596381.159971525,-211698.06529770518 L -7598218.376847576,-205476.5440833152 L -7593467.706258481,-197574.81704962233 L -7589380.165876045,-191478.68767419824 L -7596392.069281624,-191685.3898615291 L -7619090.781371315,-191674.47562462394 L -7645251.974902642,-191663.56138827986 L -7671380.551823168,-191652.7585222469 L -7694878.315217775,-191641.8442870192 L -7716636.711568737,-191636.38716961571 L -7724942.147457331,-192142.11776852107 L -7733383.5044441875,-195720.35514189108 L -7741482.44267736,-197427.91624116927 L -7745749.3187594665,-197150.59809354442 L -7753407.988406553,-193664.77399356654 L -7763376.760126581,-193153.58259248058 L -7770095.002715445,-189847.3511552553 L -7775508.803511196,-190244.26995319148 L -7775606.653343604,-171886.5186810461 L -7775753.372432468,-145706.39689279426 L -7775905.546176383,-117952.06085526518 L -7769893.959715074,-120056.03145205365 L -7764681.201919696,-119854.84155558902 L -7760860.049078727,-117903.18324544099 L -7750162.9139304375,-119479.74017976587 L -7744227.358681341,-118647.92735137651 L -7738612.514885219,-117946.71660601787 L -7733399.757089843,-117848.85005631296 L -7730192.8651990695,-115647.02698557726 L -7725882.4631960625,-116043.94643141022 L -7721273.168360278,-118452.30521965736 L -7715756.063077071,-116946.34140426753 L -7709842.215128678,-113037.61280384228 L -7706031.971597807,-107220.74748024023 L -7702623.925387172,-100001.3935774533 L -7699215.767857043,-96190.58800026041 L -7699416.922176907,-89275.9146280404 L -7699520.2266643625,-83861.614999262 L -7700721.475289514,-79355.2557082395 L -7699215.767857043,-76441.5846731665 L -7698112.3690643,-73337.67197076166 L -7698416.827871621,-71527.50032400197 L -7700422.471137242,-70728.51065798201 L -7704732.87314025,-70125.12223582676 L -7709342.167976037,-69624.93374856908 L -7712549.171186299,-69826.10008830314 L -7715054.9729240555,-72630.96957765704 L -7717462.813509913,-72935.44820839759 L -7720968.820872448,-72533.1134093906 L -7724681.2145709125,-74240.08815135091 L -7727888.217781176,-77746.23308730104 L -7733600.911409707,-81257.85661363993 L -7739715.9136779625,-79752.02923498799 L -7743923.011193511,-77947.29106236967 L -7748238.756532076,-75740.33330078254 L -7752146.961214847,-73435.52828027183 L -7756055.054578126,-74038.92024158961 L -7761072.001389197,-72337.51245070357 L -7765284.553559797,-69728.24440026705 L -7770894.054020361,-67624.62935356889 L -7777009.056288617,-66624.36833695462 L -7784026.303029753,-65613.31039680976 L -7790744.545618617,-65216.546865098695 L -7798365.143999851,-64411.9993655457 L -7798810.86724099,-49800.72737254956 L -7799680.606422557,-21078.94055043387 L -7800262.139442462,-2065.533187773379 L -7800213.270186002,15458.618862643412 L -7797267.199862158,21839.924897122535 L -7783765.3701433325,35341.892790642785 L -7773209.610748351,42451.778607459746 L -7764251.842643707,50376.93482481639 L -7755348.398450571,53703.605934344654 L -7751619.640786959,56693.202839628495 L -7749162.81962515,61596.25809093517 L -7747934.409044249,66749.38695822112 L -7746950.5673846165,71174.15015149045 L -7747934.409044249,75838.19004135841 L -7750141.206629734,80252.1157247784 L -7749162.81962515,84916.23684027976 L -7745972.180380035,88601.80957830536 L -7744988.338720405,93266.01374513879 L -7742781.541134918,97680.10347945117 L -7741553.130554014,102105.26203659862 L -7738851.629151444,105290.86764589624 L -7735416.420985052,107508.88314046562 L -7730997.259839541,111183.74560492764 L -7730508.121996998,114619.60335446312 L -7730997.259839541,118555.5161995596 L -7731040.785760443,121523.93081563381 L -7726844.597554991,128276.08476515242 L -7725599.82300894,133027.75220889624 L -7727562.051673153,138681.94984990868 L -7729459.047115761,158276.93595540983 L -7734323.820182918,180581.32928879448 L -7737422.064250676,197612.7952135046 L -7742477.082327599,225381.9186038988 L -7748358.313665189,257692.10101179988 L -7755522.390814681,297071.68573658454 L -7762599.416122372,335972.66090881004 L -7769448.236473937,373644.7838334879 L -7775639.269954405,407691.4255173611 L -7782460.817030726,445258.6913139643 L -7786597.2266696235,468026.5525084155 L -7788570.364643934,471972.6087480564 L -7794277.603617414,463721.0545679066 L -7802914.6602690825,455928.07362093864 L -7811013.598502256,451241.60833994934 L -7814448.917988136,445095.2108554308 L -7819112.53673543,432553.0489817351 L -7825586.210403022,428260.0527309566 L -7830157.545292446,424926.0490217603 L -7834576.595118469,425416.3856129798 L -7839240.325185252,428859.29990558204 L -7846447.816936153,431060.2910532415 L -7851328.842648966,430733.38032820454 L -7870978.29124685,422093.4140492041 L -7874196.092447721,421265.39445651456 L -7861569.456565512,401526.0784428677 L -7839006.554254587,366250.8791031239 L -7824662.258629438,343843.64940482716 L -7808736.113040118,318958.89462430304 L -7800604.5581961395,306267.9362541461 L -7799539.230669249,304102.1877116649 L -7799571.847280052,300858.9240713011 L -7803034.328721685,296016.016219331 L -7810703.796359379,293970.1154102017 L -7819574.623941712,290259.17639420106 L -7825162.305782082,284241.3805826228 L -7832902.461296428,281651.54667619284 L -7838919.6137322765,277353.3848390072 L -7849893.9344126405,273164.0963150593 L -7856470.91256769,269279.6554454094 L -7864499.16292421,267886.92789143784 L -7870885.896069491,260781.98626797227 L -7894171.70715363,247030.15026654815 L -7900183.404934429,245724.6237327685 L -7906722.311823626,247835.15027625713 L -7916305.138869073,250021.90496582683 L -7925545.5471608415,257561.52812431165 L -7937090.602870504,259987.72820279564 L -7947874.6785411015,259900.7154658851 L -7953494.976992273,255407.31383334464 L -7958908.7777880225,253786.21326458108 L -7965964.095795009,247661.13803883822 L -7978433.103278255,242972.23447338957 L -7987456.104604503,239697.65529188895 L -7993043.786444872,241209.8913921278 L -8000229.570895067,248052.72153417586 L -8007486.043221918,254841.58117797357 L -8013253.060761955,259063.0114464725 L -8020993.327595793,258845.3138601111 L -8030233.624568069,265090.5922790055 L -8039321.859115924,267299.3121149478 L -8048480.670220939,268278.5615866228 L -8059041.88427097,270465.6009250759 L -8070739.225044038,266690.08374186535 L -8080316.597434436,263360.65115802624 L -8084616.090127344,261859.12654364726 L -8088491.566879822,262903.62995677855 L -8094503.264660622,266374.5516416776 L -8105309.047631923,267854.2825109507 L -8113761.313928876,268191.5441690415 L -8119767.557054628,266581.2295503064 L -8125170.44854028,260531.7538764503 L -8133910.809679403,257441.87354228413 L -8143520.798680605,253677.47945896414 L -8145542.805911375,245898.63392702155 L -8144156.766931507,240100.24854130382 L -8140406.301967191,231712.93578100056 L -8142488.087764515,223054.01486514736 L -8146526.647571006,209359.52789202222 L -8148249.7619689945,203779.71873724821 L -8151255.610859393,199037.59398239906 L -8155984.4628282925,197319.21639268758 L -8165230.32577511,198613.48337904748 L -8175334.907273905,193436.35258437137 L -8181569.466675274,188498.6791285433 L -8184792.722531193,182462.7224555906 L -8181352.059709755,171076.37666863928 L -8184363.363255204,161397.86709237986 L -8190385.859026611,156015.01676055702 L -8194255.992443529,146554.54001013868 L -8200273.1448793765,139029.905700877 L -8208225.252704196,135169.7899291956 L -8216177.471848504,135593.90139132272 L -8222412.031249872,133223.49450333972 L -8229510.763858267,125264.18637243002 L -8236174.682535627,122252.4272489457 L -8243697.542403944,114510.82666647418 L -8257764.652497018,111075.08128994814 L -8265069.9940803265,108052.42249138375 L -8269244.474985074,103290.30029783992 L -8274870.228091293,94722.89879255186 L -8274223.350530295,89993.43959590587 L -8276952.01388862,85340.29054831213 L -8279376.218439626,76968.8319076187 L -8284159.5056395205,64640.32732525645 L -8289426.587346405,57628.21279098152 L -8294845.731477712,52333.77227195669 L -8299433.319012793,47854.805645466535 L -8306254.866089114,41190.724305394055 L -8314636.444509411,37320.51752752604 L -8321729.83378225,33243.824012968 L -8324523.73036218,27221.149040912595 L -8326893.611001679,22274.852748527817 L -8330872.392241611,22633.526370577398 L -8336585.08587014,22198.709754066793 L -8342873.969183016,20948.58471922568 L -8349516.180559669,17350.165913448927 L -8355049.64980802,12990.882238156602 L -8364366.089312,5620.299178513826 L -8369453.723999725,4647.3665128647335 L -8373965.169003104,4647.3665128647335 L -8380629.1989999525,11860.319342765848 L -8400610.15704142,4277.785712918043 L -8417683.116024893,-7000.995501334113 L -8435419.205215022,-9936.159128211275 L -8446899.027703078,-16806.70221096843 L -8457482.060373303,-27579.935070585583 L -8463194.754001833,-34852.74754233736 L -8467842.120103471,-38467.46248498275 L -8490404.911094906,-48914.70901540167 L -8494905.558107678,-49925.74298100301 L -8503493.745502887,-45082.542769860076 L -8506298.440073425,-42174.475653775036 L -8506809.396536166,-33830.81980276438 L -8507847.562107304,-29080.09133017028 L -8515343.148700379,-26210.136555627683 L -8527409.958863387,-26824.402814826863 L -8535813.35590388,-29851.988917041315 L -8541433.654355051,-30292.262396822975 L -8542580.579068692,-27922.357065481145 L -8545744.056358056,-26900.43470135767 L -8552603.67470023,-27579.935070585583 L -8562708.256199026,-29890.060600415927 L -8571872.52195909,-32977.432881996094 L -8584303.569495976,-39527.35516916132 L -8590048.9910548,-38712.03588266988 L -8604181.334369477,-40119.8090474739 L -8615720.93542409,-43848.64754726169 L -8618661.551092885,-47294.96435235636 L -8623662.2452583,-70858.8738114899 L -8625189.548671983,-72489.69600231848 L -8630168.535536693,-73511.67586413487 L -8638539.204646895,-76756.8642064279 L -8643806.286353778,-80556.59872435003 L -8646540.293047661,-87079.81648713809 L -8649845.146090332,-93271.46898340386 L -8663944.872794209,-91885.2839901689 L -8687040.43886858,-100050.26884359082 L -8703031.706360012,-107824.18485623233 L -8717664.096827338,-116457.1216811377 L -8739862.761764385,-133462.66102658972 L -8748336.735362042,-137676.16490213122 L -8758800.210899157,-142884.61636511702 L -8764974.880414478,-151262.96770652547 L -8775188.22105578,-159723.20278062482 L -8778618.08588661,-162028.58335925886 L -8781825.089096874,-169678.9299349082 L -8797071.629194902,-180771.6506343076 L -8789527.17334537,-195084.08841383262 L -8771193.18717019,-205835.401948566 L -8747140.941391941,-197487.72345683817 L -8744194.871068098,-214178.08656931843 L -8752897.160941372,-228949.85507013122 L -8751608.97179391,-256859.75640596083 L -8748787.913258228,-262414.0772947264 L -8742444.706033845,-269883.5460971501 L -8734177.23009161,-275051.92447844474 L -8729328.8209896,-276548.12032727874 L -8721088.50700312,-273991.0697311688 L -8715886.769837331,-279556.8259923763 L -8696280.847160347,-277070.47765360004 L -8690339.72593671,-279404.50613336806 L -8686279.458829517,-283185.80759196106 L -8681496.171629619,-286074.9738397263 L -8675381.169361364,-292789.326033368 L -8671875.27331832,-300543.3168465438 L -8668951.02161467,-303557.99778173614 L -8662167.434484713,-302496.8170491984 L -8661542.375543907,-305843.5435038497 L -8658058.18680157,-310403.83074009826 L -8646187.076303374,-320607.82551646355 L -8646306.633436486,-325119.70178137725 L -8649633.193779862,-334954.79638539284 L -8648817.778509801,-338563.56661672064 L -8641958.160167627,-339815.5641333615 L -8633842.969288798,-342580.79605852417 L -8629516.314640136,-351976.37958920695 L -8624167.747065993,-360175.01874159585 L -8618036.49215208,-372218.238535191 L -8611290.976287972,-372975.0534535469 L -8607714.392368276,-387045.39558163745 L -8598626.15782042,-399380.29166660167 L -8580150.907211425,-435963.5301984585 L -8585722.225086646,-435157.2591937608 L -8590146.840887206,-430270.35171234165 L -8595201.858964128,-430847.8547401879 L -8600936.259893361,-433724.3767563097 L -8599251.328080716,-450211.7860083469 L -8602550.615148846,-452167.98976174317 L -8611475.766642688,-439472.3296091748 L -8619167.052900577,-452385.9435501629 L -8619862.799718035,-460254.95504368976 L -8616628.634552019,-468048.318280615 L -8617101.519748908,-473291.57286342286 L -8629565.183896594,-469389.1003485716 L -8628988.99421225,-474245.42332613847 L -8621232.586052245,-479238.2139674866 L -8617715.780699106,-484438.50269345246 L -8610954.01218934,-490097.0928857145 L -8608149.206299314,-498661.965161588 L -8606518.598398173,-511933.6064481879 L -8603474.678241922,-526216.4265022873 L -8605725.001748309,-533246.9430931264 L -8609388.526190314,-539263.4799941613 L -8612426.991691517,-565861.1586844163 L -8611584.525785193,-581355.1630586447 L -8613155.355119776,-593516.9013722396 L -8616324.28706419,-603824.351887101 L -8631092.598629769,-617349.8540942363 L -8607736.099668978,-632844.6202766412 L -8599349.177913122,-644540.4692607671 L -8609970.170529708,-668621.8035984639 L -8623857.944923114,-688929.2915769973 L -8624260.14224335,-701122.5767248683 L -8620591.163146297,-699564.1065244464 L -8615932.88773456,-699930.4261517186 L -8611660.556997405,-725637.0697024217 L -8612655.307967132,-733603.0567204225 L -8620455.242048036,-746462.6007613887 L -8630152.282891039,-746774.5279103336 L -8638631.599824253,-762938.2339728167 L -8643496.4842109,-766562.4215698817 L -8647404.57757418,-776741.0452392965 L -8661069.490347018,-796578.5060148169 L -8671918.799239222,-806911.0169980659 L -8663808.951695949,-830871.2035707175 L -8656726.471733209,-835459.5910918291 L -8654410.915005218,-841441.1168263184 L -8657177.649629394,-856164.8649722993 L -8656416.669590332,-859620.2985308714 L -8654747.99042334,-861084.7941164026 L -8653090.109246956,-860980.6592062173 L -8650231.090764914,-858764.6729258347 L -8644915.13980157,-852408.1141586626 L -8640463.473364748,-844539.0617381082 L -8636897.687435657,-842126.4252240018 L -8631521.957905758,-844730.9773319832 L -8610649.553382019,-860410.1117886043 L -8611981.268450381,-865264.6457759963 L -8610073.363697676,-875090.3893380022 L -8603099.642877439,-883140.1799325694 L -8595642.127550216,-885878.7146023901 L -8593418.965999583,-890368.100315428 L -8595234.475574931,-897273.2655380911 L -8603061.571611589,-914496.7942435263 L -8610062.565707067,-923772.8037620346 L -8614557.758064792,-933012.3871927585 L -8616938.436694894,-941517.5953310065 L -8624868.948538499,-949529.7823068544 L -8621509.77158432,-957120.2845685639 L -8615356.698050214,-965993.1482968983 L -8613258.659607233,-967527.1077274169 L -8609910.391963152,-965096.9849370485 L -8600718.852927843,-948996.7234110843 L -8586086.462460522,-938517.5274169497 L -8570741.961210594,-921614.3028045828 L -8564458.532552768,-909971.9652269206 L -8559463.293042403,-907852.5877518501 L -8555109.365118494,-903635.9443370353 L -8557028.179181298,-900512.0582220234 L -8561827.71902685,-897218.290794827 L -8563213.758006718,-890450.3815159517 L -8560093.806638256,-886657.9554680599 L -8556783.610260027,-884243.284381054 L -8547842.094801039,-885774.4121922748 L -8542917.543167325,-893705.2158278372 L -8546227.739545554,-928386.8973583358 L -8551407.880730128,-945732.331294821 L -8557376.052590027,-951140.1419082896 L -8562746.327464877,-958005.2476429435 L -8559131.67227933,-963200.2300967288 L -8549586.916499732,-965542.3056140913 L -8537019.947864588,-971628.9741220813 L -8491100.657912362,-1004793.8135818514 L -8475364.868652297,-1035969.9908136834 L -8463314.311134946,-1047267.188219496 L -8449709.176928664,-1054616.8617457638 L -8433071.031876229,-1052892.2942301177 L -8420134.48253165,-1056820.8942131146 L -8416155.701291718,-1066757.354554067 L -8419688.870610004,-1080230.2699777996 L -8424662.291500177,-1088358.3230257584 L -8419884.458955329,-1100161.930895858 L -8414938.200020911,-1118067.6415349192 L -8415296.87142025,-1133116.158140439 L -8408915.592930013,-1142089.7827193574 L -8411122.390515499,-1145624.6101337352 L -8420449.739329578,-1138356.476921895 L -8427814.970798934,-1135103.9475545536 L -8423645.833229743,-1141090.1399739299 L -8410600.636062153,-1155954.865825213 L -8403817.048932191,-1178581.6795915533 L -8398609.857111353,-1188009.1990375218 L -8380199.728404473,-1201184.3072567007 L -8376563.36591822,-1207535.897517525 L -8362659.338879157,-1217414.1210616983 L -8340232.3576664915,-1238635.8258587765 L -8331660.534236426,-1244551.3652812212 L -8288208.974756108,-1230866.422629358 L -8274402.797549452,-1231730.305978015 L -8276870.528021359,-1229233.0659078003 L -8283235.442546446,-1228385.9153770595 L -8292443.2342274105,-1224676.6661890626 L -8295112.11901918,-1216517.5069287047 L -8288877.559617813,-1207967.5380591874 L -8282267.9648519615,-1205494.149743631 L -8276625.847780595,-1210988.835052073 L -8271032.711285177,-1226691.7919025172 L -8262036.983234172,-1244052.7762445589 L -8259927.924161604,-1262254.2924784478 L -8253552.100326419,-1268512.169754947 L -8244224.751512341,-1270757.2710732077 L -8227575.6971498085,-1267154.0581229825 L -8214900.080691651,-1263384.950991944 L -8201675.4365048995,-1262908.2103699213 L -8161208.018614275,-1265662.9593192078 L -8095356.639877043,-1312967.4769453898 L -8064770.941864646,-1323149.8679601518 L -8045616.1970838485,-1333107.8365837203 L -8033397.101857432,-1352560.8913323586 L -8030114.067434957,-1367176.8920151936 L -8021134.592029609,-1372855.1350490404 L -8011676.776772322,-1372838.3905520018 L -8007350.1221236605,-1376398.229787106 L -8006002.154409642,-1380904.2818183007 L -7983227.299788248,-1393541.5109681631 L -7970192.900611263,-1395183.426458781 L -7958675.006857355,-1394944.0412792948 L -7932861.686734757,-1383892.0187469092 L -7920941.595660614,-1364396.5894130438 L -7918968.569005793,-1350982.4248716207 L -7935318.619216057,-1336413.0798447458 L -7939275.693155285,-1329997.3417307732 z" /><path fill-rule="evenodd" fill="currentColor"    d="M -8695579.645687839,-283038.94393982564 L -8698596.292568848,-280579.72427644447 L -8704347.057463229,-284992.1982381131 L -8706309.28612744,-290553.0302252318 L -8702781.682783693,-294693.79405435827 L -8698242.964505069,-293338.93342880515 L -8696182.99732794,-289932.67285957595 L -8695579.645687839,-283038.94393982564 z" /></g></g>
</svg>
