<?xml version="1.0" encoding="UTF-8"?>
<svg xmlns="http://www.w3.org/2000/svg" viewBox="-9563235.705624472 -1253598.2915166197 372300.68987171166 352191.38736345223">
  <g id="map"><path fill-rule="evenodd" fill="currentColor"    d="M -9190935.01575276,-1071067.6974580192 L -9191565.529348616,-1068984.0920597448 L -9193489.686746977,-1066795.8466908534 L -9196245.512061054,-1064585.715339727 L -9199898.238512453,-1063075.6070192216 L -9208725.540173888,-1067617.1719587133 L -9217367.940161115,-1072776.5935286114 L -9222151.22736101,-1070406.2643826285 L -9223950.372971212,-1063709.4863868249 L -9227157.376181476,-1060270.5673083006 L -9231174.228687258,-1058920.4329659762 L -9232821.200553546,-1056677.6864234388 L -9233152.709997129,-1034081.009918059 L -9232875.524465052,-1012796.1126645118 L -9226309.455620104,-1012317.2558957031 L -9215367.751550542,-1004925.9025458135 L -9210704.021483758,-1000578.6866855654 L -9209220.132671483,-996561.9733763045 L -9210573.555040548,-994592.3552348457 L -9218580.098096363,-989954.6588898489 L -9226380.032177266,-984085.3291763668 L -9230282.782204987,-976765.0336457568 L -9223455.780473616,-964937.5488841967 L -9221999.053617096,-956905.941856339 L -9222238.16788332,-948507.5666245874 L -9224113.456025224,-944473.9785815497 L -9239246.00496468,-934825.3411589785 L -9242561.655997956,-931446.6888903307 L -9242121.38741187,-929002.1687409156 L -9233777.768937932,-922344.7775459209 L -9229820.806318196,-915908.0360218419 L -9226526.862585623,-908143.4944382188 L -9226086.593999533,-901406.9041531675 L -9233647.413814213,-913898.1433519841 L -9244132.485332541,-925821.6152085029 L -9253247.881836148,-933171.7054107501 L -9253943.628653605,-950321.2788611576 L -9257596.243785515,-959632.4747039998 L -9271331.844435008,-968208.8102268544 L -9283088.85245514,-974218.9428481493 L -9291807.50629356,-972992.6350897469 L -9286469.736710021,-963128.7347000069 L -9272663.559503365,-950480.6604701874 L -9271750.40572039,-945633.4039335262 L -9271967.812685909,-939127.4269830934 L -9281463.699209047,-940127.4781751911 L -9289839.822974296,-942781.4892680901 L -9300047.708960548,-943611.2385699291 L -9306836.639426067,-947490.8900791829 L -9321235.370282214,-962589.9897850258 L -9311005.665675767,-975478.1725283138 L -9307836.845050845,-983942.380212229 L -9308108.575927872,-1001492.0663253332 L -9310456.749266664,-1010005.679187339 L -9321550.62708014,-1022963.6904360162 L -9339210.685058057,-1037187.138644324 L -9363958.566334274,-1048809.7411756543 L -9375590.562566245,-1058182.0152602617 L -9404567.359978205,-1065368.3898505939 L -9415579.751924422,-1070130.5859666863 L -9424184.191965286,-1078973.266708629 L -9425472.381112747,-1085319.796971471 L -9422423.006301448,-1095092.5397587821 L -9430424.094702212,-1107521.81156083 L -9464945.159353133,-1131973.268132975 L -9484246.623222798,-1140974.0936316128 L -9488388.598836236,-1146265.327772197 L -9491454.22629319,-1147911.404682877 L -9488486.337349152,-1131029.085159074 L -9480050.435017345,-1120860.484777991 L -9458014.85313431,-1111367.807091888 L -9451954.28609705,-1105844.448255317 L -9449513.717580898,-1098655.9428448826 L -9462298.093181562,-1084911.7649189522 L -9468804.383459955,-1081415.8342304935 L -9470733.995513365,-1073923.2008981125 L -9474903.021763064,-1071646.5030953812 L -9479300.36428838,-1075968.4608101475 L -9497172.374576768,-1097525.0794674635 L -9531715.146528393,-1107863.8700936034 L -9537965.958575416,-1114209.8719903203 L -9550820.910733243,-1133911.238209068 L -9556740.213336686,-1151916.333708677 L -9554620.356273508,-1163922.9583044038 L -9540428.234392274,-1182639.915034501 L -9535998.275256155,-1190790.8813309856 L -9536900.631048527,-1195812.9741631928 L -9536433.089187194,-1203203.7028743844 L -9541732.787504882,-1208365.8670115257 L -9554870.379849829,-1215095.1017025355 L -9563235.705624472,-1220491.6947874823 L -9560941.856197186,-1223181.9252533573 L -9545896.35909953,-1230434.602717304 L -9544945.134050703,-1236979.972084197 L -9545015.821927356,-1239150.893832869 L -9542559.000765549,-1239621.7326054843 L -9540373.910480766,-1241355.3071005214 L -9539025.83144726,-1243161.0069286106 L -9534922.038419167,-1249470.612914124 L -9531329.201853814,-1253033.183009631 L -9527187.33755987,-1253598.2915166197 L -9522126.864827896,-1250972.0944179713 L -9503162.253737371,-1244180.1738212279 L -9482077.896903165,-1236636.539338241 L -9452046.68127441,-1225905.591640101 L -9439599.269772379,-1232776.793676692 L -9428891.336633481,-1238026.6245094659 L -9421433.821306258,-1237278.9474642887 L -9405290.268751416,-1231159.9000569975 L -9395571.52060771,-1229210.9542243492 L -9389608.80340286,-1229825.551066253 L -9379286.703619054,-1220851.4000636707 L -9373655.495857786,-1214115.5822006536 L -9372720.634774104,-1209627.5183038875 L -9369578.864785444,-1207209.4227018452 L -9361545.159773875,-1206678.298710089 L -9341852.296574583,-1202108.2767248403 L -9329818.103022376,-1203004.5112745112 L -9318881.742288372,-1207834.7250026152 L -9312870.155827062,-1213611.8921454775 L -9310983.95837506,-1222722.4282017527 L -9308233.587716032,-1218216.6732140002 L -9304994.079214457,-1211132.653665438 L -9303559.059658641,-1202036.3297094982 L -9289415.807033865,-1171594.2174927953 L -9278126.229555573,-1154557.117359324 L -9253389.146269966,-1123592.8321759375 L -9242692.122441167,-1117902.0467410532 L -9224635.321798064,-1093007.6151405205 L -9218400.762396695,-1088898.7644497324 L -9214851.340432752,-1081553.6010254484 L -9196120.500272894,-1075510.9634092392 L -9190935.01575276,-1071067.6974580192 z" /></g>
</svg>
