<?xml version="1.0" encoding="UTF-8"?>
<svg xmlns="http://www.w3.org/2000/svg" viewBox="-9449600.658103209 -2655064.2273770245 1196728.051948592 399147.14440348744">
  <g id="map"><g><path fill-rule="evenodd" fill="currentColor"    d="M -9110103.373139478,-2651747.148448029 L -9080936.33071775,-2646113.9191440386 L -9057357.081455883,-2647709.759945006 L -9046083.867942737,-2650996.349858108 L -9047116.578858826,-2647579.6320415996 L -9036761.862464217,-2639236.0694972654 L -9032978.7808891,-2638663.0868899785 L -9017732.129471581,-2642887.371601177 L -8977933.18512317,-2644488.7047911077 L -8973845.756060222,-2642148.720257843 L -8966839.307309693,-2634026.492156808 L -8956680.40189939,-2628995.5903335274 L -8946178.966415916,-2625176.2256601206 L -8935188.281770404,-2624155.1633630246 L -8924219.415745089,-2625896.3383324924 L -8913935.387227135,-2625046.3984113084 L -8901096.687714966,-2617139.0309627997 L -8897047.218598377,-2616201.1074411618 L -8885551.143464666,-2618360.357106483 L -8888942.825710155,-2611134.371468649 L -8869565.21930879,-2600976.2476770426 L -8855378.552082602,-2581037.8647079407 L -8845056.452298798,-2572851.4957212727 L -8834125.657539332,-2565510.2070703898 L -8824928.775168465,-2560535.4056083974 L -8814612.130039707,-2558160.345056375 L -8783319.775899755,-2559136.1668784497 L -8775922.039139088,-2558524.781666736 L -8769301.64638263,-2555685.588370994 L -8762985.489794511,-2554568.8953816467 L -8759338.329317652,-2555626.8448789576 L -8698851.770800218,-2524667.97158482 L -8679637.247452863,-2508160.5912396577 L -8667896.492078386,-2499593.573037447 L -8642490.823931074,-2487213.558675263 L -8632282.937944822,-2484485.7668831483 L -8626939.825025726,-2486130.614026508 L -8627988.899906961,-2488852.791775667 L -8635424.70793348,-2495721.72090166 L -8636517.197416125,-2498234.516126699 L -8626956.188990872,-2496119.9624109427 L -8609687.530342586,-2482168.071384428 L -8604942.314408539,-2477012.9891978647 L -8596321.510402527,-2472239.5285135633 L -8587646.4938045,-2468789.0437728898 L -8591777.448788347,-2463287.035677962 L -8598821.857485235,-2462819.395306024 L -8612361.758469911,-2465081.8095871075 L -8601610.299410116,-2456133.1339965896 L -8599751.37523336,-2449624.583948293 L -8594745.226412894,-2449069.624172869 L -8587293.16574072,-2456220.7369462163 L -8582580.566417478,-2462252.4012727244 L -8563594.24802625,-2446692.4334794492 L -8553380.907384949,-2439580.3800593317 L -8555995.35694572,-2435430.0302460873 L -8556843.388826583,-2431321.535029391 L -8545439.597550737,-2435143.988011429 L -8541107.488247026,-2434723.838333284 L -8536927.55268723,-2432517.829427025 L -8532350.874462245,-2425837.19308207 L -8521697.265234858,-2424355.606969907 L -8510951.26083011,-2424536.4679905213 L -8489138.540567642,-2419013.519602834 L -8468478.088354373,-2407797.848641324 L -8449040.592066959,-2405507.8598862537 L -8429440.124045024,-2405123.2605741327 L -8419509.423590848,-2399192.800797156 L -8415286.07342964,-2391244.0076207556 L -8420042.087354293,-2385614.9749981 L -8422759.84140252,-2379737.6031103088 L -8415449.156483654,-2372530.1032458944 L -8431364.281443385,-2369471.255913439 L -8433609.150294725,-2365133.8099380876 L -8432783.048353545,-2360448.7671771133 L -8429619.571064182,-2357874.209018507 L -8420514.972551184,-2360129.054918331 L -8407361.016241087,-2358124.0194346807 L -8386602.825514901,-2356334.2440871634 L -8372704.141811398,-2357792.8041803245 L -8344477.526447891,-2352888.8402060107 L -8335889.339052684,-2350268.964426771 L -8319137.091522184,-2341058.568558915 L -8311386.02669774,-2334986.751135189 L -8294764.24561045,-2318644.6046700734 L -8280430.747975909,-2312220.884131707 L -8268010.609749122,-2310667.4464168246 L -8263678.500445411,-2311739.7388701662 L -8259737.679151839,-2309966.1513905856 L -8256286.107020302,-2307676.801708286 L -8252872.606154617,-2300527.0290893107 L -8254753.348951569,-2293009.307198552 L -8261846.738224407,-2286912.8248252817 L -8265787.448198489,-2282473.3392284457 L -8283523.537388619,-2281958.3602796434 L -8308304.146595128,-2279921.340607956 L -8332269.3405315755,-2273302.8032247764 L -8343966.569985151,-2268045.4547062293 L -8349315.137559296,-2264570.269500482 L -8361920.066140799,-2261355.9484543293 L -8362778.89601227,-2264107.765420695 L -8362539.781746046,-2267571.258619033 L -8365839.068814177,-2274020.1253532213 L -8368698.19861571,-2268218.9585292027 L -8373389.090638249,-2263986.39847575 L -8381297.783861658,-2260373.2208156106 L -8410404.936397336,-2260136.218440448 L -8422123.984471109,-2265004.01067193 L -8434136.47072261,-2268340.3529469217 L -8477919.539646514,-2271816.2394778244 L -8488426.429785037,-2271509.6778330393 L -8517680.412729073,-2267900.8496791827 L -8547081.114761977,-2265946.4821326653 L -8559381.695855651,-2263714.6577794547 L -8571541.01251551,-2260338.534466627 L -8595196.404309079,-2260448.3945226083 L -8623162.198105656,-2256616.339925668 L -8651204.023114445,-2255917.082973537 L -8633245.072303748,-2282762.7767012827 L -8595354.032708043,-2308650.5238532266 L -8588233.481479451,-2314215.0469600456 L -8583156.756101824,-2321370.269718153 L -8581955.507476674,-2326764.6023949203 L -8583613.277333567,-2331365.47779912 L -8592636.278659815,-2339485.317285188 L -8594473.495535867,-2345535.447825747 L -8597158.632973293,-2349449.9221719913 L -8610290.881982684,-2352853.97900521 L -8623591.557381645,-2354893.293933339 L -8637582.636262508,-2354963.0242757513 L -8666988.792950459,-2357763.765116451 L -8682621.277723067,-2357972.9902367424 L -8695873.083865572,-2363506.0791282565 L -8717859.79649215,-2383234.6423091083 L -8728154.734320203,-2388763.971749881 L -8733443.412008302,-2393188.5992806084 L -8737552.659691444,-2398284.2043348174 L -8742727.34622097,-2427307.3147145263 L -8747102.87012609,-2441290.921175976 L -8753772.354777986,-2453456.909151683 L -8763925.916852733,-2462696.680708731 L -8774530.545504171,-2465836.0532739838 L -8815302.422202118,-2457921.3030456877 L -8824787.399415156,-2459095.9625978726 L -8834027.807706924,-2461790.5351275085 L -8895574.239096202,-2480646.5642445167 L -8920958.088623319,-2491036.720784989 L -8931312.805017928,-2496184.3776458343 L -8940145.450014919,-2503530.7449856247 L -8949298.91778438,-2515576.606851561 L -8959599.19894799,-2526351.7854529363 L -8959528.511071336,-2521992.8143355753 L -8961115.704371067,-2519153.879804435 L -9012639.040128807,-2517875.415158544 L -9020846.737504486,-2520362.167817474 L -9026129.960537534,-2523289.250523995 L -9029864.172856195,-2527648.675366749 L -9032619.998170273,-2536388.3307659533 L -9037528.297158329,-2543728.6653675092 L -9039093.783157356,-2535906.9039787347 L -9041637.544841474,-2528693.157364973 L -9048535.234449496,-2524667.97158482 L -9056427.563707758,-2524028.51942801 L -9065983.228797453,-2533605.6475602523 L -9107738.947155027,-2535578.065153067 L -9111435.088207837,-2537198.515041146 L -9125148.870237133,-2546483.5445881817 L -9136851.554345757,-2558136.7478485685 L -9125197.85081308,-2562246.414225158 L -9101156.514344933,-2567656.950122887 L -9095954.777179142,-2571263.020696766 L -9092938.018978644,-2575858.3612099667 L -9095106.74529828,-2582739.284028401 L -9099884.577843128,-2587685.2654596353 L -9104809.240796331,-2590594.6958410568 L -9110255.546883391,-2592456.1020081043 L -9117446.785988636,-2593245.4834746476 L -9210356.14807503,-2594482.6550179203 L -9215737.332259975,-2590753.8059186833 L -9224069.930104325,-2583127.770284168 L -9240566.810722942,-2573351.698491753 L -9251443.2815709,-2563216.693738491 L -9255519.912643239,-2557989.8680169783 L -9260602.092675915,-2554251.4874401544 L -9272038.500562564,-2547969.923177119 L -9281778.956006974,-2538319.9473846895 L -9293611.99523932,-2534004.777231274 L -9300080.32557135,-2536629.0493098497 L -9306477.968026731,-2536605.4823077614 L -9311103.515508175,-2534227.9092539945 L -9315952.035929676,-2533141.971708826 L -9339786.763422914,-2531962.1020833496 L -9343347.094696956,-2529502.9727259376 L -9346755.140907591,-2522585.3350085816 L -9350619.81966946,-2509139.4110631365 L -9354283.344111469,-2504696.879796595 L -9366236.051796412,-2503003.448261998 L -9377628.93376216,-2499324.1045474033 L -9400800.531048745,-2486528.6329091736 L -9406785.06687379,-2484673.128380044 L -9405485.96841623,-2494040.8119398844 L -9406649.145775532,-2503155.7314197673 L -9413177.254674122,-2503483.9428428295 L -9420623.860691246,-2501966.3028673995 L -9426831.25813686,-2499411.9272932177 L -9438316.535279965,-2492600.164070629 L -9444148.786041608,-2490878.6694823788 L -9449600.658103209,-2494362.8514401545 L -9448491.804655416,-2498820.3322365237 L -9410144.243827967,-2515265.8153974405 L -9405855.549125666,-2516520.784827756 L -9399044.911359442,-2515283.4683920024 L -9392375.538027035,-2515840.5678882655 L -9387168.23488671,-2520450.09908265 L -9393473.482164731,-2542236.767722689 L -9391054.620949283,-2557078.639879131 L -9382156.742730686,-2568556.949060935 L -9364393.380265312,-2585954.034341553 L -9355837.920800395,-2591678.5805849116 L -9268217.236402102,-2628098.2157463487 L -9259248.67030685,-2629963.8719217735 L -9202316.988408409,-2637286.7285590544 L -9193631.062500283,-2639826.8579376214 L -9167219.845392635,-2650647.538793588 L -9139482.367871674,-2655064.2273770245 L -9110103.373139478,-2651747.148448029 z" /><path fill-rule="evenodd" fill="currentColor"    d="M -8646072.86250582,-2505757.5952225486 L -8650644.197395246,-2502083.5380597967 L -8655650.234896218,-2507392.723981613 L -8658835.530805778,-2507972.9725202103 L -8663238.216666652,-2510077.2293714685 L -8671788.332796011,-2515987.0812425027 L -8673853.86594768,-2522104.300829347 L -8666749.567364745,-2522567.674421581 L -8657808.163225247,-2521488.371136739 L -8642142.950522345,-2518010.29560429 L -8643512.736856556,-2511103.102303207 L -8646072.86250582,-2505757.5952225486 z" /><path fill-rule="evenodd" fill="currentColor"    d="M -8685937.040075837,-2545796.226149886 L -8688209.070882928,-2543793.261519499 L -8694237.021309383,-2548275.420700326 L -8702961.018483361,-2550226.091388349 L -8708092.179091986,-2557207.935186008 L -8712978.77077934,-2559888.690163748 L -8713370.058789477,-2562458.119908414 L -8705292.939176498,-2564151.6210205345 L -8699683.438715935,-2563410.7082262794 L -8693400.010058107,-2558077.9957613423 L -8689785.35487256,-2548292.987879182 L -8685937.040075837,-2545796.226149886 z" /><path fill-rule="evenodd" fill="currentColor"    d="M -8753065.69865043,-2577959.4282115856 L -8737786.43062211,-2575405.3262897595 L -8732492.186959473,-2576935.378011929 L -8727399.20893619,-2577382.6690201047 L -8722018.024751242,-2576317.4347132165 L -8714522.438158168,-2566298.3098841263 L -8721104.870968265,-2565051.4310396654 L -8726328.315434758,-2565051.4310396654 L -8730182.196206022,-2566856.9784234376 L -8743885.06892522,-2567327.6091412916 L -8752940.686862271,-2570239.3821944194 L -8757908.764416883,-2572727.983738122 L -8760343.878277987,-2575758.3284961055 L -8753065.69865043,-2577959.4282115856 z" /><path fill-rule="evenodd" fill="currentColor"    d="M -8669494.594688216,-2526844.716896076 L -8673163.573785271,-2526504.3979937844 L -8684246.54228865,-2531516.02102722 L -8687556.738666879,-2535707.315481271 L -8683664.897949254,-2541326.5140669905 L -8682833.341353029,-2547429.3301001964 L -8681322.290585002,-2547834.8033577953 L -8679533.942965405,-2540445.6547422083 L -8671081.676668456,-2537304.209803302 L -8670576.174860762,-2535683.7497662636 L -8665385.235685581,-2529420.883710343 L -8669494.594688216,-2526844.716896076 z" /><path fill-rule="evenodd" fill="currentColor"    d="M -9190733.972752389,-2460177.332493909 L -9201094.032482553,-2453830.8426553058 L -9223173.140286492,-2444887.8367071967 L -9235022.543483984,-2444578.4379160167 L -9247007.867779732,-2447936.5514596277 L -9255269.889066918,-2455414.3756542914 L -9259977.033735113,-2462784.3168007433 L -9259580.291069923,-2466327.2453510836 L -9252090.047812408,-2460416.981038673 L -9245627.283454914,-2457512.213661508 L -9240322.24180167,-2459446.676244896 L -9236577.120172912,-2462644.0034896084 L -9248703.820221968,-2486499.380605088 L -9248171.045139031,-2491546.140358084 L -9238539.348837124,-2504650.0744567714 L -9212329.286049338,-2500665.6101762336 L -9207741.698514257,-2498357.4842588757 L -9204099.881372957,-2490064.8122707214 L -9198262.175956264,-2483561.096471645 L -9191407.900949651,-2466181.035818509 L -9190733.972752389,-2460177.332493909 z" /><path fill-rule="evenodd" fill="currentColor"    d="M -8833152.7251898,-2591425.245575004 L -8832967.82351559,-2588262.3826813 L -8852432.481758758,-2597122.2396427793 L -8860792.352878353,-2606358.1342689693 L -8864167.782478185,-2608480.829123471 L -8858710.455761535,-2608663.539303199 L -8836783.633021003,-2593528.2849600804 L -8833152.7251898,-2591425.245575004 z" /></g></g>
</svg>
