<?xml version="1.0" encoding="UTF-8"?>
<svg xmlns="http://www.w3.org/2000/svg" viewBox="-2821008.7758707544 -1943378.9684293214 296072.88743916433 275120.26403824077">
  <g id="map"><g><path fill-rule="evenodd" fill="currentColor"    d="M -2801891.991036316,-1914596.3520216926 L -2812735.8452734705,-1912204.3256388726 L -2817307.1801628964,-1913357.7161271526 L -2818823.685585973,-1922615.552622268 L -2821008.7758707544,-1928710.0548541902 L -2820514.072053669,-1931422.4154297 L -2795619.4716885877,-1943378.9684293214 L -2786846.4939386602,-1941376.3126544268 L -2780726.037015355,-1931854.6123761598 L -2784889.7199294963,-1926566.4686247169 L -2801891.991036316,-1914596.3520216926 z" /><path fill-rule="evenodd" fill="currentColor"    d="M -2609800.636196314,-1690117.402916452 L -2616529.788095277,-1679534.3557989972 L -2631281.8470152016,-1680383.7498879025 L -2638869.828785634,-1684743.7327880957 L -2647735.20171292,-1698064.6468915127 L -2647458.016180845,-1708351.5343286113 L -2644337.9534928906,-1717285.0628797798 L -2644881.526566434,-1725043.9194795634 L -2643625.954029777,-1727089.7523524773 L -2639076.4377605463,-1725748.4281938726 L -2638342.6196772372,-1720524.6566579088 L -2624911.366515575,-1707749.023895801 L -2619932.4909703545,-1705254.369241077 L -2609800.636196314,-1690117.402916452 z" /><path fill-rule="evenodd" fill="currentColor"    d="M -2770414.9578611376,-1899662.790216768 L -2779552.0616654498,-1896880.5252290135 L -2785210.4313824717,-1897232.6206243376 L -2793347.329562006,-1901338.0630895991 L -2790792.6585677913,-1905779.2869966698 L -2781987.1755265524,-1910727.0691282179 L -2775915.6991791967,-1911761.1149580737 L -2770953.0762796327,-1902962.170175502 L -2770414.9578611376,-1899662.790216768 z" /><path fill-rule="evenodd" fill="currentColor"    d="M -2551189.4771402758,-1832214.7440983232 L -2541905.5429276074,-1830097.4681170688 L -2538377.9395838594,-1830856.033685625 L -2532453.182325369,-1830391.8252008045 L -2526131.6824016916,-1824307.2067026035 L -2524935.88843159,-1817845.0694523235 L -2528077.5471007577,-1809744.5267699545 L -2540367.330203826,-1803105.5975000516 L -2547444.3555115173,-1803880.2958263566 L -2555815.0246217176,-1809948.158164687 L -2551010.0301211164,-1821919.1258762272 L -2551189.4771402758,-1832214.7440983232 z" /><path fill-rule="evenodd" fill="currentColor"    d="M -2705982.2347145737,-1672644.659130369 L -2714651.907977045,-1668258.7043910807 L -2720707.020359254,-1670170.367954116 L -2726457.8965731254,-1674708.5801083022 L -2729229.9745328594,-1681278.2199657725 L -2726979.6510264734,-1686926.7783533 L -2715304.1288736025,-1693612.2829875252 L -2708346.660699023,-1691445.4726387735 L -2704596.195734707,-1681081.327784197 L -2705982.2347145737,-1672644.659130369 z" /><path fill-rule="evenodd" fill="currentColor"    d="M -2681429.941783682,-1876926.8666102996 L -2676831.5562579934,-1873506.4901431827 L -2675309.5961798676,-1871062.1085670881 L -2682147.507221335,-1869786.1883075195 L -2698725.762387723,-1874243.8643050261 L -2703150.266868793,-1871515.887306034 L -2707553.064049158,-1861899.5341438896 L -2715983.6230454044,-1876450.3243624165 L -2715407.4333610586,-1881800.1019369978 L -2713602.8330958094,-1883349.0994115782 L -2701845.8250756776,-1879525.0258936926 L -2681429.941783682,-1876926.8666102996 z" /><path fill-rule="evenodd" fill="currentColor"    d="M -2547917.2407084075,-1881176.0014905524 L -2551472.1173273996,-1875230.7850377592 L -2555831.3885868643,-1883961.9883817625 L -2558190.3599162647,-1886033.1994555325 L -2559337.284629908,-1898583.9609537413 L -2552879.8636079715,-1902326.1907399783 L -2549743.5482743615,-1902644.1781608257 L -2549651.153097003,-1889665.432938826 L -2547917.2407084075,-1881176.0014905524 z" /><path fill-rule="evenodd" fill="currentColor"    d="M -2580622.7957839803,-1704967.2194939181 L -2583721.0398517386,-1704544.804133862 L -2588379.315263474,-1709736.9957458358 L -2587341.0383728454,-1716935.6981565368 L -2587862.9041456836,-1718834.3045411648 L -2583753.656462541,-1726514.8240580072 L -2575681.880185121,-1725844.2263463465 L -2573632.7109985985,-1720152.7436855014 L -2573246.766324018,-1708413.4701079077 L -2580622.7957839803,-1704967.2194939181 z" /></g></g>
</svg>
