<?xml version="1.0" encoding="UTF-8"?>
<svg xmlns="http://www.w3.org/2000/svg" viewBox="3595728.3117652414 -4188732.5147282914 194722.05704642832 83190.97457054863">
  <g id="map"><path fill-rule="evenodd" fill="currentColor"    d="M 3641560.549875666,-4187149.8390102126 L 3642397.672446432,-4183652.711319514 L 3649507.3143649255,-4179625.1113833226 L 3659008.655543113,-4176037.437674583 L 3664585.4280733834,-4175824.9377105283 L 3671977.8214984923,-4179711.528124385 L 3682174.798174648,-4183765.706672908 L 3694807.000031396,-4187435.8233821434 L 3701188.2785216295,-4185228.351740764 L 3709787.263907447,-4184776.181414548 L 3716266.3922300874,-4186012.7837386495 L 3720767.03924286,-4183047.865424613 L 3724300.0972416564,-4177671.728345454 L 3725180.6344138314,-4164551.4033643883 L 3726506.8948271424,-4163927.6205953322 L 3732062.0713761984,-4169137.757047523 L 3741943.791254427,-4166973.751865229 L 3748727.3783843876,-4166310.006861353 L 3754336.7675254606,-4168951.9008824266 L 3757804.7036221437,-4169283.7793612815 L 3761739.9589411765,-4170432.3104216596 L 3766164.4634222463,-4173015.3415866834 L 3769991.070918265,-4176608.840605916 L 3774100.3186014076,-4175499.3934819982 L 3781046.9887853796,-4171600.950841531 L 3785362.7341239443,-4172749.721583022 L 3787493.5004972187,-4170073.8831036985 L 3790450.3688116698,-4162302.008703724 L 3777796.4596542167,-4160006.6084918543 L 3765099.135895354,-4159250.500424747 L 3758032.908578269,-4160245.433034563 L 3751401.606511714,-4159787.7584200064 L 3730811.8421751,-4137608.803105626 L 3719734.2170072794,-4130077.919538973 L 3706558.5533964783,-4125586.957400613 L 3693143.6641999627,-4122922.2737682355 L 3686403.602990902,-4122585.137200547 L 3680478.957051903,-4119775.7894280436 L 3676315.274137762,-4114648.0269830646 L 3676206.626314748,-4109654.7335526645 L 3674423.7333502024,-4105541.540157743 L 3667064.067855387,-4106393.1261409083 L 3663998.440398431,-4114456.4461209783 L 3658758.631966791,-4117925.2969097155 L 3645724.2327898075,-4116121.387703807 L 3639364.661600278,-4116332.7535080644 L 3618503.055067146,-4124033.0006607724 L 3612208.717099222,-4127174.0440162993 L 3608284.3710902873,-4133756.6658344837 L 3597532.912030491,-4157539.3265671474 L 3595728.3117652414,-4175160.663491929 L 3605740.4980866793,-4170651.506120109 L 3615100.4635115596,-4176117.160221819 L 3624112.55552771,-4185068.7761245375 L 3634842.3072868013,-4188732.5147282914 L 3641560.549875666,-4187149.8390102126 z" /></g>
</svg>
