<?xml version="1.0" encoding="UTF-8"?>
<svg xmlns="http://www.w3.org/2000/svg" viewBox="3641560.549875666 -4254220.566851699 205201.89654868888 90292.94625636656">
  <g id="map"><path fill-rule="evenodd" fill="currentColor"    d="M 3785362.7341239443,-4172749.721583022 L 3781046.9887853796,-4171600.950841531 L 3774100.3186014076,-4175499.3934819982 L 3769991.070918265,-4176608.840605916 L 3766164.4634222463,-4173015.3415866834 L 3761739.9589411765,-4170432.3104216596 L 3757804.7036221437,-4169283.7793612815 L 3754336.7675254606,-4168951.9008824266 L 3748727.3783843876,-4166310.006861353 L 3741943.791254427,-4166973.751865229 L 3732062.0713761984,-4169137.757047523 L 3726506.8948271424,-4163927.6205953322 L 3725180.6344138314,-4164551.4033643883 L 3724300.0972416564,-4177671.728345454 L 3720767.03924286,-4183047.865424613 L 3716266.3922300874,-4186012.7837386495 L 3709787.263907447,-4184776.181414548 L 3701188.2785216295,-4185228.351740764 L 3694807.000031396,-4187435.8233821434 L 3682174.798174648,-4183765.706672908 L 3671977.8214984923,-4179711.528124385 L 3664585.4280733834,-4175824.9377105283 L 3659008.655543113,-4176037.437674583 L 3649507.3143649255,-4179625.1113833226 L 3642397.672446432,-4183652.711319514 L 3641560.549875666,-4187149.8390102126 L 3648202.761252319,-4185587.2691209735 L 3660171.832902412,-4188446.496859477 L 3665346.4081124463,-4201735.067316805 L 3667042.3605546826,-4217066.419324081 L 3687284.251482568,-4212666.678295449 L 3707808.782597578,-4210387.564024154 L 3724615.354039583,-4209621.322969133 L 3741182.8112153644,-4212113.473115599 L 3791928.9142883862,-4228480.465327708 L 3806289.4625591906,-4238289.520166776 L 3815181.9974422297,-4241610.239802464 L 3830629.803179612,-4249732.370320891 L 3846762.446424355,-4254220.566851699 L 3836424.093994893,-4244831.620016489 L 3778405.265949365,-4203639.513064888 L 3774611.275064149,-4191419.6730011334 L 3777209.4719792637,-4182974.763396794 L 3785362.7341239443,-4172749.721583022 z" /></g>
</svg>
