<?xml version="1.0" encoding="UTF-8"?>
<svg xmlns="http://www.w3.org/2000/svg" viewBox="1345824.3685400158 -6627981.591534005 750569.5516033222 424723.0917773163">
  <g id="map"><path fill-rule="evenodd" fill="currentColor"    d="M 2096393.920143338,-6361980.590346796 L 2093589.1142533107,-6361712.798914585 L 2087207.835763077,-6359101.337816644 L 2079021.957007594,-6358155.858554193 L 2070151.1294252593,-6358666.201896834 L 2063258.8944722845,-6354081.765397261 L 2056747.149538841,-6346616.643217318 L 2050039.7049405833,-6341454.195307719 L 2046397.8877992816,-6336837.43651027 L 2044365.0825779056,-6332106.360143604 L 2021666.3704882124,-6318645.578885819 L 2018513.6911894558,-6313050.952138137 L 2015991.636806043,-6305422.38797165 L 2014926.3092791515,-6295134.527927459 L 2013317.4086787163,-6285921.015934006 L 2009414.6586509952,-6281060.856678319 L 1997152.1488231714,-6276891.508640981 L 1994097.3193568226,-6274645.904325537 L 1991803.5812490273,-6269966.382567104 L 1984922.1442866593,-6262757.182913122 L 1976866.7319743854,-6255901.515890999 L 1962049.551152347,-6248068.451485448 L 1946156.0221738282,-6245690.132510631 L 1925479.3173149037,-6248233.536302671 L 1913412.5071518943,-6251298.169110958 L 1907531.2758143041,-6247936.182979903 L 1899475.7521825398,-6237742.83634582 L 1890789.8262744134,-6220215.527318019 L 1887213.2423547162,-6207063.026171788 L 1884451.962385589,-6210778.823793976 L 1879483.8848309757,-6224736.072289648 L 1873863.5863798053,-6226523.571553689 L 1866210.3713877676,-6227825.126726372 L 1860448.6971832893,-6229885.346180307 L 1848012.3063108462,-6237932.55437192 L 1841620.118510515,-6240358.041725766 L 1834314.7769272064,-6241010.025619699 L 1827292.075531022,-6236274.565752651 L 1821997.8318683845,-6230684.727203072 L 1805528.2245250102,-6230758.829046959 L 1787482.333192004,-6233355.503004797 L 1761652.649104259,-6251893.122307928 L 1754956.1138160988,-6252058.450910352 L 1747802.9459767046,-6251215.596429885 L 1736518.823153463,-6255603.893207377 L 1714646.3243244374,-6267631.576693825 L 1704405.8217273823,-6270454.789512545 L 1697926.5820852509,-6268732.602347617 L 1692012.7341368583,-6266067.261368675 L 1687794.8386307007,-6265752.670259069 L 1685348.8154595003,-6269659.955529921 L 1677228.169925622,-6274496.931207149 L 1669063.998470843,-6275051.945758786 L 1666694.1178313454,-6272136.108738058 L 1663932.837862218,-6245681.8468519505 L 1661171.6692125814,-6236159.202754057 L 1649963.5776015518,-6236604.44840395 L 1645963.0890609138,-6232102.39590356 L 1637135.7873994794,-6219375.999937205 L 1635429.0369666372,-6207128.842440598 L 1620133.404973169,-6209504.460641552 L 1612871.5893107604,-6211560.071881357 L 1606457.6942097247,-6209997.815889614 L 1599391.4668926399,-6203258.499756688 L 1579606.2085159884,-6203652.723602407 L 1563940.9958130864,-6207679.463461501 L 1557222.7532242215,-6222833.7673367085 L 1550047.7667646317,-6228838.635490071 L 1541013.967447776,-6234212.963192994 L 1537850.4901584128,-6235408.621505865 L 1532860.705303095,-6243692.339645689 L 1523402.8900458077,-6253967.324705279 L 1508118.1673624374,-6268020.666239586 L 1496214.4402534403,-6267325.2342535425 L 1491811.6430730757,-6271059.4017752465 L 1489865.6670545184,-6276236.754843107 L 1484897.700819396,-6285182.656803182 L 1479299.10966893,-6291414.695551011 L 1472515.5225389695,-6293830.741941735 L 1462796.7743952628,-6301772.912894092 L 1449794.991829081,-6319111.908771438 L 1437880.3554099859,-6331122.235714803 L 1426378.8256212247,-6330930.412340369 L 1419084.3933480142,-6337229.73333165 L 1411659.3833121029,-6345488.62654208 L 1406191.2586048462,-6353487.949038967 L 1397701.032361534,-6372971.015292428 L 1391526.251526722,-6384109.95484108 L 1386710.3477160234,-6391003.822021194 L 1381274.8396195695,-6396751.734283809 L 1379307.1563003077,-6401308.952012371 L 1385949.3676769608,-6411736.319042625 L 1388362.7742373587,-6416900.182770345 L 1391221.9040388933,-6420869.965299957 L 1392885.1285508354,-6425077.772946097 L 1392830.8046393285,-6428249.926941837 L 1386775.5809376284,-6438575.902973901 L 1378600.611492243,-6446030.61837231 L 1366609.8325414453,-6453610.574505678 L 1358967.5268595053,-6463180.011874609 L 1356151.9229788713,-6471954.559654597 L 1355314.8004081058,-6476782.36690173 L 1350064.0826663687,-6483320.183268889 L 1345824.3685400158,-6492915.391951061 L 1345835.2778501136,-6498699.948186136 L 1346878.8980763005,-6500308.347778428 L 1350846.770006136,-6500299.806470845 L 1355293.093107401,-6496368.60171465 L 1361565.6124551296,-6488792.027948907 L 1366707.6823738525,-6477758.41740474 L 1369860.2503531182,-6481978.222504041 L 1375752.391000806,-6493731.7065780535 L 1386221.2098734777,-6507077.748453119 L 1396950.8503130781,-6514688.003202647 L 1406582.6579344757,-6515327.469305475 L 1414474.9871927372,-6517433.935710754 L 1421041.1673571782,-6521247.233189158 L 1432488.3732344322,-6519720.026001992 L 1440772.101822323,-6516964.776569617 L 1443457.2392597473,-6518670.714958678 L 1446827.214204532,-6525634.36685821 L 1448979.6878785107,-6531638.326483924 L 1467319.1287087395,-6535159.017821881 L 1473613.4666766636,-6546765.849566741 L 1477157.4339855583,-6546705.899181509 L 1481223.2670672918,-6548443.585132978 L 1485115.1077849155,-6552845.185412085 L 1488854.6634391337,-6554652.769697583 L 1491811.6430730757,-6552476.804689365 L 1495703.4837906992,-6551029.403101325 L 1499758.407562335,-6553813.052551486 L 1505770.1053431348,-6567136.3125692485 L 1509129.170977822,-6569213.146398453 L 1525229.1976117622,-6571298.942884945 L 1547177.8389724905,-6579174.881475354 L 1558298.990061211,-6586189.794767924 L 1569213.4208555282,-6590000.642383225 L 1580932.4689292992,-6596783.52818149 L 1599554.549946652,-6603399.744219155 L 1600445.9964289244,-6606106.340729037 L 1591803.4851222073,-6612911.370044413 L 1588900.9407192632,-6617209.324138336 L 1586954.964700706,-6621621.857322299 L 1589998.8848569575,-6626512.175015732 L 1594064.717938691,-6627981.591534005 L 1599358.8502818376,-6625941.897761922 L 1614947.920453037,-6623038.558716181 L 1619220.2511901916,-6620222.733226485 L 1620774.82787912,-6613325.5838299105 L 1624731.9018183483,-6606908.322602206 L 1627917.0864084163,-6606227.109743411 L 1626775.6163498221,-6595784.677548209 L 1631743.693904435,-6591738.845258525 L 1638994.7115762366,-6588580.991842737 L 1643799.7060768374,-6589217.751552813 L 1647245.8235533247,-6593451.67709223 L 1648572.0839666356,-6596387.4298867695 L 1658192.9822779354,-6596809.453356662 L 1667889.9118014467,-6601254.095379101 L 1668672.5991412143,-6608434.458515413 L 1668063.9041655562,-6621898.349637486 L 1669096.6150816455,-6623833.348954332 L 1683816.057390768,-6620032.782047971 L 1698578.9143012995,-6613964.086530293 L 1700633.5381428709,-6600625.225332957 L 1704590.6120820993,-6594054.25846954 L 1709243.432838786,-6588064.96014573 L 1713722.2612313621,-6585338.404624843 L 1721440.7094450046,-6584908.516005244 L 1741475.9913979783,-6576992.611066268 L 1751118.5970099822,-6575377.659855938 L 1760989.5188976035,-6569925.404560316 L 1769305.8640962967,-6564339.556236312 L 1775382.7950987013,-6563173.203723467 L 1778198.3989793353,-6557060.455990186 L 1781916.3586523402,-6552879.39302784 L 1788504.1347979954,-6556092.20787815 L 1812529.2186204903,-6560600.60963351 L 1821182.5279178144,-6554592.762001674 L 1827031.1426446028,-6548238.101181581 L 1827835.6486045655,-6546218.0734859565 L 1824780.8191382166,-6540613.914207768 L 1823313.2942910888,-6536278.875956262 L 1820812.947208381,-6533406.972730633 L 1812561.835231293,-6530348.347591317 L 1807909.0144746064,-6525395.180316391 L 1804528.130219724,-6519984.383915326 L 1806800.1610268145,-6514807.440962509 L 1813540.2222358747,-6510928.864423717 L 1818312.6001256732,-6510059.720310442 L 1820127.99838153,-6506277.0389147755 L 1835391.0137641954,-6489404.082671181 L 1847533.9664589076,-6467417.765536848 L 1852262.818427806,-6463984.904309714 L 1856709.141529071,-6463171.508683555 L 1861851.1001283028,-6466400.396503554 L 1867786.6553774003,-6473515.387945454 L 1874820.2660836822,-6478675.296674726 L 1880777.6399529756,-6481324.280066328 L 1891278.9641169587,-6487406.715893512 L 1891692.0707472928,-6491376.334070873 L 1882940.911617561,-6506277.0389147755 L 1877864.1862399338,-6518372.159090548 L 1879081.68751074,-6520564.6730350405 L 1890289.7791217694,-6518653.594436402 L 1909346.6740701608,-6512053.825928276 L 1938654.980925705,-6490517.594946175 L 1943894.900676835,-6490517.594946175 L 1954168.0198846923,-6492132.940890672 L 1965310.8782741174,-6495645.580123085 L 1970605.0106172638,-6499644.592396085 L 1972594.4012372305,-6498155.345234803 L 1974301.1516700727,-6486336.081571943 L 1971387.6979570312,-6479863.878660442 L 1958038.0419821204,-6473591.8385386085 L 1958809.9313312809,-6470470.272728231 L 1962234.341507064,-6466459.768544271 L 1968246.0392878638,-6463747.662929321 L 1975540.4715610743,-6456116.1633777395 L 1980562.8730271948,-6447417.537569405 L 1984965.6702075594,-6443384.370474168 L 1989814.1906290604,-6441474.185412987 L 2001946.2340136748,-6446115.129315654 L 2005381.442180064,-6449785.948716784 L 2006903.40225819,-6452383.452756847 L 2009262.484907081,-6451808.085100439 L 2013512.9970240402,-6447535.8381996555 L 2014795.842835942,-6445024.345984194 L 2026601.7201125317,-6440172.706251109 L 2033396.2165525903,-6434209.098160592 L 2037733.6691918594,-6431406.173611243 L 2042538.775011951,-6434133.181487642 L 2061215.1799408107,-6429389.155992239 L 2066357.138540043,-6425406.853746988 L 2067998.6557512805,-6418804.745365282 L 2067074.7039776961,-6414802.301394805 L 2069944.6317698378,-6404438.311680037 L 2093578.3162627034,-6379645.934808774 L 2096067.7540353136,-6367013.299328254 L 2096393.920143338,-6361980.590346796 z" /></g>
</svg>
