<?xml version="1.0" encoding="UTF-8"?>
<svg xmlns="http://www.w3.org/2000/svg" viewBox="652056.1437114158 -7373274.705277897 1019584.3443738376 1385572.5733493324">
  <g id="map"><g><path fill-rule="evenodd" fill="currentColor"    d="M 1060209.3906634257,-6028063.694190275 L 1040837.2389171079,-6040387.9056766 L 1022226.0672098529,-6052245.349751128 L 1016072.9936757454,-6052245.349751128 L 988645.3182976631,-6049880.5563326655 L 987851.7216477979,-6050921.633512762 L 983079.3437579995,-6057687.4811383905 L 978839.6296316468,-6059828.233142323 L 976284.9586374322,-6058729.501056054 L 974578.2082045896,-6056766.823440991 L 971632.1378807457,-6057097.957776137 L 959337.0114421191,-6068032.201493021 L 954303.7006659015,-6069609.331072599 L 947313.6158805193,-6068161.713329212 L 939062.5039034311,-6062276.521914459 L 935464.2126830294,-6055070.993039646 L 936562.1568207234,-6050921.633512762 L 940845.3968679763,-6049122.181180272 L 952042.5791689084,-6050332.572351528 L 953684.0963801461,-6049138.210647676 L 954064.5863996774,-6046806.649068704 L 952836.1758187738,-6044532.037915707 L 943726.2339702153,-6042661.260132222 L 941095.420444298,-6039936.410018289 L 938431.9903075781,-6039267.546484261 L 936725.2398747355,-6038848.4602127895 L 927050.0176519292,-6041710.007494961 L 912624.1248400287,-6041710.007494961 L 900992.128608058,-6036632.378200572 L 882435.2808123099,-6034602.128773369 L 856942.6721426873,-6035593.022295245 L 847767.497072524,-6039364.274285536 L 842179.8152321557,-6041645.449621834 L 838168.41738142,-6052770.065715361 L 839190.2189874115,-6069277.715686144 L 845278.0592999142,-6091175.010388576 L 846973.9004226588,-6107285.396670724 L 844267.0556845296,-6117559.903992522 L 847876.256215029,-6132978.354349906 L 857790.5927040596,-6153568.766395231 L 864411.0967800079,-6175338.978487681 L 867715.838503188,-6198314.165841771 L 872520.8330037887,-6213328.291879952 L 881956.9409603714,-6223863.040343877 L 904362.1035528427,-6253388.812141721 L 906177.6131281904,-6255612.18857842 L 905568.8068330417,-6270380.339547902 L 899535.4017515373,-6272467.39163481 L 890697.302099496,-6276717.377873134 L 868205.0876652243,-6281973.091032834 L 847245.742619176,-6285348.637571594 L 837733.4921308907,-6289530.492882046 L 829395.4396314931,-6300725.608676888 L 824231.6624120653,-6300875.215600541 L 814121.6262582203,-6296870.444095948 L 801489.4244014719,-6294162.877006203 L 792303.4513407019,-6296529.866768046 L 786552.6864463213,-6296073.120061715 L 783323.9759353532,-6294005.055949371 L 781704.1660248203,-6295832.0834458275 L 779399.5186069271,-6305439.076861184 L 774594.5241063263,-6307950.620541818 L 767126.0994690056,-6310146.8334201295 L 762484.1880224168,-6309198.324969223 L 759277.1848121535,-6304424.690830531 L 754330.925877736,-6301058.015376792 L 749786.7529440636,-6302155.237729649 L 735556.559796978,-6324360.669129085 L 731893.0353549713,-6329279.169981778 L 730958.1742712895,-6333808.222547023 L 727392.3883421993,-6342097.275354107 L 718912.960089494,-6350344.179961796 L 710466.259767082,-6352961.137047281 L 706248.2529414342,-6352032.95970229 L 706704.885492668,-6362307.0262949485 L 710031.3345165527,-6377221.760783233 L 713194.8118059159,-6385016.591556558 L 717412.8186315638,-6391390.231018552 L 721880.8490335335,-6395826.955379382 L 722880.9433388204,-6403849.529054847 L 722163.4892206576,-6411450.02956492 L 716999.71200123,-6412629.053351248 L 704052.2533465552,-6418248.606132878 L 696420.856974713,-6424166.951897839 L 690724.4159918397,-6431592.014765179 L 683299.5172754192,-6441829.012216008 L 680136.0399860558,-6452231.115098832 L 679972.9569320438,-6462612.22605078 L 680886.1107150209,-6467256.644871999 L 681418.7744784668,-6470444.740796658 L 687408.7649585621,-6486667.420476579 L 708487.6671377224,-6501210.638335801 L 706172.1104097314,-6515881.759791691 L 705867.7629219027,-6524883.085605144 L 700747.5116233752,-6530783.975081529 L 690517.8070169273,-6533167.73625122 L 687810.9622787981,-6537261.96233178 L 686669.492220204,-6541263.972029377 L 694181.4427784247,-6550258.798629564 L 685114.9155312759,-6557377.613983154 L 681212.2768230453,-6564751.332131666 L 668580.074966297,-6574063.766489582 L 667242.9052428881,-6577267.430585682 L 673309.038254686,-6604485.841696429 L 668677.9247987042,-6612445.404506027 L 662916.2505942261,-6616510.108225551 L 656198.0080053611,-6618504.489425455 L 653132.3805484051,-6622295.679921865 L 652056.1437114158,-6626624.57139176 L 653262.7356721241,-6629312.808145059 L 661155.1762498764,-6628517.48690972 L 663579.3808008814,-6631327.483092046 L 682386.2521729511,-6647410.73877058 L 683158.1415221116,-6650504.680469222 L 680538.2373062919,-6652255.746116017 L 677092.1198298046,-6653192.062114696 L 676244.1992684322,-6656574.381376967 L 676363.7564015442,-6661034.294769223 L 686419.4686438822,-6684301.39412063 L 689387.246268431,-6694247.309699272 L 690050.3764750864,-6701282.868773621 L 689430.772189331,-6708237.257966235 L 683680.0072949505,-6719182.650738989 L 678059.5975242889,-6727928.492660754 L 677863.8978594744,-6734896.89095905 L 673787.2667871339,-6738567.349646226 L 662187.8871659655,-6757278.177039762 L 662209.5944666703,-6764526.881122484 L 668764.8653210137,-6770163.116344607 L 677918.3330904724,-6773761.599856047 L 680962.2532467236,-6776727.751543211 L 686452.0852546846,-6778594.342493939 L 700986.6258895992,-6773180.754124376 L 707509.2801331403,-6768483.253498976 L 709346.4970091925,-6769450.672242145 L 715227.7283467827,-6774562.3809348 L 725533.4641654425,-6773761.599856047 L 750493.4090716194,-6784029.0522210235 L 754211.2574251331,-6788973.551568872 L 757016.0633151605,-6794230.029708689 L 757244.2682712867,-6796541.814329621 L 747579.9553585779,-6806670.269845695 L 747286.405861356,-6810417.534451124 L 748569.2516732577,-6814644.181899837 L 751297.8037120916,-6817988.130628613 L 757016.0633151605,-6820262.305898365 L 763103.7923081722,-6824715.547235295 L 776703.4718594048,-6837371.3902018955 L 781421.5258376962,-6848368.218238365 L 782867.3433841192,-6860287.191472972 L 783149.9835712432,-6869169.161523224 L 779442.9332083365,-6876242.40861169 L 775692.4682440204,-6880824.753908644 L 770561.3076353952,-6880129.145914498 L 760592.6472348575,-6880494.748079106 L 751276.0964113869,-6884463.933832429 L 746166.7544229573,-6890898.909734904 L 744905.727231251,-6896561.67028951 L 747221.1726397511,-6900127.4312616475 L 747927.8287673069,-6904508.737230978 L 746438.4852999836,-6908919.191875946 L 747036.3822850343,-6912624.842175886 L 751232.6818099775,-6915597.748085517 L 780704.0717195335,-6915499.25099133 L 782910.8693050194,-6918768.82656558 L 784900.259924986,-6935927.037174405 L 792270.8347298994,-6962125.484114943 L 799217.3935943813,-6976750.313908548 L 800380.5709536802,-6982907.654107929 L 800271.9231306658,-7017701.501453044 L 801195.9862237409,-7035382.797311558 L 796162.6754475231,-7043705.85771541 L 785171.9908020124,-7052821.138448634 L 787509.2548307078,-7071841.20393432 L 791161.9812821076,-7086696.479334822 L 802217.7878297323,-7105000.085940078 L 810990.7655796595,-7110036.91823358 L 849278.5478405519,-7113029.307075322 L 891588.6372622779,-7111799.166353247 L 909156.3000628366,-7084153.129432642 L 902633.6458192957,-7069978.230765373 L 912906.7650271526,-7063388.300278305 L 917853.1352810612,-7065797.157233395 L 921614.5095554752,-7078118.233551246 L 924125.7659482805,-7091785.81569518 L 927724.0571686825,-7095925.454964115 L 940801.8709470759,-7085708.3844927745 L 945400.3677922552,-7078712.230907533 L 945683.0079793796,-7056256.83681469 L 950498.9117900782,-7086678.301625312 L 946911.4185602834,-7108045.627084749 L 949379.1490321886,-7128808.528061324 L 954629.8667739256,-7139624.926093646 L 959456.5685752312,-7146518.243983129 L 990493.4444838131,-7139099.723131826 L 1024758.9195838721,-7142923.334789115 L 1037717.2875486448,-7134909.914264481 L 1067036.5037142865,-7094853.668028976 L 1076809.5757695003,-7088316.336796509 L 1089148.116809536,-7086257.414974514 L 1072145.8457027161,-7094798.703693957 L 1036608.4341008529,-7143522.4041534625 L 1025965.6228640712,-7149579.822582311 L 1009626.4819639071,-7151415.525972948 L 999440.3032783592,-7156195.798483095 L 993015.4988672256,-7163593.321857522 L 991134.8673897639,-7170211.784887927 L 991482.740798493,-7219702.520764862 L 985351.37456509,-7227094.93819938 L 977426.4286960262,-7229666.086567998 L 972490.9677522156,-7226265.92422831 L 962348.3149875681,-7226219.383009959 L 960217.5486142942,-7237478.184380573 L 962696.188396297,-7245830.210756651 L 983079.3437579995,-7251546.498735521 L 996515.9402552199,-7259212.055519754 L 997113.9485597614,-7272776.044371438 L 988623.6109969585,-7283454.608869669 L 978459.1396121155,-7303077.841786764 L 966511.8865822181,-7321572.018727307 L 965174.8281783002,-7343144.034002787 L 965218.2427797095,-7343125.059875382 L 985981.999480434,-7342699.703039587 L 991069.634168159,-7341886.807494911 L 1022563.0313084841,-7331779.446460585 L 1030259.6609019311,-7324693.187232563 L 1039945.7924348352,-7324363.090041248 L 1057393.7867827914,-7330958.2160766525 L 1070428.1859597757,-7333856.493465136 L 1075483.2040366984,-7329787.802870962 L 1082582.0479645855,-7328079.759278624 L 1084223.5651758232,-7328079.759278624 L 1084908.4026831833,-7324532.869123241 L 1101204.1289819381,-7319403.848363728 L 1108052.9493335036,-7311236.57982292 L 1115662.638404641,-7298837.252643344 L 1116401.911142999,-7281025.1867181305 L 1106661.455698588,-7268233.311580291 L 1098573.3154560209,-7260147.429932114 L 1129164.4681234662,-7263206.80535542 L 1132208.3882797176,-7255883.120267769 L 1136839.3904162087,-7247987.460748124 L 1153319.9070696803,-7253611.722312368 L 1194629.9021861195,-7230281.142406889 L 1219611.5543930011,-7241629.865575226 L 1226003.7421933326,-7242292.304794073 L 1231678.3645560106,-7223463.070610754 L 1225471.0784298868,-7204539.238291019 L 1203446.294537456,-7184400.911933466 L 1208327.4315697593,-7172015.16726078 L 1215360.9309565509,-7169268.492905733 L 1236124.6876572755,-7171895.0678487625 L 1268998.6691224184,-7159676.655949401 L 1275847.4894739839,-7163482.433580679 L 1302503.2755029055,-7191685.954752203 L 1313156.884730294,-7197752.760007656 L 1348226.8657903164,-7202097.044202094 L 1354608.14428055,-7213051.668021075 L 1368816.630126931,-7224086.794001086 L 1377970.0978963897,-7236153.792268407 L 1399886.1226463153,-7259174.704159537 L 1422563.127435304,-7255023.108627736 L 1435804.0242677098,-7250612.149916652 L 1450338.5649026243,-7248388.950675056 L 1463568.6637444233,-7223881.995229182 L 1497029.7442040103,-7196880.466288218 L 1527773.0706153703,-7199228.46782631 L 1538687.6127291783,-7173763.635482556 L 1543503.405220386,-7142434.90228038 L 1552950.4224870664,-7132626.973595847 L 1561255.8583756618,-7126233.160118462 L 1586302.7438041484,-7119541.163659921 L 1587292.0401188282,-7119118.52697393 L 1588096.4347593004,-7114883.998006507 L 1589629.3041475238,-7099407.464811766 L 1591727.3425905048,-7086595.846559069 L 1604620.4773336723,-7035610.141588241 L 1604370.4537573506,-7023191.503813349 L 1604218.2800134362,-7019896.974013544 L 1599500.226035145,-7002548.695273421 L 1591107.7383047494,-6987948.960710631 L 1580030.113136929,-6979729.007849019 L 1573931.4748338195,-6970588.665571057 L 1572790.0047752252,-6960504.161522567 L 1586715.850434482,-6942870.888087353 L 1615698.1025014927,-6917711.599998193 L 1627427.9485658708,-6896257.91614446 L 1621894.5906370096,-6878453.103691901 L 1620209.5475048714,-6865421.139468072 L 1622362.0211788502,-6857130.164397282 L 1627003.932625439,-6850482.305392774 L 1634157.1004648334,-6845455.502518216 L 1636994.411646172,-6837726.156459014 L 1635548.594099749,-6827301.841874015 L 1636907.4711238625,-6820076.512876507 L 1642245.1293879093,-6814935.999889266 L 1641755.9915453633,-6812937.321041173 L 1639157.7946302486,-6805707.081754768 L 1635613.8273213538,-6792536.320560963 L 1633602.618081192,-6782936.477993375 L 1625449.355936511,-6769872.907161764 L 1627927.9957185143,-6758788.959401388 L 1634320.1835188451,-6745737.7659172155 L 1639168.5926208557,-6739189.512959944 L 1640701.4620090788,-6732987.77349006 L 1637614.1272514185,-6718256.100376775 L 1639146.8853201508,-6714489.941940839 L 1659323.5430264317,-6703664.306173939 L 1662617.4867590046,-6698666.769087342 L 1664574.260768169,-6688279.94709218 L 1671640.4880852534,-6666121.791166925 L 1665770.0547382701,-6638136.0963309305 L 1660606.2775188428,-6622839.873184275 L 1649115.6570401792,-6598618.068334415 L 1648572.0839666356,-6596387.4298867695 L 1647245.8235533247,-6593451.67709223 L 1643799.7060768374,-6589217.751552813 L 1638994.7115762366,-6588580.991842737 L 1631743.693904435,-6591738.845258525 L 1626775.6163498221,-6595784.677548209 L 1627917.0864084163,-6606227.109743411 L 1624731.9018183483,-6606908.322602206 L 1620774.82787912,-6613325.5838299105 L 1619220.2511901916,-6620222.733226485 L 1614947.920453037,-6623038.558716181 L 1599358.8502818376,-6625941.897761922 L 1594064.717938691,-6627981.591534005 L 1589998.8848569575,-6626512.175015732 L 1586954.964700706,-6621621.857322299 L 1588900.9407192632,-6617209.324138336 L 1591803.4851222073,-6612911.370044413 L 1600445.9964289244,-6606106.340729037 L 1599554.549946652,-6603399.744219155 L 1580932.4689292992,-6596783.52818149 L 1569213.4208555282,-6590000.642383225 L 1558298.990061211,-6586189.794767924 L 1547177.8389724905,-6579174.881475354 L 1525229.1976117622,-6571298.942884945 L 1509129.170977822,-6569213.146398453 L 1505770.1053431348,-6567136.3125692485 L 1499758.407562335,-6553813.052551486 L 1495703.4837906992,-6551029.403101325 L 1491811.6430730757,-6552476.804689365 L 1488854.6634391337,-6554652.769697583 L 1485115.1077849155,-6552845.185412085 L 1481223.2670672918,-6548443.585132978 L 1477157.4339855583,-6546705.899181509 L 1473613.4666766636,-6546765.849566741 L 1467319.1287087395,-6535159.017821881 L 1448979.6878785107,-6531638.326483924 L 1446827.214204532,-6525634.36685821 L 1443457.2392597473,-6518670.714958678 L 1440772.101822323,-6516964.776569617 L 1432488.3732344322,-6519720.026001992 L 1421041.1673571782,-6521247.233189158 L 1414474.9871927372,-6517433.935710754 L 1406582.6579344757,-6515327.469305475 L 1396950.8503130781,-6514688.003202647 L 1386221.2098734777,-6507077.748453119 L 1375752.391000806,-6493731.7065780535 L 1369860.2503531182,-6481978.222504041 L 1366707.6823738525,-6477758.41740474 L 1361565.6124551296,-6488792.027948907 L 1355293.093107401,-6496368.60171465 L 1350846.770006136,-6500299.806470845 L 1346878.8980763005,-6500308.347778428 L 1345835.2778501136,-6498699.948186136 L 1345824.3685400158,-6492915.391951061 L 1350064.0826663687,-6483320.183268889 L 1355314.8004081058,-6476782.36690173 L 1356151.9229788713,-6471954.559654597 L 1358967.5268595053,-6463180.011874609 L 1366609.8325414453,-6453610.574505678 L 1378600.611492243,-6446030.61837231 L 1386775.5809376284,-6438575.902973901 L 1392830.8046393285,-6428249.926941837 L 1392885.1285508354,-6425077.772946097 L 1391221.9040388933,-6420869.965299957 L 1388362.7742373587,-6416900.182770345 L 1385949.3676769608,-6411736.319042625 L 1379307.1563003077,-6401308.952012371 L 1381274.8396195695,-6396751.734283809 L 1386710.3477160234,-6391003.822021194 L 1391526.251526722,-6384109.95484108 L 1397701.032361534,-6372971.015292428 L 1406191.2586048462,-6353487.949038967 L 1411659.3833121029,-6345488.62654208 L 1419084.3933480142,-6337229.73333165 L 1426378.8256212247,-6330930.412340369 L 1437880.3554099859,-6331122.235714803 L 1449794.991829081,-6319111.908771438 L 1462796.7743952628,-6301772.912894092 L 1472515.5225389695,-6293830.741941735 L 1479299.10966893,-6291414.695551011 L 1484897.700819396,-6285182.656803182 L 1489865.6670545184,-6276236.754843107 L 1491811.6430730757,-6271059.4017752465 L 1496214.4402534403,-6267325.2342535425 L 1508118.1673624374,-6268020.666239586 L 1523402.8900458077,-6253967.324705279 L 1532860.705303095,-6243692.339645689 L 1537850.4901584128,-6235408.621505865 L 1536535.1390551997,-6232127.213123864 L 1535926.3327600511,-6221820.975208673 L 1536078.5065039655,-6210910.514387088 L 1534578.3650460353,-6205148.180931677 L 1527740.4540045678,-6197567.088781521 L 1524207.396005771,-6195949.907562704 L 1522315.7438987207,-6194316.562134821 L 1501323.78224187,-6204203.287863752 L 1499660.5577299276,-6202519.063842159 L 1498345.0953072235,-6201295.22412569 L 1492724.796856053,-6172678.138977304 L 1488854.6634391337,-6167187.049413928 L 1483093.1005541463,-6162141.024514852 L 1471113.119593956,-6157228.676211979 L 1462785.9764046557,-6155226.9504804 L 1456295.938771917,-6152743.976457999 L 1435738.7910461049,-6140812.246444793 L 1426476.6754536324,-6133654.713847714 L 1420475.88698293,-6124671.3177296035 L 1420443.2703721276,-6119504.020904603 L 1430444.5473834677,-6104328.797322802 L 1441978.805102522,-6088677.982686921 L 1442054.8363147336,-6074932.992180288 L 1436945.494326304,-6064668.887948761 L 1435760.4983468095,-6060708.842005664 L 1439152.29191179,-6059214.242869851 L 1445544.4797121212,-6058648.768548193 L 1450893.0472862658,-6056879.79141805 L 1453175.9874034543,-6049670.835552077 L 1452491.0385766032,-6037123.80161311 L 1450664.7310106487,-6025391.727721001 L 1448751.3716028938,-6020460.374979313 L 1443598.503693564,-6020066.4097714005 L 1433673.2578944357,-6025134.1509894105 L 1425933.1023800885,-6031026.221920786 L 1422976.2340656377,-6034650.466430609 L 1422791.3323914302,-6038985.457426646 L 1424465.4662134703,-6041726.023205717 L 1421704.2975638337,-6047072.8028727025 L 1412181.2490849416,-6052019.37132735 L 1401984.1610892962,-6049864.525486314 L 1394450.6145498613,-6046532.4085441 L 1389591.1848182627,-6046726.028058499 L 1384340.4670765253,-6051486.60144102 L 1376263.347463547,-6055135.651415658 L 1365707.4767490749,-6057542.081480672 L 1359130.4985940268,-6060111.004349732 L 1357749.9142692084,-6058592.190069027 L 1358521.8036183692,-6048283.071872631 L 1356499.7963876,-6043790.15204183 L 1304307.8757681553,-6037841.019725655 L 1288403.5487990296,-6032274.48737888 L 1276825.876478566,-6025077.956445303 L 1268259.5077035513,-6021956.354389497 L 1266161.3579410797,-6017525.501514375 L 1257681.9296883743,-6011706.782830322 L 1248104.557297975,-6009851.152129344 L 1245799.9098800817,-6011754.992738225 L 1239657.7456560722,-6009072.099849495 L 1229188.9267834004,-6006478.17649479 L 1222383.6323527351,-6007305.345173326 L 1219187.5384525694,-6012004.108961372 L 1212708.4101299287,-6019205.908505605 L 1210110.2132148137,-6024200.808582106 L 1210382.0554113307,-6027403.660985935 L 1195749.664944009,-6028047.538930006 L 1186520.0546428477,-6031855.740111404 L 1166941.4052411085,-6030961.908725905 L 1162114.5921203122,-6032572.356190828 L 1161103.5885049275,-6030841.034195282 L 1158157.5181810837,-6010405.381249196 L 1154287.4960836556,-6002031.07267525 L 1148014.865416436,-5993384.402529848 L 1139981.160404867,-5988575.428917756 L 1133567.265303831,-5987702.131928565 L 1133871.6127916598,-5994001.618779397 L 1135491.422702193,-6001597.844094429 L 1130871.218556309,-6003379.544800219 L 1123935.4576824338,-6004254.421574355 L 1120576.3920477468,-6006518.299753693 L 1121456.9292199216,-6012301.445299664 L 1119858.8266100935,-6015684.591219294 L 1116988.898817952,-6019720.552089617 L 1110031.4306433722,-6024949.089397144 L 1095290.2810335455,-6032693.254932866 L 1085245.4781013054,-6036527.595426603 L 1081484.1038268914,-6032443.542338639 L 1074298.319376695,-6028337.349102803 L 1062981.5799426506,-6029681.680985918 L 1060209.3906634257,-6028063.694190275 z" /><path fill-rule="evenodd" fill="currentColor"    d="M 1526098.9367933301,-7242973.723739129 L 1528881.924063162,-7230122.746133122 L 1525892.327818418,-7223583.95962761 L 1513379.7944142723,-7234466.251470892 L 1500812.8257791288,-7234316.935807276 L 1493300.9865403988,-7217562.554130524 L 1487713.1933805395,-7216855.521373455 L 1468308.4250234193,-7232070.478850305 L 1465199.2716455632,-7239502.449278736 L 1464557.960059103,-7245690.23949892 L 1467330.0380188373,-7267147.221089686 L 1466819.0815560962,-7273909.7406069925 L 1472917.7198592057,-7281306.589143106 L 1473863.4902529854,-7292006.233240931 L 1484647.5659235837,-7303303.598597728 L 1494214.1403233758,-7303726.813876931 L 1497258.0604796275,-7294157.193211483 L 1501834.738704611,-7287574.400946733 L 1517956.4726392562,-7280199.861987886 L 1520358.9698895568,-7276852.590311492 L 1521815.6967460774,-7272223.263877638 L 1514314.6554979542,-7263160.04446629 L 1511770.8938138373,-7258520.030758592 L 1514151.572443942,-7251088.590759134 L 1526098.9367933301,-7242973.723739129 z" /><path fill-rule="evenodd" fill="currentColor"    d="M 1582008.7057662886,-7160757.267002138 L 1580541.0695996701,-7154838.891862953 L 1582258.7293426106,-7145716.171044919 L 1577638.5251967262,-7146398.343249574 L 1563854.0552907768,-7144268.9451683005 L 1550210.849818644,-7147283.574555666 L 1547580.0362927266,-7158605.459315308 L 1549754.3285869008,-7169518.271545361 L 1544275.2945695466,-7177030.098512142 L 1539231.074483231,-7181446.220911925 L 1538481.003754266,-7187755.305890218 L 1539296.307704836,-7194292.09049374 L 1562799.525754492,-7176706.158640703 L 1582008.7057662886,-7160757.267002138 z" /><path fill-rule="evenodd" fill="currentColor"    d="M 1255996.9978757275,-7249715.409866276 L 1238907.674927107,-7249341.782497467 L 1232385.020683566,-7256995.799803278 L 1225818.9518386156,-7258940.831227625 L 1229352.0098374127,-7268392.671211636 L 1233972.2139832966,-7271829.760130939 L 1250517.9638583732,-7265668.278559035 L 1255714.2463691123,-7253621.101363815 L 1255996.9978757275,-7249715.409866276 z" /><path fill-rule="evenodd" fill="currentColor"    d="M 924810.6034556406,-7320629.2703626305 L 922245.0231513282,-7316793.614938109 L 923473.4337322318,-7344089.5074279765 L 935659.9123478441,-7373274.705277897 L 940812.7802571739,-7372619.919539148 L 935540.3552147321,-7364728.53708905 L 934018.3951366063,-7359203.601977789 L 931876.7194532346,-7348175.162525276 L 932844.3084672096,-7342454.025026979 L 960641.5645547257,-7340884.888551833 L 957412.8540437574,-7335783.022562934 L 929224.1986266124,-7332345.735941905 L 924810.6034556406,-7320629.2703626305 z" /><path fill-rule="evenodd" fill="currentColor"    d="M 955999.653108137,-7306304.549186656 L 951662.0891493771,-7301582.656477515 L 941073.7131435933,-7302137.322793929 L 935127.2485843983,-7306577.420032532 L 937051.4059827599,-7311311.974263246 L 942671.7044339307,-7314928.291043559 L 947324.5251906172,-7315484.098613292 L 954390.7525077017,-7313251.6548268525 L 955999.653108137,-7306304.549186656 z" /></g></g>
</svg>
