<?xml version="1.0" encoding="UTF-8"?>
<svg xmlns="http://www.w3.org/2000/svg" viewBox="4649219.3485203115 -1426459.2082807107 183133.69805484824 201040.70235030958">
  <g id="map"><path fill-rule="evenodd" fill="currentColor"    d="M 4814122.253567946,-1288835.0284947527 L 4804479.647955941,-1273606.9286766546 L 4792151.904906513,-1254152.4023242402 L 4778139.118724946,-1232029.234318515 L 4769387.959595215,-1231874.213104205 L 4762582.66516455,-1233158.8583083758 L 4757929.844407863,-1236913.50827111 L 4748330.653397269,-1240989.7096587878 L 4737503.163125261,-1241266.7148592542 L 4727197.427306601,-1237445.1090696047 L 4709716.705028351,-1232699.3379483742 L 4693921.13720173,-1231154.4568664378 L 4681223.702123378,-1228518.8092122902 L 4670678.852038494,-1225418.5059304012 L 4661188.420170404,-1227096.0107696455 L 4652959.015494021,-1229892.0007731079 L 4651154.415228771,-1253409.9209349323 L 4649219.3485203115,-1278963.1204611708 L 4649425.957495224,-1298981.8001385701 L 4652339.411208265,-1309997.785514809 L 4654894.08220248,-1314288.6552065376 L 4669809.112856926,-1329536.3225068331 L 4674961.980766255,-1335735.3470506223 L 4692018.687104074,-1360977.1924094358 L 4706629.370270691,-1382634.6055481231 L 4717554.821694597,-1398834.9744074622 L 4720903.089338677,-1402024.9618534122 L 4725512.384174463,-1405098.2977499228 L 4728784.620606331,-1404218.5563612632 L 4750015.696529405,-1388593.8577300245 L 4753755.363503115,-1389022.3808912328 L 4760854.096111512,-1393869.9095881258 L 4767289.809832743,-1410572.1009734806 L 4771812.16414622,-1416670.8057327794 L 4773747.23085468,-1416498.09405811 L 4787368.617706616,-1421177.4134178949 L 4799728.977366847,-1426459.2082807107 L 4801305.26135648,-1420965.6550122395 L 4819981.777604831,-1398545.5108481362 L 4826091.325218038,-1387508.7871786545 L 4832353.04657516,-1367332.5755671333 L 4829069.900833194,-1356096.1465306915 L 4824221.491731185,-1348781.563790707 L 4817024.797970889,-1342241.0359570496 L 4792086.671684908,-1326259.6773692921 L 4764365.446809604,-1316065.1313326748 L 4746667.428885326,-1295686.06845555 L 4733502.563265132,-1297056.5213658684 L 4735502.863195196,-1289345.3236149545 L 4740405.707528205,-1288491.0496449573 L 4748080.629820947,-1289944.351406424 L 4763332.735893515,-1295869.2314495705 L 4776888.889523847,-1298698.8474106519 L 4791499.572690464,-1298909.7549075282 L 4804740.580842361,-1296357.4818767696 L 4814122.253567946,-1288835.0284947527 z" /></g>
</svg>
