<?xml version="1.0" encoding="UTF-8"?>
<svg xmlns="http://www.w3.org/2000/svg" viewBox="904079.4633657186 -7912253.255169972 780975.8025965599 622087.7861637278">
  <g id="map"><g><path fill-rule="evenodd" fill="currentColor"    d="M 1399146.8499079573,-7515745.432706064 L 1399418.5807849837,-7495954.230156966 L 1396526.9456921376,-7490200.269071278 L 1392276.322255687,-7486414.665154434 L 1381155.2824864576,-7482400.085422998 L 1371523.4748650603,-7476800.3905072 L 1362935.3987893409,-7466967.491017949 L 1359771.9214999776,-7452936.5532198595 L 1366490.2754083334,-7442683.823324387 L 1378709.259315257,-7437074.5674654655 L 1381818.412693113,-7417607.484329044 L 1371730.0838399727,-7408020.792442484 L 1345846.0758407204,-7398465.227978936 L 1343128.3217924936,-7375448.390377935 L 1343965.4443632592,-7357356.62075339 L 1343498.0138214182,-7344231.251194767 L 1341443.3899798465,-7326107.992443741 L 1320505.752234503,-7317858.253209414 L 1306993.01320558,-7345451.089951755 L 1306873.4560724678,-7356523.188051924 L 1302840.239601537,-7369469.982815631 L 1302079.2595624742,-7380519.313440082 L 1297296.0836820689,-7398227.142640651 L 1277489.0066852216,-7403027.112102723 L 1269803.1750823816,-7403655.975908382 L 1259051.7160225855,-7400360.226242347 L 1256388.2858858656,-7401645.858739464 L 1243516.9697628934,-7425906.182251975 L 1245636.8268260697,-7452763.946368837 L 1238766.2991737998,-7466352.747246249 L 1237820.52878002,-7472511.834250548 L 1237983.6118340322,-7479339.829668066 L 1232341.4947626658,-7484970.351391345 L 1225492.7857305915,-7487955.708797055 L 1222166.225387216,-7503179.299955122 L 1230036.847344773,-7506876.435913159 L 1249496.050932891,-7505090.415679475 L 1255181.5826056665,-7506133.1497804215 L 1260388.8857459945,-7509310.066850073 L 1276130.1296611081,-7534424.530806569 L 1275673.497109874,-7539969.299622528 L 1277358.540242012,-7547167.768514619 L 1294393.427959634,-7549837.462378294 L 1301981.4097300668,-7540104.941364351 L 1300459.5609714317,-7524546.945433831 L 1301427.0386659163,-7504656.083557217 L 1311743.6837946738,-7499252.402652548 L 1315765.990955507,-7498461.455468648 L 1320060.028993367,-7513135.810746467 L 1323071.3325388154,-7520280.3255802635 L 1327158.7616017628,-7524266.3019672455 L 1328550.2552366792,-7537719.742716829 L 1326126.050685674,-7545944.965042236 L 1320962.2734662462,-7552080.617573582 L 1340247.4846902546,-7568803.859641905 L 1360206.7354310162,-7582072.263963818 L 1371817.0243622824,-7582764.603798627 L 1383503.4558252508,-7579518.115605542 L 1394363.562708061,-7575035.784245883 L 1400255.703355749,-7571179.172591728 L 1403560.4450789287,-7564989.423372571 L 1396276.9221158158,-7550254.859698593 L 1394254.914885047,-7542199.847122473 L 1399146.8499079573,-7515745.432706064 z" /><path fill-rule="evenodd" fill="currentColor"    d="M 1084223.5651758232,-7328079.759278624 L 1082582.0479645855,-7328079.759278624 L 1075483.2040366984,-7329787.802870962 L 1070428.1859597757,-7333856.493465136 L 1057393.7867827914,-7330958.2160766525 L 1039945.7924348352,-7324363.090041248 L 1030259.6609019311,-7324693.187232563 L 1022563.0313084841,-7331779.446460585 L 991069.634168159,-7341886.807494911 L 985981.999480434,-7342699.703039587 L 965218.2427797095,-7343125.059875382 L 965174.8281783002,-7343144.034002787 L 964185.5318636205,-7359137.249725204 L 961609.04224921,-7370712.822639488 L 954336.3172767039,-7387970.274064748 L 965120.3929473023,-7392136.12148026 L 963033.1524949283,-7425896.593659844 L 959119.6044766001,-7443459.47600385 L 928995.9936704864,-7461542.1217410695 L 905264.459345213,-7479157.174975654 L 910743.493362567,-7538766.899318976 L 913080.7573912628,-7554907.418898805 L 904079.4633657186,-7586314.948978937 L 905014.4357688914,-7622623.22224608 L 908808.4266541075,-7680190.246183505 L 916352.8825036403,-7682452.040869977 L 921886.2404325014,-7682175.475701313 L 943226.186817572,-7671810.189223851 L 952107.8123905133,-7670774.413246577 L 958195.5413835249,-7661527.7429260975 L 965327.0019222145,-7657725.803821881 L 970490.6678221513,-7667539.703961576 L 972501.8770623135,-7684349.017745548 L 989417.2076468236,-7706158.723624261 L 1001266.6108443137,-7714229.379515781 L 1009343.8417767829,-7718099.200028669 L 1017497.103921464,-7709280.708910637 L 1023737.1179778808,-7699383.459288915 L 1025215.5521351063,-7721057.300684859 L 1030248.8629113241,-7762514.312068401 L 1014170.5435780884,-7769046.001327251 L 1001070.9111794991,-7763412.743567797 L 988080.0379234147,-7737109.605213495 L 976491.5676123443,-7704176.986944953 L 957695.4942308818,-7701155.859696144 L 942693.4117346352,-7691862.638791291 L 929148.1674144006,-7701502.479023839 L 920418.7155853737,-7710004.550523957 L 920201.3086198545,-7722467.427738643 L 922179.7899297233,-7729998.758872508 L 938095.0262089468,-7756935.739844211 L 959413.1539738219,-7782897.227774947 L 980894.2534732183,-7782647.126019809 L 996559.4661761202,-7790959.630116292 L 1005919.431601,-7791951.740910906 L 1035140.7979342345,-7790127.908539986 L 1050142.8804304807,-7795831.124751807 L 1063579.4769277014,-7807782.912651915 L 1092616.0529062187,-7858538.402951215 L 1108998.7197272833,-7879800.080785186 L 1142035.7842464386,-7887296.4254271155 L 1172561.7036922793,-7911937.534369935 L 1181095.4558564916,-7912253.255169972 L 1166734.7962661963,-7893875.878030913 L 1164430.1488483031,-7886778.8962311 L 1162690.7818046582,-7875907.758169447 L 1172985.60831322,-7852353.332377049 L 1170811.4273385368,-7838052.225448988 L 1171539.790766797,-7809992.628102964 L 1161831.951933188,-7795410.160058144 L 1150873.9952179706,-7764481.225994935 L 1146155.9412396792,-7759939.015055057 L 1145144.9376242948,-7724016.753303585 L 1146221.1744612842,-7715469.385911143 L 1144666.597772356,-7682946.120030695 L 1155896.3966840906,-7669669.699828275 L 1167767.5071822852,-7662739.645130829 L 1207359.8425557844,-7662986.04434729 L 1211469.0902389272,-7657164.588883912 L 1216295.9033597235,-7647167.425655472 L 1212762.8453609266,-7630223.515464119 L 1208533.929225181,-7617469.266730616 L 1197065.0160472223,-7606741.020049235 L 1182345.5737381,-7598753.69872794 L 1173192.2172881323,-7598401.896755404 L 1160723.0984853962,-7613591.2851823885 L 1154798.3412269058,-7608658.397534312 L 1148677.9956230915,-7600913.491837063 L 1138426.5837159392,-7559484.944574599 L 1133567.265303831,-7531624.678636462 L 1130936.4517779138,-7529368.0371178435 L 1125142.160962633,-7533465.271920644 L 1115129.9746411953,-7533784.945467323 L 1102476.0654837422,-7527189.379575926 L 1108966.1031164809,-7521295.992183015 L 1115825.7214586532,-7511068.177664425 L 1113086.1487902305,-7505949.6626520185 L 1101954.1997109032,-7500419.612589849 L 1092083.389142773,-7489246.492954334 L 1087952.3228394345,-7480802.405078217 L 1075505.022656894,-7470820.3420267375 L 1067677.8153007466,-7458183.163191555 L 1071515.3321068631,-7442549.68545299 L 1073145.9400080028,-7428849.657668857 L 1076570.3501837854,-7413742.70479669 L 1073483.015426125,-7401703.015906039 L 1058067.8262995447,-7384462.580771038 L 1052382.2946267691,-7369545.942475062 L 1065590.5748483725,-7369735.553453418 L 1073722.129692349,-7366292.968702096 L 1078483.7095915403,-7361894.448725737 L 1083397.3519151555,-7355661.531412248 L 1080386.0483697066,-7347966.896101109 L 1084223.5651758232,-7328079.759278624 z" /><path fill-rule="evenodd" fill="currentColor"    d="M 1185009.00387482,-7481129.561678169 L 1189650.9153214088,-7470849.078360775 L 1195358.26561438,-7448977.578514851 L 1204392.0649312355,-7424587.764247041 L 1200619.8926662148,-7414400.964944384 L 1203185.3616510364,-7401369.637541788 L 1200608.983356117,-7387799.10660376 L 1182639.1232353218,-7372050.5009290315 L 1162484.1728297458,-7371338.883416071 L 1141535.7370937953,-7378942.682890339 L 1111944.7900511273,-7393601.428628487 L 1109564.0001015316,-7401846.008202718 L 1105411.2264974886,-7406419.443679878 L 1097497.0786190315,-7431507.554740093 L 1097681.980293239,-7462559.727740743 L 1112553.4850267847,-7466458.3813400045 L 1145047.0877918873,-7481331.77503153 L 1152558.9270306174,-7478993.636680155 L 1160396.932377372,-7471387.412299137 L 1169419.9337036207,-7470935.681657069 L 1182519.56610221,-7481726.3625202365 L 1185009.00387482,-7481129.561678169 z" /><path fill-rule="evenodd" fill="currentColor"    d="M 1264748.157005459,-7340865.919921967 L 1284446.4748598011,-7328863.001012395 L 1297774.3122145166,-7329551.808531411 L 1306840.8394616656,-7324579.998442544 L 1309004.1111262513,-7316906.690887778 L 1309776.0004754115,-7299899.44666605 L 1300252.9519965195,-7294946.469365094 L 1289740.7185224383,-7296628.420540893 L 1275434.38284365,-7290165.469006244 L 1228471.4726652377,-7317952.624562466 L 1229156.3101725979,-7341196.716215043 L 1231037.0529695502,-7350341.657152442 L 1253290.0418181072,-7352518.446661552 L 1264748.157005459,-7340865.919921967 z" /><path fill-rule="evenodd" fill="currentColor"    d="M 1194912.5423732437,-7313637.797073161 L 1189977.0814294328,-7312545.384087815 L 1183269.636831175,-7328183.529941971 L 1182400.0089690979,-7333082.22510445 L 1190281.4289172618,-7343115.572828996 L 1195379.9729150846,-7354496.904649534 L 1208566.5458359832,-7372003.083647798 L 1216165.4369165138,-7392564.188631057 L 1219067.9813194575,-7392240.749280226 L 1215698.0063746728,-7373929.546124955 L 1198380.3671504355,-7323080.498479546 L 1194912.5423732437,-7313637.797073161 z" /><path fill-rule="evenodd" fill="currentColor"    d="M 1396972.6689332738,-7355225.794020246 L 1392722.0454968235,-7352338.558890288 L 1375632.8338676938,-7354458.901115463 L 1356369.3299443903,-7341026.5740632415 L 1349063.9883610818,-7345271.365249685 L 1351825.157010718,-7353853.002463419 L 1353836.3662508803,-7356977.811916672 L 1360315.4945735212,-7360624.878806013 L 1364642.1492221833,-7365961.1050671525 L 1366337.9903449279,-7374318.705915853 L 1370349.4995151544,-7369811.5157049745 L 1382275.045244347,-7367923.947179311 L 1388101.8413509394,-7365259.363959116 L 1392972.069073145,-7361344.832669751 L 1396972.6689332738,-7355225.794020246 z" /><path fill-rule="evenodd" fill="currentColor"    d="M 1409941.8348886534,-7478512.499493324 L 1399462.1067058838,-7470137.983875584 L 1397157.4592879906,-7470580.023851761 L 1393754.8677324033,-7482072.875039659 L 1399277.316351167,-7489073.073830294 L 1402538.6434729374,-7495019.092487734 L 1404854.2002009284,-7494845.543710427 L 1408017.6774902917,-7488417.904289445 L 1409941.8348886534,-7478512.499493324 z" /><path fill-rule="evenodd" fill="currentColor"    d="M 1167115.2862857275,-7332336.455345945 L 1159646.8616484068,-7330325.726557857 L 1151102.2001740967,-7334536.458835016 L 1137198.1731350352,-7350417.430454417 L 1135447.8967812927,-7354638.837854796 L 1142753.2383646013,-7351940.998387851 L 1151819.7656117503,-7343635.634892257 L 1159244.6643281707,-7341867.836427209 L 1169398.226402916,-7334848.032737334 L 1167115.2862857275,-7332336.455345945 z" /><path fill-rule="evenodd" fill="currentColor"    d="M 1120011.0003540078,-7339845.359538428 L 1108422.5300429373,-7337152.634911032 L 1102497.7727844468,-7341830.088011446 L 1091626.756591539,-7343645.122571583 L 1087724.0065638176,-7373502.503559724 L 1088843.769321707,-7375277.49830541 L 1094311.8940289635,-7373179.856082795 L 1113064.4414895258,-7359241.628669781 L 1119619.7123438695,-7344013.795625001 L 1120011.0003540078,-7339845.359538428 z" /><path fill-rule="evenodd" fill="currentColor"    d="M 1180801.9063592697,-7515349.102852268 L 1178910.3655717105,-7511792.745882905 L 1171855.0475647235,-7515494.012305162 L 1171115.8861458562,-7528312.440586683 L 1173790.114273183,-7539843.1926789675 L 1170648.3442845247,-7550167.560340433 L 1174105.3710711095,-7556811.902430822 L 1184030.616870238,-7541346.283494841 L 1186857.1300609699,-7534085.3832245255 L 1183030.522564951,-7525418.075505435 L 1180801.9063592697,-7515349.102852268 z" /><path fill-rule="evenodd" fill="currentColor"    d="M 1230319.487531897,-7811911.583255802 L 1225786.335227813,-7807090.014954022 L 1210468.9959336403,-7813911.508819992 L 1217230.7644434054,-7823455.928649074 L 1234059.1545056063,-7827855.045134033 L 1243940.9857033251,-7826405.021340662 L 1233069.8581909263,-7816927.316201857 L 1230319.487531897,-7811911.583255802 z" /><path fill-rule="evenodd" fill="currentColor"    d="M 1679554.5246442198,-7366112.762468447 L 1675445.276961077,-7362823.372527787 L 1657051.512219341,-7368265.412229511 L 1634635.440316772,-7381735.317175234 L 1637918.4747392472,-7408201.972773244 L 1643669.2396336277,-7419669.448326386 L 1684555.2188096354,-7389967.3115405 L 1685055.2659622785,-7378800.111332573 L 1679554.5246442198,-7366112.762468447 z" /></g></g>
</svg>
