<?xml version="1.0" encoding="UTF-8"?>
<svg xmlns="http://www.w3.org/2000/svg" viewBox="-8015046.863036596 -2262841.680481582 407566.37059654575 267902.2586255409">
  <g id="map"><path fill-rule="evenodd" fill="currentColor"    d="M -7989211.8356132945,-2042132.6631857492 L -7988706.333805602,-2061434.9852142152 L -7985754.80882671,-2069269.8064301538 L -7988499.72483069,-2077537.1110475836 L -8000816.669889512,-2086323.3229324704 L -8008366.580394094,-2097635.415997506 L -8015046.863036596,-2107651.8754347125 L -8013541.155604127,-2109114.4520362993 L -8000142.63037276,-2109561.750283884 L -7995435.4857045645,-2113244.3540755766 L -7986417.939033364,-2123515.491841653 L -7984618.793423165,-2131782.2540812055 L -7985352.611506473,-2138036.1446867054 L -7991222.933533966,-2145521.825318898 L -7993533.035606909,-2153406.8482080926 L -7986287.472590156,-2160294.478005777 L -7976824.202677819,-2170337.0872238353 L -7975519.649565213,-2174197.826342982 L -7975731.713195173,-2178019.137917006 L -7986782.065087749,-2188618.020846169 L -7987526.792481157,-2193173.6723144758 L -7982379.379226876,-2204679.947923514 L -7982884.881034567,-2212306.4939999604 L -7987999.677678048,-2236128.395482961 L -7990429.336884099,-2239673.301484368 L -7985515.583240995,-2241676.9757861733 L -7982281.529394468,-2248781.2496056664 L -7977976.582046511,-2255108.022621553 L -7972252.979107885,-2258517.7688154327 L -7965773.850785243,-2260639.1121619046 L -7952853.554086321,-2260477.280247683 L -7935003.362418128,-2254957.7182905013 L -7929948.2330217175,-2255050.2677442017 L -7912804.69748108,-2260061.16436692 L -7898579.847669552,-2262841.680481582 L -7885192.231748281,-2259679.6244090274 L -7879778.430952531,-2255373.839366976 L -7868722.513085415,-2248555.9876883863 L -7863183.811820996,-2246470.6681848587 L -7845724.908162942,-2246626.582998389 L -7840947.075618095,-2245950.7642977545 L -7826287.411875529,-2234696.6687293956 L -7813943.416180446,-2230200.378594858 L -7806773.884375904,-2229975.337950341 L -7793929.730208685,-2234327.2274931762 L -7787559.361028548,-2234200.2595925494 L -7780254.01944524,-2224493.5143088726 L -7778818.999889425,-2210738.2934565474 L -7772709.452276217,-2198208.634934049 L -7763354.941506386,-2190195.975902484 L -7717218.244588641,-2193559.5420093895 L -7706923.41808008,-2186965.310440001 L -7710461.930733925,-2181524.652800277 L -7716973.675667369,-2178623.4836851708 L -7738900.609727392,-2179912.8647649228 L -7748499.689418496,-2179262.3873440623 L -7750423.846816858,-2173841.09739485 L -7750467.372737758,-2168812.469501776 L -7737634.127880636,-2167610.179351615 L -7725045.451944788,-2165073.537466293 L -7712239.369043422,-2161047.724115265 L -7699194.06055634,-2158287.7299024058 L -7684529.053478215,-2156488.1789565673 L -7670065.089400464,-2153579.315520281 L -7645953.176375149,-2143729.092588542 L -7619308.188336834,-2121346.056436678 L -7612182.182453194,-2116256.328928901 L -7607480.4924400505,-2109251.9998799646 L -7609719.906636338,-2100627.7819828973 L -7619242.955115229,-2086500.958703155 L -7624629.593955225,-2081958.3618595938 L -7632483.963267127,-2079197.8258532863 L -7637875.945442679,-2073425.9024396187 L -7643066.884617861,-2063552.1505318135 L -7646246.614552882,-2062722.4149339586 L -7649986.281526589,-2063128.7233329182 L -7656383.92398197,-2068720.241598061 L -7660955.147551904,-2077302.3232262356 L -7673804.756374172,-2085360.9021327666 L -7689089.479057542,-2084329.7794966751 L -7711603.4007925205,-2089096.3322640273 L -7725235.696954554,-2086781.6123270383 L -7738867.99311659,-2086260.3177538977 L -7752815.546076552,-2088689.5033726702 L -7766833.675593674,-2089531.8019925049 L -7780830.209129587,-2086500.958703155 L -7794402.726725065,-2081328.33766939 L -7799414.218881087,-2078046.6873797572 L -7808127.41806446,-2070008.2489350413 L -7812747.510890852,-2067037.5260378271 L -7845790.141384548,-2062997.114621135 L -7855307.735208391,-2068891.9790135908 L -7864129.5822147755,-2076941.4683249174 L -7876837.815283736,-2078040.940647729 L -7895258.741981226,-2071811.385228414 L -7906782.090390182,-2069550.2215095703 L -7911472.982412719,-2066871.547837786 L -7912837.314091883,-2063826.8613924882 L -7912880.728693291,-2052579.394439092 L -7915484.380263455,-2045745.8921130614 L -7933437.876419103,-2019953.0249285325 L -7943569.731193144,-2001779.1295774458 L -7947733.302787793,-1996165.720733751 L -7952549.206598492,-1994939.421856041 L -7961387.306250534,-2005385.228350738 L -7967029.4233219,-2009168.9163287457 L -7974008.598797184,-2011069.609068172 L -7976965.578431126,-2016624.2236266863 L -7976846.0212980155,-2024521.9017960408 L -7978683.126854577,-2032176.9631221509 L -7982993.528857582,-2038188.6914996894 L -7989211.8356132945,-2042132.6631857492 z" /></g>
</svg>
