<?xml version="1.0" encoding="UTF-8"?>
<svg xmlns="http://www.w3.org/2000/svg" viewBox="-966626.1003797721 -4451991.620910884 2298883.405979358 2298630.802971225">
  <g id="map"><path fill-rule="evenodd" fill="currentColor"    d="M 954738.6259164307,-4430357.863253912 L 957086.6879357334,-4422934.466774436 L 957488.9965754601,-4415984.815740941 L 946965.7424717905,-4409528.273701228 L 940008.2742972109,-4405809.571949593 L 931702.8384086154,-4388007.848234784 L 916244.2346806261,-4375910.581282369 L 913667.7450662157,-4372264.368123896 L 913798.2115094253,-4368964.325669713 L 924256.1210719994,-4363495.759318959 L 927734.8551592892,-4358313.700287526 L 929376.3723705268,-4351372.183537242 L 924701.8443131356,-4326627.017414942 L 921755.7739892917,-4307637.997632492 L 917907.4591925683,-4282824.801471945 L 918059.6329364827,-4273384.478142815 L 922049.3234865135,-4262064.125536971 L 925962.8715048418,-4253243.839743073 L 927180.4840951387,-4243287.675774977 L 925778.0811501251,-4218800.067063374 L 930615.6922615285,-4204671.719468405 L 934442.2997575471,-4191619.121110832 L 925299.7412981864,-4175386.482336428 L 921375.2839697602,-4161094.537906534 L 918907.6648173459,-4140661.03769417 L 917896.5498824705,-4127802.412618313 L 912015.3185448804,-4115916.5209360393 L 904296.9816507287,-4104775.8573446893 L 895632.651723816,-4097853.9581128997 L 884924.71858492,-4091912.096718255 L 872553.4496145912,-4084029.656272971 L 862562.970593858,-4063025.488600325 L 840962.202641859,-4045598.8471489134 L 836439.8483283821,-4039618.757208756 L 834406.9317875153,-4025648.865943412 L 834917.8882502563,-4006329.096003936 L 838722.7884455706,-3990988.171954966 L 849093.757485835,-3968354.299300929 L 858181.9920336887,-3943493.225755287 L 860649.722505594,-3930998.1168682664 L 864139.2545834908,-3926285.785201869 L 876891.0135733511,-3918172.2298177723 L 898970.121377289,-3907131.4297156865 L 903079.369060432,-3902649.3379013184 L 914037.4370951401,-3885579.844678517 L 924419.2041260117,-3855060.4460334424 L 927669.6219376845,-3834880.5382974744 L 947900.714874963,-3818874.461375094 L 966577.119803823,-3804131.2260466022 L 984514.3633138154,-3791185.5466568037 L 1003984.3648925407,-3777150.1696820688 L 1006778.2614724704,-3772813.1480544973 L 1013268.299105209,-3743131.4061248284 L 1019714.8108170474,-3713707.3476729463 L 1026813.5434254438,-3681374.5484648836 L 1033923.2966634284,-3649037.908877176 L 1042315.6730743335,-3611068.285327637 L 1047077.2529735249,-3589551.576517795 L 1052860.6344787078,-3563511.597011005 L 1059622.402988473,-3533070.643135168 L 1048740.4774854672,-3526617.6835389836 L 1036412.7344360385,-3518370.7162252693 L 1045403.1191514849,-3502733.8933882904 L 1062677.121135331,-3477347.6065418045 L 1073135.1420173957,-3456900.8827895625 L 1076755.1405385025,-3448011.2515619015 L 1084908.4026831833,-3422688.79815912 L 1091517.997449034,-3398187.5229092035 L 1093235.657191974,-3390264.995260773 L 1095670.771053077,-3371445.526561487 L 1092670.3768177258,-3319788.186159753 L 1097410.1380967218,-3254435.4140407834 L 1103845.8518179534,-3221981.3493102156 L 1093746.6136547152,-3192730.6774994074 L 1085093.304357391,-3164869.3711031885 L 1085647.6754215416,-3150901.711088755 L 1090420.0533113398,-3129066.908247556 L 1095061.9647579286,-3112958.5013774117 L 1101443.354567653,-3104487.7956032413 L 1100193.1253665537,-3077421.697420315 L 1097540.6045399318,-3067604.8537120223 L 1078124.9268727137,-3053459.876243871 L 1056578.4828322215,-3040475.1334223384 L 1050621.2202824196,-3029520.07200667 L 1048892.6512293816,-3017307.62439799 L 1051773.4883316208,-3007398.775122183 L 1066579.8711630525,-2985480.29097686 L 1088822.0620210024,-2952618.857239991 L 1113271.0504644383,-2916588.617549811 L 1115314.7649959119,-2907534.6179537163 L 1116325.7686112965,-2882013.1984128673 L 1126501.0379867465,-2850001.5083037703 L 1137535.1372336666,-2836027.7644901923 L 1141677.0015276119,-2825593.149441418 L 1149460.682962859,-2818152.7317509875 L 1157266.0716988111,-2812692.729718503 L 1162060.268208805,-2812035.761371781 L 1189574.884109197,-2820739.964089309 L 1236559.5015883138,-2806386.819039568 L 1281022.0646840183,-2791760.689252262 L 1284283.391805789,-2788886.0477687865 L 1294002.1399494957,-2770440.0599559136 L 1309895.5576085239,-2740323.7236816175 L 1321701.5462046042,-2716264.9336670996 L 1332257.3055995859,-2694767.679776928 L 1274608.1695829823,-2657749.096880923 L 1216969.9428764766,-2620808.962288854 L 1159320.6955403825,-2583957.9459687737 L 1101671.5595237792,-2547188.5774614704 L 1044033.3328172734,-2510493.4538069423 L 986395.106110768,-2473883.206741072 L 928745.8587746738,-2437350.327803819 L 871096.7227580703,-2400893.6962736594 L 832863.2644086849,-2376753.0586015414 L 808555.6517185565,-2355485.891432472 L 778051.4395734206,-2328853.1513999067 L 749254.089180618,-2302438.7664139415 L 726587.9937017271,-2281674.742755634 L 697236.160925283,-2254813.332585271 L 682462.3947046538,-2241307.3982047513 L 649729.6776733272,-2211430.099531703 L 639902.2817066062,-2206126.6556741153 L 596526.753438498,-2197309.7581328363 L 556749.6277102823,-2189234.1380349775 L 520005.51282822003,-2181772.1151636736 L 494893.3941781287,-2176672.3644592287 L 470618.39809880266,-2171752.3551218617 L 435276.5748422634,-2164797.4282498597 L 410044.89905906,-2159834.489264632 L 382802.12535518536,-2154481.8210983574 L 378584.11852953746,-2153573.546964492 L 373637.7482756291,-2153360.8179396586 L 369963.42584301555,-2153567.7784104017 L 362451.47528479464,-2156499.6000432894 L 353352.442746334,-2163520.591733501 L 347286.421054027,-2167086.7556804703 L 345764.46097590134,-2172615.5175998122 L 349308.428284796,-2179930.07595359 L 353689.40684496524,-2186533.4637841284 L 355374.44997710304,-2191710.71711002 L 358407.4608232566,-2195644.8584752213 L 362277.59424017556,-2198853.8509543375 L 362440.5659746969,-2203377.4613074088 L 359233.67408392427,-2210772.889069842 L 356407.1608931922,-2221026.341347755 L 356526.7180263042,-2239690.684748529 L 356602.86055800685,-2245893.0375149376 L 356635.4771688093,-2248134.220386787 L 348460.3964039328,-2255292.8867629785 L 333121.3498090553,-2263153.901648157 L 319010.8251145723,-2267814.1582584423 L 312575.1113933408,-2269410.316009102 L 296975.1319120438,-2272192.2226535697 L 275428.79919104255,-2277178.8036157684 L 267851.6154112168,-2280598.3866700465 L 253904.0624512552,-2297960.916582991 L 247055.35341918064,-2302409.815397411 L 214714.0357174832,-2305364.71485309 L 203984.28395839196,-2308233.2080484675 L 195167.89160705547,-2312354.2014697604 L 187623.32443803214,-2317908.21029828 L 183383.6103116795,-2327466.5411066487 L 182122.5831199733,-2335253.7191584124 L 179296.18124873211,-2338962.7930743145 L 143628.19188416854,-2357757.933506803 L 134572.6852666081,-2364151.34390736 L 129767.69076600726,-2370122.5705492864 L 129582.78909179961,-2378923.056272466 L 130550.37810577475,-2389730.263591517 L 129039.32733774687,-2399332.607348669 L 127517.36725962123,-2404074.515129896 L 111254.25757166871,-2415474.3206948075 L 74792.78287673068,-2441057.394823706 L 38342.21749189039,-2466678.105369113 L 1891.5407875593046,-2492342.5584821003 L -34569.93390737873,-2518033.716627865 L -71020.49929221903,-2543769.8047875958 L -107476.63065159897,-2569551.088106635 L -143932.65069148815,-2595360.458663986 L -180383.21607632842,-2621216.2326054424 L -216839.2361162176,-2647118.6850298084 L -253295.36747559754,-2673050.6351335538 L -289756.8421705356,-2699036.3226549155 L -326207.4075553759,-2725058.5462925127 L -362663.42759526504,-2751123.506633191 L -399119.55895464495,-2777231.831718064 L -435570.12433948525,-2803384.154145414 L -472031.5990344233,-2829574.7434960585 L -502829.2493572904,-2851749.909857997 L -536850.1555360766,-2875204.8072837973 L -562109.1045945245,-2892390.6742912973 L -587210.3139345181,-2909500.0888364315 L -614143.2854955151,-2927886.771893069 L -631683.7863403204,-2939307.993922432 L -652615.9694306152,-2952956.4063580343 L -673548.1525209099,-2966617.462360186 L -694485.7902662536,-2980291.1126758065 L -715417.9733565483,-2993977.679323423 L -736350.1564468432,-3007683.186225905 L -757287.7941921869,-3021389.367339973 L -778219.9772824816,-3035114.7636624705 L -799152.1603727764,-3048853.2547950796 L -820089.79811812,-3062604.917034616 L -841027.4358634638,-3076369.7024745164 L -861959.6189537585,-3090147.9369718353 L -882891.8020440533,-3103939.5733837173 L -903829.4397893968,-3117744.564408266 L -924761.6228796918,-3131563.237606664 L -945693.8059699866,-3145395.5464584935 L -966626.1003797721,-3159241.444283773 L -966626.1003797721,-3184854.6587910927 L -966626.1003797721,-3205728.007211069 L -966626.1003797721,-3236421.1681503193 L -966626.1003797721,-3263103.2941121734 L -966626.1003797721,-3289844.3161142836 L -966626.1003797721,-3308263.8144869558 L -966626.1003797721,-3327464.2474980117 L -966077.0726511796,-3336173.206211166 L -964016.9941545593,-3339879.1490736958 L -952711.1640306129,-3346134.2593721403 L -935007.5801317955,-3360403.946461609 L -928457.8752519914,-3366762.0023971912 L -920076.2968316936,-3373166.646460817 L -890436.3692130765,-3392511.20876599 L -884305.1142991646,-3397907.416171875 L -855507.6525868712,-3420206.7378952745 L -848767.5913778109,-3423487.1737583703 L -833308.9876498213,-3425664.241837099 L -826846.223292327,-3429851.0224138442 L -818171.0953748071,-3438765.655545897 L -805386.7197741445,-3449023.6596686128 L -797070.3745754514,-3453855.6414512657 L -795091.8932655825,-3454743.5278430753 L -789803.1042579942,-3455462.563391256 L -763158.1162196792,-3452442.7552116797 L -751977.2978838937,-3450167.4818739 L -738644.0058741294,-3448242.5241493494 L -734458.6156592838,-3449542.4375637425 L -730887.4863946356,-3452730.313362706 L -725865.0849285156,-3459902.903567007 L -724767.0294713307,-3468381.3014159515 L -724457.227328453,-3475788.100646859 L -723674.5399886855,-3479038.93156003 L -721320.9119948433,-3480479.761233329 L -715521.2778440044,-3479934.7159829154 L -707726.6870986596,-3478932.447453769 L -691827.8147845826,-3479239.329346966 L -686452.0852546846,-3480298.0769097814 L -668395.2846115802,-3481876.994555829 L -642870.0593311549,-3486727.624502912 L -622644.5323684159,-3493009.8752777893 L -606555.3037250823,-3498015.3110331586 L -589286.6450767942,-3511090.083761441 L -576649.0998844878,-3524926.350244719 L -563489.6889193426,-3545576.9597269376 L -553064.395967571,-3563511.597011005 L -531941.9678675104,-3574754.2739399686 L -514254.74793383956,-3581528.6182635534 L -504182.671726355,-3584212.8879590323 L -481217.68341468426,-3593704.0275528417 L -461839.9656938268,-3608042.799008036 L -443647.3552719544,-3621523.8034134875 L -429699.8023119928,-3623304.2516528284 L -412104.9775556803,-3625541.1712301252 L -408185.97488230316,-3628076.5575843677 L -403745.1064360871,-3632869.6624360224 L -403478.8302141096,-3641293.708713747 L -408821.9431332052,-3647222.0299790935 L -415241.2928892901,-3650345.9233435113 L -419785.35450347146,-3653781.9102140605 L -424329.4161176529,-3654404.5381771405 L -426731.91336795327,-3658464.359894431 L -425394.85496403533,-3665971.2888878705 L -424699.1081465773,-3672922.923587268 L -421807.36173424043,-3679827.524431925 L -422617.32234925235,-3689647.129199374 L -427145.0199982871,-3699468.3576396196 L -428531.170297645,-3706528.28577109 L -428210.4588446696,-3713515.8318856093 L -425992.75194908597,-3719012.945721129 L -419470.0977055449,-3722628.004910367 L -411909.27789086575,-3724007.8895487464 L -401261.12331852596,-3722263.925727419 L -382916.2278332485,-3724589.22288963 L -335893.5390882802,-3741576.512851197 L -332648.46461216547,-3746811.2172041363 L -329631.8177311586,-3758581.4023487796 L -326261.731466883,-3768894.5148496814 L -321402.41305477504,-3772351.393770221 L -318755.34688320174,-3773121.0816874676 L -303079.2248702022,-3775886.13821277 L -280886.01458820124,-3779819.9357954455 L -272553.4167438523,-3780384.641235904 L -248381.61383249168,-3779248.684951113 L -230743.37447476984,-3778420.7744075344 L -202266.62421545174,-3777073.159694332 L -182024.73328756605,-3776386.6624599337 L -164424.5651956955,-3775770.6355811 L -141970.42202727508,-3775000.777828263 L -136469.68070921628,-3777394.0817100303 L -136469.68070921628,-3784929.9374446203 L -140497.3312056077,-3798955.2206434994 L -138073.1266546026,-3807707.6497587375 L -129419.81735727828,-3815822.702847067 L -118613.92306648439,-3824941.9328688206 L -123679.8504535047,-3836028.278324009 L -132273.38118427302,-3843452.9100706466 L -144313.14071101954,-3852335.135621551 L -150520.42683714326,-3855997.024034044 L -161413.26165024668,-3866776.3290222134 L -168093.54429275103,-3879073.5617451402 L -172626.69659683472,-3905075.0865968713 L -180905.0818491673,-3919665.973552509 L -186927.5776205742,-3937676.4699275265 L -181589.91935652753,-3970774.1730773146 L -189574.75511163822,-3990844.436463921 L -190813.96368314893,-3999545.4145091358 L -190879.1969047538,-4009778.0079235425 L -188427.83039799513,-4027497.345057062 L -190015.0236977256,-4052469.036853318 L -199461.9296449152,-4078312.3332221187 L -195015.60654365027,-4087126.6074799 L -192950.18471147187,-4091687.9572648425 L -193635.0222188321,-4095611.4467954673 L -202223.20961404237,-4103851.8081956482 L -205902.98670170482,-4110645.2618950764 L -203984.28395839196,-4117046.446987617 L -199505.34424632456,-4126327.515651577 L -199885.83426585598,-4130216.7923263703 L -213833.3872258176,-4141555.0352600687 L -237309.4433197203,-4159920.480761883 L -243875.5121646707,-4167929.5436273315 L -247087.970029983,-4178050.403306774 L -224617.46289641602,-4175446.3387042386 L -212985.46666444527,-4176695.097795456 L -186307.97333481882,-4188792.3070166986 L -165169.18126961176,-4205144.6189922895 L -148705.02858128655,-4213493.193723856 L -134181.28593697894,-4231457.620143797 L -121081.6535383897,-4242826.410043985 L -102133.40641301264,-4255090.22740862 L -47435.795375302114,-4281583.841610714 L -39048.7622999553,-4281811.995081013 L -21057.194878455626,-4275757.177464508 L -5370.274874849104,-4277640.879633169 L 5337.658264046674,-4286944.033200323 L 16882.71397370787,-4309312.131758637 L 34754.724262095566,-4322984.08942212 L 57322.96990857908,-4336706.910281869 L 88033.6797091366,-4349792.696485725 L 108166.92281400807,-4361880.724351483 L 139953.86945155496,-4372352.32591035 L 219801.67040520822,-4379002.917475343 L 260807.20671432765,-4384926.360854721 L 288691.40332415316,-4383592.4855035925 L 316869.1494312005,-4402770.4504511375 L 330936.370843765,-4409107.530268658 L 391901.157893646,-4410587.086169325 L 420676.80098574405,-4424647.012167734 L 529669.8257409289,-4424667.474188622 L 542997.7744151352,-4419944.715589716 L 556086.4975036267,-4412386.071595523 L 578372.102962986,-4394153.0861744955 L 589482.3447416088,-4390189.019024675 L 603864.711632609,-4393963.210379166 L 637358.4087029984,-4411211.552694873 L 675124.4365105428,-4420202.954609195 L 695648.9676255526,-4430514.267052239 L 704411.0360653818,-4445526.811266981 L 722076.4373788573,-4451064.86447768 L 732023.501798181,-4439528.720413065 L 771170.1139305437,-4427882.867547809 L 795205.9957436456,-4431214.700225319 L 805783.5737588225,-4434717.838488754 L 801978.6735635084,-4451991.620910884 L 827373.432400724,-4447372.460505471 L 846886.9599003493,-4439072.776851811 L 867357.167103852,-4422431.500756929 L 880587.1546261602,-4419102.421346645 L 904709.9769615717,-4426618.367861018 L 954738.6259164307,-4430357.863253912 z" /></g>
</svg>
