<?xml version="1.0" encoding="UTF-8"?>
<svg xmlns="http://www.w3.org/2000/svg" viewBox="-10202893.307090316 -162028.58335925886 1826145.1508173794 718286.2414415831">
  <g id="map"><g><path fill-rule="evenodd" fill="currentColor"    d="M -8380629.1989999525,11860.319342765848 L -8386863.758401321,15828.312003578068 L -8393310.270113159,16252.217965118341 L -8401947.326764828,17491.542194106187 L -8413943.449051185,13675.832561984656 L -8418677.866994623,13675.832561984656 L -8419319.17858108,17545.86631053028 L -8411367.070756264,22274.852748527817 L -8403626.803922426,27645.168903505535 L -8400833.018661987,35820.24008586344 L -8396239.976471856,45517.478990189506 L -8385167.805959084,56388.84339311935 L -8378264.661696013,61824.585053165574 L -8377835.302420024,65694.91190656132 L -8379987.776094003,72794.06322943671 L -8380531.349167545,78719.23862705198 L -8376748.156272937,105964.88826283737 L -8379286.574621496,107628.45727713329 L -8383379.569658982,107769.74185049595 L -8387722.4769533,107628.45727713329 L -8391277.353572292,104671.06809330606 L -8394386.50695015,102898.84983724481 L -8395761.636619918,107117.42840965145 L -8398963.185175132,119251.38391979416 L -8406165.222270986,146543.73916909823 L -8412475.924204055,170478.2653474199 L -8420389.960763022,178949.9623193416 L -8431842.621295324,192403.16922610518 L -8447529.54129893,210817.0450724638 L -8470277.233964572,237511.03581487804 L -8487100.169371724,249858.69667866014 L -8500373.682814933,259596.11556144914 L -8515870.357808774,270846.4335752504 L -8535878.589125484,285362.25986069033 L -8558327.277638858,293534.8402405155 L -8589576.105857909,304874.84536980523 L -8611682.375617601,312896.2409086932 L -8627983.445251914,318501.69179546135 L -8644958.554402981,324346.8117759525 L -8667401.899580793,332064.6693351716 L -8676071.572843265,339347.470932448 L -8690481.101690017,357169.87909724546 L -8697194.000943325,365760.9356799595 L -8703325.255857237,373154.6960141564 L -8704586.283048943,376530.60397077777 L -8703787.231744027,378686.8510394563 L -8700841.161420183,382291.5469085644 L -8700563.975888109,385972.6467097451 L -8704613.445004696,388281.5406024162 L -8708113.88639269,388651.80701070983 L -8709679.372391716,386800.3765016933 L -8710831.640440917,382738.0719649665 L -8714555.054768972,378599.64575423836 L -8718881.709417634,377401.75114547234 L -8721365.692535194,378414.52990992565 L -8721577.756165156,382193.5213038674 L -8727230.67122713,400436.7831688142 L -8727442.6235376,409303.6270712679 L -8729834.322797293,412811.45216789626 L -8729649.421123086,420742.39139402116 L -8735356.771416057,428129.29216624633 L -8737851.663843716,434710.49923042866 L -8739591.030887362,440300.39703304454 L -8744194.871068098,444179.8372691583 L -8745831.044943776,450282.65008653014 L -8750087.011715785,463197.8104571293 L -8755055.089270398,473335.2186865285 L -8758550.187322835,482012.8076435038 L -8759191.498909296,488499.75611586886 L -8756528.068772575,493090.10257358255 L -8755604.116998991,496786.43549539783 L -8758001.159594243,503427.3019180217 L -8759289.3487417,508421.84917129204 L -8765638.010621132,511802.7196361916 L -8778824.583542032,519884.4923306696 L -8783955.744150657,525403.7119753133 L -8785977.751381425,531686.9459922072 L -8784689.562233966,537043.3484578587 L -8785243.933298117,541483.6767158684 L -8791500.31131968,543142.0800035114 L -8793712.563560216,547026.3551197024 L -8797946.823031519,553857.0082455328 L -8802730.110231414,556257.6580823243 L -8815019.782014994,552634.8121225598 L -8824086.19794265,552569.3339112601 L -8831081.73738308,549241.306990335 L -8838702.335764317,539432.6206464365 L -8844974.966431536,531185.1620524848 L -8850111.470375719,520506.1585297189 L -8851698.663675448,505826.37908030127 L -8858547.484027015,501518.94510033185 L -8865320.050527386,496415.7339905488 L -8873386.37214976,497833.22966418316 L -8882991.0178154,498814.60437233397 L -8888317.766769351,495412.5035182884 L -8901428.308478037,489208.48888565035 L -8912630.83411453,482198.12614240276 L -8921094.009721577,478687.7491106366 L -8927540.521433417,480355.67640338966 L -8931405.200195286,484596.5861272459 L -8938215.837961508,492163.28185150994 L -8948249.842903143,497397.0917169887 L -8952777.65187167,497146.30786558654 L -8958832.764253877,493646.13300155866 L -8959936.274366112,489579.15807812044 L -8954968.1968115,483124.8363735868 L -8944841.796692505,468909.4658929565 L -8956071.59560424,468538.8867439371 L -8959936.274366112,464113.37808095274 L -8960490.645430263,458936.18757845054 L -8962333.316961363,453399.4969786834 L -8960121.064720828,446762.61365645746 L -8954228.924073141,443253.5371514198 L -8945396.167756658,446021.52958918124 L -8939319.236754252,446206.77214401367 L -8935269.878957156,439929.9360926803 L -8931220.40984057,437162.12638711033 L -8927170.940723982,435135.38977532275 L -8925513.0595476,431997.2926347105 L -8929779.935629705,421951.7287058037 L -8931035.508166362,416504.47472671827 L -8929747.319018902,413366.9863465305 L -8929932.10937362,407092.30847251747 L -8930116.899728337,402484.65903486847 L -8932693.389342746,398421.740328718 L -8932878.179697465,392333.12945710926 L -8935084.977282949,389022.0747271792 L -8935824.250021305,385515.1787867869 L -8936009.040376024,381452.92348728416 L -8938770.32034515,379427.3182046274 L -8941700.026703848,377358.2605284845 L -8939302.984108595,375898.9932033734 L -8923355.131218571,370268.96519465424 L -8916729.283807063,364661.0796391638 L -8908527.041086435,359543.5013220228 L -8901477.177734496,351693.3092677855 L -8896829.811632859,344159.3648436457 L -8885822.874341693,309250.09148665506 L -8875489.976567278,287201.3277290042 L -8877229.343610924,276678.70948493545 L -8885790.25773089,262403.1587504759 L -8887719.869784301,241383.89688529627 L -8886926.273134435,234998.16780846077 L -8887986.257325768,230189.9778281732 L -8893693.496299248,238914.4169804544 L -8892236.76944273,269878.0865582949 L -8897275.534873994,283795.21535184607 L -8904336.30753603,287157.7576804687 L -8908918.440416062,284709.27613276895 L -8906298.536200244,262098.55395831272 L -8911467.65675523,266211.3264289293 L -8919713.31407727,281553.60145744315 L -8933236.96241629,292936.19981626596 L -8933976.123835158,296734.2450459953 L -8937253.814922074,301424.83463240735 L -8947700.81517455,297104.33773652 L -8955663.943628956,292424.81673095224 L -8981797.863885041,266896.7620776791 L -8998963.218045872,261565.32988956626 L -9009328.843750577,252665.67927618456 L -9011492.115415163,248912.20323858678 L -9012736.889961215,243766.40890907942 L -9002143.059300382,238414.01970634874 L -8991315.457708882,231223.3644062188 L -8990228.422881287,215396.27825583695 L -8990511.06306841,202964.0002900903 L -8998512.151469177,181744.97589204786 L -8994772.484495468,154014.12601770525 L -8996843.472302185,143151.07087885242 L -9006013.1927173,120110.36499188436 L -8999224.150932292,108509.12084823135 L -8974987.226118816,100050.26884359082 L -8967219.797329225,94396.69683837045 L -8961784.28923277,76120.85028312661 L -8956261.840614006,65173.01867035921 L -8945455.946323212,69586.97154170608 L -8936992.882035656,69075.98489103206 L -8948391.21865645,65009.9271236947 L -8957691.405514773,48539.662706279756 L -8959245.870884212,40995.02057888061 L -8941324.991339365,18459.023731674428 L -8931943.31861378,12588.684109227315 L -8920409.060894728,674.0395180079056 L -8910695.878725559,-17295.841801577495 L -8908342.250731718,-45658.747032455234 L -8912353.648582453,-65934.03890297817 L -8915386.659428606,-87362.48310242615 L -8909559.752002524,-92907.19281460438 L -8894818.713712187,-95761.18011307225 L -8882833.38941644,-102670.61524821643 L -8876751.003758986,-109074.48345622543 L -8862499.103311196,-108112.32097658876 L -8846045.748613477,-118011.96098791207 L -8819737.835993282,-122970.01393901277 L -8783069.752323434,-134289.05629771439 L -8774987.178055406,-144276.46259526996 L -8778618.08588661,-162028.58335925886 L -8775188.22105578,-159723.20278062482 L -8764974.880414478,-151262.96770652547 L -8758800.210899157,-142884.61636511702 L -8748336.735362042,-137676.16490213122 L -8739862.761764385,-133462.66102658972 L -8717664.096827338,-116457.1216811377 L -8703031.706360012,-107824.18485623233 L -8687040.43886858,-100050.26884359082 L -8663944.872794209,-91885.2839901689 L -8649845.146090332,-93271.46898340386 L -8646540.293047661,-87079.81648713809 L -8643806.286353778,-80556.59872435003 L -8638539.204646895,-76756.8642064279 L -8630168.535536693,-73511.67586413487 L -8625189.548671983,-72489.69600231848 L -8623662.2452583,-70858.8738114899 L -8618661.551092885,-47294.96435235636 L -8615720.93542409,-43848.64754726169 L -8604181.334369477,-40119.8090474739 L -8590048.9910548,-38712.03588266988 L -8584303.569495976,-39527.35516916132 L -8571872.52195909,-32977.432881996094 L -8562708.256199026,-29890.060600415927 L -8552603.67470023,-27579.935070585583 L -8545744.056358056,-26900.43470135767 L -8542580.579068692,-27922.357065481145 L -8541433.654355051,-30292.262396822975 L -8535813.35590388,-29851.988917041315 L -8527409.958863387,-26824.402814826863 L -8515343.148700379,-26210.136555627683 L -8507847.562107304,-29080.09133017028 L -8506809.396536166,-33830.81980276438 L -8506298.440073425,-42174.475653775036 L -8503493.745502887,-45082.542769860076 L -8494905.558107678,-49925.74298100301 L -8490404.911094906,-48914.70901540167 L -8467842.120103471,-38467.46248498275 L -8463194.754001833,-34852.74754233736 L -8457482.060373303,-27579.935070585583 L -8446899.027703078,-16806.70221096843 L -8435419.205215022,-9936.159128211275 L -8417683.116024893,-7000.995501334113 L -8400610.15704142,4277.785712918043 L -8380629.1989999525,11860.319342765848 z" /><path fill-rule="evenodd" fill="currentColor"    d="M -8920208.017894354,331117.6205259993 L -8922333.32961258,335417.5218234668 L -8932910.796308266,335036.5061455173 L -8935943.807154419,333653.9130503086 L -8935856.866632108,328733.64466105733 L -8933367.428859498,313146.56564588216 L -8930459.429801507,306594.4788671381 L -8921778.847228937,300260.36311309173 L -8914549.648177331,297202.2937830149 L -8905254.915974056,297757.2679295304 L -8895432.863342894,303525.3442272873 L -8907032.242964063,313995.511144111 L -8913484.209330948,315584.6379398228 L -8915957.394457903,316934.2630963297 L -8920208.017894354,331117.6205259993 z" /><path fill-rule="evenodd" fill="currentColor"    d="M -8784135.191169815,-139470.27921912438 L -8790413.165172594,-138643.86958665051 L -8793315.709575538,-143972.03740318632 L -8785695.111194303,-150175.6293601297 L -8783086.11628858,-151382.66984061326 L -8784135.191169815,-139470.27921912438 z" /><path fill-rule="evenodd" fill="currentColor"    d="M -10056030.950040128,85894.71156022136 L -10061846.948156115,86090.42901196714 L -10079104.808813795,75305.48888732106 L -10077941.520135006,64727.27231851172 L -10071043.941846475,57595.59484957588 L -10048741.972421968,53953.63841483067 L -10039382.006997088,60650.44426670501 L -10040208.220257755,73337.67197076166 L -10047817.909328891,82600.4804353286 L -10053867.678375546,84296.57804008524 L -10056030.950040128,85894.71156022136 z" /><path fill-rule="evenodd" fill="currentColor"    d="M -9954065.970016688,101420.22602732878 L -9967171.057070324,106019.33101040105 L -9971698.866038851,103953.5180220839 L -9974519.924574533,101692.10268431643 L -9975183.05478119,98919.57056295256 L -9967932.037109388,92048.27266667121 L -9960860.466456745,88319.14220663405 L -9954538.966533069,80404.41286582868 L -9942879.697025852,75707.71439122016 L -9939477.105470264,76794.93823053624 L -9937205.074663175,78436.57699013448 L -9936308.173525853,81089.305255139 L -9940259.792810032,87492.96180269695 L -9947326.020127118,91961.3230988513 L -9954065.970016688,101420.22602732878 z" /><path fill-rule="evenodd" fill="currentColor"    d="M -10177493.204917543,51301.02727355297 L -10188668.568598276,53236.15896683078 L -10198061.150633961,49420.22584298156 L -10202050.84118399,43506.22076464521 L -10202893.307090316,34613.6297305937 L -10202061.750494089,31667.519611395255 L -10181297.993793365,28460.48074061222 L -10174530.770628551,35896.38382091232 L -10174596.003850155,46854.57245202448 L -10177493.204917543,51301.02727355297 z" /><path fill-rule="evenodd" fill="currentColor"    d="M -10065945.39784865,149175.14831632117 L -10070451.38819698,149403.52713752675 L -10076588.097765943,144629.88128099646 L -10071875.4984427,135930.94182811986 L -10066842.187666483,138029.5754954103 L -10063140.591958623,140530.51877451144 L -10060960.956328891,143868.70661520044 L -10065945.39784865,149175.14831632117 z" /><path fill-rule="evenodd" fill="currentColor"    d="M -10160371.265358118,-2799.2400053507686 L -10153457.32310444,4375.635567840574 L -10149690.494174976,24829.541177111492 L -10127350.453484619,46408.94862048265 L -10124578.375524886,58465.25870634105 L -10126562.311489804,64075.018173488235 L -10125502.43861796,66271.13242412404 L -10114772.686858868,74783.58699129452 L -10107771.692763388,83720.33837510011 L -10119555.974058766,104703.68909769876 L -10144662.638053808,113510.57257882378 L -10171432.52656079,113216.97671300765 L -10176721.315568382,110955.50604616936 L -10183901.645363528,102931.47069413809 L -10185222.451121792,95842.78650463087 L -10181091.496137943,89004.15721263926 L -10167263.500311093,78621.38135127332 L -10146179.143476885,69336.93313808649 L -10143537.420640869,62237.711221006575 L -10152005.939583477,55323.4750132662 L -10157849.210974706,41592.930095088326 L -10171171.593674373,31971.870886686054 L -10177813.805051025,2603.651642475759 L -10182249.218842193,1146.9247198241978 L -10191299.382124195,5196.39440509692 L -10195761.957871115,1646.97188458937 L -10196512.02860008,-233.77093071821434 L -10186755.320510013,-6930.30758252486 L -10184733.313279245,-11708.145339116254 L -10170301.965812296,-14007.342786243278 L -10164110.932331828,-10175.273691625362 L -10160371.265358118,-2799.2400053507686 z" /><path fill-rule="evenodd" fill="currentColor"    d="M -10082643.321467642,37179.139363161135 L -10087823.351332724,40549.28823063143 L -10108815.312989576,36668.28565958196 L -10115354.219878774,30210.775613004073 L -10110076.340181282,21394.31041600446 L -10105624.673744459,17861.124322898257 L -10093063.159764366,21133.376079476482 L -10080349.472040355,30993.47196222134 L -10082643.321467642,37179.139363161135 z" /></g></g>
</svg>
