<?xml version="1.0" encoding="UTF-8"?>
<svg xmlns="http://www.w3.org/2000/svg" viewBox="2432830.9209856708 -8319803.166002058 700932.3019780922 451512.12300328165">
  <g id="map"><g><path fill-rule="evenodd" fill="currentColor"    d="M 3044805.480161552,-7868837.78687299 L 3041979.07829031,-7868291.042998777 L 3026455.130021225,-7870954.01895413 L 3009344.0997719,-7879343.900655018 L 3001843.1698432676,-7885652.509484324 L 2994472.5950383544,-7885581.440529907 L 2985558.3528546104,-7881412.400939659 L 2953597.413852954,-7869435.16582501 L 2945748.499196102,-7872230.058274949 L 2927485.200897576,-7883978.410629049 L 2918244.792605808,-7896801.781767105 L 2897687.6448799954,-7922401.937541698 L 2896002.6017478574,-7928501.723491909 L 2893317.464310433,-7933401.588397624 L 2871347.115649,-7939755.585332432 L 2863237.2681057286,-7949235.135897677 L 2856475.4995959634,-7950565.569267299 L 2846582.8704076377,-7955305.524744932 L 2820840.2381616933,-7975609.948877899 L 2814448.050361362,-7977509.833976369 L 2812893.4736724338,-7974090.470529833 L 2813339.19691357,-7969287.187684307 L 2811741.2056232323,-7966507.3433896415 L 2808447.2618906596,-7966599.554213579 L 2802489.8880213667,-7974069.86526728 L 2795347.6294920705,-7980653.596684019 L 2773116.347944218,-7968281.812508443 L 2765071.844942042,-7964948.542423251 L 2758027.324925662,-7964220.498570272 L 2722750.8462102185,-7947986.863325108 L 2712021.0944511276,-7939254.74493487 L 2707574.882669353,-7940184.664396232 L 2708629.300886147,-7948386.028199002 L 2723305.217274369,-7989608.806706939 L 2725936.0308002867,-8022477.914927745 L 2731306.3056751355,-8027005.141277372 L 2732860.882364064,-8031576.41818299 L 2730567.1442562686,-8042105.063404833 L 2715325.947493798,-8048862.823486466 L 2709172.873959691,-8047867.328825698 L 2703639.5160308294,-8036543.761469625 L 2697899.660446547,-8028390.717740104 L 2684452.1546392287,-8023428.560272612 L 2672885.3916288624,-8032010.984945237 L 2645794.6803494114,-8043503.832870747 L 2638945.971317337,-8058834.411920481 L 2637326.161406804,-8074289.995953218 L 2622998.1184273106,-8089266.839380973 L 2617040.744558018,-8106948.517353757 L 2619421.534507614,-8119310.88029004 L 2632423.317073796,-8127437.941529 L 2636130.367436703,-8134525.080981794 L 2619747.7006156384,-8133402.9885963835 L 2616410.230962165,-8135102.087778042 L 2615692.7768440023,-8141482.42780847 L 2608441.7591722007,-8163256.898050373 L 2614855.654273237,-8171853.881844245 L 2617682.167463969,-8180218.083781771 L 2612420.540412134,-8187345.039148659 L 2613801.2360564433,-8195462.240121552 L 2617899.574429488,-8203672.869996889 L 2615388.4293561736,-8222795.9292679895 L 2631651.427724635,-8232949.93550326 L 2647458.016180845,-8240095.645812392 L 2680951.601931743,-8243745.853203515 L 2677635.9508984652,-8261297.099794449 L 2691192.215848289,-8262086.822682537 L 2714010.4850710942,-8283254.935722746 L 2736633.1659485754,-8279531.996169961 L 2769354.973669804,-8294092.171127612 L 2832385.2938713543,-8293888.719942281 L 2840973.369947074,-8302305.777832735 L 2839473.2284891433,-8310775.317518441 L 2839679.7261445653,-8319803.166002058 L 2851529.240661546,-8317276.344177023 L 2871347.115649,-8318846.065025464 L 2945607.2347622854,-8301082.700635852 L 2963881.442370909,-8301082.700635852 L 2989156.6440750123,-8283062.301302634 L 3002810.647537752,-8278430.503374251 L 3043011.7892063996,-8278398.308693675 L 3104987.579871665,-8270457.068668239 L 3117152.2398670814,-8282634.315800428 L 3118337.235846576,-8285802.169865524 L 3124272.791095673,-8278986.595486691 L 3131752.125043092,-8268021.8324432885 L 3133763.222963763,-8261755.976676848 L 3131230.2592702527,-8258075.709855837 L 3123772.74394303,-8254951.778916538 L 3122076.9028202854,-8251583.880358283 L 3118772.0497776144,-8245885.510352694 L 3110064.416568783,-8244863.351363192 L 3105552.8602459133,-8240638.410318059 L 3100193.494681162,-8222148.614670893 L 3089963.7900747135,-8191635.012422459 L 3074842.150445356,-8168502.501346899 L 3062742.723671544,-8155847.905270332 L 3057328.9228757946,-8146166.437423401 L 3053958.9479310103,-8134546.132567173 L 3053165.351281144,-8122912.592212554 L 3064775.6402124106,-8059312.031545233 L 3064634.264459103,-8047888.137726974 L 3061905.6011007787,-8036171.26080852 L 3059927.1197909093,-8024265.65967443 L 3061557.72769205,-8013958.174014147 L 3069200.14469348,-7996381.203925765 L 3077331.6995374565,-7970241.420398635 L 3080593.0266592274,-7953595.550932371 L 3085995.9181448785,-7947485.684696592 L 3091203.1099657156,-7943016.36191834 L 3092290.2561128023,-7940205.17708078 L 3092116.2637486923,-7937282.682605537 L 3089431.1263112687,-7933993.852063911 L 3065971.434182512,-7925298.192905707 L 3062927.514026261,-7917947.464713158 L 3060394.5503327507,-7909758.92061631 L 3050154.0477356957,-7897645.306793128 L 3047012.2777470374,-7886362.820159996 L 3045066.4130479707,-7873435.565716392 L 3044805.480161552,-7868837.78687299 z" /><path fill-rule="evenodd" fill="currentColor"    d="M 2517755.5586364423,-8098968.785126142 L 2525658.7972048013,-8093792.775349525 L 2532942.431487405,-8095430.741342977 L 2540323.8042829256,-8099031.426138012 L 2556369.507005359,-8095649.990230802 L 2592950.538833409,-8069578.223834988 L 2596331.4230882917,-8062625.160311863 L 2574502.3388606748,-8059467.700447501 L 2569545.17061616,-8051497.020762976 L 2564294.4528744225,-8045939.146633283 L 2558108.8740490037,-8044146.225470288 L 2547563.9126446294,-8032993.7792907115 L 2533301.1028867415,-8022323.012633972 L 2530322.415952095,-8015929.736133517 L 2504514.6618040362,-8017106.662758184 L 2490404.0257900623,-8013070.653947021 L 2479011.1438243156,-8001160.483877657 L 2474336.6157669243,-7978208.4511631 L 2465998.451948036,-7960345.853340035 L 2457519.1350148213,-7953892.472152301 L 2448680.9240432894,-7952909.699306608 L 2446582.774280818,-7959607.971929078 L 2447419.8968515834,-7966302.13110323 L 2466052.887179034,-7991584.310310148 L 2469922.909276462,-7999810.940391099 L 2460649.9956933823,-8003468.942782255 L 2452877.112248742,-8012276.012031886 L 2435907.4577527246,-8022633.032042748 L 2432830.9209856708,-8030955.652220774 L 2436896.754067404,-8031576.41818299 L 2440614.602420918,-8033966.529296754 L 2445136.9567343947,-8040955.178526355 L 2447256.8137975717,-8048987.269623066 L 2433700.6601672387,-8072490.2723260885 L 2440614.602420918,-8076131.927794646 L 2449235.29510744,-8075278.568717864 L 2458084.41538907,-8068434.545240727 L 2467792.254222679,-8076464.858012109 L 2471912.299896429,-8077651.548678019 L 2478706.796336487,-8074789.486965326 L 2485555.5053685615,-8090340.67621221 L 2501840.3223572187,-8095472.6246490115 L 2509917.553289688,-8100284.356689367 L 2517755.5586364423,-8098968.785126142 z" /><path fill-rule="evenodd" fill="currentColor"    d="M 2551857.950682489,-8143067.8822341645 L 2542726.301533226,-8132438.046840867 L 2537290.793436772,-8136686.185910449 L 2534442.5729453354,-8141776.355446121 L 2522658.40296945,-8117793.265474339 L 2509384.889526242,-8113681.394331601 L 2501644.6226924043,-8118410.777430815 L 2502340.369509862,-8127364.760633093 L 2494785.0043502315,-8150916.255362257 L 2483250.8579506683,-8157825.789342183 L 2467052.9814843205,-8158478.0891400995 L 2455290.51880914,-8168207.517422875 L 2500524.9712540056,-8174837.657550526 L 2505199.4993113964,-8186109.187884712 L 2514396.381682264,-8197958.274333609 L 2521321.2332460415,-8199238.350315012 L 2527202.4645836316,-8196488.018941076 L 2528311.3180314233,-8187302.636509022 L 2529789.7521886486,-8183648.696541267 L 2550314.283303659,-8178487.488223808 L 2558304.573713818,-8163077.917695527 L 2561315.7659397763,-8144580.323893812 L 2551857.950682489,-8143067.8822341645 z" /><path fill-rule="evenodd" fill="currentColor"    d="M 2598592.655904775,-8083826.785757432 L 2589330.5403123028,-8081618.427450016 L 2567414.5155623765,-8096797.839654691 L 2572491.240940004,-8107094.9081101315 L 2578763.8716072235,-8111140.1949454555 L 2597396.861934674,-8104816.973575963 L 2600027.5641411007,-8089204.280169578 L 2598592.655904775,-8083826.785757432 z" /></g></g>
</svg>
