<?xml version="1.0" encoding="UTF-8"?>
<svg xmlns="http://www.w3.org/2000/svg" viewBox="2749950.205312684 -3718106.1122794445 1354553.8203690425 1207196.423865504">
  <g id="map"><path fill-rule="evenodd" fill="currentColor"    d="M 4104504.0256817266,-2511132.5167742805 L 4067977.317765184,-2511120.7509797546 L 4031461.407839248,-2511114.86808554 L 3994923.901932098,-2511108.9851933573 L 3958407.9920061626,-2511103.102303207 L 3921881.2840896198,-2511097.3394740103 L 3885354.5761730764,-2511091.4565878836 L 3848827.868256534,-2511085.5737037887 L 3812301.160339991,-2511079.6908217273 L 3775785.361733545,-2511073.807941697 L 3739258.6538170027,-2511067.9250636995 L 3702731.9459004593,-2511062.1622464065 L 3666205.2379839164,-2511056.2793724323 L 3629689.439377472,-2511044.5136305806 L 3593151.8221508306,-2511044.5136305806 L 3556636.023544386,-2511032.7478968576 L 3520109.315627843,-2511026.9850914697 L 3499269.5277149067,-2511026.9850914697 L 3502824.2930144086,-2521693.6785494527 L 3505020.2926092874,-2529280.023253047 L 3502585.1787481843,-2534533.1576743815 L 3495464.6275195926,-2535848.1092905924 L 3490811.806762906,-2534186.793110146 L 3479919.0832692934,-2511800.779223945 L 3474190.0256756176,-2510909.6884139404 L 3461220.8597202385,-2510909.6884139404 L 3418693.363332993,-2510915.5712372744 L 3376165.755626257,-2510927.3368900404 L 3333649.16854911,-2510938.98249313 L 3291110.7628517672,-2510938.98249313 L 3248583.2664645216,-2510950.7481620703 L 3206066.5680678836,-2510956.6309995884 L 3163539.071680639,-2510962.393781168 L 3121000.6659832955,-2510968.2766227094 L 3078483.967586658,-2510980.042311889 L 3035956.4711994124,-2510985.925159527 L 2993428.974812167,-2510991.808009197 L 2950901.3671054314,-2510997.5708026816 L 2908373.8707181863,-2511003.4536563745 L 2865846.374330941,-2511015.219369857 L 2823318.877943696,-2511021.1022296473 L 2780791.27023696,-2511026.9850914697 L 2780791.27023696,-2538008.7382259886 L 2780791.27023696,-2565033.846281079 L 2780791.27023696,-2592102.623814549 L 2780791.27023696,-2619215.8712152615 L 2780791.27023696,-2646373.910427648 L 2780791.27023696,-2673577.5509429593 L 2780791.27023696,-2700833.0733917765 L 2780791.27023696,-2728129.4048110587 L 2780791.27023696,-2755472.823622278 L 2780791.27023696,-2782864.1584248072 L 2780791.27023696,-2810303.7548767617 L 2780791.27023696,-2837792.451600186 L 2780791.27023696,-2865330.725445892 L 2780791.27023696,-2892919.057155351 L 2780791.27023696,-2920558.3009978337 L 2780791.27023696,-2948248.824298342 L 2780791.27023696,-2975991.492181182 L 2780791.27023696,-3003786.681158342 L 2780791.27023696,-3031635.2675603987 L 2780791.27023696,-3059537.6373986406 L 2780791.27023696,-3087494.678572303 L 2780791.27023696,-3115506.7869149437 L 2780791.27023696,-3143580.992962708 L 2780791.27023696,-3171705.4537171787 L 2780791.27023696,-3199887.1997883776 L 2780791.27023696,-3228126.6476695244 L 2780791.27023696,-3256424.72226067 L 2780791.27023696,-3284781.9773265375 L 2780791.27023696,-3313198.9716730104 L 2780791.27023696,-3341676.6500691567 L 2780791.27023696,-3370215.4568575905 L 2780791.27023696,-3398816.350592013 L 2779834.701852574,-3404165.2858499135 L 2773649.011707664,-3423624.499302249 L 2768061.3298672955,-3448430.028205501 L 2761930.0749533838,-3478988.768455296 L 2761136.4783035186,-3488909.1007289467 L 2750885.066396366,-3520469.70074697 L 2749950.205312684,-3529422.3041822077 L 2752537.4929177016,-3535801.175815528 L 2769354.973669804,-3562496.385267739 L 2774420.9010568247,-3575480.1246714974 L 2778693.231793979,-3591068.3297479167 L 2780084.725428895,-3603765.3364475374 L 2775138.355174987,-3623202.901595514 L 2769354.973669804,-3640703.5800758554 L 2767398.1996606397,-3658642.2622415954 L 2766593.6937006772,-3676307.8792313566 L 2775192.6790864943,-3688392.193998194 L 2785509.324215252,-3699685.115456044 L 2789357.750331466,-3706630.3249912597 L 2795456.3886345755,-3714435.004428236 L 2799739.517362337,-3718106.1122794445 L 2808088.4791718326,-3702267.5718303006 L 2825536.5848392798,-3699525.680567188 L 2882424.7408168204,-3713649.8272562115 L 2945215.8354326556,-3699436.366601217 L 2979872.709862344,-3693986.317561491 L 3033238.7171511855,-3681922.037862555 L 3065743.117906895,-3660402.5538678216 L 3074657.360090639,-3657676.3888150095 L 3098019.2023869874,-3658102.1862482084 L 3113336.54168116,-3645406.4181708163 L 3174257.914129632,-3639301.341580759 L 3206773.224195439,-3625306.766332211 L 3225232.22215878,-3614157.7884445186 L 3236288.028706405,-3610726.422965658 L 3246072.0100717163,-3611283.493603279 L 3259312.906904122,-3615481.188361179 L 3275967.415921704,-3623329.5568538867 L 3294122.066397216,-3634245.714719023 L 3331768.4257521573,-3662328.425580804 L 3345085.4651162657,-3667268.470780967 L 3353782.30033449,-3665996.681658011 L 3364370.6763402745,-3666352.7068407885 L 3368784.3828307367,-3673966.353620524 L 3374350.3573704,-3679203.7376147746 L 3377850.798758395,-3685163.0139598087 L 3383568.9470419725,-3692323.119241981 L 3403147.7077632034,-3694330.4963329136 L 3442392.169727973,-3706585.7725505875 L 3438011.191167804,-3700775.361202491 L 3402256.261280931,-3687022.727674129 L 3417562.6912650056,-3685309.4799673716 L 3433249.6112686126,-3690010.365580081 L 3451099.9142562947,-3692998.6031240947 L 3454339.42275787,-3698843.437679555 L 3456687.5960966637,-3709814.2212837543 L 3460133.713573151,-3711352.109011486 L 3472494.0732333823,-3709297.36629006 L 3509281.7140363446,-3692405.9866812336 L 3518424.272495705,-3692081.045137459 L 3544329.987795662,-3701291.854900397 L 3549863.345724523,-3703262.4368197434 L 3558244.9241448212,-3698129.506438967 L 3577367.0523148174,-3677122.4617092246 L 3570692.2243273617,-3677567.9634631705 L 3550222.12844335,-3695566.9834209466 L 3548406.6188680027,-3686596.0563502247 L 3536742.0060252296,-3670804.5435478175 L 3551320.072581044,-3663981.309917741 L 3563169.475778534,-3661419.537985373 L 3569529.046968063,-3652632.355722561 L 3573551.3541288963,-3644809.723276474 L 3585215.9669716693,-3648218.812341793 L 3593597.545391967,-3658864.676326338 L 3589249.07212311,-3664807.705187926 L 3586292.203808659,-3670957.2214486427 L 3590118.8113046773,-3671109.9012478665 L 3598239.456838556,-3666047.5975756603 L 3621536.1772327903,-3645838.032447815 L 3629384.980570152,-3641680.861920555 L 3638429.6891971054,-3642366.1749239517 L 3657345.31971168,-3648047.431819393 L 3662585.239462811,-3647164.8208068497 L 3688001.7056007306,-3654607.751186513 L 3690991.190525984,-3649152.2148124375 L 3695176.580740829,-3643730.6757136965 L 3715614.1713335295,-3649768.1066540563 L 3747738.082069708,-3649698.2710885676 L 3774013.3780790977,-3656272.2204895937 L 3804484.9736134317,-3672280.3357413816 L 3806920.0874745343,-3674717.057900413 L 3808518.0787648717,-3670766.3743692227 L 3812170.8052162724,-3659830.64297926 L 3821432.920808744,-3632102.4124734164 L 3829499.242431116,-3610409.9785381933 L 3839402.6696100486,-3580429.8272113004 L 3842500.913677807,-3568936.0579993944 L 3843827.285410609,-3561014.5891946326 L 3858177.035690807,-3528183.4140119078 L 3866689.0805543144,-3501240.3051452804 L 3872928.983291241,-3479420.9986757273 L 3881691.05173107,-3447617.572933345 L 3885528.568537186,-3436542.6563857156 L 3879321.1710915715,-3430762.187658733 L 3866841.2542982292,-3410133.279230845 L 3853567.74085502,-3344869.338058133 L 3834565.058498645,-3294099.3231625487 L 3832412.584824667,-3262406.8932260606 L 3829357.8666778086,-3250993.190927789 L 3820324.067360953,-3234982.0151492734 L 3809365.9993262445,-3219290.661412711 L 3789885.0884374212,-3227413.657423613 L 3758174.284331578,-3254983.450626878 L 3739682.6697574346,-3281233.191791061 L 3719864.6834504893,-3298213.702692387 L 3701123.045300024,-3320741.320567595 L 3696024.5013022018,-3336972.561686995 L 3696220.200967016,-3347393.0781563055 L 3688034.3222115324,-3372880.7106924546 L 3681979.0985098328,-3384946.570454207 L 3659139.010666832,-3412127.3863853547 L 3652583.8511319794,-3426656.25037027 L 3647572.247656467,-3433046.5808244287 L 3642538.936880248,-3442225.663568667 L 3634266.117602456,-3477667.022060877 L 3625199.701674797,-3500205.0108616548 L 3614883.0565460403,-3493969.3180600395 L 3616709.364111994,-3484477.59616075 L 3607708.181405941,-3471367.280503297 L 3602272.6733094873,-3456162.941257327 L 3606447.1542142355,-3443762.4339244156 L 3625123.5591430943,-3424909.4256944167 L 3628906.6407182137,-3416683.901350864 L 3633255.113987071,-3398853.708905579 L 3632559.367169613,-3374657.8887979137 L 3635570.6707150615,-3366451.403759676 L 3649550.840285826,-3348515.6003814726 L 3654562.3324418482,-3337883.522634156 L 3657573.6359872976,-3328715.083430244 L 3662215.547433886,-3320425.587251578 L 3676087.0691816355,-3304851.115950369 L 3696046.2086029067,-3275261.2537215604 L 3714983.6577376765,-3255353.0251976307 L 3728637.661200417,-3245754.539539569 L 3734442.7500063037,-3236138.262958496 L 3735747.30311891,-3211356.549512554 L 3734747.2088136235,-3199562.085292293 L 3746727.0784543226,-3177369.040539971 L 3751162.4922454907,-3166154.334300277 L 3762783.579167363,-3157015.432376145 L 3768088.6208206085,-3146593.115737983 L 3772958.848542813,-3129652.857622385 L 3780307.7160470225,-3079689.828042977 L 3790374.3375994577,-3067452.907477473 L 3821519.8613310535,-3002098.9661214873 L 3847773.4500397397,-2960880.043052773 L 3860481.6831086995,-2930198.000606278 L 3879843.03686441,-2892925.0825733435 L 3917793.8550266717,-2811414.5355870984 L 3940383.80797386,-2786339.9282073462 L 3949374.1926893066,-2772280.7105298196 L 3965724.2428995688,-2761454.5121640405 L 3983444.079444042,-2745829.745645254 L 3966539.5468501383,-2747358.2323214523 L 3962289.0347331786,-2746412.5481556924 L 3956385.9847753923,-2743742.4302721415 L 3953537.7642839565,-2734272.9124280633 L 3952331.172323249,-2726537.456893545 L 3954374.8868547217,-2685623.4867266756 L 3959005.888991213,-2664835.959697411 L 3973866.7070536423,-2625512.6450098194 L 3984944.2209019717,-2613735.3117082687 L 3990336.3143970165,-2606122.3230096246 L 3997859.0629458446,-2600563.6847229674 L 4033070.4197591743,-2587190.6612367635 L 4053649.2747856914,-2558918.6036504926 L 4099862.114235138,-2523254.0480469395 L 4104395.266539222,-2513418.8369957255 L 4104504.0256817266,-2511132.5167742805 z" /></g>
</svg>
