<?xml version="1.0" encoding="UTF-8"?>
<svg xmlns="http://www.w3.org/2000/svg" viewBox="-1903427.3714667198 -3205728.007211069 936937.1921852063 836948.7695350586">
  <g id="map"><path fill-rule="evenodd" fill="currentColor"    d="M -981590.0002906764,-3205660.517919209 L -981595.454945725,-3205728.007211069 L -966626.1003797721,-3205728.007211069 L -966626.1003797721,-3184854.6587910927 L -966626.1003797721,-3159241.444283773 L -966598.8271045276,-3138383.004565939 L -966571.6651487743,-3113647.4044417 L -966544.5031930206,-3088924.751727596 L -966511.8865822181,-3060855.5702624368 L -966490.1792815134,-3032956.5999495424 L -966490.1792815134,-3012645.973043188 L -966501.0885916111,-2998524.6006744523 L -989145.4767697974,-2998524.6006744523 L -1009881.9601952776,-2998524.6006744523 L -1030618.4436207577,-2998524.6006744523 L -1051360.3817012866,-2998524.6006744523 L -1072102.3197818156,-2998524.6006744523 L -1092844.257862345,-2998518.5320479614 L -1113586.3072623648,-2998518.5320479614 L -1134322.790687845,-2998518.5320479614 L -1155064.7287683743,-2998518.5320479614 L -1175806.6668489033,-2998518.5320479614 L -1196548.6049294325,-2998518.5320479614 L -1217290.5430099615,-2998518.5320479614 L -1238027.1377549325,-2998518.5320479614 L -1258769.0758354615,-2998512.463424001 L -1279511.0139159905,-2998512.463424001 L -1300252.9519965195,-2998512.463424001 L -1320989.4354219998,-2998512.463424001 L -1337649.3990946303,-2998512.463424001 L -1337649.3990946303,-2983770.4447422065 L -1337649.3990946303,-2966931.2341585443 L -1337649.3990946303,-2950117.2343062144 L -1337649.3990946303,-2933322.3676396925 L -1337649.3990946303,-2916540.461128447 L -1337649.3990946303,-2899783.5770293283 L -1337649.3990946303,-2883039.2692121235 L -1337649.3990946303,-2866319.574359574 L -1337649.3990946303,-2849618.3288955456 L -1337649.3990946303,-2832935.5205554506 L -1337649.3990946303,-2816264.7750570113 L -1337649.3990946303,-2799618.0782105606 L -1337649.3990946303,-2782983.313400394 L -1337649.3990946303,-2766372.441151124 L -1337649.3990946303,-2749779.0972457696 L -1337649.3990946303,-2733197.3096258957 L -1337649.3990946303,-2716638.8805916053 L -1337649.3990946303,-2701882.799792814 L -1338442.9957444957,-2688663.0825960934 L -1345112.369076902,-2684764.4615463796 L -1361011.2413909792,-2677733.952651225 L -1377344.9276360944,-2670523.1096229535 L -1398103.22968177,-2667226.490256098 L -1404897.6148023377,-2664865.5271107308 L -1418165.784909988,-2655342.164834107 L -1435575.7079920927,-2642851.9146021456 L -1450659.2763555998,-2632048.1452855975 L -1460611.6841104818,-2618006.3226576583 L -1464215.4299859323,-2610326.500509545 L -1465688.5208075996,-2602202.289235244 L -1464514.434138203,-2594488.5672164834 L -1459100.6333424537,-2578983.541473556 L -1457654.8157960307,-2571180.6067959997 L -1456812.3498897073,-2557601.8465929115 L -1455888.2867966322,-2542824.1046981434 L -1454898.9904819524,-2526921.0252157925 L -1453904.3508317145,-2511015.219369857 L -1452855.2759504786,-2494099.3423188874 L -1451800.7464141939,-2477200.1495671878 L -1450740.8735423514,-2460224.0170157035 L -1449947.276892486,-2447626.9789518695 L -1448957.9805778062,-2431741.7226417237 L -1465791.8252950558,-2431724.15486919 L -1491317.0505754813,-2431694.9947958174 L -1516842.1645364156,-2431659.9788701585 L -1542372.8444718898,-2431624.9630144336 L -1567898.069752315,-2431595.803106038 L -1593423.29503274,-2431560.7873784835 L -1618948.5203131654,-2431525.7717208588 L -1644479.0889291486,-2431496.6119774315 L -1670004.314209574,-2431461.5964479707 L -1695529.5394899992,-2431426.5809884383 L -1721060.2194254731,-2431397.4214099706 L -1746579.9900508497,-2431362.4060785957 L -1772110.6699863237,-2431327.3908171435 L -1797635.8952667487,-2431298.2314036293 L -1823161.0092276838,-2431263.216270329 L -1848686.2345081088,-2431228.201206949 L -1874211.4597885343,-2431199.04195838 L -1888485.17885652,-2431181.474729573 L -1893089.0190372574,-2408870.2080202387 L -1897149.3974639422,-2392833.481999805 L -1899551.8947142423,-2379818.9883395606 L -1897779.9110597954,-2368779.2376760105 L -1903427.3714667198,-2374821.8115458013 L -1893502.1256675913,-2436900.956421377 L -1892773.762239331,-2442114.207183202 L -1892762.9642487238,-2442120.066583624 L -1886990.3807341477,-2443258.621268429 L -1862481.613724156,-2448047.4390858435 L -1845789.1447602136,-2449332.5669107293 L -1802359.2925805983,-2449332.5669107293 L -1785677.7329267538,-2451669.199288094 L -1772300.9149960896,-2451669.199288094 L -1753385.2844815147,-2450500.7840799876 L -1737785.3050002179,-2448047.4390858435 L -1721103.7453463734,-2445711.292387354 L -1702182.66017675,-2445711.292387354 L -1686588.135350502,-2444543.3961877595 L -1666580.0153532822,-2444543.3961877595 L -1652072.5253546303,-2445711.292387354 L -1642071.2483432903,-2451669.199288094 L -1633151.5515044974,-2463591.020660255 L -1629841.243806778,-2473181.20126864 L -1626465.8142069445,-2481606.3145680055 L -1627612.7389205873,-2490035.4340304006 L -1628699.7737481836,-2494837.2260504477 L -1623150.163173667,-2500812.113142004 L -1616469.8805311625,-2510428.9845742574 L -1609778.7998980512,-2516403.45026667 L -1607555.6383474185,-2521212.6696547256 L -1600864.5577143072,-2526023.252571068 L -1593097.128924716,-2534474.4879947146 L -1588640.007832844,-2540463.2137491503 L -1583095.7405938848,-2548804.1286312803 L -1581954.3818547816,-2556091.1407602658 L -1579720.3109940512,-2565733.6376076285 L -1579720.3109940512,-2582562.647567061 L -1577497.1494434187,-2603062.8783099777 L -1574176.0437550924,-2616389.823542864 L -1571952.9935239507,-2627248.1613850584 L -1569724.3773182693,-2644140.0334902867 L -1563033.296685158,-2673240.1337021776 L -1560810.1351345256,-2681767.090924731 L -1556347.5593876047,-2695040.3550809687 L -1550803.4034681367,-2707256.7619526233 L -1546351.6257118229,-2715802.0102773053 L -1540747.5799063079,-2723045.245873793 L -1532974.8077811582,-2727915.529953182 L -1520744.914564137,-2732787.314683557 L -1511836.127035442,-2737660.6033705263 L -1500693.268646017,-2742535.3993242267 L -1490691.880315186,-2746222.297604143 L -1481772.1834763933,-2751099.7485126215 L -1478407.6631866575,-2755859.6450582794 L -1472863.3959476985,-2764431.2765666293 L -1465090.623822549,-2780277.15805446 L -1460633.5027306771,-2790055.016526041 L -1453947.765433124,-2802345.5832726527 L -1446169.5386529255,-2810823.2996761464 L -1441348.2915066688,-2814120.2739228494 L -1437260.7511242307,-2816915.9287325265 L -1427199.5842268437,-2823130.439368737 L -1414975.1456648712,-2830423.8694945886 L -1406055.4488260783,-2836524.1693292903 L -1398288.0200364871,-2842746.770135978 L -1391602.3940584247,-2847534.982719154 L -1383829.5106137844,-2854959.8010717365 L -1380459.5356689994,-2861070.060286512 L -1376002.4145771277,-2872098.562777314 L -1370452.6926831198,-2889376.898727568 L -1365995.5715912478,-2907751.0077335592 L -1361543.905154425,-2927483.607178285 L -1358222.7994660987,-2939765.7561637824 L -1354852.8245213137,-2954590.1841597864 L -1350401.0467649996,-2965808.9036979238 L -1347079.9410766733,-2978123.0259409365 L -1344856.8908455316,-2983075.7492690287 L -1344856.8908455316,-2989238.845365263 L -1342622.8199848013,-2997944.0055843797 L -1342155.3894429605,-2998627.3961607525 L -1339258.2996950655,-3002903.4650154496 L -1331480.072914867,-3005323.4243416246 L -1322571.1740666812,-3007864.617397182 L -1308547.589894508,-3009801.139901812 L -1304465.5041671188,-3011980.1452816697 L -1302351.1017589911,-3019245.4094917276 L -1300714.9278833116,-3025545.0982096535 L -1295447.9574959187,-3035727.1485954197 L -1289523.2002374283,-3043853.649751682 L -1286093.4467260875,-3048829.0198751483 L -1281473.2425802036,-3057448.671585069 L -1276912.8170008755,-3063643.580270801 L -1269031.285733221,-3071542.9537543594 L -1262128.2527896394,-3077743.861522017 L -1259785.5341058949,-3084069.320261674 L -1259785.5341058949,-3091614.801605931 L -1264731.7930403124,-3097702.7660654164 L -1268215.981782651,-3108911.407739877 L -1253860.7768474044,-3112324.5605396302 L -1241250.3936108516,-3116104.408519085 L -1229727.045201895,-3119763.1151983 L -1215920.867995241,-3124765.154248684 L -1205598.7682114346,-3124765.154248684 L -1197548.8105542099,-3125985.327309917 L -1186025.4621452533,-3123544.9622515165 L -1174562.0036223435,-3122324.876223698 L -1166511.934645628,-3118543.482219863 L -1152705.7574389738,-3111105.5716984817 L -1141187.863685066,-3106108.3820824623 L -1134284.7194219937,-3106108.3820824623 L -1126892.4373163756,-3108545.8509368724 L -1120636.1706143029,-3112080.7543368656 L -1116836.7250740377,-3112324.5605396302 L -1111069.5962145105,-3109764.618484814 L -1102101.0301192596,-3104768.0284707546 L -1092920.4003940476,-3104768.0284707546 L -1083734.4273332774,-3106108.3820824623 L -1076831.283070205,-3112324.5605396302 L -1065307.9346612485,-3122324.876223698 L -1056121.9616004783,-3129768.8505034903 L -1047854.4856582434,-3134530.1364847417 L -1041168.859680181,-3135751.159553496 L -1033667.8184320579,-3135751.159553496 L -1025079.6310368475,-3135995.376943968 L -1011273.4538301935,-3134774.3325821194 L -1002087.3694499325,-3134774.3325821194 L -989525.8554698378,-3136483.9495578506 L -979040.7839515103,-3138560.104425968 L -974474.9037171333,-3142347.0260126092 L -974474.9037171333,-3147357.010868855 L -976757.8438343218,-3154814.1936470233 L -979258.1909170296,-3162030.6929024877 L -979910.5231330781,-3168638.8835713244 L -978383.1083999036,-3175611.6338285706 L -976757.8438343218,-3181129.7850785516 L -977893.8592378673,-3189953.568237067 L -981160.6410146868,-3200377.901048782 L -981590.0002906764,-3205660.517919209 z" /></g>
</svg>
