<?xml version="1.0" encoding="UTF-8"?>
<svg xmlns="http://www.w3.org/2000/svg" viewBox="4055008.151809804 -2038142.9242691977 744720.8255570428 649549.0665391732">
  <g id="map"><g><path fill-rule="evenodd" fill="currentColor"    d="M 4065868.2586926143,-1603699.2481163547 L 4062302.5840830156,-1636741.8168254679 L 4059910.9961428125,-1658848.4194163997 L 4057388.9417593996,-1682296.462106103 L 4055008.151809804,-1704426.602945382 L 4065585.6185054905,-1718045.536977935 L 4070510.281458694,-1730967.5579161923 L 4083109.755385149,-1773056.0890515728 L 4088153.9754714645,-1781443.2621071548 L 4098057.5139698884,-1804021.573951079 L 4099438.0982947065,-1810547.711317744 L 4109222.0796600184,-1839048.94439704 L 4108298.016566943,-1857999.7296079195 L 4106330.3332476816,-1877176.4105925623 L 4111667.9915117277,-1888530.252465438 L 4116451.2787116235,-1897624.3740511735 L 4116125.1126035997,-1905296.5397575062 L 4118288.4955876763,-1923218.1272317236 L 4119821.2536564083,-1927680.9114657613 L 4125669.8683831966,-1927959.4437675625 L 4137693.2639447963,-1925645.4749496134 L 4146520.565606231,-1927447.7947822171 L 4156717.6536018765,-1927470.5008428302 L 4164577.366249335,-1928010.6791949433 L 4169241.0963161197,-1933480.9892326961 L 4175611.4654962556,-1954391.599126889 L 4179764.239100298,-1958587.4948437142 L 4182938.62569976,-1959857.2924201167 L 4191928.899095715,-1963735.3701531482 L 4199636.54931875,-1969830.0819349943 L 4205919.977976576,-1974205.6866943918 L 4208246.332695175,-1975083.1329565302 L 4214888.544071828,-1975635.9462042893 L 4221519.957457874,-1978211.7298258818 L 4224585.58491483,-1981169.773376455 L 4232956.254025029,-1983518.2231015689 L 4241153.042090611,-1982195.765334574 L 4246675.490709375,-1984772.346158776 L 4250349.924461478,-1986442.7966357144 L 4254524.405366227,-1986573.9209674012 L 4258361.922172342,-1989002.8456965876 L 4259894.680241076,-1992732.1937604747 L 4262405.936633881,-1995104.8243565352 L 4268808.922424819,-2000546.7779838967 L 4271744.083438566,-2004489.3425421824 L 4273059.54586127,-2008455.5582291088 L 4274353.189663779,-2011623.2504832684 L 4277168.793544413,-2016949.6429389277 L 4288344.26854464,-2030354.2568162933 L 4297986.874156645,-2038142.9242691977 L 4331632.744970948,-1970604.790158036 L 4345297.6577437855,-1930785.4909128645 L 4357331.851295993,-1889319.153722489 L 4366235.295489129,-1827165.3499615039 L 4374736.431042539,-1795586.8101842143 L 4388466.5770369815,-1780031.078433306 L 4397848.249762566,-1750603.418011576 L 4405892.864084233,-1749492.0750558025 L 4411730.569500923,-1741409.4470165928 L 4421699.341220952,-1713837.440748302 L 4428906.832971853,-1703593.3296188756 L 4432679.116556364,-1712406.757169888 L 4432255.100615933,-1717487.7844133072 L 4429439.496735299,-1725973.8430059103 L 4432015.986349709,-1736909.6286576977 L 4437614.577500176,-1743462.2177947995 L 4450366.225170544,-1734547.2876600774 L 4457345.5119653195,-1727782.8933155544 L 4459215.345452175,-1714231.752958439 L 4462139.597155823,-1706718.4241684822 L 4475500.162440831,-1690826.4354793127 L 4486762.466643877,-1686206.5651567646 L 4501373.149810495,-1685047.5845759248 L 4513592.24503691,-1681548.2724096293 L 4523397.933702926,-1675720.908468734 L 4541759.081833859,-1659601.5678403263 L 4583743.116467051,-1645480.9415570823 L 4617497.74642386,-1602213.0423661666 L 4637369.945322822,-1572272.793713564 L 4702704.912942265,-1526950.2390329482 L 4713989.035765506,-1505250.6886470236 L 4719870.2671030965,-1484031.5591028049 L 4733622.231717735,-1485047.6596438985 L 4757179.773678898,-1461857.8148807622 L 4764050.190011677,-1444228.2924237782 L 4783346.3105457835,-1437845.118762991 L 4786629.344968258,-1448254.071722322 L 4795967.603092434,-1439701.308232544 L 4799728.977366847,-1426459.2082807107 L 4787368.617706616,-1421177.4134178949 L 4773747.23085468,-1416498.09405811 L 4771812.16414622,-1416670.8057327794 L 4767289.809832743,-1410572.1009734806 L 4760854.096111512,-1393869.9095881258 L 4753755.363503115,-1389022.3808912328 L 4750015.696529405,-1388593.8577300245 L 4728784.620606331,-1404218.5563612632 L 4725512.384174463,-1405098.2977499228 L 4720903.089338677,-1402024.9618534122 L 4717554.821694597,-1398834.9744074622 L 4707694.6977975825,-1410672.3536931062 L 4700465.498745977,-1421138.3931648275 L 4690366.260582738,-1433631.3199979034 L 4680604.097837622,-1439244.1851942465 L 4670091.75304405,-1446291.2422709817 L 4659786.01722539,-1462689.0410972903 L 4649262.874441212,-1480754.3551299106 L 4633673.804270012,-1495541.07304609 L 4604495.963857678,-1516892.1212285007 L 4577720.509376153,-1543961.0375016332 L 4557261.211482749,-1572278.3002228416 L 4544074.63856185,-1587031.2771575223 L 4538443.430800581,-1590797.820787677 L 4511157.131175807,-1600065.3154793596 L 4492089.326917318,-1613033.0566767913 L 4477435.1178298,-1623728.4184995298 L 4468433.935123747,-1626591.0863675307 L 4459693.573984622,-1626944.7032149194 L 4441104.109578071,-1624822.9605682534 L 4425634.596539984,-1631531.1299028045 L 4419155.468217344,-1631531.1299028045 L 4408795.4084871765,-1633490.6038316186 L 4400663.8536432,-1635865.8389503085 L 4391119.097863604,-1633007.7642302308 L 4371529.427832276,-1628230.1118108637 L 4363506.632130805,-1629274.3743161198 L 4359114.744260537,-1635955.654906153 L 4356538.254646128,-1641060.5065151837 L 4349722.162224855,-1646391.0763035715 L 4344112.661764291,-1646391.0763035715 L 4340981.80108573,-1641633.3353411355 L 4320533.412502423,-1629611.1273340394 L 4286289.644703069,-1622953.9220546249 L 4278168.887849699,-1623436.5715104654 L 4272102.866157392,-1628241.3785348875 L 4254796.136243253,-1648857.2680314332 L 4249849.877308835,-1652211.6068783118 L 4245947.127281114,-1652520.586153562 L 4237924.331579643,-1654964.9358624513 L 4230423.290331519,-1658921.3965864074 L 4223846.3121764725,-1667375.986982408 L 4217247.626720718,-1672183.5251981826 L 4210137.873482734,-1655628.0815104153 L 4197679.663990096,-1626725.8188674396 L 4191004.9473221307,-1611249.090613879 L 4182405.850616823,-1591324.7577730173 L 4179688.0965685956,-1590725.037735329 L 4175285.4107077224,-1592165.582967045 L 4158196.0877591013,-1616982.9931049505 L 4147455.5380094033,-1626327.2564395592 L 4139432.630988442,-1625434.7382607013 L 4133584.016261654,-1620843.7737177918 L 4129887.8752088454,-1612561.7476543111 L 4125887.3866682067,-1607423.406709807 L 4121549.8227094472,-1605437.8955007955 L 4112222.473895369,-1606424.9460308093 L 4097883.521605779,-1610385.1287543196 L 4083098.957394542,-1609526.8250862777 L 4067879.4679327765,-1603856.2579846277 L 4065868.2586926143,-1603699.2481163547 z" /><path fill-rule="evenodd" fill="currentColor"    d="M 4461291.67659445,-1814269.6681519367 L 4465031.34356816,-1803071.6688533523 L 4454160.216055761,-1807346.606833333 L 4452344.817799904,-1809665.414488595 L 4457127.9936803095,-1814099.943382218 L 4458139.108615184,-1816826.6972128926 L 4461291.67659445,-1814269.6681519367 z" /><path fill-rule="evenodd" fill="currentColor"    d="M 4468499.168345352,-1769560.9867017362 L 4473097.665190531,-1763407.5394623324 L 4476315.466391401,-1764011.5637760558 L 4478837.520774813,-1766060.621706395 L 4480620.413739359,-1770407.8862147776 L 4498220.581831229,-1761821.4276920338 L 4497198.668905747,-1756121.5034063242 L 4486697.344741764,-1755828.0838283435 L 4474576.099347757,-1758232.0586036479 L 4463368.007736727,-1757396.8054969907 L 4450018.351761816,-1759885.546621143 L 4446931.017004155,-1769560.9867017362 L 4455443.061867664,-1764875.1430394663 L 4459845.859048027,-1766060.621706395 L 4460628.546387794,-1767302.582523061 L 4454595.14130629,-1773852.3427879268 L 4446093.894433389,-1775156.8231048957 L 4446680.993427834,-1780307.7935576618 L 4450485.893623147,-1782335.8264509111 L 4452833.95564245,-1784844.0970975012 L 4447963.727920244,-1791918.664957895 L 4457519.393009938,-1790308.0583316502 L 4463552.798091444,-1786025.0292983288 L 4467520.7813407695,-1781025.2783398905 L 4468499.168345352,-1769560.9867017362 z" /></g></g>
</svg>
