<?xml version="1.0" encoding="UTF-8"?>
<svg xmlns="http://www.w3.org/2000/svg" viewBox="-2021622.8445673122 -5429077.911760775 2502753.476140196 2224613.9227005937">
  <g id="map"><g><path fill-rule="evenodd" fill="currentColor"    d="M 177437.14575248444,-4674806.6784516815 L 174904.1820589743,-4672920.195572166 L 167533.60725406086,-4674653.54554398 L 156488.71001653385,-4674653.54554398 L 156064.69407610226,-4680419.715341132 L 157760.64651833777,-4684446.699987927 L 159891.30157212104,-4688524.247996524 L 166631.36278118138,-4680489.334333496 L 177295.8813186678,-4678998.764295767 L 177437.14575248444,-4674806.6784516815 z" /><path fill-rule="evenodd" fill="currentColor"    d="M 350134.64154546364,-4835485.1629066765 L 360799.0487634593,-4830647.727382952 L 372050.6662953894,-4834997.098111736 L 378029.6361458961,-4833631.976396543 L 383932.68610368186,-4831305.297697304 L 385367.5943400071,-4822117.433384275 L 380116.87659827,-4811907.455103857 L 372778.9184041591,-4801581.1218833 L 366571.6322780352,-4790237.236148373 L 361201.35740318615,-4777203.99607695 L 351167.35246155283,-4769520.103815083 L 342068.31992309226,-4764918.251554819 L 322837.43261059106,-4774574.032844264 L 311672.86692046135,-4776979.021046906 L 308335.3972669882,-4780608.474322513 L 305682.87644036603,-4795026.875775921 L 300627.85836344346,-4799628.544512487 L 293224.6669477276,-4801658.655363 L 286745.5386250867,-4797972.219926272 L 278244.40307167685,-4790356.938450751 L 273711.13944810233,-4797944.075599709 L 266536.2643080035,-4799374.773493835 L 263829.4195698742,-4803950.134555605 L 263970.6840036909,-4809875.264724824 L 310020.440399126,-4844869.521495873 L 323359.1870639392,-4852625.764662375 L 351623.8736932961,-4861657.507503073 L 355950.63966144907,-4860288.722909068 L 352265.2965992469,-4854936.094193801 L 352547.93678637105,-4852540.723199925 L 356070.196794561,-4849947.598104761 L 355211.3669230909,-4845818.363593927 L 351623.8736932961,-4842221.711013694 L 350134.64154546364,-4835485.1629066765 z" /><path fill-rule="evenodd" fill="currentColor"    d="M 477967.15428352065,-4842986.316846398 L 475923.4397520469,-4841308.581249787 L 441679.6719526925,-4858076.466404973 L 430493.398961858,-4859948.2989934655 L 427764.7356035333,-4862508.590428993 L 428069.0830913621,-4871244.143653335 L 428960.5295736347,-4875106.87733776 L 451865.85063824017,-4876861.324888911 L 470411.7891238903,-4870647.751418552 L 480358.8535432141,-4853922.519401868 L 481130.6315728839,-4851059.870325377 L 477967.15428352065,-4842986.316846398 z" /><path fill-rule="evenodd" fill="currentColor"    d="M 160880.59788680085,-4710032.869835578 L 156847.38141586978,-4701248.012023604 L 139921.25284075254,-4704354.7233246565 L 136181.5858670433,-4707909.2545047905 L 139845.11030904995,-4717860.491661011 L 144693.63073055097,-4719056.035256148 L 144997.97821837975,-4726134.812122635 L 150129.1388270049,-4733253.674200189 L 174154.11133000924,-4739025.091373258 L 179578.82143585623,-4734198.903019825 L 180741.99879515514,-4727233.444278593 L 166370.42989476194,-4712010.245725656 L 160880.59788680085,-4710032.869835578 z" /><path fill-rule="evenodd" fill="currentColor"    d="M -199711.9532212369,-5374177.659686968 L -199565.23413237138,-5368852.15067968 L -195173.23494261355,-5361526.88767786 L -190672.69924933228,-5358822.476039969 L -181133.2868052935,-5355066.123902214 L -173822.60188642686,-5354565.799294578 L -163832.12286569373,-5352804.020676718 L -157037.62642563548,-5348587.380969579 L -156662.59106115293,-5342023.66000549 L -158363.88683894655,-5334697.197887771 L -162462.3365314825,-5327964.5487892125 L -164805.05521522695,-5322806.81378925 L -162619.96493044574,-5319853.26343981 L -159048.83566579755,-5317569.987018227 L -155184.15690392748,-5316937.805422702 L -152564.25268810778,-5317696.398008305 L -150585.66005874812,-5321757.689866806 L -146813.48779372728,-5326743.793610123 L -144720.7926863045,-5327354.227474051 L -144889.21907587475,-5324533.2105712835 L -143095.52812072274,-5321050.8738255 L -130849.27093855468,-5315190.581042034 L -103954.37064340901,-5304290.213165864 L -93420.31854913232,-5304089.614824325 L -84897.36437552693,-5302812.517083247 L -82397.12861231,-5298210.145007265 L -65280.643707936244,-5281423.675678647 L -61204.01263559578,-5281882.927476127 L -53561.59563416517,-5281475.410552703 L -44353.915272690334,-5282808.933600918 L -37689.88527584181,-5285951.0254236255 L -33319.70470627948,-5285424.791319127 L -28503.91221507166,-5282179.24556602 L -22856.34048865652,-5279349.6606533965 L -15589.070171199235,-5273833.572182917 L -9071.870582707037,-5267003.945398149 L -4582.1328800327265,-5264770.4555628 L 22416.071902569118,-5269349.0292205475 L 28438.678993466805,-5265347.331573602 L 34830.86679379816,-5265399.129470347 L 41994.83262379928,-5266441.812123833 L 57627.4287158987,-5264341.5698895855 L 70313.95448415412,-5264844.5130135985 L 71466.22253335528,-5266515.882735187 L 72553.36868044239,-5281645.788707815 L 74564.46660111367,-5287003.430384673 L 77575.77014656251,-5288426.710132036 L 85098.51869539036,-5287351.829305243 L 112439.25355116311,-5278386.837477362 L 123690.75976360244,-5272789.917870736 L 134507.45204500327,-5268409.501362128 L 143965.26730229054,-5267928.63759979 L 150216.07934931444,-5265007.16884775 L 158999.8550898485,-5250664.282564198 L 157499.71363191836,-5243482.736207441 L 158293.31028178358,-5240826.999411373 L 159217.26205536776,-5235849.468839906 L 158978.1477891438,-5230336.608757706 L 161282.79520703695,-5226734.399962372 L 165446.366801687,-5226285.219629976 L 170773.2270751267,-5227375.17500327 L 176600.1345012098,-5229526.191963925 L 186851.54640836237,-5235672.519498763 L 189917.17386531836,-5236675.074959336 L 207028.2041146432,-5229695.632885499 L 214616.18588507592,-5225055.286691579 L 217236.0901008956,-5219997.728747846 L 221138.72880912622,-5214832.5991073735 L 226280.7987278491,-5214082.40775378 L 233586.14031115765,-5218989.555854913 L 244946.40566610204,-5224245.32260066 L 264318.5574124198,-5219622.420858863 L 285865.00145291194,-5212920.331085549 L 295181.4409568918,-5212118.784647062 L 295529.3143656208,-5215376.901655004 L 297225.26680785633,-5220034.657437089 L 300769.1227972602,-5222367.938523956 L 306063.3664598974,-5223052.5954573965 L 313433.94126481086,-5225497.1693783235 L 321869.84359661594,-5229540.9783169255 L 330621.11404583836,-5231228.132438918 L 339817.99641670624,-5228207.583725306 L 350895.5102650357,-5225762.308904856 L 357494.3070402794,-5225784.328790422 L 360657.78432964266,-5216245.018255779 L 366006.35190378706,-5212604.041973962 L 368104.39034676785,-5204363.764534174 L 358298.7016807516,-5200059.046098135 L 352482.7035647662,-5199478.773958313 L 350699.9219197119,-5185344.963530613 L 353461.09056934825,-5181371.303202489 L 358961.8318874071,-5177641.192685701 L 360462.0846648281,-5173304.619104777 L 361570.93811261986,-5152630.2232434135 L 350308.5225900828,-5140185.837288991 L 334502.04545336426,-5126205.297946329 L 257252.44141482605,-5081396.327126473 L 238847.65604350175,-5059768.251376392 L 231835.86395741501,-5054826.264810661 L 174393.33691572398,-5041236.309459104 L 134235.60984848608,-5026742.261240372 L 114983.01523528021,-5021499.9613024425 L 90936.33543157122,-4996366.107211847 L 79554.25145643136,-4986247.38352124 L 88620.77870358032,-4983446.463038918 L 99198.2453992664,-4971476.1183390785 L 95643.4800997648,-4966170.242321312 L 80217.38166308691,-4957987.774786342 L 73477.43177351735,-4955474.140822837 L 69813.79601201993,-4956777.442367413 L 66356.88054492562,-4955646.007731408 L 40483.78185577138,-4912413.630356591 L 17632.78470267295,-4881444.050029807 L 4794.0851905031195,-4867971.842813158 L -8365.214455151336,-4847928.821164257 L -36401.69612838205,-4796414.875017878 L -36619.10309390131,-4781593.457081997 L -22812.92588724714,-4730642.169581839 L -14893.323353741278,-4717301.073209409 L -3799.4455402652206,-4706100.440121342 L 17241.49669253459,-4696586.366428049 L 22437.8905227646,-4687234.644251335 L 15175.9635408654,-4678330.082816611 L -5870.322027492489,-4662498.212965797 L -42440.555864935544,-4641151.95899495 L -57975.30212462766,-4624345.01362985 L -61301.862468003055,-4608160.4362725215 L -71998.88629680111,-4600900.097572907 L -76053.81006843688,-4578301.534106638 L -82549.30235622439,-4563352.689193063 L -83793.96558278399,-4558291.859818653 L -90686.20053575873,-4546974.300013852 L -91626.6275939803,-4538767.249783897 L -80326.14080559192,-4527436.567305921 L -85924.73195605804,-4522544.03918863 L -91523.32310652416,-4520369.66157395 L -104427.25584029882,-4519045.98230204 L -147780.9654882116,-4517612.79395111 L -182671.61084856576,-4493182.572718438 L -200108.69588642413,-4471614.501516172 L -215882.667731831,-4431561.660881119 L -235053.66515828538,-4408021.624764433 L -243533.09341099064,-4403686.194170804 L -256654.43311028456,-4414022.244482785 L -273048.0092414468,-4415597.613156433 L -288952.33621057257,-4412168.759146329 L -297290.38870997034,-4403977.937301082 L -310308.5352412989,-4399420.293189154 L -323033.02095591486,-4403367.369736731 L -350564.0008214533,-4405497.492401401 L -362804.8033485725,-4405117.618052415 L -381965.0027844199,-4398471.03485002 L -398391.19552638463,-4402906.167818885 L -426106.85442714905,-4405158.328152398 L -486115.0730926435,-4399888.149207603 L -493686.6908979296,-4397406.621768265 L -501187.7321460528,-4387540.373684991 L -520320.76962614665,-4370533.062564666 L -549395.4168705154,-4369924.5404451145 L -575686.9655255617,-4359090.483144794 L -582258.6003450516,-4352155.239476556 L -593298.0429275298,-4333107.780115623 L -596776.7770148197,-4319200.9695125045 L -599076.0810971548,-4319086.567364935 L -601929.7562436402,-4322506.060061527 L -605979.2253602272,-4321361.605503872 L -608082.7184582569,-4310778.003277792 L -617964.5496559758,-4305963.984405008 L -626226.4596236709,-4304189.611598769 L -646587.9076846687,-4312782.260462178 L -663541.3095350302,-4325657.141633702 L -672444.753728167,-4326579.845673867 L -686892.3538407721,-4346647.959961459 L -693105.2059414354,-4359462.086044378 L -697518.8011124071,-4373312.844217714 L -696605.64732943,-4378623.984139979 L -697855.7652110384,-4383044.090359691 L -710678.2120775525,-4388630.994467979 L -713809.0727561133,-4401380.037309603 L -704465.359976889,-4417961.242734391 L -696795.8923391956,-4425034.544482891 L -692050.6764051507,-4427066.954238188 L -703644.6013712703,-4426359.972887635 L -712020.7251365193,-4415665.622935049 L -722734.2242499547,-4432785.933456562 L -766392.2813856963,-4466215.752779272 L -763582.1321601109,-4473895.014817379 L -764071.3813221473,-4478054.317661999 L -771387.5208960628,-4469109.288266999 L -776415.3770172318,-4466802.55793729 L -798711.891786689,-4468249.376830879 L -824449.0693775846,-4464148.42949474 L -831243.454498152,-4498937.352317996 L -834455.9123634644,-4512341.108311316 L -835287.580279181,-4521034.935467128 L -828656.1668931349,-4541110.4162854785 L -821416.0585314311,-4549291.846110158 L -811767.9982643782,-4566218.046089956 L -799880.5238010369,-4580322.611184198 L -787308.2118303353,-4583668.77239061 L -781780.3085565229,-4585746.166116372 L -777132.9424548853,-4596670.865187363 L -774512.9269195748,-4606002.617799941 L -776431.7409823785,-4606929.345105926 L -791080.3840953561,-4605027.540706455 L -817421.024645842,-4644247.2596601965 L -816616.5186858793,-4650510.22290394 L -813295.4129975527,-4659814.540215954 L -811115.7773678203,-4671569.846432987 L -810577.6589493256,-4680865.541906661 L -803718.0406071534,-4688851.921588278 L -793205.6958135813,-4696914.299644513 L -784362.1415064913,-4708363.2966087125 L -779932.1823703729,-4719559.554658981 L -779008.119277298,-4729760.062585312 L -784019.7227528112,-4737021.490982733 L -798429.2515995648,-4741057.074564609 L -813273.7056968479,-4770222.898111461 L -816578.4474200277,-4788519.160703435 L -819611.4582661813,-4790420.251450846 L -828786.6333363445,-4798768.664972309 L -837592.2276970742,-4814448.49081185 L -838869.5075344362,-4816884.033341266 L -829786.8389611221,-4819645.177308732 L -792336.0679515043,-4819793.437559489 L -784514.3152504057,-4823247.728789767 L -783323.9759353532,-4824463.098270964 L -776496.9742039833,-4836687.825281706 L -769349.261019638,-4856807.3351323 L -767669.6725425491,-4869114.481430988 L -769930.7940395421,-4874204.972755188 L -782334.6796206734,-4886690.144295945 L -782867.3433841192,-4890374.04486254 L -780872.4981091038,-4896265.486682539 L -773496.4686491414,-4902573.353802389 L -763527.8082486038,-4909740.555408585 L -758103.0981427567,-4915928.810392023 L -759396.7419452654,-4920772.414805856 L -762310.1956583069,-4925846.62030453 L -762766.8282095409,-4930566.535957209 L -760945.8639791446,-4936403.318288542 L -760293.6430825868,-4956319.133267613 L -759016.251925734,-4961447.69799533 L -760967.6825993401,-4979576.681987704 L -763397.341805394,-4994410.424662746 L -771273.4184179998,-5013688.577568079 L -769832.9442071348,-5017953.732578331 L -766191.127065833,-5021550.306288563 L -754276.4906467381,-5028242.607672198 L -744742.6441772388,-5044032.329134 L -730914.6483503892,-5057242.706416857 L -712792.6144856798,-5067870.428304456 L -700127.7960181291,-5079691.796368735 L -695116.3038621066,-5088739.879274979 L -691572.3365532121,-5091135.688995552 L -692594.2494786944,-5095362.559398148 L -694980.3827638482,-5101517.437430411 L -702209.6931349449,-5107530.577051201 L -711520.6779838759,-5110986.187778041 L -721869.9397234358,-5110840.60210789 L -728272.925514374,-5112048.568108757 L -730142.7590012286,-5116750.592764491 L -729430.7595381149,-5129507.147861438 L -729979.7872667073,-5142141.991081569 L -731963.723231625,-5147969.0265221 L -736741.5557764723,-5152352.600431328 L -746242.785635169,-5151183.380697342 L -754445.0283557989,-5154764.372216674 L -760668.6784470694,-5155612.296831668 L -764266.9696674711,-5152783.779815205 L -782628.2291178952,-5153587.672336305 L -790270.5347998351,-5155619.632666554 L -795613.6477189306,-5158156.523056048 L -799043.5125497623,-5156738.188935566 L -800983.9225937797,-5154274.724092214 L -801315.5433568528,-5150409.01796151 L -802571.1158935102,-5145303.387758529 L -809131.8414029025,-5140689.412201925 L -824166.4291904605,-5136099.6256540185 L -836298.5838945654,-5136442.516970046 L -847430.5329738928,-5139726.081167909 L -851001.6622385411,-5142120.164139747 L -856388.189759046,-5144288.450902075 L -879021.779946625,-5141609.188747558 L -881744.9886499009,-5143565.633968559 L -889550.3773858531,-5138821.131691065 L -901068.2711397606,-5133189.354388508 L -907531.0354972549,-5132853.8980490165 L -909873.7541809992,-5134050.004553391 L -910732.5840524693,-5136588.492298656 L -915575.6498189215,-5145391.024022818 L -914303.7133171175,-5150065.625029239 L -905025.2337594983,-5163700.711612631 L -906063.5106501272,-5166964.291092157 L -909879.2088360483,-5171378.65370156 L -913287.2550466842,-5177751.035410909 L -914276.5513613642,-5181026.792364553 L -920174.0353446101,-5181583.870365567 L -926463.0299769761,-5178234.688619829 L -950455.385869178,-5171371.305724512 L -956195.2414534609,-5168882.017564725 L -966582.574458872,-5162252.188617998 L -977067.6459771997,-5152155.201307284 L -985438.4264068905,-5150036.298797995 L -988330.0614997367,-5153024.8955590455 L -989319.3578144164,-5176761.8963713 L -976545.8915238514,-5192578.091778564 L -967468.5662860954,-5202137.668315138 L -971729.9877131529,-5204069.880856748 L -981372.593325157,-5203805.348195398 L -980720.372428599,-5211214.302444257 L -976203.4727701714,-5214781.078040944 L -971822.3828905112,-5222853.872483875 L -976958.9981541855,-5226336.652561736 L -980959.4866948231,-5231655.514178629 L -980714.9177735505,-5245593.143287387 L -979600.6096707097,-5251269.784511839 L -980894.2534732183,-5257385.962893763 L -1000516.5401153486,-5249113.957536291 L -1005560.6488821736,-5250354.287884116 L -1005778.1671671836,-5260719.083760924 L -994885.3323540803,-5276528.20666827 L -993771.0242512394,-5281364.3553968165 L -1006506.5305954438,-5283705.591228851 L -1016034.9224098943,-5291481.531993377 L -1021850.9205258795,-5298432.807982646 L -1028058.3179714942,-5308457.060706079 L -1028107.2985474431,-5317421.189766563 L -1021698.7467819651,-5338497.545000702 L -1012512.773721195,-5344633.685565535 L -1004604.0804977868,-5348415.778445174 L -987813.7617014375,-5363013.914880377 L -964652.9624054612,-5360286.732522751 L -950341.2833911148,-5363417.5054511465 L -937486.2199137986,-5370886.2525276 L -930126.5544189826,-5372569.191775391 L -918266.2419113951,-5379094.576632667 L -918641.2772758775,-5387917.226872683 L -922712.453693169,-5394468.476374475 L -919135.8697734721,-5400656.628858667 L -905824.2850644123,-5408215.589161655 L -891077.6807995368,-5418268.725367258 L -874162.3502150263,-5420208.381446685 L -856953.5814527851,-5429077.911760775 L -845424.7783887795,-5423344.535919051 L -835298.3782697879,-5425285.259188181 L -823688.0893385218,-5418486.7373485705 L -808398.0233195933,-5402922.8997981455 L -786025.3660184336,-5396673.173577557 L -768180.6290052902,-5401542.108222007 L -736632.7966339673,-5402577.682580802 L -720869.845418149,-5400506.496105892 L -692865.9803557207,-5404341.4074679855 L -676836.6415984341,-5402967.935763623 L -650849.4404312167,-5410678.928237622 L -630716.1973263453,-5401054.331077237 L -591743.5775580927,-5396553.211027296 L -568316.3907206481,-5388673.954544989 L -503503.2888740437,-5375464.726688378 L -480097.92065679474,-5375315.001540824 L -446984.71360593673,-5382726.000905857 L -432961.01811427256,-5388299.342836067 L -420122.31860210275,-5384995.404683654 L -401266.5779735748,-5391379.558135067 L -392249.0313023749,-5390082.912556583 L -380475.65931709675,-5380981.261574864 L -339035.19775744795,-5368702.5321363965 L -328137.0196087865,-5379139.496893427 L -320048.9906857104,-5381400.508866306 L -290218.81805732765,-5375008.20279692 L -260165.7838083768,-5362034.932376572 L -244533.29903576823,-5361101.039070766 L -221671.5038920628,-5364643.0772988275 L -203549.47002735344,-5373182.638180248 L -199711.9532212369,-5374177.659686968 z" /><path fill-rule="evenodd" fill="currentColor"    d="M -1818345.2167364755,-3296959.518314012 L -1827667.1108955045,-3268077.3301389427 L -1836353.036803631,-3256781.973437652 L -1841533.0666687146,-3253018.9460760984 L -1854360.9681902775,-3249878.801373095 L -1869580.457652043,-3267793.7644514116 L -1877516.3128312044,-3285997.983636819 L -1881891.8367363254,-3291857.4411350545 L -1874961.5305174992,-3296477.5894144573 L -1864829.7870629493,-3295680.654390366 L -1843098.5526677407,-3299560.6390184956 L -1838712.1194525221,-3301105.5304803434 L -1816622.1023384866,-3319534.450950638 L -1794874.615297622,-3321787.3118702397 L -1794374.5681449785,-3315741.4185383036 L -1818345.2167364755,-3296959.518314012 z" /><path fill-rule="evenodd" fill="currentColor"    d="M -1526854.4621773441,-3364352.4473161157 L -1534426.0799826302,-3355991.0941407443 L -1542878.3462795818,-3358994.907208231 L -1538839.7864730926,-3377342.754652367 L -1534893.6218439618,-3382788.756753622 L -1519521.958638282,-3390800.0400666134 L -1506715.8757369146,-3394023.3858825965 L -1502970.7541081565,-3402558.4495922374 L -1498758.2019375574,-3405871.9526862483 L -1494235.8476240805,-3400808.7303790515 L -1497665.7124549123,-3394925.804840479 L -1500356.3045473858,-3376485.075566742 L -1508900.9660216956,-3370581.997471603 L -1526854.4621773441,-3364352.4473161157 z" /><path fill-rule="evenodd" fill="currentColor"    d="M -1580377.9865456582,-3270333.8210484376 L -1595499.6261750164,-3256036.701631688 L -1610637.629769521,-3259363.1153981234 L -1613219.4627194894,-3261704.4707739814 L -1598054.297169231,-3265334.214167546 L -1584296.9892190353,-3276211.1033450193 L -1575458.889566994,-3300339.3271116056 L -1561630.8937401443,-3327043.228074271 L -1558847.9064703125,-3338366.8217956694 L -1553368.8724529585,-3342780.024996318 L -1545813.5072933282,-3343189.227637057 L -1542579.453446802,-3342346.0783090317 L -1539231.074483231,-3336402.5131417033 L -1539280.0550591801,-3322950.9024775485 L -1543220.765033262,-3300679.139356199 L -1550460.873394966,-3280967.9267598568 L -1580377.9865456582,-3270333.8210484376 z" /><path fill-rule="evenodd" fill="currentColor"    d="M -1714385.3914380178,-3267565.6284316024 L -1715064.7742903293,-3257866.147107067 L -1712444.8700745096,-3248068.8382118642 L -1713113.4549362138,-3233186.372776096 L -1718413.1532539001,-3225127.4050228847 L -1732061.7020615907,-3217110.1654009456 L -1742791.4538206821,-3218547.311522584 L -1748862.9301680382,-3221778.6422943096 L -1759663.2584842923,-3234803.6745425337 L -1759902.4840700072,-3248278.113906148 L -1750047.8148280417,-3257065.308571408 L -1745797.3027110824,-3268410.2685934263 L -1720195.9348989546,-3266246.5045314 L -1717961.975357715,-3268434.8889412717 L -1716043.272614402,-3269076.043840862 L -1714385.3914380178,-3267565.6284316024 z" /><path fill-rule="evenodd" fill="currentColor"    d="M -1912988.4912114625,-3251744.3647911404 L -1917521.754835037,-3250679.089753784 L -1922924.646320689,-3253801.005778655 L -1928599.268683367,-3263818.158238058 L -1924750.9538866433,-3271221.697142135 L -1921217.8958878464,-3274613.6156377383 L -1916293.232934643,-3274120.2340462543 L -1906862.6909526,-3268650.6661136956 L -1903981.853850361,-3262992.3572480343 L -1903682.8496980902,-3259498.626632172 L -1912988.4912114625,-3251744.3647911404 z" /><path fill-rule="evenodd" fill="currentColor"    d="M -1991276.2608211392,-3224986.0686730617 L -2002054.9931561796,-3204463.9890601817 L -2015616.6014415608,-3212142.385899582 L -2018883.2718988892,-3214715.0891304747 L -2021622.8445673122,-3218934.3918842166 L -2008577.5360802298,-3219769.7277088957 L -1995347.5485579215,-3230093.7319965037 L -1991276.2608211392,-3224986.0686730617 z" /><path fill-rule="evenodd" fill="currentColor"    d="M -1985302.6343061908,-3311300.1802790677 L -1988096.53088612,-3310347.719392576 L -1990629.4945796302,-3320345.229182414 L -2003837.7748012338,-3344912.765741912 L -1995825.8884098607,-3355879.3842215147 L -1981215.2052432431,-3356158.5972446618 L -1975312.1552854574,-3348509.3765857327 L -1973311.8553553931,-3340622.8736653784 L -1976100.297280274,-3336067.8811666076 L -1975295.9026398018,-3326863.6648030644 L -1976812.4080628785,-3320914.5904812575 L -1985302.6343061908,-3311300.1802790677 z" /></g></g>
</svg>
