<?xml version="1.0" encoding="UTF-8"?>
<svg xmlns="http://www.w3.org/2000/svg" viewBox="3673423.639044916 -1672183.5251981826 1667487.7144812108 1287218.2643964204">
  <g id="map"><path fill-rule="evenodd" fill="currentColor"    d="M 3926055.7649943666,-612336.8668997419 L 3924283.781339919,-614433.7668969653 L 3914489.001984001,-622281.3474393643 L 3905303.0289232302,-632566.0698094786 L 3899737.054383567,-643950.372722223 L 3894355.8701986205,-653282.3545444997 L 3891616.2975301985,-674185.8476590379 L 3884811.114419024,-687032.1105607356 L 3878157.9937322726,-702746.6061661143 L 3868265.364543947,-732738.5464610336 L 3863971.3265060876,-743096.9715201185 L 3855970.2381053213,-750030.9832871705 L 3847512.5171533204,-756495.1532692034 L 3838783.0653242934,-769787.2182577862 L 3815953.8867913904,-781499.839473661 L 3807170.1110508568,-790668.0662399551 L 3792015.854810696,-806505.4861503758 L 3788221.863925479,-814500.1160501658 L 3787134.717778392,-822468.5185652048 L 3782405.8658094937,-829944.7984612676 L 3774002.468769001,-838359.7625139442 L 3747694.556148808,-856493.9751979714 L 3740443.6497964966,-858676.9432446226 L 3731018.451150012,-860624.1083934078 L 3717212.162623867,-862417.6737237811 L 3698698.8407490198,-866564.8371993253 L 3682533.580893474,-873652.8762104128 L 3675173.804079168,-878689.9282794655 L 3673423.639044916,-882168.9302790171 L 3674945.5991230416,-888013.5939204738 L 3680805.0118404357,-898014.3630209877 L 3691936.9609197634,-921696.6409029765 L 3699622.792522603,-938045.0299021255 L 3704830.0956629314,-942644.0808016905 L 3719114.612721524,-943825.5152087165 L 3734247.1616609804,-943336.4168234672 L 3745324.6755093094,-942116.5083495736 L 3760935.564300704,-941951.7558064964 L 3779666.293141071,-943347.4456725118 L 3787058.6865661805,-948815.3993450052 L 3792961.6252044756,-954800.7346118914 L 3795385.829755481,-958961.8298951326 L 3796190.335715443,-969561.4377784753 L 3796168.517095248,-978062.8594140242 L 3794994.541745342,-1010671.6234136771 L 3794276.9763076887,-1030655.7412638312 L 3793450.763047021,-1053498.3610471478 L 3793559.522189526,-1058071.7560204363 L 3793689.9886327353,-1063935.455159493 L 3798255.8688671133,-1088347.2545048592 L 3802571.6142056766,-1102324.5365627971 L 3805485.067918719,-1109684.8453164815 L 3817312.763815504,-1132994.7095264215 L 3819508.6520908917,-1140471.5697778342 L 3819910.9607306193,-1147336.8359525267 L 3815551.689471154,-1178636.933643552 L 3823150.469232193,-1193418.0551115428 L 3832890.924676605,-1208056.0426103799 L 3841413.87885021,-1214292.6235513545 L 3848523.5207687044,-1218521.1492562944 L 3851850.08111208,-1216749.989550533 L 3860003.343256761,-1209992.7746845346 L 3870722.185705755,-1203336.3846120543 L 3875722.87987117,-1204808.1553408108 L 3883082.5453659855,-1210629.1211841423 L 3888550.670073242,-1216777.6472676273 L 3887822.306644982,-1227810.1237698717 L 3892746.9695981853,-1250456.8424311723 L 3891811.997195013,-1263506.8614981454 L 3897062.71493675,-1279756.0413879396 L 3902824.3891412285,-1302610.8642234448 L 3905389.969445541,-1317075.5790120403 L 3908683.9131781138,-1324838.0246838029 L 3924283.781339919,-1340818.6489897752 L 3937676.963235731,-1363417.9527140697 L 3946232.422700648,-1379936.2739576166 L 3962539.0583095006,-1406919.0982198003 L 3970790.170286589,-1416776.5550631415 L 3977508.412875454,-1421032.5139113555 L 3987531.508506989,-1423751.2684285748 L 4006121.08423303,-1426197.3152313286 L 4019470.7402079413,-1428498.6315986929 L 4021438.3122077123,-1431987.1306404031 L 4022568.984275699,-1437499.443963192 L 4022764.5726210237,-1449581.2391784955 L 4025330.1529253363,-1470394.8437534613 L 4031124.4437406166,-1490721.1685763684 L 4037951.445471987,-1506127.9534738518 L 4041658.4958348926,-1513119.1507753695 L 4046050.38370516,-1519922.0703435533 L 4050985.8446489708,-1531351.557009964 L 4057269.273306797,-1556100.5278239914 L 4056921.399898068,-1572888.9562861475 L 4065868.2586926143,-1603699.2481163547 L 4067879.4679327765,-1603856.2579846277 L 4083098.957394542,-1609526.8250862777 L 4097883.521605779,-1610385.1287543196 L 4112222.473895369,-1606424.9460308093 L 4121549.8227094472,-1605437.8955007955 L 4125887.3866682067,-1607423.406709807 L 4129887.8752088454,-1612561.7476543111 L 4133584.016261654,-1620843.7737177918 L 4139432.630988442,-1625434.7382607013 L 4147455.5380094033,-1626327.2564395592 L 4158196.0877591013,-1616982.9931049505 L 4175285.4107077224,-1592165.582967045 L 4179688.0965685956,-1590725.037735329 L 4182405.850616823,-1591324.7577730173 L 4191004.9473221307,-1611249.090613879 L 4197679.663990096,-1626725.8188674396 L 4210137.873482734,-1655628.0815104153 L 4217247.626720718,-1672183.5251981826 L 4223846.3121764725,-1667375.986982408 L 4230423.290331519,-1658921.3965864074 L 4237924.331579643,-1654964.9358624513 L 4245947.127281114,-1652520.586153562 L 4249849.877308835,-1652211.6068783118 L 4254796.136243253,-1648857.2680314332 L 4272102.866157392,-1628241.3785348875 L 4278168.887849699,-1623436.5715104654 L 4286289.644703069,-1622953.9220546249 L 4320533.412502423,-1629611.1273340394 L 4340981.80108573,-1641633.3353411355 L 4344112.661764291,-1646391.0763035715 L 4349722.162224855,-1646391.0763035715 L 4356538.254646128,-1641060.5065151837 L 4359114.744260537,-1635955.654906153 L 4363506.632130805,-1629274.3743161198 L 4371529.427832276,-1628230.1118108637 L 4391119.097863604,-1633007.7642302308 L 4400663.8536432,-1635865.8389503085 L 4408795.4084871765,-1633490.6038316186 L 4419155.468217344,-1631531.1299028045 L 4425634.596539984,-1631531.1299028045 L 4441104.109578071,-1624822.9605682534 L 4459693.573984622,-1626944.7032149194 L 4468433.935123747,-1626591.0863675307 L 4477435.1178298,-1623728.4184995298 L 4492089.326917318,-1613033.0566767913 L 4511157.131175807,-1600065.3154793596 L 4538443.430800581,-1590797.820787677 L 4544074.63856185,-1587031.2771575223 L 4557261.211482749,-1572278.3002228416 L 4577720.509376153,-1543961.0375016332 L 4604495.963857678,-1516892.1212285007 L 4633673.804270012,-1495541.07304609 L 4649262.874441212,-1480754.3551299106 L 4659786.01722539,-1462689.0410972903 L 4670091.75304405,-1446291.2422709817 L 4680604.097837622,-1439244.1851942465 L 4690366.260582738,-1433631.3199979034 L 4700465.498745977,-1421138.3931648275 L 4707694.6977975825,-1410672.3536931062 L 4717554.821694597,-1398834.9744074622 L 4706629.370270691,-1382634.6055481231 L 4692018.687104074,-1360977.1924094358 L 4674961.980766255,-1335735.3470506223 L 4669809.112856926,-1329536.3225068331 L 4654894.08220248,-1314288.6552065376 L 4652339.411208265,-1309997.785514809 L 4649425.957495224,-1298981.8001385701 L 4649219.3485203115,-1278963.1204611708 L 4651154.415228771,-1253409.9209349323 L 4652959.015494021,-1229892.0007731079 L 4661188.420170404,-1227096.0107696455 L 4670678.852038494,-1225418.5059304012 L 4681223.702123378,-1228518.8092122902 L 4693921.13720173,-1231154.4568664378 L 4709716.705028351,-1232699.3379483742 L 4727197.427306601,-1237445.1090696047 L 4737503.163125261,-1241266.7148592542 L 4748330.653397269,-1240989.7096587878 L 4757929.844407863,-1236913.50827111 L 4762582.66516455,-1233158.8583083758 L 4769387.959595215,-1231874.213104205 L 4778139.118724946,-1232029.234318515 L 4776290.992538796,-1227599.7888125435 L 4771475.200047589,-1221133.7934995526 L 4765561.352099196,-1214646.822370467 L 4760364.958268966,-1207950.8797378675 L 4748841.6098600095,-1189198.1822875633 L 4748493.73645128,-1186775.9750006357 L 4749917.846696999,-1183104.3096842214 L 4756146.951443318,-1174518.368475254 L 4762658.696376761,-1160695.716544717 L 4766300.513518063,-1147994.2139306357 L 4769105.319408091,-1141852.254774287 L 4776997.648666352,-1134811.2794853759 L 4788379.621322001,-1120314.0397461876 L 4794413.026403505,-1110551.1790930142 L 4806958.287737944,-1105325.7962765463 L 4811056.62611099,-1092919.3950060366 L 4820481.8247574745,-1074728.0820034181 L 4830635.3868322205,-1060187.8401777777 L 4840451.984808334,-1048815.2697441946 L 4851420.850833649,-1044441.2875410328 L 4855812.738703916,-1044066.6295365554 L 4878772.383680029,-1023018.7145892223 L 4896252.994638788,-1007017.1802969545 L 4900601.467907645,-1004447.138436235 L 4932149.188959477,-993970.6154615365 L 4968414.963989601,-981918.2799829564 L 4997527.68249982,-972244.7501598482 L 5034641.378091317,-959929.2414883412 L 5071211.611928759,-947793.2005672386 L 5105477.087028818,-936187.9469922154 L 5153646.70048743,-919884.2256377377 L 5192467.25783126,-906748.9136093317 L 5223058.299179213,-896400.422831743 L 5229591.862732853,-893134.380666989 L 5266042.428117693,-893134.380666989 L 5303003.949965275,-893134.380666989 L 5340911.353526127,-893134.380666989 L 5313461.970847339,-866416.6497466653 L 5282425.094938758,-836221.7255576153 L 5249801.137049936,-804500.2095538832 L 5228809.064073594,-784101.1420720258 L 5195478.450057217,-751722.2243971617 L 5167779.043802109,-724827.4694278652 L 5139264.33359643,-695413.8015639598 L 5113456.4681288805,-668829.5492195841 L 5079908.447146985,-632019.8235288804 L 5058188.122061873,-608214.2740956396 L 5024161.649908547,-570903.6275300276 L 5002756.581621362,-547473.7200299896 L 4999538.7804204915,-546120.6840248553 L 4968925.920452341,-547893.7136584449 L 4939193.597656366,-549617.7347005211 L 4901188.455582598,-551827.4005566142 L 4896818.275013035,-551778.2365614201 L 4885751.559155313,-549568.6839052599 L 4879044.114557056,-547408.2463763339 L 4851692.581710676,-541101.8156546288 L 4846659.270934457,-539465.3539867827 L 4823917.032923864,-529417.9971594771 L 4800729.182991626,-517588.5249243161 L 4788520.997075308,-508525.48210812133 L 4779052.272507924,-495347.0734418786 L 4775019.167356484,-485943.0983889594 L 4770779.453230131,-481827.4895507505 L 4763539.344868426,-478229.83114860806 L 4714956.624779481,-469329.15984939947 L 4700845.988765508,-468146.43175207457 L 4678103.750754915,-461034.2156641282 L 4665993.414671006,-449132.8733162817 L 4662503.771273618,-443155.45098541724 L 4646218.95428496,-443302.63606790546 L 4617747.770000182,-441542.67944615695 L 4605561.29138457,-439635.6885041409 L 4599603.917515277,-439286.98902564455 L 4588689.375401469,-439341.5534334964 L 4579731.718616316,-441509.98465317156 L 4573806.961357825,-444741.02279501443 L 4566414.679252207,-452053.6005035952 L 4549923.253288638,-466882.01540773676 L 4537965.090948642,-476114.97863839596 L 4511635.471027746,-465465.0380971879 L 4487958.37193347,-454870.8549609317 L 4454355.9157205755,-439831.85345932766 L 4435212.080249875,-429066.3763298277 L 4429439.496735299,-418220.34689419414 L 4414654.932524062,-398541.5308698074 L 4401446.540982969,-386424.5404227295 L 4396500.28204855,-384965.26080176205 L 4366561.350277662,-387491.94069781265 L 4355744.657996262,-389958.7909833153 L 4337872.647707875,-392158.80796383694 L 4313934.61572718,-396439.3052995616 L 4297823.791102633,-401025.04132030596 L 4280408.413365479,-401553.29424341803 L 4255220.1521836845,-403132.71552009904 L 4239728.931844893,-406460.5121456947 L 4224009.395230483,-417381.5392229329 L 4203745.797001894,-430537.2344355622 L 4182884.1904687616,-444070.81435103784 L 4161403.090969365,-458009.7361322533 L 4136030.039432854,-474049.18265919905 L 4108308.81455755,-491569.07698712964 L 4101927.5360673163,-493340.87406639126 L 4099188.074718385,-493651.6040022759 L 4069064.3525927803,-494447.5826450592 L 4037766.6551172705,-495281.7550727801 L 4016622.519716504,-495837.8002835187 L 4009947.691729049,-497893.19043913606 L 4005131.7879183507,-501878.838333186 L 3998576.5170640065,-514834.61384267 L 3990314.4957768205,-524083.9067323482 L 3981128.5227160514,-535854.2703509807 L 3980356.6333668907,-551772.761482161 L 3982933.1229813006,-569102.6572095614 L 3985270.387009997,-574843.9255249823 L 3983955.0359067833,-580563.6375431234 L 3984281.0906953164,-588440.0564049607 L 3979117.4247953794,-595755.0982573659 L 3948352.2797638243,-604151.9815281881 L 3943384.2022092114,-603502.2029254277 L 3938253.152920077,-600357.3894578203 L 3932393.628883192,-598091.7603888288 L 3928197.440677739,-600237.3024035955 L 3925642.6583640333,-603365.7848760559 L 3925555.7178417235,-608492.7214381888 L 3926055.7649943666,-612336.8668997419 z" /></g>
</svg>
