<?xml version="1.0" encoding="UTF-8"?>
<svg xmlns="http://www.w3.org/2000/svg" viewBox="2295649.240813341 -11089853.73746333 1214980.4409370194 2730964.436602745">
  <g id="map"><g><path fill-rule="evenodd" fill="currentColor"    d="M 2688974.508952705,-9823753.468282072 L 2677124.9944357243,-9874066.859820463 L 2671069.882053515,-9893383.169017468 L 2661351.133909808,-9917536.544599866 L 2644000.989394259,-9929362.014971318 L 2640609.1958292793,-9936057.308063604 L 2638304.548411386,-9946334.844568597 L 2637554.477682421,-9960629.856414435 L 2635358.478087542,-9981829.128117107 L 2636271.6318705194,-9999270.268940546 L 2638402.3982437933,-10009682.609789245 L 2645881.620871721,-10016687.104050547 L 2656698.313153122,-10036471.83314935 L 2658959.545969606,-10050884.954061307 L 2659883.609062681,-10073048.976738663 L 2664862.4846079,-10092457.292638445 L 2670395.842536762,-10102292.515272265 L 2669004.348901846,-10110123.47858543 L 2665188.6507159253,-10121340.099886082 L 2657122.3290935536,-10137290.129997239 L 2644838.000645534,-10156796.084228892 L 2635749.8774171714,-10175491.95026577 L 2631760.1868671402,-10193021.8696445 L 2629705.5630255686,-10208717.417418672 L 2630042.5271242,-10223030.002293598 L 2633445.229999278,-10232784.86142803 L 2645055.518930544,-10245089.733195987 L 2646609.9842999815,-10250319.502288124 L 2642011.598774293,-10277604.086837832 L 2633912.660541119,-10282575.331049673 L 2620138.9886257765,-10285225.280425625 L 2612453.1570229367,-10285451.985227063 L 2610985.632175809,-10288443.385774225 L 2610605.1421562773,-10293947.312090356 L 2612159.718845206,-10305195.989965566 L 2616508.0807945724,-10318100.482070548 L 2620128.1906351694,-10326336.800011354 L 2620606.530487108,-10333326.833716746 L 2616029.7409426337,-10357303.178527249 L 2614649.156617815,-10386812.783201026 L 2616214.5312973503,-10410009.385441493 L 2630803.5071632625,-10427176.248287868 L 2631466.6373699186,-10433458.493452912 L 2613138.105849788,-10452150.2803812 L 2599918.9163180864,-10473398.02333269 L 2595809.6686349437,-10485833.740958523 L 2580666.3217048803,-10487716.43553477 L 2571241.1230583955,-10523966.439245487 L 2557608.82689636,-10541685.439402707 L 2544106.997177535,-10557031.765755186 L 2536127.6160774734,-10564186.547198543 L 2489338.5869436804,-10586302.256051091 L 2470749.12253713,-10590523.925175717 L 2448746.1572648943,-10603470.55929297 L 2432352.581133732,-10619759.473583147 L 2418307.178341363,-10630257.769448895 L 2406283.8940992537,-10643220.446026456 L 2389520.7372586587,-10655369.85527419 L 2384726.5407486646,-10665772.904436354 L 2366626.3255041507,-10685079.482299184 L 2358125.0786312497,-10697815.4472418 L 2328642.890731087,-10721938.511818778 L 2327577.451884704,-10731475.327963253 L 2327360.0449191853,-10740692.33859659 L 2326033.784505874,-10744525.259353647 L 2295649.240813341,-10762247.48266101 L 2301628.3219833383,-10772403.830905903 L 2325381.5636093165,-10773012.751231894 L 2345025.5575521514,-10763767.000235673 L 2349341.302890716,-10767719.079674685 L 2351939.499805831,-10775935.015425146 L 2343568.8306956305,-10808988.530766854 L 2345068.9721535607,-10817621.63662613 L 2353711.4834602783,-10828029.797673464 L 2367409.012843918,-10836333.805809101 L 2389053.1953973267,-10837531.704864569 L 2403805.254317251,-10836302.980301745 L 2406925.2056857143,-10835396.835547308 L 2428960.898888243,-10798945.635960814 L 2447854.710782622,-10763569.378478713 L 2457899.625034353,-10748541.987299697 L 2482468.170610901,-10706158.189173328 L 2491654.143671671,-10681745.282784196 L 2494774.206359625,-10664320.09565636 L 2504764.685380358,-10664424.99677203 L 2539312.8006675416,-10656790.739398869 L 2568327.669345354,-10650375.818006989 L 2576415.69826843,-10640652.662526762 L 2596418.363610601,-10642608.297358869 L 2611833.552737181,-10651377.456781488 L 2639054.619140351,-10662478.146805407 L 2646349.162733053,-10676146.92953149 L 2655415.578660711,-10690760.282773836 L 2671374.229541344,-10688460.555402314 L 2688822.335208791,-10676912.34843205 L 2708629.300886147,-10661759.412104042 L 2726272.9948989176,-10654756.619513087 L 2749950.205312684,-10643787.695559844 L 2760995.102550211,-10629631.824546695 L 2776464.615588298,-10625594.923301794 L 2792662.492054646,-10639742.444907524 L 2802229.066454438,-10678262.718016578 L 2810719.29269775,-10695513.03901793 L 2822742.68825935,-10708192.832400324 L 2836516.248855202,-10713802.34718117 L 2847028.593648774,-10715824.123421721 L 2854975.358138033,-10725715.431146896 L 2866292.0975720775,-10747723.487152638 L 2868498.895157563,-10774473.57114962 L 2866324.7141828802,-10823061.219884416 L 2868390.247334549,-10839160.279076507 L 2877630.5443068263,-10865593.353344781 L 2890023.52057786,-10936124.539689576 L 2895589.4951175237,-10956587.792731892 L 2902373.0822474845,-10969058.159588533 L 2911689.521751464,-10976485.353913141 L 2928615.761646072,-10998108.67110744 L 2952793.0192124816,-11041119.024967737 L 2959348.1787473345,-11044776.166532507 L 2976709.2325729807,-11046962.183265131 L 2998310.00052498,-11045362.257485362 L 3017725.6781921983,-11037764.189463565 L 3019823.8279546695,-11038349.675548065 L 3028520.663172894,-11042306.188478975 L 3044370.666230513,-11055728.238011701 L 3071493.8828012752,-11082476.422277959 L 3088876.755247118,-11089853.73746333 L 3104694.030374443,-11088817.53152506 L 3122207.369263495,-11059504.41996357 L 3146906.3812832525,-11026999.531941632 L 3162778.091641576,-11011269.957395589 L 3206044.860767179,-10981880.802657098 L 3244028.2955402425,-10962608.949540434 L 3265378.9285964295,-10899318.08937147 L 3254855.7858122503,-10874267.472401295 L 3249615.9773806115,-10865654.954046562 L 3231037.3109646677,-10840835.196316166 L 3211154.2027556086,-10805960.33153243 L 3209632.242677483,-10787849.906300327 L 3216231.039452727,-10769635.392772062 L 3224460.3328096196,-10757615.398353772 L 3217013.726792494,-10753790.35639302 L 3193999.7579048746,-10738693.5822681 L 3179954.3551125056,-10728526.81116246 L 3163038.913208504,-10721077.417599963 L 3167430.9123982624,-10711223.387722125 L 3195532.515973607,-10709142.457456501 L 3199859.1706222696,-10706339.035553586 L 3202979.233310223,-10701277.760534646 L 3203511.8970736684,-10693196.31237796 L 3200663.6765822326,-10680154.113657989 L 3170300.8401904036,-10608653.207688535 L 3169344.1604865263,-10593680.423660783 L 3179302.022896457,-10552212.039638957 L 3193216.9592456156,-10503630.087951923 L 3235277.0250910204,-10482143.076092213 L 3266542.217275219,-10465405.961463775 L 3286621.0251490925,-10425961.192669624 L 3319723.322889853,-10374281.684845636 L 3337269.167070216,-10355069.334703464 L 3338258.463384896,-10349115.953874553 L 3333040.362253961,-10313815.34615941 L 3311820.0843214933,-10278623.626818927 L 3291969.5927232374,-10249092.756879421 L 3271423.2429880314,-10213681.296072954 L 3255355.832964894,-10183629.776296942 L 3237951.364537838,-10147786.448147472 L 3235951.0646077734,-10136208.247346899 L 3235635.8078098465,-10125286.09055691 L 3238625.2927351007,-10113233.706866434 L 3260911.0095139504,-10069846.960087346 L 3269586.0261119795,-10047802.806175714 L 3279956.995152244,-10024040.240889339 L 3288860.439345381,-9998236.686751246 L 3294024.2165648085,-9975198.252610836 L 3302949.256739159,-9952830.098355135 L 3308493.5239781183,-9941423.314842537 L 3317712.2249691817,-9925471.888823355 L 3328833.264738411,-9901813.745405411 L 3332529.4057912203,-9883129.619942555 L 3349325.1792426184,-9818662.492813146 L 3351021.0203653635,-9802327.719435092 L 3350194.9184241868,-9790266.174074033 L 3342813.4343091752,-9787297.063100627 L 3326517.7080104207,-9785384.267137323 L 3308852.306696945,-9777487.901033862 L 3307960.8602146725,-9774840.314536855 L 3319484.208623629,-9759802.82058098 L 3309308.827928688,-9734196.723620297 L 3307841.303081561,-9697694.011490377 L 3296970.286888652,-9678610.720171766 L 3295948.37396317,-9674182.395080978 L 3296437.5118057155,-9670483.360450462 L 3298361.7805235684,-9667590.29549829 L 3318494.9123089495,-9662507.668183638 L 3320234.2793525937,-9657351.26300418 L 3320321.2198749036,-9646687.20986383 L 3318527.5289197513,-9636853.047063215 L 3308417.4927659067,-9629560.548310531 L 3297557.2745636054,-9618784.209135711 L 3295154.777313305,-9608885.957442597 L 3295524.358022739,-9600054.955095265 L 3299231.4083856456,-9585169.098570762 L 3306373.666914942,-9567858.7002245 L 3315450.9921526974,-9557010.267126234 L 3347694.571341479,-9546752.140655454 L 3351858.142936129,-9538278.721745832 L 3353630.126590576,-9526687.490726605 L 3352956.087073823,-9515381.716776887 L 3337975.823197772,-9492824.34750906 L 3338095.3803308844,-9484162.787685396 L 3344248.453864991,-9463254.093409128 L 3351618.9173504137,-9443349.53617787 L 3383068.89988933,-9421847.266329546 L 3393896.501480828,-9410082.36268707 L 3396777.338583067,-9400734.673661599 L 3398353.6225727005,-9385689.072683757 L 3398147.013597788,-9369419.583747113 L 3395679.283125882,-9354998.51546532 L 3385819.270548359,-9336447.421670817 L 3362990.0920154555,-9299994.309992911 L 3340041.356349441,-9285885.530580672 L 3338638.953404427,-9282826.436543848 L 3345748.595322922,-9271228.529739074 L 3386178.053267186,-9224926.89273003 L 3412529.380488788,-9203357.860325385 L 3448099.520020944,-9174349.817461077 L 3471037.3463768614,-9151509.982226035 L 3478451.447102675,-9135128.745873697 L 3488387.602211901,-9116960.334032686 L 3499552.167902031,-9102142.892411496 L 3507596.670904207,-9089304.134285798 L 3510629.6817503604,-9081060.392667627 L 3510347.041563236,-9072205.720725082 L 3499584.7845128328,-9045565.042039292 L 3493475.2368996255,-9025038.939319625 L 3482702.0705391252,-8995055.635811504 L 3471689.67859291,-8974202.619412003 L 3443751.046752087,-8936327.47110847 L 3402549.8107781527,-8889459.58435006 L 3392983.347697851,-8875335.37260751 L 3373698.0251543517,-8850811.53577884 L 3340693.577245999,-8801839.63073855 L 3332148.915771689,-8791073.175479792 L 3305090.932422531,-8752306.982609699 L 3292763.1893731025,-8740019.13703351 L 3283077.057840198,-8728547.99703849 L 3256279.8960579685,-8692206.253186315 L 3227482.545665166,-8664741.70637236 L 3199217.8590358095,-8639323.267351793 L 3190738.4307831037,-8626473.498467995 L 3180193.4693787294,-8616691.39622211 L 3167604.7934428817,-8607392.129706837 L 3162299.7517896374,-8602193.730776703 L 3133861.07279617,-8567698.650965996 L 3094420.911166586,-8520081.637526153 L 3090409.5133158504,-8519341.166317288 L 3080136.394107993,-8511676.979745531 L 3064079.893394953,-8509822.6397709 L 3057100.6066001775,-8503965.474279026 L 3032553.8796438253,-8520656.27846859 L 3028477.1372519936,-8521739.36946906 L 3014040.446449487,-8517595.516527323 L 3000190.7433219324,-8505465.070115965 L 2974621.9921206073,-8501760.451244023 L 2961924.6683617444,-8497837.258612322 L 2953825.730128571,-8492242.84235621 L 2952162.5056166286,-8505487.205002548 L 2955662.9470046232,-8522314.14047515 L 2961294.154765892,-8533553.533784388 L 2961815.90921924,-8540886.366363525 L 2957684.954235392,-8540121.775479246 L 2949499.075479909,-8523629.786533171 L 2945117.9856002484,-8504406.513318695 L 2936355.9171604193,-8494764.13186032 L 2917092.5245566065,-8490822.814091492 L 2898318.1584758484,-8506237.120243115 L 2889403.916292105,-8506082.83924313 L 2895002.5074425708,-8495039.517024558 L 2898785.5890176897,-8482935.267235754 L 2898296.451175144,-8476165.63573503 L 2888284.153534215,-8477351.974324984 L 2877141.406464281,-8470115.659678316 L 2867368.334409067,-8459542.651447594 L 2862628.573130071,-8459520.879180681 L 2856062.3929656297,-8474298.435210815 L 2844017.290103325,-8467394.077186566 L 2833722.4635947635,-8458128.934796095 L 2812806.5331501244,-8455236.814218579 L 2800337.414347388,-8443077.68869613 L 2778269.2158535477,-8434880.829995135 L 2766147.970459541,-8435077.46908841 L 2738513.7974260366,-8425220.22508262 L 2729327.824365267,-8410050.843984043 L 2721272.3007335025,-8404479.177036371 L 2709803.387555544,-8409169.125453202 L 2674472.4736091024,-8401781.999322936 L 2640696.1363515886,-8392099.546052288 L 2626324.6787706865,-8392653.363370568 L 2611953.109870293,-8396672.788918266 L 2596722.822417921,-8383232.351953441 L 2580546.6532522775,-8365292.117883368 L 2562718.16888479,-8358889.300860586 L 2556325.981084459,-8361181.458183652 L 2561435.434392379,-8370585.182007653 L 2573230.513678362,-8380325.990996325 L 2581329.451911536,-8393554.906868612 L 2582438.3053593277,-8404598.812142115 L 2576872.3308196636,-8408940.631559722 L 2569273.4397391337,-8410268.670366287 L 2559696.067348734,-8421708.37084385 L 2550520.8922785716,-8446577.807772622 L 2545552.8147239583,-8447945.37909549 L 2543030.7603405453,-8441404.71656466 L 2540215.1564599113,-8422340.796286132 L 2537356.026658377,-8416858.010296058 L 2532496.708246269,-8412500.591621794 L 2526658.891510088,-8408113.431517981 L 2520962.450527215,-8405980.437695682 L 2500535.769244612,-8406241.596509406 L 2497850.6318071876,-8415844.722644191 L 2497850.6318071876,-8419865.893057352 L 2501470.741647785,-8432532.752593089 L 2498307.264358422,-8434749.740187628 L 2501318.5679038707,-8444696.160592329 L 2506134.3603950785,-8444160.363482203 L 2511841.7106880494,-8445637.035981653 L 2514700.729170093,-8450758.181715712 L 2514483.322204574,-8456879.955459515 L 2506547.4670254122,-8458468.70468829 L 2506058.3291828665,-8462645.073618978 L 2513135.354490558,-8480121.143800922 L 2514146.3581059426,-8484958.500841025 L 2511406.8967570113,-8485959.514133299 L 2506971.4829658438,-8484056.714721434 L 2477739.2073225114,-8489546.173079787 L 2441679.92994781,-8511974.929405648 L 2432809.213684966,-8513134.064294111 L 2427351.8869683165,-8533221.603427172 L 2418655.0517500923,-8530675.717323558 L 2405979.4352919348,-8518910.315316267 L 2396467.29612314,-8527843.209911842 L 2386248.50082679,-8533730.841548579 L 2383422.098955549,-8542936.79016461 L 2383563.3633893654,-8556539.786529591 L 2382682.826217191,-8572616.559785275 L 2379888.929637261,-8591473.21097178 L 2377845.2151057874,-8618359.945032688 L 2379758.4631940513,-8639435.75799545 L 2387911.8366582235,-8655076.890923142 L 2391042.697336784,-8665079.901489776 L 2394869.304832803,-8690678.93178785 L 2395728.0233847825,-8720774.458474733 L 2393564.751720196,-8731050.016721245 L 2394108.3247937397,-8737889.66660823 L 2400609.1604170855,-8737889.66660823 L 2399195.959481465,-8743766.99223649 L 2396336.82967993,-8746981.180938387 L 2393173.3523905673,-8753676.024997255 L 2395869.3991380893,-8757225.662722085 L 2403653.0805733367,-8757476.769656608 L 2404283.59416919,-8759737.59114272 L 2405164.1313413647,-8762935.934885556 L 2399141.524250467,-8780574.842846423 L 2398445.777433009,-8788997.465048635 L 2390086.0176329063,-8814624.019400684 L 2380552.0598439164,-8839001.998103354 L 2366202.3095637187,-8856688.586680079 L 2371289.9442514437,-8885902.555801645 L 2377084.2350667245,-8912412.19485141 L 2375931.8556980323,-8925218.820963498 L 2373714.2601219397,-8940834.39188304 L 2356146.597321381,-8957997.957516996 L 2353537.602415659,-8982254.019289833 L 2349243.4530583085,-9008388.45006423 L 2350863.2629688415,-9024458.56090827 L 2353722.3927703756,-9036777.893238327 L 2359494.864965461,-9049070.939687496 L 2388640.2000864837,-9088001.280120866 L 2390422.9817315377,-9108409.01963199 L 2410175.7348168776,-9109895.566903226 L 2401011.357737322,-9128190.022613743 L 2398848.086072736,-9138486.24988345 L 2398391.4535215017,-9150521.198724775 L 2426808.425214264,-9158772.991709745 L 2437418.5085207527,-9151992.323131531 L 2462421.9793478292,-9160366.73164709 L 2484620.6442848793,-9176781.71918217 L 2484229.2449552505,-9185512.314486006 L 2480815.7440895652,-9193343.841472812 L 2476108.5994213717,-9208449.186342208 L 2479445.9577553542,-9212644.129568733 L 2487544.895988528,-9209555.579009324 L 2483827.0476350146,-9217072.838251527 L 2484500.9758322765,-9225012.229087744 L 2493339.186803809,-9221711.055791402 L 2507765.079615709,-9243897.431311512 L 2508286.834069057,-9260898.288716346 L 2533214.162364432,-9269806.171192236 L 2561957.188845727,-9304662.419694727 L 2575219.9042983283,-9315550.01988579 L 2588036.785190303,-9323439.713336485 L 2615333.9941251758,-9358523.614626992 L 2627020.425588144,-9360162.4619271 L 2633032.1233689445,-9383919.79432946 L 2656241.7919213786,-9415649.537556894 L 2663297.1099283653,-9419718.09246676 L 2674146.4188205684,-9448465.01179212 L 2702650.21971615,-9481837.807001343 L 2720717.929669352,-9524615.521725047 L 2730686.7013893803,-9539870.804644076 L 2733774.0361470412,-9556154.722165238 L 2744873.3686155654,-9557533.790528508 L 2754885.6662564944,-9569521.39515578 L 2776551.6674300986,-9577891.377945857 L 2797934.917097088,-9575573.847648472 L 2806838.3612902244,-9569879.496909102 L 2815067.765966608,-9571683.380496638 L 2814241.5527059403,-9586386.853516728 L 2808371.1193589573,-9595483.089150568 L 2813165.3158689514,-9604231.221345501 L 2824471.1459928975,-9610867.181864806 L 2823318.877943696,-9625549.83196996 L 2820861.9454623978,-9634399.958884034 L 2811469.3634267156,-9646208.91927382 L 2816144.002803597,-9672728.43891256 L 2817263.654241996,-9701902.55831165 L 2821709.977343261,-9735754.937709097 L 2809903.98874718,-9753760.11634841 L 2765104.350233354,-9784500.721087115 L 2756744.5904332516,-9783432.29525611 L 2746797.5260139275,-9787297.063100627 L 2736404.8496729587,-9810688.923740301 L 2741046.7611195473,-9830932.201619714 L 2741579.4248829926,-9838410.909721559 L 2737524.612430848,-9838184.997632535 L 2730958.4322664067,-9828303.999532018 L 2716673.9152078135,-9817019.509854851 L 2698106.158101968,-9825677.056751097 L 2688974.508952705,-9823753.468282072 z" /><path fill-rule="evenodd" fill="currentColor"    d="M 2448387.3745460673,-8475078.233395264 L 2440288.436312894,-8474089.723359052 L 2428841.23043564,-8485244.555058075 L 2427395.412889217,-8489612.20855845 L 2431885.1505918913,-8492143.641102353 L 2428917.3729673424,-8501132.211077705 L 2429797.910139517,-8505112.276150247 L 2438657.828411754,-8498013.704158315 L 2443495.439523157,-8489722.193883473 L 2438766.587554259,-8487796.562126903 L 2446778.4739456326,-8479253.035699552 L 2448387.3745460673,-8475078.233395264 z" /><path fill-rule="evenodd" fill="currentColor"    d="M 2361951.6861272687,-9159666.490597757 L 2363147.5914168605,-9155056.059190843 L 2369670.134340911,-9156322.99487274 L 2378454.0214009355,-9164726.732309377 L 2384683.1261472553,-9160801.2024279 L 2383976.470019699,-9148809.178452045 L 2379747.6652034447,-9149267.388846565 L 2378584.4878441454,-9151244.745649993 L 2373159.7777382983,-9144398.67800688 L 2372192.3000438143,-9140255.716892365 L 2365919.6693765945,-9137619.55085043 L 2354331.0877460334,-9149327.62989841 L 2347047.5647829203,-9168629.91271948 L 2364017.219278938,-9168678.18681729 L 2362397.4093684047,-9164074.306685297 L 2361951.6861272687,-9159666.490597757 z" /><path fill-rule="evenodd" fill="currentColor"    d="M 2468520.6176509387,-8482748.37598438 L 2482620.3443548153,-8477527.927839171 L 2488544.9902938153,-8479395.725182252 L 2495285.0515028755,-8467591.588322742 L 2483859.664245817,-8460090.795143684 L 2483066.0675959513,-8450801.898596251 L 2487577.5125993304,-8445035.309885336 L 2489164.705899061,-8436694.180470606 L 2477782.733243412,-8436705.14471454 L 2472336.3158368603,-8443722.929334713 L 2469966.435197362,-8452641.381932208 L 2464672.191534725,-8458951.007434627 L 2457616.8735277383,-8463763.425360695 L 2461073.900314323,-8470181.52054236 L 2463041.583633585,-8479395.725182252 L 2468520.6176509387,-8482748.37598438 z" /><path fill-rule="evenodd" fill="currentColor"    d="M 2387900.9273481253,-8518600.996216476 L 2386346.350659197,-8508079.481772412 L 2378790.9854995674,-8509248.847800734 L 2371105.153896727,-8507340.222352471 L 2364908.66576121,-8517783.524404814 L 2361593.0147279324,-8535424.777960317 L 2362723.575476429,-8539224.067530656 L 2367550.277277735,-8543236.014390592 L 2371246.5296500344,-8533542.65058324 L 2387900.9273481253,-8518600.996216476 z" /><path fill-rule="evenodd" fill="currentColor"    d="M 2430461.0403461726,-8431091.353494791 L 2419318.1819567475,-8423409.477643624 L 2415078.5791498856,-8425241.89599039 L 2416165.6139774825,-8438202.0293728 L 2422786.118053431,-8444138.412761217 L 2433928.865123365,-8444805.699174786 L 2430461.0403461726,-8431091.353494791 z" /><path fill-rule="evenodd" fill="currentColor"    d="M 2407653.5691139745,-8423780.258126877 L 2397891.406368858,-8421566.573871031 L 2391814.4753664536,-8428024.345261285 L 2394119.122784347,-8432838.465692269 L 2400935.32652511,-8438202.0293728 L 2408294.9920199253,-8437459.031635484 L 2409860.478018951,-8431167.82149801 L 2407653.5691139745,-8423780.258126877 z" /><path fill-rule="evenodd" fill="currentColor"    d="M 2766093.646548033,-9606005.482972724 L 2749471.865460745,-9597268.033308128 L 2736078.683564934,-9602727.437918955 L 2735850.478608808,-9619672.988744514 L 2744155.914497403,-9627883.877838911 L 2759168.7949842564,-9631173.40325367 L 2779715.0333999707,-9622958.675483325 L 2782715.5389548126,-9618578.188694336 L 2770942.166969535,-9615294.546694668 L 2766093.646548033,-9606005.482972724 z" /></g></g>
</svg>
