<?xml version="1.0" encoding="UTF-8"?>
<svg xmlns="http://www.w3.org/2000/svg" viewBox="-20037508.342789244 1400037.4357133312 40075016.68557849 1076209.0798781132">
  <g id="map"><g><path fill-rule="evenodd" fill="currentColor"    d="M 20037421.402266935,1824250.6455409734 L 20020614.719505437,1839683.2427927519 L 20014559.60712323,1847647.1736087704 L 20009471.972435504,1856463.8606627018 L 19995111.312845208,1865919.0355675234 L 19988990.8559219,1878600.3053132433 L 19989436.579163037,1891447.711576063 L 20003786.32944324,1878021.7209301356 L 20019810.324864965,1867053.064872549 L 20024702.259887874,1864841.8421330636 L 20029757.2779648,1864955.2834798596 L 20029333.373343855,1868697.4280315842 L 20027039.52391657,1872406.2820836194 L 20025267.540262125,1882095.1352219933 L 20029485.547087774,1891095.8245622495 L 20017560.00135858,1890221.6530802594 L 20005754.012762498,1890993.6423643671 L 19991752.135891028,1896046.0071511054 L 19978000.282595884,1898260.33409443 L 19972869.121987253,1898317.0818313905 L 19967933.661043447,1896625.0619072777 L 19964704.95053248,1894036.2933026399 L 19962182.89614907,1888030.796124547 L 19959639.02314546,1887134.1973511179 L 19948713.683041044,1887406.520576454 L 19932363.63283078,1899134.7073381247 L 19926949.83203503,1909210.2387799246 L 19920666.403377205,1909653.3978952612 L 19913241.393341295,1907562.8682939033 L 19904251.11994534,1915255.4968836224 L 19893532.277496345,1918051.497454439 L 19888901.164040364,1911516.8816616873 L 19885900.76980501,1903518.8417285965 L 19882074.162308995,1897624.3740511735 L 19870246.46641221,1896148.2127002773 L 19872061.975987554,1888961.6048964367 L 19875203.634656724,1885987.7567175343 L 19878073.562448863,1881732.0089501422 L 19879834.748112705,1876853.0959958697 L 19885476.75386458,1879950.5101790442 L 19891271.04467986,1881936.288536121 L 19897750.173002504,1878282.6629505034 L 19904490.234211564,1877964.908936289 L 19911241.20473072,1867347.9033117157 L 19921796.9641257,1860703.5407536528 L 19936364.121371422,1855443.7589124613 L 19951192.211503554,1851692.4469659042 L 19958867.245115787,1850933.1850619707 L 19966172.5866991,1848757.5414362112 L 19979076.519432873,1838811.1885429202 L 19987610.271597084,1833681.022442287 L 19996905.00380036,1830589.9589863818 L 20005786.6293733,1828778.5306353297 L 20014005.124739587,1830386.1443861995 L 20020603.92151483,1829548.4136053582 L 20037508.342789244,1822439.719037236 L 20037421.402266935,1824250.6455409734 z" /><path fill-rule="evenodd" fill="currentColor"    d="M 19846058.410855193,1964168.2162253521 L 19846058.410855193,1969328.7533901634 L 19849319.73797696,1971562.0137593844 L 19852559.246478535,1971926.6427969171 L 19860614.7701103,1981796.7560719987 L 19873116.394204352,1990291.5118186336 L 19880726.19459498,1996793.1489481626 L 19881182.71582672,2002349.5855257947 L 19878867.15909873,2008227.1672164933 L 19882085.071619093,2018753.865435846 L 19883650.44629863,2029685.9206708635 L 19889194.713537585,2047015.1220729954 L 19881367.506181438,2050308.8813698061 L 19869050.672442105,2050697.8433545008 L 19866202.45195067,2053820.581800804 L 19862006.26374522,2052093.2949189434 L 19851776.55913877,2053385.8765406485 L 19842003.487083554,2059094.8272664673 L 19832697.84557018,2066854.3171275724 L 19821989.912431285,2066877.291411097 L 19809912.19295818,2068479.9288762256 L 19797845.27147568,2067403.8315843344 L 19789355.045232367,2063260.3328937313 L 19774396.488657024,2058751.6360113155 L 19754458.945216965,2054907.3267371822 L 19746207.833239876,2051681.4663676454 L 19739326.507597,2046626.3469357954 L 19732879.99588516,2033879.6424634503 L 19731923.316181283,2027594.9353323583 L 19732934.31979667,2021574.9355247188 L 19738761.22722275,2019541.9535984993 L 19743642.252935562,2016492.911415743 L 19744337.999753024,2012519.4418656463 L 19746490.473427,2009745.4181552276 L 19749295.27931703,2008740.8751722688 L 19750664.95433175,2006823.3302316852 L 19748697.27101249,2000375.6075338405 L 19748153.809258435,1994477.446472764 L 19759709.662958704,1983723.4636243286 L 19772341.864815447,1974558.9247692083 L 19794605.762974106,1966093.3269614412 L 19808216.240515947,1966867.8994068818 L 19829077.847049076,1960352.6843280885 L 19835752.67503653,1957289.3215479746 L 19842383.977103084,1959168.3342209233 L 19846058.410855193,1964168.2162253521 z" /><path fill-rule="evenodd" fill="currentColor"    d="M -20034714.44620931,1912073.6537710542 L -20037508.342789244,1916517.0512665377 L -20037508.342789244,1910096.5659638841 L -20037502.888134193,1904393.4237503102 L -20037508.342789244,1900383.9385807384 L -20037508.342789244,1895875.6656202765 L -20025664.3942468,1885976.483213816 L -20022033.375096105,1884569.0835441584 L -20017728.427748147,1893525.3191244295 L -20022788.90048012,1903405.203286793 L -20034714.44620931,1912073.6537710542 z" /><path fill-rule="evenodd" fill="currentColor"    d="M 20037508.342789244,1916528.456794982 L 20029257.230812155,1920859.1473251693 L 20026039.429611284,1916642.1632559716 L 20029822.511186406,1906392.7984280733 L 20037508.342789244,1895898.3389905582 L 20037421.402266935,1904393.4237503102 L 20037508.342789244,1916528.456794982 z" /><path fill-rule="evenodd" fill="currentColor"    d="M 19869181.138885316,2151889.3189867307 L 19869159.32026512,2156948.0890157977 L 19854831.277285628,2160305.901315027 L 19850004.575484324,2156131.6560119065 L 19846928.03871727,2155372.830073992 L 19838394.28655306,2162767.250255269 L 19835926.55608115,2165803.997121279 L 19835111.252130583,2168093.442769352 L 19832915.2525357,2169243.9218478566 L 19817184.91793069,2172799.585326428 L 19810270.864357516,2169255.468218935 L 19814956.301725004,2166839.3624841073 L 19820652.74270788,2162019.591110677 L 19826457.94283326,2162732.740467993 L 19832306.557560045,2158224.4961306737 L 19838068.12044503,2151360.5480862595 L 19846286.727130808,2149877.6642097165 L 19852080.906626597,2147222.6895876997 L 19861658.390336487,2149142.031524928 L 19869181.138885316,2151889.3189867307 z" /><path fill-rule="evenodd" fill="currentColor"    d="M -19924862.59158266,2034816.8195482225 L -19928238.021182492,2036588.420371222 L -19930553.577910483,2036188.3719697054 L -19933293.03925941,2034313.9359020707 L -19934983.5370466,2031011.3814509537 L -19931488.438994166,2028234.7741021847 L -19926091.00216356,2031388.3950643784 L -19924862.59158266,2034816.8195482225 z" /><path fill-rule="evenodd" fill="currentColor"    d="M -19899685.23971096,2064942.853719206 L -19900989.792823568,2067117.5852153827 L -19906968.873993564,2063569.3784505946 L -19909257.157446314,2061211.8671099355 L -19902908.495566882,2059369.478157921 L -19899815.70615417,2059964.489635968 L -19899685.23971096,2064942.853719206 z" /><path fill-rule="evenodd" fill="currentColor"    d="M -19842824.245689176,2032016.8833648553 L -19849026.18847974,2033251.0975684342 L -19854635.688940305,2028291.8680075214 L -19851091.721631408,2023014.0368307338 L -19846074.66350085,2024259.178483019 L -19843210.190363757,2029354.4517272792 L -19842824.245689176,2032016.8833648553 z" /><path fill-rule="evenodd" fill="currentColor"    d="M -19921345.786229517,1952609.8800844064 L -19924166.844765197,1956594.7325974465 L -19926623.665927008,1955182.8869567087 L -19923465.64329269,1948489.0476923124 L -19923014.46539651,1945598.1052889575 L -19927852.07650791,1942070.4104551924 L -19928156.53531523,1939612.6798315246 L -19926748.67771517,1938099.5446693054 L -19920938.134254232,1942024.85122811 L -19917410.530910484,1945097.3432741545 L -19916709.329437975,1946804.5501820128 L -19917791.020930015,1949786.6890069928 L -19921345.786229517,1952609.8800844064 z" /><path fill-rule="evenodd" fill="currentColor"    d="M -19874437.199962612,2174491.393135266 L -19875687.42916371,2175550.203199685 L -19878736.69265552,2174364.7027872023 L -19881209.87778247,2172765.05776477 L -19881514.33658979,2171084.9476252655 L -19880470.716363605,2168933.3505987357 L -19878062.764458258,2167805.745258579 L -19876839.697212912,2168242.948190305 L -19877540.898685418,2168921.8044186607 L -19879008.53485204,2169681.157067237 L -19878774.763921373,2171798.428765415 L -19876888.67778886,2173087.356672821 L -19875051.460912813,2173432.522928348 L -19874437.199962612,2174491.393135266 z" /><path fill-rule="evenodd" fill="currentColor"    d="M -20015228.191984933,2147912.232909871 L -20014978.05708912,2151383.5020035426 L -20016630.483610455,2151188.1002843124 L -20018609.076239817,2149705.229435546 L -20019625.423190758,2150429.4656648403 L -20020310.372017607,2151498.5074190767 L -20020652.790771287,2153912.717384207 L -20020946.34026851,2155280.878144504 L -20022484.55299229,2154786.393735957 L -20022740.031223662,2152395.1490128725 L -20022234.52941597,2150716.7899271906 L -20021500.71133266,2148257.072491327 L -20018706.926072225,2146015.958712139 L -20015228.191984933,2147912.232909871 z" /><path fill-rule="evenodd" fill="currentColor"    d="M 19729618.66876339,1937951.5921084632 L 19723900.520479817,1939908.4921892243 L 19726944.329316575,1930637.588277308 L 19730183.94913764,1927737.7354917747 L 19732216.865678508,1927135.0357648877 L 19735543.314702388,1926486.9426014228 L 19734249.670899883,1933037.462165853 L 19729618.66876339,1937951.5921084632 z" /><path fill-rule="evenodd" fill="currentColor"    d="M 19973206.086085886,1963564.4969284665 L 19969488.237732377,1966719.865240555 L 19967727.163388025,1950663.1336407599 L 19971564.56887465,1950799.7498540028 L 19974369.37476468,1952461.82790097 L 19975967.366055015,1956503.6693055036 L 19973206.086085886,1963564.4969284665 z" /><path fill-rule="evenodd" fill="currentColor"    d="M 19965074.53124191,2049531.213749841 L 19964085.346246723,2050480.4641126797 L 19954410.124023918,2041126.5515155036 L 19954736.17881245,2037434.1889375048 L 19956442.929245293,2034119.667162282 L 19960302.153352115,2030999.914353674 L 19963802.7060596,2036325.5439247915 L 19966531.25809843,2045185.4839282501 L 19965074.53124191,2049531.213749841 z" /><path fill-rule="evenodd" fill="currentColor"    d="M 19906990.581294272,2005853.1703716668 L 19901261.523700595,2007930.4028851623 L 19898098.046411235,2000797.7526069575 L 19902489.9342815,1993633.3017047811 L 19907381.980623897,1992983.1919586314 L 19909773.568564102,2000272.9059335415 L 19906990.581294272,2005853.1703716668 z" /><path fill-rule="evenodd" fill="currentColor"    d="M -20029653.97347734,1863027.6712924603 L -20037502.888134193,1867347.9033117157 L -20037502.888134193,1861406.3620055164 L -20031235.712122023,1855897.1059747464 L -20026479.69819737,1854752.3815757483 L -20029420.31386617,1860272.734030805 L -20029653.97347734,1863027.6712924603 z" /><path fill-rule="evenodd" fill="currentColor"    d="M -20032627.20575694,1822009.6377742216 L -20037508.342789244,1824216.6857302971 L -20037508.342789244,1822801.8928903718 L -20037508.342789244,1822439.719037236 L -20034100.296578605,1819327.4616443955 L -20031339.01660948,1819327.4616443955 L -20032627.20575694,1822009.6377742216 z" /><path fill-rule="evenodd" fill="currentColor"    d="M 20037508.342789244,1867347.9033117157 L 20036084.232543528,1867484.0017654018 L 20035801.592356402,1865272.736520959 L 20037508.342789244,1861406.3620055164 L 20037508.342789244,1867347.9033117157 z" /><path fill-rule="evenodd" fill="currentColor"    d="M 19717073.407428954,1403288.7843832108 L 19712725.045479584,1404446.841878647 L 19705702.344083402,1403500.3009377737 L 19704245.61722688,1401651.8914369391 L 19706485.031423166,1401239.9459986696 L 19711072.61895825,1400037.4357133312 L 19716692.91740942,1400649.8011406239 L 19717682.2137241,1401852.3363856724 L 19717073.407428954,1403288.7843832108 z" /><path fill-rule="evenodd" fill="currentColor"    d="M 19439687.945548236,2474947.8896652046 L 19438818.206366666,2476246.5155914444 L 19435600.4051658,2475825.3709990033 L 19434958.982259847,2473157.8415090377 L 19436850.523047406,2471648.7482085433 L 19439470.427263226,2472666.57511686 L 19439687.945548236,2474947.8896652046 z" /><path fill-rule="evenodd" fill="currentColor"    d="M -19894086.648560494,2352307.8686326644 L -19893852.877629828,2352633.272281244 L -19894456.229269933,2352610.0714614666 L -19895364.03971735,2352191.7479448807 L -19896032.624579053,2351401.6473768577 L -19896195.596313573,2350530.328200092 L -19895858.632214945,2349624.196030901 L -19895527.12277136,2349682.248037218 L -19894929.11446682,2350472.273471673 L -19894374.743402667,2351355.2489290866 L -19894086.648560494,2352307.8686326644 z" /></g></g>
</svg>
