<?xml version="1.0" encoding="UTF-8"?>
<svg xmlns="http://www.w3.org/2000/svg" viewBox="-6806632.490944529 6669179.4028685205 373279.07687629387 186830.60014098044">
  <g id="map"><g><path fill-rule="evenodd" fill="currentColor"    d="M -6551173.740484854,6669179.4028685205 L -6534176.924033083,6679611.423734999 L -6512885.958223962,6675975.95679026 L -6503933.644774367,6678845.937206459 L -6498688.381687678,6687548.599475077 L -6501808.333056141,6695632.908559271 L -6508564.758230348,6694465.0489293365 L -6514331.775770385,6696626.693650765 L -6513184.962376233,6707285.852662221 L -6509265.848383365,6711843.309074344 L -6486762.8359584855,6723589.324863864 L -6482637.224310197,6724288.982206243 L -6483371.042393506,6719357.375293953 L -6487279.247076275,6711301.9241017895 L -6488735.973932797,6702626.24983166 L -6485387.706288716,6695406.391768288 L -6479511.818286685,6693192.784441987 L -6453916.016449097,6689568.926190201 L -6447904.318668297,6692983.822945125 L -6435212.338244991,6713432.974557683 L -6447116.17667348,6716263.550749512 L -6452127.668829503,6725111.237043916 L -6441653.395301782,6728943.610200797 L -6433353.414068235,6734599.150339006 L -6437734.392628404,6743291.383272233 L -6438517.191287662,6747711.319143597 L -6456970.7345959535,6753871.4492105255 L -6473331.694116314,6757822.810549427 L -6480756.592832735,6768087.565462778 L -6493932.256443536,6775530.705309323 L -6532616.892689106,6788603.223316814 L -6528116.245676335,6799189.621315247 L -6527518.348691284,6804293.720805926 L -6529197.937168373,6818085.442365945 L -6582460.639969759,6801555.810227952 L -6589651.879075003,6803322.133122357 L -6575421.685927918,6831475.253145363 L -6585971.99066785,6836688.422777742 L -6596386.485629015,6833301.140877239 L -6605866.008187007,6835641.923645113 L -6611893.958613462,6856010.003009501 L -6627097.195429572,6842987.719090905 L -6640066.250065461,6824458.740610233 L -6640115.230641411,6814104.5909037795 L -6627591.787927167,6794812.205473935 L -6631391.233467433,6786646.416178282 L -6602218.736390657,6760528.353090179 L -6596989.837269113,6752765.491531563 L -6587890.693411162,6748307.77248512 L -6578470.949419728,6746799.117657464 L -6574475.804214646,6743449.209570379 L -6575128.136430697,6737121.681190395 L -6578922.127315912,6726283.496854977 L -6578606.870517985,6708682.429360716 L -6555234.118911539,6684849.725157994 L -6558663.87242288,6669561.595770965 L -6551173.740484854,6669179.4028685205 z" /><path fill-rule="evenodd" fill="currentColor"    d="M -6711032.425446173,6703411.301261733 L -6694927.055476675,6706814.481589288 L -6680136.925290898,6694238.564556479 L -6669939.9486147445,6690230.884551107 L -6661536.662893741,6692948.847845835 L -6655617.3602903,6700567.680085256 L -6647034.627550138,6699364.289819272 L -6622781.338771516,6691589.753058073 L -6619623.316137203,6694238.564556479 L -6610997.168795632,6685215.359064135 L -6603566.815424163,6689429.620313931 L -6597690.9274221305,6697271.727991372 L -6600571.7645243695,6706378.170351808 L -6607279.209122627,6712175.276155863 L -6611535.287214127,6720266.504733134 L -6616497.910113691,6726808.497521115 L -6625091.440844459,6732882.87020375 L -6631657.509689409,6742625.099193626 L -6647431.481534816,6765432.254183061 L -6670418.288466683,6794618.142234751 L -6678027.977537819,6797247.787419008 L -6693894.233241094,6799013.170323069 L -6700737.598937611,6797000.707909334 L -6706591.668319448,6797671.473127804 L -6711260.741721789,6813467.778574264 L -6718517.214048641,6825468.240795171 L -6721941.624224423,6828019.396043213 L -6729486.080073955,6829153.461185748 L -6733057.209338604,6830978.82394593 L -6735764.054076733,6835411.465060365 L -6755576.5857286295,6834258.726078272 L -6769583.917255147,6826885.490107927 L -6786194.900351828,6810497.012708814 L -6764050.5593262855,6790454.853303829 L -6744966.39110265,6791371.976788578 L -6729236.056497634,6777942.645706494 L -6716402.811640513,6771166.048246025 L -6711304.267642689,6764271.976247674 L -6705716.585802322,6758999.796959997 L -6705678.51453647,6752133.48060236 L -6709950.845273625,6749044.776208654 L -6715717.862813662,6749360.475727532 L -6721425.213106633,6752379.196870423 L -6734840.102303149,6756224.447283758 L -6744015.277373312,6748342.806497458 L -6737954.599016563,6745413.406830289 L -6731181.9211967,6745553.673484773 L -6710445.43777122,6738173.1161934985 L -6706461.201876238,6735089.531359597 L -6712858.8443316175,6724621.456949499 L -6725360.468425666,6718273.642275639 L -6735476.070554051,6707617.4553951705 L -6737362.156686561,6703638.21914628 L -6736862.109533917,6697324.039959125 L -6742449.791374287,6684832.255005738 L -6736579.469346793,6684205.671703246 L -6728757.716645695,6692251.875337726 L -6711032.425446173,6703411.301261733 z" /><path fill-rule="evenodd" fill="currentColor"    d="M -6792576.178842062,6761477.188585037 L -6784618.616362195,6763955.516504477 L -6776682.761183034,6763006.21130159 L -6781156.134920562,6781518.245837741 L -6784651.232972998,6790419.636965459 L -6794049.158344238,6789731.775192371 L -6803376.507158316,6777608.162026559 L -6806632.490944529,6771148.391825052 L -6796239.703284069,6766557.585193884 L -6792576.178842062,6761477.188585037 z" /><path fill-rule="evenodd" fill="currentColor"    d="M -6505379.46232079,6802120.969907421 L -6504700.079468478,6818049.924352123 L -6513619.776307271,6812990.383338622 L -6516799.50624229,6805265.425168008 L -6511864.04529848,6800019.498775188 L -6507798.323536237,6800408.069777265 L -6505379.46232079,6802120.969907421 z" /><path fill-rule="evenodd" fill="currentColor"    d="M -6691605.949788349,6691624.543918364 L -6706868.853851523,6691642.028611834 L -6709880.157396972,6685789.959710916 L -6709820.378830416,6671073.461251337 L -6698248.161165001,6669805.012854162 L -6686942.219721563,6675941.232530648 L -6687681.492459921,6682116.992011128 L -6691605.949788349,6691624.543918364 z" /><path fill-rule="evenodd" fill="currentColor"    d="M -6643843.988305021,6842117.975352971 L -6650959.084878564,6845615.33270433 L -6652948.475498532,6844035.171314263 L -6655220.506305622,6837220.623805449 L -6655340.063438733,6828409.133592743 L -6656160.933363845,6824423.375930566 L -6651698.357616922,6825733.967439073 L -6643659.1979503045,6832751.588379269 L -6643843.988305021,6842117.975352971 z" /></g></g>
</svg>
