<?xml version="1.0" encoding="UTF-8"?>
<svg xmlns="http://www.w3.org/2000/svg" viewBox="15368981.964424727 -1072947.5211993845 2775366.6714506056 484654.80858485575">
  <g id="map"><g><path fill-rule="evenodd" fill="currentColor"    d="M 18143207.16581674,-593713.3374302255 L 18144348.635875333,-588292.7126145287 L 18137271.610567637,-590923.819068987 L 18136293.22356306,-592839.9447547949 L 18140424.178546906,-594750.6454066948 L 18143207.16581674,-593713.3374302255 z" /><path fill-rule="evenodd" fill="currentColor"    d="M 15377972.349140175,-1062491.5126457599 L 15369558.154109074,-1053277.9822815182 L 15368981.964424727,-1056291.9646793024 L 15371558.45403914,-1061802.57480443 L 15375102.421348032,-1068080.106422061 L 15378450.688992113,-1071850.5039670782 L 15382777.343640776,-1072947.5211993845 L 15385864.678398434,-1067743.9393641907 L 15382407.762931343,-1063246.4915649155 L 15377972.349140175,-1062491.5126457599 z" /><path fill-rule="evenodd" fill="currentColor"    d="M 16881350.755223617,-820024.0784950823 L 16880426.69213054,-818544.4299758626 L 16873621.397699874,-819114.3751122841 L 16872664.829315487,-819947.4180883483 L 16873262.726300538,-820599.5403911194 L 16876513.14411221,-821262.7833392866 L 16876904.54344184,-823301.6176385952 L 16875241.20761041,-823734.5607884735 L 16876665.317856126,-824797.9085359516 L 16879317.83868275,-824989.74684358 L 16880850.70807097,-823734.5607884735 L 16881655.102711443,-821893.0350757521 L 16881350.755223617,-820024.0784950823 z" /><path fill-rule="evenodd" fill="currentColor"    d="M 16907365.118346587,-829659.7628745147 L 16905451.870258324,-829067.8056926253 L 16904527.807165246,-829632.3708056642 L 16904973.530406382,-832504.8040653915 L 16905571.427391436,-833491.5470687033 L 16907408.644267485,-833595.7349944556 L 16910604.738167655,-832817.2499555527 L 16910833.05444327,-832110.067505667 L 16907365.118346587,-829659.7628745147 z" /><path fill-rule="evenodd" fill="currentColor"    d="M 17623527.81909654,-760288.642072741 L 17617037.7814638,-757748.7082228852 L 17608895.31730973,-758898.2556047414 L 17606384.172236416,-768040.5786313061 L 17602688.031183604,-770488.0431355892 L 17603481.627833474,-774994.288255387 L 17609199.77611705,-778685.0197687488 L 17621277.495590154,-775695.1821183772 L 17625767.23329283,-769201.3357584288 L 17622919.012801394,-764881.7026045264 L 17623527.81909654,-760288.642072741 z" /></g></g>
</svg>
