<?xml version="1.0" encoding="UTF-8"?>
<svg xmlns="http://www.w3.org/2000/svg" viewBox="-826280.8315985879 -8943973.329293195 113162.05100488383 222392.29748240113">
  <g id="map"><g><path fill-rule="evenodd" fill="currentColor"    d="M -737290.472185574,-8813277.813219676 L -739470.1078153063,-8804413.19960091 L -742519.4826266065,-8804493.447164526 L -752993.7561543271,-8815487.06151886 L -761331.8086537248,-8821485.242766099 L -764093.088622852,-8826554.999504264 L -766408.6453508429,-8835262.221462255 L -761625.3581509467,-8836347.077566858 L -755945.1698137292,-8834373.65886089 L -741622.581489285,-8826439.808031894 L -737584.0216827958,-8818168.993687235 L -737290.472185574,-8813277.813219676 z" /><path fill-rule="evenodd" fill="currentColor"    d="M -745780.8097483768,-8728639.053387605 L -743579.4668179399,-8721581.031810794 L -746177.5524135641,-8722364.89194401 L -753689.5029717851,-8730413.133416565 L -766783.6807153254,-8749660.759554379 L -771360.3589403094,-8765598.476194778 L -771985.4178811136,-8772951.108763099 L -768762.1620251943,-8772127.559720574 L -766060.7719421139,-8765564.067781912 L -753635.1790602779,-8761256.581751976 L -750362.9426284096,-8758013.382049607 L -750411.8118848678,-8750037.03060814 L -746231.987644562,-8740599.946522377 L -745780.8097483768,-8728639.053387605 z" /><path fill-rule="evenodd" fill="currentColor"    d="M -800038.1522,-8892250.586833311 L -790047.673179267,-8883021.224774696 L -786492.9078797654,-8876530.607677916 L -792238.218119097,-8870254.564618707 L -799206.5956037743,-8868642.956312845 L -807615.3359798258,-8870092.366452362 L -821437.8771516265,-8876902.12391492 L -826280.8315985879,-8892483.080159519 L -816725.2778283841,-8892099.327268066 L -805430.2456950448,-8895089.137885608 L -800038.1522,-8892250.586833311 z" /><path fill-rule="evenodd" fill="currentColor"    d="M -738165.6660221906,-8913380.41388217 L -740921.491336269,-8881372.038315209 L -745443.8456497457,-8881546.144925855 L -753510.0559526263,-8890389.719170105 L -759581.5322999823,-8892203.89850315 L -761483.9823976392,-8887483.267355194 L -761168.7255997127,-8881801.604030484 L -758027.0669305449,-8878236.935325041 L -748351.8447077384,-8856862.33618461 L -747444.0342603192,-8850649.536771886 L -748645.2828854695,-8847643.50369182 L -758054.2288862985,-8853795.667049143 L -780747.4863209429,-8881464.799511256 L -798402.0896438113,-8927182.052189661 L -774632.5953721777,-8934525.635981029 L -757380.1893695452,-8922485.117470695 L -738165.6660221906,-8913380.41388217 z" /><path fill-rule="evenodd" fill="currentColor"    d="M -713118.7805937041,-8920733.374604478 L -718440.0748926041,-8903506.52419163 L -726327.0608153077,-8906209.887370985 L -728490.443799384,-8908062.905298317 L -730197.1942322266,-8912575.586129153 L -729370.9809715588,-8925393.98943274 L -729653.6211586831,-8943973.329293195 L -720576.2959209272,-8928689.960619483 L -713118.7805937041,-8920733.374604478 z" /></g></g>
</svg>
