<?xml version="1.0" encoding="UTF-8"?>
<svg xmlns="http://www.w3.org/2000/svg" viewBox="-6878886.8554727 -6638490.962603277 13094862.915006224 9074428.780129518">
  <g id="map"><g><path fill-rule="evenodd" fill="currentColor"    d="M 1055350.0722513176,-5282401.528204915 L 1052436.618538276,-5260149.908637482 L 1054556.4756014526,-5253640.447975753 L 1058578.7827622858,-5249106.549007186 L 1060448.6162491406,-5244124.6489433125 L 1063818.5911939254,-5185117.595019706 L 1063177.2796074653,-5180433.122151508 L 1049566.6907461348,-5156847.790850749 L 1046501.0632891788,-5149934.106563533 L 1045827.0237724256,-5120799.31465636 L 1043533.2856646302,-5112987.357802626 L 1038706.4725438338,-5105290.622190139 L 1030085.7798573119,-5080438.930458031 L 1022595.6479192865,-5069282.951572774 L 1002212.3812380934,-5082890.620581737 L 990189.0969959844,-5088776.154698469 L 984296.9563482964,-5095130.180516121 L 980448.6415515728,-5099518.656605334 L 982927.170014085,-5105370.744550085 L 988406.2040314393,-5111459.1701868065 L 989275.8318935162,-5116248.275595012 L 976382.8084698394,-5121680.631974291 L 970479.8698315443,-5125308.939009744 L 970555.9010437563,-5131665.258533841 L 975013.0221356282,-5141587.213531626 L 972980.2169142521,-5149773.264486687 L 965544.4088877339,-5149356.8831224125 L 959782.7346832555,-5150606.231339138 L 959032.6639542906,-5154859.430635424 L 963294.0853813478,-5160313.92743005 L 968762.2100886041,-5167440.051511671 L 968588.3290439851,-5175311.385139072 L 961978.7342781345,-5178703.659135926 L 955988.7437980392,-5185103.028002008 L 953586.2465477388,-5193811.029947091 L 958228.1579943276,-5199772.5153712565 L 965750.9065431553,-5203621.624223265 L 960228.4579243918,-5212559.912952053 L 956499.7002607803,-5212758.570477114 L 953521.0133261341,-5214714.944685361 L 955956.1271872368,-5218871.8497432135 L 961804.7419140246,-5225092.084324909 L 969936.2967580009,-5243689.297991514 L 981263.9455021428,-5252480.905148358 L 1001310.1367652139,-5258139.603257238 L 1006734.7355515701,-5260615.539767652 L 1011713.7224162809,-5267174.061335523 L 1017225.3730444374,-5271405.985151249 L 1023921.9083325976,-5270843.58863457 L 1030096.6891674096,-5268305.872688124 L 1033901.4780432329,-5265606.172450183 L 1036760.6078447673,-5268416.925097525 L 1039543.5951145993,-5276557.927309046 L 1037836.8446817568,-5283712.875310575 L 1038717.3818539315,-5303421.390251805 L 1042304.8750837265,-5314618.091186069 L 1048099.0545795162,-5315242.5027336655 L 1053447.6221536607,-5309081.213192632 L 1053175.8912766343,-5303636.725506193 L 1055154.3725865032,-5290762.267778739 L 1055350.0722513176,-5282401.528204915 z" /><path fill-rule="evenodd" fill="currentColor"    d="M 847767.497072524,-6039364.274285536 L 834330.9005753035,-6031879.818766548 L 831265.2731183475,-6025335.36670577 L 825992.8480759058,-6016689.453844922 L 817437.2772914979,-6013056.597135406 L 808816.5846049761,-6011851.413359066 L 801848.2071202988,-6012992.417365312 L 797880.2238709724,-6016448.269592486 L 798075.923535787,-6019664.228004449 L 794379.782482978,-6022398.839613944 L 785182.9001121101,-6022318.281237091 L 775714.175544725,-6016367.931210491 L 768148.0123944879,-6006662.843689611 L 770496.0744137904,-6001236.617693419 L 777464.4518984676,-5999808.458132982 L 779301.6687745199,-5997658.528244017 L 779301.6687745199,-5994875.714141228 L 776844.8476127123,-5991516.601564887 L 773898.7772888683,-5985795.361402162 L 759277.1848121535,-5968750.649453001 L 744514.3279016219,-5951587.470126617 L 742155.3565722216,-5946402.906399541 L 737469.9192047328,-5942783.47909994 L 718706.4624340725,-5933645.9183050515 L 716738.7791148106,-5929984.019490222 L 715673.4515879189,-5914739.925729843 L 713575.3018254474,-5902243.366567982 L 699660.3654762881,-5890493.482986328 L 685810.6623487337,-5878814.585845201 L 682353.7468816395,-5871680.340519219 L 679831.5811787363,-5863438.055635787 L 675483.2192293694,-5854138.354108957 L 674624.3893578993,-5849231.918018182 L 681636.1814439861,-5841231.203633526 L 680820.8774934161,-5834623.31353795 L 678592.2612877347,-5825236.069387521 L 671939.2519204748,-5818585.1029396895 L 664579.5864256591,-5814821.570751929 L 664742.5581601805,-5804615.695930055 L 668656.2174979995,-5803187.755265984 L 677559.5503716455,-5803940.821831486 L 690115.6096966913,-5811342.345403683 L 698301.4884521747,-5820864.373134321 L 693474.7866508691,-5829916.5980849955 L 692876.8896658183,-5831687.346259473 L 694040.0670251173,-5833812.487772365 L 703747.9058587264,-5843666.115077862 L 715662.5422778212,-5849610.493916261 L 732284.4346846004,-5850714.658934636 L 752308.8073274761,-5847228.99915287 L 754309.1072575405,-5845754.917154742 L 753341.629563056,-5839710.693618053 L 755211.4630499107,-5830805.876341282 L 758842.370881115,-5824559.6183867855 L 753863.3840164043,-5806852.146859645 L 757603.0509901134,-5801312.999231218 L 763429.9584161964,-5794687.867315423 L 767800.1389857588,-5788647.3589918045 L 774083.5676435851,-5783096.18253287 L 779671.2494839535,-5773755.432716435 L 781584.6088917083,-5768463.540048302 L 772648.5480877691,-5759278.694797438 L 757472.5845469036,-5750680.528750891 L 755765.8341140612,-5745176.334662657 L 755961.5337788757,-5738920.093452019 L 757668.2842117182,-5733999.278584767 L 766038.9533219185,-5727680.785410916 L 775051.0453380694,-5713387.516423108 L 780758.3956310406,-5700660.237652938 L 793270.9290351862,-5688469.993585486 L 796314.8491914375,-5684861.783740766 L 795532.1618516699,-5681819.863692856 L 792238.218119097,-5676636.3956555575 L 787954.9780718442,-5659374.712237761 L 782845.6360834145,-5656634.746526915 L 777149.1951005412,-5655523.602492463 L 761679.6820624539,-5642901.353166439 L 754787.4471094791,-5644426.969580505 L 744981.7584434628,-5644265.194950961 L 737795.9739932662,-5640112.449470521 L 738578.7726525245,-5632258.903802617 L 744883.9086110556,-5625081.198069226 L 748590.9589739623,-5617271.57512476 L 750091.2117513833,-5609153.956915817 L 757092.0945273723,-5603145.193633685 L 766919.4904940933,-5599555.798082868 L 772539.9002647549,-5599310.336808373 L 776214.3340168592,-5597155.965826711 L 778421.131602345,-5594373.472714938 L 782649.9364185999,-5577031.262140418 L 780116.9727250898,-5572687.581564232 L 774822.8403819434,-5570837.442823022 L 771659.36309258,-5563716.122145023 L 765343.2065044604,-5553227.487346541 L 761755.8245941565,-5544816.250814623 L 765723.6965239919,-5537418.14461746 L 767419.6489662274,-5531943.965309769 L 765299.7919030512,-5526313.2357985545 L 768126.1937742924,-5517546.892774311 L 775594.6184116132,-5508880.077625793 L 795869.1259503012,-5496710.361553127 L 814697.8159425663,-5486821.03496761 L 820524.6120491587,-5485177.75483326 L 845962.8968072744,-5491533.199329478 L 850169.9943228244,-5490987.71096157 L 853268.2383905828,-5483413.514976878 L 854616.2061045985,-5478319.486829727 L 851757.187622555,-5470649.991996716 L 844875.7506601871,-5460093.95382499 L 837418.2353329641,-5451692.5222829105 L 832895.8810194875,-5444557.814016482 L 833841.6514132671,-5438083.889433664 L 834135.200910489,-5429476.839666699 L 828069.1792181819,-5426902.917563939 L 827873.4795533674,-5428603.783419067 L 825373.1324706596,-5430056.302402503 L 823209.8608060738,-5429198.297382392 L 821546.5249746408,-5427331.957438711 L 821285.5920882215,-5424021.439469689 L 808349.0427436444,-5418531.849227642 L 799434.8005599005,-5412842.563012063 L 764180.0291451616,-5378929.921973727 L 747688.7145010828,-5369009.1225713305 L 744438.1853699192,-5363036.259595883 L 741079.1197352322,-5351885.881407 L 731392.9882023279,-5342321.889821574 L 722913.5599496227,-5337774.654682456 L 701910.6889826743,-5333110.490161193 L 680820.8774934161,-5322992.727487415 L 671319.5363152287,-5327354.227474051 L 646707.5761372714,-5326885.116780365 L 631357.6202322962,-5339078.981205296 L 601853.6137119377,-5346819.247247194 L 592243.624710736,-5364620.728719534 L 578807.0282135155,-5365779.251930717 L 570001.4338527858,-5365241.151369588 L 564739.9181204418,-5367939.928496657 L 563370.1317862306,-5374020.600388697 L 563250.5746531186,-5379880.635942518 L 553923.225839041,-5377185.896505727 L 546791.7653003517,-5377185.896505727 L 542541.1418639012,-5374836.1118377 L 539182.0762292142,-5372127.823471471 L 535214.0929798878,-5373856.035741026 L 532909.4455619948,-5373272.421699182 L 533115.9432174164,-5369824.193914985 L 524549.5744424015,-5368964.251311015 L 515265.7515492241,-5371080.634351327 L 490892.90563749085,-5380292.473596082 L 487153.23866378167,-5381700.004729769 L 470237.90807927126,-5385265.10108509 L 463399.9970378036,-5388951.278253794 L 457866.6391089424,-5398068.294001614 L 453637.8342926875,-5400956.74799962 L 451137.48720997985,-5402682.660451499 L 435352.717373966,-5398075.821647612 L 429873.6833566119,-5390899.837984028 L 421318.22389169486,-5382501.314904876 L 362777.64139281894,-5341427.229007271 L 352091.4155546279,-5324272.737082009 L 339720.1465842989,-5299063.74048951 L 338752.5575703238,-5287329.664979795 L 344079.41784376354,-5249903.830862693 L 355983.2562722515,-5230314.5782627165 L 357494.3070402794,-5225784.328790422 L 350895.5102650357,-5225762.308904856 L 339817.99641670624,-5228207.583725306 L 330621.11404583836,-5231228.132438918 L 321869.84359661594,-5229540.9783169255 L 313433.94126481086,-5225497.1693783235 L 306063.3664598974,-5223052.5954573965 L 300769.1227972602,-5222367.938523956 L 297225.26680785633,-5220034.657437089 L 295529.3143656208,-5215376.901655004 L 295181.4409568918,-5212118.784647062 L 285865.00145291194,-5212920.331085549 L 264318.5574124198,-5219622.420858863 L 244946.40566610204,-5224245.32260066 L 233586.14031115765,-5218989.555854913 L 226280.7987278491,-5214082.40775378 L 221138.72880912622,-5214832.5991073735 L 217236.0901008956,-5219997.728747846 L 214616.18588507592,-5225055.286691579 L 207028.2041146432,-5229695.632885499 L 189917.17386531836,-5236675.074959336 L 190797.71103749314,-5240045.136307197 L 193721.96274114164,-5244744.390047763 L 193635.0222188321,-5247644.914759447 L 190341.07848625912,-5251956.540977886 L 174567.21796034306,-5256580.633177744 L 167131.40993382473,-5257748.096205936 L 162402.5579649265,-5254563.828090862 L 158999.8550898485,-5250664.282564198 L 150216.07934931444,-5265007.16884775 L 143965.26730229054,-5267928.63759979 L 134507.45204500327,-5268409.501362128 L 123690.75976360244,-5272789.917870736 L 112439.25355116311,-5278386.837477362 L 85098.51869539036,-5287351.829305243 L 77575.77014656251,-5288426.710132036 L 74564.46660111367,-5287003.430384673 L 72553.36868044239,-5281645.788707815 L 71466.22253335528,-5266515.882735187 L 70313.95448415412,-5264844.5130135985 L 57627.4287158987,-5264341.5698895855 L 41994.83262379928,-5266441.812123833 L 34830.86679379816,-5265399.129470347 L 28438.678993466805,-5265347.331573602 L 22416.071902569118,-5269349.0292205475 L -4582.1328800327265,-5264770.4555628 L -9071.870582707037,-5267003.945398149 L -15589.070171199235,-5273833.572182917 L -22856.34048865652,-5279349.6606533965 L -28503.91221507166,-5282179.24556602 L -33319.70470627948,-5285424.791319127 L -37689.88527584181,-5285951.0254236255 L -44353.915272690334,-5282808.933600918 L -53561.59563416517,-5281475.410552703 L -61204.01263559578,-5281882.927476127 L -65280.643707936244,-5281423.675678647 L -82397.12861231,-5298210.145007265 L -84897.36437552693,-5302812.517083247 L -93420.31854913232,-5304089.614824325 L -103954.37064340901,-5304290.213165864 L -130849.27093855468,-5315190.581042034 L -143095.52812072274,-5321050.8738255 L -144889.21907587475,-5324533.2105712835 L -144720.7926863045,-5327354.227474051 L -146813.48779372728,-5326743.793610123 L -150585.66005874812,-5321757.689866806 L -152564.25268810778,-5317696.398008305 L -155184.15690392748,-5316937.805422702 L -159048.83566579755,-5317569.987018227 L -162619.96493044574,-5319853.26343981 L -164805.05521522695,-5322806.81378925 L -162462.3365314825,-5327964.5487892125 L -158363.88683894655,-5334697.197887771 L -156662.59106115293,-5342023.66000549 L -157037.62642563548,-5348587.380969579 L -163832.12286569373,-5352804.020676718 L -173822.60188642686,-5354565.799294578 L -181133.2868052935,-5355066.123902214 L -190672.69924933228,-5358822.476039969 L -195173.23494261355,-5361526.88767786 L -199565.23413237138,-5368852.15067968 L -199711.9532212369,-5374177.659686968 L -181611.6266572322,-5378885.002727825 L -165294.1930577726,-5398180.902080017 L -149835.58932978305,-5468571.034244122 L -138649.31633894859,-5552495.032888878 L -130332.9711402555,-5568437.53734481 L -119885.85956828836,-5572825.21803478 L -128338.12586524004,-5584446.514197362 L -133626.91487282846,-5578561.30212517 L -135844.51044892127,-5572320.561187388 L -138616.69972814614,-5569201.800466975 L -132365.77636163146,-5646978.342885288 L -127914.10992480845,-5675623.343375265 L -120337.03746447347,-5705733.527887509 L -104834.9078155838,-5693768.707929696 L -91985.29899331623,-5681649.648134486 L -85343.0876166632,-5671146.756641797 L -76934.34724061168,-5636246.397055994 L -70574.77605108275,-5628942.46107948 L -61057.18222723945,-5621613.740370551 L -64818.556501653366,-5629611.797248594 L -71368.372700948,-5635730.617807904 L -81608.87529800282,-5682276.482106937 L -88028.22505408774,-5695504.743617056 L -98035.06803996747,-5706649.231941384 L -130240.5759628971,-5730162.453851059 L -133137.66571079203,-5734707.597461533 L -134692.2423997201,-5743711.167166866 L -124049.43116293837,-5743329.433282027 L -114852.54879207049,-5738951.197041895 L -115939.6949391576,-5743991.732859432 L -118668.35829748234,-5749261.243956679 L -122940.68903463737,-5768393.284450177 L -126500.90898918782,-5813234.992460964 L -126017.11448220027,-5820935.207340341 L -127604.30778193075,-5830388.784327799 L -137904.5889455416,-5832505.8753633 L -146139.448276974,-5832891.471127582 L -155010.16453981758,-5836631.270702505 L -198874.83065047147,-5863240.703281987 L -213893.27711186442,-5890778.587892079 L -229248.5763523978,-5911165.474509911 L -232933.8080951091,-5920072.757579076 L -232689.23917383625,-5929108.59325677 L -224742.4746845768,-5948221.024064979 L -231759.83274520322,-5960312.53016609 L -238619.45108737552,-5962716.813400743 L -244576.7136371776,-5968710.536633849 L -239179.2768065749,-5978701.396166931 L -234694.99375894945,-5985098.5151704885 L -225710.06369855203,-5986844.837301646 L -213925.89372266683,-5984722.228333168 L -202744.96406739042,-5978933.501034668 L -193977.4409725122,-5977396.905123619 L -219899.52023761545,-5992935.35152584 L -261937.76746282412,-5987694.091834529 L -270998.8400549242,-5989697.289927111 L -278646.60039191286,-5993159.956216381 L -281641.53997221513,-6004583.550652429 L -275662.4588022176,-6009738.632648933 L -270248.76932595915,-6019278.203788773 L -276374.56958482217,-6025987.166377557 L -284315.8794190328,-6028530.561280782 L -296768.6342566223,-6028385.651742573 L -308389.7211784953,-6026357.337945631 L -311335.7915023393,-6030213.107483877 L -304247.85688454995,-6040863.528639929 L -310270.46397544764,-6044782.10019037 L -318304.1689870166,-6042951.560836356 L -329957.87251969206,-6040742.515523272 L -341106.185564166,-6044088.583330399 L -351640.2376584427,-6056209.6135923145 L -358624.8677887759,-6056120.800745276 L -363424.4076343278,-6054626.831210106 L -370539.5042078707,-6059294.98067285 L -378029.6361458961,-6060466.425669885 L -383378.2037200405,-6058915.287956861 L -390487.8456385346,-6065881.463482065 L -434249.318581223,-6079871.203182115 L -453148.58513065113,-6081580.051329402 L -470482.4770005442,-6075240.459620244 L -480021.7781250921,-6077442.114741002 L -487033.6815306696,-6086489.549698247 L -492920.36752330867,-6101689.943554206 L -520842.6353989855,-6113429.077964223 L -515320.07546073117,-6121139.286292196 L -502318.2928945492,-6122962.206766916 L -487338.0290184984,-6128310.877948106 L -481951.3901785027,-6135178.679376034 L -493659.52894217597,-6143194.019782367 L -502296.58559384453,-6145160.17569403 L -505873.1695135417,-6148041.133923308 L -509525.7846454506,-6155243.346562492 L -504351.209435416,-6158536.250632911 L -500703.93763906515,-6156787.563529326 L -490175.3401998374,-6155749.800227321 L -472151.1561675353,-6157522.87555686 L -478869.510075891,-6164790.37257927 L -485843.2308961264,-6166409.86071489 L -489044.77945134084,-6168234.246781142 L -503698.98853885813,-6169019.645359121 L -510368.36187126493,-6166540.867086042 L -525359.5350574134,-6167481.592100658 L -528604.4982140374,-6175338.978487681 L -530159.0749029655,-6182088.950648249 L -525511.7088013279,-6197148.431459841 L -504410.9880019721,-6210622.717511102 L -451833.23402743787,-6225378.590744323 L -429210.5531499564,-6223220.805222127 L -413529.0878013987,-6225880.966431676 L -394738.46907498495,-6235194.302553838 L -386443.83117699646,-6243180.45566361 L -359722.8119264699,-6247894.91292262 L -334317.25509864744,-6239417.502194185 L -310900.97757130075,-6207441.097921222 L -299709.2499254174,-6196631.107064245 L -272308.7365030886,-6215393.084427952 L -231482.53589363716,-6214841.963505482 L -223052.088216881,-6204244.346039795 L -219649.4966612938,-6213171.97031589 L -212143.00075812175,-6223624.220349661 L -206158.46493307536,-6218857.489941145 L -203125.45408692185,-6212398.995706763 L -160038.02066098657,-6214233.093109711 L -153227.3828947633,-6216117.127325317 L -164805.05521522695,-6223706.5247867685 L -174268.32512756312,-6241926.064902402 L -176230.44247228536,-6309273.288519305 L -188166.8975115757,-6328170.211727633 L -201869.8815502645,-6358440.330865855 L -208175.01750879554,-6376450.267557145 L -208767.57115828813,-6382683.154985349 L -206658.51208571874,-6391692.695394551 L -189813.8693778622,-6391205.454409145 L -176801.17750158248,-6388920.858518948 L -152031.58892466195,-6395734.51754124 L -140111.4978505182,-6391071.0896240445 L -140812.58800353427,-6376986.973376497 L -137176.2255172812,-6359251.9868234955 L -133023.56323272892,-6350678.552949317 L -126740.0232554118,-6340936.517426788 L -106769.97452404325,-6341838.327096311 L -85218.07582850233,-6336119.726016476 L -57986.100115234614,-6335235.10695251 L -18198.176396411985,-6325369.095357766 L -1244.774546050385,-6331080.556889146 L 15154.25624016071,-6343266.575731859 L 46408.53911426179,-6351288.950686608 L 48897.976886871766,-6355537.110007589 L 30906.4094653721,-6353839.232498109 L 14404.185511195636,-6361578.734969058 L 12175.569305514297,-6369995.832296704 L 14088.928713269084,-6377557.207319725 L 20785.46400142925,-6395003.313447653 L 68596.2947412139,-6422573.03846153 L 102872.67915137076,-6430739.42693342 L 138649.31633894859,-6445971.391951926 L 156651.793070546,-6461620.949672085 L 168544.72218893617,-6481867.779141823 L 172371.32968495495,-6486327.5546424035 L 177306.6793092747,-6490067.018817417 L 172719.20309368393,-6497338.420759128 L 175828.24515204926,-6575300.438639746 L 179176.51279612933,-6589424.083545491 L 186155.7995909044,-6600978.473572748 L 196776.79220749065,-6609926.432383673 L 212898.52614213573,-6619635.561296244 L 272254.4125915815,-6633065.951940073 L 281070.804942918,-6638490.962603277 L 282310.1248339195,-6630056.499729414 L 286625.98149197473,-6619272.844444438 L 289593.75911652343,-6613385.844487419 L 287126.0286446181,-6605701.318425675 L 289071.89334368455,-6599376.097556936 L 297127.4169754491,-6588004.708639797 L 307172.21990768926,-6577301.915628722 L 316119.0787022354,-6570466.318923943 L 318641.13308564783,-6571213.144974089 L 325272.5464716939,-6573153.486154417 L 336502.34538342856,-6580163.269650396 L 345851.4014982109,-6582372.084263894 L 351199.9690723553,-6577001.232025835 L 354222.0706084111,-6573969.146114019 L 360114.2112560991,-6561886.718552408 L 361766.63777743443,-6549291.172825975 L 364386.5419932541,-6538843.725027912 L 369158.9198830525,-6534612.010822289 L 387052.6374721449,-6533227.588473722 L 400239.21039304376,-6529357.5117419 L 403728.8537904313,-6525856.2500319835 L 408240.29879381025,-6502717.522193787 L 410697.1199556178,-6499448.857456674 L 413980.26569758385,-6502172.655204303 L 417230.68350925663,-6505978.929578965 L 421742.12851263565,-6506583.706756873 L 429482.2840269828,-6505118.67653024 L 439679.37202262814,-6504658.934761766 L 450191.7168162002,-6502113.027135774 L 464715.34814101696,-6489072.4603866 L 464160.9770768665,-6484772.66760257 L 461323.6658955275,-6477232.222409397 L 460334.3695808477,-6471216.638756057 L 462834.7166635554,-6468799.746597059 L 466672.2334696719,-6462595.3943610815 L 465748.17037659703,-6455430.444988341 L 462008.50340288767,-6450411.944091585 L 460508.2506254668,-6446275.841017161 L 460530.0692456623,-6443587.272233828 L 461899.7442603827,-6441355.797784142 L 464878.4311950291,-6439395.377131306 L 486327.0254031139,-6436751.236045664 L 505949.3120452442,-6439395.377131306 L 518320.4696960823,-6446698.589949347 L 520429.5287686517,-6454397.726251126 L 523940.8794667439,-6463103.657001205 L 531311.4542716574,-6470393.850854147 L 536409.8869499894,-6472845.259109691 L 541073.6170167736,-6469842.765739506 L 533224.7023599213,-6439277.019042205 L 538953.7599535971,-6431482.238326921 L 539801.6805149695,-6419841.520976197 L 541856.304356541,-6409665.08082208 L 548868.0964426277,-6409858.714913641 L 557369.3433155285,-6407981.360408044 L 563391.8390869354,-6404219.645686761 L 570414.5404831198,-6398180.763582154 L 580535.4859470626,-6392633.708266066 L 587634.3298749496,-6390684.695367626 L 590210.7081698691,-6386049.183701278 L 595950.6750736427,-6380694.531903872 L 604984.4743904986,-6369476.2190607255 L 613072.5033135746,-6361997.3918869 L 616975.253341296,-6362022.4228152 L 624508.9112002215,-6364969.736847068 L 635684.2748809583,-6366854.105175621 L 644511.5765423925,-6366694.91404608 L 648262.1528261995,-6361001.18730739 L 656937.1694242284,-6358373.324772161 L 660002.7968811844,-6356281.667072033 L 663405.4997562624,-6352359.180078536 L 669188.8812614453,-6350787.27412223 L 676168.0567367296,-6352359.180078536 L 681266.6007345524,-6357595.167879825 L 688071.8951652176,-6359946.652569068 L 694877.1895958827,-6359159.951784454 L 698790.737614211,-6356281.667072033 L 706248.2529414342,-6352032.95970229 L 710466.259767082,-6352961.137047281 L 718912.960089494,-6350344.179961796 L 727392.3883421993,-6342097.275354107 L 730958.1742712895,-6333808.222547023 L 731893.0353549713,-6329279.169981778 L 735556.559796978,-6324360.669129085 L 749786.7529440636,-6302155.237729649 L 754330.925877736,-6301058.015376792 L 759277.1848121535,-6304424.690830531 L 762484.1880224168,-6309198.324969223 L 767126.0994690056,-6310146.8334201295 L 774594.5241063263,-6307950.620541818 L 779399.5186069271,-6305439.076861184 L 781704.1660248203,-6295832.0834458275 L 783323.9759353532,-6294005.055949371 L 786552.6864463213,-6296073.120061715 L 792303.4513407019,-6296529.866768046 L 801489.4244014719,-6294162.877006203 L 814121.6262582203,-6296870.444095948 L 824231.6624120653,-6300875.215600541 L 829395.4396314931,-6300725.608676888 L 837733.4921308907,-6289530.492882046 L 847245.742619176,-6285348.637571594 L 868205.0876652243,-6281973.091032834 L 890697.302099496,-6276717.377873134 L 899535.4017515373,-6272467.39163481 L 905568.8068330417,-6270380.339547902 L 906177.6131281904,-6255612.18857842 L 904362.1035528427,-6253388.812141721 L 881956.9409603714,-6223863.040343877 L 872520.8330037887,-6213328.291879952 L 867715.838503188,-6198314.165841771 L 864411.0967800079,-6175338.978487681 L 857790.5927040596,-6153568.766395231 L 847876.256215029,-6132978.354349906 L 844267.0556845296,-6117559.903992522 L 846973.9004226588,-6107285.396670724 L 845278.0592999142,-6091175.010388576 L 839190.2189874115,-6069277.715686144 L 838168.41738142,-6052770.065715361 L 842179.8152321557,-6041645.449621834 L 847767.497072524,-6039364.274285536 z" /><path fill-rule="evenodd" fill="currentColor"    d="M -131169.98239153012,-5764986.955002054 L -135094.43971995616,-5751008.112746907 L -142519.3384363767,-5763877.767901121 L -152363.09836824433,-5775170.788809469 L -154607.9672195815,-5785632.497132464 L -154586.25991887678,-5788428.093794853 L -143052.11351931334,-5780779.664087361 L -131169.98239153012,-5764986.955002054 z" /><path fill-rule="evenodd" fill="currentColor"    d="M 5029444.984261086,1457077.0522413824 L 5022465.808785803,1458014.1534992128 L 5019139.248442426,1454990.9334237939 L 5017106.443221051,1447807.8896122854 L 5019204.481664032,1440894.383392838 L 5019791.580658476,1435308.9348605345 L 5014116.846976306,1425623.4410846068 L 5019661.114215265,1420118.8649765125 L 5024379.168193557,1426526.079826264 L 5027053.396320883,1426960.634515376 L 5034217.473470376,1431429.8053643522 L 5032119.323707904,1439667.857174221 L 5032597.663559843,1442366.1013398482 L 5029347.24574817,1450618.4850270944 L 5029444.984261086,1457077.0522413824 z" /><path fill-rule="evenodd" fill="currentColor"    d="M 6211334.036767443,2432389.352339403 L 6195614.500153034,2435937.8175262413 L 6184645.634127719,2434653.794445538 L 6162947.016343313,2424536.4679905213 L 6157120.2202367205,2417818.1440282147 L 6148488.618240101,2398843.2892362894 L 6150401.866328364,2392169.6534929876 L 6157228.868059735,2380447.4425414638 L 6172720.088398526,2375804.8618695843 L 6188972.288776381,2377526.7595346165 L 6196255.923058986,2380703.406329646 L 6204854.908444802,2394440.5098343748 L 6215976.059533523,2408409.74791441 L 6214127.933347372,2425038.0863313926 L 6211334.036767443,2432389.352339403 z" /><path fill-rule="evenodd" fill="currentColor"    d="M -6771149.403254173,-1631009.0045803157 L -6772301.671303374,-1624446.8429528354 L -6775138.982484712,-1623167.2568196396 L -6779291.756088756,-1628628.703939277 L -6797582.327662526,-1627859.692286273 L -6800381.567578014,-1632743.8679144348 L -6800544.650632025,-1635057.1646389472 L -6791749.965581395,-1643363.2880459593 L -6802099.227320955,-1645587.7032327116 L -6806197.565693999,-1649171.9592428235 L -6814948.836143221,-1666667.6248181332 L -6814236.725360616,-1671756.1432128437 L -6810616.72683951,-1674444.2458390163 L -6804670.262280315,-1674832.2826015376 L -6793505.696590186,-1669175.1929498923 L -6785205.604037148,-1661124.739563009 L -6782379.0908464175,-1661001.1050307197 L -6781433.320452637,-1658719.155959911 L -6783107.454274677,-1653060.071912122 L -6778150.286030161,-1648267.362032768 L -6776014.17632133,-1644722.6935381547 L -6771149.403254173,-1631009.0045803157 z" /><path fill-rule="evenodd" fill="currentColor"    d="M -6826906.887163725,-1831422.1628541078 L -6840006.519562314,-1830131.4366612914 L -6848616.41425823,-1831144.7195470748 L -6850600.350223147,-1839445.3643220742 L -6846213.91700793,-1846474.443007313 L -6849366.484987195,-1855013.0528305836 L -6847333.679765819,-1860108.354013188 L -6842941.680576061,-1863469.9090873078 L -6835734.188825159,-1859020.063230719 L -6834587.375431008,-1852650.060813738 L -6830059.566462481,-1846820.0604034946 L -6809703.461737042,-1834400.166377769 L -6826906.887163725,-1831422.1628541078 z" /><path fill-rule="evenodd" fill="currentColor"    d="M -6856117.455506354,-1805525.77624694 L -6865124.092867455,-1800329.6341981243 L -6869554.052003574,-1801935.261593202 L -6875027.6313658785,-1811910.8955715632 L -6878886.8554727,-1839604.0270137782 L -6875886.461237349,-1844186.0064983454 L -6873761.149519124,-1845902.2542010348 L -6861900.837011536,-1842503.7597305335 L -6856949.012102579,-1838584.568936129 L -6851975.591212407,-1836115.6749085204 L -6854503.100250869,-1831042.80954287 L -6853258.325704819,-1810253.6086260779 L -6856117.455506354,-1805525.77624694 z" /><path fill-rule="evenodd" fill="currentColor"    d="M -6816144.630113323,-1791980.8183641653 L -6822351.916239447,-1791528.7342425783 L -6825080.579597771,-1792529.0949810897 L -6825933.954814193,-1799498.5540834507 L -6821134.41496864,-1804287.3412847123 L -6818318.811088007,-1805452.2372531274 L -6814128.077537603,-1800080.8164799588 L -6813133.326567874,-1795603.7111503552 L -6816144.630113323,-1791980.8183641653 z" /><path fill-rule="evenodd" fill="currentColor"    d="M -6079854.252233036,-259084.73665715673 L -6078571.406421134,-260091.11855997363 L -6074527.3919595955,-260847.27403716635 L -6070912.736774048,-260928.93949340165 L -6065303.347632973,-269040.2168127764 L -6056003.160774651,-274099.81785750936 L -6039832.4462640565,-302203.0491098932 L -6033016.353842784,-313810.49694808765 L -6032190.140582116,-320161.65128696937 L -6030255.073873657,-333398.196913323 L -6033864.274404157,-349515.8426233244 L -6032184.685927068,-354039.61416045454 L -6018286.113543055,-373503.16551155143 L -6012317.830363664,-384121.15173369774 L -6011915.633043429,-393264.4104707068 L -6010192.62996493,-399848.6399574394 L -6011910.1783883795,-403290.659004001 L -6015062.857687136,-404292.869709192 L -6020378.697330988,-412833.20495338197 L -6023808.562161819,-419914.4949223997 L -6033233.760808303,-427165.1059006301 L -6039696.636485289,-434601.4874447844 L -6050295.81048168,-451677.6235643928 L -6049339.242097293,-461268.59788732807 L -6052345.090987693,-464718.3298641456 L -6055600.963454415,-468239.07597338705 L -6055361.737868699,-472582.97318196547 L -6057563.192118628,-483326.45664392173 L -6060308.108122609,-493417.1328680437 L -6061302.747772846,-499779.6882972539 L -6058682.843557026,-510723.02331485 L -6060259.127546659,-522894.91720430827 L -6063699.901687588,-529297.9163149366 L -6064651.015416926,-539039.8216676145 L -6063944.470608861,-547773.71523714 L -6060998.400285017,-552700.2903919574 L -6061590.842615019,-558811.2562837313 L -6048170.610082945,-578249.4741602958 L -6037989.886052446,-589520.8852291973 L -6028613.55666242,-597431.0825636706 L -6020748.389359912,-603338.389481292 L -6010094.780132523,-632888.2487720253 L -6002338.260653029,-643289.3458079712 L -5994239.322419856,-644769.9527326106 L -5950521.375398067,-620298.9527616045 L -5930029.46089386,-618038.0175183894 L -5888724.920432469,-604818.0921539217 L -5873771.8185121715,-587872.3708962158 L -5839147.560693286,-559689.7048648837 L -5820954.838951922,-550845.2442120302 L -5820775.503252255,-543463.9556994484 L -5824748.82983714,-531708.7287620546 L -5813100.580959513,-541974.6916635039 L -5795081.740262769,-525730.9860422114 L -5789983.307584437,-517757.6180628921 L -5784373.807123873,-503061.9301854318 L -5786314.328487381,-493624.36065535696 L -5788803.766259992,-488750.5137449781 L -5788939.68735825,-484961.87610246585 L -5783580.210474008,-490184.2902463302 L -5780563.563593001,-494322.19512238016 L -5779661.2078006305,-504168.770405001 L -5775285.57257602,-516388.8005367926 L -5769415.250548528,-516606.9207332097 L -5764751.631801234,-509327.0784684183 L -5755065.50026833,-477652.0230134642 L -5751412.773816929,-471176.8419913386 L -5750015.825526964,-461126.9639838406 L -5750553.943945459,-456630.9585217232 L -5749934.339659704,-452478.57127993053 L -5753375.002481143,-450070.05801842094 L -5762686.098649565,-444822.8184667915 L -5766936.6107665235,-437821.4612822184 L -5769409.795893478,-431087.51506904623 L -5775198.63205371,-426511.312382895 L -5780699.373371769,-420753.324449597 L -5782417.033114709,-416085.02157977823 L -5787569.901024039,-412392.014779943 L -5788559.197338719,-406242.66380632564 L -5801539.161284705,-384540.47314095264 L -5806713.847814231,-374771.8269176543 L -5814154.999176308,-364399.8319720848 L -5818807.819932993,-360545.18948984554 L -5825113.067211015,-354371.6349334474 L -5828314.61576623,-347234.95901227026 L -5828314.61576623,-339859.0403748196 L -5832739.120247299,-331014.17684217234 L -5835190.486754058,-323394.3601291705 L -5839359.513003756,-318969.70612007607 L -5850361.106959365,-294840.6698560893 L -5850893.77072281,-286537.52667599235 L -5853513.67493863,-281607.9783169959 L -5861324.518329632,-270111.9555529225 L -5866607.852682171,-263197.42914542236 L -5875820.987698695,-258018.4222922894 L -5885507.119231598,-252388.16505472016 L -5889187.0076387515,-246246.76626693652 L -5896019.464025171,-243129.97733520257 L -5901014.703535538,-242928.67697204524 L -5909091.823148517,-245153.46607579157 L -5919979.203306571,-246225.0427874865 L -5925512.561235432,-245507.0555460265 L -5928007.453663091,-248558.60646050904 L -5931714.504025997,-255570.52774327868 L -5937160.921432548,-260531.7538764503 L -5940677.7267856905,-258801.86350792824 L -5948004.775669703,-253813.3967275026 L -5956592.851745423,-250881.39704386645 L -5962713.308668728,-251860.54398966188 L -5976041.146023443,-255314.8445933702 L -5981721.334360661,-257055.61490876586 L -5983438.8827841105,-260004.1057655984 L -5985401.111448323,-262212.75283192826 L -5988347.181772168,-261228.0827644887 L -5992277.093755642,-257545.15081583438 L -5997516.902187281,-253682.82702145175 L -6005289.785631922,-248591.24784500498 L -6021242.981857506,-239447.45531965757 L -6025732.71956018,-236167.59707885777 L -6029885.493164224,-237951.72165832165 L -6036631.009028332,-239762.93459727583 L -6043876.460725595,-239866.31211518572 L -6059465.530896793,-245800.82279660623 L -6068591.836710498,-250027.36381238874 L -6072532.54668458,-255331.1102630198 L -6077147.296175416,-257637.7327656722 L -6079854.252233036,-259084.73665715673 z" /></g></g>
</svg>
