<?xml version="1.0" encoding="UTF-8"?>
<svg xmlns="http://www.w3.org/2000/svg" viewBox="968827.4433102091 -256348.38637036917 643141.7902081814 692649.7803303944">
  <g id="map"><path fill-rule="evenodd" fill="currentColor"    d="M 1479831.7734323759,-240682.19465201197 L 1479288.2003588323,-232898.60644968593 L 1470471.8080074957,-213819.10188530397 L 1466319.0344034526,-199135.491486599 L 1465264.5048671681,-183490.51283155804 L 1467699.618728271,-170902.43313567733 L 1471950.2421647212,-161941.61479694681 L 1474689.703513653,-152154.66637479115 L 1472569.8464504767,-145331.2639143342 L 1468319.334333517,-142417.06890926033 L 1471232.7880465589,-138986.3694421815 L 1477668.3904482992,-138160.07251970854 L 1488604.6398628121,-141139.36214582398 L 1505411.322624308,-146353.44400769347 L 1527435.9951972482,-153889.07781098032 L 1541927.1212307534,-157950.66962075932 L 1565843.4459107434,-155406.02903106363 L 1578606.0028912106,-152546.17736775798 L 1585161.2737455543,-147239.67050853188 L 1592205.6824424432,-124780.4102599026 L 1595706.2351499284,-121371.61814442059 L 1601489.6166551115,-111819.81103956283 L 1606327.227766515,-100354.76522404149 L 1607359.938682604,-94527.17759036798 L 1606838.1842292561,-90336.00389554385 L 1601957.0471969526,-84128.02564051215 L 1596488.9224896962,-75011.9190089907 L 1594564.7650913342,-69489.11589373645 L 1589987.9755468597,-65395.89196551057 L 1584182.886740972,-61351.67780987994 L 1568213.3265502413,-59731.79492246898 L 1565767.303379041,-57329.196497069446 L 1561288.4749864643,-47615.573359823065 L 1552863.3706452663,-39386.08803226406 L 1549025.9651586404,-31613.083710598163 L 1545623.2622835624,-21242.02450196746 L 1546297.3018003155,-8381.580832638894 L 1544612.258668178,10110.04038753907 L 1542894.7102447285,22633.526370577398 L 1547123.5150609834,27003.740111146286 L 1566202.22862957,30069.39828118473 L 1569920.0769830837,32548.06794138301 L 1574986.0043701043,40288.350104814584 L 1581486.8399934496,47572.15754970363 L 1598967.562271699,52159.88539346073 L 1605751.0380821687,57736.865057188654 L 1611251.7794002276,63835.891886083264 L 1611969.2335183905,68836.7453241533 L 1608001.361588555,88928.00727353948 L 1604185.6634026337,108215.52898368891 L 1605674.8955504664,122893.85726395242 L 1607109.9151062823,136909.55263733616 L 1609186.2462485584,157330.87607601835 L 1608262.2944749745,169793.18417838548 L 1603326.8335311636,177394.77902514033 L 1603326.8335311636,183365.44934293733 L 1605587.9550281567,190554.21014387326 L 1601217.7744585942,210436.34756540088 L 1598391.3725873532,213797.3823869064 L 1590575.0745413036,217506.55193891554 L 1586465.8268581606,222847.39103877195 L 1585150.3644354565,231234.28088618367 L 1580932.4689292992,242722.02964551232 L 1576605.814280637,246921.30957649284 L 1576605.814280637,252263.0554274255 L 1580780.2951853848,256168.90590537217 L 1580715.0619637799,262142.00522715496 L 1572920.4712184349,269247.0097649382 L 1568202.4172401438,274698.37966769 L 1557788.0335984698,277342.46521322906 L 1545884.195169982,274535.1454274113 L 1543090.2985900522,270574.4579065919 L 1545971.1356922914,264405.1647099403 L 1544949.3340862999,259465.54109455718 L 1540840.086403157,254286.65709954718 L 1534469.6059035305,240927.0492991997 L 1528838.3981422617,238109.45983969275 L 1525696.628153603,243570.56641277057 L 1516010.6079401898,253720.9284093346 L 1498910.3756814718,266733.5363067457 L 1486930.506040772,267778.0728445474 L 1464807.9836354249,263806.75506738067 L 1446261.9338302838,257594.1713360672 L 1437532.482001257,242319.54154037862 L 1432064.3572940005,229733.0484476937 L 1424172.028035739,215091.75744528326 L 1415279.4931527001,208141.37447258976 L 1405789.0612846103,203703.64873046594 L 1401560.2564683552,203399.03486458884 L 1388003.9915185322,211545.80778480228 L 1383938.2697562894,214765.40613312603 L 1383970.886367092,221607.31882218638 L 1385231.913558798,227981.7566312891 L 1387330.0633212696,231071.09072055007 L 1389102.0469757172,235161.36164488795 L 1388786.7901777902,241536.1796889502 L 1386351.6763166874,250043.6289481279 L 1385525.4630560197,259443.70441957697 L 1343008.7646593817,268648.5811502473 L 1335638.1898544682,265329.913288331 L 1330300.5315904217,261097.50693459873 L 1323854.0198785833,261837.40094726352 L 1305416.7292159472,266657.43861792673 L 1298644.0513960845,263295.3623323057 L 1291914.8994971218,260847.27403716635 L 1288827.4534199703,262892.82279210136 L 1288544.8132328463,266918.48838800564 L 1291686.5832215047,289018.5784329023 L 1290697.2869068251,297441.6678979142 L 1286533.715312175,308433.83153238 L 1284381.2416381962,315911.2038000623 L 1295654.566470831,317990.09914976254 L 1299731.1975431715,321473.2051352076 L 1303699.069473007,327035.4507407446 L 1309134.577569461,332227.86209983664 L 1309504.2695983853,335363.01131528424 L 1303329.4887635733,341143.71470026334 L 1301220.5410104948,348263.74249353504 L 1304155.702024241,353838.15004182234 L 1311830.6243169834,359652.4333655613 L 1323038.7159280132,365684.6679400784 L 1328506.8406352696,369626.57452707505 L 1327963.267561726,373241.8969167719 L 1322788.5810322007,380962.9117346689 L 1320777.4831115294,387475.54652540095 L 1317233.5158026349,393367.7999088636 L 1317961.8792308953,398792.0430138804 L 1323006.0993172107,403846.2517109394 L 1322462.5262436671,408366.8447772228 L 1319038.1160678845,411798.3354359586 L 1312058.9405926003,411079.2764989602 L 1306155.8906348145,411558.61135956313 L 1300850.8489815702,410164.22967366833 L 1284272.4824956912,392648.98334995424 L 1280652.4839745848,392126.24121698196 L 1256605.692851385,405599.9414576471 L 1250615.8136907804,411144.64527749555 L 1245669.4434368722,419086.49395561265 L 1239005.5247595145,436301.3939600253 L 1228080.0733356087,426277.1304352611 L 1218644.076698517,407941.96035301243 L 1207653.392053006,396700.74272043176 L 1184519.8660322742,378490.806520452 L 1178366.792498167,365107.5324662538 L 1151895.7968239621,335569.90613469534 L 1113879.745440096,306061.2006459853 L 1086419.564770702,280454.5915615961 L 1082255.8818565612,274774.4814261443 L 1086886.995312543,275470.87561558106 L 1113412.314898255,288235.08956565935 L 1117032.4247388523,286809.5320702677 L 1120098.0521958082,283947.5398386906 L 1108639.9370084566,277255.4425102953 L 1097703.6875939437,271988.93732143636 L 1087441.3663766936,268702.9532670296 L 1077168.2471688362,268985.8445748778 L 1071406.572964358,263578.2436381361 L 1067667.0173101395,255342.02831618124 L 1065775.3652030895,248302.93440764525 L 1061231.303588908,240937.8549947155 L 1046653.2370330932,225762.64660450706 L 1043120.1790342962,219899.5460083095 L 1035151.7072443322,211882.95753843008 L 1040000.1163463424,210838.76423314607 L 1055621.914447835,218485.51046578726 L 1057013.4080827509,215439.8290043958 L 1055665.3290492443,210947.58283398196 L 1039967.6110550308,203681.93035902863 L 1031444.6568814255,203203.34715231977 L 1029476.9735621637,198102.27980058242 L 1030640.1509214623,192196.5777089916 L 1019410.4633292184,170086.72651965733 L 1007756.6484770525,153535.75848668706 L 1005919.431601,145717.30904989716 L 1037369.4141399156,181701.43230343054 L 1041576.511655466,182321.40025785752 L 1047109.8695843272,181984.18736885494 L 1060133.3594512139,177949.47655668238 L 1057654.7196692107,173142.66188609716 L 1051784.3976417184,167987.95120469035 L 1046087.9566588452,170358.6655350396 L 1038684.7652431291,170847.9783681926 L 1034803.8338356034,168694.74212287363 L 1033064.4667919584,164986.53471498043 L 1040467.6582076742,147511.47392793195 L 1037260.6549974108,148392.2480146012 L 1034901.6836680106,151513.1730652188 L 1030835.8505862771,152992.0284703736 L 1024563.3312385484,153905.44653992914 L 1009071.9995802657,144542.9184189496 L 995407.198126919,119284.00623328256 L 991787.0882863218,114108.56475111948 L 988134.473154413,105323.48870246846 L 984536.0706145203,101702.90204755828 L 968827.4433102091,65792.76693721015 L 974850.0504011068,68456.23326685658 L 981992.3089304031,78860.51383945055 L 995907.2452795623,76675.37244471943 L 1001342.7533760163,70652.36344962314 L 1006093.42396511,70880.69377858829 L 1010952.7423772181,69499.91452530296 L 1017073.0879810323,63824.98202967587 L 1034901.6836680106,39103.442494780626 L 1039619.7376463019,6484.584094829073 L 1038086.8682580786,-12893.032204309859 L 1035477.7620328658,-32118.591827365883 L 1041380.8119906513,-38250.051587700815 L 1043707.1667092493,-34200.517089266876 L 1044859.5460779412,-27373.324178501 L 1047642.533347773,-22312.812926776143 L 1053991.1952272041,-17785.092813833016 L 1065807.9818138918,-16578.38515341535 L 1084071.3914319088,-9457.818723328995 L 1090572.2270552544,-4924.552122997061 L 1092344.2107097015,-13980.180765114581 L 1113357.9909867477,-21704.11432710675 L 1107009.3291073167,-24476.210473943433 L 1088332.812858966,-21426.815890460246 L 1062709.7377461332,-32944.81583565554 L 1054208.6021927237,-40288.350104814584 L 1046272.7470135619,-54181.962893960146 L 1038032.5443465712,-61460.441992889675 L 1038608.6227114266,-67999.68591507406 L 1057013.4080827509,-74011.75645643452 L 1061872.7264948587,-73326.76193959959 L 1063840.4098141207,-66146.00257503893 L 1068786.6687485385,-63199.89209841771 L 1070667.4115454906,-64178.327882292804 L 1071482.7154960604,-70315.37877547792 L 1071547.9487176654,-86769.87424297996 L 1065927.6502664946,-110357.51907519302 L 1067645.198689944,-114885.92267402375 L 1072689.4187762595,-116522.36578298587 L 1077179.156478934,-119642.85188777206 L 1080310.0171574948,-120229.94334590274 L 1086539.121903814,-119642.85188777206 L 1089669.9825823747,-114184.7194768594 L 1091365.8237051193,-111183.74560492764 L 1097649.3636824368,-109792.04318008812 L 1102813.0295823736,-106883.62458208286 L 1107259.3526836385,-107666.5339654627 L 1110944.5844263497,-111069.62580777159 L 1116369.2945321966,-111770.93427592453 L 1133110.632752597,-111721.9461822803 L 1148308.4149136578,-111667.61394067323 L 1178562.4921629813,-111564.29363472182 L 1208805.771421698,-111466.54018254967 L 1239059.8486710214,-111368.67542009676 L 1261845.6126025151,-111292.52128861393 L 1261769.4700708126,-124769.49886219998 L 1261649.9129377005,-145575.89643476126 L 1261508.537184393,-170157.43954262833 L 1261378.0707411834,-193746.40881386946 L 1261258.5136080715,-215543.192458054 L 1261106.339864157,-241334.99263444447 L 1262356.4577457653,-248732.73105441322 L 1263845.8012130887,-251806.17772787387 L 1263302.339459036,-256070.97717104797 L 1286740.2129675967,-256348.38637036917 L 1329126.4449210248,-254449.8698638941 L 1347650.6761059703,-254711.0106332764 L 1352912.3031578052,-254362.8601715342 L 1376056.7384886348,-255657.53809398625 L 1394809.2859491974,-254025.62843049946 L 1402777.7577391614,-252208.68903013266 L 1409941.8348886534,-251289.36493462944 L 1432401.3213926319,-250174.19571309598 L 1461720.5375582732,-251583.1425583552 L 1471678.511287695,-251251.264121453 L 1477200.9599064584,-247661.13803883822 L 1479831.7734323759,-240682.19465201197 z" /></g>
</svg>
