<?xml version="1.0" encoding="UTF-8"?>
<svg xmlns="http://www.w3.org/2000/svg" viewBox="-906677.6602808336 -8587323.251124278 1101106.279149531 2137342.7342959056">
  <g id="map"><g><path fill-rule="evenodd" fill="currentColor"    d="M -296964.33392143686,-6732243.617020273 L -305253.5171643764,-6724735.210854804 L -331566.884439618,-6717172.334898219 L -342905.3311743669,-6709468.243026722 L -362766.73208272125,-6692086.29512551 L -366587.88492369105,-6690649.028733301 L -396559.4333053813,-6694822.368027062 L -418861.2914103965,-6717364.5562730795 L -433118.64651323576,-6726624.65384465 L -439005.3325058749,-6727674.733058192 L -445093.1728183774,-6724918.83271715 L -458111.2080302152,-6722102.618305907 L -471390.17612847243,-6722583.650375009 L -464612.1549730516,-6733022.920876543 L -455409.8179471348,-6738865.235573127 L -476021.2895844542,-6742923.313367994 L -481750.3471781301,-6746106.142904519 L -488278.3447572292,-6753441.236789354 L -504443.6046127745,-6754696.701040718 L -512156.59817136795,-6752826.78986037 L -525163.8353925989,-6743133.56003824 L -545720.983118411,-6732830.329408069 L -570485.2283597734,-6747114.729942426 L -575339.0921168325,-6753379.933823578 L -575214.0803286717,-6765493.828260188 L -578926.5853466274,-6775099.343256531 L -585797.1129988974,-6778488.668122632 L -577007.8826033146,-6791028.088464583 L -566403.1426323841,-6799383.794167857 L -543073.9169468379,-6807695.287272749 L -507743.0030003963,-6827452.423178302 L -487930.4713485002,-6835881.287911394 L -469514.99930605973,-6850446.644564439 L -461905.1989154316,-6859335.618465878 L -456382.7502966681,-6871520.200277254 L -450903.716279314,-6886498.149298035 L -443087.41823326424,-6898679.485119095 L -450669.94534864806,-6901584.610414959 L -454061.7389136283,-6910789.676142269 L -453148.58513065113,-6920139.832297627 L -449648.1437426566,-6928442.256703072 L -452784.4590762663,-6938863.7107838625 L -458361.23160653695,-6949775.633800599 L -458051.42946365924,-6958279.781984526 L -456572.9953064338,-6967379.10018601 L -470786.82448837283,-6966892.293857345 L -484957.2390689027,-6964044.415411112 L -497801.3932361214,-6957595.496103139 L -510254.1480737109,-6948840.106350578 L -521315.5205958753,-6947221.472908218 L -521136.07357671665,-6954220.099642392 L -516336.5337311645,-6962882.115407636 L -503796.8383712655,-6975270.345790439 L -490371.03986465186,-6985554.285517021 L -485598.6619748535,-6993373.31656459 L -481837.2877004396,-7002467.29340026 L -475173.3690230819,-7009777.119076328 L -457638.3228333254,-7023599.95317322 L -424046.7759305287,-7039184.080143552 L -419029.8291194575,-7040102.687125812 L -405859.50884421455,-7038292.58696996 L -392912.16150903044,-7040648.57360784 L -381573.6034547908,-7046263.690702323 L -370267.77333084436,-7047474.572165225 L -344818.69058212166,-7031292.827187946 L -352390.3083874078,-7056338.977295142 L -341165.964130722,-7062348.176547663 L -324892.05645216256,-7039684.26162361 L -318836.83275046246,-7037301.369820679 L -306074.27576999523,-7040584.853868741 L -310998.82740370807,-7044406.705257663 L -316749.5922980886,-7044634.307600131 L -324283.2501570141,-7048048.192341231 L -330615.6593907895,-7055318.068773246 L -341149.7114850662,-7078428.986154142 L -340578.9764557691,-7092179.429177812 L -333480.132527882,-7106504.392894602 L -325620.419880423,-7119706.573924744 L -332213.6506811269,-7122334.972443117 L -337496.98503366654,-7127391.8965381645 L -339008.03580169444,-7140638.26654162 L -336937.1593144671,-7152356.4965249505 L -322810.27065483754,-7162715.53054633 L -318641.13308564783,-7178464.957803391 L -316869.1494312005,-7195822.821070118 L -319217.32276999386,-7203796.286768107 L -333235.5636066092,-7202514.831764641 L -340051.65602788137,-7199265.535148255 L -346166.65829613747,-7194115.801062657 L -352433.83430830797,-7194422.030489995 L -369751.3622130543,-7213665.4245678885 L -379627.7387557244,-7228249.9047241155 L -397342.1206451488,-7259212.055519754 L -399864.1750285612,-7277771.257744603 L -385677.5078023756,-7317952.624562466 L -363783.1903531546,-7343758.588366132 L -337991.5775312611,-7352764.442158491 L -342981.4737060695,-7354487.403748635 L -382280.25958234654,-7354837.781372314 L -395233.0615725794,-7351666.536469958 L -407240.2044885235,-7341102.2568600075 L -414023.6802989932,-7337861.136142908 L -421149.68618263386,-7336661.442594076 L -427645.1784704213,-7331411.158019371 L -433988.38569480367,-7324127.259697036 L -440592.5258056054,-7319469.863361493 L -453713.86550489935,-7320676.376118459 L -460078.89134947705,-7319139.986973433 L -464650.1149194121,-7323353.956129248 L -468476.72241543094,-7330325.726557857 L -473488.3258909441,-7332185.2605252955 L -479081.46238636127,-7330042.553339244 L -490909.1582831467,-7320648.189853357 L -502883.5732687975,-7315107.318111329 L -517363.9013116958,-7321025.237837931 L -536344.6537283844,-7332062.682732141 L -540089.7753571426,-7328032.608818675 L -544296.8728726926,-7317792.444822293 L -546715.6227686489,-7301827.051472332 L -560195.7451867696,-7315691.306698337 L -571681.0223298749,-7334262.608997105 L -575534.7917816472,-7345952.326856571 L -575822.8866238202,-7359127.937173592 L -569588.327222452,-7364245.116164826 L -562815.6494025893,-7359563.698915526 L -552721.9772138909,-7390928.035455655 L -532643.0580205264,-7431937.798790338 L -525555.2347222279,-7444005.3231669525 L -520614.31912336854,-7459775.980801774 L -521462.2396847409,-7470118.696865019 L -525892.1988208592,-7478858.8679623455 L -544557.8057591121,-7498750.841080161 L -544313.1255183485,-7514981.694364986 L -542312.9369077749,-7533358.7170190895 L -537236.100210657,-7544402.029234705 L -535094.535846776,-7546507.843946819 L -510297.67399461113,-7546216.660279533 L -519967.44156236877,-7551925.272078262 L -539241.8547957701,-7568609.305501426 L -538899.4360420901,-7574529.26422235 L -534366.1724185155,-7590003.4607073525 L -536464.3221809872,-7588432.074414839 L -540595.2771648348,-7581282.549527941 L -548482.2630875382,-7564006.824989405 L -553298.0555787459,-7559980.718023449 L -566930.3517407811,-7555888.855620293 L -569398.0822126864,-7547400.74334804 L -571588.6271525164,-7545187.965755666 L -578399.3762382305,-7544227.365490119 L -580486.6166906044,-7536323.953816823 L -582003.1221136812,-7535819.975569308 L -583938.0775026499,-7544343.8075462775 L -584128.3225124156,-7558493.493516441 L -581416.0231192374,-7571529.729964838 L -576235.993254154,-7581740.793657975 L -556260.4898677366,-7605009.981744153 L -565984.5813470014,-7597825.400627183 L -588025.6178850881,-7576341.239622967 L -599282.5787525763,-7562246.351351681 L -602288.4276429762,-7557492.217813043 L -603228.743381707,-7553489.0143054575 L -603163.6214795929,-7548876.281829335 L -598108.4920831795,-7524189.007891646 L -599548.9662940445,-7512787.901459927 L -618540.6280208309,-7437849.658806057 L -622139.0305607235,-7430369.687039483 L -625443.7722839034,-7426460.383884433 L -628569.1783074153,-7425562.17446572 L -637934.5983873443,-7426986.050985377 L -642114.5339471409,-7432568.814365374 L -642076.4626812896,-7438902.378544527 L -640320.842991989,-7448412.147853673 L -632444.7663793832,-7483921.007088267 L -629025.8108586494,-7493814.006037345 L -623948.9741615313,-7503024.936933721 L -612757.2465156481,-7519177.843834434 L -613029.0887121652,-7520231.9921389865 L -620481.1493843393,-7517060.079127437 L -623655.5359838003,-7518104.432391988 L -625933.0214459399,-7521305.699804004 L -624454.4759692237,-7569426.824818653 L -618410.1615776212,-7585329.620614046 L -616149.0400806282,-7608511.722265974 L -610909.2316489889,-7628418.461228217 L -604843.0986371911,-7642949.921054354 L -600228.3491463559,-7661586.860572363 L -593270.8809717763,-7669886.63040291 L -591406.5021399705,-7682600.34219166 L -583601.1134040186,-7696384.092394817 L -577567.708322514,-7710827.559667408 L -580818.1261341868,-7709399.686292231 L -619404.9125473499,-7671869.386434958 L -629226.853859022,-7665055.424972313 L -642625.490409882,-7666879.237003131 L -652871.4476619856,-7671089.959541 L -660877.9907178011,-7679953.20210398 L -664454.4633180074,-7696997.85810218 L -674341.7491707752,-7697453.146850596 L -682799.3588032849,-7700403.249003207 L -682696.1656353195,-7702701.06358368 L -671781.6235215114,-7712017.455301272 L -654295.5579077041,-7715211.53412122 L -637929.1437322954,-7730147.783892053 L -652490.9576424543,-7740254.491447561 L -651262.5470615507,-7743460.2287784675 L -638559.6573281485,-7752079.10285999 L -622421.6707478476,-7781065.730588302 L -619149.4343159794,-7807833.098261842 L -626867.8825296217,-7820437.3173604 L -629661.7791095515,-7828710.920346041 L -645087.7662267385,-7837941.335143834 L -647664.1445216581,-7849777.76280982 L -645870.4535665059,-7856385.276473449 L -640837.1427902881,-7862846.702646952 L -633254.6156749042,-7867886.142132155 L -621361.6865565141,-7872706.139171204 L -632156.6715372101,-7877874.012761373 L -636184.3220336016,-7883978.410629049 L -639239.1514999507,-7892829.552848476 L -639521.7916870747,-7897960.430135299 L -633934.1098467065,-7920872.69913851 L -630678.2373799848,-7930338.747215603 L -624318.6661904558,-7942433.647809225 L -595450.5166015086,-7941748.602863043 L -592129.4109131821,-7947096.83329452 L -588857.2858008045,-7947301.522504339 L -574099.8835453219,-7942433.647809225 L -576290.3171656611,-7947679.90840801 L -600429.5034662193,-7976482.957228815 L -602592.8864502958,-7981979.2860272555 L -595711.4494879281,-7997565.403872665 L -595211.4023352846,-8004520.204269798 L -596222.4059506691,-8011966.420343176 L -594254.7226314072,-8017633.44269904 L -586601.5076393696,-8020318.670819948 L -563272.2819538233,-8020049.998971476 L -557521.5170594428,-8022694.82583894 L -560141.4212752625,-8030241.940825691 L -565571.4747166676,-8040178.363572315 L -566631.4589080012,-8048530.90644622 L -565359.5224061973,-8055917.255601496 L -565060.5182539264,-8070805.354767084 L -564000.6453820837,-8077401.703415985 L -558461.8327981735,-8087286.336484105 L -553885.1545731897,-8090226.003835777 L -548210.420891021,-8091946.701431555 L -535404.3379896537,-8088641.270827896 L -530523.2009573502,-8084649.753772829 L -524919.2664713259,-8075226.568964298 L -520777.4021773807,-8075986.142275389 L -504829.54928735475,-8086223.182794506 L -500035.46409685165,-8087692.769652913 L -493507.3551982617,-8075830.129341035 L -466275.3794849939,-8085295.901557568 L -429639.912425946,-8089538.006521533 L -407631.49249866186,-8095775.21714103 L -384448.98590198107,-8098039.921180599 L -362804.8033485725,-8105119.944815754 L -339866.8656731645,-8101871.34733179 L -339100.4309790528,-8097747.497239659 L -340301.67960420303,-8092030.215639841 L -346166.65829613747,-8076392.174798691 L -345215.4332473089,-8058979.650995098 L -346525.44101496413,-8053706.918259279 L -349183.4164966351,-8047214.213511696 L -357597.61152773554,-8035104.955471678 L -379709.224622985,-8017829.487874702 L -420231.0777446077,-7978270.090785975 L -444169.10972530243,-7958716.566676351 L -447463.0534578755,-7949327.344867619 L -449240.49176737166,-7936291.824102522 L -434906.9941328298,-7933707.752784919 L -429373.6362039685,-7929297.8026960045 L -432803.38971530925,-7922687.39910897 L -454007.4150021212,-7899779.827395979 L -460252.7723940963,-7879130.873760472 L -443995.2286806834,-7879860.920726591 L -430602.0467848723,-7883826.332654021 L -403891.93684444344,-7896700.22379878 L -378796.0708400078,-7906278.48919785 L -366745.51332265435,-7906675.242736731 L -343302.1851590449,-7899037.6518693315 L -337969.87023055635,-7898793.6763022365 L -328022.91713072336,-7902321.680933573 L -317961.75023333647,-7902952.123136088 L -249816.63338830773,-7900572.67222416 L -230884.6389085865,-7905057.727734185 L -218355.74153929437,-7899698.423936308 L -207876.12467601558,-7886322.294494915 L -197918.26226608487,-7861713.72644719 L -198222.6097539137,-7857628.425212874 L -204239.76218976252,-7846445.985560047 L -215344.5493133363,-7832447.999785781 L -224900.1030835401,-7813218.050994476 L -227704.9089735674,-7802863.455154393 L -229580.19711547092,-7791550.899405766 L -232607.7533065756,-7781105.696994392 L -251610.32434345977,-7732235.662209656 L -270134.55552840524,-7705276.760847303 L -278407.48612568894,-7686197.075678454 L -288615.37211194134,-7671030.768366385 L -298442.7680786623,-7661507.969890428 L -308933.2942520389,-7655166.086615986 L -339236.35207731137,-7648396.592667055 L -347715.7803300166,-7643549.547639096 L -357831.2711389106,-7635229.220198167 L -368463.1730655946,-7631116.555720072 L -355999.5089179073,-7631636.47205819 L -343644.60391272506,-7636260.19493597 L -321174.096779158,-7637959.08236426 L -295300.9980900038,-7622035.267852181 L -297698.15200474614,-7609030.308053828 L -308085.37369066646,-7598763.304468702 L -331708.1488734347,-7597151.309256042 L -353798.1659874703,-7574383.239441585 L -363766.82638800796,-7567392.656426539 L -374284.62583662884,-7563919.369457613 L -387438.5821467252,-7564950.372055084 L -411338.54286156874,-7571033.211436721 L -421796.45242414274,-7577393.666324335 L -412344.0918219043,-7567013.190596637 L -401619.7947178619,-7561604.649566594 L -339383.07116617693,-7548856.796994032 L -335638.06085690967,-7550177.304411045 L -315798.36724926,-7563647.048465079 L -289354.53353080864,-7563851.238502398 L -239010.73909751387,-7539125.713252615 L -224514.26972845063,-7520280.3255802635 L -203745.0583726772,-7493341.8150487915 L -192444.68290377964,-7482852.486451071 L -184275.05679395204,-7473357.817568743 L -179241.7460177342,-7459142.7449588785 L -169490.49258271581,-7412397.636161489 L -158369.3414939954,-7366994.608792117 L -143796.72959322954,-7318103.350909194 L -137192.5894824278,-7304573.505857383 L -128506.66357430106,-7295096.752570934 L -84527.78366609324,-7273366.282795821 L -74738.45896522356,-7266173.626014831 L -57676.29797235694,-7245344.720050695 L -41228.39792968759,-7223211.574026965 L -25921.96794561248,-7206248.52146813 L -9392.582035682459,-7192548.366513781 L -17399.125091497866,-7185438.617446179 L -22883.502444410075,-7174272.581003739 L -18785.164071364918,-7159113.238317668 L -12050.55751735345,-7144665.367312218 L 1174.0866693966564,-7121599.535141797 L 12838.699512169827,-7096502.587760789 L 8539.206819261222,-7100287.263988013 L 4016.852505784483,-7102368.2361989105 L -2163.3829840764784,-7101744.863454931 L -8207.586056188062,-7102955.0400120355 L -19350.44444561316,-7110807.747777287 L -30058.488903999725,-7120460.090613145 L -51360.252703728176,-7116582.992773711 L -63193.40325556236,-7118319.22955959 L -73461.06780837076,-7118061.845886564 L -53996.52088469449,-7112487.630540413 L -32694.645765475238,-7112102.030577353 L 14284.517058592864,-7070087.816319648 L 30167.136727013967,-7045298.697647068 L 39603.24468359659,-7012641.361529326 L 33178.44027246281,-6998014.078430168 L 23177.051941631937,-6988554.405412573 L 13849.703127554336,-6977743.088494753 L 5109.34198842967,-6965558.2973569175 L 31145.523731596048,-6947689.036328569 L 36755.02419215989,-6948228.637348887 L 42516.69839663815,-6950728.956452238 L 48050.0563254994,-6956803.228487786 L 57388.20313018394,-6971607.827171588 L 62204.10694088254,-6976885.609384594 L 78423.69070793489,-6978790.154804702 L 92034.27956926527,-6977652.881575274 L 105590.43319959776,-6974377.101088961 L 117505.0696186926,-6975414.671277659 L 141519.24413108997,-6969055.919809548 L 153857.8964906164,-6963323.655109003 L 184427.23053786648,-6937570.426520101 L 191036.82530371708,-6923518.890838047 L 194069.83614987065,-6905412.177466294 L 194428.61886869735,-6885373.894758467 L 189286.66026946524,-6867103.404013576 L 183383.6103116795,-6850642.235230918 L 179741.7931703776,-6829436.911619567 L 177154.50556536033,-6821811.351540317 L 173545.3050348608,-6815847.025241096 L 157347.53988800396,-6799180.762515941 L 146585.17151811026,-6792342.311853719 L 142041.10990392882,-6795341.656772757 L 137192.5894824278,-6794926.94710031 L 136681.63301968668,-6790931.101592685 L 141801.88431821408,-6782443.198769777 L 141867.11753981895,-6772212.890462031 L 132300.6544595174,-6764649.835982957 L 122581.90631581064,-6761424.462595139 L 106318.79662785813,-6765449.718128234 L 83739.64167127687,-6751378.762913949 L 99970.13474842696,-6744159.3760503065 L 103242.25986080444,-6736482.274222217 L 99176.5380985617,-6723003.457354663 L 88968.65211230931,-6716997.657210455 L 77651.91267826513,-6714341.442983443 L 66063.33104770376,-6713703.643902073 L 56464.25135659977,-6710411.140619581 L 47256.45967563415,-6704074.3837749995 L 58812.31337590229,-6707442.982410446 L 66824.31108676657,-6704493.23813595 L 71857.62186298442,-6693192.784441987 L 76423.39077787055,-6689960.814754134 L 99002.5457344518,-6685136.918426495 L 112982.71530521588,-6685171.860072015 L 139942.9601414572,-6687914.354261189 L 152890.41879613206,-6687844.625975407 L 157510.5116225253,-6685807.25362431 L 157586.6541542279,-6676463.0023395335 L 155575.55623355662,-6653556.282987138 L 152009.77030446645,-6648840.60084947 L 116265.8610471819,-6629658.793412603 L 108938.70084367783,-6616285.770655658 L 106884.0770021064,-6608193.033971117 L 85979.05586756516,-6609624.553841851 L 76184.27651164659,-6601073.228554676 L 59258.03661703856,-6595405.9078689385 L 46169.31352854704,-6589372.456011597 L 33363.23062717964,-6581761.90776246 L 22829.17853290296,-6579484.268009677 L -22698.712089693243,-6588520.736558356 L -50180.71137928265,-6587780.9715281185 L -87414.07542338125,-6579905.425471477 L -97002.35712387829,-6581203.176446854 L -111384.72401487843,-6588744.493784741 L -126109.50965955867,-6593847.634018669 L -143052.11351931334,-6596094.6891782675 L -157679.0493315863,-6603072.33684414 L -148552.85483737214,-6589656.499561189 L -168843.6150217161,-6576743.486826588 L -178203.5804465961,-6574175.272193273 L -187895.16663454933,-6574578.921390773 L -207723.95093210117,-6571075.659200952 L -226096.00837313224,-6572861.570560218 L -223334.72840400512,-6563696.2853947 L -218415.63142534113,-6555715.083436171 L -222405.21065588124,-6552245.610329357 L -226628.67213657804,-6551380.530772724 L -261617.05600984872,-6557403.239898487 L -266574.33557385474,-6556263.490190129 L -270890.08091241925,-6550704.070863538 L -283614.6779465259,-6553701.821879586 L -295980.49226180586,-6563078.883931162 L -309128.9939168534,-6569376.0884794975 L -322924.3731329006,-6572337.731098523 L -333893.2391582158,-6571316.17290099 L -378997.2251598712,-6556529.195403287 L -387998.4078659246,-6541717.343629875 L -392499.0548786966,-6520760.907681124 L -399010.79981214,-6502198.110592301 L -409631.79242872616,-6487933.556283184 L -422274.7922760814,-6486072.620898041 L -434167.72139447165,-6495943.143784616 L -456790.40227195306,-6506856.193624877 L -464487.1431848908,-6514236.1110146055 L -466938.50969164947,-6514671.06553118 L -469466.0187301108,-6512028.3402364105 L -478336.8463124451,-6508696.325181992 L -487522.81937321526,-6508542.950730502 L -501682.32464364724,-6505604.08408822 L -526316.2147612908,-6496734.492088202 L -536268.6225161726,-6490721.650610888 L -557657.3268382106,-6474160.201257094 L -562011.2547621172,-6469579.827826717 L -569789.4815423156,-6452916.569861762 L -581671.501350608,-6449980.516828372 L -592537.1742079578,-6460655.293253328 L -604908.3318587958,-6464383.214316969 L -617959.095000927,-6460731.452163868 L -625851.4242591884,-6455058.048164687 L -629531.3126663417,-6459664.250112107 L -629650.8697994536,-6469147.405098755 L -620122.3666655127,-6480458.233466536 L -594700.4458725436,-6489013.100526036 L -572382.2238023818,-6511252.635198414 L -561435.0650777712,-6524840.427046076 L -557092.0464639624,-6532492.766188224 L -551743.478889818,-6537373.146870291 L -544748.0507688778,-6539219.904466531 L -541155.1028840342,-6547690.22741824 L -510167.2075514014,-6581830.563564456 L -507612.53655718657,-6589682.226074146 L -506068.86917835625,-6603744.639193336 L -503508.7435290925,-6617304.266516591 L -478282.41108144727,-6626097.295269244 L -466226.5102285356,-6654709.607996575 L -462910.74787576724,-6656982.101809512 L -427726.664337682,-6662240.762050112 L -401630.7040279596,-6661824.068987385 L -375714.190737396,-6656210.20382941 L -362429.76798408997,-6655707.132525334 L -349096.3646548348,-6657641.426065372 L -338638.4550922608,-6665383.709710696 L -320739.2828481195,-6693367.131305442 L -310672.66129568376,-6705714.900458056 L -299138.5148961203,-6716884.011340933 L -288348.9845704731,-6729661.294412241 L -270846.6663110098,-6753379.933823578 L -282679.7055433532,-6745202.921590949 L -296964.33392143686,-6732243.617020273 z" /><path fill-rule="evenodd" fill="currentColor"    d="M -467183.0786129223,-7042677.624855387 L -462519.45986562886,-7039211.277285096 L -450773.24983610417,-7039757.1025930885 L -454659.63589867903,-7032037.993740155 L -467585.3872526491,-7023436.533732684 L -476293.0204614806,-7014953.3684045365 L -486805.36525505263,-7007856.258670912 L -491903.9092528753,-7015996.228554533 L -497817.75720126805,-7015687.906622831 L -506862.46582822147,-7031319.997370137 L -508493.0737293614,-7054807.757021518 L -496676.2871426738,-7060934.409634781 L -480353.39888816525,-7060551.308688401 L -467183.0786129223,-7042677.624855387 z" /><path fill-rule="evenodd" fill="currentColor"    d="M -283739.68973468675,-8230558.970165036 L -296339.27498063265,-8230303.944497835 L -289832.8733827474,-8243181.71792118 L -282266.7102325102,-8246417.795238496 L -267944.0105885752,-8244980.648290813 L -270487.88359218306,-8239202.164554819 L -283739.68973468675,-8230558.970165036 z" /><path fill-rule="evenodd" fill="currentColor"    d="M -116053.79741722072,-8515044.19949212 L -118874.85595290385,-8512427.5286217 L -129745.87214581177,-8535435.89075158 L -121706.82379868471,-8561861.476900578 L -111944.54973407778,-8561016.855946507 L -110389.97304514975,-8554085.819143355 L -111357.56205912489,-8547716.078202905 L -116331.09426878676,-8547150.440079808 L -116776.70619043222,-8545198.52930503 L -115227.58415655303,-8532944.779576585 L -115129.84564363654,-8518733.592270792 L -116053.79741722072,-8515044.19949212 z" /><path fill-rule="evenodd" fill="currentColor"    d="M -145617.58250413515,-8520391.019151323 L -143312.93508624198,-8504461.616835048 L -137562.17019186146,-8508586.975012066 L -128881.69893878358,-8493332.791758135 L -124451.73980266527,-8493310.693533527 L -117157.19620996363,-8499368.775975011 L -118630.28703163101,-8485189.59574452 L -126201.90483691709,-8445965.026571529 L -128327.21655514228,-8439327.858781775 L -129767.69076600726,-8427456.910111547 L -131273.28687898628,-8425143.8188862 L -133507.24642022568,-8401205.672240043 L -138627.4977187531,-8393337.574299779 L -142910.73776600588,-8374603.459343638 L -144655.55946469965,-8372772.725492521 L -150933.5334674771,-8379979.1520729195 L -144661.01411974852,-8408614.06479411 L -142062.81720463352,-8425307.35592421 L -143704.33441587113,-8433985.170776792 L -147253.75637981467,-8441798.349156111 L -156852.83607091865,-8442049.810360342 L -164919.15769329006,-8438442.624552738 L -166631.36278118138,-8443055.741208155 L -166881.38635750307,-8449280.479952384 L -168827.36237606028,-8451349.390478928 L -179562.45747070963,-8450922.513697436 L -182715.02544997513,-8452641.381932208 L -184796.92256679092,-8458359.186652545 L -185210.02919712476,-8462908.252721684 L -175512.9883541227,-8466472.653461412 L -166359.631904155,-8465145.206718182 L -153020.773919851,-8474232.537401048 L -161364.39239378844,-8504803.538896484 L -172414.74428636432,-8507682.278720334 L -174969.41528057915,-8510650.525153233 L -172838.7602267959,-8515850.50875894 L -166772.73853448883,-8518656.206568658 L -157429.02575526462,-8534262.11034082 L -151835.8892598474,-8536720.552393382 L -144905.58304102134,-8536288.677703379 L -145617.58250413515,-8520391.019151323 z" /><path fill-rule="evenodd" fill="currentColor"    d="M -86191.11949752634,-8582774.347511025 L -86196.46283308441,-8580155.480486576 L -91969.0463476604,-8560939.021899732 L -91892.90381595782,-8553608.583891282 L -101203.9999843796,-8554307.963560546 L -102666.18149594923,-8556639.863833621 L -104427.25584029882,-8567654.003434878 L -103253.16917090218,-8579397.952831492 L -101948.61605829581,-8582428.763058756 L -99230.86201006883,-8583677.189844752 L -96284.79168622482,-8581370.198546631 L -91664.5875403408,-8587323.251124278 L -89256.74695448231,-8587178.214246467 L -86191.11949752634,-8582774.347511025 z" /><path fill-rule="evenodd" fill="currentColor"    d="M -352319.62051075406,-8136035.575658764 L -358684.6463553319,-8133193.152001413 L -364995.3482884025,-8133402.9885963835 L -374833.65356522123,-8145830.169511939 L -378578.66387448856,-8154880.269212813 L -377899.28102217725,-8160877.673376544 L -373746.5074181342,-8162898.941642045 L -364228.9135942908,-8159940.85336451 L -359298.90730552917,-8149581.394889307 L -358684.6463553319,-8142847.450987738 L -357516.01434098405,-8140201.709421489 L -351607.62104764034,-8137546.591259613 L -352319.62051075406,-8136035.575658764 z" /><path fill-rule="evenodd" fill="currentColor"    d="M -326098.7597323616,-8124745.52892143 L -327164.08725925325,-8124106.470369993 L -331219.01103088906,-8128035.43352988 L -337904.63700895145,-8142154.371594339 L -327414.1108355749,-8144958.267150271 L -322429.7806353061,-8143214.983394607 L -324283.2501570141,-8137200.182361751 L -326098.7597323616,-8124745.52892143 z" /><path fill-rule="evenodd" fill="currentColor"    d="M -340350.66018015204,-8186795.770607605 L -341829.0943373775,-8181463.332885394 L -333366.0300498189,-8181590.009374145 L -321108.86355755315,-8177042.031943321 L -313689.4194961815,-8176472.5690149935 L -307514.6386613694,-8170842.070873967 L -310917.34153644735,-8160298.883180983 L -314613.48258925637,-8157352.385187714 L -318793.41814905306,-8156763.096151472 L -333382.28269547474,-8167290.703452353 L -352504.5221849617,-8162920.073530437 L -356309.311060785,-8164257.326503028 L -358820.5674535904,-8167164.485846443 L -359853.27836967964,-8170778.82376307 L -359874.9856703843,-8178149.757831942 L -360913.26256101317,-8180323.557661875 L -367838.1141247903,-8173351.018540313 L -370876.57962599274,-8174173.341133547 L -372594.12804944214,-8177516.905745229 L -373333.4007878003,-8184440.584465661 L -372566.9660936886,-8194446.997058728 L -368506.69898649474,-8208714.038398969 L -361630.71667917585,-8211564.181318725 L -351379.3047720232,-8209911.12150647 L -339649.45870764524,-8201820.406386343 L -336100.0367437017,-8196836.98060895 L -336187.08858550206,-8192861.173718493 L -340350.66018015204,-8186795.770607605 z" /><path fill-rule="evenodd" fill="currentColor"    d="M -303834.8615737069,-8220864.586007773 L -313390.4153439107,-8215465.315186495 L -317467.04641625116,-8219930.827142934 L -318532.4852626336,-8233927.784946149 L -329925.36722838035,-8239925.481736196 L -335458.7251572417,-8243649.93845942 L -339752.7631951014,-8250720.870671617 L -338660.1623929654,-8252894.625219435 L -331235.2636765449,-8255793.883464505 L -318554.1925633383,-8242968.76146657 L -313368.7080432061,-8232620.386600464 L -303976.12600752356,-8229560.24219976 L -302780.3320374222,-8227977.348690002 L -303834.8615737069,-8220864.586007773 z" /><path fill-rule="evenodd" fill="currentColor"    d="M -735556.559796978,-7675767.107291149 L -741883.5143757045,-7674641.864967849 L -742340.1469269384,-7677504.514174684 L -731360.3715915255,-7691189.938247511 L -724250.7296730315,-7693445.268408232 L -721761.1805809308,-7692109.776432677 L -726924.9578003583,-7684181.053048502 L -735556.559796978,-7675767.107291149 z" /><path fill-rule="evenodd" fill="currentColor"    d="M -568332.7546857947,-7449466.304017591 L -582367.2481680659,-7449322.6272954745 L -587438.6302101351,-7451019.046313086 L -593499.1972473933,-7455794.452984221 L -600309.9463331074,-7482813.848989119 L -597874.8324720045,-7492397.124919923 L -595080.935892075,-7497092.107382087 L -592009.85378007,-7500738.116901846 L -584606.6623643541,-7502272.140263667 L -577241.5422144897,-7497140.296095521 L -574453.1002896089,-7492368.308357649 L -568283.7741098457,-7474069.405105183 L -567142.4153707422,-7458403.838777705 L -568332.7546857947,-7449466.304017591 z" /><path fill-rule="evenodd" fill="currentColor"    d="M -643190.7707841302,-7627270.833442947 L -687528.322091674,-7616107.858965015 L -702807.5901199955,-7617096.946736044 L -704188.1744448137,-7622574.241052408 L -701144.2542885625,-7626231.226636955 L -688495.7997861584,-7629791.903259007 L -683375.548487631,-7656711.694453906 L -702497.7879771178,-7669127.1983578075 L -703503.3369374535,-7672619.190112114 L -702008.5388150815,-7678550.909184752 L -699790.8319194978,-7681197.5633035535 L -688185.9976432807,-7687492.055378754 L -683310.3152660262,-7688886.069012265 L -679353.2413267976,-7688035.6600540755 L -671210.8884922144,-7680782.686289529 L -661981.3895105441,-7665567.962239775 L -649664.4444517223,-7663153.543843237 L -641293.7753415222,-7656721.57476756 L -643190.7707841302,-7627270.833442947 z" /><path fill-rule="evenodd" fill="currentColor"    d="M -682266.6950398391,-7544605.709253747 L -678249.8425340547,-7519129.319244045 L -674330.8398606775,-7503372.406314187 L -674075.3616293069,-7497998.461049164 L -677755.2500364601,-7490537.4928184915 L -696100.1455217376,-7480619.715821678 L -701878.0723718717,-7480561.973513543 L -702117.2979575865,-7482968.00572924 L -697975.4336636411,-7493062.304219894 L -701541.1082732404,-7504530.552881442 L -699801.7412295955,-7513261.48149637 L -701508.491662438,-7514865.695104749 L -705085.0755821351,-7513628.610137849 L -718228.1225821337,-7499763.677364727 L -722614.555797352,-7498393.900798692 L -723092.8956492906,-7501210.760421404 L -719842.4778376177,-7512565.667278313 L -719440.2805173817,-7520338.365727706 L -717483.5065082175,-7525117.975441958 L -713912.3772435695,-7529532.646263664 L -709656.2991520702,-7532845.210521455 L -706226.5456407294,-7533319.825839232 L -702568.3645342807,-7529900.550498886 L -691925.6646169899,-7539445.621784194 L -682266.6950398391,-7544605.709253747 z" /><path fill-rule="evenodd" fill="currentColor"    d="M -664584.9297612172,-7521586.235519111 L -666905.9411442569,-7519458.3021433 L -672542.6035605744,-7520048.169359077 L -674635.2986679971,-7523240.533954393 L -675787.5667171982,-7528147.85750031 L -675928.9424705057,-7537167.233381121 L -672515.4416048208,-7543625.9087099265 L -658095.0034479693,-7553391.930101599 L -664612.0917169707,-7556860.664990249 L -664873.0246033901,-7559300.182562095 L -661133.3576296809,-7567431.720148599 L -645609.5206800866,-7580103.021081833 L -641451.4037404853,-7582403.748571562 L -637320.3374371469,-7582052.8945224015 L -645343.244458109,-7559533.524978446 L -664584.9297612172,-7521586.235519111 z" /><path fill-rule="evenodd" fill="currentColor"    d="M -690034.1238294306,-8044021.859735595 L -704188.1744448137,-8007097.684415981 L -709726.9870287239,-8006190.281741911 L -714591.7600958807,-7996988.781675903 L -729653.6211586831,-7986852.188110673 L -716510.4628391935,-7986646.630306067 L -712819.7764414334,-7983274.263476481 L -712716.4719539772,-7976010.371825391 L -715249.4356474874,-7971791.019429548 L -732273.5253745028,-7955008.5477720685 L -743981.664138176,-7948651.940324984 L -756592.0473747288,-7931175.787627653 L -762957.0732193067,-7930961.501444649 L -769256.8658422796,-7919863.53828729 L -774442.3503624119,-7914992.906909765 L -777355.6927559626,-7914982.684813881 L -780704.0717195335,-7917438.054755211 L -788525.7131011413,-7928297.753485883 L -774333.5912199068,-7938989.16443798 L -773018.2401166935,-7945010.2427174235 L -763299.4919729868,-7951271.75017583 L -764114.7959235567,-7953226.931987489 L -779519.0757400391,-7962047.075846857 L -785590.5520873951,-7967984.322865656 L -785014.3624030491,-7971093.208472717 L -777600.3729967263,-7977930.973932349 L -781117.1783498673,-7978834.968891477 L -783492.4023249234,-7982523.814537982 L -787797.3496728808,-7983932.1520305555 L -789085.6501398315,-7987376.638725021 L -789879.1354702059,-7996422.326172537 L -788726.8674210047,-8005685.207741478 L -784237.1297183305,-8009779.143897371 L -782399.9128422783,-8014164.48092755 L -780579.0599313726,-8015516.819468298 L -773621.5917567931,-8013184.15089724 L -766571.6170853643,-8005767.55444445 L -758342.3237284715,-8008624.066181837 L -748786.6586387769,-8007211.091065613 L -748590.9589739623,-8008933.520007927 L -755608.205715098,-8027191.267564626 L -754352.6331784406,-8030924.721199943 L -750547.7329831265,-8035187.837784652 L -728495.7871349421,-8048240.623818045 L -700997.535199697,-8070243.728908455 L -694349.869167995,-8073697.00022939 L -692344.2259023726,-8070690.981577398 L -689539.4200123453,-8059280.770557642 L -690034.1238294306,-8044021.859735595 z" /><path fill-rule="evenodd" fill="currentColor"    d="M -698980.9826239769,-7752906.466614257 L -702285.7243471567,-7750274.814513395 L -706460.2052519044,-7750783.107724308 L -710596.6148908009,-7754172.801418865 L -716075.648908155,-7763782.2476833025 L -703802.2297702335,-7770455.01943163 L -698888.5874466184,-7766538.451931295 L -697002.3899946172,-7762064.931678982 L -696920.9041273565,-7757105.315549226 L -698980.9826239769,-7752906.466614257 z" /><path fill-rule="evenodd" fill="currentColor"    d="M -684027.8807036795,-7864040.354136351 L -684185.5091026428,-7854889.42140264 L -686147.7377668559,-7844144.807842233 L -683592.9554531501,-7832750.306232169 L -683005.9677781973,-7824623.389691296 L -678315.0757556596,-7822037.037786564 L -675445.1479635182,-7818294.995585606 L -654588.9960854352,-7814112.415544175 L -635189.6823833637,-7815288.526549982 L -631455.4700647034,-7811941.834452709 L -631031.4541242719,-7806637.989365977 L -634097.0815812277,-7800786.093588224 L -645142.0901382456,-7790127.908539986 L -658317.8650685375,-7772933.765165459 L -662247.6657325216,-7769355.819652899 L -666503.7438240208,-7769206.024803761 L -669558.461970879,-7770744.836805168 L -671743.5522556602,-7801358.194991605 L -686033.523969302,-7797435.727703892 L -697540.5084131118,-7797886.999967327 L -703840.3010360848,-7801618.983974064 L -708259.3508621054,-7808817.33809248 L -717168.249710291,-7827351.464465342 L -743106.4703015593,-7834655.011129341 L -750439.0851601122,-7844891.533927719 L -752645.8827455981,-7851080.641981671 L -751710.9103424255,-7854505.518473736 L -746308.0188567739,-7862128.447721217 L -739546.2503470088,-7859407.9014694765 L -735360.8601321634,-7861076.566642146 L -732817.0984480463,-7864485.664853853 L -732871.4223595534,-7867288.8855589805 L -736409.9350133991,-7873942.0150260115 L -736578.4727224602,-7876009.036945989 L -710053.1531367482,-7884445.051503952 L -707732.1417537084,-7897645.306793128 L -701975.9222042791,-7898722.69171808 L -695404.3987042797,-7894404.0881037805 L -686403.1046787356,-7880702.555571185 L -684027.8807036795,-7864040.354136351 z" /><path fill-rule="evenodd" fill="currentColor"    d="M -802119.9379973251,-7901009.938460512 L -789563.8786722794,-7889296.00090905 L -799565.2670031103,-7869911.070725488 L -814920.6775631343,-7870002.107799795 L -836537.6981607893,-7884161.032898895 L -836635.5479931966,-7887052.828954289 L -834830.9477279468,-7891306.2960373005 L -831591.327906881,-7894678.297585134 L -828221.3529620963,-7895480.802433448 L -822861.9873973449,-7893154.667789877 L -815399.0174150731,-7896883.153994054 L -809425.2795806336,-7895704.486993129 L -802119.9379973251,-7901009.938460512 z" /><path fill-rule="evenodd" fill="currentColor"    d="M -807050.0556055777,-7783728.157735133 L -811746.2909636735,-7782587.0618246645 L -817910.1624883877,-7783688.1775280535 L -821704.1533736041,-7786872.286146687 L -825536.2155246716,-7799492.0376952635 L -826253.6696428343,-7807140.195979795 L -824546.9192099919,-7821372.919140624 L -824938.3185396211,-7838415.263171145 L -812230.085470661,-7838949.526102109 L -808974.2130039394,-7836489.379528025 L -806794.5773742071,-7785990.970416174 L -807050.0556055777,-7783728.157735133 z" /><path fill-rule="evenodd" fill="currentColor"    d="M -825644.9746671768,-7753056.144939517 L -835428.8447129976,-7750244.807903309 L -839059.7525442019,-7751889.630436667 L -839679.4681494479,-7754472.006608899 L -837450.8519437666,-7761506.003320522 L -829939.0127050366,-7763991.852631711 L -824508.8479441406,-7760178.559794739 L -823644.6747371125,-7756716.318578837 L -825644.9746671768,-7753056.144939517 z" /><path fill-rule="evenodd" fill="currentColor"    d="M -692186.5975034093,-7186976.927311097 L -701720.4439729084,-7188144.618944627 L -708400.7266154129,-7184771.654431333 L -712732.8359191238,-7181650.10755322 L -716929.0241245764,-7182214.94852372 L -728936.1670405203,-7181010.964297335 L -740252.9064745646,-7181270.408482405 L -741856.3524199508,-7186226.332714413 L -739926.7403665403,-7201168.558939886 L -742448.7947499526,-7205217.39022442 L -753254.6890407465,-7207288.921507763 L -757260.6322364333,-7210857.542224368 L -763468.0296820478,-7221200.844235674 L -764680.076297805,-7226042.376304978 L -765571.5227800775,-7232732.302622698 L -772126.793634421,-7241368.42197963 L -780095.2654243851,-7247557.684635396 L -784769.7934817761,-7247856.63188147 L -794097.1422958538,-7237748.667474635 L -801788.4285537427,-7227523.404476314 L -799059.765195418,-7222392.311572884 L -796543.1654670545,-7215646.225549937 L -800728.4443624092,-7210811.092170896 L -813382.3535198623,-7199757.501579817 L -815360.9461492219,-7195470.177581677 L -818774.4470149067,-7193151.218241528 L -824813.3067514602,-7196203.222547919 L -839842.55120346,-7195498.107281815 L -846756.4934571395,-7197446.591003265 L -854795.6531237572,-7205588.92433521 L -874407.0304557899,-7211034.207229425 L -877695.519533314,-7224086.794001086 L -881478.6011084326,-7226526.674597311 L -903720.7919663826,-7249005.475694683 L -906677.6602808336,-7256518.999868946 L -903796.8231785946,-7261008.00402931 L -895491.387289999,-7267812.011780731 L -867601.7360251248,-7279093.291301429 L -863215.3028099065,-7283642.331657734 L -862312.9470175363,-7287658.795177582 L -870498.8257730196,-7292250.329069656 L -877880.3098880308,-7297323.822546955 L -880396.9096163943,-7300651.752942138 L -880603.5185913068,-7303538.800982897 L -876412.6737214124,-7307302.038586147 L -867987.680699705,-7307574.944270249 L -861334.5600129543,-7305871.752402529 L -856045.7710053659,-7309259.615531486 L -846745.5841470418,-7312667.848631409 L -840505.6814101156,-7316963.229476669 L -835140.7498708246,-7328060.821764573 L -829471.5821631956,-7338050.170970826 L -828884.4831687518,-7343474.926976418 L -823921.8602691877,-7362510.484017621 L -821193.1969108629,-7367241.256230705 L -803576.6648538458,-7379740.392714847 L -799119.5437619741,-7372914.16787433 L -790439.072508896,-7371244.057814708 L -782660.8457286977,-7377527.586300911 L -773355.2042153247,-7397370.407781551 L -766876.0758926838,-7398617.520625352 L -759739.2720184363,-7397008.556348481 L -745710.1218717232,-7399503.061092139 L -720799.1575414953,-7408783.613637226 L -709694.3704179215,-7408936.108767579 L -693991.1977686591,-7404065.75012678 L -682293.8569955927,-7404170.538719951 L -671901.1806546234,-7389967.3115405 L -666329.751459911,-7367630.081686975 L -653355.1308494826,-7345621.328701473 L -636396.3856635629,-7326522.978501809 L -635716.8914917607,-7314862.3144306755 L -641777.5698485096,-7308610.183777104 L -654458.6409617162,-7300849.132204372 L -654404.2057307183,-7292560.412928667 L -646038.9912755671,-7296741.205039316 L -638820.590214568,-7298668.031143854 L -621443.2837432656,-7296816.4597648755 L -615366.3527408608,-7288391.083115567 L -611164.7098803594,-7275793.520703822 L -608963.2556304317,-7265462.199708685 L -610463.5084078526,-7254247.226275052 L -615138.0364652438,-7257799.914867594 L -619888.7070543375,-7267840.199999457 L -625166.5867518282,-7272466.935301327 L -631303.296320789,-7274968.747343315 L -628520.3090509571,-7261185.801373962 L -629618.2531886512,-7242786.972744347 L -626938.5704062755,-7241051.184870116 L -618692.8017647454,-7240733.960585455 L -624144.6738263459,-7221945.633126094 L -635417.9986589808,-7216855.521373455 L -648566.5003140282,-7214948.698113043 L -651735.4322584404,-7208311.189614629 L -654121.5655435942,-7199766.816542357 L -660986.6385408154,-7187041.64690842 L -670036.8018228178,-7179872.204001088 L -681223.0748136522,-7181316.684512737 L -692186.5975034093,-7186976.927311097 z" /><path fill-rule="evenodd" fill="currentColor"    d="M -118619.3777215333,-6566681.542269838 L -127946.72653561088,-6560617.817303966 L -130892.79685945486,-6553513.224403164 L -133148.57502088975,-6550704.070863538 L -139312.4465456041,-6548880.167842883 L -145416.5395037625,-6548828.793658757 L -168685.98662275283,-6563087.314706677 L -174040.00885194613,-6562444.141546636 L -168724.05788860412,-6568981.306638451 L -154271.00312095025,-6574295.573414657 L -146139.448276974,-6581323.404338054 L -127375.99150631377,-6574501.707661555 L -118619.3777215333,-6566681.542269838 z" /></g></g>
</svg>
