<?xml version="1.0" encoding="UTF-8"?>
<svg xmlns="http://www.w3.org/2000/svg" viewBox="4450366.225170544 -5399103.47961177 745199.2767284736 376399.5963026965">
  <g id="map"><path fill-rule="evenodd" fill="currentColor"    d="M 4835657.7882983405,-5028156.031552346 L 4835897.013884055,-5030941.03785676 L 4834983.748781586,-5035307.666439446 L 4831526.833314492,-5038419.5039047105 L 4826700.020193696,-5040427.409105573 L 4817829.303930853,-5039697.859052321 L 4809610.808564567,-5041763.728759289 L 4803751.284527681,-5047277.239205393 L 4802435.933424468,-5051484.928247347 L 4805805.908369252,-5054905.820410764 L 4803327.268587249,-5057749.214884114 L 4793097.675300293,-5064524.4292608015 L 4776356.225760401,-5081447.133456482 L 4766887.6125125075,-5085241.578753217 L 4763126.238238093,-5095849.3533424 L 4759364.863963679,-5098108.834395442 L 4751385.482863617,-5099126.183474599 L 4742971.287832517,-5098094.399409568 L 4741144.980266563,-5096888.187395442 L 4738579.39996225,-5095188.200325479 L 4731958.895886302,-5081925.795721588 L 4727338.691740417,-5077436.6346144155 L 4715978.426385473,-5079539.5544807995 L 4706585.84434979,-5082658.542699743 L 4698921.831367146,-5084399.857574628 L 4684071.922614814,-5085495.565927746 L 4667156.5920303045,-5085727.712202613 L 4655774.619374655,-5076327.291673811 L 4650860.97705104,-5077538.057292011 L 4642218.465744322,-5082150.724691159 L 4628281.822094458,-5085974.429488945 L 4620878.630678742,-5088972.103817669 L 4642218.465744322,-5116954.419674359 L 4648567.127623754,-5133626.988756459 L 4648784.534589273,-5143748.052611053 L 4649034.558165595,-5156489.642811113 L 4637935.225697069,-5183006.060960703 L 4628412.177218177,-5220763.312569432 L 4618508.750039245,-5260260.71343682 L 4610790.301825603,-5272123.767769389 L 4578427.16550371,-5285847.203032453 L 4570958.740866389,-5301453.796062033 L 4545911.855437903,-5321638.6899320595 L 4511113.605254906,-5330414.316315585 L 4504221.370301932,-5334175.690511117 L 4473999.90966341,-5359644.150872399 L 4450366.225170544,-5376093.230861194 L 4455421.243247467,-5386066.566051678 L 4462193.92106733,-5396545.684619508 L 4469499.262650638,-5399103.47961177 L 4490882.623637118,-5394948.381426673 L 4510548.324880658,-5390232.876369255 L 4524919.893781051,-5393591.197451357 L 4542020.014720279,-5385310.05124824 L 4557641.70150228,-5375823.801036031 L 4573350.328806591,-5369143.737653048 L 4603974.09808484,-5362856.891203063 L 4615388.687351291,-5354125.285140246 L 4628727.434016104,-5345401.865716584 L 4680984.587857153,-5340957.562646143 L 4685191.685372704,-5342329.37241283 L 4689029.202178821,-5343582.103989779 L 4706553.339058479,-5346752.024453173 L 4722066.266697976,-5346162.776321179 L 4738427.226218335,-5335613.644577159 L 4748917.752391713,-5336217.18138452 L 4760093.22739194,-5337819.375788732 L 4774497.301583645,-5332179.340462205 L 4785803.243027082,-5325910.076181482 L 4786759.811411468,-5319533.357884645 L 4796663.349909892,-5310307.119977423 L 4825471.609612793,-5296258.688677971 L 4848833.563228632,-5288330.299831618 L 4856095.378891041,-5282749.7563004 L 4873858.630036923,-5273544.793486591 L 4875652.320992075,-5270629.00481479 L 4875282.740282641,-5266870.945054463 L 4870216.812895621,-5259987.336743615 L 4868934.07840321,-5253854.644736074 L 4871325.666343413,-5250354.287884116 L 4878685.443157719,-5246980.541756807 L 4893317.833625042,-5246227.793427503 L 4898579.460676877,-5250619.975382903 L 4909493.891471193,-5253758.588383162 L 4920288.876451889,-5259395.955969228 L 4934736.476564495,-5266952.290143774 L 4954369.561197232,-5273789.155774397 L 4962229.385164182,-5273766.87185331 L 4969784.7503238125,-5271679.84548932 L 4975068.084676351,-5267876.825769701 L 4983895.386337786,-5253825.147011677 L 4992733.485989827,-5273515.233963271 L 4995016.4261070145,-5274966.034132093 L 5003071.838419289,-5271006.34827318 L 5017345.5574872745,-5265532.260461021 L 5027216.479374896,-5262633.641859668 L 5032554.137638942,-5258583.038327544 L 5047643.160657499,-5240672.01135244 L 5072037.8251894275,-5241571.914192666 L 5082354.358998694,-5238843.012214039 L 5087887.716927554,-5235886.30853963 L 5090366.3567095585,-5232407.251930564 L 5086007.085450093,-5214663.42425926 L 5079984.478359195,-5196204.0153040085 L 5080462.8182111345,-5191748.808114102 L 5090257.5975670535,-5184809.740118236 L 5103552.9296304565,-5177465.326920032 L 5110717.006779949,-5171576.301416491 L 5115576.325192057,-5166283.6682437 L 5126088.669985629,-5162288.743585787 L 5138481.646256662,-5159787.298997769 L 5144373.675584859,-5159465.5846795235 L 5150504.930498771,-5155042.214918184 L 5166507.107300305,-5146705.514921376 L 5168550.933151268,-5144660.796234292 L 5165833.179103042,-5139295.490889714 L 5159462.698603415,-5129601.955345012 L 5154375.06391569,-5124660.377285131 L 5148732.946844324,-5123866.225069387 L 5143166.972304661,-5121644.2320238035 L 5141210.198295496,-5116466.554444183 L 5140971.084029273,-5109749.3014698345 L 5141905.945112955,-5104948.992716069 L 5143351.873978868,-5103123.997728764 L 5149048.314961742,-5101568.201279773 L 5154701.230023715,-5087520.420732665 L 5163550.238985853,-5080409.816394629 L 5177334.708891803,-5072347.863521485 L 5189597.218719627,-5063177.695022873 L 5195565.501899018,-5054739.450694334 L 5194434.82983103,-5048621.759485236 L 5190423.431980295,-5035921.259906009 L 5180182.92938324,-5025415.100090441 L 5171670.884519732,-5022703.883309074 L 5168670.4902843805,-5023713.320279506 L 5163082.808444013,-5027001.806349007 L 5151863.807522885,-5035148.729888233 L 5139699.147527468,-5041568.73561216 L 5130328.27279249,-5039495.65975081 L 5124175.310577874,-5037047.563766985 L 5112010.650582458,-5039921.806731095 L 5097628.172371967,-5045499.241854452 L 5090138.040433941,-5051007.625227581 L 5086822.389400664,-5055065.081726593 L 5089040.096296247,-5062272.662290951 L 5056383.521796623,-5075276.1247889465 L 5040653.075872117,-5078879.669407345 L 5033554.34326372,-5074964.360041882 L 5009529.259441226,-5055354.425510503 L 5006691.948259885,-5053357.93710659 L 4988374.214730362,-5050675.0227779 L 4988330.800128953,-5049077.180000765 L 4992516.079024307,-5044870.537751999 L 4991722.482374443,-5043569.895171574 L 4960935.741361673,-5043100.232855223 L 4950716.9460653225,-5040557.438090692 L 4923365.413218943,-5043858.895311917 L 4914364.119193399,-5042384.981214013 L 4906656.580289855,-5039300.712262847 L 4887947.558750192,-5035820.125200484 L 4875032.716706319,-5031698.748784668 L 4858541.402062241,-5029562.767608018 L 4841506.403025128,-5029396.83276544 L 4835657.7882983405,-5028156.031552346 z" /></g>
</svg>
