<?xml version="1.0" encoding="UTF-8"?>
<svg xmlns="http://www.w3.org/2000/svg" viewBox="-361108.8509063369 -1251038.5864528932 493268.1296125468 720273.4369303493">
  <g id="map"><path fill-rule="evenodd" fill="currentColor"    d="M -7636.96234638174,-1245221.6078384393 L -527.2091083969436,-1238408.7493167904 L 1049.0748812358102,-1234487.896640934 L -1543.6673788303249,-1219788.6197834215 L -6745.515864109206,-1209500.2517983897 L -10039.45959668217,-1199862.1281841325 L -9609.98900120172,-1195049.6903320125 L -6424.804411133785,-1190243.3615234536 L 4391.887870267023,-1182684.078121417 L 9936.155109226012,-1177785.48746824 L 16502.223954176465,-1170333.9529847624 L 24046.791123199786,-1163060.7774411314 L 36939.81454687673,-1153601.3664335848 L 42397.02994403538,-1151894.271429654 L 42147.006367713686,-1149259.2281880607 L 40375.02271326636,-1145630.153016226 L 39168.31943306727,-1110402.1176106425 L 38189.93242848518,-1101325.9781239314 L 37244.162034705536,-1096736.3196652362 L 36059.27737470193,-1083593.8502942766 L 34700.40035058845,-1081719.0347634656 L 32243.467869290107,-1081867.8692816272 L 30004.05367300182,-1081371.6812077002 L 29449.68260885131,-1078752.7421199216 L 30362.83639182854,-1076067.7064044601 L 38135.60851697807,-1074171.2456321141 L 36439.76739423334,-1072186.7069993478 L 30667.183879657354,-1070384.1377863642 L 28003.865062428278,-1066437.6794097037 L 29156.13311162945,-1061918.2622309434 L 25981.746512168465,-1058297.691872244 L 26884.10230453874,-1055856.7063253545 L 28938.726146110188,-1054065.8449274008 L 32210.85125848767,-1054721.5817772984 L 41299.085806341325,-1060783.073157579 L 45114.78399226236,-1061449.871371922 L 49822.03997994673,-1060187.8401777777 L 58518.87519817123,-1050958.3823033266 L 58888.4559076049,-1046424.4059006217 L 55344.48859871023,-1030964.0721552445 L 51887.461812125126,-1019021.8795943838 L 51246.15022566508,-1003115.4643897011 L 54909.6746676717,-994179.7389206662 L 54409.62751502832,-989283.5305548254 L 50441.64426570209,-985036.9830110199 L 41473.078170451205,-978898.814284977 L 42147.006367713686,-974702.7636903758 L 46234.546750151894,-966900.2528863375 L 53800.82121987991,-958181.2067361134 L 68596.2947412139,-947414.0184640808 L 76401.68347716586,-933375.0169989127 L 76597.38314198043,-927678.2602576179 L 72031.50290760353,-921965.8155596778 L 66704.7539536546,-917028.3561686213 L 64965.38691000969,-909856.6996547505 L 67367.88416031013,-862922.4140511617 L 55659.74539663678,-842554.1443100944 L 55540.188263524804,-836742.4718731933 L 56725.07292352841,-830005.0838674078 L 59812.51900067986,-825921.4472520243 L 65791.60017067737,-824808.7969396331 L 70661.8278928831,-820862.6365543155 L 68965.87545064757,-806598.6210608858 L 66367.67853553257,-792021.0378752367 L 65954.57190519873,-784993.84506672 L 64508.75435877569,-781642.2779927482 L 59899.4595229894,-778904.04944491 L 58225.32570094937,-774326.2609649622 L 59377.59375015055,-768659.3020844758 L 58507.965888073486,-764465.6235082138 L 61008.3129707812,-759035.0280395425 L 66313.35462402545,-752275.0725691698 L 74890.63270913796,-735501.6647336482 L 78173.6671316132,-734183.0649020736 L 79641.30329823172,-730659.4065120451 L 78728.1495152545,-727234.5686721657 L 82032.89123843439,-719822.0087518909 L 91555.93971732658,-712404.9281231934 L 101546.41873805971,-705929.3920783974 L 109645.35697123353,-705005.1588120698 L 111558.60505949754,-699208.6521343369 L 116874.55602283949,-691827.0214041625 L 120722.98213905377,-688595.7353501631 L 126865.03504357263,-686496.3560009801 L 131920.164439986,-685375.7096575781 L 132159.2787062099,-679149.110207844 L 123071.0441583563,-674890.9741644079 L 116918.08194373967,-668468.793132306 L 112210.93727554611,-658664.6061949887 L 105720.89964280746,-647905.9373636498 L 83359.15165174546,-642295.021235668 L 74792.78287673068,-642251.3863290823 L 28906.109535307765,-641983.6476734389 L -14083.47405822021,-620823.1787121744 L -38820.44602433829,-613287.006037747 L -54039.93548610387,-601372.882700721 L -74521.0519997043,-592910.9382409585 L -88800.1144032483,-582643.2415377173 L -118478.1132877166,-577720.0988683868 L -167164.0265446272,-561550.3388712988 L -182394.4253164905,-555166.3829371035 L -197798.59381348212,-543938.5600777684 L -222845.47924196866,-530765.1495225439 L -232678.4411832293,-530945.1067374774 L -252295.16185081998,-543234.8104512168 L -267047.2207707446,-549410.4701715527 L -303128.2054461512,-558838.522560701 L -330061.17700714816,-562477.9916758839 L -343073.86888342793,-566521.5390134099 L -346650.452803125,-567214.5593062493 L -343611.98730192264,-571645.7558423935 L -336089.23875309475,-571924.1677162793 L -328207.7074854402,-570587.1076797232 L -322239.5356255404,-573959.7033989968 L -313439.39591985976,-574407.2339901666 L -311161.91045772017,-577927.4445031462 L -310433.5470294598,-586824.3225100231 L -310536.85151691595,-593991.8370952782 L -307454.86009481334,-597201.8761471523 L -306682.97074565286,-605653.5072742753 L -310987.91809361026,-624395.0058804158 L -314053.5455505662,-626530.4329312608 L -329756.8295193194,-629195.9280308479 L -330930.916188716,-632915.6564316563 L -333768.227370055,-636837.6450651435 L -336774.07626045495,-646507.2736783394 L -340209.2844268446,-660888.8170830549 L -345710.0257449034,-678728.2872457458 L -356287.6037600803,-708133.4097888174 L -358896.5986658022,-718530.999222632 L -360706.65358610085,-729127.5819736266 L -361108.8509063369,-741794.5533274338 L -358907.50797589996,-746511.8051055366 L -359244.4720745312,-753052.2305778186 L -360206.60643345746,-759566.0895493727 L -352759.88909684145,-774561.7572820853 L -338154.6605852732,-792913.8772267225 L -335089.03312831715,-799553.1661936756 L -332376.7337351391,-804166.0605862252 L -331990.78906055883,-810757.4377941366 L -329403.5014555415,-832186.8590112616 L -322418.8713252084,-858068.1194311574 L -318026.98345494136,-867848.4363794288 L -315048.29652029497,-873126.2223559344 L -311488.0765657445,-881773.7829174527 L -310553.1041625718,-885812.8511996487 L -297094.8003646466,-895961.3096625794 L -290920.0195298345,-898711.5138044344 L -289539.4352050163,-902708.1106240535 L -291653.8376131438,-907078.3825352531 L -290735.2291751176,-910054.3943488275 L -287511.9733191984,-911542.4177884397 L -282560.14841024124,-912761.4821746212 L -278950.9478797417,-916935.0044562502 L -284631.1362169593,-948919.8491175432 L -289207.8144419432,-980823.7590164167 L -289474.2019834115,-983535.2768653892 L -292202.7540222454,-987946.8266971093 L -294909.7100798654,-1001128.9658980973 L -299437.519048391,-1008849.8838295789 L -305786.1809278222,-1011106.3867358487 L -305759.0189720686,-1018377.7824157226 L -299361.37651668844,-1030666.7933174293 L -297692.69734969724,-1037886.584151471 L -300763.7794617021,-1040034.6281142279 L -301204.0480477895,-1045642.1125216602 L -299018.9577630083,-1054710.5229675588 L -300100.64925504656,-1060309.1658389468 L -301252.91730424773,-1066244.7693868098 L -307906.0379909985,-1080257.9353570875 L -309525.84790153144,-1090172.813752893 L -306106.8923807976,-1095975.140405655 L -306210.08554876305,-1108680.551837511 L -309824.74073431134,-1128285.100677713 L -310411.83972875506,-1140664.8647546442 L -307965.81655755447,-1145823.4757187124 L -309145.35788200004,-1150734.1541752687 L -313955.69571815897,-1155402.4583908054 L -314303.56912688795,-1159938.6316538835 L -310205.2307538428,-1164348.3976458544 L -310710.732561535,-1167802.579980231 L -315836.43851511134,-1170317.425968219 L -320424.0260501929,-1176353.7006994982 L -324484.4044768776,-1185907.7952817203 L -323641.82725106325,-1201272.907540508 L -315988.6122590257,-1229554.1972326 L -315026.58921959024,-1231924.1101247277 L -306362.3706121682,-1231763.5327062933 L -306313.39003621915,-1230561.9481887554 L -279320.6399086662,-1230827.7536548295 L -248457.75636419424,-1231132.230514177 L -211577.7203838735,-1231503.2764519185 L -178073.11400338644,-1231840.9862659355 L -176605.58915625868,-1233114.629765817 L -171072.23122739742,-1234676.1596142075 L -137214.2967831325,-1231791.2027714218 L -116048.34276217183,-1233247.5423829947 L -107068.86735682322,-1232300.6082262055 L -100513.7078219705,-1230373.708393287 L -85892.1153452556,-1231569.7294903165 L -78081.27195425479,-1230855.4229458387 L -72194.58596161567,-1223801.9671160937 L -69813.79601201993,-1223873.9602832408 L -66530.76158954471,-1226852.345012847 L -60693.056172854645,-1230257.363121344 L -54735.682303561814,-1232970.6038920816 L -50485.170186602256,-1238491.8895491066 L -47903.22591714307,-1242684.6728679526 L -44038.54715527299,-1241826.063694897 L -38488.93658075592,-1242080.8422185876 L -34792.795527946866,-1245592.6975313362 L -33336.06867142608,-1251038.5864528932 L -7636.96234638174,-1245221.6078384393 z" /></g>
</svg>
