<?xml version="1.0" encoding="UTF-8"?>
<svg xmlns="http://www.w3.org/2000/svg" viewBox="-8106070.027670987 -18394383.941781186 6834185.06679128 10035613.53642747">
  <g id="map"><g><path fill-rule="evenodd" fill="currentColor"    d="M -3334339.460711519,-18359761.214145612 L -3227373.786522661,-18300384.51186824 L -3170800.887343047,-18231989.44962206 L -3158918.867534755,-18234224.37127805 L -3082256.2511711693,-18208167.526138324 L -3009458.313569454,-18175756.78218807 L -2888452.691243276,-18092088.034989696 L -2871493.8347378657,-18064840.531554222 L -2884560.8505256525,-18042599.436950874 L -2914646.5013854057,-18027384.950683415 L -3069287.0852157897,-18000317.950517934 L -3349825.226395262,-17967339.853708986 L -3510347.041563236,-17903648.43854205 L -3561408.401434184,-17900352.132015467 L -3565865.5225260565,-17806809.66172478 L -3544052.8022635863,-17801739.42827813 L -3508297.8723767134,-17814289.315942727 L -3382557.9434265886,-17908076.69647956 L -3335529.800026572,-17923645.615979455 L -3247746.143893756,-17915766.069389384 L -3133806.7488846635,-17880382.044125285 L -3087838.4783564885,-17892816.01335866 L -3005854.5676940037,-17883578.66034094 L -2909982.7713186215,-17910609.162144825 L -2796722.8704813304,-17969392.93613003 L -2765751.2277943534,-17838883.101351675 L -2724022.671392532,-17710883.30489614 L -2690996.516183474,-17724926.579279862 L -2662710.0109339217,-17717812.578662407 L -2653138.0931985714,-17676301.214082748 L -2637674.0348155326,-17658796.93188264 L -2605647.973911762,-17668196.35925906 L -2507460.6208083895,-17632152.846687704 L -2440087.3933125213,-17567951.850371644 L -2414719.7964310595,-17538266.92790172 L -2402555.1364356424,-17496155.742838703 L -2395668.244818226,-17462579.55948292 L -2406256.6208240096,-17421504.43880905 L -2448354.7579352655,-17349035.890397035 L -2501633.824701797,-17283114.31805292 L -2573491.335245291,-17232901.409376044 L -2656328.7324436884,-17201600.216704506 L -3292763.1893731025,-17098028.51530986 L -3314287.8147933986,-17073644.11803434 L -3327050.3717738665,-17011806.68432264 L -3318543.7815654078,-16932276.34306464 L -3288806.1154338736,-16919936.193972003 L -3219296.666909683,-16964516.738639455 L -3099079.1865783213,-17007011.011987064 L -3010741.048061865,-17004968.07945276 L -2799554.727007621,-16968695.25292018 L -2737252.7702343306,-16874737.990362544 L -2704291.736927387,-16732952.229729084 L -2631205.704483499,-16764549.139932437 L -2615578.6743659396,-16788776.16743006 L -2604093.397222834,-16831040.111882545 L -2594918.222152671,-16876702.173222385 L -2588042.239845352,-16925754.448455505 L -2580367.31755261,-16959366.302593373 L -2571893.3439549534,-16977255.072377507 L -2553678.9149128855,-16992253.55425039 L -2511743.8608556422,-17010351.584783852 L -2401777.7924314337,-17028028.284675278 L -2375333.958712982,-17022984.140365444 L -2356342.2969861957,-16954882.50460354 L -2352216.685337906,-16915402.790829193 L -2350841.5556681366,-16864352.998096697 L -2351450.250643794,-16801932.168565463 L -2354026.7402582048,-16728472.14249454 L -2363370.4530374287,-16656583.710706465 L -2393803.8659864203,-16532886.226631446 L -2418263.7637399537,-16466493.38826785 L -2444658.616882456,-16419080.550927741 L -2495257.8895471212,-16312113.136621187 L -2512787.4810818294,-16283845.705331465 L -2568414.6098676636,-16161856.318902524 L -2582209.989083711,-16106087.0970691 L -2583019.838379232,-16065550.565585755 L -2573453.3752989303,-16057846.69432886 L -2557326.1867092364,-16095912.500470694 L -2551325.2869190434,-16123229.908290036 L -2540943.519888172,-16151936.810651219 L -2458981.2052069004,-16228202.20162694 L -2441386.491770079,-16249619.218563499 L -2387775.9155599647,-16341851.950826813 L -2353564.7643714123,-16376786.135400483 L -2325435.887520823,-16413522.772345213 L -2310531.6548569845,-16439738.158530928 L -2228140.092219214,-16628436.46857431 L -2185194.034546586,-16686013.449321821 L -2140090.0485449308,-16686125.233607268 L -2132099.869454262,-16588985.82069 L -2078043.5700030117,-16574088.661156518 L -2054572.9685641578,-16578241.339230468 L -2016872.1739782186,-16554864.808581278 L -2000342.7880682882,-16535624.782132063 L -1972208.4565626504,-16525917.205430768 L -1943199.1538593771,-16503201.039571453 L -1917614.1500123958,-16527594.88111512 L -1910134.8160649773,-16542933.785702161 L -1885425.0060546128,-16612930.18266944 L -1852034.5021521887,-16675554.120168697 L -1821073.7687753097,-16754641.866657423 L -1810811.55887755,-16773940.754357848 L -1794548.4491895975,-16791549.355498053 L -1777649.3712507433,-16798469.63153169 L -1731632.3427856013,-16836051.312422607 L -1719956.8206327304,-16838692.044390935 L -1695116.4328596652,-16826797.30891863 L -1585411.2973218758,-16820610.330860637 L -1525577.0710204912,-16801246.995028157 L -1442255.9906345971,-16747806.344879651 L -1384193.7479876599,-16718733.246543778 L -1357304.1910280725,-16693082.641969532 L -1318146.669585612,-16638448.6803511 L -1286571.7865780261,-16581772.126881292 L -1271884.9608797065,-16565202.923717149 L -1272455.6959090035,-16547359.435323896 L -1283381.1473329095,-16522817.715967465 L -1361587.4310753252,-16437687.542353451 L -1387177.7782578645,-16381420.564365821 L -1461204.237759974,-16276579.16086 L -1497377.617612739,-16240960.276211375 L -1536687.312799114,-16227053.349270448 L -1580443.219767263,-16223711.35839759 L -1608827.5748492226,-16208903.527284315 L -1613034.6723647728,-16194822.733643511 L -1592814.4887375915,-16152349.848861009 L -1583916.4991995038,-16122270.761759851 L -1585210.254321503,-16095639.301004963 L -1606479.401510429,-16056388.13564267 L -1614529.359167654,-16047509.839851383 L -1691414.8371518075,-16018554.469683355 L -1730202.777884834,-15969688.820361303 L -1780834.667160302,-15963735.637295388 L -1816616.647683438,-15969287.294383781 L -1865781.012111778,-15917139.734609602 L -1846544.670144228,-15875029.433450459 L -1828917.228777113,-15856822.395773003 L -1774127.222562044,-15818827.351485882 L -1773610.811444254,-15797094.452356687 L -1799788.257621237,-15753394.50848807 L -1835521.4802074053,-15702277.64688572 L -1877782.5890531822,-15667060.470617218 L -1893670.6633766524,-15661794.807509756 L -1913711.3999846743,-15670605.570641898 L -1932197.6712232595,-15668720.931635516 L -1972898.8600445502,-15652549.088539118 L -2011648.6181922345,-15649969.225926641 L -2080848.2645735482,-15672842.20627813 L -2118299.035583166,-15699420.92930819 L -2138002.808092557,-15708637.15397391 L -2162848.53920118,-15706067.076471046 L -2172404.204290875,-15695347.06304979 L -2211561.7257333347,-15632161.3463737 L -2230787.1583907874,-15589367.44278718 L -2243103.9921301184,-15545914.242469253 L -2248365.619181953,-15498861.071564399 L -2246577.38288185,-15448287.894868484 L -2241805.004992052,-15413868.916303229 L -2234053.9401676063,-15395288.550066577 L -2224764.5512998896,-15384061.93795273 L -2208501.552931428,-15378196.379231032 L -2172719.461088801,-15383756.4850724 L -2158652.350995728,-15380609.531255627 L -2154369.110948475,-15370506.309369376 L -2146639.8647442255,-15338711.781805763 L -2148020.4490690436,-15308855.339226654 L -2154499.577391685,-15267117.250815537 L -2159521.9788578046,-15218760.105425954 L -2163071.4008217487,-15163932.792173713 L -2161158.1527334843,-15134161.810194187 L -2146683.279345635,-15127665.824525492 L -2139888.8942250675,-15129811.170554752 L -2132012.8176124617,-15120061.427739237 L -2123060.5041628666,-15098499.402846383 L -2116331.352263904,-15075785.022390924 L -2111819.9072605255,-15051900.850013372 L -2114178.8785899254,-15032300.636430778 L -2123413.8322266443,-15016888.545240482 L -2144259.0747946296,-14999553.509166963 L -2195559.548931802,-14965451.758706138 L -2200766.7407526392,-14955087.129467677 L -2204799.95722357,-14934464.582386158 L -2207642.723059958,-14903596.590034343 L -2213833.7565404256,-14875643.40392319 L -2223373.0576649737,-14850624.065890523 L -2232010.1143166423,-14835748.63776758 L -2248642.8047140283,-14829151.119715944 L -2270439.272330842,-14828281.724118572 L -2294915.4227300314,-14813988.714962622 L -2352597.175357437,-14731235.75924027 L -2353456.005228908,-14722120.528480662 L -2331860.691931957,-14695814.426753424 L -2332773.845714934,-14672845.993165802 L -2359391.5604780046,-14575294.417650832 L -2366675.1947606085,-14527490.044515058 L -2372442.3236201354,-14462505.369759263 L -2381932.7554882253,-14408201.936249357 L -2395146.490364878,-14364319.951989362 L -2408137.3636209625,-14314012.945677733 L -2420927.193876674,-14257533.802710889 L -2418926.8939466095,-14214471.623567102 L -2402152.827795916,-14184640.943303354 L -2379975.870159571,-14208729.46218384 L -2352390.6777020157,-14287390.408786625 L -2322413.7859847676,-14321665.202506328 L -2290045.195007826,-14310876.860882683 L -2261856.6509101717,-14295192.540772626 L -2225846.242791928,-14264271.147652935 L -2195700.8133656187,-14245080.16771367 L -2169664.742941943,-14219886.508722465 L -2158929.5365278027,-14198711.335834987 L -2148118.298901451,-14169003.30394699 L -2148031.3583791414,-14150317.777261643 L -2167115.415283286,-14140262.651908087 L -2173415.207906259,-14143444.531361543 L -2221182.6240446344,-14192448.293586433 L -2244430.3638629206,-14204700.00361326 L -2275282.338097295,-14189980.5993863 L -2302177.349711931,-14167811.663133916 L -2278016.456110668,-14079280.517438058 L -2252208.5906431186,-14038989.564190038 L -2205088.052065743,-14020671.676082505 L -2180481.435223344,-14001441.223461442 L -2162538.7370583024,-13976970.97553107 L -2148498.7889209823,-13965065.04663131 L -2129653.8462830614,-13970302.234413052 L -2104318.866012402,-13994376.887011832 L -2068971.6994203047,-13995685.476943415 L -2053023.8465302787,-13983720.723980999 L -2041489.700130715,-13961502.47062541 L -2036298.7609555342,-13920170.805330813 L -2037451.0290047352,-13860085.625666482 L -2041294.0004659006,-13815206.818887174 L -2047838.3620101465,-13785202.960107412 L -2060557.5043892043,-13745227.586707927 L -2071183.9516608391,-13737983.129303884 L -2086158.7608818412,-13740144.002409868 L -2100079.151886049,-13748317.417495122 L -2112955.9226640705,-13762575.204580916 L -2132474.9048187444,-13773711.88720985 L -2171708.457473417,-13785704.903289188 L -2211355.116758423,-13811868.937042031 L -2233553.7816954725,-13818354.455126107 L -2280571.1271048826,-13815014.96877791 L -2331262.794946906,-13798414.673067061 L -2333246.730911824,-13776696.34605721 L -2406137.0636908975,-13701433.278627966 L -2421090.165611195,-13702448.141671605 L -2441326.7132035224,-13728210.241727458 L -2469651.1783994357,-13752979.505198164 L -2486245.7975309705,-13752788.98189669 L -2510760.019196011,-13721458.333672704 L -2516858.6574991206,-13709369.74177915 L -2516559.764666341,-13697987.591590747 L -2498502.964023236,-13671121.820184687 L -2491175.8038197327,-13664944.768861515 L -2481853.9096607035,-13659782.291900579 L -2449441.9040823523,-13653358.183029082 L -2435374.793989279,-13646354.968688885 L -2422101.16922658,-13563960.128853299 L -2401060.338313271,-13513574.450554295 L -2392059.0442877263,-13503328.341799974 L -2384112.391117958,-13499641.946984693 L -2358353.394906867,-13501496.374893995 L -2325174.9546344043,-13518416.704923425 L -2313586.4843233335,-13504862.878465585 L -2289153.7485255534,-13488320.437758613 L -2274858.322156863,-13484208.402678449 L -2257481.0156855606,-13484870.720639542 L -2237923.9622650347,-13478615.509432623 L -2211126.9118022965,-13432774.111942437 L -2221682.671197278,-13375492.275889335 L -2204892.3524009283,-13329960.564776955 L -2178078.9379730434,-13283346.842488248 L -2171730.1647741217,-13266379.52060526 L -2169137.4225140554,-13235719.270849468 L -2168534.0708739557,-13215562.448772978 L -2166517.5182982357,-13197216.243212305 L -2163098.562777502,-13180687.596839009 L -2159543.7974780006,-13148404.399918228 L -2155863.909070847,-13100575.845970813 L -2156847.7507304777,-13061760.077720132 L -2162489.867801844,-13031843.658240173 L -2173665.2314825812,-13010217.583149565 L -2190352.357110965,-12996800.445874145 L -2203957.379997756,-13000322.085780567 L -2214496.886747081,-13020808.81035463 L -2229346.684179922,-13042704.991429633 L -2248506.9949352606,-13066045.140437122 L -2280375.427440068,-13068810.453211924 L -2327229.5784759754,-13000088.728770025 L -2348156.4182307124,-12996673.187640173 L -2365153.234682483,-12989869.098394156 L -2383286.1778572905,-12960170.779062653 L -2409990.8331426703,-12942331.627502508 L -2433559.2844139314,-12949402.512855582 L -2474950.765397631,-12983940.234832926 L -2459910.722955024,-12960845.486212758 L -2438380.642879679,-12933923.31776676 L -2424976.6629932607,-12919989.600018822 L -2415089.377140493,-12916971.824185265 L -2404240.0682482896,-12920199.535029195 L -2388618.381466288,-12931193.307960384 L -2353358.1553965,-12961795.030886006 L -2344019.8972723247,-12966479.952632045 L -2336127.5680140634,-12964305.631724136 L -2329670.1469921274,-12955258.55407982 L -2322245.248275707,-12929051.640463281 L -2313852.760545311,-12885846.68837796 L -2314923.5427272515,-12849307.025126964 L -2325463.049476577,-12819323.960188275 L -2334480.596147777,-12800172.306544859 L -2341970.7280858024,-12791757.999330381 L -2341992.546705998,-12785141.009991208 L -2322299.572187213,-12777484.376185557 L -2294420.830232437,-12816372.508400992 L -2285582.6192609053,-12865025.349490236 L -2272820.0622804384,-12921582.954674736 L -2250240.907323857,-12940522.670089118 L -2224710.227388383,-12921582.954674736 L -2204093.301096014,-12868768.334510516 L -2174937.167984385,-12772706.46831545 L -2162642.0415457585,-12762791.651323669 L -2147020.354763757,-12739966.472583124 L -2140128.119810782,-12712078.269549614 L -2141970.6800223924,-12679171.1998214 L -2145302.6950208168,-12655383.380213294 L -2150129.3968221224,-12640616.875856116 L -2156162.9132231176,-12631259.010851122 L -2167028.4747609766,-12625281.652419236 L -2187009.4328024425,-12620551.97904877 L -2231684.0595281087,-12630536.561247518 L -2254937.1426819526,-12630757.643831097 L -2252056.305579713,-12598710.356568102 L -2299095.358289828,-12571250.528121745 L -2352118.8355054986,-12560480.92596579 L -2402337.618150633,-12581898.139883455 L -2444011.8506409475,-12614944.613043122 L -2430330.573902963,-12661428.018463353 L -2422530.6398220602,-12713439.620821469 L -2442674.6809175382,-12748049.500893122 L -2447093.730743559,-12748784.46922955 L -2440141.7172240284,-12695340.987898927 L -2445990.3319508163,-12674968.401370833 L -2468754.277262114,-12650249.688686822 L -2484827.1419403013,-12638868.829372987 L -2486245.7975309705,-12632222.399540678 L -2478364.2662633164,-12626484.824196143 L -2473222.307664084,-12615445.195005465 L -2470808.9011036856,-12599149.592669806 L -2473521.3118163547,-12582734.434277523 L -2481375.569808765,-12566221.044852648 L -2485647.90054592,-12552385.43899383 L -2486349.1020184266,-12541210.96051291 L -2479147.064922574,-12527624.814206202 L -2464036.2232838226,-12511701.154803865 L -2447659.011117807,-12503841.921982309 L -2370914.908886961,-12500397.895040322 L -2340182.491785699,-12491864.654160272 L -2267275.7950414787,-12454537.166427447 L -2264014.467919708,-12443116.617232326 L -2276364.0295893326,-12376874.31882525 L -2283125.798099098,-12313829.834324313 L -2297269.0507238735,-12302361.62029807 L -2373985.9909989666,-12299650.610430013 L -2398712.164974477,-12289902.765163152 L -2434874.7468366357,-12261239.014422935 L -2469629.471098731,-12227031.239859432 L -2487642.7458209353,-12226785.684511792 L -2558956.7946103765,-12256628.682485608 L -2586308.3274567556,-12276649.369535679 L -2645017.447664693,-12333543.82911746 L -2689224.5325290267,-12421091.915612694 L -2709504.4947227635,-12384545.830975436 L -2721902.9256488467,-12367186.877429891 L -2734709.0085502136,-12358206.470272938 L -2747058.4589003474,-12356800.556784533 L -2758962.297328835,-12363003.40479267 L -2772464.1270476603,-12376777.813508922 L -2795103.0605707974,-12408855.082632586 L -2822112.174663497,-12440698.208771445 L -2841016.895867974,-12455885.466549678 L -2841734.3499861364,-12451567.789596567 L -2830569.784296007,-12432786.52305545 L -2814214.390750187,-12411203.878778629 L -2772844.6170671917,-12348122.814642841 L -2758309.9651127867,-12332277.87369524 L -2759750.4393236516,-12321045.711922197 L -2785868.1069340785,-12311056.57965579 L -2817578.911039923,-12289636.142414298 L -2833091.94999891,-12273910.646928173 L -2857062.5985904075,-12235911.73061243 L -2865384.3984441496,-12230034.321339067 L -2901242.5214989875,-12220519.932966165 L -2913070.217395773,-12222840.638757901 L -2939584.6276713875,-12243706.085226722 L -2979519.493118057,-12257387.331798898 L -3003033.5091583203,-12269576.412481135 L -3035728.1549237953,-12291694.840909107 L -3024482.1033664052,-12267486.414975276 L -2961500.6524213133,-12230752.02774784 L -2954624.781433485,-12218954.705327002 L -2967512.350202113,-12197038.47092575 L -2975415.588770472,-12189054.333362475 L -2990412.21661167,-12187364.625206167 L -3012513.0317163123,-12191946.093077494 L -3035114.0052930894,-12191007.162375424 L -3058209.4600479696,-12184605.881769214 L -3068145.6151571954,-12176412.101627378 L -3064911.4499911787,-12166468.83649 L -3059410.7086731195,-12157418.59637089 L -3051637.93654797,-12149276.495076673 L -3044370.666230513,-12149351.02885022 L -3026765.0434835935,-12174088.709874434 L -3013420.8421637313,-12175849.885493437 L -2978155.1614388945,-12169744.165015485 L -2942492.62672938,-12189091.630958006 L -2916793.5204043356,-12197451.942861848 L -2897508.309180327,-12199595.170412404 L -2827406.3070066436,-12229316.305426084 L -2812855.5137260733,-12262738.78900683 L -2789335.9317112705,-12276173.68344883 L -2737035.3632688113,-12286491.7368892 L -2686436.090604146,-12281197.56945673 L -2660421.727481175,-12276877.67976485 L -2639342.713982524,-12245201.914930636 L -2611083.4820082164,-12222859.575580824 L -2587520.485392004,-12197470.807649752 L -2559908.0196592044,-12189129.313276831 L -2543905.842857672,-12155531.439218065 L -2499144.2756096963,-12118181.552642582 L -2470651.2727047224,-12110179.905006923 L -2453072.8119135564,-12092502.737889191 L -2451643.2470127894,-12018011.751328038 L -2449778.8681809832,-11986100.082810856 L -2457356.0519608096,-11898563.840379164 L -2480223.301759564,-11878550.735339781 L -2475662.8761802353,-11833005.293262573 L -2481669.119305987,-11796383.018816471 L -2504411.3573165797,-11810259.36732834 L -2527713.4210463725,-11834340.420820553 L -2583503.6328862193,-11871869.142702553 L -2635418.256654098,-11896119.463533923 L -2655589.45970533,-11918185.777098645 L -2679353.610641406,-11935298.572529322 L -2711586.2805200885,-12005469.986058488 L -2732583.6968319886,-12093742.884379197 L -2741796.8318485124,-12137826.923330234 L -2759451.4351713806,-12140305.658822488 L -2782150.147261074,-12128462.227052953 L -2801973.5882230676,-12115971.157486191 L -2811469.3634267156,-12094649.641006395 L -2878815.5402863207,-12065429.3933282 L -2903264.528729757,-12045499.3268037 L -2917212.081689718,-12046087.545917256 L -2967512.350202113,-12016145.245532408 L -2947357.3997965367,-12001854.412230708 L -2937954.0197702474,-12000047.358784182 L -2917625.1883200523,-12008118.95867443 L -2905417.0024037356,-12018432.639691878 L -2859573.743663722,-12046767.280141417 L -2822775.304870153,-12051621.14812634 L -2809425.648895242,-12063881.279708397 L -2781296.7720446526,-12081427.44942251 L -2762207.260485459,-12086084.722278967 L -2759549.2850037883,-12081630.628706647 L -2757500.1158172656,-12073654.151424196 L -2744025.4480541935,-11966387.10800284 L -2749667.56512556,-11938119.10708614 L -2764832.619356327,-11925906.604556225 L -2797239.1702796295,-11905919.654863684 L -2805664.2746208278,-11896263.35557986 L -2796108.609531133,-11879357.541384876 L -2765642.4686518484,-11895292.972222146 L -2745900.736196097,-11912617.640753767 L -2735382.936747476,-11906297.793527137 L -2718108.8234441387,-11879823.38952463 L -2698638.821865414,-11866285.53890312 L -2649148.4026485407,-11825888.618456393 L -2625704.96316544,-11803734.089607937 L -2592733.13186789,-11782429.692331327 L -2555423.7366115795,-11752973.5195213 L -2545710.4431229215,-11742621.410401601 L -2511607.939757384,-11727394.789239654 L -2504340.6694399263,-11722210.260692649 L -2490240.9427360506,-11670774.79836646 L -2478473.025405821,-11665078.42647774 L -2444539.0597493444,-11661832.784509066 L -2450512.686264293,-11642011.248603048 L -2483653.0552709047,-11598124.572547622 L -2500791.2474759826,-11584182.038568495 L -2505047.325567482,-11575594.045517746 L -2503416.6063468517,-11560262.437201377 L -2502421.9666966135,-11534673.695357384 L -2495513.367778492,-11487843.176103232 L -2487740.5956533425,-11531201.100012407 L -2482315.8855474954,-11551739.169653913 L -2475054.069885087,-11557904.296441058 L -2467906.356700742,-11558809.937511811 L -2444734.7594141588,-11578318.491479114 L -2421448.948330022,-11567838.367261007 L -2415404.6339384196,-11518653.55139576 L -2412425.947003773,-11473064.070480911 L -2414480.570845344,-11433934.307058953 L -2411915.101860523,-11373566.922699973 L -2412795.639032698,-11353315.403314864 L -2407300.241050197,-11335802.029792396 L -2401598.456731765,-11263679.535715409 L -2395891.1064387946,-11242188.638494339 L -2407343.7669710973,-11222960.369580662 L -2442739.914139143,-11214608.675292185 L -2456741.791010612,-11224065.91609793 L -2491790.0647699293,-11220911.922962155 L -2491833.4793713386,-11237820.420314861 L -2493540.341123672,-11257254.342811737 L -2493681.6055574887,-11270863.624404123 L -2496018.869586184,-11283204.478723215 L -2497676.7507625683,-11354575.228320677 L -2507591.0872515994,-11336876.407490307 L -2508178.186246043,-11322391.270186026 L -2510814.3431075187,-11307690.315850772 L -2516896.728764972,-11231208.36810118 L -2525914.275436172,-11212563.086890122 L -2553956.100444961,-11217044.769282466 L -2581568.5661777603,-11214283.773809928 L -2596842.3795510326,-11217109.974451695 L -2648490.7270969334,-11251864.10099181 L -2668482.594448498,-11283466.858963728 L -2686180.6123727756,-11331207.464001525 L -2697106.0637966814,-11376127.759544963 L -2701247.928090627,-11418134.861005092 L -2713635.449706611,-11452512.032052197 L -2734252.37599898,-11479140.592742795 L -2758608.9692650572,-11500807.662916923 L -2786705.118185353,-11517430.863651564 L -2811371.5135943084,-11538948.831639694 L -2832613.6101469714,-11565357.76510811 L -2855997.1597440247,-11585983.316718752 L -2881522.38502445,-11600720.472276786 L -2917842.5952855716,-11607068.152287085 L -2970953.013023551,-11604745.34124253 L -3006811.247397881,-11621403.030099912 L -3015334.0902519953,-11619989.178768761 L -3023693.9613715885,-11611389.567030812 L -3017540.887837481,-11586909.96661995 L -2976372.2684743498,-11575714.032654768 L -2944623.3931026543,-11573162.136111954 L -2902552.417947152,-11574754.897074843 L -2876798.9877106007,-11568488.800771635 L -2867346.5157888713,-11554402.558380514 L -2860845.680165526,-11529397.70286176 L -2857301.7128566313,-11493611.408837162 L -2865612.603400275,-11465341.33895131 L -2895877.589959697,-11434085.119680919 L -2911841.8068148694,-11419490.489962058 L -2958424.2269737506,-11391578.766897904 L -2974225.24945542,-11385364.035500601 L -3013121.838011461,-11383465.918389825 L -3042995.425241253,-11386146.831806444 L -3082299.7770920694,-11400035.322969634 L -3104579.92789638,-11402856.532331679 L -3150689.462858371,-11404726.934723672 L -3161299.6574843503,-11399851.773276446 L -3149401.273710911,-11384964.315725213 L -3129844.220290386,-11376543.306083329 L -3116076.1143495827,-11366538.47037373 L -3114641.0947937667,-11347616.029294675 L -3119603.7176933307,-11319620.03288436 L -3124723.9689918584,-11300137.6138085 L -3133159.8713236637,-11285550.472552598 L -3163419.403228036,-11258006.032855319 L -3175953.7552523767,-11249317.499435062 L -3232363.5713779787,-11220619.338338252 L -3236288.028706405,-11215112.187008683 L -3223085.20313985,-11215859.209326686 L -3187422.6684303354,-11226033.702874396 L -3177160.458532576,-11225740.896737834 L -3118619.8760337,-11200917.4778293 L -3071983.131963312,-11202392.208823701 L -2977492.031232239,-11225285.556733703 L -2969724.602442648,-11224846.567362053 L -2963522.6596520822,-11221237.142785924 L -2957250.1403043536,-11212644.207037749 L -2950901.3671054314,-11199054.193232637 L -2958516.6221511085,-11185944.074073678 L -2980095.5714829126,-11173311.112933833 L -3013698.027695807,-11160863.001376953 L -3028248.932295868,-11152458.978884099 L -3042152.9593349295,-11139759.968429837 L -3068058.674634886,-11109346.833473962 L -3075630.292440172,-11077907.802230863 L -3048392.973391346,-11065982.858639475 L -3036152.1708642268,-11081075.15611639 L -3021709.91408718,-11114704.744817946 L -3008713.5861760466,-11134526.504430696 L -2978035.4929862916,-11148003.681816531 L -2940579.378641116,-11141141.174662488 L -2911640.6524950056,-11149129.006069517 L -2852545.6989319795,-11182597.936375603 L -2841973.5755718513,-11184650.713539222 L -2755026.930690311,-11165439.67552717 L -2676233.6592729427,-11127950.130401889 L -2634635.5693143304,-11114208.967683801 L -2579633.4994693003,-11106118.146184905 L -2480696.1869564536,-11109794.446971076 L -2472026.5136939823,-11103929.025949964 L -2475238.8602398043,-11090746.424853079 L -2480984.2817986268,-11079594.635138549 L -2497464.687132607,-11064076.602275524 L -2517483.716439925,-11053840.771995183 L -2529871.3493754,-11050955.20747947 L -2540410.7448052354,-11043652.129194554 L -2564093.4098740504,-11036514.651681267 L -2570170.2295569642,-11030728.049292428 L -2561968.0981558254,-11005489.007389186 L -2565865.393528498,-11001585.454692483 L -2586726.8887421386,-11001176.177356444 L -2621856.6483687167,-10984784.109273722 L -2650697.5246824194,-10985961.470064344 L -2656720.131773317,-10983560.024579134 L -2651246.552411012,-10977488.826753061 L -2645425.0996399783,-10965785.824602114 L -2639272.0261058705,-10948463.726453371 L -2642658.3650158015,-10936124.539689576 L -2655589.45970533,-10928772.181848887 L -2665395.1483713463,-10926375.219052024 L -2699220.4662048086,-10936685.695699112 L -2704694.045567114,-10935142.787570167 L -2699753.1299682544,-10927744.945345022 L -2696942.980742669,-10916468.61210457 L -2696258.031915818,-10901318.109035349 L -2704569.033778953,-10888630.690565377 L -2721881.1070286506,-10878423.365723109 L -2754108.322252285,-10850416.754517574 L -2768137.472398998,-10842433.706553647 L -2797739.328751764,-10835842.187031005 L -2803979.23148869,-10832203.485857878 L -2791945.0379364835,-10810839.68911969 L -2793276.753004843,-10802291.834300544 L -2813290.327657112,-10779300.207384234 L -2843549.859561484,-10764997.985738445 L -2847680.8145453315,-10757296.381665984 L -2850485.620435359,-10736649.842128957 L -2852686.963365796,-10728451.264584303 L -2860688.0517665623,-10716669.411138024 L -2889393.006982007,-10694264.312135749 L -2909738.202397349,-10683141.81934722 L -2919826.531250489,-10674047.15311839 L -2932311.902698881,-10658885.53418826 L -2948064.0559240924,-10650854.272039028 L -2967077.5362710743,-10649912.701450385 L -2985069.1036925744,-10644250.70386134 L -3014660.0507352417,-10628201.613197012 L -3035266.1790370033,-10622870.017669633 L -3100383.739690928,-10595237.051697336 L -3131023.761614831,-10590834.957833737 L -3157527.3738998384,-10580988.596413396 L -3212051.1038929303,-10554761.39095018 L -3238027.3957500495,-10546350.645993296 L -3256040.7817917443,-10536361.955251098 L -3275711.9376903335,-10533510.969246874 L -3307699.9273282527,-10539993.921341628 L -3324946.8786758366,-10540214.412624298 L -3335551.618646767,-10536288.49860695 L -3345275.7101260317,-10528281.922215216 L -3361348.574804219,-10506381.167936593 L -3374997.1236119093,-10504683.639396353 L -3419736.98355918,-10522044.643755015 L -3418829.1731117605,-10514171.68046416 L -3407006.9318700247,-10495413.078699542 L -3407572.2122442727,-10482128.440469995 L -3434179.1290167356,-10468680.429623518 L -3448517.9699868355,-10465245.958704215 L -3469656.7620520433,-10470762.09372897 L -3497600.7372284243,-10485279.402284803 L -3533502.386204163,-10515680.959096542 L -3577502.973413076,-10562341.699150039 L -3598674.2707695947,-10578192.916805215 L -3597141.512700862,-10563153.443707943 L -3592238.6683678543,-10548485.540376108 L -3583954.939779963,-10534216.0807675 L -3582275.3513028743,-10523878.390266297 L -3587183.6502909306,-10517483.884836355 L -3593657.3239585236,-10514259.605078207 L -3601696.4836251414,-10514215.792672489 L -3603060.8153043035,-10510597.432653408 L -3589934.0209499607,-10488460.808544429 L -3579584.759210401,-10465798.982184235 L -3580541.4389142785,-10444356.927533872 L -3592814.8580521997,-10424109.837861463 L -3603359.7081370833,-10412246.925079618 L -3612176.100488419,-10408753.914757576 L -3664417.001683813,-10358621.183800275 L -3678967.7949643843,-10352335.27628809 L -3685582.8443852835,-10346169.595864475 L -3691018.3524817373,-10336952.894640831 L -3706227.0439528967,-10295849.212766342 L -3712380.0061675133,-10283354.74187467 L -3724582.7374287806,-10267121.357853822 L -3729697.534072259,-10264308.756649174 L -3731159.7155838287,-10257712.88389773 L -3728952.9179983432,-10247302.411228184 L -3732317.5496075703,-10230000.30372875 L -3741248.0444369693,-10205872.510806093 L -3771654.4067496983,-10139635.167429443 L -3796179.426405346,-10078411.868400916 L -3806930.8854651414,-10058480.008355446 L -3814796.0527676493,-10050049.33414756 L -3819775.0396323605,-10053063.987165902 L -3831934.356292219,-10051488.020923572 L -3837837.294930514,-10040821.549157532 L -3843185.8625046588,-10021570.168045687 L -3849012.7699307413,-10006931.528025178 L -3855306.9965791744,-9996863.549473997 L -3904493.0683082193,-9953667.681726202 L -3917174.139421426,-9945686.923537815 L -3928561.5667321235,-9950736.442065371 L -3942014.527194491,-9948791.631706402 L -3969882.4711586605,-9971566.820123244 L -3974714.627615015,-9979957.280134857 L -3992722.44768217,-9998712.655812355 L -3992124.55069712,-9988927.998873342 L -3989102.4491610634,-9983538.622233402 L -3986585.738113209,-9975631.842222441 L -3980286.0568097276,-9965960.773119207 L -3966322.139884619,-9915251.736279922 L -3977367.1484416374,-9904885.784020767 L -3987232.6156742093,-9893075.093623701 L -4012420.7655365127,-9873185.165719938 L -4039641.943259173,-9839952.75055905 L -4049713.9081471674,-9830693.480495453 L -4051942.524352849,-9857735.16300408 L -4050801.054294254,-9865829.562258821 L -4066194.4248006386,-9878957.72856035 L -4065694.377647995,-9869499.83386493 L -4067281.5709477253,-9860681.095091173 L -4078440.681982807,-9825663.74384166 L -4081549.835360663,-9819630.171639556 L -4087039.6673686244,-9820982.160382234 L -4099024.9916643724,-9814542.195871357 L -4111298.4108022945,-9817589.10955703 L -4121701.9964533616,-9833495.02473205 L -4125811.244136504,-9841747.637791974 L -4144781.1985625867,-9819086.734956665 L -4153999.899553649,-9819669.804538358 L -4155538.1122774305,-9800675.031985981 L -4164468.7184263207,-9783419.332546545 L -4176269.1410478624,-9775959.764824452 L -4192711.6977549735,-9776539.251800554 L -4202778.2079879185,-9766350.45838801 L -4225107.339368178,-9777277.16892527 L -4230282.025897703,-9797820.30049594 L -4212583.896653934,-9826074.825574957 L -4207583.202488518,-9837759.595049853 L -4210828.276964634,-9852166.6483403 L -4206523.329616676,-9870821.582128543 L -4172752.4470142117,-9930318.13119478 L -4149847.1259496063,-9960657.002218368 L -4151178.841017966,-9966069.162898766 L -4182264.5861830064,-9972704.942501105 L -4209425.87401962,-9983158.72924736 L -4235891.415038776,-9986755.62117337 L -4247577.846501744,-9983185.96302175 L -4228933.946864196,-9965717.110182732 L -4202571.710332497,-9948791.631706402 L -4215546.219623434,-9932661.680691743 L -4226738.058588808,-9915574.277981581 L -4238315.619589781,-9869339.622383557 L -4245718.811005497,-9850489.051959407 L -4274461.948806284,-9872156.70888054 L -4288066.971693074,-9879492.42606182 L -4279419.117050799,-9855443.376840686 L -4254225.401213956,-9832738.100063998 L -4252611.045958472,-9825279.038877938 L -4252779.5836675335,-9798388.609665865 L -4301019.8850027975,-9774787.448539175 L -4351363.679436093,-9771219.376906333 L -4387477.280722301,-9764522.287947698 L -4448431.2697815765,-9756426.108678337 L -4472097.459565754,-9756412.926842345 L -4474103.2141508665,-9747368.503253015 L -4414480.940159952,-9706218.065059297 L -4405795.014251826,-9698709.958587147 L -4414100.45014042,-9684602.046142435 L -4426417.395199243,-9675844.351938298 L -4445795.001600609,-9645769.323181113 L -4455899.583099406,-9635432.705977803 L -4480957.37783799,-9621257.716803001 L -4527094.074755735,-9637072.56308994 L -4550803.790460813,-9629999.132140886 L -4573497.159214947,-9634980.82741024 L -4573970.044411838,-9617689.547374543 L -4567186.457281877,-9605092.626240656 L -4560316.040949099,-9573909.98605222 L -4545096.551487332,-9576329.229470538 L -4525746.107041719,-9586104.844955558 L -4510787.550466373,-9562553.691440132 L -4500949.245189554,-9522810.887107138 L -4483772.981718625,-9502738.076218003 L -4476141.474027291,-9487271.97906555 L -4473065.048579728,-9472697.71402961 L -4483778.436373673,-9458216.099570185 L -4505949.93935497,-9437773.39635034 L -4530540.192232222,-9433995.364781218 L -4529192.224518206,-9417877.479788765 L -4539802.307824695,-9406306.789507004 L -4562381.462781276,-9409694.880739018 L -4572937.333495748,-9417764.925104657 L -4583884.380900868,-9421596.636420181 L -4628776.414592054,-9425931.962999888 L -4583580.033413039,-9394954.817095412 L -4567501.714079804,-9380568.996785244 L -4560348.657559901,-9389092.085422276 L -4544694.354167096,-9391162.263588581 L -4521549.807516776,-9383296.709275108 L -4525398.23363299,-9331436.7073598 L -4515260.924203901,-9289671.590939427 L -4514048.877588143,-9280333.43542842 L -4538666.29242115,-9255463.379337957 L -4539073.944396434,-9232314.017667184 L -4553728.153483952,-9225877.128313404 L -4569523.721310573,-9227363.872352896 L -4570349.93457124,-9202058.423721772 L -4581047.069719529,-9186324.290425248 L -4579150.074276921,-9176491.254912749 L -4576089.901475013,-9167699.152897572 L -4585857.518875179,-9151739.170362711 L -4594679.365881564,-9132361.955873236 L -4607278.9511275105,-9115436.442751959 L -4613953.779114965,-9117176.37391909 L -4633999.970378037,-9116084.443933891 L -4658106.428748301,-9117500.568878908 L -4677614.612912369,-9139497.285032306 L -4685702.641835445,-9146832.49540156 L -4694845.200294806,-9151630.502657296 L -4691333.849596714,-9137450.956079904 L -4685881.977535113,-9128935.192690587 L -4667879.500803515,-9113073.222509619 L -4634728.333806297,-9093501.465057101 L -4635744.792076731,-9079651.457158513 L -4644610.053684525,-9073637.133260129 L -4665286.758543449,-9036077.728735674 L -4672624.716737561,-9035270.959537007 L -4681903.196295179,-9025607.716867747 L -4710553.827599117,-9028843.13243571 L -4722588.021151324,-9032685.04945227 L -4757918.935097765,-9030230.220393399 L -4769936.876004316,-9033538.899233421 L -4780242.611822977,-9031973.383169658 L -4770627.168166725,-9021414.526528416 L -4750412.550514084,-9011911.83351631 L -4727420.2889271695,-9002397.993581947 L -4692448.157699554,-8995209.073816914 L -4693714.528226818,-8981629.815321397 L -4702487.505976745,-8970509.595372573 L -4697454.195200528,-8953926.180210344 L -4701367.743218856,-8942064.0417914 L -4703041.988360386,-8928011.733825425 L -4711206.0484956745,-8895449.695226988 L -4701704.818636978,-8873189.009529375 L -4691344.64758732,-8862350.514418403 L -4692545.896212471,-8848105.870727794 L -4687686.577800363,-8825368.001563817 L -4703215.869405006,-8805137.107165419 L -4716098.094838076,-8805895.452085786 L -4734464.697624058,-8801357.159003235 L -4740574.245237266,-8792461.07202483 L -4711445.274081389,-8784068.685867023 L -4714086.885597914,-8768993.774396876 L -4722033.650087173,-8750185.348893296 L -4730382.611896669,-8709605.869413646 L -4747330.559091981,-8640558.91930044 L -4755239.25231539,-8572627.50127493 L -4791646.403098821,-8517264.308609564 L -4804544.881177546,-8515739.904565139 L -4807784.500998612,-8513553.49609228 L -4825515.135533692,-8516380.482081221 L -4853345.0082320105,-8529115.436700284 L -4874902.25026311,-8533321.135608956 L -4889453.154863171,-8533498.211013116 L -4891328.443005075,-8527157.454667587 L -4879261.521522575,-8516877.692077419 L -4860818.88752438,-8512582.169326335 L -4846077.737914553,-8505807.03898738 L -4819650.156841758,-8499479.133400254 L -4810447.8198158415,-8487235.53105732 L -4804158.936502966,-8474221.517005961 L -4805088.45425109,-8467064.903765682 L -4805142.778162597,-8458622.212224465 L -4800419.269529257,-8413382.709317993 L -4812877.479021896,-8397803.188561752 L -4822373.365545034,-8383753.068298971 L -4855410.54138368,-8385705.860108823 L -4861155.851623012,-8390601.111758934 L -4893051.446083573,-8405414.699645838 L -4891089.217419359,-8398455.155717699 L -4868015.469965184,-8378342.212694583 L -4859976.310298566,-8368333.331090523 L -4865352.039828464,-8366265.896634842 L -4874663.1359968865,-8365519.262331837 L -4887654.00925297,-8358770.405353716 L -4911081.084770924,-8362414.526364828 L -4909792.895623464,-8372566.87401209 L -4905346.68384169,-8383015.545756302 L -4916060.071635635,-8381236.9094652785 L -4927996.415355435,-8375936.196440809 L -4934932.176229308,-8377886.918204831 L -4940759.083655392,-8377301.580888856 L -4944025.754112721,-8382527.310890079 L -4948537.31043559,-8402978.22239972 L -4943134.418949939,-8413284.790152699 L -4923811.136460079,-8439983.515620178 L -4917663.5175810205,-8454349.661764802 L -4923033.79245587,-8460890.86207149 L -4936834.626326966,-8445472.822148196 L -4951086.526774757,-8421032.459257009 L -4957408.026698435,-8406306.887660276 L -4966327.723537227,-8403445.7621327 L -4988472.06456277,-8410856.410143077 L -5051594.779941678,-8445057.263285065 L -5049714.148464217,-8465924.033244241 L -5050317.388784825,-8483243.085251736 L -5031918.16938804,-8485442.54714579 L -5018535.896802328,-8492991.40416829 L -5006561.481816676,-8502245.607779197 L -4993070.561407949,-8519131.394833812 L -4980704.747092669,-8547094.787285931 L -4982297.283727957,-8549213.75381904 L -5018584.877378276,-8513531.562945144 L -5040914.008758536,-8501639.223563513 L -5051736.155694986,-8499468.075014865 L -5057117.228560442,-8504737.366473561 L -5075087.088681237,-8516170.79535138 L -5086768.065489156,-8521374.699632283 L -5113385.780252227,-8529889.983258823 L -5118082.126929814,-8534483.653788172 L -5125887.515665765,-8538116.38050517 L -5136497.5989722535,-8574687.072509607 L -5122772.907632861,-8619345.657574665 L -5113320.547030622,-8632351.316496225 L -5107325.213214968,-8647471.482592683 L -5103933.419649988,-8667537.53977122 L -5106248.976377979,-8676123.849482708 L -5114271.77207945,-8673177.727886403 L -5117989.731752455,-8666297.303114846 L -5117402.632758011,-8655549.740472961 L -5122001.12960319,-8648089.858452367 L -5153722.843019133,-8630959.886013238 L -5185531.496957384,-8617117.040592883 L -5200598.701355744,-8604026.771236468 L -5210382.682721056,-8593817.001508143 L -5218041.352368142,-8583788.597592907 L -5229754.834467374,-8584691.56528809 L -5245914.750987361,-8582629.400918879 L -5256997.71949074,-8576134.408720253 L -5273173.888656382,-8580122.165872443 L -5283740.4460419705,-8589777.209146172 L -5296475.952386175,-8590881.782156557 L -5310771.378754865,-8586230.406343916 L -5320653.098633094,-8586631.668075508 L -5319832.340027476,-8580077.44238272 L -5313271.725837573,-8563973.34237314 L -5324180.813296333,-8562895.13800978 L -5344890.13476606,-8562261.630504532 L -5355304.629727224,-8566920.091774862 L -5363463.346526954,-8573028.244619511 L -5370268.529638128,-8581604.128558354 L -5366175.645920132,-8592812.329775617 L -5332866.73920446,-8613377.677648814 L -5317766.806875805,-8625307.503473017 L -5327616.021462723,-8629423.07186863 L -5359604.122420133,-8625699.898068715 L -5364925.416719032,-8628794.792202866 L -5386352.303626413,-8626910.73724846 L -5385428.240533338,-8657689.128541734 L -5390640.887009224,-8665350.4688953 L -5390999.66972805,-8668981.015482266 L -5398419.113789422,-8677602.792102741 L -5405441.8151856065,-8679748.440661337 L -5409811.99575517,-8682855.28233018 L -5445979.9209528845,-8689807.909086978 L -5450703.429586226,-8707099.84607245 L -5453230.938624687,-8724932.981207991 L -5460134.0828877585,-8747117.996446876 L -5477446.156137456,-8752911.675398422 L -5486833.28351809,-8762558.760139173 L -5479397.586811063,-8772436.350360097 L -5476152.512334948,-8784985.594299193 L -5484180.762691468,-8790717.787059529 L -5489301.013989995,-8799588.684549967 L -5488550.943261031,-8805355.282061072 L -5495051.890203866,-8820955.465352656 L -5496986.845592836,-8833150.8822205 L -5489551.148885808,-8844603.93428779 L -5469102.64898301,-8857579.897160681 L -5462509.418182306,-8862814.060888616 L -5459068.644041376,-8868480.556919664 L -5435587.244611916,-8878062.670779949 L -5455562.747998333,-8884845.212357944 L -5468064.483411872,-8885891.131952109 L -5477174.42526043,-8882730.75221914 L -5485594.074946579,-8869999.513797931 L -5493453.787594038,-8861562.980640667 L -5524093.809517942,-8858807.05129289 L -5528599.911185763,-8863161.384393055 L -5530730.566239546,-8881128.010708481 L -5528985.855860343,-8895007.639648655 L -5516266.713481286,-8914535.375668582 L -5530937.175214459,-8924249.010309711 L -5544384.681021777,-8927403.945564058 L -5559669.292385657,-8936491.405598762 L -5573790.837709729,-8946094.073866107 L -5585917.426439294,-8957293.889366118 L -5597723.4150353735,-8970544.994310873 L -5601511.951265542,-8972226.524155218 L -5597245.075183435,-8986106.325336969 L -5594842.577933135,-8997533.758353062 L -5594472.997223701,-9022160.558185637 L -5599229.011148353,-9032400.374470012 L -5588656.999107716,-9053518.330242896 L -5574437.603951237,-9076691.44354737 L -5542944.206810912,-9111202.41230294 L -5576242.204216487,-9094554.183642 L -5603637.262983766,-9058385.077618891 L -5609398.937188245,-9056742.476545846 L -5611415.489763965,-9063278.793073937 L -5621808.277424425,-9086758.379395906 L -5629651.626106737,-9093178.60030933 L -5633157.6334692715,-9100262.92197975 L -5648741.248985422,-9112833.479974287 L -5655508.472150236,-9122542.843407363 L -5665102.208505782,-9141303.254463078 L -5678750.757313473,-9163687.629752887 L -5698177.344290789,-9208072.54411873 L -5729485.951076397,-9259502.314268205 L -5737204.399290039,-9288577.353370497 L -5727507.358447037,-9325626.467817822 L -5738242.5648611775,-9351314.386562714 L -5708472.170799351,-9363230.374380672 L -5665890.350500599,-9376622.26623012 L -5643827.495342317,-9387770.766778346 L -5631097.554972651,-9391112.4557559 L -5604034.1169684455,-9393157.929988438 L -5594994.751677049,-9404382.395475581 L -5610051.158084802,-9401546.537314259 L -5620144.941592992,-9403008.075227825 L -5620775.455188845,-9408244.508625917 L -5617041.242870185,-9417589.558729703 L -5614627.947629278,-9429655.354838513 L -5619786.158874165,-9427473.767272206 L -5646240.901902714,-9406706.885459142 L -5685343.988114176,-9390264.243796661 L -5715886.271525164,-9381092.111764442 L -5720832.530459581,-9381577.768415058 L -5731518.756297773,-9376037.289657641 L -5737660.920521783,-9374444.460849702 L -5742406.136455828,-9376012.566220671 L -5753217.374082179,-9391723.456029208 L -5756092.75652937,-9402033.597842576 L -5736715.150128003,-9430006.43344459 L -5722240.388059644,-9468371.598333316 L -5703069.279313699,-9493570.919068275 L -5689529.378329023,-9496735.071232747 L -5666890.444805886,-9495380.535854725 L -5658916.518360872,-9493153.181696108 L -5661454.936709431,-9508150.445317363 L -5660509.1663156515,-9515394.454423621 L -5642153.361520276,-9524107.189568227 L -5620753.74788814,-9528009.766102014 L -5605507.096470621,-9525250.923345812 L -5595913.3601150755,-9507617.850293843 L -5583585.617065647,-9475183.56101694 L -5566974.633968965,-9464262.329573432 L -5567702.997397225,-9479804.302608214 L -5576323.801403238,-9499875.222269729 L -5579514.4406483555,-9530769.688086966 L -5590456.144717916,-9543833.009843474 L -5599245.375113499,-9550284.541884987 L -5623525.825847874,-9547134.677590499 L -5638125.711023885,-9569840.987654084 L -5641435.907402114,-9578198.761021798 L -5641816.397421646,-9589310.797679065 L -5656383.554667362,-9622043.616804592 L -5661068.992034851,-9638454.613540275 L -5668803.692894149,-9660382.610590497 L -5672913.051896783,-9661548.698499048 L -5667689.496110799,-9633961.100512987 L -5660857.039724381,-9614612.218303818 L -5651116.584279968,-9572259.096047247 L -5646300.68046927,-9555261.112788253 L -5652823.334712812,-9541819.926187469 L -5665167.330407896,-9528543.902300538 L -5676076.417866655,-9520638.598496597 L -5701851.666723402,-9511181.626645878 L -5696312.965458983,-9531812.884269198 L -5692763.5434950385,-9552159.980133062 L -5705721.80014032,-9544941.834389912 L -5717772.357657675,-9530197.090026481 L -5721925.1312617175,-9509786.3942922 L -5729665.286776065,-9491293.617286896 L -5752630.386407226,-9446164.610696254 L -5761685.893024786,-9421208.523885394 L -5770241.463809194,-9408919.468303084 L -5779998.171899262,-9405532.003833605 L -5788466.80216136,-9415274.053102132 L -5795647.131956507,-9438200.216064958 L -5799011.652246243,-9456176.74709491 L -5799413.849566479,-9503029.485658009 L -5798506.150438552,-9524984.104962973 L -5802419.69845688,-9554686.784118218 L -5814823.584038012,-9624337.95479726 L -5817448.94290888,-9649300.109010974 L -5838440.90456573,-9662611.456034899 L -5838745.36337305,-9666915.887657546 L -5844240.65003606,-9681196.39762609 L -5848469.454852316,-9695519.077225307 L -5844969.01346432,-9700768.716198888 L -5839979.228609003,-9704561.98726777 L -5808605.388601789,-9725755.937461201 L -5785352.194128455,-9749572.748212513 L -5757565.847351037,-9787086.03552219 L -5746216.49130619,-9798785.10030042 L -5705450.069263294,-9807803.546217892 L -5687355.197354339,-9809034.260156004 L -5687523.7350634,-9815747.50801869 L -5693589.756755707,-9818424.190216804 L -5721131.534611852,-9816661.600283666 L -5757826.668917965,-9801573.889583027 L -5764110.208895283,-9796142.434016783 L -5780166.709608323,-9772746.478859356 L -5792548.88788875,-9759999.838962147 L -5827379.643363057,-9730949.992598588 L -5849980.616939834,-9730963.126631545 L -5873320.640615987,-9765745.415018313 L -5899367.731669251,-9759067.011301499 L -5916957.101770514,-9761367.008469256 L -5922082.80772409,-9766613.665873574 L -5925952.829821519,-9814409.822231216 L -5911771.617250382,-9870594.346114727 L -5927067.13792436,-9871115.277173301 L -5930236.069868771,-9873398.808336176 L -5938307.8461461915,-9886260.312555399 L -5943574.816533585,-9890088.592121597 L -5939666.723170306,-9896933.738666378 L -5901922.402663466,-9923776.306645196 L -5845485.424582111,-9976743.420621088 L -5821188.609882589,-9997665.511156574 L -5806191.982041392,-10006713.75263705 L -5794858.989961691,-10017096.198962761 L -5781063.610745644,-10039631.32542899 L -5776503.185166316,-10049515.128810124 L -5768811.898908428,-10057492.358584221 L -5752586.860486327,-10066495.388452316 L -5734856.225951246,-10080131.47274918 L -5706080.582859148,-10110966.64380442 L -5702340.915885438,-10122392.163447954 L -5708580.929941855,-10125064.5724163 L -5722039.233739781,-10114519.59225097 L -5749396.22124121,-10086326.198007548 L -5768915.203395884,-10070506.549900563 L -5835505.743551984,-10000181.708886558 L -5863852.027368093,-9974751.08956002 L -5879278.01448528,-9958574.284606803 L -5891241.631480323,-9943149.99693346 L -5903917.247938482,-9932190.204239432 L -5917304.975179244,-9925660.12855856 L -5945879.463951479,-9920763.415076219 L -5959908.614098191,-9915090.471022775 L -5968360.769075653,-9919257.319650497 L -5972078.728748657,-9952114.067934599 L -5969241.306247827,-9971648.108409919 L -5970589.385281334,-9990992.552850554 L -5963463.379397693,-10018759.913356662 L -5952885.912702007,-10038495.92764727 L -5948445.04425579,-10049241.027833927 L -5946548.048813183,-10056642.182124073 L -5924724.419240615,-10077146.457545683 L -5912695.569023967,-10086271.198427903 L -5904194.4334705565,-10106890.738367125 L -5855753.0891349185,-10114229.036632365 L -5843278.515677134,-10113496.18821936 L -5836641.758955529,-10116262.0485199 L -5831679.136055965,-10122281.307945963 L -5836451.513945764,-10126934.509868344 L -5850964.347279974,-10130204.42437708 L -5889545.679038089,-10129580.856445467 L -5925197.304437505,-10133129.44241781 L -5941465.868780506,-10136693.766760059 L -5949314.783437359,-10134626.922778646 L -5962273.04008264,-10140676.08171255 L -5976427.090698023,-10152206.514362095 L -5998386.64136885,-10194784.18124957 L -5989597.410973267,-10249825.947886785 L -5988830.976279154,-10276231.019382976 L -5960924.961049134,-10299469.881848395 L -5946004.475739639,-10307186.312174244 L -5924822.2690730225,-10324754.318488145 L -5896541.2184785195,-10354682.877211442 L -5862802.952486857,-10373018.303178921 L -5845610.436370271,-10376421.170817753 L -5831315.010001581,-10373793.592793955 L -5778492.575786282,-10347785.704369985 L -5751325.83329462,-10342710.206273861 L -5727453.03453553,-10348958.63065416 L -5697492.395463937,-10339823.63530409 L -5644496.08020402,-10302581.143412704 L -5634266.486917064,-10308124.897550078 L -5637234.264541613,-10317132.252439534 L -5696334.6727596875,-10356544.40574713 L -5695992.254006008,-10368354.588115426 L -5680865.1597216,-10371453.877336739 L -5664716.263831202,-10382973.452356018 L -5673826.20567976,-10389776.57111426 L -5713081.465635137,-10383864.6979117 L -5724409.114379279,-10374425.17872325 L -5762479.489674652,-10369531.019620301 L -5782362.709203202,-10377570.444591388 L -5800212.900871394,-10381550.407269385 L -5826999.153343526,-10398703.9221853 L -5849415.225246095,-10393101.337588398 L -5863558.47787087,-10386338.2359345 L -5888616.272609455,-10379940.783573812 L -5897660.981236408,-10375387.370600702 L -5946553.503468231,-10321718.838615645 L -5967126.9038397,-10310613.946162019 L -5981775.658272168,-10314270.644883778 L -5971491.629754214,-10349115.953874553 L -5968529.306784714,-10362919.87235487 L -5968545.559430369,-10377987.019094141 L -5964273.340012705,-10398675.003815502 L -5939220.999929169,-10438238.939738484 L -5923463.392048908,-10481836.630589427 L -5916804.816707109,-10509016.10505704 L -5904493.4376228275,-10512062.127316302 L -5887670.502215675,-10508049.734153645 L -5837158.170073319,-10490417.189952942 L -5795125.266183669,-10469466.271720724 L -5764121.00688589,-10463878.489247708 L -5743737.851524187,-10463296.726862554 L -5734997.490385062,-10469961.195616722 L -5728110.710087137,-10481574.101887438 L -5725458.189260514,-10489628.94912675 L -5723457.88933045,-10506146.773745757 L -5721120.625301755,-10512018.028937701 L -5714309.987535532,-10519243.43951998 L -5700367.7779111285,-10544422.273506459 L -5696122.720449218,-10562430.242940046 L -5700688.489364103,-10572929.722872637 L -5709961.5142666735,-10571850.817401744 L -5728067.295485728,-10564939.257125536 L -5730507.752682389,-10562061.267656669 L -5730176.243238806,-10556442.06029202 L -5747694.925463416,-10528619.615854725 L -5766795.346332707,-10522235.41710331 L -5810714.3363548685,-10512926.452694118 L -5830749.729627332,-10512267.32349557 L -5866357.829105849,-10525155.060700998 L -5871744.356626354,-10530220.202895109 L -5875445.952334212,-10539699.642781988 L -5919136.737400247,-10537552.724843226 L -5932198.298532985,-10534701.24436652 L -5942585.520218905,-10535935.676828407 L -5937492.430876131,-10552447.710025113 L -5923675.344359379,-10570831.384978628 L -5904324.899913766,-10630973.205096608 L -5888116.2254568115,-10646445.984983142 L -5855916.172188931,-10660906.16593799 L -5822319.170631085,-10658571.396690452 L -5764197.149417592,-10611862.812222451 L -5746662.214547327,-10607791.645094445 L -5730583.89521409,-10611550.823954765 L -5692133.029899186,-10627173.76646246 L -5685077.7118922,-10633507.131908607 L -5671249.71606535,-10652917.24173036 L -5655100.820174951,-10686251.451763524 L -5655888.962169768,-10694174.04784553 L -5680658.662066179,-10675502.02839819 L -5693866.942287782,-10670478.243658336 L -5705058.669933666,-10670478.243658336 L -5694665.993592696,-10731687.201908447 L -5690621.9791311575,-10778964.892387452 L -5686740.936404142,-10790747.90903655 L -5654171.302426827,-10787179.077051517 L -5609687.0320304185,-10793601.50541014 L -5599076.837404438,-10803988.089138683 L -5599245.375113499,-10808606.329747042 L -5617111.930746838,-10814926.67409125 L -5625710.916132655,-10828213.90023329 L -5640674.927363051,-10824011.881883906 L -5660715.663971072,-10815156.20466018 L -5685860.3992319675,-10816166.920872435 L -5683729.632858693,-10836687.050906923 L -5665297.796851105,-10879907.255559567 L -5663400.801408498,-10899705.727879046 L -5656209.673622742,-10939444.906970516 L -5655486.764849531,-10959918.163918115 L -5646153.961380405,-10979904.19092343 L -5617079.314136037,-10994177.804994715 L -5604876.582874768,-11002718.346866107 L -5604207.998013064,-11012073.614855219 L -5621634.285060315,-11047849.246969381 L -5617209.780579246,-11057758.881115183 L -5603544.867806409,-11066808.960883541 L -5598446.323808586,-11073421.400948435 L -5601925.057895876,-11077557.449917499 L -5614519.188486773,-11081536.886516651 L -5633864.178277337,-11073580.34546263 L -5655291.065184717,-11069764.750943217 L -5674255.56495575,-11081712.326218817 L -5689061.9477871815,-11087430.947727108 L -5698438.165857717,-11085630.247981671 L -5723919.976536733,-11065204.351737617 L -5732850.471366133,-11064537.177633127 L -5743873.772622446,-11070193.808731807 L -5816959.805066334,-11087925.097872138 L -5826020.7663389435,-11094191.261722961 L -5852203.667170975,-11124968.884391233 L -5873777.273167221,-11145351.000916004 L -5902498.592347811,-11167696.97185958 L -5939731.956391911,-11184699.052833106 L -5985482.708635075,-11196365.19801266 L -6012861.403437208,-11207370.428622415 L -6026352.435165426,-11222911.423352716 L -6049469.708540502,-11257221.54612782 L -6067042.714676619,-11285960.819521101 L -6070336.658409192,-11300220.127957374 L -6060009.103970337,-11317871.998349238 L -6049496.870496256,-11330579.867286552 L -6029711.500800113,-11341044.497511085 L -5995576.492143264,-11337587.561426528 L -5977237.051313035,-11332909.542680312 L -5957049.484296657,-11322935.98932522 L -5941791.92356904,-11321055.002025172 L -5910097.483428342,-11323876.510433804 L -5877886.520850363,-11317525.88982452 L -5858791.554636122,-11310555.494247656 L -5833722.96190693,-11296011.507431475 L -5764545.022826321,-11234513.586519513 L -5735676.984556864,-11213277.243550569 L -5723126.3798868675,-11210728.834237825 L -5671380.18250856,-11188111.155561501 L -5663085.544610571,-11188531.867680976 L -5641908.792599004,-11199135.151666291 L -5639810.642836532,-11206007.870288756 L -5646963.8106759265,-11212790.159259625 L -5669798.443863878,-11218068.163662119 L -5696590.150991059,-11243150.71976383 L -5713233.750698542,-11263107.080913804 L -5715130.74614115,-11296274.385295996 L -5712961.9085020255,-11314921.358890425 L -5708776.62960667,-11323414.513345983 L -5705857.72123858,-11352089.07354886 L -5721387.012843222,-11369195.99415527 L -5732236.321735427,-11374597.610794738 L -5761082.652704177,-11399617.985368285 L -5763490.493290036,-11405845.867262457 L -5749662.608782678,-11408786.558296638 L -5736117.253142953,-11407065.581745878 L -5707026.353252928,-11394362.971946217 L -5691774.247180359,-11392612.551466282 L -5680680.369366883,-11397582.253906636 L -5679402.978210031,-11402722.829880351 L -5697084.743488653,-11417147.531387161 L -5719223.629859147,-11443099.120425511 L -5765447.378618691,-11446913.097748926 L -5795445.977636645,-11443989.451810645 L -5814617.086382589,-11452915.775835676 L -5835022.060364487,-11467448.04175341 L -5848121.581443585,-11471157.687972046 L -5874886.126615013,-11462038.838387085 L -5888431.482254739,-11460893.641005455 L -5900775.477949822,-11464094.127848433 L -5912961.956565435,-11510115.031370433 L -5909716.99340881,-11523972.304537272 L -5900166.782974165,-11529976.131243896 L -5892953.836568215,-11544931.81341313 L -5887893.363836244,-11560604.432738272 L -5872037.906123576,-11575971.205279034 L -5784971.704108923,-11610304.721033845 L -5763001.355447491,-11635958.999157555 L -5763968.833141975,-11639918.251472453 L -5778786.125283505,-11635146.615808656 L -5797734.372408882,-11623576.837132076 L -5810409.98886704,-11621196.03752553 L -5861672.39173836,-11636149.100423057 L -5869662.570829029,-11632744.376519559 L -5890420.872874705,-11611286.224025246 L -5918582.255016605,-11588059.935023263 L -5931556.875627033,-11589467.086269844 L -5948923.384107729,-11603214.15576285 L -5951679.209421808,-11613008.697322791 L -5952923.872648368,-11624802.011053897 L -5933856.068389878,-11640973.525162451 L -5927730.268131015,-11649575.988482937 L -5915391.615771488,-11672686.29071475 L -5916022.129367341,-11684167.042725889 L -5937079.324245798,-11677867.601131652 L -5939824.351569269,-11688520.873817487 L -5939481.821496097,-11706837.7205385 L -5941525.647347062,-11730076.331230542 L -5946700.222557097,-11753096.71797925 L -5963985.245170533,-11788598.170596771 L -5971154.665655581,-11797764.17560148 L -5977063.058948925,-11810951.159968115 L -5990086.548815812,-11859419.629011568 L -5986314.376550791,-11871600.7416902 L -5974742.047565886,-11880845.138500648 L -5972529.795325351,-11885113.35189766 L -6000180.332324001,-11877439.792636761 L -6003207.888515106,-11869023.246591546 L -5997995.2420392195,-11856632.43168037 L -5994271.9390306575,-11840147.054780431 L -5992054.232135074,-11819596.959854169 L -5988195.008028252,-11801660.79656919 L -5978182.821706815,-11782076.211179042 L -5970170.823995951,-11771767.611780511 L -5957114.717518262,-11744641.624264242 L -5951418.276535388,-11714948.32838559 L -5953097.865012477,-11699347.957519261 L -5963235.063122076,-11683505.316440474 L -5979574.315341731,-11666449.880323177 L -5984520.574276148,-11652365.37079246 L -5986727.371861635,-11638362.03411566 L -5999462.87820584,-11625440.306670744 L -6007284.519587446,-11630274.37726874 L -6013470.2097323565,-11631051.504861476 L -6006164.868149048,-11608032.261160856 L -6001463.178135903,-11584542.466383176 L -6007132.345843532,-11561065.82171759 L -6022264.894782988,-11546910.205490254 L -6030477.9354942255,-11546483.670303443 L -6046621.488049066,-11535031.4804044 L -6087958.533801767,-11529023.144733334 L -6102346.466667308,-11531830.921798794 L -6128735.865154761,-11543448.400974285 L -6160022.764639664,-11549793.607732464 L -6172431.993556353,-11565545.880418018 L -6188700.557899355,-11594241.220659986 L -6196913.598610592,-11620058.045474729 L -6197082.136319653,-11642963.019820848 L -6192679.339139287,-11659681.380770411 L -6183710.773044038,-11670218.998219023 L -6172937.495364046,-11737951.635540681 L -6157701.753256625,-11793179.424955457 L -6119332.37380898,-11850579.388519129 L -6108390.66973942,-11871457.378892075 L -6104776.125873361,-11882710.241736121 L -6104830.449784868,-11891269.793030838 L -6111032.3925754335,-11896712.348094149 L -6158207.255064317,-11825462.193320695 L -6187298.154954342,-11817927.213868152 L -6195984.192181959,-11833859.496312449 L -6193353.378656042,-11862297.327476088 L -6188173.348790958,-11868915.857224723 L -6164642.968785548,-11866214.097194128 L -6155489.50101609,-11882082.607139928 L -6170214.397980261,-11906171.744931355 L -6185884.954018721,-11912491.473033696 L -6189553.933115776,-11918564.609734293 L -6173421.289871033,-11936979.716720344 L -6136139.056570477,-11935623.958120294 L -6127719.406884327,-11948524.419445015 L -6114217.577165502,-11962465.900992673 L -6099237.313289451,-11988395.494700028 L -6093633.267483937,-12010293.547394037 L -6092372.24029223,-12029147.047164205 L -6095600.950803198,-12044396.790781152 L -6095948.824211927,-12059718.401282705 L -6093399.49655327,-12075112.301940074 L -6097313.15589109,-12092169.620450206 L -6107678.670276306,-12110866.578914646 L -6130709.003129072,-12129243.767659154 L -6137487.024284492,-12108510.446043184 L -6144661.899424591,-12100001.331974952 L -6154733.975632076,-12098093.557792885 L -6164028.707835351,-12106803.804871304 L -6173725.637358863,-12109938.616902648 L -6183254.1404928025,-12117735.686902499 L -6193146.769681129,-12120206.58422892 L -6196995.195797343,-12126490.30156508 L -6199473.724259855,-12144108.940975714 L -6199691.1312253745,-12166581.11777641 L -6188504.858234541,-12177105.24699911 L -6172926.697373439,-12185412.863227563 L -6162501.293102176,-12201193.991166363 L -6155652.584070101,-12224105.273025485 L -6154663.287755422,-12249198.257777546 L -6159533.515477628,-12276516.127253123 L -6172187.424635082,-12301158.676187512 L -6195619.954808083,-12277181.975709682 L -6204822.291834,-12271305.796850316 L -6206942.148897177,-12288435.49649549 L -6210187.223373291,-12301158.676187512 L -6220036.326640717,-12318441.950380381 L -6233000.037941048,-12331069.115105394 L -6245474.611398832,-12339455.989392176 L -6246045.34642813,-12352296.537354179 L -6243088.366794188,-12366781.68085415 L -6237565.918175424,-12383714.339190409 L -6230374.679070178,-12419147.998774864 L -6222460.5311917225,-12415980.748434918 L -6215889.007691722,-12419206.511006836 L -6219688.453231988,-12448619.330662627 L -6226042.569766468,-12473439.131780583 L -6233505.539748739,-12487582.237263337 L -6233771.927290208,-12493751.081414 L -6235500.385023755,-12500968.484453289 L -6241262.059228234,-12518483.960198246 L -6247719.4802501695,-12531339.66012125 L -6258981.895772707,-12567890.602446577 L -6267118.793952241,-12581878.151698533 L -6277549.541559061,-12589132.108105391 L -6288790.249780894,-12589531.095762005 L -6306825.3431232935,-12579886.57004823 L -6340123.340528868,-12568745.080366638 L -6366485.577060569,-12563459.586522164 L -6370877.464930835,-12566340.285026893 L -6357690.892009936,-12580265.018327558 L -6338253.507042014,-12594797.368890839 L -6312521.784106167,-12604663.376848757 L -6305020.742858044,-12628931.673534822 L -6307798.275472827,-12650008.172101947 L -6306727.493290886,-12670041.497328788 L -6313782.811297873,-12691208.784765111 L -6306917.738300652,-12702963.765843306 L -6283490.662782699,-12714821.229243075 L -6272885.922811768,-12716650.639480086 L -6262330.163416786,-12731791.493539888 L -6292008.050981764,-12768402.754548145 L -6323093.7961468045,-12792518.895560384 L -6330866.679591444,-12802334.174591362 L -6337704.479313422,-12818539.680541405 L -6343602.074616158,-12841161.719590973 L -6353190.356316656,-12863881.881367741 L -6366458.415104815,-12886701.787371073 L -6385819.768860525,-12908826.296095958 L -6435734.204017831,-12949465.471968845 L -6452866.941567861,-12977635.57756424 L -6468646.256748825,-13020979.255713478 L -6476533.242671528,-13039544.908439051 L -6484729.919417619,-13053327.08839874 L -6519484.643679716,-13085726.959369376 L -6523708.105160411,-13100080.373210888 L -6487833.618140426,-13138472.540510815 L -6484322.2674423335,-13153853.206195 L -6498976.476529852,-13200868.584640473 L -6513994.811671754,-13235477.428054385 L -6530344.861882016,-13247802.901523056 L -6554652.474572144,-13254151.11558327 L -6576932.736695945,-13269627.701392408 L -6597196.334924536,-13294209.107222712 L -6617421.861887275,-13312272.185697211 L -6647714.12172194,-13329469.910400946 L -6698400.334908915,-13373942.585524324 L -6776530.476119628,-13421884.066494482 L -6811442.828780687,-13450063.379778184 L -6832212.040136461,-13460363.19670239 L -6859601.644248691,-13463003.73073952 L -6912570.797552855,-13489485.881238729 L -6957044.158639167,-13497970.831724381 L -6984504.4506280515,-13494081.335234713 L -6993473.016723302,-13498474.230940744 L -7013774.797537235,-13525514.288358998 L -7045556.289519733,-13541045.357159693 L -7061982.370942207,-13535104.538808422 L -7082365.6376233995,-13506146.234786311 L -7106977.597801357,-13477702.902901739 L -7120033.815598536,-13473871.152929163 L -7139498.362522213,-13499870.733027745 L -7149293.141878131,-13518095.124545222 L -7158653.107303012,-13524296.315490423 L -7167562.006151197,-13518416.704923425 L -7184939.312622499,-13494516.042301627 L -7201490.517152624,-13477292.201250568 L -7225966.667551815,-13456882.949418861 L -7245523.60965285,-13447110.848783629 L -7270635.728302941,-13444726.812393174 L -7276946.430236012,-13437375.554207997 L -7286616.197803769,-13437035.628017427 L -7299634.233015606,-13443727.792463306 L -7311831.620941317,-13456973.775811573 L -7323202.684286868,-13476858.632838208 L -7333252.941874158,-13487611.911784714 L -7341971.595712577,-13489188.65009956 L -7362006.87766555,-13478866.463413209 L -7387358.221901356,-13448632.304119615 L -7398935.78290233,-13441367.752275102 L -7408670.895011183,-13444522.25429626 L -7420552.914819475,-13453926.886707813 L -7444382.187657664,-13478044.94026071 L -7457579.669888661,-13475740.737726515 L -7467167.951589159,-13467284.443071764 L -7464504.521452438,-13447269.443236368 L -7442142.773461376,-13400067.465472821 L -7422205.341340811,-13366625.47682804 L -7439055.438703717,-13362678.411627442 L -7586281.921808287,-13407941.079809178 L -7605045.378578947,-13418921.01498359 L -7632136.089858397,-13446497.435905138 L -7654671.718894078,-13463458.764916912 L -7693019.279721527,-13507543.900424795 L -7722555.902852688,-13531538.292929428 L -7732350.793528097,-13550335.652470695 L -7734932.626478066,-13563312.979205241 L -7725534.589787335,-13580903.391682332 L -7666015.620283877,-13640552.286578808 L -7643278.836928331,-13652655.125528453 L -7597044.290178181,-13667128.342242967 L -7586113.495418716,-13676222.922734141 L -7582444.516321661,-13683446.161248073 L -7594592.923671421,-13696501.415887097 L -7655150.058746017,-13691832.49465846 L -7709103.0537098115,-13700583.40942827 L -7756055.054578126,-13724679.61458334 L -7764224.680687956,-13732691.902857829 L -7772176.788512771,-13747461.933247114 L -7779906.146036512,-13769059.450646915 L -7778139.617037114,-13793313.194325421 L -7766877.201514577,-13820253.018836651 L -7760273.061403775,-13838789.097233066 L -7758327.085385217,-13848873.391337845 L -7817351.46239108,-13782525.437154714 L -7841490.648691639,-13759454.255523905 L -7860618.2315166835,-13766507.658029318 L -7874038.464048756,-13777436.314965632 L -7880620.896858854,-13789627.751050545 L -7880376.327937582,-13803063.956144722 L -7878218.399608554,-13812901.546175258 L -7874147.223191262,-13819051.400823617 L -7905357.9801444635,-13846604.182560788 L -7919430.544892585,-13868289.703885404 L -7920925.343014957,-13890751.934247876 L -7909858.6271572355,-13913998.660987826 L -7899020.116255639,-13930919.620182132 L -7888415.487604199,-13941489.528512217 L -7859569.156635448,-13950728.43674656 L -7754130.897179765,-13968408.487588761 L -7678631.458175478,-13951463.733572977 L -7652932.351850433,-14007770.955041286 L -7635582.207334884,-14025829.143874202 L -7584814.396961158,-14044684.229436455 L -7506695.053741054,-14047271.94526585 L -7451502.738886258,-14036852.417112913 L -7425651.458817298,-14023547.493395615 L -7390440.102003969,-13994277.792723022 L -7388418.094773199,-14003096.9957364 L -7396919.230326609,-14029526.579919403 L -7397522.581966709,-14051553.76109314 L -7383297.843474671,-14089993.699590491 L -7376748.027275376,-14114237.576067707 L -7381199.6937122,-14139581.280698238 L -7396663.752095239,-14166088.192753563 L -7424031.648906764,-14200188.812870847 L -7438761.889206495,-14203017.402873028 L -7455139.101372509,-14194790.235034922 L -7474810.257271099,-14175878.045812624 L -7515696.236447105,-14128434.056094592 L -7535003.26629131,-14118563.514562335 L -7567203.31955919,-14116047.857858662 L -7585010.0966259735,-14122011.68730196 L -7602218.976707705,-14129088.975593956 L -7629113.877002852,-14154212.254966201 L -7638914.1110138185,-14158919.389809899 L -7650790.787486552,-14147890.795246476 L -7664754.593092171,-14121180.660677409 L -7678213.008209585,-14102531.01715592 L -7691165.8101998195,-14091897.859011104 L -7703270.691628681,-14087288.500167921 L -7720158.8602574365,-14089442.720600385 L -7789777.067924133,-14130878.597992474 L -7805518.311839245,-14149407.553310892 L -7806431.465622223,-14177579.14410978 L -7827798.573963046,-14204980.392212672 L -7851964.810899868,-14209775.491057528 L -7854916.3358787615,-14218992.175432779 L -7824270.859299809,-14261544.405165536 L -7801436.226111858,-14279029.854817605 L -7805105.2052089125,-14284292.462280953 L -7838272.736171278,-14285221.69179009 L -7860661.646118092,-14262470.400520468 L -7873484.092984607,-14258639.276092933 L -7902971.84685931,-14258022.29356998 L -7933921.670926091,-14269393.190871935 L -7947081.081891236,-14279365.212137468 L -7960724.176043878,-14302305.44298109 L -7976030.606027953,-14315257.605728475 L -8022232.536167303,-14334941.931174137 L -8032652.485783516,-14345666.677979296 L -8042528.862326186,-14363562.352537787 L -8080273.071513535,-14414464.85488707 L -8103113.159356537,-14452143.236211754 L -8106070.027670987,-14473574.436557332 L -8079713.245794336,-14519859.860318331 L -8078560.866425645,-14530624.540254299 L -8089861.353214032,-14550730.03234682 L -8094573.952537275,-14565613.932578089 L -8090671.202509554,-14586205.999476716 L -8067602.909710426,-14632021.64616274 L -8059041.88427097,-14644474.223121716 L -8017639.605296662,-14671586.085144224 L -7976188.2344269175,-14711172.44738479 L -7961082.958762706,-14720106.198855922 L -7947629.998300338,-14722175.925705234 L -7893193.320149047,-14719830.435707852 L -7876310.606175339,-14729632.852137852 L -7861982.563195845,-14749087.979671035 L -7838473.890491141,-14768851.41342351 L -7789418.285205306,-14798973.696698481 L -7680316.501307616,-14844742.965413267 L -7673212.31404417,-14850145.54140191 L -7672576.345793268,-14858878.101510774 L -7682376.579804236,-14882655.635718718 L -7684442.112955906,-14894151.923768947 L -7662102.07226555,-14915584.814413566 L -7611698.499265698,-14949511.170737727 L -7577242.66783638,-14965910.093296807 L -7555071.164855085,-14967113.889091136 L -7537193.81123114,-14974455.355294103 L -7512087.147236096,-14995954.197994508 L -7497873.2067346675,-14999755.266449565 L -7412068.031911722,-15008229.4204948 L -7374111.759094411,-14996500.777949609 L -7355473.425431402,-14996731.33409688 L -7343509.808436359,-15005086.40660597 L -7327665.260033789,-15029550.724956136 L -7298079.767646169,-15090724.469495045 L -7282506.950120626,-15128987.851535402 L -7267803.871776651,-15187670.016322283 L -7248784.936774621,-15280458.820837859 L -7234571.107592681,-15372244.901911734 L -7225151.363601245,-15463028.689709196 L -7217840.567362888,-15518989.348957678 L -7212644.173532657,-15539118.184360497 L -7194848.305775973,-15564775.262984345 L -7176291.457980224,-15584826.322199102 L -7144390.297545125,-15602662.915679652 L -7147298.296603117,-15610981.853058612 L -7160827.399597186,-15624924.684455965 L -7173421.418868593,-15630287.865561394 L -7185075.233720758,-15627081.901294611 L -7206295.511653225,-15606014.211600555 L -7233788.420252913,-15591797.226218872 L -7260493.075538294,-15594038.47576662 L -7279729.417505844,-15588736.236039964 L -7297373.111518614,-15569554.186245525 L -7325985.671556701,-15554161.188720845 L -7345075.294435384,-15557644.988181736 L -7379536.469200258,-15585204.681103578 L -7396924.684981658,-15590376.72614998 L -7441001.303402782,-15587758.859184314 L -7453894.4381459495,-15597985.658948358 L -7465156.853668487,-15618139.986763217 L -7474136.329073837,-15646308.30375693 L -7480832.864361996,-15682724.583070312 L -7479908.801268921,-15720795.352945654 L -7464042.545565647,-15790028.958459442 L -7457949.250598094,-15809028.483783958 L -7414997.84958991,-15887439.105039919 L -7388532.197251263,-15924478.237355763 L -7362191.668020267,-15952313.791868113 L -7342998.8519736165,-15968718.622793477 L -7324931.253339906,-15976082.335460363 L -7307591.906814964,-15993487.758172384 L -7275641.877123405,-16049745.440991217 L -7242686.2984715095,-16098369.01967205 L -7201680.762162391,-16189663.063126072 L -7181835.613899693,-16213801.067583969 L -7112375.145951451,-16254093.036192326 L -7093497.586702727,-16254722.482619828 L -7077473.591280999,-16244660.125952164 L -7062297.627740133,-16223676.43631115 L -7019650.574219775,-16132899.488672901 L -7016318.5592213515,-16135679.449709807 L -7023754.36724787,-16169892.386774438 L -7039310.820808267,-16273387.400770346 L -7036783.311769805,-16316454.070065016 L -7012377.849247269,-16362796.462188568 L -7002371.00626139,-16371086.731600778 L -6976606.66671474,-16367990.024268629 L -6935079.264632783,-16353629.600958543 L -6907309.17050102,-16337918.989924092 L -6886262.884932662,-16312466.460123219 L -6861243.161459929,-16296679.719805941 L -6848273.99550455,-16297453.903114194 L -6839022.677902684,-16309573.967117518 L -6825776.32641523,-16349334.818874693 L -6808529.486387137,-16417286.911762848 L -6801620.887469015,-16502002.18215846 L -6805045.297644798,-16604176.014337491 L -6810078.6084210165,-16679885.124753507 L -6816726.163133226,-16728020.528826667 L -6813079.002656368,-16768447.91851976 L -6792163.0722117275,-16817251.827502694 L -6772997.418120831,-16853139.977937046 L -6727300.989789174,-16904255.085331798 L -6690241.618109186,-16917882.592485134 L -6668249.450827557,-16914434.142024226 L -6639348.795947299,-16890386.84381013 L -6599234.706120452,-16875700.688429963 L -6563039.507647491,-16829472.61092972 L -6504373.913360455,-16724521.980452491 L -6465428.455547955,-16672494.19697398 L -6433190.331014222,-16649256.735032944 L -6401414.293686775,-16609900.585665157 L -6354435.019543215,-16527230.32676237 L -6329855.67597606,-16492054.53461019 L -6315228.628844297,-16479369.92970073 L -6302368.222031421,-16477343.001951864 L -6307156.852566876,-16500657.732543312 L -6329589.288434591,-16549701.583813408 L -6363958.068022108,-16604065.641846014 L -6440169.506489507,-16702970.905345678 L -6482142.631812601,-16773713.344961507 L -6519783.647831986,-16855365.615260366 L -6547450.437476291,-16904448.339174412 L -6597685.584086573,-16953479.313934825 L -6596995.180604673,-16973111.028994024 L -6536389.176273617,-17042670.594193988 L -6425015.3615688365,-17103849.867728874 L -6299498.182919789,-17152096.664250776 L -6257487.097650334,-17147155.915880498 L -6183650.994477482,-17167427.63980046 L -6176698.86963846,-17198117.49954011 L -6160821.8159445785,-17211976.61091397 L -6092056.983494303,-17255160.60906943 L -6072353.210984912,-17254548.41219265 L -6042093.67908054,-17234040.88627381 L -6009839.301901152,-17195123.040638067 L -5994913.361936608,-17160099.585375603 L -5974666.016353673,-17100379.613318183 L -5964724.406589399,-17017235.407042928 L -5966224.65936682,-16761597.746461993 L -5965697.338938932,-16714375.302935783 L -5961789.245575652,-16696264.315683495 L -5947814.530659937,-16723243.531046785 L -5931100.2430758,-16773675.314821742 L -5916076.564598341,-16809587.83575304 L -5904520.599578581,-16865429.083501965 L -5896427.116000456,-16941566.1122401 L -5891643.82880056,-16998568.298022352 L -5911282.368088346,-17063646.453241706 L -5912260.755092928,-17171941.42531338 L -5902444.268436304,-17230419.765135076 L -5874951.359836617,-17230419.765135076 L -5761229.371793044,-17030670.571611643 L -5716462.349890019,-16988334.15406302 L -5665542.477091869,-16884523.83961625 L -5606056.124199213,-16895482.399477996 L -5551173.6114872955,-16882789.343839575 L -5526882.251442823,-16886567.622746736 L -5514886.017836977,-16902592.074663866 L -5531942.724174795,-16945534.46608201 L -5609926.146296642,-17065073.857013885 L -5645360.36473054,-17160502.588840723 L -5670119.155316853,-17281514.287743196 L -5676174.267699063,-17346798.347753964 L -5657204.31327298,-17358615.120047413 L -5570105.494647526,-17357204.3903187 L -5439201.899797464,-17300528.69883446 L -5271804.102322171,-17108199.10586131 L -5189417.883019959,-17045832.982140977 L -5041778.181965563,-16832302.532695472 L -4997239.587657648,-16800638.272828605 L -4979264.272881804,-16794058.23564882 L -4965697.209941373,-16819884.86472685 L -4957326.540831174,-16848077.787902176 L -4956712.279880976,-16885795.9947401 L -4963849.195074715,-16933246.883170024 L -4967936.624137661,-16988529.94706754 L -4968980.244363849,-17051883.64577289 L -4958957.148732313,-17179242.479113698 L -4935149.583194828,-17221313.05061088 L -4924648.147711354,-17269224.545101807 L -4934410.310456471,-17356624.041330546 L -4962316.325686491,-17417147.568506304 L -5070874.536510638,-17575716.728729486 L -5071331.169061871,-17594889.651140507 L -5049409.689656897,-17616020.722766463 L -5016883.581600483,-17628429.99978483 L -4747857.768200378,-17589983.787760947 L -4701351.4905732,-17575931.234997056 L -4681500.9989749435,-17562166.35884735 L -4672809.5070922775,-17544072.93668517 L -4661666.760022343,-17536346.15336689 L -4603870.793597383,-17557927.08789077 L -4605246.034586644,-17597516.875570714 L -4612458.980992593,-17622805.932448637 L -4924686.218977205,-17692410.04708925 L -4982878.928067353,-17716408.87379292 L -5012486.239075167,-17718252.08577407 L -5043104.553698366,-17699845.500476703 L -5106596.849786708,-17690705.78942539 L -5135926.8639429575,-17694246.389133897 L -5173926.662681167,-17778128.970720723 L -5139514.357172752,-17880516.625831783 L -5110553.923725937,-17878176.5963046 L -5055530.146580202,-17838078.120768253 L -5022933.239327643,-17894169.183613297 L -4971187.153268826,-17940887.975613113 L -4920022.488910421,-17957447.16291939 L -4808398.650629319,-18059284.880868815 L -4787770.815026852,-18068269.814922646 L -4761750.997248833,-18062756.717871808 L -4704308.358887651,-18037385.080001783 L -4681495.544319895,-18012114.211516775 L -4655356.058089272,-17958312.95851383 L -4640185.549203455,-17941796.212611962 L -4622204.891092054,-17938752.821680702 L -4597511.222407854,-17914634.45660881 L -4561805.38441642,-17993030.498963688 L -4529529.188616837,-18078333.855199266 L -4492502.433547651,-18132733.38291188 L -4440125.722573489,-18100932.982045777 L -4406963.646266174,-18059700.985163897 L -4376638.881140197,-18010919.405422926 L -4333790.673299976,-17984105.161722094 L -4261128.545477028,-17820886.255942065 L -4247534.320580845,-17820663.417704284 L -4241114.970824759,-17834322.877497736 L -4234260.8071376365,-17864333.58435696 L -4231798.53132078,-17909116.414427817 L -4222878.834481987,-17970442.62590989 L -4229336.144184433,-17993259.396642063 L -4290203.192721398,-18062154.558094997 L -4301710.1771652065,-18088879.29634036 L -4313385.699318077,-18133107.29355941 L -4313581.398982893,-18169916.345789906 L -4302302.619495209,-18199079.77283881 L -4290415.145031868,-18212432.297465373 L -4251061.923924593,-18200310.107528597 L -4238054.798022853,-18209825.55000407 L -4225781.378884931,-18234651.967824668 L -4210996.703354204,-18281480.620329324 L -4199342.999821529,-18293469.163547225 L -4173024.177891238,-18294813.09473983 L -4132513.2340797135,-18264686.035227954 L -4097057.308345111,-18262153.855849862 L -4084267.5894088894,-18275973.615255155 L -4082321.613390333,-18305431.879659984 L -4079239.733287721,-18324213.92792969 L -4075016.271807024,-18332128.635722227 L -3946482.4462769697,-18333770.51879627 L -3914608.559117113,-18340826.492852066 L -3889686.685476788,-18363350.744382285 L -3859198.837296798,-18366020.597862273 L -3832543.0512678763,-18352538.564627625 L -3799549.5126696215,-18323924.526325915 L -3766757.017071738,-18325226.442357074 L -3717886.20214062,-18372091.04210606 L -3671809.283789431,-18394383.941781186 L -3417834.533461523,-18388194.61720188 L -3334339.460711519,-18359761.214145612 z" /><path fill-rule="evenodd" fill="currentColor"    d="M -5870004.989582709,-11050749.397702515 L -5832945.617902721,-11024409.574099181 L -5793657.6300170515,-11006260.699134042 L -5789814.769875376,-10997982.727065718 L -5786765.3950640755,-10985475.004364576 L -5786058.850256011,-10978962.996208904 L -5786955.640073841,-10972927.349769134 L -5789445.189165942,-10967366.802325001 L -5786575.15005431,-10960215.414754365 L -5778345.856697418,-10951477.883331215 L -5777503.279471602,-10941285.215840084 L -5787325.332102766,-10923807.685091149 L -5801147.873274567,-10904435.360769624 L -5874380.624807321,-10864775.854192827 L -5900280.885452228,-10858054.789027782 L -5964322.209269162,-10830975.72082255 L -5983906.424645442,-10832080.573667597 L -5988227.624639055,-10833354.755649773 L -6000348.870033062,-10845247.59193327 L -6016948.943819646,-10856329.262285145 L -6024727.170599844,-10864929.996454034 L -6031592.243597066,-10877295.47112987 L -6028858.125583692,-10884978.91319883 L -6016524.927879214,-10887996.147213561 L -5998962.8310531955,-10887794.893312097 L -5973214.744152202,-10896822.936668715 L -5980335.2953807935,-10904947.52187334 L -5987102.518545608,-10909898.279771024 L -5991771.59194795,-10920728.049500234 L -6002512.141697648,-10918613.438515935 L -6010556.756019315,-10924819.03191346 L -6026080.59296891,-10928725.630845023 L -6066575.284134778,-10932478.472050048 L -6092975.591932329,-10943126.022548543 L -6100764.728022626,-10949510.086303968 L -6107629.689700357,-10960559.447564004 L -6113570.810923994,-10976140.514557274 L -6104901.137661522,-11036862.56832762 L -6098960.127757376,-11052413.908864971 L -6085235.436417982,-11057552.540053668 L -6051671.05147094,-11043968.630987769 L -6047164.949803118,-11049830.146911414 L -6083881.902729427,-11072356.112799758 L -6097372.934457645,-11085837.444444098 L -6101346.26104253,-11096472.669130137 L -6103732.505647175,-11112129.261354573 L -6103699.889036372,-11121348.31215611 L -6102042.007859987,-11130643.964195842 L -6098775.226083169,-11139968.496413931 L -6089839.27659872,-11152603.639835931 L -6052622.276519768,-11172778.64032742 L -6012057.008796736,-11165891.338767832 L -5941694.073736632,-11141125.055129007 L -5932964.7332270965,-11135890.537478378 L -5911391.127230851,-11114720.801656254 L -5870004.989582709,-11050749.397702515 z" /><path fill-rule="evenodd" fill="currentColor"    d="M -5678815.990535078,-10924601.073015567 L -5696263.984883034,-10913345.84795757 L -5699786.2448912235,-10915847.06341898 L -5703341.010190725,-10924398.734379042 L -5712347.758871318,-10963453.663741203 L -5715016.532343597,-10982053.365770543 L -5712798.825448013,-11005237.170419171 L -5716288.4688454,-11021615.351244101 L -5700547.224930286,-11040755.007388653 L -5687822.62789618,-11044079.539819498 L -5670640.909770201,-11039061.59353235 L -5641560.919190275,-11019595.484708091 L -5643664.412288304,-11013303.168779798 L -5649953.4069206705,-11003174.780123198 L -5667466.634490231,-10989981.851464206 L -5673646.758660601,-10960309.269279066 L -5674831.754640095,-10945450.904302802 L -5674000.086724379,-10934332.533839686 L -5678815.990535078,-10924601.073015567 z" /><path fill-rule="evenodd" fill="currentColor"    d="M -5959511.760113513,-11416243.948180115 L -5969931.709729726,-11414002.47434221 L -5999848.822880419,-11431452.051931856 L -6004702.686637478,-11438028.40068178 L -6006556.156159186,-11446089.489612935 L -6005403.888109985,-11455658.221978469 L -5995875.384976044,-11473502.911947327 L -5977965.414741295,-11499740.500532955 L -5964996.248785917,-11504620.437465414 L -5956967.998429396,-11488164.196530309 L -5949070.103196595,-11466116.562126396 L -5948037.392280506,-11454934.513027515 L -5948570.056043952,-11441788.95088879 L -5950635.58919562,-11430680.80521413 L -5954233.880416024,-11421549.647785008 L -5959511.760113513,-11416243.948180115 z" /><path fill-rule="evenodd" fill="currentColor"    d="M -6124452.736426999,-12044415.227600116 L -6140183.071032015,-12018945.012433395 L -6153027.225199234,-12004355.711028555 L -6180862.5525526,-11961141.010588296 L -6185645.839752497,-11959635.079588821 L -6193163.133646276,-11965242.890640927 L -6198995.384407917,-11976581.776148243 L -6209513.183856538,-11979310.23604222 L -6213176.708298544,-11986482.783216171 L -6214649.687800721,-11992331.575170133 L -6219313.417867505,-11996051.446662286 L -6226732.8619288765,-11998386.526823057 L -6238642.155012414,-11993936.008251686 L -6249572.949771877,-11998423.14737903 L -6257802.354448262,-12017407.63735856 L -6242582.864986496,-12030173.85281566 L -6233174.030305157,-12041090.650681315 L -6196761.424866677,-12045389.065008562 L -6186493.760313869,-12040374.642580999 L -6180041.793946982,-12040503.24762302 L -6170208.943325212,-12043478.400617473 L -6148695.115895523,-12057104.301579561 L -6145482.7693497,-12063457.516950758 L -6126246.427382151,-12055484.623931741 L -6124452.736426999,-12044415.227600116 z" /><path fill-rule="evenodd" fill="currentColor"    d="M -7977971.127391462,-14017078.682579385 L -8017623.241331516,-14012596.299830971 L -8056682.912941569,-14032381.378040098 L -8070097.8021380855,-14047719.98199904 L -8069499.905153036,-14071257.781343088 L -8063586.057204642,-14079406.006900495 L -8042474.427095189,-14087589.022577671 L -8024917.673604728,-14089417.583933452 L -8013084.634372384,-14085761.485519217 L -7985271.014319723,-14071257.781343088 L -7965148.680524949,-14056760.674790094 L -7951934.945648296,-14052226.523210883 L -7955680.067277053,-14031487.435397986 L -7977971.127391462,-14017078.682579385 z" /><path fill-rule="evenodd" fill="currentColor"    d="M -4994298.971988853,-17035049.85183744 L -5016883.581600483,-17020818.388649657 L -5064009.463513416,-17106722.062140126 L -5138622.910690479,-17193828.884301357 L -5204398.14689601,-17252506.504382554 L -5266249.037092605,-17409236.73152132 L -5271113.810159762,-17465870.533674344 L -5262324.579764179,-17515943.44621853 L -5208328.058879485,-17523603.00991408 L -5165131.977630535,-17546679.475549854 L -5055171.363861375,-17447161.46803581 L -5000191.001317049,-17364096.10527144 L -4981536.303688894,-17296910.388599847 L -4984482.3740127385,-17164648.64333398 L -4994298.971988853,-17035049.85183744 z" /><path fill-rule="evenodd" fill="currentColor"    d="M -2831113.3573695505,-11375429.222163485 L -2827205.264006271,-11355404.036879692 L -2826808.410021593,-11345976.700455405 L -2827667.2398930634,-11338050.529017773 L -2829830.6228771396,-11332397.182024501 L -2835059.521998681,-11327359.23454766 L -2825302.813908614,-11314146.776402988 L -2822133.8819642016,-11305287.079572251 L -2821541.4396341997,-11298214.140865851 L -2827765.0897254706,-11284549.74713636 L -2872108.0956880627,-11266509.695089912 L -2884435.8387374915,-11257842.70217963 L -2899840.118553974,-11236484.414344028 L -2918560.049403734,-11218133.378691532 L -2924794.6088051023,-11218230.86967774 L -2932061.8791225594,-11237250.149731282 L -2961620.209554425,-11251259.877570176 L -3017290.864261159,-11243949.608322062 L -3082441.041525886,-11226326.52168083 L -3105590.9315117644,-11218117.074875267 L -3117282.706310291,-11222488.902266111 L -3120870.1995400856,-11229043.444959467 L -3121044.0805847053,-11238227.547504894 L -3113331.087026112,-11265135.17592474 L -3110216.5903126975,-11271993.462512996 L -3095268.831727958,-11280973.818159344 L -3085131.63361836,-11304776.809488349 L -3088447.2846516375,-11330761.54292592 L -3084544.6459434065,-11367186.085838396 L -3074336.648637663,-11372852.309352979 L -3048762.55410078,-11359882.24561977 L -3032216.8042257032,-11357145.171794852 L -3002908.4973701593,-11355486.889375817 L -2963522.6596520822,-11359882.24561977 L -2931871.634112794,-11374714.07108131 L -2874146.3555644876,-11417214.354065534 L -2863895.054976826,-11416662.315797772 L -2856551.642127666,-11401570.91009534 L -2851148.7506420147,-11394179.576517196 L -2833999.649126839,-11382650.021712787 L -2831113.3573695505,-11375429.222163485 z" /><path fill-rule="evenodd" fill="currentColor"    d="M -2077750.0205057897,-16846160.770829372 L -2089208.1356931415,-16820954.330417804 L -2118570.7664601924,-16831040.111882545 L -2156179.165868773,-16901973.70257944 L -2181247.7585979644,-16960809.92718152 L -2183036.106217559,-17030591.41645885 L -2170143.0827938817,-17061823.27932769 L -2150085.982220713,-17067096.148035076 L -2122517.0424088137,-17007246.807632584 L -2094219.627849164,-16927500.552613527 L -2077750.0205057897,-16846160.770829372 z" /><path fill-rule="evenodd" fill="currentColor"    d="M -1960614.531596531,-15428039.321268545 L -2007740.5248289553,-15356186.762872078 L -2077445.673017961,-15361667.505791286 L -2118679.5256026974,-15394768.13775742 L -2130463.695578582,-15444739.191836338 L -2114755.068274271,-15500666.316422222 L -2064683.0047180029,-15545820.543735366 L -2001848.384181267,-15574179.358496463 L -1944905.9042922193,-15557142.871234953 L -1937051.5349803183,-15500666.316422222 L -1960614.531596531,-15428039.321268545 z" /><path fill-rule="evenodd" fill="currentColor"    d="M -2114755.068274271,-14354660.200277679 L -2129485.3085740004,-14335852.300443351 L -2139296.4518950656,-14392465.855738495 L -2148134.551547107,-14468740.789708236 L -2150102.2348663686,-14555624.372169247 L -2127517.6252547386,-14599518.565308472 L -2115733.4552788534,-14609304.072729595 L -2107879.0859669526,-14599518.565308472 L -2109841.314631165,-14560469.457528958 L -2109841.314631165,-14483145.698953228 L -2101987.056638755,-14430492.018207612 L -2114755.068274271,-14354660.200277679 z" /><path fill-rule="evenodd" fill="currentColor"    d="M -2068607.4620464288,-13396528.5449772 L -2081370.1303463867,-13384325.906634223 L -2124571.6662503853,-13578099.722691964 L -2124571.6662503853,-13649609.573702332 L -2121625.5959265414,-13704857.07607178 L -2101987.056638755,-13709133.531239374 L -2085305.38566542,-13679303.992896885 L -2077445.673017961,-13565555.315172188 L -2068607.4620464288,-13396528.5449772 z" /><path fill-rule="evenodd" fill="currentColor"    d="M -2003810.6128454804,-13109802.941726457 L -1994977.8565289972,-13063216.932314273 L -1991048.0558650128,-13020766.09072471 L -1977301.5459054243,-12993937.946135877 L -1947851.9746160638,-12997733.892720854 L -1936067.6933206874,-12948139.145235661 L -1957668.4612726867,-12929135.471038483 L -2043082.2367660038,-12936738.814312784 L -2078424.0600225432,-12932957.125699082 L -2102970.898298386,-12963356.157997102 L -2101987.056638755,-13016935.96187265 L -2099046.4409699603,-13070954.928630471 L -2074499.6026941168,-13101997.613934092 L -2053882.6764017483,-13074838.102684004 L -2029341.2927809544,-13094244.71623106 L -2003810.6128454804,-13109802.941726457 z" /><path fill-rule="evenodd" fill="currentColor"    d="M -1998597.9663695942,-14179940.724451207 L -2020225.896277347,-14179940.724451207 L -2028243.3486432605,-14193491.716814648 L -2023122.9860252421,-14217510.437020421 L -1993031.9918299308,-14295528.729919448 L -1982997.9868882974,-14301890.99956817 L -1968289.4538892729,-14293409.175006948 L -1963826.8781423522,-14253243.181862358 L -1973638.0214634177,-14213347.987006374 L -1998597.9663695942,-14179940.724451207 z" /><path fill-rule="evenodd" fill="currentColor"    d="M -4122299.893438412,-9749913.80574077 L -4139617.4213431585,-9749743.409282144 L -4145362.8429019805,-9770877.01097516 L -4143634.2738489434,-9793989.477293119 L -4124109.9483587113,-9801243.573070168 L -4113597.6035651388,-9785305.118905209 L -4117364.4324946012,-9761642.951195141 L -4122299.893438412,-9749913.80574077 z" /><path fill-rule="evenodd" fill="currentColor"    d="M -5150385.37336566,-8575800.312445667 L -5163169.748966322,-8548237.458092388 L -5175948.669911936,-8554230.200878372 L -5182270.169835614,-8566541.775653848 L -5194858.845771462,-8572271.455371477 L -5208425.908711892,-8570557.571828762 L -5208637.8610223625,-8575444.11194421 L -5164544.878636092,-8604909.807272365 L -5143542.118988634,-8612862.859998308 L -5145031.462455957,-8600416.981561797 L -5149026.496341546,-8589531.821934273 L -5150385.37336566,-8575800.312445667 z" /><path fill-rule="evenodd" fill="currentColor"    d="M -5752450.939388067,-11352950.8413916 L -5767317.100786055,-11352039.183308378 L -5801903.39865858,-11358190.00038806 L -5804664.567308217,-11362138.77948126 L -5805094.037903697,-11369661.474660233 L -5800495.541058518,-11391345.60686823 L -5785254.344296048,-11394229.77923964 L -5767121.512440731,-11382350.3502123 L -5747575.3683303045,-11365492.34891754 L -5744857.614282077,-11357576.534612237 L -5752450.939388067,-11352950.8413916 z" /></g></g>
</svg>
