<?xml version="1.0" encoding="UTF-8"?>
<svg xmlns="http://www.w3.org/2000/svg" viewBox="-1872928.7252961232 -1552669.0742442573 333746.5200693505 85605.72388245747">
  <g id="map"><path fill-rule="evenodd" fill="currentColor"    d="M -1843707.3589628886,-1526911.1860875112 L -1815480.6322798927,-1528007.2094443594 L -1781291.188392045,-1527537.4142844786 L -1744063.2790029955,-1527022.9624094975 L -1726528.3441327296,-1526788.0723310125 L -1717309.6431416664,-1542914.6725339296 L -1699796.4155721054,-1550032.8452319948 L -1681853.8287265548,-1552669.0742442573 L -1672515.5706023795,-1551969.4704346005 L -1662644.6487147582,-1549585.1316514872 L -1643745.3821653302,-1536279.4357516817 L -1631961.1008699543,-1533247.6610417638 L -1622019.6024251701,-1530216.226203652 L -1614909.8491871855,-1523751.8628035476 L -1603609.473718288,-1517339.2937759166 L -1594711.4841802,-1515606.3978170664 L -1589422.6951726114,-1516590.232379853 L -1580628.0101219798,-1519061.079496502 L -1574833.8306261897,-1521051.3605883103 L -1555956.2713774664,-1521889.9715978126 L -1542090.2042847655,-1514460.5052780304 L -1539182.2052267727,-1506362.5515996865 L -1541497.7619547637,-1498065.9724310648 L -1560130.7522822144,-1493614.1774888877 L -1585943.9610853216,-1486689.3245771232 L -1607294.7054609992,-1490469.7759547867 L -1633271.1086376095,-1499942.9510883521 L -1648447.072178475,-1506742.6048099734 L -1654768.5721021525,-1509458.4044481579 L -1664259.0039702423,-1513778.6017951327 L -1672531.8232480353,-1518440.5417716352 L -1680522.113658195,-1521453.831110323 L -1686615.2973062554,-1523382.7951569578 L -1691121.3989740761,-1520950.715261754 L -1693404.2277717742,-1515204.0134997459 L -1697013.4283022734,-1508799.0573207354 L -1701655.3397488622,-1505010.3783505368 L -1723430.1000649713,-1502764.265069848 L -1742965.3348653014,-1500412.272884928 L -1753455.8610386776,-1498417.881919633 L -1760451.4004791086,-1496903.993610193 L -1762663.6527196437,-1477611.4037360991 L -1784791.7410995304,-1477829.184452913 L -1806528.3188302973,-1478052.4543151753 L -1829074.8571760764,-1477711.8913210947 L -1853333.6006097465,-1477349.0402383632 L -1859540.9980553607,-1473414.1108361776 L -1866085.3595996066,-1467063.3503617998 L -1866753.9444613107,-1476701.5444944121 L -1872928.7252961232,-1498725.062751746 L -1864644.9967082327,-1508374.3413172958 L -1855621.995381984,-1514052.5287505176 L -1849550.5190346278,-1509508.7631507663 L -1847718.7568136246,-1500529.5473732504 L -1843055.02674684,-1494396.1297575065 L -1827128.9924770098,-1490564.8199405938 L -1811355.1319510937,-1493318.148650932 L -1801712.5263390895,-1492050.3390819172 L -1802027.7831370162,-1497021.3676146604 L -1798744.63739505,-1503641.4506956667 L -1779600.8019243493,-1506479.9658520028 L -1759348.0016863658,-1508374.3413172958 L -1738551.7396943297,-1512347.770053202 L -1722256.0133955746,-1512180.1959285317 L -1717380.33101832,-1513292.3395505853 L -1718565.3269978147,-1514991.5478102737 L -1733192.2628100875,-1516897.7308746215 L -1764403.0197632883,-1512331.058380012 L -1796189.9664008354,-1510989.6936793514 L -1820274.8287898866,-1498987.62784495 L -1830151.0940130653,-1500110.5651000934 L -1840119.8657330938,-1512101.903451015 L -1843707.3589628886,-1526911.1860875112 z" /></g>
</svg>
