<?xml version="1.0" encoding="UTF-8"?>
<svg xmlns="http://www.w3.org/2000/svg" viewBox="-1675494.2575370257 -1422503.3344704045 820426.873536242 617099.0715153968">
  <g id="map"><path fill-rule="evenodd" fill="currentColor"    d="M -1144720.9216838633,-948034.9604383827 L -1153276.492468271,-949200.1089150712 L -1157103.0999642897,-947562.3594193006 L -1168457.9106641852,-934188.047739264 L -1175279.4577405062,-928963.6929338844 L -1180432.325649836,-929392.103814076 L -1185846.1264455854,-930606.1447697971 L -1189667.2792865555,-929639.3869893124 L -1192466.5192020428,-931166.5432354198 L -1191357.6657542512,-934424.3312952509 L -1188596.4971046147,-938517.5274169497 L -1183155.534353112,-953080.262257338 L -1169202.5267381014,-967752.5390212534 L -1168914.4318959285,-970820.6409455362 L -1174616.3275338507,-979404.8780686926 L -1180611.661349504,-991098.8806037827 L -1180628.0253146507,-1003632.7564484476 L -1181764.040718196,-1012691.6158952779 L -1194108.0364132808,-1015229.0360404622 L -1196352.9052646179,-1016759.4110781797 L -1196679.071372642,-1019814.5853665577 L -1193482.9774724762,-1027946.5017455198 L -1189743.3104987673,-1035463.3362803592 L -1189194.3940896655,-1038646.6149217654 L -1190064.0219517425,-1041455.7425082617 L -1197641.2057315684,-1049476.447043273 L -1209463.4469733047,-1064271.5889787655 L -1220405.1510428663,-1080660.3842125968 L -1229797.7330785487,-1094745.063108196 L -1237391.1695040304,-1101165.99432807 L -1244647.53051139,-1110451.8423750156 L -1247408.810480517,-1116373.184227117 L -1254975.0849502452,-1118498.0784551296 L -1277048.738099134,-1118376.678456151 L -1303557.8050391902,-1118233.1240400665 L -1325935.8056759082,-1118100.7605832126 L -1327234.9041334656,-1110159.3713110578 L -1351678.4379218526,-1104807.2645280287 L -1366751.096975262,-1110953.9532288206 L -1383476.2938694975,-1107378.412341152 L -1391656.7179699317,-1103312.0488152383 L -1394205.9343090977,-1094844.3579604982 L -1397934.6919727093,-1085556.8483352945 L -1401495.0232467505,-1081735.634639086 L -1403027.781315483,-1077567.3737645755 L -1405093.3144671523,-1073774.3974102247 L -1408376.3488896275,-1069403.0166929401 L -1412023.6206859783,-1060628.7902380477 L -1419975.7285107959,-1048148.6879658765 L -1428351.9635955356,-1040100.7305694119 L -1442565.7927774747,-1035711.136007363 L -1447001.2065686418,-1022583.8228802086 L -1450273.3316810194,-1017695.1385862911 L -1455757.8203534225,-1013869.5028579419 L -1461611.889735259,-1011381.6528293842 L -1467009.326565862,-1012884.2644097917 L -1473227.633321574,-1013924.5145903716 L -1479733.9235999687,-1011568.7717154671 L -1480842.7770477603,-1014854.765297244 L -1477151.9793305094,-1025248.609411317 L -1480092.5949993045,-1030655.7412638312 L -1491246.3626988274,-1041461.2700416173 L -1492300.7809156212,-1046688.8593393078 L -1495719.7364363552,-1053421.1775588505 L -1510412.016789724,-1067313.9704022852 L -1524114.8895089217,-1066454.1597724457 L -1520304.6459780494,-1078118.6140142349 L -1520478.5270226686,-1093619.8527659767 L -1525131.347779355,-1102081.843049744 L -1523941.0084643024,-1110727.703020146 L -1526484.7701484195,-1110181.4082697534 L -1531056.1050378454,-1104227.9502907104 L -1538448.3871434636,-1106142.4221762994 L -1553423.3076839563,-1115352.2070923415 L -1560907.9849669328,-1124299.4094832295 L -1561804.8861042543,-1131907.0049103552 L -1563484.4745813431,-1134861.0374137566 L -1568077.4054519827,-1133276.2809568497 L -1577442.8255319118,-1133430.863470664 L -1605995.6070034415,-1146972.3476292526 L -1626329.8931086857,-1181097.2996009279 L -1626781.071004871,-1188794.412678372 L -1623862.1626367804,-1202058.423658756 L -1624541.6568085826,-1205660.1547545523 L -1633874.460277709,-1196852.9161557653 L -1635657.2419227632,-1202750.0281303728 L -1642783.2478064038,-1216467.7461069564 L -1644848.780958073,-1224355.5815279025 L -1651697.4899901478,-1227860.014734951 L -1657181.9786625507,-1228485.5857040936 L -1661421.6927889031,-1225861.3726738926 L -1667009.3746292717,-1209821.195493079 L -1671172.9462239216,-1209926.3641418782 L -1675494.2575370257,-1213351.7761098417 L -1674581.1037540485,-1225318.844710503 L -1669683.6027565985,-1231220.9092117886 L -1663606.7830736844,-1240291.875517811 L -1645223.8163225558,-1278125.816228072 L -1638652.2928225566,-1286804.9478697556 L -1634499.5192185135,-1289822.3410427694 L -1625797.22934524,-1290177.3538696566 L -1608838.3728398294,-1295242.2548026799 L -1594966.9624115706,-1303604.1733572986 L -1588036.6561927444,-1307028.3741223433 L -1572088.8033027186,-1306123.7271062636 L -1553265.679284993,-1307561.2402854555 L -1528724.2956641987,-1315682.086147648 L -1528256.7538028671,-1326837.2281071658 L -1528490.524733533,-1341140.8992207882 L -1529305.8286841027,-1346808.7087545313 L -1538024.4825225228,-1351910.5764905124 L -1543101.2079001502,-1356329.6437711292 L -1547471.3884697123,-1361972.3748919151 L -1552781.8847780055,-1365992.4933043523 L -1552607.8924138956,-1370213.2647567152 L -1545949.4283915868,-1373817.3327901186 L -1541715.168920283,-1375652.8499745543 L -1531730.144554599,-1375580.6255565782 L -1528425.2915119282,-1377683.2930194642 L -1525957.5610400226,-1381315.9453107903 L -1523114.7952036348,-1390513.8263944131 L -1522130.953544004,-1400215.6371885955 L -1528707.931699052,-1413250.871183668 L -1528332.8963345697,-1422503.3344704045 L -1492322.5995358166,-1421171.8227936297 L -1488626.4584830077,-1420185.7219306873 L -1472542.684494723,-1418587.015678882 L -1462568.5694391367,-1418603.671982045 L -1456382.8792942266,-1417896.2438159985 L -1453806.5009993073,-1415785.1273523935 L -1454322.8007976064,-1411908.7180498103 L -1456040.4605405466,-1406802.0946860432 L -1453974.9273888774,-1401523.8491026468 L -1448479.6407258676,-1400115.4201037225 L -1445555.389022219,-1401713.1193569473 L -1442761.4924422894,-1404302.0251862651 L -1439440.386753963,-1406345.488860542 L -1434706.0801300157,-1404948.0043575778 L -1424590.4780016309,-1397181.684254152 L -1415208.8052760463,-1395044.2408404625 L -1404941.1407232378,-1390831.0218024533 L -1395303.9897662825,-1388504.8487729987 L -1386748.4189818748,-1388799.7988087267 L -1380258.3813491361,-1384437.2750923864 L -1368251.349752683,-1383062.9291202202 L -1352749.2201037933,-1388599.4421677024 L -1340551.9434975742,-1391042.5632740837 L -1323430.0039381515,-1391643.5726687573 L -1314472.2358335075,-1389818.2422794949 L -1288376.386843276,-1394264.9958445127 L -1275358.2403119474,-1393268.7411201575 L -1267862.6537188732,-1391766.1012046447 L -1271053.29296399,-1388721.958155972 L -1274336.4387059559,-1382061.4660251627 L -1277342.287596356,-1373850.7089715481 L -1280418.713043919,-1368322.5002925447 L -1279331.6782163226,-1364713.5086834815 L -1270672.8029444586,-1357547.023342855 L -1258486.4356483372,-1347464.4919754046 L -1253534.6107393801,-1346169.6693560076 L -1247854.5337216533,-1348537.0840284678 L -1238902.2202720584,-1356524.207198392 L -1231841.4476100225,-1365152.8510561974 L -1225019.9005337015,-1369334.6669742274 L -1217078.590699491,-1369067.6985934107 L -1210729.9288200599,-1362995.3745456757 L -1202973.4093405663,-1349609.599840431 L -1195907.2933429722,-1337429.6500367294 L -1195004.937550602,-1336201.9196021236 L -1192145.9190685584,-1334185.3892157176 L -1188596.4971046147,-1334263.2038019767 L -1184851.3754758567,-1337235.207776856 L -1182101.0048168274,-1339018.5702485582 L -1178817.970394352,-1344602.5712120007 L -1165049.7531340586,-1361494.2505371065 L -1154689.6934038918,-1366148.170754877 L -1151031.6236169338,-1367371.5250523542 L -1143791.51525523,-1369918.4977001466 L -1131795.2816493837,-1365909.0177228404 L -1114379.9039122302,-1358964.6095786965 L -1093235.657191974,-1350543.2871680574 L -1085810.7584755535,-1349115.0519035594 L -1081440.5779059913,-1350543.2871680574 L -1075157.1492481648,-1362000.1584869896 L -1067302.779936264,-1366481.849337108 L -1056067.5263694802,-1371742.7283722553 L -1046957.5845209222,-1374451.3726594266 L -1041739.4833899874,-1374790.725040986 L -1039744.7494344625,-1377905.792271843 L -1038782.6150755365,-1382573.3030225225 L -1039815.3259916257,-1387391.974357825 L -1045696.5573292158,-1396079.5421587795 L -1045886.8023389815,-1398634.5499474523 L -1042527.7367042946,-1400304.6813230705 L -1035271.2643774443,-1401557.25635443 L -1025867.773031664,-1400711.0269807098 L -1015284.8516809292,-1396959.0409461143 L -1006669.5023299651,-1391532.3285940664 L -1001755.8600063502,-1385099.3447784507 L -996401.8377771567,-1371392.3618134486 L -992287.1354389652,-1358064.0230825078 L -981649.890176723,-1336890.8124677036 L -981845.4785220467,-1323766.2551957616 L -982062.8854875661,-1308543.5653677816 L -977355.7408193726,-1305701.9310809933 L -972164.8016441913,-1304481.0162003017 L -969751.5064032839,-1302239.0063960864 L -964576.8198737587,-1290560.0905155374 L -959701.2488159948,-1287165.3797368282 L -953868.8867348628,-1286366.7099834855 L -942954.344621055,-1278885.4420612645 L -935915.3905792146,-1275941.0689431615 L -934920.639609486,-1273701.1721744975 L -935159.8651952005,-1270618.643630909 L -937899.3265441322,-1266682.824919543 L -942155.2933161408,-1263955.800298599 L -948476.7932398184,-1258873.5607178602 L -953705.8036808508,-1252185.4249853732 L -964462.7173956955,-1236171.4136458116 L -964772.5195385731,-1233181.0860082882 L -962489.5794213848,-1231027.1091400473 L -958037.9129845619,-1230628.3993573447 L -953287.2423954682,-1231730.305978015 L -943400.0678621911,-1237594.7119344233 L -935583.7698161413,-1235501.3537134125 L -928115.3451788207,-1231043.665451059 L -925370.4291748402,-1226409.4652020943 L -924658.4297117263,-1220325.6172195312 L -926365.1801445689,-1212488.4771775422 L -926636.9110215951,-1203712.6778052459 L -924125.6546287898,-1188766.7775673855 L -920239.268566215,-1173866.045446067 L -916325.7205478866,-1168432.6046433349 L -891365.7756417097,-1155291.9100424608 L -888963.2783914093,-1150375.0617355863 L -887713.1605098007,-1144845.7870922955 L -889512.3061200015,-1137263.0696633807 L -892061.5224591676,-1133055.4337826115 L -899220.1449536107,-1126474.396716098 L -905764.5064978565,-1121384.7812327368 L -907830.0396495257,-1115859.9229487635 L -906791.8740783875,-1105524.4425190624 L -906813.5813790923,-1082149.16585614 L -905802.5777637076,-1061929.3230957063 L -900426.8482338098,-1054589.3276463186 L -894007.4984777248,-1050864.7300941562 L -886403.1527421456,-1051564.4190764118 L -878999.9613264297,-1052919.827130126 L -879423.9772668612,-1040827.7520817622 L -881435.0751875323,-1027274.7461723397 L -872678.4614027521,-1023112.3009248305 L -868270.3208868292,-1018988.8458283723 L -865840.6616807751,-1015135.468029714 L -879657.7481975271,-1007947.2726608723 L -883674.6007033116,-1003742.7522923708 L -885544.3228706754,-992435.686206749 L -885098.7109490299,-982000.733480454 L -866514.5898780377,-974543.2914013776 L -859339.7147379387,-965806.2349151853 L -856154.5301478708,-956741.0202790693 L -855067.3840007837,-939616.478070753 L -856725.265177168,-935704.4477326381 L -861497.6430669663,-935665.9660568101 L -866889.6252425201,-940924.2046719111 L -870917.3870584024,-946067.6055678813 L -875945.2431795715,-946051.0612578943 L -885337.8252152539,-947199.6115333072 L -896024.0510534449,-949178.0482385433 L -909232.3312750485,-948656.0238857291 L -913928.6779526351,-947820.6629798827 L -916934.526843035,-944715.7199235536 L -917733.5781479493,-939341.6815477129 L -919065.293216309,-921993.2617926288 L -914727.7292575492,-918165.2382266306 L -906210.2297389928,-913865.1913559281 L -900633.3458892312,-912031.1641665796 L -895964.272486889,-912547.3562918699 L -892420.3051779942,-909757.8526333153 L -891653.8704838826,-902290.8614899314 L -894088.9843449855,-896806.6006501805 L -898774.4217124744,-891712.8319006667 L -904677.3603507694,-878596.6550030232 L -903671.8113904337,-873685.7992956785 L -903405.535168456,-866575.735006083 L -913482.9547114987,-847423.2661323819 L -916369.2464687867,-843661.6948607687 L -929713.447788649,-847461.6739399419 L -938421.0809974804,-848728.3625913748 L -944704.6209747974,-843859.1094459302 L -948694.3115248283,-846896.9025607866 L -953385.0922278754,-851338.7738630727 L -954993.9928283105,-857174.1060733298 L -958162.9247727225,-858397.1304490368 L -964000.7415089033,-858446.5553115632 L -969403.632994555,-855133.8548035934 L -971757.1496689063,-849112.2278183238 L -972110.4777326841,-842181.3356547011 L -972958.3982940566,-836808.2672959785 L -976176.3108144178,-833562.8394293519 L -982720.6723586635,-825159.5844199323 L -985791.7544706685,-817399.0596891261 L -989591.0886914429,-810653.2976801214 L -995021.2534523386,-811042.3653471598 L -997532.3985256534,-811990.3025148273 L -999266.3109142493,-810225.9663593053 L -1007702.3245655452,-806478.106763436 L -1014964.1402279537,-805404.2629550077 L -1016882.8429712666,-809294.4459918885 L -1021117.2137620611,-812417.7610158167 L -1025829.8130853035,-818577.3155661315 L -1031183.723995006,-823564.6158405351 L -1041429.6812471097,-827039.6231354938 L -1045473.6957086477,-825493.9854200457 L -1050311.306820051,-825888.669060805 L -1053507.4007202166,-827845.4079533294 L -1053056.3341435224,-830838.3098287163 L -1047680.6046136243,-838409.1668478624 L -1044620.3204922264,-845361.5304096491 L -1042946.1866701865,-852962.0554972378 L -1042968.0052903821,-860179.8278037515 L -1045837.9330825232,-870383.0435203962 L -1050447.2279183096,-878481.3560061046 L -1051566.990676199,-883178.6167524778 L -1051028.8722577044,-889857.6679055194 L -1052094.1997845962,-896076.5399245444 L -1053588.9979069682,-899320.8689757715 L -1054322.8159902773,-905491.556327908 L -1055768.6335367006,-911114.0662110811 L -1058480.9329298786,-913283.1933697427 L -1060008.347663053,-922701.8079141942 L -1059568.0790769658,-932386.1461822935 L -1063535.951006801,-936045.0457940496 L -1069797.6723639227,-938715.3499954996 L -1073477.560771076,-942506.6727696402 L -1075744.1369231178,-946727.0196409591 L -1078005.3697396016,-947952.5728443987 L -1079929.5271379633,-947699.7834744825 L -1081679.803491706,-945078.4470066001 L -1083761.589289031,-944523.3846401569 L -1087397.9517752843,-953596.9370470445 L -1088925.2551889676,-953948.707206115 L -1091458.2188824778,-951865.5944052655 L -1120358.873762737,-941814.3499619238 L -1121620.012273934,-945721.414384934 L -1124065.9241256437,-950365.1762794383 L -1129604.7367095535,-951926.152513132 L -1139138.6944985439,-948447.1258690921 L -1144720.9216838633,-948034.9604383827 z" /></g>
</svg>
