<?xml version="1.0" encoding="UTF-8"?>
<svg xmlns="http://www.w3.org/2000/svg" viewBox="938899.4208494191 -418672.496117822 322946.19175309606 311788.87153573916">
  <g id="map"><g><path fill-rule="evenodd" fill="currentColor"    d="M 972458.3511414133,-418672.496117822 L 975208.7218004426,-418231.2796658514 L 991863.2308180244,-418661.56329661823 L 996385.5851315012,-412762.3689772368 L 995874.62866876,-404085.84573571594 L 978741.8911187302,-378752.1992918595 L 975545.7972185648,-368074.86135315767 L 968925.2931426163,-359042.66056163725 L 963174.5282482357,-358313.14512857154 L 943421.7751628957,-363615.75813191995 L 940084.4168289134,-366833.4841858044 L 938899.4208494191,-371172.8456602008 L 940845.3968679763,-381262.33831233386 L 942280.3051043017,-384349.88243394153 L 951759.9389817843,-386250.34029711183 L 954814.6571286427,-387894.88126319816 L 959880.5845156629,-398781.11237322824 L 961543.8090276053,-408693.6801810652 L 965794.4324640555,-416177.6134762123 L 972458.3511414133,-418672.496117822 z" /><path fill-rule="evenodd" fill="currentColor"    d="M 1261106.339864157,-241334.99263444447 L 1261258.5136080715,-215543.192458054 L 1261378.0707411834,-193746.40881386946 L 1261508.537184393,-170157.43954262833 L 1261649.9129377005,-145575.89643476126 L 1261769.4700708126,-124769.49886219998 L 1261845.6126025151,-111292.52128861393 L 1239059.8486710214,-111368.67542009676 L 1208805.771421698,-111466.54018254967 L 1178562.4921629813,-111564.29363472182 L 1148308.4149136578,-111667.61394067323 L 1133110.632752597,-111721.9461822803 L 1116369.2945321966,-111770.93427592453 L 1110944.5844263497,-111069.62580777159 L 1107259.3526836385,-107666.5339654627 L 1102813.0295823736,-106883.62458208286 L 1097649.3636824368,-109792.04318008812 L 1091365.8237051193,-111183.74560492764 L 1089669.9825823747,-114184.7194768594 L 1086539.121903814,-119642.85188777206 L 1080310.0171574948,-120229.94334590274 L 1077179.156478934,-119642.85188777206 L 1072689.4187762595,-116522.36578298587 L 1067645.198689944,-114885.92267402375 L 1068601.8783938214,-117386.68427854015 L 1058633.106673793,-124106.24244342095 L 1051447.3222235963,-124758.58746486253 L 1044837.8387772365,-126829.97808650293 L 1050197.204341988,-144325.45570733983 L 1056893.739630148,-159793.9128330241 L 1066916.8352616837,-171478.71901580784 L 1072243.6955351236,-174295.35735935895 L 1073972.1532686704,-180091.8845535344 L 1081897.210457225,-199146.40611454603 L 1091713.6971138485,-214607.68843087097 L 1088669.888277088,-230282.43320962536 L 1091017.9502963906,-256598.61211209017 L 1093844.4634871224,-255858.85415816153 L 1094311.8940289635,-253372.78009900896 L 1095040.257457224,-249684.68228911376 L 1098736.398510033,-246442.61191829175 L 1110955.4937364473,-241372.9797620086 L 1147373.4425104854,-241367.6325998398 L 1169104.6769056942,-241356.71547760515 L 1201239.49695197,-241351.25691675278 L 1235265.8577858051,-241340.33979557827 L 1261106.339864157,-241334.99263444447 z" /></g></g>
</svg>
