<?xml version="1.0" encoding="UTF-8"?>
<svg xmlns="http://www.w3.org/2000/svg" viewBox="2187036.5947581967 -5122678.700892315 955717.0129210125 967698.852720221">
  <g id="map"><g><path fill-rule="evenodd" fill="currentColor"    d="M 3101378.3793411655,-4377108.107735806 L 3098943.2654800625,-4374902.445965649 L 3093355.5836396944,-4381236.457317451 L 3093094.6507532746,-4384540.422648593 L 3098780.1824260503,-4388332.873004103 L 3101639.312227585,-4389206.729532144 L 3102454.616178155,-4386619.356047309 L 3102367.675655845,-4381094.360747468 L 3101378.3793411655,-4377108.107735806 z" /><path fill-rule="evenodd" fill="currentColor"    d="M 2294551.2966756467,-4633722.755412173 L 2295931.8810004652,-4617336.41950323 L 2303780.795657317,-4614262.959589791 L 2314206.0886090887,-4599517.8558525145 L 2313303.844136209,-4591980.426603326 L 2311140.4611521326,-4589397.951060879 L 2293866.347848796,-4596353.056287305 L 2289724.4835548503,-4593230.530605048 L 2284669.4654779276,-4594501.582228451 L 2281549.514109465,-4602642.141401266 L 2281908.1855088,-4605504.658419602 L 2279081.7836375595,-4610381.049836541 L 2276722.7009886685,-4612560.617711428 L 2269917.517877494,-4606078.673438853 L 2265634.2778302412,-4604868.506371416 L 2265601.661219439,-4610796.210577749 L 2271885.0898772655,-4627109.681677883 L 2274820.362210502,-4629867.995317594 L 2279984.028110439,-4624476.681421787 L 2284234.651546889,-4626479.005725485 L 2287430.745447055,-4635310.71413673 L 2287648.1524125743,-4644122.303822469 L 2289083.1719683902,-4646739.444429603 L 2294551.2966756467,-4633722.755412173 z" /><path fill-rule="evenodd" fill="currentColor"    d="M 2325294.623087007,-4551967.630356503 L 2337035.2671419918,-4538258.859216231 L 2327588.3611948024,-4541653.430575278 L 2317510.9416517597,-4532173.323135253 L 2304737.4753611945,-4543248.012416872 L 2297084.260369157,-4554472.170190944 L 2295355.691316119,-4558966.46648206 L 2303367.689026983,-4569477.09524818 L 2310846.911654911,-4558677.444682316 L 2319880.8222912573,-4556949.684897531 L 2325294.623087007,-4551967.630356503 z" /><path fill-rule="evenodd" fill="currentColor"    d="M 2302835.0252635377,-4665773.9115882395 L 2298508.370614875,-4664675.058229537 L 2294779.501631773,-4665426.180242765 L 2291398.6173768905,-4664779.325993377 L 2288137.4015746107,-4662053.187487315 L 2288496.0729739466,-4673351.723442919 L 2292344.38777067,-4687373.975835374 L 2297040.734448257,-4695574.769770319 L 2303661.238524205,-4699384.49804311 L 2306498.549705544,-4692945.089004699 L 2305965.885942098,-4669997.063754774 L 2302835.0252635377,-4665773.9115882395 z" /><path fill-rule="evenodd" fill="currentColor"    d="M 2310846.911654911,-4626070.165584574 L 2305346.1703368523,-4624532.1583344415 L 2298345.2875608634,-4638119.9616076 L 2295812.323867353,-4647503.187374548 L 2298714.8682702966,-4648023.94736529 L 2301508.764850226,-4646933.823057784 L 2304454.83517407,-4643393.496183542 L 2304433.0165538746,-4639771.122511926 L 2305607.1032232717,-4635893.3538900735 L 2308672.7306802273,-4631226.630032598 L 2310846.911654911,-4626070.165584574 z" /><path fill-rule="evenodd" fill="currentColor"    d="M 2235064.9437829913,-4783845.188432768 L 2237478.2390238987,-4775762.341936691 L 2223606.8285956397,-4780777.338117711 L 2213474.9738215995,-4787998.056800537 L 2205115.2140214965,-4805861.377171158 L 2187308.4369547134,-4826229.764720223 L 2187036.5947581967,-4832153.933033386 L 2193809.272578059,-4836645.372494078 L 2208419.9557446763,-4839836.500713725 L 2214333.803693069,-4836525.114725988 L 2218160.411189088,-4833115.613953397 L 2219356.205159189,-4829205.597686598 L 2211050.7692705938,-4821375.692300005 L 2209322.3115370465,-4817830.216256324 L 2215714.499337378,-4810799.540774628 L 2215605.740194873,-4807984.493190501 L 2218301.7869423954,-4794399.821147111 L 2221410.8290007603,-4789279.524936495 L 2229477.150623132,-4785196.46963834 L 2235064.9437829913,-4783845.188432768 z" /><path fill-rule="evenodd" fill="currentColor"    d="M 2606593.7443055417,-4715749.267342838 L 2612888.0822734656,-4700222.086524225 L 2618791.0209117606,-4694988.861262851 L 2631173.087872697,-4688810.087292182 L 2636989.1973081725,-4688022.26393123 L 2658111.625408233,-4676874.625447801 L 2682690.968975388,-4674653.54554398 L 2685865.355574849,-4671444.5565420585 L 2688887.5684303953,-4662866.779926742 L 2693899.060586418,-4656137.683247242 L 2695160.087778124,-4650906.097169809 L 2692540.1835623044,-4645101.094219068 L 2696171.0913935085,-4627372.947822347 L 2702367.579529025,-4610554.055062335 L 2711705.8376532006,-4602407.114676692 L 2723316.126584467,-4599946.30976561 L 2734371.933132092,-4600285.037317894 L 2737165.829712021,-4596954.156339121 L 2736067.8855743273,-4582274.984147522 L 2731393.246197445,-4576563.584661704 L 2727588.4573216224,-4575177.671160688 L 2724283.6042789514,-4576674.025113171 L 2721294.1193536976,-4580129.343737016 L 2718032.792231927,-4581764.460585985 L 2711684.130352496,-4582047.34376798 L 2707042.1075864164,-4587955.0380209545 L 2695268.8469206295,-4596042.048849194 L 2693105.463936553,-4600872.493392993 L 2692714.1759264143,-4608326.46280307 L 2687713.481760999,-4613820.020327492 L 2683114.9849158195,-4624282.727405978 L 2678744.804346257,-4627171.985024528 L 2676331.50910535,-4632412.210422652 L 2676135.8094405355,-4634665.758263764 L 2659002.9605710153,-4636191.504375799 L 2644816.293344829,-4636260.965165387 L 2632792.897783229,-4642206.647047493 L 2629075.049429716,-4657777.799667098 L 2621943.588891026,-4661969.738465693 L 2616595.0213168818,-4666379.086358142 L 2612137.90022501,-4672495.528367576 L 2600875.5960219637,-4683784.796591309 L 2588417.2752098343,-4693238.051637458 L 2576372.17234753,-4699468.253786659 L 2563587.908066358,-4703551.825758477 L 2553195.1204058984,-4698728.482889261 L 2547140.0080236886,-4699873.035294406 L 2545911.597442785,-4703139.8917183345 L 2558826.3281671666,-4709634.693897076 L 2576578.781322442,-4722056.326336541 L 2589091.3147265883,-4726162.899850532 L 2595157.336418895,-4726673.651509803 L 2606593.7443055417,-4715749.267342838 z" /><path fill-rule="evenodd" fill="currentColor"    d="M 2647153.557373525,-4738072.237691016 L 2642185.4798189118,-4733218.539950357 L 2634499.648216072,-4735340.437259131 L 2626465.9432045035,-4751595.070487007 L 2647153.557373525,-4738072.237691016 z" /><path fill-rule="evenodd" fill="currentColor"    d="M 2659198.6602358297,-4744372.265410483 L 2653991.4684149926,-4742689.988764317 L 2659209.5695459275,-4754148.768038008 L 2668428.1592174997,-4760093.75969936 L 2664960.3344403077,-4750437.620570976 L 2659198.6602358297,-4744372.265410483 z" /><path fill-rule="evenodd" fill="currentColor"    d="M 2746775.818713223,-4694381.986483024 L 2735013.356038043,-4690894.729416485 L 2731893.4046695796,-4691445.697989387 L 2734513.3088853993,-4695839.946963618 L 2734719.8065408207,-4697688.806984736 L 2722989.9604764422,-4705730.3065148955 L 2724370.6561207515,-4716182.615196441 L 2725729.533144865,-4718846.242885013 L 2734458.984973892,-4713400.749512034 L 2736372.233062156,-4704333.702757795 L 2746775.818713223,-4694381.986483024 z" /><path fill-rule="evenodd" fill="currentColor"    d="M 2757853.443881043,-4955746.31370261 L 2743568.8155029593,-4950506.114518964 L 2729055.9821687494,-4960415.930827117 L 2729186.4486119593,-4966313.670022273 L 2736850.572914094,-4978291.946218824 L 2741057.6704296446,-4981845.2265905505 L 2751722.1889671315,-4980868.790971598 L 2757788.2106594383,-4972638.030225518 L 2759201.411595059,-4968758.283256105 L 2757233.728275797,-4962157.027632308 L 2757853.443881043,-4955746.31370261 z" /><path fill-rule="evenodd" fill="currentColor"    d="M 2621682.7673240975,-4568960.286497087 L 2617279.9701437326,-4565474.12276934 L 2612311.8925891197,-4565646.378670677 L 2608800.5418910277,-4566927.736263098 L 2607028.5582365803,-4569718.290883564 L 2609224.557831459,-4571048.4253477305 L 2611800.936126379,-4576653.264478128 L 2614192.5240665814,-4578170.453884299 L 2617736.4913754757,-4577453.214527458 L 2619888.965049455,-4575219.045352841 L 2621682.7673240975,-4568960.286497087 z" /><path fill-rule="evenodd" fill="currentColor"    d="M 2566338.2787253875,-4326768.395942973 L 2565044.6349228784,-4320782.737690938 L 2553608.2270362317,-4324896.280411435 L 2550423.042446164,-4331072.844234039 L 2549846.852761818,-4344785.7924914835 L 2552847.2469971688,-4351480.154493545 L 2554836.6376171354,-4353579.789871748 L 2560109.1739790686,-4345865.304672046 L 2571154.071216595,-4334603.935990815 L 2566338.2787253875,-4326768.395942973 z" /><path fill-rule="evenodd" fill="currentColor"    d="M 3025226.719440321,-4227292.398739344 L 3020976.2073233617,-4219613.657791164 L 3016660.3506653067,-4226084.507772415 L 3018519.2748420634,-4233560.85788519 L 3013496.8733759434,-4245413.170792045 L 3022998.2145541306,-4263021.620884014 L 3023215.62151965,-4271581.791504981 L 3030466.639191451,-4275944.846596342 L 3028672.8369168085,-4261401.34603148 L 3023128.68099734,-4249759.077071755 L 3028879.445891721,-4240100.137359156 L 3031629.8165507503,-4229107.764896634 L 3025226.719440321,-4227292.398739344 z" /><path fill-rule="evenodd" fill="currentColor"    d="M 3007822.2510132655,-4433398.053069066 L 2996712.0092346426,-4431473.21339012 L 2998690.4905445115,-4442537.519816415 L 2993233.275147353,-4451276.137144758 L 3001908.4030648726,-4446371.345555126 L 3007409.1443829318,-4440454.467460159 L 3010094.2818203564,-4439324.512143272 L 3009474.5662151095,-4435758.819624369 L 3007822.2510132655,-4433398.053069066 z" /><path fill-rule="evenodd" fill="currentColor"    d="M 3000016.7509578224,-4401136.004472872 L 2996538.0168705327,-4400973.226424919 L 3000679.881164478,-4407682.380167308 L 3012431.545849052,-4416881.249365425 L 3029553.3740889835,-4424986.937380787 L 3035195.4911603495,-4425890.951953076 L 3044827.1874622563,-4420848.301307144 L 3027129.1695379782,-4412535.398268308 L 3022432.9341798825,-4408150.598916148 L 3009365.9183920957,-4407200.563002942 L 3000016.7509578224,-4401136.004472872 z" /><path fill-rule="evenodd" fill="currentColor"    d="M 2843756.357216906,-4434588.541581234 L 2833831.111417778,-4429310.727468005 L 2827058.4335979144,-4436929.087476601 L 2823275.352022796,-4448925.582668662 L 2841462.6191091104,-4466516.068845756 L 2845810.981058477,-4464939.819236571 L 2848430.9965937873,-4460390.138241336 L 2848028.6879540607,-4444587.093259363 L 2843756.357216906,-4434588.541581234 z" /><path fill-rule="evenodd" fill="currentColor"    d="M 2814034.9437310277,-4448646.274510567 L 2805185.934768889,-4437895.44315564 L 2797826.2692740737,-4439059.116968271 L 2794728.025206315,-4443981.020780846 L 2799293.794121201,-4454090.62468624 L 2809153.9180182153,-4459830.923179387 L 2813632.746410792,-4458337.64003952 L 2813208.7304703607,-4450846.89802463 L 2814034.9437310277,-4448646.274510567 z" /><path fill-rule="evenodd" fill="currentColor"    d="M 2836690.241219312,-4354781.602900974 L 2831515.6660092776,-4347518.4268076075 L 2824232.0317266737,-4350123.476563096 L 2827199.809351222,-4352891.06539408 L 2828950.0857049646,-4356476.621340426 L 2829145.6740502887,-4361651.013320741 L 2827167.19274042,-4364840.700078938 L 2828515.1604544353,-4366003.21238732 L 2835016.107397272,-4360651.135686208 L 2836690.241219312,-4354781.602900974 z" /><path fill-rule="evenodd" fill="currentColor"    d="M 2825482.1496082814,-4393766.675831104 L 2823547.0828998224,-4391591.574149421 L 2815122.089878115,-4400362.8308686735 L 2811925.99597795,-4405490.6840002015 L 2815926.4845185876,-4409759.015511366 L 2828286.9554983093,-4399779.689217917 L 2825482.1496082814,-4393766.675831104 z" /><path fill-rule="evenodd" fill="currentColor"    d="M 2986080.107307959,-4552820.774564036 L 2999766.727381501,-4548177.725834483 L 3003571.627576815,-4548672.797432238 L 3010039.846589358,-4546988.100949344 L 3011757.5063322987,-4538437.419257003 L 3003191.1375572835,-4537200.788377844 L 2988363.047425147,-4529358.510803996 L 2982057.8001471255,-4531081.559987653 L 2974513.3442975925,-4537901.607603662 L 2962533.4746568934,-4538609.2281400375 L 2958989.507347998,-4540471.3058483945 L 2965403.4024490346,-4548514.625483463 L 2977057.1059817104,-4552586.875054393 L 2986080.107307959,-4552820.774564036 z" /><path fill-rule="evenodd" fill="currentColor"    d="M 2897568.0877468833,-4513156.76908191 L 2892349.9866159484,-4512622.111782957 L 2893947.9779062863,-4518236.74393358 L 2903916.7496263147,-4527978.729861701 L 2917853.3932761783,-4528452.319300166 L 2930550.828354532,-4533340.724820186 L 2933420.756146673,-4533519.200697969 L 2927354.734454366,-4525823.740321978 L 2917114.231857311,-4518648.23705128 L 2897568.0877468833,-4513156.76908191 z" /><path fill-rule="evenodd" fill="currentColor"    d="M 2878652.4572323086,-4409935.550271627 L 2868825.0612655883,-4408795.354108184 L 2865715.9078877317,-4409840.4713442335 L 2871684.079747631,-4412243.4206967885 L 2875869.469962477,-4414796.410024705 L 2877880.5678831483,-4417879.724725557 L 2887849.339603177,-4423308.157826228 L 2894382.9031568156,-4430385.021361636 L 2901481.6357652117,-4425557.819060384 L 2892600.0101922704,-4422349.948465575 L 2878652.4572323086,-4409935.550271627 z" /><path fill-rule="evenodd" fill="currentColor"    d="M 2945585.5274615805,-4381473.381550189 L 2936790.842410948,-4378163.710443072 L 2931203.0492510893,-4371216.133088464 L 2924365.2495291126,-4376140.59796014 L 2924343.430908917,-4382861.205789958 L 2931822.7648563357,-4380803.241959797 L 2937073.482598073,-4384587.710771049 L 2935497.19860844,-4388847.689182466 L 2941204.4375819205,-4386856.399540486 L 2945585.5274615805,-4381473.381550189 z" /><path fill-rule="evenodd" fill="currentColor"    d="M 2711292.731022867,-4519820.870561865 L 2703835.2156956443,-4512998.99391267 L 2702552.369883742,-4523230.105762525 L 2707335.6570836385,-4533999.933414942 L 2713869.2206372772,-4534700.537630389 L 2716282.5158781847,-4529962.494700267 L 2711292.731022867,-4519820.870561865 z" /><path fill-rule="evenodd" fill="currentColor"    d="M 2720174.3565958086,-4487225.807088819 L 2713847.4020170816,-4482980.718085023 L 2715945.5517795533,-4492689.980971198 L 2712825.6004110905,-4497760.185524898 L 2715619.385671529,-4502072.809391028 L 2719674.3094431646,-4505551.453722039 L 2721598.4668415263,-4501956.425744533 L 2725261.9912835336,-4496131.461182933 L 2720174.3565958086,-4487225.807088819 z" /><path fill-rule="evenodd" fill="currentColor"    d="M 2731306.3056751355,-4406230.324114547 L 2731502.0053399503,-4398070.999688211 L 2730741.0253008874,-4395149.295436917 L 2707955.372688885,-4391212.055755127 L 2710064.320441963,-4400566.292173021 L 2711455.814076879,-4403523.3771901345 L 2719000.2699264116,-4399169.361949481 L 2721783.2571962434,-4401393.648867293 L 2722913.9292642307,-4403964.322444071 L 2731306.3056751355,-4406230.324114547 z" /><path fill-rule="evenodd" fill="currentColor"    d="M 2776627.69864231,-4508120.226129803 L 2776073.32757816,-4493565.622198124 L 2773138.0552449226,-4493688.778235443 L 2771431.3048120807,-4495933.02103279 L 2771333.5662991637,-4501504.50486327 L 2772583.6841807724,-4510278.448008117 L 2776627.69864231,-4508120.226129803 z" /><path fill-rule="evenodd" fill="currentColor"    d="M 2782063.2067387644,-4545523.4730758825 L 2778780.172316289,-4536060.527682782 L 2770083.3370980644,-4547056.824247367 L 2760560.2886191728,-4554595.905073318 L 2756994.614009573,-4561176.550580103 L 2751189.413884195,-4565150.357125903 L 2749613.129894562,-4574012.483560876 L 2756646.7406008444,-4577660.132563128 L 2759658.0441462933,-4578032.595439503 L 2766854.6265870966,-4567237.729482201 L 2778127.951419731,-4565983.844870966 L 2777247.4142475566,-4559338.259025957 L 2780813.0888571558,-4550777.572286707 L 2782063.2067387644,-4545523.4730758825 z" /><path fill-rule="evenodd" fill="currentColor"    d="M 2811469.3634267156,-4523017.382373311 L 2807338.408442868,-4513958.595654051 L 2800391.849578386,-4515357.02595349 L 2788770.651337022,-4525103.213901049 L 2784802.779407187,-4529530.029680974 L 2782595.87050221,-4533883.194060353 L 2787368.2483920087,-4534412.04784467 L 2793206.0651281895,-4529818.384568521 L 2808077.681181226,-4527381.6076221 L 2811469.3634267156,-4523017.382373311 z" /><path fill-rule="evenodd" fill="currentColor"    d="M 2751917.777312455,-4428161.629091763 L 2749884.972091079,-4427556.49470078 L 2746971.5183780375,-4433432.045270663 L 2746362.712082889,-4438909.416949315 L 2747525.8894421877,-4442122.29872916 L 2751385.1135490094,-4442428.623792819 L 2756625.0333001395,-4432030.932421322 L 2751917.777312455,-4428161.629091763 z" /><path fill-rule="evenodd" fill="currentColor"    d="M 2904775.5794977844,-4610277.19141908 L 2894143.6775711006,-4602268.791208411 L 2882272.567072906,-4613854.746077768 L 2880315.6817442514,-4617585.682148328 L 2889034.3355826708,-4622266.92882685 L 2893350.0809212355,-4629486.843231051 L 2889849.639533241,-4638362.766908358 L 2877750.212759429,-4651496.451924664 L 2877174.0230750833,-4660836.408675653 L 2895698.2542600287,-4664779.325993377 L 2906601.887063739,-4656651.908251607 L 2912157.063612796,-4656095.982767025 L 2910026.2972395215,-4648336.529832047 L 2910961.1583232037,-4645816.08963809 L 2911787.3715838715,-4622308.492084259 L 2906634.5036745416,-4619005.091278353 L 2905786.583113169,-4612560.617711428 L 2904775.5794977844,-4610277.19141908 z" /><path fill-rule="evenodd" fill="currentColor"    d="M 2939965.117690919,-4768971.920918277 L 2938030.050982459,-4760437.704211967 L 2953423.5328083346,-4746307.107952413 L 2958674.250550072,-4737371.679931548 L 2960609.2059390405,-4728668.179942268 L 2959315.562136532,-4726176.80043856 L 2953477.8567198417,-4730894.070901128 L 2948705.4788300437,-4732392.418323319 L 2950314.379430479,-4726176.80043856 L 2955217.223763487,-4720832.355847197 L 2946487.77193446,-4717776.584085276 L 2937736.612804728,-4717937.383683897 L 2912211.387524303,-4725379.195493349 L 2906319.246876615,-4733288.665166184 L 2921593.060249888,-4745206.401845416 L 2924713.1229378413,-4750009.84160587 L 2913896.4306564406,-4749539.85150569 L 2902362.172937386,-4735375.435444123 L 2883870.5583632435,-4741596.709376208 L 2878217.6433012704,-4747295.778136613 L 2876956.616109564,-4750367.519887804 L 2884240.139072677,-4762944.597618628 L 2897252.830948957,-4762523.1911236895 L 2904145.065901932,-4765353.712899702 L 2912657.110765439,-4769337.324891795 L 2912722.343987044,-4775319.373655567 L 2933018.5588264368,-4776683.622939987 L 2939965.117690919,-4768971.920918277 z" /><path fill-rule="evenodd" fill="currentColor"    d="M 2859323.7200874,-4928124.110673959 L 2846735.044151552,-4924304.759178307 L 2832863.633723293,-4936353.263956539 L 2846278.522919809,-4941192.589952508 L 2852485.8090459327,-4937696.9160683025 L 2856932.1321471976,-4933580.915625395 L 2859323.7200874,-4928124.110673959 z" /><path fill-rule="evenodd" fill="currentColor"    d="M 2831711.2543546013,-4863515.922978181 L 2827504.1568390513,-4858615.326347289 L 2824405.9127712925,-4850160.147686657 L 2822731.7789492523,-4838095.679563177 L 2816241.7413165136,-4837805.717185017 L 2812306.4859974813,-4840246.968406483 L 2811012.842194972,-4844805.862548418 L 2810751.909308553,-4850571.041395665 L 2807903.6888171164,-4850344.264272691 L 2805609.950709321,-4844083.601276082 L 2803598.7414691583,-4841259.150832278 L 2797065.2892350107,-4840664.555477406 L 2789912.121395617,-4844515.559708768 L 2790249.0854942477,-4852852.448701515 L 2788814.1772579225,-4862508.590428993 L 2789444.6908537755,-4865892.581119678 L 2809056.068185808,-4866729.930394139 L 2814795.9237700906,-4859593.799972497 L 2821731.6846439657,-4863728.763025501 L 2824579.9051354025,-4868198.877433289 L 2832983.190856405,-4871002.645547506 L 2831711.2543546013,-4863515.922978181 z" /><path fill-rule="evenodd" fill="currentColor"    d="M 2827819.4136369773,-4497691.785511787 L 2817176.7137196865,-4496829.394894018 L 2817796.318005442,-4507531.110619227 L 2821742.5939540635,-4510319.56532116 L 2834526.8582352353,-4504976.228124691 L 2833907.25394948,-4501607.142336935 L 2827819.4136369773,-4497691.785511787 z" /><path fill-rule="evenodd" fill="currentColor"    d="M 2729947.4286510223,-4456558.209296332 L 2725827.271657781,-4454458.715568828 L 2718956.855325002,-4457519.377448549 L 2720783.1628909567,-4465185.463926774 L 2725522.924169953,-4468447.295618281 L 2730567.1442562686,-4465949.681842555 L 2731328.124295331,-4462504.501380969 L 2729947.4286510223,-4456558.209296332 z" /><path fill-rule="evenodd" fill="currentColor"    d="M 3099443.312632706,-4290897.104324581 L 3091409.607621137,-4288011.05586061 L 3088637.5296614026,-4288386.820088607 L 3085278.3527072254,-4294750.808015619 L 3089931.1734639117,-4310145.852846858 L 3085626.226115954,-4320055.715899558 L 3085365.4045490255,-4324256.547501939 L 3091833.6235615686,-4330075.802222593 L 3096377.68517575,-4338796.9005186 L 3107422.6937327683,-4348240.391436847 L 3136035.253770854,-4359428.328585924 L 3142753.607679209,-4360455.211536742 L 3142557.908014395,-4351689.463634186 L 3132980.5356239956,-4329536.753508495 L 3124479.4000705853,-4318480.807484363 L 3126718.814266874,-4309614.682193011 L 3113108.2254055436,-4307160.645527321 L 3099443.312632706,-4290897.104324581 z" /><path fill-rule="evenodd" fill="currentColor"    d="M 2655219.878995897,-4236886.712801262 L 2662829.5680670333,-4235891.558850746 L 2673146.213195791,-4236065.140032541 L 2675494.386534584,-4236880.009744274 L 2682060.455379535,-4244878.438639975 L 2690148.595622102,-4245065.57823506 L 2693681.6536208987,-4237160.584059313 L 2685473.95624522,-4233520.788543195 L 2683799.82242318,-4231464.3198911315 L 2685376.2177323033,-4229802.087429341 L 2691540.0892570172,-4226504.890160826 L 2700095.5487219347,-4227746.314682658 L 2700356.4816083545,-4221534.582364342 L 2702269.7296966184,-4216459.604680899 L 2706498.645832364,-4213433.131059163 L 2711075.3240573476,-4212840.029821517 L 2721196.2695212904,-4213733.174637491 L 2731175.8392319256,-4215746.326162671 L 2741459.867749881,-4219727.0216883365 L 2751961.3032333553,-4221761.350902553 L 2783335.143240568,-4219720.329088486 L 2794597.5587631054,-4211127.245258137 L 2816024.3343509943,-4210094.298246336 L 2835940.170490347,-4205570.887008512 L 2846398.0800529206,-4208555.224299123 L 2864270.0903413086,-4211353.799622458 L 2867129.108823352,-4208322.041742415 L 2864824.461405459,-4188918.702712123 L 2865922.516862644,-4183293.856609395 L 2871075.384771974,-4180588.7982375915 L 2876173.817450306,-4181911.231081156 L 2882435.5388074275,-4188260.316817593 L 2897426.7119935765,-4193175.8663224927 L 2912994.0748640704,-4193149.296541867 L 2926093.70726266,-4206057.193667822 L 2929952.931369481,-4206789.899794813 L 2927550.4341191803,-4200443.531333113 L 2925571.8414898207,-4185540.8379551396 L 2922756.237609187,-4176821.3555850256 L 2921506.119727578,-4169954.3645778834 L 2912744.0512877484,-4166409.640844839 L 2899503.1544553423,-4165805.598039671 L 2875347.7155091288,-4167305.571263948 L 2850996.5768981003,-4164876.490957434 L 2805892.590896445,-4158348.4271899206 L 2760701.6643724795,-4154979.848172094 L 2754624.733370075,-4157174.659679455 L 2754483.3576167678,-4165832.102379696 L 2753504.9706121855,-4171806.8422891404 L 2750580.718908537,-4175990.910445856 L 2736611.3473283798,-4179565.3685497963 L 2723283.5099736643,-4185693.748365312 L 2671037.2654427127,-4194080.7757765814 L 2658709.522393284,-4197374.8300874 L 2638706.7457316224,-4195657.765290791 L 2631379.696847609,-4195884.002421279 L 2626335.476761293,-4198892.4424005505 L 2622867.651984101,-4204065.722958355 L 2621302.277304566,-4220500.65901946 L 2623780.8057670784,-4236793.280763873 L 2628107.4604157405,-4241102.37879063 L 2630096.962355198,-4236192.078993937 L 2635228.011644332,-4233941.45554692 L 2639989.591543524,-4238897.404334704 L 2639946.065622624,-4246369.072956284 L 2642381.179483726,-4253324.122901863 L 2646153.463068238,-4250407.865695324 L 2648664.6081415527,-4239725.894008034 L 2655219.878995897,-4236886.712801262 z" /><path fill-rule="evenodd" fill="currentColor"    d="M 2930028.9625816927,-5118614.570084878 L 2940008.643611819,-5115600.326806419 L 2945792.0251170015,-5110687.866189768 L 2949412.1349575995,-5106199.707689002 L 2954923.674266265,-5102324.331543109 L 2959022.123958801,-5101437.496076579 L 2962185.601248164,-5088180.898235084 L 2963870.533060811,-5071782.709204238 L 2961359.3879874963,-5064719.885933828 L 2954021.4297933853,-5063083.540383893 L 2931116.1087287795,-5047624.232497559 L 2930561.7376646292,-5033495.796412199 L 2930866.0851524584,-5026662.788941546 L 2931333.515694299,-5021831.5638729585 L 2933725.2149539925,-5017766.44905079 L 2933725.2149539925,-5011909.499121798 L 2931159.63464968,-5005631.559738502 L 2921158.2463188493,-4995129.366984738 L 2914222.4854449746,-4986786.097287722 L 2906460.6226299223,-4975486.106412904 L 2902068.7347596553,-4974108.6123047685 L 2898644.3245838727,-4972121.689499934 L 2895502.5545952143,-4978349.417629127 L 2878239.3506019753,-4989372.39643004 L 2838288.2325096494,-4995805.218189086 L 2819198.7209504554,-5003954.756614348 L 2810828.0518402555,-5002436.494578301 L 2794619.2660638103,-5011563.92865975 L 2783509.1356046787,-5007553.377875105 L 2759940.684333417,-4991348.556925125 L 2747221.541954359,-4993109.307773196 L 2733621.862403127,-5002846.724700653 L 2724772.8534409874,-5004638.442367671 L 2714390.9750906257,-4999479.930362731 L 2697758.2846932393,-4980847.325482176 L 2680832.044798631,-4971727.144243768 L 2665666.9905678635,-4975292.4373768745 L 2645262.0165859656,-4975213.530835304 L 2643087.8356112824,-4964815.636891574 L 2647034.000240413,-4957622.547237591 L 2658187.6566204447,-4945369.060791419 L 2652958.757498903,-4936167.538269098 L 2656839.688906429,-4926953.277906384 L 2664101.5045688376,-4925082.895926093 L 2675070.370594153,-4925603.929639048 L 2695355.787442939,-4913689.767936554 L 2704226.5037057824,-4901142.025432641 L 2709890.328077853,-4887429.639930153 L 2697540.87772772,-4897261.972828869 L 2689344.089662139,-4906719.164200986 L 2677907.793094983,-4910153.92883633 L 2662003.466125857,-4918218.3236842165 L 2652012.9871051237,-4919566.659818445 L 2641381.08517844,-4913974.9503288325 L 2640554.871917772,-4907631.19028514 L 2652012.9871051237,-4895795.703690787 L 2662492.6039684024,-4888524.859091141 L 2668047.669197968,-4882602.508298416 L 2671754.7195608756,-4869519.03699744 L 2669645.771807797,-4865076.6622539945 L 2665775.6383908777,-4860941.1378721455 L 2653339.247518435,-4869178.441687117 L 2634325.7671714528,-4898521.8641175805 L 2607800.4475857406,-4904375.425032557 L 2603365.033794574,-4898251.415679595 L 2608572.2256154106,-4882730.4579129405 L 2612344.509199922,-4876690.826845869 L 2635391.0946983444,-4859969.647761251 L 2633543.0798316854,-4856424.638422248 L 2630183.9028775073,-4854914.756239895 L 2604386.835400565,-4864466.546997249 L 2596885.905471933,-4879020.881280003 L 2595081.3052066825,-4897446.9664713545 L 2571273.739669198,-4910260.924146266 L 2548824.939836336,-4924226.261856031 L 2543802.538370216,-4937496.820278056 L 2548422.7425160995,-4942422.528021139 L 2551694.9789479678,-4952180.949534477 L 2539356.3265884416,-4950384.463397722 L 2531616.1710740943,-4944210.379209368 L 2519103.5263504577,-4938218.7651598165 L 2518592.569887717,-4928424.042927163 L 2520571.162517077,-4919359.7734151445 L 2516429.298223131,-4906191.978618889 L 2512406.991062298,-4883299.045829004 L 2514950.8640659056,-4871307.972251059 L 2542063.1713265707,-4837006.154506742 L 2551336.196229141,-4812161.544071404 L 2557989.3169158916,-4802758.48260657 L 2571860.727344151,-4792399.3086623335 L 2586330.0347574605,-4773146.865128172 L 2592461.4009908633,-4763127.11668811 L 2596831.4702409348,-4746755.838775728 L 2584655.9009354203,-4736636.311491471 L 2577568.077637122,-4736216.002008412 L 2573643.620308696,-4740706.757922662 L 2579133.452316657,-4751861.574285179 L 2578350.76497689,-4758661.59858323 L 2559554.691595427,-4769203.912765812 L 2551597.1291155606,-4765648.778515103 L 2542421.9540453977,-4758780.925589371 L 2547661.7624770366,-4746047.786527135 L 2553553.9031247245,-4737658.898437863 L 2556510.771439176,-4726099.845876339 L 2567773.186961713,-4727107.466709888 L 2552608.132730945,-4714183.52838866 L 2538377.9395838594,-4707587.975475035 L 2524375.9513928997,-4707203.913034371 L 2515461.709209156,-4706009.621701257 L 2512385.283761593,-4702706.957171371 L 2519636.190113904,-4700305.849167171 L 2525560.947372394,-4700089.439927891 L 2535192.6436743005,-4693119.494314999 L 2562609.521061776,-4684767.391800153 L 2575676.425530072,-4674221.962642959 L 2588504.327051635,-4673261.196593222 L 2601419.0577760166,-4653934.906426564 L 2623759.0984663735,-4648794.754846549 L 2636489.038836038,-4629334.244402455 L 2653415.2787306462,-4625508.941530511 L 2667993.3452864615,-4618347.260861455 L 2672265.6760236165,-4611515.767668263 L 2674396.4423968904,-4599193.024049205 L 2675342.21279067,-4573116.231060052 L 2678494.780769936,-4553735.851248382 L 2678603.5399124403,-4547620.710402832 L 2677831.65056328,-4538485.542344241 L 2673863.7786334446,-4533999.933414942 L 2668504.301749203,-4533862.659320997 L 2658013.775575826,-4548081.39031382 L 2641924.658251983,-4563063.404313913 L 2624965.801746573,-4580915.857398949 L 2620149.897935874,-4584055.3017029865 L 2616203.733306743,-4584351.956839462 L 2607126.4080689875,-4578308.455414468 L 2581905.530276391,-4573640.165105577 L 2570077.834379606,-4567120.616709161 L 2565631.6225978318,-4565680.801978019 L 2564392.30270683,-4562257.652290261 L 2569936.569945789,-4558698.028408101 L 2576730.955066357,-4550550.480657338 L 2576730.955066357,-4539420.046675025 L 2582340.4555269205,-4525912.9839354465 L 2589591.3618792314,-4522427.42780305 L 2599038.379145912,-4522729.35562076 L 2604452.0686221705,-4520232.426004839 L 2605854.4715671833,-4514863.531827863 L 2611344.3035751446,-4508599.792573216 L 2614964.413415742,-4503962.611834161 L 2614812.2396718278,-4500641.941078352 L 2588460.8011307344,-4491828.141073253 L 2582949.150502578,-4487800.060940307 L 2578328.9463566937,-4485742.21810527 L 2571480.2373246197,-4489933.6586591825 L 2571088.8379949904,-4500696.620357255 L 2562033.33137743,-4506476.144875694 L 2553727.7841693438,-4511429.653441712 L 2543769.921759413,-4513554.30567318 L 2535301.4028168055,-4520980.009435987 L 2529778.954198042,-4514945.80263212 L 2534192.549369014,-4494071.986291777 L 2543769.921759413,-4479721.241359929 L 2559793.9171811417,-4441318.952087654 L 2567066.6421536477,-4418708.427519041 L 2568534.1670007757,-4407784.110719137 L 2564914.168479669,-4389674.138229637 L 2572784.7904372257,-4376235.238786565 L 2578176.7726127794,-4362455.161819803 L 2572241.2173636826,-4362975.37876266 L 2567088.3494543526,-4367835.276255904 L 2558445.838147635,-4373569.818933035 L 2541682.681307039,-4395583.092627133 L 2535844.9758903496,-4409345.073824128 L 2528865.8004150647,-4410424.163704994 L 2516755.3530116645,-4408449.135593665 L 2503471.0415778495,-4379084.139021325 L 2503514.456179259,-4362292.971109522 L 2496643.9285269887,-4366287.145878539 L 2490751.8991987915,-4371520.426489322 L 2491469.3533169543,-4389904.451013106 L 2490882.365642001,-4397637.101376883 L 2474760.5203878656,-4422750.896728357 L 2467368.2382822474,-4425571.461572921 L 2463922.12080576,-4434078.335760879 L 2457986.5655566626,-4443143.5096883 L 2450333.3505646246,-4441407.481748767 L 2444082.42719811,-4437725.272317129 L 2442353.969464563,-4424035.39689413 L 2441712.5465586125,-4411775.021977738 L 2437048.9278113185,-4402553.472946087 L 2419872.664340389,-4420060.19885868 L 2402598.5510370517,-4450397.164537942 L 2402142.029805309,-4467075.638196422 L 2414795.827643271,-4482304.137251672 L 2413284.7768752435,-4493216.757985803 L 2401304.9072345435,-4514788.140890719 L 2384041.7032413045,-4528685.677885578 L 2374366.4810184976,-4532818.81642101 L 2369822.419404316,-4547620.710402832 L 2360560.1924923523,-4555277.177932011 L 2353070.0605543274,-4558842.538589545 L 2351591.626397102,-4564124.107912909 L 2353852.859213585,-4568030.0391559275 L 2372007.3983696066,-4583303.031433648 L 2382650.2096063886,-4607247.479773065 L 2387933.543958928,-4608388.6526096985 L 2398793.6508417376,-4602704.43853873 L 2411001.836758055,-4604190.903126899 L 2421025.043709081,-4618236.515791188 L 2429515.269952393,-4625883.134798283 L 2443832.403621789,-4624899.221558755 L 2476162.923332879,-4606120.171444743 L 2510906.738284877,-4595434.069079299 L 2528235.175499721,-4586056.722691264 L 2538040.8641657373,-4576770.484935754 L 2543248.167306065,-4574846.683567778 L 2551477.5719824485,-4573536.816278014 L 2551107.879953524,-4580481.268369994 L 2548455.3591269017,-4586622.73142542 L 2555314.9774690745,-4589970.930324586 L 2573937.058486427,-4589791.482022897 L 2577328.8520514076,-4593051.025725731 L 2580774.969527895,-4598329.1202488 L 2576926.654731171,-4604329.110751194 L 2570762.783206457,-4607212.917918291 L 2564174.895741311,-4608015.236079658 L 2559837.331782551,-4609917.449818559 L 2552836.449006562,-4607994.412414732 L 2541910.9975826563,-4612636.721737811 L 2536268.88051129,-4616464.189526261 L 2532953.2294780123,-4620403.8473624075 L 2513972.3657418326,-4628266.967645869 L 2495970.000329726,-4641561.257749093 L 2491915.0765580903,-4634034.760476842 L 2484642.351585584,-4629958.139497853 L 2474282.180535927,-4629389.747528202 L 2445169.5733451974,-4637856.277862323 L 2427286.7650662027,-4631393.028991798 L 2417535.4003116935,-4629701.62104845 L 2410077.8849844704,-4629556.116749256 L 2400902.709914307,-4626659.235454838 L 2390314.3339085234,-4624927.032062385 L 2381139.15883836,-4637197.240189314 L 2377279.9347315393,-4646718.684384304 L 2374562.180683312,-4648496.237838565 L 2374420.8049300048,-4639549.029389689 L 2371474.734606161,-4632384.521655812 L 2358038.1381089403,-4628357.097787147 L 2350308.891904691,-4633909.928910803 L 2344362.4273454957,-4650767.119804753 L 2336839.6787966676,-4672231.100343632 L 2323598.6706447713,-4689597.828804211 L 2312868.9188856804,-4694137.846738563 L 2311944.9671120956,-4703698.387366647 L 2312923.354116678,-4711346.403170121 L 2325816.3775403546,-4713240.021808331 L 2345971.327945931,-4705234.480191747 L 2350134.8995405813,-4706826.730649056 L 2354668.1631641556,-4710514.908243182 L 2353798.4239825876,-4718692.445638089 L 2350884.9702695464,-4725966.860599604 L 2345340.814350078,-4726295.744394536 L 2341503.2975439616,-4725435.223541759 L 2329110.321272928,-4726939.642371997 L 2313184.287003097,-4722895.644432539 L 2305802.802888086,-4726708.619737231 L 2303345.9817262786,-4731342.1180519415 L 2290028.94236217,-4742851.18463879 L 2278516.5032633115,-4758303.482279293 L 2259872.6036257627,-4768634.736347596 L 2247697.0343202488,-4800157.1826011315 L 2237456.531723194,-4813947.286559283 L 2226531.191618779,-4823805.978717528 L 2228901.0722582773,-4823989.608961452 L 2233042.936552222,-4822315.211375891 L 2240978.7917313837,-4816891.118895957 L 2249414.694063189,-4815719.178611483 L 2254023.9888989753,-4819313.2269701995 L 2256676.509725597,-4822611.958051681 L 2258405.0787786352,-4828024.973019796 L 2259100.825596093,-4834346.382226802 L 2260470.5006108135,-4836440.2107179845 L 2266917.1236421433,-4835725.654795461 L 2268960.838173616,-4837303.338578951 L 2268873.897651307,-4842979.2127297595 L 2264710.2147371667,-4850060.908954757 L 2261046.6902951594,-4858792.484208833 L 2261024.982994455,-4862955.441806165 L 2264068.9031507066,-4864643.8092933195 L 2269102.102607433,-4868440.161918668 L 2271809.058665053,-4873132.713403443 L 2277157.626239198,-4875476.185935391 L 2285060.8648075573,-4875902.384291706 L 2293877.2571588936,-4877962.359017732 L 2299573.6981417667,-4883014.747788369 L 2300410.709393041,-4888019.907212169 L 2303976.4953221316,-4901811.430741311 L 2306302.8500407296,-4908564.754555359 L 2310064.2243151437,-4914730.803902179 L 2312108.0501661077,-4923055.892804054 L 2316119.4480168438,-4930887.898982063 L 2324533.6430479437,-4934173.952411326 L 2332165.039419786,-4938047.203296878 L 2337926.713624264,-4948151.920346124 L 2341144.5148251345,-4956813.228044349 L 2341166.3334453297,-4962121.222422237 L 2336361.3389447294,-4970801.9495939985 L 2332784.7550250324,-4979253.718203896 L 2333730.525418812,-4990227.388420996 L 2348841.2557380726,-4991147.213939909 L 2354135.4994007098,-4992175.019245722 L 2373746.7654132512,-4992764.404007904 L 2382693.7355272886,-4998660.065607582 L 2388879.3143527075,-4998134.981874312 L 2401804.9543871866,-4993030.257048612 L 2407566.628591665,-4997063.54537247 L 2424481.9591761753,-5005034.1737862285 L 2441179.882795166,-5028199.319515692 L 2448289.5247136606,-5031677.023071088 L 2464487.4011800084,-5033091.512951542 L 2469564.237877126,-5035769.7060997235 L 2475488.8838161253,-5035257.102156265 L 2493643.5342916376,-5030558.584062311 L 2503971.088730493,-5029837.016990416 L 2516222.6892482187,-5033041.108042161 L 2529713.7209764374,-5038708.498282034 L 2533083.6959212217,-5058581.351239025 L 2536290.699131485,-5061432.943693004 L 2544683.0755423903,-5062229.369928344 L 2550999.23213051,-5062069.990471392 L 2563196.5087367287,-5060492.053396068 L 2577709.3420709386,-5059963.611803982 L 2587047.600195114,-5069290.221684426 L 2601766.9311847454,-5069985.655446316 L 2608593.9329161155,-5071333.340174217 L 2619997.72419196,-5069449.5720383 L 2631053.5307395845,-5069558.329424181 L 2645207.692674459,-5073449.475352552 L 2658405.0635859645,-5079829.633050634 L 2668721.7087147217,-5079285.724331078 L 2672928.8062302717,-5080438.930458031 L 2675331.3034805725,-5081780.798060833 L 2677907.793094983,-5090424.1546413 L 2697312.561452103,-5090954.268759272 L 2703889.5396071514,-5090097.476140327 L 2714717.1411986495,-5089872.361407826 L 2725979.5567211867,-5094585.4064608365 L 2729360.4409760693,-5094185.845767748 L 2735045.972648845,-5081526.908848749 L 2738013.7502733935,-5077864.458454205 L 2744145.0051873056,-5074486.043445116 L 2757799.0086500454,-5065009.667373942 L 2760255.941131344,-5067500.900885446 L 2765941.4728041193,-5070666.745422502 L 2782269.8157136766,-5066327.585656551 L 2797837.0672646803,-5059029.978791561 L 2810947.6089733676,-5048332.617079373 L 2825503.9682284775,-5051412.5093635125 L 2841658.318773925,-5056663.9144407185 L 2852170.552248006,-5058190.542034293 L 2863574.3435238507,-5058921.488157448 L 2870368.728644418,-5061201.381598472 L 2885773.0084609007,-5058458.341707193 L 2901699.042730731,-5064205.893785043 L 2909374.076342964,-5069406.099101535 L 2911580.87392845,-5076697.008972052 L 2910287.2301259413,-5089574.694663796 L 2906688.8275860483,-5102469.639234796 L 2902873.1294001276,-5107232.511817876 L 2901655.6281293216,-5112157.659129211 L 2903829.809104005,-5116765.055833252 L 2906264.922965108,-5119976.397379983 L 2916635.8920053723,-5122678.700892315 L 2930028.9625816927,-5118614.570084878 z" /></g></g>
</svg>
