<?xml version="1.0" encoding="UTF-8"?>
<svg xmlns="http://www.w3.org/2000/svg" viewBox="-4232081.171507904 7167142.191547439 1308846.594046779 904307.9029033361">
  <g id="map"><g><path fill-rule="evenodd" fill="currentColor"    d="M -2923707.462658015,8059291.190872331 L -2923234.5774611253,8071450.0944507755 L -2940541.307375265,8060288.205619278 L -2944514.6339601493,8055076.612923368 L -2938970.4780406808,8048251.028780025 L -2928088.5525376755,8048043.781648451 L -2925408.8697552998,8052192.151358503 L -2923707.462658015,8059291.190872331 z" /><path fill-rule="evenodd" fill="currentColor"    d="M -4130322.689139883,7182594.69312499 L -4119495.198867876,7191825.157303475 L -4110907.011472665,7185540.516911816 L -4102003.678599019,7186281.936889618 L -4097133.450876814,7189396.017791944 L -4092111.0494106933,7190582.676438311 L -4085849.3280535713,7190656.729866606 L -4075059.7977279243,7206192.776045813 L -4079571.242731304,7219991.070200815 L -4067727.294188862,7217274.093850179 L -4057443.265670907,7228780.895287098 L -4052779.5356041226,7227812.050546391 L -4050453.1808855254,7223155.708175891 L -4043843.5861196746,7217869.507311239 L -4039255.998584593,7225017.990195873 L -4033733.549965829,7238718.73930096 L -4026716.191905203,7242880.443259796 L -4020514.360434128,7257435.285669164 L -4015644.132711922,7275802.926346758 L -4011186.9003005596,7278408.916644331 L -4003566.3019193243,7278483.803211539 L -3995847.8537056823,7275934.030668658 L -3998766.7620737725,7291827.734573256 L -3997848.153635746,7305947.095088207 L -3985080.1420002305,7316096.478058102 L -3992689.831071368,7321675.702897889 L -4000701.828782232,7329768.861210865 L -4017019.2623816924,7336056.925791024 L -4021264.431163093,7333374.983875161 L -4035521.7862659325,7319262.554981267 L -4042174.906952684,7302654.661648107 L -4057122.554217932,7278990.170415845 L -4060052.260576629,7272036.006581531 L -4063889.777382746,7267577.880904705 L -4077424.223712373,7264676.08263771 L -4089317.1528307633,7259025.108957356 L -4099215.236674139,7247100.200737546 L -4102313.4807418967,7239782.3646675795 L -4106129.178927818,7234708.561321926 L -4119571.2300800867,7234988.305794432 L -4128039.7490226943,7229377.181527743 L -4136421.3274429925,7221740.699528814 L -4174219.9718613396,7199729.556758364 L -4189053.5166485244,7201939.024739562 L -4195885.973034943,7195720.788436335 L -4195521.846980559,7184706.763747522 L -4187711.003589558,7178131.669527226 L -4220432.811310787,7175632.6462036 L -4232081.171507904,7171673.059242149 L -4224074.628452089,7169323.977545349 L -4178470.5952977897,7168972.707661834 L -4161370.4743585624,7167142.191547439 L -4159870.2215811415,7171895.0678487625 L -4144737.672641686,7181631.520459414 L -4130322.689139883,7182594.69312499 z" /></g></g>
</svg>
