<?xml version="1.0" encoding="UTF-8"?>
<svg xmlns="http://www.w3.org/2000/svg" viewBox="-10267570.599158153 -2016070.3325870205 446038.943212159 472064.6022123499">
  <g id="map"><path fill-rule="evenodd" fill="currentColor"    d="M -10267570.599158153,-1636865.3324808856 L -10264662.60010016,-1639808.034946435 L -10262216.688248448,-1646604.4927495862 L -10259194.475392904,-1653616.3711767239 L -10261037.146924002,-1661709.3066334336 L -10262140.545716746,-1668275.516165876 L -10258721.590196012,-1677830.010473413 L -10259042.301648987,-1685002.5308514743 L -10257449.653694209,-1689425.2168886552 L -10252383.72630719,-1692284.0963138996 L -10249720.40748996,-1697755.1006075041 L -10264140.84564681,-1716608.9520828386 L -10264129.936336713,-1720913.4231749452 L -10262227.486239055,-1726210.4557998115 L -10250535.711440528,-1746378.3030801339 L -10236631.68440147,-1770379.671158772 L -10221292.63780659,-1796892.5038929067 L -10212068.482160479,-1812849.8112773607 L -10178384.540080324,-1812883.7542889249 L -10156098.934620963,-1812906.344375529 L -10127801.631380806,-1812923.3738400713 L -10097036.597668739,-1812951.640462065 L -10076859.93996246,-1812968.554113119 L -10068532.685453668,-1813143.9470896134 L -10069945.886389289,-1823531.9368766255 L -10068864.194897251,-1835011.6073155175 L -10065173.50849949,-1845443.4230527475 L -10065173.50849949,-1850049.326339655 L -10071196.115590388,-1855681.8056056239 L -10082849.819123065,-1858963.2994282255 L -10089339.856755802,-1863946.058810601 L -10089372.473366605,-1870262.5883963269 L -10092220.69385804,-1877902.5204718695 L -10097868.154264966,-1886873.0351961444 L -10109592.656993786,-1896057.285783483 L -10127383.070095422,-1905444.1545951844 L -10142526.417025484,-1918051.497454439 L -10155028.152439022,-1933896.2217190864 L -10165605.619134707,-1944095.9706658581 L -10173748.083288783,-1948363.8684324697 L -10175672.240687145,-1950628.9797230852 L -10151837.513193905,-1950424.1739213534 L -10129290.974848127,-1950230.5602132112 L -10129138.801104212,-1972974.942324442 L -10129008.334661005,-1993205.5772249573 L -10128866.958907695,-2016070.3325870205 L -10087997.232377345,-2016036.072974396 L -10039191.761987321,-2015990.471529583 L -9988565.327366903,-2015944.7532581247 L -9948793.544974245,-2015904.7644686166 L -9925409.99537719,-2015887.6932543523 L -9926480.777559131,-1987543.1920411545 L -9927714.642795084,-1954750.2224989978 L -9928627.796578063,-1930683.1235483026 L -9929839.95451331,-1898600.9389940836 L -9931084.617739871,-1865850.990988875 L -9932775.115527056,-1821268.2851544898 L -9933873.05966475,-1792500.8532694543 L -9933351.19389191,-1791833.9421460289 L -9920077.680448703,-1793224.268566432 L -9900439.141160917,-1791969.5913865156 L -9895639.601315364,-1792059.9860715026 L -9889622.448879516,-1789556.4954146468 L -9884985.992087975,-1788804.9567125544 L -9875000.967722291,-1782330.1574319869 L -9863281.91964852,-1777427.2009477387 L -9855808.040356152,-1787313.1766394156 L -9859743.406994676,-1793269.4104260067 L -9862684.02266347,-1796310.3214422052 L -9862232.844767286,-1798967.1322774275 L -9821531.655945994,-1773361.0562527517 L -9826331.307111036,-1769414.135293901 L -9836696.821496254,-1760297.6074077485 L -9855481.985567618,-1744719.9777784115 L -9872310.375629818,-1730781.5779976293 L -9888502.797441117,-1718146.9584027468 L -9903091.66198754,-1706774.7046770365 L -9904809.32173048,-1705648.5425450418 L -9923306.39095967,-1697535.4807530614 L -9926393.725717332,-1693798.094220544 L -9930378.072931804,-1677745.6890283036 L -9932188.016532613,-1673769.313574463 L -9928834.294233482,-1664862.9580768044 L -9925491.481244452,-1651110.2445666774 L -9926556.808771344,-1643936.2840248244 L -9939352.093682105,-1635090.8588882734 L -9945216.961054549,-1627129.9056691546 L -9947798.905324008,-1621988.6504336263 L -9950098.09808685,-1623324.3854477482 L -9954060.626681129,-1623722.9010777753 L -9963192.275830392,-1621730.4998872401 L -9967605.871001363,-1621287.0755000168 L -9971291.214063566,-1619008.698498941 L -9971660.794773,-1614065.3248067359 L -9969220.226256847,-1606043.5837439608 L -9968345.14373972,-1601910.2986918662 L -9970916.178699084,-1600003.6460375125 L -9982162.230256474,-1595187.335816244 L -9986597.644047642,-1590433.5631603647 L -9990853.610819649,-1583052.2693028622 L -9995789.07176346,-1579964.7879975087 L -10000936.48501774,-1580536.2613897498 L -10004583.756814092,-1579449.210320439 L -10012372.89290439,-1573914.0137844435 L -10024113.648278864,-1563211.0920176308 L -10030413.329582347,-1555266.4692956023 L -10030543.796025556,-1549333.310380921 L -10029353.456710503,-1544005.7303746706 L -10072087.562072659,-1562852.7204870582 L -10086317.755219746,-1566072.6186447102 L -10146331.317220798,-1565680.6041556331 L -10172079.404121792,-1573090.6376469294 L -10201420.32758814,-1587406.7362897955 L -10221254.566540739,-1600413.0557824092 L -10267570.599158153,-1636865.3324808856 z" /></g>
</svg>
