<?xml version="1.0" encoding="UTF-8"?>
<svg xmlns="http://www.w3.org/2000/svg" viewBox="-1860350.847350882 -1423188.6246587622 338219.893806878 197869.77994825924">
  <g id="map"><g><path fill-rule="evenodd" fill="currentColor"    d="M -1860350.847350882,-1386117.661708871 L -1854241.4110571654,-1387202.6815789766 L -1839146.933383561,-1385411.0126171825 L -1827455.1585850338,-1387581.1543755599 L -1819214.8445985527,-1391209.5407688655 L -1807995.954996916,-1396202.0890292854 L -1797162.8987503685,-1397810.7490069629 L -1763250.751714087,-1395584.229976287 L -1733779.3618045312,-1401568.4301194448 L -1711863.3370546054,-1412810.93199524 L -1691621.4461267197,-1423188.6246587622 L -1665405.9286838856,-1423077.14694918 L -1637304.21378905,-1422965.7837686508 L -1597347.7523611663,-1422787.4438264316 L -1565691.272166829,-1422659.3090220813 L -1528332.8963345697,-1422503.3344704045 L -1528707.931699052,-1413250.871183668 L -1522130.953544004,-1400215.6371885955 L -1523114.7952036348,-1390513.8263944131 L -1525957.5610400226,-1381315.9453107903 L -1528425.2915119282,-1377683.2930194642 L -1531730.144554599,-1375580.6255565782 L -1541715.168920283,-1375652.8499745543 L -1545949.4283915868,-1373817.3327901186 L -1552607.8924138956,-1370213.2647567152 L -1552781.8847780055,-1365992.4933043523 L -1547471.3884697123,-1361972.3748919151 L -1543101.2079001502,-1356329.6437711292 L -1538024.4825225228,-1351910.5764905124 L -1529305.8286841027,-1346808.7087545313 L -1528490.524733533,-1341140.8992207882 L -1528256.7538028671,-1326837.2281071658 L -1528724.2956641987,-1315682.086147648 L -1553265.679284993,-1307561.2402854555 L -1572088.8033027186,-1306123.7271062636 L -1588036.6561927444,-1307028.3741223433 L -1594966.9624115706,-1303604.1733572986 L -1608838.3728398294,-1295242.2548026799 L -1625797.22934524,-1290177.3538696566 L -1634499.5192185135,-1289822.3410427694 L -1638652.2928225566,-1286804.9478697556 L -1645223.8163225558,-1278125.816228072 L -1663606.7830736844,-1240291.875517811 L -1669683.6027565985,-1231220.9092117886 L -1674581.1037540485,-1225318.844710503 L -1680228.5641609728,-1233358.2276965333 L -1675869.2929015083,-1248207.4607347269 L -1680565.5282596042,-1247991.4373946886 L -1689947.31230468,-1235988.6996235154 L -1694518.5358746145,-1235612.0465039266 L -1693915.1842345153,-1249830.744386545 L -1699111.5780647453,-1250357.1061904395 L -1705134.073836152,-1249348.7545731184 L -1713553.7235223015,-1256751.1626554201 L -1714385.3914380178,-1262309.6837309124 L -1713711.3519212645,-1270058.8036968205 L -1708580.1913126397,-1275009.5955087268 L -1709275.9381300975,-1277083.3329941994 L -1714227.7630390546,-1277665.552320872 L -1719772.0302780138,-1276334.7644961306 L -1723169.1671785521,-1278669.2154542536 L -1717559.7780374787,-1288729.6078994356 L -1697910.3294395949,-1297184.127274494 L -1688023.154906318,-1298055.2245704418 L -1677880.3908221796,-1299969.540836098 L -1683419.2034060897,-1307217.0586373685 L -1695437.144312641,-1310081.1099408974 L -1705047.1333138424,-1308082.862233416 L -1709830.4205137386,-1302821.6840940113 L -1715765.9757628362,-1301950.4559131896 L -1725664.0596062106,-1314288.6552065376 L -1725479.269251494,-1320495.675327298 L -1721799.3808443404,-1327825.7314259708 L -1716070.4345701558,-1331119.2634205418 L -1693262.9633379572,-1331024.848898721 L -1684609.5427211423,-1335163.0913848744 L -1681114.5559881967,-1335918.6303801415 L -1677804.3596099678,-1339679.6488931759 L -1678505.4497629842,-1342179.9288610255 L -1682207.0454708417,-1342324.4467701355 L -1690729.9996444474,-1337435.2250522985 L -1718190.291633332,-1339285.275657953 L -1726952.3600731613,-1336329.6850290264 L -1742226.173446434,-1325043.4210518645 L -1761005.88286275,-1318802.2954515242 L -1774627.2697146875,-1321434.055606944 L -1770284.2511008785,-1336568.6066579148 L -1772230.2271194358,-1338629.66692276 L -1776524.2651572956,-1341113.1345906705 L -1796521.5871639084,-1336296.3499201154 L -1811648.5701288246,-1343218.9936046042 L -1817633.105953871,-1351582.6354698637 L -1816605.8496928306,-1362072.4642738407 L -1809468.9344990929,-1369167.811459347 L -1808338.373750596,-1372704.8905415663 L -1815877.4862645702,-1373377.9781146743 L -1829737.9873827319,-1368950.8437229893 L -1860350.847350882,-1386117.661708871 z" /><path fill-rule="evenodd" fill="currentColor"    d="M -1793858.1570271887,-1238846.3437582946 L -1802766.9445558835,-1237162.6915441446 L -1806827.322982568,-1242795.3895812223 L -1807430.6746226677,-1244972.3640562438 L -1802777.853865981,-1246866.8681299232 L -1800690.613413607,-1246944.470348092 L -1797146.6461047127,-1251033.026533567 L -1792776.4655351501,-1253775.6558884652 L -1790846.8534817398,-1254656.591136494 L -1788607.439285451,-1254479.3354884884 L -1786987.6293749188,-1245437.6130719993 L -1789151.012358995,-1241643.318594817 L -1793858.1570271887,-1238846.3437582946 z" /><path fill-rule="evenodd" fill="currentColor"    d="M -1769523.271061816,-1241460.5745013447 L -1770556.093297396,-1238314.6071490964 L -1777100.4548416415,-1238796.436377103 L -1775616.5660293673,-1241986.689642137 L -1777046.130930134,-1242917.2237689078 L -1775154.4788230844,-1252495.6580868391 L -1774176.0918185022,-1253975.0359189208 L -1770996.3618834834,-1250406.9175402813 L -1770566.8912880027,-1248933.2595923932 L -1769523.271061816,-1241460.5745013447 z" /><path fill-rule="evenodd" fill="currentColor"    d="M -1750515.2453698828,-1256551.7657622262 L -1750515.2453698828,-1251902.8816553096 L -1755227.8446931255,-1252783.7667218517 L -1756597.6310273365,-1254174.5306377665 L -1753803.7344474066,-1262592.316789748 L -1749661.8701534614,-1266344.7581822113 L -1744590.5994308833,-1265746.054920069 L -1743079.5486628553,-1264609.8658169082 L -1744063.2790029955,-1261361.916029153 L -1746280.985898579,-1258690.721055894 L -1750515.2453698828,-1256551.7657622262 z" /><path fill-rule="evenodd" fill="currentColor"    d="M -1731398.5718549355,-1293062.0219829935 L -1732442.1920811222,-1290421.4913787898 L -1738769.146659849,-1292662.5541412577 L -1729523.2837130318,-1302222.4138197324 L -1723500.787941625,-1303892.738914737 L -1723718.1949071444,-1296529.3996242513 L -1728371.0156638308,-1294975.9241318929 L -1731398.5718549355,-1293062.0219829935 z" /><path fill-rule="evenodd" fill="currentColor"    d="M -1770181.0579329133,-1284974.5663307884 L -1775404.502399406,-1281408.609485566 L -1780802.0505494992,-1283083.4104846953 L -1783693.6856423456,-1286261.2975135008 L -1783264.3263663559,-1291958.0441221085 L -1777165.6880632467,-1300024.9970468017 L -1771686.654045892,-1298981.8001385701 L -1770181.0579329133,-1284974.5663307884 z" /><path fill-rule="evenodd" fill="currentColor"    d="M -1779600.8019243493,-1332285.7046228345 L -1785378.728774483,-1318374.7576831847 L -1792515.5326487308,-1319907.0982987757 L -1797516.2268141462,-1328186.74599788 L -1798081.5071883944,-1331691.444325038 L -1783546.9665534801,-1332813.4273344886 L -1779600.8019243493,-1332285.7046228345 z" /></g></g>
</svg>
