<?xml version="1.0" encoding="UTF-8"?>
<svg xmlns="http://www.w3.org/2000/svg" viewBox="-6833994.821781514 -955256.8672118997 546356.9513693117 821527.7602054297">
  <g id="map"><path fill-rule="evenodd" fill="currentColor"    d="M -6761783.983174243,-579886.9188025207 L -6785368.68709116,-606199.4232725701 L -6809100.110096943,-632686.2155261138 L -6832434.90175703,-658730.1876007494 L -6833994.821781514,-662287.803251706 L -6824232.6590364,-674683.3197680664 L -6815530.369163125,-683604.3722944319 L -6808241.391544963,-688666.8356305538 L -6804816.981369182,-693133.7840480214 L -6807442.34024005,-712262.6697458944 L -6807300.964486741,-719143.6761542589 L -6810703.667361821,-726632.7842055042 L -6813155.033868578,-735036.6157572587 L -6810219.872854833,-742046.2703349998 L -6806697.612846643,-746933.2382021392 L -6802153.551232462,-748821.4328543572 L -6791277.080384504,-750529.0017056362 L -6783585.794126615,-751218.7025274114 L -6780868.0400783885,-754026.4681728799 L -6776389.211685812,-757288.8512899114 L -6770546.051614072,-757464.0717897651 L -6759087.936426721,-755203.4010349518 L -6753869.835295786,-759423.7102898 L -6744412.020038499,-765155.3904591051 L -6723142.872849573,-775054.5086902706 L -6718365.040304725,-781505.3351258656 L -6715022.115996203,-791506.1394279609 L -6715402.606015734,-796211.4255678764 L -6717582.2416454675,-798008.260025988 L -6722849.323352352,-799640.7908096594 L -6730926.44296533,-799865.406708209 L -6737411.02594302,-797301.5679356185 L -6744091.308585524,-798703.9669028216 L -6749668.192435286,-804861.8514253743 L -6749988.90388826,-809968.4246765795 L -6746689.505500639,-817179.8654059767 L -6748602.753588903,-821947.8106703282 L -6759234.655515587,-837142.7474442569 L -6759169.4222939825,-841325.907809912 L -6751467.338045485,-848141.676879358 L -6747086.248165825,-853949.2145871407 L -6741101.82366027,-867842.9311530283 L -6736345.698416128,-872467.885266244 L -6721539.315584696,-874091.8900385839 L -6717772.486655233,-877054.7511695884 L -6710217.121495604,-884407.9374767287 L -6699003.686549015,-892794.1087369589 L -6682778.648126914,-899485.4637269095 L -6678136.736680325,-911679.7295678708 L -6675255.899578086,-915007.503874249 L -6662368.2194899665,-921427.5803597026 L -6660123.350638631,-924854.8496767527 L -6660427.809445948,-927870.5215248659 L -6681120.76695053,-955256.8672118997 L -6677011.519267387,-953377.0962304673 L -6660971.271200002,-935506.6387763901 L -6652089.645627061,-931644.4795477542 L -6650219.812140207,-931556.6099820598 L -6650149.235583043,-936198.8615123567 L -6642001.31677392,-934243.067939304 L -6620938.667240416,-922026.2197914874 L -6590141.016917549,-901851.5790903912 L -6546874.247791946,-863750.7031089067 L -6534573.6666982705,-849265.8646113782 L -6526284.483455331,-842444.434959857 L -6513424.076642456,-825844.7777496824 L -6509662.702368043,-817733.2963430159 L -6510026.828422427,-785459.4385384658 L -6521419.710388174,-763649.8443011647 L -6524202.697658006,-747245.1680340312 L -6524822.413263252,-725418.2546418437 L -6531442.80601971,-712897.1224291656 L -6522653.575624127,-719701.6895462723 L -6519924.912265802,-739392.2042988588 L -6512445.689637874,-751355.4555572013 L -6502726.941494168,-764492.9808055438 L -6489752.32088374,-767646.4517298675 L -6475772.262632466,-762051.3970838642 L -6464520.645100537,-761065.9153892517 L -6454589.9446463585,-757173.9437213868 L -6433472.971201346,-736174.7039539563 L -6412845.135598882,-719575.8811896845 L -6405338.7510152,-706263.0470492808 L -6383466.140866683,-699607.7825439548 L -6370540.500832205,-689115.1612521502 L -6366387.72722816,-680034.6504580101 L -6363827.601578898,-656271.2680447012 L -6368061.861050202,-620424.5563371023 L -6366893.229035853,-618616.8050829677 L -6372807.076984246,-611550.5743814616 L -6373877.970485678,-607067.6199833886 L -6377704.5779816955,-599107.2198132325 L -6380672.355606246,-594788.8823227935 L -6376340.246302534,-584886.5645584221 L -6371404.785358723,-584449.9224897467 L -6369529.49721682,-583183.6088585166 L -6368290.177325818,-581245.951903925 L -6368567.362857893,-579144.5924348311 L -6370464.3583005015,-577256.2280894683 L -6375187.866933841,-574854.7674017218 L -6379672.149981467,-569135.4037521768 L -6379248.245360527,-562843.6472639232 L -6382058.394586112,-559558.7359023736 L -6391092.1939029675,-557818.1673059824 L -6408763.049871491,-557807.2162481239 L -6417438.177789011,-557381.6906982978 L -6424368.484007837,-556306.7133262309 L -6428923.454932117,-552220.1550109098 L -6434723.200402447,-549377.7324848685 L -6439267.262016628,-548706.6689542122 L -6443295.02383251,-543965.8208724507 L -6447295.512373148,-537239.7425176301 L -6445942.090004083,-532646.957632688 L -6441821.933010843,-526505.3912388671 L -6439386.819149739,-520233.5227821676 L -6442582.913049906,-510063.24090430455 L -6446094.2637479985,-502211.37529121526 L -6448148.887589568,-496219.44152208156 L -6450937.329514449,-484700.18899078155 L -6457726.259979968,-472032.5510772222 L -6462596.487702174,-464827.3778895065 L -6462574.780401469,-456985.1931812028 L -6460117.959239663,-445858.04776697245 L -6446257.346802011,-429649.2274834769 L -6441675.213921978,-421902.7524819183 L -6437902.930337465,-409488.90977623075 L -6425401.194923927,-399706.98640120955 L -6417508.865665666,-391799.4590139872 L -6418248.138404024,-381354.8986532437 L -6417204.518177837,-378098.7185537475 L -6412307.017180387,-375468.7773844791 L -6406393.169231994,-373448.7484414908 L -6399821.645731994,-373612.11124367604 L -6393956.77835955,-374499.62715753936 L -6392586.99202534,-375969.6923893474 L -6379014.474429861,-376154.9155543826 L -6377487.059696686,-373535.83806871297 L -6376704.372356919,-358509.1538583046 L -6376150.001292768,-352428.245543239 L -6372926.745436849,-349973.0503760781 L -6370997.133383438,-346249.6631381928 L -6370877.464930835,-342869.1954401417 L -6370257.86064508,-334454.0605551841 L -6368246.762724409,-330029.0138725687 L -6368567.362857893,-321048.6512072571 L -6367181.323878027,-317756.03783675586 L -6363425.404258661,-315524.78619775997 L -6358696.5522897625,-309092.27786258765 L -6356913.659325218,-308281.4799129746 L -6355995.050887192,-306006.81418898096 L -6351940.127115556,-296848.5825185502 L -6349880.048618936,-294111.5299877945 L -6348434.231072513,-293708.9055693245 L -6347825.424777364,-290531.18896365765 L -6344890.263763618,-281972.57123173797 L -6342906.327798701,-279861.46618849225 L -6339112.336913484,-273577.5824485748 L -6337584.922180309,-266728.07688124786 L -6332567.975369238,-258997.72442116012 L -6327458.522061318,-253557.71638743993 L -6325153.8746434245,-247933.0740171762 L -6318620.4224092765,-235482.2914063102 L -6312298.922485599,-226747.1073482371 L -6303710.735090389,-224468.19695275323 L -6296530.405295241,-223249.83431925488 L -6292040.667592566,-219877.8258062024 L -6287637.870412203,-216239.33788307 L -6292388.541001296,-214580.51109994913 L -6296628.255127649,-212350.75797884568 L -6302514.941120288,-214069.26613276982 L -6310684.567230116,-213139.33845030947 L -6319191.157438573,-210675.59213702416 L -6327034.617440377,-209457.43046805135 L -6341819.181651614,-213373.12868156255 L -6346330.7379744835,-213911.5490087773 L -6349396.365431439,-215608.4629439287 L -6355527.620345351,-223331.48151440753 L -6358446.417393951,-224239.73941313068 L -6366317.150670998,-220633.80172644876 L -6375889.068406348,-218142.89110499687 L -6380552.687153643,-218616.0535089275 L -6386042.630481094,-216016.3483006152 L -6391151.972469524,-212541.10853238456 L -6400919.589869689,-197493.18072691603 L -6405963.809956005,-192174.74918311293 L -6411383.065406803,-189727.74108929196 L -6422216.010333859,-189803.80595591865 L -6433782.773344224,-189270.90698162137 L -6442441.537296598,-185627.51689870007 L -6450556.839494918,-183767.81324941025 L -6454617.106602113,-183528.599856348 L -6455986.892936323,-175274.11175476343 L -6457840.473777522,-171446.09061849822 L -6460389.690116689,-169254.87567454312 L -6466694.937394709,-168596.85808316775 L -6472364.105102339,-168890.51032147591 L -6475799.424588219,-172327.0589231257 L -6482180.7030784525,-174045.24055671823 L -6487828.163485378,-175274.11175476343 L -6491508.051892531,-177237.08970892403 L -6494454.122216375,-176747.76352268027 L -6496905.488723134,-173311.1503983047 L -6498873.172042395,-170364.12213597627 L -6500590.831785336,-164964.7087956169 L -6509178.907861055,-163241.13538353503 L -6512864.250923258,-160169.06617983957 L -6510728.029894935,-150045.12678236992 L -6511711.871554566,-146092.44254698473 L -6513511.017164767,-143020.5716040021 L -6523887.440860079,-142406.1568796664 L -6532741.904477267,-142618.2734480309 L -6537829.539164992,-138883.15179078444 L -6544161.948398768,-134539.13539654834 L -6548010.26319549,-133729.10700646992 L -6552543.526819066,-133995.44187563471 L -6558566.133909963,-139035.3616519118 L -6564344.060760098,-145238.84476563678 L -6579025.431803369,-149588.3682544389 L -6593587.134394036,-153193.12938700043 L -6603137.344828682,-163056.28457097762 L -6605393.1229901165,-167911.78227358757 L -6609893.7700028885,-170043.29648441434 L -6621221.30742754,-181744.97589204786 L -6627483.0287846625,-189270.90698162137 L -6634266.615914623,-191277.55416551267 L -6642055.752004919,-194426.10623844288 L -6641740.495206992,-199875.1259110647 L -6642267.704315389,-205123.0329672929 L -6645610.51730442,-207254.9128418112 L -6650306.863982008,-208668.86504369383 L -6652029.867060505,-211616.5345589047 L -6651535.27456291,-218496.31479267607 L -6650616.666124884,-236232.87503690398 L -6651921.2192374915,-253220.48633942052 L -6662373.674145016,-259117.3801845001 L -6666885.119148394,-263115.76249661477 L -6674804.7216819,-288235.08956565935 L -6678538.934000561,-299558.3863126441 L -6678712.81504518,-307965.85517132917 L -6676087.456174311,-333049.8486343276 L -6673119.678549763,-343903.5148735564 L -6665037.104281736,-365673.74069507525 L -6660373.374214952,-373045.8622487837 L -6660112.552648024,-378550.69038853224 L -6660585.4378449125,-385640.4190767277 L -6662960.773139458,-399619.87513881753 L -6649295.860366622,-408437.67761512176 L -6643436.336329736,-412146.93476893124 L -6642457.949325155,-418051.4468838657 L -6635136.2437766995,-425519.92003097764 L -6631902.189930174,-432634.722344925 L -6629200.688527602,-438224.6074274191 L -6629939.96126596,-441177.68123674544 L -6633130.600511077,-442893.9999755531 L -6636891.974785491,-448222.92734482436 L -6644795.213353851,-463541.1332468045 L -6647654.343155384,-466642.26056225674 L -6650067.638396291,-470947.9027366896 L -6648833.773160339,-477744.6774547574 L -6645740.983747629,-485098.1904027437 L -6646137.726412817,-488178.2158241093 L -6650872.1443562545,-492146.86914583034 L -6660618.054455716,-498765.58560423244 L -6668716.99268889,-499256.22125153686 L -6674978.71404601,-501644.343647436 L -6684181.051071928,-501966.0481961473 L -6691540.716566743,-502702.1433715636 L -6695715.197471491,-505166.6369225746 L -6694856.367600021,-509228.9165437776 L -6693035.514689115,-512358.87839430117 L -6686844.369889157,-520064.42431497143 L -6682707.960250259,-528316.1646879215 L -6682148.13453106,-536377.8690630787 L -6680892.561994404,-546971.8313082224 L -6679098.759719761,-556170.3867614286 L -6678131.282025277,-566565.1249986838 L -6687860.82815959,-573397.611651376 L -6690964.526882396,-579013.587901258 L -6694981.3793881815,-583996.8505426083 L -6699400.429214202,-583996.8505426083 L -6706069.802546609,-586136.5877726828 L -6716484.297507774,-579581.2014538696 L -6724675.630918306,-580792.9006886096 L -6730323.091325231,-578325.9298727303 L -6743335.783201509,-578817.0815576363 L -6751679.290355957,-582021.0529695678 L -6761783.983174243,-579886.9188025207 z" /></g>
</svg>
