<?xml version="1.0" encoding="UTF-8"?>
<svg xmlns="http://www.w3.org/2000/svg" viewBox="12672484.706923192 -2579495.6217623726 55257.54807640426 44522.194536552764">
  <g id="map"><g><path fill-rule="evenodd" fill="currentColor"    d="M 12692139.610176127,-2573098.6429364225 L 12692454.866974052,-2573404.5996389133 L 12696031.450893752,-2576841.244734462 L 12701314.78524629,-2577841.7845876305 L 12704097.772516122,-2579495.6217623726 L 12711370.49748863,-2579495.6217623726 L 12715827.6185805,-2578165.427094494 L 12720034.716096051,-2576599.9477796387 L 12720436.913416287,-2576093.8622862655 L 12722828.50135649,-2571598.343445055 L 12722100.137928229,-2566557.044089406 L 12726622.492241705,-2564122.2343868753 L 12727742.254999597,-2559165.5447529126 L 12722763.268134885,-2556461.431061965 L 12722469.829957154,-2550625.6151561285 L 12720252.12306157,-2547047.5685215667 L 12705902.372781372,-2553411.1136255255 L 12694074.676884588,-2556714.2347328705 L 12683442.7749579,-2555403.428888109 L 12679572.641540984,-2559147.96618249 L 12678898.602024231,-2563010.879465172 L 12691172.021162152,-2569739.2728161607 L 12692139.610176127,-2573098.6429364225 z" /><path fill-rule="evenodd" fill="currentColor"    d="M 12716251.523201441,-2536822.7568853693 L 12713490.354551805,-2534973.42722582 L 12705869.756170569,-2543775.578749339 L 12705391.41631863,-2546648.0095104952 L 12711283.445646828,-2547176.7865662323 L 12717903.949722776,-2543199.9966804166 L 12717534.369013343,-2539588.2923368425 L 12716251.523201441,-2536822.7568853693 z" /><path fill-rule="evenodd" fill="currentColor"    d="M 12690171.926856866,-2536816.8650641246 L 12676767.946970446,-2536810.9732449357 L 12673897.907858815,-2538014.630463526 L 12672484.706923192,-2540568.928978997 L 12677235.377512287,-2545208.785444462 L 12695313.885456096,-2551600.998507917 L 12690791.53114262,-2544879.8853530115 L 12690171.926856866,-2536816.8650641246 z" /></g></g>
</svg>
