<?xml version="1.0" encoding="UTF-8"?>
<svg xmlns="http://www.w3.org/2000/svg" viewBox="-9947798.905324008 -1864320.2747656836 690746.1232925449 406958.7710654589">
  <g id="map"><g><path fill-rule="evenodd" fill="currentColor"    d="M -9257052.782031463,-1688401.0339052805 L -9285719.665981054,-1690128.697488435 L -9299243.203000586,-1686549.8449533386 L -9305167.960259076,-1678549.9798420242 L -9310261.04960185,-1674961.6295357575 L -9314506.21838325,-1675782.7621591766 L -9323110.658424117,-1672639.015831286 L -9336063.46041435,-1665526.2506337943 L -9347749.89187732,-1662833.5832956033 L -9358164.275518993,-1664559.3530378295 L -9361186.488374539,-1662811.0189829855 L -9362001.79232511,-1660478.370238936 L -9363572.621659692,-1658218.91381303 L -9367622.09077628,-1656999.3132385665 L -9372253.204232264,-1657645.5928715065 L -9377465.850708148,-1660158.012070258 L -9380221.676022226,-1659084.3873734777 L -9380520.568855006,-1654436.8027059706 L -9383336.17273564,-1653194.9451592574 L -9388663.03300908,-1655380.8672371856 L -9394658.366824735,-1653700.6111946977 L -9401327.74015714,-1648171.8646020764 L -9410687.70558202,-1646986.4609188193 L -9422743.717754424,-1650171.9784861638 L -9432076.52122355,-1656190.0771996465 L -9438686.115989398,-1665054.0803194488 L -9446621.971168563,-1667286.0588768462 L -9460504.290906917,-1660686.265658573 L -9466314.945687344,-1652986.9966920116 L -9467570.518224,-1648289.9132860298 L -9466222.439190498,-1644026.1285787656 L -9468766.312194103,-1641184.0432025269 L -9475212.823905943,-1639763.0626028148 L -9480115.66823895,-1634534.966981738 L -9483474.845193129,-1625507.7341337951 L -9484148.884709882,-1618537.2799349355 L -9482137.675469719,-1613633.4079389768 L -9485350.133335032,-1610014.85183242 L -9493791.490321886,-1607698.1854458903 L -9503765.605377473,-1599913.9557327556 L -9515261.791830676,-1586689.3397015147 L -9526698.08839783,-1577454.6981138638 L -9538069.263062874,-1572216.6962157586 L -9543553.640415786,-1566397.4284897614 L -9543167.695741205,-1560002.6634952407 L -9543858.099223105,-1558009.5022716296 L -9546026.82554274,-1557248.189157759 L -9549733.875905648,-1556374.8843251553 L -9571671.607956277,-1570278.7098238948 L -9577971.40057925,-1579970.2961154475 L -9583412.363330754,-1578485.5558601485 L -9590310.052938776,-1573594.7330698855 L -9599996.07315219,-1562684.7175790798 L -9610405.113458306,-1547850.1689696312 L -9615438.424234523,-1546199.3250996748 L -9641409.372756084,-1548398.715411359 L -9655144.973405577,-1547094.7611899432 L -9657965.92062177,-1545108.1781227393 L -9659259.564424278,-1539675.1069950229 L -9658471.422429461,-1532403.086240402 L -9654693.795509392,-1506295.6051012329 L -9652590.19109187,-1495557.8889310267 L -9654661.17889859,-1492240.2094366795 L -9661656.71833902,-1491715.209636653 L -9670717.679611629,-1490196.1974876001 L -9675691.21182129,-1485287.7968474445 L -9676870.753145736,-1480235.1738958259 L -9677354.436333233,-1473162.8738700736 L -9680219.020789819,-1465869.2924671334 L -9685833.864585938,-1460624.7885776472 L -9691383.586479945,-1458756.0425081612 L -9722338.865201777,-1457361.5037002247 L -9721811.65609338,-1469412.6459686002 L -9730747.605577828,-1474295.8583493915 L -9735829.785610506,-1484355.389963566 L -9740276.10871177,-1491156.7076744393 L -9738803.017890103,-1495239.5327878152 L -9739243.28647619,-1500082.6484295812 L -9751837.417067086,-1503820.301126496 L -9763648.860318216,-1500898.307376189 L -9770443.245438782,-1502797.7912184477 L -9775433.030294102,-1505373.5910095049 L -9766839.499563333,-1511347.376885097 L -9766241.602578282,-1514980.3293014187 L -9769002.771227919,-1517602.0368205737 L -9771834.7390737,-1519362.995666315 L -9770981.363857279,-1526111.4719932978 L -9769236.542158583,-1534086.649025402 L -9764426.093002934,-1552736.2500127351 L -9766219.783958085,-1555988.5159730888 L -9774101.31522574,-1561598.4008810266 L -9784091.794246474,-1562169.5917394229 L -9795115.095502788,-1560411.4502719005 L -9800425.591811081,-1563278.2943857554 L -9805072.957912719,-1569696.2174893124 L -9812927.21590513,-1572765.7455649215 L -9826863.970874485,-1567640.7346166754 L -9841588.756519163,-1559924.346858088 L -9846111.11083264,-1557125.051099049 L -9849845.3231513,-1557500.0850788783 L -9851514.002318293,-1563267.0557526166 L -9852258.729711698,-1570110.659812021 L -9853171.883494677,-1571802.2208515038 L -9861031.596142134,-1574233.2983649117 L -9870212.225867348,-1575997.9804651008 L -9874886.753924737,-1577897.2597641896 L -9879311.258405808,-1582508.7434243273 L -9890285.579086171,-1588533.3756123492 L -9892775.128178272,-1593000.92440881 L -9907456.387902053,-1603228.1093673953 L -9910424.1655266,-1608309.670521016 L -9913794.251790877,-1612006.3448221947 L -9920849.569797864,-1616724.8929144943 L -9926372.018416628,-1615585.8815339764 L -9944977.846788323,-1621455.4563297771 L -9947798.905324008,-1621988.6504336263 L -9945216.961054549,-1627129.9056691546 L -9939352.093682105,-1635090.8588882734 L -9926556.808771344,-1643936.2840248244 L -9925491.481244452,-1651110.2445666774 L -9928834.294233482,-1664862.9580768044 L -9932188.016532613,-1673769.313574463 L -9930378.072931804,-1677745.6890283036 L -9926393.725717332,-1693798.094220544 L -9923306.39095967,-1697535.4807530614 L -9904809.32173048,-1705648.5425450418 L -9903091.66198754,-1706774.7046770365 L -9888502.797441117,-1718146.9584027468 L -9872310.375629818,-1730781.5779976293 L -9855481.985567618,-1744719.9777784115 L -9836696.821496254,-1760297.6074077485 L -9826331.307111036,-1769414.135293901 L -9821531.655945994,-1773361.0562527517 L -9810709.620329034,-1770125.5059065158 L -9802192.120810479,-1777506.319401237 L -9797272.912512325,-1779974.6252472107 L -9785765.928068515,-1788816.2978928036 L -9782194.798803866,-1790754.5634478063 L -9762925.840225514,-1794377.2653988004 L -9753609.400721533,-1794286.7459623937 L -9745461.593231902,-1785318.7307159584 L -9738998.717554918,-1780437.823030156 L -9726817.693594353,-1784635.1317671367 L -9716620.716918198,-1785556.0511386562 L -9674468.255895436,-1777218.301751026 L -9657748.51365625,-1780906.5829527348 L -9626999.843909333,-1781697.4341277801 L -9613177.30273753,-1779630.0092574859 L -9593647.411272759,-1791426.999163168 L -9581107.71591286,-1793800.7019668827 L -9566382.81894869,-1799328.9377403394 L -9568345.047612904,-1804982.8671045867 L -9571878.21693119,-1807521.9570781076 L -9549429.417098328,-1805050.7300506101 L -9516000.953249542,-1793088.612017749 L -9480376.60112537,-1795247.6358579462 L -9467526.992303101,-1801709.121576683 L -9459232.354405114,-1803552.348617713 L -9422760.08171957,-1791246.215055382 L -9413139.18340827,-1781804.7957369797 L -9405638.142160147,-1780872.686622128 L -9399822.14404416,-1783030.6965947733 L -9398256.769364625,-1784985.3753805198 L -9405426.189849677,-1787042.0488167997 L -9408682.062316397,-1789991.6443825343 L -9379939.035835102,-1784188.7436445416 L -9325844.665118,-1739599.255540784 L -9324708.649714455,-1735973.740172504 L -9347809.670443874,-1749159.2252755857 L -9360050.472970994,-1748149.4976926974 L -9363230.202906014,-1746017.3106500502 L -9362545.365398655,-1738821.1254328373 L -9361420.147985715,-1735449.404531627 L -9356174.884899028,-1735065.9458764526 L -9352304.862801598,-1737005.4712411352 L -9342759.99570251,-1734654.4360801305 L -9336438.495778833,-1729885.2926834452 L -9328758.118831042,-1722558.797447421 L -9324170.53129596,-1714609.1127358028 L -9319213.363051444,-1714479.556884069 L -9314343.13532924,-1719268.1607194622 L -9305157.050948977,-1719848.4555013336 L -9299177.969778981,-1714496.5156250081 L -9294949.164962726,-1714811.9272908664 L -9300863.012911119,-1723105.356963175 L -9314783.403915329,-1731350.9512204572 L -9311473.207537098,-1731694.7520354392 L -9280615.667328184,-1716873.7406710375 L -9271897.124809254,-1698295.4545223447 L -9264629.854491798,-1694073.8167033908 L -9257052.782031463,-1688401.0339052805 z" /><path fill-rule="evenodd" fill="currentColor"    d="M -9620221.71143442,-1848581.8746001518 L -9638071.903102612,-1839519.0124366742 L -9643654.241607422,-1839694.6090618775 L -9635473.817506988,-1846695.3405265785 L -9622265.425965894,-1852701.0062657222 L -9611084.607630108,-1855642.1116381437 L -9601920.341870042,-1854367.0671637245 L -9620221.71143442,-1848581.8746001518 z" /><path fill-rule="evenodd" fill="currentColor"    d="M -9559110.093976183,-1858232.1155186174 L -9567600.431538986,-1851511.071215141 L -9569133.189607719,-1854537.0921393358 L -9565040.30588972,-1860760.1928582098 L -9559920.054591196,-1864320.2747656836 L -9554973.684337286,-1863963.1265449063 L -9556158.680316782,-1861275.9889765314 L -9559110.093976183,-1858232.1155186174 z" /></g></g>
</svg>
