<?xml version="1.0" encoding="UTF-8"?>
<svg xmlns="http://www.w3.org/2000/svg" viewBox="1504726.4851169481 -5866440.137131021 654980.3954150642 640390.6607597433">
  <g id="map"><g><path fill-rule="evenodd" fill="currentColor"    d="M 1511488.253626713,-5703266.425072117 L 1515640.9159112652,-5696892.163668657 L 1544971.0413870045,-5689213.414048415 L 1551308.9052758287,-5692614.235442157 L 1555146.3107624548,-5697822.363567309 L 1555168.1293826501,-5701117.818191195 L 1557668.365145867,-5702079.591903811 L 1567995.9195847223,-5697062.669262001 L 1576420.9126064295,-5698225.496110138 L 1589977.1775562528,-5698458.111377507 L 1599652.3997790592,-5697636.284095304 L 1606044.5875793907,-5701497.9089647075 L 1614708.8061868127,-5715717.733405539 L 1617915.6980775853,-5723683.622475502 L 1621796.740804602,-5725588.728752546 L 1624351.4117988169,-5724640.026371698 L 1626221.2452856717,-5718087.227993315 L 1630776.2162099506,-5711943.147636511 L 1640136.1816348308,-5701932.182052123 L 1646756.5743912884,-5697124.744265398 L 1652768.2721720883,-5695396.1719947 L 1658660.4128197765,-5699419.599068468 L 1664737.343822181,-5700567.167906465 L 1682087.4883377296,-5692769.10860027 L 1696741.6974252472,-5691281.580149083 L 1707580.0970073526,-5695349.664378229 L 1706155.9867616342,-5700947.235273914 L 1702209.8221325036,-5707184.680994568 L 1701361.9015711313,-5713247.71319702 L 1702090.2649993917,-5718491.275906334 L 1709526.07302591,-5723722.475380684 L 1709167.2903070832,-5726016.370594747 L 1700176.905591637,-5735229.267356831 L 1700633.5381428709,-5737603.952883892 L 1720342.7653073107,-5747974.708724035 L 1739345.3363441948,-5753792.664570097 L 1742389.1451809553,-5758287.391516148 L 1744161.1288354027,-5765049.344892811 L 1744998.251406168,-5777736.076644399 L 1743954.6311799812,-5788122.543079344 L 1736236.1829663387,-5797870.555177685 L 1735757.8431144,-5802811.165695736 L 1737584.1506803543,-5807943.096029102 L 1740584.6562351964,-5812575.22191151 L 1748183.435996236,-5814585.890441774 L 1757097.6781799796,-5817924.93271144 L 1764142.19819636,-5821768.356846571 L 1773686.9539759567,-5824952.920016625 L 1781187.9952240798,-5829420.910303253 L 1788515.0441080928,-5840057.399729204 L 1792961.2558898672,-5841814.372059292 L 1806430.46899789,-5840301.667134838 L 1809311.306100129,-5842925.306604399 L 1807463.2912334702,-5858226.52809414 L 1809876.5864743777,-5862119.114291419 L 1814638.166373569,-5864299.178445824 L 1816866.6712597592,-5866440.137131021 L 1828716.1857767403,-5864788.9058645675 L 1838576.1983542636,-5860823.98157452 L 1844555.2795242611,-5858416.007598259 L 1864384.063821813,-5847331.532107017 L 1878125.0078068622,-5834891.132981589 L 1885745.6061880975,-5821092.332516641 L 1896073.1606269528,-5810415.9517224 L 1909085.7411837417,-5802866.110785956 L 1919391.588321892,-5792634.697706675 L 1927012.1867031273,-5779731.154844445 L 1937665.795930516,-5772512.257954046 L 1951341.50669396,-5770948.929505633 L 1960005.7253013821,-5766541.553729793 L 1963636.6331325867,-5759278.694797438 L 1971072.441159105,-5752708.357299249 L 1982280.532770135,-5746828.847825076 L 1999728.527118091,-5743609.986942337 L 2033135.2836661707,-5742846.384644185 L 2036103.061290719,-5742682.661519536 L 2043636.7191496452,-5740859.570207442 L 2052431.4042002768,-5743142.402420832 L 2063150.2466492704,-5747740.958362548 L 2066607.1621163643,-5750477.691466585 L 2077891.3962590971,-5765533.761316435 L 2084098.682385221,-5764237.030816887 L 2096480.8606656475,-5766072.761637514 L 2103970.992603673,-5769416.926671007 L 2104536.2729779207,-5769416.926671007 L 2104057.9331259825,-5765557.118918755 L 2103220.921874708,-5758825.952342799 L 2097154.900182401,-5754065.719317627 L 2103329.5696977223,-5743103.4647494145 L 2109200.0030447054,-5725363.209693121 L 2105927.766612837,-5716611.072925694 L 2109917.4571628678,-5709800.403140117 L 2121201.57998611,-5704911.031653231 L 2122223.4929115917,-5702963.784328895 L 2118777.3754351046,-5700931.6701418 L 2115918.24563357,-5695155.858790749 L 2115592.190845037,-5684637.289932664 L 2125430.3848023647,-5674718.567145042 L 2145444.0707741245,-5665390.267052497 L 2151836.1472549643,-5663822.178139348 L 2154282.1704261657,-5660239.36432513 L 2157630.4380702456,-5657900.458148258 L 2159598.1213895073,-5655037.530054258 L 2159706.8805320123,-5651334.698062728 L 2158271.8609761964,-5648797.721605968 L 2148803.136408811,-5647895.643959745 L 2137997.353437508,-5647972.695193828 L 2130311.5218346682,-5652468.5461038295 L 2129626.684327308,-5649190.918718452 L 2129507.1271941965,-5645436.6668300675 L 2122071.319167678,-5643147.845715388 L 2126202.2741515255,-5617394.470524003 L 2124560.7569402875,-5609998.392650237 L 2121810.3862812584,-5607518.922343313 L 2119255.7152870432,-5608547.445761906 L 2116135.6525990893,-5608839.220020678 L 2114570.2779195546,-5606421.519681443 L 2115863.921722063,-5600951.426256188 L 2108536.8728380497,-5600322.691558917 L 2096861.350685179,-5603160.590373858 L 2091512.7831110342,-5608133.0670527285 L 2090599.6293280574,-5613215.707152509 L 2090512.688805748,-5617940.045595239 L 2086805.6384428407,-5625696.539087086 L 2077510.9062395657,-5633721.236874719 L 2058106.0265629548,-5635045.37563427 L 2050942.0607329537,-5637593.9328777725 L 2043560.5766179424,-5640520.727832036 L 2035472.5476948663,-5642685.480474893 L 2028015.0323676432,-5642469.7707577 L 2019024.647652197,-5640335.832864033 L 2003337.7276485907,-5643872.213088058 L 1998032.6859953464,-5639149.566425128 L 1989770.6647081606,-5633690.496591394 L 1982911.0463659877,-5633829.065159431 L 1969257.0429032482,-5646492.574335993 L 1965180.4118309077,-5647294.414378249 L 1953243.9567916174,-5640836.572560927 L 1948384.6383795093,-5640489.806566094 L 1944655.880715898,-5642531.469205181 L 1928512.3281610576,-5647371.460461821 L 1921228.6938784535,-5648412.278794206 L 1915880.2376237998,-5646122.700569234 L 1906389.80575571,-5648604.9191832645 L 1883375.7255485996,-5665166.101984498 L 1869145.5324015138,-5652568.858576813 L 1840185.098954699,-5655701.066569534 L 1831597.0228789796,-5647063.122210699 L 1821747.8082920627,-5630712.181763992 L 1813768.4271920007,-5622912.95573724 L 1806832.777637617,-5625711.816836303 L 1798625.080261938,-5632897.748802498 L 1784264.4206716425,-5651419.676421952 L 1777013.514319332,-5654767.483613657 L 1768675.3505004435,-5655546.8322301805 L 1761391.8275373303,-5653502.213169317 L 1757521.6941204113,-5649738.423012987 L 1754564.7144864697,-5622705.43398595 L 1751944.8102706498,-5598942.235907864 L 1751792.6365267353,-5584729.67253098 L 1767762.196717466,-5571586.721548713 L 1786569.0680895357,-5549017.148402455 L 1792624.291791236,-5546424.713212796 L 1795613.776716489,-5539048.076382213 L 1800016.573896854,-5520077.879768204 L 1804962.9441507624,-5498795.714816831 L 1814518.609240457,-5484730.963894603 L 1823139.3019269789,-5474673.001095113 L 1833662.4447111576,-5465842.691018236 L 1846849.0176320567,-5452017.021938931 L 1857665.7099134577,-5436863.515680571 L 1860535.74902509,-5431275.929160888 L 1881505.892061745,-5411287.365658959 L 1901845.632822038,-5390929.9253016515 L 1920043.8092184498,-5383819.448253635 L 1922913.7370105912,-5380067.846547837 L 1923076.8200646036,-5364456.330548465 L 1925055.3013744724,-5358605.863378121 L 1937209.163379282,-5342299.594789376 L 1961984.317930742,-5318484.601485459 L 1964843.3364127853,-5312975.2703929655 L 1965658.7516828466,-5308940.006840271 L 1964060.6490730185,-5305849.825600838 L 1957570.6114402795,-5302597.200784741 L 1952243.8624863303,-5306228.588729068 L 1929153.751067008,-5329476.115852286 L 1906835.5289968462,-5344163.857543267 L 1881647.267815052,-5371896.040745245 L 1847936.163779144,-5382875.692348993 L 1824965.6094929331,-5395045.74759899 L 1811050.6731437738,-5393186.292084241 L 1795700.8285582897,-5389355.99852925 L 1786232.1039909043,-5389236.130727093 L 1779502.952091942,-5391424.537970403 L 1774719.6648920458,-5398975.957172887 L 1775448.0283203062,-5404821.8248474365 L 1774600.1077589337,-5412459.432121777 L 1761141.692641518,-5424668.349329243 L 1742780.5445105846,-5436283.470554667 L 1725386.8740741357,-5451337.903609694 L 1690479.9760681256,-5492116.744921009 L 1683478.981972646,-5505266.939577369 L 1690349.509624916,-5507771.670776415 L 1695545.9034551457,-5507544.066766148 L 1701437.9327833431,-5510246.764056901 L 1710950.183271628,-5510315.189278176 L 1722223.3967847722,-5507627.552004936 L 1712243.8270741368,-5516384.212722871 L 1699829.0321829077,-5524982.147454131 L 1667716.0307568274,-5559226.054258822 L 1658127.7490563304,-5575448.069543854 L 1657018.8956085385,-5592955.789977168 L 1659388.7762480364,-5617018.079146007 L 1653605.3947428535,-5634283.250802206 L 1628830.2401913933,-5656681.053762216 L 1619752.9149536376,-5668511.441527507 L 1601457.000044309,-5675546.054529867 L 1593281.9192794326,-5674857.769728258 L 1588368.2769558176,-5666108.677087232 L 1584780.7837260228,-5646693.067113001 L 1568561.1999589703,-5621144.765184925 L 1563147.3991632212,-5610067.416302111 L 1554667.9709105159,-5595684.159740497 L 1547319.214725798,-5594695.397528411 L 1542970.7414569403,-5595959.977590514 L 1529805.8758367463,-5620184.064025543 L 1517206.401910291,-5638571.949119788 L 1515445.3275659415,-5647286.678230089 L 1514314.6554979542,-5658023.909347413 L 1504726.4851169481,-5697690.58333648 L 1511488.253626713,-5703266.425072117 z" /><path fill-rule="evenodd" fill="currentColor"    d="M 1853545.6642397074,-5311451.606962999 L 1874124.5192662245,-5307201.578260244 L 1889213.5422847804,-5309155.4691123115 L 1902856.6364374224,-5306547.887306085 L 1911336.0646901273,-5301721.084821088 L 1913390.688531699,-5299353.153765789 L 1902378.296585484,-5299026.652459738 L 1889930.996402943,-5300986.135106709 L 1875809.5623983624,-5296080.599204674 L 1863362.1508963308,-5298700.010539405 L 1858633.2989274329,-5301884.381025554 L 1855285.0312833523,-5305872.033778891 L 1853545.6642397074,-5311451.606962999 z" /><path fill-rule="evenodd" fill="currentColor"    d="M 1914032.11143765,-5331136.6363365855 L 1906248.4300024023,-5329558.006381163 L 1856719.9395196778,-5330734.59489771 L 1842315.865327973,-5333899.996082829 L 1826291.8699062443,-5342060.919122791 L 1823019.7447938668,-5344566.631286938 L 1839152.3880386096,-5346931.08260697 L 1854132.6519146604,-5344566.631286938 L 1858731.1487598396,-5338639.19899645 L 1899236.6379163163,-5333899.996082829 L 1914032.11143765,-5331136.6363365855 z" /><path fill-rule="evenodd" fill="currentColor"    d="M 1868525.928115758,-5353259.30214895 L 1850958.2653151997,-5352863.6432419885 L 1835695.3612520243,-5355633.608981355 L 1828216.138624097,-5360383.735610952 L 1828770.5096882477,-5364388.980182285 L 1831086.0664162382,-5371073.281773306 L 1848077.4282129605,-5370280.46293842 L 1873994.052823015,-5365525.1237424 L 1880331.916711839,-5359987.773535175 L 1878364.2333925772,-5357433.244285446 L 1868525.928115758,-5353259.30214895 z" /><path fill-rule="evenodd" fill="currentColor"    d="M 1695513.2868443432,-5475089.0935437605 L 1697252.6538879883,-5469629.342626383 L 1683359.4248395339,-5479893.648795756 L 1678097.797787699,-5486798.38842434 L 1677119.4107831167,-5489873.867244764 L 1695513.2868443432,-5475089.0935437605 z" /><path fill-rule="evenodd" fill="currentColor"    d="M 1648669.933799043,-5617909.359072565 L 1634950.6971146984,-5614536.68073401 L 1628417.1335610598,-5620568.300729407 L 1626710.3831282172,-5625527.225558423 L 1615437.1696150731,-5627096.214378221 L 1608610.1678837035,-5633998.377088251 L 1607218.674248787,-5637062.621707671 L 1616872.0778513984,-5644665.927866997 L 1622046.7643809237,-5656974.391144996 L 1628601.9239157764,-5649591.8711488545 L 1636526.981104331,-5635707.439183397 L 1640755.7859205862,-5631835.711666974 L 1648669.933799043,-5617909.359072565 z" /><path fill-rule="evenodd" fill="currentColor"    d="M 1651028.9051284434,-5583650.394400271 L 1653833.7110184703,-5576740.668329447 L 1643353.9828357012,-5582976.773043868 L 1633972.3101101164,-5585365.16474019 L 1631982.9194901497,-5590059.749420126 L 1633330.8872041658,-5593913.599993799 L 1635341.9851248367,-5597646.621081631 L 1642429.919742626,-5597125.192816195 L 1643495.3585890085,-5593446.217471767 L 1651028.9051284434,-5583650.394400271 z" /><path fill-rule="evenodd" fill="currentColor"    d="M 1690773.5255653476,-5517546.892774311 L 1687892.6884631084,-5513413.833884099 L 1680695.994702814,-5521035.66630517 L 1674086.3999369633,-5526465.439321089 L 1669357.547968065,-5532902.999299429 L 1660084.5230654948,-5540937.4714621445 L 1656953.6623869338,-5550130.582715571 L 1643125.6665600839,-5568896.118796324 L 1641060.2447279056,-5574002.651092588 L 1647952.4796808804,-5566382.187676689 L 1653692.335265163,-5561623.525256993 L 1658443.0058542567,-5560462.865104862 L 1670509.8160172661,-5548491.012612088 L 1682370.128524854,-5533123.7535353415 L 1696502.4718395323,-5519796.572429041 L 1693567.310825786,-5519386.224869049 L 1690773.5255653476,-5517546.892774311 z" /><path fill-rule="evenodd" fill="currentColor"    d="M 1690806.1421761496,-5453435.528910858 L 1692393.2241563895,-5451171.956038331 L 1692241.0504124751,-5449632.989038512 L 1686468.57821739,-5451805.632291586 L 1684914.001528462,-5451103.970933315 L 1657692.9351252918,-5484889.920339471 L 1654768.5721021525,-5491472.674123547 L 1664509.027546564,-5483595.24219383 L 1690806.1421761496,-5453435.528910858 z" /><path fill-rule="evenodd" fill="currentColor"    d="M 1711134.973626345,-5461392.898939614 L 1718462.0225103581,-5449904.580003566 L 1711450.2304242717,-5452265.967293824 L 1704144.888840963,-5459376.503817856 L 1699850.8508031033,-5467104.683074821 L 1711134.973626345,-5461392.898939614 z" /><path fill-rule="evenodd" fill="currentColor"    d="M 1612806.3560891557,-5568162.5561019685 L 1611947.5262176855,-5562089.2697293125 L 1605174.8483978228,-5569767.330883155 L 1601761.347532138,-5583550.84515296 L 1593249.3026686304,-5605853.695210949 L 1592151.358530936,-5612148.278968472 L 1596565.0650213985,-5618362.743393244 L 1596325.839435684,-5624666.05953962 L 1590292.4343541793,-5644319.17211376 L 1595347.452431102,-5647533.2909625685 L 1598347.846666453,-5647918.853995621 L 1599565.4592567498,-5634275.525828916 L 1602304.9206056816,-5626442.501482981 L 1610501.7086712625,-5616833.665689169 L 1608849.2821499272,-5600951.426256188 L 1610523.4159719672,-5578385.348484511 L 1612186.7518034002,-5573375.628212422 L 1612806.3560891557,-5568162.5561019685 z" /><path fill-rule="evenodd" fill="currentColor"    d="M 1960092.7771431825,-5276883.647432893 L 1975279.538674655,-5266471.500887781 L 1930740.9443667387,-5280119.929605105 L 1935795.9624436614,-5281371.789375786 L 1940514.0164219523,-5281638.506230086 L 1960092.7771431825,-5276883.647432893 z" /><path fill-rule="evenodd" fill="currentColor"    d="M 2052322.6450577718,-5245194.600602036 L 2052518.3447225862,-5239639.426850093 L 2056812.3827604458,-5233321.159469445 L 2061356.4443746274,-5226049.476371278 L 2040821.1152690107,-5240384.39893227 L 2021633.7538774095,-5256432.800161588 L 1984139.4569468915,-5281186.548511273 L 1957548.9041395746,-5287218.3887126725 L 1921174.3699669465,-5307171.91245008 L 1897486.3615625734,-5314238.988208457 L 1906509.362888822,-5315867.108264376 L 1916902.0392297911,-5315911.724542179 L 1972985.8005668595,-5289271.974835284 L 1966745.7865104424,-5296325.39712509 L 1974833.8154335187,-5299115.724778401 L 1981704.3430857891,-5297104.507934624 L 1986085.4329654486,-5288419.270561756 L 1994717.0349620685,-5282705.297702124 L 2008708.0025234395,-5272671.538259443 L 2017546.2134949716,-5264992.326764896 L 2037592.4047580424,-5251195.984989618 L 2042332.166037039,-5249268.9332046015 L 2052322.6450577718,-5245194.600602036 z" /></g></g>
</svg>
