<?xml version="1.0" encoding="UTF-8"?>
<svg xmlns="http://www.w3.org/2000/svg" viewBox="-8290866.950237778 -2284128.598414728 315347.30067256466 241995.93522897875">
  <g id="map"><g><path fill-rule="evenodd" fill="currentColor"    d="M -7990429.336884099,-2239673.301484368 L -7987999.677678048,-2236128.395482961 L -7982884.881034567,-2212306.4939999604 L -7982379.379226876,-2204679.947923514 L -7987526.792481157,-2193173.6723144758 L -7986782.065087749,-2188618.020846169 L -7975731.713195173,-2178019.137917006 L -7975519.649565213,-2174197.826342982 L -7976824.202677819,-2170337.0872238353 L -7986287.472590156,-2160294.478005777 L -7993533.035606909,-2153406.8482080926 L -7991222.933533966,-2145521.825318898 L -7985352.611506473,-2138036.1446867054 L -7984618.793423165,-2131782.2540812055 L -7986417.939033364,-2123515.491841653 L -7995435.4857045645,-2113244.3540755766 L -8000142.63037276,-2109561.750283884 L -8013541.155604127,-2109114.4520362993 L -8015046.863036596,-2107651.8754347125 L -8008366.580394094,-2097635.415997506 L -8000816.669889512,-2086323.3229324704 L -7988499.72483069,-2077537.1110475836 L -7985754.80882671,-2069269.8064301538 L -7988706.333805602,-2061434.9852142152 L -7989211.8356132945,-2042132.6631857492 L -7998631.579604731,-2051498.512195802 L -8009002.548644995,-2059340.8880465932 L -8015231.653391313,-2062379.1627153482 L -8021667.255793056,-2064318.9828049887 L -8071059.825177521,-2063306.1561903192 L -8076587.839770824,-2061955.6426696107 L -8080892.787118781,-2059438.1414575286 L -8085502.081954569,-2058185.2482956722 L -8099079.942885606,-2055833.9813726484 L -8112592.681914529,-2055319.220130173 L -8144140.514285852,-2061629.5124418184 L -8156631.340389292,-2064902.7697613488 L -8169198.197704944,-2066968.837155381 L -8183634.999826943,-2066287.7044785675 L -8198017.366717942,-2064376.294215517 L -8209513.441851656,-2059827.1597299771 L -8218128.791202619,-2051807.262948776 L -8219737.691803055,-2044362.2291392402 L -8224836.235800877,-2042452.8637917284 L -8236468.232032848,-2054312.462335894 L -8247149.003215991,-2062745.3845613287 L -8259308.319875849,-2069080.8332305965 L -8284289.97208273,-2078109.6669783702 L -8288844.94300701,-2083607.942839038 L -8290866.950237778,-2090288.117099387 L -8280778.621384638,-2110800.68245276 L -8269309.708206681,-2114558.0055877836 L -8262993.551618559,-2115263.68401517 L -8248812.339047423,-2112728.010853282 L -8234968.090574917,-2108064.843982025 L -8222335.888718169,-2105013.940487779 L -8202800.653917839,-2103827.036007991 L -8192179.661301252,-2098781.8029428753 L -8117115.036228006,-2090958.5563780745 L -8102873.9337708205,-2088506.0986272886 L -8097318.868541256,-2089365.639434246 L -8092481.257429851,-2092425.5501791765 L -8088448.152278412,-2097956.374266984 L -8083806.129512332,-2102118.378734719 L -8061547.686008726,-2103047.1957277954 L -8056867.703296286,-2104899.321927737 L -8053601.032838957,-2110685.9132491685 L -8053704.226006923,-2116703.7873139973 L -8066792.949095414,-2124766.812673337 L -8087263.156298917,-2142476.688829258 L -8105292.7949862685,-2163365.3510707375 L -8097514.568206071,-2170406.133789394 L -8100493.255140716,-2183286.19626021 L -8097579.801427676,-2195224.379345579 L -8093285.763389814,-2206933.511799691 L -8111119.702412352,-2216971.5915533435 L -8132193.149936464,-2226974.53877556 L -8161447.1328805005,-2230113.860552344 L -8170442.972250995,-2232641.7210814636 L -8175122.954963435,-2240140.999638604 L -8170910.402792836,-2250231.3193926117 L -8161425.425579795,-2255813.04883107 L -8150565.207377494,-2259257.60740509 L -8139433.258298167,-2261639.257294594 L -8112576.429268872,-2264512.4854678256 L -8085915.188584902,-2261292.373260467 L -8062863.148431431,-2250924.5669911993 L -8039474.032859838,-2242803.1380525264 L -8009915.702427971,-2240089.085163779 L -7996604.117718912,-2237138.708789209 L -7990429.336884099,-2239673.301484368 z" /><path fill-rule="evenodd" fill="currentColor"    d="M -8104569.886213058,-2128779.447439814 L -8106532.11487727,-2120485.2592483 L -8135003.410481539,-2130335.2952601924 L -8158077.157935714,-2142781.1930495366 L -8157093.316276084,-2149527.1465108795 L -8145314.489635756,-2151084.632330596 L -8134019.568821908,-2146935.298745281 L -8117332.443193525,-2138633.6099463482 L -8104569.886213058,-2128779.447439814 z" /><path fill-rule="evenodd" fill="currentColor"    d="M -8088926.38081086,-2277473.846307971 L -8084409.481152432,-2274708.4488382437 L -8086121.686240324,-2271353.556025291 L -8097356.939807108,-2273435.840405276 L -8108983.481384029,-2277230.820843259 L -8112788.381579342,-2276281.973631865 L -8115114.736297941,-2276756.3911936977 L -8121909.2327379985,-2280407.4650063985 L -8115940.949558609,-2283202.630733916 L -8109787.987343992,-2284128.598414728 L -8103058.835445029,-2283920.334633575 L -8088926.38081086,-2277473.846307971 z" /></g></g>
</svg>
