<?xml version="1.0" encoding="UTF-8"?>
<svg xmlns="http://www.w3.org/2000/svg" viewBox="1791471.9124225439 -6199430.95227329 755146.229828306 458571.3820658475">
  <g id="map"><path fill-rule="evenodd" fill="currentColor"    d="M 2463704.7138402406,-6174552.830231072 L 2474314.7971467287,-6175912.201378182 L 2474760.5203878656,-6175699.20885408 L 2477271.776780671,-6174896.761176327 L 2479022.0531344134,-6167105.289651545 L 2479326.4006222426,-6166622.621441514 L 2481881.0716164573,-6161478.815934121 L 2484283.568866757,-6154671.509960645 L 2488012.326530369,-6149559.472096057 L 2496209.11459595,-6147428.993244633 L 2506927.9570449437,-6141089.512362466 L 2513863.717918819,-6129182.187312571 L 2524321.6274813926,-6124240.048856096 L 2525071.6982103577,-6124109.688899941 L 2527126.43337142,-6124679.486541627 L 2534649.181920248,-6125110.944253594 L 2536105.9087767685,-6122709.8613193 L 2542117.495238078,-6116892.975209406 L 2544454.8705862644,-6111770.812537175 L 2543258.9652966717,-6106367.401126746 L 2544324.4041430545,-6100253.207605453 L 2546618.14225085,-6098086.255840823 L 2543846.064291116,-6093981.06792147 L 2524365.1534022926,-6073484.313589916 L 2516755.3530116645,-6068064.662077293 L 2511689.536944135,-6066948.651258963 L 2503731.8631447777,-6069099.82138482 L 2495502.458468395,-6067458.033721626 L 2488153.7022836762,-6063084.55190868 L 2481381.0244638138,-6061694.628347407 L 2476260.773165286,-6056492.266151827 L 2469629.471098731,-6045362.853996716 L 2461487.006944657,-6035947.435377276 L 2453257.6022682735,-6030108.4025028255 L 2448996.1808412164,-6024900.805946399 L 2448507.0429986706,-6006903.755607444 L 2443941.1627642936,-6001734.252883057 L 2437809.9078503815,-5996527.589238928 L 2434483.347507006,-5991933.40302363 L 2425145.089382831,-5964650.439062526 L 2418057.1547650415,-5955928.880545386 L 2411338.912176177,-5949241.962464663 L 2410230.0587283853,-5943142.1219665045 L 2410360.5251715947,-5936162.418002112 L 2402739.9267903594,-5922243.346227524 L 2392749.4477696265,-5907822.540423186 L 2390814.381061167,-5901910.119980781 L 2393042.8859473574,-5893940.6773805255 L 2383465.513556958,-5884782.790456223 L 2377932.155628097,-5880389.36185675 L 2373355.477403113,-5878292.315930923 L 2370496.3476015786,-5872565.913896672 L 2365789.202933385,-5858637.018286614 L 2367017.613514289,-5852394.754394537 L 2367158.989267596,-5846669.367882118 L 2359060.0510344226,-5843319.428324082 L 2356679.261084827,-5837048.658115731 L 2354624.637243255,-5829255.740945332 L 2351254.6622984707,-5825723.629439797 L 2342144.720449912,-5819253.048445247 L 2319565.5654933313,-5822067.182860185 L 2311020.9040190205,-5819897.5430365475 L 2308477.031015413,-5815269.300221018 L 2307955.276562065,-5811562.339979223 L 2305139.6726814304,-5808084.397214972 L 2299975.895462003,-5803721.177488146 L 2294703.4704195615,-5801767.916373546 L 2282951.805734988,-5807142.43196266 L 2257665.8060402772,-5801689.525028318 L 2253306.5347808124,-5797768.59510001 L 2249784.2747726226,-5800567.865932324 L 2244359.675986266,-5803117.2238319125 L 2219051.8576713605,-5806263.569218968 L 2209072.287960725,-5803760.382077112 L 2195722.6319858143,-5804725.4481815 L 2183362.272325583,-5807503.453200184 L 2174154.480644617,-5805251.249455741 L 2166001.218499936,-5794358.82740836 L 2161968.0020290054,-5790683.881384465 L 2158804.524739642,-5788334.101743833 L 2151836.1472549643,-5784920.1074100835 L 2146031.058449077,-5780810.914546212 L 2138269.0843145344,-5777853.50657703 L 2131355.142060855,-5778268.128380063 L 2124789.0732159046,-5782939.57046193 L 2122440.899877111,-5781875.098475225 L 2120375.366725442,-5777571.869591376 L 2116820.6014259406,-5773896.189521896 L 2107036.6200606287,-5769362.1885932535 L 2104536.2729779207,-5769416.926671007 L 2103970.992603673,-5769416.926671007 L 2096480.8606656475,-5766072.761637514 L 2084098.682385221,-5764237.030816887 L 2077891.3962590971,-5765533.761316435 L 2066607.1621163643,-5750477.691466585 L 2063150.2466492704,-5747740.958362548 L 2052431.4042002768,-5743142.402420832 L 2043636.7191496452,-5740859.570207442 L 2036103.061290719,-5742682.661519536 L 2033135.2836661707,-5742846.384644185 L 1999728.527118091,-5743609.986942337 L 1982280.532770135,-5746828.847825076 L 1971072.441159105,-5752708.357299249 L 1963636.6331325867,-5759278.694797438 L 1960005.7253013821,-5766541.553729793 L 1951341.50669396,-5770948.929505633 L 1937665.795930516,-5772512.257954046 L 1927012.1867031273,-5779731.154844445 L 1919391.588321892,-5792634.697706675 L 1909085.7411837417,-5802866.110785956 L 1896073.1606269528,-5810415.9517224 L 1885745.6061880975,-5821092.332516641 L 1878125.0078068622,-5834891.132981589 L 1864384.063821813,-5847331.532107017 L 1844555.2795242611,-5858416.007598259 L 1838576.1983542636,-5860823.98157452 L 1837402.111684867,-5864409.676170112 L 1827694.2728512578,-5878197.52314153 L 1823552.4085573128,-5883294.290357797 L 1823921.9892667462,-5890129.042522176 L 1821987.0338777776,-5894019.894392841 L 1818453.8645594902,-5896754.943784035 L 1816562.3237719305,-5906647.7675034115 L 1815453.4703241389,-5914040.928506041 L 1812681.3923644049,-5918808.756129696 L 1791471.9124225439,-5919786.534132141 L 1809224.3655778195,-5937492.558092021 L 1818051.6672392539,-5942432.686123035 L 1828303.0791464066,-5941580.002982227 L 1831586.1135688815,-5943181.95394596 L 1832455.7414309587,-5945741.0502405325 L 1834206.0177847017,-5951523.579518018 L 1835075.7569662693,-5956982.769583523 L 1835956.2941384441,-5962117.684444036 L 1834858.3500007498,-5965018.002531933 L 1829911.9797468416,-5965920.939182108 L 1827520.3918066388,-5978621.242748142 L 1830064.153490756,-5983424.705092535 L 1832608.0264943638,-5986772.812000198 L 1829466.2565057052,-6002255.913036393 L 1830412.0268994852,-6007530.157941396 L 1838413.1153002512,-6008357.262579429 L 1845055.3266769047,-6011666.635535003 L 1850469.1274726538,-6015435.5337062795 L 1851980.178240682,-6020219.085631175 L 1856426.501341947,-6030011.778243749 L 1852328.0516494105,-6042032.473866821 L 1829216.2329293839,-6049864.525486314 L 1828009.5296491846,-6052866.944931684 L 1833390.7138341316,-6056274.115116008 L 1839119.7714278076,-6061137.099946026 L 1842446.3317711826,-6064927.481359475 L 1846892.5435529565,-6065452.969726431 L 1853186.8815208809,-6063545.371471151 L 1864329.739910306,-6054820.632442183 L 1868602.0706474613,-6053561.167597128 L 1872733.0256313086,-6056096.48900805 L 1877146.62080228,-6056637.648109483 L 1889474.4751711998,-6056314.470160778 L 1899845.4442114641,-6058341.727226114 L 1897508.0688632778,-6067644.174489093 L 1897540.6854740803,-6074398.803976597 L 1895779.6111297307,-6079798.232655449 L 1896877.5552674246,-6085744.042715145 L 1901084.652782975,-6090380.4455368025 L 1902345.791294172,-6100805.130496328 L 1908835.7176074197,-6107845.924651667 L 1911868.7284535733,-6108861.590136124 L 1923294.2270301227,-6107577.884887498 L 1926001.183087743,-6105750.080216136 L 1927751.3481219944,-6105344.046662487 L 1945938.615208309,-6088175.476910171 L 1963147.4952900407,-6075289.025562495 L 1977247.221993917,-6068703.46489238 L 1997956.5434636436,-6068161.713329212 L 2019959.5087358789,-6067587.536925952 L 2056768.9681590365,-6069835.77109214 L 2084370.5245817383,-6071518.272711818 L 2086196.8321476926,-6074722.495198267 L 2090360.4037423427,-6082414.280927258 L 2087055.6620191624,-6089018.481490322 L 2087251.3616839773,-6096787.875896538 L 2091904.1824406637,-6106903.579783476 L 2105514.659982503,-6115315.305502282 L 2144585.240902654,-6119015.8678383585 L 2167055.6367167304,-6125290.002249118 L 2170447.4302817103,-6133866.49394256 L 2177883.2383082286,-6142337.487264563 L 2184688.532738894,-6144050.6380814975 L 2194015.8815529714,-6140159.871844989 L 2205245.6804647064,-6132684.998154274 L 2215105.69304223,-6128734.345911571 L 2220867.367246708,-6131283.768606182 L 2240706.949534867,-6143871.020153358 L 2263547.0373778674,-6156166.597137641 L 2279266.5739922766,-6189623.509634242 L 2280940.7078143163,-6194964.853668003 L 2297986.5048420364,-6198798.632363698 L 2322859.509225904,-6198117.091205462 L 2335611.1568962736,-6193750.334916153 L 2345199.43859677,-6191436.404942521 L 2359571.007497164,-6192224.112390587 L 2380280.32896689,-6199430.95227329 L 2387955.251259633,-6199225.611321054 L 2393890.917828221,-6194119.5800356325 L 2400402.662761664,-6189721.948122105 L 2404794.550631931,-6184342.927713994 L 2408121.1109753065,-6176763.889220371 L 2409914.8019304583,-6173906.089805349 L 2412806.4370233044,-6170034.38614207 L 2418024.5381542393,-6164708.635771322 L 2423090.4655412594,-6163285.736748897 L 2461421.7737230523,-6172547.038342165 L 2463704.7138402406,-6174552.830231072 z" /></g>
</svg>
