<?xml version="1.0" encoding="UTF-8"?>
<svg xmlns="http://www.w3.org/2000/svg" viewBox="-1156635.558102958 -7433190.479562318 485669.2385320163 727667.7046044227">
  <g id="map"><g><path fill-rule="evenodd" fill="currentColor"    d="M -1107427.7790732086,-7153722.237072459 L -1107900.6642700983,-7148325.472409815 L -1116146.4329116286,-7155125.074262517 L -1120152.3761073153,-7162530.864320422 L -1142775.0569847967,-7165931.421639568 L -1133349.858338312,-7173347.370521574 L -1128751.3614931325,-7171145.908564316 L -1112792.7106124996,-7170840.582647689 L -1108313.7709004323,-7167733.825132124 L -1107427.7790732086,-7153722.237072459 z" /><path fill-rule="evenodd" fill="currentColor"    d="M -803576.6648538458,-7379740.392714847 L -821193.1969108629,-7367241.256230705 L -823921.8602691877,-7362510.484017621 L -828884.4831687518,-7343474.926976418 L -829471.5821631956,-7338050.170970826 L -835140.7498708246,-7328060.821764573 L -840505.6814101156,-7316963.229476669 L -846745.5841470418,-7312667.848631409 L -856045.7710053659,-7309259.615531486 L -861334.5600129543,-7305871.752402529 L -867987.680699705,-7307574.944270249 L -876412.6737214124,-7307302.038586147 L -880603.5185913068,-7303538.800982897 L -880396.9096163943,-7300651.752942138 L -877880.3098880308,-7297323.822546955 L -870498.8257730196,-7292250.329069656 L -862312.9470175363,-7287658.795177582 L -863215.3028099065,-7283642.331657734 L -867601.7360251248,-7279093.291301429 L -895491.387289999,-7267812.011780731 L -903796.8231785946,-7261008.00402931 L -906677.6602808336,-7256518.999868946 L -903720.7919663826,-7249005.475694683 L -881478.6011084326,-7226526.674597311 L -877695.519533314,-7224086.794001086 L -874407.0304557899,-7211034.207229425 L -854795.6531237572,-7205588.92433521 L -846756.4934571395,-7197446.591003265 L -839842.55120346,-7195498.107281815 L -824813.3067514602,-7196203.222547919 L -818774.4470149067,-7193151.218241528 L -815360.9461492219,-7195470.177581677 L -813382.3535198623,-7199757.501579817 L -800728.4443624092,-7210811.092170896 L -796543.1654670545,-7215646.225549937 L -799059.765195418,-7222392.311572884 L -801788.4285537427,-7227523.404476314 L -794097.1422958538,-7237748.667474635 L -784769.7934817761,-7247856.63188147 L -780095.2654243851,-7247557.684635396 L -772126.793634421,-7241368.42197963 L -765571.5227800775,-7232732.302622698 L -764680.076297805,-7226042.376304978 L -763468.0296820478,-7221200.844235674 L -757260.6322364333,-7210857.542224368 L -753254.6890407465,-7207288.921507763 L -742448.7947499526,-7205217.39022442 L -739926.7403665403,-7201168.558939886 L -741856.3524199508,-7186226.332714413 L -740252.9064745646,-7181270.408482405 L -728936.1670405203,-7181010.964297335 L -716929.0241245764,-7182214.94852372 L -712732.8359191238,-7181650.10755322 L -708400.7266154129,-7184771.654431333 L -701720.4439729084,-7188144.618944627 L -692186.5975034093,-7186976.927311097 L -687479.341515725,-7180298.105736045 L -685386.757727793,-7173421.262105084 L -693594.3437839812,-7170840.582647689 L -702160.7125589958,-7172246.467971506 L -706340.6481187925,-7167733.825132124 L -706612.3789958189,-7159048.747627081 L -703715.289247924,-7147873.720949127 L -697986.2316542481,-7139956.40297528 L -693409.5534292642,-7122141.835883231 L -689610.107888999,-7102432.453889546 L -683707.1692507041,-7090549.782659138 L -682495.0113154561,-7075824.282504 L -683364.750497024,-7068599.564293438 L -682288.5136600346,-7055627.930232286 L -684799.6587333493,-7051062.802819286 L -682913.572600839,-7038911.182466751 L -675961.5590813082,-7013820.0279868 L -672928.5482351546,-6999878.25726819 L -670966.3195709416,-6969524.761078526 L -675874.5072395077,-6958180.758821203 L -682462.3947046538,-6947428.272896702 L -686767.3420526112,-6934706.115601597 L -690093.9023959866,-6920991.2546780305 L -692099.5456616089,-6898929.699386318 L -706367.810074546,-6873141.521957162 L -712439.2864219019,-6866747.34276826 L -719478.351783233,-6862813.667569925 L -704095.7792674553,-6844851.849381916 L -716668.0912381569,-6836856.979579363 L -730376.5299318945,-6834338.439182201 L -745541.5841626623,-6838825.976461627 L -754994.0560843914,-6838276.047726197 L -763620.2034259622,-6832476.735387365 L -767017.3403265006,-6828967.463585956 L -769735.0943747275,-6830659.927393156 L -775426.080702552,-6845366.769948104 L -779600.5616072998,-6830181.3339453535 L -788340.9227464244,-6825353.246445346 L -803304.9339768196,-6826380.635687051 L -828313.7481394549,-6822342.57306954 L -837934.6464507541,-6818023.467157541 L -841929.791655834,-6811274.999447057 L -844897.5692803827,-6803481.131948315 L -848800.2079886133,-6798880.653818044 L -853213.9144790757,-6796462.292288946 L -872520.8330037887,-6790728.281776305 L -876325.7331991029,-6788435.849890772 L -885267.1373386001,-6775891.42307967 L -896991.5287479294,-6768650.395617373 L -906699.4789010291,-6766478.356784069 L -915320.1715875509,-6773770.430906484 L -918864.1388964455,-6778153.981592603 L -922864.6274370834,-6780381.998957357 L -936105.63558898,-6780038.576729407 L -931925.7000291838,-6777784.327721827 L -929224.1986266124,-6772635.269188204 L -927914.3021784482,-6762777.811432584 L -929419.898291427,-6753125.378656914 L -935953.350525575,-6748228.901594745 L -943747.94127092,-6747325.264701865 L -956043.0677095463,-6737331.957316466 L -972317.0867075966,-6734607.938912056 L -981106.3171031794,-6725417.409356926 L -1034879.865047815,-6709904.71970381 L -1037929.2398591152,-6709721.435990828 L -1045354.1385755357,-6713668.758716437 L -1053404.2075522514,-6715416.063986064 L -1061416.0939436248,-6714184.180171151 L -1083951.8342987965,-6705522.774957895 L -1094866.376412605,-6707242.23584028 L -1080951.4400634456,-6728786.065121003 L -1062253.2165143902,-6739680.170847138 L -1060307.240495833,-6742669.085545407 L -1066422.2427640893,-6744133.158940769 L -1101954.1997109032,-6736561.031232438 L -1114298.3067254785,-6730116.422166306 L -1126636.959085005,-6728243.552668579 L -1120924.2654564758,-6738085.371794019 L -1105003.5745222033,-6751580.601238374 L -1096464.3677029423,-6757945.663910187 L -1091251.7212270563,-6760466.816669438 L -1085310.7113229102,-6768413.011610425 L -1068536.6451722165,-6777449.670265682 L -1122571.2373227624,-6758824.038649635 L -1136763.3592039968,-6761090.659241017 L -1140106.172193028,-6766284.970686759 L -1151161.9787406528,-6763850.0326653905 L -1155352.823610547,-6776428.473417261 L -1138975.6114445312,-6795518.20846934 L -1129430.8556649345,-6803746.136934415 L -1118097.752265744,-6808190.107349487 L -1107188.6648069846,-6814573.35739642 L -1103139.1956903976,-6822386.812888187 L -1108275.8109540718,-6824874.967318848 L -1140970.4567195468,-6822891.417792667 L -1156635.558102958,-6824556.130297451 L -1155787.6375415856,-6830757.391878646 L -1152901.3457842974,-6837628.607807856 L -1136676.4186816874,-6849398.541366821 L -1127897.9862767113,-6851290.7204604335 L -1120070.8902400546,-6850171.370110241 L -1112428.473238624,-6847151.427717088 L -1106215.7324574515,-6843209.486935938 L -1087827.3110512737,-6845473.321881542 L -1095502.233344016,-6852996.791384514 L -1096855.7670325714,-6868305.340918313 L -1102736.9983701617,-6873453.34500888 L -1095214.2498213337,-6880566.153837661 L -1086604.3551254186,-6884892.04117928 L -1072254.6048452212,-6899626.935917178 L -1067145.1515373006,-6901870.804429808 L -1038749.9984647342,-6905456.875850339 L -1008126.2291864862,-6913224.799632817 L -977768.8474497064,-6923958.265679194 L -993336.210320201,-6929958.425358885 L -1000793.7256474239,-6937884.761292514 L -1012773.5952881236,-6921869.567967472 L -1021399.853949185,-6915749.989920424 L -1045761.7905508206,-6912481.643800795 L -1053469.4407738561,-6914281.251824628 L -1064329.5476566665,-6919243.724797333 L -1067704.9772565,-6917353.290146838 L -1070841.2925901099,-6913520.210810597 L -1086963.0265247547,-6905680.371502356 L -1103911.0850395581,-6903802.285533785 L -1084207.3125301672,-6918186.435655864 L -1059203.8417030901,-6942619.115482302 L -1053627.0691728194,-6950360.140678328 L -1045696.5573292158,-6963828.14359374 L -1048153.4898105143,-6969831.3046989655 L -1053300.9030647953,-6973249.508377622 L -1035184.3238551347,-7001064.12246191 L -1028803.0453649011,-7006126.006279392 L -1017192.756433635,-7006941.178135121 L -1008680.7115701273,-7011363.184497298 L -1004930.1352863204,-7011381.376428797 L -1001560.1603415357,-7013031.260249044 L -994097.1903592638,-7021394.3524161475 L -1005609.6294581224,-7026723.414958987 L -1017497.103921464,-7029466.496438638 L -1054279.290069377,-7026559.931402492 L -1059116.9011807805,-7027186.543599638 L -1063677.3267601086,-7029757.304349301 L -1066634.1950745594,-7033464.873448813 L -1068862.811280241,-7042977.861817693 L -1071558.8580277632,-7045107.6145756375 L -1079864.2939163584,-7045107.6145756375 L -1088044.718016793,-7042195.331229296 L -1093757.522964813,-7042477.286818757 L -1099366.912105886,-7046646.103466529 L -1090420.0533113398,-7056393.675858836 L -1101954.1997109032,-7058690.982182984 L -1113629.7218637743,-7056776.389654959 L -1123353.92466253,-7059730.6270673005 L -1123658.2721503587,-7065851.920971921 L -1119250.1316344356,-7071968.959205613 L -1125022.603829521,-7077770.804089658 L -1126218.3977996223,-7085113.6755948 L -1120065.435585006,-7088728.147844059 L -1113347.08167665,-7087529.32548546 L -1099644.0976379612,-7092967.08988834 L -1082098.253457598,-7095604.822950349 L -1097149.2052103025,-7100974.7278942345 L -1103144.6503454468,-7105577.88033193 L -1103432.7451876197,-7112625.255359039 L -1102242.2945530764,-7118659.033987686 L -1084816.0075058248,-7128882.00390742 L -1066242.907064421,-7133390.959511395 L -1067612.5820791416,-7140131.485734928 L -1066313.483621584,-7147431.059808077 L -1085087.8497023422,-7149542.988198193 L -1103628.3335329434,-7144388.813574935 L -1101644.3975680256,-7158346.949002863 L -1097203.6404413003,-7170970.136369001 L -1096328.4466046835,-7179307.34135808 L -1097214.4384319074,-7188237.25209167 L -1105900.4756595248,-7184419.505563241 L -1106916.9339299581,-7197019.760736998 L -1110645.6915935697,-7205672.441075067 L -1123511.5530614932,-7199711.117032573 L -1123179.93229842,-7211136.438684532 L -1119472.881935513,-7219134.791612752 L -1112743.7300365504,-7222606.413574919 L -1106063.447394046,-7221098.481790498 L -1093665.1277874545,-7221247.355731476 L -1081706.9654474594,-7227262.430247961 L -1064470.9234099737,-7228808.943577082 L -1036999.7221109914,-7226917.911761907 L -1018116.7082072194,-7209956.003325662 L -1013241.1371494554,-7212986.54370342 L -1005691.1153253831,-7223705.041185858 L -1002147.1480164884,-7224887.543613402 L -973686.7617223171,-7220214.445996821 L -956015.9057537928,-7214046.689964657 L -951287.0537848946,-7215971.772238419 L -953836.2701240606,-7227867.949524365 L -959924.1104365629,-7236125.908710146 L -952276.2387800835,-7246960.015569642 L -942986.9612318573,-7254303.313887649 L -936779.5637862426,-7257968.255183846 L -922451.5208067498,-7262523.625847212 L -916200.7087597257,-7266819.544330935 L -912037.1371650758,-7280800.07206276 L -905411.1784340786,-7292466.347729416 L -941378.060631422,-7286401.0502011245 L -975594.6664750229,-7300237.946647528 L -970170.0676886666,-7310031.524496065 L -962946.2119726188,-7315597.155601995 L -950477.0931698827,-7319856.313230778 L -949297.6631649279,-7324976.166389645 L -942986.9612318573,-7329240.446086341 L -932556.2136250368,-7340440.686323275 L -936388.2757761044,-7355093.351748375 L -934333.6519345329,-7365828.2859032275 L -926821.7013763118,-7372828.652019586 L -924473.6393570096,-7382894.491663702 L -921125.2603934386,-7390309.745739029 L -905884.0636309684,-7392963.830179921 L -891235.4205179908,-7399864.833709255 L -885946.6315104022,-7399198.44406261 L -868645.3562513118,-7400788.746764347 L -862785.8322144261,-7398008.172968416 L -864123.001937835,-7410213.788086889 L -853496.5546661998,-7411806.348592073 L -849343.7810621568,-7409365.102812176 L -847517.4734962023,-7400712.481255275 L -842690.7716948969,-7395200.136672434 L -841201.4282275735,-7385622.161936481 L -844435.4820740998,-7378230.4346977845 L -849843.8282148001,-7372543.929868155 L -844897.5692803827,-7366729.1316606635 L -852567.036918076,-7356229.558584957 L -844288.7629852343,-7360700.558156756 L -832493.6836992514,-7370987.956739818 L -833107.9446494486,-7379407.955048944 L -835113.5879150712,-7390005.488895034 L -838396.6223375463,-7399579.314727544 L -836885.5715695184,-7410137.429952966 L -830254.269502963,-7416748.412924114 L -812827.9824557117,-7420070.291898894 L -819975.695640057,-7432090.749742785 L -813610.6697954792,-7433190.479562318 L -806696.7275417997,-7430685.124596085 L -796526.8015019079,-7421321.252546733 L -785943.8801511729,-7413981.266360506 L -774969.5594708088,-7408173.467828863 L -785514.4095556926,-7396551.58702527 L -798478.2321755139,-7388502.8840738945 L -803576.6648538458,-7379740.392714847 z" /></g></g>
</svg>
