<?xml version="1.0" encoding="UTF-8"?>
<svg xmlns="http://www.w3.org/2000/svg" viewBox="3812170.8052162724 -3950608.6032655574 182860.52002444072 514065.94687984185">
  <g id="map"><path fill-rule="evenodd" fill="currentColor"    d="M 3989771.034022768,-3950608.6032655574 L 3987032.7971882354,-3943436.4472255665 L 3984406.3251224584,-3939735.5130476668 L 3983570.649705074,-3934005.2046670006 L 3985242.0005398444,-3929349.295817768 L 3986197.121770851,-3923021.9094352215 L 3988226.5874075033,-3921231.2116993982 L 3988942.8170112665,-3917052.8787491084 L 3987152.131682366,-3912993.8218052895 L 3987987.8070997507,-3909651.136115584 L 3990256.053044155,-3906547.2256653383 L 3991808.0693847947,-3893892.695516596 L 3995031.325240713,-3887923.5309291077 L 3989897.9382422725,-3878850.4826438674 L 3988942.8170112665,-3871448.725169009 L 3983824.569463574,-3860170.5940897483 L 3977943.338125983,-3859375.8043996305 L 3964223.990122148,-3853181.032182373 L 3962365.065945391,-3851321.3562791473 L 3959951.770704483,-3847731.774281636 L 3959527.754764052,-3844956.4756627376 L 3957570.9807548877,-3815339.9046961865 L 3950102.5561175672,-3816150.9956795936 L 3941003.523579106,-3822609.9225554806 L 3939231.5399246584,-3828202.3165141675 L 3936491.967256236,-3830109.977529841 L 3930002.040942989,-3830831.7824102216 L 3917696.005194264,-3833668.341205158 L 3903422.286126279,-3823904.6357500646 L 3897356.264433972,-3807784.857218995 L 3896127.8538530683,-3800260.2694994 L 3891279.3334315666,-3784454.6983717126 L 3892996.9931745073,-3774750.4762902255 L 3893823.206435174,-3762208.3096198956 L 3895040.7077059806,-3751932.7859937176 L 3893768.7712041764,-3745787.0854254034 L 3891040.219165343,-3742491.524852201 L 3891855.5231159125,-3740143.530647762 L 3894290.6369770155,-3739286.3380943523 L 3902106.9350230657,-3742056.3515521064 L 3910336.228379958,-3739279.9188774955 L 3918228.6689577107,-3733984.5699778995 L 3918859.1825535633,-3730538.7944126683 L 3913260.591403098,-3728506.3274060898 L 3900041.4018713967,-3720494.5752181844 L 3890724.962367417,-3711218.138940376 L 3888300.64649692,-3702631.053199361 L 3882017.217839094,-3684398.8889180203 L 3882876.0477105635,-3680655.1175778243 L 3885919.9678668147,-3678459.0155359446 L 3907444.593287112,-3680400.4976657387 L 3926979.828087442,-3687780.754912718 L 3941677.4517763685,-3695624.2880321383 L 3946341.181843153,-3695152.675165212 L 3943253.8470854927,-3675079.851782364 L 3943329.878297704,-3675009.872385977 L 3940786.116613587,-3662722.6188475224 L 3941786.210918874,-3660631.377729351 L 3945080.1546514467,-3649958.6284101424 L 3938818.4332943247,-3630447.4286066242 L 3931817.4391988455,-3614607.378478264 L 3929338.9107363326,-3607093.564850299 L 3922522.70699557,-3590417.2901637186 L 3915554.3295108927,-3571074.9922516146 L 3911836.4811573788,-3557767.902640817 L 3912673.6037281444,-3553047.646515632 L 3910945.0346751064,-3528680.1662281915 L 3911945.240299884,-3521776.9632565943 L 3903770.159535008,-3500706.9690286857 L 3902128.64232377,-3490307.253747037 L 3898845.6079012956,-3476207.7812504643 L 3893225.309450124,-3446480.246921825 L 3885528.568537186,-3436542.6563857156 L 3881691.05173107,-3447617.572933345 L 3872928.983291241,-3479420.9986757273 L 3866689.0805543144,-3501240.3051452804 L 3858177.035690807,-3528183.4140119078 L 3843827.285410609,-3561014.5891946326 L 3842500.913677807,-3568936.0579993944 L 3839402.6696100486,-3580429.8272113004 L 3829499.242431116,-3610409.9785381933 L 3821432.920808744,-3632102.4124734164 L 3812170.8052162724,-3659830.64297926 L 3823639.7183942306,-3670849.0961179473 L 3823846.216049652,-3679948.5049450784 L 3843370.6528593744,-3701202.6585984365 L 3843207.5698053627,-3703294.3072776417 L 3838000.3779845266,-3708939.9585375786 L 3838739.5394033934,-3709909.8843361 L 3860383.833276293,-3749627.798027456 L 3874342.295546352,-3789110.7234672057 L 3887485.3425463503,-3844188.4795995345 L 3896834.3986611334,-3872312.023550955 L 3904759.4558496876,-3890949.3959251153 L 3908270.8065477796,-3906417.819850331 L 3921044.2728383443,-3907520.7381500104 L 3930567.321317237,-3905866.46616592 L 3941960.091963493,-3905354.0627028137 L 3951080.9431221485,-3911173.960374198 L 3955462.033001809,-3928599.449128589 L 3960669.224822645,-3931394.6143211704 L 3963300.0383485635,-3927286.634953527 L 3966006.8830866925,-3931869.2840255755 L 3977943.338125983,-3939536.9869966493 L 3983846.276764278,-3944488.894446078 L 3989771.034022768,-3950608.6032655574 z" /></g>
</svg>
