<?xml version="1.0" encoding="UTF-8"?>
<svg xmlns="http://www.w3.org/2000/svg" viewBox="7588097.431383634 -4231477.582668317 3248137.543223385 3478474.562339027">
  <g id="map"><g><path fill-rule="evenodd" fill="currentColor"    d="M 7588097.431383634,-2736032.030317673 L 7595794.172296571,-2741292.7851067795 L 7601175.356481519,-2744634.489555262 L 7612165.929807537,-2747423.6430293266 L 7624124.092147533,-2749416.181271318 L 7635027.724951243,-2749338.945453012 L 7650334.154935318,-2749106.874814649 L 7650779.878176455,-2785809.23904247 L 7652062.612668866,-2789029.1870495216 L 7654215.086342845,-2790889.9958416456 L 7656682.816814751,-2791683.2434392464 L 7658780.966577221,-2791116.581518336 L 7661933.534556488,-2785612.524774423 L 7665847.193894306,-2785916.5720873843 L 7669999.856178858,-2789082.9256872404 L 7679327.204992936,-2786721.5325310924 L 7686784.83163965,-2788337.4408520656 L 7694350.994789886,-2786178.863470853 L 7707211.512922253,-2786131.240404245 L 7730410.272164589,-2787001.7887239824 L 7743292.497597659,-2786721.5325310924 L 7751641.4594071545,-2780873.209098825 L 7760773.108556419,-2774455.1736845723 L 7770676.647054842,-2773555.5567644583 L 7784993.780724238,-2774306.3117436483 L 7794712.528867944,-2776767.1090771183 L 7799615.373200951,-2782750.8643776327 L 7803300.604943663,-2788480.575068453 L 7824542.590176835,-2796885.189138796 L 7846828.306955687,-2803712.3893458736 L 7853231.292746624,-2804464.6060654977 L 7855264.209287491,-2800489.3851935393 L 7854242.296362008,-2793806.7915438097 L 7856851.40258722,-2787448.98795746 L 7865776.554081064,-2783424.5366068427 L 7872103.508659789,-2782434.915085142 L 7877778.131022467,-2783341.02798801 L 7881985.228538017,-2785362.0870636827 L 7891019.027854872,-2795351.8396551735 L 7895682.757921656,-2797625.097772739 L 7901770.598234158,-2797463.9156503635 L 7908586.690655432,-2802238.1362490333 L 7908728.0664087385,-2805891.2657053503 L 7904379.59313988,-2807646.6208286947 L 7900705.159387777,-2812913.641778751 L 7901379.198904531,-2817202.7289561685 L 7900324.669368246,-2823250.0279922434 L 7901053.032796506,-2828988.8078954765 L 7903944.779208842,-2833294.2740314608 L 7909010.706595864,-2837439.473361736 L 7905988.4937403165,-2846008.5780703607 L 7898215.721615167,-2862436.234052743 L 7890073.257461093,-2883483.2661878336 L 7881474.272075277,-2901051.023732864 L 7870570.639271566,-2916462.3766223886 L 7864950.340820394,-2927778.4303154484 L 7865526.530504742,-2952805.6565104173 L 7864548.143500159,-2957888.5422156816 L 7860808.476526449,-2960970.5917848204 L 7855764.256440134,-2962707.802397189 L 7848676.321822344,-2960156.290883012 L 7842295.043332111,-2959667.7566748513 L 7828564.897337668,-2960210.5185625064 L 7821824.836128608,-2962780.2009216794 L 7803518.011909181,-2987945.6231720764 L 7801115.514658882,-2997847.2832690976 L 7801017.664826476,-3007997.8418667596 L 7807127.2124396805,-3025708.6374000655 L 7808975.3386258315,-3042191.6836927393 L 7809823.259187203,-3057588.44878506 L 7808801.346261721,-3061942.7448769384 L 7805126.912509618,-3067118.7807853054 L 7798973.950295,-3070941.234371841 L 7782504.3429516265,-3071859.009753628 L 7762969.108151297,-3076953.4703695322 L 7747901.792433446,-3085930.923023059 L 7737476.499481674,-3091359.1364207556 L 7734617.36968014,-3094889.743354422 L 7733367.251798531,-3099060.658939459 L 7736095.803837364,-3117744.564408266 L 7740824.767125755,-3138841.017417715 L 7744270.884602242,-3145303.8246446704 L 7750239.056462142,-3151995.8435888644 L 7754663.5609432105,-3156556.822713473 L 7761729.788260296,-3162593.4709081305 L 7780819.299819488,-3182771.5820050486 L 7797908.62276811,-3210540.081748425 L 7808453.472852993,-3229952.3442604076 L 7813954.214171051,-3235726.1337557575 L 7819563.714631615,-3240671.751051112 L 7827814.826608703,-3246659.33689539 L 7837305.258476794,-3252132.262682182 L 7846752.164423983,-3251892.158129235 L 7855731.639829331,-3246930.1071311343 L 7862395.669826181,-3241090.0780904503 L 7864624.174712369,-3228231.2579493932 L 7869353.13800076,-3219880.31288296 L 7874451.570679092,-3214850.1571260146 L 7881191.631888152,-3212412.472543441 L 7889758.000663168,-3213020.312683187 L 7924251.903358334,-3227764.1056062784 L 7935981.749422711,-3230739.2491952465 L 7964126.878918956,-3232577.63590853 L 7983466.414054472,-3238272.54089406 L 8000566.6463131895,-3244246.719733206 L 8002632.068145368,-3254958.854724426 L 8009219.955610515,-3271345.0775166675 L 8029309.672794485,-3292709.676509095 L 8034951.678546361,-3302255.0442361822 L 8041039.518858863,-3320499.861859587 L 8047507.737871406,-3337170.9169065575 L 8053062.914420462,-3344106.710163431 L 8084643.252083098,-3362433.9951440026 L 8115560.459539076,-3379307.0479793386 L 8120615.477615999,-3386955.440292246 L 8140607.344967564,-3422046.428800015 L 8152054.550844817,-3445917.955703427 L 8155022.328469366,-3453605.57429175 L 8161642.832545314,-3474404.098401351 L 8168806.909694807,-3495117.1476852554 L 8178362.46346501,-3499910.090728676 L 8199571.943406871,-3507818.4939395557 L 8216400.333469072,-3515555.926014553 L 8225010.116845496,-3524392.0207625595 L 8230228.2179764295,-3532126.928762862 L 8229249.830971848,-3539803.782857858 L 8224586.212224556,-3548895.9737178218 L 8225575.508539236,-3554301.622852201 L 8226434.227091215,-3559633.9317807346 L 8238642.413007531,-3570526.0423437236 L 8261645.583904544,-3602784.8163254787 L 8275419.144500395,-3618932.935933153 L 8279985.024734772,-3618913.8664536714 L 8294389.210245968,-3627512.3724015905 L 8308086.628310117,-3637252.262023263 L 8307303.940970351,-3641680.861920555 L 8305586.3925469015,-3647412.5124296034 L 8297726.568579949,-3649990.360647169 L 8295269.747418142,-3656875.846213492 L 8297193.904816504,-3666740.647995492 L 8303759.973661455,-3693336.3590673823 L 8302412.005947439,-3700979.474808958 L 8294410.917546674,-3725688.114487131 L 8296193.810511218,-3732520.538985955 L 8299487.6429243,-3739516.6461279606 L 8308412.794418141,-3748846.761612225 L 8319957.850127802,-3756595.3797282823 L 8356919.371975385,-3775045.583011164 L 8364409.615232899,-3777073.159694332 L 8377248.31474507,-3781745.511831424 L 8385108.02739253,-3791603.159659586 L 8386086.414397111,-3800015.8911467777 L 8382651.206230722,-3805243.861192042 L 8374976.172618488,-3812256.760201715 L 8360550.391126079,-3818616.9093413414 L 8347548.608559898,-3824136.5750198276 L 8325458.591445861,-3823556.735333058 L 8313978.768957806,-3828305.393385355 L 8310869.72689944,-3831624.656733224 L 8309260.714979514,-3843349.701402816 L 8311478.421875097,-3863182.176393265 L 8308043.213708709,-3864933.83801485 L 8303129.460065602,-3862594.067251297 L 8291453.9379127305,-3864946.812296272 L 8277115.096942631,-3864642.9795576544 L 8271646.972235375,-3870171.180969727 L 8274375.524274209,-3876847.334585877 L 8273571.129633737,-3885748.277367571 L 8271440.363260462,-3894215.2029517503 L 8269211.858374272,-3895984.5066673746 L 8262363.038022707,-3898000.3521203725 L 8251698.630804711,-3905321.5151473177 L 8243110.4434095,-3914354.4835721883 L 8238066.334642676,-3920477.764115906 L 8236511.757953749,-3924700.306598431 L 8237000.895796292,-3927494.6681214906 L 8243251.819162808,-3935361.1320664072 L 8250752.749091441,-3946402.631141097 L 8253514.029060567,-3955904.008934393 L 8254340.242321236,-3962792.316316176 L 8252253.001868862,-3967878.1321698455 L 8245404.292836786,-3974108.058314537 L 8238088.04194338,-3979551.42770005 L 8235141.971619535,-3984285.3726730724 L 8235022.414486425,-3991439.063388848 L 8237751.07784475,-4000395.6499041887 L 8246371.770531272,-4007160.1335713966 L 8261645.583904544,-4013581.5669151503 L 8265570.04123297,-4021566.06204692 L 8265080.792070934,-4027484.3218239895 L 8260906.311166186,-4029260.989259418 L 8250176.670726585,-4029300.333651859 L 8232065.434852483,-4031326.5519397776 L 8228999.807395527,-4034586.204666655 L 8226967.00217415,-4038969.0711655826 L 8226945.183553956,-4043314.098359574 L 8230771.791049974,-4048258.377091433 L 8235359.378585055,-4054519.1690570707 L 8234565.78193519,-4060618.8708065767 L 8229249.830971848,-4067517.97045062 L 8216487.273991381,-4072571.616919244 L 8214769.6142484415,-4079701.9067450934 L 8216726.388257606,-4085657.0387052046 L 8220955.304393351,-4094154.0066032563 L 8224629.626825964,-4100064.0813371167 L 8233326.462044189,-4116887.844512389 L 8243860.514138466,-4120568.8931409777 L 8256786.265492436,-4126016.6865006047 L 8271081.691861127,-4132042.892731674 L 8293073.747823264,-4127524.5932216584 L 8303781.792281649,-4125322.3294049823 L 8325447.793455254,-4120172.266588124 L 8343602.332611276,-4115857.1183919148 L 8362148.382416417,-4114634.767750256 L 8369834.214019257,-4114932.157165325 L 8378357.168192862,-4109839.6057100277 L 8399338.220539615,-4101099.981106669 L 8416373.108257238,-4096508.343695721 L 8427907.36597629,-4096554.5412236215 L 8444931.344383817,-4104280.8408808834 L 8453410.772636522,-4111351.966112821 L 8464847.180523168,-4119114.8448481783 L 8479479.57099049,-4118817.4798701787 L 8511125.14187473,-4130785.8500425327 L 8517049.89913322,-4128721.798810371 L 8526453.390479,-4128040.5490176408 L 8537791.837213749,-4134961.1802316336 L 8543662.159241242,-4143184.2695199326 L 8544608.040954512,-4147291.369525691 L 8547434.442825753,-4150326.3011798086 L 8559544.778909663,-4155556.687796999 L 8571698.640914472,-4162792.9420956257 L 8575014.291947749,-4172358.0354770734 L 8577014.591877813,-4178827.795619719 L 8590364.247852724,-4187216.2956721317 L 8604213.95098028,-4195937.291479312 L 8618737.582305098,-4205078.054465104 L 8635229.008268666,-4215472.987792706 L 8649187.470538726,-4224283.03145441 L 8660591.15049508,-4231477.582668317 L 8660939.023903808,-4231050.310527358 L 8661873.99630698,-4229922.118493316 L 8666396.239300966,-4226678.4597493885 L 8671223.052421764,-4225070.2442656215 L 8676897.67478444,-4228160.062888287 L 8683974.811411623,-4230703.172694168 L 8687670.952464432,-4229274.67717625 L 8688203.616227878,-4225123.674568229 L 8683942.19480082,-4205670.8748183325 L 8684279.158899453,-4198046.981355043 L 8691356.184207145,-4182230.2936714874 L 8700563.975888109,-4156610.9095345987 L 8709206.487194827,-4132644.9736644016 L 8714315.829183256,-4116947.252514745 L 8719316.523348672,-4110519.750466616 L 8740330.303625718,-4103970.621846586 L 8757593.507618958,-4098592.82435191 L 8767866.626826813,-4089782.816848847 L 8779194.275570957,-4081335.275424198 L 8787162.74736092,-4076159.189243098 L 8790913.212325238,-4069511.532900139 L 8791674.1923643,-4063512.0993153607 L 8790967.536236744,-4059488.1213758737 L 8786640.881588083,-4054203.719297847 L 8766746.864068925,-4040583.409134681 L 8764376.983429426,-4036265.624909319 L 8763811.703055179,-4030598.6404621736 L 8767714.4530829,-4013719.1510272264 L 8770171.274244709,-4003155.867039215 L 8770856.111752069,-3981947.5768506536 L 8772182.372165378,-3961821.1035110326 L 8779215.982871661,-3952666.609802273 L 8784966.74776604,-3946754.1926320684 L 8788499.917084329,-3941391.2726374986 L 8795642.175613625,-3934053.94658949 L 8801642.964084327,-3928586.537226561 L 8806763.215382855,-3925376.177942912 L 8809285.269766267,-3918146.296148415 L 8807785.128308337,-3909661.90071483 L 8805686.978545867,-3902279.7150970367 L 8806328.401451817,-3898311.554717684 L 8810437.64913496,-3895498.419255654 L 8816753.694403589,-3888144.5274304445 L 8817568.99835416,-3877377.9752101745 L 8817123.275113024,-3869983.6340541877 L 8819612.824205123,-3863330.8298270134 L 8820275.954411779,-3855958.2630468984 L 8818340.887703318,-3837576.0742966942 L 8818623.527890444,-3830122.781659691 L 8818656.144501247,-3829265.5954581467 L 8813155.403183186,-3828756.51370383 L 8808415.64190419,-3825927.5941728363 L 8801697.287995834,-3814374.367127869 L 8793978.839782193,-3811336.545676443 L 8785216.771342361,-3810422.7277956298 L 8776193.881335605,-3817509.4859376377 L 8768779.78060979,-3824909.606674231 L 8766801.299299924,-3829027.22052129 L 8764931.465813067,-3836834.3115375196 L 8760941.775263038,-3841936.5864198646 L 8753223.327049393,-3839549.7116443557 L 8741515.188285721,-3838472.5650125723 L 8728839.571827563,-3836744.103884008 L 8726524.015099574,-3835028.836274986 L 8726295.698823955,-3831747.1701789848 L 8729393.942891715,-3824729.2413171935 L 8732046.575037828,-3815584.4654849134 L 8733601.040407265,-3802800.0727401595 L 8737036.359893143,-3794359.5869384306 L 8738123.394720742,-3791667.3686226998 L 8758365.285648627,-3766336.2843804355 L 8763692.145922067,-3761182.869542474 L 8764790.090059761,-3757793.356845442 L 8763039.92502551,-3748571.4376711682 L 8759398.107884206,-3737808.829002129 L 8760115.562002368,-3729279.6378679466 L 8766844.713901332,-3719855.888086199 L 8772302.040617982,-3713279.611446069 L 8766975.180344542,-3704423.2805640544 L 8763822.612365277,-3694177.526792974 L 8767366.579674171,-3689577.066526703 L 8765692.44585213,-3674869.784477102 L 8767279.52783237,-3672095.852015328 L 8771041.013426274,-3670944.45479376 L 8776933.042754473,-3671968.695354881 L 8783053.49967778,-3675856.167692445 L 8788228.074887812,-3676619.760178325 L 8791337.228265667,-3675499.736543812 L 8795479.092559613,-3686646.927417533 L 8799110.000390818,-3688226.644533572 L 8806165.318397805,-3685150.3629265097 L 8820134.578658473,-3664184.681071581 L 8831951.47656465,-3646485.612166758 L 8835386.68473104,-3643134.1917409324 L 8837484.83449351,-3641090.714798906 L 8849138.538026186,-3631931.125344628 L 8857183.152347853,-3626136.937834674 L 8868184.634983972,-3628234.9390805126 L 8882697.468318181,-3628628.0455054077 L 8891296.453703998,-3622962.0525391344 L 8896275.440568708,-3619015.1815065877 L 8896492.847534228,-3618457.8940809118 L 8897155.977740882,-3618312.219948451 L 8914625.679389544,-3604461.3867040793 L 8922191.953859271,-3605486.3564921613 L 8927192.648024688,-3601519.7638972965 L 8928616.758270405,-3591744.5149048646 L 8926290.292232316,-3581598.0719247125 L 8926844.774615956,-3576824.6430261633 L 8934606.7487505,-3575909.3206404587 L 8951152.387306087,-3569207.3941949266 L 8965784.8890929,-3563271.895818966 L 8973340.254252529,-3561380.2763759336 L 8981493.51639721,-3556986.405949395 L 8988690.098838013,-3549960.5337605258 L 9002800.734851988,-3540955.628940589 L 9015258.944344627,-3534064.5502213757 L 9018020.224313755,-3524712.615752712 L 9013106.47067065,-3526711.946430801 L 9006594.725737203,-3525668.268623166 L 8999974.332980746,-3521525.566074021 L 8996832.562992088,-3518898.615076522 L 8981710.92336273,-3502821.80989038 L 8973785.977493666,-3497877.1904536188 L 8966676.224255681,-3490677.201136363 L 8950293.557434615,-3468925.856614931 L 8940835.85349682,-3448661.1802942525 L 8933932.709233748,-3429638.865187264 L 8934052.26636686,-3416185.203553896 L 8931497.595372643,-3400441.3445988735 L 8924431.36805556,-3391478.211118889 L 8920083.006106194,-3388429.7752744067 L 8914973.552798273,-3374906.4456164087 L 8911310.028356265,-3359149.990778684 L 8913429.885419443,-3354048.9501953204 L 8922213.661159975,-3347176.0275232513 L 8930780.029934991,-3340480.3200500533 L 8941716.390668994,-3333255.1230266565 L 8952152.592930865,-3326355.929784892 L 8958892.654139923,-3325451.970961101 L 8960751.578316681,-3329371.556169341 L 8963208.399478488,-3333100.3421748662 L 8970905.140391426,-3331124.2535119713 L 8980286.813117012,-3324356.1188452784 L 8986396.36073022,-3318989.8617521445 L 8989135.82207915,-3317189.2129236762 L 9005311.991244795,-3308177.324569016 L 9018726.88044131,-3300710.020299961 L 9035685.625627227,-3291276.919941069 L 9039838.399231272,-3285510.253178337 L 9043480.216372572,-3279375.940778319 L 9051481.304773342,-3271227.8850767566 L 9070983.922962869,-3256818.9353432176 L 9087627.522670351,-3246511.600474816 L 9101172.878310079,-3238112.5497858105 L 9111793.870926663,-3232227.1900761095 L 9116718.422560375,-3233155.6456469656 L 9122099.606745323,-3236279.7148204553 L 9126828.458714223,-3238106.502914629 L 9132318.402041674,-3236445.730543288 L 9140656.454541072,-3231956.5860676304 L 9160224.305952204,-3218313.961569537 L 9178444.189649321,-3207661.2071789657 L 9198316.499867773,-3209576.3250601897 L 9203599.834220313,-3207863.705538925 L 9207328.591883924,-3198218.8709826656 L 9209839.736957237,-3188464.1782190623 L 9232038.513213778,-3182024.180156666 L 9246649.196380397,-3179120.649401247 L 9263325.30137919,-3173823.7298488356 L 9271772.113021094,-3169899.7518881047 L 9280642.94060343,-3174821.7325243917 L 9282262.63919447,-3179157.402323132 L 9289296.249900755,-3181730.0985791865 L 9300928.246132724,-3180603.0110584116 L 9322670.38983803,-3173027.786772646 L 9331780.33168659,-3170756.6913166014 L 9339390.020757725,-3177938.5869943127 L 9353598.506604107,-3181270.671361549 L 9360969.08140902,-3184995.5830407506 L 9376416.775826912,-3177026.1449892065 L 9404366.205658343,-3167041.6222826624 L 9418759.481859442,-3160837.934417115 L 9422162.184734518,-3154722.5350899436 L 9423727.559414053,-3148939.7484129826 L 9423618.91159104,-3134933.0060610985 L 9427130.262289131,-3128597.0915211644 L 9455166.632642873,-3114342.3342709085 L 9464396.13162454,-3108302.1100634276 L 9471875.46557196,-3106358.199533518 L 9476115.179698313,-3106114.49644282 L 9479028.633411353,-3104323.3516564025 L 9481539.778484669,-3096204.8451217846 L 9483507.461803932,-3094335.7837905027 L 9488899.443979485,-3092314.7569514373 L 9494769.877326468,-3091152.214293995 L 9512967.94240339,-3098159.4564881623 L 9525437.061206125,-3103476.58298024 L 9534340.505399263,-3102124.2538126614 L 9540069.451673446,-3096217.0652806167 L 9540906.574244212,-3087616.307072448 L 9544233.134587588,-3078534.4211248187 L 9550603.503767725,-3074101.976392295 L 9557408.79819839,-3073609.5815367103 L 9574291.512172097,-3079732.4243359203 L 9587880.393732723,-3075044.3592995363 L 9600371.219836164,-3073336.063859319 L 9614231.720954325,-3070400.2812010604 L 9619612.905139271,-3068145.7008599797 L 9633995.272030272,-3060642.996240923 L 9651552.025520734,-3053065.4089479954 L 9658357.319951398,-3053921.2414702615 L 9686622.006580755,-3068036.3101946465 L 9689013.705840448,-3066316.7842064826 L 9694764.47073483,-3052834.676099982 L 9703363.456120647,-3047991.511054413 L 9716789.143307768,-3043774.882780454 L 9730834.546100138,-3051559.993801732 L 9741912.171267958,-3049326.5274904915 L 9755305.241844278,-3048598.355199514 L 9768154.850666547,-3052349.1049916986 L 9779330.325666774,-3053296.0211916966 L 9795571.616734529,-3046517.0724709057 L 9799115.584043426,-3048088.6938707912 L 9802224.737421282,-3052440.10170382 L 9808529.873379814,-3071895.482992349 L 9814095.847919477,-3089131.6413498945 L 9813617.619387029,-3099419.9835942583 L 9808475.549468305,-3114537.4851231133 L 9795354.20976901,-3134230.9301735703 L 9794375.82276443,-3140215.271040612 L 9798800.327245498,-3174650.315216824 L 9803670.554967703,-3194539.363471088 L 9807866.743173158,-3203966.984532453 L 9812476.149328435,-3217392.6769238613 L 9813291.453279005,-3223615.8236913634 L 9812845.730037868,-3229233.215765016 L 9808334.285034487,-3232669.8135981527 L 9807127.58175429,-3236943.915810542 L 9808247.23319269,-3240530.253579143 L 9811823.817112384,-3242536.0514331986 L 9826749.757076928,-3245046.802578833 L 9843534.73253772,-3250445.189343729 L 9850231.26782588,-3253320.741875506 L 9855297.195212899,-3256209.1398577807 L 9860450.06312223,-3260749.3306107605 L 9865255.057622831,-3260558.411609003 L 9880300.554720487,-3253979.595641381 L 9885583.889073027,-3249848.036540768 L 9888355.967032762,-3237288.310405915 L 9890606.290539147,-3232423.88188571 L 9888497.342786068,-3219677.6369828265 L 9879496.048760524,-3188825.8096848107 L 9881257.234424364,-3177283.378566048 L 9888790.89228329,-3168877.6613506814 L 9895346.051818144,-3163015.5693652895 L 9894259.016990548,-3160684.979092717 L 9880757.18727172,-3150748.864859222 L 9878354.69002142,-3145426.078819384 L 9881344.174946675,-3140251.921320142 L 9886681.833210722,-3135848.820989105 L 9889084.330461022,-3131666.995330025 L 9891584.67754373,-3118659.3833975866 L 9898433.497895295,-3115006.9569840427 L 9911989.651525628,-3106620.2505622176 L 9923936.904555524,-3100522.335355659 L 9944407.111759027,-3104573.1375261117 L 9950201.402574308,-3101819.6233501663 L 9960267.912807252,-3098932.8208873174 L 9968116.827464106,-3098037.6127352817 L 9972682.707698481,-3095882.1369899996 L 9975248.288002795,-3093793.939287434 L 9974911.212584672,-3091164.305443607 L 9975335.228525104,-3088462.252166211 L 9986575.936746936,-3087774.575226907 L 9992467.966075135,-3086235.211940531 L 10012427.216815894,-3089022.0891800006 L 10032440.791468164,-3092844.3276203834 L 10041692.109070031,-3104433.02233089 L 10045736.123531567,-3105261.5063665933 L 10057259.360621033,-3109776.8503775243 L 10068587.009365173,-3104841.1444613356 L 10081077.835468616,-3098080.2641650247 L 10087807.09868707,-3096040.497480057 L 10101091.410120884,-3094975.0273729004 L 10114017.161474854,-3095729.888141889 L 10144977.894851735,-3098932.8208873174 L 10161969.256648457,-3097252.0762056443 L 10177580.145439852,-3106876.191763353 L 10180819.653941426,-3106851.857807368 L 10187690.181593696,-3099419.9835942583 L 10204833.828453824,-3098756.219195851 L 10213976.386913184,-3102343.561871892 L 10223814.692190003,-3105115.3951848303 L 10230109.030157927,-3105998.82317636 L 10235131.431624047,-3106096.2781524216 L 10241208.362626452,-3105365.070288953 L 10246926.510910029,-3107845.091675697 L 10249568.233746044,-3112836.654685616 L 10248981.134751601,-3120373.0338065904 L 10244828.36114756,-3128572.594991218 L 10241240.979237255,-3133382.3593241884 L 10240534.323109698,-3135958.737811435 L 10241675.793168293,-3141894.9031737894 L 10244860.977758361,-3150272.185657807 L 10250676.975874346,-3159828.660779303 L 10246393.847146584,-3169110.175945069 L 10240371.240055686,-3179831.139562535 L 10235935.937584009,-3180848.0168176536 L 10224836.605115484,-3178379.5908318586 L 10212791.39093369,-3178869.5279530217 L 10203333.575676404,-3185277.561344485 L 10196278.368988907,-3193319.1901345225 L 10194560.709245965,-3200071.2421173286 L 10196604.42377744,-3208311.8270499115 L 10199746.193766098,-3215894.1493557026 L 10200420.233282851,-3218743.9323863834 L 10209399.7086882,-3218725.4400927415 L 10221879.625481542,-3217042.6200983897 L 10231304.824128028,-3214936.053014727 L 10238903.715208558,-3215022.0752055245 L 10252666.477813805,-3224740.275277598 L 10258938.997161532,-3225324.1204691175 L 10266135.690921826,-3227173.988267812 L 10269277.349590994,-3229005.726242666 L 10271462.439875776,-3227585.8592865723 L 10279354.880453527,-3226393.456253935 L 10287573.375819813,-3226878.9391561206 L 10294900.424703827,-3229565.077780628 L 10302249.292208035,-3233752.0665525235 L 10315348.813287133,-3242536.0514331986 L 10317957.919512346,-3247582.59984015 L 10317925.302901544,-3252218.3936591945 L 10315490.189040441,-3255260.693678654 L 10313022.458568536,-3256732.6490039015 L 10314033.46218392,-3260749.3306107605 L 10319523.29419188,-3267534.823420102 L 10339558.687464347,-3277765.6963273804 L 10356604.484492065,-3290344.470740571 L 10365986.15721765,-3299789.317797316 L 10370280.306575002,-3311238.3695884654 L 10375704.905361356,-3323668.9591660835 L 10380759.923438279,-3328572.657471519 L 10392848.552221484,-3331687.9866933837 L 10426733.537302012,-3336278.5320906914 L 10437398.055839498,-3341298.469148392 L 10453150.20906471,-3350624.492397215 L 10461096.97355397,-3357939.751671108 L 10465510.568724943,-3363880.6604975914 L 10465999.817886977,-3370494.973368878 L 10476446.818139454,-3372576.330174523 L 10485567.66929811,-3383273.7022261294 L 10496677.911076732,-3394066.9758774578 L 10516137.00334536,-3403193.7372460198 L 10533389.409347992,-3415468.2152949315 L 10539401.107128793,-3413504.7427002243 L 10545673.62647652,-3407709.621083888 L 10548978.47951919,-3401288.2219693623 L 10549685.135646747,-3398050.5924212886 L 10571731.51552039,-3393992.286676697 L 10575221.15891778,-3394645.7678960003 L 10591462.561305027,-3388896.3279576534 L 10606421.117880374,-3381955.553235676 L 10614661.320547365,-3380214.6939252224 L 10618683.627708197,-3380407.333258231 L 10622129.745184684,-3382558.64314748 L 10626173.759646222,-3388672.3500212454 L 10630315.623940168,-3393096.1769346003 L 10632902.911545185,-3394900.9492481793 L 10632772.445101976,-3401935.818580597 L 10654427.648284974,-3415648.9906653618 L 10673875.942562992,-3425495.8481132374 L 10690606.482792787,-3432684.5484418743 L 10695531.0344265,-3429738.6808963493 L 10700977.451833053,-3424279.3385419897 L 10708348.026637964,-3410370.131298996 L 10712826.855030542,-3406968.347706462 L 10724208.82768619,-3408905.8265436394 L 10726285.158828465,-3407385.6756121484 L 10724491.467873316,-3402377.8554870263 L 10716783.928969769,-3396183.0495102755 L 10706804.247939643,-3390632.095572882 L 10700292.503006201,-3386097.1333746915 L 10702412.360069375,-3370998.2961621634 L 10701934.020217437,-3365799.3230525223 L 10704727.916797366,-3364160.0427300725 L 10725285.06452318,-3379139.123162619 L 10735177.693711506,-3382098.5553702274 L 10738667.337108893,-3378480.3031480126 L 10739786.988547292,-3370470.1639712225 L 10747896.836090563,-3353974.487747938 L 10751332.044256954,-3345601.0246367813 L 10730709.663309537,-3325662.4538603253 L 10723110.883548494,-3315376.517012473 L 10723393.52373562,-3311757.81627004 L 10722980.417105287,-3308177.324569016 L 10717718.790053451,-3303064.77524899 L 10718001.430240575,-3301025.288431362 L 10722273.76097773,-3297793.4771297844 L 10727459.245497862,-3295359.4393166984 L 10729981.411200766,-3295439.7739924467 L 10734286.247229233,-3300258.9630914847 L 10753756.360127449,-3307082.889171696 L 10759344.041967819,-3305796.9817833668 L 10773030.662041359,-3295328.5706872595 L 10779401.142540986,-3294741.700697953 L 10795859.840574263,-3291616.5028237896 L 10806383.094677933,-3295569.4490896924 L 10814144.957492985,-3291950.023304484 L 10830212.36751612,-3278863.810634043 L 10833886.801268226,-3276482.5914735743 L 10832527.924244113,-3268558.243872074 L 10831690.801673347,-3259818.988654274 L 10835745.725444984,-3252864.9609179785 L 10836234.974607019,-3246745.433177887 L 10835300.002203846,-3241126.9973289636 L 10832071.291692879,-3237263.746494371 L 10823157.049509134,-3235117.283520938 L 10815558.269748095,-3228421.723729172 L 10803523.964876398,-3218750.096489814 L 10793848.742653592,-3210988.164910103 L 10786826.041257408,-3204144.9239114793 L 10784282.1682538,-3196967.7256330354 L 10785032.350302255,-3187943.2748485566 L 10787076.064833729,-3178502.1362016737 L 10809535.662657198,-3143892.5358636356 L 10809350.872302482,-3137900.6189282564 L 10802230.32107389,-3136227.4686934617 L 10792805.122427404,-3140135.8415835625 L 10784662.65827333,-3145707.1298341127 L 10775487.594522657,-3160525.8872968596 L 10768117.019717744,-3164948.941634386 L 10760779.061523633,-3165921.869208844 L 10717197.035600103,-3158293.5327482964 L 10707913.101387436,-3156153.203604969 L 10693509.02719573,-3150620.5554358573 L 10683431.496333199,-3139482.2856183653 L 10676126.154749889,-3129298.885277739 L 10668559.991599651,-3125198.2316993074 L 10657547.599653436,-3117281.1204488184 L 10626989.06359679,-3093026.964279762 L 10609312.752973218,-3082585.0472595985 L 10597778.606573656,-3078741.159458538 L 10589679.668340482,-3073244.9339652145 L 10585309.48777092,-3064311.8032372827 L 10582004.746047739,-3057904.196080447 L 10581015.44973306,-3042155.2860788917 L 10583026.547653731,-3022770.4256395004 L 10587418.435523998,-3010406.379444187 L 10589744.901562085,-3007804.1400880786 L 10590092.774970816,-3004192.0692020603 L 10585700.88710055,-2997508.6983066597 L 10579884.888984563,-2991813.6258253446 L 10577047.466483735,-2988302.055403344 L 10574460.178878715,-2970678.971279633 L 10569307.310969386,-2962001.9972325936 L 10559893.021633,-2949279.4631905616 L 10551511.443212701,-2939669.4164509526 L 10538368.284893213,-2932214.672078734 L 10533367.702047287,-2926189.757741771 L 10528584.41484739,-2915079.2155603548 L 10525747.103666052,-2905677.585758938 L 10525594.818602648,-2902264.6841774923 L 10527095.071380068,-2899284.9691167376 L 10532563.196087323,-2895975.6073209965 L 10539205.407463977,-2892774.939715006 L 10542368.88475334,-2887768.3319539386 L 10542803.69868438,-2881731.194792094 L 10537868.237740569,-2867272.6423208755 L 10529051.845389232,-2847181.7788624377 L 10518930.899925288,-2831302.802486655 L 10508494.697663419,-2816175.093707508 L 10506026.967191514,-2811241.3453893536 L 10496656.092456536,-2792679.31896875 L 10488492.03232125,-2767206.1501592076 L 10482991.29100319,-2750076.4777502795 L 10478240.620414095,-2738362.0408103475 L 10472359.389076507,-2737827.0123785296 L 10465238.837847915,-2741584.160508195 L 10447943.017243873,-2746573.081462497 L 10436854.482765956,-2750594.01366742 L 10428788.161143584,-2754205.4226685874 L 10423211.388613313,-2754062.602754799 L 10415503.849709768,-2751712.4758490287 L 10407676.64235362,-2750100.3561506416 L 10403045.52889764,-2751873.0633476307 L 10392294.069837842,-2762442.6804756885 L 10389032.854035562,-2761234.2097392487 L 10386923.794962995,-2756073.899981969 L 10394185.721944893,-2725913.786915985 L 10398903.664603693,-2714715.7493605055 L 10398142.684564631,-2696000.7045297767 L 10396272.962397268,-2673086.1583677772 L 10393457.358516634,-2648052.576307488 L 10391609.232330482,-2642296.47204499 L 10386999.937494697,-2635691.9097177493 L 10380933.915802391,-2633890.6681573656 L 10375411.355864136,-2636495.226978608 L 10370986.851383066,-2635892.705081287 L 10369519.326535938,-2631693.8145544445 L 10370802.061028348,-2620891.6240506195 L 10365431.7861535,-2608539.7598784985 L 10361474.712214272,-2597976.6503924676 L 10362529.241750557,-2587726.5132963946 L 10364409.87322802,-2577341.446871912 L 10370747.737116843,-2554827.44827064 L 10370791.151718251,-2546606.983362459 L 10369541.033836644,-2539235.9313181173 L 10366236.180793973,-2536176.953377528 L 10360572.3564219,-2536687.7264784523 L 10357495.930974338,-2533629.090156737 L 10355158.666945644,-2529027.631169021 L 10348766.47914531,-2511976.6737190066 L 10342635.224231401,-2510194.5203161696 L 10336493.06000739,-2512744.62756255 L 10327263.56102572,-2524110.582306916 L 10321654.060565155,-2527431.5186951277 L 10318088.385955555,-2527255.464002625 L 10316501.192655826,-2524257.2872137125 L 10314044.371494018,-2517447.239895454 L 10311565.731712013,-2512885.350816309 L 10305390.950877203,-2508893.2002946613 L 10303868.990799077,-2517294.8289207416 L 10300596.8656867,-2560858.8329109736 L 10298118.225904698,-2574758.0344210993 L 10296096.218673928,-2594017.1665089508 L 10293095.824438578,-2599933.1520278486 L 10289312.742863458,-2610485.6801958284 L 10285159.969259415,-2619569.8109394447 L 10281648.618561324,-2623435.127304414 L 10279376.587754231,-2640464.856096946 L 10278550.374493565,-2661357.1982162697 L 10278593.900414465,-2671227.416407368 L 10273604.004239656,-2691685.4125049203 L 10268788.211748447,-2714899.7860997273 L 10262222.031584008,-2713920.4288487737 L 10258352.009486578,-2719553.8047879343 L 10255536.405605944,-2719446.9249042133 L 10246295.997314177,-2714193.4321341114 L 10239001.565040966,-2715920.6574224248 L 10233555.147634415,-2715190.5539082577 L 10233544.238324316,-2704528.0087311263 L 10234479.210727489,-2693167.2933349046 L 10232391.970275115,-2689083.834603738 L 10218020.40137472,-2675738.4984261575 L 10214030.71082469,-2666800.4927682085 L 10214443.817455024,-2657411.889250879 L 10216215.801109472,-2644855.1747404663 L 10213672.039425356,-2638491.7767479806 L 10207432.025368938,-2632603.238583428 L 10199039.537638541,-2629562.429533967 L 10191690.781453824,-2630997.1477837213 L 10186983.52546614,-2636093.5029180762 L 10182548.222994464,-2649110.6074814256 L 10178634.563656643,-2656211.370838975 L 10174536.225283599,-2657902.804845445 L 10171329.222073337,-2655980.7729752026 L 10170905.317452395,-2647804.3000340047 L 10171111.815107817,-2641038.0231220042 L 10170079.104191728,-2640287.598268217 L 10167796.164074538,-2641333.386863329 L 10165165.350548621,-2644648.338472631 L 10158327.550826646,-2677266.2022657646 L 10148500.043540433,-2702440.3014690625 L 10147934.763166184,-2712110.411755973 L 10151500.437775783,-2724541.8481426477 L 10155903.234956149,-2743718.6833102126 L 10167524.433197513,-2755699.016724201 L 10169057.191266244,-2760781.7887549386 L 10170937.934063198,-2764806.3691022634 L 10173786.154554633,-2765610.2388325464 L 10188668.568598276,-2764472.858227752 L 10193680.17207379,-2766402.198284128 L 10198104.67655486,-2772042.4433428594 L 10204518.571655897,-2776588.3263579328 L 10210954.174057636,-2778417.742802645 L 10216063.627365557,-2779097.207948798 L 10224271.213421745,-2774782.919004963 L 10227695.623597529,-2777225.851743006 L 10230152.444759335,-2785207.0155190425 L 10233718.230688427,-2793126.6820517844 L 10236011.968796222,-2796938.832851936 L 10241512.71011428,-2798669.217359828 L 10248535.411510464,-2799092.9222384305 L 10250861.877548553,-2800537.1746681198 L 10252742.509026015,-2803211.0541472323 L 10254470.966759562,-2813714.0158541477 L 10263439.644174304,-2837194.1944339545 L 10266624.828764372,-2847642.7476933245 L 10267059.64269541,-2849510.549930765 L 10266809.61911909,-2861177.9213209646 L 10269364.401432795,-2862861.585545124 L 10284246.815476438,-2857181.9307257333 L 10290725.943799078,-2857259.8307658145 L 10294269.911107972,-2859602.1712023043 L 10295433.088467272,-2863874.328506265 L 10293530.638369616,-2868885.162812088 L 10282964.080984026,-2877603.9782913947 L 10264178.916912662,-2889376.898727568 L 10246926.510910029,-2896576.0698883603 L 10215063.533060271,-2895489.1789283375 L 10183472.286087539,-2893213.3217200865 L 10174231.87779577,-2894378.1396992644 L 10162708.529386815,-2897621.2174473545 L 10134335.083614951,-2897140.6397860525 L 10100036.991904091,-2895345.0368058174 L 10087002.592727106,-2896359.9645525506 L 10080566.879005875,-2896221.8408040297 L 10067662.946272101,-2895128.8262186786 L 10046627.570013838,-2898480.0715883765 L 10032071.210758729,-2902787.3857725374 L 10019178.187335053,-2907510.615867392 L 10003871.757350978,-2911796.399522443 L 10000197.323598875,-2911748.2585684815 L 9998055.759234993,-2913299.435740215 L 9996588.123068374,-2917087.803123152 L 9996077.166605633,-2921977.947247094 L 9999262.3511957,-2944705.5797379008 L 9996446.747315068,-2979228.2412701575 L 9999044.94423018,-2991825.6337026465 L 9986456.268294333,-3020305.2552035963 L 9982118.704335572,-3025587.4097649097 L 9976346.232140489,-3025817.7059170627 L 9972639.181777582,-3022140.4789699754 L 9971193.364231158,-3015479.08927258 L 9973269.695373436,-3008052.2473739455 L 9968649.49122755,-2999734.041755548 L 9959409.194255272,-2997043.0639645206 L 9948592.501973873,-2999836.969648095 L 9939634.73386923,-3003738.3624332286 L 9928187.527991975,-3012210.100956012 L 9919490.69277375,-3024151.6159382053 L 9918784.036646193,-3037321.8059657635 L 9914870.488627866,-3045837.5023452267 L 9909511.011743626,-3049982.0260257297 L 9905586.554415198,-3051135.1248944476 L 9902086.113027204,-3050212.588663168 L 9898987.868959446,-3045613.0984311285 L 9901673.00639687,-3041002.784049637 L 9905380.056759777,-3034563.1180238426 L 9904140.736868775,-3030186.708042854 L 9900835.995145597,-3029501.8271415518 L 9895911.332192391,-3031380.6729930807 L 9888290.733811157,-3030350.2998484247 L 9880931.068316342,-3033726.56407671 L 9876506.56383527,-3034029.6199344704 L 9872125.5852751,-3035254.1993854353 L 9871886.359689387,-3042864.994063149 L 9865146.298480326,-3052519.040576532 L 9853807.851745578,-3063351.9656723444 L 9842664.993356153,-3070041.6901012613 L 9837294.718481304,-3069117.933255397 L 9834620.379034486,-3061736.2499729013 L 9835240.094639732,-3058972.863976883 L 9839110.11673716,-3057600.511472192 L 9844730.526507821,-3053320.2636647476 L 9845969.846398823,-3048834.9853901016 L 9845143.633138156,-3044915.3066761163 L 9838196.962954184,-3037776.5677686105 L 9833294.118621176,-3031011.0161401 L 9822292.635985058,-3021153.187701943 L 9812900.053949375,-3009879.845642821 L 9810475.849398369,-3001336.876420216 L 9806953.589390181,-2993675.460100967 L 9805529.479144461,-2985244.5704897866 L 9807986.41162576,-2979415.3792096335 L 9812530.473239942,-2975743.929870658 L 9824271.228614418,-2973069.361255362 L 9836533.73844224,-2961748.617364378 L 9846469.893551467,-2946465.0632653483 L 9852046.666081738,-2941849.980677765 L 9862178.520855779,-2936706.2587194014 L 9881735.574276304,-2936110.220544438 L 9884659.825979952,-2931889.5549647026 L 9887431.903939687,-2920708.5999293015 L 9891269.420745803,-2916769.0515606175 L 9901216.485165127,-2911501.7694667084 L 9902053.496416401,-2907624.718437042 L 9899618.382555297,-2903159.858710058 L 9895204.787384326,-2899639.393613313 L 9887094.939841054,-2897404.9740441954 L 9879333.077026002,-2896510.020289103 L 9871538.486280657,-2897927.506103466 L 9859993.430570997,-2898840.504843317 L 9846904.707482506,-2898906.5647108685 L 9837631.682579935,-2871019.3313292842 L 9831000.38051338,-2861237.803546257 L 9827228.096928868,-2861249.829103629 L 9817139.768075729,-2865995.883709528 L 9812791.406126361,-2865264.689921982 L 9801137.591274196,-2840538.6339518377 L 9799485.164752858,-2834586.1747392025 L 9798724.296033287,-2830100.9413508824 L 9804920.784168804,-2820560.6720359228 L 9812313.066274423,-2812716.5821968694 L 9821162.07523656,-2809641.0182471857 L 9828076.01749024,-2811975.9494110686 L 9833685.517950805,-2808810.8949303725 L 9840306.022026753,-2800913.1399880988 L 9851611.8521507,-2795703.852659937 L 9867614.028952232,-2793180.4349031406 L 9876658.737579186,-2786942.07358133 L 9877778.500337075,-2781570.604408641 L 9876995.701677818,-2776117.5213486007 L 9875571.702751588,-2761895.004402616 L 9874017.12606266,-2753717.5006197984 L 9865418.140676843,-2732264.400996489 L 9859275.976452835,-2713783.9289657357 L 9862461.161042903,-2705008.4618409015 L 9864733.191849992,-2701432.07575854 L 9866885.66552397,-2698668.739302772 L 9873777.900476946,-2691750.715305478 L 9878582.894977547,-2684906.6585814664 L 9874484.5566045,-2667469.1260017673 L 9876756.587411592,-2662883.4184828787 L 9886018.703004064,-2659819.129171612 L 9895976.565413995,-2657482.86699723 L 9899433.592200581,-2654602.9464984704 L 9890801.990203962,-2636920.4289942775 L 9892628.297769915,-2624627.307608818 L 9896270.11491122,-2613104.2744030696 L 9898911.837747235,-2594276.4533334565 L 9899303.125757372,-2592297.0962071787 L 9898607.378939914,-2587579.251753667 L 9904260.294001887,-2572980.9131621127 L 9913000.65514101,-2544527.413606645 L 9913652.876037568,-2533899.1031263047 L 9913163.738195023,-2522714.365977784 L 9910543.833979204,-2503987.8526586923 L 9901792.563529981,-2504075.699378762 L 9909619.770886129,-2491563.7688486385 L 9912109.208658738,-2482577.744734953 L 9913185.445495728,-2470046.3643296934 L 9903771.156159341,-2468519.9377917573 L 9897128.944782687,-2469923.4787116675 L 9891573.879553122,-2480898.241845837 L 9888997.38993871,-2470917.7274736296 L 9879050.436838878,-2461697.038061197 L 9875484.650909789,-2466198.638374973 L 9873451.845688414,-2471040.500382707 L 9873060.446358783,-2479558.1608943967 L 9878517.661755942,-2512175.9829883305 L 9877408.80830815,-2515858.101387093 L 9874962.89645644,-2518268.2889684523 L 9869538.186350593,-2519564.440635216 L 9867537.997740021,-2526175.8621515646 L 9859210.743231228,-2491382.2082558433 L 9862885.176983334,-2477194.398129932 L 9861200.133851195,-2470718.897100462 L 9845763.237423912,-2465274.8277040212 L 9830119.843341205,-2478341.1288846866 L 9828119.54341114,-2482519.253618739 L 9827195.480318066,-2475170.131194796 L 9824358.169136725,-2466239.471585084 L 9809703.960049208,-2467853.358630887 L 9802442.1443868,-2474842.5805276292 L 9807181.905665796,-2486757.018389138 L 9816270.14021365,-2515476.9320028564 L 9817965.981336394,-2528288.2642177697 L 9805812.119331585,-2537685.8708056053 L 9795495.585522318,-2543452.600807669 L 9789592.535564533,-2556526.076209123 L 9791842.85907092,-2542172.177542339 L 9797310.983778175,-2537075.1452006768 L 9805355.598099843,-2533476.5335349417 L 9813845.824343154,-2526146.541778992 L 9807703.771438636,-2517212.678891491 L 9801768.104870047,-2511654.1818558006 L 9790375.2229043,-2490579.9588957042 L 9776492.903165944,-2478820.933129481 L 9760295.138019087,-2469976.1780899884 L 9707135.739705158,-2456968.730939981 L 9696003.79062583,-2451692.5301058455 L 9679686.357026372,-2435494.220056521 L 9669163.102922702,-2420127.2861655345 L 9667238.94552434,-2404563.977627657 L 9673196.319393633,-2387774.3667694167 L 9678044.728495643,-2361506.500520785 L 9682067.035656476,-2356159.905491234 L 9676392.413293798,-2346598.1361933076 L 9666532.400716275,-2336437.7683785376 L 9658357.319951398,-2322750.596875012 L 9659107.390680363,-2315241.1214854787 L 9657009.352237381,-2310174.709081486 L 9628994.577864856,-2293374.0973922913 L 9623102.54853666,-2283567.2279602704 L 9615395.009633115,-2273829.1526704286 L 9606165.399331953,-2279400.6256434866 L 9600773.4171564,-2279313.762230909 L 9608198.31587282,-2271584.8963174503 L 9607198.221567534,-2266478.4269344555 L 9604589.11534232,-2263489.2166401516 L 9597544.706645431,-2260691.201736605 L 9557104.45071056,-2248376.868527811 L 9526165.424634386,-2236688.3471382353 L 9517468.589416163,-2237161.765134807 L 9519055.782715892,-2240706.864837038 L 9524469.583511641,-2243848.464087071 L 9523947.717738802,-2257269.4609212154 L 9518273.095376125,-2259731.592938153 L 9513359.34173302,-2260702.6851395937 L 9489834.416382657,-2244345.1266049957 L 9480278.751292963,-2228174.7542787055 L 9482279.051223028,-2225099.3242368023 L 9487595.00218637,-2225860.8973501087 L 9503444.893924497,-2235031.477378874 L 9510793.761428706,-2232428.235872845 L 9511315.627201544,-2228844.147264308 L 9487268.836078346,-2214878.286002914 L 9436664.10875863,-2169704.250334865 L 9434305.13742923,-2160835.0316061294 L 9427738.95726479,-2150779.9994752053 L 9418672.54133713,-2141321.898171588 L 9402355.107737672,-2118442.366659387 L 9371068.208252767,-2084490.1520384084 L 9362425.80826554,-2071834.3651106767 L 9312353.744709274,-2045728.6791813492 L 9303222.095560009,-2037971.4443722165 L 9282708.36243561,-2012593.6780710497 L 9261596.843645645,-1991831.1243443561 L 9236941.246227296,-1974650.0651127961 L 9194228.959485335,-1952735.0840658047 L 9168225.39435297,-1932025.1176623588 L 9160093.839508994,-1918273.1072048172 L 9159582.994365744,-1913386.1094758986 L 9162398.598246377,-1906693.7440294405 L 9167160.066826077,-1900486.1642303644 L 9168247.212973164,-1895557.7757923899 L 9165899.039634373,-1886691.4903737865 L 9164616.193822471,-1881788.7143581265 L 9157006.504751332,-1869650.0758594493 L 9143950.398273643,-1860998.2957849656 L 9101694.632763425,-1842911.4918543627 L 9096106.950923057,-1843489.2892444348 L 9061613.04822789,-1847057.900212773 L 9048730.934114313,-1843789.5037779016 L 9043436.690451672,-1835311.7098774728 L 9031587.287254184,-1800295.7096149945 L 9020227.02189924,-1790997.4945255264 L 9016150.3908269,-1782584.3390783714 L 9014508.873615662,-1776755.1675240172 L 9007725.286485702,-1776907.6167930556 L 9001822.347847406,-1779517.1049524788 L 8997506.602508841,-1777630.5497917077 L 8992592.848865734,-1789364.3843577649 L 8984352.534879254,-1791766.1178219689 L 8977536.442457981,-1792568.6797329104 L 8948402.016647056,-1780737.1017899925 L 8938226.747271609,-1771249.1498205198 L 8916810.769674325,-1726526.1355044863 L 8911505.72802108,-1697732.5044582284 L 8916539.038797298,-1665959.1676169033 L 8923974.846823817,-1640594.3162297243 L 8925453.280981043,-1629150.7805203912 L 8924496.601277165,-1614334.658919218 L 8920724.317692652,-1607114.8584844442 L 8917995.765653819,-1598573.8058779284 L 8921550.530953322,-1580978.9896862784 L 8930540.915668767,-1557953.5496030322 L 8932736.915263645,-1548241.9212160336 L 8932921.705618363,-1538198.227314562 L 8939683.474128129,-1515204.0134997459 L 8935128.503203848,-1519351.7753620755 L 8931541.009974053,-1529025.0505132198 L 8922952.933898335,-1541398.4266341745 L 8912473.205715567,-1529080.942971299 L 8918278.405840944,-1520201.5547319972 L 8937878.87386288,-1509670.8272389516 L 8943673.164678158,-1501043.5015431626 L 8931062.781441605,-1424375.3125650703 L 8921485.297731716,-1397192.8563639405 L 8909733.744366633,-1379391.09969345 L 8903526.346921021,-1372515.8045095745 L 8889807.110236675,-1344430.3887639141 L 8880110.180713164,-1310475.113556204 L 8878186.023314802,-1297411.6147685284 L 8882556.092564872,-1282800.5985509844 L 8877609.833630456,-1274161.266059022 L 8871402.43618484,-1267569.7843383672 L 8883186.606160726,-1270535.5355711698 L 8887219.822631657,-1262609.0024323736 L 8888709.16609898,-1254440.5254806655 L 8888883.047143599,-1205903.6680023335 L 8887545.988739682,-1155369.3051653407 L 8878501.280112728,-1153308.5476729618 L 8868532.508392699,-1152783.674931039 L 8859759.530642772,-1154214.619082034 L 8853421.778073438,-1156170.4224658273 L 8837713.039449638,-1153490.8236745207 L 8829255.429817127,-1147916.834791619 L 8822471.842687167,-1138654.7154904949 L 8822939.273229009,-1122869.6503036772 L 8793826.666038278,-1083086.4597376261 L 8787554.03537106,-1069838.4277105879 L 8785238.589962559,-1057096.4775918487 L 8789021.671537677,-1050429.5323522503 L 8796457.479564195,-1043609.5087374527 L 8806154.409087708,-1040855.3893159976 L 8824906.95654827,-1038112.4035816379 L 8833908.250573814,-1034449.9338545915 L 8840039.505487727,-1027709.8016230002 L 8817938.690383082,-1034885.0677499657 L 8791967.741861522,-1036300.4702143306 L 8729839.666132852,-1017860.3023830678 L 8713478.817931982,-1004914.9702518543 L 8704347.057463229,-993723.0714437237 L 8698063.628805403,-968098.9083221429 L 8696987.391968412,-950980.7578608138 L 8689616.8171635,-936715.3352170499 L 8657351.530674014,-914809.78736492 L 8636968.375312312,-908066.6912923463 L 8629217.310487866,-902268.8241861156 L 8605159.721374057,-909801.8221006911 L 8578938.749276174,-928991.1435062297 L 8567915.559339354,-939270.2257330038 L 8528997.152163116,-988788.3874400809 L 8521887.510244623,-995065.4831739245 L 8514038.595587771,-1016252.8871571592 L 8512799.27569677,-1024152.9280444507 L 8510636.004032183,-1027302.3739695691 L 8506928.953669276,-1029449.7325353435 L 8505156.970014831,-1032720.7241689161 L 8496416.608875703,-1057008.3403526337 L 8492829.226965401,-1082336.6227799852 L 8487263.252425738,-1110650.5160777078 L 8491970.397093931,-1108702.5879163302 L 8498471.232717276,-1099378.651366701 L 8501721.76184844,-1085827.1045128442 L 8502091.342557874,-1066917.1931218484 L 8506983.277580785,-1064723.5344320459 L 8511353.458150346,-1066503.7137823664 L 8498851.722736808,-1110087.610023669 L 8487969.797233801,-1120921.1888349243 L 8485078.162140954,-1121633.2537976021 L 8482055.94928541,-1128627.4655574213 L 8481729.894496877,-1137406.6990561816 L 8482708.281501457,-1141576.1587844759 L 8474011.446283234,-1155872.0381090874 L 8470978.43543708,-1164387.1050708455 L 8451660.60760227,-1207629.9536675578 L 8442985.47968475,-1238635.8258587765 L 8429537.97387743,-1273157.8565011476 L 8420884.664580107,-1285268.528968786 L 8407350.21825048,-1311940.5638332865 L 8396011.660196241,-1324343.759683658 L 8383988.26463464,-1340979.7736835878 L 8374541.35868745,-1348364.7656670264 L 8370856.126944739,-1352255.2541529604 L 8342895.787803211,-1410026.3626602725 L 8334296.802417393,-1441981.4379045798 L 8327024.077444887,-1457088.1332288203 L 8323414.8769143885,-1468570.0220759194 L 8313598.278938272,-1517708.2796060068 L 8313522.247726061,-1526502.9086575685 L 8312326.34243647,-1536111.5995359547 L 8305379.783571989,-1556973.8236659528 L 8293138.981044869,-1579533.3223468498 L 8289595.013735975,-1593595.1857979607 L 8289627.630346777,-1599067.253182992 L 8281854.858221627,-1621000.8880951493 L 8280191.633709685,-1631037.1744689113 L 8274940.915967948,-1640319.0689974967 L 8268853.075655445,-1648840.4692691334 L 8262471.797165211,-1655673.082135656 L 8247524.149899962,-1677931.2657022846 L 8242164.673015721,-1683365.327324625 L 8231989.40364027,-1697817.0095517219 L 8224760.093269174,-1724542.3273385186 L 8215465.361065899,-1734992.741878734 L 8230065.2462419085,-1734992.741878734 L 8221161.802048773,-1744866.676475594 L 8216922.087922419,-1751348.077997017 L 8212236.650554932,-1755331.5092086974 L 8219031.146994989,-1765309.8347668655 L 8207899.197915661,-1765027.6310621237 L 8202007.057267974,-1771034.6392023996 L 8193973.352256404,-1789799.5297414975 L 8179319.143168887,-1811005.8425153263 L 8176829.705396278,-1822343.5266234812 L 8163904.065361798,-1858039.4277304441 L 8152945.997327089,-1943947.9770286402 L 8142911.992385456,-1982309.7026534532 L 8143694.791044714,-1993342.4668017698 L 8131573.545650708,-2026635.2726879767 L 8125648.788392218,-2048987.9179652974 L 8123213.674531115,-2067918.8976349034 L 8119995.873330244,-2080389.026911741 L 8117104.126917907,-2105094.2678204984 L 8112462.215471319,-2112928.789826806 L 8111951.259008577,-2117656.314924935 L 8115049.503076335,-2128928.6539684283 L 8123746.33829456,-2146366.4137830683 L 8126942.432194726,-2157419.54925358 L 8123213.674531115,-2172995.2033865326 L 8115267.021361346,-2156643.3650139854 L 8107918.153857136,-2152061.7729524886 L 8104395.893848947,-2164274.0800788053 L 8104363.277238145,-2180707.1888355385 L 8103450.123455168,-2184639.2072738027 L 8105352.573552825,-2190161.4173169555 L 8124898.717663253,-2187627.486194618 L 8102710.962036301,-2197718.8374445396 L 8100047.53189958,-2203642.5547245895 L 8099210.4093288155,-2208051.833971244 L 8103993.69652871,-2216233.404684851 L 8095883.960304931,-2223137.6901336843 L 8092644.340483865,-2244281.608902378 L 8090252.752543662,-2249110.5107112727 L 8089339.487441193,-2253016.1784469592 L 8093927.074976275,-2282276.5906953607 L 8113092.729067171,-2339868.511261124 L 8114495.132012186,-2352900.5002813586 L 8112842.705490849,-2371442.6597740073 L 8108570.374753694,-2386214.4288371042 L 8106765.774488444,-2401849.0750679784 L 8105602.597129146,-2405857.502874123 L 8098666.836255272,-2407285.0248471033 L 8092079.060109616,-2413072.5502609033 L 8084447.552418284,-2436288.0654536737 L 8091426.727893568,-2443912.657112 L 8096797.114087907,-2448105.9334901087 L 8089404.720662798,-2446324.5140515496 L 8083273.465748887,-2447031.1750062015 L 8094883.754680154,-2457734.3511130963 L 8105233.016419712,-2465953.0424188734 L 8128823.174991679,-2475497.6880809017 L 8138846.270623213,-2481588.696291478 L 8123996.473190373,-2476106.212793999 L 8108483.4342313865,-2474017.741083811 L 8075457.167702837,-2475135.0276253494 L 8080957.909020895,-2496834.5412577414 L 8086697.875924668,-2504081.5798447453 L 8092948.687971692,-2508154.709367453 L 8083740.896290727,-2506929.763668626 L 8073141.722294338,-2508670.52126364 L 8076566.021150629,-2530741.3272508667 L 8084904.184969518,-2535507.6091118637 L 8093905.367675571,-2536417.6689062347 L 8105080.842675799,-2539558.9486807617 L 8093144.387636509,-2543205.890733529 L 8080697.087453967,-2544950.380588363 L 8065760.238179326,-2541338.3008639244 L 8052030.092184883,-2543998.8401224767 L 8035353.987186086,-2543940.1374916984 L 8042006.996553347,-2540985.903252766 L 8049116.638471841,-2534257.2436400293 L 8045550.963862241,-2522303.72892834 L 8042202.696218163,-2514843.7101353877 L 8033005.813847295,-2509702.071843807 L 8025515.68190927,-2501919.5050111585 L 8023417.532146797,-2495083.234339793 L 8019145.201409642,-2490293.124881351 L 8026461.452303049,-2486879.9042212768 L 8034027.615453285,-2484450.6443217867 L 8038419.614643044,-2478926.26656918 L 8043572.482552375,-2470900.120113315 L 8043278.933055152,-2455309.1852439414 L 8023526.291289302,-2418616.922972214 L 8016699.178238442,-2410455.413942567 L 7967257.739597517,-2388368.170850018 L 7947820.243310104,-2376357.404632725 L 7906423.307671355,-2360768.3660779404 L 7890290.664426613,-2357868.3773731426 L 7872440.47275842,-2360954.414529956 L 7846360.876413845,-2372832.6457949188 L 7806540.224764728,-2403171.5149805048 L 7796190.963025169,-2413212.4664804456 L 7764360.601786212,-2452282.63072834 L 7741379.1381899025,-2472976.475014896 L 7723952.851142651,-2492272.2812794144 L 7702384.699801455,-2510505.2191681005 L 7682023.2517404575,-2535167.115801189 L 7677696.597091796,-2546413.0429267967 L 7679207.647859825,-2557860.446282195 L 7686795.629630257,-2564110.5520099816 L 7695666.457212592,-2561576.1509942263 L 7702667.33998858,-2551924.2534156875 L 7707635.417543193,-2547605.595462878 L 7711831.717068137,-2545837.370625672 L 7742183.644149866,-2560629.446930722 L 7753978.72343585,-2560041.607031531 L 7762034.135748123,-2567468.7888979907 L 7772220.314433671,-2565851.3162405374 L 7793016.576425707,-2577412.0790362284 L 7801735.230264128,-2578112.510812552 L 7812095.289994295,-2580431.583287408 L 7828847.537524794,-2609754.408392841 L 7841392.798859231,-2628428.7707957425 L 7849524.353703207,-2632319.76374322 L 7849067.721151975,-2636873.2509830785 L 7846828.306955687,-2642845.98494091 L 7840740.466643183,-2641345.245085325 L 7836479.0452161245,-2635662.3954270044 L 7833326.477236861,-2628812.5325569394 L 7830152.090637399,-2624733.560073228 L 7820324.694670677,-2628499.6221628403 L 7813704.190594729,-2627868.0160323284 L 7805529.221149344,-2625612.9798238417 L 7775644.724609454,-2614667.2957157143 L 7763382.10346214,-2604854.819871359 L 7755033.141652644,-2602909.564862525 L 7707309.25143517,-2613711.7560900035 L 7660683.4166748775,-2638515.368080046 L 7641050.332042142,-2655005.007332621 L 7628635.537150914,-2676105.677368808 L 7616199.034958979,-2701277.829284066 L 7620243.160740008,-2708324.651708824 L 7639539.169954623,-2723478.704745127 L 7656193.678972204,-2735396.179001619 L 7641235.122396858,-2730089.8158486853 L 7625037.245930511,-2722730.4969796883 L 7617025.2482196465,-2717570.8685908727 L 7607947.922981892,-2706788.1475485982 L 7595881.112818881,-2704373.8537744475 L 7591097.825618984,-2720408.748199925 L 7588097.431383634,-2736032.030317673 z" /><path fill-rule="evenodd" fill="currentColor"    d="M 10451791.332040597,-762237.5082867675 L 10444975.239619326,-753003.0203292896 L 10431668.998245822,-781258.9285933011 L 10425961.759272343,-782983.9108663945 L 10425776.968917625,-796463.400433305 L 10428875.212985383,-801777.3745225747 L 10444268.583491769,-807727.3624559813 L 10448334.305254012,-804385.1983282451 L 10456194.12922096,-778208.6081442038 L 10451791.332040597,-762237.5082867675 z" /><path fill-rule="evenodd" fill="currentColor"    d="M 10434375.954303442,-821180.5088570571 L 10423787.578297658,-810560.1553033568 L 10419199.990762578,-816944.1736993674 L 10421091.531550137,-821361.3333072605 L 10425592.178562908,-823811.3392779985 L 10429799.16475897,-827253.4725210371 L 10434375.954303442,-821180.5088570571 z" /><path fill-rule="evenodd" fill="currentColor"    d="M 10368377.856477343,-921520.9414841003 L 10371704.305501228,-917308.5249491959 L 10365540.433976514,-918033.4178096991 L 10359865.811613835,-924382.4989075393 L 10361344.245771062,-930337.0300338584 L 10363507.62875514,-932754.1713932911 L 10368377.856477343,-921520.9414841003 z" /><path fill-rule="evenodd" fill="currentColor"    d="M 10401980.201370748,-879732.4665167549 L 10393348.599374127,-879589.7440464881 L 10390783.019069817,-884396.9231216767 L 10387152.111238612,-889418.6173832401 L 10389946.00781854,-894243.2327911565 L 10394511.776733426,-895478.245081957 L 10400990.905056067,-887662.344747284 L 10402512.865134193,-882124.987388546 L 10401980.201370748,-879732.4665167549 z" /><path fill-rule="evenodd" fill="currentColor"    d="M 10412481.63685422,-899831.4069572446 L 10407263.535723288,-895648.4469140493 L 10405948.184620073,-896213.8048402192 L 10405230.61918242,-899386.7517760517 L 10405002.414226294,-901631.9957011705 L 10404056.532513024,-905672.8151199825 L 10403523.868749578,-912788.9227502594 L 10407709.258964423,-918725.3668683737 L 10411894.649179269,-917500.7413195622 L 10409666.032973588,-911427.1481911256 L 10412481.63685422,-899831.4069572446 z" /><path fill-rule="evenodd" fill="currentColor"    d="M 10329057.251980871,-1021427.6675295219 L 10324165.316957962,-1020783.5318287917 L 10321164.92272261,-1024631.9255339161 L 10320795.230693685,-1029119.4228783225 L 10323610.83457432,-1032026.8959969261 L 10326230.73879014,-1033519.2280224223 L 10328861.552316057,-1033139.259991936 L 10331481.456531875,-1025567.9491741196 L 10329057.251980871,-1021427.6675295219 z" /><path fill-rule="evenodd" fill="currentColor"    d="M 10297368.155175732,-1181666.7560051184 L 10294008.978221554,-1177802.1312304535 L 10282529.155733498,-1180820.7842593843 L 10283377.076294871,-1192505.4197377341 L 10280670.231556742,-1203895.217187149 L 10282659.622176709,-1208697.9057998096 L 10291247.809571918,-1216860.620554551 L 10298205.277746497,-1220480.5851362622 L 10303064.596158607,-1209411.7434940874 L 10305325.717655597,-1198584.2967696127 L 10297368.155175732,-1181666.7560051184 z" /><path fill-rule="evenodd" fill="currentColor"    d="M 10318555.816497397,-1275358.880706607 L 10313142.015701648,-1273107.8968970357 L 10307706.507605193,-1275957.7614463577 L 10311957.131041644,-1280537.9654825472 L 10312663.67584971,-1289894.4793299988 L 10318207.943088667,-1284702.8691005355 L 10317892.686290741,-1278774.4894667347 L 10318555.816497397,-1275358.880706607 z" /><path fill-rule="evenodd" fill="currentColor"    d="M 10321849.76022997,-1292956.587436381 L 10319403.73705877,-1290282.7792380967 L 10315794.536528269,-1293256.1906107839 L 10305467.093408907,-1313655.8560672514 L 10303695.109754458,-1326759.432148487 L 10300825.181962317,-1331302.633168746 L 10304456.08979352,-1337801.9267576651 L 10309021.970027898,-1339963.0864391567 L 10311728.814766029,-1347286.6028454981 L 10312707.20177061,-1358480.9537413733 L 10316696.892320639,-1367610.6896591901 L 10318729.808861507,-1370152.101494483 L 10327024.335440006,-1370252.2179604757 L 10329144.19250318,-1371414.5728364491 L 10327959.307843177,-1380158.7899425484 L 10323110.787421677,-1383964.3771663215 L 10321425.74428954,-1386401.4200488531 L 10321621.443954352,-1407370.1249736175 L 10322882.47114606,-1415851.974371114 L 10325904.684001606,-1421951.7823062707 L 10323773.917628331,-1434567.6537962588 L 10325230.644484852,-1439277.6357594342 L 10331231.432955554,-1445900.9307132782 L 10333883.953782177,-1460033.5445360406 L 10331448.839921074,-1464256.840197763 L 10337145.280903948,-1486086.2107448399 L 10336830.024106022,-1500674.7396006377 L 10344320.156044047,-1515293.4190057544 L 10355984.880206311,-1521934.7425182795 L 10359648.404648315,-1522119.2086472407 L 10360137.542490862,-1509642.9008730352 L 10361246.395938655,-1505546.8453650924 L 10354495.536738986,-1498166.5338857202 L 10360931.139140729,-1488548.8362387249 L 10360072.309269257,-1485058.8660007296 L 10357495.930974338,-1477432.8362432248 L 10353234.39822779,-1469942.7130806325 L 10347298.842978694,-1466873.6507377638 L 10342689.548142906,-1456898.5004315805 L 10340047.82530689,-1453139.234206815 L 10348820.80305682,-1442656.00099742 L 10351625.497627355,-1407058.2258351576 L 10345211.602526318,-1397315.293843655 L 10337536.680233575,-1395372.6561125475 L 10339297.754577925,-1371659.3507851535 L 10337928.079563206,-1366365.004472505 L 10330318.279172577,-1354728.669623297 L 10328915.876227565,-1349654.1038558132 L 10324621.838189706,-1344885.9403307154 L 10326437.34776505,-1338929.706885347 L 10330089.962896962,-1336324.1102130855 L 10330177.01473876,-1331446.9864196647 L 10326774.311863683,-1318935.4473698009 L 10326513.378977263,-1304669.6854991438 L 10321849.76022997,-1292956.587436381 z" /><path fill-rule="evenodd" fill="currentColor"    d="M 10354647.710482901,-1349898.592542815 L 10359626.586028121,-1334263.2038019767 L 10350679.727233576,-1341096.5213403637 L 10347744.566219829,-1345986.2111734995 L 10352245.213232601,-1349326.1870414452 L 10354647.710482901,-1349898.592542815 z" /><path fill-rule="evenodd" fill="currentColor"    d="M 10321273.570545623,-1444300.800318364 L 10317729.60323673,-1436886.3037974748 L 10317055.675039466,-1452793.4888975827 L 10318697.192250704,-1454795.717454841 L 10320501.792515954,-1455342.3026985154 L 10322752.00470285,-1453853.1253165877 L 10321273.570545623,-1444300.800318364 z" /><path fill-rule="evenodd" fill="currentColor"    d="M 8101873.839465535,-1255077.7189872614 L 8101058.535514965,-1254351.8981201074 L 8100993.302293361,-1256413.1986865334 L 8102036.922519547,-1259710.4823022091 L 8103243.625799745,-1261916.1581614637 L 8103602.297199081,-1261655.664322993 L 8103265.333100451,-1259510.9538948885 L 8102710.962036301,-1256601.5865001108 L 8101873.839465535,-1255077.7189872614 z" /><path fill-rule="evenodd" fill="currentColor"    d="M 8133823.8691570945,-923723.4210720959 L 8132258.383158067,-922328.2421825358 L 8130649.482557632,-921795.5143128653 L 8129497.214508431,-921971.3273018196 L 8128931.934134184,-923366.3824850343 L 8129225.372311914,-924420.970727527 L 8130660.391867731,-923245.5704569307 L 8132541.023345192,-924338.6275746273 L 8134693.49701917,-927914.5088605041 L 8135171.836871109,-929057.069950595 L 8135628.469422344,-928441.7978022603 L 8135204.453481912,-926420.3139709024 L 8133823.8691570945,-923723.4210720959 z" /></g></g>
</svg>
