<?xml version="1.0" encoding="UTF-8"?>
<svg xmlns="http://www.w3.org/2000/svg" viewBox="4316250.17245517 -4491068.906369354 1087919.7062286325 1107316.353855922">
  <g id="map"><path fill-rule="evenodd" fill="currentColor"    d="M 4715380.529400422,-4454254.219051772 L 4726164.60507102,-4457062.658088659 L 4746156.472422585,-4473908.719804285 L 4757918.935097765,-4489673.710492124 L 4761647.6927613765,-4491068.906369354 L 4772170.946865046,-4485892.583674292 L 4779682.786103777,-4484470.776954372 L 4797032.9306193255,-4490439.707664894 L 4807349.575748082,-4487287.277777285 L 4816024.703665603,-4483315.665490943 L 4820884.022077711,-4483055.880866669 L 4844158.92385175,-4473246.285879009 L 4849964.1239771275,-4472031.022972347 L 4861965.700918533,-4470829.461338158 L 4879848.620517018,-4470310.653865737 L 4891382.766916581,-4476708.686839861 L 4899525.231070656,-4482898.697487161 L 4905254.177344841,-4482748.374706416 L 4910798.4445838,-4481265.417000307 L 4915451.265340487,-4478621.355507063 L 4919408.339279714,-4473990.670404073 L 4921256.354146374,-4467389.535497252 L 4920506.283417408,-4446330.477191852 L 4922267.357761758,-4440760.744301916 L 4925409.127750417,-4436779.417535317 L 4929431.43491125,-4436044.476807713 L 4934301.662633456,-4440604.189307186 L 4942802.798186866,-4447263.51474403 L 4953271.617059537,-4454526.835423502 L 4961066.207804882,-4461188.090523408 L 4965512.419586657,-4463670.885791894 L 4972567.737593644,-4463329.856248653 L 4979427.355935816,-4462170.214697779 L 4983232.25613113,-4458978.610122919 L 4983264.872741933,-4457942.185086119 L 4986939.306494037,-4448012.766198509 L 4996114.370244709,-4411170.819456379 L 5001343.380685742,-4406528.806990888 L 5007311.552545642,-4402607.647453752 L 5011518.650061192,-4397149.07363643 L 5013160.167272429,-4391666.091775973 L 5012649.32212918,-4383159.174746922 L 5012834.112483896,-4373251.891550623 L 5015290.933645703,-4365712.641718105 L 5018704.434511389,-4359955.178391041 L 5021889.619101456,-4357084.38153711 L 5026661.996991254,-4356821.02378617 L 5032369.347284227,-4355409.597083458 L 5036217.662080949,-4349711.696311874 L 5048436.757307364,-4308142.221045031 L 5049632.551277465,-4302731.236729909 L 5054763.71188609,-4301004.315309666 L 5063232.230828698,-4301797.214576463 L 5071896.44943612,-4297484.167874262 L 5081180.383648788,-4290769.527986915 L 5089909.835477815,-4278170.626563573 L 5095801.864806012,-4276132.518959933 L 5114173.922247043,-4277996.238389832 L 5139340.364808641,-4275958.300688972 L 5151135.555414115,-4269464.512728148 L 5149917.942823819,-4265472.439927754 L 5140840.617586063,-4260979.623114194 L 5124860.148085234,-4255739.332191916 L 5120142.205426433,-4246830.350912248 L 5117478.775289714,-4235343.886496894 L 5117957.1151416525,-4228867.585172297 L 5121881.572470078,-4221761.350902553 L 5133176.493283927,-4207682.554667166 L 5133807.00687978,-4202580.674325557 L 5135807.306809844,-4195491.361296139 L 5137916.365882413,-4190648.071551015 L 5135589.899844325,-4181240.0590021554 L 5125349.397247272,-4174782.087148351 L 5111890.982129855,-4167757.030116631 L 5084865.615391499,-4136523.1625529984 L 5082854.517470827,-4129793.405064578 L 5083017.489205349,-4111371.7138933707 L 5080343.261078023,-4106115.8364959755 L 5071809.508913809,-4106208.3106830805 L 5065123.771616258,-4107165.5443387902 L 5064786.807517625,-4100717.284353696 L 5060514.47678047,-4092136.2406296046 L 5058090.272229466,-4084681.93046959 L 5068026.316019201,-4067090.3333700774 L 5069798.299673648,-4057778.8814208186 L 5068222.015684015,-4049302.7237722324 L 5059036.042623246,-4034717.4592338926 L 5053578.715906596,-4024888.5646075397 L 5054904.976319906,-4022693.0492119896 L 5062058.1441593,-4018801.2678220593 L 5084376.366229462,-3986806.6588030867 L 5091562.150679659,-3975595.930803607 L 5100976.551335537,-3978533.081593998 L 5104498.700024236,-3978337.230417807 L 5107270.889303462,-3976522.7240009466 L 5108977.639736304,-3972750.924702728 L 5108977.639736304,-3967956.401210262 L 5106585.94047661,-3960791.239858309 L 5118587.6287375055,-3957871.6780608403 L 5122914.283386168,-3950615.1381578757 L 5136937.8675583415,-3925824.5182695403 L 5136405.203794895,-3918477.4534926564 L 5129686.961206031,-3906794.0838539447 L 5129654.344595228,-3899050.6940534175 L 5131056.636220751,-3892102.741561287 L 5133252.63581563,-3889686.1801082157 L 5153896.724063752,-3888701.547292791 L 5162669.701813679,-3885916.5798474723 L 5184140.003322468,-3873282.432243604 L 5208534.556534907,-3853962.442617898 L 5228515.625895863,-3838156.4673513975 L 5245528.806312781,-3824716.4430016004 L 5263759.488000505,-3825695.6199370637 L 5268727.565555118,-3823254.0953202345 L 5273347.769701001,-3819061.1999772782 L 5278565.870831937,-3808035.719039306 L 5289002.073093805,-3783125.7333126734 L 5297861.991366043,-3774865.969107435 L 5311559.520749683,-3754968.4416808337 L 5324409.018252458,-3736357.039936188 L 5315940.499309852,-3711096.8482844355 L 5307656.770721962,-3684882.86836579 L 5307656.770721962,-3651139.798919014 L 5307656.770721962,-3633059.92388659 L 5325115.674380016,-3632286.298790326 L 5344520.554056625,-3631423.9007802247 L 5344672.727800541,-3609865.650719958 L 5344835.810854553,-3588211.902804596 L 5344998.782589073,-3563543.1097918944 L 5350695.223571948,-3562515.2397450036 L 5359761.750819095,-3557244.83407883 L 5363642.6822266225,-3549267.63068498 L 5368512.909948828,-3544922.082465728 L 5374383.23197632,-3544210.4996949267 L 5380188.432101699,-3540294.67432634 L 5385928.287685982,-3533171.267203811 L 5388015.528138355,-3527780.9520865637 L 5386482.770069622,-3524115.337057453 L 5387711.180650527,-3517648.140344156 L 5391711.669191164,-3508383.6319138524 L 5396603.715533565,-3504039.4643358104 L 5404169.878683803,-3498711.71847327 L 5393896.7594759455,-3495644.0842997767 L 5382808.336317519,-3497990.1280068597 L 5359109.418603048,-3508810.555945035 L 5351434.496310306,-3509105.6819738885 L 5341389.693378065,-3505006.035403635 L 5340965.677437633,-3501340.67763868 L 5315940.499309852,-3513401.279226828 L 5306906.699992996,-3515844.9038907764 L 5303677.9894820275,-3516064.793948419 L 5289328.23920183,-3515958.0007598507 L 5268901.5579192275,-3513796.982322843 L 5256867.25304753,-3508885.9120937334 L 5248518.291238034,-3503675.428362972 L 5244746.007653523,-3498579.88640196 L 5243376.332638802,-3495838.4474387076 L 5236875.385695966,-3480818.1166529446 L 5229341.839156531,-3461566.9521212764 L 5221536.339101088,-3444237.242289332 L 5206338.668259519,-3419944.8036178574 L 5197924.473228418,-3408737.6493814667 L 5179856.763275215,-3387900.942206643 L 5160375.852386393,-3383752.5525134318 L 5115097.9853401175,-3387851.257709439 L 5064917.273960835,-3392399.1884299098 L 5014975.676847777,-3396930.085687813 L 4977818.455335381,-3400310.6388535057 L 4974959.325533846,-3401425.1863601645 L 4938215.210651784,-3431161.617472524 L 4909146.018062465,-3454712.283039247 L 4872869.333722243,-3484183.038440407 L 4835809.962042255,-3514349.778022564 L 4798217.92659882,-3545035.439057948 L 4770899.010363243,-3567365.265782622 L 4737731.479400878,-3596150.581099615 L 4707542.524053668,-3622417.174750355 L 4683702.34190538,-3643191.2522655674 L 4653122.098548033,-3661400.402861029 L 4629227.592488239,-3675646.08709311 L 4594429.342305243,-3696421.098006526 L 4566599.469606924,-3713056.2062963755 L 4542770.085449243,-3727323.943622445 L 4506091.203788786,-3749320.464591745 L 4493893.927182567,-3755301.498771929 L 4455877.875798701,-3762656.942508841 L 4419840.417044194,-3768894.5148496814 L 4382498.293857591,-3775360.012356532 L 4357647.108093919,-3779665.8820372475 L 4374051.482215688,-3795362.201326202 L 4369007.373448864,-3809470.502378777 L 4357049.211108869,-3806864.8561224006 L 4346069.435773456,-3803500.993967565 L 4339416.426406196,-3825502.443484297 L 4347895.854658901,-3828221.585617983 L 4340057.737992656,-3856965.9577788976 L 4331980.618379678,-3886635.4403120326 L 4324207.846254528,-3915347.793753407 L 4316250.17245517,-3944814.4046810293 L 4347776.186206298,-3963731.1662127157 L 4371333.728167461,-3977893.402533636 L 4404294.7614744045,-3997740.5473970226 L 4436081.708111952,-4016908.321048965 L 4466357.603981471,-4035202.8590145526 L 4499699.015988455,-4055386.566516407 L 4529529.188616837,-4073473.2899690233 L 4556869.92347261,-4080828.068186051 L 4562653.304977793,-4086559.891875323 L 4575122.312461039,-4111318.9630502495 L 4585776.033007919,-4132532.496033978 L 4586276.080160561,-4137456.5521991784 L 4586319.494761971,-4167604.366729797 L 4588189.328248826,-4203113.490452411 L 4591744.204867817,-4222128.1520757675 L 4597864.550471632,-4238964.310591833 L 4603517.576853096,-4251257.224687457 L 4604104.564528049,-4262793.860194665 L 4603354.493799085,-4274503.707416438 L 4597516.6770629035,-4292226.296881098 L 4591439.746060498,-4310724.289715561 L 4592124.694887349,-4328593.65545495 L 4593244.346325749,-4338176.640487177 L 4597049.246521062,-4353498.761172932 L 4603528.374843704,-4364712.2472887235 L 4610496.75232838,-4371669.182984018 L 4636478.498840549,-4378840.476231972 L 4651882.778657031,-4383104.960140392 L 4672526.866905153,-4403041.747999123 L 4684767.669432272,-4414884.579746395 L 4701835.285080188,-4433690.612467962 L 4714391.344405234,-4447556.45723796 L 4715391.43871052,-4452359.638726988 L 4715380.529400422,-4454254.219051772 z" /></g>
</svg>
