<?xml version="1.0" encoding="UTF-8"?>
<svg xmlns="http://www.w3.org/2000/svg" viewBox="4900644.882509055 -4832366.103153103 2146455.074389509 1944075.5744265132">
  <g id="map"><g><path fill-rule="evenodd" fill="currentColor"    d="M 6254818.212858566,-3113623.058797256 L 6244458.153128399,-3098652.7036926397 L 6228803.849735594,-3086180.384626784 L 6222107.314447435,-3090062.6820016894 L 6216932.627917909,-3089880.208174259 L 6205757.264237173,-3085103.44466481 L 6197669.123994606,-3084276.139118069 L 6183036.733527284,-3075767.7791661993 L 6169741.40146388,-3071482.0835928842 L 6160468.487880801,-3071810.337420049 L 6157250.575360439,-3072667.4180387463 L 6155413.469803878,-3078467.5431624847 L 6155576.441538399,-3080754.150852508 L 6161196.851309061,-3079556.061566564 L 6181764.797025479,-3087287.8128211065 L 6207464.014670015,-3099998.5890612113 L 6209909.926521725,-3105639.3311890704 L 6205778.971537878,-3114848.3836210454 L 6206909.532286374,-3116933.5787143796 L 6223553.131993857,-3112208.7114954293 L 6242142.596400408,-3121391.705589256 L 6257709.959270903,-3123880.423273363 L 6264993.593553507,-3117488.5506332396 L 6254818.212858566,-3113623.058797256 z" /><path fill-rule="evenodd" fill="currentColor"    d="M 6001696.837747078,-4487102.726767702 L 6032581.539911746,-4485550.834126473 L 6044626.64277405,-4488511.1653831955 L 6062313.75138823,-4496069.7985877395 L 6075696.023973944,-4500648.670820376 L 6082457.792483709,-4501278.62182917 L 6089110.91317046,-4504846.066847793 L 6094209.457168282,-4509298.556523364 L 6105721.896267141,-4540320.154429931 L 6111450.953860817,-4548102.09392508 L 6130986.188661147,-4565660.06333247 L 6147586.262447731,-4576791.245805602 L 6164969.023574082,-4586650.297576432 L 6186961.19085571,-4593527.590444244 L 6216226.0831098445,-4592802.355085401 L 6239490.075573787,-4590385.271236708 L 6252948.379371711,-4590502.647276896 L 6259362.385792238,-4589798.411016947 L 6264178.1782834465,-4590792.699084883 L 6266950.36756267,-4592829.937711311 L 6269972.469098726,-4606458.96004431 L 6274734.048997918,-4610906.875700002 L 6282941.635054106,-4614719.809375431 L 6294454.074152965,-4614747.450642225 L 6308466.860334531,-4615744.286811481 L 6320120.563867207,-4614809.820952584 L 6334818.298875624,-4609564.6630389225 L 6354005.6602672255,-4609128.86760216 L 6366757.419257086,-4610041.990685052 L 6374171.408663408,-4604827.013399569 L 6379509.066927454,-4597859.268439975 L 6382107.26384257,-4592049.589982466 L 6382694.362837014,-4584075.935849014 L 6382585.603694509,-4578004.910972964 L 6384585.903624573,-4575660.333272507 L 6392391.292360525,-4572040.91499423 L 6403207.9846419245,-4569325.521690766 L 6424308.705441281,-4566052.6938376585 L 6444083.165827327,-4559785.781229335 L 6454367.083025791,-4555504.372763603 L 6468640.802093777,-4548824.210943515 L 6485653.982510694,-4532324.356548872 L 6491948.320478618,-4529708.58101291 L 6499579.82816995,-4528040.580632203 L 6505037.04356711,-4528486.619873804 L 6517810.509857675,-4535469.8358350685 L 6528909.8423262,-4530319.474606692 L 6534541.050087468,-4530978.633030266 L 6547303.718387426,-4534810.393712104 L 6560859.872017758,-4530051.773682065 L 6594657.916575977,-4511943.617776448 L 6598364.966938883,-4512361.600817077 L 6601441.503705937,-4510525.15430737 L 6604246.198276473,-4506387.0668587815 L 6606224.790905833,-4501278.62182917 L 6608746.845289245,-4485728.497704144 L 6618498.098724265,-4474407.145930057 L 6630434.553763554,-4464073.401449583 L 6644349.490112714,-4458426.31223202 L 6673451.2993128365,-4444907.157034907 L 6686159.532381796,-4433935.532683844 L 6699019.93919467,-4415359.930043961 L 6714869.94225229,-4390927.460496001 L 6717163.791679575,-4388718.948130956 L 6757973.62832388,-4389457.426757666 L 6803805.977753796,-4389403.180207512 L 6809404.568904262,-4379652.707098406 L 6808339.241377371,-4360326.811208102 L 6809980.758588609,-4340556.799587678 L 6814090.006271752,-4326869.362034119 L 6814133.420873161,-4314268.854217895 L 6810817.769839883,-4307893.4109840635 L 6808241.391544963,-4300607.887403781 L 6807513.028116702,-4297423.779775985 L 6813405.0574449,-4292877.479085043 L 6818557.92535423,-4282422.305077887 L 6819286.2887824895,-4267896.920872671 L 6816709.910487571,-4260182.973161295 L 6817079.491197005,-4253839.12734453 L 6819655.980811414,-4248401.634871031 L 6821862.778396901,-4239345.095690378 L 6821493.197687468,-4233921.488543271 L 6817818.763935363,-4228493.724503639 L 6815611.966349877,-4221714.630737158 L 6812665.896026033,-4213133.232151755 L 6811557.042578242,-4206363.584688332 L 6806034.482639986,-4203206.637043321 L 6801620.887469015,-4200949.383115069 L 6802360.160207373,-4192384.2504917043 L 6804566.9577928595,-4185175.1142275906 L 6807143.336087778,-4176628.704189495 L 6804197.377083426,-4170777.5592036997 L 6802360.160207373,-4164033.75632582 L 6798305.236435737,-4153249.508508715 L 6799403.180573433,-4144277.069351518 L 6794989.58540246,-4136648.96564599 L 6789467.025464205,-4129925.771136821 L 6785792.703031592,-4124548.7955996087 L 6785053.430293234,-4116940.6215376076 L 6780998.506521598,-4114251.6097493423 L 6773269.260317348,-4107990.750600586 L 6768485.973117453,-4103521.866972942 L 6761484.979021973,-4102182.196903975 L 6760017.454174845,-4098606.0646720035 L 6761115.398312539,-4095031.0682997745 L 6764061.468636382,-4092795.6006447566 L 6768659.854162071,-4085070.6951859402 L 6778182.902640964,-4071775.2819607714 L 6750711.812661473,-4070123.4835000657 L 6742645.4910391,-4058331.098234371 L 6733241.99969332,-4041535.1035336372 L 6737840.4965385,-4007605.0938050044 L 6733263.818313516,-3990184.4004785116 L 6736035.896273251,-3980419.706726722 L 6743047.688359336,-3973657.845339814 L 6752038.073074783,-3969926.1242158553 L 6768942.494349196,-3969697.8242947226 L 6780128.878659521,-3967063.0170360697 L 6781248.53009792,-3962557.749265372 L 6774823.725686786,-3956021.2911017216 L 6764539.8084883215,-3943694.8850806323 L 6759104.189072377,-3938326.9841726962 L 6741569.254202111,-3913614.5085017066 L 6741721.4279460255,-3903109.8221806535 L 6743352.147166655,-3894623.4596662866 L 6750918.310316893,-3868043.705381811 L 6758256.268511004,-3842330.217266117 L 6771486.367352803,-3796094.8026251295 L 6771258.051077187,-3785379.4199676784 L 6767105.277473144,-3761618.601999542 L 6766833.546596116,-3747201.597726273 L 6768703.380082972,-3728506.3274060898 L 6767290.179147351,-3718840.5715365517 L 6770529.687648926,-3697224.2264660606 L 6774247.647321931,-3695668.9309907407 L 6802816.681439117,-3691475.685114935 L 6829059.3608377045,-3687627.8673039177 L 6863977.168153812,-3682514.1466986258 L 6874543.836858892,-3669856.862688839 L 6881131.724324037,-3642175.9002544438 L 6880751.234304505,-3621492.1440837802 L 6877783.456679957,-3610941.754970425 L 6852769.187862273,-3580827.636384302 L 6827407.04563586,-3550388.9890493504 L 6802077.520020249,-3520067.483287741 L 6773051.742032339,-3485398.79051975 L 6794293.838585001,-3460359.601943362 L 6807425.976274902,-3444905.7907490805 L 6825928.5001591435,-3423156.576444059 L 6828276.673497937,-3417943.2429712247 L 6828102.792453317,-3409416.7513390905 L 6847105.363490202,-3376416.7233175095 L 6853801.898778363,-3359224.4823868615 L 6859846.213169964,-3349148.2835308784 L 6874870.002966915,-3333416.249270137 L 6889545.919355137,-3318055.481101375 L 6905482.862935066,-3311021.9077627175 L 6916342.969817876,-3309475.871848616 L 6941107.2150592385,-3301365.118064981 L 6950108.509084783,-3294927.031949783 L 6964653.959029796,-3278654.06149071 L 6981688.846747418,-3280881.486115143 L 6985232.814056312,-3280893.8708518427 L 6986189.493760189,-3279715.3498624368 L 6986689.540912832,-3274471.7634250214 L 6984156.577219322,-3249232.376287784 L 6988896.338498319,-3223849.264065052 L 6992201.191540989,-3185706.375162753 L 6990961.871649988,-3179120.649401247 L 6986885.2405776465,-3168112.5842226394 L 6986689.540912832,-3161027.471071899 L 6985602.394765745,-3156697.4597342154 L 6986743.864824339,-3154765.2338782456 L 6992157.6656200895,-3152166.9816896264 L 7003713.630639847,-3150785.542794287 L 7031695.677082081,-3155052.6088934587 L 7034957.004203851,-3153982.652235645 L 7041653.539492011,-3149471.4563478297 L 7046697.759578328,-3142408.077477937 L 7047099.956898564,-3139042.637877199 L 7040077.255502379,-3133180.945383826 L 7038892.259522884,-3123239.9932794017 L 7041001.318595454,-3108393.465596322 L 7040022.931590871,-3106583.687912353 L 7033848.150756059,-3103196.375733594 L 7031836.941515897,-3081751.659940053 L 7030695.582776793,-3079781.123762836 L 7023477.181715795,-3077610.1133441506 L 6989374.678350257,-3079051.272593321 L 6985472.039642027,-3078461.440719751 L 6972655.047430561,-3072795.0197800943 L 6950706.406069833,-3068735.105729065 L 6944673.000988329,-3066444.3291359534 L 6936574.062755155,-3060005.2931395946 L 6930714.538718269,-3052124.4748715153 L 6929594.775960379,-3044884.9902816033 L 6928453.305901785,-3043368.38250161 L 6915832.124674626,-3044854.673951092 L 6911722.876991482,-3038552.750959952 L 6887317.303149456,-3029138.299912286 L 6884262.585002598,-3027090.1087434823 L 6880653.384472099,-3019566.3937684563 L 6877402.966660427,-2998566.9572808463 L 6874467.805646679,-2979693.1838954417 L 6872608.770150432,-2976939.489249487 L 6864922.938547593,-2970497.8782744897 L 6864161.958508529,-2968307.13900516 L 6865227.397354912,-2961030.875560745 L 6861748.663267622,-2947724.5220819023 L 6858998.292608593,-2910930.747910465 L 6855932.665151637,-2900618.5640808023 L 6849833.915529036,-2899777.548855302 L 6845072.446949336,-2894630.3730674153 L 6836375.611731112,-2888290.52872659 L 6817536.123748239,-2893195.245126305 L 6802577.567172892,-2898347.9559040284 L 6753070.783990873,-2910449.8657115535 L 6747646.185204516,-2916311.997361611 L 6744569.648437462,-2926622.959217044 L 6736003.279662448,-2929523.9475270403 L 6723718.951214429,-2914063.0169190443 L 6681919.818255444,-2923000.7234762795 L 6667711.332409063,-2920251.424858073 L 6658949.263969234,-2925064.4788445295 L 6636424.5442436505,-2925359.253999847 L 6618617.767176867,-2935002.1934098853 L 6593146.86580795,-2928374.257140135 L 6572981.117411764,-2927086.3693678416 L 6545346.944378261,-2944018.7740880097 L 6515625.4195728935,-2948688.842761294 L 6491513.50654758,-2947260.4659675816 L 6479120.530276546,-2948586.3968990417 L 6459019.903782477,-2954662.5427749017 L 6449475.148002881,-2960940.326457669 L 6433831.753920173,-2956169.9300731197 L 6426754.728612483,-2965048.5803279825 L 6382455.137251299,-2973286.711238567 L 6374258.460505209,-2989033.387536675 L 6368094.477661003,-3003689.919975247 L 6367627.047119162,-3018767.0469917282 L 6356821.26414786,-3045158.088635895 L 6353222.972927458,-3083558.2663401547 L 6349222.373067329,-3098591.8419190748 L 6343232.493906724,-3111666.3059547506 L 6335242.203496565,-3122794.608046163 L 6324382.096613755,-3134719.3161927247 L 6314945.988657172,-3139433.5046753753 L 6273538.143708326,-3148511.9435099093 L 6265547.9646176575,-3147308.0772768706 L 6247034.531423318,-3141363.483624047 L 6227336.213568977,-3128169.908165213 L 6194962.279256476,-3120665.824121701 L 6188428.827022329,-3114994.7205507196 L 6180297.272178352,-3102240.020100134 L 6169774.018074682,-3094835.007244764 L 6155315.619971471,-3096752.7675097766 L 6139780.873711778,-3089204.67659994 L 6110972.614008878,-3068194.236236104 L 6095774.831847818,-3061772.6973505775 L 6083044.891478152,-3062252.617225645 L 6069369.069395217,-3072235.821398495 L 6038756.209427067,-3085620.6597126545 L 6018970.951050416,-3090074.8968636123 L 5991499.8610709235,-3087001.8196558002 L 5978498.078504742,-3089228.980222178 L 5956386.354090001,-3104963.046877828 L 5950581.153964623,-3116384.8723686766 L 5937970.770728069,-3124032.976354335 L 5897987.147344433,-3141216.871427937 L 5865602.303721836,-3163933.3551299674 L 5859655.83916264,-3172531.9127684454 L 5855698.765223412,-3185246.815767036 L 5841588.129209438,-3200709.1908265674 L 5809975.174936001,-3213376.4284821195 L 5792037.931426009,-3226854.3939752593 L 5771024.151148962,-3229854.015807577 L 5751467.209047927,-3229442.2022852697 L 5742868.223662111,-3231864.413195944 L 5735019.309005258,-3237632.839677279 L 5708341.70435614,-3265543.882763165 L 5708026.447558214,-3276593.639146293 L 5691589.456825643,-3303948.611307337 L 5687741.142028919,-3313693.7911105375 L 5684197.174720025,-3340833.596863159 L 5679653.001786352,-3347938.8320595794 L 5662487.647625521,-3359131.431501399 L 5659813.419498193,-3366463.868265147 L 5663466.034630103,-3376205.4318322013 L 5663466.034630103,-3383628.126171707 L 5654530.085145654,-3390601.0044155666 L 5641136.903249843,-3394315.9004701828 L 5637897.394748268,-3402683.055878243 L 5640332.50860937,-3418972.0787249403 L 5638288.682758406,-3429220.695551765 L 5626482.805481816,-3445580.5159302126 L 5609045.609124467,-3462361.451282058 L 5591597.614776511,-3487222.76337823 L 5584781.411035748,-3493429.991898419 L 5580324.289943876,-3509733.6351809395 L 5573943.0114536425,-3529095.2789985137 L 5564093.796866726,-3530491.5383419143 L 5516424.341880249,-3507272.2820089413 L 5502520.203521697,-3520331.4652146185 L 5460699.363262008,-3543064.6751574245 L 5457785.909548966,-3546483.7589907264 L 5454872.455835924,-3551705.6673445613 L 5460112.264267564,-3554717.577716114 L 5465362.9820093,-3555946.4218564504 L 5475842.710192069,-3551894.6971165985 L 5482180.574080895,-3556683.837493397 L 5479647.610387384,-3564407.029849485 L 5469167.882204615,-3569201.0629502577 L 5454872.455835924,-3568828.8172140084 L 5458786.003854252,-3561588.3044396215 L 5445392.933277933,-3554717.577716114 L 5442544.712786495,-3545734.4293698184 L 5444490.577485562,-3534624.5431135707 L 5445653.866164352,-3519099.639369437 L 5440196.5394477025,-3511573.563289332 L 5436000.35124225,-3508113.596990428 L 5418019.581811357,-3507190.6351086316 L 5409627.205400452,-3500343.028113765 L 5404169.878683803,-3498711.71847327 L 5396603.715533565,-3504039.4643358104 L 5391711.669191164,-3508383.6319138524 L 5387711.180650527,-3517648.140344156 L 5386482.770069622,-3524115.337057453 L 5388015.528138355,-3527780.9520865637 L 5385928.287685982,-3533171.267203811 L 5380188.432101699,-3540294.67432634 L 5374383.23197632,-3544210.4996949267 L 5368512.909948828,-3544922.082465728 L 5363642.6822266225,-3549267.63068498 L 5359761.750819095,-3557244.83407883 L 5350695.223571948,-3562515.2397450036 L 5344998.782589073,-3563543.1097918944 L 5344835.810854553,-3588211.902804596 L 5344672.727800541,-3609865.650719958 L 5344520.554056625,-3631423.9007802247 L 5325115.674380016,-3632286.298790326 L 5307656.770721962,-3633059.92388659 L 5307656.770721962,-3651139.798919014 L 5307656.770721962,-3684882.86836579 L 5315940.499309852,-3711096.8482844355 L 5324409.018252458,-3736357.039936188 L 5311559.520749683,-3754968.4416808337 L 5297861.991366043,-3774865.969107435 L 5289002.073093805,-3783125.7333126734 L 5278565.870831937,-3808035.719039306 L 5273347.769701001,-3819061.1999772782 L 5268727.565555118,-3823254.0953202345 L 5263759.488000505,-3825695.6199370637 L 5245528.806312781,-3824716.4430016004 L 5228515.625895863,-3838156.4673513975 L 5208534.556534907,-3853962.442617898 L 5184140.003322468,-3873282.432243604 L 5162669.701813679,-3885916.5798474723 L 5153896.724063752,-3888701.547292791 L 5133252.63581563,-3889686.1801082157 L 5131056.636220751,-3892102.741561287 L 5129654.344595228,-3899050.6940534175 L 5129686.961206031,-3906794.0838539447 L 5136405.203794895,-3918477.4534926564 L 5136937.8675583415,-3925824.5182695403 L 5122914.283386168,-3950615.1381578757 L 5118587.6287375055,-3957871.6780608403 L 5106585.94047661,-3960791.239858309 L 5108977.639736304,-3967956.401210262 L 5108977.639736304,-3972750.924702728 L 5107270.889303462,-3976522.7240009466 L 5104498.700024236,-3978337.230417807 L 5100976.551335537,-3978533.081593998 L 5091562.150679659,-3975595.930803607 L 5084376.366229462,-3986806.6588030867 L 5062058.1441593,-4018801.2678220593 L 5054904.976319906,-4022693.0492119896 L 5053578.715906596,-4024888.5646075397 L 5059036.042623246,-4034717.4592338926 L 5068222.015684015,-4049302.7237722324 L 5069798.299673648,-4057778.8814208186 L 5068026.316019201,-4067090.3333700774 L 5058090.272229466,-4084681.93046959 L 5060514.47678047,-4092136.2406296046 L 5064786.807517625,-4100717.284353696 L 5065123.771616258,-4107165.5443387902 L 5071809.508913809,-4106208.3106830805 L 5080343.261078023,-4106115.8364959755 L 5083017.489205349,-4111371.7138933707 L 5082854.517470827,-4129793.405064578 L 5084865.615391499,-4136523.1625529984 L 5111890.982129855,-4167757.030116631 L 5125349.397247272,-4174782.087148351 L 5135589.899844325,-4181240.0590021554 L 5137916.365882413,-4190648.071551015 L 5135807.306809844,-4195491.361296139 L 5133807.00687978,-4202580.674325557 L 5133176.493283927,-4207682.554667166 L 5121881.572470078,-4221761.350902553 L 5117957.1151416525,-4228867.585172297 L 5117478.775289714,-4235343.886496894 L 5120142.205426433,-4246830.350912248 L 5124860.148085234,-4255739.332191916 L 5140840.617586063,-4260979.623114194 L 5149917.942823819,-4265472.439927754 L 5151135.555414115,-4269464.512728148 L 5139340.364808641,-4275958.300688972 L 5114173.922247043,-4277996.238389832 L 5095801.864806012,-4276132.518959933 L 5089909.835477815,-4278170.626563573 L 5081180.383648788,-4290769.527986915 L 5071896.44943612,-4297484.167874262 L 5063232.230828698,-4301797.214576463 L 5054763.71188609,-4301004.315309666 L 5049632.551277465,-4302731.236729909 L 5048436.757307364,-4308142.221045031 L 5036217.662080949,-4349711.696311874 L 5032369.347284227,-4355409.597083458 L 5026661.996991254,-4356821.02378617 L 5021889.619101456,-4357084.38153711 L 5018704.434511389,-4359955.178391041 L 5015290.933645703,-4365712.641718105 L 5012834.112483896,-4373251.891550623 L 5012649.32212918,-4383159.174746922 L 5013160.167272429,-4391666.091775973 L 5011518.650061192,-4397149.07363643 L 5007311.552545642,-4402607.647453752 L 5001343.380685742,-4406528.806990888 L 4996114.370244709,-4411170.819456379 L 4986939.306494037,-4448012.766198509 L 4983264.872741933,-4457942.185086119 L 4983232.25613113,-4458978.610122919 L 4983406.137175749,-4460922.146288106 L 4982471.276092067,-4469409.686728955 L 4986754.404819828,-4476776.950486835 L 4986460.9666420985,-4479659.814861556 L 4977666.281591467,-4489003.561276134 L 4965305.921931235,-4498335.015543319 L 4961957.542967664,-4499970.951388894 L 4961859.804454748,-4509928.887199742 L 4962305.416376393,-4517482.475537358 L 4961196.674248093,-4524286.761655327 L 4958848.500909299,-4528177.778194031 L 4958761.560386989,-4531246.3577209925 L 4963729.526622112,-4538588.684095104 L 4960533.432721946,-4543413.002504435 L 4942335.367645024,-4555332.284907298 L 4935486.547293459,-4561328.005222585 L 4922876.1640569065,-4562512.501808566 L 4921582.520254398,-4566445.480282108 L 4923539.294263562,-4574791.472928551 L 4927887.76753242,-4584910.94662311 L 4934725.678573887,-4594874.51028119 L 4936899.859548571,-4600139.806342203 L 4939552.3803751925,-4609094.299441783 L 4940454.624848072,-4615453.532964514 L 4948107.83984011,-4624414.252517237 L 4948140.456450913,-4626749.3515040595 L 4946020.599387736,-4629951.183462091 L 4939889.344473825,-4631767.436502339 L 4933638.532426801,-4632495.4191659205 L 4931290.359088007,-4634138.7169319065 L 4930431.529216536,-4638945.437814271 L 4931214.327875795,-4658528.415310594 L 4929246.644556533,-4670331.126197361 L 4926670.154942122,-4678880.372530069 L 4928300.874162754,-4698212.132967163 L 4923930.693593191,-4702099.621687912 L 4917071.075251019,-4712275.709040044 L 4914146.712227879,-4720867.303920062 L 4915733.905527609,-4724070.863885253 L 4917190.632384132,-4729732.108232634 L 4918158.110078615,-4737161.651183348 L 4917875.469891491,-4742437.649897208 L 4911559.424622863,-4747576.242077088 L 4906863.189264766,-4752991.168806119 L 4906330.41418183,-4758977.458810355 L 4904460.692014466,-4766295.047020897 L 4901818.96917845,-4772078.349729298 L 4900644.882509055,-4775881.8718322525 L 4902949.529926948,-4778118.351029072 L 4911863.772110691,-4779883.919486647 L 4924822.140075465,-4778666.888690343 L 4935399.60677115,-4778561.442676683 L 4941400.395241852,-4782318.135235217 L 4948814.495967666,-4817632.527048045 L 4955576.264477431,-4826964.773870166 L 4963414.269824185,-4832366.103153103 L 4978764.225729161,-4819800.52517781 L 4985123.796918689,-4815366.105219398 L 4989026.546946411,-4815274.296613954 L 4991363.810975106,-4812189.872934246 L 5009398.792998015,-4782522.190058778 L 5017356.466797373,-4773786.704218718 L 5021965.761633159,-4766400.364519626 L 5025096.62231172,-4758163.172013968 L 5030597.363629778,-4752605.236127944 L 5037870.088602285,-4749596.013596673 L 5046730.006874521,-4741624.696542109 L 5052709.088044519,-4735417.462113181 L 5062775.709596954,-4722566.870997798 L 5073385.792903443,-4717776.584085276 L 5111999.74127236,-4708489.041536921 L 5133437.426170346,-4704180.12524177 L 5139633.914305864,-4702930.428018183 L 5156070.905038436,-4709166.574568039 L 5175312.701661034,-4708314.372381623 L 5182454.960190331,-4707986.214213997 L 5207882.335638349,-4734198.903019825 L 5215600.7838519905,-4742956.401142702 L 5230776.7473928565,-4747513.1980445 L 5239299.7015664615,-4757959.610593092 L 5252986.3216400035,-4770630.521145287 L 5269695.154569092,-4782571.475108081 L 5285023.291853872,-4793307.9797620345 L 5296785.754529053,-4799804.657871555 L 5318049.558382421,-4815006.104651328 L 5331344.779126334,-4820280.903847086 L 5342878.925525897,-4820118.460657886 L 5360153.038829234,-4802286.164419948 L 5374698.488774246,-4786097.424825892 L 5379199.135787019,-4778997.495045259 L 5371969.936735413,-4772647.720996785 L 5358478.905007194,-4766512.877053781 L 5355902.526712274,-4762017.670413542 L 5354956.756318495,-4756268.024691143 L 5355489.420081941,-4750767.301420738 L 5357304.818337797,-4746286.143735942 L 5373850.568212874,-4735879.7669991385 L 5375731.311009827,-4730166.054501851 L 5375850.868142938,-4724371.746566966 L 5373959.327355379,-4720755.441865341 L 5370273.984293178,-4718657.505061751 L 5358761.5451943185,-4715749.267342838 L 5348912.441926893,-4712366.583521891 L 5345488.03175111,-4709047.831348248 L 5342520.254126562,-4705108.775545834 L 5342944.158747503,-4700745.542891033 L 5345922.845682149,-4695784.0820126105 L 5366121.322008625,-4682230.962437234 L 5368404.150806323,-4677250.699732676 L 5372426.457967156,-4670560.729202695 L 5377351.009600868,-4666455.732988613 L 5385776.113942067,-4665335.723597283 L 5389798.4211029,-4662574.688093881 L 5409311.948602525,-4637662.071159291 L 5414084.3264923245,-4635907.131973284 L 5436880.888414424,-4641380.908473308 L 5440044.365703788,-4641131.0681423405 L 5440261.772669307,-4635026.366123787 L 5443675.273534993,-4599738.945476888 L 5446316.996371007,-4581564.384039783 L 5450197.927778533,-4563917.459685856 L 5456361.799303248,-4547840.696249284 L 5463667.140886555,-4532571.583556908 L 5473711.943818796,-4523154.654500931 L 5496117.217730759,-4511834.001748409 L 5506988.233923666,-4508565.557143487 L 5535579.086661048,-4506298.129877434 L 5563822.0659897,-4501299.092716878 L 5580498.282307985,-4496008.2764957175 L 5585596.826305809,-4492279.645583407 L 5589803.923821359,-4486548.953157976 L 5603588.393727308,-4459919.607908236 L 5625330.426113124,-4441012.659109268 L 5669216.799524483,-4412684.727035801 L 5690491.5126879485,-4403285.963370011 L 5762120.818275316,-4385508.692111829 L 5809779.475271186,-4386511.030723653 L 5941579.9712585695,-4420827.98578585 L 5985390.313457716,-4429399.017680072 L 6001838.213500385,-4429399.017680072 L 5992043.322824976,-4422560.649693095 L 5975573.715481603,-4418654.031919176 L 5985509.870590827,-4413832.153526512 L 6000816.300574903,-4413030.944248001 L 6007925.942493398,-4413811.851401201 L 6013057.103102022,-4418171.717888739 L 6013905.023663395,-4425360.700630719 L 6013165.862244528,-4432486.573297108 L 6005903.935262629,-4464469.086089537 L 6001696.837747078,-4487102.726767702 z" /></g></g>
</svg>
