<?xml version="1.0" encoding="UTF-8"?>
<svg xmlns="http://www.w3.org/2000/svg" viewBox="-2724620.6796970735 -10022334.181486296 1215562.0852764146 821660.2529067043">
  <g id="map"><path fill-rule="evenodd" fill="currentColor"    d="M -1730251.6471412925,-9939670.272355208 L -1717489.0901608248,-9938645.497762756 L -1696611.2309820375,-9948130.210143335 L -1687870.8698429125,-9954370.311151754 L -1666449.5489100723,-9975997.999421299 L -1653773.9324519145,-9982032.511461286 L -1634244.0409871428,-9980553.949954316 L -1624802.5896950022,-9982059.740829976 L -1624585.071409992,-9979957.280134857 L -1636581.3050158385,-9971160.392923463 L -1646218.4559727935,-9968153.845971422 L -1660019.2898438897,-9955086.573515385 L -1673129.720233086,-9925700.643485386 L -1682859.3776868903,-9911315.83777911 L -1682750.6185443855,-9904939.368508767 L -1670939.2866127468,-9893637.485489305 L -1657997.2826131207,-9887223.969494442 L -1646098.8988396814,-9893034.767753335 L -1640897.1616738937,-9890771.406111954 L -1636195.360341258,-9882380.719590986 L -1633542.8395146357,-9874080.265275082 L -1632944.9425295854,-9865869.458028775 L -1635086.5068934662,-9848705.275210548 L -1642245.1293879093,-9831503.20776357 L -1651904.0989650602,-9817138.636208476 L -1650545.2219409465,-9812621.93850723 L -1642799.6117715507,-9810291.757938953 L -1605919.5757912297,-9819590.267509468 L -1602092.968295211,-9818901.074959153 L -1599973.1112320346,-9814277.17984659 L -1599560.004601701,-9805700.09856338 L -1597532.542715883,-9797952.360605557 L -1593890.725574581,-9791018.786756499 L -1595026.7409781264,-9783933.538434409 L -1611170.293532967,-9761577.262379954 L -1592124.1965751827,-9775643.603138583 L -1577056.8808573314,-9779622.561957525 L -1551287.0866556335,-9772548.831968209 L -1540742.23657075,-9764430.447563969 L -1534567.4557359377,-9750189.566517033 L -1525647.758897145,-9754902.560275923 L -1521772.170825177,-9754626.88290756 L -1515934.465408487,-9746515.79720022 L -1515727.9677530658,-9737876.918615852 L -1520005.6418257789,-9725586.12720655 L -1521489.530638053,-9714256.702130515 L -1525968.4703501204,-9709609.958018728 L -1534344.5941153695,-9706244.240689084 L -1536741.6367106212,-9702450.060378266 L -1533050.9503128608,-9693839.392459704 L -1527620.8968714557,-9685434.209353155 L -1519896.9940027643,-9685044.078959022 L -1518521.7530135044,-9681183.356419234 L -1518347.8719688854,-9676519.617645647 L -1519391.4921950721,-9671067.219116693 L -1521913.5465784848,-9667318.027745906 L -1525903.2371285155,-9665269.05341384 L -1531186.571481055,-9659268.187631376 L -1511808.9650796885,-9646144.302221052 L -1509335.7799527342,-9641283.836871445 L -1509058.594420659,-9634141.663622929 L -1510569.645188687,-9626336.211687101 L -1513868.932256818,-9617844.108563915 L -1519717.5469836057,-9612810.219271325 L -1533676.009253665,-9611986.60949143 L -1542220.6707279752,-9606493.95076223 L -1539307.2170149337,-9597319.316382188 L -1539530.078635502,-9585758.782842351 L -1542101.1135948633,-9572156.632533012 L -1553091.6869208831,-9551611.51045028 L -1563419.2413597384,-9540711.592374744 L -1573518.3682034856,-9533645.103887554 L -1591531.7542451806,-9536139.73058187 L -1601342.7862467552,-9541577.78942983 L -1600250.29676411,-9523916.41178398 L -1610278.8470506947,-9513059.170197625 L -1608381.8516080861,-9504005.262879578 L -1604892.2082106988,-9499406.535644166 L -1606626.1205992948,-9487803.041820303 L -1611393.155153535,-9476332.064857382 L -1619372.4249341062,-9463921.93379257 L -1628406.3355704525,-9456189.378441604 L -1646365.2863811497,-9446881.040412772 L -1661709.7876310763,-9431411.178930366 L -1672194.8591494039,-9425305.171569584 L -1698274.4554939796,-9425568.509611314 L -1724892.281576541,-9415636.978369316 L -1762511.478975729,-9394767.492315138 L -1787841.0045913393,-9378066.179700263 L -1807387.1487017674,-9359218.775297346 L -1833216.7214700216,-9328555.6785004 L -1852393.2848710157,-9315685.983588425 L -1863454.5460736891,-9312219.216490822 L -1884979.2828134766,-9309481.56242402 L -1903019.719491434,-9301201.024954766 L -1962946.3409701777,-9285701.313646391 L -1983237.212474012,-9277252.094461046 L -1985857.1166898322,-9269560.853136905 L -1994271.3117209321,-9258021.130434576 L -1994798.5208293293,-9253848.49687281 L -1991102.3797765202,-9250631.85063796 L -1990422.8856047178,-9246451.280562885 L -1997842.4409855804,-9232838.32271391 L -2012659.6218076192,-9223002.10571924 L -2019660.615903099,-9223160.509906195 L -2028134.5895007553,-9231618.667347874 L -2031825.2758985152,-9231325.961144611 L -2033276.5480999872,-9230033.652161168 L -2033363.5999417875,-9227376.103026124 L -2028493.3722195823,-9217230.86147382 L -2037461.9383148327,-9212510.369258767 L -2076510.700614788,-9200673.928579591 L -2142921.9050712213,-9209458.227492092 L -2169235.2723464626,-9218557.746686239 L -2201707.0564913694,-9233045.657413004 L -2221041.2482913267,-9236913.430620536 L -2248447.2163687046,-9237853.267520994 L -2270966.481439239,-9258204.632084057 L -2281386.4310554527,-9270811.636727162 L -2282223.442306727,-9276049.436363539 L -2281049.4669568213,-9282028.03781064 L -2278706.748273077,-9286106.748204963 L -2275200.8522300334,-9288319.051257832 L -2267770.498858564,-9288540.34459722 L -2266802.909844589,-9290323.026762642 L -2272472.1888717087,-9300462.3448103 L -2277896.787658065,-9297175.405083355 L -2292398.8230016683,-9282875.741987288 L -2298850.7893685554,-9283391.457160478 L -2307324.7629662114,-9290532.04278455 L -2307645.4744191873,-9297482.931832783 L -2324212.9315949683,-9300142.080587985 L -2338611.5511316247,-9308840.487573827 L -2352912.4321553637,-9321364.41225795 L -2355048.6531836865,-9326145.547649126 L -2348178.125531417,-9333131.380313698 L -2349504.385944728,-9334504.640702937 L -2354673.6178192045,-9335692.395756949 L -2365120.6180716804,-9333391.063251575 L -2380856.5186512363,-9317537.168405974 L -2387650.9037718037,-9313896.676973213 L -2490501.8756224695,-9310196.68539889 L -2516586.926622094,-9308556.958537916 L -2521631.035388919,-9306153.349380663 L -2526175.2083225916,-9316451.017465852 L -2530224.6774391783,-9339480.246404381 L -2531735.728207206,-9354688.48814899 L -2530697.562636068,-9362062.676469708 L -2527082.90745052,-9370924.17700489 L -2521489.7709551025,-9369419.583747113 L -2516162.910681663,-9362373.0262218 L -2511347.006870964,-9352393.436772466 L -2505808.3056065445,-9347594.597849216 L -2469912.1112858555,-9359727.857152052 L -2455334.0447300402,-9367902.83476844 L -2449137.556594523,-9375676.387010302 L -2441843.0130018215,-9388917.682782514 L -2434102.857487475,-9395703.398975775 L -2430412.171089715,-9402121.088103015 L -2423155.6987628643,-9422473.495089164 L -2418144.206606842,-9431950.393733488 L -2412143.306816649,-9438953.38425265 L -2405169.5859964136,-9443475.364466643 L -2389286.9663279923,-9446704.951069249 L -2399734.0778999594,-9451521.183834717 L -2409697.394964939,-9451521.183834717 L -2443598.7440106138,-9429931.182503792 L -2454969.807356165,-9429931.182503792 L -2454491.467504226,-9433292.829139087 L -2449697.382313723,-9439380.532327197 L -2438038.224125999,-9449911.287628824 L -2446044.655862323,-9450703.568351228 L -2449104.9399837214,-9455472.005253315 L -2449452.81339245,-9465535.023355396 L -2443500.894178206,-9481762.002480827 L -2415899.337755505,-9503219.699731609 L -2406354.4706564173,-9506388.179287724 L -2403457.3809085223,-9510636.07380888 L -2407077.4907491193,-9514112.486559147 L -2412844.508289156,-9516181.373625899 L -2440614.602420918,-9494077.057063246 L -2460829.3313930505,-9486437.791418903 L -2466835.574518801,-9487929.404903537 L -2477293.484081376,-9496494.476405954 L -2480663.570345651,-9500305.808511939 L -2485175.01534903,-9510128.747506203 L -2484664.0588862887,-9516054.503943799 L -2475032.3625843828,-9533428.788075052 L -2476586.939273311,-9536801.723752154 L -2483207.332029768,-9538520.745260056 L -2501019.5637515998,-9554572.028559148 L -2529213.562504303,-9552963.817466011 L -2598973.1459243065,-9562259.812695285 L -2613388.129426109,-9558312.610072818 L -2637152.1690426944,-9544534.096620427 L -2651518.2832880383,-9539998.103328045 L -2658149.585354594,-9542992.110873686 L -2664183.1017555892,-9550272.002321955 L -2669662.0244534523,-9560100.716165967 L -2674581.2327516074,-9572489.447853697 L -2672450.4663783335,-9581145.021004302 L -2663253.5840074653,-9586079.112893028 L -2656508.068143356,-9588425.84356118 L -2637516.40641657,-9585425.339988595 L -2614371.97108574,-9594122.596694099 L -2599609.1141752084,-9595945.322072078 L -2595369.4000488557,-9597319.316382188 L -2586677.9081661897,-9606596.915145446 L -2582389.3247833783,-9608937.325234277 L -2575698.2441502674,-9605683.981704503 L -2572464.0789842503,-9599386.992895652 L -2549162.015254458,-9609168.88008823 L -2541166.3815087397,-9614084.434696473 L -2540264.0257163695,-9617096.91844818 L -2536758.1296733264,-9620626.263057021 L -2525169.548042765,-9615320.122113347 L -2515787.87531718,-9615152.69709115 L -2504074.281898458,-9618797.135075167 L -2483364.9604287315,-9620407.25974322 L -2437021.765855565,-9621231.855904214 L -2430080.5503266416,-9629238.233052256 L -2426813.7685498223,-9636323.59202696 L -2422726.3394868746,-9654282.248390825 L -2424536.283087682,-9657985.75861969 L -2453480.463888841,-9641438.917465724 L -2460084.6039996436,-9641697.480943507 L -2493589.2103801304,-9650464.359233823 L -2505699.5464640395,-9660395.347874505 L -2501731.5632147137,-9668381.392802615 L -2483979.2213789285,-9685603.316975517 L -2465650.5785393068,-9699452.80290077 L -2438674.0810574098,-9714452.444575895 L -2432358.035788781,-9720291.396287221 L -2431705.814892223,-9727207.795515064 L -2449670.2203579694,-9739567.183187554 L -2483702.0358468536,-9736147.898353113 L -2492409.669055685,-9750832.51292836 L -2520674.4670045325,-9759539.86888804 L -2539492.1363672093,-9754062.114368096 L -2549493.52469804,-9762957.664679367 L -2573937.058486427,-9750662.094128607 L -2627645.4845289486,-9732900.531940851 L -2649012.4815502814,-9720618.185185986 L -2660524.9206491406,-9716554.880968861 L -2673782.181446693,-9726580.138071826 L -2696600.561988989,-9737890.065632368 L -2722294.2136589848,-9741415.160496987 L -2724620.6796970735,-9748089.918785399 L -2709634.8498464827,-9768547.749505851 L -2699378.0946037723,-9772259.247552669 L -2689045.196829359,-9770376.971127825 L -2669330.51500987,-9756097.646237401 L -2655719.92614854,-9751633.321742924 L -2672782.0871414067,-9772588.46875568 L -2672336.3639002703,-9780663.951340482 L -2673624.55304773,-9792761.406534204 L -2678907.8874002695,-9797965.620877204 L -2684125.988531204,-9811390.593248788 L -2681978.9695122745,-9815933.084316313 L -2675276.9795690654,-9817522.89358312 L -2661546.833574623,-9812979.370213479 L -2628911.966375704,-9789698.794381421 L -2612888.0822734656,-9793817.734552067 L -2604093.397222834,-9802393.791727234 L -2592113.5275821346,-9808756.442999313 L -2595516.1191377216,-9812079.046076344 L -2623721.0272005224,-9812476.313375112 L -2638799.1409089807,-9817218.145359479 L -2646425.193945265,-9824045.463249331 L -2653034.788711115,-9835700.174366461 L -2650708.4339925176,-9841055.985269472 L -2642870.428645763,-9845325.172926504 L -2618785.566256712,-9844088.05492913 L -2634651.8219599864,-9864348.661361312 L -2645680.5778713482,-9876017.487255957 L -2646881.8264964987,-9881658.465699052 L -2646126.3011124847,-9888749.75764711 L -2644631.5029901126,-9893503.604681114 L -2642408.3414394804,-9895875.156645725 L -2614768.7137509272,-9883985.721868057 L -2608713.6013687183,-9883477.527100703 L -2614301.2832090864,-9891159.73495171 L -2626422.5286030937,-9902457.60209976 L -2626976.899667244,-9906697.442769965 L -2621867.5576788145,-9910201.171051025 L -2619345.3919759113,-9916649.616486454 L -2619117.187019785,-9921987.202229556 L -2610724.6992893894,-9926561.98590127 L -2602266.9783373885,-9926763.762132099 L -2593744.1354832742,-9922592.702347502 L -2567311.2110749204,-9900486.11590708 L -2563522.674844753,-9894294.032453703 L -2562272.445643654,-9886140.00181924 L -2563566.0894461623,-9876044.032024385 L -2562462.6906534196,-9871956.505642235 L -2552135.2475340553,-9875429.423373312 L -2543900.388202623,-9871182.002909198 L -2539791.14051948,-9872330.387104426 L -2529550.637922425,-9887531.786706321 L -2522484.4106053407,-9883945.722447898 L -2518222.989178283,-9876832.485029127 L -2516902.183420021,-9870407.586070431 L -2516271.669824168,-9861587.701719064 L -2518070.815434369,-9843250.175597373 L -2517603.3848925275,-9840670.432317406 L -2510428.398432938,-9851008.213001147 L -2498198.505215917,-9851793.844633538 L -2496622.221226284,-9857002.353700638 L -2496252.6405168506,-9876324.810702907 L -2497247.280167088,-9892646.33456745 L -2498600.702536153,-9896035.97831047 L -2538801.8442048,-9918733.057763623 L -2545791.928990182,-9924099.242890261 L -2554548.5427749627,-9935315.951549185 L -2552776.5591205154,-9940964.779973421 L -2544944.0084288097,-9946010.876522526 L -2533132.676497171,-9948022.099127194 L -2505732.163074842,-9947752.243654206 L -2502954.6304600593,-9950115.216384063 L -2508265.1267683525,-9956046.22588549 L -2520951.652536608,-9959872.586526122 L -2523919.4301611567,-9963294.804729786 L -2525419.5716190864,-9969887.167075025 L -2540459.7253811844,-9966285.670296326 L -2557233.6802123873,-9966136.803411432 L -2573366.3234571298,-9970171.75029775 L -2573697.944220203,-9975306.78627329 L -2567327.4637205764,-9982846.660030244 L -2554151.8001097753,-9995381.555892479 L -2548015.0905408147,-9998495.137532303 L -2529594.052523834,-9996306.12917179 L -2511292.682959457,-9999827.926759517 L -2496464.592827321,-9995571.972864462 L -2484702.1301521403,-9983158.72924736 L -2467977.0445773955,-9961414.357397273 L -2445354.3636999144,-9947536.035027578 L -2443283.487212687,-9943190.613646206 L -2431243.7276859405,-9931853.376051432 L -2407316.6050153435,-9901438.281323532 L -2383003.5376701658,-9883852.026073327 L -2381878.3202572274,-9879385.373769686 L -2385878.920117357,-9874133.613767872 L -2395222.5215770896,-9867977.973173022 L -2393086.4118682574,-9864562.033806907 L -2380878.2259519408,-9860107.972875647 L -2372083.5409013093,-9848252.79231189 L -2371491.0985713075,-9843117.257289562 L -2379443.206396125,-9806560.043113725 L -2383666.667876822,-9798824.615273897 L -2388542.3502540765,-9794742.219999406 L -2411007.291413103,-9801600.42388119 L -2405653.380503401,-9790015.591473619 L -2389613.1324360166,-9777698.639485031 L -2385982.2246048125,-9770824.44446008 L -2388373.8125450155,-9764088.4133265 L -2386623.5361912725,-9762536.811046239 L -2380747.7595087313,-9766179.661688115 L -2378312.6456476282,-9762352.914293982 L -2379329.1039180616,-9751095.138026468 L -2381829.451000769,-9741768.975555148 L -2385819.1415508003,-9734366.742541043 L -2384672.216837157,-9731172.470355678 L -2378394.24283438,-9732154.13723481 L -2372502.102186692,-9730243.203479536 L -2363310.5631513824,-9720043.036202082 L -2355853.047824159,-9688971.937201325 L -2352145.9974612524,-9678948.610967077 L -2349477.2239889745,-9687840.181807032 L -2346123.501689845,-9710510.303283738 L -2342976.277046138,-9722121.181942916 L -2340030.3180417847,-9722630.908834206 L -2337486.4450381766,-9726449.148789939 L -2335355.678664903,-9733594.18187574 L -2331001.862060487,-9758843.646307113 L -2315929.203007078,-9778041.339114545 L -2308732.5092467833,-9783933.538434409 L -2301970.740737018,-9785239.207749786 L -2298682.2516594944,-9782839.005828489 L -2287409.0381463505,-9762694.594538307 L -2280549.308484687,-9759316.488816766 L -2277021.7051409394,-9760420.54020096 L -2272200.3466751915,-9774076.493592232 L -2266090.9103814755,-9800371.016829347 L -2264693.9620915106,-9829856.933329307 L -2268015.067779837,-9862547.959225364 L -2266085.4557264266,-9885952.551410794 L -2258910.5805863272,-9899976.71819785 L -2249490.8365948913,-9904295.55751172 L -2237820.7690970693,-9898904.221212849 L -2229292.3602684154,-9890343.06277952 L -2212447.717560559,-9857748.537146995 L -2198853.492664375,-9840750.209537575 L -2187188.879821602,-9822533.468664613 L -2181144.565429999,-9816635.28013601 L -2169583.1457551913,-9813654.689375853 L -2166479.447032384,-9814820.242924906 L -2164414.025200206,-9819020.504801378 L -2163370.4049740187,-9826247.362121781 L -2165859.842746629,-9872717.691425864 L -2162609.4249349562,-9887250.556910312 L -2157701.125946899,-9897590.595855515 L -2136812.357458014,-9903691.643712645 L -2125446.748767511,-9910187.696031796 L -2114374.5782547398,-9920871.104134234 L -2105199.403184577,-9926602.230420988 L -2097915.7689019726,-9927369.677222064 L -2090306.0798308356,-9923197.979536895 L -2082364.769996625,-9914096.267763542 L -2069977.2483806403,-9896397.703380005 L -2054393.6328644897,-9867150.615970027 L -2034581.1012125935,-9845365.22422907 L -2024193.8795266736,-9810927.234045774 L -2021976.1726310896,-9805117.92138064 L -2019551.856760594,-9804443.425802423 L -2016931.952544774,-9808901.990709284 L -2015252.3640676853,-9815244.252053319 L -2014774.0242157464,-9830547.20665889 L -2020323.7461097543,-9850901.596425354 L -2038853.431949749,-9902390.576703807 L -2039174.1434027243,-9912188.884004638 L -2036831.4247189795,-9920064.165208511 L -2023775.3182412907,-9920924.81157499 L -1993396.1178843156,-9916179.221499551 L -1983693.7337057556,-9908146.943649383 L -1963044.1908025849,-9876618.737322962 L -1957244.556651746,-9869019.210447233 L -1953705.9326784096,-9867110.43957261 L -1952434.1074960963,-9870914.830334188 L -1944422.1097852318,-9876752.294661734 L -1938877.842546273,-9883838.601841962 L -1929642.8889095539,-9901210.321036967 L -1909466.2312032732,-9932580.846009862 L -1905275.4976528694,-9933510.363490062 L -1899383.3570051815,-9931031.92559057 L -1889039.5499206705,-9922807.863139963 L -1884131.2509326136,-9916219.406139597 L -1874401.7047982998,-9911208.296166133 L -1864427.4784232222,-9912967.951350076 L -1850659.3724824197,-9923964.776151758 L -1835102.9189220227,-9930681.638682451 L -1829770.6039935339,-9946307.754513262 L -1828765.0550331988,-9953451.566169383 L -1841299.4070575393,-10000195.359108573 L -1836032.325350656,-10009791.403632702 L -1808865.5828589927,-10021447.218347324 L -1785106.997897457,-10022334.181486296 L -1779486.5881267956,-10019141.755238 L -1764517.2335608422,-9996333.136019256 L -1754369.1261411458,-9984882.170179252 L -1749248.8748426186,-9975686.251020243 L -1748025.8075972726,-9955492.063796902 L -1741856.4814175097,-9948035.64747462 L -1730251.6471412925,-9939670.272355208 z" /></g>
</svg>
