<?xml version="1.0" encoding="UTF-8"?>
<svg xmlns="http://www.w3.org/2000/svg" viewBox="737795.9739932662 -5955489.933981465 1320038.3216926618 1559805.0873331977">
  <g id="map"><g><path fill-rule="evenodd" fill="currentColor"    d="M 781584.6088917083,-5768463.540048302 L 785443.8329985294,-5764947.921549698 L 793597.0951432105,-5761207.10525291 L 815741.4361687533,-5766314.994461239 L 829504.198773998,-5771449.196665741 L 839190.2189874115,-5776852.278047274 L 845201.9167682114,-5775898.092294247 L 866944.0604735182,-5767830.6195799755 L 874118.935613617,-5771933.802335772 L 889794.9463071257,-5782900.45795074 L 892143.119645919,-5788670.777541357 L 904492.5699960524,-5806177.10207422 L 904720.8862716694,-5810463.065044319 L 899633.2515839445,-5821469.701944609 L 901209.5355735773,-5823891.271294433 L 916374.7011238358,-5835198.143724927 L 923788.6905301585,-5845234.6073707845 L 931822.3955417275,-5851968.722914997 L 937594.9790563035,-5852118.64745473 L 939182.0610365432,-5849831.283536863 L 939867.0098633941,-5845132.09882896 L 939366.9627107508,-5825794.341575 L 941584.5582868437,-5819842.491960853 L 953499.306025429,-5805996.616687879 L 961989.5322687413,-5798121.365910611 L 981677.0521324766,-5792720.872147863 L 982590.2059154538,-5790135.522321433 L 977165.4958096069,-5779738.8463452775 L 989091.0415387994,-5767330.556301364 L 991221.8079120734,-5758256.22025019 L 996722.5492301323,-5753152.960009302 L 1004517.0286559865,-5755657.400757813 L 1007071.8109696922,-5760434.155888081 L 1004006.1835127361,-5768838.672743014 L 1001755.8600063502,-5777642.197898463 L 1002212.3812380934,-5782736.155229511 L 1004364.8549120722,-5788600.361678457 L 1009778.6557078212,-5796780.686859605 L 1024519.8053176481,-5815552.139226673 L 1029824.8469708924,-5826423.688433518 L 1030792.4359848677,-5843272.139242485 L 1030835.8505862771,-5856829.323618743 L 1035760.5135394806,-5860121.345159941 L 1046327.070925069,-5857713.401878195 L 1049479.7502238255,-5857981.762831757 L 1050925.5677702485,-5849657.817048268 L 1055426.2147830203,-5836418.552649379 L 1060731.2564362644,-5829554.659464033 L 1066395.0808083354,-5827926.119410811 L 1073058.9994856932,-5827894.540918647 L 1089572.1327499675,-5835977.650756719 L 1100334.5011198611,-5839482.252560698 L 1106433.1394229708,-5838521.283954539 L 1110042.33995347,-5833017.534938518 L 1117760.7881671127,-5818585.1029396895 L 1122163.4740279866,-5816958.585271771 L 1127479.4249913287,-5818608.600888038 L 1129360.167788281,-5821068.827957898 L 1127653.4173554385,-5826620.217509116 L 1125403.0938490524,-5838686.788284548 L 1122315.759091392,-5848033.309385394 L 1118271.633310363,-5852418.342633042 L 1117456.329359793,-5858123.868122396 L 1120011.0003540078,-5868407.7808172675 L 1122881.03946564,-5877010.67443831 L 1128501.3379168108,-5879352.606587989 L 1134958.758938747,-5880444.792897406 L 1143503.420413057,-5871332.5478588585 L 1153613.456566902,-5868455.205205524 L 1161136.20511573,-5868937.394662034 L 1162451.5562189433,-5874250.190864612 L 1161984.1256771022,-5880080.76971521 L 1157494.3879744282,-5887570.272790793 L 1158396.7437667984,-5898903.837432521 L 1163603.9355876355,-5920056.801759118 L 1166560.915221577,-5918459.087851118 L 1177736.2789023137,-5918228.587919922 L 1189922.757517926,-5917036.466352103 L 1197771.672174778,-5908402.181343277 L 1205468.301768225,-5905465.02509916 L 1216426.3698029332,-5904528.502728094 L 1223764.3279970442,-5905750.780267903 L 1227308.295305939,-5908997.633679297 L 1231580.6260430939,-5919110.901624029 L 1239418.6313898482,-5931663.5644954955 L 1251724.6671385723,-5938105.985097666 L 1272738.336096128,-5939308.981950034 L 1283239.7715796023,-5941651.655190826 L 1294143.4043833124,-5941516.185679318 L 1302372.809059696,-5939571.858766069 L 1310863.146622499,-5939802.922769986 L 1332442.0959543025,-5948556.042026624 L 1354695.1961223504,-5955489.933981465 L 1357782.530880011,-5954324.585056655 L 1358239.163431245,-5952018.376313213 L 1354260.270871821,-5946673.99942133 L 1350390.248774393,-5939587.850286713 L 1352988.4456895078,-5931512.273202885 L 1365664.0621476655,-5915327.998791674 L 1372578.004401345,-5902957.34661345 L 1379057.1327239857,-5893671.215035497 L 1389178.0781879288,-5888782.237065982 L 1402473.4102513327,-5885796.3473794 L 1413735.8257738696,-5884719.386227717 L 1425509.086439657,-5881220.377952889 L 1465938.5443839212,-5872597.491118392 L 1486289.0831348212,-5870209.925670727 L 1501704.2722614012,-5869830.461950472 L 1525077.0238678479,-5864117.499262802 L 1522815.902370855,-5854840.674341001 L 1518076.0297723683,-5852520.936049703 L 1509857.5344060825,-5847118.7170089325 L 1500421.5377689907,-5839710.693618053 L 1491626.8527183586,-5831380.2965468485 L 1489256.9720788607,-5822373.747643999 L 1491637.6507089655,-5816471.348088659 L 1494018.4406585614,-5814436.763554611 L 1497225.4438688247,-5816243.507954651 L 1501899.971926216,-5815128.044995544 L 1507792.112573904,-5811907.781108817 L 1517565.1846291176,-5808767.304402713 L 1517836.9155061443,-5805667.155980981 L 1515793.2009746705,-5801705.106859251 L 1508161.6932833376,-5794640.837935789 L 1501302.0749411653,-5786689.562610454 L 1500617.1261143144,-5781828.297340015 L 1501443.339374982,-5778283.669064093 L 1503835.0386346756,-5776148.281819887 L 1514010.3080101253,-5777110.343901552 L 1515499.6514774486,-5774208.937037872 L 1510564.1905336382,-5753808.3222517455 L 1512096.9486023707,-5750329.639140794 L 1521011.3021056054,-5747078.220064197 L 1527490.430428246,-5742176.192087779 L 1539676.7977243671,-5729283.3709368445 L 1544525.3181458684,-5718841.072999417 L 1541187.959811886,-5715344.832365143 L 1533534.7448198483,-5713612.733048917 L 1527283.8214533336,-5714506.02103398 L 1534350.0487704184,-5720815.025854904 L 1517097.6427677863,-5743718.987137462 L 1509292.2540318342,-5743680.046943788 L 1498932.1943016674,-5733991.46714425 L 1470123.9345987667,-5743789.2075894205 L 1464601.3746605127,-5739831.393917196 L 1460524.7435881721,-5732068.9451051615 L 1450523.3552573412,-5722447.424123026 L 1436358.3953318603,-5718196.07565074 L 1420573.6254958464,-5707619.230465403 L 1403930.1371078535,-5700140.742973223 L 1391221.9040388933,-5694497.173389819 L 1383938.2697562894,-5695489.187952878 L 1395515.942076753,-5707720.162134064 L 1390580.4811329425,-5707937.447248866 L 1375219.7272373603,-5699310.979920943 L 1366370.6069557306,-5692017.617995469 L 1363533.2957743914,-5679777.173445124 L 1360956.917479472,-5659621.814954104 L 1367707.7766791391,-5654281.452068601 L 1379524.563265827,-5627788.571653052 L 1394102.7411411323,-5616480.269543391 L 1391265.3186403026,-5605700.154562397 L 1387438.7111442839,-5597186.581935972 L 1378633.2281030451,-5589829.91971594 L 1371349.5938204413,-5595285.439638303 L 1366881.5634184715,-5595147.618430291 L 1363478.9718628845,-5577941.640847082 L 1369784.1078214154,-5532141.781189856 L 1379948.5792062585,-5500153.282451531 L 1390025.998749301,-5486237.981872718 L 1412768.2367598945,-5464626.210686144 L 1436804.1185729965,-5453254.397846967 L 1480027.4730971905,-5416990.779846917 L 1503726.2794921705,-5405542.574591203 L 1509955.3842384897,-5399336.097358051 L 1524326.953138883,-5371507.09383899 L 1536730.838720014,-5339466.574605544 L 1550112.9999862367,-5289405.292803464 L 1559636.0484651288,-5264837.092097562 L 1578812.6118661228,-5237146.947020003 L 1618665.8801260414,-5197642.983408137 L 1654888.1292352644,-5168852.783316009 L 1688577.5259704685,-5151103.023613714 L 1714874.5292805634,-5147990.866833495 L 1777111.3641517393,-5151914.107537238 L 1787960.5617244518,-5150218.990716395 L 1799440.384212508,-5145442.020922134 L 1802169.0475708328,-5133160.2292622775 L 1797951.1520646757,-5124871.68479486 L 1784862.3176566933,-5116262.737906022 L 1771512.773001273,-5104352.733949085 L 1770034.2275245567,-5088166.4781431975 L 1782514.255637391,-5076776.745043703 L 1842544.0702840993,-5046626.660319472 L 1903943.7825845098,-5021514.282283659 L 1923065.9107545058,-5008719.596660512 L 1945221.1610901463,-4988855.0228788825 L 1998739.230803411,-4961612.479755387 L 2007773.1414397575,-4948380.808099689 L 2040288.451505565,-4919980.445665151 L 2055029.6011153916,-4898116.121342381 L 2057834.295685928,-4881188.185703469 L 2050789.8869890391,-4864033.72064486 L 2047550.2671679736,-4851945.453329868 L 2042016.9092391122,-4840020.571351079 L 2028167.2061115573,-4844536.730358896 L 2012425.9621964442,-4856786.138343178 L 1988727.0444819732,-4906740.614086246 L 1945438.5680556651,-4911814.749521047 L 1936491.709261119,-4915508.038378212 L 1921120.0460554394,-4924104.935755428 L 1920195.9829623643,-4929780.944856261 L 1916401.9920771478,-4936882.213561788 L 1912466.625438624,-4939276.601008138 L 1895910.0775729404,-4940842.336934539 L 1884441.1643949817,-4932730.856218167 L 1870950.1326667632,-4913497.314641566 L 1855654.611992786,-4885900.90509108 L 1840108.9564229962,-4845570.521891668 L 1839206.711950117,-4829325.767197874 L 1847653.5235920192,-4813608.44219512 L 1872874.290065125,-4804852.776784639 L 1892344.4029633414,-4790892.155010366 L 1905183.102475511,-4776338.978783065 L 1906117.9635591926,-4741253.262929445 L 1911868.7284535733,-4721398.844586584 L 1903400.2095109657,-4710123.724241 L 1887028.4519999991,-4713051.388266916 L 1865210.2770824807,-4705883.907464247 L 1849762.4713450982,-4693084.498742819 L 1843337.6669339645,-4680900.352865217 L 1845033.6193761998,-4649385.130188017 L 1841848.323466641,-4637377.658023877 L 1812550.9259211952,-4614740.646631211 L 1797157.5554148105,-4591635.182380041 L 1793330.9479187916,-4582061.050092453 L 1787438.8072711038,-4571213.857220127 L 1750444.66881272,-4570827.806571884 L 1741682.6003728902,-4584262.3516763225 L 1741378.1415655706,-4604232.39354099 L 1747737.7127550999,-4616547.269367794 L 1761337.3923063325,-4622315.442952564 L 1770512.5673764958,-4647954.549093551 L 1767631.7302742566,-4666518.275925229 L 1772980.2978484007,-4674758.057791665 L 1778035.3159253234,-4680586.915852212 L 1788406.284965588,-4683986.87379462 L 1803016.9681322053,-4687241.639336659 L 1804484.6042988237,-4713240.021808331 L 1793070.0150323722,-4725085.304080376 L 1789069.4151722437,-4741666.749198672 L 1783742.6662182945,-4772450.920759716 L 1764903.1782354224,-4811815.822782537 L 1754803.9400721842,-4847078.84076579 L 1746911.4994944322,-4864516.238239569 L 1734931.6298537324,-4873622.654491509 L 1713309.1546010287,-4873523.180966699 L 1702579.402841937,-4876122.618203034 L 1664324.2371918473,-4900736.174990316 L 1661660.8070551273,-4904489.360135003 L 1661900.0326408423,-4911030.653140206 L 1668248.6945202735,-4920950.689705953 L 1663965.4544730207,-4934381.150605008 L 1659432.3021689367,-4947078.768845138 L 1651931.2609208138,-4957916.048301546 L 1643712.7655545278,-4963554.266811989 L 1626514.6834634028,-4960086.410353128 L 1620470.480391291,-4957393.29690172 L 1609610.2621889901,-4958317.224651484 L 1601076.5100247776,-4953498.181231298 L 1596314.9301255862,-4953347.757172684 L 1609740.7286321998,-4972408.574735196 L 1606131.5281017001,-4976906.855226 L 1592858.0146584918,-4984746.144316147 L 1574855.5379268944,-4985931.259772322 L 1569865.7530715768,-4986879.367519969 L 1566919.6827477328,-4981995.942489741 L 1563408.3320496406,-4984688.782319853 L 1563777.9127590742,-4993231.491718607 L 1542862.093633926,-5031532.629599329 L 1528794.8722213616,-5047161.626883295 L 1521707.0489230633,-5049951.955489676 L 1508911.7640123027,-5046648.419588855 L 1487441.4625035133,-5053509.914675605 L 1474635.3796021459,-5055043.303512713 L 1467569.1522850613,-5053386.969673968 L 1457024.3022001777,-5048375.995291797 L 1451719.2605469334,-5051687.378188284 L 1449849.4270600788,-5056830.317287748 L 1430368.5161712556,-5072818.94970329 L 1406060.7921616365,-5081867.855820698 L 1358728.3012737907,-5132955.907792763 L 1344215.4679395808,-5152126.018310917 L 1314352.6787003956,-5173275.221282588 L 1295458.8668060165,-5204150.686673988 L 1280000.263078027,-5215501.94651733 L 1257497.1393336575,-5224598.79681345 L 1252311.6548135253,-5223457.593140008 L 1245538.9769936625,-5220049.278223278 L 1240233.9353404182,-5219563.639044126 L 1236005.1305241634,-5223590.133378828 L 1240299.1685620232,-5227736.15803913 L 1245082.4557619193,-5229622.00190691 L 1243190.803654869,-5241483.385446608 L 1217589.547162232,-5272286.701145346 L 1202598.3739760835,-5282231.136332239 L 1198369.5691598286,-5288360.057865856 L 1195249.5064718747,-5296755.74640325 L 1192053.4125717094,-5302285.335462793 L 1184954.6799633128,-5305456.171573954 L 1178899.456261613,-5304913.9356989125 L 1170507.079850708,-5307030.734908909 L 1170778.8107277341,-5321891.623744973 L 1172452.944549774,-5333326.510647909 L 1171170.2100573634,-5343045.285669696 L 1163016.9479126823,-5368642.654766236 L 1148873.6952879063,-5390397.731918479 L 1140557.350089213,-5442582.772166164 L 1134132.5456780794,-5457322.824827393 L 1118499.9495859798,-5468533.261887998 L 1083234.2688611434,-5481112.155480712 L 1034086.2683979498,-5514978.642989192 L 1023693.5920569805,-5515563.68723649 L 994124.3523150171,-5528762.97740935 L 975806.6187854933,-5531030.545000479 L 951999.0532480081,-5519165.8029944515 L 923103.8530227982,-5486593.796506388 L 899644.1608940422,-5452907.291461399 L 891110.2974103391,-5446389.965864592 L 860867.1294711133,-5434942.87300969 L 834135.200910489,-5429476.839666699 L 833841.6514132671,-5438083.889433664 L 832895.8810194875,-5444557.814016482 L 837418.2353329641,-5451692.5222829105 L 844875.7506601871,-5460093.95382499 L 851757.187622555,-5470649.991996716 L 854616.2061045985,-5478319.486829727 L 853268.2383905828,-5483413.514976878 L 850169.9943228244,-5490987.71096157 L 845962.8968072744,-5491533.199329478 L 820524.6120491587,-5485177.75483326 L 814697.8159425663,-5486821.03496761 L 795869.1259503012,-5496710.361553127 L 775594.6184116132,-5508880.077625793 L 768126.1937742924,-5517546.892774311 L 765299.7919030512,-5526313.2357985545 L 767419.6489662274,-5531943.965309769 L 765723.6965239919,-5537418.14461746 L 761755.8245941565,-5544816.250814623 L 765343.2065044604,-5553227.487346541 L 771659.36309258,-5563716.122145023 L 774822.8403819434,-5570837.442823022 L 780116.9727250898,-5572687.581564232 L 782649.9364185999,-5577031.262140418 L 778421.131602345,-5594373.472714938 L 776214.3340168592,-5597155.965826711 L 772539.9002647549,-5599310.336808373 L 766919.4904940933,-5599555.798082868 L 757092.0945273723,-5603145.193633685 L 750091.2117513833,-5609153.956915817 L 748590.9589739623,-5617271.57512476 L 744883.9086110556,-5625081.198069226 L 738578.7726525245,-5632258.903802617 L 737795.9739932662,-5640112.449470521 L 744981.7584434628,-5644265.194950961 L 754787.4471094791,-5644426.969580505 L 761679.6820624539,-5642901.353166439 L 777149.1951005412,-5655523.602492463 L 782845.6360834145,-5656634.746526915 L 787954.9780718442,-5659374.712237761 L 792238.218119097,-5676636.3956555575 L 795532.1618516699,-5681819.863692856 L 796314.8491914375,-5684861.783740766 L 793270.9290351862,-5688469.993585486 L 780758.3956310406,-5700660.237652938 L 775051.0453380694,-5713387.516423108 L 766038.9533219185,-5727680.785410916 L 757668.2842117182,-5733999.278584767 L 755961.5337788757,-5738920.093452019 L 755765.8341140612,-5745176.334662657 L 757472.5845469036,-5750680.528750891 L 772648.5480877691,-5759278.694797438 L 781584.6088917083,-5768463.540048302 z M 1384720.9570960568,-5145770.740608005 L 1384634.0165737474,-5146939.148009599 L 1383764.2773921795,-5146829.659832757 L 1383427.3132935483,-5146121.158081978 L 1383764.2773921795,-5145646.609460835 L 1384720.9570960568,-5145770.740608005 z M 1389852.117704682,-5450198.735350588 L 1393124.2428170594,-5458168.456344872 L 1391906.7415462534,-5463855.49030516 L 1384938.364061576,-5462722.350175892 L 1380013.8124278632,-5455322.316935232 L 1383296.8468503386,-5449067.277519303 L 1389852.117704682,-5450198.735350588 z" /><path fill-rule="evenodd" fill="currentColor"    d="M 1157179.1311765015,-5290406.30100183 L 1160875.2722293106,-5284490.938844922 L 1161310.19747984,-5281060.629289714 L 1158831.5576978368,-5277179.807796367 L 1159875.1779240237,-5268416.925097525 L 1150558.7384200438,-5275684.240374116 L 1136458.9003966772,-5272012.823124341 L 1127805.5910993528,-5272789.917870736 L 1125414.0031591502,-5279312.650502729 L 1127392.484469019,-5283142.45777442 L 1140829.0809662396,-5283972.222654395 L 1145003.5618709873,-5285839.765507595 L 1153156.8240156681,-5284965.214404499 L 1157179.1311765015,-5290406.30100183 z" /><path fill-rule="evenodd" fill="currentColor"    d="M 1551602.3434535598,-4969016.434840802 L 1546634.265898947,-4967747.475390708 L 1543742.6308061008,-4969475.338866614 L 1542166.346816468,-4971727.144243768 L 1544133.918816239,-4977272.803514193 L 1554254.864280182,-4973979.4684127085 L 1554113.5998463654,-4970859.37697211 L 1551602.3434535598,-4969016.434840802 z" /><path fill-rule="evenodd" fill="currentColor"    d="M 1341541.239812254,-4405293.936979118 L 1336203.4702287165,-4403760.796297226 L 1329224.2947534323,-4408537.391753745 L 1328756.8642115914,-4415244.497797111 L 1330050.5080141,-4417254.7277133 L 1338529.9362668053,-4414178.408064746 L 1341182.4570934274,-4407980.903724041 L 1341541.239812254,-4405293.936979118 z" /><path fill-rule="evenodd" fill="currentColor"    d="M 1733975.0614693458,-4610595.429387632 L 1726441.4036104202,-4594501.582228451 L 1722745.2625576109,-4588320.802029248 L 1695893.7768638746,-4549071.688744602 L 1692817.2400968212,-4540024.754027564 L 1690925.6993092617,-4530202.776406012 L 1688142.7120394302,-4521604.300811574 L 1684381.337765016,-4513506.297274992 L 1680869.9870669239,-4503223.113851788 L 1681554.824574284,-4491575.0100489 L 1682815.85176599,-4485865.282503422 L 1686044.5622769583,-4482126.531494471 L 1691349.6039302025,-4478607.644387171 L 1695426.2350025433,-4473219.017483733 L 1689175.4229555188,-4468304.027763283 L 1696067.6579084937,-4458460.384894481 L 1701927.1819453794,-4452625.367554624 L 1702709.869285147,-4446800.4031520765 L 1702579.402841937,-4440958.149088632 L 1690403.8335364228,-4430024.590185628 L 1685642.3649567224,-4424008.255020385 L 1682685.3853227803,-4416725.046109352 L 1681402.65083037,-4409216.085209251 L 1682739.8205537782,-4402438.179397228 L 1682326.7139234447,-4395684.8466482675 L 1670064.09277613,-4396525.291436534 L 1657508.0334510843,-4400640.8724763775 L 1644854.235613122,-4398816.790616457 L 1626862.5568721318,-4406623.856365805 L 1620307.397337279,-4408035.244805853 L 1614339.1141578883,-4411082.68049077 L 1599358.8502818376,-4435323.38140641 L 1587313.7474195329,-4445581.344807197 L 1574388.1073850538,-4453565.799782179 L 1561179.7158439592,-4454049.726490411 L 1547949.728321651,-4453143.306746293 L 1536274.2061687799,-4458064.925346591 L 1512510.0552327046,-4474591.474470382 L 1487332.814680499,-4487827.367135045 L 1476646.4775228172,-4496459.960748317 L 1471765.4518100047,-4502271.365677241 L 1466069.010827131,-4506126.85116084 L 1451643.1180152306,-4509949.515313786 L 1438706.5686706535,-4518929.409916802 L 1432814.4280229656,-4519587.709818186 L 1420138.811564808,-4518490.519516719 L 1413648.7739320693,-4519114.521853072 L 1407104.4123878235,-4522276.537410454 L 1394472.321850566,-4532846.240222395 L 1386416.9095382923,-4547517.479210308 L 1384318.7597758207,-4553997.256120685 L 1390025.998749301,-4570772.758472468 L 1396798.6765691638,-4586905.747402404 L 1402810.3743499639,-4591434.91489768 L 1409789.5498252483,-4594681.112300918 L 1414018.465960994,-4599462.5134158 L 1417584.140570593,-4605318.000658408 L 1430531.599225268,-4588431.367950897 L 1436325.7787210578,-4584351.956839462 L 1442196.212068041,-4585263.033812245 L 1452610.595709715,-4591310.598263433 L 1453480.334891283,-4597935.264105994 L 1464960.1573793392,-4606348.342643625 L 1479559.9312358585,-4606507.399791672 L 1486299.992444919,-4604958.431985451 L 1489843.9597538137,-4597354.909137516 L 1495409.9342934773,-4595012.734756908 L 1501845.648014709,-4594004.177135183 L 1523022.4000262765,-4579529.220436011 L 1528957.9552753738,-4577170.456766044 L 1534969.6530561736,-4576770.484935754 L 1551417.5530988432,-4582840.786134323 L 1564038.8456454938,-4585152.501738895 L 1590498.9320096008,-4581805.861088461 L 1604805.2676883894,-4585442.403589044 L 1614795.7467091223,-4585856.56317579 L 1629352.1059642322,-4591448.775092853 L 1640538.3789550667,-4600748.063159657 L 1646376.084371757,-4603043.115009776 L 1652637.8057288786,-4603706.907820511 L 1667781.2639784324,-4603126.086776442 L 1683011.551430805,-4601024.529638518 L 1689392.8299210386,-4603195.183227666 L 1694730.4881850854,-4609281.025554614 L 1700916.1783299951,-4612020.819620272 L 1707721.47276066,-4610173.475735243 L 1725310.731542433,-4620597.728279889 L 1733061.7963668776,-4621311.020235015 L 1740443.2804818887,-4617294.8763156105 L 1733975.0614693458,-4610595.429387632 z" /><path fill-rule="evenodd" fill="currentColor"    d="M 1072232.7862250255,-4994956.804211276 L 1077798.7607646894,-4985550.57152243 L 1090300.496178228,-4947100.160396151 L 1091517.997449034,-4938804.908672714 L 1089017.761685817,-4930309.394592788 L 1085832.4657762581,-4924283.417200032 L 1073450.3988153227,-4905023.603474229 L 1075287.6156913745,-4889108.054517871 L 1079886.001217063,-4879290.949883633 L 1080549.1314237185,-4868418.940276717 L 1078244.4840058256,-4854957.287036907 L 1070558.6524029856,-4772563.500965336 L 1066840.8040494719,-4758057.796838674 L 1064492.6307106784,-4745479.915967325 L 1056013.2024579733,-4741680.814631392 L 1045076.9530434605,-4745697.153196427 L 1031281.5738274133,-4752773.630849447 L 1024911.2046472775,-4752345.609159825 L 1018497.1982267506,-4749925.666953326 L 1013203.0658836041,-4751980.820851818 L 1008148.0478066816,-4755987.319036452 L 1004397.4715228745,-4727870.378755302 L 998157.5687859484,-4716476.248595349 L 988667.1369178585,-4709201.625542934 L 979741.9854240171,-4708740.536064537 L 970545.1030531493,-4711178.69642142 L 962750.5123078042,-4711157.661726138 L 956836.6643594115,-4716560.14541352 L 952151.2269919226,-4726015.870056607 L 944682.802354602,-4737511.844986525 L 937105.7298942672,-4751181.177465492 L 936279.5166335995,-4763555.596435762 L 934985.8728310907,-4790892.155010366 L 937160.0538057741,-4796872.917984852 L 940323.5310951375,-4802610.474663826 L 941878.1077840655,-4814879.023209743 L 940780.1636463713,-4825579.620573839 L 942997.8705419551,-4829403.516195158 L 947411.4657129267,-4825579.620573839 L 950727.1167462044,-4827014.278204692 L 950520.6190907828,-4832528.745830834 L 951531.6227061674,-4842604.006589942 L 945759.0391915914,-4851052.760441812 L 935953.4618450659,-4853922.519401868 L 935007.5801317955,-4862771.091385182 L 936040.4023673754,-4871414.402626213 L 941214.9775774099,-4877223.570231865 L 942965.2539311526,-4884955.357100742 L 943019.5778426598,-4908564.754555359 L 936105.63558898,-4917276.83313559 L 933453.114762358,-4930480.82142186 L 929876.530842661,-4938947.790116694 L 923451.7264315272,-4947457.962980003 L 916189.799449628,-4954393.0028550355 L 911700.0617469538,-4961089.384274938 L 910689.0581315692,-4978629.283242673 L 913243.8404452748,-4993289.051192269 L 915515.8712523654,-4999566.251436807 L 917853.1352810612,-4998638.413629024 L 925082.3343326671,-4991348.556925125 L 930996.1822810599,-4989702.905960743 L 942704.3210447332,-4987935.413522634 L 954216.760143592,-4990270.50790285 L 968360.0127683681,-4996905.380398712 L 981970.4903102077,-5004955.026215151 L 1001668.9194840406,-5028632.20977349 L 1013811.8721787524,-5033445.241579979 L 1020030.0676149739,-5039690.611162429 L 1022149.9246781503,-5048130.237341344 L 1027302.79258748,-5050335.175900644 L 1033379.7235898849,-5042132.125619144 L 1040924.1794394174,-5041279.655880581 L 1052545.377680781,-5034513.45325661 L 1057556.8698368035,-5028040.647173882 L 1061851.019194154,-5020260.021579298 L 1065960.266877297,-5016844.104526278 L 1070373.8620482688,-5014891.531801944 L 1071026.0829448265,-5013061.931914335 L 1067525.641556832,-5011232.528832003 L 1063514.2437060964,-5002335.8552744845 L 1065775.3652030895,-4999774.839306416 L 1072232.7862250255,-4994956.804211276 z" /><path fill-rule="evenodd" fill="currentColor"    d="M 943867.4984040321,-4731349.143589218 L 937475.3106037006,-4717182.234768563 L 930735.3607141312,-4727212.519568202 L 930474.4278277117,-4735830.709753953 L 931387.5816106888,-4738289.459192146 L 939606.0769769748,-4734661.1522117965 L 943867.4984040321,-4731349.143589218 z" /><path fill-rule="evenodd" fill="currentColor"    d="M 922397.1968952427,-5018220.422288237 L 918690.1465323358,-5011477.501091655 L 913450.3381006963,-5011967.169140013 L 915494.0526321701,-5016959.355910873 L 920320.8657529665,-5026973.00048789 L 926202.0970905565,-5030334.852629493 L 928822.0013063763,-5027340.835602493 L 926060.721337249,-5021600.7991761295 L 922397.1968952427,-5018220.422288237 z" /></g></g>
</svg>
