<?xml version="1.0" encoding="UTF-8"?>
<svg xmlns="http://www.w3.org/2000/svg" viewBox="-8720713.471638637 -2098764.6624205853 236967.02456603944 94554.96957997372">
  <g id="map"><path fill-rule="evenodd" fill="currentColor"    d="M -8600708.054937238,-2091159.117465516 L -8587135.537341757,-2086942.0043400899 L -8573133.660470286,-2084765.1463966698 L -8567078.436768588,-2084639.028638877 L -8561381.995785715,-2083298.7094733717 L -8548586.822194446,-2073196.9075479815 L -8538286.429711344,-2067672.8505745921 L -8499226.86942078,-2055330.5836319053 L -8486192.470243797,-2034073.9089476592 L -8483746.447072597,-2027429.2754130296 L -8493840.230580784,-2023488.1059202494 L -8506537.554339647,-2022128.856092609 L -8518680.50703436,-2021894.7012139605 L -8529899.507955488,-2025961.3242791612 L -8534796.897633448,-2029080.3181642513 L -8546477.763121875,-2030577.1573332092 L -8543580.67337398,-2033439.7409483457 L -8548760.703239065,-2034776.7943834946 L -8555261.6501819,-2034473.9164098282 L -8560050.280717356,-2026326.8985068675 L -8565382.595645843,-2019855.9575663495 L -8575601.279622704,-2020478.4829798164 L -8579536.646261226,-2025995.6002451116 L -8584901.466481028,-2023516.6463241589 L -8589233.57578474,-2019421.9667411821 L -8594419.06030487,-2004209.6928406116 L -8602757.22412376,-2011760.2602942209 L -8611834.549361514,-2018091.5155519717 L -8623238.229317866,-2020706.8912076324 L -8646268.562170634,-2021135.1780145874 L -8657112.41640779,-2023202.5870704097 L -8666157.125034742,-2036085.4936012756 L -8669706.546998685,-2039777.6147766095 L -8678800.124882096,-2043115.9934203015 L -8687871.995464806,-2057904.872263913 L -8691117.06994092,-2059935.8986920824 L -8715658.453561716,-2063088.6429407578 L -8720713.471638637,-2071193.1658016576 L -8719207.875525657,-2078527.7767259653 L -8711021.885450684,-2087503.5624265452 L -8707043.104210751,-2090064.6814130032 L -8693443.424659519,-2089680.7157878082 L -8680490.622669285,-2092379.6609940082 L -8674777.817721264,-2096236.8303406471 L -8668831.353162069,-2098764.6624205853 L -8621873.897638706,-2092288.000300401 L -8611035.4980566,-2092219.2257133757 L -8600708.054937238,-2091159.117465516 z" /></g>
</svg>
