<?xml version="1.0" encoding="UTF-8"?>
<svg xmlns="http://www.w3.org/2000/svg" viewBox="3890703.1437472207 -3944814.4046810293 483348.3384684669 544902.2508905004">
  <g id="map"><path fill-rule="evenodd" fill="currentColor"    d="M 3983824.569463574,-3860170.5940897483 L 3995782.7318035685,-3857373.0553932874 L 4002653.148136348,-3851146.9357572515 L 4014122.172633797,-3833584.4955524425 L 4031961.566311382,-3828479.3458837043 L 4039147.2394420886,-3823511.747816479 L 4048920.311497302,-3814206.9484532294 L 4060845.8572264947,-3810834.556570857 L 4098600.975723941,-3805031.652969166 L 4128724.6978495456,-3824574.6069218554 L 4154173.780598268,-3841110.7837689673 L 4183101.5974342804,-3859925.1113717384 L 4202767.409997311,-3872738.993514189 L 4236348.047590011,-3894623.4596662866 L 4258448.862694653,-3908481.043470611 L 4287539.762584677,-3926753.7249827464 L 4316250.17245517,-3944814.4046810293 L 4324207.846254528,-3915347.793753407 L 4331980.618379678,-3886635.4403120326 L 4340057.737992656,-3856965.9577788976 L 4347895.854658901,-3828221.585617983 L 4339416.426406196,-3825502.443484297 L 4346069.435773456,-3803500.993967565 L 4357049.211108869,-3806864.8561224006 L 4369007.373448864,-3809470.502378777 L 4374051.482215688,-3795362.201326202 L 4357647.108093919,-3779665.8820372475 L 4341133.974829645,-3764291.3519471628 L 4337263.952732217,-3762644.079191434 L 4315815.3585241325,-3756287.8687228025 L 4271939.78310338,-3743304.1261461037 L 4242544.535725527,-3734617.5847777403 L 4204963.298272699,-3723515.9434032883 L 4173741.6320094,-3714301.0004082955 L 4142824.4245534223,-3705182.3887280696 L 4114211.8645153353,-3696746.1550147096 L 4130540.0961054023,-3678961.9228422237 L 4155500.0410115793,-3651832.010643345 L 4172143.6407190636,-3633757.4876316213 L 4191787.634661898,-3610555.560124714 L 4209322.569532163,-3589873.8339754734 L 4227922.943248812,-3567983.4559358214 L 4214877.746081221,-3560573.247839966 L 4193374.827961629,-3548379.5938130766 L 4191167.919056652,-3546162.6122809635 L 4189352.5208007954,-3543883.092232872 L 4180449.0766076585,-3522147.825020178 L 4173448.19383167,-3505056.300645669 L 4171056.494571976,-3502915.896642649 L 4141019.8242881717,-3496647.6619049194 L 4110700.5138172433,-3490326.001257493 L 4091578.274327757,-3486339.0495311175 L 4085860.1260441793,-3481927.1689578006 L 4073380.2092508357,-3460703.5776045616 L 4060497.9838177655,-3438815.5344918775 L 4038984.2677075663,-3420955.0228802683 L 4015122.2669390836,-3401194.7452341393 L 4009219.328300789,-3399912.153790529 L 3991956.1243075496,-3402944.6436661654 L 3962452.1177871907,-3408127.1002835957 L 3933937.2962620216,-3413130.8726302315 L 3914412.970771789,-3416559.1612735055 L 3890703.1437472207,-3420718.106013284 L 3894203.696454706,-3437454.291843615 L 3893225.309450124,-3446480.246921825 L 3898845.6079012956,-3476207.7812504643 L 3902128.64232377,-3490307.253747037 L 3903770.159535008,-3500706.9690286857 L 3911945.240299884,-3521776.9632565943 L 3910945.0346751064,-3528680.1662281915 L 3912673.6037281444,-3553047.646515632 L 3911836.4811573788,-3557767.902640817 L 3915554.3295108927,-3571074.9922516146 L 3922522.70699557,-3590417.2901637186 L 3929338.9107363326,-3607093.564850299 L 3931817.4391988455,-3614607.378478264 L 3938818.4332943247,-3630447.4286066242 L 3945080.1546514467,-3649958.6284101424 L 3941786.210918874,-3660631.377729351 L 3940786.116613587,-3662722.6188475224 L 3943329.878297704,-3675009.872385977 L 3943253.8470854927,-3675079.851782364 L 3946341.181843153,-3695152.675165212 L 3947993.608364488,-3705998.8975421307 L 3951776.6899396074,-3720379.6012081834 L 3958407.9920061626,-3732571.6022888953 L 3955342.364549206,-3761330.255593792 L 3955712.0565781305,-3776842.1326960777 L 3959864.718862683,-3794578.1860324265 L 3957570.9807548877,-3815339.9046961865 L 3959527.754764052,-3844956.4756627376 L 3959951.770704483,-3847731.774281636 L 3962365.065945391,-3851321.3562791473 L 3964223.990122148,-3853181.032182373 L 3977943.338125983,-3859375.8043996305 L 3983824.569463574,-3860170.5940897483 z" /></g>
</svg>
