<?xml version="1.0" encoding="UTF-8"?>
<svg xmlns="http://www.w3.org/2000/svg" viewBox="13767970.687621554 -5702095.000185931 2466085.5037898365 2916232.155767857">
  <g id="map"><g><path fill-rule="evenodd" fill="currentColor"    d="M 14846737.037400218,-4328708.158285781 L 14841638.493402395,-4323556.318504403 L 14832126.354233602,-4325246.432655011 L 14826636.410906151,-4332676.500639956 L 14828441.0111714,-4341069.32893827 L 14838409.78289143,-4347525.198456055 L 14847932.83137032,-4334577.019914883 L 14846737.037400218,-4328708.158285781 z" /><path fill-rule="evenodd" fill="currentColor"    d="M 15400388.421042742,-4554327.579813082 L 15389810.843027566,-4553969.7765933145 L 15387158.322200945,-4555353.002950518 L 15393572.328621471,-4558849.446931466 L 15394137.608995719,-4564716.428244305 L 15397964.21649174,-4575122.458758743 L 15397898.983270133,-4578129.067908523 L 15389495.58622964,-4578660.176940215 L 15389919.60217007,-4590516.506222584 L 15396192.232837291,-4602213.575602565 L 15413444.527520435,-4620680.84148133 L 15418151.672188625,-4624151.062096483 L 15418869.23762628,-4616076.445203293 L 15413607.610574445,-4597002.410001859 L 15412585.697648961,-4590122.947673315 L 15426120.14397859,-4588686.720362722 L 15417412.510769758,-4565859.833232409 L 15400388.421042742,-4554327.579813082 z" /><path fill-rule="evenodd" fill="currentColor"    d="M 15020652.034464005,-4067557.447529806 L 15008585.112981502,-4056083.2241819412 L 14998148.910719635,-4056885.0525747766 L 14992898.192977898,-4062012.8719554115 L 14991158.825934252,-4068366.6906188703 L 15001105.890353575,-4078345.239713702 L 15009683.057119198,-4092446.1336810943 L 15017455.940563837,-4098718.202701444 L 15023761.07652237,-4102208.5508599593 L 15028653.12286477,-4102089.7558234446 L 15017608.114307754,-4082408.984203321 L 15020652.034464005,-4067557.447529806 z" /><path fill-rule="evenodd" fill="currentColor"    d="M 14540858.461295037,-3537399.4890473094 L 14528106.70230518,-3534618.229203874 L 14521138.324820502,-3537619.7530010305 L 14514735.339029562,-3553545.5054894686 L 14526878.291724274,-3563530.453009757 L 14543174.018023029,-3553646.2927079834 L 14546478.759746207,-3550798.492886773 L 14540858.461295037,-3537399.4890473094 z" /><path fill-rule="evenodd" fill="currentColor"    d="M 14578374.465526262,-3554673.439130485 L 14568623.100771751,-3553305.993897572 L 14568416.603116332,-3560781.2625657646 L 14576167.556621287,-3577689.606500544 L 14576993.769881953,-3590120.2565265065 L 14584212.170942951,-3605802.6758239847 L 14587288.707710003,-3609251.6090665893 L 14589571.647827193,-3610492.2973917047 L 14592050.176289706,-3605619.1811245447 L 14589245.48171917,-3586404.8905845094 L 14582027.080658171,-3571857.364876728 L 14578374.465526262,-3554673.439130485 z" /><path fill-rule="evenodd" fill="currentColor"    d="M 14480719.887505824,-3793498.521735001 L 14471925.202455193,-3788802.3789482918 L 14470794.530387206,-3793299.418279814 L 14467098.389334397,-3795349.3028913015 L 14473457.960523924,-3801681.2127581444 L 14473240.553558405,-3804555.7459553657 L 14469229.15570767,-3808839.85634412 L 14473903.683765061,-3825012.7869172804 L 14472620.949272653,-3831979.262696626 L 14490210.208054425,-3834564.536416903 L 14493428.120574784,-3828015.4342256137 L 14493743.377372712,-3808100.016406041 L 14480719.887505824,-3793498.521735001 z" /><path fill-rule="evenodd" fill="currentColor"    d="M 14391327.219453083,-4045382.2119653956 L 14384087.111091381,-4039927.0820957096 L 14380967.159722919,-4048291.330923201 L 14384130.63701228,-4071939.720267243 L 14397741.114554118,-4067103.5367938057 L 14397512.909597993,-4059836.570836762 L 14391327.219453083,-4045382.2119653956 z" /><path fill-rule="evenodd" fill="currentColor"    d="M 14403144.117359266,-4076389.6276515387 L 14400882.88454278,-4069899.776074116 L 14393327.51938315,-4074493.6731809056 L 14389903.109207366,-4078654.754232528 L 14396882.39600214,-4099094.2110190876 L 14396066.98073208,-4106855.245684511 L 14396490.99667251,-4110638.6346401763 L 14410427.640322376,-4121368.6865655067 L 14412808.430271974,-4119306.5052902824 L 14413667.26014344,-4116346.0147476257 L 14412438.849562537,-4111754.7736033937 L 14413134.596379995,-4101601.479503758 L 14402676.57549793,-4084859.780906171 L 14403144.117359266,-4076389.6276515387 z" /><path fill-rule="evenodd" fill="currentColor"    d="M 14322959.240987487,-3866653.584423343 L 14327275.097645545,-3863078.795190598 L 14333612.850214876,-3865127.7917725346 L 14338624.453690385,-3865606.2688249913 L 14342244.452211494,-3863873.8345253803 L 14346788.625145167,-3854666.5234149285 L 14348473.556957815,-3849222.926886912 L 14340320.294813136,-3848454.785957757 L 14336885.086646743,-3847183.166285914 L 14332438.76354548,-3840498.0093618254 L 14326035.777754543,-3842956.0366550316 L 14322067.794505214,-3846085.89445308 L 14321154.64072224,-3850527.1620533653 L 14322959.240987487,-3866653.584423343 z" /><path fill-rule="evenodd" fill="currentColor"    d="M 14513952.651689796,-3819061.1999772782 L 14504103.437102878,-3818481.739614102 L 14500037.715340637,-3820020.78722352 L 14498439.612730809,-3824213.889115773 L 14512213.28464615,-3832714.1202626424 L 14522899.51048434,-3831199.301982542 L 14518127.13259454,-3823543.93828022 L 14513952.651689796,-3819061.1999772782 z" /><path fill-rule="evenodd" fill="currentColor"    d="M 15704147.140084747,-5674076.742911239 L 15699831.283426693,-5664023.057922004 L 15694058.811231604,-5678972.585896087 L 15692895.633872306,-5695101.733655847 L 15696232.992206289,-5695000.944321132 L 15702364.247120203,-5692575.51757137 L 15703831.88328682,-5684714.657219866 L 15704147.140084747,-5674076.742911239 z" /><path fill-rule="evenodd" fill="currentColor"    d="M 15728933.092626816,-5640328.102696376 L 15721203.846422566,-5639203.512915508 L 15712224.371017216,-5645783.465658191 L 15711115.517569426,-5654042.238131686 L 15717616.353192769,-5660625.472831247 L 15724084.572205313,-5658193.835347428 L 15730563.811847445,-5649676.67511527 L 15732694.466901228,-5645243.936437792 L 15728933.092626816,-5640328.102696376 z" /><path fill-rule="evenodd" fill="currentColor"    d="M 15526981.725209286,-5173121.484150861 L 15524437.85220568,-5172315.942178397 L 15521785.33137906,-5173582.852990301 L 15519219.751074746,-5184927.024150994 L 15521426.659979725,-5190919.747144799 L 15528601.535119824,-5195110.124537228 L 15535569.801285012,-5196277.386871842 L 15529634.246035911,-5175428.702092998 L 15526981.725209286,-5173121.484150861 z" /><path fill-rule="evenodd" fill="currentColor"    d="M 14955980.085731724,-4093929.8225486344 L 14953903.75458945,-4091246.3075679718 L 14951914.363969484,-4091945.0428932123 L 14944848.136652399,-4085749.34504088 L 14943315.378583666,-4091687.9572648425 L 14937771.111344706,-4095644.403790834 L 14937086.273837347,-4098737.9283016897 L 14953099.359948976,-4100783.228346108 L 14958252.227858307,-4099160.1455004713 L 14955980.085731724,-4093929.8225486344 z" /><path fill-rule="evenodd" fill="currentColor"    d="M 15524220.445240164,-4126777.318994484 L 15523024.651270062,-4120416.8738650177 L 15517089.096020961,-4121818.2908329405 L 15514251.784839623,-4125963.866718238 L 15514599.658248354,-4133405.9213233846 L 15520850.470295377,-4133465.5525351604 L 15524220.445240164,-4126777.318994484 z" /><path fill-rule="evenodd" fill="currentColor"    d="M 14368780.681107305,-3874123.3412105893 L 14365997.693837473,-3872693.6860068995 L 14362399.402617075,-3884640.909897332 L 14359909.964844462,-3888915.2621030104 L 14364106.153049916,-3891202.161574489 L 14372433.407558706,-3912913.396838473 L 14373977.074937537,-3904290.2695349967 L 14377216.58343911,-3895744.646157281 L 14380467.112570276,-3894390.1304518525 L 14377303.635280909,-3888163.894669243 L 14372639.905214127,-3885864.7227976797 L 14368780.681107305,-3874123.3412105893 z" /><path fill-rule="evenodd" fill="currentColor"    d="M 14414960.903945949,-3924947.2831896963 L 14407122.898599196,-3918665.7784921154 L 14401448.164917026,-3918691.7133172746 L 14406633.64943716,-3926019.4831642085 L 14407318.59826401,-3929515.964563306 L 14411634.343602573,-3939354.852324366 L 14420102.862545185,-3942888.002263131 L 14423657.739164175,-3943323.9572504535 L 14416776.302201806,-3933104.581287922 L 14414960.903945949,-3924947.2831896963 z" /><path fill-rule="evenodd" fill="currentColor"    d="M 14448791.565114971,-3995125.420039447 L 14441094.824202035,-3989570.1674675317 L 14435333.261317044,-3993903.017854688 L 14438137.955887582,-4005851.353753957 L 14440062.113285944,-4009804.1481336583 L 14446639.091440992,-4005890.617653122 L 14448791.565114971,-3995125.420039447 z" /><path fill-rule="evenodd" fill="currentColor"    d="M 14758561.981937775,-4044279.19812962 L 14755333.27142681,-4038890.315716657 L 14745484.16815938,-4040524.401325651 L 14749419.423478412,-4045191.802326134 L 14752452.434324568,-4050852.875884117 L 14754670.141220149,-4052009.136800342 L 14756529.065396909,-4045854.8880948047 L 14758561.981937775,-4044279.19812962 z" /><path fill-rule="evenodd" fill="currentColor"    d="M 14723785.550374975,-4021441.533969981 L 14729188.441860626,-4016535.0272571086 L 14742092.374594398,-4018539.2602516166 L 14743701.275194837,-4017150.706979862 L 14739928.991610324,-4012691.1990194465 L 14734243.45993755,-4008279.1342678145 L 14723926.81480879,-4011558.493744846 L 14717415.069875346,-4011741.9071615636 L 14716501.91609237,-4019109.164579721 L 14717328.129353039,-4021795.3958617863 L 14723785.550374975,-4021441.533969981 z" /><path fill-rule="evenodd" fill="currentColor"    d="M 14440138.255817646,-3718387.1527885715 L 14436670.319720963,-3716101.222600918 L 14438898.935926646,-3726384.6890005525 L 14447856.704031289,-3735397.702523308 L 14448563.248839354,-3729554.392237672 L 14440138.255817646,-3718387.1527885715 z" /><path fill-rule="evenodd" fill="currentColor"    d="M 15828316.23970029,-3075640.150787738 L 15826283.323159423,-3075536.803768429 L 15819293.238374038,-3088723.8473439272 L 15821315.24560481,-3089338.533990187 L 15825370.169376446,-3087281.7065887316 L 15829870.705069726,-3079659.4377833125 L 15828316.23970029,-3075640.150787738 z" /><path fill-rule="evenodd" fill="currentColor"    d="M 16010449.620810868,-5483564.850701782 L 16024386.375780223,-5482777.498099749 L 16030615.480526542,-5483511.8208907405 L 16041290.797054635,-5481172.612262972 L 16083644.41239726,-5457639.946855527 L 16096428.787997924,-5454650.6829719115 L 16109626.158909433,-5454303.523869887 L 16118899.183811998,-5456197.910704217 L 16127063.355266778,-5462646.853725962 L 16152631.995148614,-5491192.24589192 L 16179483.48084235,-5517258.193167391 L 16182462.167776996,-5516247.583030905 L 16182473.077087095,-5509077.549544644 L 16180505.393767834,-5501071.075065927 L 16168623.373959541,-5477237.552515276 L 16155393.27511774,-5445251.410059691 L 16152577.671237107,-5429077.911760775 L 16156871.709274964,-5413360.969015667 L 16165155.54918235,-5400401.542926119 L 16171710.7087172,-5382696.093581362 L 16179266.073876832,-5358135.329528785 L 16189876.268502811,-5355028.8127035 L 16195637.942707287,-5354647.910625744 L 16206258.935323875,-5361997.593206335 L 16216314.64756621,-5371349.926533088 L 16224957.15887293,-5372486.921951285 L 16234056.19141139,-5370901.110569073 L 16222098.029071394,-5364396.48053982 L 16210813.906248156,-5356417.68534143 L 16201149.482015952,-5341345.234182116 L 16197551.190795554,-5338527.46312222 L 16186386.625105424,-5339451.614025589 L 16180005.34661519,-5338907.553739225 L 16166938.330827402,-5332618.81811426 L 16155480.215640051,-5325508.1073809555 L 16144533.168234931,-5316789.170524036 L 16132575.005894937,-5312113.099074744 L 16119855.863515878,-5311013.12405729 L 16100222.77888314,-5303896.624722699 L 16087471.01989328,-5303391.736420455 L 16063576.513833484,-5309601.3213513885 L 16051966.224902222,-5307959.381430185 L 16026593.173365708,-5293936.497433637 L 16003524.769247092,-5273715.179423519 L 15983359.02085091,-5251092.545648495 L 15966498.014177905,-5223936.043504123 L 15959725.336358042,-5209809.860678908 L 15955659.6145958,-5194045.821891319 L 15955105.132212156,-5183629.17148545 L 15953604.990754228,-5173619.45147604 L 15949713.150036603,-5166649.678714309 L 15945016.803359019,-5161008.654148837 L 15931123.685630055,-5164308.024091262 L 15908261.890486348,-5178725.570003902 L 15863940.591824463,-5199699.1167667555 L 15817151.674010161,-5231906.187394655 L 15790821.942769771,-5248117.3358777575 L 15741315.270907242,-5243261.371065431 L 15694504.534472745,-5212368.789971927 L 15690308.346267292,-5214994.39515649 L 15672403.719368102,-5236173.783920941 L 15663739.50076068,-5244574.678790542 L 15653390.239021117,-5246951.065541035 L 15645693.49810818,-5246677.923658498 L 15638214.275480254,-5245142.913706088 L 15627636.697465075,-5234235.00449836 L 15623755.76605755,-5226380.845890863 L 15620744.462512102,-5217481.039099078 L 15619820.399419028,-5211184.786998009 L 15621092.33592083,-5205024.99850187 L 15631104.63356176,-5191095.711800799 L 15643454.083911892,-5180740.985440039 L 15649041.765752262,-5178769.541966599 L 15660902.07825985,-5179495.033663478 L 15666413.728888005,-5178425.125378347 L 15686286.039106458,-5157652.025947602 L 15708038.980802374,-5138244.728767778 L 15712854.88461307,-5131825.646804237 L 15704810.270291403,-5125068.372104383 L 15695993.877940068,-5121724.341933641 L 15685753.375343012,-5122598.583001818 L 15675610.611258874,-5125155.823146298 L 15658184.324211622,-5133393.531481057 L 15650737.718194498,-5126372.908171385 L 15639181.753174737,-5111997.599778503 L 15632778.7673838,-5096394.199025462 L 15627582.37355357,-5089240.759816716 L 15614797.997952906,-5079836.911119901 L 15601274.460933376,-5074971.634437763 L 15594208.233616294,-5076581.043907385 L 15588805.342130639,-5082477.13360199 L 15585750.62398378,-5089545.701641944 L 15584206.956604952,-5097738.293684737 L 15587098.591697797,-5115512.962924401 L 15594099.585793277,-5131548.62778346 L 15596795.521221308,-5147947.036670004 L 15591055.665637026,-5171071.093226352 L 15587413.848495724,-5175904.885758209 L 15573053.18890543,-5189489.009563564 L 15566410.977528779,-5202725.324991858 L 15564791.167618241,-5219217.7380707795 L 15565639.199499108,-5228347.582825829 L 15569161.348187802,-5248523.259013414 L 15572607.465664292,-5258730.905108886 L 15579227.96974024,-5262094.02588827 L 15586402.844880339,-5264112.445126187 L 15597491.268038766,-5271413.411253282 L 15609677.746654378,-5280897.695357852 L 15621309.742886348,-5291726.361707628 L 15632844.000605406,-5304988.310654358 L 15638877.40568691,-5319570.527301044 L 15628973.867188485,-5337476.570331694 L 15626951.859957717,-5348132.175150766 L 15628408.586814238,-5358224.967756645 L 15638931.729598418,-5363589.3849518355 L 15649802.745791325,-5359539.659054443 L 15671631.83001894,-5344752.979222541 L 15675915.070066193,-5343298.80056654 L 15690906.243252343,-5342612.799069469 L 15711430.774367351,-5339399.5575008495 L 15723323.703485744,-5340182.2679515425 L 15729030.942459222,-5342411.375898546 L 15737695.161066642,-5354633.078543953 L 15741945.784503095,-5370220.575393685 L 15740391.207814164,-5390307.7824376365 L 15740315.065282464,-5410303.424652355 L 15745783.189989721,-5426624.607110488 L 15762916.03885924,-5452914.863989839 L 15767818.883192247,-5468450.132291092 L 15769612.574147401,-5506329.497229766 L 15775787.354982212,-5523065.69037302 L 15780755.432536826,-5540419.447994176 L 15783125.313176325,-5576977.685653837 L 15776091.70247004,-5612247.986232876 L 15769047.293773152,-5629588.791931975 L 15760948.35553998,-5646107.230294895 L 15762144.149510078,-5661907.086267186 L 15768688.511054324,-5676574.620897989 L 15768851.594108338,-5680999.562229096 L 15770406.170797266,-5684916.005546439 L 15782668.680625089,-5687710.934094534 L 15788386.828908665,-5690863.371337872 L 15793865.862926023,-5697930.964638438 L 15800431.931770971,-5702095.000185931 L 15805236.926271575,-5697961.925711653 L 15809194.0002108,-5690731.534901955 L 15826468.113514138,-5672932.56325918 L 15853678.381926704,-5641221.69094496 L 15885747.968751375,-5593101.267616209 L 15905859.393236049,-5569736.807306416 L 15927047.054557715,-5548597.674071637 L 15950811.0941743,-5527028.318433802 L 15975673.189248066,-5508492.920661243 L 15991555.808916492,-5499758.883625454 L 16003187.80514846,-5485836.582478829 L 16010449.620810868,-5483564.850701782 z" /><path fill-rule="evenodd" fill="currentColor"    d="M 14602290.678886762,-3975563.3193056076 L 14617271.0540823,-3971576.5905069676 L 14623598.008661028,-3971328.6180554745 L 14629468.33068852,-3973135.8929091627 L 14638382.572872266,-3978369.8497682377 L 14647753.447607245,-3982221.8554198397 L 14654439.073585307,-3980269.5515444255 L 14660363.830843797,-3975595.930803607 L 14663472.984221652,-3969045.678190611 L 14661961.933453623,-3962173.133689712 L 14651373.446128346,-3947431.215183476 L 14642676.610910123,-3931739.1973006944 L 14662679.387571787,-3928814.0284027867 L 14682660.34561325,-3929145.48927982 L 14677996.72686596,-3919438.6610473706 L 14677235.746826896,-3910985.756289005 L 14683345.183120614,-3906962.822000053 L 14688530.667640746,-3901553.386531511 L 14687182.69992673,-3896652.0801309105 L 14684204.012992084,-3891811.20986171 L 14695129.464415988,-3884563.199169968 L 14694411.898978336,-3879701.3341036346 L 14691574.587796997,-3874608.5440218896 L 14664353.521393826,-3841381.7728179027 L 14656363.342303157,-3824587.537024568 L 14650797.367763493,-3806112.2286420143 L 14645709.62175628,-3792624.7546131434 L 14641980.864092665,-3778645.391575828 L 14639143.552911326,-3763566.991473406 L 14634088.534834405,-3748027.363582736 L 14635762.668656446,-3734259.5619992646 L 14634055.9182236,-3720175.292853815 L 14620391.005450765,-3685417.7329069558 L 14610650.550006356,-3686061.009881944 L 14598409.747479234,-3690265.1854722546 L 14590734.825186493,-3689615.2943411777 L 14586766.841937166,-3681896.612116549 L 14593811.361953545,-3666060.228922918 L 14571971.368415833,-3647310.9647642267 L 14547870.253381124,-3634715.1270468817 L 14547696.372336507,-3640449.785341399 L 14549957.493833497,-3644974.818978925 L 14553436.227920787,-3648612.4244180685 L 14555958.282304201,-3653000.742638475 L 14559447.92570159,-3667745.393074729 L 14557719.467968041,-3682615.98552291 L 14550457.540986141,-3701259.9896751777 L 14549924.877222696,-3707970.1099860603 L 14554958.187998915,-3710682.0120087923 L 14558339.072253797,-3711454.3193647373 L 14560176.289129851,-3714064.7647216814 L 14560241.522351453,-3720239.122495585 L 14557947.78424366,-3724819.251738339 L 14551077.256591387,-3726308.0023401896 L 14544456.752515439,-3726403.795308773 L 14539825.75037895,-3719472.7965561235 L 14533433.562578617,-3706094.530633531 L 14530324.40920076,-3692590.776569266 L 14531694.195534972,-3685207.6187382326 L 14534531.506716313,-3678599.144451087 L 14543282.665846042,-3667535.4512153384 L 14540717.08554173,-3661031.764641224 L 14537075.37971992,-3655954.609948749 L 14506114.64634304,-3667459.2635243386 L 14499428.909045486,-3668279.510713172 L 14493873.84381592,-3670715.5691619786 L 14487927.379256725,-3685914.53488101 L 14500537.76249328,-3689577.066526703 L 14504277.429466989,-3691418.3999572084 L 14505668.923101906,-3696261.705743944 L 14507375.67353475,-3711109.6569388676 L 14501472.623576963,-3723515.9434032883 L 14496493.748031741,-3727931.0886624423 L 14492449.733570203,-3733006.4346728325 L 14495015.313874517,-3743502.534436443 L 14493330.270742375,-3756729.9838571227 L 14493178.096998462,-3775231.637993472 L 14495363.187283244,-3778420.7744075344 L 14507060.41673682,-3782162.7957937014 L 14515496.319068626,-3792091.4458999 L 14522964.743705945,-3803404.585224159 L 14533911.902430555,-3823324.9393054475 L 14542836.942604905,-3844872.550073798 L 14534237.957219088,-3845814.7976744273 L 14526954.434255978,-3849855.7221240117 L 14534922.90604594,-3860067.239287665 L 14532455.175574036,-3872971.892752819 L 14520562.246455645,-3888850.523748019 L 14514028.682902008,-3907598.601393749 L 14503516.449427927,-3915867.1514248876 L 14497972.182188967,-3918906.1100822818 L 14491221.211669808,-3914503.7871432654 L 14485655.237130145,-3909227.2048508716 L 14490808.216358967,-3897028.0300821066 L 14490210.208054425,-3886253.324680882 L 14491014.714014389,-3875585.5027150037 L 14496265.431756126,-3874990.2810028964 L 14502711.943467963,-3877643.304506346 L 14507875.720687393,-3875760.285249646 L 14510887.02423284,-3870158.33338088 L 14511702.328183409,-3862942.984642835 L 14509430.297376318,-3855796.7382556624 L 14504668.717477124,-3852244.67747306 L 14498863.62867124,-3852528.7501268117 L 14493015.01394445,-3856384.640905617 L 14488460.043020174,-3861883.160166031 L 14477556.410216464,-3864920.9961381196 L 14466054.769108212,-3858426.123435962 L 14455118.519693697,-3845201.7796946242 L 14445769.463578915,-3838498.323446835 L 14450172.14943979,-3848312.7977297255 L 14452248.591901558,-3858904.196272027 L 14447704.530287372,-3866356.195585465 L 14437029.102439793,-3878756.3744893186 L 14434550.462657789,-3885936.076035447 L 14433941.76768213,-3894629.963220647 L 14435811.601168985,-3903265.4904227513 L 14446791.265184907,-3893385.7264691344 L 14452422.472946173,-3881067.146487846 L 14460488.794568546,-3875663.154073788 L 14470609.74003249,-3875617.8353003785 L 14462836.96790734,-3893709.679814227 L 14460043.071327409,-3898272.653940492 L 14449128.529213604,-3906404.9324913733 L 14434246.11516996,-3920101.0585945486 L 14424788.299912669,-3926708.207829826 L 14428136.56755675,-3941007.3594878404 L 14433680.834795713,-3943851.0968293496 L 14438377.070153804,-3943161.2219068496 L 14454183.658610016,-3938092.7788592237 L 14455673.00207734,-3945217.906096572 L 14453346.536039252,-3949026.334291934 L 14452129.034768444,-3953454.6977578793 L 14462532.62041951,-3959657.227854985 L 14479556.598827034,-3964767.701329729 L 14483046.242224423,-3967160.779732897 L 14486068.343760477,-3972300.7647154946 L 14490232.026674619,-3974989.0245624613 L 14502157.572403815,-3974910.707785197 L 14512169.75872525,-3979825.6491887327 L 14520453.487313138,-3993171.0578971514 L 14522432.079942498,-4000500.2594638974 L 14525388.94825695,-4006616.9570542076 L 14546065.653115878,-4017458.55927603 L 14551196.8137245,-4019109.164579721 L 14565002.990931155,-4017766.285717463 L 14577635.192787904,-4011630.491204877 L 14583864.297534222,-3998741.043762361 L 14589321.51293138,-3984958.17882185 L 14602290.678886762,-3975563.3193056076 z" /><path fill-rule="evenodd" fill="currentColor"    d="M 14956599.801336974,-4063275.45817029 L 14971993.171843356,-4057673.745186262 L 14987777.941679368,-4059271.0863971533 L 14987527.918103049,-4034704.2934055906 L 14989767.332299339,-4026468.1526965504 L 14994213.54408111,-4019102.5906624957 L 14991930.715283412,-4008383.949850798 L 14999062.064502614,-4004726.024513349 L 14977896.110481653,-3992510.888232391 L 14958784.891621754,-3976339.8722529435 L 14950935.976964902,-3965439.369140809 L 14943826.335046405,-3953780.32660791 L 14939706.178053167,-3941449.906794822 L 14937031.949925842,-3928164.0464009056 L 14930628.852815412,-3933429.7724519144 L 14912213.269453477,-3954965.927806973 L 14900559.565920804,-3960882.542273959 L 14881817.927770337,-3964037.590650745 L 14875849.644590952,-3963326.885316741 L 14837322.74806383,-3943180.8140017674 L 14832202.38544581,-3928482.443859485 L 14821700.949962338,-3906346.4745467394 L 14816722.07441712,-3899050.6940534175 L 14811188.71648826,-3896956.7420345317 L 14807275.168469932,-3893165.4273861228 L 14802959.311811874,-3874349.775531215 L 14791012.058781978,-3862775.0106033944 L 14783706.717198668,-3862432.4515796946 L 14771226.800405325,-3865599.781319407 L 14765617.299944762,-3863815.5880649714 L 14773096.522572689,-3882368.2825358403 L 14761181.886153596,-3884627.9138695523 L 14749288.957035204,-3884239.498416387 L 14749006.316848082,-3896321.540888665 L 14741798.825097179,-3903187.6560426317 L 14747136.483361227,-3912102.132672475 L 14747288.65710514,-3919373.620426675 L 14750419.5177837,-3923381.4125514613 L 14751506.663930789,-3929249.45546073 L 14751104.46661055,-3934268.493383898 L 14743755.599106345,-3935803.3310015653 L 14739276.770713769,-3939354.852324366 L 14740124.69127514,-3952581.9082133453 L 14735906.684449492,-3953063.848514547 L 14725459.684197016,-3950758.373254418 L 14703728.449801804,-3940538.978660428 L 14697803.692543315,-3940519.391026277 L 14706913.634391874,-3947795.7411451438 L 14726220.664236076,-3957793.477308615 L 14734906.590144204,-3963522.481803886 L 14753843.927959483,-3979616.673371549 L 14765758.564378578,-3987244.274884628 L 14771976.87113429,-4000761.8545111986 L 14773901.028532652,-4008979.4867777056 L 14777923.335693484,-4016207.4830600913 L 14781478.100992987,-4027785.8738998403 L 14787620.265216997,-4031654.395886293 L 14798273.874444386,-4041607.290381948 L 14804394.331367692,-4040642.551664865 L 14811199.625798356,-4028415.184783445 L 14820374.689549029,-4019043.69389933 L 14826984.284314878,-4019836.343668677 L 14838757.656300157,-4024639.4373328234 L 14844432.389982328,-4025720.9522262234 L 14858042.867524166,-4025150.717874942 L 14870283.670051284,-4031103.6073249374 L 14875262.656915994,-4038122.5458329553 L 14877121.581092754,-4046899.013926987 L 14872577.519478569,-4061592.0411399906 L 14878469.548806768,-4060112.591341387 L 14884111.665878136,-4060717.571005999 L 14897396.08863144,-4070077.394018078 L 14911061.00140428,-4075632.5290441583 L 14925258.57794056,-4077028.245709319 L 14941217.228821192,-4071722.581337184 L 14956599.801336974,-4063275.45817029 z" /><path fill-rule="evenodd" fill="currentColor"    d="M 15721573.427132,-5067464.70546402 L 15725965.315002266,-5064669.315959873 L 15746750.779003695,-5072224.678429007 L 15742793.705064466,-5049460.365755756 L 15740575.998168884,-5026561.898466423 L 15742097.958247008,-4988675.361180208 L 15743967.791733861,-4971619.623874622 L 15747566.082954265,-4955151.971813455 L 15756415.091916405,-4943366.429514021 L 15767992.764236867,-4935009.94192571 L 15784777.628378168,-4908343.796705542 L 15793778.92240371,-4875717.6475997055 L 15800138.493593242,-4859912.863044843 L 15804899.962172942,-4843361.537395525 L 15806345.779719366,-4835796.354719595 L 15806465.448171968,-4828215.919273239 L 15805041.33792625,-4817865.502817536 L 15806606.712605786,-4809508.381447438 L 15804802.112340536,-4783282.244292466 L 15797290.273101805,-4753047.206424042 L 15796322.684087828,-4737630.922250671 L 15789789.231853684,-4734577.105332983 L 15785832.157914452,-4727464.478886728 L 15782451.273659572,-4724168.864691745 L 15778700.697375763,-4721615.565339778 L 15773254.391288701,-4720979.1672092965 L 15769362.550571078,-4718070.2636378715 L 15767818.883192247,-4709921.127185711 L 15765318.53610954,-4702371.9745672885 L 15760578.774830546,-4695421.324486384 L 15756860.81515754,-4687757.433045667 L 15753795.187700586,-4669099.39632141 L 15752686.334252795,-4649996.306188341 L 15748087.837407611,-4636677.02950674 L 15737032.030859988,-4633209.536927062 L 15724356.414401831,-4633445.267745768 L 15708115.012014583,-4627275.872082154 L 15704658.09654749,-4623673.080108965 L 15691830.195025926,-4600478.5402420275 L 15688144.963283213,-4586898.820345523 L 15688025.4061501,-4572309.69826612 L 15691591.0807597,-4554396.351594001 L 15696428.691871107,-4536912.229442564 L 15700092.21631311,-4504435.115662481 L 15696232.992206289,-4455099.310810271 L 15692525.941843381,-4439392.6740565635 L 15684372.679698702,-4428759.835411292 L 15678197.898863893,-4423831.486564547 L 15672871.149909941,-4417784.574802434 L 15665978.914956966,-4401800.614687847 L 15654564.325690513,-4370025.912237761 L 15653618.555296736,-4362069.893691483 L 15653661.969898144,-4353809.328408654 L 15650585.544450583,-4343058.908569167 L 15648574.335210418,-4332501.3715914 L 15650455.078007372,-4320237.535689096 L 15653966.428705463,-4308774.254578579 L 15669283.656680146,-4279411.060164427 L 15675284.55647034,-4270737.575099404 L 15682024.506359909,-4262840.755746073 L 15655890.586103829,-4254113.422658486 L 15651172.532125536,-4250106.818610202 L 15635648.69517594,-4233440.650297854 L 15630691.526931426,-4217659.748147354 L 15631093.724251663,-4200223.745271402 L 15628473.820035841,-4193974.3520757803 L 15624212.398608785,-4188566.214868178 L 15619766.075507522,-4184968.974454544 L 15602415.930991968,-4177000.6767688184 L 15591316.598523445,-4169084.5967003712 L 15580249.882665724,-4156723.6301183808 L 15575868.792786065,-4150246.7632970237 L 15567356.747922556,-4152321.4489658643 L 15562377.872377334,-4158030.185700022 L 15567280.716710344,-4165221.567159664 L 15565769.665942317,-4173692.8169781016 L 15568193.87049332,-4195498.039213287 L 15565410.88322349,-4204272.219045172 L 15574281.599486332,-4210900.695549299 L 15578510.51562208,-4221514.501279268 L 15587750.812594356,-4230015.628795783 L 15594338.700059503,-4237568.120427581 L 15595512.7867289,-4243688.59579312 L 15589588.029470408,-4250287.473260772 L 15583337.217423385,-4255063.507644531 L 15574683.908126058,-4255083.51320535 L 15566334.946316563,-4253671.97772815 L 15560942.852821518,-4247378.597288642 L 15559138.252556272,-4238817.3636429375 L 15559562.2684967,-4234822.911857921 L 15558877.31966985,-4231330.735904554 L 15545766.889280656,-4219620.35032616 L 15547495.347014202,-4207382.675694002 L 15551332.863820316,-4201175.864965427 L 15556235.708153328,-4198233.462526338 L 15554768.07198671,-4194027.495665193 L 15548549.876550488,-4184184.616369811 L 15544201.51460112,-4183214.082444782 L 15536200.426200353,-4196988.81482344 L 15526220.745170226,-4204525.229754496 L 15513871.294820093,-4204465.352302689 L 15501173.859741742,-4201728.3856292525 L 15491520.344819639,-4192557.147633769 L 15488335.160229571,-4184949.0959209767 L 15486302.243688704,-4177087.0730627966 L 15486987.192515552,-4157970.4230546467 L 15482986.592655428,-4142045.055495306 L 15475148.587308671,-4128066.9637768 L 15471474.153556567,-4122968.580065051 L 15461907.690476267,-4113498.5908643156 L 15455319.80301112,-4112256.7476894776 L 15450601.749032827,-4116557.3847842435 L 15446807.75814761,-4123080.9616397065 L 15451645.369259017,-4147006.416348015 L 15451449.669594198,-4160457.771104958 L 15462679.468505934,-4167312.232221813 L 15453471.67682497,-4176894.4170527896 L 15442198.463311825,-4180754.8422803064 L 15426337.550944109,-4175638.969570388 L 15421869.63186163,-4169881.348773429 L 15418814.80239528,-4162136.1044765143 L 15410302.757531773,-4152361.2252396997 L 15400899.377505485,-4143204.0735302037 L 15390278.384888897,-4127610.6067787306 L 15383136.126359602,-4109159.502137239 L 15359752.465443056,-4115189.77474928 L 15346978.999152495,-4116537.627877133 L 15334096.773719424,-4116068.4792172182 L 15311256.685876423,-4118341.6040331665 L 15286177.183837133,-4114575.371991483 L 15257640.766330749,-4107330.499616945 L 15259347.516763594,-4112554.0741023584 L 15282807.208892345,-4123662.791263061 L 15283655.12945372,-4126922.787718449 L 15281404.805947334,-4133008.975292062 L 15275556.191220546,-4133306.7173756035 L 15261521.697738277,-4131182.7171858875 L 15254357.731908275,-4132115.661088807 L 15251433.368885133,-4138648.177716722 L 15246682.69829604,-4141468.9143573665 L 15243508.42301607,-4138793.9365179627 L 15244552.043242257,-4126102.6884742104 L 15241073.309154969,-4124409.8576868963 L 15236442.195698986,-4127670.0716557484 L 15237920.62985621,-4137529.3558021276 L 15234757.15256685,-4151996.592085173 L 15234398.481167512,-4160988.4302189066 L 15239312.12349113,-4168712.8892579866 L 15234278.812714908,-4171972.7549519786 L 15228973.771061666,-4170717.8639836186 L 15222222.911861995,-4167006.919765851 L 15216265.537992708,-4161724.8194094063 L 15203676.862056859,-4135318.6154014724 L 15198784.927033946,-4120258.223711367 L 15208003.51670552,-4108175.5953758527 L 15233137.453975804,-4091305.5802454567 L 15237442.290004272,-4087172.766565888 L 15237540.139836678,-4080004.8491839417 L 15234485.421689821,-4072400.429826431 L 15227636.71265775,-4069057.54380441 L 15200056.86353575,-4063459.571827368 L 15176173.155466562,-4052574.1248807414 L 15169270.011203494,-4041548.2772632255 L 15147527.978817677,-3999061.5263800356 L 15130123.399071127,-3970102.32835555 L 15105533.034874383,-3960119.9756734306 L 15078540.284746831,-3968986.9040311053 L 15072017.630503291,-3979061.8295581248 L 15066734.296150751,-3991530.6089576525 L 15056700.40252861,-4002815.7102320683 L 15047655.693901652,-4015120.430846753 L 15042372.359549114,-4029739.5766826444 L 15043198.572809784,-4053349.4650755688 L 15039274.115481356,-4067590.3227451635 L 15042818.082790252,-4071386.974430124 L 15057700.496833896,-4080050.9791550254 L 15062559.815246005,-4084905.930718763 L 15070963.212286498,-4096198.3388724094 L 15073974.404512452,-4102485.7441578736 L 15074431.03706369,-4112018.9463352505 L 15067669.268553926,-4117000.1651462284 L 15050199.455585772,-4116815.1750147888 L 15032773.16853852,-4113848.7126565794 L 15020325.86835598,-4118017.733079929 L 15004193.225111239,-4129561.8698145333 L 14999192.53094582,-4132022.9729846003 L 14981798.860509371,-4132750.8120821547 L 14969384.176937632,-4130607.135704217 L 14957186.789011925,-4126393.7457230194 L 14944293.765588244,-4125064.478867163 L 14939999.727550387,-4122869.3331779833 L 14925106.404196648,-4108723.657051282 L 14913278.708299862,-4099826.5378013765 L 14903049.003693411,-4095413.5717815123 L 14880959.09789887,-4094233.1473410255 L 14869903.180031752,-4091371.469145723 L 14858303.800410584,-4086704.840953929 L 14855064.18058952,-4087113.3806421245 L 14842856.105992693,-4080663.500519523 L 14828843.319811126,-4075086.074237945 L 14821342.278563002,-4069485.120450271 L 14807601.223258464,-4073144.236353587 L 14780401.864155997,-4063124.2097597728 L 14767258.817156,-4061894.4990842165 L 14753670.046914864,-4067412.743823262 L 14741070.46166892,-4076350.119738173 L 14728971.034895107,-4072518.9125854983 L 14720676.396997118,-4059323.7291152366 L 14716654.089836286,-4033103.818185353 L 14711914.328557292,-4021317.007250671 L 14710479.309001472,-4007173.2676921403 L 14704217.587644354,-4009411.515057225 L 14667810.54818041,-4034881.495982618 L 14665288.382477507,-4035793.3469132837 L 14635860.518488852,-4031405.255116099 L 14628261.627408322,-4029287.1740788706 L 14618782.10485033,-4024128.313910377 L 14608748.099908696,-4021821.563558743 L 14599594.74345873,-4025530.8709435347 L 14590854.382319603,-4031575.6909899544 L 14582451.096598603,-4029778.9227262186 L 14573819.494601982,-4025543.891947348 L 14570525.55086941,-4064011.9307500655 L 14572199.684691451,-4069097.0262529966 L 14577493.817034597,-4075856.349888847 L 14583320.72446068,-4081638.261680705 L 14597572.736227961,-4083634.3160373187 L 14611998.51772037,-4081756.841329433 L 14622304.364858523,-4084418.39851959 L 14631001.200076746,-4092063.7309367266 L 14640187.173137516,-4102914.589570314 L 14650536.434877077,-4111748.280957062 L 14664570.928359346,-4118731.533792098 L 14678148.900609871,-4126750.771833519 L 14690063.537028968,-4138006.0480966405 L 14701380.276463015,-4150299.8337326045 L 14711783.86211408,-4159330.102627501 L 14723067.984937321,-4166913.941147084 L 14740265.955708956,-4185141.8919705106 L 14763084.336251251,-4205657.506682156 L 14771835.495380985,-4220874.248068859 L 14777281.912787532,-4225070.2442656215 L 14796914.99742027,-4233580.824233054 L 14822962.088473536,-4240086.727321965 L 14835235.50761146,-4239772.690832733 L 14847400.167606873,-4226411.546389188 L 14853955.438461216,-4228240.162622494 L 14860586.740527775,-4231691.293337504 L 14874001.62972429,-4233600.927373406 L 14887796.897620846,-4231390.896352516 L 14901255.312738262,-4231337.435574502 L 14914724.525846284,-4233026.703179575 L 14940641.15045634,-4237407.78541457 L 14954273.335298885,-4242699.531153156 L 14967579.576672385,-4249545.150978441 L 15015020.826702736,-4254381.011077619 L 15047536.025449052,-4265874.173835795 L 15052678.095367776,-4265057.1429798715 L 15057678.78953319,-4262405.539855531 L 15058048.370242624,-4253892.697966859 L 15053960.829860186,-4244611.082348751 L 15057939.61110012,-4238997.6954617 L 15064527.498565268,-4235530.863471673 L 15095129.449223317,-4234462.3883573515 L 15103858.901052343,-4232465.772980826 L 15116632.478662401,-4238810.659406373 L 15128666.672214605,-4246663.308269368 L 15141255.348150454,-4257024.089501786 L 15150060.942511184,-4268694.133784819 L 15141929.38766721,-4283314.411005613 L 15140146.494702663,-4299324.72164608 L 15146962.587123934,-4316711.135432787 L 15156844.418321656,-4331396.288660879 L 15168595.971686738,-4340280.311795642 L 15179412.663968137,-4350514.95195958 L 15201328.688718062,-4379612.09409141 L 15217167.893785076,-4403211.364566075 L 15222864.223448455,-4432282.500598705 L 15219515.955804376,-4466795.849811076 L 15233343.951631228,-4492505.335068012 L 15246574.050473025,-4496925.259292971 L 15272881.96309322,-4508675.138974441 L 15286688.140299873,-4512128.60619787 L 15288753.673451541,-4506989.866258857 L 15288340.56682121,-4500258.493116014 L 15267696.478573088,-4478648.637890571 L 15255868.782676304,-4469778.31207702 L 15248791.757368611,-4467027.841653003 L 15242312.51772648,-4463104.791167758 L 15239627.380289054,-4455522.021630961 L 15250150.634392723,-4442837.163949376 L 15252835.771830147,-4433479.690261149 L 15252183.439614102,-4424497.515333394 L 15252629.162855236,-4416439.768967399 L 15264543.79927433,-4407661.950788368 L 15278187.004746463,-4404758.042078258 L 15283905.153030042,-4404839.459687027 L 15288905.847195456,-4407146.226178223 L 15304494.917366657,-4428623.927105994 L 15307995.470074141,-4432357.303582636 L 15352425.416559042,-4448115.023396662 L 15374287.00607797,-4460185.526897835 L 15386364.725551078,-4463302.613478936 L 15397703.283605317,-4469593.927897369 L 15423130.659053337,-4493907.772571754 L 15432534.039079625,-4505126.869378444 L 15441056.993253231,-4517544.264238078 L 15447873.085674502,-4531987.979716514 L 15453243.471868845,-4547648.173170741 L 15460614.046673758,-4557403.870687755 L 15500923.836165417,-4580708.874329123 L 15513914.709421502,-4593423.901444822 L 15518045.775724843,-4599586.928158909 L 15523035.560580157,-4617461.050071612 L 15526481.678056644,-4636059.828463119 L 15531384.522389654,-4650662.994703176 L 15537994.117155505,-4664375.93530035 L 15546854.035427742,-4678364.885122922 L 15556800.988527574,-4691369.006176335 L 15562682.219865164,-4704724.806821126 L 15571215.972029379,-4736713.34621597 L 15574966.548313184,-4754464.486914486 L 15577890.80001683,-4760873.115692285 L 15582184.83805469,-4766266.9913156815 L 15585935.4143385,-4773090.715575717 L 15588794.43282054,-4780735.121902812 L 15590088.187942542,-4788314.983952304 L 15591936.202809203,-4811512.314780574 L 15590816.551370803,-4829573.205124405 L 15584141.723383348,-4844904.903865949 L 15578630.072755188,-4849260.361363885 L 15572618.37497439,-4849515.403783361 L 15563617.192268336,-4848190.792220449 L 15555953.067966202,-4854447.074633904 L 15557507.64465513,-4859976.764027379 L 15565323.942701178,-4861005.045471863 L 15570661.600965228,-4863863.443010386 L 15574488.208461244,-4869100.381157285 L 15581663.083601344,-4885865.376246116 L 15585968.0309493,-4903848.364652775 L 15586337.611658737,-4911807.741867045 L 15580728.222517662,-4926332.165803836 L 15576260.192115692,-4943831.310562602 L 15576140.63498258,-4953290.432432358 L 15581021.660695393,-4964192.123425703 L 15587990.038180072,-4973061.258995089 L 15594230.052236488,-4975148.877905599 L 15600991.820746254,-4975765.890008059 L 15607133.98497026,-4979196.241472061 L 15612819.516643036,-4984178.863701891 L 15616037.317843908,-4989666.999663507 L 15621048.921319421,-5004623.998843738 L 15622973.078717783,-5013177.138454106 L 15619820.399419028,-5036101.796850537 L 15623070.92855019,-5042377.73131273 L 15627691.132696075,-5046294.208451318 L 15633855.00422079,-5043317.008629349 L 15640171.04948942,-5042724.548998459 L 15647530.714984233,-5043634.856561 L 15654596.942301318,-5041207.461265657 L 15655934.000705235,-5035322.0078192465 L 15660358.616505796,-4996610.558316665 L 15662924.085490616,-4991391.534182668 L 15668066.155409342,-4987346.320544233 L 15673871.244215228,-4987935.413522634 L 15678882.847690742,-4993943.133231867 L 15682263.731945623,-5001954.525741342 L 15688927.650622983,-5003609.321243878 L 15709245.684082568,-4994992.729997572 L 15716442.266523372,-5001141.524464592 L 15721138.61320096,-5010642.172519894 L 15725226.042263908,-5027499.644229118 L 15723236.651643941,-5042717.298842911 L 15718355.625931127,-5048339.871442652 L 15713311.405844813,-5047320.612686401 L 15708854.28475294,-5043143.587621743 L 15703886.20719833,-5040860.697911405 L 15673849.536914526,-5032838.899779178 L 15673990.80134834,-5049829.055713981 L 15680415.605759474,-5075297.800236704 L 15683970.482378468,-5083369.503184324 L 15689025.500455389,-5087200.975786799 L 15701635.883691942,-5082767.300652317 L 15707832.371827459,-5079815.076928593 L 15721573.427132,-5067464.70546402 z" /><path fill-rule="evenodd" fill="currentColor"    d="M 13836251.725564841,-2816402.1732826447 L 13829696.454710498,-2797100.009501267 L 13824282.76523424,-2794289.9843057785 L 13818727.588685183,-2795823.10636531 L 13813052.966322506,-2806607.762952616 L 13817020.838252341,-2810739.765278379 L 13822565.1054913,-2808566.0733474838 L 13827054.843193974,-2809396.18347246 L 13837230.112569423,-2825114.849860427 L 13839686.933731232,-2822574.615434394 L 13836251.725564841,-2816402.1732826447 z" /><path fill-rule="evenodd" fill="currentColor"    d="M 13791223.882094888,-2787580.146048783 L 13784201.180698706,-2785862.844418074 L 13775765.2783669,-2787967.764990789 L 13768068.53745396,-2788546.1583376336 L 13767970.687621554,-2792178.219249495 L 13776047.918554023,-2795930.5087986034 L 13776200.092297938,-2801163.829361783 L 13778178.573607806,-2803992.953459036 L 13796365.840694124,-2797583.3051278032 L 13795615.769965155,-2792894.0809548944 L 13791223.882094888,-2787580.146048783 z" /><path fill-rule="evenodd" fill="currentColor"    d="M 13964377.899119612,-2844230.928137239 L 13954941.79116303,-2841035.3080467093 L 13944875.169610593,-2842926.3224052642 L 13946505.888831224,-2860021.5535841477 L 13949995.420909122,-2857625.291567398 L 13952180.511193901,-2851773.9459554506 L 13959670.643131927,-2848361.07774694 L 13964377.899119612,-2844230.928137239 z" /><path fill-rule="evenodd" fill="currentColor"    d="M 14277703.081241919,-3080158.1451746235 L 14266984.238792924,-3074448.5927399597 L 14263027.164853694,-3067641.316071281 L 14253112.828364665,-3065320.355343157 L 14243470.222752659,-3055730.4189389264 L 14234099.348017683,-3053988.004524413 L 14234338.462283907,-3046292.533674005 L 14238295.536223136,-3039777.7153295297 L 14232055.522166718,-3038637.574797273 L 14225532.979242668,-3030707.8996281596 L 14225022.022779927,-3024951.2605470475 L 14227348.377498524,-3020305.2552035963 L 14227033.120700598,-3017985.8506664135 L 14218771.210732901,-3011120.6020319075 L 14210280.873170102,-3010818.026175754 L 14209900.38315057,-3018228.0554620107 L 14210476.572834915,-3023769.9857997927 L 14218510.277846485,-3037267.1659734757 L 14218716.775501905,-3052925.800212913 L 14226174.290829128,-3054740.8199049872 L 14228902.954187453,-3056920.4156367113 L 14240654.618872026,-3068072.773656561 L 14242828.79984671,-3072831.4954147195 L 14236740.95953421,-3077452.0828995747 L 14237186.682775343,-3082919.5370819177 L 14238567.378419654,-3085243.493325887 L 14248264.307943163,-3083479.155540868 L 14252199.674581686,-3079422.2963483976 L 14254102.013359854,-3078978.414080498 L 14259765.837731926,-3082025.339444417 L 14262429.267868644,-3087464.27161017 L 14272995.936573721,-3098116.8048196747 L 14277268.26731088,-3108722.575064031 L 14285812.928785186,-3100016.7994903685 L 14283508.281367296,-3088620.4051295863 L 14277703.081241919,-3080158.1451746235 z" /><path fill-rule="evenodd" fill="currentColor"    d="M 14360007.814676868,-3213818.568168822 L 14355344.084610088,-3211516.1020908034 L 14349082.363252962,-3214696.602273733 L 14347169.003845207,-3229122.5549208135 L 14349930.283814333,-3236119.747106582 L 14354833.128147345,-3237663.5768984063 L 14359072.842273697,-3225182.7820855225 L 14362040.619898245,-3220033.9258527723 L 14360007.814676868,-3213818.568168822 z" /><path fill-rule="evenodd" fill="currentColor"    d="M 14410590.723376388,-3275347.532020801 L 14401002.441675892,-3265087.690469091 L 14390816.262990342,-3274323.7233468024 L 14378542.843852423,-3280498.9550066995 L 14384380.660588605,-3282165.009784958 L 14387805.070764385,-3284640.0180584476 L 14388142.034863016,-3288566.1293622623 L 14396110.506652981,-3294389.641618042 L 14411927.893099796,-3298899.555282916 L 14416950.294565916,-3299183.776800585 L 14422614.118937988,-3303429.4676504154 L 14424462.133804647,-3307255.9820433436 L 14426788.599842736,-3309104.8092951267 L 14436974.778528284,-3314374.2294320962 L 14439768.563788723,-3308313.32800055 L 14439301.133246882,-3303565.4228596617 L 14431647.918254843,-3300926.3154615765 L 14424179.493617523,-3294587.3653619867 L 14417287.258664548,-3286689.2814560113 L 14411058.15391823,-3283349.9385988642 L 14409090.581918458,-3281134.490852536 L 14410590.723376388,-3275347.532020801 z" /><path fill-rule="evenodd" fill="currentColor"    d="M 14396284.3876976,-3262209.7670413777 L 14397012.75112586,-3259264.5740948785 L 14386087.411021447,-3261729.0789216296 L 14381641.087920178,-3273262.8590656146 L 14388870.398291275,-3271203.259639454 L 14391088.105186861,-3267232.837023811 L 14396284.3876976,-3262209.7670413777 z" /><path fill-rule="evenodd" fill="currentColor"    d="M 15567041.49112463,-3902746.692887089 L 15565117.333726266,-3901339.4409685186 L 15559757.968161518,-3905691.3669927735 L 15559007.786113061,-3909538.706449885 L 15559953.55650684,-3911926.807060999 L 15563454.109214326,-3912472.066391012 L 15570661.600965228,-3907721.9080701317 L 15567041.49112463,-3902746.692887089 z" /></g></g>
</svg>
