<?xml version="1.0" encoding="UTF-8"?>
<svg xmlns="http://www.w3.org/2000/svg" viewBox="3773730.7378919735 -612336.8668997419 888773.0333816442 1135275.4563904267">
  <g id="map"><g><path fill-rule="evenodd" fill="currentColor"    d="M 4563479.518238462,240328.61536391976 L 4559348.451935123,241318.616954527 L 4561479.218308397,234911.16829025085 L 4573676.494914616,226752.45406082008 L 4578644.572469229,228590.84153847265 L 4579601.252173105,230461.88590132736 L 4579329.4099765895,232158.9537571338 L 4577253.078834312,233834.20475554222 L 4563479.518238462,240328.61536391976 z" /><path fill-rule="evenodd" fill="currentColor"    d="M 3774089.5206108005,111553.49399236329 L 3773730.7378919735,92581.10355505891 L 3776448.491940201,44289.0379646727 L 3776122.3258321765,1891.5408152866441 L 3778535.7323925756,-19345.01945032043 L 3789004.5512652467,-32787.18534396664 L 3793831.253066552,-42576.79317280669 L 3797299.189163235,-56231.20885100291 L 3802778.2231805893,-67369.13681652756 L 3815203.8160624257,-76414.42076732777 L 3817432.3209486157,-81404.58763110716 L 3830597.1865688097,-96549.41167402905 L 3838489.5158270714,-116016.77998097811 L 3844446.8896963643,-122632.87604247019 L 3851871.788412785,-128743.61018977105 L 3857122.506154522,-131956.7389895202 L 3865765.017461239,-135180.70168942938 L 3872537.6952811023,-137012.88094323844 L 3873766.1058620056,-138551.4525940253 L 3874342.295546352,-141704.8928299759 L 3872091.9720399654,-153764.02966339665 L 3874983.607132812,-157722.28343242503 L 3879593.013288089,-165774.941670698 L 3884865.4383305307,-173289.4350842622 L 3889637.816220329,-178052.8212764806 L 3892312.0443476564,-182962.9748007061 L 3893562.273548755,-191456.9705918377 L 3893757.97321357,-197471.46302032005 L 3893681.8306818674,-207303.807907104 L 3892181.6892239377,-229635.1351624303 L 3886604.8053741753,-248324.76956520716 L 3883158.6878976882,-269241.550249097 L 3885691.6515911985,-276123.7063647526 L 3881288.8544108337,-288381.95857393375 L 3879114.67343615,-289056.68879749184 L 3875527.1802063556,-291739.1495706759 L 3870961.4112914694,-303285.84792238736 L 3867515.182495491,-313837.69178927224 L 3865373.61813161,-316493.4516057271 L 3850447.678167066,-325723.83891092683 L 3843033.6887607435,-347485.35346622515 L 3834717.3435620503,-352335.70931705745 L 3830194.989248574,-373971.51027039555 L 3829325.2500670063,-380124.29874198494 L 3834043.304045297,-401711.23526289884 L 3833586.671494063,-406656.609519741 L 3828596.8866387457,-411220.9460906078 L 3814595.0097672776,-415867.15207729384 L 3803234.7444123323,-424773.5375604417 L 3804702.380578951,-427884.1723766945 L 3805539.3918302255,-431109.27197256085 L 3799560.3106602277,-433272.1563696932 L 3782199.256834581,-470217.5559577723 L 3804550.0955155464,-492419.52145386813 L 3827183.685703125,-514927.3102381689 L 3856089.795238432,-543393.0110938955 L 3882636.82212485,-569550.1573328242 L 3905585.6691103554,-592162.9947965035 L 3926055.7649943666,-612336.8668997419 L 3925555.7178417235,-608492.7214381888 L 3925642.6583640333,-603365.7848760559 L 3928197.440677739,-600237.3024035955 L 3932393.628883192,-598091.7603888288 L 3938253.152920077,-600357.3894578203 L 3943384.2022092114,-603502.2029254277 L 3948352.2797638243,-604151.9815281881 L 3979117.4247953794,-595755.0982573659 L 3984281.0906953164,-588440.0564049607 L 3983955.0359067833,-580563.6375431234 L 3985270.387009997,-574843.9255249823 L 3982933.1229813006,-569102.6572095614 L 3980356.6333668907,-551772.761482161 L 3981128.5227160514,-535854.2703509807 L 3990314.4957768205,-524083.9067323482 L 3998576.5170640065,-514834.61384267 L 4005131.7879183507,-501878.838333186 L 4009947.691729049,-497893.19043913606 L 4016622.519716504,-495837.8002835187 L 4037766.6551172705,-495281.7550727801 L 4069064.3525927803,-494447.5826450592 L 4099188.074718385,-493651.6040022759 L 4101927.5360673163,-493340.87406639126 L 4108308.81455755,-491569.07698712964 L 4136030.039432854,-474049.18265919905 L 4161403.090969365,-458009.7361322533 L 4182884.1904687616,-444070.81435103784 L 4203745.797001894,-430537.2344355622 L 4224009.395230483,-417381.5392229329 L 4239728.931844893,-406460.5121456947 L 4255220.1521836845,-403132.71552009904 L 4280408.413365479,-401553.29424341803 L 4297823.791102633,-401025.04132030596 L 4313934.61572718,-396439.3052995616 L 4337872.647707875,-392158.80796383694 L 4355744.657996262,-389958.7909833153 L 4366561.350277662,-387491.94069781265 L 4396500.28204855,-384965.26080176205 L 4401446.540982969,-386424.5404227295 L 4414654.932524062,-398541.5308698074 L 4429439.496735299,-418220.34689419414 L 4435212.080249875,-429066.3763298277 L 4454355.9157205755,-439831.85345932766 L 4487958.37193347,-454870.8549609317 L 4511635.471027746,-465465.0380971879 L 4537965.090948642,-476114.97863839596 L 4549923.253288638,-466882.01540773676 L 4566414.679252207,-452053.6005035952 L 4573806.961357825,-444741.02279501443 L 4579731.718616316,-441509.98465317156 L 4588689.375401469,-439341.5534334964 L 4599603.917515277,-439286.98902564455 L 4605561.29138457,-439635.6885041409 L 4617747.770000182,-441542.67944615695 L 4646218.95428496,-443302.63606790546 L 4662503.771273618,-443155.45098541724 L 4648806.353209469,-423504.2544251324 L 4632391.069777601,-399952.14756244014 L 4602147.790518885,-356592.7872003553 L 4579122.912321167,-333784.55811870744 L 4561729.241884719,-316547.9538800829 L 4560142.048584988,-313451.28037981637 L 4560207.281806593,-294247.5956870164 L 4560392.072161309,-247296.62644587623 L 4560761.764190234,-153432.42408697188 L 4561120.43558957,-59601.322770437764 L 4561490.016299004,34211.31523515856 L 4561674.917973211,81121.92450305508 L 4561729.241884719,96886.52584757528 L 4576992.145947893,116609.32082505045 L 4591907.28792183,135876.6055840646 L 4611627.313076877,161376.15284225674 L 4622193.981781957,175045.82073802094 L 4623944.258135699,179602.55224212605 L 4623400.685062155,188748.81204704422 L 4607170.191985005,207869.38770317638 L 4593874.859921602,216560.23394475228 L 4575992.051642607,220715.3363704203 L 4570632.574758365,219921.2662129658 L 4563599.075371573,217180.19644131817 L 4560837.795402446,221770.50039584143 L 4558772.262250777,228917.21744639904 L 4554815.299631039,227416.00460799944 L 4551825.703386295,225305.72854456957 L 4553619.394341446,238000.62493486426 L 4555456.611217499,244266.82206518907 L 4552771.473780074,252752.68804861576 L 4544074.63856185,260150.94684742612 L 4543302.86053218,266396.27787768067 L 4524485.079850012,282783.21434197546 L 4497807.475200895,284589.59991643956 L 4483783.891028723,292718.5636819714 L 4477543.876972306,299378.85290166957 L 4472793.206383212,313941.1214012639 L 4474456.542214645,336255.6936418115 L 4467042.441488831,353435.33435280796 L 4465629.240553211,362047.84990456334 L 4451855.568637867,373209.2244476548 L 4445746.021024661,383445.89162228344 L 4441234.576021282,393857.9810129716 L 4437299.320702248,398421.740328718 L 4432646.499945562,421766.53400350426 L 4426221.695534429,435941.7721711414 L 4424482.328490783,440638.2765573038 L 4422906.044501151,444888.21042063896 L 4417927.057636441,453214.2397184305 L 4414709.25643557,458936.18757845054 L 4412382.790397481,462696.4455127907 L 4396108.882718922,499043.6195532519 L 4383422.356950666,515467.18513745844 L 4373464.494540736,513580.43110130593 L 4366854.899774885,519938.99682359985 L 4366148.2436473295,522938.5894906848 L 4362626.094958629,521247.8978687653 L 4354309.749759938,515249.0680869917 L 4337220.426811316,502903.81138898106 L 4320131.103862696,490560.4345824736 L 4303041.892233567,478219.0027916783 L 4285952.569284947,465890.0730709604 L 4268863.357655818,453552.0555032014 L 4251774.034707197,441215.84362337796 L 4234684.711758577,428881.1678687188 L 4217595.500129447,416548.09349495533 L 4207572.404497912,409314.5588528329 L 4203136.990706746,405044.45062082645 L 4199658.256619454,396526.5253890425 L 4197973.213487318,394413.4108740616 L 4193418.2425630377,391734.10269667726 L 4188069.674988894,391145.8976886712 L 4186526.0076100635,389533.98315467883 L 4186580.331521571,385428.0794384807 L 4188439.367017818,379514.52416159766 L 4194722.795675645,368200.0814339489 L 4195407.633183004,361557.8133834307 L 4194168.3132920037,354001.4842337907 L 4192200.741292232,341916.71092696546 L 4190493.9908593893,339173.23237226304 L 4179177.2514253464,332837.4960104704 L 4155445.717100072,319579.27533822774 L 4131714.182774799,306311.512372143 L 4107982.759769017,293055.9945568558 L 4084251.2254437436,279790.82169704186 L 4060530.6004285687,266526.85819197906 L 4036788.2681126883,253274.85307828954 L 4013067.643097512,240024.052069931 L 3989347.018082337,226763.3702661714 L 3965615.4837570637,213503.6681826056 L 3941884.0607512817,200255.80313048212 L 3918163.4357361053,186997.8876903803 L 3894431.901410832,173740.77994787204 L 3870700.47840505,160495.33534680493 L 3846968.9440797768,147239.67050853188 L 3823237.5210739938,133995.44187563471 L 3799516.896058819,120740.99097804693 L 3790602.6538750753,115761.25957676044 L 3782568.948863506,111553.49399236329 L 3774089.5206108005,111553.49399236329 z" /></g></g>
</svg>
