<?xml version="1.0" encoding="UTF-8"?>
<svg xmlns="http://www.w3.org/2000/svg" viewBox="7706548.382715596 -5348632.1540095685 1226416.7375041768 597191.3795390669">
  <g id="map"><path fill-rule="evenodd" fill="currentColor"    d="M 7899009.318265034,-4900714.738150897 L 7902640.226096235,-4903050.606624141 L 7914206.989106603,-4905436.779271781 L 7937601.559333245,-4907723.85685427 L 7945559.121813111,-4906013.824567848 L 7954603.830440063,-4901170.463297119 L 7961615.62252615,-4896357.900859045 L 7968301.359823704,-4896543.023339599 L 7973802.101141764,-4897546.680793623 L 7976139.365170458,-4896215.635861067 L 7977911.348824906,-4891931.882612124 L 7980770.36730695,-4888105.253484093 L 7989695.51880079,-4893305.04631098 L 7997794.457033965,-4900052.552314072 L 8004175.735524199,-4901020.983130913 L 8010067.876171886,-4903591.919768055 L 8011785.535914825,-4908101.536852416 L 8016405.740060709,-4915579.455895395 L 8029614.020282314,-4929888.007385663 L 8036473.6386244865,-4932202.130015944 L 8040919.96172575,-4932195.107833842 L 8041126.459381172,-4929888.007385663 L 8043278.933055152,-4927781.488384894 L 8054823.988764813,-4924483.244247113 L 8058335.339462904,-4928245.6325861225 L 8060194.263639662,-4933466.643465658 L 8056161.158488222,-4941757.531059381 L 8056085.01595652,-4945233.117359574 L 8057596.066724546,-4948409.529347361 L 8059759.449708624,-4950305.757392096 L 8078174.921751064,-4942436.733468603 L 8082251.664142895,-4942594.019900024 L 8090654.949863898,-4947014.301439279 L 8098362.488767442,-4954793.888330295 L 8101145.476037274,-4960910.37905648 L 8138889.796544114,-4980832.9171664305 L 8141564.024671441,-4984451.836723494 L 8141031.360907995,-4987080.62241547 L 8125213.974461179,-4991729.324361111 L 8118082.62524198,-4989128.126771347 L 8111473.030476129,-4989113.706223713 L 8107505.047226803,-4992031.211239007 L 8088285.0692243995,-4993174.079794469 L 8084067.062398752,-4995215.649517396 L 8071326.212718989,-5009641.170580327 L 8062575.053589258,-5015136.44874804 L 8055530.6448923685,-5018753.676077129 L 8047833.903979431,-5018234.738434347 L 8038723.9621308725,-5014444.943114447 L 8035854.03433873,-5016166.790467663 L 8035114.761600372,-5022206.439010064 L 8035147.378211176,-5029829.776470635 L 8033288.45403442,-5038000.669627478 L 8027852.945937964,-5039900.0625749435 L 8020841.042532387,-5036672.114600501 L 8010383.1329698125,-5039972.395364915 L 8001490.598086774,-5041149.765136572 L 7999196.859978978,-5058378.756856561 L 7995609.366749184,-5065740.981529087 L 7991902.316386277,-5073471.295127932 L 7988032.2942888485,-5075682.02790686 L 7981683.632409417,-5079539.5544807995 L 7981303.142389886,-5088689.034444355 L 7979955.063356381,-5091280.97635685 L 7977704.739849994,-5092500.911672214 L 7974650.021703136,-5091455.264602442 L 7970725.5643747095,-5086859.83991326 L 7972660.631083169,-5076784.020807479 L 7971171.287615846,-5066689.799991268 L 7968866.640197954,-5061621.221703464 L 7964420.317096686,-5057886.738442471 L 7959343.591719061,-5057799.896829805 L 7950537.9973583305,-5062902.647433499 L 7949146.5037234165,-5032427.549056133 L 7947439.753290573,-5030558.584062311 L 7936949.227117196,-5034859.989501512 L 7928556.850706291,-5033004.893532983 L 7916011.589371852,-5034881.7223495385 L 7906575.592734761,-5039900.0625749435 L 7899520.274727774,-5041294.154044375 L 7888149.100062732,-5045571.468481535 L 7879463.174154604,-5051137.796442213 L 7874114.6065804595,-5071601.504708313 L 7869048.67919344,-5078915.907702881 L 7864265.391993545,-5080482.453176075 L 7844838.916335718,-5073398.711168246 L 7837761.891028027,-5078879.669407345 L 7824651.34931934,-5085901.899895546 L 7814726.103520212,-5088522.080939633 L 7812062.673383492,-5092319.3169600675 L 7812508.396624628,-5096997.255116467 L 7843012.4974502735,-5119881.685135682 L 7855025.095021266,-5135669.348063762 L 7862591.258171504,-5142346.359455792 L 7873375.3338421015,-5146793.16405277 L 7881789.528873201,-5149400.719758852 L 7886083.678230552,-5163920.226706642 L 7887725.19544179,-5165595.900370313 L 7893704.276611789,-5166671.561849771 L 7907271.339552219,-5172638.090794508 L 7929122.13108054,-5185411.042585814 L 7929546.035701482,-5188924.106380824 L 7927360.945416698,-5191954.243693026 L 7918153.153735733,-5198502.107806752 L 7907695.24417316,-5203717.172282013 L 7901346.582293728,-5200991.797412571 L 7897759.089063932,-5198303.899264413 L 7891758.30059323,-5205076.466530813 L 7891758.30059323,-5212045.139758681 L 7898378.804669179,-5224009.780995337 L 7903901.253287942,-5229997.706963203 L 7906216.8100159345,-5241527.649715798 L 7914098.341283587,-5249246.707269311 L 7922316.836649873,-5261487.827568639 L 7932252.991759101,-5271502.221826122 L 7950668.46380154,-5279023.703316996 L 7960930.7850187905,-5276565.205847653 L 7970562.481320697,-5278342.39953447 L 7985477.623294633,-5284446.47199755 L 7988347.551086775,-5284839.244477977 L 7994609.272443896,-5284943.055716538 L 8033016.611837902,-5275617.526904802 L 8045703.137606156,-5275158.5814004205 L 8075468.077012936,-5263047.610665296 L 8089154.697086477,-5260423.290052599 L 8098819.121318677,-5257016.580078267 L 8103211.009188943,-5251808.931753561 L 8110190.184664229,-5245408.605501781 L 8147564.813142143,-5240229.418143168 L 8157816.225049295,-5236793.154011102 L 8161501.568111498,-5231191.310905603 L 8172144.268028788,-5224068.590449609 L 8181199.88596584,-5222448.900655338 L 8173285.738087382,-5250302.57269094 L 8176438.306066647,-5266878.216095263 L 8188244.29466273,-5312395.457516811 L 8194451.692108342,-5319265.559656589 L 8206312.004615931,-5325359.336058079 L 8224955.792933989,-5332171.866012675 L 8231989.40364027,-5341703.146129275 L 8247241.398393348,-5340726.40265484 L 8253883.609770002,-5341561.445557471 L 8258438.58069428,-5343268.867123157 L 8260917.220476283,-5348632.1540095685 L 8278147.80785872,-5339324.908035812 L 8306912.65296021,-5320530.1282982 L 8328654.685346026,-5308650.297030706 L 8354266.851148763,-5297431.094228025 L 8389728.231538415,-5287188.786108095 L 8419721.487220807,-5283794.518113358 L 8424852.536509942,-5286202.9968230985 L 8436854.224770837,-5301765.633689369 L 8442507.139832811,-5302463.542946242 L 8452736.844439259,-5301097.574950828 L 8484567.205678215,-5300369.971201371 L 8516962.95861091,-5299635.12750664 L 8532247.569974791,-5301142.120852964 L 8565371.686335744,-5307632.427704934 L 8570274.530668754,-5307951.926331973 L 8577982.069572298,-5307506.152684081 L 8597821.763179947,-5298685.115088202 L 8612628.14601138,-5297438.3889797265 L 8622727.272855127,-5297482.917483064 L 8628619.413502814,-5296770.638787186 L 8640892.832640737,-5297104.507934624 L 8660841.1740714,-5296036.0773652 L 8685496.771489749,-5290310.022207311 L 8715207.275665527,-5291348.032628047 L 8724773.85006532,-5292430.814377223 L 8741276.074019497,-5291392.5322052855 L 8754419.121019498,-5285936.150215199 L 8771030.104116177,-5280186.523370306 L 8781455.39706795,-5277772.15654046 L 8788445.48185333,-5276528.20666827 L 8800903.691345971,-5276091.354425503 L 8808339.499372488,-5277898.031670211 L 8812590.122808939,-5275365.839444894 L 8816840.634925898,-5261273.457089526 L 8827135.572753951,-5252015.67605977 L 8835180.075756127,-5243305.643678222 L 8841909.33897458,-5233682.21882439 L 8848801.573927555,-5229769.264437887 L 8860857.474780466,-5229629.395155484 L 8883675.855322761,-5226889.159446711 L 8896775.487721352,-5223067.371687477 L 8913495.118641047,-5206472.831581626 L 8928866.781846726,-5189489.009563564 L 8931073.579432212,-5180447.832115997 L 8932965.120219773,-5169943.506466407 L 8931736.70963887,-5167491.316340079 L 8929627.76188579,-5165837.340354514 L 8895503.551219547,-5163225.137894994 L 8887796.012316003,-5160343.135489829 L 8879523.08171872,-5145843.724493452 L 8850334.331996288,-5134203.113398567 L 8833690.843608294,-5128238.75884912 L 8826918.165788433,-5128501.05197291 L 8810763.815242983,-5119000.533245087 L 8765583.686709626,-5095304.538536576 L 8743385.021772576,-5080366.294004754 L 8732220.456082447,-5074123.536246249 L 8723262.687977802,-5067312.656508693 L 8721751.637209773,-5060426.8304294795 L 8721468.99702265,-5053943.789711883 L 8696661.337179879,-5023504.218220649 L 8678071.761453837,-5019820.41910315 L 8662352.224839428,-5020548.3277619295 L 8651676.908311335,-5015928.9301525885 L 8636359.569017163,-5011275.7414312735 L 8603213.745355502,-5014459.253698963 L 8591864.389310654,-5013926.2355322065 L 8570111.447614742,-5018119.471918718 L 8561327.671874207,-5015907.387260239 L 8552011.121050736,-5009734.807377525 L 8539139.804927764,-4985550.57152243 L 8533878.28919542,-4979892.600000769 L 8531508.408555923,-4974395.555866117 L 8529540.725236662,-4962665.798600904 L 8524616.173602946,-4950277.177155351 L 8518267.400404027,-4940513.327190751 L 8513734.248099942,-4931480.773310339 L 8504406.899285866,-4922748.962547569 L 8495742.680678444,-4917262.517914888 L 8489035.236080185,-4928738.316227288 L 8483219.2379642,-4925468.259393715 L 8477718.49664614,-4920800.909347737 L 8467217.061162665,-4922420.703922111 L 8460759.640140729,-4920066.068777838 L 8446029.399841001,-4910104.153787692 L 8424341.580047201,-4910481.924955984 L 8421982.608717801,-4913903.690463057 L 8417688.57067994,-4941299.92333261 L 8413916.28709543,-4954299.895371256 L 8410807.133717574,-4957214.212560109 L 8406937.111620147,-4957558.010452001 L 8375791.587888549,-4935981.669740799 L 8361354.785766552,-4932152.243372703 L 8349461.856648162,-4931480.773310339 L 8334003.25292017,-4937918.533866228 L 8330611.45935519,-4936324.724319993 L 8327937.231227865,-4932837.950877197 L 8326839.28709017,-4928409.857724242 L 8331350.732093548,-4916199.889974677 L 8330089.704901843,-4913796.801630481 L 8323110.418107068,-4913996.416004138 L 8313326.548061248,-4911180.431022747 L 8305890.740034728,-4905572.173974711 L 8283496.375432865,-4885900.90509108 L 8264656.887449994,-4879326.455140038 L 8247121.841260237,-4876747.562217047 L 8239925.258819434,-4874574.247743148 L 8236707.4576185625,-4872209.613267163 L 8230826.226280972,-4862863.338803834 L 8224792.709879977,-4848219.223602768 L 8221640.141900712,-4841075.057301036 L 8219313.787182114,-4836942.400911705 L 8219802.925024658,-4831538.737622909 L 8224564.50492385,-4824547.900378095 L 8228140.977524057,-4808922.754375766 L 8227303.966272783,-4804881.084961134 L 8223477.358776763,-4798352.825581854 L 8217933.091537803,-4791955.605875803 L 8205996.747818005,-4788103.746135058 L 8196636.782393125,-4786174.838667915 L 8190396.768336709,-4787434.879742204 L 8178688.629573035,-4787864.396712199 L 8169448.221281266,-4785288.002995328 L 8163740.982307787,-4780911.047982746 L 8152478.566785249,-4775467.123585309 L 8138487.487904388,-4773646.034032942 L 8120691.620147702,-4772950.0551244095 L 8112125.251372688,-4773428.049525644 L 8086241.243373435,-4777112.536350393 L 8077718.400519322,-4775846.732775715 L 8069575.936365247,-4772992.238656106 L 8054823.988764813,-4770040.106421988 L 8046975.07410796,-4760957.237978579 L 8042811.502513311,-4752612.276465285 L 8040604.593608334,-4751440.774470502 L 8031407.711237466,-4759089.744689788 L 8024374.211850676,-4766266.9913156815 L 8019764.805695397,-4772240.0162211405 L 8014003.2428104095,-4772064.385782007 L 7993402.569163699,-4761224.133163313 L 7990358.649007448,-4761568.260072858 L 7984466.619679249,-4765683.881972245 L 7985542.856516239,-4775924.067664898 L 7985194.983107509,-4782444.804372874 L 7978563.569721464,-4785914.344185792 L 7964496.45962839,-4786780.186485158 L 7959713.172428494,-4790490.775969227 L 7959995.812615618,-4796013.274856115 L 7961278.65842752,-4801320.226853928 L 7959680.555817692,-4805410.000407869 L 7956038.849995881,-4808513.572679926 L 7948689.982491672,-4807674.166845516 L 7940254.080159866,-4803463.608043022 L 7934057.59202435,-4798641.7895488655 L 7926252.091968908,-4796407.803945216 L 7916826.893322422,-4795505.922305379 L 7910923.954684126,-4792596.50017391 L 7904227.419395967,-4780840.590730762 L 7881343.805632066,-4778371.585020828 L 7873973.230827152,-4781044.6155406805 L 7867907.209134846,-4789406.281945293 L 7860025.789186681,-4802843.1008132845 L 7855590.375395516,-4804500.231149943 L 7848154.567368995,-4806157.6358326385 L 7836011.614674283,-4805367.680366206 L 7819618.038543122,-4799698.989484601 L 7815660.964603893,-4804373.283099234 L 7811410.452486934,-4805699.168074457 L 7807594.642981522,-4801856.02914582 L 7803681.094963194,-4802293.239642677 L 7787461.511196142,-4801207.4680176135 L 7766991.303992639,-4801736.189442923 L 7755294.074539063,-4804359.129718917 L 7747706.09276863,-4804196.9449626105 L 7732617.069750075,-4798176.593407179 L 7724626.890659406,-4798233.02777933 L 7714179.77908744,-4797126.625649841 L 7712244.71237898,-4817505.412205467 L 7706548.382715596,-4831284.155145138 L 7708287.749759241,-4840848.641420026 L 7712081.740644459,-4854000.460694379 L 7715245.2179338215,-4861373.829406166 L 7721724.346256463,-4858253.614656265 L 7729127.537672178,-4852838.37150118 L 7734062.9986159885,-4854284.073460721 L 7735356.642418498,-4858742.82160433 L 7733475.899621544,-4864580.023561468 L 7733225.876045223,-4868958.361992467 L 7735997.954004957,-4874716.347377419 L 7740074.585077298,-4880093.7781143645 L 7766230.323953577,-4888930.20831195 L 7788668.214476341,-4895375.78936728 L 7800321.918009016,-4891078.268430542 L 7822911.982275695,-4881188.185703469 L 7834543.978507666,-4876101.234643042 L 7842610.300130038,-4873097.230335136 L 7849709.144057924,-4858664.843103552 L 7854351.055504514,-4859331.382997505 L 7859069.109482804,-4862239.123783985 L 7861841.187442539,-4865793.330414522 L 7864091.510948925,-4878075.990145758 L 7874582.037122301,-4885019.274112846 L 7897715.674462524,-4893241.075726699 L 7899335.484373056,-4898059.1174944285 L 7899009.318265034,-4900714.738150897 z M 7926632.581988438,-4850344.264272691 L 7927687.1115247235,-4852406.051518858 L 7923643.097063186,-4863012.243926049 L 7929143.838381244,-4872941.048175581 L 7918185.770346535,-4874616.862875047 L 7912630.7051169695,-4877557.4586944785 L 7906368.9837598475,-4887642.994258721 L 7904292.652617573,-4888098.1169928685 L 7901042.234805899,-4885325.033184894 L 7899302.867762255,-4878736.706051041 L 7900835.625830987,-4871591.934523742 L 7905292.74692286,-4866779.632972003 L 7908249.726556801,-4865204.385818491 L 7908673.631177742,-4864856.673529336 L 7908543.164734531,-4862501.472348092 L 7904988.39943503,-4850712.652765877 L 7910837.014161818,-4849232.072078647 L 7921077.516758872,-4849019.542329047 L 7926632.581988438,-4850344.264272691 z M 7990478.317460048,-4858714.505318176 L 7991619.676199152,-4865261.055503288 L 7988880.214850222,-4864963.180010984 L 7985673.211639958,-4863175.388394894 L 7979520.249425342,-4861387.918705624 L 7978150.463091129,-4858111.895802505 L 7982259.710774274,-4853950.967177097 L 7987499.630525404,-4852455.682464914 L 7990478.317460048,-4858714.505318176 z M 7870472.7894391585,-4840586.718586682 L 7870092.299419627,-4843566.841796452 L 7866298.30853441,-4844961.602926187 L 7855492.525563107,-4846576.139093047 L 7847774.077349465,-4848870.8467401145 L 7846110.8528375225,-4848913.351691332 L 7846828.306955687,-4846059.105153664 L 7850100.432068063,-4841004.319904368 L 7854655.402992341,-4835605.40812565 L 7860504.01771913,-4835004.196537953 L 7870472.7894391585,-4840586.718586682 z" /></g>
</svg>
