<?xml version="1.0" encoding="UTF-8"?>
<svg xmlns="http://www.w3.org/2000/svg" viewBox="11390179.907746766 -1655234.703517888 588406.1079046186 489830.7776778694">
  <g id="map"><g><path fill-rule="evenodd" fill="currentColor"    d="M 11470929.953173298,-1264449.129304839 L 11468951.471863428,-1263362.702941278 L 11467081.638376575,-1263395.9615124273 L 11465168.27896882,-1265058.819808656 L 11465353.180643026,-1271605.5113517295 L 11466744.674277944,-1275602.9056674144 L 11470005.890080223,-1276356.9078843647 L 11470929.953173298,-1264449.129304839 z" /><path fill-rule="evenodd" fill="currentColor"    d="M 11501281.880255029,-1200199.6358877863 L 11497216.158492787,-1195801.985837185 L 11490726.120860048,-1204852.3468346633 L 11490780.444771554,-1207391.980778216 L 11501281.880255029,-1200199.6358877863 z" /><path fill-rule="evenodd" fill="currentColor"    d="M 11969008.643260986,-1655234.703517888 L 11970769.717605336,-1648890.9806498087 L 11966084.280237846,-1636904.664407875 L 11961105.404692626,-1626035.3797931427 L 11951756.237258352,-1616550.9123253017 L 11951299.71602661,-1609560.4857684395 L 11948081.80350625,-1588746.3118825592 L 11949321.12339725,-1582121.9930588715 L 11951495.304371934,-1576451.7618574323 L 11954539.224528184,-1573415.5337299178 L 11962649.072071455,-1553072.1313890389 L 11970030.444866978,-1534573.283153294 L 11977303.169839483,-1519396.542113659 L 11978586.015651384,-1509793.7493676944 L 11971911.18766393,-1485499.91976424 L 11964105.798927978,-1463202.2997722658 L 11964790.636435337,-1452090.7033885228 L 11968127.99476932,-1440972.3631409053 L 11971693.78069841,-1426152.6966513344 L 11973020.04111172,-1407225.2938832217 L 11971084.974403262,-1394888.4130002793 L 11967562.714395072,-1387225.0182922042 L 11960833.562496107,-1379379.9342636461 L 11954974.038459225,-1375369.193558626 L 11947929.629762335,-1382039.247119808 L 11942320.24062126,-1382328.5499542719 L 11934797.380752943,-1380325.7065008688 L 11928883.53280455,-1377254.9324920226 L 11916827.631951638,-1365731.1346466998 L 11903467.06666663,-1354528.539539688 L 11884986.250083093,-1351666.071709376 L 11877800.576952387,-1343352.364221605 L 11870103.83603945,-1342202.1185745925 L 11855482.243562736,-1341785.4098056073 L 11845937.487783138,-1339840.7676279654 L 11846372.301714176,-1335663.1034547165 L 11845589.61437441,-1315948.5914147834 L 11845785.314039223,-1311335.5500229436 L 11844306.879881999,-1310108.8469065465 L 11837697.28511615,-1309520.4647088174 L 11826489.193505118,-1312534.561847222 L 11811324.13927435,-1317414.297190291 L 11800540.063603753,-1318180.434601744 L 11794995.796364792,-1309592.6477910823 L 11791690.943322122,-1306234.7748543133 L 11787603.514259174,-1305718.6391430055 L 11783331.183522021,-1304198.0143628188 L 11781885.365975596,-1300368.9868146132 L 11781537.492566867,-1295575.1712742073 L 11783613.823709145,-1287387.3432636023 L 11784385.713058306,-1274366.448239998 L 11783842.13998476,-1265496.6552357625 L 11787799.213923989,-1259882.2048240013 L 11810943.64925482,-1241028.5038596883 L 11817781.448976796,-1236315.3399219108 L 11818564.247636054,-1233502.2552419272 L 11814509.323864417,-1223259.472376474 L 11818118.524394918,-1208858.3734870155 L 11810867.506723115,-1209124.0081000736 L 11798768.079949304,-1215305.4719999828 L 11792984.698444122,-1219085.6727818192 L 11785972.795038546,-1216063.654671277 L 11783537.681177441,-1216639.2455573268 L 11778797.919898445,-1223724.4187430178 L 11772601.431762928,-1230971.6568977747 L 11766220.153272694,-1231431.2669092088 L 11752729.232863966,-1228579.700164327 L 11738944.651638528,-1226597.682738587 L 11733715.752516985,-1226619.7926991752 L 11731574.076833613,-1225313.2890880564 L 11723572.988432847,-1214552.7468031752 L 11720192.104177965,-1216401.3228917029 L 11706298.986449001,-1220491.6947874823 L 11693634.16798145,-1222058.1922501614 L 11691025.173075728,-1219279.404013487 L 11692568.84045456,-1210496.297743716 L 11695351.82772439,-1201931.1853668327 L 11693710.310513152,-1198291.101270648 L 11686752.842338573,-1193788.5758810584 L 11677555.959967704,-1185669.9726430846 L 11671913.842896339,-1179355.6971918412 L 11668000.29487801,-1177807.6791529537 L 11653998.306687051,-1178084.0573871823 L 11640039.955736483,-1177260.363858589 L 11634452.273896113,-1171301.2497883174 L 11629212.354144985,-1166664.0138630162 L 11624689.999831507,-1165403.9258400185 L 11606437.499523588,-1180124.1836739292 L 11570226.048404971,-1185260.8082695603 L 11566290.793085938,-1191753.1961658953 L 11562812.058998648,-1193019.7865379744 L 11559474.589345176,-1184575.1035317113 L 11539591.481136117,-1176464.3150629362 L 11531264.226627326,-1181362.6069242824 L 11525154.79033361,-1187301.3554656475 L 11526067.944116587,-1194557.3823689946 L 11531818.709010968,-1200487.296132934 L 11541700.428889195,-1204741.7548959746 L 11546266.309123572,-1219650.3191040186 L 11538743.560574744,-1238763.2026398138 L 11532144.875118991,-1244329.8070417137 L 11525176.497634314,-1248744.9156942589 L 11517860.246740907,-1241632.2019172995 L 11511696.375216193,-1229471.1926544695 L 11505271.57080506,-1223215.1435166812 L 11496205.154877402,-1221820.1180362045 L 11482920.732124096,-1222323.9304070922 L 11477756.954904668,-1240474.6131772988 L 11476050.204471827,-1256052.9951205447 L 11477865.714047173,-1273839.69925988 L 11479876.811967844,-1284386.7627179015 L 11467081.638376575,-1298931.913912286 L 11466374.98224902,-1312789.899180008 L 11460189.4034236,-1319940.415829205 L 11458373.893848252,-1316326.068622348 L 11458547.886212362,-1312345.7317880276 L 11456786.70054852,-1315232.420492547 L 11436588.335541537,-1355929.363883797 L 11433207.451286653,-1374818.5204377447 L 11436675.276063846,-1389372.9538976534 L 11438708.192604713,-1394259.5243312598 L 11432881.28517863,-1401924.738621936 L 11424684.497113049,-1410638.9360817934 L 11410204.28038964,-1422052.0741122854 L 11409215.095394453,-1440124.9869525176 L 11405986.384883484,-1461450.4943799884 L 11401637.911614627,-1468642.5921101011 L 11394995.700237973,-1481787.1439954666 L 11391408.318327667,-1492681.377077236 L 11390179.907746766,-1521492.9907217324 L 11392027.922613423,-1523818.9665499378 L 11402290.243830675,-1524652.0515905402 L 11415465.907441476,-1526726.5729240566 L 11417542.238583753,-1531385.1182595335 L 11415226.793175252,-1535233.369158489 L 11423651.78619696,-1541762.0107589937 L 11435729.505670065,-1556083.7890732717 L 11445067.763794241,-1571057.2598986786 L 11451796.915693205,-1580513.8841856758 L 11455808.31354394,-1589906.644164647 L 11469364.578493763,-1603205.712687517 L 11488106.216644228,-1612404.6848615212 L 11500803.651722582,-1614553.4375085004 L 11514044.548554987,-1617689.966476745 L 11526731.074323243,-1622151.4038514523 L 11532742.772104042,-1622572.3147316123 L 11548494.925329253,-1617179.385414156 L 11557006.85887327,-1615799.0401363748 L 11565942.91967721,-1615872.008581443 L 11575205.035269683,-1615310.9038011008 L 11583271.356892055,-1615866.3779381514 L 11602578.275416767,-1619631.6002769615 L 11623048.482620269,-1616651.9220484158 L 11641322.690228894,-1619003.0671680693 L 11663945.371106375,-1623346.7996320415 L 11675055.612884996,-1620608.0464909761 L 11685176.55834894,-1616253.516264553 L 11686589.759284561,-1607445.8070408567 L 11688927.023313256,-1603424.3969954317 L 11692296.998258041,-1600317.7368077838 L 11696797.645270813,-1600323.2492208749 L 11702570.22878539,-1606469.8598510546 L 11707375.22328599,-1612803.0310594873 L 11708951.507275622,-1613969.9554681724 L 11709201.530851943,-1610850.76843185 L 11711593.118792146,-1603990.871446016 L 11715898.066140106,-1597233.7251531102 L 11720257.33739957,-1592748.6888850494 L 11727530.062372075,-1586790.2331688765 L 11732259.025660463,-1586504.4267456282 L 11747717.629388453,-1592137.5703313297 L 11770894.681330087,-1583965.7073629342 L 11773601.637387706,-1579847.0522527106 L 11781102.567316338,-1571533.3258387796 L 11789234.122160316,-1565557.4270143646 L 11807301.832113516,-1565176.5448946774 L 11813748.343825355,-1579852.6750979219 L 11810628.392456893,-1588802.4446977437 L 11800322.656638233,-1604394.7160292054 L 11797517.850748206,-1613599.7419379351 L 11800800.88517068,-1615226.7908486004 L 11818259.788828734,-1616971.7313328446 L 11821097.211329564,-1618784.2506966891 L 11824956.435436385,-1628909.4581744699 L 11829696.19671538,-1627758.6383584172 L 11839382.216928795,-1626445.088641559 L 11849622.83084534,-1633372.7390685154 L 11855688.852537647,-1640639.2900482614 L 11858993.594260827,-1637325.8188598987 L 11862613.704101425,-1632227.3519747201 L 11866570.778040653,-1629274.3743161198 L 11873941.352845566,-1624895.954694969 L 11882040.29107874,-1618739.3154021946 L 11887084.399845565,-1612690.7765465234 L 11891139.323617201,-1610345.8375598898 L 11901521.201967563,-1612034.4938295889 L 11904293.279927298,-1611798.847373462 L 11910315.775698705,-1619115.3492434572 L 11914544.69183445,-1623099.8998537483 L 11918132.073744755,-1621960.4905192254 L 11923361.084185787,-1622067.153542091 L 11934188.685777286,-1631402.0060844196 L 11940385.1739128,-1639937.2014818261 L 11943766.058167685,-1642268.0632168662 L 11953473.897001294,-1638005.2930372674 L 11957354.828408819,-1638875.8240303094 L 11962964.328869384,-1650621.430504417 L 11969008.643260986,-1655234.703517888 z" /></g></g>
</svg>
