<?xml version="1.0" encoding="UTF-8"?>
<svg xmlns="http://www.w3.org/2000/svg" viewBox="-19429795.205040418 -437107.6748392736 38886094.022365846 1721061.798258021">
  <g id="map"><g><path fill-rule="evenodd" fill="currentColor"    d="M 19254891.022981446,-348514.1391481638 L 19247835.70497446,-344801.61202179175 L 19245704.938601185,-345400.4958908668 L 19254097.426331583,-350697.0499422661 L 19254064.809720777,-350043.844714406 L 19254891.022981446,-348514.1391481638 z" /><path fill-rule="evenodd" fill="currentColor"    d="M 19240932.560711384,-339821.02653206285 L 19232703.267354492,-335510.04482794966 L 19230496.358449515,-337796.1658052778 L 19233485.95469426,-337888.69062935875 L 19239008.403313022,-342036.43995164474 L 19245704.938601185,-342357.6130977955 L 19244943.95856212,-340076.8677298542 L 19240932.560711384,-339821.02653206285 z" /><path fill-rule="evenodd" fill="currentColor"    d="M 19260359.1476887,-205498.26265070392 L 19260902.720762245,-202920.56371008954 L 19254554.058882814,-209919.65603861876 L 19250781.7752983,-214433.70902729192 L 19251010.09157392,-216413.31894955962 L 19252716.84200676,-215167.94329336623 L 19254836.69906994,-212959.79131128115 L 19256217.283394754,-211208.6586220587 L 19260359.1476887,-205498.26265070392 z" /><path fill-rule="evenodd" fill="currentColor"    d="M 19261544.143668197,-191206.8345108098 L 19257521.83650736,-190728.28023618154 L 19260543.938043416,-192332.449196194 L 19261370.151304085,-194540.26176525754 L 19260902.720762245,-201446.7327001748 L 19262468.09544178,-200897.54322957623 L 19263022.57782542,-198042.47240628995 L 19263305.218012545,-193898.65282682164 L 19261544.143668197,-191206.8345108098 z" /><path fill-rule="evenodd" fill="currentColor"    d="M 19261924.633687727,-112787.5500479679 L 19267903.603538234,-108367.72466182882 L 19267120.916198466,-105339.74356445084 L 19265109.818277795,-101887.71593794068 L 19257282.61092165,-93005.05303917908 L 19254923.63959225,-93820.44443267611 L 19262565.94527419,-101833.38509864491 L 19265512.015598033,-107171.75998636935 L 19261120.127727766,-111221.82265735895 L 19259380.760684118,-110319.44211236469 L 19258685.013866663,-110319.44211236469 L 19257163.053788535,-114119.47580731762 L 19258685.013866663,-114119.47580731762 L 19261924.633687727,-112787.5500479679 z" /><path fill-rule="evenodd" fill="currentColor"    d="M 19426218.62112072,89254.20520136031 L 19422620.329900324,92287.52323035429 L 19421250.6548856,89525.96276585899 L 19422990.02192925,86123.04859513385 L 19419989.5163744,72033.03414433864 L 19414988.93352848,70108.75728185127 L 19412010.246593833,65879.71209119936 L 19413456.064140256,65879.71209119936 L 19418435.05100497,69750.06432473188 L 19422446.4488557,71489.53799187441 L 19424740.1869635,80784.93326235774 L 19426218.62112072,89254.20520136031 z" /><path fill-rule="evenodd" fill="currentColor"    d="M 19455668.303729575,134919.71030811052 L 19456298.817325428,140650.1049536151 L 19453744.14633121,139878.0289455046 L 19452907.13507994,137648.99661946227 L 19452080.92181927,131875.1243498729 L 19449384.87507175,126210.14055180183 L 19452428.795228,127732.40221931542 L 19454929.14231071,132157.82508337434 L 19455668.303729575,134919.71030811052 z" /><path fill-rule="evenodd" fill="currentColor"    d="M 19262544.23797348,-149414.4394409427 L 19259532.934428032,-149001.21976653702 L 19261457.091826398,-151268.4238956644 L 19274230.55811696,-153785.85462523505 L 19275339.411564752,-154476.34835383287 L 19277404.94471642,-153095.25134711008 L 19277361.418795522,-151784.9807528926 L 19276426.55771184,-151132.575954101 L 19270110.51244321,-151083.58163134326 L 19265142.434888598,-149887.4548097377 L 19262544.23797348,-149414.4394409427 z" /><path fill-rule="evenodd" fill="currentColor"    d="M 18874339.221132647,97266.94860693578 L 18873295.600906458,97517.11266440008 L 18871208.360454086,96364.60018745922 L 18871501.909951307,94918.62008392475 L 18872958.63680783,94277.12662762702 L 18874806.651674487,95353.4823859357 L 18874339.221132647,97266.94860693578 z" /><path fill-rule="evenodd" fill="currentColor"    d="M -19170836.12451224,502696.6717656771 L -19170140.377694782,503460.02018841926 L -19168536.820429906,503241.9358575107 L -19167096.457538534,503111.0632076076 L -19167971.54005566,503874.4155357312 L -19170912.155724455,504179.71381609293 L -19172368.882580973,502238.62149589794 L -19170575.191625822,500777.38916804193 L -19168977.200335484,500526.59493997553 L -19168814.11728147,500940.9753119573 L -19168906.51245883,501399.0182647605 L -19169645.6738777,501399.0182647605 L -19170857.831812944,501747.96788224916 L -19170836.12451224,502696.6717656771 z" /><path fill-rule="evenodd" fill="currentColor"    d="M -19045112.448207773,349210.92696536024 L -19045628.859325565,350081.97333652026 L -19046400.748674724,349374.2546317598 L -19045846.266291082,348056.9371123301 L -19045395.088394895,346935.5120279814 L -19044650.47232098,347534.2952763987 L -19045112.448207773,349210.92696536024 z" /><path fill-rule="evenodd" fill="currentColor"    d="M -19061592.964861244,497375.3183780135 L -19062685.565663382,497887.71915617463 L -19063968.300155792,497713.30824599805 L -19064772.806115754,496960.9560908301 L -19064794.513416458,495783.3121529457 L -19063729.18588957,494932.83303886355 L -19062283.257023655,495216.3251003226 L -19061446.24577238,496284.87229277834 L -19061592.964861244,497375.3183780135 z" /><path fill-rule="evenodd" fill="currentColor"    d="M -19426691.50631761,521007.98502310546 L -19425376.1552144,522491.36856420874 L -19425365.2459043,523200.4003342636 L -19426001.214155205,523080.32912575617 L -19427909.11890791,522633.1073864914 L -19428507.015892956,521738.7832892534 L -19427115.522258043,522316.79225985555 L -19426528.534583088,522185.99990379554 L -19427816.72373055,520887.9171851926 L -19428936.375168953,519917.21735979035 L -19429778.952394765,519513.6840807978 L -19429795.205040418,519022.81260129286 L -19428746.130159184,519262.8310596116 L -19426691.50631761,521007.98502310546 z" /><path fill-rule="evenodd" fill="currentColor"    d="M -17249650.8452352,455459.3379539042 L -17249960.647378076,456113.3364908118 L -17251303.271756534,455219.6140906149 L -17253923.175972354,453573.9293143422 L -17256146.337522984,451764.7822225497 L -17256195.206779443,451001.8957222084 L -17253069.800755933,449944.7349491672 L -17249091.019516,449105.64399369183 L -17248215.82567938,450282.65008653014 L -17248960.55307279,451884.6394649106 L -17249650.8452352,455459.3379539042 z" /><path fill-rule="evenodd" fill="currentColor"    d="M -16896363.635710467,1282157.2958540719 L -16897282.244148493,1283954.1234187474 L -16899043.318492845,1283321.9285082766 L -16900076.140728425,1281036.998571846 L -16900429.468792204,1278552.6989868504 L -16899777.136576153,1276567.6682779894 L -16898608.504561808,1276667.484698717 L -16897309.406104248,1279129.380121692 L -16896363.635710467,1282157.2958540719 z" /><path fill-rule="evenodd" fill="currentColor"    d="M -17350680.852855466,627366.1219519754 L -17353273.595115535,627945.1038015077 L -17356306.605961688,627923.2912156411 L -17357817.768049207,626459.5156309566 L -17357893.799261417,625236.0365627147 L -17356866.543000378,625225.1866498613 L -17355909.863296498,625443.6393663961 L -17351621.27991369,625651.1309750949 L -17350517.881120946,626525.0637954134 L -17350680.852855466,627366.1219519754 z" /><path fill-rule="evenodd" fill="currentColor"    d="M -17515246.79380447,-206596.779764023 L -17496727.905955084,-193708.31998516928 L -17504560.56796628,-192805.54994108167 L -17523927.26505755,-199021.33342310175 L -17541609.03033617,-211774.24978980338 L -17536325.69598363,-214536.9605490924 L -17533732.953723565,-209952.2903193209 L -17525677.54141129,-205672.34540770273 L -17520932.325477246,-214629.51940443242 L -17517812.374108784,-216679.86003780153 L -17531950.17207851,-225947.55282810784 L -17526351.580928043,-225474.3714968434 L -17512991.015643038,-219181.66683093377 L -17515246.79380447,-206596.779764023 z" /><path fill-rule="evenodd" fill="currentColor"    d="M -17737543.35663734,-437107.6748392736 L -17728667.074399956,-427698.9662177798 L -17730384.734142892,-422943.1957868249 L -17736787.719933834,-423378.967036559 L -17739733.790257677,-425035.04968080216 L -17734716.843446605,-425852.16808981495 L -17733890.63018594,-427606.36327336583 L -17736179.024958175,-430373.89140860894 L -17739228.288449984,-432307.9177417285 L -17741342.69085811,-432307.9177417285 L -17741853.64732085,-428527.0413705088 L -17745332.381408144,-431496.0993960931 L -17743321.28348747,-434432.6700575827 L -17740880.714971323,-436377.60316103266 L -17737543.35663734,-437107.6748392736 z" /><path fill-rule="evenodd" fill="currentColor"    d="M -19113290.181663606,308074.6297146666 L -19109659.2738324,310207.89942222246 L -19106838.215296715,313070.3313472035 L -19105501.1568928,317054.07937599433 L -19105588.09741511,318044.4906018521 L -19107697.045168187,318011.83343624766 L -19110284.332773205,316771.0902216954 L -19112143.36826945,315138.3697526466 L -19113121.75527403,314681.29197110026 L -19113366.324195307,314300.3393260755 L -19111148.61729972,314550.6667716677 L -19108588.49165046,316259.5044776322 L -19106713.203508552,317021.42246264196 L -19106849.124606814,315073.0569055672 L -19109126.610068955,311655.435322134 L -19110512.64904882,310479.9520306996 L -19112224.854136713,309489.59854169434 L -19114219.69941173,308825.6891756623 L -19115578.57643584,309435.0992246883 L -19116317.849174198,309739.9167581412 L -19116633.105972126,308934.4644276017 L -19116355.80912056,308237.90314706863 L -19115660.062303104,307519.6130016713 L -19113290.181663606,308074.6297146666 z" /></g></g>
</svg>
