<?xml version="1.0" encoding="UTF-8"?>
<svg xmlns="http://www.w3.org/2000/svg" viewBox="4811969.779893967 1273917.365524571 144726.24734135345 113730.57196353539">
  <g id="map"><g><path fill-rule="evenodd" fill="currentColor"    d="M 4951086.526774757,1354989.9335700644 L 4956696.027235321,1370702.6892227044 L 4956641.703323813,1382551.0837366735 L 4954271.711364824,1386312.4176442104 L 4949281.926509507,1383875.2680826888 L 4940074.1348285405,1374429.159394462 L 4922560.90725898,1365219.5842815987 L 4930594.612270549,1364463.3209706813 L 4935290.958948136,1365408.624593006 L 4940259.03650275,1364563.418582997 L 4943368.078561114,1359381.5525925113 L 4943987.794166361,1356290.7084657236 L 4948357.8634164315,1353833.7864256315 L 4951086.526774757,1354989.9335700644 z" /><path fill-rule="evenodd" fill="currentColor"    d="M 4874532.669553677,1380670.59437945 L 4882359.765590332,1387647.9374881063 L 4860617.733204517,1384754.4057784346 L 4857193.323028734,1378467.5732061667 L 4857019.441984115,1373839.5456029875 L 4865140.0875179935,1374851.8977309442 L 4874532.669553677,1380670.59437945 z" /><path fill-rule="evenodd" fill="currentColor"    d="M 4838592.949312086,1334474.3508000718 L 4836473.09224891,1335985.299818721 L 4826308.732183557,1329497.5348706278 L 4820503.532058179,1327964.6089359825 L 4811969.779893967,1317480.813274951 L 4815242.016325836,1281147.9589606752 L 4817981.477674767,1276501.1241689178 L 4820025.19220624,1274604.9017734453 L 4824754.155494629,1273917.365524571 L 4830483.213088306,1278475.135139168 L 4828972.162320278,1301828.3995090416 L 4836570.942081317,1317558.5861069567 L 4841452.07911362,1330019.5226951381 L 4838592.949312086,1334474.3508000718 z" /></g></g>
</svg>
