<?xml version="1.0" encoding="UTF-8"?>
<svg xmlns="http://www.w3.org/2000/svg" viewBox="13842426.506399656 -5311689.501292637 705617.7393455803 771877.8131548287">
  <g id="map"><g><path fill-rule="evenodd" fill="currentColor"    d="M 14290596.104665592,-4667874.796752998 L 14286682.556647267,-4665655.673056187 L 14279986.021359107,-4653684.759916645 L 14273735.20931208,-4638501.434185734 L 14267669.076300284,-4630311.625880663 L 14260722.517435802,-4625772.308600343 L 14253232.385497777,-4623105.035410888 L 14238349.860134643,-4621955.138822372 L 14224924.17294752,-4622987.2878118 L 14220564.901688054,-4624622.113861946 L 14202084.08510452,-4623666.12832345 L 14196876.893283682,-4622599.297728392 L 14170308.04777707,-4623776.931831428 L 14156447.43533942,-4622537.022072091 L 14147631.04298808,-4619607.513060256 L 14138651.567582732,-4613460.155054943 L 14130900.502758287,-4604260.00670767 L 14124095.208327621,-4594418.679717193 L 14110223.797899364,-4576453.286612976 L 14100483.342454953,-4567733.709668794 L 14100450.72584415,-4555146.529057674 L 14100233.318878632,-4551314.0466350205 L 14096819.818012947,-4548652.233534516 L 14095634.822033452,-4549828.38474456 L 14090014.523582282,-4550763.76632658 L 14067435.368625699,-4562257.652290261 L 14048867.611519855,-4555229.118122895 L 14044182.174152365,-4546101.075969698 L 14039246.713208552,-4543172.4162955815 L 14031854.431102937,-4561052.596328429 L 14019765.802319732,-4561596.652268369 L 14000556.733627426,-4577356.7483502 L 13992305.621650336,-4574157.207084478 L 13990207.471887866,-4567809.625655102 L 13979673.419793589,-4553329.876434994 L 13964953.977484467,-4541385.438649778 L 13960203.418214861,-4539811.688137808 L 13954767.910118409,-4540622.600198529 L 13955550.597458178,-4543921.6445324235 L 13949527.99036728,-4557341.986353847 L 13926285.705204042,-4562781.038447953 L 13917915.036093844,-4568498.539226655 L 13913686.231277589,-4569745.812099445 L 13936439.267278787,-4584766.0727951545 L 13942396.641148081,-4587457.947712972 L 13937950.318046816,-4590951.516856529 L 13933036.6757232,-4592664.160165158 L 13914381.978095043,-4590426.706240932 L 13904587.087419637,-4595351.159087414 L 13890389.510883354,-4593776.278531618 L 13880529.49830583,-4597693.410194337 L 13900967.08889853,-4612449.793113823 L 13901880.242681509,-4621179.53478432 L 13901641.017095791,-4627802.561552927 L 13912011.986136056,-4647475.457860283 L 13922437.39040732,-4658375.526111726 L 13949408.433234168,-4673852.985850212 L 13961170.895909349,-4675997.315278972 L 13969682.940772858,-4675384.583387345 L 13976662.11624814,-4676825.852323831 L 13969335.067364126,-4682753.494614042 L 13962160.192224028,-4685478.17330617 L 13948212.639264066,-4684920.676631132 L 13933732.42254066,-4693851.857833512 L 13932449.576728757,-4703286.447385995 L 13960540.382313494,-4763063.975359249 L 13960931.781643124,-4768515.292538485 L 13956528.98446276,-4783113.338380578 L 13955104.87421704,-4797387.267174793 L 13934982.540422268,-4805600.370589532 L 13926079.207548622,-4806587.811508722 L 13900227.816160172,-4822703.834115156 L 13889922.080341514,-4830845.819315932 L 13885867.156569876,-4828449.142134223 L 13885127.99515101,-4815528.471163994 L 13881453.561398905,-4812662.658812776 L 13874669.974268945,-4810164.561460462 L 13871256.47340326,-4824894.06252692 L 13865668.79156289,-4835555.861124744 L 13848568.670623664,-4846420.228414042 L 13842426.506399656,-4852420.273226612 L 13845372.5767235,-4865381.806603409 L 13843926.647857586,-4866531.267898419 L 13846655.311215907,-4881102.899064033 L 13857167.65600948,-4892373.069335411 L 13882921.086246034,-4912442.100731793 L 13889552.49963208,-4921864.033884897 L 13902619.404100373,-4932987.914621643 L 13908511.54474806,-4932745.047656463 L 13914588.475750467,-4933709.528262504 L 13916425.692626521,-4938554.724757433 L 13917828.095571533,-4942365.267096002 L 13923056.994693073,-4945819.679859984 L 13935634.872638315,-4951966.192312167 L 13949941.096997613,-4960064.990439025 L 13961344.888273457,-4962307.440293785 L 13975335.85583483,-4974445.804914245 L 13981043.2061278,-4979792.046113497 L 13986750.44510128,-4979792.046113497 L 13988315.931100307,-4982283.117858267 L 13991555.439601883,-4988574.86390106 L 13996012.560693752,-4992699.634708803 L 14002209.048829272,-4993483.077702125 L 14012329.994293213,-4996459.469138817 L 14025038.227362173,-4998286.097040812 L 14033691.647978988,-5008518.041650066 L 14036626.808992736,-5015835.38122694 L 14042344.95727631,-5023893.482445422 L 14054487.909971023,-5032687.394158835 L 14062847.781090617,-5045687.209815271 L 14072098.987372993,-5059855.11068415 L 14076512.693863457,-5064379.544736219 L 14080850.257822217,-5065299.309205114 L 14083426.636117134,-5070630.538121969 L 14086383.615751076,-5085713.295785636 L 14090634.127868038,-5100405.314952686 L 14093188.91018174,-5107348.847022089 L 14103842.51940913,-5114937.961465366 L 14106581.980758062,-5118614.570084878 L 14108973.568698263,-5119852.600461122 L 14113941.646252876,-5118862.133539342 L 14120573.059638923,-5123305.195175298 L 14126834.780996045,-5128238.75884912 L 14132542.019969527,-5126511.267175073 L 14138347.220094904,-5122416.418001525 L 14144402.332477113,-5114261.033493236 L 14147076.671923932,-5107770.704300751 L 14151870.757114435,-5102353.363129559 L 14152794.82020751,-5094483.655252174 L 14157578.107407404,-5091034.122982702 L 14167720.760172054,-5089320.599818988 L 14184364.359879537,-5083964.462184407 L 14195126.616929939,-5083659.697125198 L 14201268.781153949,-5079648.277222529 L 14214129.187966825,-5077458.314921393 L 14239839.203601966,-5080598.465204261 L 14250351.548395537,-5078749.123562713 L 14254765.14356651,-5073840.902906998 L 14261276.888499953,-5069927.787272699 L 14265527.511936406,-5069703.143344565 L 14271191.336308472,-5076421.575661725 L 14277268.26731088,-5087346.20374743 L 14281279.665161615,-5095711.287030179 L 14281094.874806898,-5102353.363129559 L 14277594.322099414,-5109494.672579059 L 14269125.803156804,-5116153.6001803335 L 14263581.647237338,-5126460.371127882 L 14258265.696273996,-5137128.336491279 L 14255134.835595433,-5140594.644222387 L 14252558.34598102,-5145785.247606398 L 14252090.915439181,-5153733.760245595 L 14253928.132315235,-5159107.1885415 L 14266723.305906504,-5162720.372475487 L 14283160.407958567,-5164820.216542741 L 14296455.62870248,-5162588.679395132 L 14318665.202949626,-5164103.184788914 L 14332275.680491466,-5167074.160559422 L 14342385.827964801,-5166649.678714309 L 14351691.469478177,-5166708.133777419 L 14355833.333772121,-5171290.778266091 L 14368813.29771811,-5182331.646156682 L 14375096.726375934,-5186254.341791527 L 14381978.163338302,-5193759.623010899 L 14383076.107475998,-5201594.125835929 L 14384456.691800814,-5207935.337451581 L 14388326.825217735,-5214736.938870795 L 14395132.119648397,-5223133.563450496 L 14400937.208454287,-5226999.574194898 L 14407372.922175517,-5226498.796333811 L 14414189.01459679,-5222640.378100203 L 14418515.669245452,-5218776.148670224 L 14423396.806277754,-5219894.781367076 L 14427440.820739293,-5226498.796333811 L 14430115.160186108,-5227765.574314044 L 14437898.841621358,-5228347.582825829 L 14440333.955482462,-5232399.85650771 L 14443312.531097617,-5251860.655214475 L 14446313.036652459,-5267248.137714335 L 14446954.348238919,-5278023.908487079 L 14453890.109112792,-5295887.622111717 L 14456064.290087475,-5306659.393377561 L 14460206.154381422,-5311689.501292637 L 14464989.44158132,-5311310.364823983 L 14468968.222821254,-5308145.152224257 L 14474012.442907568,-5306280.61281388 L 14480730.68549643,-5308041.08361007 L 14485427.032174021,-5305277.907113407 L 14488373.102497863,-5299494.215578835 L 14498287.438986894,-5295516.722181492 L 14499233.209380673,-5292601.3916235855 L 14498994.095114447,-5273211.761568212 L 14504440.401201509,-5264141.975102992 L 14511691.41887331,-5255952.548016675 L 14521660.190593338,-5248515.850948573 L 14526997.848857386,-5246825.60370481 L 14530193.94275755,-5241520.247144374 L 14533216.1556131,-5232355.635018408 L 14540325.797531592,-5223442.81630016 L 14544065.464505304,-5216943.998873694 L 14544782.918623464,-5210206.913964538 L 14548044.245745236,-5206406.605698768 L 14542391.219363771,-5202240.573305341 L 14534901.087425746,-5204775.186893125 L 14522464.696553301,-5206281.680861488 L 14506571.167574786,-5193106.38835517 L 14497776.482524151,-5188461.992486091 L 14491558.287087929,-5175516.615745787 L 14479132.694206094,-5167835.337459377 L 14472349.107076135,-5159655.646435119 L 14463543.624034896,-5145522.479926943 L 14457771.04052032,-5131891.355996765 L 14444410.586554803,-5117973.768357589 L 14436615.995809456,-5100499.835147365 L 14436181.18187842,-5085531.829125426 L 14444704.024732532,-5070261.053357884 L 14445465.004771596,-5057264.341402486 L 14439485.923601596,-5030601.882749442 L 14442812.483944975,-5002357.368127549 L 14439105.433582066,-4991319.709283169 L 14398186.837795258,-4972057.057019647 L 14387500.611957066,-4962472.2365263915 L 14372433.407558706,-4937561.078832948 L 14354115.67402918,-4928316.996334181 L 14342733.701373532,-4918175.5200665835 L 14326970.638838222,-4912192.586241078 L 14316882.309985083,-4894742.380695292 L 14305804.684817266,-4884884.306328083 L 14292639.930516558,-4878878.865399839 L 14282790.715929644,-4871165.921467484 L 14260733.4267459,-4870676.101773181 L 14245176.973185504,-4865303.630633225 L 14234099.348017683,-4850833.082054693 L 14200823.057912812,-4834310.892488557 L 14196289.794289237,-4821820.701404227 L 14198496.703194212,-4802610.474663826 L 14198681.493548933,-4787934.759082649 L 14195778.94914599,-4775874.9592212625 L 14188495.314863384,-4779271.928189802 L 14184581.766845055,-4775326.429889391 L 14180265.910187,-4764180.72916091 L 14181494.320767904,-4751496.803477398 L 14192898.112043748,-4747414.970769162 L 14202247.168158531,-4742213.449661023 L 14215379.417167922,-4739599.630506964 L 14225087.256001534,-4733729.791166368 L 14245742.253559751,-4707071.175277289 L 14262592.350922657,-4695407.323076614 L 14266984.238792924,-4691083.095048295 L 14276659.461015731,-4685241.240629293 L 14285573.703199472,-4676066.904098814 L 14290596.104665592,-4667874.796752998 z" /><path fill-rule="evenodd" fill="currentColor"    d="M 13904391.387754822,-4798782.666112917 L 13898118.868407093,-4794639.326569446 L 13897803.611609166,-4802046.476153993 L 13902641.222720569,-4808287.894172999 L 13907652.714876592,-4809113.191394239 L 13904391.387754822,-4798782.666112917 z" /></g></g>
</svg>
