<?xml version="1.0" encoding="UTF-8"?>
<svg xmlns="http://www.w3.org/2000/svg" viewBox="14027092.962523237 -4667874.796752998 548444.0805021953 745792.5723225311">
  <g id="map"><g><path fill-rule="evenodd" fill="currentColor"    d="M 14096819.818012947,-4548652.233534516 L 14100233.318878632,-4551314.0466350205 L 14100450.72584415,-4555146.529057674 L 14100483.342454953,-4567733.709668794 L 14110223.797899364,-4576453.286612976 L 14124095.208327621,-4594418.679717193 L 14130900.502758287,-4604260.00670767 L 14138651.567582732,-4613460.155054943 L 14147631.04298808,-4619607.513060256 L 14156447.43533942,-4622537.022072091 L 14170308.04777707,-4623776.931831428 L 14196876.893283682,-4622599.297728392 L 14202084.08510452,-4623666.12832345 L 14220564.901688054,-4624622.113861946 L 14224924.17294752,-4622987.2878118 L 14238349.860134643,-4621955.138822372 L 14253232.385497777,-4623105.035410888 L 14260722.517435802,-4625772.308600343 L 14267669.076300284,-4630311.625880663 L 14273735.20931208,-4638501.434185734 L 14279986.021359107,-4653684.759916645 L 14286682.556647267,-4665655.673056187 L 14290596.104665592,-4667874.796752998 L 14317784.665777454,-4604329.110751194 L 14343788.119590327,-4563483.582317442 L 14365954.279236061,-4533986.29031454 L 14397523.707588602,-4477446.461260514 L 14406775.025190465,-4447338.423553019 L 14407655.562362643,-4428732.681461212 L 14412917.189414475,-4403191.082672381 L 14408416.542401705,-4388576.752112359 L 14409753.712125111,-4365584.1784900185 L 14407764.210185654,-4353795.777202294 L 14403915.895388931,-4345116.418732003 L 14403774.630955115,-4328472.394142199 L 14405013.83952663,-4319577.815987785 L 14405133.50797923,-4307799.23091289 L 14407612.036441742,-4303208.393861401 L 14411232.14628234,-4301508.230347202 L 14416961.203876017,-4305796.032876783 L 14423983.9052722,-4307577.415294838 L 14422744.585381199,-4293421.306627404 L 14414254.247818392,-4257693.182361744 L 14406872.875022875,-4231744.755837758 L 14396838.87008124,-4209194.898425157 L 14384054.494480576,-4188619.468687419 L 14368758.973806603,-4180568.7914593453 L 14357996.605436707,-4177685.0627094647 L 14337472.074321698,-4176648.56780864 L 14320426.277293975,-4180143.4858378153 L 14305772.179525953,-4177611.99603402 L 14299890.836868867,-4173320.9552601227 L 14295520.767618798,-4166011.3821134744 L 14298727.65950957,-4154654.9137692614 L 14298314.55287924,-4146277.64778828 L 14292052.831522115,-4146920.3890573434 L 14279616.440649673,-4151791.066964541 L 14265853.678044427,-4152453.946593083 L 14259417.964323197,-4154860.4917258453 L 14252927.926690457,-4166867.588061918 L 14246307.533934,-4166422.825763594 L 14234784.185525043,-4159303.613776687 L 14217151.400822371,-4157724.992100358 L 14210944.003376756,-4153879.2102448693 L 14208748.003781876,-4148901.491765029 L 14211324.493396286,-4142621.2263657353 L 14220195.320978621,-4134372.1216456783 L 14217216.634043973,-4126036.59556015 L 14207976.225752208,-4121864.4571823487 L 14200518.710424984,-4132115.661088807 L 14195865.889668297,-4142170.9207930337 L 14190669.495838067,-4142740.4518763046 L 14182581.466914993,-4139866.5086032487 L 14180950.74769436,-4129012.9241633173 L 14184712.233288264,-4121626.587439995 L 14190908.721423782,-4113069.206018668 L 14182233.593506264,-4103238.0252447426 L 14179939.744078977,-4096224.8138965536 L 14173710.639332658,-4091180.284383035 L 14156882.360589948,-4102373.56857279 L 14159273.948530149,-4110334.86711352 L 14166579.290113458,-4117997.97360031 L 14167481.534586338,-4125943.9577879976 L 14165079.037336037,-4130653.4737952915 L 14140999.740921525,-4110585.8872406157 L 14126160.741479293,-4087884.4772021607 L 14118235.795610229,-4089532.2603645343 L 14114920.033257462,-4095367.378934081 L 14110278.12181087,-4097741.828692913 L 14094254.237708634,-4083113.9182776315 L 14091308.167384787,-4071518.5203687586 L 14085416.026737101,-4071077.65880807 L 14082839.64844218,-4075981.4757622057 L 14082633.03946727,-4086467.57890776 L 14079882.668808239,-4095321.1862761104 L 14063282.595021656,-4108254.8348135385 L 14055694.613251224,-4119564.223365803 L 14059771.244323565,-4125891.13834868 L 14073631.856761215,-4122452.8578723446 L 14084644.24870743,-4122902.370243323 L 14082469.956413258,-4128272.052796914 L 14078893.483813051,-4130818.9104756266 L 14086209.623386966,-4133842.72731621 L 14092308.261690076,-4140038.5907539376 L 14087253.243613154,-4141720.6333821104 L 14079523.997408904,-4138138.511426391 L 14073088.283687674,-4139906.2404956226 L 14070544.522003556,-4154754.3076576004 L 14062706.40533731,-4170014.0556945265 L 14058662.390875772,-4184849.295329249 L 14066391.748399513,-4193395.5122870617 L 14070327.003718548,-4206689.901844754 L 14077512.788168741,-4225971.0783470385 L 14081111.079389142,-4232212.119414077 L 14091069.053118566,-4236753.199621227 L 14094612.90910797,-4241750.518143209 L 14089144.784400715,-4244316.902138827 L 14080415.332571687,-4246589.782929777 L 14080632.850856695,-4252166.78715465 L 14086579.31541589,-4255217.386975224 L 14093221.415473053,-4261367.892773968 L 14106114.550216218,-4268861.65056227 L 14110082.422146058,-4283019.323835042 L 14106364.573792541,-4286581.648621181 L 14098330.868780976,-4289950.628031495 L 14100135.469046224,-4297114.829065671 L 14103451.120079499,-4302569.941171713 L 14102211.800188499,-4305842.976443586 L 14092721.36832041,-4315082.840797015 L 14086416.23236188,-4323509.160167091 L 14088286.065848732,-4333121.305318748 L 14086840.136982819,-4347673.623004337 L 14087698.96685429,-4359907.998822977 L 14087285.860223956,-4366544.090707048 L 14082654.858087463,-4381507.347127549 L 14080545.799014896,-4396511.824918127 L 14074458.070021885,-4394322.422699794 L 14069533.51838817,-4390595.557902314 L 14051933.23897681,-4395881.416507933 L 14046388.97173785,-4396206.819767776 L 14044127.850240856,-4407363.436168405 L 14050433.097518878,-4421133.696740812 L 14065391.542774735,-4433282.424674139 L 14073979.730169946,-4434792.65864767 L 14080469.767802682,-4440148.199471233 L 14090568.894646432,-4441836.338264306 L 14102701.049350537,-4433581.807291997 L 14113582.974853542,-4431922.004972351 L 14119627.289245144,-4417675.932436899 L 14123334.22828856,-4414667.355345514 L 14124117.026947819,-4419897.270417444 L 14132900.802688353,-4426033.646839617 L 14134998.841131333,-4430663.84862022 L 14133096.502353167,-4433200.789000108 L 14122986.35487983,-4435724.680622126 L 14113909.029642075,-4453436.272537627 L 14112648.00245037,-4461181.246286327 L 14109343.260727188,-4466120.307443566 L 14114256.903050805,-4480295.225644331 L 14103755.46756733,-4496507.75100397 L 14098646.125578899,-4501614.012914066 L 14099374.48900716,-4516214.062225292 L 14093895.454989806,-4525521.863638462 L 14090840.736842947,-4530628.520238805 L 14088970.903356092,-4539454.383318737 L 14090568.894646432,-4543426.79872227 L 14095352.181846328,-4544939.143892 L 14096819.818012947,-4548652.233534516 z" /><path fill-rule="evenodd" fill="currentColor"    d="M 14331384.345328685,-4136536.447726546 L 14320882.909845212,-4128179.39652592 L 14306728.747910338,-4139389.736918392 L 14303358.772965554,-4145588.6789544253 L 14314121.141335446,-4154681.3915626872 L 14323252.790484708,-4165075.598211291 L 14329253.578955414,-4165725.9494802104 L 14331384.345328685,-4136536.447726546 z" /><path fill-rule="evenodd" fill="currentColor"    d="M 14256221.870423032,-4137529.3558021276 L 14254982.661851522,-4124277.6922270274 L 14247111.928574473,-4123623.117024153 L 14242415.693216374,-4132162.0054289387 L 14237414.99905096,-4127994.221744411 L 14234806.004145237,-4127921.480184726 L 14230892.34480742,-4138542.2834454374 L 14230218.416610159,-4146840.875463864 L 14239480.53220263,-4153149.9922802523 L 14245068.214042999,-4149352.2047932274 L 14253123.626355272,-4147397.3468265366 L 14256221.870423032,-4137529.3558021276 z" /><path fill-rule="evenodd" fill="currentColor"    d="M 14052270.20307544,-4078661.362695972 L 14045149.76316634,-4076593.7765442654 L 14041149.16330621,-4081236.530101573 L 14038344.468735674,-4082468.21046335 L 14039931.662035404,-4088569.910631416 L 14051531.041656574,-4100558.9122457625 L 14053803.072463663,-4104696.64243154 L 14064532.824222755,-4102208.5508599593 L 14068544.22207349,-4095862.0034226854 L 14063597.851819582,-4086204.0052499236 L 14052270.20307544,-4078661.362695972 z" /><path fill-rule="evenodd" fill="currentColor"    d="M 14084220.232766999,-4542313.164851064 L 14083698.478313651,-4523730.879893357 L 14077556.314089643,-4524526.912845877 L 14073381.833184894,-4526393.366590264 L 14071588.142229741,-4530017.467967258 L 14067370.135404093,-4547269.897519543 L 14072077.280072287,-4554403.256982371 L 14081198.131230945,-4548755.335129072 L 14084220.232766999,-4542313.164851064 z" /><path fill-rule="evenodd" fill="currentColor"    d="M 14110082.422146058,-4075086.074237945 L 14111963.164943008,-4068675.932150898 L 14102961.982236957,-4069886.569388418 L 14098178.69503706,-4076047.2752685454 L 14098820.006623518,-4081335.275424198 L 14104179.483507762,-4082086.1458384716 L 14110082.422146058,-4075086.074237945 z" /><path fill-rule="evenodd" fill="currentColor"    d="M 14226522.164237859,-4111688.765207292 L 14225272.046356248,-4107502.217929721 L 14219651.747905077,-4113835.454368109 L 14225195.903824547,-4120767.211680239 L 14226522.164237859,-4111688.765207292 z" /><path fill-rule="evenodd" fill="currentColor"    d="M 14072740.410278944,-4368612.748484276 L 14071207.65221021,-4359657.992077954 L 14063826.168095201,-4365563.967820444 L 14061717.220342122,-4385237.839645191 L 14069294.292802455,-4379497.047843209 L 14072740.410278944,-4368612.748484276 z" /><path fill-rule="evenodd" fill="currentColor"    d="M 14045399.786742661,-4127405.529876522 L 14043932.150576044,-4124132.122444226 L 14039083.630154543,-4125110.794020075 L 14034115.552599927,-4134438.3993525556 L 14032050.130767751,-4141826.55779315 L 14027092.962523237,-4145886.756546357 L 14034985.291781496,-4152314.7969748825 L 14045019.29672313,-4140760.3069496932 L 14045399.786742661,-4127405.529876522 z" /><path fill-rule="evenodd" fill="currentColor"    d="M 14573504.237804057,-4506010.4225090705 L 14568449.108407643,-4501839.903170429 L 14562459.22924704,-4506010.4225090705 L 14561730.865818776,-4510422.289142992 L 14564861.72649734,-4514253.40027484 L 14572134.451469842,-4516570.572916996 L 14575537.043025432,-4513204.635506336 L 14573504.237804057,-4506010.4225090705 z" /><path fill-rule="evenodd" fill="currentColor"    d="M 14062652.081425805,-3925025.2628785404 L 14057651.387260387,-3922082.2244304665 L 14052998.5665037,-3923855.7554446794 L 14051748.448622094,-3925239.6431793706 L 14046149.857471626,-3932870.4812425743 L 14044693.130615108,-3936791.9462559246 L 14048454.50488952,-3944261.096035203 L 14063847.875395903,-3956575.028428157 L 14103679.436355118,-3968445.5279530734 L 14110843.402185118,-3968967.401762503 L 14126573.848109625,-3963881.1062184153 L 14129922.115753705,-3954366.641715404 L 14127041.278651468,-3946168.2627374292 L 14123421.28013036,-3940675.5600216445 L 14105201.396433244,-3931420.7106654113 L 14091014.61788757,-3926981.1803240553 L 14062652.081425805,-3925025.2628785404 z" /></g></g>
</svg>
