<?xml version="1.0" encoding="UTF-8"?>
<svg xmlns="http://www.w3.org/2000/svg" viewBox="5179856.763275215 -3516064.793948419 212735.4430881245 199704.66715646908">
  <g id="map"><g><path fill-rule="evenodd" fill="currentColor"    d="M 5373991.943966182,-3455349.999348527 L 5367632.372776653,-3452486.541480286 L 5363338.334738793,-3453699.4289352717 L 5359207.268435455,-3460597.245227952 L 5352401.974004789,-3477729.7515846193 L 5356109.024367696,-3484126.5662740394 L 5355967.7599338805,-3486878.07691475 L 5356706.921352747,-3488946.7200752255 L 5358794.161805121,-3490263.33845336 L 5360990.1614,-3498354.0018642964 L 5363903.615113041,-3500832.3973979475 L 5368686.7909934465,-3495368.0243537542 L 5382101.6801899625,-3475644.063063684 L 5382003.830357555,-3467605.2731788936 L 5381210.233707691,-3464369.8910325347 L 5373991.943966182,-3455349.999348527 z" /><path fill-rule="evenodd" fill="currentColor"    d="M 5392592.20636334,-3317597.6293155695 L 5373252.671227824,-3317294.388770755 L 5348858.0066958945,-3316910.8177230647 L 5329083.65762934,-3316650.9283075617 L 5306743.616938984,-3316360.12679195 L 5296927.01896287,-3328380.771657077 L 5293600.569938986,-3341521.6440981254 L 5290045.693319993,-3355023.099941433 L 5280240.004653976,-3374316.1785623436 L 5247463.87302124,-3378977.565981649 L 5230037.585973989,-3381458.050369713 L 5201381.500015004,-3385145.5203190343 L 5179856.763275215,-3387900.942206643 L 5197924.473228418,-3408737.6493814667 L 5206338.668259519,-3419944.8036178574 L 5221536.339101088,-3444237.242289332 L 5229341.839156531,-3461566.9521212764 L 5236875.385695966,-3480818.1166529446 L 5243376.332638802,-3495838.4474387076 L 5244746.007653523,-3498579.88640196 L 5248518.291238034,-3503675.428362972 L 5256867.25304753,-3508885.9120937334 L 5268901.5579192275,-3513796.982322843 L 5289328.23920183,-3515958.0007598507 L 5303677.9894820275,-3516064.793948419 L 5306906.699992996,-3515844.9038907764 L 5315940.499309852,-3513401.279226828 L 5340965.677437633,-3501340.67763868 L 5340400.397063385,-3496597.429764366 L 5343966.071672984,-3482459.7226667088 L 5351945.452773046,-3467041.9321534443 L 5358489.8143172925,-3454555.9321040316 L 5359305.118267862,-3448711.22539389 L 5353293.420487062,-3449561.2537337355 L 5348716.742262078,-3451917.7156431805 L 5339954.673822248,-3454374.613489823 L 5323017.524617543,-3437828.8622976826 L 5312755.314719784,-3428821.325450138 L 5312461.765222562,-3425764.1547744386 L 5326115.880004792,-3422277.238715916 L 5336138.975636328,-3422389.5157451904 L 5343129.06042171,-3424809.647084501 L 5349064.615670807,-3420955.0228802683 L 5352945.547078333,-3410756.4288937356 L 5354511.033077359,-3402496.210663994 L 5363794.855970536,-3373023.7414264306 L 5371491.596883474,-3363085.909527091 L 5381101.585884675,-3345551.37229169 L 5384667.260494274,-3336483.095100255 L 5386710.975025749,-3328838.9939857074 L 5392592.20636334,-3317597.6293155695 z" /></g></g>
</svg>
