<?xml version="1.0" encoding="UTF-8"?>
<svg xmlns="http://www.w3.org/2000/svg" viewBox="-9063531.862290695 -2245298.1543851392 186661.30139859952 58327.06548371725">
  <g id="map"><g><path fill-rule="evenodd" fill="currentColor"    d="M -9058014.757007487,-2196053.9023994724 L -9054421.920442134,-2193766.930992928 L -9049883.202163514,-2195166.688060073 L -9048584.103705954,-2197667.038342894 L -9031402.496899467,-2195806.1389616625 L -9028804.299984353,-2190898.6019309754 L -9041882.113762746,-2190771.9221227975 L -9047747.09245468,-2187621.8254686645 L -9050687.708123475,-2186971.088901422 L -9061939.214335915,-2187742.705914605 L -9063531.862290695,-2199107.4357446334 L -9060406.456267182,-2200305.9021936418 L -9058014.757007487,-2196053.9023994724 z" /><path fill-rule="evenodd" fill="currentColor"    d="M -8903221.99943319,-2238495.4156262656 L -8904309.145580279,-2237825.6817021193 L -8907869.365534829,-2238333.773929496 L -8916044.334980214,-2233496.040602573 L -8919572.049643451,-2233784.605266331 L -8918484.903496366,-2235476.00648277 L -8916794.517028669,-2237063.628063605 L -8914870.359630307,-2238247.2187387706 L -8913082.012010712,-2238703.293372354 L -8907363.863727136,-2239684.8903253656 L -8904651.564333957,-2239806.1005676817 L -8902787.185502153,-2238703.293372354 L -8903221.99943319,-2238495.4156262656 z" /><path fill-rule="evenodd" fill="currentColor"    d="M -8885899.016873397,-2238934.2319094865 L -8891095.299384134,-2237132.915147808 L -8895117.606544966,-2237825.6817021193 L -8885991.412050754,-2242739.6255390067 L -8883643.23871196,-2244397.0527814487 L -8881642.938781897,-2245286.562098535 L -8879550.243674472,-2245298.1543851392 L -8876870.560892096,-2244281.608902378 L -8876870.560892096,-2243542.3590007406 L -8885899.016873397,-2238934.2319094865 z" /></g></g>
</svg>
