<?xml version="1.0" encoding="UTF-8"?>
<svg xmlns="http://www.w3.org/2000/svg" viewBox="5188510.183892031 -7437849.658806057 4532225.235364358 2483062.8088406157">
  <g id="map"><g><path fill-rule="evenodd" fill="currentColor"    d="M 5586509.980088786,-5598666.327097214 L 5582531.087529362,-5594243.199229907 L 5576584.734289657,-5594894.585414298 L 5565430.966590134,-5611603.053825417 L 5568540.119967991,-5628565.587446854 L 5572584.134429529,-5632043.443721146 L 5578204.4328807,-5634429.5535880765 L 5578954.614929155,-5630696.737946934 L 5571018.759749995,-5623097.493505908 L 5570301.194312341,-5613515.182195573 L 5576899.991087585,-5602892.0938376635 L 5586509.980088786,-5598666.327097214 z" /><path fill-rule="evenodd" fill="currentColor"    d="M 5600674.940014266,-5617125.550500897 L 5596837.42320815,-5615005.312596695 L 5594489.249869358,-5625050.4872425925 L 5598805.106527412,-5633482.72655528 L 5604903.744830522,-5634598.876804758 L 5602805.59506805,-5621275.427187131 L 5600674.940014266,-5617125.550500897 z" /><path fill-rule="evenodd" fill="currentColor"    d="M 5864580.390796353,-5686588.164234331 L 5862623.616787189,-5684923.615650695 L 5855220.425371473,-5689182.483227344 L 5850317.581038465,-5696450.356566914 L 5856394.51204087,-5705035.132206295 L 5862036.5177927455,-5703452.462865594 L 5865754.47746575,-5694349.8884442495 L 5864580.390796353,-5686588.164234331 z" /><path fill-rule="evenodd" fill="currentColor"    d="M 7897759.089063932,-5198303.899264413 L 7888138.3020721255,-5192071.766264463 L 7877473.783534637,-5190112.5454402985 L 7871983.840207186,-5186276.2700711675 L 7866113.518179693,-5177091.697988448 L 7860634.48416234,-5169182.161042597 L 7857405.773651372,-5166378.841603508 L 7852492.131327758,-5166891.145410154 L 7846806.599654981,-5173011.544876229 L 7838675.044811005,-5172755.224814719 L 7828978.003968002,-5165171.484392898 L 7817509.0907900445,-5152893.336306688 L 7803007.055446441,-5134130.218345169 L 7787907.234437279,-5124208.678349762 L 7768774.196957185,-5115745.835653312 L 7754946.201130335,-5111990.297320617 L 7743955.627804314,-5105574.329836777 L 7725681.420195691,-5092602.641903697 L 7722050.4010449955,-5084973.034359338 L 7708798.594902492,-5080467.896067607 L 7698144.985675105,-5075268.850163293 L 7688274.063787482,-5066617.267039624 L 7685882.475847281,-5051376.374172345 L 7679588.137879355,-5042630.593321733 L 7664477.407560096,-5030623.458276628 L 7651779.9724817425,-5018523.132097907 L 7643507.1532039475,-5006667.970609189 L 7634745.084764118,-4994108.611314963 L 7631983.804794992,-4987195.52199173 L 7631679.457307164,-4977760.902868462 L 7635810.412291012,-4969848.205066179 L 7636593.210950269,-4962314.630810607 L 7633473.1482623145,-4956841.827347356 L 7624906.779487302,-4954786.849965441 L 7615927.304081951,-4956369.289570687 L 7602218.976707705,-4961748.65056909 L 7587564.767620187,-4971390.045405145 L 7582227.109356142,-4976131.942513086 L 7575030.415595848,-4984250.636041003 L 7576074.035822033,-4991801.29946722 L 7579781.086184941,-5006480.904359718 L 7582314.049878451,-5016562.991326089 L 7576334.968708454,-5021384.508390351 L 7571921.373537483,-5026547.422320325 L 7568768.694238725,-5031539.871390607 L 7562572.206103209,-5041380.847599198 L 7554777.726677354,-5038968.363945085 L 7548026.756158195,-5036549.383289918 L 7540232.276732342,-5040001.239879669 L 7517185.579914428,-5038506.171733085 L 7499770.202177276,-5037379.698315475 L 7483452.768577815,-5036318.41605086 L 7462710.830497287,-5034982.699418711 L 7437729.178290404,-5033365.862156106 L 7430554.303150306,-5035538.609589749 L 7426086.272748336,-5038802.268013353 L 7421520.39251396,-5052359.921549534 L 7418922.306918336,-5063901.752634157 L 7414062.877186735,-5085531.829125426 L 7410823.368685162,-5102287.856084513 L 7406964.14457834,-5122299.899862795 L 7404420.271574732,-5144427.069335933 L 7402593.964008778,-5160211.475250947 L 7383689.242804302,-5160730.787343654 L 7368589.310475647,-5161147.665487915 L 7348151.719882946,-5161710.921835212 L 7348336.510237663,-5174286.048525106 L 7348554.028522674,-5190156.570123036 L 7348814.850089604,-5208251.47069635 L 7352630.659595015,-5232060.880687663 L 7354065.56783134,-5252067.400655637 L 7355826.75349518,-5276520.776522766 L 7356979.021544381,-5292720.174762808 L 7358250.958046185,-5310574.661706854 L 7347716.905951908,-5305062.534102951 L 7336074.00040984,-5298967.220718227 L 7325159.458296033,-5293261.553298598 L 7317658.5283674,-5307729.03685341 L 7310374.894084795,-5321809.800430756 L 7299297.268916976,-5343254.053158689 L 7291002.631018987,-5359360.358114847 L 7276565.940216481,-5368769.760641176 L 7265879.71437829,-5375741.502359031 L 7254791.179900371,-5387497.53131234 L 7245213.807509972,-5399703.780530311 L 7236114.77497151,-5411294.904072951 L 7225243.758778602,-5421396.520062216 L 7214818.35450734,-5418200.982579588 L 7203045.093841554,-5411895.997000635 L 7191695.737796706,-5405820.404179934 L 7179672.342235106,-5399388.644580664 L 7173780.201587418,-5396245.708491518 L 7159865.265238259,-5397438.297817326 L 7147689.695932745,-5398480.940934107 L 7125925.844926735,-5400341.460455682 L 7107542.989495097,-5401924.7869338775 L 7088790.442034533,-5403538.3590685055 L 7062645.501148862,-5405782.734488066 L 7036174.505474658,-5408050.415885181 L 7018432.961629479,-5405054.586434537 L 6996005.980416812,-5401271.937363312 L 6972437.640465042,-5397295.744279111 L 6952945.820266122,-5394011.01564312 L 6928290.334167264,-5389858.048133843 L 6909820.426893825,-5386755.783157217 L 6900721.283035875,-5387182.963921914 L 6889295.895778815,-5400251.414312364 L 6870999.869549996,-5421223.564385488 L 6859911.446391569,-5433956.2524123 L 6849029.520888564,-5446457.761708941 L 6833353.510195055,-5464505.205936097 L 6820710.39902821,-5478183.269511887 L 6808382.655978779,-5491571.221778898 L 6801294.721360992,-5503938.91620722 L 6797761.663362193,-5519515.429431906 L 6791369.475561863,-5526587.110494603 L 6777041.43258237,-5536138.769128043 L 6761669.76937669,-5546401.918300822 L 6746287.308180403,-5556676.503754916 L 6730904.735664626,-5566970.388903077 L 6715533.072458945,-5577268.443723966 L 6700150.611262659,-5587578.054185669 L 6684768.038746881,-5597899.574077351 L 6669396.3755412,-5608240.432701039 L 6654013.803025423,-5618577.876793403 L 6638642.251139233,-5628934.740683913 L 6623270.587933554,-5639303.677578096 L 6607877.106107678,-5649684.41331962 L 6592505.442901998,-5660085.052054491 L 6577133.779696318,-5670489.8339019455 L 6561740.409189934,-5680906.855136586 L 6546368.745984254,-5691343.615062454 L 6530997.082778574,-5701784.7746307235 L 6518343.17362112,-5709381.168424149 L 6506559.003645236,-5707401.953088452 L 6488937.016933169,-5702079.591903811 L 6470467.109659731,-5696512.268572419 L 6452192.902051108,-5691010.44026683 L 6419427.568408978,-5681138.862381569 L 6398348.666229819,-5674803.608739406 L 6381868.149576346,-5669454.209789809 L 6364322.305395983,-5663768.241892254 L 6341319.13449897,-5656318.346479326 L 6322044.832585059,-5650070.068592919 L 6299433.061017675,-5642762.644899316 L 6279441.193666112,-5636300.326154913 L 6262601.894293814,-5630865.991019211 L 6245077.757414154,-5625204.35740948 L 6231184.639685191,-5620722.094442867 L 6231195.437675797,-5584660.841977688 L 6231217.256295993,-5548742.598235057 L 6231228.054286599,-5512965.661473968 L 6231238.963596698,-5477328.354469028 L 6231249.872906796,-5441829.024012451 L 6231260.670897403,-5406458.505951587 L 6231271.5802075,-5371230.291215144 L 6231282.378198108,-5336142.710002064 L 6231293.2875082055,-5301179.217260817 L 6231304.196818302,-5266345.778702726 L 6231314.99480891,-5231640.875430593 L 6231325.904119007,-5197063.00940317 L 6231336.813429105,-5162610.703025875 L 6231347.611419712,-5128282.498751205 L 6231369.430039908,-5094069.669843419 L 6231380.228030514,-5059985.401110242 L 6226651.376061616,-5060267.628946906 L 6215976.059533523,-5058291.910821569 L 6198114.847235742,-5053553.316115826 L 6183265.0498029,-5051173.930741942 L 6176785.92148026,-5052584.162436289 L 6170926.397443375,-5056142.94239873 L 6165806.146144846,-5063648.333707715 L 6158163.840462907,-5072768.188838304 L 6150358.340407465,-5080148.685004753 L 6140639.703583249,-5095333.548923593 L 6133910.440364796,-5107014.294014759 L 6117266.951976802,-5132562.212938662 L 6114962.304558909,-5140631.116330408 L 6111853.151181052,-5148867.5123598715 L 6106298.085951487,-5155765.9014092535 L 6086719.325230257,-5172704.081614506 L 6063890.1466973545,-5188007.261911031 L 6041517.489396195,-5203011.794498551 L 6035179.62550737,-5206656.460313943 L 6024721.715944796,-5211324.534413925 L 6011828.692521119,-5211427.539217318 L 6003055.714771192,-5210508.36636807 L 5976226.047697651,-5205554.139290956 L 5955679.697962446,-5199743.185942714 L 5927773.794051915,-5191866.177860273 L 5906151.207479721,-5183138.036864431 L 5901324.505678415,-5180579.77250886 L 5885518.028541697,-5170060.757272242 L 5866189.291396788,-5152652.223887128 L 5843588.429139502,-5128136.650094466 L 5840664.066116363,-5143901.46639541 L 5839663.971811076,-5168223.294266638 L 5840055.259821215,-5176066.019465383 L 5846186.626054617,-5196571.029173583 L 5852426.528791543,-5210670.088544704 L 5857448.930257663,-5225342.5834956765 L 5859688.455773443,-5244582.083759417 L 5855024.725706658,-5275536.106789871 L 5849839.241186527,-5282408.963005317 L 5843599.227130109,-5284654.086932723 L 5836957.015753456,-5285291.378132472 L 5824727.122536435,-5284031.559420465 L 5819008.974252856,-5281549.599769982 L 5809061.909833534,-5292015.548464411 L 5797027.716281326,-5293691.76190475 L 5790679.054401895,-5290769.70920795 L 5784243.340680664,-5289257.094359598 L 5777285.872506084,-5292149.057335026 L 5771263.376734677,-5298351.189608639 L 5767578.033672474,-5305040.17574809 L 5764697.196570236,-5312633.375857324 L 5755261.199933144,-5327823.209275686 L 5745868.617897462,-5336120.277140719 L 5734519.261852615,-5337961.01947967 L 5716016.737968374,-5337484.049033969 L 5710178.921232193,-5338512.504049459 L 5709841.957133562,-5347154.910141017 L 5712179.221162257,-5366265.176626252 L 5712233.545073764,-5376250.478503984 L 5710885.577359749,-5385684.542138516 L 5707809.040592695,-5393441.179253374 L 5703895.492574367,-5400168.898394181 L 5692839.574707251,-5411249.827525748 L 5684512.431517951,-5426857.764743593 L 5670597.495168792,-5459029.166169993 L 5658454.542474081,-5495322.874209799 L 5653095.065589838,-5500797.964657286 L 5642224.04939693,-5506557.226436668 L 5618492.5150716575,-5511173.191757501 L 5602838.211678853,-5515951.144091459 L 5596652.6328534335,-5520564.389134939 L 5594087.052549121,-5528565.079034032 L 5594130.5784700215,-5537143.944172664 L 5595424.222272529,-5547293.772802778 L 5599087.746714536,-5555882.817101493 L 5611556.865517273,-5562524.538760796 L 5638603.939556333,-5563983.459980517 L 5661748.4862066535,-5563265.466879562 L 5682729.5385534065,-5547903.850401251 L 5689621.773506381,-5544366.5317009585 L 5697014.055612,-5543360.558831372 L 5711885.671665035,-5548208.826467139 L 5719223.629859147,-5549581.423434321 L 5737802.2962750895,-5547987.706088147 L 5732258.029036131,-5555257.044523417 L 5725278.853560846,-5559073.301822845 L 5718071.361809946,-5558745.135113052 L 5711831.3477535285,-5561699.844407086 L 5701579.935846375,-5575822.735052168 L 5683740.5421687905,-5591905.972146765 L 5679598.677874845,-5598566.6125519285 L 5678337.6506831385,-5609222.974114681 L 5681783.768159626,-5618424.119626753 L 5694405.060706277,-5627857.73153539 L 5705112.993845172,-5640697.896112861 L 5710026.747488279,-5657769.26347072 L 5714407.726048448,-5665645.129127547 L 5723572.103128004,-5678036.420833472 L 5737367.371024561,-5675661.988047791 L 5758848.581843448,-5684629.521532953 L 5794038.1200365815,-5682872.450897549 L 5836120.004502182,-5685450.155437948 L 5847730.293433447,-5684497.935377734 L 5874549.162516382,-5675762.56000499 L 5889996.856934273,-5671997.186871441 L 5908716.787784033,-5670064.838430788 L 5922240.4361230545,-5673937.552450903 L 5909477.767823096,-5685883.650447882 L 5881843.594789593,-5700063.242226721 L 5874755.660171803,-5712145.10984462 L 5887409.569329256,-5745090.620509968 L 5904564.125499481,-5775202.019510997 L 5914989.418451252,-5811114.637487788 L 5912065.055428114,-5846953.05418796 L 5907053.563272092,-5856845.1647951305 L 5908673.373182625,-5868518.492074595 L 5914674.161653326,-5878379.493793063 L 5918881.259168876,-5888219.790837317 L 5915239.442027574,-5900069.774372517 L 5907662.36956724,-5918610.153249813 L 5903781.326840223,-5924613.371917271 L 5890583.955928717,-5934633.349992453 L 5864047.727032907,-5935079.239327121 L 5842403.433160008,-5940551.9646933675 L 5835402.550384019,-5936146.432758738 L 5831456.274435397,-5929371.163015085 L 5826499.106190882,-5924915.555275768 L 5809627.301527272,-5915915.948667684 L 5804006.89175661,-5914144.082403433 L 5798136.569729118,-5915931.896931617 L 5789852.841141228,-5926076.981493982 L 5782503.973637019,-5924931.519970309 L 5760174.842256759,-5931265.452303708 L 5749662.608782678,-5945023.402157656 L 5745781.566055661,-5946961.105922337 L 5709667.964769451,-5957972.684725934 L 5697111.905444406,-5960072.907109189 L 5668390.697583307,-5948715.633365651 L 5647540.000360272,-5934187.320359256 L 5641658.769022682,-5932077.509568326 L 5630863.784041986,-5922879.481330775 L 5624797.762349679,-5921416.407251688 L 5618546.950302655,-5922982.902448417 L 5612654.809654967,-5922426.234397976 L 5600066.133719118,-5908664.129850357 L 5577280.369787625,-5892664.700358783 L 5565952.832362974,-5882581.748168619 L 5553320.630506225,-5876322.45671067 L 5539318.753634757,-5872407.70562857 L 5524958.094044461,-5871775.224893056 L 5519707.376302725,-5868154.962971595 L 5503324.70948166,-5866866.870268728 L 5493334.230460927,-5863935.823834827 L 5492975.4477421,-5858502.826789361 L 5494964.838362066,-5846330.312573549 L 5486474.612118755,-5850627.755027838 L 5477549.460624913,-5842373.694922131 L 5480506.440258855,-5834544.630021835 L 5475168.670675318,-5836426.454896165 L 5450089.168636029,-5851487.624559778 L 5429532.020910216,-5862127.039641829 L 5411257.813301592,-5871593.391063035 L 5408572.6758641675,-5873317.158684865 L 5403582.89100885,-5877936.321641084 L 5400017.216399251,-5885123.170351144 L 5399256.236360188,-5893021.292965476 L 5401060.836625437,-5898816.617684991 L 5405496.139097113,-5902521.0546648 L 5410714.240228048,-5903949.280796005 L 5415367.060984734,-5902774.865064092 L 5420541.747514261,-5899221.051770787 L 5429760.337185833,-5894923.635872311 L 5441696.792225123,-5894122.974978979 L 5449121.690941544,-5897428.852331729 L 5450132.694556928,-5905361.810935084 L 5435935.118020645,-5934720.927774998 L 5422857.19292276,-5958491.723860873 L 5410203.395084798,-5984994.517962539 L 5404843.918200556,-5994627.089665885 L 5389320.081250961,-6016906.443098595 L 5374024.560576985,-6038904.744347348 L 5361925.022483682,-6058543.718158476 L 5355576.360604251,-6064604.158034083 L 5336062.833104625,-6067134.61542292 L 5298829.469060526,-6071987.496805575 L 5285664.714759824,-6074293.561372719 L 5275130.662665546,-6068452.708022662 L 5264563.993960467,-6063860.5438667545 L 5254508.281718129,-6072400.077249499 L 5246572.4265389675,-6086376.1926223235 L 5242397.94563422,-6098159.215561164 L 5244430.750855596,-6110202.239649627 L 5245267.873426361,-6128009.509601148 L 5239212.649724661,-6145617.2334243925 L 5232494.407135797,-6154312.165873482 L 5215666.017073596,-6160857.508385752 L 5194271.858096509,-6175715.644308257 L 5188510.183892031,-6202864.125936648 L 5198913.769543098,-6241934.17786967 L 5215644.309772891,-6269709.64106326 L 5227808.969768307,-6281367.697408753 L 5233603.260583588,-6291564.137423813 L 5235505.710681246,-6300401.554545139 L 5234038.0745146265,-6308848.90140315 L 5226830.582763726,-6317829.478465998 L 5215644.309772891,-6326577.727462513 L 5209980.48540082,-6337379.990428052 L 5212328.658739613,-6360515.728319446 L 5219720.940845231,-6393961.3548085475 L 5231124.620801586,-6420810.917391535 L 5246441.960095759,-6435729.133527082 L 5259661.149627459,-6446428.069724514 L 5264879.250758394,-6456412.487498511 L 5265150.981635421,-6470597.412494296 L 5264824.926846888,-6484025.082235004 L 5268357.984845684,-6493782.73979623 L 5273913.05007525,-6501551.114684727 L 5279794.28141284,-6508500.376301039 L 5288078.010000731,-6516316.626135763 L 5298764.235838922,-6518210.045495041 L 5310581.1337451,-6511994.30124976 L 5326594.10853724,-6495313.708191024 L 5350097.326586896,-6462502.213355174 L 5363523.125093509,-6441085.451057199 L 5368360.736204913,-6434496.3426731685 L 5380623.246032737,-6421763.677065899 L 5391679.052580362,-6416630.627777508 L 5410127.252553096,-6424605.5085406955 L 5427825.270477373,-6433871.36938247 L 5433532.6207703445,-6439767.073992409 L 5437207.054522449,-6448550.902450837 L 5434391.450641815,-6463586.786927832 L 5430695.309589005,-6473413.570747976 L 5426759.942950482,-6485936.7174402615 L 5421313.52554393,-6507767.746531022 L 5417476.120057304,-6542136.5768396715 L 5412921.149133026,-6553067.800591144 L 5416269.416777105,-6554327.119139503 L 5425129.335049341,-6552048.626618143 L 5433326.011795432,-6551072.1970831305 L 5445055.969179301,-6558663.220404388 L 5461188.501104553,-6572981.6767481975 L 5490660.0023336,-6595104.562144165 L 5496899.9050705265,-6609745.374583275 L 5501922.306536646,-6626071.454477431 L 5510097.387301522,-6636093.875476023 L 5528828.22746138,-6639408.510262307 L 5546189.281287027,-6644655.892369763 L 5558440.881804753,-6656244.844410927 L 5577650.06181655,-6666451.904094782 L 5593456.538953268,-6672663.926611392 L 5600403.09781775,-6678376.2059095325 L 5605349.468071657,-6686956.578672963 L 5623449.794635663,-6711223.232220304 L 5637658.169162553,-6726178.500785091 L 5650148.995265993,-6741599.476757229 L 5654356.092781545,-6751308.489126616 L 5664205.30736846,-6749509.615224408 L 5679283.421076918,-6742765.497279587 L 5695492.206853364,-6736631.177639919 L 5707341.610050854,-6727132.115484143 L 5709657.166778845,-6717408.406291046 L 5710809.434828046,-6709756.304282159 L 5715647.045939449,-6705810.875543208 L 5721376.103533125,-6705086.532843126 L 5729996.907539139,-6707006.458781898 L 5745096.728548301,-6707355.568558967 L 5763610.161742639,-6719925.614058758 L 5789407.11790009,-6741161.297342261 L 5813008.185782155,-6747746.350584539 L 5825466.395274793,-6742704.095260799 L 5835706.897871847,-6727088.392261168 L 5843849.250706431,-6712393.49464306 L 5852198.212515927,-6706936.745870736 L 5857383.697036059,-6706779.625880042 L 5859318.763744518,-6706561.378904053 L 5869668.025484078,-6709887.374629519 L 5870439.914833238,-6709843.565070157 L 5879952.054002033,-6709249.924052941 L 5889094.612461394,-6704309.897359109 L 5904205.342780654,-6703734.169789207 L 5925240.830358406,-6707530.218436014 L 5927458.537253989,-6709075.416122074 L 5937568.573407833,-6707067.592133079 L 5949874.609156558,-6700306.01957459 L 5959451.981546958,-6692278.104408011 L 5976530.39518548,-6665956.917555275 L 5986368.7004622985,-6659185.920314129 L 6006447.508336172,-6649854.628532957 L 6015872.706982657,-6641694.139839508 L 6026808.95639717,-6628508.811747075 L 6032527.104680748,-6620533.668385927 L 6044409.235808531,-6606106.340729037 L 6058171.887094285,-6582526.8361570025 L 6060607.000955388,-6563816.433755698 L 6063737.861633948,-6547998.434808983 L 6068847.314941869,-6540528.434796723 L 6073065.210448027,-6539587.694219835 L 6077620.181372304,-6542196.494063414 L 6082066.50447357,-6549368.3262131885 L 6083610.1718524005,-6561397.994608638 L 6082262.204138385,-6582655.88631948 L 6078739.944130195,-6600073.856694524 L 6074217.589816718,-6605614.98451763 L 6072043.408842035,-6611755.251569045 L 6075032.893767288,-6619566.412185954 L 6082675.310768718,-6623340.930880718 L 6092198.24792812,-6620956.934095298 L 6107874.36994112,-6610927.003254333 L 6124224.420151382,-6598290.67494962 L 6144303.228025255,-6576262.501314742 L 6162773.1352986945,-6562298.371970912 L 6182938.883694877,-6551157.96109982 L 6198962.767797114,-6547835.7391439425 L 6211366.653378246,-6551200.755748173 L 6226009.953155665,-6560274.899785526 L 6239424.842352181,-6570775.202752433 L 6245523.480655291,-6581813.487580727 L 6249915.368525558,-6593856.272650275 L 6270135.552152739,-6609995.500361974 L 6288594.550116079,-6624749.257932069 L 6296997.947156574,-6622088.3439985225 L 6302933.5024056705,-6617908.599607261 L 6321870.84022095,-6626883.885441147 L 6328469.525676702,-6629356.188302091 L 6346515.5283292,-6632832.481514408 L 6365137.609346553,-6627670.374016599 L 6379998.316089491,-6611841.47334351 L 6394435.11821149,-6601659.075041232 L 6407306.434334462,-6602839.717858069 L 6417992.660172652,-6608063.5824738685 L 6425026.1595594445,-6617925.927543282 L 6430353.019832884,-6629589.559777997 L 6437484.369052083,-6637054.398493089 L 6438593.222499874,-6637521.586534689 L 6461552.8674759865,-6633481.18435771 L 6475978.7602878865,-6634086.710276031 L 6477511.629676111,-6635764.984236751 L 6496514.200712995,-6632590.161122897 L 6517473.545759043,-6616173.51578025 L 6530507.944936029,-6598032.4385021655 L 6547151.544643512,-6574939.672115904 L 6554902.498148466,-6567419.590213078 L 6566164.913671003,-6564202.360729512 L 6575013.922633141,-6562812.967643818 L 6586874.235140729,-6559246.057207095 L 6618204.660546533,-6554421.338911793 L 6622966.129126235,-6551594.687400382 L 6626173.132336497,-6547827.148621432 L 6623270.587933554,-6535261.596605606 L 6626075.28250409,-6532074.021953962 L 6651470.041341306,-6541015.924529035 L 6658286.133762578,-6547690.22741824 L 6666678.6214929735,-6566673.107818109 L 6674179.662741098,-6585863.071752851 L 6679756.435271367,-6592986.813432165 L 6685692.101839956,-6594854.889088414 L 6691649.364389757,-6592014.333813039 L 6699954.911597843,-6580670.181404666 L 6711239.034421085,-6569127.194430269 L 6726458.523882851,-6564734.115833309 L 6735774.96338683,-6562984.389578674 L 6750189.946888633,-6562024.051154397 L 6784064.133978554,-6567608.330225844 L 6815742.321473596,-6581555.591720699 L 6833842.6480376,-6596749.137769115 L 6842256.8430687,-6619566.412185954 L 6847507.560810438,-6645565.437465164 L 6855617.40835371,-6662023.702136455 L 6852236.5240988275,-6678915.410566817 L 6836277.761898703,-6694988.003765725 L 6830907.487023855,-6699835.230402928 L 6792141.3649110235,-6708857.107670123 L 6789749.665651329,-6715354.867974942 L 6787542.868065843,-6716849.112533857 L 6749342.026327261,-6731157.98791919 L 6730904.735664626,-6737296.970723913 L 6725740.958445198,-6746763.910672443 L 6722305.750278809,-6759184.194364061 L 6710380.204549616,-6770277.509533109 L 6686681.286835144,-6780373.160702914 L 6682539.422541199,-6788065.546217555 L 6686463.879869625,-6795871.142694358 L 6705183.810719385,-6804558.752406605 L 6726534.555095063,-6822864.9447435085 L 6734753.050461348,-6826628.614494231 L 6753788.349428525,-6827443.533360679 L 6771388.517520396,-6842437.324909233 L 6783542.379525207,-6851015.235234054 L 6789880.13209454,-6861265.65831051 L 6788205.998272499,-6871823.021657807 L 6770594.920870531,-6903820.051382074 L 6765376.819739596,-6923249.916446705 L 6768485.973117453,-6935918.210567801 L 6778606.918581395,-6949667.689830644 L 6784335.976175072,-6957172.341316266 L 6791217.301817949,-6970678.977471582 L 6795772.272742228,-6977905.574429581 L 6813524.725897503,-6980974.942659194 L 6835103.675229307,-6982257.323100051 L 6849888.350760034,-6979024.950162106 L 6870565.055618958,-6977336.980535755 L 6889404.5436018305,-6974846.25460923 L 6898938.50139082,-6972599.963040787 L 6905939.384166809,-6976732.200753679 L 6911016.220863927,-6984000.536628341 L 6910831.430509211,-6993626.507417616 L 6903439.037084102,-7002974.260733103 L 6875783.156749893,-7015234.546464184 L 6863944.5515430095,-7025370.452462647 L 6854628.11203903,-7024253.664473551 L 6839115.073080042,-7027404.5395778855 L 6825102.398217966,-7034064.663674607 L 6812665.896026033,-7036292.027182434 L 6808610.972254397,-7045535.460602927 L 6811187.461868808,-7058490.426866176 L 6815970.637749214,-7065906.685088167 L 6825178.429430178,-7069613.018842558 L 6835125.493849501,-7067759.729151895 L 6845985.600732313,-7073156.4521249365 L 6849105.6634202665,-7076317.605680561 L 6850040.524503948,-7080385.322271616 L 6848279.450159599,-7086229.868853379 L 6843267.846684086,-7091062.3979675 L 6836125.58815479,-7092335.267263697 L 6827907.0927885035,-7088234.052128232 L 6818090.494812389,-7085571.226498551 L 6801457.804415002,-7091593.422887224 L 6788205.998272499,-7098839.317014179 L 6788880.037789253,-7105541.25037206 L 6798674.817145172,-7115508.406247679 L 6803088.523635633,-7123603.466002781 L 6803088.523635633,-7134817.7166813575 L 6803088.523635633,-7147929.055336756 L 6806491.11519122,-7163306.832126674 L 6816209.863334927,-7173846.8153222 L 6827635.250591987,-7179492.59060533 L 6857074.135210231,-7169194.640236917 L 6893872.574003799,-7160027.512031148 L 6900210.437892624,-7161523.979662062 L 6902069.362069381,-7166356.570757579 L 6906287.257575538,-7170655.726053274 L 6957359.415437093,-7172653.581285386 L 6967295.57054632,-7178576.057028306 L 6972241.940800227,-7183289.358244745 L 7021357.324652618,-7190109.890200101 L 7027216.848689504,-7196574.331217996 L 7034424.340440405,-7202616.952536028 L 7045708.463263648,-7202505.513547963 L 7059177.67637167,-7204929.382513018 L 7077919.314522135,-7212298.582036821 L 7091203.73727544,-7216353.149523603 L 7093410.534860926,-7216697.395561108 L 7107423.321042493,-7215069.646686918 L 7124882.224700547,-7220903.100936947 L 7128610.982364159,-7223313.964007141 L 7131448.404864987,-7227737.646380652 L 7146646.075706558,-7236228.467217067 L 7175791.29950809,-7243253.762987921 L 7182901.052746074,-7239045.2437716145 L 7196794.170475038,-7237151.74509381 L 7214535.714320215,-7240267.511300156 L 7227613.639418103,-7245634.213452234 L 7235255.945100042,-7240304.772718963 L 7245605.206839601,-7234848.527787993 L 7253334.564363342,-7239474.362756757 L 7257161.17185936,-7254144.43193109 L 7262194.371316087,-7268504.857734241 L 7270934.732455212,-7275315.383416751 L 7277859.584018988,-7277790.073794638 L 7284121.30537611,-7283332.79321589 L 7288861.066655106,-7289095.17464454 L 7314560.284299641,-7288212.666926562 L 7337541.636576459,-7302570.1054139035 L 7342042.283589232,-7296064.522451091 L 7371872.344898122,-7297577.708772296 L 7408910.009277406,-7306831.607027378 L 7431076.0576036535,-7311161.378932155 L 7469353.041873939,-7320864.995045862 L 7487051.059798216,-7328712.066746308 L 7512358.878113124,-7333677.035814006 L 7535590.253966263,-7337143.155128875 L 7550788.036127323,-7350918.986900985 L 7563039.63664505,-7352887.539747791 L 7577943.86930889,-7354023.424872813 L 7587075.518458152,-7357347.116363699 L 7593032.892327444,-7362453.614193412 L 7596892.116434267,-7372050.5009290315 L 7594804.875981891,-7384262.878524324 L 7592685.018918715,-7393163.561230624 L 7603338.6281461045,-7398150.9022770235 L 7618536.410307166,-7399693.599071234 L 7628146.399308367,-7401722.133413984 L 7649084.03705371,-7421970.572238145 L 7663564.253777118,-7431727.47167879 L 7678511.9010423655,-7437849.658806057 L 7708537.773335563,-7434500.957985524 L 7735954.539403548,-7431440.582165368 L 7763447.336683744,-7421750.931813775 L 7777916.755416545,-7409689.256047748 L 7790331.438988284,-7400598.181920015 L 7802093.901663464,-7396247.085700681 L 7812671.479678641,-7393458.587998586 L 7825020.930028773,-7397579.80580267 L 7833717.7652469985,-7403170.128780102 L 7838805.511254214,-7411157.878831712 L 7846502.1408476615,-7416862.950283016 L 7874527.713210793,-7421321.252546733 L 7880343.711326781,-7412712.539103132 L 7893682.457991593,-7386743.9492529 L 7902770.692539447,-7352262.766902742 L 7917740.1584248915,-7306756.25581254 L 7924338.843880643,-7284486.659525838 L 7921403.682866897,-7272832.264775064 L 7921468.916088502,-7256883.586446154 L 7920620.884207638,-7239409.018992557 L 7909554.168349916,-7219646.679858612 L 7914054.815362687,-7210448.638883637 L 7941134.617332042,-7200203.111325905 L 7979063.616874107,-7203944.833418529 L 8002468.985091356,-7212214.804490097 L 8015503.384268341,-7209203.213783293 L 8022308.678699005,-7214148.960601575 L 8026733.183180076,-7228790.244705963 L 8035712.658585425,-7232070.478850305 L 8044963.976187291,-7221861.752681947 L 8051682.218776155,-7204594.971995109 L 8058117.932497385,-7193494.450294825 L 8057639.592645447,-7180325.792042065 L 8060009.473284946,-7163426.99002687 L 8064738.325253843,-7159150.306519162 L 8074033.057457117,-7165570.8389490815 L 8080229.656912126,-7169388.741680013 L 8081708.091069352,-7174522.32876361 L 8079077.277543435,-7180862.849774412 L 8077816.250351727,-7187301.289819088 L 8079870.8741933,-7193216.17855553 L 8084273.671373664,-7195637.187264233 L 8097492.860905365,-7193772.731871815 L 8116756.253509178,-7190508.433828647 L 8139607.2506622765,-7166513.688654176 L 8151913.286411001,-7162170.437060892 L 8157109.68024123,-7161754.783656257 L 8168698.150552301,-7163122.152056792 L 8182613.086901461,-7170026.753651917 L 8191994.759627045,-7178677.867761801 L 8195114.822314999,-7182928.170263934 L 8200506.804490552,-7182187.255577668 L 8205627.05578908,-7178187.216594275 L 8205974.929197809,-7169434.947996002 L 8201898.298125468,-7156804.951142061 L 8188015.978387111,-7145255.318058069 L 8170785.391004675,-7134532.45776127 L 8160349.188742805,-7114902.428628407 L 8158131.481847223,-7094459.921704652 L 8162708.160072206,-7084107.418803867 L 8166610.910099927,-7077185.861594695 L 8167719.763547719,-7067495.008796854 L 8171622.513575441,-7066217.1468260335 L 8178634.3056615265,-7070206.379868957 L 8197897.80958483,-7090311.860921938 L 8207714.296241454,-7095284.203910349 L 8221944.489388541,-7098463.577294549 L 8245284.624384183,-7096905.817641255 L 8261015.070308692,-7090348.420535387 L 8268516.111556814,-7081217.318560639 L 8276778.0215245085,-7073713.594948707 L 8282474.462507382,-7076856.815298755 L 8285431.442141325,-7085525.320322761 L 8285561.908584533,-7095458.300878307 L 8287953.496524736,-7103633.721106443 L 8313500.429105867,-7123778.186904378 L 8330502.811532177,-7137211.808731217 L 8336362.2242495725,-7138786.579935004 L 8347733.398914614,-7135996.192142822 L 8354766.898301406,-7137405.125221815 L 8373476.031160559,-7150068.697249465 L 8390934.934818612,-7164498.841643353 L 8392641.685251454,-7174272.581003739 L 8393283.108157406,-7183141.200877332 L 8397631.470106773,-7187152.8671656 L 8422080.458550207,-7190258.178731369 L 8426091.856400944,-7191927.139452336 L 8446996.877535485,-7202032.010537148 L 8475924.6943715,-7219274.480815415 L 8489959.29917326,-7229461.142266816 L 8515549.646355798,-7233990.627956833 L 8520300.316944892,-7236927.887029177 L 8528801.452498304,-7243813.680303701 L 8544814.538609933,-7253331.312997073 L 8553489.666527452,-7254387.5417729085 L 8548108.482342508,-7231352.7866719775 L 8538541.907942714,-7204790.138180799 L 8533149.92576716,-7197715.699811067 L 8507222.503166499,-7198903.613486069 L 8507265.917767908,-7191685.954752203 L 8511331.750849642,-7180631.296029471 L 8514245.204562683,-7174429.856743242 L 8517397.77254195,-7168871.02221217 L 8524366.150026627,-7159279.4792148415 L 8551641.540341303,-7136640.751150411 L 8586341.940691892,-7107926.308347687 L 8623836.12630292,-7075796.77259244 L 8650013.683799393,-7053440.678738033 L 8660591.15049508,-7041931.461160223 L 8667331.211704139,-7032946.655355602 L 8686649.03953895,-7000584.342101669 L 8704966.773068475,-6970002.678785493 L 8735851.36391365,-6916394.94037766 L 8763235.513370832,-6864940.478868307 L 8793359.235496437,-6808702.69612809 L 8810796.320534296,-6776313.993440552 L 8846431.693288056,-6708987.984762459 L 8855943.832456851,-6688428.150605785 L 8873989.723789858,-6649646.594411773 L 8889937.576679884,-6613420.481311801 L 8904026.394073663,-6581512.639201801 L 8912897.221655997,-6578633.570994238 L 8913582.059163356,-6587273.445559542 L 8915169.252463087,-6593038.463652628 L 8919724.223387366,-6596275.62286813 L 8930073.485126926,-6605701.318425675 L 8935661.166967295,-6607968.746859728 L 8943988.421476085,-6606994.493519506 L 8952717.873305112,-6611798.362343136 L 8955903.057895182,-6620870.439662236 L 8953826.726752903,-6637694.7506267475 L 8952478.6477194,-6645452.781091111 L 8955435.62735334,-6653790.522329679 L 8960218.914553236,-6657060.272753268 L 8966861.12592989,-6659697.913770542 L 8972959.764232997,-6661051.714130024 L 8977971.25638902,-6670500.072575771 L 8987407.364345603,-6673359.229473461 L 8996071.582953025,-6671594.920384093 L 9003224.75079242,-6671229.895498505 L 9009540.796061048,-6664350.3297418775 L 9013052.146759141,-6654935.177158547 L 9019857.441189805,-6654206.628911261 L 9031043.71418064,-6655160.574916096 L 9032576.583568864,-6647263.4542651335 L 9029391.287659304,-6634103.895251061 L 9025510.35625178,-6623937.038308538 L 9024836.316735025,-6615767.820011398 L 9030750.16468342,-6611798.362343136 L 9052405.367866416,-6615353.4830195755 L 9060101.997459862,-6613601.620145505 L 9062537.111320965,-6605347.867148086 L 9065602.738777922,-6598514.698109656 L 9067146.517476242,-6590164.172537723 L 9064906.991960462,-6580910.975420566 L 9068744.50876658,-6575403.517691479 L 9087442.732315635,-6575274.581127771 L 9100596.68862573,-6579724.851351909 L 9120816.760933422,-6580068.579177668 L 9139112.78716224,-6570303.179491032 L 9151788.403620398,-6571814.100765736 L 9164529.253300162,-6575764.304530659 L 9183183.950928316,-6573247.921304745 L 9196294.492637003,-6580970.999001972 L 9205339.201263957,-6590628.700490651 L 9208187.421755392,-6598238.991732761 L 9212894.566423588,-6602451.798866499 L 9230505.643825555,-6602408.737104685 L 9241659.300205588,-6603141.347232987 L 9249845.17896107,-6614326.568914667 L 9257357.129519291,-6619385.141708004 L 9269989.220056549,-6620335.04348657 L 9279294.861569922,-6620335.04348657 L 9304243.897166003,-6609935.087929689 L 9319419.860706866,-6601357.50005397 L 9335226.449163076,-6589166.125313514 L 9344727.679021772,-6581529.714561581 L 9351098.159521399,-6564330.948512555 L 9361893.033182604,-6551671.6869235765 L 9370426.896666307,-6536920.013591622 L 9372492.318498485,-6522382.1621443955 L 9379536.727195375,-6496342.989993197 L 9386820.361477979,-6487797.62234291 L 9395473.782094793,-6487797.62234291 L 9406388.21288911,-6484246.027846965 L 9418444.225061515,-6481400.802583845 L 9444230.38322836,-6462103.993449473 L 9453698.996476253,-6461527.779585488 L 9460982.630758855,-6456920.545807953 L 9462124.100817451,-6448060.330348631 L 9459395.437459126,-6437807.027122241 L 9462243.657950563,-6427963.0703701945 L 9470668.762291761,-6415442.584183186 L 9477354.388269823,-6403218.4042861415 L 9485551.176335404,-6388433.778933565 L 9488051.523418114,-6380006.5631695585 L 9494650.320193356,-6377196.684418537 L 9503521.0364562,-6381399.397658898 L 9517642.58178027,-6378211.478367405 L 9560170.078167517,-6369828.172854349 L 9566083.926115908,-6368780.763383987 L 9570627.98773009,-6360013.499827605 L 9576770.1519541,-6360716.628136698 L 9583825.469961086,-6361068.214396424 L 9593609.340006907,-6360013.499827605 L 9600436.45305777,-6368077.130100279 L 9606024.134898135,-6375142.223375047 L 9620004.304468902,-6383900.242471901 L 9631614.593400167,-6395818.692737737 L 9641398.463445988,-6406390.706400402 L 9648671.188418493,-6407796.216700914 L 9654595.945676984,-6402865.215757531 L 9654813.352642504,-6393717.664681091 L 9647540.627669998,-6387031.347593402 L 9641855.095997224,-6378958.052218554 L 9643213.973021334,-6370883.951302328 L 9652997.843067156,-6370180.141429079 L 9663879.768570162,-6358055.438704425 L 9679555.890583161,-6329687.68052284 L 9684904.458157307,-6323752.394618138 L 9692655.41166226,-6318170.917751718 L 9701276.215668274,-6315647.970794272 L 9710810.062137771,-6311619.473620222 L 9717843.672844054,-6299952.766948145 L 9720735.41925639,-6289430.888677369 L 9710396.955507439,-6292842.577144227 L 9690198.590500452,-6293531.78054625 L 9677892.55475173,-6291431.356743631 L 9672098.375255939,-6290244.244091324 L 9663455.86394922,-6283299.844468657 L 9657313.69972521,-6276361.150766543 L 9654585.036366886,-6264577.464088979 L 9657835.454178559,-6251265.173783216 L 9653400.151706882,-6223632.484488663 L 9647366.746625379,-6213246.087940382 L 9634636.694936221,-6195252.121263145 L 9627277.029441407,-6191346.179453179 L 9614949.28639198,-6188130.777336775 L 9603045.447963491,-6182810.165162455 L 9579727.020268552,-6177640.153128921 L 9554538.870406248,-6175011.463805403 L 9545581.102301605,-6171155.685179394 L 9539210.621801978,-6158887.570900318 L 9534688.378807992,-6148636.934989815 L 9531883.572917964,-6140861.184896484 L 9524752.223698765,-6115485.998925213 L 9520708.209237225,-6092829.302561673 L 9524676.081167063,-6064781.9595289035 L 9527643.85879161,-6033716.096272468 L 9527459.068436893,-6023026.19922334 L 9533601.232660905,-6007184.800568277 L 9536721.184029367,-5997482.101907367 L 9535253.659182237,-5983737.136087048 L 9526415.448210709,-5972892.761722342 L 9521121.31586756,-5958539.639241455 L 9516120.621702144,-5952449.140393246 L 9501716.436190952,-5949704.772818542 L 9488149.37325052,-5948013.747337864 L 9474462.753176978,-5935748.11604788 L 9463515.594452368,-5927270.500070243 L 9446371.94759224,-5916511.912745474 L 9438349.15189077,-5914485.768040549 L 9433881.121488798,-5919961.39307619 L 9430935.051164955,-5932180.876623153 L 9425043.021836758,-5937564.176734066 L 9416770.091239475,-5937986.396076165 L 9410106.172562115,-5938121.810779944 L 9388559.728521623,-5941444.534583674 L 9374786.167925771,-5941213.427088327 L 9364425.996876115,-5938583.868096527 L 9352620.119599525,-5937261.555270957 L 9332204.23630753,-5941723.471206993 L 9318995.956085926,-5945509.82884458 L 9310103.421202889,-5949130.388495428 L 9288894.052580517,-5959825.439844726 L 9261009.7446512,-5972580.72037077 L 9249573.448084043,-5976316.61549295 L 9242800.770264182,-5972476.70907551 L 9241757.150037995,-5965193.770782828 L 9239974.36839294,-5947543.187030161 L 9236723.839261776,-5936528.781708274 L 9217253.837683052,-5880990.85598616 L 9205252.149422158,-5842531.363899258 L 9189989.245358981,-5805816.134985221 L 9185162.543557676,-5781280.4859849885 L 9176030.894408412,-5750259.3670546245 L 9166953.569170658,-5727867.491953074 L 9163289.93340916,-5715671.119923703 L 9162952.96931053,-5710708.733023744 L 9164561.869910965,-5703747.335139105 L 9178476.806260124,-5696132.548349901 L 9193044.074825332,-5691467.527519158 L 9196283.583326906,-5688562.937593879 L 9197859.867316538,-5680659.165506464 L 9197338.11286319,-5667785.085326418 L 9194652.975425767,-5655585.390566845 L 9190424.05929002,-5646022.459978236 L 9186249.578385271,-5641298.685044145 L 9181488.10980557,-5640998.285565712 L 9172356.46065631,-5647132.430297568 L 9164203.198511628,-5653988.202575692 L 9157876.243932903,-5656079.236352206 L 9141863.157821272,-5652252.601633859 L 9127002.451078333,-5647039.914382971 L 9122066.99013452,-5646878.092758803 L 9113446.186128508,-5650231.94766365 L 9104781.967521086,-5657174.959771168 L 9101357.668664794,-5670590.347878881 L 9093910.951328177,-5676690.5677163275 L 9083898.765006742,-5670590.347878881 L 9054144.734910062,-5660362.847672613 L 9021368.491957834,-5648188.694795288 L 9000550.411345601,-5641899.671867776 L 8992397.149200922,-5642885.888430077 L 8976221.091354769,-5641460.564130343 L 8962240.921784006,-5638063.607148047 L 8951750.284291137,-5633351.887489366 L 8930964.9316092,-5626873.159060014 L 8912147.150927031,-5622536.176609034 L 8900014.996222926,-5612724.20583144 L 8891296.453703998,-5603244.958691246 L 8891676.94372353,-5599640.132765041 L 8898003.898302255,-5594043.868733084 L 8905244.00666396,-5589653.747040389 L 8919789.456608972,-5590680.240325392 L 8933954.416534452,-5591361.966478375 L 8945727.78851973,-5585434.000646464 L 8956261.840614006,-5581637.360665186 L 8959164.385016952,-5576709.964621841 L 8956261.840614006,-5571923.024727945 L 8950152.2930008,-5570799.244729911 L 8948021.526627526,-5567436.564280964 L 8949086.965473907,-5562959.985073288 L 8945086.36561378,-5551266.960444037 L 8942999.125161406,-5533534.875787143 L 8945064.658313075,-5516110.79977286 L 8946227.835672373,-5500062.253879009 L 8945521.179544818,-5491987.927135959 L 8945108.072914485,-5480506.6795510175 L 8949619.629237356,-5472744.44377808 L 8953598.410477288,-5457979.655287546 L 8960773.285617387,-5448758.020118342 L 8971622.59450959,-5416840.381556221 L 8978003.872999823,-5398240.816895726 L 8983906.922957608,-5377200.917914778 L 8979634.592220454,-5365854.113909176 L 8979895.413787382,-5359285.701405272 L 8986798.558050456,-5353811.846255208 L 8989831.568896608,-5343127.295456777 L 8993027.662796773,-5336597.177821814 L 8992136.2163145,-5330094.048726355 L 8989179.34800005,-5327584.903809631 L 8974242.498725409,-5331516.425838464 L 8962001.696198288,-5325039.24186363 L 8948999.913632108,-5318536.693796417 L 8947249.748597855,-5315078.973220644 L 8946890.96587903,-5311302.907054808 L 8948238.933593046,-5307981.594615182 L 8955729.176850561,-5302166.583041702 L 8966089.23658073,-5298544.217451043 L 8965556.572817283,-5292734.908837687 L 8952761.287906522,-5290043.058733261 L 8933421.752771005,-5281164.398742653 L 8928073.185196862,-5271642.865542146 L 8923931.320902916,-5261199.427740584 L 8923583.447494188,-5255147.340869643 L 8925518.514202647,-5238946.166247364 L 8928464.58452649,-5220998.773330616 L 8933954.416534452,-5202137.668315138 L 8934400.13977559,-5196306.705587306 L 8931497.595372643,-5192159.683717335 L 8928866.781846726,-5189489.009563564 L 8913495.118641047,-5206472.831581626 L 8896775.487721352,-5223067.371687477 L 8883675.855322761,-5226889.159446711 L 8860857.474780466,-5229629.395155484 L 8848801.573927555,-5229769.264437887 L 8841909.33897458,-5233682.21882439 L 8835180.075756127,-5243305.643678222 L 8827135.572753951,-5252015.67605977 L 8816840.634925898,-5261273.457089526 L 8812590.122808939,-5275365.839444894 L 8808339.499372488,-5277898.031670211 L 8800903.691345971,-5276091.354425503 L 8788445.48185333,-5276528.20666827 L 8781455.39706795,-5277772.15654046 L 8771030.104116177,-5280186.523370306 L 8754419.121019498,-5285936.150215199 L 8741276.074019497,-5291392.5322052855 L 8724773.85006532,-5292430.814377223 L 8715207.275665527,-5291348.032628047 L 8685496.771489749,-5290310.022207311 L 8660841.1740714,-5296036.0773652 L 8640892.832640737,-5297104.507934624 L 8628619.413502814,-5296770.638787186 L 8622727.272855127,-5297482.917483064 L 8612628.14601138,-5297438.3889797265 L 8597821.763179947,-5298685.115088202 L 8577982.069572298,-5307506.152684081 L 8570274.530668754,-5307951.926331973 L 8565371.686335744,-5307632.427704934 L 8532247.569974791,-5301142.120852964 L 8516962.95861091,-5299635.12750664 L 8484567.205678215,-5300369.971201371 L 8452736.844439259,-5301097.574950828 L 8442507.139832811,-5302463.542946242 L 8436854.224770837,-5301765.633689369 L 8424852.536509942,-5286202.9968230985 L 8419721.487220807,-5283794.518113358 L 8389728.231538415,-5287188.786108095 L 8354266.851148763,-5297431.094228025 L 8328654.685346026,-5308650.297030706 L 8306912.65296021,-5320530.1282982 L 8278147.80785872,-5339324.908035812 L 8260917.220476283,-5348632.1540095685 L 8258438.58069428,-5343268.867123157 L 8253883.609770002,-5341561.445557471 L 8247241.398393348,-5340726.40265484 L 8231989.40364027,-5341703.146129275 L 8224955.792933989,-5332171.866012675 L 8206312.004615931,-5325359.336058079 L 8194451.692108342,-5319265.559656589 L 8188244.29466273,-5312395.457516811 L 8176438.306066647,-5266878.216095263 L 8173285.738087382,-5250302.57269094 L 8181199.88596584,-5222448.900655338 L 8172144.268028788,-5224068.590449609 L 8161501.568111498,-5231191.310905603 L 8157816.225049295,-5236793.154011102 L 8147564.813142143,-5240229.418143168 L 8110190.184664229,-5245408.605501781 L 8103211.009188943,-5251808.931753561 L 8098819.121318677,-5257016.580078267 L 8089154.697086477,-5260423.290052599 L 8075468.077012936,-5263047.610665296 L 8045703.137606156,-5275158.5814004205 L 8033016.611837902,-5275617.526904802 L 7994609.272443896,-5284943.055716538 L 7988347.551086775,-5284839.244477977 L 7985477.623294633,-5284446.47199755 L 7970562.481320697,-5278342.39953447 L 7960930.7850187905,-5276565.205847653 L 7950668.46380154,-5279023.703316996 L 7932252.991759101,-5271502.221826122 L 7922316.836649873,-5261487.827568639 L 7914098.341283587,-5249246.707269311 L 7906216.8100159345,-5241527.649715798 L 7903901.253287942,-5229997.706963203 L 7898378.804669179,-5224009.780995337 L 7891758.30059323,-5212045.139758681 L 7891758.30059323,-5205076.466530813 L 7897759.089063932,-5198303.899264413 z" /></g></g>
</svg>
