<?xml version="1.0" encoding="UTF-8"?>
<svg xmlns="http://www.w3.org/2000/svg" viewBox="11144744.252918627 -2571092.409914939 839146.8043860011 1005915.8650202618">
  <g id="map"><path fill-rule="evenodd" fill="currentColor"    d="M 11368774.72814009,-2557113.9130808106 L 11374960.418285,-2545661.123798364 L 11388136.0818958,-2532930.6349541857 L 11403866.527820308,-2514784.988498112 L 11408856.312675625,-2506455.053348882 L 11419433.890690804,-2500038.817234046 L 11422455.992226858,-2493736.289280222 L 11424858.489477158,-2484093.6689116363 L 11425923.817004051,-2476913.5386118763 L 11428282.899652941,-2472672.325045001 L 11431989.838696357,-2471005.405208437 L 11436805.742507055,-2472900.52686399 L 11440425.852347653,-2476702.8969757683 L 11443447.953883708,-2487283.815164242 L 11445415.637202969,-2488413.7132644495 L 11448676.96432474,-2479710.355860775 L 11452123.081801228,-2478212.4324160446 L 11456743.285947112,-2477094.8266765983 L 11460298.051246613,-2473309.9799979567 L 11461363.490092997,-2466707.3240668774 L 11460189.4034236,-2459949.2983660754 L 11455840.930154743,-2452358.60823598 L 11453384.108992934,-2444414.8307226724 L 11451688.26787019,-2432167.6568818144 L 11449340.094531396,-2423614.8607381713 L 11452971.0023626,-2416051.5011131754 L 11477539.547939148,-2378963.6874108417 L 11489367.243835934,-2372884.9361466267 L 11517512.373332178,-2365645.423112694 L 11527655.137416316,-2360646.3583795805 L 11536601.996210862,-2355793.8594221286 L 11545440.095862906,-2358158.890816178 L 11553908.614805512,-2369180.4406634094 L 11564094.79349106,-2375362.7684566383 L 11583021.333315732,-2384870.0067478633 L 11588511.165323693,-2385382.183978103 L 11598969.074886268,-2381622.78508182 L 11616145.338357197,-2370558.6989924693 L 11628592.749859229,-2360158.097793172 L 11636267.672151972,-2354713.138629978 L 11642148.903489562,-2349798.47156874 L 11641257.457007287,-2344275.288430763 L 11636528.60503839,-2338881.5921402476 L 11630505.997947492,-2335874.7975066225 L 11622624.57799933,-2330663.38899706 L 11618167.345587967,-2325395.495616887 L 11620885.210955685,-2323417.576561979 L 11632462.771956656,-2322100.983240128 L 11646116.886738887,-2317450.190546064 L 11650302.165634243,-2311989.0353590534 L 11650910.97192939,-2307300.2162699793 L 11652585.10575143,-2299669.641367749 L 11655009.310302436,-2297370.0648723366 L 11667695.83607069,-2298737.0831906716 L 11671609.49540851,-2297028.326106036 L 11676153.557022693,-2293072.9907940305 L 11680665.00202607,-2282843.8484481378 L 11680523.737592254,-2275177.020934972 L 11671381.179132892,-2266773.3004520866 L 11667967.678267207,-2261662.343661324 L 11666478.334799886,-2253628.701604683 L 11659955.680556342,-2243998.5614787354 L 11642670.7692624,-2227920.9016680582 L 11638039.655806419,-2226951.494812444 L 11606154.859336464,-2235810.828910274 L 11591381.093115835,-2235262.371113795 L 11584217.127285834,-2234973.783940972 L 11580792.71711005,-2234586.95870781 L 11578727.295277873,-2231198.7922524805 L 11582966.898084735,-2221470.542789211 L 11584228.036595931,-2211833.6941508283 L 11580292.669957409,-2204501.2417619526 L 11569660.768030724,-2198081.789048977 L 11565692.896100888,-2195005.41292931 L 11565160.232337443,-2190875.4833936924 L 11568138.807952598,-2186573.794221155 L 11577933.698628008,-2182140.544025943 L 11589315.671283657,-2177973.167388717 L 11626853.382815585,-2153033.1938570784 L 11634887.087827152,-2147176.673818125 L 11645497.171133641,-2138535.9721344784 L 11656987.902931796,-2131805.1852025073 L 11687785.553254662,-2122975.9612041637 L 11701363.52550519,-2117162.771615351 L 11704853.057583086,-2113886.894031357 L 11704733.500449976,-2109871.505489455 L 11701178.735150473,-2104733.03223248 L 11698232.66482663,-2095715.1736557072 L 11698102.198383419,-2090299.6175326274 L 11701298.292283585,-2085040.027177218 L 11706722.891069941,-2077233.5996331917 L 11718963.69359706,-2065114.559284503 L 11725671.138195317,-2059758.4951231321 L 11733074.329611035,-2058539.912494584 L 11739553.457933675,-2055616.6647950043 L 11746271.811842032,-2046614.8711549302 L 11754055.493277278,-2035639.6932592278 L 11755077.29488327,-2027983.4691915286 L 11758371.238615843,-2018177.2316082742 L 11765513.497145139,-2006886.092392282 L 11775319.185811156,-1995971.807029408 L 11789038.4224955,-1982452.2419042068 L 11796919.953763153,-1972917.9986370148 L 11800561.770904455,-1969220.4857069396 L 11829870.077760002,-1946076.153328731 L 11836979.719678495,-1937559.1149810352 L 11847285.566816645,-1921120.596893413 L 11851666.545376815,-1918710.7465097215 L 11855775.793059958,-1915482.8971586954 L 11858417.515895972,-1906466.5512400996 L 11859276.234447952,-1900003.5330763354 L 11860667.728082865,-1880205.7814152662 L 11865951.062435407,-1874323.3181727184 L 11870832.199467711,-1867104.0429625222 L 11872941.14722079,-1861842.8791670965 L 11877354.853711251,-1857937.3967322367 L 11882192.464822656,-1857189.2996125715 L 11887986.755637934,-1861576.4401571667 L 11892530.817252116,-1865749.0406244178 L 11894607.148394393,-1864513.01641421 L 11899249.05984098,-1850689.5025610155 L 11903467.06666663,-1845653.0572688344 L 11911402.92184579,-1840861.189661129 L 11918947.489014816,-1837151.9538520274 L 11935384.479747387,-1820515.7156446034 L 11944189.962788627,-1814456.3089164891 L 11950158.245968016,-1812527.4130836274 L 11955311.113877345,-1809705.0285106632 L 11956843.871946078,-1804474.017157998 L 11954821.864715308,-1799125.3997650985 L 11951332.332637412,-1795660.3179004022 L 11932210.093147926,-1786041.9233331294 L 11929655.422153711,-1781861.2533323579 L 11932286.235679626,-1775473.1522701562 L 11937080.320870131,-1767471.966900377 L 11942287.624010459,-1760607.9580608518 L 11948897.21877631,-1753881.3673322333 L 11962344.613264136,-1742943.377870702 L 11973998.428116303,-1734372.5951937067 L 11980390.615916634,-1724936.8137944473 L 11983891.057304628,-1718631.5717500874 L 11981727.674320552,-1711088.738547308 L 11976824.829987543,-1702855.6769495343 L 11972998.222491525,-1695773.6357652936 L 11966432.153646575,-1691670.685700459 L 11964660.169992128,-1686881.8364349713 L 11967367.014730256,-1679511.891546594 L 11969573.923635235,-1674432.958425192 L 11968378.129665133,-1668163.1308182075 L 11969008.643260986,-1655234.703517888 L 11962964.328869384,-1650621.430504417 L 11957354.828408819,-1638875.8240303094 L 11953473.897001294,-1638005.2930372674 L 11943766.058167685,-1642268.0632168662 L 11940385.1739128,-1639937.2014818261 L 11934188.685777286,-1631402.0060844196 L 11923361.084185787,-1622067.153542091 L 11918132.073744755,-1621960.4905192254 L 11914544.69183445,-1623099.8998537483 L 11910315.775698705,-1619115.3492434572 L 11904293.279927298,-1611798.847373462 L 11901521.201967563,-1612034.4938295889 L 11891139.323617201,-1610345.8375598898 L 11887084.399845565,-1612690.7765465234 L 11882040.29107874,-1618739.3154021946 L 11873941.352845566,-1624895.954694969 L 11866570.778040653,-1629274.3743161198 L 11862613.704101425,-1632227.3519747201 L 11858993.594260827,-1637325.8188598987 L 11855688.852537647,-1640639.2900482614 L 11849622.83084534,-1633372.7390685154 L 11839382.216928795,-1626445.088641559 L 11829696.19671538,-1627758.6383584172 L 11824956.435436385,-1628909.4581744699 L 11821097.211329564,-1618784.2506966891 L 11818259.788828734,-1616971.7313328446 L 11800800.88517068,-1615226.7908486004 L 11797517.850748206,-1613599.7419379351 L 11800322.656638233,-1604394.7160292054 L 11810628.392456893,-1588802.4446977437 L 11813748.343825355,-1579852.6750979219 L 11807301.832113516,-1565176.5448946774 L 11789234.122160316,-1565557.4270143646 L 11781102.567316338,-1571533.3258387796 L 11773601.637387706,-1579847.0522527106 L 11770894.681330087,-1583965.7073629342 L 11747717.629388453,-1592137.5703313297 L 11732259.025660463,-1586504.4267456282 L 11727530.062372075,-1586790.2331688765 L 11720257.33739957,-1592748.6888850494 L 11715898.066140106,-1597233.7251531102 L 11711593.118792146,-1603990.871446016 L 11709201.530851943,-1610850.76843185 L 11708951.507275622,-1613969.9554681724 L 11715669.749864487,-1616455.533770264 L 11726638.727209294,-1622067.153542091 L 11735596.383994447,-1628381.7531358902 L 11741488.524642136,-1635107.7635284783 L 11743912.72919314,-1642071.4776197271 L 11744227.985991068,-1650188.7781357574 L 11746771.858994674,-1671148.8841534667 L 11749402.672520591,-1681418.8911143134 L 11747924.127043875,-1693995.0879364582 L 11743140.95116347,-1703908.6001878476 L 11743140.95116347,-1718789.303945958 L 11744858.49958692,-1726063.986435879 L 11745673.91485698,-1730826.7163809154 L 11752413.86474655,-1736870.13700576 L 11757077.594813334,-1745537.8056243467 L 11759664.882418351,-1756821.2642176177 L 11759904.108004065,-1764982.4279141452 L 11757795.048931496,-1770001.3151468132 L 11751152.837554844,-1774778.505952954 L 11739977.473874107,-1779308.07147014 L 11732954.772477923,-1785030.617009496 L 11730095.642676389,-1791952.5773172972 L 11730356.575562807,-1798028.7799086832 L 11733770.076428492,-1803269.5673601103 L 11725355.881397393,-1809111.1728009938 L 11705103.08115941,-1815559.5014388089 L 11693797.251035463,-1823288.5476641778 L 11691416.461085867,-1832299.6154599818 L 11682969.649443962,-1844123.5957214797 L 11668435.10880905,-1858759.2295174417 L 11660781.893817011,-1879837.108875658 L 11659999.206477243,-1907369.7524481239 L 11661716.754900694,-1929807.372418883 L 11668065.528099615,-1955809.105806585 L 11659564.281226715,-1974633.0273236048 L 11650236.932412637,-1984561.491375569 L 11637256.96846665,-1991865.3444235157 L 11624885.699496321,-2002343.9767068475 L 11613144.944121845,-2016001.8134180757 L 11599066.924718674,-2036188.3719697054 L 11582651.641286809,-2062928.439352611 L 11571617.542039888,-2074920.2366731432 L 11565964.626977913,-2072143.5408494642 L 11554104.314470327,-2074628.2559412753 L 11536003.987906322,-2082376.4337982845 L 11520230.127380406,-2086552.4663292435 L 11506760.914272383,-2087159.7734439655 L 11497998.845832553,-2085406.6580261483 L 11493933.12407031,-2081311.0946839945 L 11493617.867272384,-2077262.214889358 L 11497031.36813807,-2073276.9909773462 L 11495205.060572114,-2070168.5082152344 L 11488138.83325503,-2067941.873119643 L 11482442.392272156,-2063517.9291308639 L 11476061.113781923,-2053734.7177026442 L 11471625.699990755,-2040886.5623887577 L 11464950.8720033,-2035936.8534051783 L 11454623.428883936,-2034845.375561083 L 11444469.866809191,-2031177.070014473 L 11434468.478478359,-2024938.803493105 L 11429750.424500069,-2020204.3496365487 L 11430293.997573612,-2016972.444698214 L 11428130.725909026,-2016253.0904480156 L 11423249.588876724,-2018051.6395805303 L 11420944.941458829,-2022294.4737231748 L 11421184.055725053,-2028977.4751382603 L 11416096.421037327,-2033462.5608287195 L 11405660.218775459,-2035748.304270218 L 11393756.38034697,-2042927.2615566265 L 11380374.219080748,-2054993.1957512368 L 11371090.28486808,-2061423.5011346228 L 11365883.093047244,-2062218.9646972727 L 11358436.375710629,-2057435.7518882602 L 11348739.446187116,-2047089.4820108777 L 11340727.448476253,-2042984.513161249 L 11334400.493897526,-2045116.868346486 L 11329519.468184713,-2041458.0923118098 L 11326105.967319027,-2032011.266553755 L 11319800.720041005,-2024607.5273874274 L 11306016.250135057,-2016549.9730762867 L 11305059.570431178,-2015596.5493549532 L 11289318.326516066,-2004654.8202615376 L 11276631.80074781,-1993701.747771645 L 11261912.358438687,-1978992.462902396 L 11254976.708884304,-1976718.624252561 L 11248356.204808356,-1980269.1967329108 L 11238354.816477526,-1983905.8234833435 L 11233082.391435083,-1988900.1995534338 L 11243159.810978124,-2013821.0103223934 L 11255878.953357184,-2041475.301672517 L 11259292.45422287,-2054249.5562598966 L 11259825.117986314,-2063569.3784505946 L 11258575.000104707,-2071153.0695338938 L 11253596.013239995,-2079088.9838781448 L 11248899.7778819,-2085246.2782087817 L 11248497.580561664,-2089348.3895861097 L 11249997.722019594,-2093692.0625552402 L 11255107.175327513,-2100094.6225976776 L 11261694.951473169,-2110049.349669893 L 11267815.408396473,-2130553.4200311718 L 11275142.457280487,-2152245.647042079 L 11274425.003162324,-2165407.135385257 L 11268489.336593736,-2179855.219182688 L 11265260.737402258,-2193582.663765038 L 11267848.025007276,-2212312.2800845103 L 11266858.728692597,-2219601.6587260976 L 11260488.35951246,-2223247.3340237676 L 11239539.81245702,-2226980.329314275 L 11232810.660558056,-2226339.835523043 L 11227483.800284617,-2223939.7119702813 L 11221765.65200104,-2218846.005867305 L 11214764.657905558,-2215633.6636367277 L 11201578.08498466,-2213874.9412694937 L 11189119.875492021,-2220207.313024412 L 11178716.289840955,-2230962.156255212 L 11176215.942758247,-2244160.369933231 L 11183847.45044958,-2259876.1348666092 L 11189228.634634526,-2272597.117862173 L 11192402.909914495,-2283538.306462458 L 11192055.036505768,-2288718.9369024723 L 11189783.005698677,-2294121.1333144307 L 11186673.963640312,-2294850.764764611 L 11179988.22634276,-2301569.7811138416 L 11173487.390719412,-2313397.624127861 L 11167345.226495404,-2318801.2451893725 L 11161561.84499022,-2317780.67136872 L 11156224.075406684,-2313304.9020657283 L 11151332.140383773,-2305370.5297158863 L 11147505.532887755,-2302125.8842724385 L 11144744.252918627,-2303580.113427823 L 11145581.375489393,-2310580.4359482005 L 11146385.770129865,-2317177.664133725 L 11152419.28653086,-2342951.359150923 L 11159702.809493972,-2359745.431501769 L 11168247.470968284,-2367534.9580808165 L 11177303.088905334,-2370814.5214824523 L 11186869.551985634,-2369593.323505265 L 11194859.842395796,-2371035.5702958787 L 11201295.444797536,-2375141.666278538 L 11200708.457122585,-2377486.0125162406 L 11193098.656731956,-2378079.4746010466 L 11190087.464505997,-2382571.2903283634 L 11191631.131884828,-2390970.365251132 L 11195022.925449807,-2396432.2047754694 L 11200262.733881446,-2398953.9870337346 L 11205328.661268469,-2407430.7431055675 L 11210220.596291376,-2421876.7799673807 L 11216177.97016067,-2429197.5666156374 L 11223178.852936659,-2429384.332641789 L 11235202.24849826,-2435599.2910362626 L 11252215.428915177,-2447848.87058915 L 11258727.17384862,-2459674.584066468 L 11265162.887569852,-2454239.8453721115 L 11262793.006930355,-2440537.8607050776 L 11266152.072565041,-2437642.264000834 L 11267750.175174868,-2432757.0981041095 L 11266847.819382498,-2425084.796460134 L 11268250.222327512,-2418576.0815498144 L 11270859.328552725,-2415421.78555813 L 11274598.884206945,-2413847.8337771795 L 11292644.886859443,-2419421.709379657 L 11303646.36949556,-2419835.6411484596 L 11308266.573641444,-2416168.0379703403 L 11312473.671156993,-2413882.8142643906 L 11317691.772287928,-2412116.5653499668 L 11321724.877439369,-2409790.925486144 L 11324323.074354485,-2410536.9399339855 L 11330486.945879197,-2416238.008215652 L 11332389.395976853,-2417246.756875046 L 11332552.479030868,-2420039.744381575 L 11328214.915072108,-2425166.3901541964 L 11323746.884670136,-2429471.8014833946 L 11323888.260423446,-2439043.3147254903 L 11326029.824787326,-2455648.0945105646 L 11326453.840727756,-2464257.5554362633 L 11326084.148698831,-2484889.741433484 L 11325257.935438165,-2490708.8678846476 L 11321148.687755022,-2497420.309437795 L 11310386.430704618,-2510288.281621481 L 11307364.217849074,-2518162.7129979865 L 11305635.760115527,-2526046.684661396 L 11305809.641160144,-2531034.7330837846 L 11303081.08912131,-2536740.512056518 L 11301656.978875592,-2542007.756357597 L 11306483.680676898,-2544738.895768416 L 11312277.971492179,-2550884.1072853208 L 11315202.223195827,-2560270.864544 L 11318017.827076463,-2567121.7442129105 L 11322029.336246688,-2570045.16785773 L 11325508.070333978,-2571092.409914939 L 11327867.041663378,-2570498.1775181713 L 11336976.983511936,-2558230.896090285 L 11348511.1299115,-2564363.350834831 L 11357305.814962132,-2564339.8653135872 L 11364774.239599451,-2561094.00196047 L 11368774.72814009,-2557113.9130808106 z" /></g>
</svg>
