<?xml version="1.0" encoding="UTF-8"?>
<svg xmlns="http://www.w3.org/2000/svg" viewBox="3908270.8065477796 -4120304.5190020124 164348.4226639932 214950.4562991988">
  <g id="map"><path fill-rule="evenodd" fill="currentColor"    d="M 4004860.0570413237,-4113604.2485698233 L 4024319.1493099513,-4113524.9713762384 L 4036842.5920241945,-4114099.6760710273 L 4040484.409165497,-4120304.5190020124 L 4050235.773920006,-4117489.111323449 L 4055703.8986272626,-4111477.4868433997 L 4050768.4376834515,-4105178.564314354 L 4043821.87881897,-4097939.7446280965 L 4044224.076139206,-4096086.225939662 L 4049409.5606593387,-4095486.103038289 L 4058215.0437005763,-4091569.2731786803 L 4063650.6631165217,-4087007.97139744 L 4072619.229211773,-4058547.9805966774 L 4067074.9619728136,-4046853.018729561 L 4058432.5619855877,-4036436.2678633705 L 4054573.3378787655,-4035498.1663150256 L 4047007.0634090374,-4030323.2012089533 L 4040658.4015296064,-4023250.1424100306 L 4038429.785323925,-4018775.1070420127 L 4038919.0344859613,-4014603.0276082307 L 4047887.600581213,-4009365.670761999 L 4048137.624157535,-4007251.6706649824 L 4046300.407281482,-4005602.774852898 L 4039049.38960968,-4006747.890660898 L 4029700.3334948984,-4007277.9391314676 L 4024177.884876135,-4007271.3720091986 L 4017763.989775099,-4006211.300201717 L 4009599.81832032,-3999826.676331021 L 4005958.0011790185,-3995635.3840314737 L 4003990.3178597563,-3992929.1786784395 L 4001087.7734568124,-3984252.7365563246 L 4004349.100578583,-3978304.611159751 L 4010469.4461823967,-3974943.3174366704 L 4011339.185363965,-3973220.745318542 L 4009980.308339852,-3970206.662780297 L 4003892.4680273496,-3966476.0575954774 L 3999326.699112463,-3961899.3315128507 L 3998011.2366897585,-3957239.6816519126 L 3992934.511312132,-3952751.178621126 L 3989771.034022768,-3950608.6032655574 L 3983846.276764278,-3944488.894446078 L 3977943.338125983,-3939536.9869966493 L 3966006.8830866925,-3931869.2840255755 L 3963300.0383485635,-3927286.634953527 L 3960669.224822645,-3931394.6143211704 L 3955462.033001809,-3928599.449128589 L 3951080.9431221485,-3911173.960374198 L 3941960.091963493,-3905354.0627028137 L 3930567.321317237,-3905866.46616592 L 3921044.2728383443,-3907520.7381500104 L 3908270.8065477796,-3906417.819850331 L 3913445.381757815,-3916561.924874435 L 3918837.475252859,-3929730.427621269 L 3924164.2242068076,-3947535.345241103 L 3933556.8062424907,-3962323.0534762405 L 3953048.6264414107,-4012664.918128369 L 3964289.223343752,-4033123.564159849 L 3968300.732513979,-4062183.767394017 L 3985716.1102511324,-4087686.7378053917 L 3998750.5094281174,-4095235.5547738876 L 4005044.8473960413,-4102545.076034158 L 4004860.0570413237,-4113604.2485698233 z" /></g>
</svg>
