<?xml version="1.0" encoding="UTF-8"?>
<svg xmlns="http://www.w3.org/2000/svg" viewBox="8873033.044085981 -1097723.684167816 241467.67157881148 434250.0753818903">
  <g id="map"><g><path fill-rule="evenodd" fill="currentColor"    d="M 8902167.469896905,-1077164.84469889 L 8895188.29442162,-1075940.9114531658 L 8889687.553103562,-1083455.9631612094 L 8888382.999990955,-1086648.726774871 L 8889818.019546771,-1088876.7400397582 L 8891339.979624897,-1090001.8085341284 L 8893144.579890147,-1089643.3100193762 L 8895753.57479587,-1082639.830668404 L 8902167.469896905,-1077164.84469889 z" /><path fill-rule="evenodd" fill="currentColor"    d="M 8891622.619812021,-1011739.3211872483 L 8894840.421012891,-1003203.4824674127 L 8885643.538642025,-1009047.924449416 L 8879599.22425042,-1013885.9612782454 L 8877468.457877148,-1017810.8095429176 L 8889970.193290686,-1013429.1862354288 L 8891622.619812021,-1011739.3211872483 z" /><path fill-rule="evenodd" fill="currentColor"    d="M 8903591.580142625,-1097723.684167816 L 8914288.715290911,-1097133.521751233 L 8925703.304557364,-1097420.3548876944 L 8933704.39295813,-1095875.8425594307 L 8947412.831651868,-1078482.5363136588 L 8984722.226908179,-1047333.3028331518 L 9005018.44174757,-1015702.5160439186 L 9006866.567933721,-1008783.8329324136 L 9009692.969804963,-1002807.2335623439 L 9014563.197527168,-1001167.5071315409 L 9018661.647219704,-998427.2255595713 L 9038946.952748999,-967939.460983903 L 9041284.216777695,-961908.2648708646 L 9040947.252679065,-955267.8991067987 L 9042143.046649165,-950326.7941753588 L 9047448.08830241,-947859.1554072928 L 9054057.68306826,-946562.1370442637 L 9058384.449036412,-941990.1304892673 L 9063874.281044373,-917665.4024611437 L 9063874.281044373,-910087.3435489333 L 9065407.150432596,-906831.224392201 L 9090954.083013728,-869017.0194980188 L 9092432.517170954,-864419.9281027095 L 9092160.786293928,-860980.6592062173 L 9092899.947712796,-858007.7991186199 L 9097846.317966701,-851327.7672281781 L 9105564.766180344,-833338.0723696786 L 9109500.021499377,-829254.1597381508 L 9114185.458866866,-813530.135254884 L 9114500.715664793,-783476.8535203716 L 9112772.257931245,-770110.2693438624 L 9107999.880041448,-753845.8781083956 L 9102346.853659984,-737942.1711652351 L 9096215.59874607,-726463.1518407079 L 9087834.020325772,-716747.7872965254 L 9059177.934366787,-696113.6920765489 L 9050970.348310601,-691963.6310540225 L 9013660.953054288,-679034.3603717821 L 8986168.044454603,-666796.448406531 L 8960751.578316681,-663473.6087859258 L 8935324.202868663,-670234.2012933432 L 8916169.458087865,-686288.6614352252 L 8906363.769421848,-709943.6838768093 L 8899656.324823592,-734604.2917887226 L 8889904.960069083,-762040.4098161708 L 8882414.828131057,-846858.4952023067 L 8878838.24421136,-870591.4673532876 L 8873033.044085981,-900846.9909535784 L 8873609.233770326,-913964.0474167811 L 8877707.683462862,-926552.1592818137 L 8877696.774152765,-898958.5152779679 L 8881458.14842718,-895538.6138230785 L 8884284.66161791,-899084.7709862846 L 8886850.241922224,-927656.3229514828 L 8888959.189675303,-939753.7644516145 L 8899080.135139244,-971266.0218271116 L 8899286.632794667,-976858.5145037436 L 8897536.467760416,-988716.961139719 L 8897645.11558343,-994663.9043603607 L 8912777.664522884,-1016803.3785112078 L 8916647.686620312,-1029692.0816483181 L 8918734.927072687,-1042876.7953410879 L 8917908.825131511,-1057140.4898604492 L 8915169.252463087,-1071200.0080209088 L 8927388.347689502,-1066718.7495757781 L 8934106.590278367,-1061824.583605251 L 8940955.410629932,-1058512.6820040129 L 8946521.385169595,-1060209.960921152 L 8953239.62775846,-1060265.0371126167 L 8948456.451878056,-1067920.2630219846 L 8934237.056721576,-1074976.1319612004 L 8910657.807459708,-1079337.0842607166 L 8903276.323344696,-1084922.719500049 L 8900439.012163358,-1089775.6852553352 L 8901884.829709781,-1095456.6255411725 L 8903591.580142625,-1097723.684167816 z" /></g></g>
</svg>
