<?xml version="1.0" encoding="UTF-8"?>
<svg xmlns="http://www.w3.org/2000/svg" viewBox="-1281011.2666934114 -953948.707206115 457257.94413328473 469095.9047129422">
  <g id="map"><path fill-rule="evenodd" fill="currentColor"    d="M -1281011.2666934114,-770701.5442656599 L -1275113.6713906748,-775711.6672541988 L -1266443.9981282037,-791801.9530064757 L -1254311.9547435895,-807278.0622422657 L -1243006.0133001523,-816456.4076244694 L -1234021.083239755,-825905.0581537031 L -1224541.5606817629,-833140.7003456707 L -1210941.88113053,-841583.6125663101 L -1190151.073793543,-863843.9469175385 L -1185269.9367612393,-866422.1548067217 L -1181943.3764178639,-881823.2323462638 L -1176741.639252076,-901461.8839538053 L -1170719.0321611783,-907550.5505564546 L -1156559.5268907463,-911185.476600035 L -1153249.2191930267,-914595.5392321034 L -1148221.3630718577,-928419.8601166786 L -1145003.5618709873,-944539.9283671167 L -1144720.9216838633,-948034.9604383827 L -1139138.6944985439,-948447.1258690921 L -1129604.7367095535,-951926.152513132 L -1124065.9241256437,-950365.1762794383 L -1121620.012273934,-945721.414384934 L -1120358.873762737,-941814.3499619238 L -1091458.2188824778,-951865.5944052655 L -1088925.2551889676,-953948.707206115 L -1087397.9517752843,-953596.9370470445 L -1083761.589289031,-944523.3846401569 L -1081679.803491706,-945078.4470066001 L -1079929.5271379633,-947699.7834744825 L -1078005.3697396016,-947952.5728443987 L -1075744.1369231178,-946727.0196409591 L -1073477.560771076,-942506.6727696402 L -1069797.6723639227,-938715.3499954996 L -1063535.951006801,-936045.0457940496 L -1059568.0790769658,-932386.1461822935 L -1060008.347663053,-922701.8079141942 L -1058480.9329298786,-913283.1933697427 L -1055768.6335367006,-911114.0662110811 L -1054322.8159902773,-905491.556327908 L -1053588.9979069682,-899320.8689757715 L -1052094.1997845962,-896076.5399245444 L -1051028.8722577044,-889857.6679055194 L -1051566.990676199,-883178.6167524778 L -1050447.2279183096,-878481.3560061046 L -1045837.9330825232,-870383.0435203962 L -1042968.0052903821,-860179.8278037515 L -1042946.1866701865,-852962.0554972378 L -1044620.3204922264,-845361.5304096491 L -1047680.6046136243,-838409.1668478624 L -1053056.3341435224,-830838.3098287163 L -1053507.4007202166,-827845.4079533294 L -1050311.306820051,-825888.669060805 L -1045473.6957086477,-825493.9854200457 L -1041429.6812471097,-827039.6231354938 L -1031183.723995006,-823564.6158405351 L -1025829.8130853035,-818577.3155661315 L -1021117.2137620611,-812417.7610158167 L -1016882.8429712666,-809294.4459918885 L -1014964.1402279537,-805404.2629550077 L -1007702.3245655452,-806478.106763436 L -999266.3109142493,-810225.9663593053 L -997532.3985256534,-811990.3025148273 L -995021.2534523386,-811042.3653471598 L -989591.0886914429,-810653.2976801214 L -985791.7544706685,-817399.0596891261 L -982720.6723586635,-825159.5844199323 L -976176.3108144178,-833562.8394293519 L -972958.3982940566,-836808.2672959785 L -972110.4777326841,-842181.3356547011 L -971757.1496689063,-849112.2278183238 L -969403.632994555,-855133.8548035934 L -964000.7415089033,-858446.5553115632 L -958162.9247727225,-858397.1304490368 L -954993.9928283105,-857174.1060733298 L -953385.0922278754,-851338.7738630727 L -948694.3115248283,-846896.9025607866 L -944704.6209747974,-843859.1094459302 L -942573.8546015235,-842570.538973278 L -939220.1323023946,-839132.8337906657 L -936056.6550130312,-827390.426419058 L -923576.7382196881,-789484.9602023058 L -924212.7064705901,-779046.4809075384 L -926680.4369424954,-772212.7845693993 L -926745.6701641002,-765527.635100968 L -927577.226760326,-758930.9912706311 L -935219.6437617566,-748120.8900051597 L -957744.3634873399,-726009.0460530521 L -955999.653108137,-724072.4430611987 L -950618.46892319,-721556.0228213561 L -945139.434905836,-720248.6174511128 L -940638.7878930639,-720932.4527958864 L -935007.5801317955,-715407.7824896437 L -928947.0130945372,-708472.5658320542 L -922516.7540283544,-704863.0306955323 L -913249.1837808328,-701691.2786577372 L -905139.447557052,-701335.8113005684 L -898230.8486389307,-702549.8297553145 L -888506.757159666,-701177.2292097901 L -878157.4954201061,-695435.6380218553 L -874472.2636773947,-685949.6338038631 L -871993.6238953918,-677689.6205529177 L -868395.3326749901,-673497.1846417132 L -867906.0835129535,-666353.7732783023 L -860540.963363089,-660079.9936977633 L -850050.4371897125,-658812.2204124755 L -836445.3029834309,-651462.8232032137 L -832982.821541797,-651850.7840285825 L -831493.5893939645,-652768.7176428542 L -829819.4555719246,-651380.9119660446 L -826405.8433867488,-630124.3858628148 L -823753.3225601267,-618857.1571984118 L -825150.2708500915,-614308.1747047587 L -826982.0330710948,-610726.0451877492 L -827085.3375585509,-593576.9389695453 L -833249.2090832653,-583729.4578685076 L -834243.960052994,-572928.2924751579 L -835983.327096639,-569430.1233091375 L -842565.6485872451,-566319.5909593006 L -842614.6291631942,-558025.4554962805 L -844364.9055169368,-548002.8744015454 L -845049.7430242971,-537365.1981471615 L -843207.0714931961,-509528.76307363337 L -842864.6527395159,-488772.3964589724 L -839902.3297700163,-484852.8024931728 L -852708.4126713835,-486580.9157757909 L -890360.226681374,-502423.9852623601 L -919391.3480048426,-511502.7528901727 L -1016589.4047935355,-563411.1322983732 L -1043593.064231186,-584247.9233581435 L -1074722.3353171262,-615291.110506137 L -1143959.9416448004,-677831.7952544821 L -1159744.7114808143,-687874.1003178635 L -1179660.4363006756,-692756.5331444346 L -1191966.4720493997,-698082.1649345853 L -1200647.0546219682,-703867.6956441173 L -1207707.7159645134,-721222.3907177909 L -1225019.9005337015,-731562.206519496 L -1256975.3848803092,-746227.2275172528 L -1281011.2666934114,-770701.5442656599 z" /></g>
</svg>
