<?xml version="1.0" encoding="UTF-8"?>
<svg xmlns="http://www.w3.org/2000/svg" viewBox="3011387.9256228646 3322517.6023767428 260372.3927832893 263862.057875887">
  <g id="map"><path fill-rule="evenodd" fill="currentColor"    d="M 3198978.633450094,3516661.69431859 L 3188955.537818559,3519828.733025633 L 3187564.044183643,3520105.194655813 L 3181139.239772509,3519376.2138395146 L 3172561.9616873963,3520130.29272731 L 3165822.011797827,3521877.4977776357 L 3160593.0013567945,3522531.313393429 L 3152059.249192582,3531661.4747787053 L 3136557.119543693,3556343.4566652686 L 3132426.164559845,3561512.6339949677 L 3131273.7851911527,3571226.4487566724 L 3127675.4939707513,3578914.3623729805 L 3123272.696790387,3584926.7377119777 L 3118967.749442429,3586379.66025263 L 3106020.290787754,3583991.8071910967 L 3089463.7429220704,3580909.7604618776 L 3079832.046620164,3573447.7191705396 L 3071265.5665256586,3563643.977051624 L 3066743.2122121817,3556519.906253887 L 3062014.3602432837,3552612.907049487 L 3060394.5503327507,3550420.4690239974 L 3053654.4891236904,3547132.526051922 L 3051110.727439573,3545432.130658172 L 3048871.3132432853,3544223.1370966625 L 3046153.5591950584,3539488.9932602183 L 3044555.45658523,3535385.8432992524 L 3045185.970181083,3523951.9561657663 L 3040435.2995919893,3517139.2090517404 L 3032314.654058111,3505520.781425921 L 3027172.6954588783,3496007.8913444444 L 3020149.9940626943,3483029.9004726834 L 3015845.0467147366,3471930.811045963 L 3011387.9256228646,3460440.8229288426 L 3011964.1153072105,3455512.6348566585 L 3016225.536734268,3452148.930145194 L 3028716.362837709,3446374.031641564 L 3038413.29236122,3441913.393464728 L 3045349.053235095,3433720.6885200143 L 3052926.1256954297,3421553.7840356445 L 3056611.4687576317,3414234.0052810768 L 3060285.9025097364,3410893.620254108 L 3064308.098351079,3405734.941674026 L 3071330.799747263,3394303.4095176486 L 3079147.097793313,3381626.004823068 L 3087506.9689129065,3368016.554488234 L 3098062.728307888,3364079.2921369653 L 3112477.71180969,3359534.910983401 L 3126338.3242473425,3347672.112192989 L 3142840.548201519,3337679.0649691587 L 3169474.6269297358,3326838.810190748 L 3181889.310501474,3324089.998743549 L 3186607.3644797653,3322517.6023767428 L 3189596.96072451,3324560.4986343514 L 3192771.23600448,3330765.0192664475 L 3197293.590317956,3335956.339047815 L 3207805.9351115287,3344993.3993917177 L 3212263.0562034003,3347176.0275232513 L 3223112.3650956033,3360565.27604657 L 3234722.65402687,3369755.8005883205 L 3248083.107992388,3380345.1994437403 L 3257182.251850339,3385618.1975526307 L 3261813.25398683,3387086.140216466 L 3265661.6801030445,3396494.3518959004 L 3269553.4095011773,3403480.207110589 L 3271760.318406154,3410021.235408178 L 3271314.5951650175,3416403.3974499237 L 3267096.5883393697,3432022.8938916875 L 3260943.626124753,3447998.8369357176 L 3256008.1651809425,3454649.793658533 L 3249985.5580900447,3458852.1103790365 L 3244093.5287618474,3465170.8427935597 L 3241843.205255462,3478017.8751758914 L 3239179.775118742,3493147.814829085 L 3231493.9435159015,3499382.9781183423 L 3225514.862345904,3503474.5188906607 L 3217252.841058718,3508496.6625165422 L 3198978.633450094,3516661.69431859 z" /></g>
</svg>
