<?xml version="1.0" encoding="UTF-8"?>
<svg xmlns="http://www.w3.org/2000/svg" viewBox="2326555.6502787126 -7640709.637339641 654099.8582428899 490797.7308583865">
  <g id="map"><g><path fill-rule="evenodd" fill="currentColor"    d="M 2333013.071300649,-7416185.3280721 L 2326555.6502787126,-7417702.877419103 L 2339274.7926577707,-7440271.069231447 L 2344123.201759781,-7454960.012399059 L 2347493.2880240562,-7475867.370951963 L 2350493.682259408,-7482448.182574873 L 2350591.532091815,-7472925.265780092 L 2349276.0696691107,-7457108.564972166 L 2341242.364657542,-7430187.988300969 L 2333013.071300649,-7416185.3280721 z" /><path fill-rule="evenodd" fill="currentColor"    d="M 2534323.0158122233,-7238019.1598905735 L 2529659.285745439,-7247352.27259465 L 2524713.026811022,-7264086.498676555 L 2525223.9832737627,-7277499.390069342 L 2528028.6778442995,-7290888.567850586 L 2541563.124173927,-7330580.687893644 L 2540834.760745667,-7336925.897157413 L 2531018.162769553,-7348070.931749359 L 2518875.210074841,-7356182.237566546 L 2512178.6747866804,-7373350.702086195 L 2487588.421909428,-7374347.281352942 L 2464378.7533569937,-7373398.1275805645 L 2457084.209764292,-7374233.369010773 L 2434994.3039697474,-7381440.734979135 L 2413708.7928156746,-7393049.567758211 L 2399456.892367884,-7399864.833709255 L 2387476.9114076938,-7407496.60376787 L 2381041.309005953,-7415526.916560338 L 2370833.4230197007,-7413361.138768114 L 2363951.9860573327,-7413294.322683969 L 2364017.219278938,-7414677.650167235 L 2360092.7619505115,-7428878.434437442 L 2364191.2116430476,-7450683.541235743 L 2356755.4036165294,-7482688.869950472 L 2344601.54161172,-7521363.7476702565 L 2343699.2971388404,-7562985.509977499 L 2342840.4672673703,-7572376.876569932 L 2372735.761797867,-7595959.538914974 L 2410458.375004002,-7621290.403030917 L 2419035.5417696238,-7623584.039607188 L 2453801.1753418176,-7638617.057502831 L 2458443.0867884057,-7639815.477875381 L 2489762.6028841115,-7637026.025318524 L 2514363.765071462,-7633452.336120636 L 2535105.703151991,-7633894.0055118315 L 2546498.5851177373,-7637743.055163708 L 2556815.230246495,-7634522.2773598535 L 2565131.575445188,-7623201.585337219 L 2573687.034910105,-7624525.09889795 L 2582155.5538527127,-7631852.528073686 L 2628553.183656877,-7625162.442570656 L 2639022.002529549,-7625319.276597491 L 2650817.081815532,-7624240.781199573 L 2672580.932821543,-7617420.3184576975 L 2685104.375535786,-7611202.818152784 L 2712618.9914361783,-7614962.072749899 L 2724392.363421456,-7615177.458666226 L 2730556.2349461704,-7617625.943426511 L 2749537.0986823495,-7634699.006952241 L 2757744.684738538,-7637634.842711709 L 2765289.2519075614,-7640709.637339641 L 2772192.284851143,-7638096.465960815 L 2776736.457784815,-7623505.539562624 L 2790770.9512670864,-7598411.702166445 L 2806023.057339655,-7594015.931780033 L 2848191.771008073,-7584373.7810940435 L 2856812.5750140855,-7579313.509013967 L 2880543.9980198676,-7557288.196499074 L 2894774.1911669536,-7546507.843946819 L 2903829.809104005,-7537913.716046874 L 2917635.986310659,-7521102.436658701 L 2925615.367410721,-7508894.6833978 L 2938954.1140755345,-7499676.947932755 L 2954738.883911548,-7493476.639213296 L 2960381.000982914,-7492512.78699821 L 2960076.5421755947,-7483660.960511641 L 2957380.606747563,-7468658.1407572795 L 2952108.0703856307,-7449332.244916304 L 2946574.7124567693,-7434386.15984081 L 2945248.4520434584,-7428620.230381496 L 2949444.7515684017,-7423833.169604414 L 2970143.1637280304,-7421569.434891407 L 2978926.9394685645,-7419010.545603118 L 2980655.5085216025,-7415049.90114688 L 2976057.0116764233,-7409908.555340241 L 2969447.4169105724,-7405637.922692586 L 2966490.5485961214,-7401598.260600916 L 2961228.9215442864,-7387171.719535149 L 2926789.4540801174,-7389006.901118351 L 2922223.573845741,-7386068.949533195 L 2920049.392871057,-7379379.555532649 L 2918331.7331281174,-7371652.127017343 L 2913809.37881464,-7362500.973335498 L 2904656.0223646727,-7354553.716400807 L 2890349.6866858844,-7351619.243161215 L 2878641.547922211,-7346217.096763854 L 2869912.096093184,-7329570.749664565 L 2863411.260469838,-7307302.038586147 L 2863574.3435238507,-7291545.95348117 L 2864433.173395321,-7282769.852758637 L 2863672.193356258,-7277752.633739619 L 2859258.486865795,-7272288.881735512 L 2852040.197124287,-7257837.259676887 L 2846169.763777304,-7241891.126758953 L 2843919.440270918,-7233254.241649806 L 2845050.112338905,-7229218.803486443 L 2851659.7071047556,-7229106.986696584 L 2861193.553574255,-7225837.526541853 L 2866270.390271373,-7219488.497875628 L 2868151.0217488348,-7212159.016755305 L 2868172.729049539,-7204279.216296803 L 2866389.947404485,-7199943.0425032815 L 2858747.530403054,-7196806.354284861 L 2846778.570072452,-7196694.997561233 L 2839799.394597168,-7200444.367064339 L 2838353.4657312543,-7203415.518024669 L 2841690.935384727,-7211006.412687479 L 2839277.528824329,-7220493.484068793 L 2834320.360579814,-7225800.142990204 L 2824242.829717281,-7217878.843753525 L 2814567.607494474,-7217888.180206903 L 2802968.2278733053,-7210839.076391561 L 2795391.1554129706,-7199553.335578765 L 2788118.4304404645,-7195396.078857518 L 2768463.5271875313,-7197697.074752531 L 2763582.501474719,-7192724.620844219 L 2759527.577703083,-7169823.356873906 L 2757179.4043642897,-7165358.282703845 L 2740764.1209324226,-7166338.019694488 L 2724935.9364949996,-7157257.403150913 L 2707063.926206612,-7149911.906481255 L 2698008.308269561,-7155014.3049428705 L 2692964.1995027363,-7160775.615780939 L 2683234.5420489316,-7159750.6086828215 L 2672613.5494323457,-7157220.532918932 L 2665482.200213147,-7158605.459315308 L 2657481.1118123797,-7157986.7128390595 L 2642022.3967649,-7153556.113206879 L 2622585.011796977,-7154986.518343815 L 2614301.2832090864,-7158762.422891554 L 2613518.595869319,-7162383.096612135 L 2614116.49285437,-7171284.559224752 L 2613931.7024996527,-7185132.92695946 L 2610844.256422501,-7197372.283624742 L 2601549.524219226,-7208218.12955528 L 2591776.452164012,-7215804.330215451 L 2579307.4446807667,-7223639.828524172 L 2570088.7436897033,-7227076.243408714 L 2565044.6349228784,-7227979.748673924 L 2563903.1648642845,-7232499.21670109 L 2562076.745978839,-7236405.7036988335 L 2557761.000640275,-7239847.520467029 L 2548542.299649211,-7244467.12700326 L 2540726.001603162,-7245475.507028001 L 2534323.0158122233,-7238019.1598905735 z" /></g></g>
</svg>
