<?xml version="1.0" encoding="UTF-8"?>
<svg xmlns="http://www.w3.org/2000/svg" viewBox="637304.0847914912 -6475280.185975781 85576.8585473292 124492.91185355093">
  <g id="map"><path fill-rule="evenodd" fill="currentColor"    d="M 680886.1107150209,-6467256.644871999 L 679972.9569320438,-6462612.22605078 L 680136.0399860558,-6452231.115098832 L 683299.5172754192,-6441829.012216008 L 690724.4159918397,-6431592.014765179 L 696420.856974713,-6424166.951897839 L 704052.2533465552,-6418248.606132878 L 716999.71200123,-6412629.053351248 L 722163.4892206576,-6411450.02956492 L 722880.9433388204,-6403849.529054847 L 721880.8490335335,-6395826.955379382 L 717412.8186315638,-6391390.231018552 L 713194.8118059159,-6385016.591556558 L 710031.3345165527,-6377221.760783233 L 706704.885492668,-6362307.0262949485 L 706248.2529414342,-6352032.95970229 L 698790.737614211,-6356281.667072033 L 694877.1895958827,-6359159.951784454 L 688071.8951652176,-6359946.652569068 L 681266.6007345524,-6357595.167879825 L 676168.0567367296,-6352359.180078536 L 669188.8812614453,-6350787.27412223 L 663405.4997562624,-6352359.180078536 L 660002.7968811844,-6356281.667072033 L 656937.1694242284,-6358373.324772161 L 648262.1528261995,-6361001.18730739 L 644511.5765423925,-6366694.91404608 L 647370.706343927,-6369359.018810624 L 649838.4368158322,-6373566.041336975 L 651947.3845689108,-6379494.918779795 L 654599.905395533,-6384982.896057288 L 646066.1532313206,-6400022.333323895 L 644315.876877578,-6404623.553306697 L 637304.0847914912,-6413142.90178866 L 637391.0253138007,-6417464.861395905 L 639065.1591358408,-6421578.227456784 L 638445.5548500854,-6424765.8059703745 L 639423.9418546675,-6432368.616303952 L 644326.7861876757,-6439564.26526943 L 647588.1133094463,-6448474.681724492 L 653099.7639376028,-6460629.791450548 L 665275.3332431171,-6475280.185975781 L 674015.5830627509,-6473040.367527375 L 677831.3925681628,-6473091.273683081 L 680168.6565968583,-6467739.842607465 L 680886.1107150209,-6467256.644871999 z" /></g>
</svg>
