<?xml version="1.0" encoding="UTF-8"?>
<svg xmlns="http://www.w3.org/2000/svg" viewBox="2339372.5311706876 -7980653.596684019 800065.425475244 488140.80968580954">
  <g id="map"><path fill-rule="evenodd" fill="currentColor"    d="M 2960381.000982914,-7492512.78699821 L 2954738.883911548,-7493476.639213296 L 2938954.1140755345,-7499676.947932755 L 2925615.367410721,-7508894.6833978 L 2917635.986310659,-7521102.436658701 L 2903829.809104005,-7537913.716046874 L 2894774.1911669536,-7546507.843946819 L 2880543.9980198676,-7557288.196499074 L 2856812.5750140855,-7579313.509013967 L 2848191.771008073,-7584373.7810940435 L 2806023.057339655,-7594015.931780033 L 2790770.9512670864,-7598411.702166445 L 2776736.457784815,-7623505.539562624 L 2772192.284851143,-7638096.465960815 L 2765289.2519075614,-7640709.637339641 L 2757744.684738538,-7637634.842711709 L 2749537.0986823495,-7634699.006952241 L 2730556.2349461704,-7617625.943426511 L 2724392.363421456,-7615177.458666226 L 2712618.9914361783,-7614962.072749899 L 2685104.375535786,-7611202.818152784 L 2672580.932821543,-7617420.3184576975 L 2650817.081815532,-7624240.781199573 L 2639022.002529549,-7625319.276597491 L 2628553.183656877,-7625162.442570656 L 2582155.5538527127,-7631852.528073686 L 2573687.034910105,-7624525.09889795 L 2565131.575445188,-7623201.585337219 L 2556815.230246495,-7634522.2773598535 L 2546498.5851177373,-7637743.055163708 L 2535105.703151991,-7633894.0055118315 L 2514363.765071462,-7633452.336120636 L 2489762.6028841115,-7637026.025318524 L 2458443.0867884057,-7639815.477875381 L 2453801.1753418176,-7638617.057502831 L 2419035.5417696238,-7623584.039607188 L 2410458.375004002,-7621290.403030917 L 2372735.761797867,-7595959.538914974 L 2342840.4672673703,-7572376.876569932 L 2339372.5311706876,-7610136.12698373 L 2341209.7480467395,-7686197.075678454 L 2345645.1618379066,-7724175.629356234 L 2366365.392617731,-7746388.616502035 L 2376758.0689587,-7763732.352332399 L 2382802.383350303,-7786942.434823159 L 2384628.690916257,-7808475.873651414 L 2388824.9904412003,-7826314.507156963 L 2418829.0441142023,-7877732.021787902 L 2442614.9023509827,-7883309.041149939 L 2474793.136998668,-7897645.306793128 L 2510765.47385106,-7909616.537201683 L 2517712.032715542,-7894393.893861358 L 2521234.292723732,-7882791.577339549 L 2564555.3857608424,-7840684.333496223 L 2575578.5756976646,-7826596.362399187 L 2592330.9345476534,-7778484.141297045 L 2632455.933684598,-7754202.823524529 L 2664003.6547364304,-7761855.379839745 L 2677712.093430168,-7773643.618537467 L 2702976.3858241737,-7795420.016525502 L 2714260.5086474153,-7811399.1833557645 L 2716554.358074702,-7826838.019864667 L 2712075.4183626347,-7893174.844930267 L 2705237.618640658,-7922106.255025664 L 2707574.882669353,-7940184.664396232 L 2712021.0944511276,-7939254.74493487 L 2722750.8462102185,-7947986.863325108 L 2758027.324925662,-7964220.498570272 L 2765071.844942042,-7964948.542423251 L 2773116.347944218,-7968281.812508443 L 2795347.6294920705,-7980653.596684019 L 2802489.8880213667,-7974069.86526728 L 2808447.2618906596,-7966599.554213579 L 2811741.2056232323,-7966507.3433896415 L 2813339.19691357,-7969287.187684307 L 2812893.4736724338,-7974090.470529833 L 2814448.050361362,-7977509.833976369 L 2820840.2381616933,-7975609.948877899 L 2846582.8704076377,-7955305.524744932 L 2856475.4995959634,-7950565.569267299 L 2863237.2681057286,-7949235.135897677 L 2871347.115649,-7939755.585332432 L 2893317.464310433,-7933401.588397624 L 2896002.6017478574,-7928501.723491909 L 2897687.6448799954,-7922401.937541698 L 2918244.792605808,-7896801.781767105 L 2927485.200897576,-7883978.410629049 L 2945748.499196102,-7872230.058274949 L 2953597.413852954,-7869435.16582501 L 2985558.3528546104,-7881412.400939659 L 2994472.5950383544,-7885581.440529907 L 3001843.1698432676,-7885652.509484324 L 3009344.0997719,-7879343.900655018 L 3026455.130021225,-7870954.01895413 L 3041979.07829031,-7868291.042998777 L 3044805.480161552,-7868837.78687299 L 3057916.0218702382,-7867987.313485967 L 3062525.316706025,-7864698.072176385 L 3065590.9441629807,-7848475.107902112 L 3080516.8841275247,-7835733.366099012 L 3094333.9706442766,-7825176.883484443 L 3097867.0286430735,-7820306.700797753 L 3098943.2654800625,-7810916.8594207885 L 3098051.8189977896,-7799973.4302979745 L 3096301.6539635384,-7794307.3432634985 L 3090539.97975906,-7787783.654079695 L 3085484.9616821376,-7771294.619617592 L 3084789.2148646796,-7755638.917171788 L 3076809.833764618,-7728636.902972327 L 3078614.4340298674,-7728140.059212534 L 3095355.883569759,-7733001.401740967 L 3100095.6448487546,-7730217.411334858 L 3103759.169290761,-7724265.138450299 L 3104933.2559601576,-7707377.52615839 L 3110423.087968119,-7699799.348321016 L 3116010.881127978,-7687966.416637417 L 3117782.8647824256,-7678768.294242815 L 3128425.564699716,-7667825.63459543 L 3129284.3945711865,-7660759.255108537 L 3135785.230194532,-7635818.187990539 L 3138285.5772772394,-7621496.131834951 L 3139437.9566459316,-7610429.542457827 L 3136241.862745766,-7596399.053964412 L 3133415.349555034,-7586919.753868206 L 3130067.081910954,-7587495.431699808 L 3120511.416821259,-7584998.009730782 L 3105400.686501999,-7573594.314736878 L 3082908.4720677272,-7546789.29883224 L 3077125.0905625443,-7540861.441099979 L 3071243.8592249537,-7520522.195425922 L 3069830.6582893333,-7518462.0875772815 L 3056741.935200842,-7519400.268619555 L 3053176.1492717518,-7519883.762610949 L 3040044.0115818507,-7519477.514703022 L 3011474.8661451745,-7524759.813181815 L 3000397.240977354,-7521266.86939339 L 2985862.700342439,-7500747.79869032 L 2980231.492581171,-7497738.137643555 L 2963348.778607463,-7494903.392869517 L 2960381.000982914,-7492512.78699821 z" /></g>
</svg>
