<?xml version="1.0" encoding="UTF-8"?>
<svg xmlns="http://www.w3.org/2000/svg" viewBox="1036412.7344360385 -3919477.632390735 1763326.7829262987 1705983.3011678872">
  <g id="map"><path fill-rule="evenodd" fill="currentColor"    d="M 1059622.402988473,-3533070.643135168 L 1072895.9164316813,-3539891.827378258 L 1091757.2230347488,-3547617.3818874722 L 1101508.587789258,-3553432.072438907 L 1105683.0686940057,-3558341.5990598667 L 1119848.0286194864,-3578333.5193973766 L 1127218.6034243999,-3589444.159210711 L 1137285.1136573448,-3604625.816761351 L 1141698.8201478072,-3615221.554850492 L 1141807.4679708215,-3625065.8764342396 L 1140285.507892696,-3636922.408954471 L 1132414.8859351391,-3665386.3581596077 L 1125990.0815240054,-3693126.1088110018 L 1130990.7756894208,-3703836.509676594 L 1135013.0828502541,-3708971.8438487295 L 1143764.2419799857,-3722027.5352076096 L 1147264.7946874711,-3724627.5607283083 L 1166158.6065818502,-3728710.776053198 L 1173713.9717414805,-3737418.6206568424 L 1179486.5552560566,-3748321.8160578054 L 1180975.8987233797,-3754065.3378869956 L 1189227.0107004677,-3760080.7467944953 L 1199087.0232779912,-3766092.596736228 L 1205185.6615811007,-3773903.694286427 L 1225090.5884103554,-3786002.253350975 L 1243245.2388858672,-3797058.8616876234 L 1264367.6669859276,-3808711.2539770934 L 1280728.5151867967,-3817734.8391701304 L 1284174.7439827747,-3825605.496925093 L 1283935.5183970602,-3832417.5840452313 L 1275042.983514021,-3847957.702418901 L 1275042.983514021,-3866362.5511009973 L 1275630.0825084646,-3881688.529018674 L 1276521.5289907372,-3890755.14823254 L 1280445.8749996724,-3915970.9991409546 L 1280685.1005853873,-3919477.632390735 L 1297665.6643915023,-3911096.073287301 L 1315070.2441380492,-3907747.81858249 L 1366990.3225609765,-3876543.194478402 L 1383372.9893820412,-3872642.0197641538 L 1419714.906943867,-3868929.5329372096 L 1462525.0435182364,-3881688.529018674 L 1478712.0106744862,-3883980.3851149934 L 1506857.140170731,-3872001.642143277 L 1519261.0257518627,-3868632.0866224114 L 1540144.3395856991,-3867700.993148726 L 1575801.308320674,-3856843.315263618 L 1584867.7242483322,-3853071.257945037 L 1605653.1882497615,-3835763.882841022 L 1615621.95996979,-3830586.9076920873 L 1689447.2651520364,-3814766.953377859 L 1699502.9773943743,-3804292.0492179184 L 1709765.187292134,-3784287.8300196216 L 1710210.91053327,-3759529.5920142117 L 1715885.5328959478,-3741570.223447958 L 1725049.9099755043,-3718342.4265025705 L 1736116.6258332266,-3701916.9002885683 L 1748379.1356610504,-3688252.0834309105 L 1762435.4477635173,-3679719.3208898897 L 1794809.3820760169,-3667141.2338537876 L 1831314.3826918555,-3662303.040383905 L 1868112.8214854244,-3660669.5154532297 L 1931306.2247409872,-3643337.2192260907 L 1984878.72968525,-3623348.6331164883 L 1998108.7172075578,-3613530.9571305653 L 2024949.4049106874,-3603860.30899705 L 2078315.300880038,-3557093.5458392734 L 2107993.2997645065,-3540936.806661729 L 2128843.885668049,-3537802.2566415924 L 2147542.1092171054,-3540634.622677665 L 2180731.4587996653,-3556847.7708658343 L 2194472.4027847145,-3566482.152823948 L 2227857.4520320897,-3606891.1296776193 L 2238804.499437209,-3628038.520362454 L 2243196.4986269674,-3642962.7517955275 L 2242098.443169783,-3658165.692750534 L 2237945.78088523,-3671841.4097300395 L 2228618.4320711526,-3686194.8345230315 L 2222073.9592074165,-3705169.5863054707 L 2218193.0277998904,-3739382.2337394417 L 2223432.9475510204,-3763188.813340495 L 2229835.9333419586,-3777477.401933179 L 2239913.3528850013,-3792059.3402372235 L 2267645.375750913,-3819988.6062976667 L 2295529.683680229,-3839711.01466 L 2344645.06753262,-3865548.0138007845 L 2373192.394349101,-3865832.5393671095 L 2384987.473635084,-3868677.3784970283 L 2408501.600994838,-3886985.2044048263 L 2418013.740163632,-3887671.631832257 L 2431156.7871636306,-3883184.1182639427 L 2469890.2926656594,-3884459.6298707435 L 2486946.9990034774,-3879371.2722417307 L 2507297.649073868,-3867985.4383015493 L 2532975.0480982075,-3860913.690169841 L 2551097.0819629175,-3853852.6611177735 L 2570436.6170984325,-3844808.053332809 L 2574785.09036729,-3822281.451418754 L 2572643.4146839185,-3815590.92564933 L 2572175.9841420776,-3806897.0016058926 L 2592222.175405149,-3791410.4032644904 L 2649142.947993492,-3784159.360066205 L 2660361.948914619,-3780018.8152882173 L 2676005.3429973256,-3768170.0084476257 L 2686104.581160564,-3764522.137784512 L 2725077.2009288166,-3762855.5381228942 L 2747797.731638705,-3765406.7265487015 L 2769463.732812309,-3761246.915975372 L 2777497.437823878,-3757236.0091228946 L 2785770.257101671,-3748008.2231093906 L 2795793.352733207,-3725605.151110356 L 2799739.517362337,-3718106.1122794445 L 2795456.3886345755,-3714435.004428236 L 2789357.750331466,-3706630.3249912597 L 2785509.324215252,-3699685.115456044 L 2775192.6790864943,-3688392.193998194 L 2766593.6937006772,-3676307.8792313566 L 2767398.1996606397,-3658642.2622415954 L 2769354.973669804,-3640703.5800758554 L 2775138.355174987,-3623202.901595514 L 2780084.725428895,-3603765.3364475374 L 2778693.231793979,-3591068.3297479167 L 2774420.9010568247,-3575480.1246714974 L 2769354.973669804,-3562496.385267739 L 2752537.4929177016,-3535801.175815528 L 2749950.205312684,-3529422.3041822077 L 2750885.066396366,-3520469.70074697 L 2761136.4783035186,-3488909.1007289467 L 2761930.0749533838,-3478988.768455296 L 2768061.3298672955,-3448430.028205501 L 2773649.011707664,-3423624.499302249 L 2779834.701852574,-3404165.2858499135 L 2780791.27023696,-3398816.350592013 L 2780791.27023696,-3370215.4568575905 L 2780791.27023696,-3341676.6500691567 L 2780791.27023696,-3313198.9716730104 L 2780791.27023696,-3284781.9773265375 L 2780791.27023696,-3256424.72226067 L 2780791.27023696,-3228126.6476695244 L 2780791.27023696,-3199887.1997883776 L 2780791.27023696,-3171705.4537171787 L 2780791.27023696,-3143580.992962708 L 2780791.27023696,-3115506.7869149437 L 2780791.27023696,-3087494.678572303 L 2780791.27023696,-3059537.6373986406 L 2780791.27023696,-3031635.2675603987 L 2780791.27023696,-3003786.681158342 L 2780791.27023696,-2975991.492181182 L 2780791.27023696,-2948248.824298342 L 2780791.27023696,-2920558.3009978337 L 2780791.27023696,-2892919.057155351 L 2780791.27023696,-2865330.725445892 L 2780791.27023696,-2837792.451600186 L 2780791.27023696,-2810303.7548767617 L 2780791.27023696,-2782864.1584248072 L 2780791.27023696,-2755472.823622278 L 2780791.27023696,-2728129.4048110587 L 2780791.27023696,-2700833.0733917765 L 2780791.27023696,-2673577.5509429593 L 2780791.27023696,-2646373.910427648 L 2780791.27023696,-2619215.8712152615 L 2780791.27023696,-2592102.623814549 L 2780791.27023696,-2565033.846281079 L 2780791.27023696,-2538008.7382259886 L 2780791.27023696,-2511026.9850914697 L 2780769.5629362552,-2451307.0372205954 L 2780747.855635551,-2391785.4622827335 L 2780726.148334846,-2332468.101791399 L 2780704.3297146508,-2273337.5136353816 L 2780356.456305922,-2273123.4473885717 L 2780008.582897193,-2272915.188284835 L 2779671.6187985614,-2272707.0499683977 L 2779312.836079735,-2272492.990958211 L 2751863.453400948,-2272504.600072296 L 2724392.363421456,-2272521.895296476 L 2696932.071432572,-2272539.3089972977 L 2669471.779443687,-2272550.7996795317 L 2669471.779443687,-2257766.477791463 L 2669471.779443687,-2242999.4723132174 L 2669471.779443687,-2228244.0088853454 L 2669471.779443687,-2213494.331222848 L 2616149.4093952365,-2241451.7986967093 L 2562816.0187171972,-2269450.704347493 L 2509482.6280391584,-2297491.7685772204 L 2456160.257990708,-2325575.360261012 L 2402826.8673126693,-2353702.2079996997 L 2349493.47663463,-2381878.765705133 L 2296160.197276082,-2410088.253230536 L 2242826.806598043,-2438354.4318302893 L 2189493.527239495,-2466660.50232501 L 2136160.136561456,-2495012.945896577 L 2082837.6551935147,-2523412.519842275 L 2029504.3758349665,-2551859.626005809 L 1976170.9851569275,-2580355.031131694 L 1922848.5037889862,-2608899.3869697615 L 1869515.2244304381,-2637493.4712815774 L 1816181.833752399,-2666137.704247765 L 1779339.86903793,-2685949.3944805637 L 1739606.1579111235,-2666611.069902245 L 1708471.543489625,-2651463.339830992 L 1667455.0978704079,-2631558.0099681863 L 1667444.1885603103,-2631569.861080324 L 1620329.1046379835,-2605739.212376494 L 1584161.1794402674,-2585942.2160390723 L 1582465.2269980318,-2586089.4630416217 L 1580812.9117961873,-2586578.1250354433 L 1543188.1484224596,-2620183.5743128033 L 1513792.9010446062,-2646480.304708604 L 1500725.8852568192,-2653822.4683354856 L 1445327.072746602,-2667279.816480684 L 1390243.517034311,-2680665.4337427225 L 1332257.3055995859,-2694767.679776928 L 1321701.5462046042,-2716264.9336670996 L 1309895.5576085239,-2740323.7236816175 L 1294002.1399494957,-2770440.0599559136 L 1284283.391805789,-2788886.0477687865 L 1281022.0646840183,-2791760.689252262 L 1236559.5015883138,-2806386.819039568 L 1189574.884109197,-2820739.964089309 L 1162060.268208805,-2812035.761371781 L 1157266.0716988111,-2812692.729718503 L 1149460.682962859,-2818152.7317509875 L 1141677.0015276119,-2825593.149441418 L 1137535.1372336666,-2836027.7644901923 L 1126501.0379867465,-2850001.5083037703 L 1116325.7686112965,-2882013.1984128673 L 1115314.7649959119,-2907534.6179537163 L 1113271.0504644383,-2916588.617549811 L 1088822.0620210024,-2952618.857239991 L 1066579.8711630525,-2985480.29097686 L 1051773.4883316208,-3007398.775122183 L 1048892.6512293816,-3017307.62439799 L 1050621.2202824196,-3029520.07200667 L 1056578.4828322215,-3040475.1334223384 L 1078124.9268727137,-3053459.876243871 L 1097540.6045399318,-3067604.8537120223 L 1100193.1253665537,-3077421.697420315 L 1101443.354567653,-3104487.7956032413 L 1095061.9647579286,-3112958.5013774117 L 1090420.0533113398,-3129066.908247556 L 1085647.6754215416,-3150901.711088755 L 1085093.304357391,-3164869.3711031885 L 1093746.6136547152,-3192730.6774994074 L 1103845.8518179534,-3221981.3493102156 L 1097410.1380967218,-3254435.4140407834 L 1092670.3768177258,-3319788.186159753 L 1095670.771053077,-3371445.526561487 L 1093235.657191974,-3390264.995260773 L 1091517.997449034,-3398187.5229092035 L 1084908.4026831833,-3422688.79815912 L 1076755.1405385025,-3448011.2515619015 L 1073135.1420173957,-3456900.8827895625 L 1062677.121135331,-3477347.6065418045 L 1045403.1191514849,-3502733.8933882904 L 1036412.7344360385,-3518370.7162252693 L 1048740.4774854672,-3526617.6835389836 L 1059622.402988473,-3533070.643135168 z" /></g>
</svg>
