<?xml version="1.0" encoding="UTF-8"?>
<svg xmlns="http://www.w3.org/2000/svg" viewBox="-1892773.762239331 -4290977.665153941 1774159.8391728466 1848863.4579707393">
  <g id="map"><path fill-rule="evenodd" fill="currentColor"    d="M -247087.970029983,-4178050.403306774 L -243875.5121646707,-4167929.5436273315 L -237309.4433197203,-4159920.480761883 L -213833.3872258176,-4141555.0352600687 L -199885.83426585598,-4130216.7923263703 L -199505.34424632456,-4126327.515651577 L -203984.28395839196,-4117046.446987617 L -205902.98670170482,-4110645.2618950764 L -202223.20961404237,-4103851.8081956482 L -193635.0222188321,-4095611.4467954673 L -192950.18471147187,-4091687.9572648425 L -195015.60654365027,-4087126.6074799 L -199461.9296449152,-4078312.3332221187 L -190015.0236977256,-4052469.036853318 L -188427.83039799513,-4027497.345057062 L -190879.1969047538,-4009778.0079235425 L -190813.96368314893,-3999545.4145091358 L -189574.75511163822,-3990844.436463921 L -181589.91935652753,-3970774.1730773146 L -186927.5776205742,-3937676.4699275265 L -180905.0818491673,-3919665.973552509 L -172626.69659683472,-3905075.0865968713 L -168093.54429275103,-3879073.5617451402 L -161413.26165024668,-3866776.3290222134 L -150520.42683714326,-3855997.024034044 L -144313.14071101954,-3852335.135621551 L -132273.38118427302,-3843452.9100706466 L -123679.8504535047,-3836028.278324009 L -118613.92306648439,-3824941.9328688206 L -129419.81735727828,-3815822.702847067 L -138073.1266546026,-3807707.6497587375 L -140497.3312056077,-3798955.2206434994 L -136469.68070921628,-3784929.9374446203 L -136469.68070921628,-3777394.0817100303 L -141970.42202727508,-3775000.777828263 L -164424.5651956955,-3775770.6355811 L -182024.73328756605,-3776386.6624599337 L -202266.62421545174,-3777073.159694332 L -230743.37447476984,-3778420.7744075344 L -248381.61383249168,-3779248.684951113 L -272553.4167438523,-3780384.641235904 L -280886.01458820124,-3779819.9357954455 L -303079.2248702022,-3775886.13821277 L -318755.34688320174,-3773121.0816874676 L -321402.41305477504,-3772351.393770221 L -326261.731466883,-3768894.5148496814 L -329631.8177311586,-3758581.4023487796 L -332648.46461216547,-3746811.2172041363 L -335893.5390882802,-3741576.512851197 L -382916.2278332485,-3724589.22288963 L -401261.12331852596,-3722263.925727419 L -411909.27789086575,-3724007.8895487464 L -419470.0977055449,-3722628.004910367 L -425992.75194908597,-3719012.945721129 L -428210.4588446696,-3713515.8318856093 L -428531.170297645,-3706528.28577109 L -427145.0199982871,-3699468.3576396196 L -422617.32234925235,-3689647.129199374 L -421807.36173424043,-3679827.524431925 L -424699.1081465773,-3672922.923587268 L -425394.85496403533,-3665971.2888878705 L -426731.91336795327,-3658464.359894431 L -424329.4161176529,-3654404.5381771405 L -419785.35450347146,-3653781.9102140605 L -415241.2928892901,-3650345.9233435113 L -408821.9431332052,-3647222.0299790935 L -403478.8302141096,-3641293.708713747 L -403745.1064360871,-3632869.6624360224 L -408185.97488230316,-3628076.5575843677 L -412104.9775556803,-3625541.1712301252 L -429699.8023119928,-3623304.2516528284 L -443647.3552719544,-3621523.8034134875 L -461839.9656938268,-3608042.799008036 L -481217.68341468426,-3593704.0275528417 L -504182.671726355,-3584212.8879590323 L -514254.74793383956,-3581528.6182635534 L -531941.9678675104,-3574754.2739399686 L -553064.395967571,-3563511.597011005 L -563489.6889193426,-3545576.9597269376 L -576649.0998844878,-3524926.350244719 L -589286.6450767942,-3511090.083761441 L -606555.3037250823,-3498015.3110331586 L -622644.5323684159,-3493009.8752777893 L -642870.0593311549,-3486727.624502912 L -668395.2846115802,-3481876.994555829 L -686452.0852546846,-3480298.0769097814 L -691827.8147845826,-3479239.329346966 L -707726.6870986596,-3478932.447453769 L -715521.2778440044,-3479934.7159829154 L -721320.9119948433,-3480479.761233329 L -723674.5399886855,-3479038.93156003 L -724457.227328453,-3475788.100646859 L -724767.0294713307,-3468381.3014159515 L -725865.0849285156,-3459902.903567007 L -730887.4863946356,-3452730.313362706 L -734458.6156592838,-3449542.4375637425 L -738644.0058741294,-3448242.5241493494 L -751977.2978838937,-3450167.4818739 L -763158.1162196792,-3452442.7552116797 L -789803.1042579942,-3455462.563391256 L -795091.8932655825,-3454743.5278430753 L -797070.3745754514,-3453855.6414512657 L -805386.7197741445,-3449023.6596686128 L -818171.0953748071,-3438765.655545897 L -826846.223292327,-3429851.0224138442 L -833308.9876498213,-3425664.241837099 L -848767.5913778109,-3423487.1737583703 L -855507.6525868712,-3420206.7378952745 L -884305.1142991646,-3397907.416171875 L -890436.3692130765,-3392511.20876599 L -920076.2968316936,-3373166.646460817 L -928457.8752519914,-3366762.0023971912 L -935007.5801317955,-3360403.946461609 L -952711.1640306129,-3346134.2593721403 L -964016.9941545593,-3339879.1490736958 L -966077.0726511796,-3336173.206211166 L -966626.1003797721,-3327464.2474980117 L -966626.1003797721,-3308263.8144869558 L -966626.1003797721,-3289844.3161142836 L -966626.1003797721,-3263103.2941121734 L -966626.1003797721,-3236421.1681503193 L -966626.1003797721,-3205728.007211069 L -981595.454945725,-3205728.007211069 L -981590.0002906764,-3205660.517919209 L -981160.6410146868,-3200377.901048782 L -977893.8592378673,-3189953.568237067 L -976757.8438343218,-3181129.7850785516 L -978383.1083999036,-3175611.6338285706 L -979910.5231330781,-3168638.8835713244 L -979258.1909170296,-3162030.6929024877 L -976757.8438343218,-3154814.1936470233 L -974474.9037171333,-3147357.010868855 L -974474.9037171333,-3142347.0260126092 L -979040.7839515103,-3138560.104425968 L -989525.8554698378,-3136483.9495578506 L -1002087.3694499325,-3134774.3325821194 L -1011273.4538301935,-3134774.3325821194 L -1025079.6310368475,-3135995.376943968 L -1033667.8184320579,-3135751.159553496 L -1041168.859680181,-3135751.159553496 L -1047854.4856582434,-3134530.1364847417 L -1056121.9616004783,-3129768.8505034903 L -1065307.9346612485,-3122324.876223698 L -1076831.283070205,-3112324.5605396302 L -1083734.4273332774,-3106108.3820824623 L -1092920.4003940476,-3104768.0284707546 L -1102101.0301192596,-3104768.0284707546 L -1111069.5962145105,-3109764.618484814 L -1116836.7250740377,-3112324.5605396302 L -1120636.1706143029,-3112080.7543368656 L -1126892.4373163756,-3108545.8509368724 L -1134284.7194219937,-3106108.3820824623 L -1141187.863685066,-3106108.3820824623 L -1152705.7574389738,-3111105.5716984817 L -1166511.934645628,-3118543.482219863 L -1174562.0036223435,-3122324.876223698 L -1186025.4621452533,-3123544.9622515165 L -1197548.8105542099,-3125985.327309917 L -1205598.7682114346,-3124765.154248684 L -1215920.867995241,-3124765.154248684 L -1229727.045201895,-3119763.1151983 L -1241250.3936108516,-3116104.408519085 L -1253860.7768474044,-3112324.5605396302 L -1268215.981782651,-3108911.407739877 L -1264731.7930403124,-3097702.7660654164 L -1259785.5341058949,-3091614.801605931 L -1259785.5341058949,-3084069.320261674 L -1262128.2527896394,-3077743.861522017 L -1269031.285733221,-3071542.9537543594 L -1276912.8170008755,-3063643.580270801 L -1281473.2425802036,-3057448.671585069 L -1286093.4467260875,-3048829.0198751483 L -1289523.2002374283,-3043853.649751682 L -1295447.9574959187,-3035727.1485954197 L -1300714.9278833116,-3025545.0982096535 L -1302351.1017589911,-3019245.4094917276 L -1304465.5041671188,-3011980.1452816697 L -1308547.589894508,-3009801.139901812 L -1322571.1740666812,-3007864.617397182 L -1331480.072914867,-3005323.4243416246 L -1339258.2996950655,-3002903.4650154496 L -1342155.3894429605,-2998627.3961607525 L -1342622.8199848013,-2997944.0055843797 L -1344856.8908455316,-2989238.845365263 L -1344856.8908455316,-2983075.7492690287 L -1347079.9410766733,-2978123.0259409365 L -1350401.0467649996,-2965808.9036979238 L -1354852.8245213137,-2954590.1841597864 L -1358222.7994660987,-2939765.7561637824 L -1361543.905154425,-2927483.607178285 L -1365995.5715912478,-2907751.0077335592 L -1370452.6926831198,-2889376.898727568 L -1376002.4145771277,-2872098.562777314 L -1380459.5356689994,-2861070.060286512 L -1383829.5106137844,-2854959.8010717365 L -1391602.3940584247,-2847534.982719154 L -1398288.0200364871,-2842746.770135978 L -1406055.4488260783,-2836524.1693292903 L -1414975.1456648712,-2830423.8694945886 L -1427199.5842268437,-2823130.439368737 L -1437260.7511242307,-2816915.9287325265 L -1441348.2915066688,-2814120.2739228494 L -1446169.5386529255,-2810823.2996761464 L -1453947.765433124,-2802345.5832726527 L -1460633.5027306771,-2790055.016526041 L -1465090.623822549,-2780277.15805446 L -1472863.3959476985,-2764431.2765666293 L -1478407.6631866575,-2755859.6450582794 L -1481772.1834763933,-2751099.7485126215 L -1490691.880315186,-2746222.297604143 L -1500693.268646017,-2742535.3993242267 L -1511836.127035442,-2737660.6033705263 L -1520744.914564137,-2732787.314683557 L -1532974.8077811582,-2727915.529953182 L -1540747.5799063079,-2723045.245873793 L -1546351.6257118229,-2715802.0102773053 L -1550803.4034681367,-2707256.7619526233 L -1556347.5593876047,-2695040.3550809687 L -1560810.1351345256,-2681767.090924731 L -1563033.296685158,-2673240.1337021776 L -1569724.3773182693,-2644140.0334902867 L -1571952.9935239507,-2627248.1613850584 L -1574176.0437550924,-2616389.823542864 L -1577497.1494434187,-2603062.8783099777 L -1579720.3109940512,-2582562.647567061 L -1579720.3109940512,-2565733.6376076285 L -1581954.3818547816,-2556091.1407602658 L -1583095.7405938848,-2548804.1286312803 L -1588640.007832844,-2540463.2137491503 L -1593097.128924716,-2534474.4879947146 L -1600864.5577143072,-2526023.252571068 L -1607555.6383474185,-2521212.6696547256 L -1609778.7998980512,-2516403.45026667 L -1616469.8805311625,-2510428.9845742574 L -1623150.163173667,-2500812.113142004 L -1628699.7737481836,-2494837.2260504477 L -1627612.7389205873,-2490035.4340304006 L -1626465.8142069445,-2481606.3145680055 L -1629841.243806778,-2473181.20126864 L -1633151.5515044974,-2463591.020660255 L -1642071.2483432903,-2451669.199288094 L -1652072.5253546303,-2445711.292387354 L -1666580.0153532822,-2444543.3961877595 L -1686588.135350502,-2444543.3961877595 L -1702182.66017675,-2445711.292387354 L -1721103.7453463734,-2445711.292387354 L -1737785.3050002179,-2448047.4390858435 L -1753385.2844815147,-2450500.7840799876 L -1772300.9149960896,-2451669.199288094 L -1785677.7329267538,-2451669.199288094 L -1802359.2925805983,-2449332.5669107293 L -1845789.1447602136,-2449332.5669107293 L -1862481.613724156,-2448047.4390858435 L -1886990.3807341477,-2443258.621268429 L -1892762.9642487238,-2442120.066583624 L -1892773.762239331,-2442114.207183202 L -1884734.6025727133,-2499523.266067403 L -1869417.374598031,-2530711.9989673677 L -1857252.6032831233,-2544498.0613437383 L -1838375.0440344003,-2551612.792509046 L -1821046.6068195563,-2583057.113820762 L -1814986.0397822976,-2612054.3709413055 L -1803582.2485064531,-2625412.3108111466 L -1800005.775906247,-2635880.9717902006 L -1804517.220909626,-2643862.28784004 L -1793765.7618498304,-2659558.922130649 L -1780747.7266379925,-2683555.958964685 L -1774725.1195470947,-2698988.9625804764 L -1759511.0847403777,-2722914.6267557857 L -1757652.160563621,-2728188.77445415 L -1759032.744888439,-2734195.629175697 L -1764990.118757732,-2729097.7174627846 L -1771376.8519030144,-2720248.480797279 L -1778964.8336734471,-2713285.343634204 L -1775861.1349506401,-2721857.5515174964 L -1769903.7610813475,-2734463.1403767937 L -1756374.7694067683,-2747673.473025172 L -1735062.096296942,-2762276.010325882 L -1690789.7782110032,-2811862.5641848096 L -1674119.0165477658,-2820429.2333216066 L -1659138.7526717146,-2841364.349753897 L -1653768.4777968659,-2859979.5902841627 L -1652306.296285296,-2902805.3508881307 L -1646963.1833662004,-2925467.577943805 L -1637179.202000889,-2943169.2571562096 L -1625520.0438131646,-2975387.679961896 L -1616665.5801959771,-2989825.034927905 L -1610855.0367350401,-3019287.826634543 L -1604544.3348019696,-3030538.221709227 L -1593254.757323679,-3035878.758863304 L -1577214.509256295,-3050625.373405607 L -1553140.667496832,-3059744.2249239474 L -1524620.3913166139,-3078929.7174022393 L -1511249.0280409981,-3090415.670824813 L -1502340.2405123033,-3107570.7879118975 L -1492773.6661125112,-3141803.329437862 L -1475668.090518235,-3177877.379380871 L -1466900.6787428476,-3205151.154122686 L -1466743.0503438842,-3205636.0107164937 L -1451686.643936131,-3219984.734288257 L -1441467.8486397807,-3238155.6338206627 L -1424182.826026346,-3246253.0656019603 L -1388031.1534742857,-3250161.992405926 L -1334284.7674854037,-3265284.9848058145 L -1286039.1228145803,-3288127.7448527254 L -1272401.3719974963,-3297225.0990269366 L -1257806.9414765353,-3315463.0535211083 L -1233526.4907421602,-3339265.566403106 L -1188205.0977749857,-3367910.975697209 L -1167349.0572163935,-3383914.1684270767 L -1135524.0393129953,-3424148.3936054553 L -1114363.5399470837,-3457538.707299134 L -1096790.5338109666,-3479051.504440549 L -1084636.6718061569,-3498178.359481376 L -1076135.536252747,-3517604.1308159 L -1071319.6324420483,-3548959.055298999 L -1074559.252263114,-3561210.085892848 L -1087941.5248488276,-3581313.9222299466 L -1096931.7982447832,-3586676.605074699 L -1099334.2954950836,-3596169.6157564376 L -1094540.2103045804,-3612929.5710964333 L -1094643.5147920367,-3641795.0997760766 L -1091898.4874685653,-3688016.3516751193 L -1077010.618769873,-3725432.5524643366 L -1040554.5987299837,-3774654.298819225 L -1033776.466255072,-3794931.5590645373 L -1029607.4400053733,-3827255.0014624987 L -1029243.3139509886,-3838691.843730994 L -983644.6241322479,-3884750.9788729604 L -956934.514191819,-3920172.488049014 L -947645.2366435925,-3928859.4206795692 L -924082.2400273802,-3945100.7332773674 L -841837.3964784755,-3980602.489542354 L -795341.9168419042,-4006041.1081784526 L -768213.2456160927,-4024646.0144377626 L -752047.9857605475,-4046662.5844541155 L -707226.6399460163,-4133491.980105706 L -663193.4361263012,-4256836.608309388 L -659546.2756494412,-4271186.43430244 L -639858.755785706,-4275328.172749522 L -625933.0214459399,-4277104.56800058 L -614735.8391450077,-4281651.009715548 L -600831.7007864554,-4290977.665153941 L -587525.5707324446,-4287245.960857905 L -594184.0347547536,-4280899.821931525 L -594184.0347547536,-4265619.74521624 L -584726.3308169569,-4247739.682629734 L -568327.3000307458,-4227632.731428132 L -538475.4201016586,-4202174.567603126 L -515222.22562832397,-4191965.0304219644 L -482011.16874505865,-4185846.660886582 L -443321.1891639302,-4197008.714998276 L -421676.8952910308,-4197215.079197508 L -411132.0452061472,-4201994.701735169 L -399706.5466295979,-4194952.37128407 L -377899.28102217725,-4192703.478768493 L -356890.9554001798,-4196423.037855751 L -340981.1737760052,-4207076.256373485 L -330865.6829671112,-4219366.856332047 L -329278.48966738064,-4213333.209351384 L -328794.6951603931,-4206789.899794813 L -325718.2697128302,-4202966.885038004 L -319434.7297355131,-4187369.229218645 L -316140.78600294015,-4181266.600220915 L -304057.6118747843,-4182270.177141136 L -293529.0144355565,-4179206.5100571 L -269808.38942038093,-4180675.086388739 L -247087.970029983,-4178050.403306774 z" /></g>
</svg>
