<?xml version="1.0" encoding="UTF-8"?>
<svg xmlns="http://www.w3.org/2000/svg" viewBox="2963207.4028541553 -6186703.965102791 390966.29680996435 493989.1258854773">
  <g id="map"><path fill-rule="evenodd" fill="currentColor"    d="M 2963207.4028541553,-6150196.177733397 L 2965599.102113849,-6155929.66793736 L 2988602.161691371,-6171507.525222938 L 2994559.535560664,-6168954.290469175 L 3006572.021812166,-6168340.649225258 L 3031064.536176502,-6168872.513773454 L 3043131.346339511,-6179147.490772928 L 3050578.063676127,-6176280.6742362585 L 3056654.883359041,-6180884.321159257 L 3066765.0308323773,-6186703.965102791 L 3068210.848378801,-6185474.169489541 L 3069493.5828712117,-6184547.910072767 L 3085158.795574113,-6181966.096824196 L 3096910.4602586864,-6176387.1770953685 L 3104770.172906146,-6167833.280671613 L 3112869.1111393194,-6162525.313220309 L 3121228.9822589126,-6160473.294730536 L 3125859.9843954034,-6156207.424584434 L 3126794.9567985763,-6149722.656836222 L 3134622.052835233,-6146539.277606488 L 3149341.495144355,-6146637.220350269 L 3155592.307191379,-6142370.063000251 L 3153341.983684993,-6133752.509205789 L 3154853.0344530214,-6130917.230911853 L 3160082.0448940536,-6133866.49394256 L 3164039.118833282,-6131324.477447405 L 3166148.066586361,-6124956.230488891 L 3168496.2399251536,-6121928.5375963915 L 3175997.281173277,-6131894.755248862 L 3183922.2270423407,-6130909.056148965 L 3203087.8811332374,-6126771.792428712 L 3213328.3837302923,-6106131.845791399 L 3219709.7735400167,-6098727.292166392 L 3225297.455380385,-6095716.980607474 L 3232374.4806880765,-6098930.233262682 L 3238614.494744493,-6102769.731858729 L 3242223.695274993,-6100959.409262255 L 3249952.9414792424,-6087316.288293049 L 3251768.4510545894,-6069504.146987517 L 3251724.9251336893,-6062308.795318415 L 3248974.55447466,-6050243.819989042 L 3245061.0064563323,-6037405.829888452 L 3241951.8530784757,-6029077.909318114 L 3243278.1134917866,-6022374.622599727 L 3246050.302771012,-6016769.795210687 L 3250594.3643851937,-6014929.045582528 L 3265422.4545173296,-6003620.201083861 L 3270944.9031360927,-5995781.759395367 L 3278989.5174577595,-5989969.735634005 L 3285109.974381065,-5989657.244411531 L 3288284.249661035,-5986420.241184118 L 3289414.8104095315,-5982455.830463157 L 3288577.799158257,-5972412.828739268 L 3285142.5909918672,-5962996.431936966 L 3285599.1122236107,-5956958.734391236 L 3290991.205718655,-5949832.364463736 L 3291567.2840835103,-5941540.178318985 L 3291936.9761124346,-5936202.218123041 L 3294806.9039045754,-5932093.32432233 L 3308384.8761551036,-5922982.902448417 L 3325985.0442469744,-5914191.754883818 L 3330463.8726395513,-5906631.836156235 L 3333181.6266877777,-5897103.745880708 L 3332322.9081357988,-5881077.898567713 L 3331159.6194570092,-5867127.580915499 L 3354173.6996641196,-5848411.833743654 L 3351553.7954483,-5844934.995205965 L 3348009.828139405,-5841105.183652794 L 3326006.7515476793,-5838261.419391904 L 3321538.8324652007,-5836702.0703439815 L 3311972.258065408,-5850785.571866049 L 3306949.8565992876,-5852552.441354696 L 3302242.711931094,-5847386.755074657 L 3296720.15199284,-5844493.666971574 L 3290056.2333154827,-5845936.217546734 L 3282924.8840962835,-5850280.794077427 L 3279337.3908664887,-5853365.155639546 L 3276445.7557736426,-5853720.1559888255 L 3271999.4326723777,-5850643.5850436045 L 3266063.8774232804,-5851960.806711794 L 3262204.6533164587,-5855440.421980858 L 3256606.0621659933,-5843492.7699953625 L 3253181.6519902106,-5840963.3528213985 L 3251040.087626329,-5841349.480107938 L 3250616.0716858977,-5861645.223670607 L 3248996.261775365,-5864717.879945303 L 3244550.049993591,-5865191.774444984 L 3233820.2982344995,-5860358.084506448 L 3223634.1195489517,-5854130.435953766 L 3220188.0020724647,-5848577.362521489 L 3220535.8754811934,-5838592.260089687 L 3222003.5116478116,-5826691.097921861 L 3228960.9798223916,-5808673.096084306 L 3225134.3723263727,-5800826.7842065375 L 3222449.234888948,-5788357.519465318 L 3211512.9854744356,-5776930.449903143 L 3199185.2424250063,-5770284.458232597 L 3198130.712888722,-5756664.073451325 L 3191260.185236452,-5747374.538289806 L 3179541.2484821714,-5738110.162314958 L 3171670.626524615,-5726949.6088583 L 3173660.0171445813,-5719315.023781092 L 3174138.35699652,-5712090.722721927 L 3172801.187273111,-5707184.680994568 L 3172496.728465792,-5703398.287498004 L 3169420.303018229,-5701722.826116387 L 3151493.9688183344,-5700357.843927195 L 3146428.041431314,-5698024.006955692 L 3140601.1340052304,-5692714.839217314 L 3135035.1594655667,-5702769.972541404 L 3129403.951704298,-5711570.563200449 L 3125262.087410353,-5716315.934843336 L 3127001.4544539982,-5718506.871663073 L 3131512.8994573774,-5720978.188568929 L 3134730.811977738,-5723979.004342168 L 3134339.4126481093,-5734489.659457756 L 3131969.532008611,-5746579.322931859 L 3129806.1490245345,-5752435.3442293005 L 3129588.742059015,-5761628.785954654 L 3128045.074680185,-5775960.558928417 L 3130208.4576642616,-5802599.421434703 L 3139166.1144494144,-5836221.8051152695 L 3144145.101314125,-5852962.828451288 L 3141731.694753727,-5862142.890364085 L 3143601.528240582,-5883642.557288707 L 3139731.5061431536,-5894281.413015661 L 3133643.665830651,-5908203.652037387 L 3124935.921302329,-5938552.051924745 L 3114075.8144195187,-5949130.388495428 L 3100671.8345331005,-5960783.780824851 L 3094942.7769394247,-5969590.114036007 L 3091116.1694434057,-5979301.668788865 L 3083125.879033246,-5988952.04689609 L 3073983.4318933766,-5997834.958169511 L 3063047.071159373,-6020058.339601333 L 3057372.4487966946,-6030116.4820546415 L 3055633.08175305,-6032830.154594955 L 3043131.346339511,-6047129.305853611 L 3036565.277494561,-6060062.523899405 L 3033249.6264612833,-6070701.333718053 L 3031325.3577434304,-6080567.605319171 L 3022552.491312994,-6100082.650657568 L 3014573.1102129323,-6114786.760294902 L 3006985.1284425,-6125257.491441167 L 3003484.687054505,-6132684.998154274 L 2994603.0614815643,-6142051.995483657 L 2981949.1523241107,-6149518.676397753 L 2973763.273568628,-6150800.490028331 L 2963207.4028541553,-6150196.177733397 z" /></g>
</svg>
