<?xml version="1.0" encoding="UTF-8"?>
<svg xmlns="http://www.w3.org/2000/svg" viewBox="2052322.6450577718 -5394888.334345061 212768.05969892582 253498.1480427822">
  <g id="map"><path fill-rule="evenodd" fill="currentColor"    d="M 2136703.7096349993,-5393501.216950843 L 2136399.3621471706,-5391619.5042871265 L 2136942.8239012235,-5386089.11976289 L 2139421.4636832266,-5380711.689750665 L 2148270.472645365,-5375195.315110002 L 2161228.729290647,-5364299.282498021 L 2176470.037372608,-5344335.3817373635 L 2183470.920148597,-5338408.0964958025 L 2189765.258116521,-5336962.385779096 L 2202027.767944345,-5328694.303350757 L 2210583.338728753,-5326676.715399958 L 2220160.711119152,-5324406.707032978 L 2245077.130104429,-5307179.366926863 L 2256274.3124053613,-5302151.682076006 L 2264231.8748852275,-5295679.910264375 L 2265090.7047566976,-5289590.69599852 L 2264721.124047264,-5285817.604754193 L 2250338.757156264,-5281401.373636135 L 2247827.5007634587,-5274699.658314838 L 2240859.1232787813,-5275476.975305168 L 2232434.130257074,-5275521.399693516 L 2229672.850287947,-5271272.770970614 L 2233706.0667588776,-5264275.0883029215 L 2236325.9709746977,-5256056.040737563 L 2234216.9119021283,-5244796.074759485 L 2233510.367094063,-5243313.047650813 L 2231477.4505531965,-5243711.359722298 L 2219606.340055002,-5237183.791783279 L 2210779.038393568,-5234109.711627108 L 2202821.3645942104,-5232576.744535333 L 2199059.9903197964,-5235709.358508043 L 2197201.0661430396,-5239971.273532456 L 2197527.232251064,-5252333.28770885 L 2196092.2126952475,-5256506.640722953 L 2193374.4586470206,-5258538.693880613 L 2187928.041240469,-5255605.311012833 L 2181579.379361038,-5246058.05547132 L 2175687.2387133497,-5234957.357869156 L 2166849.1390613085,-5223406.025084942 L 2159554.5954686073,-5212332.041787491 L 2151694.8828211483,-5198392.024857647 L 2146313.698636201,-5186863.095641932 L 2151901.3804765693,-5180367.2277939785 L 2155304.0833516475,-5171334.715882425 L 2154271.2611160674,-5164578.652482405 L 2155271.4667408452,-5160643.010079563 L 2153532.0996972,-5148831.008789886 L 2153184.2262884714,-5141390.186302279 L 2135823.1724628247,-5153288.0195056 L 2128680.913933528,-5170046.063358101 L 2103296.9530869196,-5198421.350108607 L 2074206.0531968947,-5217782.723211717 L 2072662.3858180647,-5220844.260966398 L 2074260.377108402,-5224576.779689016 L 2075651.870743318,-5227529.944980003 L 2069607.6676712069,-5227750.790738798 L 2065367.9535448535,-5225386.772177778 L 2061356.4443746274,-5226049.476371278 L 2056812.3827604458,-5233321.159469445 L 2052518.3447225862,-5239639.426850093 L 2052322.6450577718,-5245194.600602036 L 2054279.4190669358,-5245917.793464176 L 2057192.8727799773,-5248139.407971308 L 2063302.4203931848,-5254327.377280462 L 2064519.921663991,-5257578.150589503 L 2064226.4834862596,-5262507.970954004 L 2055627.4981004423,-5278127.644384997 L 2054409.8855101457,-5288271.087697386 L 2053159.7676285373,-5307171.91245008 L 2054975.1658843942,-5311652.210994597 L 2058127.8451831501,-5313822.601648007 L 2073173.342280806,-5316186.888340939 L 2072977.6426159912,-5330957.881327295 L 2073879.8870888706,-5335390.094081072 L 2076869.4833336147,-5341538.999651663 L 2078804.5500420746,-5347169.88309637 L 2087153.51185157,-5355230.356121431 L 2098491.958586319,-5364837.481591532 L 2103449.126830834,-5365121.441627467 L 2107797.6000996917,-5363783.614143871 L 2112700.4444327,-5355514.022881833 L 2118038.102696746,-5356589.435486483 L 2119157.8654546365,-5366519.325058211 L 2112156.8713591564,-5379551.301640292 L 2108417.2043854473,-5387887.302793887 L 2109580.493064237,-5392481.550222375 L 2112200.397280057,-5394888.334345061 L 2118222.8930514636,-5393381.295492761 L 2123984.5672559417,-5391109.837219867 L 2127626.3843972436,-5392646.445799579 L 2133366.2399815265,-5393831.047357399 L 2136703.7096349993,-5393501.216950843 z" /></g>
</svg>
