<?xml version="1.0" encoding="UTF-8"?>
<svg xmlns="http://www.w3.org/2000/svg" viewBox="4815361.573458947 1354767.6029321763 804348.5542030064 1591215.4264081793">
  <g id="map"><g><path fill-rule="evenodd" fill="currentColor"    d="M 5514576.215694099,1394927.3983815901 L 5519685.66900202,1406852.2715830323 L 5525653.840861919,1418302.8332331327 L 5544265.012569174,1445990.2291429439 L 5552222.6863685325,1456653.122040224 L 5559017.0714890985,1467989.69708944 L 5562321.92453177,1490620.634129495 L 5574149.620428555,1525837.5383967373 L 5585324.984109292,1578832.8942572582 L 5588749.394285074,1633305.3551662876 L 5592173.804460857,1658336.8945523317 L 5600870.639679082,1681919.4841188309 L 5615100.832826166,1706414.3040759943 L 5619710.127661954,1733684.806463102 L 5611013.292443729,1761810.2151237011 L 5598424.616507881,1788341.593203717 L 5595174.198696207,1793326.0114966973 L 5589238.532127621,1800142.9917135916 L 5586564.304000293,1799837.7904895174 L 5576486.884457251,1792986.8701249538 L 5568246.570470769,1781776.5669903236 L 5557799.570218293,1755387.9034766178 L 5554016.377323684,1742007.25371799 L 5549646.19675412,1739898.1344325247 L 5537448.920147901,1741059.8478907244 L 5528610.709176371,1749384.8601796897 L 5527001.808575935,1754631.792284211 L 5528904.2586735925,1769510.1089450743 L 5532252.526317672,1782895.099269328 L 5533741.869784995,1796491.1448932542 L 5534002.802671415,1813613.4832088414 L 5537285.837093891,1818795.5832002615 L 5542145.266825489,1823152.7144276341 L 5547167.668291609,1834371.7573267287 L 5548059.114773882,1861134.239640263 L 5544971.66869673,1874663.555842326 L 5536361.774000815,1886282.8456195788 L 5536872.730463556,1892719.1781840553 L 5540058.026373114,1899316.47061862 L 5537003.196906766,1903302.9640848115 L 5525555.991029511,1908358.1512075786 L 5520914.079582924,1912812.198608319 L 5514717.591447406,1924656.2943060894 L 5504672.677195676,1948853.2838512582 L 5503313.8001715625,1961218.2482778863 L 5509608.138139486,1998903.7160770018 L 5507847.063795136,2025675.6544375557 L 5495051.890203866,2076952.961167174 L 5487703.022699658,2101327.2155949078 L 5477288.527738493,2130496.0371091664 L 5461340.786167959,2169025.3668295266 L 5445534.197711749,2217490.7016596776 L 5432108.510524626,2267490.3717264743 L 5422183.264725498,2297607.542046776 L 5410909.939892863,2327309.945127437 L 5395494.862085775,2379958.642919756 L 5382384.320377086,2433544.843390208 L 5362914.318798361,2492693.828887134 L 5336041.12580392,2558889.226209372 L 5333138.470081486,2567545.161380124 L 5327561.697551215,2601483.214528027 L 5321528.292469711,2630991.2224344197 L 5314331.598709417,2660268.686676716 L 5299264.394311056,2708763.662787164 L 5297546.734568116,2723746.034622384 L 5294133.233702431,2738136.0971225887 L 5279620.40036822,2768671.10278666 L 5273489.145454309,2780050.730563129 L 5269151.5814955495,2792154.3984817294 L 5266716.467634446,2807503.309058666 L 5262389.812985784,2822329.5745906522 L 5251757.9110591,2849630.3452551975 L 5235907.908001482,2873165.9590869583 L 5225134.741640981,2881731.194792094 L 5201794.606645336,2894167.968960605 L 5189966.910748552,2896690.212153436 L 5163745.938650668,2896978.523639965 L 5138361.977804059,2904067.146580917 L 5111890.982129855,2917725.3267000415 L 5086431.101390525,2933394.6222495823 L 5076679.736636016,2940825.904479079 L 5065928.277576219,2945079.227258518 L 5032282.406761916,2945983.0293403557 L 5022204.875899383,2942596.894105533 L 4988548.207094472,2916847.2608376713 L 4975513.807917488,2912602.0140227163 L 4950803.886587632,2909079.325591049 L 4943335.461950311,2906891.498446027 L 4936562.7841304485,2903538.3706029984 L 4926572.305109716,2890109.3853311697 L 4906754.430122262,2878767.588341566 L 4901992.961542561,2875216.843949963 L 4898981.657997113,2867398.4704360445 L 4896927.03415554,2858985.143133474 L 4891795.873546916,2849570.508782809 L 4887990.9733516015,2831667.64125038 L 4881533.552329665,2819150.518185354 L 4863270.2540311385,2797082.0465921257 L 4861324.389332073,2790043.046699094 L 4859856.753165455,2766670.136990603 L 4860443.740840407,2750873.6217397368 L 4858660.959195353,2721988.2835302386 L 4860737.290337629,2708419.5490087755 L 4867140.3874480575,2696202.3731059213 L 4864520.371912747,2682999.115108521 L 4857715.188801573,2669132.1638492052 L 4855160.406487868,2654792.2287142472 L 4850138.005021747,2641752.9069723226 L 4831026.786161849,2618277.708107662 L 4826537.048459175,2606741.380047728 L 4823427.895081319,2594800.8308307547 L 4816220.403330417,2557643.020019206 L 4815361.573458947,2544738.895768416 L 4816416.102995232,2517447.239895454 L 4819079.421812461,2503425.3803422675 L 4823721.4445785405,2493666.0063629495 L 4824884.621937839,2486382.3718867837 L 4827895.925483288,2480131.5953982063 L 4832439.98709747,2475123.2865156727 L 4835472.997943623,2469157.4395255465 L 4842604.347162821,2434431.9508067896 L 4851649.055789776,2426729.7650573105 L 4865063.94498629,2422308.3278087685 L 4875815.4040460875,2413259.0258778916 L 4881990.184880899,2401045.088407633 L 4888164.965715711,2375886.2292137123 L 4905080.296300221,2350936.9544528536 L 4911102.903391119,2337836.712355943 L 4924735.088233664,2318064.8445190093 L 4936812.919026261,2290276.3371358165 L 4940476.443468268,2277196.103178712 L 4943107.256994185,2263801.330200522 L 4946172.884451142,2234477.3675425663 L 4948477.531869035,2219901.5892761876 L 4948020.8993178,2205475.2931635324 L 4941085.138443925,2190656.684323304 L 4924637.349720747,2163790.9113124325 L 4924104.574637811,2158776.41492059 L 4925409.127750417,2138834.651251846 L 4924006.7248054035,2124422.3830090626 L 4917951.612423194,2110078.011627819 L 4910167.930987947,2096569.2702862974 L 4902514.71599591,2071342.0619911142 L 4898796.867642396,2029708.7364127317 L 4899579.554982163,2014677.3096337612 L 4897340.140785875,2001334.063184213 L 4891774.166246211,1988615.035071649 L 4895763.856796241,1966457.8624487694 L 4944966.181170943,1886237.518593432 L 4946564.17246128,1876807.6720066664 L 4944585.691151411,1852406.359786579 L 4945596.694766795,1838222.1446283143 L 4947314.243190246,1832967.698599787 L 4951064.819474052,1829899.3386049059 L 4959489.81249576,1828416.2622001213 L 4999267.0495434655,1824941.0953417884 L 5004376.391531895,1822484.9180216277 L 5014301.637331023,1815740.4754779397 L 5027944.842803157,1802732.5009156098 L 5034184.856859573,1798989.7087733157 L 5039576.839035127,1800357.8854246736 L 5043033.865821712,1805932.8506547962 L 5047469.279612879,1808975.4232607128 L 5063514.871015822,1803083.016995863 L 5069689.651850634,1802902.0263654096 L 5075973.08050846,1803863.273028548 L 5078919.150832305,1798447.0685126886 L 5080680.225176654,1791189.6190384396 L 5083017.489205349,1786070.157226769 L 5087322.436553307,1783166.2947057514 L 5107999.252731722,1781584.5198628283 L 5121174.916342523,1779505.7682797534 L 5138231.622680341,1774433.9662189856 L 5141905.945112955,1775427.9290829631 L 5155657.909727592,1793676.3856044842 L 5159832.279312849,1795247.6358579462 L 5165180.846886993,1795993.7101447938 L 5169855.486263876,1792670.3040529964 L 5158690.920573746,1783121.056682087 L 5157005.877441608,1777720.889063948 L 5157592.865116561,1771587.9765017862 L 5163571.946286558,1758457.7796214095 L 5173584.243927487,1748448.4835095857 L 5195804.616165241,1733245.0337865963 L 5218883.818274466,1715673.8503580443 L 5225591.262872724,1714457.0606133342 L 5231265.9965548925,1717239.949780916 L 5235614.35850426,1737958.3751981054 L 5235070.785430716,1741375.6071687553 L 5238756.128492918,1741849.3693920113 L 5243061.0758408755,1739289.178404988 L 5246865.864716699,1730922.5347128662 L 5247061.564381514,1723978.8853544833 L 5243963.320313755,1717318.8689142247 L 5242452.269545727,1711685.7946762498 L 5242321.803102518,1706504.490223101 L 5254019.032556093,1694276.460868265 L 5263237.733547156,1682594.6382501693 L 5267499.154974214,1668669.0991733964 L 5271195.296027022,1662260.1567453435 L 5280892.336870025,1655032.3775048016 L 5283751.355352068,1656178.7980308183 L 5286012.588168552,1662057.7740414299 L 5287273.615360258,1668275.516165876 L 5284784.066268158,1674449.8895478514 L 5281229.300968656,1680558.1713212107 L 5279794.28141284,1688704.930728253 L 5285262.406120096,1690280.5984597777 L 5290426.183339524,1688299.8510389503 L 5297981.548499155,1673561.309133796 L 5306602.352505167,1659629.654509924 L 5311722.603803695,1652391.3552540508 L 5318179.91350614,1647368.549920385 L 5328909.66526523,1648379.77332704 L 5339345.8675271,1651492.3960659637 L 5322354.394410888,1636797.9393206912 L 5318103.8822939275,1616691.2228670784 L 5338345.773221814,1581937.1123314411 L 5338541.472886628,1574709.5363419547 L 5341465.724590277,1572479.9769166622 L 5342835.510924488,1569679.355456529 L 5332355.782741719,1557953.5496030322 L 5330377.3014318505,1552143.0227437005 L 5331757.885756668,1543334.3137370478 L 5336769.489232181,1535513.0112911789 L 5341313.5508463625,1530042.8152556033 L 5347770.971868299,1527940.0953520858 L 5352902.132476924,1530948.9398016548 L 5364164.43667997,1540570.3256943745 L 5371752.418450403,1542036.2203795018 L 5380927.593520566,1532794.6137727136 L 5388428.634768689,1521263.7589422986 L 5399712.75759193,1513337.0963784566 L 5412508.042502691,1508441.4073258408 L 5431999.751382121,1490307.824496791 L 5444675.47915977,1452403.0884362136 L 5445686.4827751545,1441351.5326947365 L 5442881.676885127,1427952.5573942931 L 5438381.141191846,1415228.112836426 L 5430869.190633624,1399347.1004206452 L 5432825.964642788,1395829.0921323788 L 5443479.573870177,1397933.1890449265 L 5447056.157789875,1395717.8323542157 L 5458633.830110338,1381672.0108863187 L 5477701.634368828,1354767.6029321763 L 5483985.174346144,1354834.3133372772 L 5489398.863822402,1359815.2386043181 L 5491410.073062565,1367188.0529161403 L 5495171.447336978,1372615.9288327391 L 5508064.470760656,1385388.7912192123 L 5514576.215694099,1394927.3983815901 z" /><path fill-rule="evenodd" fill="currentColor"    d="M 5381427.751992701,1501334.0065863586 L 5381579.9257366145,1505513.3158703453 L 5366925.716649097,1503781.1667679346 L 5364621.069231205,1489447.8734879168 L 5371795.944371304,1489001.1532172493 L 5373361.430370329,1483115.8882175044 L 5377720.701629793,1482390.0505660286 L 5382416.936987889,1495122.1663364437 L 5381427.751992701,1501334.0065863586 z" /><path fill-rule="evenodd" fill="currentColor"    d="M 5558897.514355987,1909528.4421741413 L 5546384.86963235,1930899.1553553322 L 5549907.12964054,1913050.8608506622 L 5564409.164984143,1887372.4654618173 L 5568540.119967991,1885386.2012599264 L 5558897.514355987,1909528.4421741413 z" /></g></g>
</svg>
