<?xml version="1.0" encoding="UTF-8"?>
<svg xmlns="http://www.w3.org/2000/svg" viewBox="18573070.051182743 -1251237.9498947295 546813.4726010524 604501.1856054694">
  <g id="map"><g><path fill-rule="evenodd" fill="currentColor"    d="M 18883688.38856692,-650124.1697729349 L 18881503.29828214,-646736.7642892601 L 18878731.109002914,-646971.6265829107 L 18881144.515563313,-649490.381099709 L 18882807.740075253,-653003.7143943964 L 18885471.170211975,-662998.1646178756 L 18890961.113539424,-666572.368207259 L 18894765.90241525,-670726.0442482606 L 18893852.74863227,-666419.3628678602 L 18887862.86947167,-661888.8091631213 L 18883688.38856692,-650124.1697729349 z" /><path fill-rule="evenodd" fill="currentColor"    d="M 18794100.020849366,-815848.1096015841 L 18792447.70564752,-814116.5208048972 L 18781739.66118913,-815146.6680915367 L 18776826.01886552,-817300.4053077042 L 18777293.449407358,-818906.0604210204 L 18785772.877660066,-817360.6753674379 L 18794100.020849366,-815848.1096015841 z" /><path fill-rule="evenodd" fill="currentColor"    d="M 19099902.565742332,-786593.0992292638 L 19104066.13733698,-784166.8688976228 L 19112262.925402563,-784353.05796603 L 19119883.523783796,-778170.3653080309 L 19116948.36277005,-778559.0753149844 L 19112817.296466712,-781198.5888909989 L 19109034.214891594,-782310.3983346313 L 19104000.904115375,-781987.2724229885 L 19101620.11416578,-783005.8941028853 L 19099902.565742332,-786593.0992292638 z" /><path fill-rule="evenodd" fill="currentColor"    d="M 19046982.28169463,-796688.0024020696 L 19060897.21804379,-790936.5039442045 L 19079464.975149635,-793625.8937533315 L 19076486.288214985,-791900.5579091737 L 19069550.638660602,-790284.650322367 L 19064941.232505325,-788893.4734068976 L 19061832.190446958,-788893.4734068976 L 19058157.756694857,-789430.2196273997 L 19046264.827576462,-793439.671370663 L 19039611.706889715,-798693.0841390349 L 19041242.426110342,-800451.5219724688 L 19046982.28169463,-796688.0024020696 z" /><path fill-rule="evenodd" fill="currentColor"    d="M 18578146.77656037,-1249470.612914124 L 18575265.93945813,-1248694.9933955078 L 18573070.051182743,-1249503.8574000518 L 18574646.335172374,-1250972.0944179713 L 18577896.752984047,-1251237.9498947295 L 18579157.780175753,-1250827.9909804703 L 18578146.77656037,-1249470.612914124 z" /></g></g>
</svg>
