<?xml version="1.0" encoding="UTF-8"?>
<svg xmlns="http://www.w3.org/2000/svg" viewBox="2276331.4129785304 -5214781.078040944 284647.3888626145 224553.68961994816">
  <g id="map"><path fill-rule="evenodd" fill="currentColor"    d="M 2400326.5202299613,-5198127.65053389 L 2406533.917675576,-5197319.985991895 L 2420003.130783599,-5201168.099374371 L 2428395.5071945037,-5206494.80663593 L 2432667.837931659,-5207288.501488298 L 2438353.480923925,-5209346.728159541 L 2446528.450369311,-5209045.3127212 L 2454823.088267299,-5206722.687942952 L 2465357.140361576,-5209787.877934319 L 2475717.200091743,-5214781.078040944 L 2479869.9736957857,-5213530.798945556 L 2484359.71139846,-5209295.387489645 L 2487327.489023009,-5208126.521534184 L 2504492.843183841,-5185740.994198756 L 2513896.334529621,-5176696.027445527 L 2524984.7576880483,-5169841.100613971 L 2537649.5761555987,-5164827.559466796 L 2542182.7284596823,-5160021.402413889 L 2550238.252091447,-5136325.82795688 L 2554108.274188875,-5127349.52369524 L 2559456.8417630196,-5124675.001524759 L 2560750.4855655283,-5122088.649079129 L 2560978.801841145,-5118672.732008547 L 2554945.3967596404,-5102084.340455909 L 2552521.192208635,-5065009.667373942 L 2550999.23213051,-5062069.990471392 L 2544683.0755423903,-5062229.369928344 L 2536290.699131485,-5061432.943693004 L 2533083.6959212217,-5058581.351239025 L 2529713.7209764374,-5038708.498282034 L 2516222.6892482187,-5033041.108042161 L 2503971.088730493,-5029837.016990416 L 2493643.5342916376,-5030558.584062311 L 2475488.8838161253,-5035257.102156265 L 2469564.237877126,-5035769.7060997235 L 2464487.4011800084,-5033091.512951542 L 2448289.5247136606,-5031677.023071088 L 2441179.882795166,-5028199.319515692 L 2424481.9591761753,-5005034.1737862285 L 2407566.628591665,-4997063.54537247 L 2401804.9543871866,-4993030.257048612 L 2388879.3143527075,-4998134.981874312 L 2382693.7355272886,-4998660.065607582 L 2373746.7654132512,-4992764.404007904 L 2354135.4994007098,-4992175.019245722 L 2348841.2557380726,-4991147.213939909 L 2333730.525418812,-4990227.388420996 L 2333100.011822959,-4993411.237390833 L 2330306.1152430293,-4998063.107257198 L 2323261.7065461404,-5000242.410551075 L 2308857.5210349443,-4998379.477370226 L 2305346.1703368523,-5001781.842009937 L 2299421.5243978524,-5021442.234674801 L 2294790.410941871,-5024600.282054265 L 2289604.926421738,-5031215.178431305 L 2280821.1506812046,-5052634.669192412 L 2280603.743715685,-5062041.080061052 L 2281201.6407007356,-5070246.511676714 L 2276331.4129785304,-5089538.416229676 L 2279331.807213881,-5094418.3505846765 L 2283854.1615273575,-5097491.274480478 L 2283897.687448258,-5105276.176408278 L 2282625.7509464542,-5117114.561778781 L 2287963.4092105012,-5140382.9891627105 L 2289420.1360670216,-5142076.360906926 L 2290789.922401233,-5140959.5210473975 L 2303748.1790465144,-5139105.834056883 L 2307096.446690595,-5142054.384616615 L 2309227.2130638687,-5146654.3617044985 L 2309922.9598813266,-5163729.930053514 L 2313010.294638987,-5171627.588519959 L 2344362.4273454957,-5186672.339560562 L 2353570.1077069705,-5187229.7485986715 L 2360647.244334153,-5180315.893553999 L 2366245.8354846193,-5175897.534285455 L 2369615.8104294036,-5176029.411567928 L 2370833.4230197007,-5180484.457024407 L 2374638.211895524,-5189056.164514529 L 2381073.9256167556,-5193965.10211067 L 2400141.729875244,-5198149.6062552165 L 2400326.5202299613,-5198127.65053389 z" /></g>
</svg>
