<?xml version="1.0" encoding="UTF-8"?>
<svg xmlns="http://www.w3.org/2000/svg" viewBox="-1367071.8084282372 -2875204.8072837973 1838472.8938668075 1740117.3704328751">
  <g id="map"><path fill-rule="evenodd" fill="currentColor"    d="M -1267862.6537188732,-1391766.1012046447 L -1267085.4210341545,-1400299.0946793351 L -1274472.2484847237,-1406306.6024284654 L -1274673.4028045873,-1409246.7215333094 L -1273950.4940313757,-1417216.6680429499 L -1270640.1863336563,-1434093.8329063526 L -1270982.716406827,-1440532.00297932 L -1267971.4128613782,-1453105.7674308019 L -1272819.9332828792,-1458772.8363397347 L -1273955.9486864246,-1462956.8668132392 L -1279375.092817732,-1469669.3352649533 L -1285604.1975640513,-1479191.238326905 L -1287039.2171198672,-1486817.7481125554 L -1289229.7620596974,-1492888.0660147609 L -1295197.9339195972,-1502021.2079260682 L -1299595.276444913,-1503451.5020531153 L -1308922.6252589906,-1504842.7345525115 L -1310477.2019479186,-1501702.7773382713 L -1313945.0267251106,-1497149.838952429 L -1317097.5947043763,-1495837.12562841 L -1322228.7553130016,-1501412.2684127463 L -1324169.2766765098,-1506189.4065456097 L -1324098.588799856,-1510553.8415377443 L -1331056.0569744355,-1518161.075422502 L -1341867.2946007876,-1532151.4256892607 L -1340747.6431623888,-1543703.6538389856 L -1334072.8151749333,-1549915.3569444243 L -1332088.7678905248,-1554600.273034227 L -1331480.072914867,-1559913.109643564 L -1334507.6291059717,-1566274.248016227 L -1338073.3037155713,-1571309.2869912938 L -1337078.6640653333,-1582458.2475040364 L -1337969.999228115,-1597917.766294827 L -1343443.57859042,-1605695.8827284572 L -1348400.858154426,-1611333.1905749126 L -1355341.9623638592,-1617465.53020191 L -1361261.264967301,-1626882.9693619057 L -1358858.7677170003,-1639824.9427279697 L -1356597.5349005165,-1648683.1827704506 L -1367071.8084282372,-1667201.658017546 L -1347487.5930519584,-1659871.27023412 L -1344911.2147570387,-1662288.246396734 L -1338236.3867695832,-1666729.456020221 L -1329256.9113642348,-1676170.8198333604 L -1321679.8389038995,-1688643.0447233298 L -1318271.681373773,-1704116.9762014097 L -1316771.5399158427,-1717437.1327159947 L -1313395.9989965183,-1728729.8911220096 L -1309134.577569461,-1738291.069074945 L -1299752.9048438761,-1748284.8957512705 L -1290941.9671475887,-1755354.0437874019 L -1280473.148274917,-1762701.9198743186 L -1275189.8139223773,-1761381.251677379 L -1265215.5875473,-1751139.4090957018 L -1243364.796018979,-1730567.4315777246 L -1225340.611986677,-1714902.029180789 L -1218752.724521531,-1706622.7014705099 L -1212893.2004846456,-1706549.4680936525 L -1203930.0890444433,-1721690.9749395307 L -1194678.7714425777,-1734755.927319515 L -1190738.0614684958,-1737958.3751981054 L -1178491.804286328,-1739368.0542568117 L -1168093.6732903097,-1739937.631071929 L -1159038.0553532585,-1739723.287518573 L -1142372.7483450698,-1737191.6147981205 L -1134763.0592739326,-1734885.5919499102 L -1127615.346089587,-1733459.204037993 L -1106672.2536891946,-1732314.8296572454 L -1085930.3156086653,-1735511.4097130243 L -1066199.381143521,-1739644.4104974824 L -1051626.769242755,-1742063.6164802215 L -1050892.9511594458,-1748239.7244705164 L -1051713.7097650645,-1755540.3304567568 L -1049360.0817712224,-1761110.3070645267 L -1044772.6055556317,-1766263.8724136231 L -1040902.4721387128,-1767392.9977868707 L -1039217.429006575,-1749858.7813062235 L -1034570.0629049374,-1747218.7146052178 L -1021557.4823481485,-1746440.336568887 L -1000435.0542480882,-1746440.336568887 L -977730.7761838551,-1746440.336568887 L -955026.609439113,-1746445.9969883629 L -932322.4426943709,-1746445.9969883629 L -909618.2759496287,-1746445.9969883629 L -886914.1092048867,-1746445.9969883629 L -864215.3971151933,-1746445.9969883629 L -841505.7757154024,-1746445.9969883629 L -818807.0636257093,-1746451.5418903753 L -796102.896880967,-1746451.5418903753 L -773398.7301362249,-1746451.5418903753 L -750694.5633914828,-1746451.5418903753 L -727990.2853272499,-1746451.5418903753 L -705291.5732375567,-1746451.5418903753 L -682587.4064928147,-1746457.2023125086 L -659883.2397480725,-1746462.8627359837 L -637179.0730033303,-1746462.8627359837 L -613648.6929979206,-1746462.8627359837 L -607316.2837641451,-1780347.3576090657 L -601521.9929488646,-1811430.0418925225 L -596662.6745367565,-1837502.9959274456 L -613327.9815449452,-1855970.8076518583 L -626579.7876874488,-1870670.8232624517 L -629650.8697994536,-1898669.0838628516 L -632825.2563989146,-1927606.9705886925 L -635988.7336882779,-1956577.7092125816 L -639163.008968248,-1985593.2521051057 L -642331.9409126602,-2014648.7813463297 L -645500.8728570723,-2043744.8389346206 L -648669.8048014845,-2072876.3424875955 L -651838.6254264057,-2102055.3240715796 L -655013.0120258668,-2131271.1909601046 L -658176.4893152299,-2160530.24704053 L -661350.875914691,-2189838.834187667 L -664519.6965396123,-2219192.111713109 L -667688.6284840244,-2248584.855136525 L -670857.5604284365,-2278029.2265038867 L -674026.4923728487,-2307520.3748005223 L -677200.7676528188,-2337053.06222262 L -680364.2449421821,-2366639.6397599694 L -683538.6315416431,-2396274.8885351983 L -686707.5634860552,-2425959.7682096735 L -689876.4954304673,-2455689.022559982 L -693045.3160553887,-2485474.981937597 L -696214.2479998007,-2515312.7700016648 L -699388.6345992617,-2545197.116238294 L -702552.1118886251,-2575140.4289022293 L -705726.3871685952,-2605131.9042928903 L -708895.3191130074,-2635178.0783860283 L -712064.2510574195,-2665285.6568230586 L -715233.1830018315,-2695449.376760026 L -718402.1149462436,-2725670.2618378145 L -721576.390226214,-2755943.0066940407 L -724739.8675155771,-2786280.215611928 L -727914.2541150382,-2816676.973418542 L -731077.7314044014,-2847127.9592094063 L -734050.9636839989,-2875084.932438425 L -699888.6817519052,-2875108.8827668815 L -663443.459702623,-2875126.937654993 L -627927.7554014645,-2875150.888050098 L -575844.5939245248,-2875180.8568031387 L -536850.1555360766,-2875204.8072837973 L -502829.2493572904,-2851749.909857997 L -472031.5990344233,-2829574.7434960585 L -435570.12433948525,-2803384.154145414 L -399119.55895464495,-2777231.831718064 L -362663.42759526504,-2751123.506633191 L -326207.4075553759,-2725058.5462925127 L -289756.8421705356,-2699036.3226549155 L -253295.36747559754,-2673050.6351335538 L -216839.2361162176,-2647118.6850298084 L -180383.21607632842,-2621216.2326054424 L -143932.65069148815,-2595360.458663986 L -107476.63065159897,-2569551.088106635 L -71020.49929221903,-2543769.8047875958 L -34569.93390737873,-2518033.716627865 L 1891.5407875593046,-2492342.5584821003 L 38342.21749189039,-2466678.105369113 L 74792.78287673068,-2441057.394823706 L 111254.25757166871,-2415474.3206948075 L 127517.36725962123,-2404074.515129896 L 129039.32733774687,-2399332.607348669 L 130550.37810577475,-2389730.263591517 L 129582.78909179961,-2378923.056272466 L 129767.69076600726,-2370122.5705492864 L 134572.6852666081,-2364151.34390736 L 143628.19188416854,-2357757.933506803 L 179296.18124873211,-2338962.7930743145 L 182122.5831199733,-2335253.7191584124 L 183383.6103116795,-2327466.5411066487 L 187623.32443803214,-2317908.21029828 L 195167.89160705547,-2312354.2014697604 L 203984.28395839196,-2308233.2080484675 L 214714.0357174832,-2305364.71485309 L 247055.35341918064,-2302409.815397411 L 253904.0624512552,-2297960.916582991 L 267851.6154112168,-2280598.3866700465 L 275428.79919104255,-2277178.8036157684 L 296975.1319120438,-2272192.2226535697 L 312575.1113933408,-2269410.316009102 L 319010.8251145723,-2267814.1582584423 L 333121.3498090553,-2263153.901648157 L 348460.3964039328,-2255292.8867629785 L 356635.4771688093,-2248134.220386787 L 356602.86055800685,-2245893.0375149376 L 356526.7180263042,-2239690.684748529 L 356407.1608931922,-2221026.341347755 L 359233.67408392427,-2210772.889069842 L 362440.5659746969,-2203377.4613074088 L 362277.59424017556,-2198853.8509543375 L 358407.4608232566,-2195644.8584752213 L 355374.44997710304,-2191710.71711002 L 353689.40684496524,-2186533.4637841284 L 349308.428284796,-2179930.07595359 L 345764.46097590134,-2172615.5175998122 L 347286.421054027,-2167086.7556804703 L 353352.442746334,-2163520.591733501 L 362451.47528479464,-2156499.6000432894 L 369963.42584301555,-2153567.7784104017 L 373637.7482756291,-2153360.8179396586 L 378584.11852953746,-2153573.546964492 L 382802.12535518536,-2154481.8210983574 L 410044.89905906,-2159834.489264632 L 435276.5748422634,-2164797.4282498597 L 470618.39809880266,-2171752.3551218617 L 470683.6313204075,-2151176.564580994 L 470770.5718427171,-2120158.180190116 L 470879.21966573136,-2085664.5354867508 L 470977.06949813856,-2053877.7466386864 L 471096.73795074143,-2017720.473172285 L 471183.67847305094,-1988700.6307216522 L 471292.3262960652,-1954425.7590273176 L 471401.0854385702,-1920404.4700090094 L 467868.0274397733,-1916482.9510996384 L 466563.4743271669,-1897346.1109579995 L 465552.4707117824,-1872196.3984602601 L 458779.7928919197,-1846185.562423503 L 446930.38969442964,-1827052.2136507416 L 442625.4423464722,-1808839.6745185873 L 439385.8225254063,-1798430.0497039051 L 434950.5200537299,-1792777.716117135 L 433917.6978181499,-1785968.4459419579 L 431580.4337894543,-1776399.2636361578 L 427797.3522143358,-1770204.5998040694 L 424851.2818904918,-1767003.3590300244 L 412947.4434620038,-1763266.3907409327 L 391901.157893646,-1744939.9106504493 L 390096.55762839626,-1730302.4929550893 L 366136.70702750597,-1734316.1350448644 L 340655.0076679809,-1738482.7656643647 L 337230.708811689,-1738212.1967665742 L 335132.5590492174,-1736300.74851001 L 334078.0295129327,-1728526.959889356 L 299410.2457731467,-1727247.539726803 L 269482.33463184745,-1726154.130202448 L 232455.57956266118,-1724880.4911678024 L 206984.67819374305,-1723995.7353338709 L 174675.97710284806,-1722237.6302498842 L 144737.04533196034,-1720597.9321491562 L 124821.32051209893,-1703739.663550637 L 106873.27901149943,-1687692.0711237278 L 105470.87606648577,-1687140.6569120062 L 79999.97469756764,-1684001.1149264355 L 48202.2300694138,-1686780.5445653393 L 31862.977849758692,-1686915.600483914 L 25459.99205882039,-1685013.8230815993 L 24209.762857721136,-1679000.0577134548 L 815.3039505699355,-1687450.069638476 L -26259.04336373451,-1696049.4957026427 L -45131.14795740897,-1690640.7619427033 L -48120.632882662336,-1692486.7257282361 L -50593.818009616494,-1696077.6236765054 L -59725.46715887951,-1698177.2835108517 L -74189.43123663114,-1697242.7726234612 L -84652.7954542541,-1694704.232280539 L -101073.53354116988,-1681986.9987029014 L -113455.60050210568,-1670923.8577229984 L -116836.596076479,-1668410.4713714633 L -134137.7600160788,-1661731.754833645 L -166272.58006235465,-1646143.8376190267 L -184492.46375947134,-1634725.9743941752 L -188694.10661997265,-1632620.372277554 L -196787.5901980976,-1630037.7948497443 L -209256.70900083377,-1629515.7001141254 L -219638.58735119607,-1626647.1865030047 L -228998.55277607607,-1596555.3284467773 L -235243.9101680511,-1593550.2942499837 L -273537.25840348325,-1605684.62588568 L -281293.66656348616,-1603867.5140322342 L -287952.2419052858,-1600340.130993249 L -309340.9462273238,-1582676.7578225438 L -319923.9788975495,-1568564.764522837 L -325707.3604027325,-1549764.2849580382 L -324886.60179711366,-1543988.9991878504 L -324728.9733981504,-1537470.9310476189 L -328484.8930175154,-1533913.3278282033 L -333648.67023694306,-1532615.5734168421 L -338263.4197277782,-1532844.9010723983 L -356048.37817436556,-1536710.2010551628 L -361636.1713342247,-1535048.8138106063 L -364033.2139294763,-1525781.5380976992 L -363652.7239099449,-1505557.945582252 L -367550.0192826173,-1491826.9571284088 L -378122.14264274534,-1487588.3017611024 L -386269.95013237745,-1482177.9512847557 L -392694.7545435112,-1480614.7549122265 L -398054.1201082626,-1481926.6357300628 L -428965.9842286835,-1502440.2192092335 L -439412.9844811599,-1505719.986375478 L -450974.4041559677,-1503457.1089521232 L -462089.9892701484,-1494736.7823332218 L -467117.8453913173,-1489012.246798126 L -474075.31356589694,-1482283.94355449 L -481869.90431124205,-1473335.9276633156 L -479815.28046967054,-1465729.7661721744 L -474292.83185090707,-1456915.2931643424 L -470352.01055733435,-1445967.8474131746 L -470558.6195322467,-1436172.8355893574 L -498779.7802407035,-1422308.3389329251 L -496469.67816776154,-1417534.1512790956 L -492246.3280065554,-1411969.9673456382 L -492208.2567407041,-1401874.5701243496 L -493001.85339056933,-1384153.5354377097 L -498698.29437344277,-1377794.4854758133 L -506063.4145233074,-1371492.4824004686 L -510612.93079253763,-1363356.8032044698 L -515102.66849521204,-1359392.7106217965 L -523125.4641966832,-1354378.4997585888 L -534105.2395320962,-1349365.113463123 L -553145.8818348317,-1344947.1666124684 L -568387.078597302,-1342013.222037697 L -574132.5001561242,-1339151.9226647867 L -582220.5290792004,-1333224.440711833 L -588672.4954460877,-1326131.9534372422 L -590216.162824918,-1318457.990641866 L -588938.7716680652,-1309686.9975810924 L -586688.4481616791,-1302477.6677026758 L -583845.6823252913,-1297578.0839213638 L -582133.5885568908,-1291408.8529360613 L -584454.4886204399,-1274748.996689452 L -589977.0485586941,-1255471.1623641849 L -595271.1809018406,-1246883.4323307818 L -603821.2970311996,-1242169.550071313 L -611197.3264911618,-1236913.50827111 L -608756.7579750102,-1224289.1427823503 L -607479.3668181574,-1206191.3762140896 L -609550.3546248754,-1191753.1961658953 L -609919.935334309,-1182822.3429175853 L -613039.8867027721,-1173578.6060218092 L -614877.1035788243,-1167078.5069825621 L -618556.9919859775,-1168653.6705862978 L -633885.1292707573,-1167890.9819705468 L -650534.1836332902,-1162950.3184035597 L -656360.9797398825,-1159010.347682128 L -657627.4615866377,-1153634.518013609 L -661312.8046488396,-1149999.4553562484 L -666655.9175679353,-1145928.3387320356 L -671765.259556365,-1140918.8982315282 L -680962.2532467236,-1141719.6922405155 L -689832.9695095671,-1145138.5366039088 L -694453.1736554512,-1148474.7828531773 L -694779.3397634755,-1150463.4203156757 L -691849.5220852873,-1155347.127598308 L -689360.0843126774,-1160673.648819075 L -689142.677347158,-1164166.0658722334 L -692159.324228165,-1172766.1127618735 L -694605.3473993656,-1182031.6025251655 L -693594.3437839812,-1186493.9784225058 L -695773.9794137134,-1200133.244381897 L -696986.1373489613,-1200830.2483069885 L -708618.133580932,-1197289.859770786 L -712906.7169637429,-1196415.8648089394 L -715325.57817919,-1194905.8260256373 L -716075.648908155,-1192295.1896654803 L -713281.8636477162,-1183646.1679009506 L -715108.1712136706,-1182147.7835046395 L -721641.6234478188,-1182385.4688025278 L -730767.9292615236,-1185238.7250818422 L -740736.5896620613,-1193169.0800776123 L -743209.7747890155,-1190602.8615529677 L -744296.9209361026,-1184287.5758790025 L -744949.1418326604,-1176812.5771043578 L -742427.087449248,-1163248.6491376543 L -745090.5175859678,-1158413.6469390783 L -751765.3455734233,-1159281.1465310974 L -760717.6590230184,-1159264.5115234158 L -768528.5024140192,-1157916.3096817203 L -773708.5322791026,-1157606.934341727 L -776953.4954357265,-1152767.1561039789 L -778317.8271148889,-1147369.9817225842 L -775208.6737370328,-1141360.6900130059 L -775692.4682440204,-1138814.8628146395 L -778062.3488835184,-1136489.9688116326 L -781138.8856505719,-1135087.4368509222 L -783660.9400339845,-1135258.537864014 L -790911.9577057859,-1141902.022404437 L -799532.6503923079,-1144409.4952041726 L -819665.8934971794,-1148220.695938588 L -822101.0073582821,-1157358.3270687654 L -825411.203736511,-1157490.9475732443 L -830058.5698381484,-1162314.846112214 L -834667.8646739348,-1168637.1443592398 L -838548.7960814607,-1168299.9431054418 L -841810.1232032313,-1166536.9051252254 L -852833.4244595444,-1167238.78198056 L -862622.7491604141,-1157601.3895997864 L -869873.7668322154,-1145641.125663681 L -877651.9936124139,-1139891.6910652695 L -886207.5643968217,-1137373.562460582 L -889512.3061200015,-1137263.0696633807 L -887713.1605098007,-1144845.7870922955 L -888963.2783914093,-1150375.0617355863 L -891365.7756417097,-1155291.9100424608 L -916325.7205478866,-1168432.6046433349 L -920239.268566215,-1173866.045446067 L -924125.6546287898,-1188766.7775673855 L -926636.9110215951,-1203712.6778052459 L -926365.1801445689,-1212488.4771775422 L -924658.4297117263,-1220325.6172195312 L -925370.4291748402,-1226409.4652020943 L -928115.3451788207,-1231043.665451059 L -935583.7698161413,-1235501.3537134125 L -943400.0678621911,-1237594.7119344233 L -953287.2423954682,-1231730.305978015 L -958037.9129845619,-1230628.3993573447 L -962489.5794213848,-1231027.1091400473 L -964772.5195385731,-1233181.0860082882 L -964462.7173956955,-1236171.4136458116 L -953705.8036808508,-1252185.4249853732 L -948476.7932398184,-1258873.5607178602 L -942155.2933161408,-1263955.800298599 L -937899.3265441322,-1266682.824919543 L -935159.8651952005,-1270618.643630909 L -934920.639609486,-1273701.1721744975 L -935915.3905792146,-1275941.0689431615 L -942954.344621055,-1278885.4420612645 L -953868.8867348628,-1286366.7099834855 L -959701.2488159948,-1287165.3797368282 L -964576.8198737587,-1290560.0905155374 L -969751.5064032839,-1302239.0063960864 L -972164.8016441913,-1304481.0162003017 L -977355.7408193726,-1305701.9310809933 L -982062.8854875661,-1308543.5653677816 L -981845.4785220467,-1323766.2551957616 L -981649.890176723,-1336890.8124677036 L -992287.1354389652,-1358064.0230825078 L -996401.8377771567,-1371392.3618134486 L -1001755.8600063502,-1385099.3447784507 L -1006669.5023299651,-1391532.3285940664 L -1015284.8516809292,-1396959.0409461143 L -1025867.773031664,-1400711.0269807098 L -1035271.2643774443,-1401557.25635443 L -1042527.7367042946,-1400304.6813230705 L -1045886.8023389815,-1398634.5499474523 L -1045696.5573292158,-1396079.5421587795 L -1039815.3259916257,-1387391.974357825 L -1038782.6150755365,-1382573.3030225225 L -1039744.7494344625,-1377905.792271843 L -1041739.4833899874,-1374790.725040986 L -1046957.5845209222,-1374451.3726594266 L -1056067.5263694802,-1371742.7283722553 L -1067302.779936264,-1366481.849337108 L -1075157.1492481648,-1362000.1584869896 L -1081440.5779059913,-1350543.2871680574 L -1085810.7584755535,-1349115.0519035594 L -1093235.657191974,-1350543.2871680574 L -1114379.9039122302,-1358964.6095786965 L -1131795.2816493837,-1365909.0177228404 L -1143791.51525523,-1369918.4977001466 L -1151031.6236169338,-1367371.5250523542 L -1154689.6934038918,-1366148.170754877 L -1165049.7531340586,-1361494.2505371065 L -1178817.970394352,-1344602.5712120007 L -1182101.0048168274,-1339018.5702485582 L -1184851.3754758567,-1337235.207776856 L -1188596.4971046147,-1334263.2038019767 L -1192145.9190685584,-1334185.3892157176 L -1195004.937550602,-1336201.9196021236 L -1195907.2933429722,-1337429.6500367294 L -1202973.4093405663,-1349609.599840431 L -1210729.9288200599,-1362995.3745456757 L -1217078.590699491,-1369067.6985934107 L -1225019.9005337015,-1369334.6669742274 L -1231841.4476100225,-1365152.8510561974 L -1238902.2202720584,-1356524.207198392 L -1247854.5337216533,-1348537.0840284678 L -1253534.6107393801,-1346169.6693560076 L -1258486.4356483372,-1347464.4919754046 L -1270672.8029444586,-1357547.023342855 L -1279331.6782163226,-1364713.5086834815 L -1280418.713043919,-1368322.5002925447 L -1277342.287596356,-1373850.7089715481 L -1274336.4387059559,-1382061.4660251627 L -1271053.29296399,-1388721.958155972 L -1267862.6537188732,-1391766.1012046447 z" /></g>
</svg>
