<?xml version="1.0" encoding="UTF-8"?>
<svg xmlns="http://www.w3.org/2000/svg" viewBox="10261385.020332733 -3314318.6123387692 998277.1259190608 2209511.3478107406">
  <g id="map"><g><path fill-rule="evenodd" fill="currentColor"    d="M 11145581.375489393,-2310580.4359482005 L 11132351.276647594,-2318053.2067522225 L 11126861.444639632,-2322309.7978322217 L 11119740.89341104,-2323376.9512794646 L 11112489.875739237,-2318633.085291299 L 11106717.403544154,-2313507.7989670276 L 11100792.646285662,-2311623.757800208 L 11091726.230358005,-2311032.586247125 L 11079811.59393891,-2313687.428113689 L 11071712.655705737,-2316087.599014966 L 11070495.043115439,-2314783.168379194 L 11074897.840295803,-2303933.6024286035 L 11076474.124285437,-2295285.0941679496 L 11074723.959251186,-2290791.6656585694 L 11070897.351755166,-2287051.768515847 L 11065070.444329083,-2284105.484220176 L 11058243.442597713,-2282380.7723397803 L 11052209.926196719,-2282560.21740654 L 11042545.61328401,-2286675.484853927 L 11035185.947789194,-2286849.1624069884 L 11028891.60982127,-2284805.7978215953 L 11025054.093015153,-2281755.8097548615 L 11022934.235951977,-2277983.013310134 L 11019227.185589071,-2256616.339925668 L 11015955.060476694,-2249936.705769024 L 11011356.563631512,-2246147.1313165347 L 11006801.592707234,-2245754.3993239896 L 11000539.871350111,-2246805.685521423 L 10993984.711815258,-2245933.4935614164 L 10964285.005630087,-2237681.308904513 L 10959958.239661934,-2236867.355447902 L 10950641.800157955,-2236243.789570457 L 10941999.288851235,-2236018.67716684 L 10935922.357848832,-2236422.7936759237 L 10921670.457401041,-2244876.459972168 L 10914767.313137969,-2245771.788187938 L 10910984.23156285,-2243380.674121528 L 10908331.710736228,-2232053.0467622727 L 10900004.456227437,-2224862.764211783 L 10888916.033069009,-2209164.4363064826 L 10886328.745463992,-2186262.82750217 L 10887481.013513193,-2170302.5640329174 L 10877490.534492461,-2154521.9674333427 L 10876588.290019581,-2146906.5834292513 L 10881925.948283628,-2110341.844532664 L 10881023.592491258,-2106510.7359228753 L 10879001.585260488,-2104612.5435279356 L 10872750.773213465,-2103345.342192339 L 10862260.247040087,-2099527.0776116857 L 10855335.39547631,-2095892.8922571554 L 10851976.218522133,-2095480.1743239656 L 10842192.237156821,-2098214.295071563 L 10839615.858861903,-2098265.9500686885 L 10840365.929590868,-2095485.9260230714 L 10848171.31832682,-2079690.3196449275 L 10856302.873170795,-2072212.1299615384 L 10864706.158891799,-2073042.369699949 L 10868369.794653295,-2071559.5461807651 L 10867282.64850621,-2067770.1437208317 L 10870522.268327273,-2057893.390168206 L 10878110.250097707,-2041926.847654786 L 10880360.462284602,-2029977.262032351 L 10875751.167448817,-2018074.4425460547 L 10876631.70462099,-2013815.2815130663 L 10879153.870323895,-2011326.437942444 L 10886263.512242386,-2000272.9059335415 L 10901439.475783253,-1982993.8064131157 L 10916332.799136994,-1964321.9480915398 L 10928747.482708734,-1948767.9646205169 L 10937868.333867388,-1938019.8598572612 L 10958164.548706783,-1917994.6986786923 L 10961762.839927183,-1908608.1663734291 L 10962534.729276344,-1889676.82455921 L 10967546.332751857,-1878747.8583536744 L 10972177.334888348,-1870937.3703891372 L 10975395.136089219,-1864416.6453829862 L 10982863.56072654,-1843019.1389977096 L 10986037.947325999,-1840119.340459741 L 11002311.85500456,-1853131.6682006004 L 11006084.138589071,-1850417.509578051 L 11008193.08634215,-1845511.406044762 L 11008214.904962346,-1839269.8856029678 L 11005660.12264864,-1832192.134977378 L 11000365.990305495,-1825671.2075148253 L 10975253.8716554,-1810593.0027704083 L 10973210.045804435,-1797616.0558037828 L 10971448.97146009,-1777941.2443169537 L 10971035.864829754,-1753796.781342388 L 10972231.658799857,-1735753.7741460158 L 10971307.707026271,-1731610.2444625078 L 10969122.61674149,-1729648.6438317706 L 10959642.982864005,-1730420.8203021921 L 10945978.181410661,-1721324.6985565906 L 10941162.277599962,-1720519.0023378788 L 10935161.489129258,-1717031.4614342009 L 10930573.901594179,-1712733.4467296603 L 10929117.174737658,-1706194.7218069506 L 10931813.110165687,-1686426.0839123814 L 10936694.247197991,-1667859.485643953 L 10946282.528898489,-1654245.6463272911 L 10953859.601358823,-1643486.9510065436 L 10964415.472073296,-1628527.6469669128 L 10972764.433882792,-1615540.9518330048 L 10989592.712625502,-1601276.569774111 L 11013237.306428466,-1579936.7884158415 L 11022260.196435222,-1568155.9667763705 L 11030228.668225188,-1553889.3839578782 L 11035859.875986455,-1541734.051389345 L 11038001.551669829,-1525591.4356940475 L 11039740.91871347,-1516562.298957582 L 11040240.965866115,-1486371.070050127 L 11035892.492597258,-1479503.80897095 L 11032587.750874078,-1471561.205269399 L 11034424.96775013,-1463246.976112598 L 11039947.416368894,-1455314.4305949192 L 11039947.416368894,-1446246.7067451342 L 11045100.284278223,-1430014.3410659656 L 11053731.886274844,-1420102.2078070394 L 11062037.43348293,-1413412.3853900891 L 11065722.665225642,-1408127.3637211423 L 11064515.961945442,-1399658.9179143826 L 11066972.89442674,-1390675.2160890775 L 11068766.585381893,-1380898.6988206643 L 11072158.378946872,-1367365.9445674708 L 11078844.004924934,-1355912.62874713 L 11089062.800221285,-1320817.7144370847 L 11088812.776644964,-1317231.0091546634 L 11084399.18147399,-1310125.4436271845 L 11077985.175053464,-1303704.0742508282 L 11073832.512768913,-1301639.7471465042 L 11069908.055440487,-1295037.0527322302 L 11060569.79731631,-1276301.492664404 L 11041795.542555043,-1244047.2175012608 L 11023456.101724816,-1223032.5001601882 L 11008062.61989894,-1208111.3439063027 L 10996908.963518908,-1199060.0083941657 L 10993604.221795728,-1193677.9063133586 L 10993604.221795728,-1189447.0154420964 L 10995626.229026496,-1181909.9865936397 L 10994843.430367239,-1167625.663475118 L 10992451.842427036,-1158568.3377862305 L 10989288.365137672,-1148971.9884217079 L 10987516.381483227,-1140416.375147309 L 10982559.213238709,-1139135.1595943444 L 10971938.220622124,-1122842.066347634 L 10967339.723776944,-1131012.5763097568 L 10964621.969728718,-1139527.2782015451 L 10967535.42344176,-1158828.043394467 L 10961067.093109725,-1195364.9478387907 L 10965078.602279954,-1200249.3729533716 L 10968937.826386774,-1202711.2779690148 L 10975971.325773563,-1216733.3269204088 L 10984515.987247873,-1230622.8428552572 L 10985298.67458764,-1247204.7340889801 L 10992212.728160812,-1259377.935632699 L 10990582.008940183,-1269548.7003995425 L 10990940.791659009,-1281502.8757726678 L 10992397.51851553,-1291275.7033307566 L 10991843.036131889,-1299275.8918311635 L 10997332.97945934,-1307616.7098059678 L 11006823.41132743,-1313827.9816275379 L 11002844.518768005,-1316048.531474008 L 10998898.354138875,-1320595.6299076006 L 10986527.085168546,-1313672.4546600988 L 10980145.806678312,-1315948.5914147834 L 10978873.870176509,-1323122.1194487095 L 10980450.265485631,-1330819.4129927743 L 10981102.486382188,-1335502.0065325426 L 10986059.654626705,-1340785.3090277847 L 10985711.781217976,-1351071.3231373455 L 10983211.434135268,-1360132.1099840894 L 10986820.634665767,-1371353.4071357397 L 10979504.383772362,-1371381.1993567913 L 10976134.408827577,-1373639.2891444622 L 10978232.558590047,-1379869.5080911643 L 10984863.860656604,-1385394.2611002533 L 10978819.546265002,-1395907.065422803 L 10983298.374657577,-1407219.7059263245 L 10983135.402923057,-1421188.4805752202 L 10980069.775466101,-1433525.3950841269 L 10980232.747200621,-1442399.5555422637 L 10975558.21914323,-1458136.8483103632 L 10973427.564089447,-1478236.6275685206 L 10963534.82358163,-1493234.3048903795 L 10956207.774697619,-1515058.6300102526 L 10936629.013976388,-1543658.8468727928 L 10936966.089394508,-1555910.2111408385 L 10935911.559858225,-1566699.8768308335 L 10931617.521820365,-1571942.2905414277 L 10925953.697448295,-1533818.1333804366 L 10921627.042799633,-1541297.7056484066 L 10920246.347155323,-1562555.935182347 L 10917398.126663886,-1572664.9059334719 L 10920463.754120842,-1592754.1996942647 L 10909136.21669619,-1612713.2963481806 L 10906700.991515597,-1627214.1726555352 L 10899265.29480857,-1649205.672281919 L 10901439.475783253,-1654138.9630561466 L 10911397.338193184,-1649194.3962433478 L 10902243.870423725,-1662007.2361813148 L 10894742.940495094,-1659106.9483286205 L 10888415.985916367,-1672948.362644948 L 10887024.49228145,-1710519.8416566446 L 10880784.478225034,-1724581.7987769821 L 10884176.271790015,-1738916.975655072 L 10877066.62987152,-1790313.72928651 L 10863032.025069758,-1806990.351120771 L 10865815.01233959,-1821387.1873691431 L 10869304.655736977,-1834139.6161226179 L 10868532.766387817,-1857784.4091395843 L 10871978.883864304,-1865074.2988155421 L 10878805.996915163,-1870659.5575061508 L 10872402.899804737,-1868691.7375836535 L 10866967.391708283,-1867019.0408360304 L 10854215.63271842,-1865635.5952626222 L 10839833.265827421,-1865363.4216273741 L 10834843.480972106,-1882651.1656606614 L 10827766.344344921,-1890942.4933184315 L 10821559.058218798,-1908324.063739224 L 10817841.098545792,-1928044.7973987923 L 10820276.212406894,-1931934.158049909 L 10809144.263327569,-1939988.1839616927 L 10806285.244845524,-1944926.73490225 L 10794664.04660416,-1957796.0813566323 L 10781455.766382558,-1967557.1058822256 L 10784380.018086206,-1960694.2641942848 L 10787945.804015297,-1956338.5670633758 L 10781390.533160953,-1944460.1325613284 L 10787815.337572085,-1924428.914854253 L 10782184.129810818,-1911653.1353469908 L 10776911.704768376,-1895041.0692422194 L 10771878.393992158,-1887134.1973511179 L 10755963.157712935,-1870120.7822388466 L 10743070.134289257,-1864365.557293347 L 10734666.737248763,-1863271.4873242849 L 10727230.929222247,-1865079.9883449657 L 10718088.482082376,-1873846.8315243507 L 10715848.956566596,-1881181.6951224327 L 10714381.431719469,-1893525.3191244295 L 10711196.247129403,-1895296.5142418316 L 10707717.513042113,-1893871.664155023 L 10713131.20251837,-1877942.2538871134 L 10713022.554695355,-1870529.130658178 L 10722773.808130372,-1856248.5548782123 L 10719295.074043084,-1852259.0960125292 L 10701705.815261312,-1844423.8186540627 L 10695683.208170414,-1845681.3644173427 L 10691443.494044062,-1844123.5957214797 L 10690247.70007396,-1837706.8741883 L 10688040.902488474,-1834122.6868366182 L 10660319.67761317,-1824307.2067026035 L 10654547.205418086,-1813223.1871549468 L 10650992.328799093,-1802031.368873653 L 10637207.858893141,-1785951.5519602743 L 10618716.244319,-1772638.2545516929 L 10614139.454774525,-1773394.9417413264 L 10608910.555652982,-1776500.933387322 L 10609617.211780539,-1790878.8642165256 L 10615954.964349872,-1803037.7402563577 L 10613954.664419807,-1816028.9709678744 L 10612421.906351076,-1808573.854847842 L 10600496.360621884,-1790460.7116589395 L 10595049.943215331,-1784544.7658321585 L 10584070.16787992,-1786104.0610867473 L 10568959.437560657,-1783686.0176088095 L 10563241.28927708,-1802302.7872494732 L 10563350.048419585,-1809145.1103107845 L 10562241.194971792,-1814908.8408513176 L 10563980.562015438,-1821036.2769545428 L 10563458.696242599,-1825903.1467369827 L 10559784.262490496,-1816589.0564791104 L 10558403.678165676,-1808528.567357155 L 10552881.229546914,-1801375.5314484206 L 10537672.538075754,-1793653.8142691285 L 10537085.550400801,-1803422.3058660147 L 10536541.977327257,-1812233.2851410073 L 10539814.213759126,-1820164.9344401136 L 10539346.671897795,-1832769.5441656006 L 10544173.48501859,-1850944.440936235 L 10543803.904309157,-1857183.612080328 L 10542325.358832441,-1864082.1366177064 L 10539618.514094312,-1854061.0254377385 L 10538085.644706087,-1843681.8529780689 L 10535020.017249132,-1840544.0797985888 L 10529432.335408764,-1838193.8467814862 L 10519213.540112413,-1826288.094532475 L 10513191.044341007,-1815655.6654436942 L 10497319.222663192,-1805604.8743548186 L 10488948.553552993,-1806628.4259567093 L 10487883.226026101,-1819389.6887509245 L 10494231.88790553,-1864705.7597185154 L 10500471.901961949,-1871079.181723791 L 10503374.446364895,-1878951.9943683126 L 10508559.930885026,-1905483.9374869748 L 10514397.636301715,-1915528.284395286 L 10516702.3950391,-1936597.8149068363 L 10519061.3663685,-1940221.435545901 L 10526866.755104452,-1956771.2635634001 L 10529595.418462776,-1987201.0638167053 L 10526377.617261905,-2002343.9767068475 L 10519061.3663685,-2017029.5076718344 L 10511984.341060808,-2061166.0485152714 L 10493623.081610385,-2097004.9017174903 L 10492101.12153226,-2108976.7876786096 L 10483034.7056046,-2123458.1292823935 L 10491383.667414095,-2124485.5084081087 L 10474196.605952559,-2137191.913234195 L 10471826.72531306,-2142390.44486503 L 10468369.698526476,-2172155.1202312172 L 10469032.828733131,-2188802.240655894 L 10466532.481650423,-2186608.346387645 L 10464206.126931826,-2176350.1239285665 L 10457466.065722765,-2172143.6899770685 L 10460477.257948723,-2154355.260610012 L 10459727.187219758,-2150038.5654638414 L 10456150.603300061,-2143125.825028037 L 10441779.14571916,-2150297.281437654 L 10431245.09362488,-2158103.6813362287 L 10419297.840594985,-2177138.6444280003 L 10407600.499821918,-2198485.102864174 L 10411774.980726665,-2201798.4254832473 L 10417123.54830081,-2202224.8314314797 L 10433756.238698196,-2186337.7090572235 L 10444540.314368794,-2183032.9372584336 L 10451356.518109558,-2186976.867364571 L 10459803.32975146,-2193749.7074770015 L 10463825.636912294,-2206910.4920247095 L 10459661.953998154,-2211729.9017427485 L 10451552.217774373,-2214353.460221295 L 10446171.033589425,-2217923.245145572 L 10438419.96876498,-2226836.0390692386 L 10437430.6724503,-2231383.54058992 L 10435039.0845101,-2237202.202485696 L 10427157.553242445,-2241307.3982047513 L 10420808.891363012,-2246522.6002139645 L 10426168.256927764,-2255760.972798731 L 10431418.974669501,-2262627.734436246 L 10417482.331019636,-2262321.3234384395 L 10401588.91336061,-2274147.362581464 L 10398305.767618643,-2277572.194911211 L 10393044.2518863,-2279938.7612286257 L 10380542.51647276,-2281339.1006973307 L 10370149.840131791,-2277861.437609982 L 10374867.782790592,-2260991.7850878444 L 10373932.92170691,-2255414.315799813 L 10367127.627276244,-2256217.5898369933 L 10352930.05073996,-2281900.5223387503 L 10357202.381477118,-2288412.096473437 L 10363344.545701126,-2294526.5069208993 L 10360322.33284558,-2295395.1606950327 L 10354397.68690658,-2294989.768039927 L 10360148.45180096,-2317821.2842275756 L 10356648.010412967,-2321207.7873237617 L 10354799.884226816,-2314070.080864118 L 10351679.932858353,-2307178.447777893 L 10339591.304075148,-2291063.683322098 L 10333601.313595055,-2294080.572722972 L 10329470.358611206,-2298094.130692943 L 10335297.266037289,-2306541.015930532 L 10338428.126715848,-2308812.7763268296 L 10340591.398380436,-2313391.806724784 L 10336090.862687154,-2322240.1927032326 L 10328992.018759267,-2328679.0767129916 L 10323284.779785786,-2339810.371785087 L 10320316.890841747,-2339961.368356363 L 10322947.704367666,-2326816.75974241 L 10321860.669540068,-2308082.473439541 L 10309076.293939406,-2328777.699027855 L 10283507.54273808,-2358234.46554339 L 10277474.137656575,-2367075.6836206913 L 10276115.260632463,-2375723.375763703 L 10273256.130830927,-2383723.5315682427 L 10271277.649521058,-2392437.5906335325 L 10270831.926279921,-2399210.336200125 L 10265298.56835106,-2405321.3466727166 L 10262765.604657551,-2416010.665634364 L 10261385.020332733,-2426863.935532776 L 10264570.204922799,-2434601.2019494637 L 10272527.878722157,-2442937.53200319 L 10278191.591774737,-2444397.36981164 L 10282877.029142227,-2440718.7692216816 L 10293922.037699243,-2435214.033859984 L 10301412.169637268,-2430055.2967295577 L 10304684.406069139,-2423305.7180161723 L 10308163.14015643,-2424122.306168922 L 10311707.107465323,-2428427.4615459233 L 10311000.451337768,-2433749.105991522 L 10307456.484028872,-2447691.2135989117 L 10306434.57110339,-2464649.2029747427 L 10306271.488049379,-2504362.8845019634 L 10305390.950877203,-2508893.2002946613 L 10311565.731712013,-2512885.350816309 L 10314044.371494018,-2517447.239895454 L 10316501.192655826,-2524257.2872137125 L 10318088.385955555,-2527255.464002625 L 10321654.060565155,-2527431.5186951277 L 10327263.56102572,-2524110.582306916 L 10336493.06000739,-2512744.62756255 L 10342635.224231401,-2510194.5203161696 L 10348766.47914531,-2511976.6737190066 L 10355158.666945644,-2529027.631169021 L 10357495.930974338,-2533629.090156737 L 10360572.3564219,-2536687.7264784523 L 10366236.180793973,-2536176.953377528 L 10369541.033836644,-2539235.9313181173 L 10370791.151718251,-2546606.983362459 L 10370747.737116843,-2554827.44827064 L 10364409.87322802,-2577341.446871912 L 10362529.241750557,-2587726.5132963946 L 10361474.712214272,-2597976.6503924676 L 10365431.7861535,-2608539.7598784985 L 10370802.061028348,-2620891.6240506195 L 10369519.326535938,-2631693.8145544445 L 10370986.851383066,-2635892.705081287 L 10375411.355864136,-2636495.226978608 L 10380933.915802391,-2633890.6681573656 L 10386999.937494697,-2635691.9097177493 L 10391609.232330482,-2642296.47204499 L 10393457.358516634,-2648052.576307488 L 10396272.962397268,-2673086.1583677772 L 10398142.684564631,-2696000.7045297767 L 10398903.664603693,-2714715.7493605055 L 10394185.721944893,-2725913.786915985 L 10386923.794962995,-2756073.899981969 L 10389032.854035562,-2761234.2097392487 L 10392294.069837842,-2762442.6804756885 L 10403045.52889764,-2751873.0633476307 L 10407676.64235362,-2750100.3561506416 L 10415503.849709768,-2751712.4758490287 L 10423211.388613313,-2754062.602754799 L 10428788.161143584,-2754205.4226685874 L 10436854.482765956,-2750594.01366742 L 10447943.017243873,-2746573.081462497 L 10465238.837847915,-2741584.160508195 L 10472359.389076507,-2737827.0123785296 L 10478240.620414095,-2738362.0408103475 L 10482991.29100319,-2750076.4777502795 L 10488492.03232125,-2767206.1501592076 L 10496656.092456536,-2792679.31896875 L 10506026.967191514,-2811241.3453893536 L 10508494.697663419,-2816175.093707508 L 10518930.899925288,-2831302.802486655 L 10529051.845389232,-2847181.7788624377 L 10537868.237740569,-2867272.6423208755 L 10542803.69868438,-2881731.194792094 L 10542368.88475334,-2887768.3319539386 L 10539205.407463977,-2892774.939715006 L 10532563.196087323,-2895975.6073209965 L 10527095.071380068,-2899284.9691167376 L 10525594.818602648,-2902264.6841774923 L 10525747.103666052,-2905677.585758938 L 10528584.41484739,-2915079.2155603548 L 10533367.702047287,-2926189.757741771 L 10538368.284893213,-2932214.672078734 L 10551511.443212701,-2939669.4164509526 L 10559893.021633,-2949279.4631905616 L 10569307.310969386,-2962001.9972325936 L 10574460.178878715,-2970678.971279633 L 10577047.466483735,-2988302.055403344 L 10579884.888984563,-2991813.6258253446 L 10585700.88710055,-2997508.6983066597 L 10590092.774970816,-3004192.0692020603 L 10589744.901562085,-3007804.1400880786 L 10587418.435523998,-3010406.379444187 L 10583026.547653731,-3022770.4256395004 L 10581015.44973306,-3042155.2860788917 L 10582004.746047739,-3057904.196080447 L 10585309.48777092,-3064311.8032372827 L 10589679.668340482,-3073244.9339652145 L 10597778.606573656,-3078741.159458538 L 10609312.752973218,-3082585.0472595985 L 10626989.06359679,-3093026.964279762 L 10657547.599653436,-3117281.1204488184 L 10668559.991599651,-3125198.2316993074 L 10676126.154749889,-3129298.885277739 L 10683431.496333199,-3139482.2856183653 L 10693509.02719573,-3150620.5554358573 L 10707913.101387436,-3156153.203604969 L 10717197.035600103,-3158293.5327482964 L 10760779.061523633,-3165921.869208844 L 10768117.019717744,-3164948.941634386 L 10775487.594522657,-3160525.8872968596 L 10784662.65827333,-3145707.1298341127 L 10792805.122427404,-3140135.8415835625 L 10802230.32107389,-3136227.4686934617 L 10809350.872302482,-3137900.6189282564 L 10809535.662657198,-3143892.5358636356 L 10787076.064833729,-3178502.1362016737 L 10785032.350302255,-3187943.2748485566 L 10784282.1682538,-3196967.7256330354 L 10786826.041257408,-3204144.9239114793 L 10793848.742653592,-3210988.164910103 L 10803523.964876398,-3218750.096489814 L 10815558.269748095,-3228421.723729172 L 10823157.049509134,-3235117.283520938 L 10832071.291692879,-3237263.746494371 L 10835300.002203846,-3241126.9973289636 L 10836234.974607019,-3246745.433177887 L 10835745.725444984,-3252864.9609179785 L 10831690.801673347,-3259818.988654274 L 10832527.924244113,-3268558.243872074 L 10833886.801268226,-3276482.5914735743 L 10837669.882843345,-3281097.4623898994 L 10846018.844652839,-3293666.956373905 L 10851171.71256217,-3302743.383267365 L 10853889.466610398,-3306631.61733123 L 10857868.359169822,-3313452.586515097 L 10864695.36090119,-3314318.6123387692 L 10871337.572277844,-3312159.8598184385 L 10875316.353517778,-3308276.224506404 L 10879262.518146908,-3300401.0875048093 L 10883600.082105666,-3293951.0670956625 L 10888883.416458208,-3293975.8606584035 L 10894275.398633761,-3294889.9654947524 L 10896797.564336663,-3293994.32936244 L 10901972.1395467,-3288596.9824590352 L 10911788.737522813,-3275668.269803766 L 10916169.716082983,-3272430.418751402 L 10920322.489687026,-3266924.545160089 L 10922485.761351611,-3255938.18450723 L 10923833.840385118,-3244886.731828717 L 10936139.876133842,-3206574.9820209485 L 10939836.017186651,-3198519.3336168276 L 10942575.478535581,-3192368.943665788 L 10948326.243429963,-3190860.8380578244 L 10952989.973496746,-3197010.680450851 L 10954827.190372799,-3203592.6407734505 L 10959686.508784907,-3205826.288299678 L 10965469.89029009,-3204623.4615775645 L 10976080.08491607,-3198488.684118034 L 10981798.233199647,-3195177.055950811 L 10984646.453691086,-3176285.198525455 L 10985276.967286937,-3154153.8147365595 L 10984429.046725566,-3147308.0772768706 L 10989070.958172154,-3129085.281288396 L 10990516.775718575,-3108161.957848015 L 10991516.981343353,-3096728.4509776845 L 10991614.719856272,-3085809.308965628 L 10990777.708604995,-3071518.5558670093 L 10988288.270832386,-3052397.711087072 L 10984102.88061754,-3036103.0108846067 L 10985624.840695666,-3022552.33544153 L 10983135.402923057,-3016363.071483174 L 10972981.840848312,-3013214.8826981783 L 10972101.303676138,-3008052.2473739455 L 10975101.697911486,-2999540.573969405 L 10982189.632529275,-2988900.33657049 L 10982363.513573896,-2982193.787212661 L 10978928.305407505,-2977633.893378444 L 10971470.678760793,-2977205.127402686 L 10961132.326331329,-2972954.62945791 L 10954022.684412837,-2959251.619844702 L 10946467.319253206,-2947989.756446471 L 10942325.45495926,-2945778.1758539495 L 10928519.277752606,-2948947.922878702 L 10925214.424709937,-2946055.3457673662 L 10920398.520899236,-2926893.8552048435 L 10916441.5582795,-2918669.5916032055 L 10910505.891710911,-2911718.216721914 L 10905081.292924555,-2907630.749772944 L 10900178.448591547,-2904776.2304108515 L 10889220.380556839,-2906711.183779691 L 10883415.29175095,-2895170.887419843 L 10877577.47501477,-2879961.389311434 L 10877110.04447293,-2872104.5798714133 L 10880132.257328477,-2859769.898223799 L 10878566.77132945,-2856349.345346989 L 10872652.923381057,-2853666.1721002627 L 10862923.377246745,-2848109.7380643217 L 10856922.58877604,-2830513.5117347874 L 10857150.793732168,-2813439.2686616452 L 10860694.761041064,-2807586.94818917 L 10867413.114949418,-2805031.635206122 L 10872196.402149314,-2799779.1605797294 L 10872652.923381057,-2791563.8994665053 L 10876827.404285805,-2781308.3908434897 L 10874870.63027664,-2769356.1199116753 L 10861249.243424704,-2752004.044504776 L 10860836.13679437,-2742571.077986833 L 10868087.043146681,-2739663.836601566 L 10874359.6738139,-2740995.570706927 L 10882110.738638343,-2745110.194003943 L 10891242.387787608,-2751736.234897345 L 10911190.840537762,-2761383.0689790677 L 10932965.489534382,-2766896.492070414 L 10950196.076916818,-2767920.741045442 L 10964904.609915841,-2767509.8381415857 L 10972112.101666743,-2765455.363868254 L 10974253.666030625,-2761918.7789006755 L 10994397.707126101,-2767557.4042643174 L 10998626.623261848,-2767879.028235993 L 11002268.44040315,-2768182.7293097875 L 11002148.771950547,-2764449.079844942 L 10987407.73366021,-2749029.51869736 L 10984646.453691086,-2741845.7089221217 L 10985102.974922827,-2734142.2005028427 L 10991136.491323823,-2727000.6940435963 L 10996995.904041218,-2721495.3990729204 L 11001953.183605224,-2707701.697184831 L 10998126.576109204,-2695075.927046467 L 11000561.689970307,-2690476.5091617494 L 11004920.961229771,-2685327.3119712104 L 11007562.572746295,-2678077.406764947 L 11007888.73885432,-2669244.6472031847 L 11005464.534303317,-2655164.744512473 L 11026760.843447994,-2647816.041927278 L 11045154.719509222,-2644518.2350886124 L 11058569.497386245,-2643620.0055310735 L 11067168.482772063,-2640393.952733816 L 11072343.16930159,-2637611.542029658 L 11075984.986442892,-2632573.729880712 L 11077082.930580586,-2627076.97103063 L 11072593.192877911,-2623228.562456479 L 11063504.958330058,-2610880.8582784636 L 11058286.857199123,-2594411.950113199 L 11058830.430272667,-2582091.5860008756 L 11058221.623977518,-2571427.729231056 L 11047687.57188324,-2556049.9711476318 L 11043491.38367779,-2545484.878817817 L 11039816.949925685,-2534650.4976452366 L 11039936.618378287,-2529943.1112548816 L 11042110.799352972,-2526657.0119099356 L 11046611.335046252,-2524755.925178261 L 11054373.309180794,-2523611.963327553 L 11063896.357659686,-2524832.224088798 L 11086605.979059476,-2522233.3281388683 L 11112511.694359433,-2517494.2005264694 L 11122784.813567292,-2514890.5434883763 L 11126143.990521468,-2510124.16966285 L 11125317.777260803,-2499716.5509411795 L 11123665.350739466,-2490023.802659357 L 11125350.393871604,-2482583.617829329 L 11129524.874776352,-2475737.5489701214 L 11136536.66686244,-2473479.610004174 L 11142580.98125404,-2470830.05018371 L 11143722.451312635,-2465608.06441779 L 11141885.234436583,-2458529.0902689574 L 11144950.86189354,-2452937.005368964 L 11148386.070059929,-2449268.326212082 L 11155854.494697249,-2447171.36233772 L 11170976.134326609,-2451721.723583396 L 11181564.51033239,-2449694.6879069353 L 11191098.46812138,-2446587.295763508 L 11199251.730266063,-2448222.6836447963 L 11207328.849879041,-2452189.1848314074 L 11224918.219980303,-2470174.999918402 L 11245421.04379461,-2479903.4177098186 L 11252150.195693571,-2482238.3072579172 L 11256705.166617852,-2481067.9465338085 L 11257835.727366349,-2479803.9504409777 L 11257531.37987852,-2476158.811232482 L 11259662.146251794,-2461369.7424434777 L 11258727.17384862,-2459674.584066468 L 11252215.428915177,-2447848.87058915 L 11235202.24849826,-2435599.2910362626 L 11223178.852936659,-2429384.332641789 L 11216177.97016067,-2429197.5666156374 L 11210220.596291376,-2421876.7799673807 L 11205328.661268469,-2407430.7431055675 L 11200262.733881446,-2398953.9870337346 L 11195022.925449807,-2396432.2047754694 L 11191631.131884828,-2390970.365251132 L 11190087.464505997,-2382571.2903283634 L 11193098.656731956,-2378079.4746010466 L 11200708.457122585,-2377486.0125162406 L 11201295.444797536,-2375141.666278538 L 11194859.842395796,-2371035.5702958787 L 11186869.551985634,-2369593.323505265 L 11177303.088905334,-2370814.5214824523 L 11168247.470968284,-2367534.9580808165 L 11159702.809493972,-2359745.431501769 L 11152419.28653086,-2342951.359150923 L 11146385.770129865,-2317177.664133725 L 11145581.375489393,-2310580.4359482005 z" /><path fill-rule="evenodd" fill="currentColor"    d="M 10932661.142046552,-1226747.1236786805 L 10941977.581550533,-1207131.9123057863 L 10940966.577935148,-1204122.0614021702 L 10939531.55837933,-1202622.7872679536 L 10937335.670103943,-1203137.305545569 L 10933596.003130233,-1213711.5188154485 L 10926605.918344852,-1220535.9067010367 L 10918267.865845453,-1219251.7442494424 L 10925181.808099134,-1227926.460544591 L 10927932.178758163,-1229875.3316363022 L 10932661.142046552,-1226747.1236786805 z" /><path fill-rule="evenodd" fill="currentColor"    d="M 10929638.929191004,-1111367.807091888 L 10924268.654316157,-1104807.2645280287 L 10922453.144740809,-1105088.61992913 L 10924920.875212714,-1116025.5085516693 L 10933878.643317359,-1124001.288720755 L 10941781.881885717,-1124691.2548810293 L 10940857.818792643,-1119750.986054891 L 10935052.729986755,-1113685.564799008 L 10929638.929191004,-1111367.807091888 z" /><path fill-rule="evenodd" fill="currentColor"    d="M 10933987.402459864,-1286383.4078957746 L 10933378.596164715,-1283832.1358644913 L 10932617.61612565,-1283920.8437141243 L 10930160.794963842,-1285723.3358235096 L 10931693.553032577,-1296490.539087166 L 10935922.357848832,-1305302.4178081031 L 10940270.83111769,-1318224.779727653 L 10942662.419057893,-1321023.1980475069 L 10943543.067549556,-1314188.720753812 L 10940901.344713543,-1299547.8267983648 L 10938618.404596355,-1291542.0030966036 L 10933987.402459864,-1286383.4078957746 z" /><path fill-rule="evenodd" fill="currentColor"    d="M 10966752.736101992,-1334901.9961464924 L 10962110.713335913,-1334263.2038019767 L 10959903.915750427,-1352683.14706092 L 10961208.468863033,-1355301.1764199126 L 10967785.447018081,-1346297.476170213 L 10977167.119743666,-1340774.2715739205 L 10973481.888000954,-1337185.2605479842 L 10966752.736101992,-1334901.9961464924 z" /><path fill-rule="evenodd" fill="currentColor"    d="M 10970959.833617542,-1316686.9501793908 L 10968133.32042681,-1293250.6234423236 L 10961056.295119118,-1296490.539087166 L 10957708.027475039,-1296479.517247571 L 10953490.02064939,-1309714.7341996215 L 10953783.570146613,-1313272.840289556 L 10951217.9898423,-1321989.341657914 L 10967589.747353267,-1323516.4008199533 L 10970959.833617542,-1316686.9501793908 z" /><path fill-rule="evenodd" fill="currentColor"    d="M 10955392.470747048,-1413835.6800312938 L 10957892.817829754,-1410705.7713425246 L 10961436.785138648,-1410800.4358805115 L 10960458.39813407,-1399669.976949936 L 10951707.127684845,-1385984.1024934107 L 10946543.461784909,-1383992.1810780598 L 10944249.612357622,-1383969.8467862566 L 10946206.386366786,-1403968.0372789402 L 10942988.585165916,-1415389.6379675283 L 10944053.91269281,-1422988.0335503186 L 10953446.49472849,-1419444.827671467 L 10955392.470747048,-1413835.6800312938 z" /><path fill-rule="evenodd" fill="currentColor"    d="M 10924529.587202575,-1362834.1336614597 L 10923235.943400066,-1362200.337764693 L 10921387.817213917,-1362567.3365402645 L 10917702.585471205,-1364429.9551734726 L 10913462.871344853,-1372176.5917016587 L 10915691.376231043,-1377599.7850216178 L 10917256.86223007,-1378934.9155216916 L 10920985.619893681,-1378478.738295957 L 10922942.393902846,-1377444.0483535468 L 10923605.5241095,-1375452.581431782 L 10922496.67066171,-1371142.1187527375 L 10922681.461016424,-1367488.3738093718 L 10924529.587202575,-1362834.1336614597 z" /><path fill-rule="evenodd" fill="currentColor"    d="M 10517104.592359336,-1798463.9715596118 L 10509886.191298336,-1787172.0000009881 L 10507211.963171009,-1804044.2711728173 L 10518996.133146895,-1813449.4398943377 L 10524812.13126288,-1822428.361357731 L 10530965.204796987,-1828535.201539571 L 10532900.160185955,-1821092.94607354 L 10527051.545459168,-1806956.4167766185 L 10517104.592359336,-1798463.9715596118 z" /><path fill-rule="evenodd" fill="currentColor"    d="M 10861999.314153668,-1834066.101369209 L 10857792.216638118,-1832548.7819787867 L 10851465.262059392,-1840153.323953982 L 10850215.144177783,-1858175.4697807934 L 10855476.659910128,-1862336.0608878706 L 10858324.880401563,-1863288.4384420814 L 10862445.037394805,-1861077.5865929483 L 10864032.230694534,-1858147.1469653398 L 10864738.7755026,-1854520.0315549122 L 10863597.305444006,-1850785.8148544282 L 10861999.314153668,-1834066.101369209 z" /><path fill-rule="evenodd" fill="currentColor"    d="M 10429614.374404252,-2117799.6797981695 L 10427744.540917397,-2116789.919506506 L 10416156.070606327,-2126649.5261925384 L 10406980.895536162,-2139345.792410794 L 10421537.254791273,-2141850.3991584596 L 10435615.274194444,-2139110.27762376 L 10435702.214716755,-2132350.718534953 L 10432680.001861209,-2121495.3246235372 L 10429614.374404252,-2117799.6797981695 z" /><path fill-rule="evenodd" fill="currentColor"    d="M 10407459.235388102,-2260309.648955364 L 10409850.823328305,-2244004.357225442 L 10402208.517646365,-2250115.721449255 L 10399414.621066436,-2258535.169483956 L 10398675.459647568,-2267149.1821125657 L 10407459.235388102,-2260309.648955364 z" /><path fill-rule="evenodd" fill="currentColor"    d="M 10432288.71385107,-2220772.584109089 L 10445051.270831537,-2210974.6783817154 L 10450084.581607753,-2211655.039308891 L 10457987.820176113,-2205463.7251275615 L 10458183.519840928,-2203048.873302751 L 10456683.267063506,-2198006.979867986 L 10453117.592453908,-2194066.4574749707 L 10443464.077531805,-2190132.6382008074 L 10436854.482765956,-2193317.7089826306 L 10434234.578550136,-2204011.4018362444 L 10426429.189814184,-2209043.4211407234 L 10424407.182583414,-2213309.756383924 L 10429342.643527225,-2219140.254498513 L 10432288.71385107,-2220772.584109089 z" /><path fill-rule="evenodd" fill="currentColor"    d="M 10969611.754584035,-1227743.6781907028 L 10967078.790890526,-1227500.121118089 L 10964752.436171928,-1228053.796482821 L 10962458.586744642,-1229808.8819625247 L 10967926.822771389,-1241970.1278912714 L 10969611.754584035,-1227743.6781907028 z" /><path fill-rule="evenodd" fill="currentColor"    d="M 10917713.383461814,-1310719.4073685526 L 10918615.739254184,-1304403.275684199 L 10911658.271079604,-1311118.989283161 L 10910462.477109501,-1329808.5198043182 L 10915941.399807366,-1318030.4575773655 L 10918300.482456256,-1315360.0998701835 L 10917713.383461814,-1310719.4073685526 z" /><path fill-rule="evenodd" fill="currentColor"    d="M 10916669.763235627,-1390102.0358972906 L 10916028.451649165,-1385967.4646125792 L 10909571.030627228,-1377477.4285661727 L 10903939.822865961,-1382411.957199313 L 10902483.096009439,-1385121.6799156063 L 10908222.951593723,-1390558.3908340838 L 10914332.49920693,-1389784.8482688705 L 10915974.016418168,-1391020.3376714967 L 10916669.763235627,-1390102.0358972906 z" /><path fill-rule="evenodd" fill="currentColor"    d="M 10944423.604721734,-1471053.280603962 L 10943727.857904274,-1452274.8216932726 L 10938172.681355217,-1461333.3836794102 L 10937226.910961438,-1471661.6712027902 L 10937650.926901868,-1481284.6365100734 L 10938846.72087197,-1482847.8703535518 L 10939205.503590798,-1481373.9324020457 L 10942553.771234877,-1477064.3871951527 L 10944423.604721734,-1471053.280603962 z" /><path fill-rule="evenodd" fill="currentColor"    d="M 10553631.300275877,-1783810.2807607888 L 10551348.36015869,-1780861.464980818 L 10546782.479924312,-1782974.1204820888 L 10545684.53578662,-1784239.6532125843 L 10556207.678570798,-1796966.0157386023 L 10557338.350638784,-1792229.5493908832 L 10553631.300275877,-1783810.2807607888 z" /><path fill-rule="evenodd" fill="currentColor"    d="M 10353843.204522938,-2264021.091580658 L 10355299.93137946,-2252767.6720374376 L 10349951.363805315,-2257402.38412459 L 10342993.895630736,-2273007.8265750865 L 10343211.302596254,-2283277.8964800895 L 10348211.99676167,-2278503.688597107 L 10353843.204522938,-2264021.091580658 z" /></g></g>
</svg>
