<?xml version="1.0" encoding="UTF-8"?>
<svg xmlns="http://www.w3.org/2000/svg" viewBox="9767524.337070692 -6821359.931340321 3579443.494776584 1720780.1626412012">
  <g id="map"><path fill-rule="evenodd" fill="currentColor"    d="M 9775438.48494915,-6302446.163479316 L 9775884.208190287,-6302412.797582312 L 9788853.374145664,-6302828.51884884 L 9794788.929394763,-6306636.505784677 L 9799289.576407535,-6312235.2232878795 L 9808997.415241145,-6318462.397109497 L 9811062.837073322,-6325652.459618991 L 9811204.21282663,-6339842.606683457 L 9817552.874706062,-6351857.43954901 L 9833718.134561606,-6355428.498599064 L 9839903.713387027,-6357193.522535521 L 9846480.691542072,-6355453.509934479 L 9856710.396148523,-6357143.318219413 L 9866603.025336847,-6357754.18636701 L 9872114.675965004,-6354056.7581499545 L 9879365.693636805,-6350920.994535137 L 9888693.042450884,-6351297.169528404 L 9891889.13635105,-6356967.6911496 L 9892280.424361188,-6364869.235378237 L 9896324.438822726,-6366937.818965204 L 9901357.749598943,-6361444.844599699 L 9904162.44416948,-6357344.137286367 L 9908369.54168503,-6355470.298406916 L 9919621.159216959,-6360365.056614321 L 9927469.96255432,-6365656.471955888 L 9930024.744868025,-6376550.908012569 L 9934590.513782913,-6381936.4207832 L 9940743.58731702,-6379201.312930191 L 9951473.227756621,-6379268.313943671 L 9960311.438728152,-6387694.7861226145 L 9971910.81834932,-6394431.889595258 L 9980248.982168209,-6397491.355581244 L 9981966.53059166,-6403176.365454262 L 9978042.073263234,-6415729.010597898 L 9979107.512109617,-6429498.7320400635 L 9990282.875790352,-6437291.830035075 L 10005176.199144093,-6438229.519426736 L 10016232.11701121,-6443561.82268055 L 10019308.542458773,-6458283.786633373 L 10024733.25256462,-6462527.547380048 L 10030299.227104284,-6464188.309040177 L 10043746.732911602,-6466510.634401838 L 10053411.04582431,-6472497.445851746 L 10059368.419693604,-6475229.4401901355 L 10076294.65958821,-6483303.135614784 L 10091677.120784497,-6484874.624188077 L 10098275.80624025,-6491325.315657564 L 10103439.583459677,-6499431.776621572 L 10112049.478155592,-6502530.083907169 L 10120855.072516322,-6509582.427956558 L 10132476.159438195,-6518542.83599494 L 10137063.746973276,-6519788.167683335 L 10156098.934620963,-6524994.103788116 L 10163534.742647482,-6526915.041708084 L 10168013.571040057,-6528084.853735824 L 10176275.592327243,-6527726.319980229 L 10179776.033715239,-6537202.080885213 L 10188146.81414493,-6544181.366381043 L 10196517.48325513,-6546551.818170889 L 10200670.256859174,-6553496.206982417 L 10208703.961870743,-6562341.224446245 L 10219607.594674453,-6567273.7326421905 L 10236555.541869765,-6567977.21168524 L 10252970.825301632,-6566990.460010755 L 10262809.130578453,-6568500.774029333 L 10270929.77611233,-6581624.245802282 L 10272451.736190455,-6588142.301175655 L 10274321.569677308,-6594768.845328152 L 10280887.63852226,-6597300.283489534 L 10288856.110312223,-6586533.792638123 L 10295541.847609777,-6579845.233658311 L 10305836.67411834,-6572870.011347855 L 10311152.62508168,-6566338.372482643 L 10317240.465394184,-6565446.162748159 L 10323621.743884416,-6570320.407425181 L 10328144.098197894,-6582234.588150829 L 10336732.174273614,-6584074.339014759 L 10346179.191540295,-6582157.302611404 L 10348657.720002806,-6576296.806227578 L 10349451.31665267,-6570595.0044620205 L 10353810.587912135,-6560412.029965105 L 10364192.466262499,-6551526.107564277 L 10377487.798325904,-6551988.637855506 L 10382825.45658995,-6553573.224249088 L 10395772.803925132,-6552331.211127929 L 10408491.94630419,-6550395.7624421725 L 10422352.558741843,-6548306.653706064 L 10426407.48251348,-6547981.253434321 L 10441257.279946322,-6546919.934571526 L 10462901.57381922,-6545379.389165826 L 10472468.036899522,-6546081.178963572 L 10491981.564399146,-6543197.281075907 L 10495982.164259275,-6535312.886474921 L 10499580.455479678,-6516691.956862781 L 10502646.082936632,-6498989.255825316 L 10503515.8221182,-6484781.192934598 L 10508581.63818573,-6477444.469500486 L 10515071.675818468,-6475025.765019286 L 10519344.006555624,-6469308.388762221 L 10526888.462405156,-6461519.278083935 L 10532465.346254917,-6450386.473668161 L 10539227.114764681,-6451139.530121656 L 10543966.876043677,-6453771.430997461 L 10554337.845083943,-6454626.206612593 L 10567589.651226446,-6453856.0205726335 L 10576786.644916805,-6447705.064717465 L 10580287.086304799,-6439623.446144302 L 10587755.51094212,-6435104.240737159 L 10593854.14924523,-6436556.976755562 L 10612030.507021446,-6436607.660176448 L 10618281.43038796,-6436100.83983916 L 10624532.242434984,-6431659.437231218 L 10633533.425141038,-6430916.610049616 L 10638490.593385555,-6436556.976755562 L 10654144.896778358,-6440392.489658454 L 10663222.222016113,-6448440.9023075905 L 10670190.59950079,-6448516.94949563 L 10675473.93385333,-6444643.930158792 L 10679517.94831487,-6439353.155631736 L 10685507.938794963,-6441702.311349334 L 10688736.649305932,-6446064.388011117 L 10693965.548427474,-6446055.902294122 L 10699107.618346196,-6443240.680238493 L 10712239.867355587,-6438330.906926385 L 10721741.097214285,-6429169.662562154 L 10729100.7627091,-6428292.092233606 L 10738591.194577191,-6430967.259183678 L 10742972.284456851,-6432208.172656745 L 10747146.765361598,-6427684.5178899 L 10753288.818266118,-6425246.543997454 L 10757941.639022803,-6428604.36396116 L 10765899.312822161,-6430975.729546711 L 10796403.413647806,-6426005.624087689 L 10803458.731654793,-6416866.531063311 L 10808861.623140443,-6412578.515417724 L 10813231.803710008,-6405111.576955559 L 10821211.184810068,-6399786.9052617615 L 10838039.574872268,-6401620.216030476 L 10844562.117796319,-6407063.956662156 L 10858194.413958354,-6419150.322924099 L 10863597.305444006,-6430958.961693541 L 10870457.03510567,-6434783.424142348 L 10878218.89792072,-6436692.075568566 L 10885437.29898172,-6436675.123228576 L 10893046.988052856,-6437063.651846458 L 10902254.779733824,-6445717.6929010125 L 10909744.911671847,-6448745.441695691 L 10920822.53683967,-6459765.899022985 L 10922888.069991337,-6464756.202514809 L 10928247.43555609,-6477605.614035189 L 10931573.995899465,-6485800.816208153 L 10937172.58704993,-6498818.981371768 L 10940183.89059538,-6519856.484650222 L 10941890.641028222,-6531040.288728085 L 10940423.004861604,-6539143.020963361 L 10933856.936016653,-6543334.303021404 L 10925453.65029565,-6545328.036759768 L 10918093.873481344,-6551509.094240468 L 10912625.748774089,-6558671.82221441 L 10909440.56418402,-6568758.26150076 L 10905070.383614456,-6580558.587735539 L 10905320.407190781,-6589105.86574423 L 10904091.996609876,-6595715.905220908 L 10900384.946246969,-6601357.50005397 L 10893297.01162918,-6611280.694642188 L 10889861.80346279,-6618685.740456818 L 10891024.980822088,-6630436.870919305 L 10899384.85194168,-6650565.392487634 L 10900167.53928145,-6659923.442746231 L 10901222.068817735,-6665765.725242263 L 10900765.436266499,-6671056.198497335 L 10903396.249792418,-6683161.17597108 L 10908103.394460611,-6688262.647940434 L 10913495.487955656,-6701274.116085426 L 10920789.920228867,-6707277.093527611 L 10929867.245466623,-6707669.833772072 L 10933791.702795047,-6711223.232220304 L 10935748.476804212,-6724254.051650217 L 10940129.455364382,-6734318.817776449 L 10943053.81838752,-6741441.865874532 L 10948576.267006284,-6749228.947744129 L 10980613.237220153,-6764254.334822326 L 10993930.27658426,-6782980.502909379 L 10998648.330562552,-6792439.315626392 L 11003779.49117118,-6812804.576272693 L 11008736.659415692,-6821359.931340321 L 11015965.8584673,-6818536.679699448 L 11024445.286720004,-6806528.761046441 L 11030804.857909534,-6806431.588278875 L 11040240.965866115,-6799922.404141404 L 11065940.07219116,-6786311.3926138785 L 11079887.625151122,-6782046.648580995 L 11088856.302565863,-6780716.597106456 L 11100694.796453256,-6776947.890275904 L 11108337.213454688,-6769002.161777105 L 11123230.536808427,-6756040.117078512 L 11135797.394124081,-6752730.258683884 L 11157593.861740895,-6751422.616940932 L 11184151.79793741,-6750746.859855514 L 11191641.929875435,-6748483.303387469 L 11211068.51685275,-6739163.132412614 L 11232538.81836154,-6728882.31243526 L 11252769.911298819,-6719707.014680719 L 11268119.755884303,-6712594.368137442 L 11277164.464511255,-6705706.143011192 L 11285709.125985567,-6701753.920155739 L 11294960.332267942,-6705121.381314397 L 11306820.64477553,-6704353.498495761 L 11334683.13408465,-6696112.380918646 L 11352272.504185913,-6689185.796160265 L 11367002.744485643,-6684057.723060563 L 11371916.498128748,-6676984.805467406 L 11372405.747290786,-6667563.643154426 L 11370438.063971523,-6659602.301313643 L 11371503.391498415,-6640334.848337783 L 11376243.15277741,-6630264.037130371 L 11377993.429131154,-6616751.777383391 L 11379765.4127856,-6603882.495327361 L 11378526.092894599,-6591179.436235423 L 11380754.70910028,-6584444.134722551 L 11385374.913246164,-6580481.141914122 L 11389832.034338037,-6571642.319285677 L 11388353.488861319,-6562341.224446245 L 11386396.714852156,-6556923.381516797 L 11386690.264349379,-6548229.510240391 L 11392038.831923524,-6541067.250130879 L 11399876.837270277,-6539656.174977239 L 11406845.214754956,-6537817.724881192 L 11415400.674219871,-6526556.383797688 L 11430652.780292438,-6513596.729201822 L 11439795.3387518,-6510000.035447339 L 11450285.864925176,-6504190.498789055 L 11470299.439577445,-6498504.235551068 L 11483910.028438777,-6496777.006112025 L 11491932.824140247,-6492167.072537578 L 11499792.648107195,-6481035.587827845 L 11512794.319353886,-6478734.756505216 L 11521154.190473482,-6474889.868493829 L 11536362.770625148,-6470309.092870411 L 11546418.482867487,-6472963.9220092 L 11555256.69383902,-6476824.778822619 L 11561213.95638882,-6476086.425170347 L 11572606.838354567,-6473557.783187482 L 11585989.110940281,-6473031.8542416785 L 11597229.819162112,-6475670.695596643 L 11606165.76864656,-6483498.489912678 L 11616623.678209135,-6494088.945700529 L 11629136.322932772,-6499465.764032202 L 11643616.539656179,-6501389.330015969 L 11653520.078154603,-6505689.377825698 L 11685980.952989412,-6512855.0941871265 L 11699091.4946981,-6514082.63392383 L 11709245.056772843,-6521008.348205284 L 11718235.3301688,-6526411.246304293 L 11731248.022045081,-6528725.356138352 L 11748837.392146343,-6523047.917434894 L 11765643.963588348,-6518312.414270984 L 11785972.795038546,-6516777.19022277 L 11799474.62475737,-6510238.602959079 L 11809052.10846726,-6504071.214037788 L 11824119.31286562,-6499193.520070985 L 11840882.469706217,-6501457.49536963 L 11863809.498071527,-6503415.701732954 L 11879028.987533292,-6500589.3442746885 L 11894900.697891615,-6489387.022513685 L 11904652.062646125,-6480407.282133176 L 11915664.343272848,-6461265.278046751 L 11927111.549150102,-6451994.208718429 L 11937156.463401834,-6444441.002652554 L 11949821.170549894,-6443967.639790808 L 11981423.326832723,-6443350.43858046 L 11998773.471348273,-6439353.155631736 L 12013221.182780368,-6437241.142452568 L 12016699.916867657,-6433246.615862609 L 12015253.988001745,-6420170.222653631 L 12015688.913252275,-6401494.124284338 L 12015460.596976656,-6392936.2176104635 L 12018656.690876821,-6386485.744071449 L 12023570.333200438,-6385343.926323558 L 12026266.37994796,-6376257.40535356 L 12033419.547787353,-6370875.541618174 L 12046225.630688721,-6364383.552425179 L 12067804.691340016,-6342389.585190444 L 12080665.09815289,-6333007.393661983 L 12090818.660227634,-6329812.867699968 L 12104103.082980942,-6332006.422101475 L 12124910.254283076,-6331956.368109721 L 12160175.935007911,-6331881.2022654135 L 12184331.373954127,-6325294.159055455 L 12192680.335763622,-6320777.876037584 L 12217357.640482673,-6315564.766495946 L 12244535.180964943,-6309822.246477871 L 12267396.97610865,-6303826.027069061 L 12280920.624447672,-6311569.540732336 L 12292770.02764516,-6312268.628099802 L 12304097.676389303,-6306661.54273801 L 12315392.708522642,-6298241.228277251 L 12324154.77696247,-6299155.151471016 L 12337308.733272567,-6303102.783537097 L 12379194.806753863,-6326652.8459234275 L 12393935.956363687,-6335460.354672473 L 12404252.601492448,-6333199.2644256335 L 12413449.483863315,-6336328.247159786 L 12420450.477958793,-6338974.351218377 L 12438344.195547886,-6342623.406173054 L 12449236.9190415,-6343625.64313668 L 12460488.536573429,-6345747.687357654 L 12476653.796428975,-6347151.443144364 L 12509549.485194823,-6362633.646407672 L 12522877.433869028,-6365673.109343476 L 12545413.062904708,-6361377.814500666 L 12557556.01559942,-6364174.161780373 L 12569622.937081922,-6372006.977388707 L 12585288.038465332,-6380082.161364917 L 12589353.871547066,-6393196.577132062 L 12597376.667248536,-6411222.729607992 L 12614618.16394107,-6424537.970352073 L 12628696.183344243,-6436168.471760625 L 12643024.226323737,-6447493.575409607 L 12660635.303725705,-6456937.366016415 L 12677191.851591388,-6463807.0160266645 L 12698292.572390743,-6481808.29686893 L 12715110.053142847,-6490951.132176021 L 12723491.631563146,-6493935.84133508 L 12733427.78667237,-6490636.684843656 L 12752093.393610625,-6488197.076052462 L 12765551.69740855,-6488936.507785141 L 12773150.58848908,-6486845.799052456 L 12788337.46134004,-6478038.651141157 L 12802111.021935893,-6470309.092870411 L 12812655.983340269,-6456573.398172165 L 12832299.977283105,-6437426.940763064 L 12842377.396826146,-6431009.611084905 L 12849519.655355444,-6428367.955733968 L 12867195.965979015,-6426562.453431717 L 12881643.566091621,-6425626.075407132 L 12890264.370097635,-6429996.681716834 L 12904820.729352744,-6437992.838051912 L 12928041.195895785,-6448144.861897914 L 12937194.663665244,-6447882.609030028 L 12952153.220240591,-6442479.855789181 L 12974417.118399246,-6432486.703417992 L 12983363.97719379,-6425010.403674531 L 12989125.651398268,-6415813.214931255 L 12978711.156437105,-6391869.051969453 L 12957827.842603268,-6344068.382915696 L 12940151.531979693,-6303817.684216925 L 12930835.092475712,-6281218.435915654 L 12923997.181434248,-6264031.440285693 L 12916887.539515754,-6247762.816263043 L 12915898.243201073,-6237998.4414114505 L 12907918.973420503,-6222314.87755752 L 12893079.973978268,-6203430.959925015 L 12889872.970768005,-6183006.88588259 L 12890416.543841546,-6164667.76766084 L 12889188.133260643,-6148253.270452135 L 12872925.023572693,-6137892.981283844 L 12860195.083203027,-6128652.78625529 L 12863815.081724133,-6097712.990976054 L 12870359.44326838,-6086052.06269861 L 12880969.637894358,-6073468.238784943 L 12892101.586973686,-6063415.929004906 L 12901733.283275591,-6054925.637488291 L 12912376.094512375,-6058963.761956379 L 12921388.186528524,-6071914.758769064 L 12938792.65495558,-6083297.202592161 L 12948370.027345981,-6083572.615716751 L 12955164.52378604,-6080948.253792729 L 12970220.930193791,-6080203.226892082 L 12985636.008000882,-6084342.326022214 L 12997724.636784088,-6085217.314277406 L 13013378.940176891,-6082446.629896271 L 13018999.238628061,-6079709.176282965 L 13032142.396947552,-6074706.252337967 L 13046318.154863639,-6063755.429943261 L 13056210.784051964,-6051526.934094627 L 13063429.185112964,-6049186.629735162 L 13067125.326165773,-6053076.743414155 L 13075039.474044228,-6063933.213927225 L 13086204.03973436,-6074423.167408442 L 13099705.869453184,-6091612.924231189 L 13109913.755439436,-6104840.565115934 L 13117936.662460398,-6106830.545721636 L 13133384.35687829,-6106789.786663478 L 13140363.643673064,-6110007.186754093 L 13152071.671117248,-6111665.11127347 L 13162377.406935908,-6106773.649457206 L 13191185.777958298,-6104190.756636319 L 13198904.11485245,-6097420.838608783 L 13212569.027625287,-6077337.0007164525 L 13220298.38514903,-6066625.252081812 L 13233691.455725348,-6061242.181941795 L 13241801.303268619,-6057574.5025799 L 13248976.178408718,-6054667.343906307 L 13256140.255558211,-6049509.3755078865 L 13257847.005991053,-6043249.963142465 L 13260706.024473097,-6033716.096272468 L 13265097.912343364,-6028224.589041644 L 13273207.759886635,-6022849.255484081 L 13279393.338712053,-6019567.720336365 L 13281371.931341413,-6012662.968699294 L 13283306.998049874,-6009280.838194741 L 13288949.00380175,-6004463.04390035 L 13305679.544031544,-5983945.2656482 L 13313832.806176223,-5978461.265946871 L 13326182.367845848,-5966592.351410026 L 13331313.528454473,-5956783.1323461775 L 13331606.966632204,-5946482.600340678 L 13334792.262541763,-5938615.847545088 L 13343054.172509458,-5926840.814594648 L 13346967.831847277,-5918896.1753848875 L 13345445.871769153,-5908100.405570969 L 13346750.313562268,-5898578.6762354225 L 13343554.330981592,-5888726.753313091 L 13330226.382307384,-5881434.02031971 L 13325682.320693206,-5877999.676874127 L 13316061.422381904,-5877667.350551642 L 13299787.403383855,-5881346.974205441 L 13283959.21894643,-5879265.58111742 L 13265065.295732563,-5883294.290357797 L 13250193.790999018,-5891975.091092741 L 13242247.026509756,-5898903.837432521 L 13229647.441263812,-5903020.8829342425 L 13223679.26940391,-5900886.737411166 L 13216178.228155788,-5891927.701721145 L 13207916.206868604,-5893512.625709221 L 13200317.427107561,-5891927.701721145 L 13180716.959085627,-5893758.383574219 L 13170063.238538748,-5896009.645061283 L 13153158.817264337,-5889764.454955697 L 13143635.768785441,-5887823.812697125 L 13125731.141886255,-5880159.861624828 L 13114936.268225048,-5866937.913557847 L 13106891.653903382,-5863777.770884579 L 13099086.26516743,-5864409.676170112 L 13093455.057406161,-5869253.527187984 L 13085258.269340578,-5875128.086353568 L 13073147.93325667,-5874795.868715327 L 13069527.823416073,-5872312.814421581 L 13068038.59126824,-5866922.216016285 L 13064048.900718208,-5850604.171587762 L 13064114.133939812,-5843280.04763777 L 13061494.118404504,-5838552.90052596 L 13054330.152574502,-5836977.694409889 L 13041741.476638654,-5837434.452621438 L 13022021.451483607,-5838513.541138013 L 13008693.5028094,-5842736.160263857 L 13000670.70710793,-5840916.0763849495 L 12989745.255684024,-5832096.601314919 L 12982005.10016968,-5830664.211115578 L 12975689.054901047,-5826911.314109326 L 12970579.601593127,-5813918.297751941 L 12962578.513192361,-5805831.884800108 L 12952870.674358753,-5795840.084899218 L 12942510.614628585,-5774427.850844245 L 12936770.647724813,-5762245.5919946525 L 12938564.449999455,-5755665.23123739 L 12939847.184491865,-5747717.487866342 L 12935063.897291968,-5738678.6056859465 L 12925290.825236754,-5730287.065332215 L 12917463.7292001,-5728730.980910287 L 12905733.883135721,-5720644.066368093 L 12889590.330580879,-5706113.656048984 L 12877556.137028674,-5693954.706980326 L 12861793.074493363,-5690979.503236436 L 12850661.125414036,-5687881.423466962 L 12825951.20408418,-5684110.797922815 L 12819841.767790467,-5683166.487338163 L 12792751.056511017,-5681270.399211784 L 12772661.450646535,-5687827.183705248 L 12762149.10585296,-5686820.477238966 L 12752778.231117984,-5683127.810295598 L 12747995.055237578,-5679104.090935809 L 12746331.719406147,-5671456.081018548 L 12744668.494894205,-5664401.57826185 L 12737080.51312377,-5653471.405233742 L 12721708.84991809,-5638995.615645407 L 12709054.940760639,-5629373.3956863675 L 12699357.899917636,-5616979.68559012 L 12693791.92537797,-5612486.092892517 L 12682725.209520249,-5607726.252425897 L 12676735.330359643,-5605193.661791574 L 12662831.192001093,-5594158.914854046 L 12651753.678152762,-5584362.3209849475 L 12644448.336569455,-5581576.076901808 L 12635642.742208725,-5584186.2546550315 L 12629826.744092738,-5584982.421555341 L 12612607.066020401,-5588780.464372532 L 12600931.54386753,-5589278.3522328045 L 12584603.200957973,-5591714.5386758875 L 12546456.683130896,-5603191.226822627 L 12534215.88060378,-5608570.5546941245 L 12523366.571711574,-5623243.457367798 L 12513571.792355655,-5630689.016048331 L 12500298.278912447,-5631450.836861433 L 12480349.937481783,-5631435.391778287 L 12471413.876677845,-5634383.360749197 L 12456433.612801794,-5631612.381409562 L 12440072.653281434,-5616726.040464274 L 12432321.588456988,-5605661.809096217 L 12425625.05316883,-5594350.400045355 L 12417406.557802543,-5570172.443258636 L 12413764.740661241,-5554051.412908857 L 12410949.136780607,-5544953.465619161 L 12402208.775641482,-5530543.4768909225 L 12401241.297946997,-5522457.429883155 L 12404285.21810325,-5515464.880589909 L 12410590.35406178,-5507574.382546775 L 12414319.223044882,-5495186.559029821 L 12423548.722026551,-5482035.6375558805 L 12432582.521343408,-5471806.720671489 L 12449628.318371128,-5455337.465977151 L 12454455.020172434,-5446721.69151848 L 12460184.07776611,-5436848.397019607 L 12461423.397657111,-5427211.442067393 L 12460347.160820121,-5420892.755253664 L 12454215.90590621,-5416081.346290457 L 12442301.269487115,-5413684.121937636 L 12436583.121203538,-5406999.1586866295 L 12427799.234143512,-5398090.87695798 L 12417395.648492444,-5387819.782150603 L 12412514.622779634,-5387280.248501165 L 12406676.806043452,-5384538.4114593975 L 12377259.740045402,-5371828.63641194 L 12366095.174355272,-5368268.851062273 L 12357267.98401333,-5364082.542179328 L 12346809.963131266,-5351154.461647576 L 12338602.377075076,-5341561.445557471 L 12328470.522301035,-5328850.5996174505 L 12324024.310519263,-5323223.448485253 L 12315001.309193013,-5310530.070887202 L 12303130.087375328,-5296043.522982327 L 12296542.311229672,-5288278.527150128 L 12292965.727309976,-5283638.820743165 L 12289715.309498303,-5277587.138327728 L 12277300.514607072,-5272893.595989529 L 12267060.01201002,-5267936.060955552 L 12251601.408282029,-5260452.959831109 L 12229424.450645685,-5252229.835881698 L 12211530.733056592,-5244301.756851134 L 12200116.14379014,-5237766.380966737 L 12183157.28728473,-5229526.191963925 L 12171655.757495968,-5226874.377242259 L 12148478.705554336,-5227205.775682393 L 12119855.236206153,-5225077.455740409 L 12099015.448293217,-5223516.399160039 L 12083339.326280218,-5225504.559400898 L 12059683.934486646,-5226631.379215332 L 12041561.900621936,-5228222.217154915 L 12029440.766547421,-5225187.849328947 L 12000904.237721547,-5221970.374763673 L 11994533.757221919,-5221234.390701987 L 11943733.441556882,-5213442.532468572 L 11921284.75304351,-5209265.878022319 L 11900727.605317699,-5207362.109405084 L 11885584.258387635,-5204327.047386193 L 11877028.687603226,-5200543.686274652 L 11864331.363844365,-5195095.542183247 L 11857613.009936009,-5192724.779430142 L 11835175.119413245,-5182060.362334138 L 11785124.87447717,-5160079.816830417 L 11751598.56079598,-5142288.053475446 L 11746108.728788018,-5139244.377330317 L 11723540.371822044,-5126722.615532189 L 11710484.265344355,-5121819.072393432 L 11701396.142115993,-5110673.263273232 L 11694177.741054993,-5103618.332226768 L 11686546.233363662,-5100579.76869912 L 11673000.989043426,-5107763.405058857 L 11663347.474121325,-5107377.893803923 L 11632691.088232275,-5109989.335241686 L 11632691.088232275,-5142572.709633159 L 11611199.07942278,-5137960.201479526 L 11576922.695012622,-5130615.33431371 L 11545070.515153471,-5123800.570937237 L 11515968.705953348,-5139412.216153913 L 11493498.310139272,-5151482.967445272 L 11474017.399250448,-5161871.815531493 L 11444404.633587586,-5168772.277156516 L 11418618.475420741,-5174784.076796514 L 11372025.257271253,-5184692.30736416 L 11351576.757368455,-5193370.622822347 L 11341216.69763829,-5204870.746580339 L 11322735.881054752,-5231014.448819636 L 11316735.09258405,-5236181.182299969 L 11307733.909877997,-5239727.938296905 L 11298406.56106392,-5242029.376308766 L 11278197.286746837,-5241896.577062006 L 11253509.072717687,-5243925.330966664 L 11217949.95381512,-5249438.728984103 L 11189728.68178717,-5253825.147011677 L 11141559.068328558,-5261990.466766288 L 11130144.479062106,-5262988.557673656 L 11104945.419889707,-5255738.303542079 L 11072712.750011023,-5246478.702859817 L 11014715.740585692,-5253736.503123979 L 10989049.25087145,-5257142.1776890885 L 10936944.270774314,-5264075.343491846 L 10878023.198255906,-5271916.581221213 L 10820885.018702043,-5280031.037524731 L 10779401.142540986,-5275550.965529155 L 10756278.414510861,-5273063.81853949 L 10729579.102561038,-5269504.338384806 L 10725893.870818328,-5273507.806200235 L 10724795.815361142,-5289064.257677548 L 10720012.639480736,-5301127.221517402 L 10705423.663614826,-5314179.459779873 L 10695607.065638712,-5326617.260116615 L 10676930.66070985,-5343455.341824353 L 10671038.520062163,-5354073.146525292 L 10669081.746052999,-5370557.084077908 L 10651862.06798066,-5413601.332159624 L 10641164.932832371,-5442816.333933123 L 10638490.593385555,-5448780.573003939 L 10633859.591249062,-5458319.37627776 L 10627815.27685746,-5463304.064946819 L 10615030.901256798,-5466364.089075153 L 10611595.693090407,-5471534.481444173 L 10611595.693090407,-5481687.44117456 L 10613606.79101108,-5495732.297728986 L 10616183.28062549,-5506003.0693564415 L 10614346.063749436,-5508576.414570795 L 10580895.89259995,-5505676.808576132 L 10560436.594706543,-5512502.267176759 L 10543292.947846416,-5519895.42598429 L 10519061.3663685,-5538857.754440256 L 10504635.473556599,-5546188.335873251 L 10486219.890194668,-5565832.045133761 L 10459346.697200228,-5570493.509231326 L 10449356.218179492,-5578209.398259609 L 10436789.24954435,-5595101.626170951 L 10425787.766908232,-5605945.789420802 L 10410176.989436328,-5612785.543735106 L 10385477.977416571,-5618869.818030433 L 10343363.58765966,-5624696.769056923 L 10329100.77790177,-5627150.08873598 L 10305836.67411834,-5623251.172891177 L 10288573.4701251,-5622928.386225105 L 10260613.130983572,-5627073.215481453 L 10244708.804014446,-5632312.809032635 L 10225010.486160105,-5632443.633008115 L 10212204.403258735,-5632382.003645646 L 10195125.989620214,-5633575.103233076 L 10186853.170342421,-5637000.960731907 L 10179167.338739581,-5641183.19414236 L 10164817.477139894,-5640135.481682739 L 10154761.764897555,-5644303.704940442 L 10145401.799472675,-5652106.008782882 L 10135639.636727558,-5655816.902091687 L 10124909.884968467,-5655577.647281043 L 10120496.289797496,-5652106.008782882 L 10116408.749415057,-5652445.482291937 L 10113734.521287732,-5663003.679035062 L 10103711.425656194,-5680063.343893461 L 10102200.263568677,-5687718.7051674165 L 10096058.210664159,-5696558.782232775 L 10092427.191513462,-5704592.9226117255 L 10093416.487828143,-5715709.937959889 L 10097754.051786901,-5737315.93351626 L 10107353.131478004,-5756906.049877368 L 10113647.46944593,-5762003.4701285055 L 10117506.693552751,-5767799.414807462 L 10125594.833795318,-5777955.237721028 L 10130269.36185271,-5786086.609327352 L 10129714.879469067,-5797188.32814077 L 10124235.956771204,-5808806.531370585 L 10120224.447600977,-5823828.3043336645 L 10120974.629649434,-5832466.542963754 L 10126899.275588434,-5842744.068177976 L 10133845.945772406,-5865531.557482446 L 10133291.463388767,-5871530.08203777 L 10130552.002039833,-5876338.333065343 L 10129834.54792167,-5886928.750618611 L 10128486.468888165,-5901204.023580443 L 10120115.799777964,-5923038.60377802 L 10115593.445464488,-5934649.169377897 L 10107701.004886735,-5939651.490302206 L 10098406.272683458,-5942703.655725903 L 10090372.567671891,-5958459.834931203 L 10080306.057438945,-5977076.835656475 L 10073989.900850827,-5988743.633185202 L 10071794.01257544,-5995910.1932607675 L 10070793.80695066,-6008951.530661806 L 10066086.662282469,-6024748.047452476 L 10061129.49403795,-6033410.105404939 L 10057433.352985144,-6040065.500700382 L 10055563.519498289,-6049678.9334229985 L 10053628.452789828,-6053149.487972065 L 10040017.97524799,-6057437.20998436 L 10030244.903192775,-6064604.158034083 L 10026168.272120435,-6074236.880062412 L 10024754.959865322,-6082017.310920838 L 10021863.324772477,-6086530.212556692 L 10014155.674549442,-6087964.655680186 L 10008785.399674593,-6080996.851956092 L 9999979.916633354,-6077506.941222647 L 9994055.159374865,-6078122.236821321 L 9988206.544648077,-6082349.417463574 L 9984597.344117576,-6086773.197889737 L 9978509.615124563,-6091742.625408426 L 9969878.013127944,-6107512.831185488 L 9960778.869269993,-6111689.58058402 L 9944157.088182705,-6110990.651358393 L 9929285.472129667,-6103679.193880882 L 9920305.996724319,-6104807.965412659 L 9912739.722254593,-6107277.244411567 L 9904216.879400477,-6115168.928189999 L 9898281.212831888,-6121676.389234737 L 9889432.203869749,-6123792.299038368 L 9872016.826132597,-6135276.492145834 L 9860232.656156711,-6143561.083668575 L 9859210.743231228,-6159827.620346445 L 9853677.385302367,-6171057.460869207 L 9842197.562814312,-6174233.5620404 L 9830619.890493847,-6185752.889693534 L 9813726.267210042,-6191969.712556001 L 9803083.567292752,-6196803.601077146 L 9793854.06831108,-6199710.129738989 L 9792484.28197687,-6204071.869378672 L 9793027.855050413,-6207819.186482165 L 9797300.185787568,-6214068.668520011 L 9801702.871648442,-6219902.8020990705 L 9802800.927105626,-6225320.898730446 L 9799224.343185931,-6230116.071949354 L 9789679.476086844,-6235128.268412583 L 9777395.258958314,-6239582.418578034 L 9774873.204574902,-6247036.067767265 L 9767524.337070692,-6254802.158558811 L 9768807.071563104,-6261053.163634353 L 9774612.271688482,-6265620.294631522 L 9780515.210326778,-6269014.070164259 L 9781884.996660989,-6274886.167188194 L 9777710.51575624,-6280281.663767289 L 9775666.801224768,-6288493.035053248 L 9776655.986219956,-6294619.690368899 L 9775438.48494915,-6302446.163479316 z" /></g>
</svg>
