<?xml version="1.0" encoding="UTF-8"?>
<svg xmlns="http://www.w3.org/2000/svg" viewBox="16158263.202909885 -2132201.368617111 76064.71937853284 545209.347346276">
  <g id="map"><g><path fill-rule="evenodd" fill="currentColor"    d="M 16220184.66966364,-2126993.994521729 L 16216814.694718855,-2122614.4015964633 L 16213966.474227417,-2125834.465060065 L 16213183.786887651,-2132201.368617111 L 16218151.864442265,-2131592.6911628908 L 16219989.081318317,-2130283.6747091403 L 16220184.66966364,-2126993.994521729 z" /><path fill-rule="evenodd" fill="currentColor"    d="M 16220597.776293973,-1844027.3117744564 L 16218162.662432872,-1843217.3827567764 L 16214607.89713337,-1843642.1800751104 L 16212129.257351367,-1845466.1613686683 L 16211574.886287216,-1848536.623786748 L 16218749.761427315,-1848729.230440423 L 16221423.989554642,-1846423.5115845865 L 16220597.776293973,-1844027.3117744564 z" /><path fill-rule="evenodd" fill="currentColor"    d="M 16170808.464244323,-1592361.787066403 L 16165296.813616164,-1586992.0212708348 L 16161318.03237623,-1588101.7688715237 L 16158850.301904324,-1589929.0293959118 L 16158263.202909885,-1592995.2987378372 L 16167199.263713822,-1595960.9994957605 L 16170873.697465928,-1594901.4374260458 L 16170808.464244323,-1592361.787066403 z" /><path fill-rule="evenodd" fill="currentColor"    d="M 16227881.410576578,-2046792.160974435 L 16222489.428401025,-2044213.6463411849 L 16229185.963689184,-2055748.225983946 L 16231207.970919954,-2057767.5561948775 L 16234327.922288418,-2053563.224864709 L 16227881.410576578,-2046792.160974435 z" /><path fill-rule="evenodd" fill="currentColor"    d="M 16225033.19008514,-1704550.454741585 L 16224728.842597313,-1701560.7738291214 L 16219054.108915143,-1702286.9719643467 L 16217499.532226218,-1703621.4662564038 L 16220717.44474658,-1714023.2904399545 L 16228859.79758116,-1718823.1120776276 L 16232816.871520389,-1719803.4530226788 L 16229109.821157485,-1714873.8795147506 L 16228414.074340023,-1709331.4529314404 L 16225033.19008514,-1704550.454741585 z" /><path fill-rule="evenodd" fill="currentColor"    d="M 16215053.620374506,-1685801.5264874087 L 16210455.123529326,-1679928.1171305259 L 16207182.998416949,-1689065.0711770386 L 16206639.425343404,-1692751.2529875892 L 16210879.139469761,-1696133.8797209223 L 16213390.284543075,-1696055.1443505452 L 16215053.620374506,-1685801.5264874087 z" /></g></g>
</svg>
