<?xml version="1.0" encoding="UTF-8"?>
<svg xmlns="http://www.w3.org/2000/svg" viewBox="-1899551.8947142423 -3159241.444283773 1362701.7391781658 1499370.174049653">
  <g id="map"><g><path fill-rule="evenodd" fill="currentColor"    d="M -1822671.8713851378,-2238287.5401649526 L -1829819.5845694833,-2226801.414300369 L -1832983.0618588466,-2231187.3268039506 L -1834211.47243975,-2238749.528153232 L -1827884.5178610233,-2249584.2403470804 L -1824889.5782807213,-2255183.175238066 L -1819367.018342467,-2257188.5001437925 L -1822671.8713851378,-2238287.5401649526 z" /><path fill-rule="evenodd" fill="currentColor"    d="M -1367071.8084282372,-1667201.658017546 L -1369512.376944389,-1668118.1077318706 L -1381329.1635310766,-1676412.7110339063 L -1387025.60451395,-1686279.7378583879 L -1396342.1553374205,-1693696.773901359 L -1409262.340716851,-1698661.3847600576 L -1417681.9904030003,-1704330.8892312676 L -1421584.629111231,-1710722.622113676 L -1426357.11832052,-1714975.287685899 L -1431401.2270873452,-1717166.6844410584 L -1431863.2029741372,-1719459.7060783599 L -1430667.4090040356,-1722603.805048968 L -1431868.657629186,-1728464.9727032473 L -1439456.6393996186,-1741465.8083710554 L -1446522.8667167034,-1747455.6524670306 L -1452556.271798208,-1746502.3702188367 L -1455980.6819739908,-1748098.6658555118 L -1458051.5584612177,-1750964.4798753955 L -1458872.3170668366,-1755184.74606517 L -1463003.383370175,-1758830.1719869024 L -1470134.7325893738,-1760399.2077884844 L -1475874.6994931474,-1770052.1939636532 L -1480217.6067874655,-1787804.7557256417 L -1485843.471213176,-1801652.5000746434 L -1492757.4134668552,-1811577.158190408 L -1497703.7837207636,-1815276.573046717 L -1501361.853507721,-1815961.0757198043 L -1502606.6280537716,-1817500.0066527221 L -1503590.358393912,-1820385.5771622194 L -1508993.3611990542,-1821409.7858129735 L -1516564.9790043402,-1818427.9105953649 L -1523370.2734350055,-1819423.6414146048 L -1526740.2483797902,-1824278.9261043288 L -1531382.2711458697,-1824709.0499605117 L -1537301.4624298203,-1820713.7639586618 L -1543829.5713284104,-1821885.169520092 L -1550971.829857707,-1828229.5078195638 L -1554928.9037969352,-1834530.384644611 L -1555695.338491047,-1840781.9697743407 L -1568006.8288948198,-1853279.0537198654 L -1591879.6276539098,-1872020.5483974088 L -1617888.536121832,-1880812.8902218556 L -1646050.0295832234,-1879644.1188461066 L -1661845.597409844,-1880529.2608693778 L -1665286.2602312826,-1883479.6012779083 L -1668748.7416729166,-1883246.9528932394 L -1672232.9304152553,-1879825.7223012864 L -1675939.9807781621,-1879071.200441871 L -1679875.236097195,-1880977.422465732 L -1682332.0572590027,-1879530.7191032616 L -1683310.5555830754,-1874731.627231146 L -1693230.3467271551,-1872292.8029788581 L -1712091.5420107318,-1872219.0476772566 L -1727311.0314724972,-1869270.1964354636 L -1738899.6131030587,-1863464.2199661117 L -1755309.4418798767,-1860969.853323181 L -1776545.972458,-1861786.2243331722 L -1789352.0553593675,-1863912.0394877458 L -1793722.2359289299,-1867359.283526167 L -1799853.4908428418,-1868164.3903086097 L -1807718.7694648409,-1866332.9972238312 L -1814763.1781617298,-1857047.5760228727 L -1820975.918942902,-1840323.242187766 L -1826123.4435166742,-1830782.4135783312 L -1830205.5292440637,-1828421.9425248702 L -1834553.8911934302,-1815983.7846883223 L -1836999.9143646313,-1795151.5566578566 L -1840696.0554174397,-1786013.6894736008 L -1840750.379328947,-1837961.6665974737 L -1834689.8122916888,-1857387.6677073168 L -1832722.1289724268,-1874487.8025167445 L -1819704.0937605891,-1912261.1093826927 L -1804207.4187667486,-1943253.8188481648 L -1789895.6284329114,-1984458.8668012281 L -1784487.282292211,-2024436.1595836189 L -1786313.701177656,-2063683.8800220394 L -1790569.6679496644,-2098644.2095739297 L -1797820.6856214658,-2121782.228278535 L -1804832.4777075527,-2155326.795187218 L -1815165.3754819657,-2173052.828600055 L -1834119.0772623918,-2188525.911600324 L -1838380.4986894492,-2197597.894429114 L -1833966.9035184775,-2200980.1019205414 L -1822443.555109521,-2203296.730112563 L -1815094.6876053119,-2215385.647047568 L -1830634.8885200534,-2210721.054710135 L -1812659.5737442093,-2247833.842643832 L -1807071.8919038407,-2273146.666408863 L -1807957.8837310646,-2289772.6428566296 L -1804538.928210331,-2300052.002658327 L -1818263.6195497243,-2322361.942462526 L -1828955.300042964,-2350472.273471673 L -1834456.0413610234,-2354928.1590708774 L -1840157.9369989452,-2357275.58260897 L -1840657.9841515883,-2350669.7554813027 L -1843750.7735642984,-2344739.810378227 L -1850409.3489060977,-2348311.5328671155 L -1862193.5188819831,-2368779.2376760105 L -1878635.9642696036,-2402151.9962503007 L -1884408.5477841797,-2405571.9406952355 L -1889218.996939829,-2400998.5611367146 L -1892235.6438208362,-2396612.660980232 L -1897779.9110597954,-2368779.2376760105 L -1899551.8947142423,-2379818.9883395606 L -1897149.3974639422,-2392833.481999805 L -1893089.0190372574,-2408870.2080202387 L -1888485.17885652,-2431181.474729573 L -1874211.4597885343,-2431199.04195838 L -1848686.2345081088,-2431228.201206949 L -1823161.0092276838,-2431263.216270329 L -1797635.8952667487,-2431298.2314036293 L -1772110.6699863237,-2431327.3908171435 L -1746579.9900508497,-2431362.4060785957 L -1721060.2194254731,-2431397.4214099706 L -1695529.5394899992,-2431426.5809884383 L -1670004.314209574,-2431461.5964479707 L -1644479.0889291486,-2431496.6119774315 L -1618948.5203131654,-2431525.7717208588 L -1593423.29503274,-2431560.7873784835 L -1567898.069752315,-2431595.803106038 L -1542372.8444718898,-2431624.9630144336 L -1516842.1645364156,-2431659.9788701585 L -1491317.0505754813,-2431694.9947958174 L -1465791.8252950558,-2431724.15486919 L -1448957.9805778062,-2431741.7226417237 L -1449947.276892486,-2447626.9789518695 L -1450740.8735423514,-2460224.0170157035 L -1451800.7464141939,-2477200.1495671878 L -1452855.2759504786,-2494099.3423188874 L -1453904.3508317145,-2511015.219369857 L -1454898.9904819524,-2526921.0252157925 L -1455888.2867966322,-2542824.1046981434 L -1456812.3498897073,-2557601.8465929115 L -1457654.8157960307,-2571180.6067959997 L -1459100.6333424537,-2578983.541473556 L -1464514.434138203,-2594488.5672164834 L -1465688.5208075996,-2602202.289235244 L -1464215.4299859323,-2610326.500509545 L -1460611.6841104818,-2618006.3226576583 L -1450659.2763555998,-2632048.1452855975 L -1435575.7079920927,-2642851.9146021456 L -1418165.784909988,-2655342.164834107 L -1404897.6148023377,-2664865.5271107308 L -1398103.22968177,-2667226.490256098 L -1377344.9276360944,-2670523.1096229535 L -1361011.2413909792,-2677733.952651225 L -1345112.369076902,-2684764.4615463796 L -1338442.9957444957,-2688663.0825960934 L -1337649.3990946303,-2701882.799792814 L -1337649.3990946303,-2716638.8805916053 L -1337649.3990946303,-2733197.3096258957 L -1337649.3990946303,-2749779.0972457696 L -1337649.3990946303,-2766372.441151124 L -1337649.3990946303,-2782983.313400394 L -1337649.3990946303,-2799618.0782105606 L -1337649.3990946303,-2816264.7750570113 L -1337649.3990946303,-2832935.5205554506 L -1337649.3990946303,-2849618.3288955456 L -1337649.3990946303,-2866319.574359574 L -1337649.3990946303,-2883039.2692121235 L -1337649.3990946303,-2899783.5770293283 L -1337649.3990946303,-2916540.461128447 L -1337649.3990946303,-2933322.3676396925 L -1337649.3990946303,-2950117.2343062144 L -1337649.3990946303,-2966931.2341585443 L -1337649.3990946303,-2983770.4447422065 L -1337649.3990946303,-2998512.463424001 L -1320989.4354219998,-2998512.463424001 L -1300252.9519965195,-2998512.463424001 L -1279511.0139159905,-2998512.463424001 L -1258769.0758354615,-2998512.463424001 L -1238027.1377549325,-2998518.5320479614 L -1217290.5430099615,-2998518.5320479614 L -1196548.6049294325,-2998518.5320479614 L -1175806.6668489033,-2998518.5320479614 L -1155064.7287683743,-2998518.5320479614 L -1134322.790687845,-2998518.5320479614 L -1113586.3072623648,-2998518.5320479614 L -1092844.257862345,-2998518.5320479614 L -1072102.3197818156,-2998524.6006744523 L -1051360.3817012866,-2998524.6006744523 L -1030618.4436207577,-2998524.6006744523 L -1009881.9601952776,-2998524.6006744523 L -989145.4767697974,-2998524.6006744523 L -966501.0885916111,-2998524.6006744523 L -966490.1792815134,-3012645.973043188 L -966490.1792815134,-3032956.5999495424 L -966511.8865822181,-3060855.5702624368 L -966544.5031930206,-3088924.751727596 L -966571.6651487743,-3113647.4044417 L -966598.8271045276,-3138383.004565939 L -966626.1003797721,-3159241.444283773 L -945693.8059699866,-3145395.5464584935 L -924761.6228796918,-3131563.237606664 L -903829.4397893968,-3117744.564408266 L -882891.8020440533,-3103939.5733837173 L -861959.6189537585,-3090147.9369718353 L -841027.4358634638,-3076369.7024745164 L -820089.79811812,-3062604.917034616 L -799152.1603727764,-3048853.2547950796 L -778219.9772824816,-3035114.7636624705 L -757287.7941921869,-3021389.367339973 L -736350.1564468432,-3007683.186225905 L -715417.9733565483,-2993977.679323423 L -694485.7902662536,-2980291.1126758065 L -673548.1525209099,-2966617.462360186 L -652615.9694306152,-2952956.4063580343 L -631683.7863403204,-2939307.993922432 L -614143.2854955151,-2927886.771893069 L -587210.3139345181,-2909500.0888364315 L -562109.1045945245,-2892390.6742912973 L -536850.1555360766,-2875204.8072837973 L -575844.5939245248,-2875180.8568031387 L -627927.7554014645,-2875150.888050098 L -663443.459702623,-2875126.937654993 L -699888.6817519052,-2875108.8827668815 L -734050.9636839989,-2875084.932438425 L -731077.7314044014,-2847127.9592094063 L -727914.2541150382,-2816676.973418542 L -724739.8675155771,-2786280.215611928 L -721576.390226214,-2755943.0066940407 L -718402.1149462436,-2725670.2618378145 L -715233.1830018315,-2695449.376760026 L -712064.2510574195,-2665285.6568230586 L -708895.3191130074,-2635178.0783860283 L -705726.3871685952,-2605131.9042928903 L -702552.1118886251,-2575140.4289022293 L -699388.6345992617,-2545197.116238294 L -696214.2479998007,-2515312.7700016648 L -693045.3160553887,-2485474.981937597 L -689876.4954304673,-2455689.022559982 L -686707.5634860552,-2425959.7682096735 L -683538.6315416431,-2396274.8885351983 L -680364.2449421821,-2366639.6397599694 L -677200.7676528188,-2337053.06222262 L -674026.4923728487,-2307520.3748005223 L -670857.5604284365,-2278029.2265038867 L -667688.6284840244,-2248584.855136525 L -664519.6965396123,-2219192.111713109 L -661350.875914691,-2189838.834187667 L -658176.4893152299,-2160530.24704053 L -655013.0120258668,-2131271.1909601046 L -651838.6254264057,-2102055.3240715796 L -648669.8048014845,-2072876.3424875955 L -645500.8728570723,-2043744.8389346206 L -642331.9409126602,-2014648.7813463297 L -639163.008968248,-1985593.2521051057 L -635988.7336882779,-1956577.7092125816 L -632825.2563989146,-1927606.9705886925 L -629650.8697994536,-1898669.0838628516 L -626579.7876874488,-1870670.8232624517 L -613327.9815449452,-1855970.8076518583 L -596662.6745367565,-1837502.9959274456 L -601521.9929488646,-1811430.0418925225 L -607316.2837641451,-1780347.3576090657 L -613648.6929979206,-1746462.8627359837 L -637179.0730033303,-1746462.8627359837 L -659883.2397480725,-1746462.8627359837 L -682587.4064928147,-1746457.2023125086 L -705291.5732375567,-1746451.5418903753 L -727990.2853272499,-1746451.5418903753 L -750694.5633914828,-1746451.5418903753 L -773398.7301362249,-1746451.5418903753 L -796102.896880967,-1746451.5418903753 L -818807.0636257093,-1746451.5418903753 L -841505.7757154024,-1746445.9969883629 L -864215.3971151933,-1746445.9969883629 L -886914.1092048867,-1746445.9969883629 L -909618.2759496287,-1746445.9969883629 L -932322.4426943709,-1746445.9969883629 L -955026.609439113,-1746445.9969883629 L -977730.7761838551,-1746440.336568887 L -1000435.0542480882,-1746440.336568887 L -1021557.4823481485,-1746440.336568887 L -1034570.0629049374,-1747218.7146052178 L -1039217.429006575,-1749858.7813062235 L -1040902.4721387128,-1767392.9977868707 L -1044772.6055556317,-1766263.8724136231 L -1049360.0817712224,-1761110.3070645267 L -1051713.7097650645,-1755540.3304567568 L -1050892.9511594458,-1748239.7244705164 L -1051626.769242755,-1742063.6164802215 L -1066199.381143521,-1739644.4104974824 L -1085930.3156086653,-1735511.4097130243 L -1106672.2536891946,-1732314.8296572454 L -1127615.346089587,-1733459.204037993 L -1134763.0592739326,-1734885.5919499102 L -1142372.7483450698,-1737191.6147981205 L -1159038.0553532585,-1739723.287518573 L -1168093.6732903097,-1739937.631071929 L -1178491.804286328,-1739368.0542568117 L -1190738.0614684958,-1737958.3751981054 L -1194678.7714425777,-1734755.927319515 L -1203930.0890444433,-1721690.9749395307 L -1212893.2004846456,-1706549.4680936525 L -1218752.724521531,-1706622.7014705099 L -1225340.611986677,-1714902.029180789 L -1243364.796018979,-1730567.4315777246 L -1265215.5875473,-1751139.4090957018 L -1275189.8139223773,-1761381.251677379 L -1280473.148274917,-1762701.9198743186 L -1290941.9671475887,-1755354.0437874019 L -1299752.9048438761,-1748284.8957512705 L -1309134.577569461,-1738291.069074945 L -1313395.9989965183,-1728729.8911220096 L -1316771.5399158427,-1717437.1327159947 L -1318271.681373773,-1704116.9762014097 L -1321679.8389038995,-1688643.0447233298 L -1329256.9113642348,-1676170.8198333604 L -1338236.3867695832,-1666729.456020221 L -1344911.2147570387,-1662288.246396734 L -1347487.5930519584,-1659871.27023412 L -1367071.8084282372,-1667201.658017546 z" /></g></g>
</svg>
