<?xml version="1.0" encoding="UTF-8"?>
<svg xmlns="http://www.w3.org/2000/svg" viewBox="3636853.4052074724 1050567.301193389 358711.8083110857 885518.6609751333">
  <g id="map"><g><path fill-rule="evenodd" fill="currentColor"    d="M 3864938.8042005715,1358303.1142410983 L 3861025.256182243,1359214.7519289984 L 3858568.323700945,1357180.0852347673 L 3859166.220685995,1351121.4067812203 L 3860546.916330304,1346719.8228688145 L 3864449.555038536,1346019.556778913 L 3867123.8944853526,1347197.7155737989 L 3869015.435272912,1349209.5218929823 L 3869048.0518837147,1352433.0583521132 L 3867906.58182512,1355768.1605007134 L 3864938.8042005715,1358303.1142410983 z" /><path fill-rule="evenodd" fill="currentColor"    d="M 3856285.4949032473,1347264.4094564535 L 3854078.5859982707,1353289.082821294 L 3849480.200472582,1353200.06426447 L 3845153.54582392,1347831.1995062826 L 3846534.130148738,1343685.7932967232 L 3850697.701743388,1342418.8958493515 L 3854350.428194788,1343974.730155648 L 3856285.4949032473,1347264.4094564535 z" /><path fill-rule="evenodd" fill="currentColor"    d="M 3696002.7940014973,1575751.5305353792 L 3690023.7128314995,1567439.0948412898 L 3685077.3425775915,1569533.7918247455 L 3678261.2501563192,1575370.6161858279 L 3674575.907094117,1576939.169647594 L 3672662.6590058524,1576759.9475607742 L 3671455.955725654,1575292.1393354028 L 3669933.995647528,1571561.3164888741 L 3664672.479915184,1560898.5626096416 L 3658758.631966791,1553273.662242234 L 3652507.7086002766,1550318.372576637 L 3647398.3666118477,1546814.8840581402 L 3649648.690118233,1543423.8120670123 L 3652029.3687483384,1540995.5449532853 L 3650996.657832249,1538500.3566264475 L 3648137.5280307145,1534841.8063019658 L 3637038.19556219,1529550.7648689318 L 3636853.4052074724,1527269.0780850598 L 3646648.1845633914,1522672.7290390225 L 3652844.7840183987,1517227.4427108327 L 3657051.770214458,1511995.6824355857 L 3662378.630487898,1500551.8581859632 L 3666705.2851365604,1489157.4930590428 L 3669933.995647528,1485449.719100687 L 3671053.758405418,1477890.574913566 L 3670325.394977158,1469362.3598265478 L 3672477.8686511368,1458527.3275057806 L 3673543.196178028,1448265.149278242 L 3670260.161755553,1444284.0150099064 L 3667487.972476328,1437393.6189877929 L 3670781.9162089005,1425634.5099357055 L 3675945.6934283287,1417545.3311326404 L 3700644.7054480854,1409113.0578155061 L 3717842.67621972,1401507.2024998437 L 3721484.493361022,1398155.8396871474 L 3727333.10808781,1391654.7426910838 L 3730572.727908876,1385310.8455233786 L 3728246.261870787,1383407.9625238082 L 3714733.634161354,1383252.1956291432 L 3711407.0738179795,1380815.2957963264 L 3701634.0017627655,1358525.470706115 L 3707047.802558515,1332985.6586806574 L 3707504.3237902587,1322955.5151757807 L 3707373.857347048,1310541.7286190165 L 3705634.490303403,1301484.3939057349 L 3701373.068876346,1297677.9658315836 L 3698742.255350429,1292817.8642805067 L 3699448.9114779844,1279506.5338018835 L 3703416.7834078195,1277942.7546425199 L 3712004.9708030308,1260369.9107824282 L 3715820.668988951,1250019.0944865576 L 3711243.990763968,1241765.1485496822 L 3706188.9726870446,1229969.4500005825 L 3703906.032569856,1222473.3523562928 L 3702634.0960680526,1220015.5701589559 L 3706134.5374560463,1215366.3390807735 L 3711939.737581425,1210872.5566180036 L 3718418.8659040667,1209633.0713501363 L 3725278.4842462386,1207519.2394071599 L 3746911.86880904,1185703.1544657797 L 3747183.599686067,1181467.6886593157 L 3743248.3443670333,1174159.0345717922 L 3735182.0227446617,1163149.2807304435 L 3733388.331789511,1158651.1717869195 L 3732420.742775535,1145425.745650642 L 3729213.8508847626,1141471.195358409 L 3717353.5383771746,1132558.4477460815 L 3708221.7779084207,1123184.2671419769 L 3711069.9983998574,1113691.102818354 L 3712613.777098179,1103317.585284961 L 3708102.220775308,1097624.381685906 L 3701373.068876346,1091722.513354715 L 3697220.295272303,1083075.5056874226 L 3695328.7544847443,1076657.6528360585 L 3690023.7128314995,1074099.6658759562 L 3685175.1924099987,1074000.4253947218 L 3681609.5178003986,1078013.9432427858 L 3677750.293693578,1077661.0908191334 L 3673097.472936891,1076282.7958650042 L 3671553.805558061,1070725.9725450752 L 3671303.781981739,1064707.054809495 L 3668096.7787714754,1060628.7902380477 L 3665009.4440138154,1054963.9736208597 L 3664628.953994284,1051966.6810383885 L 3666564.020702744,1051096.1530095555 L 3670651.449765691,1050567.301193389 L 3688066.938822335,1061951.3319686777 L 3698622.698217317,1062469.3905976377 L 3710374.2515823995,1064574.7665877445 L 3720397.347213935,1074606.8237570992 L 3725615.44834487,1075929.9594602177 L 3732268.56903162,1074551.7270274358 L 3751205.9068469,1073493.2755572358 L 3758837.4145382326,1074937.631611825 L 3768632.193894151,1080814.7477410596 L 3772491.418000972,1081619.7744341614 L 3778622.6729148845,1081851.3822728805 L 3779709.8190619713,1080274.4216743177 L 3780340.3326578247,1076789.9827429308 L 3779253.1865107375,1069788.8694016894 L 3780644.6801456534,1065996.663007452 L 3784373.4378092648,1061896.2533767975 L 3794722.699548825,1066680.1446362082 L 3820584.888927881,1088556.8792888669 L 3821356.7782770423,1091380.602571753 L 3837848.2042406113,1113106.1117347197 L 3843218.479115461,1122301.131082026 L 3843218.479115461,1127158.9826156192 L 3848306.113803185,1146154.8076878 L 3849425.7652415843,1155059.8388333218 L 3848284.406502481,1161834.0903302582 L 3848490.9041579026,1167260.9669953403 L 3850491.204087966,1175021.3742051779 L 3849828.073881311,1178294.20141658 L 3855720.103209508,1189673.764372158 L 3858535.707090142,1199242.636279843 L 3859122.8060845863,1208581.6351937456 L 3857481.288873349,1217690.9313892033 L 3852284.895043118,1230999.326307788 L 3851393.4485608465,1236359.6861259777 L 3852534.91861944,1241233.4786504898 L 3855894.0955736185,1246528.8921735066 L 3861503.5960341822,1252235.2391011552 L 3865732.4008504367,1259128.5845963925 L 3868591.41933248,1267220.5830422319 L 3871004.825892879,1270879.209214941 L 3874016.1294383276,1270790.5372060658 L 3879549.487367189,1272043.4350107 L 3884006.608459061,1276767.3014280114 L 3889170.3856784888,1284708.4347815881 L 3890909.7527221334,1293827.569049866 L 3891670.7327611963,1297733.418040124 L 3876875.2592398617,1297456.0443342635 L 3858285.6835138216,1298931.913912286 L 3853719.914598935,1302516.5355714918 L 3852350.128264724,1310452.9464590542 L 3846523.2208386404,1326831.6549983923 L 3843283.7123370655,1332852.3328784618 L 3836391.4773840904,1343863.5477500085 L 3826716.255161284,1359392.7106217965 L 3824694.2479305156,1364463.3209706813 L 3825031.2120291465,1369679.428699236 L 3830738.4510026267,1390797.6266539115 L 3836717.5321726245,1413011.45310724 L 3838619.982270281,1421689.9299038409 L 3842892.3130074367,1451254.1907831042 L 3845262.193646934,1472152.6907564085 L 3845610.067055663,1484455.9017895656 L 3847610.366985727,1500909.4057213308 L 3852937.1159396768,1509804.9657532196 L 3858513.9997894377,1515394.0434779685 L 3879538.5780570908,1518748.0611019067 L 3885811.20872431,1522829.260326367 L 3897725.845143405,1533342.7389290128 L 3923729.4102757694,1562387.9341521782 L 3938013.9273343626,1580950.874266634 L 3950559.188668801,1597295.388019639 L 3973040.493792975,1627680.002814137 L 3990488.488140932,1651301.2620558348 L 3992662.6691156137,1673505.104467295 L 3995565.213518558,1676733.2780996712 L 3989683.9821809684,1693195.826559925 L 3985835.667384245,1719831.6084097903 L 3988607.745343978,1737529.8408752263 L 3987455.4772947775,1767737.3189318553 L 3984259.3833946115,1799939.44659692 L 3980258.783534483,1811475.335077926 L 3975095.117634546,1815819.7244810273 L 3962897.729708837,1819304.8652507986 L 3936089.7699360005,1823322.506099115 L 3932078.3720852644,1827103.1017376622 L 3928632.254608778,1833364.0126345397 L 3923207.5445029303,1848236.3463234708 L 3916804.558711992,1863265.7982533718 L 3914793.460791321,1869695.4852957434 L 3916032.6693628314,1871215.302867992 L 3921761.726956507,1878872.6401915746 L 3927479.8752400856,1898464.766175446 L 3928512.6974756657,1932116.1941224586 L 3926523.3068556995,1934618.5006006884 L 3918598.2496671434,1936085.9621685224 L 3910053.588192834,1935642.2652951488 L 3906542.2374947416,1933742.7070709353 L 3903378.7602053788,1929977.9780804242 L 3901074.1127874856,1922791.8062999293 L 3906672.703937951,1917778.6784542222 L 3908662.0945579177,1909017.1084402367 L 3905074.712647614,1901497.049091173 L 3897888.9281974174,1899827.4625587892 L 3888768.077038761,1892946.3455881209 L 3869330.692070839,1870489.4104334645 L 3853067.5823828867,1854752.3815757483 L 3843653.2930464996,1841710.8200270394 L 3833988.98013379,1836523.4083969689 L 3831216.7908545653,1833318.676186217 L 3828890.4361359677,1827804.9979514475 L 3828846.9102150677,1819881.9493474727 L 3829727.447387242,1814020.7003003987 L 3826716.255161284,1807470.9964999214 L 3816953.981096677,1797327.7900217755 L 3812496.8600048046,1791698.2936953534 L 3812257.7457385813,1784974.1517674464 L 3816366.9934217245,1778500.412287283 L 3824715.9552312195,1770616.7249338403 L 3831032.0004998487,1754609.2583904348 L 3833282.3240062343,1744251.8185889828 L 3845066.4939821195,1723482.9703309627 L 3846697.213202751,1705445.8042815493 L 3846936.327468974,1691034.7003860984 L 3846218.873350812,1680254.3746776895 L 3843207.5698053627,1658190.8287236937 L 3841109.420042891,1642930.875059342 L 3826607.496018779,1622998.8647371756 L 3821878.644049881,1621135.591166381 L 3808104.9721345385,1622875.3012855963 L 3796201.1337060505,1625816.388279046 L 3790363.42828936,1629947.999772725 L 3781503.510017124,1630161.2779689003 L 3758304.7507747873,1633631.0073497463 L 3751032.025802281,1635124.5531822573 L 3746824.9282867312,1638729.7558382223 L 3744389.814425628,1639482.3035603333 L 3729789.9292496177,1624065.2133716387 L 3716951.2297374476,1607445.8070408567 L 3700655.6147581832,1579157.8611941184 L 3696002.7940014973,1575751.5305353792 z" /></g></g>
</svg>
