<?xml version="1.0" encoding="UTF-8"?>
<svg xmlns="http://www.w3.org/2000/svg" viewBox="-13180379.883667504 -3857579.718704532 3529393.1385210194 2220714.3862236463">
  <g id="map"><g><path fill-rule="evenodd" fill="currentColor"    d="M -13038659.485216552,-3833526.5301642893 L -13006801.962021843,-3836357.130085784 L -12974949.782162692,-3839188.5382463997 L -12943097.602303538,-3842014.016629844 L -12911245.422444386,-3844846.777768319 L -12879387.899249677,-3847680.2172659994 L -12847535.719390525,-3850507.7244022903 L -12815678.084876323,-3853342.5211978797 L -12783825.905017175,-3856177.8662261004 L -12771101.419302555,-3857579.718704532 L -12778140.373344395,-3837679.2326598675 L -12783478.142927935,-3830219.5390875316 L -12730688.325323438,-3810699.4751640256 L -12677893.053063896,-3791211.3345611244 L -12625097.89212384,-3771754.8834290304 L -12572308.074519346,-3752323.463327539 L -12519518.25691485,-3732929.706114253 L -12466723.095974796,-3713560.540420806 L -12413927.823715253,-3694234.9554059315 L -12361138.006110756,-3674927.1225906196 L -12321790.239658533,-3675009.872385977 L -12282447.927861353,-3675098.8779070107 L -12243100.27272862,-3675181.628860887 L -12203757.960931443,-3675264.380372953 L -12164410.194479216,-3675347.0021245703 L -12125067.882682038,-3675436.1404112247 L -12085720.116229812,-3675525.279345604 L -12046377.804432636,-3675607.90285446 L -12046307.116555983,-3690271.5788711724 L -12046236.53999882,-3704959.1320819748 L -12046160.397467118,-3719657.9973716857 L -12046084.254935414,-3734381.0842722594 L -12021619.013846323,-3734227.6102247643 L -11997148.318102181,-3734080.554578889 L -11972672.167702993,-3733927.0843396024 L -11948201.471958851,-3733780.0323425094 L -11923730.66489522,-3733632.982130704 L -11899259.96915108,-3733479.51756227 L -11874789.273406938,-3733332.4709986267 L -11850318.577662798,-3733179.010237318 L -11849448.83848123,-3732948.8227403886 L -11848405.218255043,-3732430.982328211 L -11838490.881766014,-3721248.2770782458 L -11828331.86503622,-3703689.8213675655 L -11816346.540740471,-3691450.2395105977 L -11802545.706869375,-3684513.524196223 L -11779015.326863965,-3664089.374836827 L -11745766.31003434,-3630250.974821121 L -11719251.788439233,-3607745.3455127776 L -11699471.984717632,-3596511.0791214504 L -11686187.561964324,-3586853.4814394237 L -11679403.974834364,-3578756.6062758514 L -11670277.78034015,-3561222.6112141386 L -11653074.354913468,-3520834.217295451 L -11653074.354913468,-3502332.23578874 L -11646491.92210337,-3484834.796589469 L -11633332.511138223,-3462186.301070643 L -11621825.526694413,-3448873.649315848 L -11611981.766762547,-3444868.2999401563 L -11601219.398392651,-3436867.328852316 L -11589538.532904224,-3424884.5129095684 L -11576085.572441857,-3416839.7962079505 L -11560855.284989484,-3412744.3770498345 L -11539819.797411734,-3402004.3039893582 L -11512990.019018702,-3384648.023946093 L -11494596.254276967,-3375788.968432295 L -11484643.846522085,-3375416.046319693 L -11475925.192683663,-3380979.4110567938 L -11468451.424710786,-3392486.3577555204 L -11461102.557206577,-3399899.657495317 L -11453884.156145578,-3403218.608601503 L -11450954.44978688,-3408525.8360092635 L -11452307.872155946,-3415842.280100553 L -11447426.735123642,-3432272.544359282 L -11436316.60466451,-3457863.9074787972 L -11423042.979901811,-3471755.530525594 L -11407606.194794016,-3473903.1702110367 L -11397517.865940876,-3478719.4818923743 L -11392777.993342388,-3486207.3449312923 L -11384526.881365301,-3487003.369691903 L -11372742.711389417,-3481106.309613036 L -11353577.057298519,-3477316.3068141467 L -11327019.121102005,-3475619.0522499406 L -11311353.908399103,-3476195.2111553513 L -11306576.075854257,-3479051.504440549 L -11304092.092736695,-3478901.1438604947 L -11303896.39307188,-3475756.8047211375 L -11299961.026433356,-3474422.950918981 L -11292291.558795664,-3474898.761716813 L -11285611.276153158,-3470503.3765279073 L -11277055.816688241,-3456600.68072409 L -11247606.134079391,-3434376.1649665204 L -11247568.062813539,-3434363.7634077757 L -11245084.07969598,-3426743.648878913 L -11234821.758478729,-3415761.21053648 L -11215949.653885053,-3398897.3149901503 L -11205268.882701911,-3384374.4471864277 L -11202784.78826486,-3372184.9214229635 L -11193142.182652855,-3352925.958679947 L -11176357.318511555,-3326634.52225212 L -11168877.984564137,-3312481.4780293605 L -11170704.40344958,-3310440.556013527 L -11169383.48637183,-3303058.57265256 L -11164904.657979252,-3290350.667463273 L -11156582.85812551,-3279598.084700253 L -11144412.743475044,-3270796.251863074 L -11132106.70772632,-3255008.1727071046 L -11119664.750879336,-3232251.744916662 L -11104592.091825929,-3214966.864994701 L -11086899.41723721,-3203144.7987908926 L -11076881.776260722,-3192148.2166094873 L -11074539.057576979,-3181987.419617459 L -11074713.049941087,-3173291.089914293 L -11077409.09668861,-3166056.4603831926 L -11076267.626630016,-3159186.456636213 L -11071294.094420353,-3152698.812694644 L -11069636.21324397,-3144741.7445028927 L -11071582.189262526,-3133681.422483833 L -11071451.722819317,-3130556.077540434 L -11071446.26816427,-3130550.0775483144 L -11070005.905272895,-3128053.928504291 L -11054297.166649092,-3109076.0299606747 L -11046225.501691163,-3093757.4097895045 L -11039816.949925685,-3069342.8305500196 L -11039784.333314883,-3069124.031696408 L -11032625.82213993,-3054540.521148125 L -11022330.884311877,-3048580.210398554 L -11006513.49786506,-3046377.527470649 L -10994495.556958511,-3041306.1173999785 L -10986277.061592225,-3033362.806144385 L -10975911.547207009,-3028568.639273763 L -10963399.013802862,-3026920.4733713856 L -10951402.780197017,-3021686.2099309196 L -10939928.412364008,-3012857.8393808086 L -10918528.687412383,-3007065.91587119 L -10887203.827981118,-3004288.8337294646 L -10863363.645832831,-2997121.700633967 L -10847002.68631247,-2985564.80481279 L -10839806.103871668,-2983214.6857222114 L -10837860.12785311,-2983051.624195783 L -10836925.266769428,-2984815.7050703056 L -10835691.401533477,-2988084.6059547514 L -10829358.9922997,-2991849.897072529 L -10814269.969281144,-2994310.239140552 L -10816297.431166962,-2968759.746327449 L -10823026.583065925,-2947826.961965245 L -10845198.086047221,-2904403.594177092 L -10854438.494338991,-2877531.9926961376 L -10872315.959282426,-2801002.610326386 L -10877811.245945435,-2751046.14057784 L -10879099.435092896,-2727588.7620084574 L -10880664.921091923,-2724268.66662469 L -10878963.62531413,-2720812.585465482 L -10883246.75404189,-2669084.770774513 L -10880947.561279045,-2625052.321606006 L -10882409.742790613,-2618242.304497285 L -10888905.123758912,-2604990.4035180393 L -10893481.801983895,-2586672.434116604 L -10891677.313038137,-2578542.1139218174 L -10891775.051551053,-2572904.5157803083 L -10885083.970917942,-2545091.371945223 L -10882958.659199718,-2524239.6248849696 L -10863086.460300757,-2488554.236350378 L -10851927.237946184,-2476123.7056509526 L -10838082.989473678,-2465356.6096022585 L -10833000.809441002,-2459283.0488934224 L -10835490.247213613,-2444169.661996184 L -10841132.36428498,-2436521.52811879 L -10843540.316190328,-2424408.168765604 L -10846317.84880511,-2434437.8076339825 L -10845236.157313071,-2447451.740383125 L -10840827.90547766,-2454450.2138869413 L -10840675.731733745,-2459581.098405693 L -10848818.195887819,-2465052.5936328205 L -10863711.519241558,-2482975.801239522 L -10881904.240982924,-2514726.3871481237 L -10868962.236983297,-2464006.120228872 L -10864515.913882032,-2455893.5445789164 L -10861058.998414937,-2452522.170390234 L -10855270.162254706,-2448964.5917409626 L -10853769.909477284,-2443468.857215775 L -10853715.585565777,-2439405.22225476 L -10837746.025375046,-2404284.2831157153 L -10819694.679386992,-2368058.309508674 L -10818732.545028066,-2358170.5542967133 L -10811508.800631508,-2346029.0222466053 L -10765562.23740404,-2295348.7856020965 L -10737438.92652799,-2257610.352236295 L -10727676.652463382,-2221833.9450767483 L -10721773.713825088,-2210686.459190567 L -10718903.786032947,-2195449.0112736095 L -10700471.95002536,-2178387.495443104 L -10694840.74226409,-2167380.097397083 L -10684964.365721421,-2161266.30753362 L -10676990.439276407,-2142832.8462803783 L -10661972.104134506,-2132052.137423699 L -10665559.597364299,-2131856.8097215616 L -10678680.937063595,-2137295.3081793315 L -10677805.743226977,-2133705.855978626 L -10666755.391334401,-2126069.8218384376 L -10645127.46142665,-2118539.905517161 L -10639729.913276555,-2118522.748044883 L -10648258.32210521,-2122430.803300363 L -10655482.066501766,-2127682.831562086 L -10652954.557463305,-2128452.114121721 L -10637849.281799093,-2121897.0614222507 L -10595593.516288875,-2119733.443799319 L -10576987.687917178,-2104446.256214061 L -10552881.229546914,-2097870.4405333446 L -10539912.063591534,-2078378.8278041014 L -10524833.838563584,-2058025.0831631918 L -10515213.051571777,-2057063.8843905265 L -10507701.101013556,-2056983.8646376487 L -10485073.076800516,-2060416.559960401 L -10449910.700563135,-2073214.026380429 L -10437805.707814785,-2079484.1252639324 L -10414199.296597162,-2087996.2586244023 L -10378085.695310952,-2089560.4346620557 L -10366888.51301002,-2087171.154760234 L -10339884.85357237,-2092477.0729439384 L -10327008.08279435,-2098988.194764341 L -10322540.052392378,-2104905.0763275055 L -10320441.902629908,-2109269.266840968 L -10295416.835821616,-2115510.4306188514 L -10290486.829532856,-2116743.97445706 L -10265124.687306441,-2117868.5423092134 L -10252883.884779323,-2120163.9389915476 L -10238474.244613077,-2121512.484660162 L -10228076.11361706,-2112337.9720445923 L -10228087.022927158,-2107858.3586423183 L -10235011.874490935,-2103603.4497250062 L -10231772.254669867,-2099504.183601692 L -10219460.875585588,-2092706.2862950142 L -10196832.740053056,-2089955.7808838517 L -10189516.489159651,-2091055.9614549642 L -10179107.560173025,-2101069.254782972 L -10160713.6841118,-2110772.0194578324 L -10161105.083441429,-2122074.895430171 L -10164393.572518952,-2128262.7006518897 L -10169736.685438048,-2128647.290664849 L -10171013.965275409,-2132121.049403083 L -10167279.86427624,-2140437.2907688725 L -10168263.59461638,-2143235.0166160953 L -10179672.840547273,-2135262.2088563144 L -10182303.5427537,-2135285.1440137047 L -10181042.515561994,-2139006.8731685677 L -10178683.544232596,-2141965.348823535 L -10145206.09980786,-2159351.4303023666 L -10136634.387697287,-2166499.967688777 L -10125067.513367431,-2172799.585326428 L -10101047.995519476,-2196451.392404969 L -10095916.83491085,-2241059.1643939884 L -10091122.749720346,-2248873.65036253 L -10075202.058786074,-2262593.0439132005 L -10073489.853698183,-2266726.9967124006 L -10072457.142782094,-2276079.4849009817 L -10072897.411368182,-2299588.4959015925 L -10072000.51023086,-2318099.5203577653 L -10072647.38779186,-2339055.764428432 L -10069788.257990327,-2357775.4283414036 L -10067195.51573026,-2362988.8125432553 L -10058063.866580997,-2393002.334732242 L -10039115.619455619,-2406300.234790606 L -10006246.981326034,-2422028.471470315 L -9998691.616166405,-2424653.061021926 L -9893932.850882523,-2441325.9563767673 L -9879235.227193596,-2445396.0184887047 L -9861227.29580695,-2456226.6010938636 L -9848067.884841805,-2459902.614583541 L -9824059.164984455,-2459604.559548508 L -9816683.246843984,-2461048.1990704928 L -9815231.974642513,-2462544.6355348425 L -9815193.903376661,-2463988.6396310893 L -9810769.398895591,-2465467.7282323134 L -9796876.169847138,-2464052.934793372 L -9770926.92862628,-2457523.9428308844 L -9761474.568024041,-2455887.6805436807 L -9738281.263436753,-2448304.5049161427 L -9712723.421545526,-2445255.845429083 L -9709054.442448473,-2446575.693574311 L -9705679.012848636,-2448882.76736954 L -9703086.27058857,-2453299.2013678593 L -9705755.044060849,-2457155.794313023 L -9708239.1384979,-2456857.6667555347 L -9712565.793146564,-2454783.2427418777 L -9717718.661055893,-2454584.59738218 L -9727839.606519835,-2457757.690072823 L -9725817.599289065,-2460422.7268985696 L -9715490.044850212,-2460171.4670115933 L -9708891.359394459,-2461463.2377448967 L -9699096.58003854,-2466140.083001311 L -9688665.83243172,-2462638.137172841 L -9674968.30304808,-2447153.898666688 L -9665211.483638521,-2442231.036824029 L -9664434.250953801,-2419829.908616675 L -9662961.160132134,-2415748.341728334 L -9659390.030867487,-2409837.5952267256 L -9664260.258589694,-2392501.6242724312 L -9669733.837952,-2378178.3670042423 L -9676582.658303563,-2366436.1483077756 L -9691427.001081355,-2347963.0121104154 L -9709424.023157904,-2333222.4358361294 L -9731704.285281705,-2300463.2011500993 L -9736802.717960037,-2285135.694037178 L -9736650.544216122,-2272857.3784340764 L -9732878.371951101,-2261009.069665025 L -9733970.861433748,-2256633.620471228 L -9736694.070137022,-2252213.041243466 L -9741221.87910555,-2252605.9079633234 L -9750005.654846083,-2246926.941498169 L -9761349.556235882,-2230090.694586044 L -9761615.94377735,-2224960.838190776 L -9756631.50225759,-2220259.173142112 L -9750174.192555144,-2222514.6932518664 L -9741754.542868994,-2222716.6067538033 L -9737047.3982008,-2224107.020727782 L -9732079.32064619,-2223737.7854926637 L -9733188.17409398,-2214094.005096845 L -9738525.832358027,-2207250.597257715 L -9741890.463967253,-2205106.4179022135 L -9747912.95973866,-2203942.23508573 L -9754653.02094772,-2200046.6372151547 L -9758120.845724914,-2196462.955015372 L -9757794.790936379,-2185318.519333986 L -9754044.214652572,-2184449.131517572 L -9746108.35947341,-2192758.9093462154 L -9741509.973947722,-2192349.9353734124 L -9740575.00154455,-2188848.354852563 L -9750869.939372601,-2160397.994629347 L -9757490.33212906,-2131230.974403921 L -9766453.554888753,-2114362.967338055 L -9769600.668212969,-2089835.4981168283 L -9774307.924200654,-2079386.7759729228 L -9779776.04890791,-2069057.9736883638 L -9782977.486143632,-2069630.4078031918 L -9791625.4521054,-2089216.6106210423 L -9800463.551757442,-2094265.1941091288 L -9802398.6184659,-2099028.3463208564 L -9797354.509699075,-2122803.761155492 L -9799648.247806871,-2135980.0330984937 L -9804328.230519312,-2135457.45258598 L -9810225.825822048,-2128234.012487812 L -9818020.305247903,-2121960.178796097 L -9817857.22219389,-2112905.880479617 L -9826809.535643486,-2097864.688151736 L -9829027.242539069,-2092918.3667174152 L -9837571.904013379,-2094081.7385913075 L -9847464.533201704,-2093428.4486485925 L -9854335.060853975,-2089806.747708067 L -9861368.671560256,-2071582.4085353445 L -9878892.808439916,-2045934.5327375173 L -9885877.438570248,-2033513.9349079793 L -9891557.515587976,-2029217.4429929364 L -9896058.162600746,-2027549.3085276005 L -9901047.947456066,-2030485.656673224 L -9913049.52439747,-2037514.2496449524 L -9922300.841999335,-2034131.1359889824 L -9925507.845209599,-2026075.4997302704 L -9925409.99537719,-2015887.6932543523 L -9948793.544974245,-2015904.7644686166 L -9988565.327366903,-2015944.7532581247 L -10039191.761987321,-2015990.471529583 L -10087997.232377345,-2016036.072974396 L -10128866.958907695,-2016070.3325870205 L -10129008.334661005,-1993205.5772249573 L -10129138.801104212,-1972974.942324442 L -10129290.974848127,-1950230.5602132112 L -10151837.513193905,-1950424.1739213534 L -10175672.240687145,-1950628.9797230852 L -10173748.083288783,-1948363.8684324697 L -10165605.619134707,-1944095.9706658581 L -10155028.152439022,-1933896.2217190864 L -10142526.417025484,-1918051.497454439 L -10127383.070095422,-1905444.1545951844 L -10109592.656993786,-1896057.285783483 L -10097868.154264966,-1886873.0351961444 L -10092220.69385804,-1877902.5204718695 L -10089372.473366605,-1870262.5883963269 L -10089339.856755802,-1863946.058810601 L -10082849.819123065,-1858963.2994282255 L -10071196.115590388,-1855681.8056056239 L -10065173.50849949,-1850049.326339655 L -10065173.50849949,-1845443.4230527475 L -10068864.194897251,-1835011.6073155175 L -10069945.886389289,-1823531.9368766255 L -10068532.685453668,-1813143.9470896134 L -10076859.93996246,-1812968.554113119 L -10097036.597668739,-1812951.640462065 L -10127801.631380806,-1812923.3738400713 L -10156098.934620963,-1812906.344375529 L -10178384.540080324,-1812883.7542889249 L -10212068.482160479,-1812849.8112773607 L -10221292.63780659,-1796892.5038929067 L -10236631.68440147,-1770379.671158772 L -10250535.711440528,-1746378.3030801339 L -10262227.486239055,-1726210.4557998115 L -10264129.936336713,-1720913.4231749452 L -10264140.84564681,-1716608.9520828386 L -10249720.40748996,-1697755.1006075041 L -10252383.72630719,-1692284.0963138996 L -10257449.653694209,-1689425.2168886552 L -10259042.301648987,-1685002.5308514743 L -10258721.590196012,-1677830.010473413 L -10262140.545716746,-1668275.516165876 L -10261037.146924002,-1661709.3066334336 L -10259194.475392904,-1653616.3711767239 L -10262216.688248448,-1646604.4927495862 L -10264662.60010016,-1639808.034946435 L -10267570.599158153,-1636865.3324808856 L -10270842.83559002,-1639437.3317944587 L -10300499.015854292,-1670727.0476348684 L -10331443.496585516,-1705175.4892151735 L -10343629.863881636,-1716428.7359684294 L -10355430.397822669,-1724981.9412396564 L -10371291.310190385,-1740890.6516005108 L -10412954.52205111,-1775834.5939140571 L -10434462.894825753,-1791811.372596478 L -10454688.421788491,-1810926.6100721008 L -10472821.364963297,-1821551.287344334 L -10490736.901172586,-1828484.1943396342 L -10498683.554342356,-1832458.112413997 L -10505684.548437836,-1837723.9221120141 L -10509565.47984536,-1838024.0604399855 L -10511500.54655382,-1830941.0159314855 L -10505238.825196698,-1827363.455771728 L -10497743.238603624,-1824341.1666474938 L -10491807.683354527,-1824131.728472247 L -10485562.214643061,-1821590.8059459692 L -10467184.70254698,-1811910.8955715632 L -10464173.510321023,-1806916.8074686474 L -10516436.007497631,-1826338.9809196 L -10537672.538075754,-1828116.25031964 L -10539982.640148696,-1831167.4435691026 L -10529388.809487864,-1841325.6116578158 L -10532699.117185583,-1845007.339052215 L -10536476.744105652,-1845500.152873292 L -10547837.009460596,-1838471.375955943 L -10552065.814276852,-1838001.3295779105 L -10552805.087015212,-1842628.3405465789 L -10552299.585207518,-1846984.343634127 L -10559621.17943648,-1853381.063631169 L -10564268.54553812,-1853120.2951847895 L -10568084.355043532,-1848666.9231687714 L -10577971.529576808,-1840215.6078279556 L -10577672.636744028,-1836897.1705115193 L -10558213.433155911,-1833296.0659707477 L -10551505.988557654,-1831269.3541298334 L -10553022.49398073,-1829016.2977763608 L -10569709.508289622,-1829055.94519512 L -10590310.181936337,-1825224.026982969 L -10627048.842163349,-1801793.8804026763 L -10661265.44800695,-1791732.2057339812 L -10710446.065080944,-1769205.1915995623 L -10732161.046830498,-1768053.4328280569 L -10743537.564831099,-1764446.1240165671 L -10776612.700616106,-1773061.7558311783 L -10818547.754673349,-1794218.9144927892 L -10882012.888805937,-1800883.665556582 L -10924779.610778898,-1828625.7395998333 L -10967230.964634439,-1840051.373623766 L -10994158.59285988,-1866735.5866216428 L -11010383.63128198,-1867875.2313619503 L -11020814.3788888,-1872156.675273574 L -11059374.003346208,-1881834.1485086002 L -11097515.066518236,-1888212.4681436021 L -11134677.742685681,-1911573.663623997 L -11159001.719340958,-1918983.5771526676 L -11180026.29760861,-1928283.5098794086 L -11226326.077580366,-1944175.561364659 L -11243485.97708615,-1952991.2065880424 L -11259727.379473398,-1966634.3581877197 L -11286182.011182455,-1980765.0636228863 L -11297487.952625893,-1992572.5328978086 L -11310092.881207395,-1996804.4804433791 L -11328138.772540404,-2019062.244207079 L -11337563.97118689,-2028451.9189739402 L -11345537.897631902,-2032839.7626662236 L -11354088.013761261,-2034353.9601704637 L -11378700.08525871,-2032565.4659290686 L -11415476.816751573,-2042395.6136652564 L -11432462.835212737,-2044905.4026519726 L -11467967.630203798,-2059432.399978244 L -11515066.461480469,-2075670.3767155388 L -11530503.246588264,-2094322.4729500331 L -11543711.638129357,-2111770.0797693697 L -11567481.132400991,-2134751.0557950605 L -11582309.222533127,-2144556.42403898 L -11608062.764089169,-2156229.381272279 L -11622331.028502107,-2165677.481104971 L -11644350.35773949,-2172943.470467143 L -11681697.82426165,-2191393.8878614516 L -11693579.844069943,-2207192.9878938952 L -11700531.857589472,-2221239.816651908 L -11720425.87510863,-2238293.334159942 L -11742211.433415346,-2270196.77913006 L -11747815.479220862,-2281964.167787753 L -11752044.284037117,-2300040.376290658 L -11757110.211424137,-2310539.9578215415 L -11763067.585293429,-2318766.449264537 L -11760029.119792227,-2324751.6089680386 L -11748946.039969359,-2332114.0616566925 L -11730519.658616818,-2333767.9718163065 L -11717506.96674054,-2341755.351277579 L -11715783.96366204,-2348311.5328671155 L -11716631.884223415,-2352395.078615247 L -11724953.684077155,-2362448.228302181 L -11735313.743807323,-2365116.427014025 L -11743358.358128991,-2365261.6821014434 L -11745412.981970562,-2369087.433176774 L -11739346.960278254,-2373263.0035007885 L -11732405.744749332,-2383071.721924085 L -11722159.787497226,-2395046.1045992053 L -11714936.043100668,-2406096.290330088 L -11713593.41872221,-2421678.5080060186 L -11714512.027160237,-2437297.846751831 L -11711777.909146864,-2450500.7840799876 L -11736574.770999027,-2465754.2691110065 L -11739466.517411366,-2472245.3980867476 L -11747260.99683722,-2489742.7335748076 L -11760806.352476943,-2510094.876985024 L -11760404.15515671,-2550819.4838799224 L -11776688.972145367,-2587031.5853755395 L -11793560.776808977,-2605072.9857338504 L -11802284.885302445,-2611358.538841936 L -11825978.237042379,-2639389.6022566957 L -11844643.84398063,-2655690.9558427264 L -11862928.96089935,-2686464.8421614254 L -11880991.216197504,-2706040.6043013018 L -11904005.185085123,-2738944.566824446 L -11920632.420827461,-2755371.6715135784 L -11996338.357487168,-2811020.4573285216 L -11992071.481405064,-2811020.4573285216 L -11969878.271123063,-2797344.6492934013 L -11966144.058804402,-2798484.31604448 L -11965611.395040957,-2805157.0739632812 L -11968171.52069022,-2813128.6854683203 L -11972286.223028412,-2815040.1131582037 L -11978200.070976805,-2813248.196258297 L -11986179.452076865,-2814890.737996645 L -11990169.031307405,-2817519.3900281256 L -12002100.031691648,-2819228.2244116487 L -12017069.497577092,-2828516.5246117795 L -12023483.392678127,-2838151.4416561048 L -12024184.594150634,-2849163.3082198175 L -12045622.279048622,-2872650.3034316623 L -12053759.288547646,-2885763.672885118 L -12049590.262297949,-2884797.5149903526 L -12043882.912004977,-2879511.4760649935 L -12038099.530499794,-2878005.801807629 L -12031370.378600832,-2877963.788575653 L -12026478.33225843,-2880087.4460592335 L -12028234.063267222,-2883981.349786376 L -12032837.903447958,-2887234.1070352844 L -12064103.095632158,-2899633.365497297 L -12074408.831450818,-2908346.034235602 L -12100026.451908601,-2922850.278182739 L -12106103.382911008,-2927941.004606353 L -12110141.942717494,-2941976.4376003654 L -12116414.573384713,-2942627.121822186 L -12121931.567348428,-2938711.7277099546 L -12137031.499677083,-2934875.7960223993 L -12140890.723783905,-2939344.1357782674 L -12141445.094848054,-2943645.276754374 L -12130791.485620666,-2948200.6884318334 L -12121007.504255354,-2961483.258827236 L -12121197.74926512,-2966104.4926557625 L -12126606.09540582,-2960771.4594281716 L -12134754.014214942,-2954807.261070819 L -12143184.461891698,-2951479.469953684 L -12155696.995295845,-2948700.8153964025 L -12162094.637751225,-2950707.9118927144 L -12167698.68355674,-2953715.981861245 L -12176678.158962088,-2965326.1129516065 L -12181205.967930615,-3003115.1891724886 L -12173248.294131257,-3016242.046182348 L -12163953.561927982,-3029223.068330989 L -12156055.778014671,-3036933.7423340566 L -12151500.807090392,-3031114.0424499405 L -12146815.369722903,-3030416.9534910284 L -12150114.768110525,-3036994.341661368 L -12157871.28759002,-3043149.9803170688 L -12160610.74893895,-3049290.1117836684 L -12160904.298436174,-3054916.8762468463 L -12164578.732188275,-3065356.8118667975 L -12187576.33711075,-3087330.431903913 L -12209084.709885392,-3085644.957197062 L -12217846.778325219,-3086405.5517868116 L -12226038.111735752,-3094780.1466637864 L -12233001.03456538,-3108911.407739877 L -12236430.899396213,-3120745.1433667424 L -12236865.713327251,-3127053.14384061 L -12238909.427858725,-3133388.485553966 L -12275995.961494466,-3143752.027904115 L -12287144.274538942,-3152649.9855558136 L -12298330.547529776,-3163841.5111766695 L -12302961.660985759,-3172984.906448895 L -12307554.703175887,-3179824.9928633855 L -12311120.377785487,-3191645.504463278 L -12313658.796134045,-3205408.9127170607 L -12309516.82052061,-3223234.777021825 L -12304130.293000106,-3231864.413195944 L -12329639.154315384,-3238284.8867427027 L -12339613.380690463,-3238586.2297013174 L -12347647.08570203,-3234969.6722920393 L -12354914.356019488,-3239644.3843050795 L -12369976.217082288,-3244812.873046942 L -12387902.551282184,-3263509.9441807712 L -12408970.655470738,-3297472.211481321 L -12432169.414713074,-3308430.8441832047 L -12439643.294005444,-3320264.7448507417 L -12449128.271218484,-3330938.546462035 L -12457433.70710708,-3344181.117147763 L -12458722.007574031,-3349948.2943767942 L -12461195.081381494,-3353161.6544710817 L -12472778.208357006,-3362402.843419617 L -12485790.900233286,-3378051.292212162 L -12489160.875178073,-3390669.430543666 L -12492661.316566065,-3409989.970504109 L -12501336.444483586,-3416808.5149444696 L -12509886.560612945,-3419975.9647085485 L -12511555.239779936,-3429177.1156892334 L -12511049.737972243,-3434338.704624237 L -12513930.575074483,-3444099.8262739866 L -12531557.905122107,-3467548.873876386 L -12540488.511270998,-3486859.2060801443 L -12545391.355604006,-3492865.6439862717 L -12549978.943139086,-3501679.585218959 L -12552299.954522125,-3519715.601718458 L -12559599.841450386,-3542189.4517587405 L -12573732.184765065,-3569276.7796772174 L -12585521.809395999,-3587510.5466275658 L -12591397.58607854,-3605935.63341759 L -12588788.591172818,-3624711.0395981884 L -12590788.77978339,-3636281.695473663 L -12592305.396525959,-3638996.9010227784 L -12591120.400546463,-3642791.4442034094 L -12587206.852528134,-3640659.266334065 L -12583880.29218476,-3644054.471076601 L -12584304.308125192,-3656049.8532169596 L -12588413.555808334,-3659684.4806682644 L -12599828.145074787,-3663440.869372666 L -12604866.799186561,-3666034.8360215086 L -12632626.095327718,-3670938.2017431497 L -12648508.603676649,-3677752.529493481 L -12649568.587867983,-3693629.4886781173 L -12657020.648540156,-3700902.948130207 L -12663641.152616104,-3705399.2481337083 L -12684605.952317202,-3714754.266783568 L -12687916.148695432,-3709967.3870789916 L -12690720.95458546,-3701138.798103538 L -12699428.587794289,-3699206.947611696 L -12707043.731520476,-3698817.9767215243 L -12719817.19781104,-3704965.4025463513 L -12751500.951280622,-3728384.8640290927 L -12758192.031913735,-3732143.3318687133 L -12768079.206447013,-3734131.6244583447 L -12772944.090833658,-3737936.674418872 L -12794349.159120845,-3750287.201500349 L -12790060.46441854,-3743720.0796340145 L -12783874.885593122,-3736894.1711173044 L -12778352.43697436,-3717078.1269499636 L -12784837.019952048,-3702809.5979619995 L -12788592.939571412,-3653076.8408838063 L -12784451.075277468,-3643203.9901863197 L -12775139.979109047,-3627391.9054449755 L -12768720.62935296,-3602291.4759546774 L -12766725.784077946,-3583650.685542851 L -12760920.695272056,-3568873.0054749413 L -12762752.457493061,-3534196.7506364635 L -12760545.659907576,-3523656.4854246518 L -12751701.994280996,-3506412.2513940725 L -12735330.236770028,-3490250.7545665787 L -12731900.371939195,-3481745.4641271583 L -12710370.291863851,-3469445.436071025 L -12697314.185386162,-3453455.5107133565 L -12671381.30813045,-3431698.3426819267 L -12663200.884030018,-3422501.666009386 L -12639806.313803375,-3388666.107232539 L -12639045.445083804,-3378623.2674688534 L -12634729.588425748,-3366321.0359136253 L -12621608.248726454,-3368861.342476446 L -12615716.108078767,-3359497.664251485 L -12616395.602250569,-3355178.1369138937 L -12614802.954295788,-3351883.7380818194 L -12607921.628652912,-3352609.5865636724 L -12601985.962084323,-3350059.95422797 L -12589527.752591686,-3313650.5918581923 L -12582842.126613623,-3308690.447167738 L -12574275.757838609,-3306569.7015905506 L -12564725.547403963,-3302564.146345697 L -12564100.377143666,-3293253.1976802447 L -12564459.159862494,-3285837.42759429 L -12556360.22162932,-3275113.204982584 L -12557735.46261858,-3260601.440706279 L -12551196.444409892,-3248327.407626025 L -12552185.740724573,-3236451.9026387366 L -12549495.1486321,-3227051.134279959 L -12529302.238280162,-3205856.9541540784 L -12504429.233896296,-3189022.005936974 L -12499243.749376163,-3166949.8831004384 L -12489095.641956467,-3146813.1192567823 L -12478708.420270545,-3141717.7610792457 L -12468223.237432728,-3133357.9794567158 L -12469516.881235234,-3124685.812308676 L -12468793.972462026,-3119360.6808290933 L -12454775.73162541,-3103519.2508223965 L -12452492.79150822,-3083363.667023348 L -12440398.819389457,-3070187.5650176047 L -12436990.773178821,-3069154.399482305 L -12434321.888387054,-3071214.7060851147 L -12443127.482747782,-3084452.560474688 L -12447394.35882989,-3093051.2744563394 L -12447943.275238989,-3106626.3651443063 L -12444991.86157959,-3108448.254239317 L -12419879.742929496,-3086989.607439799 L -12417232.565438433,-3070995.878505041 L -12408802.117761677,-3061967.126399897 L -12408171.604165824,-3049757.432994067 L -12403051.352867296,-3042488.8308009054 L -12401502.230833417,-3031944.362084177 L -12393435.909211045,-3014625.413810051 L -12393240.20954623,-2990580.580881793 L -12388924.464207666,-2973069.361255362 L -12373112.532415899,-2946242.062001296 L -12360295.540204434,-2940609.0329605783 L -12357979.983476443,-2927459.4496889003 L -12344657.489457285,-2893471.438178533 L -12329264.118950902,-2875078.9141567354 L -12321594.651313208,-2859500.333462229 L -12320534.667121874,-2849791.953953138 L -12326296.341326352,-2835453.4643077394 L -12326910.490957059,-2825449.6702421787 L -12318539.821846858,-2795071.4323881916 L -12306032.743097762,-2779526.2370665907 L -12292063.371517606,-2775771.9317100043 L -12289633.712311551,-2773543.7216513944 L -12290742.565759344,-2769373.928806417 L -12286046.330401246,-2765657.7991691385 L -12280762.996048706,-2770410.2951226365 L -12278186.506434297,-2777172.2761506117 L -12280866.189216672,-2785022.274826941 L -12281333.731078004,-2790734.86901421 L -12278958.395783458,-2794826.828542681 L -12274408.879514227,-2795447.264812106 L -12247682.405608652,-2774699.456772201 L -12243198.122561025,-2766741.6043499126 L -12233251.058141703,-2757430.7939977976 L -12224141.116293145,-2745978.4587151166 L -12220205.86097411,-2736953.354254221 L -12212922.226691509,-2729519.540254264 L -12209139.145116389,-2712223.0760207544 L -12190555.024045397,-2704486.4632768366 L -12180673.304167168,-2690186.0703865793 L -12180020.97195112,-2681139.226830065 L -12184815.168461114,-2658009.2748115687 L -12189005.902011517,-2651356.9128801683 L -12204007.984507764,-2641534.251790267 L -12214911.617311476,-2629822.1567956554 L -12225445.66940575,-2622608.8835482704 L -12236621.033086488,-2618224.663136342 L -12245839.73407755,-2619209.9501308836 L -12254721.35965049,-2632680.034022981 L -12265249.95708972,-2673370.347063428 L -12272316.184406804,-2681950.748240413 L -12277289.716616467,-2694744.0060496964 L -12285519.009973358,-2705340.7179153813 L -12315273.04007004,-2721430.095768915 L -12330291.486531433,-2738427.41413032 L -12344836.936476445,-2749785.0667293747 L -12360491.239869248,-2766241.339703474 L -12403143.748044655,-2793550.235145399 L -12420830.967978325,-2807485.4563205796 L -12432484.671511002,-2821283.8498606067 L -12439996.622069221,-2821080.563566799 L -12445796.256220061,-2819658.369138855 L -12447997.71046999,-2823435.3493593303 L -12448323.76525852,-2830585.274890217 L -12450889.345562834,-2835273.999927432 L -12475860.19977911,-2856109.77236542 L -12481034.774989143,-2867644.2372457776 L -12482089.30452543,-2881041.260477256 L -12476463.551419208,-2915590.4197004023 L -12473990.366292255,-2935833.1135040475 L -12475561.195626838,-2946272.2971719117 L -12478175.64518761,-2947694.4073597696 L -12480540.182491548,-2953372.365404415 L -12481116.260856405,-2970069.321001989 L -12487133.413292253,-2988259.852382781 L -12509777.80147044,-3025599.569706952 L -12526345.25864622,-3032992.9743039515 L -12541075.49894595,-3038364.724500419 L -12581412.561712855,-3071500.3819576567 L -12592375.973083122,-3088097.09878898 L -12595044.85787489,-3097532.165669665 L -12596447.260819905,-3116756.751575167 L -12602007.780704519,-3105614.8745867135 L -12609410.972120235,-3097380.0237769787 L -12626511.093059462,-3097982.864451054 L -12645731.071061866,-3088693.43774721 L -12657167.478948511,-3097428.6591221713 L -12663331.350473227,-3107345.4085551677 L -12672718.47785386,-3119287.489471904 L -12683290.489894498,-3121629.5520338393 L -12690030.551103558,-3121934.486057502 L -12702673.662270404,-3136715.9243524717 L -12712892.346247263,-3141412.396396692 L -12727535.646024683,-3143226.6682750816 L -12739988.512181763,-3150754.998705126 L -12743820.46301334,-3158947.970584317 L -12745891.450820059,-3170554.736662766 L -12750522.564276041,-3177436.5169628775 L -12770084.961032126,-3191044.7598583 L -12786016.449957004,-3206071.7427330795 L -12801018.532453248,-3215734.4200575007 L -12805437.58227927,-3223640.36305805 L -12805801.819653146,-3229048.781522846 L -12782097.447283627,-3227548.976687364 L -12753876.286575168,-3221760.2717261966 L -12740347.183581099,-3223388.4276545197 L -12731911.281249294,-3228968.839809418 L -12723883.030892774,-3232971.1583965407 L -12722600.185080873,-3228636.8663932146 L -12724067.82124749,-3220728.036415373 L -12716322.211078094,-3213480.8003309034 L -12705695.76380646,-3207612.185678519 L -12698140.39864683,-3208146.152372346 L -12705456.649540236,-3214549.211355263 L -12709946.38724291,-3227628.7842117096 L -12707935.178002749,-3232337.8760913215 L -12708054.73513586,-3238850.792141677 L -12718545.372628728,-3237380.6459156107 L -12720018.352130903,-3240714.843182415 L -12711044.331380606,-3250648.323108554 L -12700744.050216993,-3276908.2160149845 L -12695819.38726379,-3302811.3572185235 L -12706619.826899536,-3325520.060547132 L -12724845.1652517,-3341317.130391159 L -12764339.65079279,-3387689.4659074424 L -12787929.809364758,-3411572.834461293 L -12794762.265751177,-3420474.8077367023 L -12801018.532453248,-3424666.176750958 L -12820260.217756359,-3430138.0792165343 L -12836382.063010491,-3443525.10024647 L -12864668.456940552,-3462486.50512135 L -12876751.63106871,-3472275.0961303455 L -12885084.340232551,-3495292.7479903903 L -12891721.096954154,-3498435.5922346837 L -12889633.85650178,-3514374.9933863147 L -12892536.400904724,-3542636.4682772425 L -12897276.162183722,-3549884.933102682 L -12912593.501477893,-3556935.9343410763 L -12916240.661954753,-3576199.6826267424 L -12916996.298658257,-3594557.4702125313 L -12919980.328928461,-3607340.3276666477 L -12946043.672627382,-3628919.6377828615 L -12947527.561439658,-3639371.2483239803 L -12947533.016094705,-3649298.252263585 L -12950180.082266279,-3659112.4729933674 L -12964100.473270485,-3679719.3208898897 L -12980917.95402259,-3697734.1725748894 L -12986772.023404427,-3706330.6117105545 L -12987473.224876933,-3723816.211352702 L -12993441.396736834,-3728519.0235405127 L -12991174.820584793,-3729707.807105553 L -12985652.371966029,-3729273.2239527456 L -12982510.601977367,-3731587.1659129825 L -12982168.18322369,-3743777.611819857 L -13007459.637573449,-3762964.484894452 L -13014770.433811806,-3789399.7378917383 L -13028250.556229929,-3803417.360654957 L -13031408.578864241,-3808498.984047441 L -13038659.485216552,-3833526.5301642893 z" /><path fill-rule="evenodd" fill="currentColor"    d="M -9678077.345106445,-2308998.1755662514 L -9683839.019310923,-2305300.98882404 L -9686959.081998877,-2318377.8794696657 L -9682344.332508042,-2331145.0323115783 L -9676761.994003233,-2338481.061657412 L -9665711.530791165,-2339345.976025807 L -9658444.260473708,-2341755.351277579 L -9657525.652035682,-2338510.069801834 L -9663510.187860727,-2328609.4473034223 L -9678077.345106445,-2308998.1755662514 z" /><path fill-rule="evenodd" fill="currentColor"    d="M -11855775.793059958,-2464865.5647981437 L -11859015.412881022,-2455011.209039483 L -11867440.405902732,-2458955.798818893 L -11870462.618758276,-2465140.361381583 L -11871038.697123133,-2475287.1835449254 L -11866364.169065742,-2477001.246809651 L -11859580.693255272,-2472713.293338425 L -11858178.290310256,-2469835.806465533 L -11855775.793059958,-2464865.5647981437 z" /><path fill-rule="evenodd" fill="currentColor"    d="M -12346940.429574473,-2124519.9512151335 L -12353658.783482831,-2122040.4568628836 L -12363551.412671156,-2129244.4722814104 L -12360909.68983514,-2134946.2944741044 L -12355283.93672892,-2138828.8870197083 L -12350016.966341527,-2131604.2154075736 L -12346940.429574473,-2124519.9512151335 z" /><path fill-rule="evenodd" fill="currentColor"    d="M -12308304.773904854,-2876170.4731923942 L -12305130.38730539,-2862430.220802176 L -12310843.19225341,-2864455.716758017 L -12318327.869536387,-2871918.7878467 L -12323448.120834915,-2881473.279762629 L -12322986.144948123,-2885751.627792187 L -12321980.484668298,-2886537.8976094425 L -12311403.01797261,-2880921.3392316205 L -12308304.773904854,-2876170.4731923942 z" /><path fill-rule="evenodd" fill="currentColor"    d="M -12596425.442199709,-3382297.462085625 L -12597224.493504623,-3380071.7122937506 L -12608573.84954947,-3387963.2391883014 L -12634354.553061265,-3414857.3509815093 L -12643736.22578685,-3428347.0814194814 L -12645269.095175074,-3434669.5867492044 L -12644470.04387016,-3448786.229409924 L -12635648.196863774,-3447105.1431589476 L -12625402.23961167,-3437641.5117755304 L -12620939.663864749,-3428889.9523344175 L -12620716.802244183,-3418853.573951142 L -12601605.472064791,-3414121.7985623926 L -12598909.53663676,-3392449.0176078985 L -12596425.442199709,-3382297.462085625 z" /><path fill-rule="evenodd" fill="currentColor"    d="M -12820733.102953246,-3257724.470430635 L -12822255.063031374,-3253671.7313912157 L -12841029.42911213,-3262086.469984109 L -12830729.03662903,-3276809.546737558 L -12832240.198716547,-3292258.761625219 L -12827739.551703775,-3295495.3127343915 L -12823668.375286484,-3290375.3279186585 L -12818276.28179144,-3270691.439559354 L -12820733.102953246,-3257724.470430635 z" /><path fill-rule="evenodd" fill="currentColor"    d="M -12490389.285758974,-3376323.4237070447 L -12498776.318834322,-3346320.306070377 L -12507331.778299239,-3346804.039710017 L -12525008.08892281,-3356264.08207904 L -12526894.286374813,-3362160.7525244635 L -12520083.5372891,-3397011.0384144676 L -12514930.669379769,-3401593.2693892755 L -12499515.59157268,-3406283.1219239472 L -12497107.63966733,-3401991.805694325 L -12495471.46579165,-3391689.875974393 L -12490389.285758974,-3376323.4237070447 z" /><path fill-rule="evenodd" fill="currentColor"    d="M -13162725.280344635,-3368258.752885996 L -13167481.40558878,-3363402.5325775673 L -13180238.619233688,-3389947.724897582 L -13180379.883667504,-3396376.051018035 L -13176645.671348846,-3399544.7931980686 L -13170465.547178475,-3398940.7937162784 L -13170438.385222722,-3392268.562967746 L -13165258.24403815,-3386650.7336343983 L -13163236.236807378,-3381165.8223792226 L -13162725.280344635,-3368258.752885996 z" /><path fill-rule="evenodd" fill="currentColor"    d="M -9652959.883120796,-2420436.3730530944 L -9650986.745146485,-2414669.833861257 L -9652916.357199896,-2415357.66902378 L -9655449.320893407,-2419719.080035611 L -9657286.537769457,-2425154.8021540693 L -9655748.213726185,-2425294.694913668 L -9654394.791357122,-2423422.422338782 L -9652959.883120796,-2420436.3730530944 z" /><path fill-rule="evenodd" fill="currentColor"    d="M -10206181.79616784,-2116984.981510353 L -10218699.895546524,-2114265.4489285974 L -10220922.945777666,-2116812.8333175755 L -10195653.198728612,-2128819.5414399425 L -10191331.998734998,-2128308.672345671 L -10189820.94796697,-2126701.254843116 L -10202904.216400413,-2120996.0445639906 L -10206181.79616784,-2116984.981510353 z" /><path fill-rule="evenodd" fill="currentColor"    d="M -12223445.369475685,-2771827.9693890745 L -12225858.776036086,-2771399.15232797 L -12231555.217018958,-2777875.4857340427 L -12234066.362092271,-2793782.8461000617 L -12232935.801343776,-2795483.0646706787 L -12222189.79693903,-2775771.9317100043 L -12222390.839939402,-2773353.01895564 L -12223445.369475685,-2771827.9693890745 z" /><path fill-rule="evenodd" fill="currentColor"    d="M -12767693.373091921,-3724729.7519411403 L -12771378.604834631,-3724173.92587301 L -12778276.294442657,-3730200.004429486 L -12777759.883324867,-3735749.4725761283 L -12776259.741866937,-3736312.2473371616 L -12769356.597603863,-3731440.142314439 L -12767002.969610022,-3727164.2769843056 L -12767693.373091921,-3724729.7519411403 z" /><path fill-rule="evenodd" fill="currentColor"    d="M -12367628.043743495,-3001633.184834563 L -12366231.095453532,-2997163.9293199456 L -12366975.82284694,-2995870.003886342 L -12371519.88446112,-2998978.1447801753 L -12379227.423364665,-2980478.387906967 L -12381472.292216003,-2978769.250151647 L -12376824.926114365,-3004113.394293098 L -12371965.607702255,-3007731.5180785977 L -12366578.96886226,-3008457.7545275437 L -12367628.043743495,-3001633.184834563 z" /><path fill-rule="evenodd" fill="currentColor"    d="M -12434262.109820496,-2801444.3471612716 L -12435756.907942869,-2795674.039377223 L -12469261.403003866,-2818540.996840776 L -12461200.536036544,-2820710.1023323415 L -12451846.025266713,-2819102.67092506 L -12434262.109820496,-2801444.3471612716 z" /><path fill-rule="evenodd" fill="currentColor"    d="M -12474158.792681824,-2820046.7946736836 L -12476392.863542555,-2818684.4114516666 L -12485915.912021447,-2832851.7432161113 L -12487318.20364697,-2842567.219981312 L -12491215.499019643,-2846679.0199942794 L -12500820.033365795,-2849929.6537658726 L -12492530.850122854,-2869742.379205472 L -12485529.967346868,-2910870.6675675255 L -12482442.521269714,-2903328.0713636247 L -12489867.531305628,-2861681.160249814 L -12489492.495941143,-2856235.507841865 L -12486013.761853855,-2851157.113234599 L -12482279.549535193,-2842567.219981312 L -12481839.280949106,-2833306.277536715 L -12475294.80808537,-2824690.5505150813 L -12474158.792681824,-2820046.7946736836 z" /></g></g>
</svg>
