<?xml version="1.0" encoding="UTF-8"?>
<svg xmlns="http://www.w3.org/2000/svg" viewBox="11092574.150919376 -820637.9272021172 2184090.635753844 724681.0253214511">
  <g id="map"><g><path fill-rule="evenodd" fill="currentColor"    d="M 11145211.794779958,-718634.960028649 L 11147309.83322294,-723864.6137160221 L 11149897.120827958,-741001.0807044742 L 11151625.689880995,-744388.4368657444 L 11156061.103672162,-746046.663299975 L 11161050.888527479,-745608.8731992273 L 11170399.94464226,-730725.0682773056 L 11194718.466642488,-721495.8613464708 L 11202023.808225796,-719307.7971709657 L 11211612.089926295,-722967.4271342698 L 11215938.744574957,-720658.9848866519 L 11220308.92514452,-716862.7231325045 L 11222841.888838027,-706274.0233112997 L 11229234.07663836,-696616.7225419782 L 11242018.452239022,-697989.2158713179 L 11246540.8065525,-696605.7481002089 L 11249225.943989925,-696299.5843995846 L 11251726.29107263,-687731.901741962 L 11252900.266422536,-672912.2973741113 L 11251682.765151732,-664271.5081617105 L 11242464.064160667,-651927.2127064106 L 11241224.855589157,-643518.824749861 L 11246073.264691167,-638312.6200353464 L 11252367.602659091,-632762.6211587691 L 11255955.095888887,-628496.7968695904 L 11259705.560853202,-629201.2973873143 L 11264488.848053098,-632074.4143889775 L 11268848.119312564,-639339.5511681613 L 11271881.130158717,-645567.5009819919 L 11288263.796979781,-652539.2050012257 L 11305168.329573685,-658817.7041923023 L 11307472.976991577,-658172.8597758232 L 11310212.43834051,-655391.4434339377 L 11315626.23913626,-646310.5681043124 L 11318789.71642562,-644387.5180375642 L 11323366.394650606,-643469.5946777624 L 11331291.45183916,-644447.601978052 L 11340520.95082083,-649588.7387744804 L 11345369.471242331,-659222.0503564731 L 11347478.41899541,-666829.2434295538 L 11360730.225137915,-679963.6724144166 L 11362197.749985041,-689814.9770067387 L 11365839.567126343,-696261.2860535268 L 11385092.16173955,-691914.4739386819 L 11392451.938553857,-688398.8943886035 L 11414074.41380656,-653757.7242230566 L 11442556.507401437,-629408.9128449069 L 11454612.519573838,-620331.723751501 L 11463950.777698014,-615990.1009084613 L 11476713.33467848,-602961.6759741268 L 11487834.4857672,-586605.9950597092 L 11512196.422368838,-540578.1842788024 L 11516436.13649519,-520380.7303313878 L 11518088.563016525,-489535.61552722106 L 11512718.288141675,-443057.3649240518 L 11506206.543208232,-419881.80760402506 L 11507467.570399938,-408944.2175336218 L 11516392.72189378,-392158.80796383694 L 11513718.382446961,-376318.17091258656 L 11515446.9515,-363163.9592601681 L 11514827.235894755,-326654.461027085 L 11519914.87058248,-315894.8197593784 L 11525720.070707858,-309005.23525960254 L 11556322.02136591,-287353.65585563326 L 11558561.435562197,-279333.7504373813 L 11573639.549270656,-251784.3421032865 L 11601556.473810773,-191815.91526882446 L 11609340.155246021,-164845.11170032265 L 11608437.799453653,-157597.2334500891 L 11605067.824508866,-154590.4843240801 L 11596860.127133189,-151953.5662412553 L 11590022.216091722,-157227.540178691 L 11587717.568673829,-161006.3427463063 L 11588424.224801386,-165698.77343075952 L 11585706.470753158,-170315.12409121467 L 11579009.935464995,-175828.8041806874 L 11575161.509348782,-180766.19378834023 L 11576248.65549587,-172571.71724355692 L 11576281.272106674,-161963.32909585614 L 11567780.136553261,-161060.79532805603 L 11556832.977828652,-164388.3270518058 L 11543222.38896732,-161392.41069089095 L 11527111.564342774,-148381.335752005 L 11519371.297508935,-148011.6552754955 L 11513479.26818074,-159184.9161898678 L 11510435.348024487,-166759.1176374769 L 11505630.353523886,-172136.7445469499 L 11454427.72921912,-199554.25722194277 L 11435533.806005253,-206596.779764023 L 11415618.08118539,-227405.1997531489 L 11370796.73537086,-250364.58719897558 L 11342336.349076686,-272750.6113288813 L 11330236.922302876,-286586.4452643981 L 11301124.315112147,-298851.0639358866 L 11288557.346477002,-313320.7678733764 L 11282382.565642191,-316161.5343678373 L 11276164.370205969,-321315.3765726924 L 11282708.731750214,-335352.1983953021 L 11280023.594312789,-349994.79036515474 L 11276653.508048516,-362347.2248022709 L 11256118.178942898,-386740.37646798266 L 11246029.850089759,-403769.9565264442 L 11226712.022254946,-420726.1033747386 L 11218982.664731206,-430515.47766364925 L 11211590.38262559,-441869.62801326026 L 11216221.384762079,-445841.75539662153 L 11220504.624809332,-448250.15640275454 L 11216580.167480906,-456489.33201453596 L 11205535.158923889,-470833.3775250401 L 11200360.583713856,-487322.232477058 L 11200360.583713856,-518455.6616144815 L 11184651.845090052,-562254.2632186919 L 11171204.450602224,-623007.7036078654 L 11173585.129232328,-644294.6509790927 L 11170160.830376038,-667370.307881416 L 11161257.386182902,-689574.46339566 L 11149581.86403003,-705442.7453603809 L 11145211.794779958,-718634.960028649 z" /><path fill-rule="evenodd" fill="currentColor"    d="M 13088323.896797536,-464680.1575065544 L 13084192.941813687,-464767.4405240838 L 13074572.043502389,-467165.41362791264 L 13055275.922968281,-479047.43188906886 L 13035577.605113942,-483261.1476995944 L 13006965.045075852,-483604.5505099189 L 12990745.461308802,-485261.6338848045 L 12984157.573843656,-483490.00832473906 L 12978635.125224894,-483413.7585937971 L 12974634.525364762,-485806.7827169339 L 12970362.194627607,-487027.9378922961 L 12959208.538247578,-480039.5256993693 L 12953990.437116643,-482176.3567796069 L 12948717.900754709,-485119.9605203178 L 12939357.935329828,-486106.65515923616 L 12928030.397905178,-485283.5156865952 L 12915463.429270035,-478082.69957106124 L 12901504.966999974,-484558.5165726007 L 12897558.802370844,-484487.62463259266 L 12894895.372234125,-482841.3854351696 L 12888840.259851916,-473962.00193779205 L 12877306.113452353,-467181.82150894427 L 12871598.76315938,-454789.05021609686 L 12868098.321771385,-442910.29182214703 L 12865021.78500433,-438807.62701814855 L 12864184.773753058,-415856.3311264137 L 12862358.354867615,-404772.06045236945 L 12865271.808580654,-390116.71420803067 L 12864760.852117915,-383810.7880473453 L 12859618.893518679,-374434.28147468896 L 12858988.379922828,-372283.58289054304 L 12856259.716564504,-357371.3490773168 L 12857303.33679069,-353413.5937177159 L 12856640.206584033,-348394.40354825987 L 12852324.461245472,-337937.6284867214 L 12844508.163199421,-335085.4428494385 L 12836267.84921294,-333436.2087376343 L 12829234.349826148,-337001.4585220523 L 12822885.576627227,-331264.5374592759 L 12814830.164314952,-322392.98397910513 L 12811351.430227662,-316400.94268575154 L 12811373.137528367,-310839.160415734 L 12812166.734178232,-307116.8372699848 L 12810525.216966996,-303285.84792238736 L 12810318.719311574,-299226.51157745474 L 12810731.825941907,-293344.39385382534 L 12816199.950649165,-290912.07430933084 L 12821874.573011842,-285841.07935002114 L 12821678.984666517,-280971.3914859985 L 12818526.30536776,-277598.185234317 L 12811373.137528367,-272386.152728914 L 12798306.23306007,-261766.65351341382 L 12783521.557529343,-252692.862549591 L 12777966.492299778,-250587.62069190465 L 12775955.283059618,-246404.51223413882 L 12774879.046222627,-240774.65564634715 L 12778140.373344395,-228433.11196265146 L 12781238.617412155,-224794.45397730498 L 12782880.134623393,-220459.70533268823 L 12780890.744003426,-215309.28817175783 L 12779477.543067807,-210871.3986689201 L 12774031.125661256,-208092.36781953936 L 12768736.993318107,-206063.83726035588 L 12766801.926609647,-202528.96665950358 L 12763997.120719621,-187742.82509209192 L 12760801.138138946,-180032.08216374414 L 12753593.535068555,-168575.14319919443 L 12751191.037818253,-163339.01728496476 L 12747473.18946474,-161653.42725366456 L 12733514.72719468,-167003.77027784698 L 12721002.193790535,-163757.60482664633 L 12704445.645924851,-161691.5107508838 L 12690421.950433187,-162017.67052904508 L 12679550.934240278,-159679.6632148169 L 12672082.509602958,-153622.72421422246 L 12663744.457103562,-145994.56706230238 L 12654982.388663732,-140340.2276471956 L 12648372.79389788,-137594.54871622 L 12636229.841203168,-145662.8596171688 L 12630109.384279864,-144966.93221813795 L 12619064.375722848,-147750.65225059376 L 12593158.771742381,-156765.3129788545 L 12586744.765321853,-159402.39096251657 L 12579830.823068174,-159636.23501080807 L 12577797.906527307,-162224.34625123153 L 12578885.052674394,-166579.60934733142 L 12577797.906527307,-172294.43040888887 L 12572753.797760483,-174458.50136653986 L 12520790.193416655,-173577.63644144605 L 12505809.929540602,-168640.39921538043 L 12495688.984076662,-164730.9711373478 L 12488459.673705565,-160212.4944747974 L 12486415.959174091,-148979.50654307083 L 12482100.102516036,-138448.2350956786 L 12476523.329985764,-127286.58990487506 L 12459227.509381723,-123937.67287109172 L 12446519.164993271,-112624.44153171794 L 12442149.095743202,-111265.35519876661 L 12433419.643914174,-112907.12589444181 L 12424081.385789998,-113842.13467627588 L 12417319.617280232,-110694.53376866895 L 12410253.389963148,-110852.18594142255 L 12388380.891134122,-116136.35691380587 L 12367747.600876607,-116951.7969762868 L 12356028.664122328,-114260.762881522 L 12349571.243100392,-113255.05397898261 L 12313577.198947296,-97756.25494768299 L 12301445.15556268,-95956.901880666 L 12296509.69461887,-98196.57547980225 L 12289563.024434898,-104540.58410310435 L 12280235.67562082,-110879.352000627 L 12257917.453550657,-132494.97304828637 L 12249688.048874274,-137572.83636496266 L 12244219.924167018,-142786.74199500255 L 12239012.73234618,-148963.1381142144 L 12231620.450240564,-155623.61197719641 L 12224891.187022109,-160201.69307766543 L 12215726.921262044,-169553.87393938622 L 12206627.888723584,-179792.87276275872 L 12204605.881492814,-197808.58890855443 L 12197365.77313111,-201109.60080020197 L 12194930.659270007,-205791.96474216698 L 12193821.805822216,-211121.5590664284 L 12203833.992143653,-225751.7304598877 L 12211117.626426257,-210295.0062885861 L 12213933.230306892,-206846.93467343002 L 12230098.490162438,-196449.06280323685 L 12243426.327517154,-191234.00867456076 L 12257841.311018955,-189113.2092313825 L 12272517.227407178,-188683.66163739839 L 12278355.044143358,-189401.43091323084 L 12284018.86851543,-191467.88481756716 L 12289617.459665896,-189254.64717999296 L 12320306.350846257,-172348.77414841013 L 12332199.279964648,-169320.1318749005 L 12344766.24859979,-170614.23503931955 L 12349777.740755813,-168928.59493831635 L 12367421.434768584,-155960.67660192464 L 12372628.737908911,-154411.0960067239 L 12381314.663817039,-155400.68410938192 L 12370204.533357905,-161321.7001924797 L 12362920.899075301,-165513.92078293243 L 12359659.571953533,-173436.2083741698 L 12361648.962573498,-181880.9522169074 L 12368725.987881191,-187498.15034893627 L 12373628.832214199,-193588.70774343915 L 12375390.017878039,-211801.42672119362 L 12378509.969246503,-221025.3242873128 L 12384391.200584093,-229798.3240012661 L 12386315.357982455,-238250.8227826951 L 12379716.6725267,-244701.95547449714 L 12378227.329059377,-255788.10941372582 L 12379684.0559159,-264976.39127708494 L 12383423.722889608,-271227.2671904618 L 12389402.692740114,-267108.9001325157 L 12395577.473574925,-263284.44372591755 L 12401676.111878036,-263665.2584330877 L 12405872.41140298,-265188.52666927787 L 12406644.18943265,-269926.9995767177 L 12405491.921383448,-278174.9218738112 L 12405807.178181376,-293355.20326725434 L 12413514.71708492,-305468.0774114515 L 12425842.460134348,-313821.41946558334 L 12437474.45636632,-317816.00207524217 L 12481013.067688439,-324602.62067491 L 12549859.386005975,-341965.6504299545 L 12570253.450677775,-348682.9286473142 L 12577754.491925897,-352161.45154042996 L 12584081.446504623,-356990.26227628934 L 12594713.237111818,-372408.8077625209 L 12614737.721074184,-396717.1383487814 L 12628761.416565849,-416695.12570103264 L 12658374.07090922,-445798.1231040269 L 12681953.43149058,-472784.6801540714 L 12685138.616080647,-477864.6818505845 L 12689063.073409073,-492599.39207990567 L 12689356.622906296,-499534.25687094266 L 12688671.674079446,-506567.98127446114 L 12691813.444068104,-509855.9711835985 L 12696390.122293087,-511824.49686388555 L 12697531.59235168,-511802.7196361916 L 12701010.32643897,-508738.1087255371 L 12709218.023814648,-504463.2380137212 L 12715370.986029267,-498983.6579348265 L 12719480.23371241,-491879.8002695667 L 12722437.213346351,-485234.39328237757 L 12722665.418302476,-479592.5406250413 L 12726372.468665384,-474970.33443172136 L 12736797.872936646,-474196.3073037536 L 12740189.555182135,-468358.95550973737 L 12747440.572853938,-458314.8691767139 L 12754071.874920493,-451116.28364713024 L 12758137.708002225,-448315.55081290397 L 12763236.252000049,-449841.17336297035 L 12771128.581258308,-456412.994415919 L 12776825.022241184,-464478.58094634896 L 12780640.720427105,-475384.5880452163 L 12777640.326191753,-476976.2067933425 L 12782934.569854392,-485207.1526887845 L 12783956.371460382,-489530.14479807724 L 12781510.459608672,-493498.9743835628 L 12778379.598930111,-497424.33631339297 L 12777172.895649914,-507374.9183345196 L 12775020.421975935,-520048.1176128487 L 12773541.987818707,-525807.275724525 L 12777716.468723455,-529914.2960689935 L 12786663.327518003,-535156.0698641225 L 12795588.479011845,-541243.7006093927 L 12804720.128161106,-546098.897105764 L 12804948.444436723,-537321.6293832132 L 12804720.128161106,-522823.99167625094 L 12807481.296810744,-510684.82993933035 L 12813656.077645555,-489219.4303020433 L 12820733.102953246,-486291.98267016944 L 12829201.733215347,-484394.9628168267 L 12834093.668238256,-484994.587048708 L 12837278.852828322,-486411.8875551982 L 12838115.97539909,-488140.0329967315 L 12832832.641046548,-496579.31140604056 L 12831430.238101536,-516416.051567813 L 12827114.49276297,-529439.7792862211 L 12820493.988687025,-542411.0776032 L 12817330.511397662,-546104.3717668864 L 12843475.340963842,-549792.3736721965 L 12849345.774310825,-553862.3717400068 L 12859607.984208584,-562772.6840089073 L 12863467.208315402,-567760.2853560959 L 12866532.83577236,-579002.7453867844 L 12853715.954880387,-585705.4155429952 L 12848682.644104168,-594248.4244983047 L 12848389.094606947,-603491.3565622501 L 12863684.615280924,-620659.3227015102 L 12868967.94963346,-624766.3600267626 L 12871261.799060747,-618666.0162405096 L 12878001.860269811,-617125.9480861096 L 12884209.146395935,-616891.194299333 L 12890449.160452351,-617240.6970245164 L 12899385.1099368,-625896.8779551917 L 12903983.606781978,-638361.734243699 L 12919714.052706484,-655976.1639495214 L 12925312.643856952,-669507.1899054012 L 12928465.211836217,-683642.6624520115 L 12968133.689741418,-727562.858204963 L 12972982.098843427,-734401.9142272827 L 12996528.842813985,-778613.916629491 L 12999464.003827732,-780086.9152194812 L 13005790.95840646,-775804.7466892683 L 13007660.791893313,-761750.2570714976 L 13006791.052711744,-755624.7893516782 L 13002975.354525823,-746544.6453871739 L 13000790.264241042,-737022.9063639573 L 13003497.108979173,-737225.2934774895 L 13014726.907890907,-743025.8033929998 L 13026445.955964677,-758460.2498246593 L 13033055.550730528,-771856.8649267197 L 13038686.758491796,-777693.8462025318 L 13049970.881315038,-774452.1952933788 L 13052482.026388355,-772125.0940005358 L 13051688.541057978,-762500.1952585962 L 13052764.666575477,-756900.184431448 L 13057113.139844336,-744957.5744275035 L 13066723.128845535,-737712.3255186931 L 13079953.227687337,-733143.4022855789 L 13092248.354125962,-726550.6569795208 L 13096259.751976695,-722185.2014065688 L 13098923.182113416,-716928.3688504336 L 13101608.319550842,-708330.3171826953 L 13101814.817206264,-699629.6205659618 L 13092944.10094342,-691143.5300008332 L 13096716.384527931,-677378.0688168298 L 13096129.285533488,-669348.6924997943 L 13093085.476696728,-662506.383716769 L 13080170.634652853,-656232.9950796412 L 13115403.698766887,-662473.5910015656 L 13124100.533985114,-666036.7952274339 L 13136123.929546714,-675109.5997518763 L 13142570.44125855,-667288.2636673928 L 13148592.937029958,-653752.2408892836 L 13143744.52792795,-650348.1905337396 L 13128438.097943874,-645359.9450194028 L 13127687.915895417,-643311.1636141317 L 13132764.752592536,-636269.5471082813 L 13139167.738383474,-636925.01938034 L 13151799.94024022,-641634.0115526939 L 13163431.936472192,-649058.7952606732 L 13169074.05354356,-648965.9213294919 L 13175009.608792657,-647436.0947985041 L 13186500.34059081,-642666.5904619236 L 13192935.94299255,-638804.2113300595 L 13198382.3603991,-633838.6860925232 L 13201915.418397898,-623499.2904626385 L 13215145.5172397,-619747.3288554079 L 13242268.733810462,-605260.3431466144 L 13247302.044586677,-604009.9712156176 L 13252585.378939219,-603720.5841955356 L 13266880.805307908,-605473.2508536443 L 13271892.297463933,-603431.1984145647 L 13275468.88138363,-598206.3649949885 L 13276664.78667322,-591742.6295495443 L 13276273.387343593,-584788.303086557 L 13274816.66048707,-579515.6987504697 L 13271468.39284299,-575165.8293751037 L 13261738.846708676,-568535.1273554278 L 13237278.948955143,-559864.2560153129 L 13210514.403783718,-553289.4856934792 L 13197077.807286495,-553742.3636445694 L 13178205.702692822,-559373.23419094 L 13171324.377049943,-558647.5470890446 L 13164703.872973995,-556061.2139492533 L 13156333.203863796,-538145.3066871805 L 13171791.807591787,-520293.50033143314 L 13198317.127177497,-501693.36414721794 L 13201948.035008702,-497059.1031531117 L 13200969.648004118,-491367.32519547106 L 13196740.843187865,-487971.001625598 L 13191142.252037399,-486084.88478574384 L 13176227.110063462,-483113.89575254696 L 13161159.905665103,-480911.73387229984 L 13148756.020083971,-477739.31912288105 L 13136613.06738926,-473569.5223453198 L 13124078.715364916,-474986.63216475263 L 13106869.946602676,-483315.6276359799 L 13101912.66703867,-483904.30345650663 L 13096716.384527931,-479625.2494930369 L 13091596.133229405,-467961.1436052128 L 13088323.896797536,-464680.1575065544 z" /><path fill-rule="evenodd" fill="currentColor"    d="M 11601893.437909406,-304210.95909529505 L 11596523.163034556,-303051.92430325825 L 11593577.092710713,-303819.2265036118 L 11591598.611400846,-308167.1327266783 L 11596131.76370493,-318153.3850333777 L 11597795.099536361,-319813.3399926056 L 11602078.228264123,-308945.38653777674 L 11601893.437909406,-304210.95909529505 z" /><path fill-rule="evenodd" fill="currentColor"    d="M 11164116.515984436,-590246.9997145927 L 11161311.821413899,-587146.3930831124 L 11153212.883180726,-588920.4351108149 L 11154647.791417051,-607258.7276426622 L 11159278.904873032,-609595.6750285066 L 11166475.487313837,-606259.4720661655 L 11169671.581214,-603141.9256896941 L 11164116.515984436,-590246.9997145927 z" /><path fill-rule="evenodd" fill="currentColor"    d="M 11115033.748742847,-721293.5310451271 L 11122893.461390305,-709292.9105624222 L 11118969.00406188,-703944.3023486565 L 11117012.230052717,-702402.1078902878 L 11112272.468773719,-704157.547275231 L 11107750.114460243,-699547.6440332644 L 11103423.459811581,-698618.0247638406 L 11099075.097862214,-706935.7389567863 L 11093726.530288069,-710250.0315216099 L 11092574.150919376,-715987.4914571457 L 11099727.318758773,-716994.0146439899 L 11104032.266106728,-715008.4308470573 L 11112098.5877291,-718974.1782913713 L 11115033.748742847,-721293.5310451271 z" /><path fill-rule="evenodd" fill="currentColor"    d="M 13040143.485348318,-800051.6524074045 L 13033359.898218356,-794113.4406012136 L 13031076.958101168,-801245.8849397524 L 13031533.5906524,-810428.6340713688 L 13040730.47302327,-818993.8308369566 L 13053775.781510351,-820637.9272021172 L 13055634.705687108,-813787.6951467288 L 13054080.128998179,-805952.1785395014 L 13051025.299531832,-801908.8733274793 L 13040143.485348318,-800051.6524074045 z" /><path fill-rule="evenodd" fill="currentColor"    d="M 11278729.950510282,-332826.68331455305 L 11273109.540739622,-330812.75172896346 L 11272816.10256189,-333719.23556702194 L 11273794.489566471,-337768.8542743968 L 11277914.535240222,-341622.7398936395 L 11279827.894647976,-339418.14742629504 L 11278729.950510282,-332826.68331455305 z" /><path fill-rule="evenodd" fill="currentColor"    d="M 12399795.480400573,-268953.19895782106 L 12396392.777525496,-267489.7243354721 L 12391142.059783759,-271434.0631452103 L 12389902.851212248,-305261.2315982006 L 12393588.08295496,-308286.9409409179 L 12395990.580205262,-307856.969268304 L 12398577.867810277,-301713.25156088255 L 12398349.662854152,-286891.10036054015 L 12398817.093395993,-273811.5686434709 L 12399795.480400573,-268953.19895782106 z" /><path fill-rule="evenodd" fill="currentColor"    d="M 13122872.12340421,-466413.33324913395 L 13107359.084445221,-464271.4241222616 L 13096629.332686132,-464500.34583502833 L 13098607.925315492,-468408.0682166391 L 13098086.059542652,-473564.0526480628 L 13103195.512850573,-474926.68777836947 L 13109141.977409765,-473803.93826880143 L 13122872.12340421,-466413.33324913395 z" /></g></g>
</svg>
