<?xml version="1.0" encoding="UTF-8"?>
<svg xmlns="http://www.w3.org/2000/svg" viewBox="3364272.826507867 1171417.2819137352 1182519.566102211 1934776.451887551">
  <g id="map"><path fill-rule="evenodd" fill="currentColor"    d="M 3482952.0941154473,2559865.2109258967 L 3498715.0453312653,2547441.121172573 L 3514521.5224679844,2529966.668964906 L 3533024.0463522244,2509532.083184525 L 3549526.381625892,2491311.93498884 L 3564039.2149601015,2475310.546186853 L 3583900.615868456,2453445.3023843938 L 3603533.7005011938,2431852.507572014 L 3608132.086026882,2429098.3890476585 L 3610067.1527353413,2427336.4674970116 L 3601587.7244826364,2408164.961795276 L 3615230.9299547686,2385929.3013333767 L 3615970.202693127,2371489.110009091 L 3615394.0130087812,2357688.1923620505 L 3617035.5302200182,2351355.2489290866 L 3621144.7779031615,2345802.571011546 L 3637092.630793188,2334272.8745859703 L 3649148.5316460994,2315907.827618694 L 3659030.3628438185,2298777.654007211 L 3672738.690218065,2271237.8277285127 L 3674086.769251571,2264761.147532354 L 3674293.2669069925,2258090.0962330922 L 3670499.2760217767,2248810.117399068 L 3661345.9195718095,2233749.9678173633 L 3654703.7081951555,2220766.795459182 L 3648789.8602467626,2200761.1879854114 L 3654725.4154958604,2183378.2805455714 L 3656845.2725590374,2172891.6198432515 L 3656823.5652583325,2167230.598596995 L 3654192.751732415,2161858.5913825105 L 3647517.923744959,2157798.9393405584 L 3641984.565816098,2155154.312494261 L 3640114.732329243,2147981.2003420107 L 3640060.408417736,2139454.963056203 L 3642593.372111246,2134745.292754927 L 3657345.31971168,2127131.7835288593 L 3660693.5873557595,2122998.999685664 L 3662443.8637095024,2118362.103114439 L 3662596.037453417,2111764.3233933575 L 3667140.099067599,2095296.8251044159 L 3672771.306828867,2079678.8252498868 L 3673140.9988577915,2074170.24161727 L 3671151.6082378253,2069349.874388412 L 3669607.829539504,2060536.668455046 L 3668596.825924119,2047255.2997862427 L 3668499.087411203,2010110.7078518765 L 3671401.631814147,1971812.6445034484 L 3670129.6953123426,1950128.217247515 L 3660671.8800550555,1925224.8115392863 L 3659769.635582176,1907278.895520189 L 3666629.2539243484,1894762.954967542 L 3667759.8146728454,1887361.1912544996 L 3662737.4132067244,1886419.0597014723 L 3652420.768077967,1885658.619254377 L 3644800.169696732,1883332.133063163 L 3633005.0904107494,1873086.8203517136 L 3612534.883207247,1864524.3951897977 L 3589303.5073541077,1856747.1853183857 L 3555527.1700965944,1854435.077000143 L 3527447.273821954,1829537.0523971608 L 3505433.399239621,1825541.0397556885 L 3498345.4646218317,1822371.8048333526 L 3477201.217901576,1807459.7620239411 L 3444088.1221702085,1806079.9319327888 L 3409735.595228349,1804632.3222577341 L 3388319.617631066,1804179.9917590627 L 3385156.1403417033,1802201.0049859574 L 3383906.0224600947,1781663.5366529517 L 3383677.7061844785,1763424.4172527995 L 3381873.1059192284,1747568.4038311103 L 3378611.778797458,1729535.8612700943 L 3373611.0846320423,1722513.6745258386 L 3367653.710762749,1710322.7148333667 L 3364631.609226694,1696910.7566015988 L 3364272.826507867,1690415.6735550996 L 3365392.589265757,1688085.96242843 L 3389243.6807241417,1678544.450397614 L 3399440.657400296,1673819.990446027 L 3414540.58972895,1668365.5629881823 L 3441457.308644291,1660787.4512628566 L 3465471.371837198,1654032.165153977 L 3487474.4484289237,1647480.8421568905 L 3510781.966813765,1640515.6409948678 L 3520261.489371757,1635865.8389503085 L 3532045.659347642,1631194.3515209751 L 3560234.314764788,1621809.002204713 L 3568289.727077062,1618598.9936717886 L 3584476.6942333113,1613347.1908833114 L 3592597.451086681,1611305.1572240873 L 3623808.2080398817,1600570.0457483984 L 3659573.9359173616,1588269.9339484125 L 3672108.1766222115,1583965.7073629342 L 3696002.7940014973,1575751.5305353792 L 3700655.6147581832,1579157.8611941184 L 3716951.2297374476,1607445.8070408567 L 3729789.9292496177,1624065.2133716387 L 3744389.814425628,1639482.3035603333 L 3746824.9282867312,1638729.7558382223 L 3751032.025802281,1635124.5531822573 L 3758304.7507747873,1633631.0073497463 L 3781503.510017124,1630161.2779689003 L 3790363.42828936,1629947.999772725 L 3796201.1337060505,1625816.388279046 L 3808104.9721345385,1622875.3012855963 L 3821878.644049881,1621135.591166381 L 3826607.496018779,1622998.8647371756 L 3841109.420042891,1642930.875059342 L 3843207.5698053627,1658190.8287236937 L 3846218.873350812,1680254.3746776895 L 3846936.327468974,1691034.7003860984 L 3846697.213202751,1705445.8042815493 L 3845066.4939821195,1723482.9703309627 L 3833282.3240062343,1744251.8185889828 L 3831032.0004998487,1754609.2583904348 L 3824715.9552312195,1770616.7249338403 L 3816366.9934217245,1778500.412287283 L 3812257.7457385813,1784974.1517674464 L 3812496.8600048046,1791698.2936953534 L 3816953.981096677,1797327.7900217755 L 3826716.255161284,1807470.9964999214 L 3829727.447387242,1814020.7003003987 L 3828846.9102150677,1819881.9493474727 L 3828890.4361359677,1827804.9979514475 L 3831216.7908545653,1833318.676186217 L 3833988.98013379,1836523.4083969689 L 3843653.2930464996,1841710.8200270394 L 3853067.5823828867,1854752.3815757483 L 3869330.692070839,1870489.4104334645 L 3888768.077038761,1892946.3455881209 L 3897888.9281974174,1899827.4625587892 L 3905074.712647614,1901497.049091173 L 3908662.0945579177,1909017.1084402367 L 3906672.703937951,1917778.6784542222 L 3901074.1127874856,1922791.8062999293 L 3903378.7602053788,1929977.9780804242 L 3906542.2374947416,1933742.7070709353 L 3910053.588192834,1935642.2652951488 L 3918598.2496671434,1936085.9621685224 L 3926523.3068556995,1934618.5006006884 L 3928512.6974756657,1932116.1941224586 L 3927479.8752400856,1898464.766175446 L 3921761.726956507,1878872.6401915746 L 3916032.6693628314,1871215.302867992 L 3914793.460791321,1869695.4852957434 L 3916804.558711992,1863265.7982533718 L 3923207.5445029303,1848236.3463234708 L 3928632.254608778,1833364.0126345397 L 3932078.3720852644,1827103.1017376622 L 3936089.7699360005,1823322.506099115 L 3962897.729708837,1819304.8652507986 L 3975095.117634546,1815819.7244810273 L 3980258.783534483,1811475.335077926 L 3984259.3833946115,1799939.44659692 L 3987455.4772947775,1767737.3189318553 L 3988607.745343978,1737529.8408752263 L 3985835.667384245,1719831.6084097903 L 3989683.9821809684,1693195.826559925 L 3995565.213518558,1676733.2780996712 L 3992662.6691156137,1673505.104467295 L 3990488.488140932,1651301.2620558348 L 3973040.493792975,1627680.002814137 L 3950559.188668801,1597295.388019639 L 3938013.9273343626,1580950.874266634 L 3923729.4102757694,1562387.9341521782 L 3897725.845143405,1533342.7389290128 L 3885811.20872431,1522829.260326367 L 3879538.5780570908,1518748.0611019067 L 3858513.9997894377,1515394.0434779685 L 3852937.1159396768,1509804.9657532196 L 3847610.366985727,1500909.4057213308 L 3845610.067055663,1484455.9017895656 L 3845262.193646934,1472152.6907564085 L 3842892.3130074367,1451254.1907831042 L 3838619.982270281,1421689.9299038409 L 3836717.5321726245,1413011.45310724 L 3830738.4510026267,1390797.6266539115 L 3825031.2120291465,1369679.428699236 L 3824694.2479305156,1364463.3209706813 L 3826716.255161284,1359392.7106217965 L 3836391.4773840904,1343863.5477500085 L 3843283.7123370655,1332852.3328784618 L 3846523.2208386404,1326831.6549983923 L 3852350.128264724,1310452.9464590542 L 3853719.914598935,1302516.5355714918 L 3858285.6835138216,1298931.913912286 L 3876875.2592398617,1297456.0443342635 L 3891670.7327611963,1297733.418040124 L 3916511.00921477,1297356.1631214332 L 3942742.8906227513,1298310.4449202102 L 3946428.1223654626,1299031.8000795578 L 3952331.172323249,1300762.9829825591 L 3959005.888991213,1300485.5828054657 L 3966419.9897170267,1298177.2664587314 L 3974627.687092705,1292507.2447581536 L 3983617.960488661,1283510.4725800848 L 3997630.746670227,1283710.1487736176 L 4016655.136327307,1293095.3111956518 L 4027036.9033581787,1301273.4692908349 L 4028798.0890220185,1308254.9573118975 L 4041528.0293916836,1312306.965492379 L 4065237.745096762,1313428.251589955 L 4082511.8584000985,1309797.9442017665 L 4093339.4599915966,1301395.6372022082 L 4104645.2901155436,1296956.6414082372 L 4116472.986012329,1296468.3817846419 L 4125409.046816268,1299331.460467067 L 4131496.7758092796,1305579.8602021758 L 4143128.7720412505,1310053.2593237432 L 4160326.854132376,1312773.1873677091 L 4179122.8161943476,1308754.5385053076 L 4199506.082875541,1298021.9301702073 L 4211138.079107512,1286804.9478697556 L 4214008.006899653,1275126.0991897169 L 4217378.093163928,1268040.9168678788 L 4221259.024571454,1265546.6031306358 L 4232064.807542758,1264116.5343780774 L 4249795.553397329,1263728.5490891365 L 4265221.540514516,1267409.0332109053 L 4284887.241758055,1279007.4108607038 L 4297301.925329793,1271289.53329375 L 4318609.255104061,1258075.5882862404 L 4340068.647302753,1251082.838905486 L 4360495.328585356,1251038.5864528932 L 4377258.485425952,1246008.2639363403 L 4390347.208514444,1236027.3745750627 L 4404186.113651391,1229670.5400612806 L 4418764.180207205,1226979.6768744837 L 4432418.183669945,1222174.3957511827 L 4451518.604539237,1211791.2350899521 L 4471282.1556151835,1196686.953805724 L 4491458.813321465,1181290.8163522535 L 4504384.453355944,1171417.2819137352 L 4510298.301304337,1183082.227866987 L 4520875.879319513,1193744.285356362 L 4514570.632041492,1199939.6221063489 L 4506950.033660256,1205483.1583140574 L 4519256.069408981,1212909.0734025137 L 4510233.068082731,1224123.0464926069 L 4509135.123945038,1231929.6668429852 L 4511428.862052833,1234986.3421918103 L 4513396.545372095,1239549.7055241696 L 4507482.697423702,1252401.47581921 L 4499644.6920769485,1262243.1688366202 L 4497622.684846179,1269781.555372751 L 4504558.445720053,1283111.1239165207 L 4500992.659790963,1306734.210393779 L 4507721.923009417,1328009.0817178052 L 4509602.554486878,1338929.706885347 L 4511950.727825671,1346230.7843912677 L 4508602.460181592,1359303.7880736543 L 4509461.290053062,1381338.2776190839 L 4511015.86674199,1390441.4520631733 L 4507004.357571764,1401774.461422917 L 4513820.561312526,1405694.1193994759 L 4517440.559833632,1418124.6359388256 L 4516462.172829051,1432143.1562515865 L 4514374.932376677,1439701.308232544 L 4502612.469701497,1448856.2630286135 L 4501220.97606658,1452414.2818214062 L 4501405.766421298,1457802.1234928097 L 4516092.592119617,1457980.6809845248 L 4516592.6392722605,1466326.8429926045 L 4515614.252267678,1472900.5519551253 L 4516179.532641927,1485271.1015273533 L 4514222.758632762,1493312.543807738 L 4517668.87610925,1502496.0573486697 L 4513461.778593699,1512666.4384292616 L 4514918.505450221,1520514.5898081658 L 4515103.295804937,1530691.680276125 L 4518516.796670623,1556442.0694232224 L 4519092.9863549685,1588314.8164146258 L 4519853.966394031,1593426.9864061957 L 4525082.976835064,1597037.484340735 L 4532442.642329879,1598831.7248033376 L 4532160.002142754,1607580.4391832172 L 4524017.537988681,1619003.0671680693 L 4523528.400146136,1626108.2624244825 L 4524702.486815532,1636090.4369362139 L 4533671.052910783,1622527.3727976794 L 4539052.23709573,1622594.728257549 L 4543857.231596331,1627915.7952084264 L 4543183.192079578,1635731.0581115629 L 4544835.618600913,1639583.4040617764 L 4544128.962473357,1647166.2870907397 L 4546792.392610078,1656796.973009318 L 4545748.77238389,1665183.3764970147 L 4539160.996238234,1671053.1843329156 L 4530779.417817937,1681109.438684451 L 4529300.872341221,1690539.4546257663 L 4530072.761690381,1696719.2730151047 L 4524267.672884493,1698700.814242109 L 4521549.807516776,1702517.819392734 L 4525485.1741553005,1711415.4104107013 L 4525246.059889075,1719290.7768396286 L 4515005.44597253,1743823.2871277973 L 4487719.146347756,1777404.6452971199 L 4475934.976371869,1789336.1464803612 L 4464889.9678148525,1802325.3669931039 L 4464900.87712495,1807652.0228814997 L 4463824.64028796,1812289.816726728 L 4450953.3241649885,1830850.3527555051 L 4437168.854259038,1833896.229857173 L 4429504.7299569035,1838856.4199528946 L 4435483.811126901,1855228.4628738677 L 4426569.568943158,1859002.999250498 L 4411078.348604366,1871918.5699326827 L 4368431.183764518,1896693.2006744177 L 4361691.122555457,1902439.7073023021 L 4350852.722973352,1917665.0824689677 L 4336568.205914759,1921359.349882304 L 4328632.350735597,1925668.295560858 L 4314478.188800723,1927248.7975526196 L 4309542.727856914,1926145.7874104443 L 4304716.026055607,1926680.2274386722 L 4300639.3949832665,1929943.856840903 L 4272526.882097824,1940636.6808606405 L 4246273.293389139,1949103.648792576 L 4239815.872367202,1952974.1860616927 L 4235510.925019245,1958268.687072898 L 4212268.639856008,1966640.0742010272 L 4175850.69108197,1987360.6840429218 L 4146042.225754292,2007131.41593877 L 4124452.367112391,2026932.303595068 L 4118766.8354396154,2029937.2462290893 L 4112070.188831964,2036782.7123265539 L 4109830.774635676,2046923.6655734747 L 4107645.6843508948,2052653.7745390802 L 4091676.1241601636,2073551.8331426093 L 4067629.444356455,2098288.842666723 L 4062944.006988966,2105054.104113855 L 4053388.341899272,2118821.1256468287 L 4052442.571505492,2127843.669463564 L 4043930.526641985,2130599.3970415606 L 4036766.5608119834,2121954.4194743442 L 4033733.549965829,2138616.317431205 L 4027895.733229649,2139799.654512784 L 4021416.6049070074,2136387.8272255487 L 4005283.9616622645,2144636.9115604954 L 3991216.8515691906,2154154.0605488564 L 3968681.22253351,2174238.131115599 L 3936850.7499750634,2213177.142293024 L 3890377.088958687,2250855.2292497777 L 3884028.315759765,2251929.874627888 L 3879745.1870320034,2251779.7140362007 L 3865123.594555288,2238657.058704509 L 3857155.122765324,2237687.1027138284 L 3864286.5833040136,2245471.448090413 L 3868993.727972207,2251953.067387222 L 3867797.9340021056,2264680.154382751 L 3868352.305066257,2283792.9120150153 L 3862579.832871171,2320999.1040849444 L 3863351.610900841,2329154.845185011 L 3869993.8222774942,2339717.515461968 L 3882495.5576910325,2352668.133056201 L 3894214.494445313,2368790.908042966 L 3909270.9008530667,2415171.1712300284 L 3910434.0782123655,2439078.345420833 L 3925979.7337821554,2469672.0809341334 L 3926566.7214571075,2482940.681761635 L 3932839.3521243273,2516016.3840648835 L 3932426.2454939936,2542812.4371453035 L 3931328.3013563,2559241.999708872 L 3938818.4332943247,2566192.432377874 L 3941579.7132634516,2559923.969285629 L 3940807.823914292,2549532.7236039494 L 3942808.123844356,2532866.080397483 L 3946982.604749104,2525448.2752800724 L 3951146.1763437535,2526504.3979937844 L 3952385.4962347555,2534368.8109506927 L 3955190.1908052927,2541344.1942654843 L 3956320.7515537883,2547899.415281906 L 3956516.4512186027,2556796.577323508 L 3950754.7770141247,2590677.2061074297 L 3952483.346067162,2604477.5337613 L 3960234.4108916074,2627555.1237195553 L 3951222.318875456,2654425.5342735075 L 3938144.3937775716,2717844.0562472907 L 3937416.0303493114,2728842.2202372137 L 3940579.5076386747,2733642.9736732156 L 3947623.916335564,2735271.3000358483 L 3950211.315260072,2727167.112382756 L 3954342.27024392,2727226.4784128903 L 3956516.4512186027,2732026.7408073586 L 3950689.5437925197,2761394.8948762263 L 3944949.688208237,2774282.3963513505 L 3924555.6235364364,2805927.089777057 L 3913543.2315902216,2819520.941789609 L 3895301.6405924,2832887.6302365647 L 3852469.6853978354,2853809.916840787 L 3766610.1866633827,2884095.396412721 L 3732551.209218745,2898960.569176464 L 3712222.37776855,2907829.169772319 L 3669216.5415293653,2936104.177656521 L 3650409.670157296,2955096.7019257117 L 3642658.605332851,2976915.2506262627 L 3635233.5952969394,2986918.3302128003 L 3627950.072333826,2999589.0026040296 L 3634298.734213258,3010479.014844696 L 3640538.748269675,3018724.631375862 L 3647898.4137644903,3024248.5138819143 L 3651714.111950412,3029010.9620526163 L 3656714.8061158266,3032320.1256796573 L 3661748.1168920454,3015176.422396007 L 3664237.554664655,3009849.602756382 L 3668520.794711908,3009438.1074527144 L 3666150.9140724097,3030368.545787003 L 3661204.543818501,3102307.0102923326 L 3660867.5797198704,3104658.3551946874 L 3648670.303113652,3104865.599723559 L 3627765.2819791096,3105462.645667442 L 3615404.810999388,3105803.7904623887 L 3601576.9264920293,3106193.733801286 L 3584444.0776225086,3102684.6313387607 L 3574790.674019898,3103427.8020671294 L 3574018.784670737,3063631.512483757 L 3570898.8333022743,3054898.723444846 L 3567604.8895697016,3042143.1121535343 L 3566833.000220541,3033956.8660826553 L 3568898.53337221,3025738.9134473167 L 3569887.82968689,3012730.6448241062 L 3568963.766593815,3001354.961961433 L 3558712.354686662,2995646.3741065026 L 3556462.0311802756,2993832.573695305 L 3554244.324284692,2984888.2128806687 L 3553352.989121911,2971107.546361813 L 3560506.045641814,2953565.3477179385 L 3559929.9672769587,2919962.787195276 L 3560777.887838331,2908141.6989223445 L 3560636.5120850233,2884815.4585864292 L 3560484.338341109,2856600.943981776 L 3560353.8718978995,2831380.5703421207 L 3560647.4213951216,2809641.0182471857 L 3558505.8570312406,2799349.570588589 L 3556722.9640666954,2793705.2680035243 L 3551983.202787699,2782220.297862532 L 3546449.8448588382,2758311.564375945 L 3539916.2813051995,2740276.2401087345 L 3531502.0862740986,2728390.7302370667 L 3528827.8581467723,2722130.6914434307 L 3526110.104098545,2713760.226968439 L 3518152.5416186787,2699024.5433412204 L 3511640.6853657444,2690452.720413701 L 3509868.8130307877,2683591.5054269773 L 3510097.017986914,2665853.643046159 L 3502856.9096252103,2634038.2241136488 L 3497584.4845827688,2610880.8582784636 L 3489648.6294036075,2585836.213478055 L 3484321.7691301676,2569086.297838716 L 3483539.0817903997,2566204.236662727 L 3482952.0941154473,2559865.2109258967 z M 3856285.4949032473,1347264.4094564535 L 3854350.428194788,1343974.730155648 L 3850697.701743388,1342418.8958493515 L 3846534.130148738,1343685.7932967232 L 3845153.54582392,1347831.1995062826 L 3849480.200472582,1353200.06426447 L 3854078.5859982707,1353289.082821294 L 3856285.4949032473,1347264.4094564535 z M 3864938.8042005715,1358303.1142410983 L 3867906.58182512,1355768.1605007134 L 3869048.0518837147,1352433.0583521132 L 3869015.435272912,1349209.5218929823 L 3867123.8944853526,1347197.7155737989 L 3864449.555038536,1346019.556778913 L 3860546.916330304,1346719.8228688145 L 3859166.220685995,1351121.4067812203 L 3858568.323700945,1357180.0852347673 L 3861025.256182243,1359214.7519289984 L 3864938.8042005715,1358303.1142410983 z" /></g>
</svg>
