<?xml version="1.0" encoding="UTF-8"?>
<svg xmlns="http://www.w3.org/2000/svg" viewBox="1304851.448841699 1917062.661171589 1506944.080693041 1450792.4725913336">
  <g id="map"><path fill-rule="evenodd" fill="currentColor"    d="M 2602723.6108886227,1995526.8636029228 L 2626574.702347008,1990713.454675168 L 2649316.9403576017,1986129.1757544056 L 2675777.0267217085,1981545.8907261232 L 2696953.778733276,1977886.9094421118 L 2702269.7296966184,1976895.3218020753 L 2753254.947035864,1981181.0964890744 L 2775464.521283011,1984179.4829680445 L 2783182.969496654,1987109.8694811016 L 2793249.5910490896,1994796.7982856557 L 2811795.52953474,2013398.6025374162 L 2807034.0609550388,2012702.1686223364 L 2772866.3243678967,2016652.7546171949 L 2759853.7438111077,2021711.8938187717 L 2730730.1159907896,2043721.8905944857 L 2724533.627855273,2040886.5623887577 L 2717554.4523799885,2036314.0738799882 L 2711629.695121498,2034999.7425597075 L 2698823.612220131,2040292.1037960555 L 2686061.0552396635,2046626.3469357954 L 2671961.3285357873,2055593.8203292089 L 2660351.039604522,2064393.4056290302 L 2656557.048719305,2069120.9254128444 L 2638326.255712091,2087274.2908982183 L 2632390.7004629937,2090219.3493396065 L 2627107.366110454,2091457.0875660647 L 2624976.59973718,2090631.9594182079 L 2622704.568930089,2082829.00289382 L 2611529.205249352,2064610.9327949611 L 2593591.96173936,2040749.3601045893 L 2588352.1533077206,2038428.766282138 L 2584764.6600779253,2037514.2496449524 L 2571469.328014522,2038668.72680358 L 2532822.7630348024,2045414.2822493336 L 2500242.3310668813,2051098.173868589 L 2450300.7339538224,2060811.3387304791 L 2396673.905098052,2068663.0351903292 L 2363593.3146579973,2073494.6131360596 L 2334828.469556506,2074903.1164018407 L 2334850.1768572107,2098564.0254772166 L 2334926.3193889135,2146521.6374842864 L 2334991.552610518,2194584.947760689 L 2335056.785832123,2242768.484084773 L 2335132.8170443345,2291086.924772485 L 2335198.0502659394,2339520.152767073 L 2335274.192797642,2388082.8896889314 L 2335339.426019247,2436778.304784753 L 2335404.6592408516,2485621.3551173266 L 2335426.3665415565,2506953.1694496963 L 2334480.596147777,2511548.646939789 L 2317978.3721936,2511548.646939789 L 2280658.0676271925,2511548.646939789 L 2249251.611009177,2511548.646939789 L 2223867.7614820586,2511548.646939789 L 2223900.3780928617,2540674.644872077 L 2223932.994703664,2575193.456249256 L 2223965.611314466,2609772.1614272404 L 2223998.2279252685,2644423.7141203973 L 2224041.642526678,2679149.292753558 L 2224085.168447578,2713950.087037257 L 2224117.785058381,2748827.298206609 L 2224150.4016691833,2783782.1392648425 L 2224183.0182799855,2818827.8274016134 L 2224215.6348907882,2845308.2558268486 L 2224215.6348907882,2848349.1849952335 L 2224215.6348907882,2899933.6670421585 L 2224215.6348907882,2954759.103800948 L 2224215.6348907882,3009776.9705080017 L 2224215.6348907882,3065016.5131253726 L 2224215.6348907882,3120470.7131742644 L 2224215.6348907882,3176132.0728604393 L 2224215.6348907882,3232030.375181367 L 2224215.6348907882,3288158.7233869107 L 2224215.6348907882,3305988.669871355 L 2212790.136314239,3305753.6814195793 L 2189819.5820280286,3312654.640783168 L 2175165.4842600017,3321613.9038579995 L 2168827.620371178,3332648.0625513555 L 2160402.6273494703,3339352.258303696 L 2149879.373245801,3341744.822801773 L 2145237.461799212,3347386.8548879395 L 2146487.6910003107,3356307.5471592783 L 2142432.7672286755,3363135.5005874773 L 2133072.801803795,3367855.1337629226 L 2117972.8694751416,3366476.332782402 L 2097122.2835715984,3359001.135939492 L 2070586.0546757884,3357238.3950541993 L 2038353.3847971056,3361173.616915013 L 2015187.1308460806,3359323.8899312797 L 2001087.4041422047,3351654.1632770104 L 1986118.0495762515,3347287.664005098 L 1970278.8445092393,3346196.2323166733 L 1961092.8714484693,3342984.5612569577 L 1942296.7980670072,3337282.469223879 L 1938709.416156703,3327507.6183274635 L 1936502.5072517262,3320103.777644191 L 1931154.0509970726,3312308.317518959 L 1930566.9520026287,3306038.0483570695 L 1934763.140208081,3301266.2691526436 L 1935371.9465032297,3293580.5605830546 L 1932360.6429577807,3282985.9173727687 L 1927164.3604470415,3277827.35312017 L 1919793.7856421282,3278111.129616817 L 1915206.1981070465,3274064.657117027 L 1913412.5071518943,3265691.8266777643 L 1909064.0338830368,3259344.694050094 L 1898693.0648427722,3252889.679138502 L 1885006.4447692304,3257755.253126664 L 1878549.023747294,3265112.430995893 L 1874755.0328620777,3276605.8936098707 L 1871298.0060754926,3282368.7469232227 L 1869558.6390318475,3292011.745105188 L 1868775.9516920804,3298831.6011639833 L 1865242.8936932834,3306099.8350264872 L 1861601.0765519813,3309055.2928522434 L 1857861.4095782721,3307719.684440045 L 1850817.0008813827,3310626.1045337846 L 1835336.578533198,3321391.1894192314 L 1830933.8926723236,3327061.742504052 L 1818410.449958081,3316787.0179897547 L 1781905.4493422422,3278222.190699918 L 1768968.899997665,3268219.115213229 L 1749835.8625175713,3244665.156686661 L 1707808.4132829695,3171846.244154995 L 1701807.6248122675,3157871.577570725 L 1693806.536411501,3122861.69602671 L 1684576.9261103398,3096959.896176755 L 1683565.9224949554,3082037.5473921653 L 1687968.7196753202,3073609.5815367103 L 1685272.7842472885,3062137.176239761 L 1680543.8209588993,3051912.030476792 L 1666204.8686693085,3038528.4092190512 L 1662139.146907066,2993905.12632874 L 1652561.7745166668,2965145.2095246436 L 1654616.3983582382,2941428.3009167174 L 1650039.7201332545,2919854.503318026 L 1649593.996892118,2906038.19233844 L 1651659.4187242964,2879823.416126344 L 1643962.7891308495,2849726.108623894 L 1628373.71895965,2820333.653361769 L 1614306.6088665768,2778036.342375077 L 1612284.490316317,2759549.6753815007 L 1613784.7430937376,2709950.377776436 L 1611066.9890455105,2689765.2894148584 L 1611219.162789425,2666054.812151791 L 1605653.1882497615,2641528.3226093166 L 1603370.2481325732,2628157.217035334 L 1607283.9074703923,2617581.491406003 L 1609599.3528788923,2620921.1116805817 L 1613654.2766505282,2622514.4894240005 L 1616350.3233980504,2608474.9119076794 L 1617024.3629148034,2596085.179523632 L 1609990.7522085216,2565533.694236956 L 1594303.8322049151,2534345.247103855 L 1555494.1841711835,2483642.965076264 L 1546014.6616131915,2464362.8001137674 L 1540589.9515073446,2448397.9299662593 L 1497312.3843911344,2381948.600906732 L 1478809.8605068936,2335201.537656168 L 1465895.0184630214,2294920.2662716084 L 1451838.8176800453,2276374.628659506 L 1386840.8141592331,2146314.751276359 L 1372425.8306574305,2125650.7194261244 L 1346487.4987466717,2100960.294635591 L 1340421.4770543645,2092717.7881089903 L 1330420.0887235336,2069235.4581932577 L 1310884.8539232037,2037754.316581203 L 1306166.7999449123,2008421.311106693 L 1304851.448841699,1975231.3419792254 L 1307232.1274718042,1949854.994221258 L 1324984.5806270796,1947214.2113932401 L 1337388.466208211,1940454.6896478059 L 1348563.8298889478,1939988.1839616927 L 1359587.1311452608,1945279.490177783 L 1371284.3605988366,1945677.818072338 L 1375828.422213018,1944801.45980571 L 1396853.1118001617,1945598.1052889575 L 1408919.9219631709,1939521.6883450088 L 1423237.0556325666,1933424.1501731756 L 1431488.1676096546,1928113.0339671383 L 1443055.0419395114,1922621.2569792129 L 1458415.7958350936,1917062.661171589 L 1467134.3383540227,1917528.6749556079 L 1477842.3828124092,1919608.7493021823 L 1492094.2832601997,1921734.4220207368 L 1500138.8975818665,1925486.3134947715 L 1509683.6533614635,1937269.0429615928 L 1524446.5102719949,1948022.368194599 L 1535317.5264649028,1954420.0462756783 L 1547808.3525683437,1962858.2743051683 L 1551569.7268427575,1966127.5055441917 L 1557070.4681608162,1967927.3827417367 L 1560418.7358048966,1968474.2936587988 L 1583617.606366724,1967175.519789376 L 1604642.184634377,1966002.106575123 L 1627264.8655118586,1966036.2850117912 L 1669857.5951207085,1966104.6420493282 L 1712450.3247295583,1966172.9993058073 L 1755043.0543384084,1966229.924969757 L 1797635.8952667487,1966298.2826275262 L 1840228.6248755988,1966366.6405042608 L 1882821.3544844487,1966434.9985999695 L 1925414.084093299,1966503.3569146614 L 1967996.0157115422,1966571.7154483444 L 1985422.3027587933,1966594.4627905386 L 2015861.170362834,1966970.4390415081 L 2047876.4332759979,1967369.1700869955 L 2051420.4005848921,1968041.3602462553 L 2054996.9845045896,1970308.5542738335 L 2057921.2362082377,1972427.9158246682 L 2069227.177651675,1987280.9321624823 L 2083685.5757548872,2002840.362990111 L 2095698.1733258802,2010213.4576879991 L 2110091.338207487,2014563.1967181298 L 2123582.3699357053,2016218.8305350207 L 2136160.136561456,2015145.4597276254 L 2157054.2483858992,2017132.2915780009 L 2186242.998108331,2022180.2020954147 L 2216573.2178893574,2023665.1974203172 L 2248023.200428273,2021597.7423513872 L 2270134.9248430133,2024373.344572202 L 2282897.4818234807,2031994.0650792446 L 2295975.4069213653,2037159.948253737 L 2309379.3868077835,2039857.6845790697 L 2327501.420672493,2038257.2840096366 L 2350341.508515493,2032371.2136136964 L 2369757.1861827113,2033216.8095954815 L 2378758.3688887646,2037491.425288815 L 2384117.845773007,2037628.605901622 L 2417687.574055608,2031434.14733881 L 2444669.5261925543,2026452.5405447658 L 2485120.691437523,2018536.9388510997 L 2518494.7200553096,2012005.7579371582 L 2567947.1793258227,2002326.7997081485 L 2602723.6108886227,1995526.8636029228 z" /></g>
</svg>
