<?xml version="1.0" encoding="UTF-8"?>
<svg xmlns="http://www.w3.org/2000/svg" viewBox="17803128.3478331 2168438.5204496174 914026.5277850404 422651.0018930915">
  <g id="map"><g><path fill-rule="evenodd" fill="currentColor"    d="M 18278921.321141943,2302207.0409047613 L 18291477.380466983,2309658.9574639774 L 18304924.886274304,2306494.731476759 L 18321861.92415952,2318238.699384862 L 18365009.13615201,2353888.1835746244 L 18380174.19038278,2361442.577667081 L 18389066.725265816,2364337.427330674 L 18395806.786474876,2370186.524275518 L 18401851.10086648,2378411.0641768198 L 18410080.39422337,2384229.835677752 L 18413635.270842366,2389654.67514697 L 18414526.717324637,2396979.542564381 L 18417494.494949188,2401487.8193923524 L 18432550.90135694,2413352.264425022 L 18441497.760151487,2423766.5672301943 L 18453945.060334027,2429086.7984528 L 18459315.446528368,2435307.508449321 L 18466272.914702944,2438342.715556185 L 18473415.173232242,2444706.88498929 L 18485471.185404643,2449671.359766502 L 18512800.89963083,2468022.935082829 L 18533912.52974028,2485469.227734867 L 18544435.67252446,2496266.426452405 L 18555806.735870015,2505886.498603336 L 18570330.47851432,2513565.4495644923 L 18583941.06737565,2522350.7029964835 L 18590833.302328628,2542953.290308097 L 18587050.220753506,2550331.867990827 L 18579223.01339736,2553998.720908044 L 18571982.905035656,2554257.38537139 L 18565210.227215793,2556749.5071673235 L 18542554.92972751,2543434.9183953796 L 18537162.947551955,2541473.368523651 L 18531129.54247045,2542295.5846946016 L 18527759.456206173,2539347.531553724 L 18525389.575566676,2535096.6614750554 L 18511572.489049923,2530154.4106634147 L 18498701.17292695,2522233.3281388683 L 18494972.415263344,2516860.9035064564 L 18492809.032279264,2510176.992651818 L 18489732.6068317,2506320.2644324894 L 18471577.95635619,2500484.073026148 L 18459380.679749973,2493982.2817608216 L 18450520.761477735,2484813.6208740124 L 18436757.99887249,2478446.4593912847 L 18415320.313974503,2465368.3440790814 L 18404297.012718186,2461182.6336422716 L 18394654.407106187,2454648.85771099 L 18368846.541638635,2430895.5018404294 L 18359638.749957666,2426473.135515643 L 18351605.0449461,2415929.1143616964 L 18329384.672708347,2390935.4299485325 L 18318676.73956945,2380656.8130208356 L 18307012.12672668,2371512.4542752155 L 18298086.975232836,2360814.907768929 L 18291227.356890664,2348137.2716499246 L 18275290.413310736,2330001.9671811913 L 18273333.527982082,2322251.714353042 L 18273996.658188738,2314296.1382406442 L 18270159.25270211,2309183.695370971 L 18263636.598458573,2306065.8344098176 L 18260549.26370091,2300723.9717066837 L 18260907.935100242,2293518.9006959912 L 18263038.701473515,2289801.5740781417 L 18278921.321141943,2302207.0409047613 z" /><path fill-rule="evenodd" fill="currentColor"    d="M 18650961.078127228,2586519.272581429 L 18647427.908808943,2591089.522342709 L 18643057.83955887,2590147.048623737 L 18639752.9865162,2588439.0798515645 L 18637339.5799558,2585954.034341553 L 18639720.369905397,2576652.8592498973 L 18649297.742295798,2581208.5774873025 L 18650961.078127228,2586519.272581429 z" /><path fill-rule="evenodd" fill="currentColor"    d="M 17805748.25204892,2191670.375941115 L 17804041.50161608,2194193.158932211 L 17803128.3478331,2175469.588292903 L 17806650.496521804,2168438.5204496174 L 17808346.448964037,2183009.8281290196 L 17805748.25204892,2191670.375941115 z" /><path fill-rule="evenodd" fill="currentColor"    d="M 18702892.065860257,2443223.5821900344 L 18708120.964981798,2445431.061929616 L 18717154.87561814,2445045.587951591 L 18715111.04976718,2465461.860959229 L 18702391.907388125,2468736.348012956 L 18697978.312217154,2468549.2793620033 L 18695141.00103581,2464257.5554362633 L 18687857.36675321,2461428.1619837405 L 18688216.149472035,2454426.8793698438 L 18681128.214854244,2438763.07168936 L 18693434.250602968,2436393.1411986477 L 18700391.71877755,2432214.3859876315 L 18700000.31944792,2436019.5812617373 L 18701076.556284912,2440467.793534276 L 18702892.065860257,2443223.5821900344 z" /><path fill-rule="evenodd" fill="currentColor"    d="M 18539902.408900887,2355991.3996164342 L 18533977.762961883,2357165.261381369 L 18541130.930801284,2346278.7879211437 L 18541337.4284567,2339624.659613643 L 18544207.356248844,2326474.4724442284 L 18543881.301460307,2322066.181039944 L 18548577.536818407,2322646.1867636843 L 18553708.697427034,2326439.6619123104 L 18547816.556779347,2329688.614199853 L 18545859.78277018,2335375.674688134 L 18546066.2804256,2342504.363087101 L 18548338.422552183,2343804.9512750367 L 18544587.846268374,2351610.798781317 L 18539902.408900887,2355991.3996164342 z" /><path fill-rule="evenodd" fill="currentColor"    d="M 18634980.608626403,2411044.1283787633 L 18628892.7683139,2412011.6345937042 L 18620772.122780025,2403421.959273843 L 18605259.195140522,2399111.3270092527 L 18598442.99139976,2391552.590641907 L 18593996.779617988,2382646.9679384045 L 18602791.46466862,2380447.4425414638 L 18611444.773965944,2368465.331467742 L 18605541.835327648,2364011.8123665806 L 18595366.565952197,2363221.3128072647 L 18596562.3599223,2358548.312327624 L 18613064.58387648,2352993.4242120185 L 18620293.782928083,2356212.2663942548 L 18623522.49343905,2360012.8838871424 L 18623022.446286406,2378946.291076367 L 18630523.48753453,2384974.7772030653 L 18638285.350349583,2398470.5242511085 L 18638252.73373878,2402256.8685549875 L 18634980.608626403,2411044.1283787633 z" /></g></g>
</svg>
