<?xml version="1.0" encoding="UTF-8"?>
<svg xmlns="http://www.w3.org/2000/svg" viewBox="18241.590997821364 -2694767.679776928 1758771.9233215107 1383604.2416656078">
  <g id="map"><path fill-rule="evenodd" fill="currentColor"    d="M 1514651.7309160763,-1540346.5468743758 L 1494681.570865217,-1540022.053702257 L 1483201.7483771606,-1536480.8405882297 L 1468732.4409638508,-1525278.34222463 L 1452545.473807601,-1520866.7871906075 L 1432868.8632539634,-1511079.0854288407 L 1420432.36106203,-1503222.4211547782 L 1408724.2222983565,-1497065.983594901 L 1392624.1956644163,-1481943.4433877117 L 1387395.2965428745,-1470445.0174480495 L 1371349.5938204413,-1468151.5194766487 L 1348966.1385286746,-1470065.5739582062 L 1334725.036071491,-1481653.141115981 L 1301698.7695429425,-1493764.9383665042 L 1280293.7012557578,-1498663.6263122447 L 1270368.4554566296,-1500160.7922955605 L 1219937.7205010257,-1502211.1467140012 L 1166169.515891948,-1497485.0341204975 L 1138752.7498239635,-1491854.8654769885 L 1133752.055658548,-1490609.425533383 L 1118217.3093988558,-1483294.491993804 L 1105324.2859751787,-1475188.9502627535 L 1070439.0952698737,-1438107.1174563533 L 1024313.3076622267,-1439344.5370066005 L 997157.3631611709,-1443453.3258053332 L 974110.7776627486,-1449241.0188725311 L 941323.7367199148,-1466550.0215514451 L 901133.5043613655,-1493016.518188904 L 885631.3747124758,-1496630.3516654912 L 871683.8217525141,-1498708.35934872 L 867031.0009958277,-1498362.0520269424 L 819067.9965121286,-1471979.758543767 L 809816.6789102628,-1472560.1657731321 L 798499.9394762187,-1469596.7625864812 L 791042.4241489955,-1463057.3021103237 L 785552.4808215438,-1459754.5501811325 L 779801.7159271633,-1459224.6741116873 L 772246.350767533,-1460669.460850872 L 764832.2500417194,-1464675.2850602467 L 757450.877246199,-1472035.5356382802 L 737665.6188695473,-1501378.743948243 L 733588.876477716,-1506513.4965248383 L 725142.176155304,-1515243.0496706497 L 710922.7809988252,-1528778.9189077846 L 701291.0846969188,-1535099.105304304 L 695431.5606600333,-1536726.9277189325 L 688430.5665645535,-1535658.5042465865 L 649903.670037437,-1547312.9802764955 L 611365.7528807321,-1559633.2128014022 L 602886.3246280268,-1558065.5697152687 L 596852.9195465223,-1555507.1111337438 L 583525.0821918068,-1546378.4557687906 L 567827.2528781025,-1544716.4716490766 L 547878.9114474386,-1545449.4647833395 L 536931.7527228281,-1546669.445375358 L 519288.05871005746,-1543625.2703460846 L 507558.21264567936,-1540027.668134206 L 492186.5494399995,-1533807.0216556757 L 472238.20800933556,-1517037.3999861118 L 466519.9484062668,-1514868.6023622546 L 461704.1559150589,-1512073.9746096518 L 455007.50930740795,-1466070.1841174427 L 449593.81983114954,-1452269.2250275202 L 439472.8743672067,-1434043.723178264 L 419589.6548386569,-1416598.3670922245 L 405946.5606860149,-1406083.776182038 L 405631.3038880883,-1391866.1760490881 L 404555.0670510989,-1368661.6697271524 L 404370.27669638215,-1352716.499965737 L 405272.5211692616,-1342335.484780086 L 402989.5810520731,-1337396.3137401587 L 402065.51795899816,-1332885.6642751894 L 402804.7906973563,-1326109.661513524 L 406022.5918982267,-1322916.6220197198 L 407957.65860668616,-1318685.6316405006 L 406664.0148041775,-1315204.6790046038 L 400239.21039304376,-1311163.4381113201 L 393151.2757752544,-1321528.441029886 L 384030.5359360891,-1328864.313657415 L 374029.1476052583,-1332108.0168691354 L 367256.4697853955,-1337418.5000086129 L 363723.41178659856,-1344786.0211220277 L 350612.87007791153,-1359148.0319200165 L 320391.40943939047,-1387586.73862326 L 317282.25606153434,-1388265.6313971519 L 312281.5618961189,-1389423.1012194706 L 303737.0117412996,-1385978.518546069 L 298486.2939995625,-1381327.1114628527 L 294822.7695575559,-1379502.29848682 L 289256.79501789215,-1379224.188345148 L 274885.226117499,-1375630.6358211904 L 263383.696328738,-1370975.2532334456 L 263079.23752141837,-1367160.2645581658 L 268579.9788394772,-1345630.5649067159 L 265960.07462365745,-1333996.5417647546 L 260861.53062583474,-1339563.0203912011 L 244283.2754594465,-1361244.0894044347 L 232814.2509619971,-1377360.6549471514 L 230759.62712042566,-1380937.6658871341 L 229139.81720989273,-1386473.7845558305 L 230270.48927788,-1388888.8086480543 L 234814.55089206144,-1390563.9756406986 L 245326.89568563344,-1392701.096072062 L 247283.6696947976,-1394370.7786326 L 247827.24276834112,-1398795.9838769906 L 246185.61423761275,-1407047.1640252376 L 240424.05135262528,-1418224.9145639157 L 234281.88712861564,-1425623.4410846068 L 230857.47695283292,-1427072.127144171 L 224574.04829500665,-1427328.4362878425 L 217757.8445542437,-1426325.4656523142 L 204930.0543521716,-1417250.0931724191 L 199244.52267939594,-1415584.587214263 L 186025.3331476947,-1416330.9731000343 L 174208.43524151633,-1418107.8658269942 L 167033.56010141748,-1422793.0347612996 L 145682.81572574,-1440805.1008373972 L 122092.6571537742,-1459860.5722824994 L 112200.02796544839,-1462566.3265776709 L 109906.28985765297,-1464519.0816794096 L 108319.09655792247,-1479202.3280083959 L 108732.2031882563,-1496831.4645034645 L 110036.75630086269,-1501445.792917979 L 119874.9502581906,-1498691.541549021 L 130343.76913086243,-1497412.389089199 L 133713.855395138,-1500607.8069186776 L 125343.18628493781,-1506882.3366242368 L 113308.88141324016,-1513236.4794690588 L 108840.85101127053,-1522862.811041311 L 105373.0262340785,-1526206.5248483832 L 99959.22543832922,-1529617.7684115162 L 93762.73730281243,-1531390.7308957747 L 87501.0159456908,-1534097.87542019 L 83239.59451863349,-1536900.381542197 L 76205.98381235129,-1538147.8154723393 L 68813.70170673318,-1540212.257559032 L 58149.18316924676,-1555837.4096363322 L 47778.214128982225,-1571018.027859322 L 41636.04990497256,-1582979.393029686 L 39505.3948511893,-1590170.1023333268 L 42581.931618243005,-1602431.8331480864 L 39472.77824038688,-1607283.1466168142 L 27895.105919923248,-1619738.2536106135 L 18241.590997821364,-1631323.4742869588 L 20600.673646712414,-1649233.747338637 L 22568.245646483523,-1664182.6438353828 L 22687.91409908629,-1673651.2598992824 L 24209.762857721136,-1679000.0577134548 L 25459.99205882039,-1685013.8230815993 L 31862.977849758692,-1686915.600483914 L 48202.2300694138,-1686780.5445653393 L 79999.97469756764,-1684001.1149264355 L 105470.87606648577,-1687140.6569120062 L 106873.27901149943,-1687692.0711237278 L 124821.32051209893,-1703739.663550637 L 144737.04533196034,-1720597.9321491562 L 174675.97710284806,-1722237.6302498842 L 206984.67819374305,-1723995.7353338709 L 232455.57956266118,-1724880.4911678024 L 269482.33463184745,-1726154.130202448 L 299410.2457731467,-1727247.539726803 L 334078.0295129327,-1728526.959889356 L 335132.5590492174,-1736300.74851001 L 337230.708811689,-1738212.1967665742 L 340655.0076679809,-1738482.7656643647 L 366136.70702750597,-1734316.1350448644 L 390096.55762839626,-1730302.4929550893 L 391901.157893646,-1744939.9106504493 L 412947.4434620038,-1763266.3907409327 L 424851.2818904918,-1767003.3590300244 L 427797.3522143358,-1770204.5998040694 L 431580.4337894543,-1776399.2636361578 L 433917.6978181499,-1785968.4459419579 L 434950.5200537299,-1792777.716117135 L 439385.8225254063,-1798430.0497039051 L 442625.4423464722,-1808839.6745185873 L 446930.38969442964,-1827052.2136507416 L 458779.7928919197,-1846185.562423503 L 465552.4707117824,-1872196.3984602601 L 466563.4743271669,-1897346.1109579995 L 467868.0274397733,-1916482.9510996384 L 471401.0854385702,-1920404.4700090094 L 471292.3262960652,-1954425.7590273176 L 471183.67847305094,-1988700.6307216522 L 471096.73795074143,-2017720.473172285 L 470977.06949813856,-2053877.7466386864 L 470879.21966573136,-2085664.5354867508 L 470770.5718427171,-2120158.180190116 L 470683.6313204075,-2151176.564580994 L 470618.39809880266,-2171752.3551218617 L 494893.3941781287,-2176672.3644592287 L 520005.51282822003,-2181772.1151636736 L 556749.6277102823,-2189234.1380349775 L 596526.753438498,-2197309.7581328363 L 639902.2817066062,-2206126.6556741153 L 649729.6776733272,-2211430.099531703 L 682462.3947046538,-2241307.3982047513 L 697236.160925283,-2254813.332585271 L 726587.9937017271,-2281674.742755634 L 749254.089180618,-2302438.7664139415 L 778051.4395734206,-2328853.1513999067 L 808555.6517185565,-2355485.891432472 L 832863.2644086849,-2376753.0586015414 L 871096.7227580703,-2400893.6962736594 L 928745.8587746738,-2437350.327803819 L 986395.106110768,-2473883.206741072 L 1044033.3328172734,-2510493.4538069423 L 1101671.5595237792,-2547188.5774614704 L 1159320.6955403825,-2583957.9459687737 L 1216969.9428764766,-2620808.962288854 L 1274608.1695829823,-2657749.096880923 L 1332257.3055995859,-2694767.679776928 L 1390243.517034311,-2680665.4337427225 L 1445327.072746602,-2667279.816480684 L 1500725.8852568192,-2653822.4683354856 L 1513792.9010446062,-2646480.304708604 L 1543188.1484224596,-2620183.5743128033 L 1580812.9117961873,-2586578.1250354433 L 1582465.2269980318,-2586089.4630416217 L 1584161.1794402674,-2585942.2160390723 L 1620329.1046379835,-2605739.212376494 L 1667444.1885603103,-2631569.861080324 L 1667455.0978704079,-2631558.0099681863 L 1679695.9003975273,-2561828.9114974807 L 1688968.9253000978,-2502171.3749849596 L 1689588.529585853,-2464263.422301342 L 1690034.2528269894,-2454397.681351539 L 1693817.3344021079,-2447702.9361484973 L 1702481.5530095298,-2441016.5011292715 L 1737399.3603256375,-2386441.508976624 L 1729941.8449984146,-2376968.2236899035 L 1735149.0368192517,-2360105.844457753 L 1744204.654756303,-2352853.97900521 L 1773241.2307348205,-2320459.7693012655 L 1777013.514319332,-2314087.414997104 L 1775415.4117095037,-2308980.846236736 L 1755086.5802593085,-2270965.981583987 L 1751618.7554821162,-2261668.144855385 L 1747563.8317104804,-2213327.115553869 L 1744704.701908946,-2179296.926462696 L 1740769.4465899132,-2132677.998714806 L 1736084.0092224246,-2077038.9231429012 L 1732300.816327815,-2030205.7748112753 L 1727311.0314724972,-1968428.6783254782 L 1722592.9774942058,-1910164.6301124147 L 1693404.2277717742,-1878248.621810143 L 1641592.9084913516,-1821709.7098324967 L 1599434.9928135402,-1775806.2566883273 L 1578312.5647134795,-1745131.776012117 L 1537002.5695970405,-1685295.0934589177 L 1518663.128766812,-1646683.1869239076 L 1504335.0857873186,-1626529.3533690053 L 1497051.451504715,-1617925.66689817 L 1503454.548615144,-1589643.1886538493 L 1514651.7309160763,-1540346.5468743758 z" /></g>
</svg>
