<?xml version="1.0" encoding="UTF-8"?>
<svg xmlns="http://www.w3.org/2000/svg" viewBox="299008.0484529106 -1559633.2128014022 1329278.6186649394 1083033.0897259838">
  <g id="map"><g><path fill-rule="evenodd" fill="currentColor"    d="M 812719.2233132067,-492315.9090049984 L 801935.1476426083,-488908.60531805473 L 794869.0316450144,-489742.7219663637 L 804544.2538678211,-504506.9001585269 L 809447.0982008291,-501333.5833992779 L 815741.4361687533,-500025.00880033645 L 812719.2233132067,-492315.9090049984 z" /><path fill-rule="evenodd" fill="currentColor"    d="M 1514651.7309160763,-1540346.5468743758 L 1532143.2511849324,-1515718.2422478858 L 1550939.2132469043,-1489280.3239535447 L 1565593.4223344217,-1468703.9625052898 L 1576290.5574827106,-1415528.919888794 L 1577432.0275413047,-1405410.062060723 L 1578247.331491875,-1400850.2392798653 L 1579051.726132347,-1396647.3659294446 L 1580454.1290773607,-1389417.5166271753 L 1588846.6168077562,-1386306.8336353658 L 1604718.3271660798,-1384899.1269743615 L 1616241.5642555454,-1379669.2113850964 L 1623144.7085186176,-1370991.882793222 L 1623818.748035371,-1369551.5235756398 L 1627460.565176673,-1362895.3959867405 L 1628286.66711785,-1358080.645549863 L 1627286.5728125633,-1344185.8298941238 L 1624971.0160845723,-1326348.5043844858 L 1621013.9421453436,-1314849.3854776719 L 1623220.8510503203,-1299214.8687173042 L 1622525.1042328624,-1292540.5333918217 L 1620785.7371892177,-1287980.7681488337 L 1613697.802571428,-1282739.6069059847 L 1604055.196959424,-1277632.2791174976 L 1580997.702150904,-1262531.3631881604 L 1574420.723995856,-1260303.3998370643 L 1564788.9163744587,-1259904.4505041514 L 1556407.337954161,-1256141.6270740686 L 1546460.384854328,-1247996.996801158 L 1525066.1145577503,-1217724.1442465966 L 1506748.492347717,-1187351.073925981 L 1500421.5377689907,-1162237.4358418104 L 1493300.9865403988,-1138273.689860644 L 1477200.9599064584,-1122980.0993851142 L 1474961.5457101702,-1114375.4501792626 L 1474287.506193417,-1109386.8429364036 L 1473733.1351292664,-1097872.6948710901 L 1471776.2498006113,-1078802.312051851 L 1469275.9027179037,-1069612.537167699 L 1466688.6151128863,-1066889.5373899587 L 1449316.763296633,-1061097.1711556173 L 1439304.4656557043,-1054093.4914998414 L 1433314.5864950998,-1040243.9905366561 L 1431118.586900221,-1025270.597766678 L 1427607.2362021287,-1008211.4714593173 L 1425617.845582162,-993244.4379724162 L 1422911.000844033,-985498.9620160069 L 1417225.3578517665,-977364.4410255746 L 1408365.5508990204,-968593.6943513225 L 1400701.4265968853,-963678.5205021213 L 1380753.0851662215,-960462.5487429444 L 1370490.763948971,-940671.4562419654 L 1361815.6360314512,-925211.9002548945 L 1361565.6124551296,-919032.9907121315 L 1353194.9433449295,-886998.1820205207 L 1338638.5840898193,-862872.9845364067 L 1337682.0157054327,-854360.5275148835 L 1337616.782483828,-847368.4620622097 L 1319407.6967773184,-826146.1805034718 L 1314591.9042861103,-819898.032237177 L 1309939.0835294242,-811727.3651549807 L 1314526.6710645054,-803837.2996412574 L 1319668.6296637375,-796660.6282833588 L 1320407.9024020957,-794239.4227391595 L 1312124.1738142052,-787485.8449795427 L 1297709.1903124026,-775749.9083034087 L 1289088.3863063897,-768719.515316581 L 1287185.9362087327,-764881.7026045264 L 1285924.9090170267,-747239.7879859221 L 1283413.763943712,-742505.8865931216 L 1277673.7970399384,-736048.8586711168 L 1269237.894708133,-728936.0928464575 L 1260649.7073129232,-723416.0186435088 L 1250931.070488707,-719592.2373805617 L 1241581.903054434,-718180.9170871415 L 1236363.8019234994,-720396.3852354976 L 1233385.2263083437,-725752.023577258 L 1228134.5085666066,-747310.84949737 L 1225481.8764204937,-751930.1583194864 L 1219415.8547281865,-756128.3521354159 L 1207425.075777389,-767925.6480101538 L 1195303.9417028727,-779867.8806041593 L 1180682.3492261579,-788258.1345940803 L 1177551.488547597,-787655.6691901599 L 1175127.2839965918,-785382.7179593346 L 1170974.5103925487,-773384.5104754409 L 1166886.9700101106,-768987.8406603163 L 1159190.3404166636,-767471.1979451749 L 1145818.8658215571,-767361.7627329455 L 1136067.6123865389,-769026.1889813534 L 1133849.905490955,-771402.3812229809 L 1131871.3128615955,-776604.2273086751 L 1129175.377433564,-780782.4935810944 L 1117521.5625813978,-772366.0752094057 L 1099193.031061267,-759122.585001902 L 1093235.657191974,-756955.0034410108 L 1088691.5955777925,-754289.227230872 L 1082647.2811861902,-741942.2660178777 L 1075341.9396028817,-728717.152890581 L 1065775.3652030895,-721818.627847644 L 1056448.0163890116,-716020.3138028459 L 1051099.5601343582,-710950.1008216107 L 1043435.435832223,-704928.6627060238 L 1028455.1719561721,-689979.0150160738 L 1008571.9524276222,-670157.6380226637 L 1001560.1603415357,-659932.4883736208 L 994646.2180878562,-644633.3366796625 L 990613.001616925,-627704.7183234714 L 986199.4064459534,-609148.0277796201 L 979720.2781233124,-579373.8509549202 L 970218.936945125,-562543.4787574772 L 961859.0658255317,-549148.5690822938 L 955695.1943008173,-538625.2399748475 L 952433.8671790469,-529957.9723134976 L 951085.899465031,-530246.9510573198 L 947868.0982641607,-526549.0655545315 L 938573.3660608855,-528954.3185788216 L 934377.0665359423,-536497.9610190992 L 928637.2109516596,-537725.2558387925 L 918690.1465323358,-548810.3560301871 L 916581.1987792571,-546966.3565834529 L 927071.7249526338,-518886.553030437 L 923179.88423501,-507887.4939660129 L 893730.3129456496,-507636.6776817933 L 868378.9687098433,-503939.8524512473 L 850952.6816625919,-504283.34129251004 L 842201.5225328604,-508258.2478787616 L 838320.5911253345,-518782.9065642836 L 836831.2476580113,-517697.64244973444 L 835950.7104858365,-512053.54898868676 L 830428.1505475822,-507620.37353371474 L 810892.9157472522,-506775.13082671416 L 802250.4044405347,-513967.6285896232 L 795249.5216645459,-522011.4242823015 L 787759.3897265204,-525594.6030636017 L 788911.6577757216,-522207.7799991204 L 797510.6431615388,-514360.18868798635 L 796456.224944745,-503061.9301854318 L 780725.7790202381,-489988.0125773958 L 770691.7740786049,-489246.6722021619 L 764527.9025538906,-494878.2338527778 L 761331.8086537248,-504076.08647249005 L 759722.9080532896,-517675.8636070994 L 755591.9530694421,-526549.0655545315 L 753374.2461738585,-526549.0655545315 L 755417.9607053322,-518428.409878051 L 756102.9095321832,-511797.2474106816 L 756200.6480450997,-498007.7524888082 L 763690.8913026159,-487311.4029538844 L 752189.250194364,-483986.13563806197 L 747525.6314470707,-483860.76385615993 L 738383.07298771,-483615.37955497304 L 736632.7966339673,-487583.9277727367 L 734882.5202802247,-496448.4494475751 L 732480.0230299243,-498771.05694591143 L 729653.6211586831,-483746.2213227211 L 723576.6901562782,-482688.7755762027 L 719358.6833306303,-482824.97455926327 L 701291.0846969188,-479554.36168924277 L 697268.7775360855,-480175.8320555299 L 696409.9476646153,-482972.22600210336 L 698562.421338594,-487126.07318697125 L 698084.0814866554,-493875.13377016276 L 691811.450819436,-488668.7885577633 L 690800.4472040515,-478262.53949284356 L 687213.0652937473,-476600.1230754185 L 676439.8989332468,-478077.2295855934 L 664655.617637871,-483430.05794483575 L 657502.4497984766,-488919.5466950785 L 645500.8728570723,-496535.6535110446 L 622030.2714182185,-517893.9873645105 L 618225.3712229044,-527498.066489676 L 611507.1286340395,-539290.8508138156 L 606484.7271679194,-551254.530305273 L 599266.3261069204,-571722.20443821 L 601484.0330025039,-573206.59759077 L 606930.3390895649,-571449.2699148691 L 609582.9712356778,-574500.004170852 L 599820.697171071,-576726.7484663359 L 597787.891949695,-579100.9987490011 L 597135.5597336463,-586283.9269897253 L 597559.575674078,-595056.3177237487 L 605495.4308532396,-598140.8446795025 L 612355.049195412,-599625.8009452389 L 615801.1666718993,-604965.4715557144 L 617790.5572918658,-610316.5242306315 L 599548.9662940445,-602213.7342365293 L 582470.552655522,-611386.7413086236 L 578774.411602713,-616951.2527162047 L 580622.4264693721,-621216.4348044472 L 588775.6886140532,-621866.2744058064 L 600440.4127763171,-621533.188863488 L 607430.4975616991,-625694.8664873424 L 603136.3482043486,-627147.6627904164 L 595591.892354816,-626989.2719675539 L 592808.9050849843,-629747.5198693132 L 593037.2213606013,-636411.6270627099 L 590591.1981894006,-634936.6958256378 L 587351.6896878256,-629032.0510108105 L 575839.2505889668,-624689.8519516938 L 569109.9873705135,-629032.0510108105 L 568425.1498631532,-638716.8344490336 L 566957.5136965347,-643076.3149050877 L 561282.8913338567,-646479.9720717167 L 541127.9409282806,-672086.9722604156 L 515809.32462276774,-693456.2800568205 L 493295.4028877912,-708171.7159527064 L 459290.7493546608,-715205.3618270422 L 388128.8743091343,-714931.9214400921 L 384139.1837591034,-716961.1917377579 L 388498.45501856797,-720347.0919211876 L 394749.37838508264,-722606.3382041989 L 417632.88082949276,-734527.755780525 L 413773.6567226715,-736109.035765428 L 389987.7984858912,-728646.1152380476 L 381845.44565130793,-727934.8472987671 L 371311.3935570313,-713586.358384555 L 308628.94676421,-711212.5449985625 L 301280.0792600013,-710485.141844544 L 301454.07162411115,-717032.3267291051 L 304530.60839116486,-735857.3457827416 L 306541.70631183614,-743261.1629049233 L 308868.061030434,-748859.766818483 L 306454.7657895266,-755575.5767665874 L 304095.68314063555,-764679.1004950275 L 302943.4150914344,-778969.7697410536 L 305878.57610518066,-783405.6317115447 L 306878.67041046737,-788800.3706575575 L 306193.8329031072,-797246.8190581081 L 306182.9235930094,-825510.3743823812 L 307889.67402585194,-828590.922159001 L 309911.6812566209,-830936.9911206458 L 310042.14769983065,-834692.0793298933 L 306237.35882400733,-841994.9323998489 L 302715.0988158174,-850346.1652270262 L 302834.6559489294,-862346.4510606624 L 301421.45501330873,-873976.6021593435 L 299008.0484529106,-879271.4857517848 L 300823.5580282581,-899062.8476636499 L 301845.3596342496,-924162.8052069601 L 300910.4985505676,-935281.3761952191 L 303193.4386677561,-943166.1452542485 L 304421.84924865986,-962540.5629545137 L 304226.1495838453,-981516.8283948251 L 308889.8796506295,-1011491.6696120439 L 322609.11633497407,-1012939.2748033049 L 338959.1665452362,-1015471.2992822863 L 346253.598818447,-1027247.2311606226 L 350438.9890332925,-1042171.7337435889 L 349112.72861998144,-1056953.1559346404 L 352287.00389995164,-1061813.6356360973 L 358831.47676368814,-1069821.9458968823 L 370637.354040278,-1081272.421786316 L 370159.0141883393,-1093857.0692880787 L 373420.3413101098,-1097734.7554506115 L 379018.93246057595,-1100652.94357588 L 387030.9301714402,-1102153.4758869046 L 395988.69827608415,-1108415.6678948035 L 400978.4831314019,-1119403.2784330663 L 405859.50884421455,-1136997.9788023413 L 398141.1719500629,-1149237.054417786 L 398293.3456939773,-1151966.0021713525 L 401206.7994070189,-1158551.8162736953 L 405935.6513759171,-1165149.7179023568 L 409686.11634023336,-1167277.492576651 L 418393.86086855555,-1165569.7392169475 L 419872.29502578103,-1166127.9644492401 L 421209.4647491898,-1168195.0140690093 L 426851.58182055614,-1187616.5422653784 L 426318.9180571103,-1192864.9433141388 L 418209.0705138387,-1205892.5631258723 L 416882.81010052765,-1215150.4144558972 L 415687.0161304263,-1228923.0500984173 L 413708.42350106663,-1241133.770223905 L 411360.25016227335,-1245753.3417468402 L 407011.8882129065,-1249642.3953627083 L 405076.821504447,-1252168.744649107 L 388259.340752344,-1276977.9509423578 L 388563.6882401728,-1288768.458983584 L 395619.00624715973,-1303842.8449574378 L 400239.21039304376,-1311163.4381113201 L 406664.0148041775,-1315204.6790046038 L 407957.65860668616,-1318685.6316405006 L 406022.5918982267,-1322916.6220197198 L 402804.7906973563,-1326109.661513524 L 402065.51795899816,-1332885.6642751894 L 402989.5810520731,-1337396.3137401587 L 405272.5211692616,-1342335.484780086 L 404370.27669638215,-1352716.499965737 L 404555.0670510989,-1368661.6697271524 L 405631.3038880883,-1391866.1760490881 L 405946.5606860149,-1406083.776182038 L 419589.6548386569,-1416598.3670922245 L 439472.8743672067,-1434043.723178264 L 449593.81983114954,-1452269.2250275202 L 455007.50930740795,-1466070.1841174427 L 461704.1559150589,-1512073.9746096518 L 466519.9484062668,-1514868.6023622546 L 472238.20800933556,-1517037.3999861118 L 492186.5494399995,-1533807.0216556757 L 507558.21264567936,-1540027.668134206 L 519288.05871005746,-1543625.2703460846 L 536931.7527228281,-1546669.445375358 L 547878.9114474386,-1545449.4647833395 L 567827.2528781025,-1544716.4716490766 L 583525.0821918068,-1546378.4557687906 L 596852.9195465223,-1555507.1111337438 L 602886.3246280268,-1558065.5697152687 L 611365.7528807321,-1559633.2128014022 L 649903.670037437,-1547312.9802764955 L 688430.5665645535,-1535658.5042465865 L 695431.5606600333,-1536726.9277189325 L 701291.0846969188,-1535099.105304304 L 710922.7809988252,-1528778.9189077846 L 725142.176155304,-1515243.0496706497 L 733588.876477716,-1506513.4965248383 L 737665.6188695473,-1501378.743948243 L 757450.877246199,-1472035.5356382802 L 764832.2500417194,-1464675.2850602467 L 772246.350767533,-1460669.460850872 L 779801.7159271633,-1459224.6741116873 L 785552.4808215438,-1459754.5501811325 L 791042.4241489955,-1463057.3021103237 L 798499.9394762187,-1469596.7625864812 L 809816.6789102628,-1472560.1657731321 L 819067.9965121286,-1471979.758543767 L 867031.0009958277,-1498362.0520269424 L 871683.8217525141,-1498708.35934872 L 885631.3747124758,-1496630.3516654912 L 901133.5043613655,-1493016.518188904 L 941323.7367199148,-1466550.0215514451 L 974110.7776627486,-1449241.0188725311 L 997157.3631611709,-1443453.3258053332 L 1024313.3076622267,-1439344.5370066005 L 1070439.0952698737,-1438107.1174563533 L 1105324.2859751787,-1475188.9502627535 L 1118217.3093988558,-1483294.491993804 L 1133752.055658548,-1490609.425533383 L 1138752.7498239635,-1491854.8654769885 L 1166169.515891948,-1497485.0341204975 L 1219937.7205010257,-1502211.1467140012 L 1270368.4554566296,-1500160.7922955605 L 1280293.7012557578,-1498663.6263122447 L 1301698.7695429425,-1493764.9383665042 L 1334725.036071491,-1481653.141115981 L 1348966.1385286746,-1470065.5739582062 L 1371349.5938204413,-1468151.5194766487 L 1387395.2965428745,-1470445.0174480495 L 1392624.1956644163,-1481943.4433877117 L 1408724.2222983565,-1497065.983594901 L 1420432.36106203,-1503222.4211547782 L 1432868.8632539634,-1511079.0854288407 L 1452545.473807601,-1520866.7871906075 L 1468732.4409638508,-1525278.34222463 L 1483201.7483771606,-1536480.8405882297 L 1494681.570865217,-1540022.053702257 L 1514651.7309160763,-1540346.5468743758 z" /></g></g>
</svg>
