<?xml version="1.0" encoding="UTF-8"?>
<svg xmlns="http://www.w3.org/2000/svg" viewBox="-9759398.236881765 -1690128.697488435 502345.45485030115 488020.4207635948">
  <g id="map"><path fill-rule="evenodd" fill="currentColor"    d="M -9257052.782031463,-1688401.0339052805 L -9260151.02609922,-1684175.4466417888 L -9263553.61765481,-1681407.600525791 L -9270674.1688834,-1667634.6040577763 L -9273136.444700256,-1666403.3758759222 L -9273620.239207244,-1676586.989345507 L -9277854.498678548,-1677920.0918967822 L -9282822.576233162,-1674297.9705673389 L -9285572.946892189,-1669079.6158638333 L -9281246.292243527,-1662260.1567453435 L -9277446.846703263,-1662164.6061180495 L -9272826.642557379,-1660292.808342708 L -9260417.3023212,-1613263.084348512 L -9263086.187112968,-1604882.645874936 L -9270777.473370856,-1591846.0799771075 L -9278099.06759982,-1580754.7557074197 L -9285415.318493228,-1573813.169763456 L -9294481.734420886,-1544268.7322493955 L -9302673.067831418,-1496350.9925712 L -9296786.38183878,-1453328.8419398495 L -9299765.068773426,-1413646.331630668 L -9297177.781168407,-1404274.2022182993 L -9296394.98250915,-1392611.9608282004 L -9302439.296900751,-1390513.8263944131 L -9305852.797766438,-1390864.4169885304 L -9309336.986508776,-1398027.8125128685 L -9308945.698498636,-1404324.3748025312 L -9305331.04331309,-1411713.7933036215 L -9303868.861801518,-1421728.9508966843 L -9305570.157579312,-1426971.8179941003 L -9309130.488853354,-1415540.0989743294 L -9315397.664865524,-1410432.8426452642 L -9319485.093928473,-1408667.592517642 L -9323480.239133552,-1402887.8763104146 L -9319245.979662247,-1392033.1581749301 L -9313805.016910745,-1384092.3437452677 L -9312016.780610641,-1378395.3420114925 L -9314016.969221216,-1371614.8144910035 L -9315261.743767265,-1348475.850576262 L -9317185.901165627,-1349120.5152203033 L -9319175.291785594,-1352244.0987383663 L -9324920.602024928,-1352455.255491935 L -9325605.550851777,-1343135.6941613497 L -9325159.82761064,-1337929.6988069643 L -9330040.964642944,-1333918.8416121171 L -9331791.129677195,-1329897.3569651514 L -9327790.641136557,-1327070.5034130737 L -9323382.389301145,-1325376.6528143613 L -9317952.335859738,-1325748.7847864341 L -9313468.052812112,-1314299.7969513552 L -9312071.10452215,-1304997.1316961264 L -9322447.528217463,-1296412.931782377 L -9325969.676906161,-1289306.4718301557 L -9331845.564908193,-1280698.7818553438 L -9335150.306631373,-1272237.4767091484 L -9336128.693635954,-1266150.751690878 L -9332117.295785218,-1246911.2284399234 L -9325002.199211678,-1233269.65673496 L -9319006.754076533,-1224604.6713038373 L -9310983.95837506,-1222722.4282017527 L -9312870.155827062,-1213611.8921454775 L -9318881.742288372,-1207834.7250026152 L -9329818.103022376,-1203004.5112745112 L -9341852.296574583,-1202108.2767248403 L -9361545.159773875,-1206678.298710089 L -9369578.864785444,-1207209.4227018452 L -9372720.634774104,-1209627.5183038875 L -9373655.495857786,-1214115.5822006536 L -9379286.703619054,-1220851.4000636707 L -9389608.80340286,-1229825.551066253 L -9395571.52060771,-1229210.9542243492 L -9405290.268751416,-1231159.9000569975 L -9421433.821306258,-1237278.9474642887 L -9428891.336633481,-1238026.6245094659 L -9439599.269772379,-1232776.793676692 L -9452046.68127441,-1225905.591640101 L -9482077.896903165,-1236636.539338241 L -9503162.253737371,-1244180.1738212279 L -9522126.864827896,-1250972.0944179713 L -9527187.33755987,-1253598.2915166197 L -9531329.201853814,-1253033.183009631 L -9534922.038419167,-1249470.612914124 L -9539025.83144726,-1243161.0069286106 L -9540373.910480766,-1241355.3071005214 L -9542559.000765549,-1239621.7326054843 L -9545015.821927356,-1239150.893832869 L -9545113.671759764,-1242152.8747918853 L -9554386.696662333,-1254651.0306054722 L -9569149.553572865,-1269704.0125511237 L -9625673.47217653,-1315937.4490843483 L -9646448.138187353,-1343607.9549226677 L -9657590.885257287,-1363540.365976651 L -9668206.534538314,-1373917.4614455565 L -9698732.342664665,-1395155.6120814583 L -9705771.408025995,-1403617.2913395402 L -9736020.03062027,-1432048.4222393786 L -9759104.687384544,-1448716.8202937467 L -9759398.236881765,-1455810.8779733982 L -9749924.168978823,-1464680.8841733194 L -9745276.802877184,-1464267.9239932806 L -9740227.12813582,-1457924.9316278799 L -9732035.794725288,-1450724.473072941 L -9728171.115963416,-1450668.623719526 L -9722485.584290642,-1454014.8669738953 L -9722338.865201777,-1457361.5037002247 L -9691383.586479945,-1458756.0425081612 L -9685833.864585938,-1460624.7885776472 L -9680219.020789819,-1465869.2924671334 L -9677354.436333233,-1473162.8738700736 L -9676870.753145736,-1480235.1738958259 L -9675691.21182129,-1485287.7968474445 L -9670717.679611629,-1490196.1974876001 L -9661656.71833902,-1491715.209636653 L -9654661.17889859,-1492240.2094366795 L -9652590.19109187,-1495557.8889310267 L -9654693.795509392,-1506295.6051012329 L -9658471.422429461,-1532403.086240402 L -9659259.564424278,-1539675.1069950229 L -9657965.92062177,-1545108.1781227393 L -9655144.973405577,-1547094.7611899432 L -9641409.372756084,-1548398.715411359 L -9615438.424234523,-1546199.3250996748 L -9610405.113458306,-1547850.1689696312 L -9599996.07315219,-1562684.7175790798 L -9590310.052938776,-1573594.7330698855 L -9583412.363330754,-1578485.5558601485 L -9577971.40057925,-1579970.2961154475 L -9571671.607956277,-1570278.7098238948 L -9549733.875905648,-1556374.8843251553 L -9546026.82554274,-1557248.189157759 L -9543858.099223105,-1558009.5022716296 L -9543167.695741205,-1560002.6634952407 L -9543553.640415786,-1566397.4284897614 L -9538069.263062874,-1572216.6962157586 L -9526698.08839783,-1577454.6981138638 L -9515261.791830676,-1586689.3397015147 L -9503765.605377473,-1599913.9557327556 L -9493791.490321886,-1607698.1854458903 L -9485350.133335032,-1610014.85183242 L -9482137.675469719,-1613633.4079389768 L -9484148.884709882,-1618537.2799349355 L -9483474.845193129,-1625507.7341337951 L -9480115.66823895,-1634534.966981738 L -9475212.823905943,-1639763.0626028148 L -9468766.312194103,-1641184.0432025269 L -9466222.439190498,-1644026.1285787656 L -9467570.518224,-1648289.9132860298 L -9466314.945687344,-1652986.9966920116 L -9460504.290906917,-1660686.265658573 L -9446621.971168563,-1667286.0588768462 L -9438686.115989398,-1665054.0803194488 L -9432076.52122355,-1656190.0771996465 L -9422743.717754424,-1650171.9784861638 L -9410687.70558202,-1646986.4609188193 L -9401327.74015714,-1648171.8646020764 L -9394658.366824735,-1653700.6111946977 L -9388663.03300908,-1655380.8672371856 L -9383336.17273564,-1653194.9451592574 L -9380520.568855006,-1654436.8027059706 L -9380221.676022226,-1659084.3873734777 L -9377465.850708148,-1660158.012070258 L -9372253.204232264,-1657645.5928715065 L -9367622.09077628,-1656999.3132385665 L -9363572.621659692,-1658218.91381303 L -9362001.79232511,-1660478.370238936 L -9361186.488374539,-1662811.0189829855 L -9358164.275518993,-1664559.3530378295 L -9347749.89187732,-1662833.5832956033 L -9336063.46041435,-1665526.2506337943 L -9323110.658424117,-1672639.015831286 L -9314506.21838325,-1675782.7621591766 L -9310261.04960185,-1674961.6295357575 L -9305167.960259076,-1678549.9798420242 L -9299243.203000586,-1686549.8449533386 L -9285719.665981054,-1690128.697488435 L -9257052.782031463,-1688401.0339052805 z" /></g>
</svg>
