<?xml version="1.0" encoding="UTF-8"?>
<svg xmlns="http://www.w3.org/2000/svg" viewBox="-7611035.369059041 -7099544.862469034 8412231.355282782 5750185.326186325">
  <g id="map"><g><path fill-rule="evenodd" fill="currentColor"    d="M 667242.9052428881,-6577267.430585682 L 655945.7580392236,-6577640.087833856 L 645359.4971037649,-6577989.183384937 L 639760.9059532988,-6578874.129484446 L 633814.4413941037,-6581529.714561581 L 633803.6434034967,-6581546.965991956 L 631085.8893552697,-6587041.272992739 L 627781.036312599,-6593675.568471096 L 628683.3921049694,-6597739.462844878 L 638597.7285939999,-6609296.898348271 L 640087.0720613231,-6612497.177149215 L 639065.1591358408,-6614205.68076344 L 640065.3647606184,-6619307.506113058 L 647685.9631418535,-6636595.743572835 L 648675.1481370425,-6643547.2602951005 L 645261.6472713576,-6648415.89314864 L 640348.0049477424,-6651328.058994558 L 624367.535446914,-6656470.278238582 L 616757.8463757767,-6663734.0272492515 L 613235.5863675867,-6670082.958473647 L 609680.7097485942,-6671873.1048515905 L 604440.901316955,-6669726.720019221 L 591200.0044845489,-6667363.874740864 L 580437.6361146553,-6670786.761886418 L 567718.4937355975,-6682813.0998178525 L 564772.5347312443,-6693576.281075429 L 563217.9580423161,-6701841.095332833 L 560043.5714428553,-6704693.917025904 L 555771.2407057002,-6700454.263065262 L 550357.439909951,-6693741.891521958 L 539682.1233818576,-6692940.104094433 L 536638.2032256062,-6694508.775950694 L 536116.4487722582,-6698213.216179265 L 535507.6424771098,-6701771.247934357 L 532572.4814633635,-6706177.450001051 L 529398.0948639027,-6708630.044476612 L 515852.739224177,-6696234.484859357 L 510819.53976745,-6696269.29552808 L 504459.96857792104,-6701029.937733904 L 501318.19858926244,-6705697.385573736 L 494360.7304146828,-6703036.096565711 L 488109.91836765903,-6697280.476385831 L 490251.48273153993,-6686486.380689551 L 486881.39646726445,-6684510.311747683 L 479173.85756371974,-6685493.829413447 L 470455.31504479056,-6689943.512040016 L 460736.5669010838,-6692626.5843416685 L 446006.32660135464,-6700070.621591954 L 425449.1788755424,-6694029.397811525 L 411164.6618169496,-6701265.363406628 L 399293.4399992641,-6701980.613282831 L 391901.157893646,-6707748.491352534 L 383932.68610368186,-6717513.110349964 L 389574.6918555573,-6723939.146018947 L 395032.0185722068,-6726169.721311597 L 416774.0509580226,-6727412.200553527 L 432591.43740483886,-6723501.916702209 L 461008.4090976009,-6702312.178960692 L 468183.2842376999,-6702477.788202556 L 475792.9733088373,-6705147.6517989 L 471922.83989191824,-6710917.5930061145 L 464813.1979734243,-6713668.758716437 L 454235.73127773823,-6719366.147424735 L 445810.6269365401,-6727377.256592529 L 465606.7946232895,-6729967.637941601 L 462867.33327435784,-6734117.407574206 L 460258.22704914515,-6741196.3005652735 L 439364.11522470164,-6765942.144835529 L 442929.78983430093,-6772652.928846065 L 448180.5075760382,-6787069.3671100605 L 454724.86912028387,-6799057.282710517 L 459942.9702512186,-6802279.945134366 L 468520.2483363311,-6810797.552589068 L 487164.14797387936,-6835792.660557403 L 499024.4604814671,-6856223.389761883 L 507851.65082341054,-6880548.256682654 L 520788.20016798767,-6947887.008588404 L 524614.8076640064,-6959378.339034477 L 530854.8217204233,-6972149.044095255 L 538682.0290765709,-6969741.002374941 L 544128.3351636317,-6966063.111423787 L 563413.5463876401,-6975721.62569989 L 596494.1368276955,-7000864.828429478 L 606245.5015822047,-7022692.171790957 L 615822.8739726039,-7032855.821751936 L 653838.92535647,-7052702.647539974 L 674841.7963234185,-7058654.568131948 L 707237.5492561139,-7060186.530080295 L 730653.7154639699,-7063734.9138919 L 758777.13765951,-7065021.533919011 L 769485.0707984058,-7052739.220923288 L 775692.4682440204,-7043769.602464884 L 785693.8565748512,-7038792.898668769 L 801195.9862237409,-7035382.797311558 L 800271.9231306658,-7017701.501453044 L 800380.5709536802,-6982907.654107929 L 799217.3935943813,-6976750.313908548 L 792270.8347298994,-6962125.484114943 L 784900.259924986,-6935927.037174405 L 782910.8693050194,-6918768.82656558 L 780704.0717195335,-6915499.25099133 L 751232.6818099775,-6915597.748085517 L 747036.3822850343,-6912624.842175886 L 746438.4852999836,-6908919.191875946 L 747927.8287673069,-6904508.737230978 L 747221.1726397511,-6900127.4312616475 L 744905.727231251,-6896561.67028951 L 746166.7544229573,-6890898.909734904 L 751276.0964113869,-6884463.933832429 L 760592.6472348575,-6880494.748079106 L 770561.3076353952,-6880129.145914498 L 775692.4682440204,-6880824.753908644 L 779442.9332083365,-6876242.40861169 L 783149.9835712432,-6869169.161523224 L 782867.3433841192,-6860287.191472972 L 781421.5258376962,-6848368.218238365 L 776703.4718594048,-6837371.3902018955 L 763103.7923081722,-6824715.547235295 L 757016.0633151605,-6820262.305898365 L 751297.8037120916,-6817988.130628613 L 748569.2516732577,-6814644.181899837 L 747286.405861356,-6810417.534451124 L 747579.9553585779,-6806670.269845695 L 757244.2682712867,-6796541.814329621 L 757016.0633151605,-6794230.029708689 L 754211.2574251331,-6788973.551568872 L 750493.4090716194,-6784029.0522210235 L 725533.4641654425,-6773761.599856047 L 715227.7283467827,-6774562.3809348 L 709346.4970091925,-6769450.672242145 L 707509.2801331403,-6768483.253498976 L 700986.6258895992,-6773180.754124376 L 686452.0852546846,-6778594.342493939 L 680962.2532467236,-6776727.751543211 L 677918.3330904724,-6773761.599856047 L 668764.8653210137,-6770163.116344607 L 662209.5944666703,-6764526.881122484 L 662187.8871659655,-6757278.177039762 L 673787.2667871339,-6738567.349646226 L 677863.8978594744,-6734896.89095905 L 678059.5975242889,-6727928.492660754 L 683680.0072949505,-6719182.650738989 L 689430.772189331,-6708237.257966235 L 690050.3764750864,-6701282.868773621 L 689387.246268431,-6694247.309699272 L 686419.4686438822,-6684301.39412063 L 676363.7564015442,-6661034.294769223 L 676244.1992684322,-6656574.381376967 L 677092.1198298046,-6653192.062114696 L 680538.2373062919,-6652255.746116017 L 683158.1415221116,-6650504.680469222 L 682386.2521729511,-6647410.73877058 L 663579.3808008814,-6631327.483092046 L 661155.1762498764,-6628517.48690972 L 653262.7356721241,-6629312.808145059 L 652056.1437114158,-6626624.57139176 L 653132.3805484051,-6622295.679921865 L 656198.0080053611,-6618504.489425455 L 662916.2505942261,-6616510.108225551 L 668677.9247987042,-6612445.404506027 L 673309.038254686,-6604485.841696429 L 667242.9052428881,-6577267.430585682 z" /><path fill-rule="evenodd" fill="currentColor"    d="M 470455.31504479056,-6689943.512040016 L 468813.797833553,-6683213.397585151 L 464487.1431848908,-6675793.433486517 L 449735.08426496614,-6665114.459949587 L 434374.3303693839,-6658109.967665528 L 426438.4751902222,-6658986.356394661 L 421002.96709376835,-6662648.764944383 L 418078.604070629,-6666495.303552689 L 409860.1087043432,-6670204.673871026 L 398554.16726090596,-6672072.983477508 L 391520.66787411453,-6668058.726962891 L 386498.26640799444,-6664254.840712596 L 382106.3785377274,-6664880.074045399 L 378801.5254950567,-6668058.726962891 L 376268.5618015466,-6672950.691823319 L 372931.2034675642,-6688375.895630253 L 381356.19648927153,-6691197.786279806 L 399576.0801863882,-6692251.875337726 L 413719.33281116444,-6686852.0878920965 L 432297.88790761697,-6684240.431110543 L 446506.3737539981,-6691633.286260416 L 457692.6467448325,-6685337.300096997 L 470455.31504479056,-6689943.512040016 z" /><path fill-rule="evenodd" fill="currentColor"    d="M 705030.6403511373,-7078035.867432225 L 689430.772189331,-7071685.955054847 L 685647.5792947217,-7073019.510985617 L 686582.5516978945,-7074855.691630681 L 700301.7883822389,-7078831.110601553 L 705030.6403511373,-7078035.867432225 z" /><path fill-rule="evenodd" fill="currentColor"    d="M 660046.3228020846,-7068325.654601114 L 638086.7721312587,-7065295.329641813 L 630661.8734148382,-7067586.239108833 L 629433.4628339343,-7069759.064195407 L 635423.3419945388,-7071046.660946447 L 654143.3841637897,-7071366.301564047 L 659926.7656689726,-7069475.951832801 L 660046.3228020846,-7068325.654601114 z" /><path fill-rule="evenodd" fill="currentColor"    d="M 568686.0827495727,-7040175.531927101 L 548107.1164035649,-7026505.437629633 L 546346.0420592153,-7028676.17774593 L 559608.7575118167,-7040584.853868741 L 568686.0827495727,-7040175.531927101 z" /><path fill-rule="evenodd" fill="currentColor"    d="M 592863.2289964913,-7054670.9452868 L 582492.2599562268,-7053185.579040678 L 577774.2059779355,-7055801.15925373 L 602810.293415815,-7063205.750295477 L 618649.387163336,-7065468.76963254 L 621454.0817338725,-7064446.687066076 L 592863.2289964913,-7054670.9452868 z" /><path fill-rule="evenodd" fill="currentColor"    d="M 543921.8375082102,-6996086.785009562 L 532898.5362518971,-6982961.850749034 L 526180.2936630322,-6986629.579789014 L 524223.519653868,-6989666.20364047 L 527637.0205195529,-6999905.505904057 L 543954.4541190126,-7016975.879941768 L 543921.8375082102,-6996086.785009562 z" /><path fill-rule="evenodd" fill="currentColor"    d="M 439614.1388010233,-6753151.624795362 L 450485.15499393124,-6743352.78972713 L 452800.71172192215,-6740223.446580099 L 453637.8342926875,-6736867.634692892 L 439820.7477759357,-6732970.379176386 L 425133.9220776159,-6744983.641998154 L 415426.08324400685,-6742151.857010596 L 411773.35679260717,-6747842.822564017 L 411719.0328811001,-6751396.196658622 L 421796.45242414274,-6754407.04427947 L 439614.1388010233,-6753151.624795362 z" /><path fill-rule="evenodd" fill="currentColor"    d="M 749710.7217318518,-7091483.727324052 L 739394.0766030943,-7090861.02282103 L 742340.1469269384,-7095824.704946315 L 751917.5193173378,-7099544.862469034 L 757070.3872266676,-7099544.862469034 L 749710.7217318518,-7091483.727324052 z" /><path fill-rule="evenodd" fill="currentColor"    d="M -7592636.149662256,-1362166.9744599573 L -7598039.041147909,-1349359.5362827089 L -7601142.739870716,-1355073.2652869746 L -7601702.565589916,-1365258.5310443141 L -7603914.817830451,-1369245.6013217503 L -7608513.203356138,-1371675.98072262 L -7611035.369059041,-1375029.9485597091 L -7610828.760084129,-1380092.0235798366 L -7594157.998420892,-1372037.5132772252 L -7592636.149662256,-1362166.9744599573 z" /><path fill-rule="evenodd" fill="currentColor"    d="M -7006170.451801656,-1978599.2331586226 L -7008866.498549178,-1976194.375710325 L -7011247.1771792825,-1976410.865915049 L -7012812.663178308,-1978736.0281940138 L -7013084.394055335,-1982651.751770599 L -7010828.72721339,-1981580.094155849 L -7009986.1499875765,-1980981.6004731308 L -7009279.605179511,-1980189.3548433324 L -7006170.451801656,-1978599.2331586226 z" /><path fill-rule="evenodd" fill="currentColor"    d="M -7039028.180621143,-1993485.0805236003 L -7040022.931590871,-1993068.6885375064 L -7041457.839827197,-1994129.482326333 L -7041196.906940778,-1996068.7636581955 L -7040028.274926429,-1996833.1012574488 L -7039120.575798501,-1996296.9055363548 L -7038386.757715192,-1994768.2970491727 L -7039028.180621143,-1993485.0805236003 z" /></g></g>
</svg>
