<?xml version="1.0" encoding="UTF-8"?>
<svg xmlns="http://www.w3.org/2000/svg" viewBox="-1012882.3544306286 -15852516.336648764 4756478.572206391 7880797.203147069">
  <g id="map"><g><path fill-rule="evenodd" fill="currentColor"    d="M 2295649.240813341,-10762247.48266101 L 2281158.1147798356,-10761138.631801762 L 2239380.689121556,-10757281.146348966 L 2257817.9797841916,-10730416.676154029 L 2263916.618087301,-10719688.265775774 L 2265134.2306775977,-10703958.480194198 L 2261949.04608753,-10674812.02998128 L 2253110.835115998,-10650002.383836918 L 2242805.0992973386,-10629885.125442779 L 2222921.9910882795,-10609990.487029003 L 2253110.835115998,-10590390.413046077 L 2232618.9206117904,-10563994.604268081 L 2223030.6389112934,-10553729.7055608 L 2211920.5084521617,-10555498.57657708 L 2192015.581622907,-10564614.58416076 L 2143900.292075803,-10586687.397970567 L 2120929.8491090834,-10594999.906485705 L 2100405.3179940735,-10597550.330967259 L 2089447.2499593652,-10597224.110401733 L 2045897.840646638,-10616189.194442982 L 2037483.6456155377,-10614062.961020662 L 2021851.1608429288,-10605846.226314567 L 2020122.5917898908,-10587427.719690733 L 2021111.888104571,-10541803.243630556 L 2023416.5355224637,-10506878.757562654 L 2017665.7706280837,-10486767.7010295 L 2011904.0964236052,-10473150.433194485 L 1994477.809376354,-10436572.690044515 L 1955298.5806331886,-10461406.413399355 L 1928566.6520725645,-10477914.976126537 L 1911412.2072218305,-10455955.797460778 L 1868341.1377610418,-10415871.573426656 L 1846294.646567906,-10337424.05408785 L 1845022.7100661024,-10334868.30528808 L 1831999.2201992155,-10315067.927228846 L 1815301.2965802243,-10305991.933524795 L 1802658.2967328692,-10301501.32382672 L 1795298.5199185628,-10278453.69303803 L 1812453.0760887878,-10245540.81265891 L 1821258.6704495177,-10228229.000726292 L 1829455.3471956078,-10200382.037518708 L 1827944.2964275796,-10182707.941034948 L 1826031.0483393157,-10171740.285807233 L 1807571.9390564843,-10149342.884815797 L 1768218.8292687002,-10090514.214966241 L 1731800.7691751714,-10029611.326318225 L 1716874.8292106276,-10012216.553225884 L 1723647.5070304906,-9961089.687375309 L 1711526.2616364835,-9946172.858662795 L 1686859.8662275283,-9929334.99080541 L 1674249.4829909755,-9922848.085996537 L 1660660.7127498407,-9919042.268383928 L 1618948.5203131654,-9912336.60301251 L 1626373.4190295858,-9858334.841066856 L 1629178.1136001223,-9834557.794985734 L 1629112.8803785176,-9820491.830642143 L 1624797.1350399533,-9806824.495959373 L 1619644.2671306233,-9780729.819433719 L 1611871.4950054737,-9688230.467611805 L 1605925.0304462789,-9678350.794773487 L 1597706.4237605021,-9653518.716697741 L 1571289.8633172952,-9594199.618521687 L 1550102.2019956296,-9555044.132870637 L 1519543.6659389865,-9499001.42041643 L 1544394.8517026587,-9481395.66854678 L 1567115.3824125472,-9468585.930304587 L 1571822.527080741,-9448917.713777918 L 1574953.3877593018,-9416175.249246843 L 1574192.407720239,-9393968.925855733 L 1565517.2798027191,-9374058.922641497 L 1558777.2185936589,-9360112.871388197 L 1554080.983235563,-9353323.766669687 L 1521815.6967460774,-9360087.949094407 L 1480505.7016296384,-9368785.549835443 L 1469808.6778008405,-9368860.154096114 L 1445772.7959877383,-9362596.639090588 L 1424084.9761939389,-9349764.174146919 L 1412648.6796267827,-9338960.190854901 L 1409583.0521698266,-9334665.547449393 L 1395135.4520572217,-9310147.442632616 L 1369447.143722784,-9266753.731142858 L 1355336.5077088105,-9247893.261144128 L 1359445.7553919533,-9221978.924435273 L 1335822.980209185,-9172136.203776868 L 1351270.7859465678,-9122146.601006739 L 1351933.9161532233,-9120513.654788416 L 1360119.7949087066,-9100406.612179993 L 1351531.7188329871,-9087475.505321892 L 1347922.5183024877,-9080534.882581262 L 1349150.9288833912,-9057694.744455034 L 1351401.2523897775,-9032246.13975523 L 1349400.952459713,-9017365.819387104 L 1348585.6485091432,-9000874.800376285 L 1369621.136086894,-8927182.052189661 L 1369381.9105011795,-8910010.00616782 L 1368338.2902749924,-8898953.25861757 L 1361848.2526422539,-8853656.820873389 L 1353129.7101233245,-8793229.838723635 L 1368349.1995850902,-8777437.403819041 L 1390025.998749301,-8758595.633868927 L 1402190.7700642084,-8751189.087908484 L 1420160.6301850034,-8728889.173122628 L 1433879.866869348,-8707167.878849266 L 1431977.416771691,-8692783.2526621 L 1428031.2521425602,-8676936.583278542 L 1422258.6686279844,-8665880.320713427 L 1416855.7771423326,-8650721.939975195 L 1414431.5725913274,-8639581.607345292 L 1411865.992287015,-8636583.080697581 L 1387884.43438542,-8635359.368371196 L 1375208.8179272625,-8631150.603140749 L 1368577.5158607073,-8626439.971786572 L 1370860.3446584048,-8601098.658396402 L 1385405.7946034172,-8554907.35513502 L 1397483.625396015,-8522236.716939254 L 1401364.5568035408,-8500779.399836155 L 1397374.86625351,-8479088.068509523 L 1393254.7092602693,-8468008.648630582 L 1393124.2428170594,-8453112.089218237 L 1389949.9675370895,-8423551.31013963 L 1380590.0021122093,-8408657.531889603 L 1368338.2902749924,-8392446.955904992 L 1354673.377502155,-8380369.513550118 L 1343834.9779200496,-8376976.413571253 L 1334529.3364066766,-8375578.690369196 L 1328278.5243596525,-8369448.306028706 L 1322614.6999875817,-8351465.881569259 L 1317385.6895465492,-8332622.112691345 L 1300296.4779174197,-8309518.728738896 L 1300752.999149163,-8301490.443800077 L 1307264.7440826064,-8274228.856828469 L 1313363.4937052066,-8243309.451132975 L 1308210.5144763861,-8214521.595279209 L 1303796.9193054142,-8184419.391391814 L 1296067.5617816742,-8164425.767103141 L 1285022.664544147,-8157299.810524183 L 1276912.8170008755,-8160856.547282438 L 1267737.6419307122,-8188285.098519907 L 1267531.144275291,-8194605.727926207 L 1265248.2041581024,-8203016.596317954 L 1239222.9317250338,-8211405.304928813 L 1234624.4348798546,-8211097.979914976 L 1224394.8415928974,-8216016.706348244 L 1218394.053122195,-8217406.115598379 L 1206088.017373471,-8220249.16553248 L 1195858.3127670232,-8244639.881866376 L 1184987.2965741153,-8264989.678977144 L 1183443.629195285,-8273512.909737828 L 1183813.2099047187,-8311763.494234408 L 1180486.6495613432,-8328841.833360138 L 1179464.847955352,-8347503.290785094 L 1172626.9369138842,-8332320.528079369 L 1176594.8088437195,-8308380.438788718 L 1168158.9065119147,-8298358.691716986 L 1157516.2065946236,-8293492.1488644965 L 1158516.3008999103,-8279531.996169961 L 1162886.4814694726,-8276890.790702573 L 1163799.63525245,-8262428.173339943 L 1161212.3476474327,-8241074.655293248 L 1140263.8005919913,-8193812.757056491 L 1136034.9957757364,-8188750.087795609 L 1133165.067983595,-8182392.271825085 L 1122446.1142151107,-8186616.2233228255 L 1108694.2609199635,-8173519.665007168 L 1095670.771053077,-8171421.6811989965 L 1090952.7170747858,-8186235.94350428 L 1072580.6596337545,-8205885.808784117 L 1063905.6430357255,-8204784.569817156 L 1071689.2131514822,-8195081.507728534 L 1079364.2467637153,-8182487.398951726 L 1075004.9755042505,-8174162.7591996435 L 1070721.7354569975,-8168734.267215086 L 1063220.6942088746,-8165921.410674641 L 1036380.1178252359,-8149507.781094515 L 1045935.7829149306,-8138501.447981585 L 1037825.935371659,-8126023.595689282 L 1028444.2626460743,-8124190.345025139 L 1023443.5684806588,-8118368.7652788535 L 1021704.2014370139,-8110471.0385228805 L 993906.9453494981,-8088015.968103478 L 948596.4616924211,-8030728.1215306055 L 925310.6506082842,-8014618.756618931 L 909047.5409203316,-7997905.408157346 L 894719.4979408386,-7998317.357050916 L 876706.2232186343,-7984137.635587832 L 831102.1900643355,-7971719.1335016955 L 800848.1128150119,-7977335.24241158 L 779780.0086264586,-7972406.912417199 L 768484.9764931191,-7982143.67180658 L 767017.3403265006,-7988837.28973373 L 767582.7320202396,-7992726.651845994 L 769474.2728077988,-7997390.345635587 L 765549.8154793729,-7999048.500700899 L 757287.7941921869,-7999852.081424797 L 753754.7361933899,-7995145.743585463 L 753276.3963414513,-7984466.715735406 L 749341.0297029275,-7981681.253885904 L 733654.1096993209,-7987788.010548738 L 729707.9450701901,-7993292.617868136 L 735350.0621415564,-8004458.348865023 L 745003.4657441674,-8014525.743070064 L 743253.3007099157,-8016590.4923638 L 741372.5579129632,-8022715.564966849 L 736665.4132447698,-8023490.572270097 L 722630.9197624986,-8022013.006040113 L 711227.2398061448,-8023821.382135749 L 674004.7850721439,-8046540.349926536 L 665307.8385344287,-8058688.963021195 L 635282.0775607222,-8078130.3710297905 L 621823.7737627969,-8098791.3407423915 L 614181.3567613664,-8121509.396825496 L 614757.5464457123,-8142154.371594339 L 618442.7781884237,-8175027.503986781 L 624748.0254664455,-8183173.647485986 L 651697.360992589,-8171632.597160243 L 678940.1346964637,-8152398.637534513 L 683201.6674430118,-8153344.846519011 L 691757.1269079288,-8168439.274108456 L 708357.2006945126,-8180587.465047443 L 703660.9653364168,-8183944.293124296 L 678983.660617364,-8170009.324310258 L 669808.4855472008,-8177727.778440777 L 655578.2924001149,-8193474.330190046 L 655578.2924001149,-8201587.60745488 L 662209.5944666703,-8209720.382461828 L 664416.503371647,-8220726.590046115 L 660937.7692843572,-8231132.592334139 L 662557.4678753993,-8245310.528589778 L 673559.0618310078,-8260390.355202969 L 690061.2857851841,-8275682.632738595 L 701943.3055934766,-8290470.830128018 L 714151.4915097933,-8299591.861306054 L 712879.5550079894,-8302638.220864515 L 698921.2040574208,-8296825.367838597 L 685571.5480825099,-8286979.748090143 L 669852.0114681008,-8270510.4502760405 L 650686.3573772046,-8257180.060038475 L 636521.3974517237,-8252020.769569398 L 629770.4269325656,-8247749.00175464 L 619388.6599016942,-8243596.749908581 L 608647.9988325051,-8224568.834191341 L 596929.0620782248,-8216430.222284037 L 575882.6651903761,-8215603.213431035 L 571251.6630538852,-8229496.493538941 L 577198.1276130802,-8279093.482094681 L 583557.6988026091,-8303367.978017713 L 590536.8742778935,-8320588.1429601805 L 601516.6496133064,-8323492.665809076 L 609191.5719060487,-8336134.814485431 L 615562.0524056753,-8336134.814485431 L 621106.2083251436,-8330295.575019565 L 642554.8025332283,-8324633.285125499 L 653143.1785390121,-8340749.014630338 L 666916.8504543547,-8343111.325376658 L 692028.9691044461,-8359408.079650806 L 691507.1033316072,-8362381.963804868 L 674515.6302153943,-8358791.881681525 L 664209.8943967347,-8358262.298100365 L 649436.1281761053,-8354166.394047891 L 641587.324838744,-8357094.780277847 L 637912.8910866396,-8369318.375833987 L 643826.7390350322,-8380347.752241101 L 667525.5454300123,-8406753.022212934 L 675700.6261948887,-8418350.86105541 L 680364.2449421821,-8429202.935530856 L 679625.0835233148,-8436595.950524779 L 683560.3388423477,-8451907.685880847 L 706737.3907839797,-8478747.568150647 L 725587.7880769495,-8491042.822698912 L 731773.4782218593,-8480461.93299634 L 726511.8511700244,-8447453.042028887 L 726566.1750815316,-8433865.056945112 L 741492.226365566,-8481956.730411556 L 748058.2952105165,-8493431.783601895 L 755537.5178384442,-8501540.12085948 L 773637.8444024489,-8506987.338126235 L 778758.0957009762,-8514613.601099622 L 757679.1935218159,-8512085.250714049 L 706541.802438656,-8493641.046384508 L 684984.4490880661,-8477231.149354698 L 679244.5935037835,-8464618.922207328 L 664286.0369284372,-8445647.789539402 L 657274.2448423506,-8433351.743404422 L 654176.000774592,-8415343.597359126 L 645750.896433394,-8405578.021685418 L 634390.6310784497,-8401966.843295498 L 618605.8612424359,-8379231.128027413 L 611648.3930678563,-8361008.486297926 L 595939.765763545,-8346520.932715444 L 585970.9940435166,-8335402.036201206 L 582698.8689311391,-8331437.245011591 L 577306.7754360945,-8320523.606075329 L 572827.9470435178,-8319759.999092559 L 568925.1970157966,-8326150.564008241 L 568272.9761192388,-8340242.146288271 L 569870.9674095762,-8362803.737611996 L 577426.3325692066,-8379079.26776656 L 581035.533099706,-8395010.555254092 L 576013.1316335858,-8409920.195837913 L 579491.8657208757,-8419342.617038142 L 586144.9864076265,-8419015.811644655 L 598505.3460678576,-8414722.481406832 L 611648.3930678563,-8415408.746178865 L 633249.1610198554,-8427216.674074775 L 629803.043543368,-8434127.207355322 L 620475.6947292904,-8435110.130926019 L 603060.3169921368,-8434127.207355322 L 588417.0172147172,-8445680.722407887 L 577035.0445590682,-8468721.705851907 L 571860.3580295427,-8499622.216870254 L 575317.3848161278,-8508476.480392596 L 617431.7745730393,-8540121.775479246 L 628770.3326272789,-8554529.887339972 L 622204.1524628376,-8555962.321743272 L 606397.6753261192,-8538481.885079669 L 583764.1964580307,-8527655.170204187 L 569490.4773900448,-8542714.990724245 L 562065.5786736243,-8558972.507817257 L 557793.2479364692,-8593415.116228366 L 559336.9153152995,-8611173.110597372 L 557554.1336702453,-8634596.08929382 L 567218.4465829541,-8642221.89317493 L 578024.2295542571,-8638166.485778803 L 588677.9501011367,-8636661.72538093 L 612844.1870379576,-8638716.905973813 L 666134.0517950964,-8652814.738659233 L 700486.5787369558,-8644435.868721744 L 714445.0410070152,-8645200.179056486 L 735806.5833732996,-8657351.276504911 L 754504.806922355,-8658601.29201237 L 768484.9764931191,-8649315.71054902 L 776127.2821750588,-8638683.092920654 L 777073.0525688385,-8624478.010840477 L 783541.3829008725,-8615023.228948472 L 787911.5634704349,-8618091.345974214 L 784432.829383145,-8629333.24868026 L 783704.4659548845,-8646785.457716687 L 839907.784425065,-8666612.941888176 L 846528.1771815224,-8674328.988952449 L 824199.045801263,-8677015.664926035 L 817817.7673110294,-8695171.219580697 L 829612.8465970121,-8722728.348825712 L 828503.9931492204,-8726308.277175754 L 816100.1075680893,-8711749.598711466 L 809990.6712743727,-8691312.573684447 L 812414.8758253779,-8675040.037368746 L 809958.0546635704,-8667492.507933171 L 798554.2633877257,-8664031.66316749 L 772844.2477525837,-8662780.715201573 L 756342.0237984072,-8669669.134488292 L 741057.3011150367,-8673414.852896592 L 735850.1092941999,-8678619.21915244 L 737589.4763378447,-8690237.84768067 L 734697.7299255078,-8692636.101860544 L 728370.7753467812,-8682188.592424164 L 722750.4768956106,-8661406.074319407 L 710607.5242008987,-8656630.65473369 L 677103.0291399023,-8664335.892967148 L 628596.3402631689,-8659795.003394993 L 606832.6005766484,-8649360.860487103 L 592732.7625532816,-8650721.939975195 L 568479.4737746603,-8669014.969476502 L 559010.860526766,-8683589.845870215 L 555477.6912084783,-8713065.931411795 L 556901.8014541967,-8726069.65349727 L 575795.7246680666,-8731550.663919196 L 585351.3897577613,-8731163.934804091 L 594298.2485523074,-8738162.957622949 L 586384.1006738505,-8742718.77901057 L 575252.151594523,-8751667.997671587 L 567664.1698240904,-8769634.053621216 L 556227.8732569341,-8775502.947669988 L 548563.7489547989,-8790866.7051343 L 546617.8842557324,-8814129.148180671 L 548813.7725311206,-8830347.900722053 L 554934.2294544255,-8835573.716861136 L 569620.9438332545,-8832020.204590365 L 608397.9752561834,-8834743.013510866 L 644902.9758720216,-8818261.182887014 L 669678.019103991,-8808930.332909603 L 719869.6397933714,-8813623.000627097 L 749264.9984907156,-8828330.077097474 L 743872.9049956711,-8832401.014837123 L 711988.1085257168,-8823893.081664715 L 682516.7186161608,-8824238.539931074 L 630564.0235824308,-8840884.201510854 L 609256.8051276535,-8846256.343349703 L 586308.0694616387,-8843887.660627017 L 574360.7051122506,-8848949.713557111 L 567338.003716066,-8865467.096417971 L 572534.397546296,-8897160.503032401 L 583416.3230493017,-8904019.247743867 L 589308.4636969896,-8895729.00252802 L 596418.1056154837,-8895205.42936187 L 603614.6880562872,-8908482.603737604 L 610506.923009262,-8916063.822240556 L 615964.2497259114,-8933238.818359245 L 636543.1047524284,-8949551.761319064 L 645239.9399706528,-8950935.397518674 L 657709.058773389,-8958467.695097547 L 665666.6212532554,-8956331.525933133 L 670765.1652510781,-8948778.174387978 L 677211.6769629166,-8942520.746998837 L 691180.9372235829,-8943282.146655805 L 732490.932340022,-8956366.61484663 L 736937.255441287,-8960216.859787984 L 744992.6677535606,-8970991.710169794 L 718804.3122664797,-8966184.048855295 L 697051.3705705662,-8958538.134338554 L 683071.2009998021,-8956413.720780322 L 681103.5176805402,-8965960.71636028 L 686256.3855898702,-8974449.820088152 L 694355.3238230438,-8983490.76888525 L 698290.6904615677,-8998926.657594364 L 707204.9326453113,-9005528.5913988 L 716836.6289472178,-9005174.092781605 L 736752.3537670793,-9007986.606989568 L 750808.6658695459,-9012006.534224028 L 774909.7809042529,-9009310.595455721 L 810827.6825256473,-9003390.25024685 L 833983.0271665745,-8989017.37132776 L 842701.5696855037,-8990314.204268275 L 851941.9779772719,-8994135.559774136 L 856127.3681921173,-8999351.688254526 L 837950.8990964099,-9005327.74703077 L 836918.1881803208,-9013851.630683905 L 839168.5116867068,-9020289.562318213 L 868813.8939603727,-9032163.072983056 L 901187.8282728726,-9034796.417497166 L 895621.853733209,-9044376.920862217 L 824699.0929539063,-9029922.09034981 L 806185.7710790586,-9039781.03965242 L 791575.0879124415,-9039697.885604292 L 782008.5135126491,-9034060.975792522 L 754743.9211885789,-9027242.960700156 L 749732.4290325566,-9032091.908355258 L 754917.9135526889,-9048856.944174258 L 771246.2564622462,-9076440.696703555 L 772605.1334863597,-9083222.01637456 L 780182.2059466947,-9089878.033263441 L 822546.7305994184,-9105964.19212092 L 842897.2693503182,-9124693.167089127 L 852072.4444204814,-9127072.290007938 L 861171.476958942,-9125762.29642464 L 875010.3820958894,-9127961.58826987 L 901753.1086471208,-9122591.053167457 L 914059.1443958448,-9099149.543294223 L 925125.8602535672,-9091803.036283692 L 959924.1104365629,-9062647.504369585 L 958369.533747635,-9071025.142706458 L 928245.8116220305,-9110602.736585796 L 916733.3725231716,-9120429.55831508 L 908145.2964474522,-9139966.734015506 L 911091.3667712962,-9158483.25901139 L 920777.3869847095,-9170866.460130176 L 955140.8232366669,-9177507.931566264 L 961304.6947613813,-9184688.521335624 L 961913.5010565296,-9197044.479729792 L 956651.8740046947,-9205508.271346252 L 944008.8741573395,-9205022.300867634 L 933583.4698860772,-9210272.933854159 L 930713.5420939357,-9223635.494117152 L 934877.2250080765,-9232679.703252781 L 954695.0999955304,-9249201.333270451 L 965544.4088877339,-9254570.074798575 L 984329.5729590987,-9260408.274764195 L 1016997.0567688204,-9247318.78674411 L 1019475.5852313328,-9240465.715566328 L 1010322.228781365,-9224013.208989015 L 1011246.2918744398,-9214797.343331875 L 1019247.3802752064,-9213775.338979116 L 1037902.0779033615,-9241491.305175018 L 1059839.809953992,-9245326.883505877 L 1068917.135191748,-9251304.265545992 L 1079451.1872860247,-9255059.687023597 L 1094518.5030038757,-9229948.255649714 L 1101117.1884596287,-9221930.288318979 L 1106074.356704144,-9218642.757520324 L 1110879.3512047448,-9197833.408926966 L 1115532.1719614314,-9196728.833065314 L 1122163.4740279866,-9207148.821808519 L 1134186.8695895865,-9212644.129568733 L 1151047.8762625898,-9216269.566159256 L 1178975.5987933155,-9210759.262305744 L 1191618.5986406705,-9214833.721613636 L 1197815.0867761874,-9214261.906397805 L 1191868.622216992,-9232984.705381334 L 1188183.390474281,-9238402.479619555 L 1193934.1553686617,-9255169.691536704 L 1199934.9438393635,-9261730.93840025 L 1219231.0643734697,-9273534.188253189 L 1237635.738425303,-9278810.951411359 L 1249648.2246768053,-9290040.235346572 L 1265780.8679215482,-9300376.099009471 L 1263247.904228038,-9308667.793564055 L 1258758.1665253637,-9318277.625731228 L 1248321.9642634944,-9318882.63842753 L 1244060.542836437,-9324131.446450727 L 1257312.3489789409,-9336620.53896145 L 1275456.0901443549,-9350520.698481733 L 1272292.6128549916,-9355991.456409333 L 1258649.5187023496,-9362186.81474114 L 1248289.3476526919,-9357518.116848044 L 1232885.0678362097,-9346751.828420237 L 1214969.6429464123,-9329755.099960513 L 1220807.3483631026,-9324810.847583633 L 1229776.0257778442,-9310566.648376253 L 1217263.3810542077,-9291651.264423765 L 1150950.0264301824,-9241662.376188044 L 1119326.1628466474,-9227083.571044369 L 1104737.1869807353,-9229350.758399356 L 1101258.4528934453,-9242957.046769304 L 1094529.3009944828,-9253041.067727813 L 1087310.8999334837,-9273865.567186657 L 1075037.592115053,-9273313.36127908 L 1068069.2146303754,-9268702.683127472 L 1065025.2944741244,-9275534.001897302 L 1070308.6288266638,-9297852.233583188 L 1080690.507177026,-9315537.889421651 L 1098105.8849141798,-9328926.598901695 L 1106454.8467236755,-9345128.256326014 L 1114303.7613805276,-9370911.69683792 L 1139491.9112428308,-9395528.833549028 L 1176159.9949126812,-9456793.647179313 L 1206033.5821424732,-9476458.222953904 L 1216980.7408670837,-9498013.628018672 L 1234581.020278445,-9507567.215608448 L 1249604.810075396,-9524450.238178484 L 1261399.889361379,-9526127.980906235 L 1282826.664949268,-9541361.230191702 L 1294969.61764398,-9559525.99304413 L 1287044.6717749161,-9560662.928095438 L 1268205.0724725535,-9548830.623685082 L 1257551.4632451646,-9544075.224050824 L 1258301.6452936204,-9563576.21280692 L 1263465.3111935572,-9583630.795897502 L 1278989.1481431515,-9602007.904466027 L 1353608.0499752632,-9655667.686970912 L 1361054.6559923885,-9646764.809356788 L 1369958.1001855254,-9631057.130041132 L 1392428.4959996014,-9634606.44329118 L 1418029.8638117295,-9665074.412016742 L 1437749.8889667764,-9698306.283427102 L 1427096.2797393878,-9692498.386490045 L 1415464.2835074167,-9678883.426044025 L 1392798.188028526,-9660006.605753804 L 1382318.4598457564,-9657027.40584732 L 1376339.3786757588,-9659475.669182176 L 1373012.8183323834,-9672066.561860638 L 1365153.1056849246,-9676156.045882417 L 1358054.2617570374,-9673325.510838097 L 1350738.1221831217,-9682287.952647833 L 1349433.5690705155,-9704470.929014798 L 1358793.5344953956,-9737627.934876751 L 1366207.6352212091,-9759645.10220901 L 1374219.5216125825,-9776354.987007769 L 1405712.9187529075,-9823992.224188231 L 1412518.213183573,-9850129.424673831 L 1426759.3156407562,-9863961.820899444 L 1445261.8395249972,-9860881.24842054 L 1450838.612055268,-9864882.241308806 L 1444489.9501758367,-9882099.697250035 L 1424324.2017796533,-9895781.299980786 L 1423084.881888652,-9904389.254009513 L 1490246.1570740498,-9927046.589465156 L 1522228.8033764113,-9926279.178225787 L 1531719.235244501,-9937607.34571062 L 1549101.9963708522,-9944877.10695939 L 1562277.7713011438,-9958763.697540235 L 1555483.3861805766,-9964905.23912587 L 1523000.6927255718,-9952127.624241339 L 1502693.5685760814,-9946132.224563899 L 1493507.4841958203,-9946321.299527766 L 1486343.518365819,-9941936.025699023 L 1460383.4791543554,-9940263.50096047 L 1454741.362082989,-9995762.395047152 L 1458807.1951647226,-10026060.438949963 L 1468482.4173875293,-10025432.454015076 L 1470689.214973015,-10054475.783873893 L 1481864.5786537519,-10071633.118839439 L 1497290.6770904297,-10075482.224366492 L 1505063.4492155793,-10082842.623505712 L 1516293.2481273138,-10097849.048340524 L 1534871.8032237664,-10094359.969678113 L 1553961.4261024508,-10097711.180489471 L 1549232.462814062,-10104791.466610499 L 1525533.6564190818,-10113924.900805973 L 1519685.0416922942,-10129636.200443808 L 1528044.8014923967,-10138427.879914504 L 1537143.8340308573,-10144897.053102361 L 1545134.124441017,-10146063.932365187 L 1560962.30887844,-10176915.172477242 L 1570583.2071897394,-10190113.260911118 L 1581356.37355024,-10187820.911692403 L 1596358.4560464865,-10201488.329673167 L 1611088.6963462154,-10196826.927186867 L 1625340.7081134967,-10205774.372066207 L 1644810.709692222,-10211689.573271956 L 1716070.4345701558,-10213975.765815968 L 1718190.291633332,-10226697.039799152 L 1703199.1184471836,-10229649.001464296 L 1650246.217788676,-10232925.732007435 L 1623209.9417402227,-10232672.512716146 L 1611827.9690845734,-10229367.68456689 L 1607642.578869728,-10233811.928493774 L 1608381.8516080861,-10241441.198498381 L 1618209.2475748071,-10253535.544281222 L 1622872.9776415913,-10266923.335494865 L 1642516.8602649355,-10299711.307921799 L 1665552.6477727508,-10321633.339146236 L 1683207.2510956193,-10316021.58039537 L 1701981.5058568867,-10295096.877639724 L 1715363.7784426,-10292485.852629356 L 1721592.8831889192,-10285735.594413266 L 1731344.2479434283,-10257007.186290395 L 1735964.4520893125,-10256075.521410096 L 1733877.2116369386,-10283680.634800319 L 1746770.2350606152,-10306219.612389658 L 1743411.0581064376,-10312463.32680254 L 1724038.9063601196,-10304300.590383595 L 1709199.9069178856,-10312790.59669289 L 1697480.8588441145,-10329773.669933485 L 1694132.5912000346,-10345340.308470119 L 1701416.2254826382,-10360755.813180186 L 1708286.7531349082,-10368526.750612212 L 1703623.023068124,-10377598.980318084 L 1674336.4235132851,-10353308.460388059 L 1653616.3040529513,-10347671.176056907 L 1645452.1325981726,-10351061.550688552 L 1649876.6370792422,-10373061.519530874 L 1647408.906607337,-10390567.896282867 L 1675184.4553941484,-10433863.929625973 L 1684740.009164352,-10438891.008725487 L 1700339.9886456488,-10435399.28704402 L 1714418.00804882,-10423155.3257932 L 1726191.3800340984,-10425107.730287023 L 1738964.8463246634,-10431648.410033543 L 1737225.4792810185,-10443399.90000254 L 1709526.07302591,-10448071.05110923 L 1702394.6124872204,-10457844.910704894 L 1704971.1021016305,-10467457.723450812 L 1723984.4711291217,-10477623.345061854 L 1742889.3036530893,-10496011.931641208 L 1764555.3048266934,-10501348.246798167 L 1781992.3898645518,-10515300.081798581 L 1785351.5668187297,-10512135.325249992 L 1788297.637142574,-10506659.03432606 L 1794559.3584996955,-10455127.762845708 L 1810137.519360797,-10413372.916961728 L 1815877.4862645702,-10411856.951395437 L 1809898.4050945728,-10447360.161252761 L 1815475.1776248433,-10457597.879955627 L 1822541.404941928,-10465391.361430043 L 1824748.2025274138,-10474272.117656197 L 1816649.26429424,-10477302.774113525 L 1810028.8715377827,-10490081.369168833 L 1800571.0562804954,-10531086.816928295 L 1803799.7667914636,-10541773.717061322 L 1824291.6812956706,-10563743.726329971 L 1850001.696930813,-10568807.796062276 L 1877396.6443786023,-10553390.774317518 L 1887017.5426899018,-10553213.921027888 L 1902900.1623583224,-10557356.080068177 L 1929849.4978844663,-10570033.858122235 L 1945699.500942085,-10574865.822798079 L 1953972.3202198774,-10574851.290931933 L 1956016.0347513515,-10581269.802825676 L 1948352.021768707,-10585399.22856768 L 1945884.2912968015,-10589412.515960013 L 1939872.5935160017,-10591724.133890303 L 1914956.1745307248,-10584851.344741823 L 1846218.5040362033,-10587027.978494108 L 1839587.2019696482,-10594377.1736733 L 1838369.5893793511,-10607108.434812967 L 1845664.1329720528,-10625416.197757041 L 1853676.0193634266,-10635520.287433645 L 1879592.643973481,-10653754.486292275 L 1907031.11734217,-10656222.411633154 L 1935937.226877478,-10688745.901244389 L 1946982.2354344954,-10713229.263986528 L 1953243.9567916174,-10751135.379913695 L 1970865.9435036832,-10781935.57670055 L 2015045.8664122638,-10799510.938809637 L 2016828.648057318,-10807306.066754717 L 2012143.3220093197,-10823429.161851153 L 2012512.9027187536,-10852571.782082986 L 2024623.238802663,-10886665.129423464 L 2032667.8531243298,-10898558.432680884 L 2036385.7014778438,-10899984.803167045 L 2045908.7499567356,-10888800.905304732 L 2057475.5129671015,-10865068.98017012 L 2075608.4561419087,-10851509.63026058 L 2099372.4957584934,-10849170.264168693 L 2105710.359647318,-10855836.515117196 L 2087240.4523738795,-10869358.020870158 L 2073260.2828031154,-10887067.576421576 L 2072151.4293553235,-10904900.815759636 L 2078782.7314218786,-10914370.913810149 L 2089088.5785600292,-10913314.67208488 L 2102025.016585116,-10915318.80755775 L 2114081.0287575177,-10927355.707209988 L 2115831.3051112606,-10935828.33947603 L 2116331.352263904,-10947339.51666376 L 2119342.6558093526,-10959073.56837177 L 2137029.8757430236,-10987139.356373532 L 2191548.1510810666,-11005457.40633545 L 2195494.3157101967,-10998014.293383872 L 2192548.245386353,-10943890.349627912 L 2186286.5240292316,-10909106.603299025 L 2186482.223694046,-10883787.850765688 L 2197092.3070005346,-10909106.603299025 L 2211322.50014762,-10978868.88390252 L 2221997.9279952045,-11011868.657036224 L 2234064.7381582134,-11030885.997490466 L 2242685.5421642265,-11035186.31825098 L 2251219.294328439,-11045061.259244248 L 2262481.709850976,-11050939.30082316 L 2265927.827327463,-11043351.206743632 L 2269493.5019370625,-11025767.497037712 L 2263427.4802447557,-10964377.00893728 L 2264036.286539904,-10945076.312969083 L 2257241.7900998453,-10919297.645959858 L 2231260.043587677,-10862169.861576939 L 2232455.8375577787,-10854912.315912465 L 2238326.2709047617,-10857607.984299114 L 2248392.7811377067,-10866997.039842872 L 2280571.1271048826,-10921287.937534457 L 2308705.34729103,-10914417.684928034 L 2309053.220699759,-10918877.689173466 L 2300030.2193735098,-10934877.904725285 L 2289007.029436688,-10950243.785425838 L 2285691.37840341,-10969308.659896271 L 2287169.812560635,-11020415.96286586 L 2295638.331503243,-11040755.007388653 L 2319935.1462027645,-11038618.620772049 L 2334491.5054578744,-11041435.732892642 L 2341285.8905784423,-11032182.088224187 L 2355863.9571342566,-11032846.090641642 L 2365952.285987397,-11069764.750943217 L 2385900.627418061,-11073008.097495005 L 2403413.854987622,-11048578.062680403 L 2424492.8684862726,-11032182.088224187 L 2441429.906371488,-11008670.17957191 L 2446213.193571384,-11015084.463622373 L 2437070.6351120234,-11070098.424041176 L 2427069.2467811927,-11090252.069189547 L 2405370.740316277,-11100750.660264038 L 2382280.6288969545,-11125738.19741476 L 2376258.021806057,-11136837.633666616 L 2377312.5513423416,-11145109.720039874 L 2397684.9087134367,-11153102.562573059 L 2424568.899698485,-11143952.810350811 L 2448528.750299375,-11164875.46894166 L 2455084.0211537187,-11159139.67022295 L 2473456.07859475,-11170100.385951191 L 2484870.6678612013,-11155355.751789091 L 2491860.752646583,-11159719.233257016 L 2495915.565098728,-11179495.620126259 L 2525234.7812643703,-11191800.067647772 L 2543835.154981018,-11180448.831355691 L 2553803.926701046,-11168712.9345804 L 2558435.0401570285,-11146219.090609575 L 2565522.8634553268,-11101948.301097248 L 2580046.6060996344,-11078178.31918211 L 2589058.698115785,-11066538.896705706 L 2599744.923953976,-11063314.249596013 L 2604897.791863306,-11075155.009229278 L 2594885.605541868,-11089439.105508424 L 2592189.5587943457,-11102922.72581604 L 2596983.75530434,-11136500.661336532 L 2602582.346454806,-11149740.322850475 L 2633956.0751425284,-11200091.13162062 L 2660220.573161312,-11226359.16893124 L 2675951.0190858184,-11228555.557926131 L 2703454.7256761123,-11287815.25318263 L 2711249.205101967,-11298641.419750648 L 2718424.1915615564,-11301140.986858638 L 2716586.974685504,-11315745.315119565 L 2701519.658967653,-11324998.683217349 L 2700997.9045143053,-11343145.946284687 L 2720848.3961125617,-11365293.07368223 L 2744916.894536466,-11402622.640266335 L 2756798.9143447583,-11405161.007885227 L 2764245.6316813747,-11394763.248930583 L 2787683.616509426,-11377907.29601687 L 2802044.1647802307,-11358654.382815626 L 2812447.750431298,-11348974.186055154 L 2819209.630260553,-11350978.678672222 L 2824797.3121009213,-11365425.69647757 L 2831515.6660092776,-11372203.809610419 L 2846419.7873536255,-11368398.83127756 L 2855312.3222366646,-11359102.489486752 L 2862237.173800442,-11357875.10816768 L 2868498.895157563,-11352254.69821506 L 2869977.329314789,-11339919.655787973 L 2857084.305891112,-11326500.726059452 L 2835113.957229679,-11291033.568513753 L 2813437.046745977,-11250933.545807237 L 2806283.8789065834,-11229905.997993067 L 2799282.9961305945,-11175005.983149083 L 2782345.846925888,-11140113.219921708 L 2781063.1124334773,-11115744.913249949 L 2787868.4068641425,-11104296.447761796 L 2806566.519093707,-11113281.080391394 L 2829613.2159116203,-11145800.997885881 L 2835363.9808060005,-11180480.927230405 L 2892980.500211802,-11275384.445634522 L 2920005.866950157,-11328350.086948156 L 2950738.3953709104,-11372519.711412521 L 2967925.456832447,-11381701.278052982 L 2976013.4857555227,-11352387.065111155 L 2969501.74082208,-11314278.73603245 L 2956445.63434439,-11290081.129176924 L 2966066.53265569,-11279022.551796991 L 2964229.315779638,-11250427.361498559 L 2961228.9215442864,-11234594.970211321 L 2959315.562136532,-11218052.192730296 L 2959435.2305891346,-11203494.732777476 L 2968458.120595893,-11207370.428622415 L 3004441.255438892,-11237233.799791418 L 3013562.106597548,-11269701.117792862 L 3022019.8275495484,-11294137.999381142 L 3026074.6400016937,-11315316.953354908 L 3040065.718882555,-11335438.073585177 L 3066460.572025058,-11335587.039336167 L 3067482.48495054,-11343510.318149159 L 3035575.981179881,-11371572.390732167 L 3031814.6069054673,-11384248.494515393 L 3042544.3586645587,-11401153.819352806 L 3072091.779786326,-11433565.36283891 L 3087278.6526372894,-11429976.595976634 L 3096355.977875045,-11422604.498287437 L 3132719.602737576,-11416997.097113887 L 3160614.7086574994,-11393829.533903947 L 3159549.381130608,-11357775.582181975 L 3153331.074374895,-11342765.325789267 L 3147210.7287710817,-11333537.35591901 L 3111488.5268145017,-11306389.650672145 L 3105596.3861668133,-11293037.425165411 L 3116815.2757684505,-11288439.22634246 L 3140949.0074139596,-11301930.586875902 L 3147199.8194609834,-11289687.009219697 L 3139513.9878581436,-11259133.724593591 L 3138209.5460650283,-11213520.965093039 L 3135426.558795196,-11187043.591648571 L 3135426.558795196,-11162989.729055582 L 3138426.9530305476,-11150110.235806797 L 3148123.8825540585,-11201306.459630629 L 3151439.533587336,-11214478.646317458 L 3165626.3121330123,-11233894.568838306 L 3170909.646485552,-11273172.800357345 L 3184781.0569138112,-11320593.197855277 L 3200413.65300591,-11348295.073526504 L 3209512.685544371,-11355918.146246776 L 3239658.11497068,-11354823.758346703 L 3252594.664315257,-11344370.991716657 L 3264009.253581709,-11321203.650902852 L 3272532.096435824,-11311972.007511802 L 3299405.400749755,-11302160.679666586 L 3308634.8997314256,-11289884.066325748 L 3310363.357464973,-11282580.988557562 L 3316929.426309923,-11281137.708533142 L 3335062.3694847305,-11298575.760482151 L 3346835.7414700086,-11301470.087939465 L 3366044.8101623137,-11274303.02443267 L 3362185.586055493,-11254248.417799 L 3363316.2581234802,-11247897.676384054 L 3386569.341277324,-11249186.801761787 L 3405919.7857229374,-11241340.878126064 L 3442707.4265258997,-11200544.77988428 L 3446523.2360313116,-11181563.673059689 L 3444686.019155259,-11158624.141581845 L 3391787.442408259,-11133419.374356931 L 3368860.4140429487,-11109426.727206597 L 3331333.6118211187,-11100191.811765457 L 3203903.185083807,-11116209.009617468 L 3206479.674698217,-11098898.690576034 L 3295209.101224812,-11061155.148648368 L 3300275.0286118328,-11050416.349670615 L 3297437.717430493,-11027852.286575017 L 3297394.1915095937,-11009804.576163698 L 3299057.5273410263,-10997526.642340237 L 3305590.9795751744,-10986087.191579597 L 3316440.2884673784,-10980719.891311094 L 3338508.4869612176,-10983544.274925407 L 3349412.1197649282,-10977410.470263604 L 3356858.8371015443,-10986526.75284914 L 3359630.9150612783,-11017213.460342804 L 3366034.0121717076,-11024014.763422139 L 3378416.0791326435,-11015084.463622373 L 3383808.172627688,-10982304.345266601 L 3387265.088094782,-10978916.100494092 L 3393505.1021511992,-11002277.737341588 L 3405767.611979023,-11000593.885860939 L 3419117.2679539337,-11002545.258371977 L 3436402.2905673687,-10998596.041778773 L 3442457.402949578,-10956306.387034498 L 3442272.6125948606,-10941612.959283272 L 3439402.68480272,-10927386.628672177 L 3435402.0849425904,-10920121.715308461 L 3427400.996541824,-10916966.082886603 L 3408094.0780171114,-10918255.920519166 L 3381851.3986185235,-10934877.904725285 L 3364914.2494138177,-10950556.287238775 L 3359641.824371376,-10951212.36384473 L 3357369.7935642856,-10949307.005715935 L 3361457.222627233,-10933553.326053772 L 3360370.1877996367,-10921505.4718709 L 3357815.516805422,-10908407.842474312 L 3354260.640186429,-10896543.990908515 L 3349303.4719419144,-10886587.811620478 L 3338921.5935915513,-10873804.105788957 L 3320962.6427808544,-10863680.849587126 L 3271488.476209637,-10844032.906525273 L 3267564.018881211,-10835366.01427491 L 3251637.98461138,-10780990.75767145 L 3247289.511342522,-10773042.980523553 L 3241462.71523593,-10766320.414060198 L 3224460.3328096196,-10757615.398353772 L 3216231.039452727,-10769635.392772062 L 3209632.242677483,-10787849.906300327 L 3211154.2027556086,-10805960.33153243 L 3231037.3109646677,-10840835.196316166 L 3249615.9773806115,-10865654.954046562 L 3254855.7858122503,-10874267.472401295 L 3265378.9285964295,-10899318.08937147 L 3244028.2955402425,-10962608.949540434 L 3206044.860767179,-10981880.802657098 L 3162778.091641576,-11011269.957395589 L 3146906.3812832525,-11026999.531941632 L 3122207.369263495,-11059504.41996357 L 3104694.030374443,-11088817.53152506 L 3088876.755247118,-11089853.73746333 L 3071493.8828012752,-11082476.422277959 L 3044370.666230513,-11055728.238011701 L 3028520.663172894,-11042306.188478975 L 3019823.8279546695,-11038349.675548065 L 3017725.6781921983,-11037764.189463565 L 2998310.00052498,-11045362.257485362 L 2976709.2325729807,-11046962.183265131 L 2959348.1787473345,-11044776.166532507 L 2952793.0192124816,-11041119.024967737 L 2928615.761646072,-10998108.67110744 L 2911689.521751464,-10976485.353913141 L 2902373.0822474845,-10969058.159588533 L 2895589.4951175237,-10956587.792731892 L 2890023.52057786,-10936124.539689576 L 2877630.5443068263,-10865593.353344781 L 2868390.247334549,-10839160.279076507 L 2866324.7141828802,-10823061.219884416 L 2868498.895157563,-10774473.57114962 L 2866292.0975720775,-10747723.487152638 L 2854975.358138033,-10725715.431146896 L 2847028.593648774,-10715824.123421721 L 2836516.248855202,-10713802.34718117 L 2822742.68825935,-10708192.832400324 L 2810719.29269775,-10695513.03901793 L 2802229.066454438,-10678262.718016578 L 2792662.492054646,-10639742.444907524 L 2776464.615588298,-10625594.923301794 L 2760995.102550211,-10629631.824546695 L 2749950.205312684,-10643787.695559844 L 2726272.9948989176,-10654756.619513087 L 2708629.300886147,-10661759.412104042 L 2688822.335208791,-10676912.34843205 L 2671374.229541344,-10688460.555402314 L 2655415.578660711,-10690760.282773836 L 2646349.162733053,-10676146.92953149 L 2639054.619140351,-10662478.146805407 L 2611833.552737181,-10651377.456781488 L 2596418.363610601,-10642608.297358869 L 2576415.69826843,-10640652.662526762 L 2568327.669345354,-10650375.818006989 L 2539312.8006675416,-10656790.739398869 L 2504764.685380358,-10664424.99677203 L 2494774.206359625,-10664320.09565636 L 2491654.143671671,-10681745.282784196 L 2482468.170610901,-10706158.189173328 L 2457899.625034353,-10748541.987299697 L 2447854.710782622,-10763569.378478713 L 2428960.898888243,-10798945.635960814 L 2406925.2056857143,-10835396.835547308 L 2403805.254317251,-10836302.980301745 L 2389053.1953973267,-10837531.704864569 L 2367409.012843918,-10836333.805809101 L 2353711.4834602783,-10828029.797673464 L 2345068.9721535607,-10817621.63662613 L 2343568.8306956305,-10808988.530766854 L 2351939.499805831,-10775935.015425146 L 2349341.302890716,-10767719.079674685 L 2345025.5575521514,-10763767.000235673 L 2325381.5636093165,-10773012.751231894 L 2301628.3219833383,-10772403.830905903 L 2295649.240813341,-10762247.48266101 z" /><path fill-rule="evenodd" fill="currentColor"    d="M 551998.9571211885,-8645267.635595672 L 542138.944543665,-8642356.751747454 L 534224.7966652081,-8644840.574870491 L 537051.3098559402,-8666861.167800428 L 541193.1741498855,-8670470.05849689 L 547183.1646299807,-8671744.742029984 L 553618.7670317214,-8659941.491604256 L 551998.9571211885,-8645267.635595672 z" /><path fill-rule="evenodd" fill="currentColor"    d="M 566153.1190560624,-8468535.176159093 L 566511.9017748892,-8441885.900567226 L 556260.4898677366,-8443897.855073903 L 551651.0837124595,-8454108.769580115 L 550314.0253085415,-8460638.755259918 L 551118.4199490137,-8476088.697960867 L 548813.7725311206,-8492055.713839922 L 551835.9853866671,-8499997.090747666 L 555553.8337401808,-8501077.132580651 L 562185.1358067363,-8486850.494801776 L 566153.1190560624,-8468535.176159093 z" /><path fill-rule="evenodd" fill="currentColor"    d="M 3334703.5867659035,-11002891.439768571 L 3313559.4513651384,-10993470.252246305 L 3311113.4281939375,-11001223.549141172 L 3315755.4509600177,-11013303.168779798 L 3321310.5161895836,-11038048.987956066 L 3330007.351407808,-11037036.533334494 L 3338802.0364584397,-11027583.76730959 L 3345726.8880222165,-11016314.562548712 L 3334703.5867659035,-11002891.439768571 z" /><path fill-rule="evenodd" fill="currentColor"    d="M 1332268.2149096834,-9775367.108246107 L 1324908.438095377,-9767060.898817223 L 1311156.5848002299,-9769442.491018258 L 1309689.0599531021,-9776565.691363357 L 1313613.5172815283,-9790860.363712925 L 1321962.479091024,-9796816.129838904 L 1332757.3527522292,-9795640.315782063 L 1336192.6722381096,-9789659.06060455 L 1332268.2149096834,-9775367.108246107 z" /><path fill-rule="evenodd" fill="currentColor"    d="M 942965.2539311526,-9265736.792971386 L 930202.5856311944,-9265148.58115813 L 922516.7540283544,-9270762.414827153 L 940791.0729564689,-9281991.314631052 L 969468.86621616,-9292684.257821113 L 972197.4182549936,-9299489.492327861 L 975676.1523422836,-9300326.924240578 L 980633.4319062895,-9291958.804193635 L 981263.9455021428,-9280517.764856229 L 978111.2662033865,-9274859.294054097 L 942965.2539311526,-9265736.792971386 z" /><path fill-rule="evenodd" fill="currentColor"    d="M 901992.2229133447,-9183513.539992755 L 891077.7921190275,-9183343.85850367 L 878119.4241542548,-9187172.596238883 L 869998.7786203763,-9195297.165548911 L 868737.7514286701,-9202471.31244799 L 883696.3080040163,-9211403.767089909 L 898741.8051016718,-9216634.67861694 L 905710.1825863492,-9206808.585619757 L 906242.8463497951,-9190663.674003536 L 901992.2229133447,-9183513.539992755 z" /><path fill-rule="evenodd" fill="currentColor"    d="M 2609387.52956598,-11339572.076932771 L 2607202.4392811996,-11328961.241428904 L 2603441.065006785,-11318647.008080976 L 2594320.32516762,-11307772.585104816 L 2567936.270015725,-11264889.922990689 L 2552434.140366835,-11258006.032855319 L 2547520.49804322,-11251309.02931264 L 2541324.0099077034,-11247310.18142015 L 2522060.5059843995,-11253153.98259794 L 2516418.3889130335,-11244504.076409636 L 2511091.6399590843,-11238732.819742303 L 2497144.086999123,-11236500.762473058 L 2488958.096924149,-11238374.386273375 L 2467813.9615233834,-11254182.853735585 L 2455236.1948976335,-11271338.475480657 L 2448419.99115687,-11286042.824686328 L 2467955.337276691,-11285763.87675345 L 2474923.6034418778,-11289325.86486282 L 2488023.235840467,-11286223.306771308 L 2495893.8577980236,-11301338.378213845 L 2512559.1648062123,-11299512.89651398 L 2544552.6090991804,-11310044.826170051 L 2556293.3644736563,-11304167.838759422 L 2583134.0521767857,-11339473.159125177 L 2591537.3378977883,-11338546.721912982 L 2604386.835400565,-11348659.384142652 L 2609387.52956598,-11339572.076932771 z" /><path fill-rule="evenodd" fill="currentColor"    d="M 2848257.004229678,-11451031.959872238 L 2878000.2363357507,-11437877.156089148 L 2888186.415021299,-11438145.96132254 L 2902949.2719318303,-11413617.836546248 L 2910656.810835375,-11415792.373276994 L 2909200.083978854,-11400836.574154234 L 2894274.1440143106,-11393762.942487363 L 2871075.384771974,-11389462.187758498 L 2867607.448675291,-11386496.81717863 L 2847778.664377739,-11388878.973739106 L 2836646.7152984114,-11408970.351279618 L 2818046.3415817637,-11413952.466763046 L 2818078.958192566,-11420411.30766536 L 2830124.172374361,-11435662.155316055 L 2848257.004229678,-11451031.959872238 z" /><path fill-rule="evenodd" fill="currentColor"    d="M 2628846.7331540985,-11249904.834474115 L 2630923.064296375,-11234285.450568838 L 2631705.8629556336,-11221432.21560325 L 2621323.984605271,-11202878.54549664 L 2597396.861934674,-11178623.256613052 L 2598766.5369493943,-11172116.991536079 L 2590482.8083615038,-11165907.187147662 L 2578068.124789765,-11161330.197283838 L 2571512.853935422,-11165778.420134693 L 2572415.0984083014,-11186526.26626362 L 2570436.6170984325,-11192755.012463678 L 2561011.4184519476,-11184521.258636398 L 2551205.7297859318,-11195086.094146838 L 2551194.8204758335,-11205732.203153754 L 2553782.2194003416,-11214982.148360895 L 2562848.635328,-11229076.105320364 L 2577981.072947965,-11238797.900481714 L 2587960.7539780913,-11235148.672132783 L 2621204.427472159,-11272599.5413378 L 2624791.809382463,-11264742.507474326 L 2628846.7331540985,-11249904.834474115 z" /><path fill-rule="evenodd" fill="currentColor"    d="M 2673624.55304773,-11255947.283833317 L 2652425.9824159667,-11242612.39155136 L 2640120.057986734,-11254101.2340549 L 2634945.3714572084,-11265887.742497344 L 2634184.3914181455,-11292133.816456335 L 2637065.2285203845,-11308151.238889309 L 2647001.3836296103,-11316437.705075847 L 2653469.602642154,-11310374.361192783 L 2655198.171695192,-11305303.257853717 L 2666819.2586170644,-11300334.975857917 L 2680386.321557495,-11283844.153395696 L 2673624.55304773,-11255947.283833317 z" /><path fill-rule="evenodd" fill="currentColor"    d="M 1544318.8204904469,-10526299.998379044 L 1550939.2132469043,-10521164.451118762 L 1568235.033850946,-10522660.845735935 L 1571702.969947629,-10520739.11517872 L 1569246.0374663307,-10512267.32349557 L 1561734.1982276007,-10502957.170082422 L 1545971.1356922914,-10497254.396238608 L 1538883.201074502,-10483076.534743257 L 1533806.475696875,-10478264.531811412 L 1520195.8868355444,-10478206.32104875 L 1512162.1818239754,-10474942.232453749 L 1502280.4619457473,-10462365.949843267 L 1494377.2233773882,-10471635.852955576 L 1492170.4257919022,-10465056.760990178 L 1490735.406236086,-10453311.969842998 L 1486343.518365819,-10449870.893789861 L 1472689.5149030795,-10445618.910361862 L 1469362.954559704,-10472975.63396083 L 1475646.3832175303,-10482930.458766615 L 1480570.9348512432,-10494843.004826244 L 1488115.5020202666,-10496669.802278262 L 1494877.2705300315,-10495675.837332131 L 1507041.9305254482,-10521399.057991322 L 1523707.2375336369,-10528722.460850202 L 1534436.989292728,-10529544.67476881 L 1544318.8204904469,-10526299.998379044 z" /><path fill-rule="evenodd" fill="currentColor"    d="M 1444011.6103238978,-10409691.949619876 L 1427563.7102812284,-10394080.296159985 L 1433564.6100714214,-10422605.719575334 L 1442446.2356443629,-10451598.650688821 L 1454730.4527728914,-10468229.117825618 L 1460829.2023954915,-10461697.059589287 L 1458035.3058155621,-10447795.542851653 L 1458089.6297270693,-10434066.508368002 L 1455458.8162011518,-10427581.314501839 L 1444011.6103238978,-10409691.949619876 z" /><path fill-rule="evenodd" fill="currentColor"    d="M 1692849.8567076237,-10733139.210775003 L 1707330.0734310308,-10702015.771250667 L 1713939.668196882,-10683892.948520306 L 1708580.3026321302,-10649778.02703543 L 1694513.0812195656,-10632627.783630809 L 1672803.6654445524,-10629587.268972216 L 1657573.266672689,-10631002.813045414 L 1647974.186981585,-10639249.791941926 L 1646778.3930114838,-10648507.932736127 L 1641234.1257725246,-10651242.753552992 L 1626612.53329581,-10639354.309646608 L 1616448.1732304576,-10637743.019490499 L 1603522.5331959785,-10646968.832989309 L 1600043.7991086885,-10661729.67086914 L 1613763.0357930332,-10680289.079633133 L 1620111.6976724642,-10694745.844499025 L 1635331.18713423,-10693467.070117557 L 1639135.9760100532,-10688971.53912324 L 1647734.9613958702,-10686161.293138372 L 1652963.9718369027,-10703597.226586318 L 1651757.2685567036,-10715673.311590623 L 1655583.8760527223,-10724083.367741043 L 1673966.8428038512,-10718027.653481005 L 1673999.4594146537,-10750953.34442877 L 1681130.8086338523,-10753274.504896296 L 1684055.1716569918,-10752015.182912488 L 1689338.5060095312,-10745055.658693431 L 1692849.8567076237,-10733139.210775003 z" /><path fill-rule="evenodd" fill="currentColor"    d="M 2200505.8078662194,-11139615.252464222 L 2206169.6322382903,-11135762.010845056 L 2211768.2233887566,-11138154.123203691 L 2216421.044145443,-11134750.97582085 L 2225737.5949689136,-11117473.63675121 L 2235771.4885910563,-11110689.762602221 L 2236239.030452388,-11102012.40798875 L 2227052.9460721267,-11093569.252227547 L 2214953.519298315,-11091033.455006415 L 2201995.1513335425,-11093967.802168174 L 2198190.3624577196,-11104775.794649241 L 2194200.6719076885,-11122741.847758142 L 2183362.272325583,-11140402.347273199 L 2181753.260405657,-11155903.011455594 L 2191189.3683622396,-11158350.396315375 L 2200505.8078662194,-11139615.252464222 z" /><path fill-rule="evenodd" fill="currentColor"    d="M 2313129.8517720993,-11097988.912578175 L 2307129.063301397,-11090395.735550487 L 2297921.2716204314,-11087303.33619861 L 2292964.1033759164,-11092006.313052883 L 2285908.785368929,-11095100.53052498 L 2278070.780022175,-11093680.647845212 L 2271482.892557029,-11107604.467381593 L 2272222.1652953876,-11119314.618497254 L 2281245.055302145,-11135216.375033874 L 2299291.057954643,-11144274.026352676 L 2313890.8318111617,-11140546.751103159 L 2317608.791484167,-11135922.751696803 L 2313129.8517720993,-11097988.912578175 z" /><path fill-rule="evenodd" fill="currentColor"    d="M 2143465.4781447644,-11090363.736870402 L 2153336.4000323857,-11072610.451026727 L 2162076.7611715104,-11074312.25481536 L 2164707.4633779367,-11081011.572823256 L 2170675.7465573275,-11084323.913946629 L 2182731.75872973,-11074948.46445025 L 2181003.1896766922,-11059012.334726732 L 2164316.1753677987,-11038966.645218983 L 2152336.3057270986,-11010466.394972626 L 2137008.0571228284,-11003867.54707417 L 2129637.482317915,-11007299.864237497 L 2115939.952934275,-10990908.80621363 L 2104960.2889183527,-10973914.57029438 L 2093578.3162627034,-10952493.351035494 L 2092882.569445246,-10941472.404606365 L 2091110.5857907985,-10933054.960644744 L 2049420.100654828,-10924710.051592138 L 2034265.8444146675,-10919188.75399451 L 2018209.3437016269,-10926312.747999787 L 2010599.543310999,-10940427.599366145 L 2013045.5664821996,-10948104.63698139 L 2029069.4505844372,-10951181.014035132 L 2029580.4070471781,-10964314.508518009 L 2033635.3308188142,-10972347.793562338 L 2038820.8153389462,-10976736.449065011 L 2042636.5135248676,-10993580.339783072 L 2048974.3774136917,-10997982.727065718 L 2060791.1640003792,-10993831.745199451 L 2068759.6357903434,-11006055.916560926 L 2073249.3734930179,-11008134.665640326 L 2078782.7314218786,-10998014.293383872 L 2081446.161558599,-11011947.734517388 L 2078782.7314218786,-11024693.813190188 L 2080174.2250567952,-11033304.552424088 L 2095458.947740165,-11055743.831036562 L 2102068.542506016,-11072149.327540196 L 2111580.68167481,-11082731.46623493 L 2120745.0587543664,-11081043.527429435 L 2123408.377571596,-11096664.182799365 L 2120745.0587543664,-11112689.094352987 L 2121756.062369751,-11123158.520658044 L 2129844.091292827,-11148646.84250939 L 2138747.424166473,-11149740.322850475 L 2142834.964548912,-11127084.377001133 L 2143465.4781447644,-11090363.736870402 z" /><path fill-rule="evenodd" fill="currentColor"    d="M 1392558.9624428113,-9850062.899744533 L 1383644.7202590674,-9849277.462708421 L 1383720.86279077,-9860427.703195587 L 1388830.2047791998,-9870581.220794694 L 1396929.1430123735,-9877367.019780997 L 1407343.6379735384,-9879184.96315007 L 1418997.3415062136,-9879960.354198601 L 1422530.5108245015,-9874574.36998781 L 1415833.8642168506,-9866963.674697405 L 1392558.9624428113,-9850062.899744533 z" /><path fill-rule="evenodd" fill="currentColor"    d="M 1382579.392732176,-9888696.297339175 L 1372273.656913516,-9886875.875557719 L 1373991.2053369656,-9898984.666496482 L 1382329.3691558542,-9910496.528011046 L 1385525.4630560197,-9918383.388185253 L 1387188.6875679623,-9927665.76225601 L 1394548.3530627778,-9934709.621388692 L 1404941.1407232378,-9925714.148513315 L 1405147.6383786593,-9910442.90081811 L 1399994.7704693296,-9896558.537088603 L 1382579.392732176,-9888696.297339175 z" /><path fill-rule="evenodd" fill="currentColor"    d="M 1250278.7382726585,-9573129.178776594 L 1244441.0328559685,-9565838.482909175 L 1231471.8669005889,-9571695.958212642 L 1205870.6104079518,-9567168.121389246 L 1195553.9652791943,-9574293.737758853 L 1203750.7533447756,-9588182.100133346 L 1226851.662754705,-9602766.127426881 L 1239277.255636541,-9602097.907917721 L 1251920.255483896,-9584156.301106561 L 1250278.7382726585,-9573129.178776594 z" /><path fill-rule="evenodd" fill="currentColor"    d="M 1948428.0529809187,-10938556.230687363 L 1961810.3255666324,-10920323.60840656 L 1967832.9326575298,-10925892.676936453 L 1979671.4265449224,-10927962.686131336 L 1988477.0209056516,-10921567.89882066 L 1995673.6033464554,-10910007.023247348 L 2004207.4668301581,-10909478.902335478 L 2009566.8323949096,-10894406.103438538 L 2012295.4957532347,-10874839.054010324 L 2006099.0076177178,-10860258.318085417 L 1997304.322567086,-10853665.00338203 L 1994923.5326174898,-10836533.231335603 L 1998261.0022709628,-10812615.179881744 L 1978540.8657964256,-10804431.394806517 L 1955679.07065272,-10800794.07159875 L 1946743.1211682716,-10812201.74544506 L 1928458.0042495504,-10791297.221902234 L 1910346.8796949387,-10758845.275598291 L 1901617.4278659115,-10755034.775377814 L 1901008.6215707634,-10765286.855943162 L 1887995.9296944835,-10772373.604443504 L 1871330.6226862946,-10772784.321838787 L 1871885.105069936,-10780396.72441143 L 1874907.2066059918,-10785776.419983016 L 1889289.5734969922,-10793754.360078674 L 1892159.6126086242,-10810258.406399697 L 1889550.5063834116,-10839805.712364614 L 1892083.4700769216,-10854188.499938715 L 1892627.0431504652,-10864143.528368361 L 1901671.7517774184,-10875812.149927914 L 1932599.8685434954,-10870330.334346713 L 1936350.3335078119,-10881468.410863038 L 1934002.2714885094,-10888491.225420194 L 1918021.801987681,-10900806.53834083 L 1920478.6231494886,-10909106.603299025 L 1932012.7695490518,-10916530.674612932 L 1942927.31166286,-10917494.466582747 L 1946210.346085335,-10930080.203901466 L 1946775.7377790743,-10935563.429947512 L 1948428.0529809187,-10938556.230687363 z" /><path fill-rule="evenodd" fill="currentColor"    d="M 1754434.3593627505,-10615832.23836838 L 1755771.4177666688,-10613691.196789343 L 1770936.583316927,-10643070.920147486 L 1787743.1547589325,-10652259.522276305 L 1788786.7749851195,-10662523.22355284 L 1795298.5199185628,-10672472.51319389 L 1794559.3584996955,-10688745.901244389 L 1797875.0095329732,-10702000.658657132 L 1806441.3783079877,-10705510.45272942 L 1811789.9458821323,-10710002.049758637 L 1817725.5011312293,-10712474.906401616 L 1828444.3435802227,-10701744.674901364 L 1834510.4765920208,-10689843.377773566 L 1842044.0231314558,-10663301.840885969 L 1838913.1624528952,-10637728.048156423 L 1818736.504746614,-10617855.133822817 L 1802701.7113342783,-10608906.038453925 L 1786503.9461874217,-10586183.98846458 L 1778361.4820333477,-10567655.74549891 L 1771371.3972479657,-10563655.165586136 L 1766946.8927668964,-10565160.5514156 L 1763011.5261283726,-10569634.826947352 L 1754803.9400721842,-10569649.650283208 L 1745770.1407553286,-10553611.998244992 L 1718494.6391211608,-10540596.975780383 L 1707797.503972872,-10544348.730553307 L 1707308.3661303264,-10560320.612610828 L 1700927.0876400927,-10558992.983989138 L 1690708.2923437424,-10539861.389006088 L 1680706.9040129115,-10533481.478324104 L 1673988.5501045561,-10531527.535582395 L 1661649.8977450295,-10538714.488777243 L 1628482.3667826643,-10506234.595696196 L 1597380.3689719688,-10500178.11236743 L 1587139.8663749138,-10503922.525167767 L 1587107.2497641114,-10523775.918302558 L 1607207.7649386895,-10549251.309090732 L 1623688.2815921614,-10567006.157767767 L 1680402.5565250828,-10579435.199392743 L 1715722.5611614264,-10632478.48883163 L 1724256.3133256389,-10690579.847833043 L 1732605.2751351346,-10711675.538821125 L 1728680.8178067084,-10723630.085938822 L 1719179.476628521,-10725730.286755791 L 1718603.398263666,-10744131.13320301 L 1723560.566508181,-10764298.895700216 L 1742095.7070032244,-10792090.647697909 L 1752390.533511786,-10803957.72250207 L 1769164.5996624797,-10837654.715341432 L 1777252.628585556,-10845263.024900457 L 1786460.4202665216,-10845263.024900457 L 1795526.8361941797,-10836410.55563686 L 1793896.22829304,-10818341.581603946 L 1780296.5487418072,-10785867.590179939 L 1760152.5076463288,-10758313.804633241 L 1762609.3288081363,-10738602.72950254 L 1770632.1245096074,-10722421.687616237 L 1772599.8078288694,-10694850.905008761 L 1773089.056990906,-10668409.975681717 L 1757815.2436176331,-10632851.27395158 L 1754434.3593627505,-10615832.23836838 z" /><path fill-rule="evenodd" fill="currentColor"    d="M -996706.1852649858,-11347500.035560628 L -1006973.961137285,-11345297.88931917 L -1012882.3544306286,-11352834.755972782 L -997940.0505009383,-11373583.605859168 L -948531.2284708163,-11412765.066951772 L -928816.5466513274,-11450359.369833773 L -890708.100090103,-11463302.57569635 L -888196.9550167882,-11442360.248431562 L -890789.6972768545,-11416394.708294414 L -924212.7064705901,-11395830.656476239 L -961282.9874606763,-11381934.44594996 L -996706.1852649858,-11347500.035560628 z" /><path fill-rule="evenodd" fill="currentColor"    d="M 2139486.696904831,-12675372.591668459 L 2126039.191097513,-12659311.685004966 L 2105895.1500020344,-12683498.448698968 L 2092523.7867264189,-12714658.5007392 L 2099622.5193348154,-12726516.521329958 L 2135431.7731331955,-12728084.3510033 L 2144182.9322629273,-12711854.87158784 L 2145650.5684295455,-12702618.9548708 L 2139486.696904831,-12675372.591668459 z" /><path fill-rule="evenodd" fill="currentColor"    d="M 2991820.074211732,-14725737.600548351 L 2975513.4386028796,-14724356.576907007 L 2945465.8590089777,-14766211.298863003 L 2939693.386813892,-14802772.849697193 L 2945041.954388037,-14817769.11861997 L 2959533.080421542,-14818329.599140383 L 2982112.2353781234,-14768323.646349076 L 3006474.171979759,-14753274.416164052 L 2991820.074211732,-14725737.600548351 z" /><path fill-rule="evenodd" fill="currentColor"    d="M 3620775.1971937274,-15615542.01065935 L 3515206.471294835,-15591134.115065336 L 3504552.8620674466,-15608260.38873406 L 3675673.962551302,-15679972.79565312 L 3684522.9715134404,-15687014.82901316 L 3716288.0995307923,-15695956.567356834 L 3743596.2177757625,-15679620.960551197 L 3735508.1888526864,-15666997.042782651 L 3620775.1971937274,-15615542.01065935 z" /><path fill-rule="evenodd" fill="currentColor"    d="M 2405403.2456075884,-14695704.643767796 L 2420709.675591664,-14682385.675729077 L 2453833.7919526193,-14685157.229796119 L 2472107.999561243,-14590694.417685466 L 2482370.320778494,-14492011.842971804 L 2499046.425777289,-14484955.026370443 L 2530800.755804034,-14498435.607486665 L 2559108.9683542904,-14504999.660463944 L 2573621.8016885,-14497715.778384872 L 2599494.9003776545,-14469192.075643362 L 2610659.4660677845,-14449204.545438947 L 2600940.7179240775,-14433527.730867423 L 2577263.6188298026,-14416018.446699869 L 2573339.1615013764,-14364136.964398516 L 2597146.7270388617,-14346161.27965165 L 2636489.038836038,-14302330.882820634 L 2658644.289171679,-14296666.077704815 L 2698193.098624278,-14314583.208389504 L 2735285.086915069,-14280629.16241334 L 2772061.818407933,-14239644.350045245 L 2686115.3791511706,-14188225.74849666 L 2678560.0139915408,-14173847.913851585 L 2666656.1755630523,-14136073.705867756 L 2653991.4684149926,-14105166.9441461 L 2642294.2389614168,-14086988.504381314 L 2616584.2233262747,-14055813.886581827 L 2602745.3181893276,-14045057.18869123 L 2571632.4110685335,-14047471.238814425 L 2559978.7075358587,-14035113.288014399 L 2549162.015254458,-14010022.271842906 L 2538280.0897514517,-13992007.124931445 L 2510667.624018653,-13987393.911162913 L 2496556.9880046793,-14012324.047686609 L 2501220.7180714635,-14020027.532399628 L 2503199.1993813324,-14034765.314226082 L 2498285.445738226,-14070083.837071532 L 2524604.267668517,-14106397.098869625 L 2530583.3488385146,-14126594.542900542 L 2525321.8331061704,-14133904.572548127 L 2518081.724744466,-14131886.928311583 L 2498926.868644177,-14143015.225893727 L 2493252.246281499,-14142484.581265539 L 2477369.626613078,-14121180.660677409 L 2455355.752030745,-14106924.819841627 L 2433015.711340388,-14103309.294150386 L 2343264.3718883106,-14076030.41168563 L 2329708.2182579786,-14085611.264608428 L 2323587.8726541647,-14140010.36050226 L 2360092.7619505115,-14168065.030864015 L 2365702.262411075,-14215723.06679405 L 2374910.054092041,-14247620.289889256 L 2385672.311142444,-14268852.173943358 L 2405435.862218391,-14323897.650684658 L 2410414.8490831014,-14327871.586627303 L 2361136.3821766987,-14371770.086629188 L 2341655.4712878754,-14400447.513973698 L 2320446.102665506,-14458103.846362254 L 2313934.357732062,-14505106.27433925 L 2285202.129241374,-14545382.191023095 L 2288757.0058603664,-14597189.68696831 L 2267884.6013366273,-14593102.437339427 L 2251762.867401982,-14629681.113136185 L 2266764.8385787373,-14650313.342765829 L 2342927.4077896797,-14673804.831057835 L 2388335.741279164,-14696749.627689792 L 2405403.2456075884,-14695704.643767796 z" /><path fill-rule="evenodd" fill="currentColor"    d="M 2326338.243313194,-15700961.533354916 L 2337535.425614126,-15693647.58484001 L 2398848.086072736,-15696341.477879886 L 2410610.5487479167,-15680292.54320965 L 2415263.369504603,-15641568.155637663 L 2424612.425619385,-15628288.176803749 L 2437646.8247963693,-15624195.16202707 L 2470205.549463586,-15577107.076496515 L 2481283.1746314066,-15570340.709208721 L 2490925.7802434103,-15596437.672768358 L 2498307.264358422,-15661858.184386352 L 2498698.55236856,-15739463.405767152 L 2495545.984389295,-15777382.896514446 L 2499209.5088313012,-15801852.470528636 L 2510124.050945109,-15811346.255456025 L 2523843.2876294544,-15808799.893674565 L 2537258.17682597,-15822423.79132783 L 2548868.465757236,-15846571.862373928 L 2561239.7347275647,-15849921.431001127 L 2588330.334687525,-15831587.643178781 L 2595461.7952262145,-15817225.634281773 L 2588189.0702537084,-15787588.902100129 L 2585351.6477528787,-15745600.78028564 L 2573100.047235152,-15659689.349221079 L 2599679.6907323715,-15654397.045610823 L 2636934.762077175,-15672490.75856924 L 2646392.577334462,-15697303.85435526 L 2666427.9706069264,-15736977.563695349 L 2687583.0153177893,-15730751.284638554 L 2697725.668082437,-15736009.269346107 L 2702856.828691062,-15753329.566125039 L 2704791.8953995216,-15773973.611247152 L 2716489.124853097,-15770501.671137357 L 2732523.918265432,-15730751.284638554 L 2739981.4335926557,-15724595.64484012 L 2753635.4370553955,-15734815.129044931 L 2759157.9969936498,-15734396.207854692 L 2772638.008092279,-15718542.086107397 L 2835450.92132831,-15689897.572443904 L 2857225.681644419,-15674600.385789832 L 2866607.354370004,-15660390.874816434 L 2876086.8769279965,-15651975.624385888 L 2942922.0973248603,-15652198.740919465 L 2990135.0310795945,-15642108.780661989 L 3007539.610826141,-15619660.714681055 L 3022139.3846826605,-15576792.384866018 L 3027737.975833127,-15479105.745865826 L 3014518.786301425,-15452981.613765014 L 2918918.832122561,-15335161.673720833 L 2894958.9815216707,-15297747.024512822 L 2883403.1278214026,-15263456.19770566 L 2863846.074400877,-15189152.532036584 L 2854366.551842885,-15166887.331317332 L 2809599.6412593517,-15131897.620466517 L 2799141.620377287,-15128165.238673458 L 2765495.749562983,-15145258.119692093 L 2755222.6303551253,-15143667.97921677 L 2714347.449169725,-15105785.92650058 L 2700258.631775947,-15082958.837116666 L 2686463.2525598994,-15054340.763868956 L 2665851.7809225805,-15041745.389372837 L 2644816.293344829,-15048475.098020947 L 2549629.445796299,-15063380.953676973 L 2536877.6868064385,-15083483.507896993 L 2526474.101155372,-15122262.575404283 L 2545378.8223598483,-15172239.42792215 L 2439168.7848744947,-15153600.673879938 L 2322250.7029307554,-15163755.514194597 L 2316065.0127858454,-15170819.523348698 L 2311086.137240626,-15190220.444751203 L 2270863.288271274,-15203523.33049409 L 2240663.534933457,-15219505.186914468 L 2215279.5740868486,-15246528.060294844 L 2190167.4554367573,-15281782.16577516 L 2198190.3624577196,-15298320.24207628 L 2206474.0910456097,-15308009.599909881 L 2228042.2423868068,-15312088.35458777 L 2247218.69446831,-15307163.352331324 L 2281321.1978338477,-15307465.83604092 L 2289267.9623231073,-15343296.303716948 L 2302845.8232541443,-15353661.818429902 L 2313673.424845643,-15379509.80312465 L 2277679.380692546,-15395839.731076691 L 2240130.871170012,-15398289.573533414 L 2215105.69304223,-15376761.298848515 L 2186101.7336745146,-15367029.898344615 L 2159598.1213895073,-15365749.58517884 L 2108623.813360359,-15371848.16438126 L 2084457.465104048,-15387119.137467282 L 2051398.5819646968,-15427177.888589693 L 2039897.0521759358,-15449399.357717384 L 2035450.8403941616,-15466897.443440242 L 2032178.6039622934,-15493481.456802968 L 2069944.6317698378,-15517398.149690079 L 2084620.5481580598,-15536301.146364816 L 2099035.5316598625,-15562230.132768715 L 2042027.8185492097,-15577012.280481845 L 2018165.8177807268,-15598870.111367745 L 1994499.6279965495,-15631113.01469948 L 2013708.696688855,-15649364.6887634 L 2090501.77949565,-15663964.348384615 L 2110830.6109458455,-15651753.167896349 L 2130985.5613514218,-15628224.47775604 L 2153292.874111485,-15613768.018168729 L 2174861.0254526823,-15644207.875860114 L 2154554.0126226824,-15658668.54974645 L 2136377.5435269754,-15709697.460271934 L 2132540.1380403494,-15735169.977830736 L 2134920.8166704546,-15754818.102804746 L 2144433.0671587395,-15757763.710585032 L 2151520.8904570383,-15749221.629952036 L 2178350.66885007,-15700993.742728734 L 2198679.500300265,-15686021.846090768 L 2204375.9412831385,-15730461.390678365 L 2205278.2970755086,-15751679.718613498 L 2201582.044703209,-15769301.14841239 L 2192026.490933005,-15801917.901818903 L 2183460.0108384993,-15842240.37192497 L 2196701.0189903965,-15852516.336648764 L 2209822.35868969,-15848049.063169895 L 2238000.1047967374,-15820395.986352287 L 2266395.257869304,-15800972.550741015 L 2279364.4238246833,-15781444.198658282 L 2303585.0959925023,-15733073.546398677 L 2326338.243313194,-15700961.533354916 z" /><path fill-rule="evenodd" fill="currentColor"    d="M 1868689.0111697707,-15479198.484476395 L 1874450.6853742488,-15477958.056642426 L 1880070.9838254196,-15484722.001344776 L 1884147.6148977599,-15502564.500745602 L 1888691.6765119415,-15512439.821961107 L 1916858.6246283818,-15500852.413326556 L 1956798.8334106097,-15465194.755059583 L 1968659.1459181975,-15447701.26098032 L 1985335.2509169928,-15411781.542825004 L 1998869.6972466207,-15351836.644350346 L 1988140.0568070202,-15308855.339226654 L 1973985.8948721467,-15268468.004930442 L 1968963.4934060264,-15246259.04446292 L 1974138.0686160608,-15214471.296526264 L 1972029.1208629822,-15183697.864121942 L 1966876.252953652,-15156550.511355689 L 1988281.3212408372,-15187521.844106209 L 2034037.5281390501,-15287591.31967929 L 2040853.731879813,-15293827.278163068 L 2047985.0810990117,-15290422.578912904 L 2068476.9956032191,-15269729.249647835 L 2087066.5713292605,-15218641.119992463 L 2091164.9097023052,-15201829.384193989 L 2094502.2680362877,-15181208.844169032 L 2096415.6274440428,-15155842.838982629 L 2095361.0979077579,-15126843.379199347 L 2093632.6401742108,-15106723.256153237 L 2083903.0940398974,-15093733.84676768 L 2079206.7473623103,-15081908.427843357 L 2089719.0921558824,-15081033.216595402 L 2101720.669097287,-15065533.760706292 L 2112733.0610435023,-15032763.7130137 L 2125028.1874821284,-15019661.502988616 L 2169642.924321748,-15030708.877257733 L 2198657.7929995605,-15013625.461903993 L 2214540.4126679813,-14960267.3770281 L 2239054.634333022,-14972303.739909507 L 2239130.665545234,-15000734.645233141 L 2244500.9404200832,-15012932.607771423 L 2277396.740505422,-15003241.583685162 L 2294409.9209223394,-14989911.276419267 L 2311792.793368181,-14961985.660211643 L 2282125.7037938107,-14916551.584737254 L 2306574.692237247,-14873184.631657174 L 2347688.8763693804,-14841987.220345102 L 2372464.0309208403,-14809371.713866461 L 2376953.7686235146,-14795734.155065412 L 2380986.985094446,-14777698.312205847 L 2364865.13984031,-14754355.957434846 L 2348428.1491077384,-14741221.500564076 L 2307074.7393898903,-14738979.0818048 L 2269471.7946363576,-14722534.88854089 L 2200647.183619527,-14710924.149152918 L 2190406.6810224717,-14703516.243026046 L 2187982.3651519762,-14696914.610857656 L 2183927.5526998313,-14676846.66783898 L 2157445.6477155285,-14630769.615500802 L 2131822.572602696,-14575051.8017482 L 2121266.8132077144,-14541729.779402642 L 2113265.724806948,-14495316.558342025 L 2110352.2710939064,-14467121.854716953 L 2116037.802766682,-14439894.071708847 L 2114526.751998654,-14412464.227447784 L 2095263.2480753507,-14391048.955428492 L 2083044.264168427,-14390183.492064746 L 2067716.0155641562,-14394434.015058842 L 2052648.811165796,-14382109.759658435 L 2051692.1314619186,-14363640.46253584 L 2052583.5779441914,-14337725.642454522 L 2048724.35383737,-14259281.58949693 L 2044038.9164698808,-14200749.214714918 L 2037005.305763599,-14146854.632714005 L 2029123.885815435,-14117959.627375387 L 2019046.3549529018,-14109939.201390453 L 1986726.7445519087,-14104664.560445294 L 1961821.2348767298,-14054767.220013438 L 1941687.9917718584,-13966515.288972354 L 1931240.991519382,-13932191.034086071 L 1909411.9072917658,-13878347.066273788 L 1913347.2739302895,-13859360.52558425 L 1920152.457041464,-13838861.17864659 L 1908237.820622369,-13802297.029066166 L 1889833.1465705356,-13761526.591089636 L 1890191.9292893626,-13745821.877710205 L 1896388.4174248795,-13717150.08468537 L 1899410.5189609353,-13687472.751646267 L 1885212.9424246515,-13662034.308294723 L 1859089.8201591757,-13649141.447944682 L 1832531.8839626615,-13663559.795701344 L 1819606.243928182,-13680621.45261383 L 1807615.4649773843,-13708022.778198963 L 1794896.3225983265,-13725958.670869945 L 1781611.8998450204,-13736748.872875512 L 1730659.2991165773,-13798127.146334188 L 1683620.3577259532,-13896342.82669102 L 1640679.7547083744,-13934930.496292587 L 1612675.889645946,-13953327.960898442 L 1599195.767227825,-13971163.163938358 L 1586031.012927122,-13995216.21519584 L 1574649.040271473,-14022307.95442844 L 1564082.3715663936,-14056736.173959466 L 1558940.3016476708,-14078205.504433589 L 1557994.5312538913,-14110542.347573882 L 1561375.4155087736,-14129593.241259651 L 1566408.7262849917,-14139379.15769006 L 1600511.2296505296,-14147410.993257632 L 1612773.7394783532,-14142863.682630062 L 1624851.4589514602,-14125864.04126808 L 1635842.1435969707,-14119217.96046534 L 1660975.969547767,-14204164.322565403 L 1804038.8810576876,-14253243.181862358 L 1850034.3135416154,-14261776.155042442 L 1896138.3938485577,-14261261.576126462 L 1888952.6093983608,-14284602.190746142 L 1882864.7690858583,-14314298.070801929 L 1876059.585974684,-14321509.454093637 L 1841185.1932599857,-14304867.945040947 L 1787797.5899899304,-14287338.588028759 L 1761783.1155474687,-14287312.67780417 L 1734953.4484739278,-14298993.811016452 L 1708177.9939924034,-14292556.042088788 L 1680576.4375697023,-14267230.446552942 L 1652746.5648713838,-14251239.858841917 L 1625699.3795128327,-14244823.793266075 L 1568485.0574272678,-14247415.3199054 L 1554298.3902010825,-14260490.047132261 L 1535219.6766324954,-14290877.093274407 L 1530599.4724866115,-14306499.055983156 L 1526653.3078574806,-14325689.90403261 L 1522913.6408837715,-14383760.306381447 L 1527044.70718711,-14399606.624273013 L 1532882.4126038,-14408754.098762492 L 1538883.201074502,-14414359.713664657 L 1551450.1697096454,-14414649.260511095 L 1563788.822069172,-14404573.372206101 L 1592673.224303775,-14371403.69821896 L 1586096.2461487267,-14407018.580572521 L 1669205.3742241503,-14450157.577068092 L 1707797.503972872,-14488069.663151253 L 1727615.4902798168,-14494490.085871296 L 1747498.5984888757,-14491692.10314793 L 1743117.5086092155,-14511970.958987353 L 1742943.6275645965,-14530785.366516467 L 1757054.2635785702,-14546188.186331298 L 1767240.4422641182,-14552826.998817354 L 1797842.3929221707,-14560415.419637198 L 1867601.8650226833,-14559069.028377598 L 1892757.509593675,-14569522.168611266 L 1911575.2902758424,-14595944.336836865 L 1891518.1897026733,-14586719.20044078 L 1871417.5632086042,-14584935.627408274 L 1861992.3645621198,-14590424.083602829 L 1840706.9647275377,-14613564.39339395 L 1831053.4498054362,-14644037.435794441 L 1858655.0062281373,-14705388.431350809 L 1868232.3786185363,-14734055.388915498 L 1840163.391653994,-14729909.031129975 L 1830792.5169190164,-14719857.559433596 L 1798646.898882134,-14663375.173638282 L 1774882.747946058,-14638149.812255898 L 1745563.5317804161,-14626062.99782959 L 1716255.2249248724,-14627123.598145302 L 1709863.0371245411,-14635098.67327807 L 1700894.4710292902,-14672325.95704241 L 1698089.6651392628,-14691966.93467015 L 1699285.4591093643,-14702800.99622432 L 1708569.3933220324,-14733779.033835262 L 1713385.2971327312,-14766738.89454429 L 1712559.0838720636,-14795259.653421884 L 1705721.1728305959,-14800984.5681967 L 1694871.8639383926,-14773078.510871321 L 1685077.0845824738,-14734415.007879483 L 1671607.871474451,-14715113.757648455 L 1657747.259036799,-14720381.973693678 L 1651833.4110884063,-14735161.493065657 L 1646680.5431790766,-14757851.747080868 L 1641245.0350826227,-14766600.01947046 L 1635200.7206910201,-14766600.01947046 L 1622775.1278091841,-14757518.67964269 L 1610480.0013705578,-14740723.181462668 L 1614719.60417742,-14715334.546155509 L 1615850.2762454068,-14687188.316765098 L 1610545.1232726718,-14664934.382610075 L 1606544.634732034,-14637849.600206004 L 1619209.3418800938,-14620843.28545847 L 1629525.9870088513,-14594536.812410358 L 1614078.2925909595,-14582233.520752711 L 1598913.1270407012,-14564293.501076408 L 1584998.190691542,-14536738.182187127 L 1570767.997544456,-14515365.76689461 L 1548188.842587875,-14513093.606446275 L 1520065.4203923347,-14501290.03760985 L 1463873.0112322522,-14497102.511783438 L 1437445.5414789475,-14531911.261553662 L 1432629.637668249,-14548498.89225311 L 1427357.212625807,-14559634.677284347 L 1409822.1664360506,-14578020.737568768 L 1384231.8192535113,-14632539.029237054 L 1364544.299389776,-14695127.60981211 L 1351227.2600256675,-14701232.688452095 L 1331572.4680922255,-14722037.9987965 L 1320864.423633839,-14740058.815372307 L 1310656.5376475865,-14764016.004269864 L 1307590.9101906307,-14792441.369976051 L 1308580.2065053105,-14818441.471558789 L 1320364.3764811954,-14830049.368270578 L 1292534.503782877,-14859469.850001596 L 1265193.8802465952,-14898518.230638081 L 1275293.0070903427,-14911662.134879114 L 1285468.3877852834,-14917461.994554441 L 1366435.8401773353,-14871913.656609047 L 1371838.8429824777,-14877565.238553945 L 1380731.266546026,-14900163.323950624 L 1377578.6985667604,-14907798.241804853 L 1364011.6356263303,-14913026.479061604 L 1345552.6376629896,-14912884.44352732 L 1340932.4335171056,-14917575.586303312 L 1333811.8822885137,-14942169.171713343 L 1327561.07024149,-14972619.210739486 L 1324919.3474054749,-14992989.199036932 L 1323897.4344799926,-15016888.545240482 L 1337627.580474435,-15052917.270230351 L 1345182.945634065,-15085380.564501733 L 1333420.4829588847,-15100430.212235449 L 1300133.3948634076,-15099523.14554325 L 1289055.7696955872,-15094932.24134068 L 1293132.4007679278,-15048271.821411045 L 1282533.1154520463,-15016253.304092206 L 1262236.9006126535,-14991378.174764324 L 1247680.5413575433,-15003472.37924978 L 1236450.8537652995,-15064748.347341105 L 1221774.9373770775,-15107748.296806559 L 1216252.3774388235,-15134985.183520606 L 1212056.1892333708,-15174399.56291897 L 1206077.1080633732,-15203196.436850162 L 1195303.9417028727,-15238185.185145749 L 1193901.538757859,-15259857.388258891 L 1195238.7084812678,-15275918.498726025 L 1203446.294537456,-15312511.786086578 L 1197195.482490432,-15343175.011219617 L 1189585.6820998038,-15370140.283553546 L 1189129.1608680605,-15385559.992141051 L 1196282.3287074547,-15404633.611586621 L 1202696.223808491,-15410983.237349845 L 1209588.4587614657,-15409602.463898275 L 1230036.847344773,-15386844.224770993 L 1241255.8482659007,-15359778.963249195 L 1245136.7796734264,-15361941.352711512 L 1252409.5046459325,-15402242.25703291 L 1262769.5643760995,-15411382.377795072 L 1302698.9751677203,-15424716.47332995 L 1347161.538263425,-15372611.046596207 L 1358673.9773622835,-15361088.66016977 L 1367870.8597331515,-15357374.175678784 L 1363131.0984541553,-15380395.57635148 L 1360228.5540512116,-15410430.766966859 L 1367001.1205515836,-15421795.740267117 L 1402897.3148722735,-15394951.8448006 L 1419714.906943867,-15396543.981619654 L 1459122.4519626491,-15431732.74347174 L 1524283.4272179827,-15450201.777900342 L 1548917.2060161354,-15422410.256930688 L 1550200.051828037,-15407608.183573794 L 1549689.0953652961,-15387731.000972938 L 1548123.60936627,-15381770.140709884 L 1533708.6258644678,-15358713.314686423 L 1451523.5608821188,-15339956.302221755 L 1397657.506440634,-15268437.875803895 L 1471102.321603349,-15279887.179922145 L 1484310.6018249523,-15271711.70134213 L 1489854.8690639115,-15214113.972928388 L 1495203.4366380558,-15208102.181060202 L 1514086.450541828,-15199779.345175277 L 1526881.6241330975,-15182719.617574202 L 1539959.4379114914,-15150356.917628516 L 1553711.4025261293,-15128635.20443163 L 1561766.8148384031,-15131339.522709576 L 1564691.0665420515,-15154839.176449036 L 1561408.0321195764,-15182808.818809187 L 1559712.1909968315,-15214828.639807228 L 1560679.668691316,-15249521.077754438 L 1562908.284896997,-15278383.783106029 L 1578334.2720141844,-15298772.427889258 L 1600750.3439167535,-15365384.452001998 L 1624557.9094542384,-15410952.438557617 L 1651072.4310493432,-15390667.1210117 L 1675619.2693251865,-15333857.824976055 L 1697763.6103507292,-15253683.440555772 L 1719212.0932393232,-15169163.764320923 L 1743280.591663228,-15065882.99625412 L 1754847.4659930845,-15029869.581493549 L 1765359.6994671659,-15021366.56937841 L 1813898.8936352108,-14916352.97740751 L 1819377.927652565,-14913481.13006758 L 1809333.1247203248,-14993132.996779826 L 1784177.4801493331,-15130281.255518211 L 1767207.8256533158,-15237617.257935252 L 1763381.2181572968,-15279135.130000848 L 1760641.6454888745,-15337892.592566768 L 1761717.8823258635,-15354817.612447737 L 1763870.3559998428,-15370140.283553546 L 1776187.3010586645,-15433857.46218413 L 1792265.509072409,-15465040.102632485 L 1787417.099970399,-15509260.391147364 L 1791558.9642643442,-15543407.947339805 L 1808463.3855387566,-15570497.896422228 L 1824150.3055423636,-15572511.389770987 L 1839445.8262163408,-15551871.386535585 L 1868689.0111697707,-15479198.484476395 z" /><path fill-rule="evenodd" fill="currentColor"    d="M 1252376.88803513,-14704149.265395515 L 1253648.824536934,-14665372.014319262 L 1271738.241790841,-14669231.28341802 L 1293121.602777321,-14628157.626991672 L 1316429.1211621626,-14606456.336865092 L 1323016.8973078176,-14591614.080775447 L 1327974.1768718238,-14572569.238729626 L 1342084.7015663069,-14534404.733050989 L 1348792.1461645646,-14494409.84610943 L 1331942.0488016594,-14490200.555073874 L 1308732.3802492248,-14547262.81849536 L 1289805.8404245523,-14579937.362543056 L 1265976.5675863628,-14607948.09072308 L 1246691.3563623545,-14609331.295252059 L 1238016.2284448347,-14621576.854624903 L 1206772.8548808312,-14723363.122462774 L 1201011.180676353,-14747036.91104721 L 1183150.079698063,-14785357.905114055 L 1175268.5484304086,-14833277.30582273 L 1175333.7816520135,-14871010.183250004 L 1199228.3990312987,-14862092.08833492 L 1220155.1274665447,-14838389.520838719 L 1238309.7779420565,-14785079.361626277 L 1241538.4884530245,-14768601.473084258 L 1233222.1432543313,-14746760.003910352 L 1241766.6934091507,-14721016.63929603 L 1252376.88803513,-14704149.265395515 z" /><path fill-rule="evenodd" fill="currentColor"    d="M 2086305.5912901976,-15734557.429834204 L 2062193.5669453929,-15698105.396550598 L 2021807.6349220285,-15726142.254582431 L 2026634.3367233346,-15754979.834449168 L 2036222.6184238314,-15772610.931758733 L 2061563.0533495396,-15765961.186862638 L 2086305.5912901976,-15734557.429834204 z" /><path fill-rule="evenodd" fill="currentColor"    d="M 3233505.0414365735,-14876293.40667747 L 3266716.098319838,-14872648.32739658 L 3300079.3289470174,-14881835.249921784 L 3305819.295850791,-14872054.79951273 L 3262835.1669123126,-14841678.027805563 L 3215035.1341631343,-14857806.740823118 L 3171996.6813131482,-14861922.86111063 L 3121163.7490373077,-14828225.415656528 L 3104596.2918615267,-14841705.664529046 L 3130414.955319683,-14874201.822132349 L 3158581.7921166327,-14884975.987771988 L 3163115.055740207,-14904930.753290556 L 3173844.8074992984,-14908366.53971906 L 3211034.6456224965,-14910412.125563977 L 3233505.0414365735,-14876293.40667747 z" /></g></g>
</svg>
