<?xml version="1.0" encoding="UTF-8"?>
<svg xmlns="http://www.w3.org/2000/svg" viewBox="8911310.028356265 -3553457.236679447 902785.8195632119 509682.35389899276">
  <g id="map"><path fill-rule="evenodd" fill="currentColor"    d="M 9808334.285034487,-3232669.8135981527 L 9812845.730037868,-3229233.215765016 L 9813291.453279005,-3223615.8236913634 L 9812476.149328435,-3217392.6769238613 L 9807866.743173158,-3203966.984532453 L 9803670.554967703,-3194539.363471088 L 9798800.327245498,-3174650.315216824 L 9794375.82276443,-3140215.271040612 L 9795354.20976901,-3134230.9301735703 L 9808475.549468305,-3114537.4851231133 L 9813617.619387029,-3099419.9835942583 L 9814095.847919477,-3089131.6413498945 L 9808529.873379814,-3071895.482992349 L 9802224.737421282,-3052440.10170382 L 9799115.584043426,-3048088.6938707912 L 9795571.616734529,-3046517.0724709057 L 9779330.325666774,-3053296.0211916966 L 9768154.850666547,-3052349.1049916986 L 9755305.241844278,-3048598.355199514 L 9741912.171267958,-3049326.5274904915 L 9730834.546100138,-3051559.993801732 L 9716789.143307768,-3043774.882780454 L 9703363.456120647,-3047991.511054413 L 9694764.47073483,-3052834.676099982 L 9689013.705840448,-3066316.7842064826 L 9686622.006580755,-3068036.3101946465 L 9658357.319951398,-3053921.2414702615 L 9651552.025520734,-3053065.4089479954 L 9633995.272030272,-3060642.996240923 L 9619612.905139271,-3068145.7008599797 L 9614231.720954325,-3070400.2812010604 L 9600371.219836164,-3073336.063859319 L 9587880.393732723,-3075044.3592995363 L 9574291.512172097,-3079732.4243359203 L 9557408.79819839,-3073609.5815367103 L 9550603.503767725,-3074101.976392295 L 9544233.134587588,-3078534.4211248187 L 9540906.574244212,-3087616.307072448 L 9540069.451673446,-3096217.0652806167 L 9534340.505399263,-3102124.2538126614 L 9525437.061206125,-3103476.58298024 L 9512967.94240339,-3098159.4564881623 L 9494769.877326468,-3091152.214293995 L 9488899.443979485,-3092314.7569514373 L 9483507.461803932,-3094335.7837905027 L 9481539.778484669,-3096204.8451217846 L 9479028.633411353,-3104323.3516564025 L 9476115.179698313,-3106114.49644282 L 9471875.46557196,-3106358.199533518 L 9464396.13162454,-3108302.1100634276 L 9455166.632642873,-3114342.3342709085 L 9427130.262289131,-3128597.0915211644 L 9423618.91159104,-3134933.0060610985 L 9423727.559414053,-3148939.7484129826 L 9422162.184734518,-3154722.5350899436 L 9418759.481859442,-3160837.934417115 L 9404366.205658343,-3167041.6222826624 L 9376416.775826912,-3177026.1449892065 L 9360969.08140902,-3184995.5830407506 L 9353598.506604107,-3181270.671361549 L 9339390.020757725,-3177938.5869943127 L 9331780.33168659,-3170756.6913166014 L 9322670.38983803,-3173027.786772646 L 9300928.246132724,-3180603.0110584116 L 9289296.249900755,-3181730.0985791865 L 9282262.63919447,-3179157.402323132 L 9280642.94060343,-3174821.7325243917 L 9271772.113021094,-3169899.7518881047 L 9263325.30137919,-3173823.7298488356 L 9246649.196380397,-3179120.649401247 L 9232038.513213778,-3182024.180156666 L 9209839.736957237,-3188464.1782190623 L 9207328.591883924,-3198218.8709826656 L 9203599.834220313,-3207863.705538925 L 9198316.499867773,-3209576.3250601897 L 9178444.189649321,-3207661.2071789657 L 9160224.305952204,-3218313.961569537 L 9140656.454541072,-3231956.5860676304 L 9132318.402041674,-3236445.730543288 L 9126828.458714223,-3238106.502914629 L 9122099.606745323,-3236279.7148204553 L 9116718.422560375,-3233155.6456469656 L 9111793.870926663,-3232227.1900761095 L 9101172.878310079,-3238112.5497858105 L 9087627.522670351,-3246511.600474816 L 9070983.922962869,-3256818.9353432176 L 9051481.304773342,-3271227.8850767566 L 9043480.216372572,-3279375.940778319 L 9039838.399231272,-3285510.253178337 L 9035685.625627227,-3291276.919941069 L 9018726.88044131,-3300710.020299961 L 9005311.991244795,-3308177.324569016 L 8989135.82207915,-3317189.2129236762 L 8986396.36073022,-3318989.8617521445 L 8980286.813117012,-3324356.1188452784 L 8970905.140391426,-3331124.2535119713 L 8963208.399478488,-3333100.3421748662 L 8960751.578316681,-3329371.556169341 L 8958892.654139923,-3325451.970961101 L 8952152.592930865,-3326355.929784892 L 8941716.390668994,-3333255.1230266565 L 8930780.029934991,-3340480.3200500533 L 8922213.661159975,-3347176.0275232513 L 8913429.885419443,-3354048.9501953204 L 8911310.028356265,-3359149.990778684 L 8914973.552798273,-3374906.4456164087 L 8920083.006106194,-3388429.7752744067 L 8924431.36805556,-3391478.211118889 L 8931497.595372643,-3400441.3445988735 L 8934052.26636686,-3416185.203553896 L 8933932.709233748,-3429638.865187264 L 8940835.85349682,-3448661.1802942525 L 8950293.557434615,-3468925.856614931 L 8966676.224255681,-3490677.201136363 L 8973785.977493666,-3497877.1904536188 L 8981710.92336273,-3502821.80989038 L 8996832.562992088,-3518898.615076522 L 8999974.332980746,-3521525.566074021 L 9006594.725737203,-3525668.268623166 L 9013106.47067065,-3526711.946430801 L 9018020.224313755,-3524712.615752712 L 9023064.333080577,-3516278.5116848554 L 9029163.082703179,-3508283.075383161 L 9036598.779410208,-3508678.748053484 L 9045273.907327726,-3515549.750245572 L 9063319.909980223,-3547019.1506372513 L 9088334.178797908,-3553457.236679447 L 9112043.894502986,-3550218.8179232343 L 9133024.946849737,-3545621.066505158 L 9139210.636994649,-3535090.1059862124 L 9143265.560766283,-3524002.1675635255 L 9145896.26297271,-3518364.5390891037 L 9152766.790624982,-3511761.995371662 L 9182357.737667648,-3496032.9419987747 L 9199534.00113858,-3481870.7067290167 L 9223298.152074654,-3462918.1808277713 L 9241072.312530635,-3454549.65761791 L 9256824.465755846,-3453855.6414512657 L 9265695.18201869,-3446424.0678877886 L 9279055.747303698,-3431660.890071424 L 9290350.779437039,-3414695.352272325 L 9304472.213441618,-3399034.2543411246 L 9314223.578196127,-3399544.7931980686 L 9327508.000949433,-3404626.14938456 L 9343705.87741578,-3411267.4261764516 L 9353283.24980618,-3407996.1900265045 L 9362121.349458221,-3403673.3163423277 L 9365067.419782065,-3395554.4758184156 L 9370383.370745407,-3380276.827122643 L 9376297.2186938,-3364420.8641637797 L 9385581.041586978,-3358870.7145469487 L 9396560.81692239,-3350711.2586111 L 9402648.657234892,-3344236.9861476594 L 9423260.128872212,-3332387.866013477 L 9426173.582585255,-3327563.2904471774 L 9430348.063490001,-3324269.524631938 L 9435370.464956122,-3322201.9537676554 L 9439544.94586087,-3319788.186159753 L 9446024.07418351,-3318952.7285994915 L 9469853.45834119,-3326058.703281779 L 9476223.827521328,-3325167.1903560776 L 9479865.64466263,-3323848.4793827687 L 9479985.201795742,-3321267.3481105324 L 9475680.254447784,-3310168.380623755 L 9472016.730005777,-3295989.6050097467 L 9475789.01359029,-3288868.720372769 L 9485768.583300924,-3285917.705376099 L 9507869.509725057,-3283819.0096264565 L 9537666.954423146,-3283997.9965733495 L 9546700.865059493,-3276821.801397291 L 9555691.138455449,-3266049.3224063967 L 9564757.665702598,-3247674.8791580657 L 9568366.866233097,-3239927.362309048 L 9572867.401926378,-3237681.9688753523 L 9580618.466750823,-3240745.587359456 L 9581879.49394253,-3248290.4688370475 L 9582238.276661355,-3259517.174364628 L 9588728.314294096,-3263399.0039837 L 9592870.17858804,-3260539.8624508744 L 9597740.406310245,-3251756.5967725557 L 9610057.240049578,-3243871.271748482 L 9618971.482233321,-3239982.67347856 L 9627461.819796124,-3241354.6891800356 L 9631016.696415117,-3244375.9044672255 L 9635201.97531047,-3259720.444035324 L 9641876.803297926,-3261969.3577493797 L 9650345.322240533,-3260946.5617248532 L 9653584.9420616,-3257884.5664453716 L 9657009.352237381,-3251756.5967725557 L 9667249.854834437,-3248869.1460432727 L 9677425.124209888,-3244997.520753459 L 9687035.113211088,-3239982.67347856 L 9700536.942929914,-3228606.1495035496 L 9717158.835336693,-3226540.9747723625 L 9736465.753861407,-3226780.6328252763 L 9746608.406626053,-3226528.639545136 L 9754098.64988357,-3225692.890897222 L 9760795.18517173,-3226473.3828985994 L 9780613.060159184,-3234619.1649996056 L 9788701.089082262,-3235215.6499114167 L 9798713.38672319,-3234280.8829977 L 9808334.285034487,-3232669.8135981527 z" /></g>
</svg>
