<?xml version="1.0" encoding="UTF-8"?>
<svg xmlns="http://www.w3.org/2000/svg" viewBox="-19686591.013904013 954938.0691886682 39561153.22565478 5948971.361490233">
  <g id="map"><g><path fill-rule="evenodd" fill="currentColor"    d="M 19271110.6067485,5053625.602906102 L 19283971.01356137,5054348.944959328 L 19295874.85198986,5043504.934218055 L 19308061.330605473,5034693.963978099 L 19320889.120807543,5027405.836028452 L 19340413.557617266,5010714.140094503 L 19345522.8996057,5008266.066900532 L 19358187.71807325,5005084.580954733 L 19363710.16669201,5001155.962822302 L 19369863.128906626,5000220.755054336 L 19364340.680287864,5010109.216116249 L 19357328.88820178,5013407.703145826 L 19356220.034753986,5016980.901135725 L 19360144.49208241,5022689.412916104 L 19354045.853779305,5030710.056423516 L 19354274.05873543,5040716.315466115 L 19347088.385604724,5052540.765346303 L 19358133.282842252,5047710.834726347 L 19362177.29730379,5040008.488002011 L 19360090.056851413,5035675.817857459 L 19364873.344051313,5027088.37216939 L 19372265.626156926,5023006.732911383 L 19369319.667152576,5016490.980434309 L 19369526.164807998,5011347.861179965 L 19378559.964124855,5013249.124795629 L 19383082.31843833,5013033.167370295 L 19386648.10436742,5011002.163198874 L 19393170.64729147,5010195.631523593 L 19394507.817014877,5015943.390476982 L 19403269.885454707,5015222.908854883 L 19400084.70086464,5022487.5679485975 L 19393377.25626638,5030883.25503724 L 19391800.97227675,5035993.415136364 L 19381071.220517658,5044458.675824377 L 19373885.436067462,5048086.86023079 L 19384963.06123528,5049026.5437605325 L 19401160.937701628,5037683.006551247 L 19410792.634003535,5027651.06882899 L 19410509.993816413,5040167.356372429 L 19402682.897779755,5051398.1441279035 L 19395986.251172103,5058501.7653751215 L 19388463.502623275,5060701.95575071 L 19380951.663384546,5066465.231435406 L 19377309.846243244,5075899.536062304 L 19377712.043563478,5082165.28434313 L 19379875.426547557,5087143.004131987 L 19387528.641539596,5095565.9327212265 L 19378907.837533582,5111793.878192033 L 19388507.02854418,5109771.203743836 L 19393757.746285915,5112827.135564436 L 19401106.50247063,5122205.164648553 L 19396681.99798956,5133021.624748413 L 19393572.955931194,5138565.728752356 L 19374853.025081437,5161432.884754839 L 19366688.85362666,5173055.490436642 L 19357122.279226866,5180499.167068315 L 19357252.745670076,5192732.1439314205 L 19351762.913662113,5201645.424804799 L 19323867.80774219,5232237.762367218 L 19318954.054099083,5238887.264099026 L 19296961.998136945,5287774.3277965095 L 19282894.776724383,5308405.024519633 L 19274839.36441211,5315435.8793128785 L 19266327.319548603,5321147.621730338 L 19245900.638266,5330898.398764497 L 19236899.455559947,5342120.625641919 L 19226941.593150016,5351445.494097936 L 19216418.339046344,5353535.570100628 L 19216744.505154368,5357672.314420335 L 19223484.56636343,5359987.773535175 L 19228746.193415266,5366130.603253865 L 19224843.443387542,5373010.581064638 L 19217331.604148813,5377335.6518445015 L 19209537.013403468,5378578.085919253 L 19205579.93946424,5382980.600497429 L 19224147.696570083,5379850.737792819 L 19229376.70701112,5383459.910866932 L 19230355.0940157,5391042.293086614 L 19232290.16072416,5397895.77432343 L 19236790.69641744,5406976.553971402 L 19252401.585208837,5412759.934644969 L 19266425.169381008,5415465.051236557 L 19269186.449350137,5419674.654374255 L 19271284.599112608,5434212.421220328 L 19268729.816798903,5441354.239117711 L 19265577.248819638,5446058.097742169 L 19260870.104151443,5447732.231213756 L 19249433.696264796,5448652.362130277 L 19237975.692396935,5445364.440904017 L 19230365.892006304,5436562.227045107 L 19208700.002152193,5439379.884290275 L 19202916.50932752,5441278.763540279 L 19199937.933712363,5439696.23409611 L 19211939.510653768,5430462.826728416 L 19205645.172685847,5425210.069165626 L 19200427.07155491,5423239.168963548 L 19194785.065803032,5426293.450186324 L 19190990.963598326,5431125.297833626 L 19189838.695549127,5439108.603696813 L 19185957.7641416,5443705.867968008 L 19179967.773661505,5445017.632089647 L 19171520.9620196,5438400.349025895 L 19163182.909520205,5428927.31633938 L 19150909.490382284,5419403.95289943 L 19152768.41455904,5425300.358897751 L 19162226.22981633,5439756.5732686715 L 19166965.991095323,5449361.406091925 L 19155942.8011585,5457028.286865103 L 19144462.97867044,5463009.33517221 L 19134776.84713754,5466515.298502903 L 19125623.379368085,5471988.217977537 L 19114893.738928482,5480536.905895412 L 19108990.688970696,5483595.24219383 L 19093271.15235629,5483776.817953308 L 19084900.483246088,5486487.8572257515 L 19082106.586666156,5497794.598951264 L 19076214.55733796,5504986.088119657 L 19062430.08743201,5506412.971372339 L 19067398.16498662,5508675.1467147935 L 19070474.590434182,5512274.389717722 L 19061353.85059502,5546455.158561037 L 19059353.550664958,5560676.626855726 L 19057657.70954221,5585051.2545525925 L 19051917.74263844,5607726.252425897 L 19035524.166507274,5607588.084237726 L 19038176.79865339,5611610.759402822 L 19050569.77492442,5618016.841042674 L 19048243.308886334,5627703.973611917 L 19034600.214733694,5645398.151990771 L 19028914.571741425,5655654.764384265 L 19023381.213812564,5680581.833230323 L 19015064.86861387,5703623.252463702 L 19002302.3116334,5729897.939089155 L 19002204.461800996,5734629.796011468 L 19006672.492202967,5741342.670600322 L 19012086.292998713,5747156.130365583 L 19012390.640486546,5755360.966246833 L 19010727.415974602,5759684.615924018 L 19004661.282962803,5760824.459730018 L 18999367.150619656,5763651.276576746 L 18970971.99754709,5770902.025902543 L 18961655.44672362,5779034.781186365 L 18954013.14104168,5793598.551233777 L 18945033.665636335,5806161.512362991 L 18915214.40231805,5834095.92166893 L 18897679.35612829,5857571.3032190185 L 18894157.20743959,5864299.178445824 L 18889428.2441512,5869198.166753534 L 18851096.93596941,5880349.814778597 L 18823973.719398648,5881996.0315681 L 18809189.04386792,5879131.074173377 L 18794937.14342013,5873499.0282083405 L 18787033.90485177,5871569.751322467 L 18771966.58913392,5875017.453730392 L 18765378.812988266,5878814.585845201 L 18753594.53169289,5875064.913821134 L 18744212.858967304,5877896.785614844 L 18741440.781007566,5875143.96054856 L 18737929.430309474,5868233.94753512 L 18739864.385698445,5859071.29540783 L 18737266.300102822,5852300.078950099 L 18731308.926233526,5847710.026295265 L 18727308.3263734,5842381.602510885 L 18722731.648148414,5838584.355900899 L 18710284.347965874,5837088.010962501 L 18690586.030111533,5839482.252560698 L 18684085.083168697,5839230.2644216195 L 18670735.427193787,5816824.86591849 L 18666300.12472211,5811326.746581019 L 18650406.595743593,5804184.091939871 L 18644971.087647136,5805172.666532673 L 18636469.952093724,5817107.754736894 L 18631425.73200741,5819135.228845329 L 18601519.528166816,5820408.472025692 L 18571515.474493813,5816557.7551001785 L 18560470.465936795,5812112.028724581 L 18558307.08295272,5801799.240978277 L 18581081.937574115,5773497.4644358475 L 18574374.49297586,5777282.391975878 L 18560329.090183493,5788803.911567905 L 18551382.231388945,5787034.034124899 L 18559959.509474058,5774466.926005451 L 18560720.489513118,5768869.881168619 L 18558959.41516877,5762635.97542647 L 18547240.367094997,5773200.273777339 L 18533934.23704099,5774560.771152968 L 18532205.77930744,5764775.952439786 L 18533390.66396744,5753441.652148644 L 18536130.236635868,5750228.223921247 L 18572102.462168768,5744287.948330165 L 18585071.628124148,5740407.764234349 L 18590724.54318612,5734333.901619803 L 18569199.917765822,5732247.933668372 L 18567830.131431613,5723737.921049836 L 18570939.284809466,5716929.61025755 L 18589333.049551204,5705624.832004556 L 18575776.895920873,5708511.760266962 L 18560742.19681382,5707502.882302889 L 18561753.200429205,5695574.426975253 L 18565677.657757632,5686247.555105917 L 18581440.720292944,5685968.7980558835 L 18576505.259349134,5679575.940561824 L 18575798.603221577,5670652.081430804 L 18580179.693101235,5670049.326872607 L 18596160.051282573,5682052.053071265 L 18607683.399691533,5686448.937894944 L 18602834.87927003,5677409.883329765 L 18603465.392865885,5671718.872645742 L 18606531.13164233,5669168.219425791 L 18615967.128279418,5667344.711054532 L 18613379.840674404,5665753.182706775 L 18604530.831712265,5663466.932455325 L 18594007.688928086,5656611.672020939 L 18592877.0168601,5649375.995759792 L 18593235.799578927,5641006.01630895 L 18604596.06493387,5629519.4611959765 L 18611303.509532128,5636354.255576794 L 18619239.36471129,5634475.746663854 L 18613184.141009588,5629104.118228125 L 18609487.99995678,5621060.229452119 L 18612010.054340195,5615773.518762442 L 18636078.552764095,5594473.14104533 L 18642253.333598908,5614959.219159463 L 18643699.15114533,5608156.017728295 L 18644025.317253355,5601695.50379695 L 18641144.48015112,5596097.968162878 L 18641557.58678145,5590458.082435316 L 18644340.574051283,5585602.564585261 L 18654657.21918004,5580810.770081635 L 18668072.10837656,5565228.585251153 L 18677964.737564884,5557989.41179953 L 18686020.149877157,5562631.5214800555 L 18691542.59849592,5568896.118796324 L 18690716.496554743,5562677.34925859 L 18686802.837216925,5557531.380895321 L 18685704.89307923,5543253.958758948 L 18703718.167801432,5521134.533287175 L 18723514.33548818,5500115.37965936 L 18742484.401233755,5478145.457555006 L 18752594.4373876,5470173.5612868285 L 18774140.881428093,5461136.126945888 L 18787925.35133404,5464898.090346193 L 18791447.50002274,5464203.010499684 L 18811928.616536345,5448426.066574813 L 18820397.13547895,5444339.184602359 L 18828126.49300269,5449964.831645759 L 18832909.668883096,5452001.878366941 L 18828104.674382493,5437601.737626499 L 18831866.04865691,5431004.887048382 L 18848966.28091563,5419373.772794526 L 18870349.530582614,5407382.063280719 L 18886634.347571272,5402397.547634464 L 18898625.12652207,5394296.023770273 L 18905821.820282362,5394071.057035347 L 18904723.76482518,5387954.670471492 L 18905952.286725573,5382096.893822813 L 18912159.5728517,5382501.314904876 L 18914072.93225945,5380195.108985691 L 18908615.6055428,5377036.296861128 L 18926270.208865672,5365308.354829147 L 18935858.490566168,5352400.890431981 L 18940880.89203229,5349729.084341952 L 18945424.95364647,5345834.481828554 L 18951056.161407735,5336947.429217431 L 18957709.28209449,5334011.829088236 L 18963916.6795401,5335382.617058124 L 18968406.41724278,5339749.914204826 L 18965982.101372283,5332492.204935497 L 18958024.538892414,5328366.623381518 L 18966558.29105663,5322055.272523722 L 18975374.683407962,5317711.171452472 L 18983962.870803177,5320879.777227739 L 18992420.480435684,5325954.7404498635 L 18983962.870803177,5318172.3583400985 L 18982603.99377906,5313339.403341992 L 18992833.587066017,5307781.069280518 L 18998388.76361507,5306072.518209775 L 19006161.535740223,5316506.527073833 L 19005052.68229243,5308241.6145172985 L 19006868.19186778,5300919.393461203 L 19017858.7651938,5288960.552660518 L 19032284.6580057,5269200.995458979 L 19036904.862151586,5276069.216671513 L 19037611.40695965,5284424.314534513 L 19036937.47876239,5294492.986918222 L 19039905.256386936,5291006.926842116 L 19040927.169312418,5281860.624342508 L 19038720.260407444,5265828.063365693 L 19056733.646449134,5236247.465995221 L 19060266.704447936,5232945.171276131 L 19064245.48568787,5230940.807562261 L 19070518.116355088,5230159.762671513 L 19068593.958956726,5225695.947916111 L 19063712.821924422,5221381.52263241 L 19068637.373558134,5206406.605698768 L 19071550.827271175,5189342.371891417 L 19075736.21748602,5172967.599518732 L 19082454.460074887,5156942.870035149 L 19089759.801658195,5130279.968203448 L 19095336.685507957,5124726.037311474 L 19110458.325137313,5122817.155735109 L 19117078.82921326,5119073.313202503 L 19128102.019150086,5109465.619390181 L 19141169.03493787,5092123.299652708 L 19148148.210413154,5078161.763401365 L 19157345.092784025,5042117.626200659 L 19162476.253392648,5004566.519726195 L 19177315.252834883,4976813.533257831 L 19199068.194530796,4956770.255915266 L 19218266.465232495,4941543.001901152 L 19226115.379889347,4938383.157025986 L 19239367.186031852,4937411.045276711 L 19251999.276569106,4941614.462287751 L 19228506.96782955,4945276.03895087 L 19226115.379889347,4954307.080011735 L 19225365.309160385,4963461.072191052 L 19228093.861199215,4971662.661257497 L 19232311.868024863,4978981.03748051 L 19243704.749990612,4985873.743709429 L 19257010.880044624,4989983.097345767 L 19262979.051904522,5005501.997716678 L 19264076.996042214,5023943.98752153 L 19265914.212918267,5039791.786279234 L 19271110.6067485,5053625.602906102 z" /><path fill-rule="evenodd" fill="currentColor"    d="M 19360090.056851413,4992254.063035153 L 19345196.73349767,5000810.626746724 L 19345794.630482722,4994870.523970429 L 19348708.084195763,4981952.859561059 L 19355491.67132573,4975435.852015031 L 19358829.02965971,4974991.067778112 L 19365634.324090373,4970099.189178767 L 19364916.86997221,4980947.743211972 L 19360090.056851413,4992254.063035153 z" /><path fill-rule="evenodd" fill="currentColor"    d="M 18562111.983148035,5725370.854313623 L 18561524.995473083,5733197.44602971 L 18560209.533050377,5737136.843112681 L 18556350.30894356,5737167.94047562 L 18550556.018128276,5736295.820222938 L 18544903.103066303,5732683.864754299 L 18541283.104545195,5733711.216318641 L 18538260.891689647,5732372.574310226 L 18542163.64171737,5723551.460171493 L 18555361.123948365,5718872.106615642 L 18560459.5566267,5722634.021140135 L 18562111.983148035,5725370.854313623 z" /><path fill-rule="evenodd" fill="currentColor"    d="M 18588072.022359498,5649854.1817233935 L 18592877.0168601,5668843.78096193 L 18582690.83817455,5665212.453229677 L 18578407.709446788,5659467.3551979605 L 18586202.188872643,5649962.045546501 L 18588072.022359498,5649854.1817233935 z" /><path fill-rule="evenodd" fill="currentColor"    d="M 18717807.096514706,5919611.678686189 L 18717850.6224356,5926116.735664595 L 18706240.333504338,5923778.227315584 L 18706479.44777056,5931082.378957902 L 18715643.713530626,5934919.89732574 L 18719035.50709561,5940161.443089796 L 18728547.6462644,5938647.663949531 L 18730689.321947776,5946490.602436493 L 18728493.32235289,5953510.616996523 L 18722144.660473462,5958667.360366658 L 18703348.587092,5961270.924774857 L 18691162.108476385,5971485.142599941 L 18680606.34908141,5969933.815228865 L 18677736.421289265,5970861.335876317 L 18665647.79250606,5981823.365162456 L 18652124.25548653,5985218.753242464 L 18648460.731044523,5984401.724853086 L 18650330.56453138,5974620.412187809 L 18660375.36746362,5965329.609014284 L 18660592.77442914,5956415.916423309 L 18663169.264043547,5949297.831665339 L 18672833.576956257,5944289.976235119 L 18672953.13408937,5935031.4527306035 L 18679497.495633613,5926832.830498784 L 18675540.421694387,5909108.69603999 L 18677627.66214676,5893211.524905927 L 18696749.901636247,5892339.770616988 L 18717807.096514706,5919611.678686189 z" /><path fill-rule="evenodd" fill="currentColor"    d="M 19541375.628720112,4339120.576647437 L 19542267.075202383,4346661.502167451 L 19533744.121028777,4343976.332983275 L 19530406.762694795,4338284.479216388 L 19520851.0976051,4332406.976970997 L 19519448.69466009,4330628.123971908 L 19518383.367133196,4319180.845673542 L 19523394.97060871,4313676.864847806 L 19524275.507780887,4311322.72893719 L 19526482.305366375,4310381.217836156 L 19530374.146083996,4316408.24884691 L 19537973.037164524,4324997.229007976 L 19541375.628720112,4339120.576647437 z" /><path fill-rule="evenodd" fill="currentColor"    d="M 19288265.16291872,4155019.633938407 L 19289950.09473137,4161240.454612378 L 19296113.966256082,4156809.8689258504 L 19300712.46310126,4149822.6160807894 L 19308126.56382708,4142747.098159528 L 19307104.650901593,4154170.9922624743 L 19310887.73247671,4156677.3194753733 L 19335499.803974163,4164650.8856820394 L 19340565.73136118,4171302.1838457277 L 19345794.630482722,4173201.4017798337 L 19348751.610116664,4169482.965593588 L 19352219.434893858,4167451.705440249 L 19361111.969776895,4171647.4596722675 L 19381169.070350066,4183313.7321732263 L 19382832.29486201,4187329.327386191 L 19381810.493256014,4193328.882250062 L 19382810.587561302,4199664.61942614 L 19385528.34160953,4204725.050936377 L 19392214.078907084,4205897.317136398 L 19401084.795169923,4198386.548471477 L 19405248.366764575,4197454.706398249 L 19411151.416722365,4208068.94396118 L 19413358.21430785,4214079.777457224 L 19412445.060524873,4213879.78670933 L 19416249.960720185,4219840.386753006 L 19421326.686097812,4225764.311814768 L 19430088.75453764,4243260.8479189435 L 19428784.201425035,4249411.346577462 L 19426207.823130116,4254949.778096751 L 19434230.618831586,4271152.951046272 L 19428979.90108985,4272278.676060884 L 19413119.100041624,4269531.46897926 L 19413651.76380507,4272774.536950151 L 19422881.26278674,4284682.934266795 L 19430675.742212594,4301535.201882914 L 19436926.66557911,4311712.799642757 L 19458886.10493044,4343288.360953876 L 19455581.363207266,4354545.267531655 L 19456092.319670007,4361975.377796285 L 19453276.71578937,4368369.323692302 L 19460788.555028103,4385176.819042955 L 19456103.117660612,4390405.884084752 L 19452994.07560225,4407655.141004093 L 19449591.372727167,4410682.171762865 L 19450015.388667602,4416996.699372534 L 19458864.397629738,4418667.665572808 L 19464202.055893783,4421358.010962709 L 19468822.26003967,4426482.347740624 L 19471692.2991513,4420311.622795824 L 19475573.23055883,4418626.903782817 L 19486150.697254512,4426876.629894906 L 19508197.18844765,4435105.599334787 L 19514252.412149347,4438167.638554749 L 19517252.806384705,4444811.764466209 L 19519503.129891086,4460894.770055865 L 19523808.077239048,4467990.103247885 L 19532222.272270143,4469355.0300667025 L 19541299.48618841,4467212.04121879 L 19544158.615989942,4461344.950478963 L 19542354.015724696,4445588.039481109 L 19535809.654180452,4420406.7953338865 L 19535777.037569646,4412229.934307211 L 19536712.00997282,4404045.73399078 L 19535168.231274497,4395922.091372959 L 19531896.106162123,4388251.581204553 L 19528373.846153934,4382373.852395467 L 19523829.784539748,4377446.521217481 L 19525416.977839477,4369748.665428417 L 19532211.362960044,4366273.7173578935 L 19536309.701333094,4372778.411956854 L 19539690.585587975,4380627.3268736135 L 19556768.999226496,4403896.526272109 L 19566868.237389736,4402254.962454564 L 19567814.007783517,4411904.041592804 L 19574662.82813508,4421711.32937742 L 19578445.9097102,4433214.44133871 L 19583446.60387562,4467662.491187932 L 19591132.435478453,4500196.94646674 L 19604982.138606012,4514404.174989657 L 19606591.039206445,4521206.45825533 L 19598165.934865247,4517695.086371777 L 19595556.939959526,4519738.701875351 L 19596448.386441797,4523168.423964284 L 19604297.189779155,4529413.340302592 L 19613504.981460124,4532489.173903582 L 19619299.272275407,4532049.713615655 L 19624702.163761057,4534329.623656608 L 19660663.59130335,4555573.152326615 L 19677948.613916785,4563848.483820945 L 19721563.145131625,4577411.831416106 L 19734053.971235067,4578501.547641474 L 19740946.31750753,4578129.067908523 L 19754013.22197583,4573412.71433386 L 19765699.653438795,4564950.600875933 L 19775787.982291937,4552311.697604618 L 19784517.434120964,4537915.255825611 L 19794018.66397966,4530937.434409563 L 19804791.94165965,4525446.395830248 L 19810194.833145306,4520355.895795891 L 19815891.274128176,4516735.142012582 L 19845166.964372918,4518421.9840540625 L 19855026.97695044,4525665.91450616 L 19867854.878472008,4531473.029160376 L 19874562.21175077,4536019.308995119 L 19872311.99956388,4545241.582953134 L 19864636.965951644,4558877.08034507 L 19858723.118003253,4573812.5566305425 L 19853526.835492514,4607842.273444685 L 19849982.868183617,4642345.50840986 L 19844666.917220276,4657583.215142127 L 19834980.785687372,4669335.954461322 L 19824316.267149884,4677926.156536968 L 19812216.84037607,4681966.281998006 L 19807313.996043064,4701673.8794177 L 19804889.79149206,4724791.421193733 L 19805585.538309522,4730614.069424956 L 19809455.560406946,4735221.3869627025 L 19811042.753706675,4742101.20787762 L 19804715.79912795,4756043.517033929 L 19801008.748765044,4754022.454514537 L 19795801.556944206,4742423.726946366 L 19791061.795665212,4737574.9701085165 L 19776559.76032161,4733960.830696601 L 19761764.286800273,4732252.324191394 L 19748914.789297495,4733302.575542842 L 19736565.227627873,4738275.398478141 L 19717877.913388915,4748368.706113728 L 19712094.53188373,4753489.196085355 L 19707028.604496714,4759974.4171478795 L 19698440.528420992,4774461.574122437 L 19696396.70257003,4792209.189135072 L 19696788.101899657,4801524.668647207 L 19699832.02205591,4808732.320982131 L 19715779.76362644,4818557.665235401 L 19699984.195799824,4852980.015167958 L 19685982.318928353,4888901.805651388 L 19678024.645128995,4899191.091818088 L 19668903.905289833,4908678.738050046 L 19660304.808584522,4930380.773318877 L 19645270.220796965,4949125.096561941 L 19635105.749412123,4963446.836240473 L 19627169.89423296,4978320.608388854 L 19620255.951979283,4994194.73758557 L 19605438.659837753,5016635.150316515 L 19598905.207603604,5031489.4745471245 L 19590327.92951849,5043851.644306822 L 19574380.076628465,5059674.129970678 L 19557421.331442546,5073261.114854751 L 19530678.49357182,5092065.149611339 L 19523242.685545303,5098283.246453799 L 19515393.882207945,5102833.215856837 L 19505642.517453436,5097440.383360835 L 19503674.834134173,5091571.408949501 L 19501468.036548685,5078799.767417596 L 19499348.17948551,5074101.863438488 L 19486911.67729358,5070217.576764082 L 19470452.979260303,5076407.024686869 L 19467702.608601272,5075087.580141676 L 19467017.65977442,5072159.5245404085 L 19466995.952473715,5053466.513430219 L 19469800.647044253,5048202.483609051 L 19465952.33224753,5045296.921365015 L 19462158.341362312,5046438.822130252 L 19460842.9902591,5051195.700241786 L 19463234.5781993,5055318.275583227 L 19453863.703464326,5060441.357324825 L 19444123.24801991,5060586.182772048 L 19441166.37970546,5058574.089187017 L 19440318.45914409,5055130.120358086 L 19442677.430473488,5049474.876179225 L 19445829.998452757,5044502.036675168 L 19463962.941627562,5021016.898926961 L 19482780.72230973,4989896.861114433 L 19499000.306076784,4956684.312222589 L 19503229.110893037,4939655.4938176405 L 19509197.39407243,4908080.084007637 L 19504305.34773003,4894963.034331143 L 19498271.942648523,4882659.277547854 L 19481943.599738963,4858990.991894403 L 19460179.860052444,4845641.291742273 L 19446101.840649273,4843757.941081846 L 19432762.982664965,4838803.304343426 L 19420207.03465941,4827530.180096561 L 19408781.536082864,4814250.723917328 L 19386137.147904675,4803386.060587407 L 19362286.05644629,4794857.77204604 L 19348675.46758496,4782845.86179221 L 19345435.959083386,4775699.12127738 L 19343283.48540941,4767433.167442379 L 19343587.832897235,4759749.683143681 L 19345283.785339475,4751973.780955122 L 19348001.5393877,4745984.608451224 L 19352262.960814755,4741652.683785531 L 19377538.16251886,4726148.855976846 L 19404291.798380192,4717531.881485271 L 19409227.259324,4717685.661130827 L 19413945.31330229,4716315.47216114 L 19420630.939280353,4711045.906695094 L 19432621.718231153,4699007.748655493 L 19436089.543008346,4690929.717462133 L 19438448.625657234,4665287.005546645 L 19442286.031143863,4640111.020973035 L 19449221.79201773,4611342.746301773 L 19459679.70158031,4593534.521942413 L 19463104.11175609,4582626.840389444 L 19458831.781018935,4564675.09591246 L 19462745.329037264,4558106.0510864975 L 19467506.90893646,4554141.841906722 L 19472898.89111201,4551843.785839329 L 19463767.24196275,4535043.894475599 L 19453015.782902952,4509689.211138139 L 19450765.459396567,4501839.903170429 L 19452406.976607803,4494092.443129578 L 19455048.699443817,4486473.76541208 L 19448341.25484556,4484545.950382474 L 19444460.323438037,4477248.373405603 L 19434806.808515932,4452741.207316283 L 19437459.329342555,4448857.498881639 L 19443025.30388222,4451487.414032113 L 19451330.73977081,4469150.244835946 L 19452678.81880432,4460049.21464661 L 19459049.187984455,4454458.715568828 L 19465756.632582717,4451555.514747283 L 19472996.74094442,4450928.669803871 L 19456646.690734155,4431269.1601798665 L 19451178.5660269,4432058.094811046 L 19443949.366975293,4435187.2496706 L 19436546.175559577,4437119.592217879 L 19429316.86518848,4435391.378260494 L 19422533.38937801,4431010.791266499 L 19419076.362591427,4422744.216452892 L 19414793.233863667,4406854.535275065 L 19412108.09642624,4400980.03194201 L 19390615.976297256,4368572.177301925 L 19396942.930875983,4367558.086072805 L 19414293.18671102,4383768.449346589 L 19417652.252345707,4378583.375035416 L 19420163.508738514,4371128.184624899 L 19419337.295477845,4362840.305380349 L 19415184.521873802,4356571.0888645705 L 19409009.852358483,4352479.317442135 L 19408901.093215976,4345136.729157975 L 19413608.23788417,4338405.850856179 L 19413314.68838695,4333700.8347955085 L 19403378.644597214,4324108.444872099 L 19399410.66134789,4323085.020158539 L 19397649.587003537,4327569.805792642 L 19400486.898184873,4334213.038344261 L 19397834.377358254,4334954.403232963 L 19373646.321801238,4317484.926513222 L 19366177.897163916,4303456.958790545 L 19360068.349550713,4288064.657132821 L 19359448.745264955,4294321.053785401 L 19360383.606348634,4303120.998354483 L 19369939.27143833,4320769.227928674 L 19385441.401087217,4340523.1013952615 L 19388115.629214544,4345797.875169438 L 19385821.891106755,4352614.260635269 L 19380440.70692181,4354558.8196827425 L 19375679.238342103,4350238.20834275 L 19368591.303724315,4333309.969868763 L 19363481.850416396,4324849.116226462 L 19304158.58057775,4237861.982830356 L 19311735.653038085,4226431.499749619 L 19323487.31772266,4216812.984120149 L 19326215.981080983,4212533.458817953 L 19327977.05542533,4207336.152889439 L 19323019.887180816,4206443.526042351 L 19318573.564079553,4208801.783716051 L 19313496.838701926,4213226.599894381 L 19308844.017945237,4218266.628927085 L 19302984.493908353,4229461.550852907 L 19300168.890027717,4232051.86260622 L 19293222.331163235,4224296.2855693195 L 19290580.60832722,4219506.987527515 L 19290689.367469728,4213773.171964531 L 19288830.443292968,4210134.282371995 L 19283666.666073542,4208988.310191029 L 19276100.391603816,4197601.102364173 L 19271262.780492414,4191812.0333588803 L 19279285.687513374,4180708.295256806 L 19279492.1851688,4166084.3724921746 L 19271328.01371402,4150750.467560905 L 19261565.8509689,4136721.763987792 L 19242769.777587436,4114027.0246294355 L 19225539.190205004,4090086.0300410045 L 19244215.59513386,4087080.4485828 L 19263163.84225924,4086566.5049677836 L 19254238.80208489,4100888.7665644824 L 19258250.199935626,4109179.2460630625 L 19264327.130938027,4116180.791647227 L 19277318.004194114,4137675.1000079717 L 19278448.56494261,4143886.2481840625 L 19285047.25039836,4150167.2259817235 L 19288265.16291872,4155019.633938407 z" /><path fill-rule="evenodd" fill="currentColor"    d="M 18832833.637670882,6890541.794016438 L 18838986.5998855,6899868.209590367 L 18827191.520599518,6903909.430678901 L 18821451.66501523,6900529.644154073 L 18817429.3578544,6896257.91614446 L 18815418.14861424,6890202.4299279535 L 18821799.538423963,6890827.412179218 L 18827311.07773263,6888327.774608498 L 18832833.637670882,6890541.794016438 z" /><path fill-rule="evenodd" fill="currentColor"    d="M 18503647.54318086,6579217.821801359 L 18506071.74773187,6594045.619629994 L 18499951.402128052,6594114.55429618 L 18487188.733828094,6589983.373224752 L 18483231.659888867,6583653.144331149 L 18480513.90584064,6582105.720639127 L 18475850.287093345,6589432.717533288 L 18468360.15515532,6589776.850995353 L 18466696.819323886,6587350.955310293 L 18469642.88964773,6579492.891577883 L 18487253.9670497,6564708.467128961 L 18490515.29417147,6546115.358561311 L 18490319.594506655,6540143.613238435 L 18504093.266421996,6538741.101767379 L 18507343.68423367,6541015.924529035 L 18508811.209080797,6543582.420155359 L 18507908.96460792,6546851.393560183 L 18502364.69736896,6552947.984110221 L 18502147.29040344,6560043.311227491 L 18503571.400649156,6567402.368341413 L 18499016.42972488,6570972.634281099 L 18501386.310364377,6577344.846190183 L 18503647.54318086,6579217.821801359 z" /><path fill-rule="evenodd" fill="currentColor"    d="M -19612004.840002194,5425345.504095201 L -19615999.87388778,5429348.8972295225 L -19622826.986938644,5429123.07545253 L -19634725.259392593,5444851.798477259 L -19634002.350619383,5433097.8843387915 L -19637578.934539076,5428521.0138379475 L -19647792.275180377,5429619.736511463 L -19649732.796543885,5432194.417238253 L -19642873.178201716,5435296.860658061 L -19641351.21812359,5437029.205488923 L -19647906.37765844,5443826.444885544 L -19641111.99253787,5458432.722488289 L -19635138.366022922,5457934.349795999 L -19629365.89382784,5469357.167988946 L -19629393.055783592,5472941.137746426 L -19642633.952616,5477343.384913305 L -19649618.58274633,5483504.378134807 L -19655853.142147698,5483246.831492266 L -19658799.212471545,5482050.830753537 L -19662288.85586893,5471035.552019149 L -19662533.424790204,5466409.436165115 L -19654874.75514312,5458342.107261112 L -19650537.191184357,5450130.911933519 L -19654026.834581748,5442560.080096162 L -19662870.388888836,5437662.063079352 L -19682171.96407799,5439877.098477163 L -19686591.013904013,5438234.634553322 L -19676953.862947058,5428054.312115367 L -19666506.75137509,5429168.239365496 L -19655249.7905076,5421840.243973181 L -19612004.840002194,5425345.504095201 z" /><path fill-rule="evenodd" fill="currentColor"    d="M -19611874.373558983,5515358.606288222 L -19616809.834502794,5516741.3580811955 L -19616119.542340383,5507870.394224178 L -19617755.60489657,5502148.371665316 L -19609450.057688486,5500251.923651183 L -19605873.585088283,5507080.947422711 L -19611874.373558983,5515358.606288222 z" /><path fill-rule="evenodd" fill="currentColor"    d="M -19200291.150456652,958796.9003937774 L -19200796.65226434,959038.7221600388 L -19201302.15407204,957763.4317205005 L -19201949.031633038,956367.2754365377 L -19202465.442750826,955102.9838308324 L -19202280.541076615,954938.0691886682 L -19201193.50624902,956026.4049704379 L -19200508.668741662,957301.6436572258 L -19200291.150456652,958796.9003937774 z" /><path fill-rule="evenodd" fill="currentColor"    d="M -19056385.773040406,1046104.8979810477 L -19056630.34196168,1046424.4059006217 L -19057119.591123715,1045763.2801033667 L -19057902.278463483,1044893.0028145579 L -19058391.41630603,1043603.9809024606 L -19058081.614163153,1043526.816919607 L -19057277.21952268,1044220.9597725046 L -19056706.484493386,1045102.2782596167 L -19056385.773040406,1046104.8979810477 z" /></g></g>
</svg>
