<?xml version="1.0" encoding="UTF-8"?>
<svg xmlns="http://www.w3.org/2000/svg" viewBox="5786124.083477615 -3043283.5307465685 874955.9468648927 1163349.9843238296">
  <g id="map"><g><path fill-rule="evenodd" fill="currentColor"    d="M 6536910.930726967,-2298962.952262225 L 6529899.138640879,-2297167.3457644624 L 6527877.13141011,-2298007.1796110743 L 6527909.7480209125,-2313038.254546703 L 6544248.888921077,-2331951.602441511 L 6554978.640680168,-2353829.999071822 L 6562370.922785787,-2334278.6986403135 L 6549499.606662814,-2323318.9831964388 L 6542498.723886825,-2304669.4366409066 L 6536910.930726967,-2298962.952262225 z" /><path fill-rule="evenodd" fill="currentColor"    d="M 5909466.969832489,-1879933.5464227388 L 5902715.99931333,-1895256.8660077488 L 5895965.028794173,-1910590.8211992865 L 5889214.169594506,-1925929.8028449316 L 5882452.401084741,-1941285.3137407452 L 5877734.34710645,-1952034.9303884679 L 5869787.582617191,-1955820.5320511328 L 5864971.790125982,-1967198.2677753766 L 5860047.127172778,-1978855.7829337465 L 5855111.666228969,-1990519.5911467727 L 5850187.114595256,-2002184.125997176 L 5845262.562961543,-2013860.9951170017 L 5840327.102017731,-2025544.2850646123 L 5835402.550384019,-2037234.1555738791 L 5830477.887430815,-2048925.0282198132 L 5825542.426487005,-2060628.1857431247 L 5820617.8748532925,-2072332.4252711202 L 5815693.32321958,-2084049.0426248852 L 5810768.660266375,-2095766.8222286673 L 5805833.310642055,-2107497.073154035 L 5800908.647688853,-2119234.2079700837 L 5795984.09605514,-2130978.3880771766 L 5791048.635111329,-2142729.4222935154 L 5786124.083477615,-2154481.8210983574 L 5801811.003481222,-2160018.4363564327 L 5820965.748262021,-2166770.328562077 L 5840120.493042818,-2173524.5604419815 L 5859264.439833011,-2180281.2582708257 L 5878419.18461381,-2187040.194716801 L 5897563.131404001,-2193801.49604052 L 5916717.876184801,-2200570.953211339 L 5935872.732285089,-2207337.011628222 L 5955016.56775579,-2214105.578350029 L 5974171.423856079,-2220876.425699033 L 5993315.25932678,-2227655.470955466 L 6012470.11542707,-2234431.143195864 L 6031624.860207868,-2241209.23961434 L 6050768.695678569,-2247989.88704135 L 6069923.5517788585,-2254772.8574473667 L 6089067.387249559,-2261558.2776485067 L 6108222.243349849,-2268351.9594789012 L 6120049.939246634,-2272550.7996795317 L 6124963.581570249,-2288348.428906473 L 6129051.121952686,-2301477.000013666 L 6133116.955034421,-2314615.0453485083 L 6137204.384097368,-2327762.389985562 L 6141281.015169709,-2340919.215225235 L 6145346.848251442,-2354085.702917021 L 6149423.479323783,-2367261.678241073 L 6153511.01970622,-2380447.4425414638 L 6157576.741468464,-2393642.821071698 L 6161653.372540804,-2406853.844269375 L 6165730.003613145,-2420068.8851180887 L 6169806.634685485,-2433293.970580831 L 6173883.377077316,-2446528.926065216 L 6177960.008149657,-2459774.055277832 L 6182036.639221997,-2473029.183707167 L 6186113.2702943375,-2486294.4959860127 L 6190189.901366678,-2499570.1773412623 L 6193929.568340387,-2511747.9511980503 L 6186885.048324008,-2523477.038351555 L 6177427.23306672,-2539241.823984497 L 6167523.805887788,-2555744.3320689187 L 6158207.255064317,-2571292.4199061664 L 6151434.577244453,-2582621.485988459 L 6143259.607799068,-2596273.7859177925 L 6144172.761582046,-2613888.7260485394 L 6143966.263926624,-2622703.278216647 L 6144824.982478604,-2636223.5389813236 L 6152652.189834751,-2655005.007332621 L 6161892.598126519,-2678942.017076087 L 6168643.457326187,-2694874.3940903284 L 6174481.274062367,-2708739.9682735875 L 6179177.509420463,-2719886.243525985 L 6181753.999034873,-2731373.1633092593 L 6180384.212700662,-2739461.7364949067 L 6177318.585243706,-2742404.618843092 L 6174720.388328591,-2746234.1120719705 L 6183558.599300123,-2752354.957552517 L 6200115.147165806,-2756347.6338003324 L 6209301.231546068,-2755490.7385818763 L 6222107.314447435,-2758454.4230288635 L 6232239.057901985,-2761133.020401411 L 6233021.856561243,-2764740.8857838954 L 6230141.019459004,-2770797.4863662324 L 6225944.71993406,-2779645.48851387 L 6211594.9696538625,-2780563.2792342384 L 6207268.315005201,-2783007.242173728 L 6212258.099860518,-2796091.674941033 L 6212073.309505802,-2800214.8735816777 L 6210159.950098047,-2805103.279439576 L 6208083.6189557705,-2813307.8908387953 L 6209127.239181957,-2823919.472214911 L 6212062.400195704,-2831129.3877159227 L 6212095.016806506,-2836931.032412643 L 6210692.725180984,-2848905.947389933 L 6211149.246412727,-2859554.1969528156 L 6214171.459268273,-2864851.1766191414 L 6219498.208222222,-2869778.353399334 L 6224520.609688342,-2872278.462646324 L 6229782.236740177,-2872092.6684833774 L 6233956.717644924,-2870000.2166163996 L 6235750.408600077,-2864413.741177896 L 6234598.140550876,-2860572.7314501284 L 6231630.362926328,-2860039.4677768187 L 6230586.742700139,-2858428.011293364 L 6234826.345507002,-2850983.472592512 L 6241001.126341814,-2843692.354138306 L 6245751.796930908,-2844907.298141798 L 6251089.455194955,-2850648.2144200746 L 6256677.248354813,-2855283.2561949566 L 6263710.747741605,-2859380.460275662 L 6268798.382429331,-2867308.610641138 L 6273179.47230899,-2872464.3818949456 L 6277082.111017221,-2873189.906371765 L 6288420.66907146,-2840945.481506752 L 6305205.533212761,-2810823.2996761464 L 6320066.2399557,-2794230.2410712615 L 6335470.519772182,-2771720.733518713 L 6358908.504600233,-2751058.0805110987 L 6369681.670960735,-2743998.1690571853 L 6413263.696884264,-2729501.654836667 L 6437060.4644311415,-2724084.5211020894 L 6469934.445896286,-2718906.700065522 L 6492654.976606174,-2707636.4505792866 L 6500297.282288114,-2706948.279205444 L 6512190.211406504,-2710288.57008999 L 6520876.137314631,-2710021.5883521684 L 6542585.664409135,-2694684.6397802304 L 6548966.942899368,-2680156.1156991785 L 6558000.742216225,-2672482.3952802066 L 6566001.83061699,-2660428.475823196 L 6571176.517146516,-2647816.041927278 L 6589526.867286842,-2628617.748759886 L 6602463.41663142,-2607047.9589436967 L 6615649.989552319,-2591054.177102109 L 6627423.250218106,-2581126.2348754145 L 6645284.351196396,-2577223.80761894 L 6659492.837042777,-2572745.576608579 L 6661080.030342508,-2562093.5976245627 L 6659623.303485986,-2548204.9115233906 L 6656905.5494377585,-2537950.056462449 L 6643642.833985158,-2517986.874613008 L 6640490.266005891,-2505687.262876088 L 6625466.476208942,-2485410.606904335 L 6609203.366520989,-2451458.86440476 L 6601745.851193766,-2443866.0163335567 L 6575503.171795177,-2426379.7080007554 L 6556239.667871874,-2405333.040981543 L 6533388.782038267,-2368895.5844285614 L 6515995.111601817,-2332822.029960121 L 6509320.283614363,-2321294.848251798 L 6495350.912034205,-2318922.972067881 L 6486143.23167273,-2319937.790082513 L 6479794.458473809,-2323324.8037538487 L 6482316.624176712,-2333170.2601577295 L 6483805.967644034,-2344153.39204199 L 6475391.772612936,-2342997.8549845465 L 6467988.58119722,-2340721.8394673388 L 6450649.234672276,-2313780.270833937 L 6441147.893494088,-2301975.3183089206 L 6439125.88626332,-2286982.2965404307 L 6434505.682117436,-2267652.264291263 L 6427722.206306967,-2249884.6460096994 L 6424710.902761517,-2234973.783940972 L 6424819.661904023,-2226524.536591718 L 6429907.2965917485,-2205890.3305814494 L 6430255.170000477,-2184783.062375645 L 6433190.331014222,-2172126.3678521435 L 6435560.2116537215,-2156948.0890157977 L 6427417.858819138,-2152268.719712812 L 6420438.572024362,-2149975.3583033136 L 6392847.924911759,-2148320.2741220784 L 6364865.878469527,-2143470.5807034858 L 6340449.506636893,-2134676.371629679 L 6325838.823470276,-2125937.800684357 L 6306814.433813197,-2106413.2558410293 L 6295204.14488193,-2056983.8646376487 L 6276582.063864578,-2036142.6091737144 L 6263982.589938122,-2031788.350594128 L 6233630.551536901,-2029965.7955077242 L 6190907.35548484,-2024219.1737109218 L 6175905.384308085,-2019210.7634855579 L 6150999.7633134145,-1989105.4923388204 L 6149086.515225152,-1979659.3010338566 L 6153902.307716358,-1972832.4667044138 L 6155478.591705992,-1965290.2043443238 L 6153206.560898901,-1958211.6659930237 L 6141911.528765562,-1939180.3280511515 L 6129714.252159343,-1925355.562124325 L 6097177.23479283,-1916710.2477557312 L 6085240.77975354,-1921859.5639119118 L 6074315.439649126,-1924463.0274419344 L 6053214.71884977,-1924741.6349794215 L 6018840.484607206,-1921467.3774469735 L 6006175.7774591455,-1911261.1319418978 L 5986249.143329186,-1904035.6307059482 L 5967822.650657157,-1892900.888669065 L 5933078.835705159,-1888643.8143905073 L 5909466.969832489,-1879933.5464227388 z" /><path fill-rule="evenodd" fill="currentColor"    d="M 6267048.217395078,-2955880.5916266423 L 6264895.7437211,-2953046.7829269273 L 6261667.033210131,-2952757.505778151 L 6254329.07501602,-2955169.063027636 L 6249991.51105726,-2960801.6008772887 L 6250806.81500783,-2967667.4316463973 L 6251046.040593545,-2980327.355317468 L 6253100.664435117,-2992291.101310632 L 6252535.272741376,-3004960.3799621575 L 6246860.650378699,-3007525.799000501 L 6242849.252527964,-3006841.989910152 L 6252198.308642747,-3024745.2966475463 L 6255851.035094146,-3027496.0256169266 L 6259318.859871338,-3026326.5791370682 L 6267906.935947058,-3028241.3738254695 L 6272461.9068713365,-3037976.6327424943 L 6276049.400101132,-3043283.5307465685 L 6279876.00759715,-3042640.51235823 L 6281734.9317739075,-3039662.4551866055 L 6280397.762050498,-3024884.6321448972 L 6280245.588306584,-3012555.103292757 L 6275484.119726883,-2974898.6387462146 L 6270548.658783072,-2968391.553785166 L 6268091.837621265,-2963124.0370061183 L 6267048.217395078,-2955880.5916266423 z" /><path fill-rule="evenodd" fill="currentColor"    d="M 6265265.324430533,-2904704.114484099 L 6260634.210974552,-2901417.5476782853 L 6257329.469251372,-2901964.212849068 L 6257992.599458027,-2908538.308931236 L 6259971.080767895,-2913107.099730581 L 6264765.27727789,-2912746.322480655 L 6265928.454637189,-2910004.94651034 L 6265265.324430533,-2904704.114484099 z" /></g></g>
</svg>
