<?xml version="1.0" encoding="UTF-8"?>
<svg xmlns="http://www.w3.org/2000/svg" viewBox="-9242561.655997956 -1073460.19589273 649142.6899983734 267590.2667830414">
  <g id="map"><g><path fill-rule="evenodd" fill="currentColor"    d="M -8613258.659607233,-967527.1077274169 L -8615356.698050214,-965993.1482968983 L -8621509.77158432,-957120.2845685639 L -8624868.948538499,-949529.7823068544 L -8616938.436694894,-941517.5953310065 L -8614557.758064792,-933012.3871927585 L -8610062.565707067,-923772.8037620346 L -8603061.571611589,-914496.7942435263 L -8595234.475574931,-897273.2655380911 L -8593418.965999583,-890368.100315428 L -8595642.127550216,-885878.7146023901 L -8603099.642877439,-883140.1799325694 L -8610073.363697676,-875090.3893380022 L -8611981.268450381,-865264.6457759963 L -8610649.553382019,-860410.1117886043 L -8631521.957905758,-844730.9773319832 L -8636897.687435657,-842126.4252240018 L -8640463.473364748,-844539.0617381082 L -8644915.13980157,-852408.1141586626 L -8650231.090764914,-858764.6729258347 L -8653090.109246956,-860980.6592062173 L -8654747.99042334,-861084.7941164026 L -8656416.669590332,-859620.2985308714 L -8657177.649629394,-856164.8649722993 L -8654410.915005218,-841441.1168263184 L -8656726.471733209,-835459.5910918291 L -8663808.951695949,-830871.2035707175 L -8671918.799239222,-806911.0169980659 L -8675103.98382929,-809941.0434158923 L -8701857.619690618,-842208.734747625 L -8725023.873641644,-882212.7608250283 L -8729850.57544295,-900319.9143076712 L -8723844.332317198,-901395.9981474526 L -8718033.788856262,-900989.6669753966 L -8714908.382832749,-903784.138635051 L -8711293.727647202,-909049.5115556031 L -8714223.434005897,-921301.2619456555 L -8702961.018483361,-930606.1447697971 L -8698715.961021451,-936885.6941118947 L -8695595.898333495,-936154.9784066676 L -8688236.232838681,-925486.6084250495 L -8677539.097690392,-919356.9259761291 L -8664401.505345441,-910460.6945326348 L -8656264.495846417,-908445.5356042081 L -8666548.52436437,-917775.2893669287 L -8684311.775510255,-930056.8914412312 L -8689285.307719914,-938127.3987127902 L -8693992.45238811,-949365.0015737023 L -8700933.556597544,-944495.9243181773 L -8704156.812453462,-940402.1671196931 L -8707749.760338305,-938072.4861550881 L -8710875.166361818,-940863.7744819967 L -8711429.648745459,-944495.9243181773 L -8721898.356298639,-945204.8338547512 L -8724588.948391112,-948496.6490144513 L -8727361.137670338,-950343.2275647122 L -8726100.110478632,-943336.4168234672 L -8724040.031982012,-939006.5716686647 L -8725143.430774754,-933792.5569213417 L -8728546.022330342,-933424.4104931615 L -8731459.476043385,-938825.1767970165 L -8735177.435716389,-943704.6468486369 L -8740145.40195151,-964134.8604999664 L -8752038.3310699,-973768.0124160011 L -8757484.748476453,-976974.070647297 L -8761979.940834176,-978183.9378054402 L -8768600.444910124,-984734.407002431 L -8777346.149384806,-988238.2729098301 L -8789249.987813294,-998416.2950005707 L -8803855.216324862,-1005701.8774908178 L -8821700.064657496,-1008282.9316679938 L -8843387.773131805,-1006697.9872318355 L -8850687.660060067,-1002647.6531764633 L -8855650.282959629,-997508.3926376891 L -8857954.93037752,-995120.4695786339 L -8870766.46793394,-989228.5519148476 L -8875620.443010489,-980708.3048897303 L -8878680.615812395,-973525.9940535645 L -8885067.348957678,-965377.3506341565 L -8877778.260020027,-960457.0321254561 L -8919561.140333354,-932787.137421715 L -8927834.07093064,-928771.4269040445 L -8946602.871036857,-925937.0345198291 L -8950929.525685519,-922976.388042806 L -8956653.128624145,-917511.6512261387 L -8957419.563318256,-909197.7236107178 L -8956555.278791739,-902126.1441463223 L -8951103.51804963,-896674.8426005148 L -8946254.997628128,-893238.6997558742 L -8934606.637431009,-876791.3481627154 L -8913929.932572085,-856049.7330905185 L -8910016.384553757,-848498.1347670634 L -8906809.381343493,-837296.2340656488 L -8913049.395399911,-832038.8895213336 L -8917870.75386566,-829818.726984316 L -8937541.909764249,-828941.736457329 L -8944325.385574717,-824458.0119404045 L -8947075.756233746,-817607.2558650719 L -8954413.714427859,-812028.682730794 L -8979775.85665427,-806500.1000403014 L -8999686.238138573,-805869.9291096886 L -9005882.726274092,-812275.2370378264 L -9007377.41307697,-830273.7309033625 L -9020786.847618438,-861002.564589089 L -9023988.396173654,-882196.35246193 L -9027336.663817734,-879562.3234015356 L -9034446.305736227,-877098.6892731464 L -9036848.914306019,-871831.4678187363 L -9038637.150606122,-856203.2797691865 L -9041262.509476991,-850872.5664635592 L -9046757.79614,-851382.5758024211 L -9058020.211662536,-856976.6368544113 L -9073000.475538587,-862132.4466985628 L -9092095.553072322,-895253.1839226492 L -9094166.42955955,-901489.3176624435 L -9097878.934577504,-908928.7382081008 L -9112641.791488035,-912064.1148155567 L -9125225.012768835,-917648.9813091021 L -9138966.068073375,-918511.2124365221 L -9145994.112805119,-915369.8739417389 L -9153168.987945218,-919367.9488147359 L -9154408.30783622,-928441.7978022603 L -9168812.493347416,-924371.5873155523 L -9187304.107921558,-925783.1421716324 L -9203844.403141584,-929672.3506839003 L -9215155.68792058,-927595.911041682 L -9224613.503177866,-921163.9206043816 L -9223303.606729703,-904651.6134653019 L -9226086.593999533,-901406.9041531675 L -9226526.862585623,-908143.4944382188 L -9229820.806318196,-915908.0360218419 L -9233777.768937932,-922344.7775459209 L -9242121.38741187,-929002.1687409156 L -9242561.655997956,-931446.6888903307 L -9239246.00496468,-934825.3411589785 L -9224113.456025224,-944473.9785815497 L -9222238.16788332,-948507.5666245874 L -9221999.053617096,-956905.941856339 L -9223455.780473616,-964937.5488841967 L -9230282.782204987,-976765.0336457568 L -9226380.032177266,-984085.3291763668 L -9218580.098096363,-989954.6588898489 L -9210573.555040548,-994592.3552348457 L -9209220.132671483,-996561.9733763045 L -9210704.021483758,-1000578.6866855654 L -9215367.751550542,-1004925.9025458135 L -9226309.455620104,-1012317.2558957031 L -9232875.524465052,-1012796.1126645118 L -9233152.709997129,-1034081.009918059 L -9232821.200553546,-1056677.6864234388 L -9231174.228687258,-1058920.4329659762 L -9227157.376181476,-1060270.5673083006 L -9223950.372971212,-1063709.4863868249 L -9222151.22736101,-1070406.2643826285 L -9217367.940161115,-1072776.5935286114 L -9208725.540173888,-1067617.1719587133 L -9199898.238512453,-1063075.6070192216 L -9196245.512061054,-1064585.715339727 L -9193489.686746977,-1066795.8466908534 L -9191565.529348616,-1068984.0920597448 L -9190935.01575276,-1071067.6974580192 L -9183896.06171092,-1065037.6644743665 L -9169475.62355407,-1054352.3546447041 L -9168627.702992698,-1049090.7965371807 L -9169986.58001681,-1044050.1586553439 L -9166018.596767485,-1029604.0057881189 L -9158528.46482946,-1027511.5564830295 L -9151005.71628063,-1030308.8436713661 L -9149141.337448826,-1027638.1941921081 L -9150538.28573879,-1024973.2485686106 L -9154408.30783622,-1021989.1665546336 L -9155381.240185753,-1009570.8149347251 L -9143037.244490668,-1003775.7736434643 L -9136867.918310903,-998680.3195226613 L -9116414.07507255,-1001073.9714523373 L -9108874.962558573,-999720.3199543466 L -9103733.003959341,-1001200.5264042369 L -9109440.242932823,-1011161.394716588 L -9117082.548614763,-1018537.4246561707 L -9116452.035018908,-1021851.6098424149 L -9110652.40086807,-1019401.7134797003 L -9106222.441731952,-1014375.8841707753 L -9096161.274834564,-1008156.3547594998 L -9077615.225029422,-986527.5906118916 L -9056373.239796251,-981296.7300314625 L -9039561.213699197,-981989.8072562631 L -9023901.455651343,-984910.3649349378 L -8998919.803444462,-993310.4638228078 L -8980863.002801357,-1008486.6052228021 L -8966437.109989457,-1015256.65555493 L -8919707.97074171,-1029686.5557563592 L -8903107.896955129,-1044777.2531012025 L -8896106.902859647,-1046765.9167134891 L -8889426.620217144,-1048655.5057109816 L -8874734.451183265,-1060077.6880927708 L -8866847.465260562,-1068984.0920597448 L -8858503.958106115,-1073460.19589273 L -8833810.400741406,-1070229.8164213924 L -8817797.314629775,-1066018.787078283 L -8806736.053427102,-1066564.4429293424 L -8796098.69684537,-1063593.680725351 L -8791456.78539878,-1057107.537080292 L -8786630.083597474,-1054341.4087837671 L -8760501.50667695,-1055052.2190710155 L -8739063.821778962,-1051839.9652521284 L -8692133.528211353,-1032660.160336565 L -8664086.248547515,-1013698.8316886188 L -8649214.63249448,-993563.5263366133 L -8613258.659607233,-967527.1077274169 z" /><path fill-rule="evenodd" fill="currentColor"    d="M -8782923.033234568,-924305.6678582145 L -8785124.376165004,-919543.7522113348 L -8790337.02264089,-930155.783536114 L -8789500.011389615,-932891.5487603528 L -8789853.339453394,-942484.7280381557 L -8784890.71655383,-945006.9817657578 L -8781243.444757478,-945232.2946256017 L -8778226.68655698,-943880.4350216836 L -8776335.145769423,-932589.341622282 L -8777900.631768448,-927474.9749714661 L -8782923.033234568,-924305.6678582145 z" /><path fill-rule="evenodd" fill="currentColor"    d="M -9084034.574785508,-818522.4314360911 L -9090138.667743668,-817930.6070076948 L -9102607.786546402,-822737.0124573456 L -9111728.63770506,-832049.7795217241 L -9112457.001133319,-835064.9430360803 L -9112272.210778601,-838151.4788832975 L -9107287.769258842,-847664.6069274222 L -9100623.850581486,-850949.3876078825 L -9098003.946365666,-850899.9704834194 L -9091622.667875431,-839922.4233813226 L -9095965.57516975,-835667.9755302382 L -9094215.410135496,-828870.4507900599 L -9085165.246853495,-823838.728124627 L -9084034.574785508,-818522.4314360911 z" /><path fill-rule="evenodd" fill="currentColor"    d="M -9154190.9008707,-1048953.0328981855 L -9155408.513460996,-1043692.0879159645 L -9164012.953501863,-1053173.26613123 L -9158898.045538891,-1054727.111183346 L -9157077.192627987,-1054545.2054210154 L -9154190.9008707,-1048953.0328981855 z" /><path fill-rule="evenodd" fill="currentColor"    d="M -8801523.406951217,-922048.1543093973 L -8806524.101116633,-917055.799359727 L -8808437.349204896,-921784.4908728809 L -8804958.615117606,-926684.0049858883 L -8803735.65919175,-926727.9911401642 L -8801523.406951217,-922048.1543093973 z" /></g></g>
</svg>
