<?xml version="1.0" encoding="UTF-8"?>
<svg xmlns="http://www.w3.org/2000/svg" viewBox="-9054351.232565481 4647.3665128647335 1408343.7322788248 2073393.5741348641">
  <g id="map"><path fill-rule="evenodd" fill="currentColor"    d="M -7788570.364643934,471972.6087480564 L -7789249.7474962445,479254.6241486952 L -7792804.624115239,482165.41628144664 L -7798299.910778248,482819.5042680034 L -7806703.307818741,477630.25481594936 L -7812845.36072326,478916.70901505 L -7818987.524947269,479254.6241486952 L -7827640.945564085,473204.3929095809 L -7830619.52117924,467252.58750739327 L -7837408.56296425,462391.2973647554 L -7851437.601791472,464342.2993815063 L -7863004.364801837,464462.1735722982 L -7872690.496334742,463372.26201924746 L -7881365.624252261,464985.42521717114 L -7888768.815667978,471264.0198970354 L -7894291.264286742,478600.5636628891 L -7900754.139963725,484760.14027507143 L -7919740.347035464,488859.59243247827 L -7929845.039853751,488968.6712626796 L -7938949.52704726,493002.79050487175 L -7952473.064066791,494485.76837551047 L -7961718.927013608,498073.1846865847 L -7978085.229869524,500035.9516529 L -7997718.425821754,501944.27363772434 L -8008676.38253697,507407.63820628414 L -8013046.563106532,509785.05736696336 L -8024189.421495957,517343.1506521069 L -8043588.735198029,529254.3521478428 L -8054280.41569127,533399.6491366958 L -8067211.510380797,546273.5278206008 L -8082724.549339785,558374.6619981794 L -8092785.604917681,564813.5479418392 L -8107613.806369308,567782.0787208151 L -8113750.515938269,571023.6640263813 L -8116022.546745361,574931.2194455521 L -8114723.448287803,579461.1504706051 L -8117223.795370511,591120.3595296622 L -8121751.604339035,612664.5381171772 L -8123007.176875693,623226.1489150262 L -8124083.413712682,628283.7031887979 L -8133899.900369306,645589.4314631153 L -8144455.771083778,661686.5710694552 L -8149630.346293812,672354.8406899667 L -8152543.800006853,680160.4855553998 L -8149309.634840838,686654.8985402804 L -8144993.889502273,698322.825303843 L -8141390.143626821,707695.914878926 L -8140384.483346995,714029.3870142367 L -8141613.00524739,721304.3981581146 L -8146075.469674819,727956.6961324253 L -8153076.463770299,732311.8430331873 L -8162555.986328292,733504.5590222661 L -8181971.66399551,745247.6373545522 L -8203637.665169113,762544.0326037157 L -8210714.690476806,770613.9683305252 L -8212736.809027065,778214.103451396 L -8215894.831661379,790142.3003144605 L -8214601.187858871,796332.0278091225 L -8210725.599786903,800561.1388391497 L -8206844.668379377,810664.2952251132 L -8206518.502271352,815880.9934203355 L -8209752.667437371,818807.5153040539 L -8215894.831661379,819465.1224476378 L -8221390.11832439,820440.6058390873 L -8225591.761184892,823049.5088466196 L -8229787.949390343,822391.74215019 L -8233668.992117361,823696.1715882267 L -8233668.992117361,827938.5825814176 L -8232375.3483148515,832828.2523982505 L -8233022.11455636,838036.3899268227 L -8235609.402161378,841304.0113902915 L -8237870.63497786,843584.9976021673 L -8235609.402161378,846842.0990878098 L -8231728.470753851,849781.2477536919 L -8225912.472637865,854673.1142235963 L -8217835.241705396,864129.1842377455 L -8211693.188800879,865763.9114578434 L -8206518.502271352,869022.5248615572 L -8205871.736029844,874245.4952855356 L -8207812.146073862,879458.1475739229 L -8212339.955042387,881740.8541224798 L -8212660.666495363,886317.731422381 L -8206518.502271352,891860.9874660437 L -8202316.859410852,895780.0895846613 L -8198115.216550349,901654.0326958877 L -8194239.628478383,909812.7301337733 L -8194239.628478383,915040.4567107023 L -8190037.985617881,921564.8100319526 L -8187450.698012864,927123.4185079727 L -8187450.698012864,932353.1804547638 L -8180661.767547345,937572.5374984064 L -8174845.76943136,941495.6510984956 L -8170644.126570858,945089.3637545481 L -8166442.372390865,947375.5264328872 L -8165474.894696383,951299.5265453494 L -8166034.720415582,957246.706744796 L -8159990.406023979,967043.2564976289 L -8148934.599476355,974400.3750119702 L -8139966.033381104,985069.9893877299 L -8134171.742565824,992815.272518196 L -8123431.0814966345,1005250.6042819719 L -8123023.429521348,1019561.3597801424 L -8136324.216239802,1035981.0443463353 L -8149635.800948861,1052418.4831485036 L -8127855.697297193,1051966.6810383885 L -8105646.123050045,1052297.2949560957 L -8082403.837886809,1057002.8106221429 L -8066738.625183909,1061532.6012002886 L -8057199.32405936,1063560.6095817068 L -8050410.2822743505,1068807.7635212336 L -8047176.228427825,1076999.4307610146 L -8044594.284158366,1083693.1157890651 L -8043942.063261808,1093388.1727421267 L -8034245.133738297,1101265.3062222875 L -8034940.880555754,1108735.69856196 L -8035218.066087829,1119309.4567196018 L -8030918.573394921,1119475.0578576603 L -8002474.439746405,1119519.1429281598 L -7971366.987280659,1119574.4188990537 L -7941466.126775623,1117598.4393840681 L -7930171.094642284,1115048.733791594 L -7916517.091179545,1102214.1492336246 L -7908331.212424061,1098407.737435134 L -7900427.973855703,1092417.5269125318 L -7890828.782845108,1081498.4942474915 L -7883230.003084068,1076558.4057071912 L -7876799.744017884,1070505.495550393 L -7867222.371627485,1064442.4788197502 L -7863265.297688258,1059956.476017032 L -7860036.587177289,1058314.2816195125 L -7852600.77915077,1055360.7411821818 L -7855834.944316789,1061268.0469548444 L -7858291.765478595,1067319.5016080858 L -7859063.654827755,1076018.1400287373 L -7855508.778208763,1085512.8034245397 L -7858465.757842706,1092615.9916170419 L -7863265.297688258,1098970.3537925386 L -7863341.440219959,1115699.876411474 L -7863444.633387925,1139416.7788146953 L -7863537.028565284,1159756.3225956021 L -7863645.787707788,1185194.4455016095 L -7863781.708806047,1214060.1577936504 L -7863868.649328357,1233269.65673496 L -7858770.105330532,1229482.191883192 L -7851725.696633645,1226082.8082349498 L -7842555.97621853,1234919.8823546716 L -7836033.321974989,1238752.200351852 L -7830434.730824524,1239671.5277970717 L -7824689.420585191,1239394.649329288 L -7816862.213229043,1237511.5739439756 L -7799745.839644161,1230113.4629496029 L -7787950.760358179,1224156.2656849434 L -7774530.416506614,1224554.7851745612 L -7756076.761878832,1226902.2345537976 L -7745455.769262246,1226636.460217552 L -7731540.832913086,1251249.0698035175 L -7721343.85623693,1269271.569963021 L -7709733.567305665,1289833.4741851364 L -7700384.399871393,1306390.151427476 L -7686186.823335107,1331563.6980502014 L -7673924.313507285,1353311.280583721 L -7660862.7523745475,1376498.3670456617 L -7646007.500286656,1402887.8763104146 L -7650779.878176455,1409591.9462572462 L -7654650.011593373,1414949.6665961596 L -7654225.995652943,1424018.7305743764 L -7660096.317680435,1428855.2686919207 L -7666314.6244361475,1431775.4074024328 L -7673668.8352759145,1439411.4384094926 L -7678664.07478628,1446034.7642695613 L -7678876.138416243,1455459.5029085039 L -7677957.529978216,1503445.8951552482 L -7679202.193204775,1516500.822632905 L -7682996.184089991,1527727.644840504 L -7686926.096073465,1533398.640300712 L -7689295.9767129645,1537851.4186609539 L -7683610.44504019,1549019.8265832548 L -7678180.3915987825,1571460.5961735414 L -7674081.941906247,1575897.1284692886 L -7668988.852563474,1585041.6976689908 L -7666673.295835482,1593696.105954177 L -7667722.370716719,1597037.484340735 L -7677903.094747217,1601119.575532718 L -7681544.911888519,1604641.4364683118 L -7682507.046247447,1617532.8723703048 L -7686920.641418418,1622168.1849829976 L -7694372.813410083,1628230.2267774101 L -7699155.989290489,1635203.211707902 L -7703227.277027271,1639987.8100990017 L -7707195.148957104,1642807.214816416 L -7709135.670320614,1651323.8160236813 L -7711771.827182091,1659933.08463593 L -7721061.216049807,1665621.92924659 L -7722648.298030047,1676238.3187598526 L -7722757.057172551,1684935.008032121 L -7717859.667494593,1693691.1257957416 L -7701873.743338715,1712113.7554354502 L -7700243.135437574,1716485.038938542 L -7709353.077286134,1727596.937973195 L -7714652.664284329,1735274.5900403669 L -7727632.739549805,1758841.4987240464 L -7727899.015771783,1763142.2360507473 L -7724670.416580307,1774275.8659227975 L -7705265.536903696,1821998.2803077528 L -7701971.5931711225,1825903.2626492258 L -7695981.714010518,1830442.8366605842 L -7686192.277990157,1829944.6682597257 L -7671413.16843397,1835073.8771124124 L -7664216.474673675,1840974.5105359575 L -7663542.435156921,1843885.7867150381 L -7665216.568978962,1845845.6393873144 L -7673032.867025011,1849822.7103916511 L -7681740.611553335,1855001.67886611 L -7684708.389177883,1859909.9619340429 L -7685317.195473032,1867654.1259952313 L -7683349.51215377,1879213.0634719683 L -7687116.341083231,1882946.2102385005 L -7695796.923655801,1887451.966220439 L -7703287.055593827,1893888.6385725965 L -7710793.440177508,1904643.3938011732 L -7723518.037211614,1920984.1677874103 L -7727920.834391979,1925486.3134947715 L -7729839.537135291,1931115.3057732068 L -7737074.190841947,1933026.0479860776 L -7750603.293836017,1944141.4177346192 L -7752924.193899565,1949775.2659718527 L -7750717.396314079,1955125.990674231 L -7743808.797395958,1959612.399525214 L -7739145.178648665,1966150.2524128775 L -7737927.566058368,1974479.2210502403 L -7737938.475368465,1979676.4595821057 L -7737922.11140332,1979813.2615654718 L -7746325.508443813,1987657.1581679308 L -7757272.667168423,1996599.2294606513 L -7770779.951542298,1998367.4675508428 L -7775900.202840824,2002908.8390443912 L -7774720.661516379,2012416.6806877244 L -7770372.188247522,2025847.0324741977 L -7770388.552212669,2036405.4832915103 L -7774519.507196516,2048490.4266958993 L -7784167.567463568,2061681.074186408 L -7798941.333684199,2070758.0903510717 L -7812823.653422556,2075647.3924911886 L -7823787.064792822,2075670.3767155388 L -7834386.350108703,2076632.33676726 L -7838925.068387325,2078040.940647729 L -7847089.239842105,2070082.575320542 L -7883365.812862836,2043699.0593631095 L -7897193.808689685,2029594.4239482367 L -7909983.638945395,2023002.6911202664 L -7941194.395898597,2000421.291797316 L -7944308.892612011,1993177.07814164 L -7948146.4094181275,1970001.0053479106 L -7952206.7878448125,1963473.4039793666 L -7962931.084948855,1955114.5647996312 L -7989896.673120655,1943982.1203524743 L -8000349.1280281795,1938418.053852548 L -8011318.105372986,1928283.6263251612 L -8027390.8587316815,1921120.596893413 L -8044904.197620733,1906415.4826262284 L -8055356.652528259,1894649.361640587 L -8067064.791291933,1886873.0351961444 L -8103384.890233561,1876002.253824061 L -8121615.683240776,1865125.2724061236 L -8155685.569995511,1849765.9697341963 L -8170856.078881328,1839989.0902000598 L -8207328.462886365,1828087.9650131685 L -8218155.953158372,1822428.361357731 L -8254014.076213211,1794591.9900228987 L -8279153.356819057,1785505.1387045637 L -8299411.611712088,1769894.0074568316 L -8360566.643771735,1736717.9446391442 L -8370171.178117888,1726120.311822912 L -8379525.800207211,1709736.9957458358 L -8393109.115793295,1699984.382291918 L -8408366.676520912,1677588.220648992 L -8431081.641256262,1664430.060089108 L -8452921.634793974,1647009.0110275263 L -8460982.501761299,1631160.6624296473 L -8475473.627794804,1610990.933020694 L -8479778.46382327,1600233.5578116744 L -8492454.191600917,1589491.7746848434 L -8493345.5267637,1568301.6375273643 L -8502189.192390282,1558513.4255585012 L -8495845.873846408,1553743.7921754734 L -8489138.540567642,1551605.6332539364 L -8480756.962147342,1518658.5298000998 L -8485176.011973364,1502172.0146398651 L -8507853.016762353,1472297.849482203 L -8516180.159951653,1457947.208509307 L -8522088.664564487,1439567.6183998638 L -8531203.949748602,1428676.892534173 L -8544662.36486602,1405760.8293690411 L -8552913.476843107,1385422.0663443904 L -8570943.115530457,1370669.3165316342 L -8575845.959863465,1365375.2577533862 L -8578579.96655735,1357869.4498081459 L -8588603.062188884,1352577.6246294123 L -8589146.635262428,1336996.3947639328 L -8596125.810737712,1307422.453244427 L -8606100.03711279,1292540.5333918217 L -8642088.626610838,1264759.4786217455 L -8642686.523595888,1254063.775740989 L -8645551.108052472,1234609.70039509 L -8653541.287143143,1213595.3443992783 L -8693546.729146974,1148364.3690837396 L -8703580.734088607,1128958.7529996084 L -8713598.375065094,1097458.9911063183 L -8722605.012426196,1079579.7441459454 L -8732530.258225325,1047812.5807056997 L -8747499.724110767,1023679.4613426642 L -8756903.215456547,1002763.2812752955 L -8766920.856433034,976776.0711338113 L -8767774.231649457,962875.8558824889 L -8785934.336780017,938968.0870857344 L -8795604.104347775,917094.2648444928 L -8812541.14223299,898766.3779213742 L -8829065.184807362,884835.925874155 L -8836234.605292412,874980.7174304106 L -8859792.147253575,828190.7162512756 L -8863004.605118886,814346.5878180552 L -8879061.105831927,788641.5355097299 L -8894949.068835907,770154.0008116881 L -8904999.437742688,755274.4729498068 L -8917832.682599807,741898.4452922089 L -8995908.499899015,700739.7867817895 L -9023385.044533554,683626.3163583465 L -9032690.686046928,675492.22441777 L -9036973.92609418,662692.1721255954 L -9035169.325828929,655183.8549828812 L -9027103.004206559,648146.2868557611 L -9015949.236507036,653577.4458894675 L -9009160.306041516,651326.1926336504 L -9003822.64777747,642169.3751626418 L -9003735.70725516,628305.6277557111 L -9010546.345021384,610447.5885566735 L -9035544.361193411,575979.0901957771 L -9033658.163741412,568687.9062185914 L -9028956.473728266,560415.4023423708 L -9038593.624685222,543840.3542643437 L -9049095.060168697,530574.2456504265 L -9054351.232565481,520386.20315152395 L -9048404.768006288,481609.4622180419 L -9042708.327023415,471787.2008014851 L -9004849.904038511,432433.2168803119 L -8994457.227697542,415632.99589161604 L -8978221.279965341,405273.22770005016 L -8961626.660833808,389425.13269984926 L -8941700.026703848,377358.2605284845 L -8938770.32034515,379427.3182046274 L -8936009.040376024,381452.92348728416 L -8935824.250021305,385515.1787867869 L -8935084.977282949,389022.0747271792 L -8932878.179697465,392333.12945710926 L -8932693.389342746,398421.740328718 L -8930116.899728337,402484.65903486847 L -8929932.10937362,407092.30847251747 L -8929747.319018902,413366.9863465305 L -8931035.508166362,416504.47472671827 L -8929779.935629705,421951.7287058037 L -8925513.0595476,431997.2926347105 L -8927170.940723982,435135.38977532275 L -8931220.40984057,437162.12638711033 L -8935269.878957156,439929.9360926803 L -8939319.236754252,446206.77214401367 L -8945396.167756658,446021.52958918124 L -8954228.924073141,443253.5371514198 L -8960121.064720828,446762.61365645746 L -8962333.316961363,453399.4969786834 L -8960490.645430263,458936.18757845054 L -8959936.274366112,464113.37808095274 L -8956071.59560424,468538.8867439371 L -8944841.796692505,468909.4658929565 L -8954968.1968115,483124.8363735868 L -8959936.274366112,489579.15807812044 L -8958832.764253877,493646.13300155866 L -8952777.65187167,497146.30786558654 L -8948249.842903143,497397.0917169887 L -8938215.837961508,492163.28185150994 L -8931405.200195286,484596.5861272459 L -8927540.521433417,480355.67640338966 L -8921094.009721577,478687.7491106366 L -8912630.83411453,482198.12614240276 L -8901428.308478037,489208.48888565035 L -8888317.766769351,495412.5035182884 L -8882991.0178154,498814.60437233397 L -8873386.37214976,497833.22966418316 L -8865320.050527386,496415.7339905488 L -8858547.484027015,501518.94510033185 L -8851698.663675448,505826.37908030127 L -8850111.470375719,520506.1585297189 L -8844974.966431536,531185.1620524848 L -8838702.335764317,539432.6206464365 L -8831081.73738308,549241.306990335 L -8824086.19794265,552569.3339112601 L -8815019.782014994,552634.8121225598 L -8802730.110231414,556257.6580823243 L -8797946.823031519,553857.0082455328 L -8793712.563560216,547026.3551197024 L -8791500.31131968,543142.0800035114 L -8785243.933298117,541483.6767158684 L -8784689.562233966,537043.3484578587 L -8785977.751381425,531686.9459922072 L -8783955.744150657,525403.7119753133 L -8778824.583542032,519884.4923306696 L -8765638.010621132,511802.7196361916 L -8759289.3487417,508421.84917129204 L -8758001.159594243,503427.3019180217 L -8755604.116998991,496786.43549539783 L -8756528.068772575,493090.10257358255 L -8759191.498909296,488499.75611586886 L -8758550.187322835,482012.8076435038 L -8755055.089270398,473335.2186865285 L -8750087.011715785,463197.8104571293 L -8745831.044943776,450282.65008653014 L -8744194.871068098,444179.8372691583 L -8739591.030887362,440300.39703304454 L -8737851.663843716,434710.49923042866 L -8735356.771416057,428129.29216624633 L -8729649.421123086,420742.39139402116 L -8729834.322797293,412811.45216789626 L -8727442.6235376,409303.6270712679 L -8727230.67122713,400436.7831688142 L -8721577.756165156,382193.5213038674 L -8721365.692535194,378414.52990992565 L -8718881.709417634,377401.75114547234 L -8714555.054768972,378599.64575423836 L -8710831.640440917,382738.0719649665 L -8709679.372391716,386800.3765016933 L -8708113.88639269,388651.80701070983 L -8704613.445004696,388281.5406024162 L -8700563.975888109,385972.6467097451 L -8700841.161420183,382291.5469085644 L -8703787.231744027,378686.8510394563 L -8704586.283048943,376530.60397077777 L -8703325.255857237,373154.6960141564 L -8697194.000943325,365760.9356799595 L -8690481.101690017,357169.87909724546 L -8676071.572843265,339347.470932448 L -8667401.899580793,332064.6693351716 L -8644958.554402981,324346.8117759525 L -8627983.445251914,318501.69179546135 L -8611682.375617601,312896.2409086932 L -8589576.105857909,304874.84536980523 L -8558327.277638858,293534.8402405155 L -8535878.589125484,285362.25986069033 L -8515870.357808774,270846.4335752504 L -8500373.682814933,259596.11556144914 L -8487100.169371724,249858.69667866014 L -8470277.233964572,237511.03581487804 L -8447529.54129893,210817.0450724638 L -8431842.621295324,192403.16922610518 L -8420389.960763022,178949.9623193416 L -8412475.924204055,170478.2653474199 L -8406165.222270986,146543.73916909823 L -8398963.185175132,119251.38391979416 L -8395761.636619918,107117.42840965145 L -8394386.50695015,102898.84983724481 L -8391277.353572292,104671.06809330606 L -8387722.4769533,107628.45727713329 L -8383379.569658982,107769.74185049595 L -8379286.574621496,107628.45727713329 L -8376748.156272937,105964.88826283737 L -8380531.349167545,78719.23862705198 L -8379987.776094003,72794.06322943671 L -8377835.302420024,65694.91190656132 L -8378264.661696013,61824.585053165574 L -8385167.805959084,56388.84339311935 L -8396239.976471856,45517.478990189506 L -8400833.018661987,35820.24008586344 L -8403626.803922426,27645.168903505535 L -8411367.070756264,22274.852748527817 L -8419319.17858108,17545.86631053028 L -8418677.866994623,13675.832561984656 L -8413943.449051185,13675.832561984656 L -8401947.326764828,17491.542194106187 L -8393310.270113159,16252.217965118341 L -8386863.758401321,15828.312003578068 L -8380629.1989999525,11860.319342765848 L -8373965.169003104,4647.3665128647335 L -8369453.723999725,4647.3665128647335 L -8364366.089312,5620.299178513826 L -8355049.64980802,12990.882238156602 L -8349516.180559669,17350.165913448927 L -8342873.969183016,20948.58471922568 L -8336585.08587014,22198.709754066793 L -8330872.392241611,22633.526370577398 L -8326893.611001679,22274.852748527817 L -8324523.73036218,27221.149040912595 L -8321729.83378225,33243.824012968 L -8314636.444509411,37320.51752752604 L -8306254.866089114,41190.724305394055 L -8299433.319012793,47854.805645466535 L -8294845.731477712,52333.77227195669 L -8289426.587346405,57628.21279098152 L -8284159.5056395205,64640.32732525645 L -8279376.218439626,76968.8319076187 L -8276952.01388862,85340.29054831213 L -8274223.350530295,89993.43959590587 L -8274870.228091293,94722.89879255186 L -8269244.474985074,103290.30029783992 L -8265069.9940803265,108052.42249138375 L -8257764.652497018,111075.08128994814 L -8243697.542403944,114510.82666647418 L -8236174.682535627,122252.4272489457 L -8229510.763858267,125264.18637243002 L -8222412.031249872,133223.49450333972 L -8216177.471848504,135593.90139132272 L -8208225.252704196,135169.7899291956 L -8200273.1448793765,139029.905700877 L -8194255.992443529,146554.54001013868 L -8190385.859026611,156015.01676055702 L -8184363.363255204,161397.86709237986 L -8181352.059709755,171076.37666863928 L -8184792.722531193,182462.7224555906 L -8181569.466675274,188498.6791285433 L -8175334.907273905,193436.35258437137 L -8165230.32577511,198613.48337904748 L -8155984.4628282925,197319.21639268758 L -8151255.610859393,199037.59398239906 L -8148249.7619689945,203779.71873724821 L -8146526.647571006,209359.52789202222 L -8142488.087764515,223054.01486514736 L -8140406.301967191,231712.93578100056 L -8144156.766931507,240100.24854130382 L -8145542.805911375,245898.63392702155 L -8143520.798680605,253677.47945896414 L -8133910.809679403,257441.87354228413 L -8125170.44854028,260531.7538764503 L -8119767.557054628,266581.2295503064 L -8113761.313928876,268191.5441690415 L -8105309.047631923,267854.2825109507 L -8094503.264660622,266374.5516416776 L -8088491.566879822,262903.62995677855 L -8084616.090127344,261859.12654364726 L -8080316.597434436,263360.65115802624 L -8070739.225044038,266690.08374186535 L -8059041.88427097,270465.6009250759 L -8048480.670220939,268278.5615866228 L -8039321.859115924,267299.3121149478 L -8030233.624568069,265090.5922790055 L -8020993.327595793,258845.3138601111 L -8013253.060761955,259063.0114464725 L -8007486.043221918,254841.58117797357 L -8000229.570895067,248052.72153417586 L -7993043.786444872,241209.8913921278 L -7987456.104604503,239697.65529188895 L -7978433.103278255,242972.23447338957 L -7965964.095795009,247661.13803883822 L -7958908.7777880225,253786.21326458108 L -7953494.976992273,255407.31383334464 L -7947874.6785411015,259900.7154658851 L -7937090.602870504,259987.72820279564 L -7925545.5471608415,257561.52812431165 L -7916305.138869073,250021.90496582683 L -7906722.311823626,247835.15027625713 L -7900183.404934429,245724.6237327685 L -7894171.70715363,247030.15026654815 L -7870885.896069491,260781.98626797227 L -7864499.16292421,267886.92789143784 L -7856470.91256769,269279.6554454094 L -7849893.9344126405,273164.0963150593 L -7838919.6137322765,277353.3848390072 L -7832902.461296428,281651.54667619284 L -7825162.305782082,284241.3805826228 L -7819574.623941712,290259.17639420106 L -7810703.796359379,293970.1154102017 L -7803034.328721685,296016.016219331 L -7799571.847280052,300858.9240713011 L -7799539.230669249,304102.1877116649 L -7800604.5581961395,306267.9362541461 L -7808736.113040118,318958.89462430304 L -7824662.258629438,343843.64940482716 L -7839006.554254587,366250.8791031239 L -7861569.456565512,401526.0784428677 L -7874196.092447721,421265.39445651456 L -7870978.29124685,422093.4140492041 L -7851328.842648966,430733.38032820454 L -7846447.816936153,431060.2910532415 L -7839240.325185252,428859.29990558204 L -7834576.595118469,425416.3856129798 L -7830157.545292446,424926.0490217603 L -7825586.210403022,428260.0527309566 L -7819112.53673543,432553.0489817351 L -7814448.917988136,445095.2108554308 L -7811013.598502256,451241.60833994934 L -7802914.6602690825,455928.07362093864 L -7794277.603617414,463721.0545679066 L -7788570.364643934,471972.6087480564 z" /></g>
</svg>
