<?xml version="1.0" encoding="UTF-8"?>
<svg xmlns="http://www.w3.org/2000/svg" viewBox="-16866283.439505767 981406.7790682011 1694116.3385543842 1395677.844532166">
  <g id="map"><g><path fill-rule="evenodd" fill="currentColor"    d="M -16861185.006827433,1880994.503213298 L -16863223.266703855,1881879.582751886 L -16865364.83106774,1879769.0218952005 L -16866283.439505767,1876524.0936443757 L -16865544.278086897,1871294.6298213915 L -16860163.09390195,1874743.011203804 L -16858010.62022797,1877034.676703151 L -16861185.006827433,1880994.503213298 z" /><path fill-rule="evenodd" fill="currentColor"    d="M -16677181.680910507,1984361.963507655 L -16680660.414997796,1987406.340086548 L -16685296.871789336,1985274.0395496679 L -16687362.404941006,1982343.907316557 L -16688107.021014921,1979243.2980310984 L -16687030.784177933,1975550.4033361713 L -16676638.107836962,1976063.3155966855 L -16673702.946823217,1977681.7254305158 L -16677181.680910507,1984361.963507655 z" /><path fill-rule="evenodd" fill="currentColor"    d="M -16854863.395584267,1906597.18971514 L -16859277.102074727,1906779.014638213 L -16863288.49992546,1904961.414715772 L -16862277.496310078,1892991.6863421372 L -16861201.25947309,1890539.4662196126 L -16855015.680647667,1894581.2291780454 L -16849819.28681744,1905029.5792704853 L -16854863.395584267,1906597.18971514 z" /><path fill-rule="evenodd" fill="currentColor"    d="M -16622397.018030994,2001299.827698725 L -16606384.043238854,2006743.3876403656 L -16603399.90164916,2015567.9028857471 L -16606840.564470602,2021437.8611755348 L -16614934.048048723,2019987.2909850052 L -16618940.102563903,2016778.3382119022 L -16624576.65366073,2006252.6356429376 L -16640225.502398483,2008626.677796754 L -16651047.64933493,2006549.3761880428 L -16657048.437805636,1992834.8585532585 L -16657293.118046397,1986608.132525239 L -16654667.75917553,1982800.013684592 L -16643166.118067278,1978684.7883120796 L -16628816.367787082,1981716.90842696 L -16623348.24307982,1989493.1951946383 L -16622397.018030994,2001299.827698725 z" /><path fill-rule="evenodd" fill="currentColor"    d="M -15476116.065003155,1084454.0469561047 L -15459434.50534931,1090321.6815435374 L -15454189.242262624,1089693.0071524354 L -15459488.82926082,1095484.1891138568 L -15476110.721667599,1098628.3769374457 L -15481611.462985657,1101452.8584159745 L -15488335.160229571,1099621.3273013697 L -15491938.906105023,1092924.9299379634 L -15476116.065003155,1084454.0469561047 z" /><path fill-rule="evenodd" fill="currentColor"    d="M -15480056.886296729,1111130.5920910132 L -15488324.250919472,1119971.752714262 L -15488351.524194717,1110556.7166425935 L -15485372.83726007,1109331.6952427593 L -15482665.88120245,1109331.6952427593 L -15480056.886296729,1111130.5920910132 z" /><path fill-rule="evenodd" fill="currentColor"    d="M -15434572.410275543,1177188.4685063919 L -15438649.041347882,1179123.4674636398 L -15438942.590845104,1167028.8173536533 L -15433659.256492563,1169327.9699071834 L -15431604.632650992,1171262.5347644477 L -15432485.169823166,1174568.181909682 L -15434572.410275543,1177188.4685063919 z" /><path fill-rule="evenodd" fill="currentColor"    d="M -15592811.285326328,995929.2739852617 L -15603715.029449528,998581.2678705007 L -15608933.130580463,998097.1690341872 L -15612857.58790889,988898.4562857541 L -15611449.730308827,983210.8586716895 L -15609710.363265181,981406.7790682011 L -15591148.060814386,983650.8514567486 L -15589593.484125456,987820.3124145875 L -15589865.326321974,991781.0798328869 L -15592811.285326328,995929.2739852617 z" /><path fill-rule="evenodd" fill="currentColor"    d="M -15593148.36074445,1054060.4284583647 L -15595567.110640405,1056110.1644474452 L -15600094.919608932,1049366.2124409196 L -15600801.575736485,1046545.575898201 L -15592626.494971609,1043020.0654015731 L -15588191.192499934,1044893.0028145579 L -15593148.36074445,1054060.4284583647 z" /><path fill-rule="evenodd" fill="currentColor"    d="M -15674827.923919104,2020775.4258603936 L -15674278.896190513,2023002.6911202664 L -15678328.3653071,2022705.7164278338 L -15679524.159277203,2021940.4325539395 L -15679431.764099842,2017783.2680930267 L -15676485.80509549,2012747.7628800212 L -15674186.501013156,2008501.143223057 L -15669490.26565506,2004540.6451699503 L -15661114.141889809,2000569.5618691645 L -15657064.672773222,1998926.615011511 L -15655776.37230627,1999896.3376960573 L -15657314.696349544,2000489.6431188027 L -15671148.035511954,2008786.5776743083 L -15675474.801480107,2014585.9958675606 L -15677404.413533514,2018651.1904687437 L -15677040.176159643,2019907.4149067753 L -15674827.923919104,2020775.4258603936 z" /><path fill-rule="evenodd" fill="currentColor"    d="M -15535325.232363734,999285.5652410935 L -15542538.178769683,1000154.9665839784 L -15543739.427394837,994586.8341263831 L -15541510.922508646,991637.9916961973 L -15538418.021776445,990251.752410136 L -15532917.280458387,991979.1506849192 L -15529998.483409788,994421.7645923729 L -15530172.364454407,996512.5064127306 L -15535325.232363734,999285.5652410935 z" /><path fill-rule="evenodd" fill="currentColor"    d="M -15661021.74671245,2082061.4713918662 L -15659521.493935032,2086311.824766034 L -15662212.086027505,2084318.282465036 L -15670805.616758274,2080171.448032997 L -15671751.387152052,2076701.058322209 L -15661021.74671245,2082061.4713918662 z" /><path fill-rule="evenodd" fill="currentColor"    d="M -15677110.864036292,2059724.1629062437 L -15676311.812731383,2062951.4092119182 L -15680470.040990474,2060822.7052847845 L -15684410.750964554,2054873.0026617683 L -15691444.361670835,2047506.9565794151 L -15693102.13152773,2044476.6234035194 L -15687715.492687734,2047358.2339512757 L -15684166.182043279,2051658.6262890415 L -15677110.864036292,2059724.1629062437 z" /><path fill-rule="evenodd" fill="currentColor"    d="M -15172167.100951383,2101361.618448258 L -15174412.081122214,2103941.7658625147 L -15174629.488087732,2101464.82736241 L -15177749.439456195,2100249.3676853436 L -15182076.09410486,2097761.497749248 L -15187951.870787397,2094872.7337310573 L -15191131.712041909,2094402.757501532 L -15192718.905341642,2092729.2899295378 L -15190511.996436663,2091835.3363862224 L -15186886.543260507,2093141.8340626082 L -15181793.453917734,2095778.2084091923 L -15175923.131890243,2098426.433600588 L -15172167.100951383,2101361.618448258 z" /><path fill-rule="evenodd" fill="currentColor"    d="M -15247623.125354264,2077617.2116108215 L -15247579.599433362,2079839.2782116525 L -15258292.987227306,2068628.6879777052 L -15254069.6370661,2069510.2457122554 L -15247623.125354264,2077617.2116108215 z" /><path fill-rule="evenodd" fill="currentColor"    d="M -15418401.695764948,2374862.5525016254 L -15421630.406275915,2377084.623600367 L -15420423.702995718,2374071.4559464697 L -15422913.252087818,2367465.1790424366 L -15425359.163939524,2366511.6387239555 L -15422913.252087818,2364616.3774887114 L -15419412.699380333,2369639.8880443773 L -15418401.695764948,2374862.5525016254 z" /><path fill-rule="evenodd" fill="currentColor"    d="M -15864342.789144699,1815876.2648723146 L -15866321.381774059,1817132.2389081726 L -15863788.418080546,1807934.7419040874 L -15860934.742934061,1806781.0708228701 L -15864342.789144699,1815876.2648723146 z" /><path fill-rule="evenodd" fill="currentColor"    d="M -15967731.879413858,1876603.5556321146 L -15961676.76703165,1882310.80598392 L -15969732.17934392,1878430.0977049202 L -15979989.04590612,1876762.3642835305 L -15976080.841223355,1875741.3384920163 L -15970417.016851284,1875888.7564412965 L -15967731.879413858,1876603.5556321146 z" /><path fill-rule="evenodd" fill="currentColor"    d="M -15982266.531368265,1878350.7453872517 L -15986663.87389358,1879008.8088793508 L -15997437.040254079,1872088.6117318561 L -15993295.175960135,1872088.6117318561 L -15987125.849780371,1876410.5936061486 L -15982266.531368265,1878350.7453872517 z" /><path fill-rule="evenodd" fill="currentColor"    d="M -16147044.313308245,1788059.1126210084 L -16147745.514780754,1793269.4104260067 L -16149832.755233128,1788239.8720264917 L -16156681.464265201,1780194.8859886942 L -16159219.882613761,1776602.603578566 L -16156192.326422656,1777178.7429762417 L -16147044.313308245,1788059.1126210084 z" /><path fill-rule="evenodd" fill="currentColor"    d="M -16195502.021609029,1842945.4795287084 L -16195007.429111434,1844916.6197853072 L -16197290.257909134,1844803.3952250932 L -16201421.324212471,1838924.3832150404 L -16202899.758369697,1833828.2816068858 L -16205525.117240565,1828065.3599778314 L -16209134.317771064,1823865.7320007368 L -16209541.96974635,1819995.1661423766 L -16209656.072224414,1813896.2753098963 L -16205568.643161466,1823243.2311962794 L -16201698.50974455,1830748.4440655706 L -16198877.451208863,1836919.784302113 L -16195502.021609029,1842945.4795287084 z" /></g></g>
</svg>
