<?xml version="1.0" encoding="UTF-8"?>
<svg xmlns="http://www.w3.org/2000/svg" viewBox="15680720.064566793 150654.1022332793 1680402.4452055935 1153038.8340183455">
  <g id="map"><g><path fill-rule="evenodd" fill="currentColor"    d="M 17028077.191175543,530083.4159873792 L 17019826.07919845,538581.6704866156 L 17014694.91858983,530661.4872089688 L 17008117.940434776,523723.91296567675 L 17002932.455914646,516623.3384067952 L 16996333.770458896,501279.091606092 L 16996007.60435087,493547.99000944634 L 16997746.971394517,485370.70802483906 L 16998127.461414047,477117.86653916864 L 16994942.27682398,460353.0598057799 L 16987180.414008927,445062.51479876036 L 16960165.84526118,408617.3813083365 L 16951664.709707767,399053.4864409936 L 16941956.87087416,390514.1999920909 L 16935738.564118445,388423.0669757945 L 16923149.8881826,386375.5814594959 L 16917551.297032133,384665.71227674 L 16907180.32799187,378719.5251606943 L 16897537.722379863,371782.68483556923 L 16873643.21632007,351225.1688878792 L 16861011.01446332,345411.30971912993 L 16854336.186475866,338226.1281501383 L 16816678.917810827,315051.3231156515 L 16805688.233165316,309576.6414649693 L 16792306.071899094,309565.71930242213 L 16780978.423154954,305005.46095265815 L 16789925.2819495,302110.55023281334 L 16791762.498825554,294383.66152005654 L 16789805.724816386,286515.6860360386 L 16808721.355330963,299367.9315720903 L 16828680.494752232,310599.650899151 L 16834453.078266807,319655.5134927015 L 16844280.47423353,320210.5821340009 L 16862163.393832017,327699.45461778657 L 16874447.610960543,334448.5983992076 L 16886036.192591105,342232.42124074907 L 16899092.299068794,353380.92702757195 L 16924226.125019588,362134.9305654163 L 16927802.708939288,365314.480236861 L 16940532.760628443,379863.014147345 L 16957241.48223804,392202.4161922263 L 16962916.21592021,398999.0561842658 L 17033751.92485771,457432.0620999555 L 17045710.087197706,473803.93826880143 L 17046634.15029078,484978.1757532682 L 17044296.774942596,489361.11060939846 L 17036817.552314665,498814.60437233397 L 17036958.81674848,509981.38270147576 L 17034469.378975876,520026.3381187285 L 17028077.191175543,530083.4159873792 z" /><path fill-rule="evenodd" fill="currentColor"    d="M 16911170.018541902,478763.9945881801 L 16916953.400047082,481020.6907520934 L 16933607.909064665,469323.6904204363 L 16942522.15124841,477466.7144326906 L 16953893.21459396,481434.9737742515 L 16965720.910490748,483669.97135999176 L 16961035.473123256,500428.4437137241 L 16962426.96675817,508181.9751717971 L 16965481.79622452,515892.5877107137 L 16965090.396894895,527279.915879729 L 16959654.888798438,537436.1370855761 L 16949240.393837273,552242.0554630022 L 16944576.77508998,554980.8923585167 L 16939108.650382727,556541.3744004043 L 16922041.034734808,557730.8941251282 L 16918747.091002233,565621.103161573 L 16919888.561060827,573959.7033989968 L 16929118.060042497,584919.3184131386 L 16936477.836856805,597212.7215065992 L 16929139.878662698,608536.4456038268 L 16917051.24987949,616421.5773849541 L 16905582.336701535,620451.8469052584 L 16886601.472965352,618070.7873840908 L 16866587.898313086,619053.7790778641 L 16862837.322029278,623368.2002738169 L 16862728.674206264,630490.4032573982 L 16859913.070325628,635919.9422608935 L 16856271.253184326,640869.1822438904 L 16846117.691109583,651129.5838928217 L 16834768.335064735,660178.3680814028 L 16819266.205415845,668769.4417123509 L 16814048.10428491,670824.4357031699 L 16800328.867600568,672190.8508927029 L 16787979.305930942,677132.1198412752 L 16782478.56461288,681953.4404618557 L 16776488.685452277,685867.6762911121 L 16763389.05305369,690164.8879856302 L 16750637.294063829,698628.9995828174 L 16745603.98328761,700061.6791120829 L 16719165.604224209,701538.071288723 L 16681334.45451455,701942.8173618302 L 16670126.36290352,702828.699196918 L 16659244.437400512,701658.464472401 L 16653221.941629106,698355.6376133023 L 16640372.332806842,683112.4243240564 L 16629164.241195813,677886.4262526638 L 16616956.055279495,678039.4604806367 L 16600693.056911033,683429.4918282575 L 16597627.318134584,682237.6984330812 L 16565177.352609875,659784.8714855578 L 16555339.047333054,654298.6742530045 L 16544837.61184958,650200.7082446675 L 16532031.528948214,647359.5596897183 L 16519942.900165008,642846.8375632775 L 16512822.348936416,632150.9311640087 L 16513659.47150718,618223.6763581556 L 16523378.108331397,610043.4371001637 L 16538173.581852732,614084.2789724361 L 16543837.406224806,614029.703104097 L 16549403.380764466,611703.4483351002 L 16555915.125697907,612446.1277375192 L 16562503.013163056,614499.3030773137 L 16586517.187675454,611474.0816202638 L 16600410.305404415,615733.4307762868 L 16613912.246442735,621369.331082184 L 16626555.24629009,622592.6259759022 L 16639524.412245467,621391.1414799978 L 16656928.880672524,614990.8264920156 L 16662418.823999975,615831.7369970161 L 16679160.162220376,615897.2745585256 L 16693781.754697092,607357.0213783194 L 16699249.879404346,572901.0208677447 L 16702967.83907735,561179.3257682811 L 16707946.714622572,558625.6447263374 L 16711534.207852365,559335.016427102 L 16716882.775426509,565195.4200767743 L 16710023.045764847,572508.0426352042 L 16707000.944228794,578140.379602984 L 16705989.940613408,591906.4151720154 L 16709751.314887818,605260.3431466144 L 16718306.774352739,615842.6971990346 L 16731178.09047571,617186.1185572431 L 16742940.664470382,610196.4194339055 L 16755746.747371748,608754.8432059151 L 16767585.24125914,615536.8187722676 L 16779684.779352445,614368.2307812878 L 16785239.84458201,609945.1394256272 L 16791718.97290465,608023.1637169191 L 16798143.777315784,607291.4922052368 L 16804003.30135267,604670.6012539753 L 16811721.749566313,593151.0868284961 L 16816907.234086446,580159.7740554882 L 16824582.156379186,569921.3252657383 L 16845595.936656233,552874.936640429 L 16851651.04903844,550747.141029326 L 16858206.319892783,549590.4718399269 L 16872980.086113416,550321.5445580439 L 16883959.75012934,544265.9137184035 L 16884818.580000807,530606.9751863885 L 16883231.386701077,516754.2331782426 L 16870686.23668613,484204.16911028494 L 16869827.406814657,479036.6034281692 L 16871642.91639001,473247.92706243944 L 16875262.914911114,468048.318280615 L 16887579.859969933,467961.1436052128 L 16900451.176092904,469857.7985282256 L 16905506.19416983,474752.3246429623 L 16911170.018541902,478763.9945881801 z" /><path fill-rule="evenodd" fill="currentColor"    d="M 15693395.68102495,1019407.2379526823 L 15693373.973724246,1017920.8438214264 L 15693373.973724246,995004.9756781136 L 15693363.06441415,972101.8415694209 L 15693352.155104052,949222.0570483137 L 15693341.357113443,926343.4793848365 L 15693330.447803345,903476.731579598 L 15693330.447803345,880621.4013650481 L 15693319.53849325,857788.4225357322 L 15693308.740502642,834955.2505280541 L 15693297.831192544,812132.8256863791 L 15693286.921882449,789320.7386511461 L 15693286.921882449,770570.1243507296 L 15687090.43374693,763244.762297907 L 15680720.064566793,752034.1816260385 L 15682089.739581514,737630.1819865605 L 15689819.097105253,719783.6947872281 L 15693265.214581743,707892.8207796348 L 15693265.214581743,698180.6015131907 L 15693254.30527164,675426.6250491202 L 15693243.507281037,652670.3549790332 L 15693232.597970938,629922.3612553257 L 15693221.68866084,607182.2397840207 L 15693221.68866084,584460.8776336823 L 15693210.890670236,561735.8461334393 L 15693199.981360137,539018.0368010236 L 15693189.072050039,516307.04750016576 L 15693178.274059432,493613.4186578947 L 15693178.274059432,470915.1971783319 L 15693156.455439234,448222.92734482436 L 15693156.455439234,425536.2088612426 L 15693145.65744863,402865.9075967157 L 15693134.748138532,380189.6478695142 L 15693123.838828433,357518.29862887587 L 15693113.040837826,334851.46092838544 L 15693102.13152773,312199.6585768385 L 15693091.33353712,298562.6530933369 L 15693091.33353712,291042.67654476874 L 15693091.33353712,290618.33116024674 L 15696417.782561008,290661.7908437664 L 15707712.814694345,290792.39284566155 L 15716714.108719891,292631.53161096526 L 15772504.209240247,316836.40392943146 L 15789169.516248435,326545.67073165777 L 15794844.249930602,328820.70071583235 L 15800442.84108107,328907.75683181203 L 15805780.499345114,330050.7502414567 L 15830914.325295912,343419.0179260399 L 15868484.653438644,356919.4636691478 L 15908131.424043141,369866.0906925459 L 15920426.550481766,372566.7050450286 L 15933156.49085143,373699.2010013989 L 15960801.573195033,378185.92343311815 L 15975347.023140045,382182.5924024464 L 15996676.060215017,398040.5084233128 L 16007427.519274814,402942.0905565174 L 16017504.938817855,411885.4572660748 L 16031767.748575741,421494.2091855611 L 16037398.956337012,423901.9843937093 L 16043584.646481922,425024.1161392975 L 16057608.230654096,425361.9408346307 L 16071686.250057267,423629.54197687865 L 16077491.450182645,424403.13765441766 L 16083187.779846027,426146.37258934125 L 16088395.082986355,429491.2414418603 L 16091036.694502879,435941.7721711414 L 16099766.146331904,444866.3387039171 L 16112148.324612333,448887.698111816 L 16123899.877977416,456963.4301417145 L 16134477.455992592,466642.26056225674 L 16142261.02610835,476387.4673864459 L 16151099.237079883,484607.52694085933 L 16164481.509665595,488085.4382826526 L 16178570.327059375,488641.5468464865 L 16226707.32390718,537534.3345601731 L 16229055.497245975,545084.1923529116 L 16229588.16100942,577190.7275453622 L 16224283.119356178,602290.1046467342 L 16236262.988996878,609988.8645394681 L 16252580.422596335,612871.9894994213 L 16275507.450961648,618245.4857139653 L 16297553.94215478,626241.0595112218 L 16367780.844797136,660101.8173529825 L 16377423.450409142,662987.3082378948 L 16391599.319644717,664080.2307372151 L 16405894.746013409,663632.0909914692 L 16411025.906622034,665359.0810575599 L 16421690.42515952,671502.2105144801 L 16427049.790724272,675514.1655194173 L 16436659.779725475,686469.0365665505 L 16445237.057810586,698377.4751673434 L 16448889.784261987,701778.7459110703 L 16453249.055521451,704436.4244389045 L 16455749.402604157,710911.7928089838 L 16459086.76093814,730867.373050283 L 16458086.666632852,743332.2192603238 L 16454183.916605134,747951.191857407 L 16442954.1176934,750195.1954743371 L 16403568.39129481,752296.9310370582 L 16377227.862063818,749976.2833647449 L 16358801.369391784,762576.8826070606 L 16358312.231549243,768073.4320154508 L 16359594.966041652,773198.3603053667 L 16375640.668764086,799914.6607759169 L 16385120.191322079,823608.5051340085 L 16392925.58005803,833255.8900653279 L 16404633.718821704,841084.7108698497 L 16415059.011773473,850340.6620228416 L 16424647.293473972,860980.6592062173 L 16444595.634904634,879556.9291782009 L 16455455.853106936,886438.4449198124 L 16468174.995485995,890697.4508144293 L 16489395.273418462,905112.7367933308 L 16492199.967988996,911482.0277283837 L 16498265.989681305,931551.0970446109 L 16500885.893897127,945166.34378718 L 16501288.202536853,950782.8793339621 L 16502766.636694077,955817.5837483169 L 16521421.334322233,968164.8944725137 L 16525508.874704672,971606.9018486862 L 16533825.219903365,999098.5026810833 L 16540195.589083498,1011854.9751037259 L 16550925.340842593,1016390.5374757221 L 16563427.076256132,1016104.3020001822 L 16597453.437089968,1007925.2937425544 L 16602377.988723677,1007661.0968019771 L 16608683.2360017,1009543.3120125299 L 16614173.06800966,1014023.603534827 L 16615999.486895105,1026399.3495759447 L 16610672.626621665,1039384.6641353635 L 16609204.990455046,1051900.5585910168 L 16615901.637062699,1062171.872854307 L 16633219.164967444,1070185.7892255161 L 16639567.826846879,1072379.64687551 L 16670735.16919867,1074937.631611825 L 16682965.06241569,1077098.679037623 L 16694977.54866719,1080561.1266494968 L 16699152.02957194,1083660.0272619152 L 16696216.868558193,1089174.5789189802 L 16689933.439900367,1091865.9654508152 L 16682823.68666238,1092968.983506849 L 16671343.864174329,1096951.4137872509 L 16671550.473149236,1104045.8077133903 L 16678029.601471879,1111450.6462287034 L 16683943.449420273,1120358.1258245832 L 16688922.436284982,1123592.8321759375 L 16694314.418460537,1125756.6976599493 L 16707783.631568557,1128848.2858281385 L 16720883.263967149,1133088.5664270765 L 16729525.775273865,1137307.2893605165 L 16738450.926767707,1140333.4702565586 L 16757910.019036338,1142266.4592834613 L 16772172.828794222,1147966.610826778 L 16792490.86225381,1145580.3802245297 L 16774879.784851843,1154838.8577568855 L 16768813.651840048,1157115.153043884 L 16747582.575916968,1153645.4931168605 L 16743592.88536694,1157258.8620152269 L 16752344.04449667,1167050.889048052 L 16765324.119762147,1173650.4939592523 L 16769966.031208735,1177487.0333231098 L 16766715.613397062,1181976.3430920648 L 16751626.59037851,1190956.8152980823 L 16745321.343100484,1192273.101989769 L 16733537.1731246,1192992.1480476498 L 16713773.622048656,1189120.712521886 L 16699793.45247789,1184188.034563977 L 16695868.995149462,1177453.8593286097 L 16692140.237485852,1173484.6424833406 L 16679529.8542493,1164000.2590861826 L 16670550.378843948,1158816.9535300902 L 16659113.970957303,1157059.9327432935 L 16647199.334538206,1157170.4865868867 L 16625859.49947263,1151656.6785195596 L 16579570.51749148,1147745.673634919 L 16568536.41824456,1145348.372053916 L 16554643.300515598,1137760.1202679009 L 16548109.736961957,1136677.7009689226 L 16541097.94487587,1139063.341389831 L 16523215.025277385,1140532.3065898246 L 16517964.307535648,1139858.5521889923 L 16505201.750555182,1133386.7615890217 L 16492036.884934986,1131023.5445170286 L 16486557.962237123,1132967.1179054207 L 16481002.785688067,1133397.7305135482 L 16463054.744187469,1128770.9477007813 L 16449531.095848447,1126816.6315292304 L 16438420.965389313,1120369.2038731251 L 16432354.832377516,1114342.334482 L 16425538.739956243,1108989.5101591651 L 16419233.492678223,1095208.4413339726 L 16409417.006021598,1082138.0991510274 L 16397241.436716085,1071398.4747215454 L 16371140.021751313,1054071.3742403188 L 16365878.506018972,1049762.9230666999 L 16355659.710722618,1033888.2595220275 L 16356214.08178677,1023371.073917436 L 16359932.041459776,1012735.5789045001 L 16354311.631689114,1016357.5058658902 L 16347962.96980968,1015906.1141517713 L 16330188.809353702,1008882.9093183983 L 16322872.558460295,1000518.1710732045 L 16310990.538652003,977820.9289408171 L 16303391.647571472,965866.7001781058 L 16285650.103726294,944704.6907268519 L 16280540.761737866,932144.3605845324 L 16273137.570322149,921169.4322470896 L 16268560.892097166,917105.2871240117 L 16264755.991901852,912404.5312972743 L 16261386.016957067,906298.6807788432 L 16256341.79687075,902049.238778969 L 16231599.370249584,892651.345910642 L 16227239.987670626,889687.4875592728 L 16222445.902480125,888117.7889897856 L 16204041.228428291,887151.9423158981 L 16193398.417191511,885604.2469120238 L 16173330.518627735,877910.7088345885 L 16162959.54958747,875606.1653847733 L 16150490.430784734,874146.7249189491 L 16138412.711311627,871227.8679986638 L 16132520.570663938,868364.1328860864 L 16128563.608044202,863525.7953038054 L 16126215.434705408,852062.6341110246 L 16116105.398551563,853291.0313911303 L 16106190.950743038,851305.8662784867 L 16096570.05243174,847280.7532186698 L 16086764.363765724,844857.0872906725 L 16080067.828477563,848311.7071878354 L 16078013.204635995,857437.3996357226 L 16074914.960568232,857909.0626822726 L 16069174.993664462,856044.2292318951 L 16066315.975182418,857141.1944801314 L 16060086.8704361,861353.6137688449 L 16055097.085580781,867047.488866067 L 16045911.001200521,866180.8315518262 L 16027071.513217648,860421.1205143364 L 16018679.025487252,856812.0797957308 L 16011547.676268052,850307.7551211554 L 16005416.421354141,842916.0634021922 L 15999209.02390853,837093.3443914203 L 15991588.425527293,832839.2548434127 L 16001296.2643609,842883.161555061 L 16023581.869820261,887195.7775816631 L 16018005.09728999,888051.922392162 L 16012265.130386215,886932.4294189818 L 16017537.55542866,895450.8149912822 L 16011460.624426251,896735.3253440286 L 16005438.128654847,896636.5069253788 L 15992718.98627579,892958.7923917503 L 15980086.89573853,891740.2597537973 L 15976368.936065529,893540.6419051058 L 15979043.275512343,896735.3253440286 L 15983478.577984022,906133.9488587518 L 15987011.747302307,915995.9870546942 L 15968780.954295091,920433.4652648466 L 15950082.730746036,923135.6700429784 L 15929253.8521432,928463.7354987487 L 15908164.040653942,928826.3278264872 L 15897347.34837254,925794.1666056789 L 15886248.015904017,924080.4625336847 L 15875833.520942852,925794.1666056789 L 15865712.575478908,929639.3869893124 L 15857189.732624795,929024.1067160921 L 15851808.548439845,922103.1593788636 L 15849275.584746335,916852.6751561472 L 15846046.87423537,912294.6575752588 L 15838078.402445404,913019.5816949649 L 15830392.570842566,915479.7552030698 L 15843557.43646276,915765.3127829075 L 15847503.60109189,921575.8334174498 L 15850895.394656872,928628.5498237311 L 15860222.743470948,935012.2328118007 L 15871485.158993484,931210.5338607493 L 15896194.969003847,932265.309472505 L 15920209.143516248,943385.9341268296 L 15925905.584499119,944660.7990534782 L 15931134.483620662,946836.979237132 L 15943505.75259099,957829.4018505648 L 15952833.101405067,967824.042204721 L 15960682.01606192,979228.8307036681 L 15962345.351893354,983694.7834030127 L 15961823.486120515,995676.1969511339 L 15959453.605481016,1001629.6666765647 L 15943940.566522028,1010071.7320705296 L 15927394.927966442,1016445.5526401576 L 15903011.172744613,1028866.1384603452 L 15879410.104862548,1042987.0117114092 L 15867006.219281416,1040221.8810904439 L 15855819.94629058,1032742.8294268098 L 15851482.382331822,1030716.3020441625 L 15839959.033922866,1026641.56740312 L 15832925.534536077,1025177.0063891237 L 15805019.519306052,1028359.5744497036 L 15777015.765563115,1029989.465984677 L 15765242.393577836,1029846.2430655225 L 15753795.187700586,1027456.5261522582 L 15741206.511764737,1023007.7774052173 L 15728737.392962,1024978.7738085014 L 15720203.640797788,1030198.6625911103 L 15710876.291983712,1030969.5982244625 L 15693395.68102495,1019407.2379526823 z" /><path fill-rule="evenodd" fill="currentColor"    d="M 16478154.565196628,649708.916620197 L 16473664.827493954,650561.2459850934 L 16471718.96279489,645480.1148036651 L 16461315.377143824,641076.8354014301 L 16450911.791492756,627431.6710293444 L 16451074.874546768,615711.6222487898 L 16452422.842260784,612347.8265253349 L 16458195.314455869,612173.0318952737 L 16481383.275707599,625672.9427997881 L 16483753.156347096,629998.7636213987 L 16482013.78930345,642803.090392344 L 16478154.565196628,649708.916620197 z" /><path fill-rule="evenodd" fill="currentColor"    d="M 16254798.129491922,526712.7048335721 L 16247340.614164699,530017.9573751317 L 16241959.429979749,527476.2849110959 L 16239687.399172658,520157.12686409656 L 16241535.414039318,513089.59650356014 L 16248058.06828286,507516.7417657729 L 16252178.225276101,505837.32271611196 L 16256809.227412589,509621.56496474653 L 16258592.120377136,517103.2497354406 L 16254798.129491922,526712.7048335721 z" /><path fill-rule="evenodd" fill="currentColor"    d="M 16995214.007701006,348982.26861669833 L 16992496.253652778,358770.38786179514 L 16985691.070541605,353043.33460814244 L 16981038.249784917,344768.94774327404 L 16984006.027409468,341078.3881647803 L 16991670.1517116,338879.2680809227 L 16995214.007701006,348982.26861669833 z" /><path fill-rule="evenodd" fill="currentColor"    d="M 16931607.6091346,328243.74649208266 L 16930411.8151645,333871.7292233952 L 16926943.879067816,333545.11658131203 L 16917344.79937671,322529.07882391004 L 16915507.58250066,319677.24806264247 L 16917746.99669695,316901.6062134404 L 16928868.036466178,325021.7248353454 L 16931607.6091346,328243.74649208266 z" /><path fill-rule="evenodd" fill="currentColor"    d="M 16671811.40603566,172903.3482716705 L 16671561.382459335,176927.16815508032 L 16663516.768137671,174893.47836964004 L 16661309.970552184,175491.7122791978 L 16647373.215582829,163844.68537744423 L 16647590.73386784,156721.88526693397 L 16651275.965610553,150654.1022332793 L 16657070.25642583,151632.76395983467 L 16667343.375633687,159277.34016176543 L 16671811.40603566,172903.3482716705 z" /><path fill-rule="evenodd" fill="currentColor"    d="M 16818255.20180046,1121164.006067756 L 16822984.165088847,1121175.0843597583 L 16830876.49434711,1112730.8904946714 L 16837703.49607848,1110148.296331642 L 16842247.557692662,1114000.1030108554 L 16834942.216109354,1140907.9270247808 L 16828778.34458464,1136854.4641258053 L 16804699.04817013,1129356.1888401927 L 16803948.866121672,1118713.4118423006 L 16797676.346773945,1115280.4357136304 L 16793806.213357024,1104895.5127198733 L 16785826.83225696,1093388.1727421267 L 16784315.781488936,1086020.1135540723 L 16788838.13580241,1089053.2745181909 L 16793914.972499527,1096565.2845695347 L 16814972.167377986,1111991.4219628945 L 16814156.863427415,1116980.2681904873 L 16818255.20180046,1121164.006067756 z" /><path fill-rule="evenodd" fill="currentColor"    d="M 16736374.484305937,1061719.957263893 L 16734809.109626405,1064508.6226470314 L 16728297.364692962,1062458.4424458535 L 16710142.714217452,1046832.0304817283 L 16712947.408787986,1035287.0463845856 L 16721111.580242768,1029284.6337508132 L 16733558.880425308,1035804.7521473203 L 16737668.12810845,1045377.6661375669 L 16738907.44799945,1050732.4890438227 L 16736374.484305937,1061719.957263893 z" /><path fill-rule="evenodd" fill="currentColor"    d="M 16821136.0389027,975995.1197009039 L 16823060.19630106,984035.877115168 L 16814385.06838354,975412.1749374776 L 16818233.494499754,965668.7527664579 L 16818907.42269702,960402.0911575475 L 16818461.810775373,957433.5825955243 L 16809797.480848458,952387.7701835447 L 16814395.97769364,944144.2311572705 L 16819277.114725944,941374.7892161788 L 16822331.8328728,940572.5404035498 L 16822201.366429593,952167.9355474812 L 16824669.096901495,957367.6130755472 L 16821136.0389027,975995.1197009039 z" /><path fill-rule="evenodd" fill="currentColor"    d="M 17174455.86503823,1273119.024256733 L 17172814.347826995,1279306.8836977216 L 17168759.424055357,1277210.8593640025 L 17156692.502572857,1280415.990888048 L 17150333.04270282,1279695.0555136816 L 17146669.40694132,1274150.2518891003 L 17145810.688389342,1271588.8210933965 L 17156301.214562718,1273584.673625653 L 17154529.23090827,1267442.2959143058 L 17169683.487148434,1270557.6749925087 L 17174455.86503823,1273119.024256733 z" /><path fill-rule="evenodd" fill="currentColor"    d="M 15984011.241747467,947650.2612421031 L 15979151.923335357,947991.0653892579 L 15959529.748012718,940352.7657438831 L 15954518.144537205,934803.4002887369 L 15977488.698823415,936034.1313122655 L 15983413.344762417,937429.6317762756 L 15984652.664653419,945199.31919385 L 15984011.241747467,947650.2612421031 z" /><path fill-rule="evenodd" fill="currentColor"    d="M 16383587.433253344,605587.9797603671 L 16377347.419196928,606199.4232725701 L 16367193.857122183,595574.9799052796 L 16364617.36750777,591622.5576066051 L 16365606.663822453,586076.5566333225 L 16378554.122477127,578631.5299955126 L 16386935.700897424,585421.5833750821 L 16388664.158630973,599953.4102949107 L 16383587.433253344,605587.9797603671 z" /><path fill-rule="evenodd" fill="currentColor"    d="M 16371487.895160044,218246.14466272094 L 16408558.17615013,225479.82956067813 L 16411004.19932133,225392.72333713717 L 16410580.183380896,222803.83855318587 L 16411210.696976753,222075.03213033514 L 16413406.69657163,223967.72939723526 L 16412732.657054877,229254.39891977602 L 16406873.133017989,230548.88320606842 L 16401426.715611441,230037.70503421954 L 16397513.167593112,232757.24788468273 L 16386935.700897424,242950.51142143138 L 16379793.44236813,241242.53133331548 L 16371074.788529707,243527.0087556649 L 16355768.358545635,243744.6857539672 L 16335896.159646671,239262.534828898 L 16330471.449540826,243037.51504648474 L 16323383.514923036,241993.1403256176 L 16316371.722836949,246127.12006170873 L 16313479.97642461,245920.46876584805 L 16311795.044611966,239850.04797565055 L 16311914.601745078,236738.72435281804 L 16320220.037633674,234106.11848090234 L 16318980.717742672,224566.10741498412 L 16325699.071651027,219790.72225207428 L 16337255.036670787,220204.07464894958 L 16348060.819642087,216951.74793124248 L 16371487.895160044,218246.14466272094 z" /><path fill-rule="evenodd" fill="currentColor"    d="M 16746528.046380686,296418.6473705332 L 16724361.99805444,297942.25981209805 L 16716371.81896377,296244.5786240176 L 16709229.449114982,289812.99223196955 L 16702761.230102437,279779.90188912174 L 16696271.1924697,277440.407600013 L 16693651.288253881,275470.87561558106 L 16709338.208257489,267799.7992806367 L 16723209.618685747,265482.3302151077 L 16745734.449730821,275090.0311551574 L 16748017.389848007,279866.9260954112 L 16748191.38221212,282968.18646748585 L 16747582.575916968,293132.1060596601 L 16746528.046380686,296418.6473705332 z" /><path fill-rule="evenodd" fill="currentColor"    d="M 16756746.841677032,1045102.2782596167 L 16772401.14506984,1054346.9381358146 L 16781021.83775636,1051636.0699218526 L 16785718.18443395,1053156.7914176814 L 16795784.805986382,1063847.1894774379 L 16796339.177050535,1071663.0985877996 L 16797958.986961067,1078377.7516277018 L 16797448.030498326,1081321.995003023 L 16791882.055958662,1085314.2631555607 L 16792349.4865005,1080770.7083383603 L 16788088.065073445,1079888.4630544232 L 16773433.85598593,1080086.9749272517 L 16762073.701950476,1077219.9452006817 L 16746484.520459786,1076481.1760381202 L 16753061.609934326,1069381.0035628828 L 16754529.134781452,1066492.7644853909 L 16746310.639415165,1055074.2240418077 L 16745951.85669634,1049619.6283775356 L 16746604.18891239,1046611.689294955 L 16753463.80725456,1044992.0559590008 L 16756746.841677032,1045102.2782596167 z" /><path fill-rule="evenodd" fill="currentColor"    d="M 16990800.41253003,1001442.5934209768 L 16997290.450162772,1003159.41705527 L 17010737.95597009,1002323.084820695 L 17015162.46045116,1008783.8329324136 L 17021315.42266578,1011007.3049259138 L 17026642.282939218,1013924.5145903716 L 17031360.33691751,1018174.1718321006 L 17031327.720306706,1020761.5459333649 L 17030207.957548816,1023018.7145892223 L 17027348.82774728,1025033.8007290326 L 17028196.859628145,1029581.9022737324 L 17023283.105985038,1028910.1191655011 L 17017130.03245093,1031310.9754576564 L 17005106.748208825,1025991.8225210626 L 17000725.658329163,1024791.5926368862 L 16999399.39791585,1020232.9860770964 L 16991594.009179898,1012603.4645692529 L 16977907.38910636,1007132.7080644459 L 16984799.624059334,1002642.2436827667 L 16990800.41253003,1001442.5934209768 z" /><path fill-rule="evenodd" fill="currentColor"    d="M 17091564.143928327,1286150.433048388 L 17110164.517644975,1292096.7635395278 L 17116469.653603505,1298665.552335776 L 17109751.411014643,1301650.884423455 L 17093520.91793749,1303692.9362516247 L 17089683.401131373,1299675.4427158262 L 17074072.62365947,1295625.0522331684 L 17071626.60048827,1288291.4572717978 L 17063810.30244222,1290787.5307296684 L 17067767.37638145,1285617.925468822 L 17057983.506335627,1279806.0112778589 L 17054928.676869277,1272032.3080205054 L 17054548.186849747,1268883.523207344 L 17066028.009337805,1272542.450387315 L 17091564.143928327,1286150.433048388 z" /><path fill-rule="evenodd" fill="currentColor"    d="M 15984402.641077094,964723.0542910211 L 15986392.031697063,969649.3848403393 L 15970205.064540813,962886.8897443388 L 15954768.168113528,951596.3482356499 L 15946941.07207687,948529.6269586422 L 15941712.061635839,941089.0658585681 L 15951311.141326942,946639.1196938454 L 15968041.681556733,951838.1294178775 L 15984402.641077094,964723.0542910211 z" /><path fill-rule="evenodd" fill="currentColor"    d="M 16461587.108020848,254221.37204041283 L 16457977.907490348,260085.65936914756 L 16449563.712459248,259585.197214489 L 16445845.864105735,257833.48082141532 L 16451933.593098747,256723.7251309492 L 16454379.616269948,251882.26821823642 L 16457010.429795865,250174.19571309598 L 16461587.108020848,254221.37204041283 z" /><path fill-rule="evenodd" fill="currentColor"    d="M 16915801.13199788,315181.94882085477 L 16913148.49985177,315203.6826327445 L 16912746.302531533,306311.512372143 L 16914594.428717684,301631.674530978 L 16920780.007543102,304885.7671457284 L 16921823.627769288,312841.8516261105 L 16915801.13199788,315181.94882085477 z" /><path fill-rule="evenodd" fill="currentColor"    d="M 16797969.784951672,1182849.973294905 L 16796404.41027214,1191697.9212358797 L 16787240.144512076,1189065.4418009145 L 16785392.01832592,1187163.0728337078 L 16786903.06909395,1181578.3192337647 L 16795002.00732713,1181323.8807613673 L 16797969.784951672,1182849.973294905 z" /><path fill-rule="evenodd" fill="currentColor"    d="M 17105272.471302573,456723.5906377559 L 17104250.669696584,459372.1286820072 L 17097728.015453037,456353.0627504601 L 17103098.290327888,450631.39143745607 L 17105685.57793291,450239.0156633207 L 17105272.471302573,456723.5906377559 z" /><path fill-rule="evenodd" fill="currentColor"    d="M 17361122.509772386,746068.5192722634 L 17358404.75572416,756566.3389855693 L 17356371.83918329,758383.6804570473 L 17353806.37019847,754442.4665700664 L 17344131.03665617,758263.1652012903 L 17339510.94382978,762609.7326305384 L 17334597.190186676,765795.9443692915 L 17323247.834141828,765029.4781749096 L 17312507.173072636,762149.8341336126 L 17302092.789430965,756818.1241775798 L 17292819.764528394,749976.2833647449 L 17283525.03232512,739260.8603701409 L 17277741.650819935,728142.6916761873 L 17280622.487922177,715232.694735712 L 17277024.08538228,703583.3333371853 L 17259489.150512014,695304.3954330502 L 17255651.6337059,692625.296530598 L 17247867.952270653,681024.0976043124 L 17240084.382154897,676017.0219303638 L 17230246.07687808,665861.8535941361 L 17227723.911175177,661457.137399416 L 17223473.399058215,648605.2808460407 L 17222125.320024706,640836.4008536382 L 17225701.903944407,618267.4069198872 L 17224386.552841194,606985.7647917467 L 17229213.254642498,608066.887576494 L 17234311.79864032,612533.4694368049 L 17240106.0894556,615591.5077182518 L 17254194.90684938,617666.5895629205 L 17264968.18452937,626645.1983158349 L 17275306.536958836,644179.8540563987 L 17276545.856849838,649927.4529007981 L 17279850.598573014,654058.1892690558 L 17290482.500499696,661500.7856904546 L 17295994.151127852,666277.2148700817 L 17306506.384601936,685386.5700514667 L 17312333.29202802,689465.0680959335 L 17319203.81968029,691105.2350087218 L 17325596.00748062,693860.9702552478 L 17336249.61670801,702249.0106445149 L 17346087.92198483,711743.1496294127 L 17352730.13336148,721731.1300478387 L 17357785.151438404,732421.2078863803 L 17361122.509772386,746068.5192722634 z" /><path fill-rule="evenodd" fill="currentColor"    d="M 17215254.90369193,605675.3125191457 L 17213037.196796346,606559.828661153 L 17208199.585684944,592452.3327917331 L 17207340.755813472,581993.6660682772 L 17205851.41234615,574287.1917916539 L 17203318.44865264,569692.097266631 L 17210612.880925853,561212.068715915 L 17213624.184471298,558854.8376329393 L 17219124.925789356,563340.1684873828 L 17219918.52243922,573250.2994166221 L 17224147.32725548,581677.0966226138 L 17220951.344674803,600095.300294796 L 17215254.90369193,605675.3125191457 z" /></g></g>
</svg>
