<?xml version="1.0" encoding="UTF-8"?>
<svg xmlns="http://www.w3.org/2000/svg" viewBox="13020988.629248029 -2372960.572802216 1071319.6324420478 1808927.414577648">
  <g id="map"><g><path fill-rule="evenodd" fill="currentColor"    d="M 13480964.216110047,-2109693.66289207 L 13497988.305837063,-2103603.4497250062 L 13535667.393122299,-2081660.5319300229 L 13549451.863028247,-2076220.0123282664 L 13563790.703998348,-2072154.913728957 L 13575140.171362683,-2070952.7066206967 L 13585261.116826627,-2075968.1185878247 L 13589544.24555439,-2081099.2534911353 L 13597306.219688933,-2094580.3471287147 L 13605600.74626743,-2096231.0784267015 L 13610536.207211241,-2091325.2948117843 L 13614352.016716655,-2084747.9004800674 L 13616047.857839398,-2075074.788817146 L 13613688.886509998,-2064988.5635919038 L 13605785.64794164,-2055948.4396028798 L 13600958.834820842,-2045071.2028131292 L 13597784.559540872,-2009066.171625696 L 13597936.733284784,-1998304.7308721703 L 13600480.494968904,-1987942.309715788 L 13607340.113311077,-1971504.9571727593 L 13610927.606540872,-1966885.0476391045 L 13621309.484891232,-1961007.5102029722 L 13624114.17946177,-1956566.2825645676 L 13624712.07644682,-1948591.4994160074 L 13626342.79566745,-1941569.7303130191 L 13633061.038256314,-1938890.2342902857 L 13638768.388549287,-1935363.6343625342 L 13636637.622176014,-1927578.5587279992 L 13633071.947566412,-1919665.5522763806 L 13628375.600888826,-1900190.8857462958 L 13606122.612040272,-1855177.3956516036 L 13604818.058927665,-1845466.1613686683 L 13596023.37387703,-1826135.2042232768 L 13578162.272898741,-1823016.8819961662 L 13557452.951429015,-1813692.6090388268 L 13545929.60302006,-1806430.4987198482 L 13535928.326008718,-1796994.262871876 L 13532101.718512697,-1784669.033546 L 13535384.752935173,-1779031.2524650916 L 13537471.993387548,-1773016.5372808962 L 13537232.767801834,-1766517.8804491966 L 13534134.523734076,-1761127.1832169518 L 13524187.570634244,-1747991.4572449971 L 13519980.47311869,-1737264.8255009407 L 13515512.442716721,-1732461.4524699529 L 13513327.352431942,-1726616.2809970274 L 13514066.6251703,-1719944.3456770207 L 13518078.023021035,-1714141.6535542149 L 13530210.066405648,-1689104.4852672308 L 13543190.141671125,-1664952.8774558473 L 13545984.038251055,-1662181.528913407 L 13547071.073078653,-1658943.9573948816 L 13539407.060096009,-1652548.6649051488 L 13539559.233839922,-1640976.1936470682 L 13541852.971947717,-1629515.7001141254 L 13553354.50173648,-1601097.1806744817 L 13554996.130267208,-1593505.4027793456 L 13558768.302532228,-1587283.457460101 L 13564649.533869818,-1581455.2350425613 L 13571150.480812654,-1576558.2381184408 L 13589837.795051612,-1568150.346424879 L 13597045.286802514,-1566498.244219746 L 13604546.328050638,-1566207.038055226 L 13606405.252227394,-1571863.8238914034 L 13612982.23038244,-1573779.5551754907 L 13611525.50352592,-1579348.459843699 L 13603524.415125154,-1587031.2771575223 L 13603209.158327227,-1591207.085736994 L 13607416.255842777,-1594307.146238977 L 13612438.657308897,-1596117.962565077 L 13623690.163521338,-1604506.8196243902 L 13635615.70925053,-1611226.5720916388 L 13650791.672791395,-1610671.1980266902 L 13665695.905455237,-1606918.5428600928 L 13676273.48347041,-1603003.7988784057 L 13684970.318688637,-1595804.03737332 L 13693917.17748318,-1583377.2884705944 L 13700200.606141008,-1569623.3781731091 L 13700167.989530204,-1563059.82997193 L 13698635.231461473,-1556492.4010325598 L 13698972.195560105,-1549993.7588273606 L 13703646.723617494,-1545578.1646744872 L 13718061.7071193,-1545247.992818226 L 13725356.250712,-1555456.7813844082 L 13726291.111795682,-1566940.6222148836 L 13721159.951187057,-1571398.8793591924 L 13723519.033835946,-1577062.5146224305 L 13727954.336307624,-1581292.7368608008 L 13734313.907497155,-1577505.069676332 L 13740423.455110358,-1570345.930127846 L 13762741.677180521,-1562572.6780053698 L 13768449.027473493,-1562404.6768692764 L 13773112.757540278,-1560948.9026468375 L 13783103.236561012,-1555535.0848851476 L 13787766.855308304,-1551236.1842460907 L 13782048.707024727,-1542310.4327959532 L 13759882.658698477,-1540329.7033825554 L 13753479.561588049,-1533605.636755124 L 13759991.306521494,-1520128.8495867292 L 13770623.208448177,-1509084.0361707823 L 13777439.41218894,-1500149.6942513424 L 13783494.524571149,-1490536.7985150767 L 13783201.086393418,-1481630.8454773875 L 13779700.533685932,-1472364.8284854877 L 13789451.898440443,-1473101.4937516022 L 13798627.073510606,-1471125.8570368097 L 13811313.599278862,-1463380.8912945942 L 13815259.763907991,-1462588.607107339 L 13819510.276024953,-1463821.6046938554 L 13818901.581049291,-1435883.001312975 L 13810269.979052674,-1410315.939154115 L 13799355.436938865,-1413495.994436236 L 13790017.17881469,-1424302.854750058 L 13791919.628912346,-1437460.4016939574 L 13797887.800772248,-1450183.4584769234 L 13794485.20921666,-1452871.5010998645 L 13788462.602125762,-1451811.901197676 L 13781613.893093688,-1448945.4564863187 L 13774232.408978676,-1447958.5195482124 L 13762067.74898326,-1449653.760647473 L 13737086.096776377,-1463514.692847698 L 13726910.827400927,-1464770.1273293984 L 13724627.88728374,-1471047.6802255842 L 13725193.167657986,-1484372.0847355248 L 13715224.395937959,-1500149.6942513424 L 13713626.40464762,-1505798.2606597543 L 13710473.725348866,-1510246.4142814078 L 13680741.402552892,-1527442.3567699732 L 13677099.69673108,-1530339.2409837348 L 13667957.13827172,-1544067.3837420917 L 13647236.907491893,-1563619.8134869174 L 13641431.707366515,-1565619.0155134397 L 13635115.662097886,-1566184.558311099 L 13633071.947566412,-1561223.309127357 L 13635941.875358555,-1553598.3158252726 L 13637105.052717853,-1547049.9485616595 L 13636659.329476716,-1540184.2997994644 L 13637529.068658285,-1534875.371883214 L 13647345.55531491,-1524014.6676703542 L 13648813.191481527,-1518876.634060616 L 13655324.93641497,-1504937.71350728 L 13656129.442374934,-1488671.664445604 L 13647758.661945242,-1481921.1475175098 L 13638333.463298757,-1489453.4775512235 L 13638029.115810929,-1495585.801034683 L 13636409.305900395,-1501294.8757563992 L 13626277.562445845,-1516087.0917094557 L 13622896.678190965,-1519273.4623467128 L 13603828.762612985,-1533890.875196594 L 13589076.81501255,-1549948.9413486125 L 13556257.157458913,-1567063.805787568 L 13552354.40743119,-1568004.791207119 L 13546657.96644832,-1566711.0022243646 L 13541287.691573469,-1564577.4207095976 L 13525437.68851585,-1556117.2665852206 L 13519839.097365385,-1550223.120040688 L 13519339.050212739,-1541180.1410156414 L 13507967.98686719,-1533991.568521841 L 13492313.683474386,-1532979.1537290844 L 13480290.287912786,-1537470.9310476189 L 13470343.223493462,-1546479.081199197 L 13462124.728127174,-1546910.0098644602 L 13451927.751451021,-1560993.7386144542 L 13439502.158569187,-1562807.881381676 L 13429261.544652639,-1551795.9192524352 L 13427065.656377254,-1573678.7116686737 L 13427000.423155649,-1595798.4110968234 L 13429881.260257887,-1602263.5765559822 L 13434957.985635513,-1607647.7555174525 L 13460983.258068582,-1630851.8286714437 L 13464266.40381055,-1638308.57809061 L 13463124.933751954,-1648329.1479124548 L 13457200.176493464,-1656465.3825648818 L 13447894.53498009,-1661417.0213921405 L 13437143.075920295,-1663468.7309964977 L 13429392.01109585,-1668022.5346977734 L 13423315.080093445,-1675518.4164593373 L 13419205.832410304,-1662260.1567453435 L 13423206.432270432,-1642526.4220340294 L 13423869.562477086,-1629700.9212248595 L 13420195.128724981,-1624901.4723697093 L 13413520.300737528,-1624766.8644360614 L 13407182.548168194,-1626282.307908597 L 13402431.8775791,-1630874.3644408376 L 13398996.55809322,-1644099.1778431532 L 13389941.051475659,-1652852.1245596732 L 13386255.708413457,-1665391.4261589206 L 13382146.460730314,-1667173.5628425821 L 13373699.649088413,-1666206.6014652804 L 13367481.45365219,-1672042.906386341 L 13363296.063437345,-1686679.25311148 L 13362415.526265167,-1702405.2781165284 L 13358893.26625698,-1715634.3934338286 L 13353816.54087935,-1728442.347997181 L 13350859.6725649,-1738911.3170168488 L 13346272.085029818,-1785934.5422787252 L 13345141.412961833,-1790251.5803258661 L 13342717.208410827,-1793812.0455786346 L 13336988.15081715,-1799159.322637004 L 13332617.970247589,-1805700.9968705168 L 13331824.373597723,-1811090.6354315262 L 13333020.278887315,-1834286.8782505498 L 13334987.850887084,-1839875.7742414 L 13339499.407209955,-1842571.6179114333 L 13345663.278734671,-1838029.6271851815 L 13350587.830368381,-1832390.2843946896 L 13356686.468671493,-1829684.2848188423 L 13362056.743546344,-1826106.9213667512 L 13372145.07239948,-1812391.6434368922 L 13376123.964958906,-1810242.2569628286 L 13388538.648530645,-1810677.7941689417 L 13395854.899424052,-1812419.9094066343 L 13399387.957422849,-1817415.0742597831 L 13401616.573628528,-1823367.8227237808 L 13401670.897540037,-1830403.1868342534 L 13394517.729700642,-1851131.4981419349 L 13392321.730105763,-1866094.8377045742 L 13392223.991592847,-1879593.1121280151 L 13394093.71376021,-1893122.2449812058 L 13403855.987824816,-1915658.9768872361 L 13405106.105706425,-1931314.338422496 L 13404171.244622746,-1952268.3124122368 L 13405888.793046195,-1964743.3750344818 L 13405595.354868462,-1971909.4905069822 L 13399757.53813228,-1983204.6455771234 L 13398235.578054156,-1995241.7262791994 L 13414563.920963712,-2056594.783301393 L 13419673.374271635,-2068479.8116512 L 13423402.131935246,-2080755.573438083 L 13425097.973057989,-2097079.3274336488 L 13437306.158974307,-2101550.776488087 L 13448927.357215673,-2108299.990862179 L 13454938.94367698,-2107772.3824401745 L 13461309.424176607,-2106149.357327718 L 13475376.534269681,-2109504.4278903166 L 13480964.216110047,-2109693.66289207 z" /><path fill-rule="evenodd" fill="currentColor"    d="M 13059015.589941991,-942907.8694286431 L 13048709.854123332,-934770.4327453836 L 13049818.707571123,-944831.0764856944 L 13052862.516407883,-954317.0277202044 L 13063331.335280554,-973751.457369685 L 13070886.700440185,-979729.2667071897 L 13083377.526543625,-995043.5111679671 L 13090422.046560004,-1002449.643633724 L 13107304.760533715,-1017095.1431013072 L 13122872.12340421,-1033155.839108868 L 13128079.315225048,-1034350.907160002 L 13133808.372818721,-1034593.1733604639 L 13138352.434432903,-1036438.0767848146 L 13148484.289206944,-1045113.334351877 L 13173987.695867175,-1074016.9090063025 L 13195077.507356433,-1095572.4152757525 L 13216689.184618527,-1122847.605746975 L 13226994.920437187,-1130797.1704356822 L 13229777.907707023,-1133734.6025018955 L 13249671.925226176,-1158877.7215029316 L 13255911.939282592,-1162530.328224559 L 13262945.438669385,-1165182.8802765897 L 13267728.725869283,-1168598.4322686994 L 13271935.823384833,-1172882.149730223 L 13278969.434091114,-1183834.1499450994 L 13281828.452573158,-1196642.6595528193 L 13280045.670928102,-1203878.674161421 L 13276088.596988875,-1214552.7468031752 L 13281045.765233388,-1229116.837991368 L 13284948.51526111,-1235839.1039725025 L 13298819.925689371,-1265441.2585692273 L 13302820.5255495,-1271417.036825054 L 13308614.705045288,-1267680.585013192 L 13309386.59439445,-1262376.1987607228 L 13306527.464592915,-1249897.2341182227 L 13306310.057627397,-1243631.7891629722 L 13309571.384749167,-1237267.9456671372 L 13305646.927420743,-1226797.0130632455 L 13315604.78983067,-1198938.3325382168 L 13323203.680911202,-1181307.348552887 L 13323486.321098326,-1175491.3282444763 L 13313278.435112074,-1164972.9278869166 L 13307190.594799569,-1161795.3856996167 L 13294047.547799572,-1158971.7592972913 L 13288133.69985118,-1155905.1918029166 L 13278719.410514792,-1147353.465396471 L 13272838.179177202,-1136092.3417485566 L 13271348.83570988,-1130272.7387935081 L 13268337.53216443,-1125795.3635065511 L 13241301.256115977,-1118150.3826943585 L 13228614.73034772,-1113161.265057722 L 13222766.115620935,-1109408.879435308 L 13219743.902765388,-1103306.5123463382 L 13221842.052527858,-1092538.842150984 L 13199110.723827364,-1053696.7368545064 L 13191859.706155563,-1043532.3447437536 L 13184119.550641214,-1034885.0677499657 L 13174618.209463026,-1028733.971094669 L 13161225.138886705,-1024956.7856134573 L 13150625.853570826,-1017447.4505293315 L 13143429.271130022,-1004166.5095408951 L 13134536.736246984,-992171.701700502 L 13123296.02802515,-983287.7951191684 L 13111185.691941243,-975445.1737199414 L 13100064.65217201,-969726.409049922 L 13088073.873221215,-965690.7093450972 L 13084453.763380615,-960467.952777094 L 13081888.294395797,-954020.1872545048 L 13076604.960043253,-950986.2732593891 L 13070299.712765232,-949238.6025715186 L 13059015.589941991,-942907.8694286431 z" /><path fill-rule="evenodd" fill="currentColor"    d="M 13636213.606235579,-1301933.8634879868 L 13649182.77219096,-1296146.591315292 L 13661825.883357808,-1301118.1178455208 L 13674273.183540348,-1299725.3301107078 L 13684644.152580613,-1292185.494293886 L 13681252.35901563,-1287420.6265657966 L 13680556.612198172,-1282190.573732239 L 13703733.664139805,-1293566.817427986 L 13709919.354284715,-1292895.5764409194 L 13709712.745309804,-1282329.1372812313 L 13708343.070295084,-1273362.9187747769 L 13705603.49762666,-1264648.5743750532 L 13700700.65329365,-1254440.5254806655 L 13694134.5844487,-1245321.32856669 L 13685481.275151378,-1238702.2931119616 L 13675229.863244226,-1234654.0443303487 L 13670359.63552202,-1230977.213457785 L 13668859.382744597,-1225440.6151148034 L 13669044.173099313,-1218471.2721292395 L 13666685.201769913,-1212134.3008888513 L 13655912.035409413,-1209539.009668636 L 13639094.44333782,-1197184.8432588864 L 13602980.84205161,-1189369.5451193019 L 13593066.50556258,-1184005.5995152323 L 13586739.550983856,-1177044.6782456862 L 13579684.232976867,-1170731.9621139576 L 13575857.625480847,-1169156.7054846438 L 13574107.349127105,-1172157.9721176059 L 13573607.301974464,-1174733.9253015406 L 13578760.169883791,-1191144.837001964 L 13577901.340012321,-1197975.816940621 L 13575444.518850515,-1204603.402165214 L 13577009.893530048,-1217558.0802858546 L 13583282.52419727,-1229736.9894605542 L 13586641.701151447,-1243149.8897422364 L 13587620.088156028,-1269060.9705779257 L 13592501.225188332,-1305097.0369904242 L 13592261.999602618,-1309409.40539188 L 13588435.392106598,-1314283.0843356114 L 13574389.98931423,-1318213.7502930313 L 13568867.540695466,-1321917.1300317273 L 13571628.820664592,-1329136.5050626972 L 13576933.862317838,-1334029.874393706 L 13584228.294591049,-1333807.6954664956 L 13590642.189692084,-1329219.7667631235 L 13613341.013101269,-1319773.8285321596 L 13625418.732574377,-1311835.066412237 L 13636213.606235579,-1301933.8634879868 z" /><path fill-rule="evenodd" fill="currentColor"    d="M 13706864.524818366,-1013247.4696605635 L 13699493.950013453,-1012036.5727085217 L 13691710.379897695,-1012653.0637572255 L 13686492.27876676,-1018190.6320071656 L 13677447.57013981,-1042083.630133774 L 13666967.841957038,-1047895.2815532143 L 13654955.355705537,-1052297.2949560957 L 13648921.950624032,-1056005.4406775201 L 13643595.09035059,-1060474.3950717167 L 13626723.174367491,-1084305.0893550366 L 13625451.349185178,-1098893.1912490237 L 13628353.89358812,-1107146.646925305 L 13633463.235576551,-1114540.91608826 L 13639224.90978103,-1116538.7721384543 L 13653139.846130189,-1116803.714346185 L 13660347.33788109,-1117775.110076473 L 13676219.048239412,-1128715.7708915994 L 13677360.518298008,-1133022.3011684045 L 13677436.660829712,-1151010.3206643478 L 13675860.376840077,-1163596.8934707497 L 13671925.010201555,-1175883.8482950677 L 13676219.048239412,-1181500.8664712566 L 13681817.63938988,-1187063.5232706747 L 13687666.25411667,-1197914.9808793918 L 13688818.63348536,-1205549.5602002018 L 13688927.392627863,-1213534.4804981102 L 13690438.443395892,-1219251.7442494424 L 13695015.121620877,-1222107.961310314 L 13716985.470282309,-1230822.1971196397 L 13720866.513009325,-1231420.1536392628 L 13749142.10894878,-1223381.235324996 L 13754914.581143867,-1211254.3729673026 L 13755479.861518113,-1207253.7306243489 L 13751044.447726946,-1193799.6768399004 L 13747163.516319422,-1184774.188665213 L 13737597.053239118,-1170809.2778345936 L 13730541.735232132,-1155689.7499211768 L 13725258.400879592,-1132967.1179054207 L 13721931.840536216,-1125563.4820985077 L 13713071.92226398,-1111351.3070949884 L 13710332.46091505,-1103549.3268274409 L 13710408.49212726,-1086648.726774871 L 13708930.057970034,-1080401.2310520092 L 13708973.583890934,-1074397.2759628007 L 13726628.075894311,-1046275.5952146086 L 13728128.328671733,-1041819.2076789538 L 13727976.15492782,-1036796.0816933244 L 13724953.942072272,-1030518.0419553063 L 13717757.359631471,-1019704.5459132547 L 13713724.143160539,-1015928.2101321965 L 13706864.524818366,-1013247.4696605635 z" /><path fill-rule="evenodd" fill="currentColor"    d="M 13867582.039651154,-1271034.414198144 L 13875344.013785698,-1267065.282760088 L 13884247.346659342,-1268650.6746734194 L 13895020.624339335,-1277659.98785785 L 13907141.758413853,-1274416.4097871373 L 13914262.309642442,-1261140.244509649 L 13917893.328793138,-1256125.0582143662 L 13919871.810103007,-1247448.5488434467 L 13919360.853640266,-1226653.0143596411 L 13916403.985325815,-1207812.5139958882 L 13918697.72343361,-1203933.9686897108 L 13924274.607283372,-1200548.136753916 L 13929133.925695479,-1196371.6841886954 L 13933210.556767818,-1191017.639074669 L 13935830.460983641,-1185061.720346251 L 13936884.990519924,-1170610.3854683433 L 13943885.984615404,-1158430.1683873113 L 13944820.845699087,-1153689.7330003125 L 13943135.802566947,-1148723.3282092565 L 13931460.391733568,-1149695.5791065511 L 13930525.419330396,-1145503.1194141442 L 13930808.059517518,-1140311.4150994455 L 13926666.195223574,-1143575.4990333463 L 13919828.284182105,-1155468.6517831737 L 13913544.85552428,-1160463.6100259514 L 13915479.92223274,-1141172.933499241 L 13917556.253375014,-1131923.5141661149 L 13917893.328793138,-1122632.2480836858 L 13907044.019900935,-1129731.5803051528 L 13894096.56124626,-1134110.0392212984 L 13890530.886636661,-1137892.5551546672 L 13891748.387907466,-1149938.702526467 L 13891509.273641244,-1155932.8010459277 L 13885736.690126667,-1168631.5978875144 L 13892520.277256625,-1196089.6092584804 L 13892357.194202615,-1201704.355675263 L 13891194.016843315,-1207325.5753064787 L 13885845.44926917,-1218471.2721292395 L 13877387.728317171,-1227793.5690569477 L 13872202.24379704,-1227821.2358420338 L 13859591.860560484,-1221272.1002602403 L 13853210.582070254,-1223442.1169644338 L 13849449.207795838,-1249160.408302479 L 13844361.573108112,-1274172.3937808955 L 13840458.82308039,-1280576.806651546 L 13837925.859386882,-1287287.4935645466 L 13840426.20646959,-1292856.7203370451 L 13845263.817580994,-1290560.0905155374 L 13852145.25454336,-1283998.5342728402 L 13860494.216352858,-1280210.7702433884 L 13864646.878637409,-1276933.6633292744 L 13867582.039651154,-1271034.414198144 z" /><path fill-rule="evenodd" fill="currentColor"    d="M 13941603.044498216,-1405844.4166043506 L 13949484.57576587,-1396541.5750094852 L 13951397.823854135,-1389807.0729475347 L 13950582.519903565,-1382356.352343423 L 13954148.194513163,-1379046.112621555 L 13960442.532481087,-1378144.9266938851 L 13968508.85410346,-1374395.7825707926 L 13974564.07780516,-1367499.4209374695 L 13970965.675265267,-1361166.2062503223 L 13972085.438023157,-1351921.7317832676 L 13965758.48344443,-1340307.5160639724 L 13966617.3133159,-1319723.9093716391 L 13970248.221147105,-1313150.7400705714 L 13970596.094555834,-1306517.7949341964 L 13969682.940772858,-1299575.5545230797 L 13971237.517461786,-1293883.014549927 L 13980945.356295394,-1275026.2875308206 L 13982728.137940448,-1268761.5925625972 L 13979760.360315898,-1263817.2018450832 L 13978781.973311318,-1259134.0323911766 L 13984771.963791411,-1258640.8971413218 L 13993305.715955624,-1250800.3050379055 L 13998328.117421744,-1240452.4940402568 L 13996827.975963814,-1237733.0866764206 L 13990011.77222305,-1245808.8186381303 L 13984858.904313719,-1247082.8841136983 L 13963008.112785403,-1244878.2032616471 L 13949614.93088959,-1248246.2633962166 L 13940918.095671365,-1248562.0189137552 L 13932286.493674746,-1262403.8944786272 L 13924720.33052451,-1264709.6454488484 L 13918752.047345117,-1270829.3666602701 L 13908848.508846693,-1286488.7071757151 L 13905695.940867428,-1295491.885018088 L 13912588.175820401,-1304592.0581754094 L 13914740.649494382,-1311851.7777258158 L 13914381.978095043,-1318968.7638649833 L 13907772.383329194,-1317797.3635525152 L 13902054.123726128,-1320168.0676188574 L 13895020.624339335,-1328881.034080309 L 13892205.020458702,-1333913.2672309233 L 13887084.769160172,-1338124.1454433172 L 13878953.214316199,-1348086.827526535 L 13867277.692163326,-1351982.8583067243 L 13862516.223583626,-1354723.0914632329 L 13853232.289370958,-1363101.047003028 L 13846459.611551093,-1373489.1546310156 L 13839882.633396048,-1391699.3088423952 L 13836425.717928952,-1410572.1009734806 L 13866603.652646573,-1405655.1197950575 L 13897140.48140251,-1406607.2038692732 L 13931655.980078893,-1410939.6959554881 L 13941603.044498216,-1405844.4166043506 z" /><path fill-rule="evenodd" fill="currentColor"    d="M 13436751.787910156,-1514566.7358544895 L 13442426.410272835,-1513594.1920036764 L 13460233.187339617,-1517037.3999861118 L 13467516.82162222,-1515310.1324874451 L 13472408.756645134,-1508754.3078984723 L 13478485.687647535,-1506697.8587361686 L 13483290.682148138,-1503323.0013946376 L 13492226.631632587,-1509167.8136482623 L 13501314.86618044,-1502507.2707591578 L 13509381.18780281,-1490078.96673621 L 13518882.417661507,-1481267.9435836805 L 13527851.095076248,-1474725.654571985 L 13529623.078730697,-1469886.9401335549 L 13524176.661324143,-1461969.329172755 L 13522513.436812202,-1451917.8936797408 L 13523057.009885745,-1441128.4374456324 L 13529840.485696215,-1418425.472848837 L 13527459.695746621,-1412270.7408868638 L 13520643.603325348,-1403572.707223241 L 13515555.968637623,-1393892.137324858 L 13516208.18953418,-1389985.2128952364 L 13514197.09161351,-1386790.936900884 L 13513555.668707559,-1379936.2739576166 L 13509381.18780281,-1381360.4960035763 L 13505543.670996692,-1380281.1573488482 L 13501814.913333084,-1377215.9702156764 L 13496009.824527195,-1370619.3145141846 L 13486965.11590024,-1372615.9288327391 L 13482681.875852987,-1374562.6670598083 L 13481638.255626803,-1380281.1573488482 L 13478942.208879279,-1384309.3070346792 L 13475061.277471755,-1386701.933332888 L 13465483.905081356,-1396569.3906888627 L 13460994.16737868,-1403990.2726142397 L 13460918.024846977,-1411914.3069001697 L 13458461.203685168,-1419300.0508742973 L 13453493.126130557,-1425896.3979026442 L 13446948.764586313,-1430956.1501046799 L 13444763.67430153,-1435816.108113152 L 13443915.753740156,-1441563.3263601642 L 13443350.47336591,-1456284.9441928419 L 13434066.539153242,-1474658.6699406928 L 13430848.737952368,-1479062.849860008 L 13422141.104743538,-1483607.2228687613 L 13414922.703682542,-1489459.0816156596 L 13411846.166915487,-1495289.7511386834 L 13409041.472344948,-1504725.4417171436 L 13407106.405636491,-1506088.8158349006 L 13401475.197875222,-1505658.5343521752 L 13396017.982478064,-1506882.3366242368 L 13397605.064458301,-1513817.7504023223 L 13403008.067263445,-1518865.4139563893 L 13410476.380581276,-1519480.3511657992 L 13431066.14491789,-1516640.489715593 L 13436751.787910156,-1514566.7358544895 z" /><path fill-rule="evenodd" fill="currentColor"    d="M 14026918.970159125,-1042210.3143876608 L 14036007.20470698,-1035419.2355355137 L 14047780.465372767,-1037220.187476353 L 14047628.291628852,-1020100.8471986812 L 14049530.741726508,-1015102.4374463328 L 14060162.643653193,-1000617.2274014587 L 14061825.868165135,-988524.4261887976 L 14055531.530197212,-977171.9584664924 L 14050770.06161751,-971804.8770401148 L 14042018.90248778,-964035.8907137173 L 14041790.586212162,-960473.4693959943 L 14045519.343875773,-956466.2274435107 L 14057684.003871191,-954130.1654509979 L 14066924.412162958,-947892.1328650505 L 14068533.312763393,-930210.6861829367 L 14077317.088503929,-916270.5258544794 L 14077088.8835478,-910191.5891293329 L 14073599.240150413,-885307.8640983509 L 14074719.002908302,-874673.3902474219 L 14081295.981063351,-866153.3063985468 L 14086861.955603015,-862538.4379473206 L 14089720.974085057,-857196.00970595 L 14092308.261690076,-842543.1396762675 L 14091851.740458334,-817662.0267550288 L 14090992.910586864,-808976.6489717076 L 14087111.979179336,-800906.2595995188 L 14075132.109538637,-782567.8013495241 L 14058988.556983797,-767985.8604119439 L 14050400.480908077,-768960.4810563695 L 14047639.200938951,-764646.249201538 L 14052998.5665037,-751344.582557826 L 14050878.709440526,-723273.7327390878 L 14047334.74213163,-703813.0406301784 L 14042116.641000696,-713657.489172376 L 14038474.935178882,-723973.9621062652 L 14035170.082136214,-751284.3887758626 L 14031049.925142974,-763595.1305828005 L 14024581.70613043,-774851.9799031189 L 14021983.509215314,-784906.2453148382 L 14015254.357316352,-794305.1624277551 L 14006709.695842043,-818577.3155661315 L 14001056.78078007,-817327.7905772448 L 13991664.198744385,-810691.6768781607 L 13989544.34168121,-806121.9516586664 L 13988435.48823342,-799197.0595037922 L 13986261.307258734,-792968.6214917295 L 13975292.44123342,-783044.2526295384 L 13966671.637227407,-771216.2380235009 L 13959572.904619012,-758279.6449459406 L 13957311.671802526,-746418.776428323 L 13963127.669918513,-737137.7716062636 L 13969106.75108851,-733395.0799876171 L 13977781.87900603,-725089.9776250882 L 13980445.30914275,-721298.908585314 L 13989598.665592717,-694331.1713544825 L 13989294.31810489,-666752.6844270579 L 13982597.782816729,-654610.1087204795 L 13965682.340912726,-631571.9117388021 L 13953506.771607213,-624269.3946994828 L 13946984.228683162,-627994.2101113539 L 13941766.127552226,-641940.0129805892 L 13940896.388370661,-647687.4081044962 L 13944429.446369456,-660812.2654747657 L 13944820.845699087,-672852.1858347887 L 13940711.598015945,-676924.3457942492 L 13936200.153012564,-676137.2513538754 L 13934308.500905514,-674399.0974662516 L 13923415.777411902,-658648.2668111774 L 13918871.71579772,-654664.7190209111 L 13912175.069190068,-654112.910991776 L 13906848.32023612,-655189.3384425056 L 13874452.567303427,-668938.7950453474 L 13848014.188240021,-682543.9014208778 L 13827304.866770297,-695255.2355286079 L 13812313.693584148,-714428.6197977162 L 13809150.216294784,-728782.8123781688 L 13808976.335250165,-743797.4501281199 L 13802268.890651908,-765817.8083264676 L 13801486.091992646,-773296.9301029305 L 13801975.341154685,-780475.7515818106 L 13808639.259832043,-793981.9617975214 L 13816705.581454415,-800824.1305204952 L 13821227.93576789,-805727.5358007825 L 13824848.04560849,-811173.8881793446 L 13827315.776080392,-818445.7733349025 L 13826620.029262936,-825663.9369777434 L 13823923.982515413,-830186.052792069 L 13811183.13283565,-846036.001084312 L 13800105.50766783,-855780.9433472123 L 13777428.502878841,-864540.5850839491 L 13772156.0778364,-869346.1065429156 L 13766416.110932626,-872983.5200687927 L 13760078.358363293,-874541.8076354861 L 13753881.870227776,-874596.6430428122 L 13747185.223620124,-871875.288658741 L 13745445.856576482,-866082.0781171384 L 13745913.398437813,-860903.8219430243 L 13745326.299443368,-855863.276192048 L 13735814.160274575,-826908.170769945 L 13723692.914880568,-833261.2790646775 L 13712137.061180297,-840596.7061929922 L 13709071.433723344,-845734.3635198551 L 13707745.17331003,-851881.6961050602 L 13705788.287981376,-856033.333840162 L 13703059.735942543,-859801.265821366 L 13697743.784979202,-850132.21458889 L 13691134.190213352,-842488.341128621 L 13683046.161290273,-840717.4155919447 L 13674816.756613892,-840580.3121953867 L 13672120.709866367,-843859.1094459302 L 13669120.315631017,-862275.1161660911 L 13660456.097023595,-868078.8700037509 L 13649574.17152059,-866844.5858185318 L 13636409.305900395,-856691.442421406 L 13633789.401684575,-852896.2381259254 L 13630919.473892435,-844155.2328307565 L 13616569.723612238,-819355.4645359422 L 13608970.832531705,-800254.3917200803 L 13600589.254111407,-781653.1571711734 L 13596838.677827604,-775536.3867883912 L 13591903.328203281,-771506.4422844817 L 13584054.41354643,-773176.3811719234 L 13576999.095539443,-777617.2491593368 L 13570313.35824189,-789616.4275570721 L 13572585.38904898,-803563.4086127576 L 13579988.580464695,-812456.1415575846 L 13586228.594521115,-821975.1984902243 L 13593762.25238004,-855248.9844807053 L 13594327.532754287,-867096.922741764 L 13595653.7931676,-872166.0802949183 L 13608068.476739336,-887294.5756794935 L 13618504.679001205,-896658.4290817078 L 13624027.238939459,-898623.5964433152 L 13646595.484585945,-903954.3715300115 L 13655890.21678922,-908429.0053763681 L 13670522.71857603,-908494.9014227468 L 13682404.738384325,-911053.6767265907 L 13691884.260942318,-918258.5925117588 L 13692601.715060478,-925728.2450307409 L 13692166.90112944,-933506.8831256687 L 13694254.141581813,-938264.7929352636 L 13697928.575333918,-942270.4580112378 L 13702972.684100743,-947545.9270881249 L 13708680.034393713,-951508.4383750835 L 13724899.618160767,-954371.9608792829 L 13730280.802345712,-957631.4917654633 L 13734618.366304474,-962721.9450668914 L 13740673.478686681,-972596.6744827378 L 13747837.555836175,-970144.3016159745 L 13755045.047587074,-966306.5115545876 L 13768003.304232357,-963282.6469865576 L 13779504.83402112,-955075.5167747722 L 13786831.994224621,-942133.0511598912 L 13788093.021416329,-935759.3573169375 L 13789973.652893791,-914694.3969045967 L 13787299.424766464,-909779.7811346946 L 13776134.859076334,-900012.5307047914 L 13781287.726985663,-898985.947476909 L 13795952.734063787,-907901.9529213061 L 13803268.984957194,-911339.2061215794 L 13821358.402211102,-916116.7794201198 L 13825619.823638158,-919274.5922066666 L 13828750.684316717,-923981.5840338646 L 13835142.87211705,-936874.6668978225 L 13839817.400174439,-950656.4761771268 L 13843459.217315743,-956394.7433200004 L 13848688.227756774,-960946.3250953123 L 13853852.004976204,-961677.4603939492 L 13872832.75739289,-952255.8467546585 L 13885008.326698406,-956795.9565428125 L 13888411.029573485,-971073.5671604298 L 13891204.814833924,-991836.061862767 L 13893357.288507901,-997458.8118524336 L 13900347.373293282,-1002895.3636750886 L 13908685.537112175,-1001139.8971799224 L 13920100.126378624,-993684.537187632 L 13930634.1784729,-991230.925554992 L 13934547.72649123,-997238.7414976615 L 13938276.48415484,-1009080.9500991118 L 13942527.10759129,-1009014.8988265509 L 13956746.391428277,-1005096.5368743711 L 13970454.718802525,-1007683.0755776268 L 13974313.942909347,-1021906.6324707464 L 13971726.655304328,-1037126.567989703 L 13961018.722165436,-1081514.9811030047 L 13967400.000655666,-1091408.163154051 L 13972922.44927443,-1091672.9264975206 L 13986456.89560406,-1079855.377843031 L 14012525.693958027,-1063896.8530077196 L 14021211.731185647,-1054137.5003699283 L 14026918.970159125,-1042210.3143876608 z" /><path fill-rule="evenodd" fill="currentColor"    d="M 13733520.422166778,-1056727.2279079752 L 13729226.27280943,-1053718.7410591946 L 13727476.107775178,-1061168.839579257 L 13728704.518356081,-1071227.553963449 L 13737238.270520292,-1106374.1813229427 L 13735292.294501733,-1115170.1228119845 L 13749555.104259623,-1134756.0934992903 L 13758295.465398747,-1153148.3356440105 L 13771492.947629744,-1172473.1352756522 L 13773167.081451785,-1182496.1022938078 L 13784864.31090536,-1201615.8675765295 L 13795811.46962997,-1228003.9052294698 L 13795224.370635528,-1236747.3493187425 L 13798061.793136356,-1241083.8594061476 L 13799616.369825285,-1247697.8112977543 L 13799964.243234014,-1253310.175744765 L 13807943.513014585,-1263141.0178366937 L 13810063.37007776,-1256751.1626554201 L 13807682.580128167,-1244207.8542143723 L 13808052.272157092,-1238187.2320860876 L 13809465.47309271,-1235368.432118666 L 13809552.413615018,-1223691.1999770615 L 13806682.485822879,-1205792.9593444283 L 13809324.208658895,-1185144.7301322795 L 13804171.229430072,-1164143.9959821005 L 13798289.998092482,-1154695.2717095122 L 13789582.364883652,-1148032.9035628303 L 13780091.93301556,-1143857.1529746118 L 13770275.335039448,-1133397.7305135482 L 13763915.763849922,-1121175.0843597583 L 13762872.143623732,-1110043.5362310845 L 13747239.658851124,-1072495.4790060269 L 13733520.422166778,-1056727.2279079752 z" /><path fill-rule="evenodd" fill="currentColor"    d="M 13572259.334260447,-2142545.637208712 L 13565193.106943361,-2134096.314617506 L 13561518.673191255,-2136428.0542729525 L 13565475.747130487,-2144642.677492071 L 13565367.09930747,-2147492.784320147 L 13568606.607809046,-2153941.4429514026 L 13574672.629501354,-2156166.1541505316 L 13579629.90906536,-2149831.75992397 L 13572259.334260447,-2142545.637208712 z" /><path fill-rule="evenodd" fill="currentColor"    d="M 13527644.486101339,-2197597.894429114 L 13528796.86547003,-2186907.761775653 L 13522208.978004882,-2187143.8539032475 L 13512283.732205752,-2193646.012798919 L 13511359.66911268,-2196929.5947323893 L 13511511.954176085,-2199689.430795875 L 13513251.32121973,-2202011.5682638264 L 13527644.486101339,-2197597.894429114 z" /><path fill-rule="evenodd" fill="currentColor"    d="M 13576531.664997602,-2316423.8736259937 L 13574444.424545228,-2314980.263725167 L 13571411.302379584,-2315658.596611182 L 13574433.51523513,-2326857.3926767684 L 13579999.489774793,-2329932.3327198713 L 13584445.701556569,-2328719.7137949998 L 13576531.664997602,-2316423.8736259937 z" /><path fill-rule="evenodd" fill="currentColor"    d="M 13567410.813838944,-2365889.6262027854 L 13562007.922353292,-2356177.3987760227 L 13557670.358394535,-2356282.001832854 L 13558322.57929109,-2361692.556598749 L 13564040.83889416,-2372960.572802216 L 13566171.493947942,-2372716.2735094717 L 13567410.813838944,-2365889.6262027854 z" /><path fill-rule="evenodd" fill="currentColor"    d="M 13487399.92983128,-677607.6743419042 L 13493465.951523585,-669534.6135802332 L 13501108.368525017,-671633.4008301808 L 13513240.411909632,-669376.1161033604 L 13515816.790204553,-665167.8002461231 L 13515414.592884315,-662408.0056235058 L 13502434.628938327,-654588.2869949501 L 13493944.291375527,-662730.4490842437 L 13478898.794277871,-657167.4440892033 L 13471723.919137772,-660517.1397672901 L 13461939.937772458,-657522.5383973176 L 13455895.623380857,-663839.81969837 L 13458330.737241961,-669917.2031138632 L 13473854.574191554,-679887.0968273892 L 13487399.92983128,-677607.6743419042 z" /><path fill-rule="evenodd" fill="currentColor"    d="M 13033272.957696045,-880357.9781922956 L 13027532.990792273,-871831.4678187363 L 13020988.629248029,-881653.0815782933 L 13021684.376065487,-895335.4738884142 L 13023662.968694847,-899145.1444985463 L 13032957.700898118,-901236.793248671 L 13033272.957696045,-880357.9781922956 z" /><path fill-rule="evenodd" fill="currentColor"    d="M 13349011.54637875,-1173866.045446067 L 13335314.01699511,-1170389.1940279615 L 13332117.923094945,-1181296.2515954315 L 13341869.287849454,-1191321.8728307544 L 13352794.62795387,-1187317.890526544 L 13359273.756276509,-1183391.8275484755 L 13356240.745430356,-1179836.6927893246 L 13349011.54637875,-1173866.045446067 z" /><path fill-rule="evenodd" fill="currentColor"    d="M 13369470.844272153,-1364796.980965876 L 13375558.684584657,-1363056.6371969583 L 13379907.046534024,-1364724.668675161 L 13383744.56334014,-1370736.0619507334 L 13387342.854560543,-1361844.5023624683 L 13396344.037266597,-1354522.961416248 L 13393354.552341344,-1347119.8682902658 L 13385440.404462887,-1346252.9770319816 L 13377667.632337736,-1347942.3962947575 L 13369481.753582256,-1344997.126438438 L 13359512.981862227,-1346647.5534846052 L 13353555.607992932,-1353589.152401976 L 13346772.132182462,-1366059.2283824934 L 13343412.955228284,-1368366.9178323748 L 13343826.061858619,-1373489.1546310156 L 13346293.792330524,-1376737.604169677 L 13344989.239217918,-1377577.5694269731 L 13345619.752813771,-1379852.8736151825 L 13346837.365404068,-1381399.4636716223 L 13349033.253679456,-1382044.8303303693 L 13354316.588031994,-1376498.3670456617 L 13366970.497189447,-1368222.3902309 L 13369470.844272153,-1364796.980965876 z" /><path fill-rule="evenodd" fill="currentColor"    d="M 13362654.751850884,-1311962.731978616 L 13354316.588031994,-1308105.141331998 L 13352207.640278919,-1310530.7018838658 L 13350740.004112298,-1316170.6429686097 L 13350859.6725649,-1320051.5124245065 L 13342858.584164137,-1340468.638083003 L 13348989.839078045,-1343585.764194259 L 13353501.284081424,-1341185.3909548821 L 13358099.780926604,-1337985.222355751 L 13362339.383733466,-1336290.7751101914 L 13366209.517150383,-1329841.8479283187 L 13365285.454057312,-1325382.2256625518 L 13366481.359346902,-1321078.6913628376 L 13362654.751850884,-1311962.731978616 z" /><path fill-rule="evenodd" fill="currentColor"    d="M 13653281.221883496,-1172362.5335145486 L 13650204.685116444,-1170814.824649789 L 13647454.314457413,-1171041.4524194605 L 13640909.952913169,-1166956.9429574234 L 13638496.54635277,-1174606.7873700913 L 13640812.10308076,-1187633.0774766693 L 13650639.499047482,-1197538.8646055295 L 13653161.664750386,-1200653.2768525076 L 13655846.802187812,-1202500.9854607766 L 13659042.896087972,-1202705.7260489047 L 13662151.938146338,-1198827.64640326 L 13663043.384628613,-1192958.959234021 L 13656814.279882293,-1175253.5766771936 L 13653281.221883496,-1172362.5335145486 z" /><path fill-rule="evenodd" fill="currentColor"    d="M 13869723.715334525,-1094844.3579604982 L 13868658.276488144,-1090696.6773716798 L 13859907.117358413,-1091038.6948947825 L 13856776.256679852,-1090404.3610258014 L 13848525.144702764,-1079811.3395517007 L 13843676.624281265,-1077115.2768974928 L 13817249.154527958,-1073625.4816010122 L 13796452.892535923,-1076409.591952316 L 13789332.34130733,-1082253.8480120967 L 13784690.318541251,-1091899.0611695368 L 13783266.208295532,-1098253.3018553664 L 13788462.602125762,-1105193.479032852 L 13793474.205601275,-1109806.2167114466 L 13810269.979052674,-1118912.017035381 L 13814063.969937889,-1125822.9496911443 L 13822858.654988524,-1134176.3064676637 L 13840991.48684384,-1136970.3841315727 L 13842752.561188187,-1134872.006784435 L 13845165.967748588,-1133541.3445737145 L 13848796.875579791,-1133182.4235705456 L 13857754.643684434,-1126292.2571977344 L 13867864.67983828,-1121909.1982339546 L 13865407.85867647,-1105237.5470634147 L 13868430.071532018,-1099632.3991460411 L 13869723.715334525,-1094844.3579604982 z" /><path fill-rule="evenodd" fill="currentColor"    d="M 13386212.293812046,-585983.771175267 L 13383190.0809565,-579237.3688303864 L 13379667.932267802,-576115.566022841 L 13375036.81881182,-577878.3745108544 L 13371514.558803631,-581376.9605970784 L 13369536.077493763,-576191.9076526252 L 13359817.329350054,-574194.4218889523 L 13353675.165126044,-566194.0861728092 L 13344706.599030795,-564033.1582245679 L 13338466.584974375,-565075.393323256 L 13339118.917190425,-572186.0390496041 L 13356414.737794466,-582834.2811418751 L 13367209.722775163,-586769.7685308973 L 13376732.659934564,-594461.2977382339 L 13381494.239833757,-595318.38754 L 13383875.029783351,-589056.936160606 L 13386212.293812046,-585983.771175267 z" /><path fill-rule="evenodd" fill="currentColor"    d="M 13591316.229208836,-717103.3497854511 L 13580021.1970755,-715560.9147017315 L 13576433.815165196,-715703.0692589321 L 13567606.51350376,-727103.2533962271 L 13566780.300243093,-732164.0439461676 L 13559681.456315205,-737876.5008831688 L 13562279.653230319,-743518.2663041693 L 13571509.15221199,-744881.0240731372 L 13587467.914412117,-752110.8541044551 L 13613047.463604048,-740700.0572142224 L 13616993.628233178,-736590.5669315731 L 13609003.44914251,-734073.5845334115 L 13603350.534080535,-723219.0591955472 L 13591316.229208836,-717103.3497854511 z" /><path fill-rule="evenodd" fill="currentColor"    d="M 14032865.43471832,-1092472.6496166796 L 14031463.031773306,-1091860.4306747583 L 14025277.452947889,-1100641.871428629 L 14026103.666208554,-1110644.9785140897 L 14034474.335318757,-1125585.6413503154 L 14040670.823454272,-1112510.1672510642 L 14040605.590232667,-1106583.7940834207 L 14039703.345759789,-1103654.1815926938 L 14045465.019964267,-1096283.9934087817 L 14041497.03671494,-1092649.087995808 L 14032865.43471832,-1092472.6496166796 z" /><path fill-rule="evenodd" fill="currentColor"    d="M 13991772.846567402,-1109221.2870946387 L 13989805.27456763,-1106059.7079017088 L 13987141.84443091,-1112570.8575352556 L 13980673.514098875,-1118685.717976378 L 13974433.61136195,-1129074.6477823493 L 13970019.904871486,-1132310.0138190237 L 13973042.117727032,-1140543.390786295 L 13973335.555904767,-1153916.251115579 L 13979521.246049676,-1160021.5820198478 L 13982380.264531717,-1161822.9995253396 L 13987065.701899208,-1168299.9431054418 L 13989163.851661678,-1168675.8564923566 L 13991142.332971547,-1163232.1254423836 L 13986924.43746539,-1146640.894984585 L 13993229.573423924,-1127004.31369514 L 13991120.625670845,-1114728.6484593328 L 13992022.870143723,-1111996.9597281646 L 13991772.846567402,-1109221.2870946387 z" /><path fill-rule="evenodd" fill="currentColor"    d="M 13388538.648530645,-1545628.590445732 L 13388712.640894756,-1537868.1460324368 L 13369938.274813997,-1549260.5267954248 L 13369405.611050552,-1553223.2220680409 L 13369851.33429169,-1556156.4766012998 L 13371775.49169005,-1557936.809688145 L 13381874.729853285,-1553648.6420695127 L 13388538.648530645,-1545628.590445732 z" /><path fill-rule="evenodd" fill="currentColor"    d="M 13571498.354221383,-1521532.1503894313 L 13578368.770554164,-1521196.6614936218 L 13580499.536927437,-1522270.1259998938 L 13593729.635769237,-1512699.9766599892 L 13592925.129809275,-1507854.642524411 L 13594599.263631314,-1501479.3174639433 L 13587065.717091879,-1490441.8689978276 L 13585695.930757666,-1486728.4347985904 L 13581521.449852921,-1483160.4818830579 L 13567160.790262623,-1491938.5906910514 L 13561964.396432392,-1497300.619074994 L 13560388.112442762,-1508268.1347308625 L 13566084.553425634,-1524489.8986049928 L 13571498.354221383,-1521532.1503894313 z" /><path fill-rule="evenodd" fill="currentColor"    d="M 13591446.695652047,-1386123.2456822763 L 13582532.453468302,-1357730.437131169 L 13576542.462988209,-1367499.4209374695 L 13578966.778858704,-1373639.2891444622 L 13573813.910949375,-1378773.5893154566 L 13572433.215305064,-1383435.7659174444 L 13574411.807934424,-1389601.124894845 L 13579803.790109979,-1395289.2125258534 L 13581151.869143488,-1413902.5225908083 L 13592533.841799136,-1419845.962414378 L 13597121.429334218,-1420074.3698190528 L 13595479.800803486,-1415506.6758027512 L 13595632.085866895,-1406946.9236901673 L 13591446.695652047,-1386123.2456822763 z" /><path fill-rule="evenodd" fill="currentColor"    d="M 13653835.592947647,-1380898.6988206643 L 13648139.151964774,-1378228.436210154 L 13636561.47964431,-1389406.3474457306 L 13629832.327745348,-1394626.8019001295 L 13628060.3440909,-1397543.5259549052 L 13633506.761497451,-1401746.5268231474 L 13648171.768575575,-1401707.6464650687 L 13655966.35932092,-1394031.3175321862 L 13657042.59615791,-1389250.5491990189 L 13653835.592947647,-1380898.6988206643 z" /><path fill-rule="evenodd" fill="currentColor"    d="M 13723671.207579862,-1442990.5481595274 L 13733172.54875805,-1425573.2319161578 L 13722823.287018491,-1437471.589239376 L 13710821.598757593,-1445555.2730503764 L 13698330.772654153,-1458984.7593543103 L 13689340.387938708,-1463698.8852611536 L 13686622.63389048,-1466438.3749140946 L 13687568.515603751,-1471979.758543767 L 13694199.817670306,-1473006.623441145 L 13697145.88799415,-1472688.5244839648 L 13715257.012548761,-1448928.782656153 L 13723671.207579862,-1442990.5481595274 z" /><path fill-rule="evenodd" fill="currentColor"    d="M 13778613.498858336,-1397409.9153343877 L 13779026.60548867,-1387419.7814658163 L 13774841.215273825,-1391098.1843421538 L 13761382.800156407,-1410705.7713425246 L 13757664.951802894,-1417868.4079353109 L 13761480.649988813,-1422614.6958790503 L 13771188.488822425,-1415300.5480778476 L 13778613.498858336,-1397409.9153343877 z" /><path fill-rule="evenodd" fill="currentColor"    d="M 13772069.137314089,-1378428.7232832944 L 13793408.97237967,-1364958.2323026014 L 13808106.596068598,-1341929.925861072 L 13809813.34650144,-1324271.5426055007 L 13808682.785752943,-1317547.4432039664 L 13801692.70096756,-1325104.4943195968 L 13786668.911170611,-1335874.1462443194 L 13776232.70890874,-1338251.918827245 L 13773025.705698477,-1340196.3469137647 L 13774232.408978676,-1346008.517444779 L 13767416.316557406,-1351399.2586692425 L 13766611.810597442,-1353600.3083082405 L 13760426.23177202,-1355979.3416596074 L 13751414.139755871,-1368094.4912836268 L 13745032.749946145,-1370374.5450153276 L 13738923.313652432,-1367821.9533040149 L 13724877.910860062,-1349848.624723967 L 13709865.030373208,-1337246.3577387552 L 13709647.512088198,-1342063.2908862873 L 13715735.3524007,-1357841.6699922464 L 13719605.48581762,-1383062.9291202202 L 13722040.599678723,-1390747.590989657 L 13718996.679522472,-1402058.3696729506 L 13718616.18950294,-1412187.1353413945 L 13729813.371803872,-1407498.1927453228 L 13743836.955976043,-1402804.411493318 L 13754523.181814237,-1396374.5674842482 L 13756284.367478076,-1392055.4985169254 L 13772069.137314089,-1378428.7232832944 z" /><path fill-rule="evenodd" fill="currentColor"    d="M 13842980.877463803,-1532056.351989134 L 13840024.009149352,-1524629.7211431635 L 13836403.899308758,-1527257.8545203498 L 13831251.031399427,-1526838.4630103724 L 13823141.295175646,-1520525.810590869 L 13809965.520245355,-1529002.6019354393 L 13807943.513014585,-1535596.9846886788 L 13817390.418961775,-1550189.6499160284 L 13817292.680448856,-1571886.1937459346 L 13820727.888615249,-1577219.3643695484 L 13824347.887136353,-1581046.1225447496 L 13828652.83448431,-1583119.5222322862 L 13837936.76869698,-1568133.6000785336 L 13841100.245986342,-1566313.4730210647 L 13850058.014090987,-1559426.0153564427 L 13847731.5480529,-1545561.4325076938 L 13848590.377924368,-1537465.3171483143 L 13842980.877463803,-1532056.351989134 z" /><path fill-rule="evenodd" fill="currentColor"    d="M 13600502.313589098,-1579819.0527965138 L 13600154.440180369,-1575135.301067168 L 13576107.64905717,-1592126.434168932 L 13575009.704919476,-1595047.1418759655 L 13574966.178998575,-1597760.792361444 L 13576433.815165196,-1600474.726197111 L 13600502.313589098,-1579819.0527965138 z" /><path fill-rule="evenodd" fill="currentColor"    d="M 13584706.634442987,-1689779.7206563998 L 13586717.73236366,-1685728.3552031484 L 13584510.934778173,-1685930.9307225535 L 13582902.034177737,-1685199.4542575865 L 13577673.135056198,-1676868.2791953348 L 13583391.283339772,-1661490.1211620271 L 13579825.497410683,-1650295.5597319934 L 13573520.361452153,-1649593.3179399576 L 13571030.923679544,-1650795.6442212139 L 13572313.658171954,-1656324.9672439278 L 13573694.242496772,-1658865.2248657474 L 13572411.508004362,-1666161.5819088104 L 13568650.133729946,-1670749.6191049225 L 13565649.739494596,-1679658.082354144 L 13560975.100117713,-1685002.5308514743 L 13563149.392411888,-1693595.4539998076 L 13577825.308800109,-1694546.6556877175 L 13584706.634442987,-1689779.7206563998 z" /><path fill-rule="evenodd" fill="currentColor"    d="M 13838817.305869155,-1187456.1737762017 L 13835729.971111495,-1186941.8897216378 L 13840871.929710723,-1198860.8408770994 L 13844926.853482362,-1197123.895311719 L 13846176.971363971,-1195818.5249683857 L 13846068.323540958,-1190464.565730519 L 13838817.305869155,-1187456.1737762017 z" /><path fill-rule="evenodd" fill="currentColor"    d="M 13946190.632033298,-1116875.4886941386 L 13946962.410062969,-1111285.081154121 L 13932634.367083475,-1126005.0868675043 L 13929742.73199063,-1136418.1558645281 L 13934515.109880425,-1135970.883158553 L 13940646.36479434,-1131967.727346929 L 13946190.632033298,-1116875.4886941386 z" /><path fill-rule="evenodd" fill="currentColor"    d="M 13685296.37347717,-827089.0160873056 L 13686513.986067466,-824463.5122300514 L 13686024.73690543,-821690.2087575904 L 13674436.26659436,-816478.4052558946 L 13670555.335186834,-816631.8277804339 L 13669652.979394462,-825318.5340601115 L 13672501.199885901,-829259.6605610333 L 13677958.415283058,-825762.4956778688 L 13682817.845014658,-829813.2260990738 L 13685296.37347717,-827089.0160873056 z" /><path fill-rule="evenodd" fill="currentColor"    d="M 14002274.282050874,-777003.916097614 L 14000534.915007232,-770613.9683305252 L 13993697.115285253,-785667.5044209491 L 13990968.451926928,-789391.8563901221 L 13994468.893314924,-801996.5019855625 L 14002143.815607667,-795838.9627594037 L 14002274.282050874,-777003.916097614 z" /><path fill-rule="evenodd" fill="currentColor"    d="M 13871343.413925568,-1287969.749248106 L 13857439.386886507,-1287248.644277699 L 13851351.657893494,-1292462.8220963373 L 13843731.059512261,-1307711.0536816884 L 13852308.226277882,-1311019.1785883857 L 13860494.216352858,-1310119.87349394 L 13866505.802814167,-1304730.7191217826 L 13872887.19262389,-1294487.8085136479 L 13871343.413925568,-1287969.749248106 z" /><path fill-rule="evenodd" fill="currentColor"    d="M 13893411.7237389,-1022099.3250156717 L 13890215.629838735,-1015388.6658215792 L 13877735.601725899,-1020937.6589308318 L 13874757.026110744,-1025760.6593248885 L 13876344.108090984,-1031481.7215617399 L 13882442.746394096,-1033420.2036499475 L 13885638.84029426,-1033436.6701002344 L 13891585.304853454,-1027451.0005699558 L 13893411.7237389,-1022099.3250156717 z" /><path fill-rule="evenodd" fill="currentColor"    d="M 13497738.28226074,-2164642.1774291205 L 13497118.677974986,-2156723.9021174293 L 13491487.470213717,-2160904.0445364327 L 13490237.24101262,-2166879.6520191696 L 13490802.52138687,-2171297.869810739 L 13493389.920311376,-2176563.103811551 L 13496901.271009468,-2171781.224783443 L 13497738.28226074,-2164642.1774291205 z" /><path fill-rule="evenodd" fill="currentColor"    d="M 13342912.90807564,-1291736.162474422 L 13345304.496015845,-1285723.3358235096 L 13342184.54464738,-1276711.771946669 L 13339488.497899858,-1274737.9823193864 L 13335922.823290259,-1278491.7153896112 L 13328280.406288829,-1281125.8122813716 L 13327791.268446283,-1285978.4575773496 L 13331780.958996313,-1285862.0282081442 L 13339053.683968822,-1290610.0772369634 L 13342912.90807564,-1291736.162474422 z" /><path fill-rule="evenodd" fill="currentColor"    d="M 13776569.673007373,-1264249.5719415625 L 13783092.327250915,-1249204.6582332489 L 13774308.551510377,-1249287.8255714804 L 13771068.931689313,-1260242.4505059274 L 13774830.305963727,-1263778.3807622413 L 13776569.673007373,-1264249.5719415625 z" /><path fill-rule="evenodd" fill="currentColor"    d="M 13615580.427297559,-1405950.2408938566 L 13612123.400510974,-1402470.326545975 L 13610025.36206799,-1403015.9245700284 L 13608568.635211471,-1409157.6503362588 L 13611927.700846156,-1413262.049398045 L 13612982.23038244,-1412844.3520851498 L 13615580.427297559,-1405950.2408938566 z" /><path fill-rule="evenodd" fill="currentColor"    d="M 14022972.805529995,-1072975.0683987285 L 14020961.59628983,-1070086.5588846714 L 14017580.71203495,-1076128.3377989763 L 14020526.782358795,-1089422.723308179 L 14022668.346722675,-1091667.3917498603 L 14025473.152612703,-1083251.9001590165 L 14022972.805529995,-1072975.0683987285 z" /><path fill-rule="evenodd" fill="currentColor"    d="M 13898727.67470224,-1299625.4417609286 L 13896673.05086067,-1293777.6909057891 L 13893411.7237389,-1295397.5775150221 L 13890563.503247462,-1298033.066177324 L 13886399.82033332,-1306872.9944078773 L 13884975.710087603,-1313328.3198754785 L 13891378.807198033,-1309664.7173642267 L 13895064.038940746,-1303243.4416985519 L 13898727.67470224,-1299625.4417609286 z" /><path fill-rule="evenodd" fill="currentColor"    d="M 13063929.232265605,-917599.492942226 L 13056330.452504566,-914941.5982741166 L 13054688.93529333,-921971.3273018196 L 13055645.503677718,-928886.7414205252 L 13061070.21378356,-928156.1587393223 L 13063755.351220986,-925991.9319197696 L 13063929.232265605,-917599.492942226 z" /><path fill-rule="evenodd" fill="currentColor"    d="M 13769960.078241521,-1032775.8745546553 L 13770916.757945398,-1021075.3252620788 L 13760697.962649047,-1017667.6301425355 L 13752490.376592861,-1020645.866497068 L 13747228.749541026,-1027676.7606979854 L 13747239.658851124,-1030319.7828535932 L 13751870.660987616,-1030099.5337118113 L 13761991.606451558,-1036267.4221501715 L 13765198.60966182,-1037451.5300735509 L 13769960.078241521,-1032775.8745546553 z" /></g></g>
</svg>
