<?xml version="1.0" encoding="UTF-8"?>
<svg xmlns="http://www.w3.org/2000/svg" viewBox="6773051.742032339 -4444219.345649773 1803962.8498454737 1720835.6282774298">
  <g id="map"><path fill-rule="evenodd" fill="currentColor"    d="M 8545651.6611807,-4254173.708264691 L 8550761.003169129,-4241864.110700036 L 8558490.36069287,-4223255.544558887 L 8563556.1767604,-4211087.257531439 L 8569252.61774327,-4197421.447249871 L 8572100.838234708,-4190594.807970113 L 8577014.591877813,-4178827.795619719 L 8575014.291947749,-4172358.0354770734 L 8571698.640914472,-4162792.9420956257 L 8559544.778909663,-4155556.687796999 L 8547434.442825753,-4150326.3011798086 L 8544608.040954512,-4147291.369525691 L 8543662.159241242,-4143184.2695199326 L 8537791.837213749,-4134961.1802316336 L 8526453.390479,-4128040.5490176408 L 8517049.89913322,-4128721.798810371 L 8511125.14187473,-4130785.8500425327 L 8479479.57099049,-4118817.4798701787 L 8464847.180523168,-4119114.8448481783 L 8453410.772636522,-4111351.966112821 L 8444931.344383817,-4104280.8408808834 L 8427907.36597629,-4096554.5412236215 L 8416373.108257238,-4096508.343695721 L 8399338.220539615,-4101099.981106669 L 8378357.168192862,-4109839.6057100277 L 8369834.214019257,-4114932.157165325 L 8362148.382416417,-4114634.767750256 L 8343602.332611276,-4115857.1183919148 L 8325447.793455254,-4120172.266588124 L 8303781.792281649,-4125322.3294049823 L 8293073.747823264,-4127524.5932216584 L 8271081.691861127,-4132042.892731674 L 8256786.265492436,-4126016.6865006047 L 8243860.514138466,-4120568.8931409777 L 8233326.462044189,-4116887.844512389 L 8224629.626825964,-4100064.0813371167 L 8220955.304393351,-4094154.0066032563 L 8216726.388257606,-4085657.0387052046 L 8214769.6142484415,-4079701.9067450934 L 8216487.273991381,-4072571.616919244 L 8229249.830971848,-4067517.97045062 L 8234565.78193519,-4060618.8708065767 L 8235359.378585055,-4054519.1690570707 L 8230771.791049974,-4048258.377091433 L 8226945.183553956,-4043314.098359574 L 8226967.00217415,-4038969.0711655826 L 8228999.807395527,-4034586.204666655 L 8232065.434852483,-4031326.5519397776 L 8250176.670726585,-4029300.333651859 L 8260906.311166186,-4029260.989259418 L 8265080.792070934,-4027484.3218239895 L 8265570.04123297,-4021566.06204692 L 8261645.583904544,-4013581.5669151503 L 8246371.770531272,-4007160.1335713966 L 8237751.07784475,-4000395.6499041887 L 8235022.414486425,-3991439.063388848 L 8235141.971619535,-3984285.3726730724 L 8238088.04194338,-3979551.42770005 L 8245404.292836786,-3974108.058314537 L 8252253.001868862,-3967878.1321698455 L 8254340.242321236,-3962792.316316176 L 8253514.029060567,-3955904.008934393 L 8250752.749091441,-3946402.631141097 L 8243251.819162808,-3935361.1320664072 L 8237000.895796292,-3927494.6681214906 L 8236511.757953749,-3924700.306598431 L 8238066.334642676,-3920477.764115906 L 8243110.4434095,-3914354.4835721883 L 8251698.630804711,-3905321.5151473177 L 8262363.038022707,-3898000.3521203725 L 8269211.858374272,-3895984.5066673746 L 8271440.363260462,-3894215.2029517503 L 8273571.129633737,-3885748.277367571 L 8274375.524274209,-3876847.334585877 L 8271646.972235375,-3870171.180969727 L 8277115.096942631,-3864642.9795576544 L 8291453.9379127305,-3864946.812296272 L 8303129.460065602,-3862594.067251297 L 8308043.213708709,-3864933.83801485 L 8311478.421875097,-3863182.176393265 L 8309260.714979514,-3843349.701402816 L 8310869.72689944,-3831624.656733224 L 8313978.768957806,-3828305.393385355 L 8325458.591445861,-3823556.735333058 L 8347548.608559898,-3824136.5750198276 L 8360550.391126079,-3818616.9093413414 L 8374976.172618488,-3812256.760201715 L 8382651.206230722,-3805243.861192042 L 8386086.414397111,-3800015.8911467777 L 8385108.02739253,-3791603.159659586 L 8377248.31474507,-3781745.511831424 L 8364409.615232899,-3777073.159694332 L 8356919.371975385,-3775045.583011164 L 8319957.850127802,-3756595.3797282823 L 8308412.794418141,-3748846.761612225 L 8299487.6429243,-3739516.6461279606 L 8296193.810511218,-3732520.538985955 L 8294410.917546674,-3725688.114487131 L 8302412.005947439,-3700979.474808958 L 8303759.973661455,-3693336.3590673823 L 8297193.904816504,-3666740.647995492 L 8295269.747418142,-3656875.846213492 L 8297726.568579949,-3649990.360647169 L 8305586.3925469015,-3647412.5124296034 L 8307303.940970351,-3641680.861920555 L 8308086.628310117,-3637252.262023263 L 8294389.210245968,-3627512.3724015905 L 8279985.024734772,-3618913.8664536714 L 8275419.144500395,-3618932.935933153 L 8261645.583904544,-3602784.8163254787 L 8238642.413007531,-3570526.0423437236 L 8226434.227091215,-3559633.9317807346 L 8225575.508539236,-3554301.622852201 L 8224586.212224556,-3548895.9737178218 L 8229249.830971848,-3539803.782857858 L 8230228.2179764295,-3532126.928762862 L 8225010.116845496,-3524392.0207625595 L 8216400.333469072,-3515555.926014553 L 8199571.943406871,-3507818.4939395557 L 8178362.46346501,-3499910.090728676 L 8168806.909694807,-3495117.1476852554 L 8161642.832545314,-3474404.098401351 L 8155022.328469366,-3453605.57429175 L 8152054.550844817,-3445917.955703427 L 8140607.344967564,-3422046.428800015 L 8120615.477615999,-3386955.440292246 L 8115560.459539076,-3379307.0479793386 L 8084643.252083098,-3362433.9951440026 L 8053062.914420462,-3344106.710163431 L 8047507.737871406,-3337170.9169065575 L 8041039.518858863,-3320499.861859587 L 8034951.678546361,-3302255.0442361822 L 8029309.672794485,-3292709.676509095 L 8009219.955610515,-3271345.0775166675 L 8002632.068145368,-3254958.854724426 L 8000566.6463131895,-3244246.719733206 L 7983466.414054472,-3238272.54089406 L 7964126.878918956,-3232577.63590853 L 7935981.749422711,-3230739.2491952465 L 7924251.903358334,-3227764.1056062784 L 7889758.000663168,-3213020.312683187 L 7881191.631888152,-3212412.472543441 L 7874451.570679092,-3214850.1571260146 L 7869353.13800076,-3219880.31288296 L 7864624.174712369,-3228231.2579493932 L 7862395.669826181,-3241090.0780904503 L 7855731.639829331,-3246930.1071311343 L 7846752.164423983,-3251892.158129235 L 7837305.258476794,-3252132.262682182 L 7827814.826608703,-3246659.33689539 L 7819563.714631615,-3240671.751051112 L 7813954.214171051,-3235726.1337557575 L 7808453.472852993,-3229952.3442604076 L 7797908.62276811,-3210540.081748425 L 7780819.299819488,-3182771.5820050486 L 7761729.788260296,-3162593.4709081305 L 7754663.5609432105,-3156556.822713473 L 7750239.056462142,-3151995.8435888644 L 7744270.884602242,-3145303.8246446704 L 7740824.767125755,-3138841.017417715 L 7736095.803837364,-3117744.564408266 L 7733367.251798531,-3099060.658939459 L 7734617.36968014,-3094889.743354422 L 7737476.499481674,-3091359.1364207556 L 7747901.792433446,-3085930.923023059 L 7762969.108151297,-3076953.4703695322 L 7782504.3429516265,-3071859.009753628 L 7798973.950295,-3070941.234371841 L 7805126.912509618,-3067118.7807853054 L 7808801.346261721,-3061942.7448769384 L 7809823.259187203,-3057588.44878506 L 7808975.3386258315,-3042191.6836927393 L 7807127.2124396805,-3025708.6374000655 L 7801017.664826476,-3007997.8418667596 L 7801115.514658882,-2997847.2832690976 L 7803518.011909181,-2987945.6231720764 L 7821824.836128608,-2962780.2009216794 L 7828564.897337668,-2960210.5185625064 L 7842295.043332111,-2959667.7566748513 L 7848676.321822344,-2960156.290883012 L 7855764.256440134,-2962707.802397189 L 7860808.476526449,-2960970.5917848204 L 7864548.143500159,-2957888.5422156816 L 7865526.530504742,-2952805.6565104173 L 7864950.340820394,-2927778.4303154484 L 7870570.639271566,-2916462.3766223886 L 7881474.272075277,-2901051.023732864 L 7890073.257461093,-2883483.2661878336 L 7898215.721615167,-2862436.234052743 L 7905988.4937403165,-2846008.5780703607 L 7909010.706595864,-2837439.473361736 L 7903944.779208842,-2833294.2740314608 L 7901053.032796506,-2828988.8078954765 L 7900324.669368246,-2823250.0279922434 L 7901379.198904531,-2817202.7289561685 L 7900705.159387777,-2812913.641778751 L 7904379.59313988,-2807646.6208286947 L 7908728.0664087385,-2805891.2657053503 L 7908586.690655432,-2802238.1362490333 L 7901770.598234158,-2797463.9156503635 L 7895682.757921656,-2797625.097772739 L 7891019.027854872,-2795351.8396551735 L 7881985.228538017,-2785362.0870636827 L 7877778.131022467,-2783341.02798801 L 7872103.508659789,-2782434.915085142 L 7865776.554081064,-2783424.5366068427 L 7856851.40258722,-2787448.98795746 L 7854242.296362008,-2793806.7915438097 L 7855264.209287491,-2800489.3851935393 L 7853231.292746624,-2804464.6060654977 L 7846828.306955687,-2803712.3893458736 L 7824542.590176835,-2796885.189138796 L 7803300.604943663,-2788480.575068453 L 7799615.373200951,-2782750.8643776327 L 7794712.528867944,-2776767.1090771183 L 7784993.780724238,-2774306.3117436483 L 7770676.647054842,-2773555.5567644583 L 7760773.108556419,-2774455.1736845723 L 7751641.4594071545,-2780873.209098825 L 7743292.497597659,-2786721.5325310924 L 7730410.272164589,-2787001.7887239824 L 7707211.512922253,-2786131.240404245 L 7694350.994789886,-2786178.863470853 L 7686784.83163965,-2788337.4408520656 L 7679327.204992936,-2786721.5325310924 L 7669999.856178858,-2789082.9256872404 L 7665847.193894306,-2785916.5720873843 L 7661933.534556488,-2785612.524774423 L 7658780.966577221,-2791116.581518336 L 7656682.816814751,-2791683.2434392464 L 7654215.086342845,-2790889.9958416456 L 7652062.612668866,-2789029.1870495216 L 7650779.878176455,-2785809.23904247 L 7650334.154935318,-2749106.874814649 L 7635027.724951243,-2749338.945453012 L 7624124.092147533,-2749416.181271318 L 7612165.929807537,-2747423.6430293266 L 7601175.356481519,-2744634.489555262 L 7595794.172296571,-2741292.7851067795 L 7588097.431383634,-2736032.030317673 L 7586292.831118383,-2728717.5147579154 L 7582585.780755477,-2723383.7173723434 L 7577269.829792135,-2731289.9317732058 L 7573845.530935844,-2734926.6100094505 L 7569888.456996615,-2732228.745655545 L 7564268.158545443,-2732537.7207212476 L 7554136.303771404,-2741554.450441818 L 7549581.332847124,-2732472.3718081126 L 7532818.1760065295,-2730392.7869325676 L 7530709.22825345,-2737244.527672335 L 7530296.121623117,-2743647.3208608697 L 7521088.32994215,-2739015.907958769 L 7514467.825866202,-2746103.3008305873 L 7511489.138931557,-2755633.57150936 L 7508934.467937341,-2758269.9990911926 L 7506010.216233693,-2761311.6261204216 L 7499063.54604972,-2764574.1911263266 L 7492845.350613499,-2774723.3728048755 L 7492280.070239251,-2785475.4001641064 L 7490540.703195605,-2798287.3185306513 L 7477495.3947085235,-2845817.0987045965 L 7469603.065450263,-2850211.0655412744 L 7425347.000009979,-2858673.5099416994 L 7423031.554601478,-2867008.836332563 L 7426107.980049041,-2889424.9678347344 L 7424857.862167433,-2903568.3960134196 L 7410529.81918794,-2922308.884856106 L 7406518.421337204,-2935357.4683261076 L 7394799.373263433,-2946579.588742269 L 7383178.28634156,-2949846.036653944 L 7371470.1475778865,-2948375.459404218 L 7365154.102309258,-2943934.3754511815 L 7361686.166212575,-2936453.4359574676 L 7386765.668251864,-2938193.8072215747 L 7392407.785323231,-2935441.818081766 L 7399147.84653229,-2930541.079241449 L 7391940.354781389,-2930727.7232662453 L 7383634.807573304,-2933063.4376280163 L 7373209.514621532,-2932888.8473713878 L 7334128.135710774,-2927375.26854044 L 7311429.423621081,-2919445.3969360203 L 7280990.444697549,-2921791.4130588756 L 7242593.903294153,-2914002.923966203 L 7210904.806489012,-2913539.9208072633 L 7197805.174090423,-2898371.943302094 L 7190575.975038816,-2901105.1589641524 L 7184977.383888351,-2904842.3164715106 L 7141373.650664116,-2916756.981504017 L 7138351.437808571,-2921743.3630191777 L 7131057.0055353595,-2925317.2309303083 L 7123034.209833887,-2918940.2196462112 L 7117272.53562941,-2917875.5970481797 L 7093377.918250124,-2923217.337799432 L 7075092.912650893,-2919186.831730148 L 7068309.325520933,-2912331.500988453 L 7067830.985668994,-2901663.8705898602 L 7044936.573914487,-2903724.676786358 L 7032054.459800907,-2907083.87751522 L 7014802.053798275,-2903364.1259677447 L 6975807.615409826,-2908303.936008815 L 6965534.49620197,-2907065.784176759 L 6951315.212364981,-2899993.826494018 L 6945357.838495689,-2894492.265242183 L 6936911.026853785,-2892324.6431109966 L 6929496.926127972,-2900005.7599927303 L 6923920.153597701,-2903388.2444544802 L 6918745.467068176,-2901147.2369381776 L 6911766.291592892,-2894834.5240954226 L 6891557.017275808,-2891880.385008625 L 6873271.900357087,-2892726.982853048 L 6853595.401122941,-2898648.2316904375 L 6855932.665151637,-2900618.5640808023 L 6858998.292608593,-2910930.747910465 L 6861748.663267622,-2947724.5220819023 L 6865227.397354912,-2961030.875560745 L 6864161.958508529,-2968307.13900516 L 6864922.938547593,-2970497.8782744897 L 6872608.770150432,-2976939.489249487 L 6874467.805646679,-2979693.1838954417 L 6877402.966660427,-2998566.9572808463 L 6880653.384472099,-3019566.3937684563 L 6884262.585002598,-3027090.1087434823 L 6887317.303149456,-3029138.299912286 L 6911722.876991482,-3038552.750959952 L 6915832.124674626,-3044854.673951092 L 6928453.305901785,-3043368.38250161 L 6929594.775960379,-3044884.9902816033 L 6930714.538718269,-3052124.4748715153 L 6936574.062755155,-3060005.2931395946 L 6944673.000988329,-3066444.3291359534 L 6950706.406069833,-3068735.105729065 L 6972655.047430561,-3072795.0197800943 L 6985472.039642027,-3078461.440719751 L 6989374.678350257,-3079051.272593321 L 7023477.181715795,-3077610.1133441506 L 7030695.582776793,-3079781.123762836 L 7031836.941515897,-3081751.659940053 L 7033848.150756059,-3103196.375733594 L 7040022.931590871,-3106583.687912353 L 7041001.318595454,-3108393.465596322 L 7038892.259522884,-3123239.9932794017 L 7040077.255502379,-3133180.945383826 L 7047099.956898564,-3139042.637877199 L 7046697.759578328,-3142408.077477937 L 7041653.539492011,-3149471.4563478297 L 7034957.004203851,-3153982.652235645 L 7031695.677082081,-3155052.6088934587 L 7003713.630639847,-3150785.542794287 L 6992157.6656200895,-3152166.9816896264 L 6986743.864824339,-3154765.2338782456 L 6985602.394765745,-3156697.4597342154 L 6986689.540912832,-3161027.471071899 L 6986885.2405776465,-3168112.5842226394 L 6990961.871649988,-3179120.649401247 L 6992201.191540989,-3185706.375162753 L 6988896.338498319,-3223849.264065052 L 6984156.577219322,-3249232.376287784 L 6986689.540912832,-3274471.7634250214 L 6986189.493760189,-3279715.3498624368 L 6985232.814056312,-3280893.8708518427 L 6981688.846747418,-3280881.486115143 L 6964653.959029796,-3278654.06149071 L 6950108.509084783,-3294927.031949783 L 6941107.2150592385,-3301365.118064981 L 6916342.969817876,-3309475.871848616 L 6905482.862935066,-3311021.9077627175 L 6889545.919355137,-3318055.481101375 L 6874870.002966915,-3333416.249270137 L 6859846.213169964,-3349148.2835308784 L 6853801.898778363,-3359224.4823868615 L 6847105.363490202,-3376416.7233175095 L 6828102.792453317,-3409416.7513390905 L 6828276.673497937,-3417943.2429712247 L 6825928.5001591435,-3423156.576444059 L 6807425.976274902,-3444905.7907490805 L 6794293.838585001,-3460359.601943362 L 6773051.742032339,-3485398.79051975 L 6815470.59059657,-3471379.8458752064 L 6848540.271726528,-3460647.3366358196 L 6901917.188325466,-3443331.398249834 L 6943379.35718582,-3429900.9948915793 L 6954859.068354385,-3427723.216832982 L 7076310.413921699,-3439184.005168217 L 7121218.70025854,-3430500.040564322 L 7135437.984095528,-3425626.806624896 L 7137579.6597789,-3428478.196468655 L 7143613.0648604045,-3434370.0281112245 L 7154070.97442298,-3440326.957642101 L 7168279.460269359,-3445111.9281618935 L 7182455.32950494,-3447692.5706032645 L 7202762.453654428,-3448030.0655026603 L 7216546.923560378,-3447648.800579215 L 7226743.900236533,-3446192.8278278643 L 7246398.803489465,-3447048.9614097048 L 7255856.618746754,-3449373.7332637534 L 7288197.936448451,-3458839.557229529 L 7309929.17084366,-3465214.5441552764 L 7342814.0616189,-3475161.8118563932 L 7366795.619520497,-3482434.6985633853 L 7372829.024602001,-3486301.437845453 L 7379025.512737516,-3493273.2974452027 L 7381971.583061361,-3499508.5219803536 L 7374601.0082564475,-3509143.3608653564 L 7373633.530561964,-3517648.140344156 L 7378460.232363268,-3528441.25393146 L 7381091.045889187,-3544896.9352366994 L 7380590.998736544,-3568368.3382688854 L 7379025.512737516,-3581932.7999968287 L 7385700.340724973,-3607163.160800896 L 7391298.9318754375,-3621352.792092273 L 7402452.588255471,-3628146.2711575334 L 7410181.945779211,-3632305.2589754425 L 7413410.656290178,-3635343.0295851245 L 7416574.133579541,-3638730.407992114 L 7428499.679308734,-3658038.5499381297 L 7439403.312112445,-3667039.5233988157 L 7449980.778808131,-3672502.996699265 L 7461493.21790699,-3671803.2373280306 L 7471309.815883103,-3664337.2767450646 L 7490388.529451692,-3661069.903605905 L 7508814.910804229,-3663256.5183093427 L 7524795.380305056,-3668864.7094122237 L 7532046.286657369,-3673463.6511038393 L 7540547.533530269,-3677497.969868938 L 7540058.284368233,-3682100.2803432643 L 7530437.386056932,-3686105.617933044 L 7524925.846748268,-3691762.3759174645 L 7522773.373074288,-3698703.207216222 L 7528176.2645599395,-3702918.136692304 L 7540764.940495788,-3704148.9629648672 L 7571638.733350358,-3721114.1979195196 L 7584216.499976109,-3732277.5329856663 L 7587651.7081424985,-3737476.2538602385 L 7593543.8487901855,-3738051.8150433786 L 7605328.018766071,-3732852.978041638 L 7619069.074070611,-3731126.8557699146 L 7627689.766757132,-3736318.6649800665 L 7636256.135532147,-3737476.2538602385 L 7644670.330563247,-3731810.9122832767 L 7649170.97757602,-3725049.2849472384 L 7656813.283257959,-3716988.8149397513 L 7666455.888869963,-3715392.6858914983 L 7678087.996421426,-3719728.233165077 L 7690296.071018252,-3729030.413944308 L 7701852.036038011,-3742075.613634261 L 7712136.064555964,-3755019.599911273 L 7709603.100862455,-3796101.252243057 L 7707918.057730316,-3820355.6586645897 L 7713320.949215969,-3833158.938488981 L 7721061.216049807,-3841052.7815554817 L 7726170.558038237,-3853265.0167756667 L 7726083.617515927,-3864054.797524034 L 7731486.509001578,-3873133.5206456804 L 7736878.602496623,-3897967.9577862555 L 7744249.065982047,-3903823.2300911075 L 7759381.614921501,-3907884.1486865496 L 7783471.820646112,-3910245.994774269 L 7802409.15846139,-3921627.5095649725 L 7821433.54811847,-3933728.871130163 L 7823999.128422783,-3944391.3231335646 L 7816824.253282685,-3955812.745817842 L 7807301.204803792,-3977991.257091583 L 7798669.602807173,-3991249.550318863 L 7777677.52983083,-4015067.9920756905 L 7780080.02708113,-4029778.9227262186 L 7791777.367854197,-4035760.563619908 L 7820596.425547705,-4025576.78011591 L 7828619.332568666,-4023584.330847289 L 7838642.428200202,-4022149.1345200855 L 7865167.747785914,-4022398.207462758 L 7886812.041658813,-4026369.8835093663 L 7909423.813226198,-4035478.416224845 L 7913848.317707266,-4044961.997198776 L 7913598.294130945,-4056234.378700231 L 7913967.874840379,-4065551.02747167 L 7914337.455549812,-4078516.516852777 L 7906238.5173166385,-4086843.1786365123 L 7901335.67298363,-4094285.818106059 L 7899857.238826405,-4100242.1747173197 L 7905499.355897772,-4103521.866972942 L 7910989.187905732,-4109601.8555362015 L 7916294.229558976,-4120694.517036991 L 7928817.672273219,-4133961.8591847857 L 7936427.472663847,-4145919.997372196 L 7943547.912572949,-4151605.50031308 L 7954342.897553644,-4159389.7367326343 L 7961246.041816717,-4170830.7276539323 L 7964409.519106081,-4177671.728345454 L 7970660.331153104,-4184377.399114816 L 7972758.480915575,-4188779.0954809855 L 7971062.52847334,-4192696.9387881868 L 7967942.577104878,-4197634.362053203 L 7964409.519106081,-4203206.637043321 L 7964409.519106081,-4208615.260395498 L 7967355.589429925,-4214333.013270874 L 7970540.774019994,-4219453.584493145 L 7969073.137853373,-4226685.156583692 L 7967355.589429925,-4238443.164053393 L 7961463.448782236,-4245379.76638092 L 7957517.284153105,-4261421.500297536 L 7951277.2700966885,-4277768.302151129 L 7947939.911762707,-4284146.275681654 L 7941852.071450205,-4292165.800515476 L 7928198.067987463,-4300715.489797602 L 7924284.519969135,-4306414.43774471 L 7929611.268923085,-4317390.662983476 L 7938482.096505418,-4324202.629084237 L 7955256.051336621,-4341049.1642940305 L 7964452.933707489,-4352715.607404989 L 7972758.480915575,-4360847.06341014 L 7983433.79744367,-4359475.506047086 L 7989695.51880079,-4360205.19205383 L 7995218.078739045,-4367713.571991715 L 8006176.035454263,-4374374.8615604 L 8025646.037032989,-4388177.087385027 L 8032451.331463654,-4397494.786572877 L 8042811.502513311,-4402193.983442518 L 8051399.578589031,-4403258.874358506 L 8062998.958210198,-4406515.188875032 L 8074152.72590972,-4411544.2364798235 L 8084338.904595268,-4415380.37419894 L 8100297.555475901,-4416134.192918569 L 8125627.081091514,-4418443.408103251 L 8139324.610475154,-4420800.852102214 L 8172089.944117282,-4422628.564849541 L 8207790.438773157,-4423478.097657072 L 8211943.2123772,-4423573.298553493 L 8227380.108804486,-4418626.903782817 L 8237848.816357667,-4414477.252866055 L 8241968.973350906,-4414843.832449836 L 8259319.229185946,-4424742.223538663 L 8285627.141806139,-4436833.766711018 L 8297911.358934667,-4442197.171174334 L 8304499.246399813,-4444219.345649773 L 8314696.334395458,-4444089.932767552 L 8322914.829761744,-4440883.285399722 L 8331285.498871945,-4436194.2757236 L 8336634.066446089,-4432479.747593919 L 8343297.985123447,-4434697.357084759 L 8354962.59796622,-4437316.929195147 L 8365127.069351062,-4435377.723119564 L 8387554.050563731,-4427053.449033365 L 8390913.116198419,-4422907.188538185 L 8396185.65256035,-4402682.242033947 L 8400197.050411087,-4400851.144519207 L 8412829.140948342,-4405612.819041672 L 8423232.8379189,-4403204.5576248495 L 8434919.158062378,-4396667.732145721 L 8442496.230522713,-4390392.286530025 L 8447475.217387425,-4383599.141293682 L 8452823.78496157,-4372629.6400665855 L 8454921.823404549,-4363840.386924082 L 8457433.079797354,-4353370.443936588 L 8456791.656891404,-4323879.537910063 L 8452943.34209468,-4319066.443738818 L 8449692.924283007,-4312802.510159602 L 8450519.137543675,-4307362.350731074 L 8454171.752675584,-4303040.347377604 L 8461444.47764809,-4300117.4981902195 L 8468173.629547052,-4298283.550868223 L 8471782.830077551,-4293636.232576604 L 8476740.109641558,-4277118.023525139 L 8480077.46797554,-4274584.147009659 L 8488295.963341827,-4274637.682221501 L 8503221.903306369,-4278237.636305043 L 8516169.361961044,-4283877.956313203 L 8521648.3959784,-4285092.246969646 L 8523007.273002513,-4269431.034756678 L 8530616.962073652,-4263450.141977653 L 8541270.57130104,-4256495.367897485 L 8545651.6611807,-4254173.708264691 z" /></g>
</svg>
