<?xml version="1.0" encoding="UTF-8"?>
<svg xmlns="http://www.w3.org/2000/svg" viewBox="1572790.0047752252 -7330524.050576817 1110651.1462486186 1052140.742519361">
  <g id="map"><path fill-rule="evenodd" fill="currentColor"    d="M 2627726.9703962095,-6713424.2088138275 L 2633695.2535755998,-6701099.778783658 L 2636010.8103035907,-6691450.412688685 L 2633553.877822292,-6683883.57489985 L 2634314.8578613554,-6676323.91982657 L 2639630.808824697,-6668328.073683737 L 2656470.1081969957,-6643651.199264862 L 2664775.5440855906,-6619972.295723956 L 2670080.585738835,-6610763.236226808 L 2682332.297576052,-6598816.168830336 L 2683441.151023844,-6593916.567025557 L 2678527.397380738,-6589432.717533288 L 2674559.525450903,-6588839.107922602 L 2671341.6129305414,-6587643.38503354 L 2669265.2817882653,-6583455.408608557 L 2672483.0829891358,-6578977.253271429 L 2676820.6469478956,-6572406.484228165 L 2682212.74044294,-6553830.2460698895 L 2681679.9653600035,-6538655.641731332 L 2677527.303075451,-6534800.00210481 L 2672222.150102716,-6525805.018794317 L 2668623.8588823145,-6517596.034104747 L 2639576.48491319,-6511883.457314235 L 2632597.1981184147,-6503109.151124937 L 2616692.8711492894,-6486174.59345595 L 2605832.764266479,-6476451.422302533 L 2589787.061544046,-6458902.0963235665 L 2564392.30270683,-6428815.201513833 L 2555032.33728195,-6416259.788175158 L 2548183.6282498757,-6405894.163079078 L 2527637.27851467,-6378354.054057934 L 2521321.2332460415,-6366820.6542024845 L 2522571.462447141,-6357335.741171075 L 2529170.147902894,-6335110.009915249 L 2530561.6415378097,-6325094.10458838 L 2529398.4641785105,-6315847.800869098 L 2527213.3738937294,-6307626.288532909 L 2527582.954603163,-6303959.003031065 L 2533648.9762954703,-6298008.466792524 L 2543324.1985182767,-6288659.080921242 L 2543878.680901918,-6285514.451709797 L 2542508.894567707,-6281467.206536256 L 2539171.5362337246,-6278383.308057456 L 2527093.816760618,-6281641.265422829 L 2513591.875722301,-6287970.275328947 L 2508993.4901966127,-6287206.9275394725 L 2501688.1486133044,-6288667.408793887 L 2471575.3357977974,-6300900.235447547 L 2451268.211648307,-6310487.790967146 L 2449267.9117182423,-6316722.027949306 L 2445430.5062316167,-6325760.857507742 L 2436798.904234997,-6333341.077332231 L 2416980.917928052,-6339917.843755758 L 2408914.596305681,-6345054.1957263965 L 2376725.452347898,-6347928.632326063 L 2362756.1920872317,-6348045.533553232 L 2352863.562898906,-6345923.079830762 L 2346547.517630277,-6346132.0155477505 L 2337839.7731019547,-6332723.781496765 L 2331838.9846312525,-6328837.208515258 L 2323066.006881325,-6328428.56851864 L 2315391.084588583,-6330813.578163897 L 2307542.169931731,-6337864.113473681 L 2294975.2012965875,-6341587.767192529 L 2285897.8760588313,-6339792.506006701 L 2279212.250080769,-6341329.005661129 L 2273439.6665661936,-6341696.370738407 L 2271439.47795562,-6340285.147135576 L 2266797.4551895405,-6340485.563385307 L 2260068.3032905776,-6337112.811579262 L 2252719.435786369,-6332348.266373179 L 2244609.699562588,-6328720.40341419 L 2238369.685506171,-6320927.839502966 L 2232803.7109665074,-6305680.21797392 L 2217051.557741296,-6312509.964758581 L 2211800.839999559,-6309547.763027497 L 2204375.9412831385,-6307559.686183199 L 2199299.215905511,-6309614.381094007 L 2200495.0098756123,-6314865.405486036 L 2202788.7479834077,-6320794.595381475 L 2202680.100160394,-6329087.388641454 L 2201223.373303873,-6338248.081171206 L 2196342.2362715695,-6341228.786878626 L 2189004.2780774585,-6342331.088200849 L 2185231.9944929467,-6344143.657842204 L 2184829.7971727108,-6347176.429829774 L 2181090.1301990016,-6351071.496753837 L 2174600.2038857536,-6360950.960197906 L 2168468.9489718415,-6373230.754586091 L 2164229.2348454893,-6376894.743401317 L 2158065.2520012837,-6371043.222016093 L 2148727.1051965994,-6364391.955598683 L 2142921.9050712213,-6362089.4580664765 L 2131703.015469584,-6343007.591428779 L 2111548.065064008,-6342364.441697633 L 2110308.856492497,-6351272.170576265 L 2108188.999429321,-6359837.812659754 L 2096393.920143338,-6361980.590346796 L 2096067.7540353136,-6367013.299328254 L 2093578.3162627034,-6379645.934808774 L 2069944.6317698378,-6404438.311680037 L 2067074.7039776961,-6414802.301394805 L 2067998.6557512805,-6418804.745365282 L 2066357.138540043,-6425406.853746988 L 2061215.1799408107,-6429389.155992239 L 2042538.775011951,-6434133.181487642 L 2037733.6691918594,-6431406.173611243 L 2033396.2165525903,-6434209.098160592 L 2026601.7201125317,-6440172.706251109 L 2014795.842835942,-6445024.345984194 L 2013512.9970240402,-6447535.8381996555 L 2009262.484907081,-6451808.085100439 L 2006903.40225819,-6452383.452756847 L 2005381.442180064,-6449785.948716784 L 2001946.2340136748,-6446115.129315654 L 1989814.1906290604,-6441474.185412987 L 1984965.6702075594,-6443384.370474168 L 1980562.8730271948,-6447417.537569405 L 1975540.4715610743,-6456116.1633777395 L 1968246.0392878638,-6463747.662929321 L 1962234.341507064,-6466459.768544271 L 1958809.9313312809,-6470470.272728231 L 1958038.0419821204,-6473591.8385386085 L 1971387.6979570312,-6479863.878660442 L 1974301.1516700727,-6486336.081571943 L 1972594.4012372305,-6498155.345234803 L 1970605.0106172638,-6499644.592396085 L 1965310.8782741174,-6495645.580123085 L 1954168.0198846923,-6492132.940890672 L 1943894.900676835,-6490517.594946175 L 1938654.980925705,-6490517.594946175 L 1909346.6740701608,-6512053.825928276 L 1890289.7791217694,-6518653.594436402 L 1879081.68751074,-6520564.6730350405 L 1877864.1862399338,-6518372.159090548 L 1882940.911617561,-6506277.0389147755 L 1891692.0707472928,-6491376.334070873 L 1891278.9641169587,-6487406.715893512 L 1880777.6399529756,-6481324.280066328 L 1874820.2660836822,-6478675.296674726 L 1867786.6553774003,-6473515.387945454 L 1861851.1001283028,-6466400.396503554 L 1856709.141529071,-6463171.508683555 L 1852262.818427806,-6463984.904309714 L 1847533.9664589076,-6467417.765536848 L 1835391.0137641954,-6489404.082671181 L 1820127.99838153,-6506277.0389147755 L 1818312.6001256732,-6510059.720310442 L 1813540.2222358747,-6510928.864423717 L 1806800.1610268145,-6514807.440962509 L 1804528.130219724,-6519984.383915326 L 1807909.0144746064,-6525395.180316391 L 1812561.835231293,-6530348.347591317 L 1820812.947208381,-6533406.972730633 L 1823313.2942910888,-6536278.875956262 L 1824780.8191382166,-6540613.914207768 L 1827835.6486045655,-6546218.0734859565 L 1827031.1426446028,-6548238.101181581 L 1821182.5279178144,-6554592.762001674 L 1812529.2186204903,-6560600.60963351 L 1788504.1347979954,-6556092.20787815 L 1781916.3586523402,-6552879.39302784 L 1778198.3989793353,-6557060.455990186 L 1775382.7950987013,-6563173.203723467 L 1769305.8640962967,-6564339.556236312 L 1760989.5188976035,-6569925.404560316 L 1751118.5970099822,-6575377.659855938 L 1741475.9913979783,-6576992.611066268 L 1721440.7094450046,-6584908.516005244 L 1713722.2612313621,-6585338.404624843 L 1709243.432838786,-6588064.96014573 L 1704590.6120820993,-6594054.25846954 L 1700633.5381428709,-6600625.225332957 L 1698578.9143012995,-6613964.086530293 L 1683816.057390768,-6620032.782047971 L 1669096.6150816455,-6623833.348954332 L 1668063.9041655562,-6621898.349637486 L 1668672.5991412143,-6608434.458515413 L 1667889.9118014467,-6601254.095379101 L 1658192.9822779354,-6596809.453356662 L 1648572.0839666356,-6596387.4298867695 L 1649115.6570401792,-6598618.068334415 L 1660606.2775188428,-6622839.873184275 L 1665770.0547382701,-6638136.0963309305 L 1671640.4880852534,-6666121.791166925 L 1664574.260768169,-6688279.94709218 L 1662617.4867590046,-6698666.769087342 L 1659323.5430264317,-6703664.306173939 L 1639146.8853201508,-6714489.941940839 L 1637614.1272514185,-6718256.100376775 L 1640701.4620090788,-6732987.77349006 L 1639168.5926208557,-6739189.512959944 L 1634320.1835188451,-6745737.7659172155 L 1627927.9957185143,-6758788.959401388 L 1625449.355936511,-6769872.907161764 L 1633602.618081192,-6782936.477993375 L 1635613.8273213538,-6792536.320560963 L 1639157.7946302486,-6805707.081754768 L 1641755.9915453633,-6812937.321041173 L 1642245.1293879093,-6814935.999889266 L 1636907.4711238625,-6820076.512876507 L 1635548.594099749,-6827301.841874015 L 1636994.411646172,-6837726.156459014 L 1634157.1004648334,-6845455.502518216 L 1627003.932625439,-6850482.305392774 L 1622362.0211788502,-6857130.164397282 L 1620209.5475048714,-6865421.139468072 L 1621894.5906370096,-6878453.103691901 L 1627427.9485658708,-6896257.91614446 L 1615698.1025014927,-6917711.599998193 L 1586715.850434482,-6942870.888087353 L 1572790.0047752252,-6960504.161522567 L 1573931.4748338195,-6970588.665571057 L 1580030.113136929,-6979729.007849019 L 1591107.7383047494,-6987948.960710631 L 1599500.226035145,-7002548.695273421 L 1604218.2800134362,-7019896.974013544 L 1604370.4537573506,-7023191.503813349 L 1604620.4773336723,-7035610.141588241 L 1591727.3425905048,-7086595.846559069 L 1589629.3041475238,-7099407.464811766 L 1588096.4347593004,-7114883.998006507 L 1587292.0401188282,-7119118.52697393 L 1612752.0321776487,-7108256.6471433975 L 1623427.3487057418,-7102148.172506814 L 1622101.0882924309,-7109009.074328077 L 1619937.7053083547,-7114920.671225007 L 1621361.8155540726,-7123612.691471101 L 1620633.4521258126,-7136742.02222203 L 1597532.542715883,-7143448.603299431 L 1582258.7293426106,-7145716.171044919 L 1580541.0695996701,-7154838.891862953 L 1582008.7057662886,-7160757.267002138 L 1586226.6012724456,-7157275.932871007 L 1601239.59307879,-7155909.577252473 L 1638146.791014864,-7173624.941210029 L 1701894.5653345773,-7196694.997561233 L 1769979.9036130498,-7218399.79670107 L 1785873.321272078,-7220763.38277912 L 1801853.7907729063,-7225343.9254089175 L 1807756.7294112009,-7233487.3499884065 L 1813648.870058889,-7238942.648451568 L 1822921.8949614593,-7253331.312997073 L 1843424.7187757648,-7275746.684609256 L 1879679.5844957908,-7283923.828208317 L 1893214.0308254182,-7294589.341861368 L 1921587.47659728,-7309551.482231534 L 1986270.2233201656,-7326372.089490817 L 2013284.7920679143,-7330070.966843353 L 2039755.787742119,-7330524.050576817 L 2063324.1276938894,-7317245.92856197 L 2088273.1632899686,-7300886.682969778 L 2092762.900992643,-7291029.541449176 L 2079261.0712738177,-7297173.496530044 L 2059584.572039671,-7311858.075412399 L 2052311.7357476738,-7312479.6204560315 L 2069107.5091990724,-7267896.384982905 L 2078293.5935793335,-7252191.212666989 L 2096861.350685179,-7240463.374583432 L 2112428.713555673,-7236517.624486951 L 2160391.7180393725,-7243617.733372543 L 2177426.6057569943,-7252901.435320746 L 2182351.2687101983,-7257603.618154578 L 2186786.571181875,-7255284.8163418565 L 2217964.7115242733,-7252779.902495218 L 2249566.867807104,-7250247.854841082 L 2300389.002092337,-7247548.504094155 L 2353352.7007414512,-7244709.937042354 L 2408305.9013300235,-7241779.129312082 L 2467781.344912581,-7238606.7871211935 L 2530496.408316205,-7236741.4708508905 L 2534323.0158122233,-7238019.1598905735 L 2540726.001603162,-7245475.507028001 L 2548542.299649211,-7244467.12700326 L 2557761.000640275,-7239847.520467029 L 2562076.745978839,-7236405.7036988335 L 2563903.1648642845,-7232499.21670109 L 2565044.6349228784,-7227979.748673924 L 2570088.7436897033,-7227076.243408714 L 2579307.4446807667,-7223639.828524172 L 2591776.452164012,-7215804.330215451 L 2601549.524219226,-7208218.12955528 L 2610844.256422501,-7197372.283624742 L 2613931.7024996527,-7185132.92695946 L 2614116.49285437,-7171284.559224752 L 2613518.595869319,-7162383.096612135 L 2614301.2832090864,-7158762.422891554 L 2627020.425588144,-7094615.617055031 L 2648208.0869098096,-7033273.888285256 L 2655991.768345057,-7003762.033979617 L 2659100.810403422,-6988093.5154838795 L 2661579.4501854256,-6965423.193477158 L 2662351.339534586,-6949541.695638416 L 2662253.4897021786,-6940615.523231289 L 2660677.205712546,-6928361.422024168 L 2654382.867744622,-6921125.611107623 L 2613736.0028348383,-6900476.00239983 L 2606093.6971528986,-6894006.650690338 L 2594113.716192708,-6877953.773056589 L 2583068.8189551807,-6861452.584316937 L 2580524.9459515726,-6855823.203203178 L 2579840.1084442125,-6852117.050638505 L 2582275.2223053155,-6846716.41054226 L 2596766.23701933,-6837903.454605361 L 2611376.920185947,-6830837.070423191 L 2616138.5000851387,-6825548.048561679 L 2626911.666445639,-6818784.417894929 L 2630847.033084163,-6812716.201700631 L 2632977.688137946,-6807430.15290471 L 2632825.5143940323,-6795244.618226889 L 2627966.195981924,-6778418.159197336 L 2629999.1125227907,-6765722.3045767415 L 2625063.65157898,-6757278.177039762 L 2620997.8184972466,-6747904.263416075 L 2620421.6288129007,-6731508.134543328 L 2627726.9703962095,-6713424.2088138275 z" /></g>
</svg>
