<?xml version="1.0" encoding="UTF-8"?>
<svg xmlns="http://www.w3.org/2000/svg" viewBox="-7562719.036511566 -2098758.9097828222 294127.0227400996 67381.86501127807">
  <g id="map"><g><path fill-rule="evenodd" fill="currentColor"    d="M -7361490.577867252,-2089692.2158744917 L -7358049.803726321,-2087377.4275632957 L -7354701.536082242,-2087709.7212912214 L -7357403.037484813,-2092517.2114989692 L -7354924.397702809,-2092517.2114989692 L -7333590.01729228,-2089566.1846702704 L -7319876.123943493,-2084610.4029504512 L -7305765.599249009,-2082238.9523979607 L -7304879.6074217865,-2065932.9056163146 L -7315739.714304596,-2059409.551250137 L -7322844.012887533,-2052607.9751070018 L -7328621.939737666,-2044259.3099710685 L -7343835.974544382,-2034548.2311122352 L -7362169.960719563,-2031634.1245796196 L -7374361.893990224,-2031377.0447715442 L -7378911.410259454,-2031691.2278561604 L -7383352.16738618,-2033353.9618283869 L -7392565.413722194,-2031765.5325605096 L -7403947.386377842,-2036028.3781867817 L -7413704.094467911,-2034959.7170406873 L -7433070.90287867,-2035976.8808173107 L -7440327.37520552,-2032291.1728287968 L -7447273.934070003,-2031451.2313342227 L -7454090.026491274,-2032136.9430667227 L -7459889.771961602,-2033788.2442249062 L -7474255.886206947,-2033651.0891115572 L -7480321.907899255,-2036868.3886371083 L -7477810.651506449,-2055410.7140705974 L -7477604.1538510285,-2063809.750454371 L -7481131.757194776,-2070746.6010150795 L -7485007.345266744,-2075114.892828357 L -7487801.130527182,-2080268.8010966673 L -7482159.124775308,-2083671.0570586764 L -7477528.011319326,-2088620.741065409 L -7476065.941127246,-2096064.860563312 L -7470989.10443013,-2097893.3326805606 L -7465042.639870933,-2098758.9097828222 L -7437577.0045464905,-2095279.5701743055 L -7368078.354012907,-2093313.7788506194 L -7364126.734728727,-2092712.037201181 L -7361490.577867252,-2089692.2158744917 z" /><path fill-rule="evenodd" fill="currentColor"    d="M -7283142.918371527,-2049914.305065017 L -7291872.370200555,-2049199.542788006 L -7297557.901873331,-2050154.5166878842 L -7299465.806626036,-2053626.1288332434 L -7288882.773955812,-2056875.1413753943 L -7276533.323605679,-2056411.785243255 L -7269461.752953034,-2054455.495305962 L -7268592.013771466,-2053162.8462168884 L -7283142.918371527,-2049914.305065017 z" /><path fill-rule="evenodd" fill="currentColor"    d="M -7555527.7974063195,-2044556.5943877036 L -7556571.417632507,-2044448.0540496819 L -7557609.583203644,-2044562.331703058 L -7558087.923055584,-2044899.6652409395 L -7558805.377173745,-2045963.104156195 L -7561974.309118156,-2047724.187234625 L -7562719.036511566,-2049331.0628001636 L -7562001.4710739115,-2051029.538532762 L -7560702.372616354,-2051704.306471688 L -7554261.315559564,-2051898.8583378703 L -7553603.640007958,-2051733.003048724 L -7552320.794196056,-2050549.0976115807 L -7552288.1775852535,-2049719.889135324 L -7552924.145836157,-2048907.8126247432 L -7554049.363249093,-2046866.520105599 L -7554522.248445983,-2046351.8667494499 L -7554897.283810467,-2045820.13036458 L -7555044.002899332,-2044899.6652409395 L -7555527.7974063195,-2044556.5943877036 z" /></g></g>
</svg>
