<?xml version="1.0" encoding="UTF-8"?>
<svg xmlns="http://www.w3.org/2000/svg" viewBox="3806920.0874745343 -3833668.341205158 152944.63138814876 173837.69822589774">
  <g id="map"><g><path fill-rule="evenodd" fill="currentColor"    d="M 3838000.3779845266,-3708939.9585375786 L 3843207.5698053627,-3703294.3072776417 L 3843370.6528593744,-3701202.6585984365 L 3823846.216049652,-3679948.5049450784 L 3823639.7183942306,-3670849.0961179473 L 3812170.8052162724,-3659830.64297926 L 3808518.0787648717,-3670766.3743692227 L 3806920.0874745343,-3674717.057900413 L 3827977.28235299,-3695739.028597128 L 3838000.3779845266,-3708939.9585375786 z" /><path fill-rule="evenodd" fill="currentColor"    d="M 3957570.9807548877,-3815339.9046961865 L 3959864.718862683,-3794578.1860324265 L 3955712.0565781305,-3776842.1326960777 L 3955342.364549206,-3761330.255593792 L 3958407.9920061626,-3732571.6022888953 L 3951776.6899396074,-3720379.6012081834 L 3947993.608364488,-3705998.8975421307 L 3946341.181843153,-3695152.675165212 L 3941677.4517763685,-3695624.2880321383 L 3926979.828087442,-3687780.754912718 L 3907444.593287112,-3680400.4976657387 L 3885919.9678668147,-3678459.0155359446 L 3882876.0477105635,-3680655.1175778243 L 3882017.217839094,-3684398.8889180203 L 3888300.64649692,-3702631.053199361 L 3890724.962367417,-3711218.138940376 L 3900041.4018713967,-3720494.5752181844 L 3913260.591403098,-3728506.3274060898 L 3918859.1825535633,-3730538.7944126683 L 3918228.6689577107,-3733984.5699778995 L 3910336.228379958,-3739279.9188774955 L 3902106.9350230657,-3742056.3515521064 L 3894290.6369770155,-3739286.3380943523 L 3891855.5231159125,-3740143.530647762 L 3891040.219165343,-3742491.524852201 L 3893768.7712041764,-3745787.0854254034 L 3895040.7077059806,-3751932.7859937176 L 3893823.206435174,-3762208.3096198956 L 3892996.9931745073,-3774750.4762902255 L 3891279.3334315666,-3784454.6983717126 L 3896127.8538530683,-3800260.2694994 L 3897356.264433972,-3807784.857218995 L 3903422.286126279,-3823904.6357500646 L 3917696.005194264,-3833668.341205158 L 3930002.040942989,-3830831.7824102216 L 3936491.967256236,-3830109.977529841 L 3939231.5399246584,-3828202.3165141675 L 3941003.523579106,-3822609.9225554806 L 3950102.5561175672,-3816150.9956795936 L 3957570.9807548877,-3815339.9046961865 z" /></g></g>
</svg>
