<?xml version="1.0" encoding="UTF-8"?>
<svg xmlns="http://www.w3.org/2000/svg" viewBox="-3482403.0663868547 -5181583.870365567 2790830.7298336425 1332870.8835675893">
  <g id="map"><g><path fill-rule="evenodd" fill="currentColor"    d="M -1913678.783373872,-3877876.30090573 L -1898497.3651779578,-3870889.0788373384 L -1884549.8122179962,-3874272.1328447056 L -1867270.3555791008,-3865282.957077375 L -1858285.4255187034,-3863227.4473206 L -1866302.766565126,-3856836.8325771266 L -1874331.016921646,-3848712.9867979772 L -1894464.2600265176,-3850630.4333751444 L -1911488.2384340419,-3858445.441807713 L -1917592.3313922004,-3864397.403700703 L -1919261.1218786822,-3869763.7735370556 L -1913678.783373872,-3877876.30090573 z" /><path fill-rule="evenodd" fill="currentColor"    d="M -977067.6459771997,-5152155.201307284 L -966582.574458872,-5162252.188617998 L -956195.2414534609,-5168882.017564725 L -950455.385869178,-5171371.305724512 L -926463.0299769761,-5178234.688619829 L -920174.0353446101,-5181583.870365567 L -914276.5513613642,-5181026.792364553 L -913287.2550466842,-5177751.035410909 L -909879.2088360483,-5171378.65370156 L -906063.5106501272,-5166964.291092157 L -905025.2337594983,-5163700.711612631 L -914303.7133171175,-5150065.625029239 L -915575.6498189215,-5145391.024022818 L -910732.5840524693,-5136588.492298656 L -909873.7541809992,-5134050.004553391 L -907531.0354972549,-5132853.8980490165 L -901068.2711397606,-5133189.354388508 L -889550.3773858531,-5138821.131691065 L -881744.9886499009,-5143565.633968559 L -879021.779946625,-5141609.188747558 L -856388.189759046,-5144288.450902075 L -851001.6622385411,-5142120.164139747 L -847430.5329738928,-5139726.081167909 L -836298.5838945654,-5136442.516970046 L -824166.4291904605,-5136099.6256540185 L -809131.8414029025,-5140689.412201925 L -802571.1158935102,-5145303.387758529 L -801315.5433568528,-5150409.01796151 L -800983.9225937797,-5154274.724092214 L -799043.5125497623,-5156738.188935566 L -795613.6477189306,-5158156.523056048 L -790270.5347998351,-5155619.632666554 L -782628.2291178952,-5153587.672336305 L -764266.9696674711,-5152783.779815205 L -760668.6784470694,-5155612.296831668 L -754445.0283557989,-5154764.372216674 L -746242.785635169,-5151183.380697342 L -736741.5557764723,-5152352.600431328 L -731963.723231625,-5147969.0265221 L -729979.7872667073,-5142141.991081569 L -729430.7595381149,-5129507.147861438 L -730142.7590012286,-5116750.592764491 L -728272.925514374,-5112048.568108757 L -721869.9397234358,-5110840.60210789 L -711520.6779838759,-5110986.187778041 L -702209.6931349449,-5107530.577051201 L -694980.3827638482,-5101517.437430411 L -692594.2494786944,-5095362.559398148 L -691572.3365532121,-5091135.688995552 L -695116.3038621066,-5088739.879274979 L -700127.7960181291,-5079691.796368735 L -712792.6144856798,-5067870.428304456 L -730914.6483503892,-5057242.706416857 L -744742.6441772388,-5044032.329134 L -754276.4906467381,-5028242.607672198 L -766191.127065833,-5021550.306288563 L -769832.9442071348,-5017953.732578331 L -771273.4184179998,-5013688.577568079 L -763397.341805394,-4994410.424662746 L -760967.6825993401,-4979576.681987704 L -759016.251925734,-4961447.69799533 L -760293.6430825868,-4956319.133267613 L -760945.8639791446,-4936403.318288542 L -762766.8282095409,-4930566.535957209 L -762310.1956583069,-4925846.62030453 L -759396.7419452654,-4920772.414805856 L -758103.0981427567,-4915928.810392023 L -763527.8082486038,-4909740.555408585 L -773496.4686491414,-4902573.353802389 L -780872.4981091038,-4896265.486682539 L -782867.3433841192,-4890374.04486254 L -782334.6796206734,-4886690.144295945 L -769930.7940395421,-4874204.972755188 L -767669.6725425491,-4869114.481430988 L -769349.261019638,-4856807.3351323 L -776496.9742039833,-4836687.825281706 L -783323.9759353532,-4824463.098270964 L -784514.3152504057,-4823247.728789767 L -792336.0679515043,-4819793.437559489 L -829786.8389611221,-4819645.177308732 L -838869.5075344362,-4816884.033341266 L -837592.2276970742,-4814448.49081185 L -828786.6333363445,-4798768.664972309 L -819611.4582661813,-4790420.251450846 L -816578.4474200277,-4788519.160703435 L -813273.7056968479,-4770222.898111461 L -798429.2515995648,-4741057.074564609 L -784019.7227528112,-4737021.490982733 L -779008.119277298,-4729760.062585312 L -779932.1823703729,-4719559.554658981 L -784362.1415064913,-4708363.2966087125 L -793205.6958135813,-4696914.299644513 L -803718.0406071534,-4688851.921588278 L -810577.6589493256,-4680865.541906661 L -811115.7773678203,-4671569.846432987 L -813295.4129975527,-4659814.540215954 L -816616.5186858793,-4650510.22290394 L -817421.024645842,-4644247.2596601965 L -791080.3840953561,-4605027.540706455 L -776431.7409823785,-4606929.345105926 L -774512.9269195748,-4606002.617799941 L -777132.9424548853,-4596670.865187363 L -781780.3085565229,-4585746.166116372 L -787308.2118303353,-4583668.77239061 L -799880.5238010369,-4580322.611184198 L -811767.9982643782,-4566218.046089956 L -821416.0585314311,-4549291.846110158 L -828656.1668931349,-4541110.4162854785 L -835287.580279181,-4521034.935467128 L -834455.9123634644,-4512341.108311316 L -831243.454498152,-4498937.352317996 L -824449.0693775846,-4464148.42949474 L -834184.1814864379,-4462593.208567075 L -872091.473727799,-4439903.1356944535 L -883843.0270928817,-4439862.292282657 L -905780.8704630029,-4449852.15169071 L -944470.8500441314,-4453061.517841406 L -957086.6879357334,-4456033.261861907 L -972833.3865058958,-4449511.428275748 L -985003.5011563613,-4449661.41778001 L -994678.8346986586,-4441339.446289853 L -1001630.8482181892,-4443606.461346138 L -993667.8310832742,-4462279.314202695 L -981187.8029704401,-4499327.6210836675 L -981677.0521324766,-4522009.042476528 L -978703.819852879,-4541749.565912756 L -982133.5733642197,-4561341.825216086 L -988400.7493763902,-4573591.879049743 L -979861.5425571292,-4605428.607012139 L -980829.0202516132,-4621858.256045002 L -988639.9749621052,-4642720.315554793 L -964951.9665577319,-4639542.06685511 L -972262.6514765987,-4647801.817666918 L -979486.5071926465,-4652885.840285264 L -986471.1373229796,-4651718.8039932335 L -992390.4399264212,-4652024.385919758 L -1012561.6429776532,-4643934.943997164 L -1022660.8811408913,-4641512.794787452 L -1025617.7494553424,-4642921.582835828 L -1024514.3506625996,-4655845.783452967 L -1029748.8157586807,-4672620.831154001 L -1021671.5848262117,-4677048.755958975 L -1012262.7501448733,-4678316.24750651 L -1004267.0050796648,-4685478.17330617 L -999320.7461452472,-4693482.169798683 L -1001929.7410509693,-4707790.5259857355 L -994983.1821864875,-4721398.844586584 L -978676.6578971253,-4732875.521358302 L -987123.3582195375,-4731125.18906646 L -996787.7824517373,-4723972.86402672 L -1012007.2719135026,-4698016.7757438505 L -1016991.6021137714,-4684892.702691117 L -1029960.7680691511,-4680614.735315866 L -1041587.309646073,-4678490.259989338 L -1047539.2288603168,-4679862.4952027965 L -1054654.3254338598,-4683192.430924562 L -1055279.3843746642,-4692889.239942407 L -1054725.0133105135,-4700626.898042939 L -1049903.654844766,-4716007.813586754 L -1048001.204747109,-4737742.970932918 L -1041152.4957150343,-4757278.802259563 L -1041641.7448770709,-4762474.004210786 L -1043593.064231186,-4770243.912172048 L -1037456.3546622256,-4777851.00739074 L -1029862.9182367439,-4782881.025333546 L -1018383.0957486874,-4799691.916094127 L -1002326.5950356473,-4839900.272832871 L -983824.0711514066,-4882765.97550534 L -985324.2126093366,-4888027.043646966 L -989254.1245928116,-4892052.813605834 L -987699.5479038835,-4903663.105165782 L -976540.4368688026,-4954350.041339215 L -971996.3752546211,-4960989.17029448 L -966767.3648135887,-4975909.4585450385 L -965582.4801535851,-5000033.812666375 L -963533.1996475719,-5016692.70081572 L -964006.0848444618,-5025076.138111384 L -965653.0567107481,-5035155.9743813155 L -972751.900638635,-5054421.237699132 L -980242.0325766606,-5095297.248760778 L -980818.2222610067,-5108985.435065503 L -974648.8960812434,-5115906.10666216 L -984775.2962002349,-5116918.037669727 L -989362.8837353166,-5125782.62873283 L -988319.2635091298,-5135858.936741141 L -977067.6459771997,-5152155.201307284 z" /><path fill-rule="evenodd" fill="currentColor"    d="M -2786031.18998809,-4433527.335465628 L -2786498.6205299315,-4430963.157361141 L -2792825.575108658,-4431983.293936491 L -2800788.592243573,-4431214.700225319 L -2805071.832290826,-4438623.543178567 L -2801190.7895638095,-4441693.430637156 L -2792216.768813509,-4442455.812835969 L -2787922.73077565,-4439133.967770693 L -2786031.18998809,-4433527.335465628 z" /><path fill-rule="evenodd" fill="currentColor"    d="M -3466167.1186546553,-4780130.138364803 L -3471091.7816078593,-4773217.2684715 L -3479582.0078511713,-4775671.039335269 L -3482403.0663868547,-4778280.114668763 L -3479940.7905699983,-4793082.499319283 L -3473151.86010448,-4796555.8645896325 L -3466335.6563637163,-4790582.213403982 L -3466167.1186546553,-4780130.138364803 z" /><path fill-rule="evenodd" fill="currentColor"    d="M -3014002.375183636,-4670727.768276088 L -3016236.446044366,-4669384.691818871 L -3039337.355454295,-4673233.39717055 L -3045914.333609343,-4678483.413540478 L -3048588.56173667,-4688182.593468099 L -3044702.1756740953,-4691487.543114213 L -3034532.360953694,-4693447.315823457 L -3019764.049388114,-4691613.079520604 L -3010295.3248207285,-4684669.770260295 L -3010300.779475778,-4675781.421837071 L -3014002.375183636,-4670727.768276088 z" /><path fill-rule="evenodd" fill="currentColor"    d="M -3092284.8014577534,-4658215.663964048 L -3097562.6811552444,-4656499.04708268 L -3127224.316074566,-4667464.444809613 L -3137790.984779645,-4672425.963889424 L -3151526.5854291366,-4685052.98298984 L -3112787.5139525677,-4669711.751154879 L -3092284.8014577534,-4658215.663964048 z" /><path fill-rule="evenodd" fill="currentColor"    d="M -3188335.9335328033,-4653858.495837629 L -3199750.522799255,-4653483.28116383 L -3210681.3175587184,-4664313.263033664 L -3194619.36219063,-4670018.013595394 L -3189906.7628673874,-4666539.076166634 L -3186433.4834351465,-4662588.644510434 L -3184384.314248624,-4657520.584480027 L -3188335.9335328033,-4653858.495837629 z" /><path fill-rule="evenodd" fill="currentColor"    d="M -3133339.318342822,-4643574.022994893 L -3124158.6886176104,-4637897.904210246 L -3138068.1703117206,-4636677.02950674 L -3142677.465147507,-4633909.928910803 L -3153950.789980142,-4637918.788482517 L -3167539.5602212762,-4637315.292760292 L -3176073.312385489,-4644976.127976874 L -3178040.995704751,-4652941.47096029 L -3173746.957666891,-4657847.264534103 L -3161712.6527951933,-4657895.947160435 L -3133339.318342822,-4643574.022994893 z" /><path fill-rule="evenodd" fill="currentColor"    d="M -2855230.836369404,-4556977.172300278 L -2848164.6090523195,-4556006.699551584 L -2812665.2687163074,-4558064.745044175 L -2803240.0700698225,-4556550.491424345 L -2804218.457074404,-4546190.352410161 L -2810942.1543183187,-4542058.950367734 L -2831858.084762958,-4539289.455882656 L -2864748.4301932473,-4545984.201029277 L -2875793.3274307745,-4554884.954366988 L -2877369.7227398977,-4561417.5534660015 L -2877152.2044548877,-4564468.436720944 L -2870232.8075461597,-4566879.481437663 L -2855230.836369404,-4556977.172300278 z" /></g></g>
</svg>
