<?xml version="1.0" encoding="UTF-8"?>
<svg xmlns="http://www.w3.org/2000/svg" viewBox="-6974274.857341095 2188664.016664773 936105.6355889812 1004170.8760914048">
  <g id="map"><path fill-rule="evenodd" fill="currentColor"    d="M -6474315.535775945,2292545.977098791 L -6471869.512604744,2301164.2528392863 L -6470401.876438126,2307827.532991936 L -6466716.644695415,2312545.4535893947 L -6463036.756288262,2318830.2220509606 L -6459356.979200599,2322356.12221168 L -6456780.489586189,2328249.778800943 L -6457514.307669498,2334934.570398664 L -6456041.2168478295,2343584.354865577 L -6454198.65663622,2351064.7259710403 L -6452355.985105119,2353028.2856818936 L -6447083.560062678,2354992.0588322207 L -6444441.837226662,2361791.358752477 L -6446344.28732432,2365232.630990087 L -6445610.469241011,2369163.053823913 L -6443708.019143353,2373012.86352706 L -6445452.840842048,2376747.2208251036 L -6444534.232404021,2379609.508514466 L -6440946.850493717,2382169.7872375804 L -6437631.199460439,2391634.0297889104 L -6437266.962086564,2407815.3925621356 L -6440946.850493717,2416488.757108817 L -6443892.92081756,2423603.154307353 L -6444626.627581378,2427954.900220892 L -6442419.829995893,2434268.558070278 L -6446099.718403046,2441787.2796703274 L -6450518.768229067,2450886.3787490306 L -6449415.369436325,2457220.0641519134 L -6448676.096697966,2463158.451276298 L -6448311.970643581,2469496.619668278 L -6447203.11719579,2475439.220997101 L -6448676.096697966,2481770.153418147 L -6450149.187519634,2487330.6929472764 L -6450888.3489385005,2493666.0063629495 L -6449045.78872689,2500812.113142004 L -6452355.985105119,2507562.691305805 L -6454198.65663622,2512322.5848500663 L -6454937.818055088,2517095.459654408 L -6451622.16702181,2524638.6538217827 L -6443153.648079203,2527818.8454635115 L -6436527.689348206,2528616.841056121 L -6430265.967991084,2524638.6538217827 L -6425482.792110678,2523441.8354845853 L -6416644.581139146,2527020.767317562 L -6408545.642905972,2533382.6439742455 L -6398239.907087313,2534180.9022088456 L -6389032.115406347,2535366.8181425394 L -6382042.030620964,2537362.88932004 L -6371730.840147257,2534979.318403604 L -6361055.523619163,2537362.88932004 L -6348537.535559968,2540944.7706331625 L -6338226.34508626,2544128.0347482967 L -6327920.609267601,2543329.185174792 L -6320185.797088811,2542929.8347466076 L -6312086.858855638,2539347.531553724 L -6304357.612651388,2539746.7970672403 L -6298465.4720037,2533382.6439742455 L -6295149.8209704235,2527818.8454635115 L -6292203.750646579,2523840.7254913845 L -6283740.68635902,2520673.0525292763 L -6277848.545711332,2522655.7372592795 L -6273059.803856387,2532983.4087880556 L -6264591.28491378,2538948.2754963445 L -6261281.088535551,2543329.185174792 L -6255024.821833478,2545314.5304755736 L -6241403.32366205,2545714.057805014 L -6232934.8047194425,2545314.5304755736 L -6223357.432329044,2548498.6214959845 L -6217101.16562697,2548498.6214959845 L -6211578.717008206,2554069.2544237725 L -6206425.737779386,2560841.13214855 L -6205686.576360519,2573192.7550534834 L -6200903.289160623,2582762.7955079735 L -6194641.567803501,2586354.41446275 L -6191331.371425273,2592338.2348907944 L -6192434.770218016,2600716.976365734 L -6195380.840541859,2609099.97487036 L -6195011.148512934,2618289.549605322 L -6191700.952134706,2626681.4024343393 L -6191700.952134706,2635077.684795486 L -6189488.699894171,2643478.292627172 L -6185069.650068151,2650688.9453377244 L -6183596.559246483,2662303.6631549085 L -6184335.831984842,2670718.3971111355 L -6181389.761660998,2675537.208375247 L -6180286.362868254,2682359.4357656767 L -6182123.579744307,2687975.728418286 L -6182862.852482664,2695597.617833858 L -6182493.16045374,2702428.3981795087 L -6180286.362868254,2708051.749183166 L -6173655.060801699,2715279.657316837 L -6171817.843925647,2728153.1283097295 L -6171817.843925647,2737006.792451006 L -6168871.773601803,2747483.0853985474 L -6163349.32498304,2752313.4080632133 L -6154511.114011508,2753931.7262628805 L -6144205.3781928485,2755538.2681657737 L -6131687.390133654,2753122.4853624166 L -6120642.381576636,2750302.593038824 L -6114386.114874563,2747483.0853985474 L -6102232.252869753,2739824.422812259 L -6091556.93634166,2735402.0213166242 L -6086034.376403405,2732585.3026885157 L -6080881.508494076,2730577.0059259916 L -6070206.191965982,2735402.0213166242 L -6060259.127546659,2741441.4552917173 L -6052529.881342409,2749898.00004075 L -6038169.221752114,2759168.73584897 L -6040963.118332043,2761430.6164549296 L -6046681.266615621,2769028.4886669964 L -6046572.507473117,2777952.984742716 L -6042533.947666627,2790746.83937552 L -6046088.712966129,2817895.7700219997 L -6057226.116700505,2859476.285131844 L -6061802.90624498,2883759.2808712497 L -6059813.404305522,2890649.614005425 L -6063922.763308156,2902817.4096764456 L -6079218.2839821335,2928988.2278207317 L -6079810.726312136,2946669.926274937 L -6081599.073931729,2999794.609344203 L -6086697.506610062,3037376.3219830026 L -6095307.401305976,3065235.2490086374 L -6103145.406652731,3080091.2595763034 L -6110206.179314767,3081903.7588228215 L -6115277.561356835,3086356.82964692 L -6118359.441459448,3093440.8663105266 L -6124088.499053123,3099334.7975068735 L -6132464.622818372,3104061.343253671 L -6137003.341096995,3109240.529292324 L -6137704.431250012,3114872.731383579 L -6145727.338270973,3118494.6491431817 L -6161066.384865851,3120116.9721889845 L -6170067.5675719045,3124630.8354792846 L -6172736.452363673,3132014.901831614 L -6177867.612972299,3137888.3625225094 L -6185455.594742731,3142224.798777878 L -6189059.340618182,3149434.7818682976 L -6188673.395943602,3159510.623853888 L -6193027.2125480175,3168161.5910116336 L -6202126.245086477,3175397.3189573186 L -6210513.278161825,3175593.1993588083 L -6218199.109764664,3168761.3428431056 L -6228488.592937668,3164220.919591841 L -6241387.0710163945,3161969.555434987 L -6252154.782721846,3163694.662351605 L -6260797.294028563,3169373.4047163064 L -6268461.418330699,3178398.029011609 L -6275136.246318154,3190774.9668759974 L -6282555.690379526,3192834.892756178 L -6290725.316489354,3184560.6424773275 L -6301058.214263767,3182048.645416102 L -6313565.404332354,3185295.8832313353 L -6323523.266742285,3184156.207722067 L -6330931.91281305,3178630.703390521 L -6342313.885468699,3178018.2325522443 L -6357658.275399134,3182330.4381402554 L -6388765.83918437,3177356.874751502 L -6435625.444875326,3163082.9760048916 L -6475261.306169725,3157675.9470084463 L -6523860.278904325,3162801.4489556155 L -6527969.526587468,3147992.537398389 L -6525393.148292549,3139989.2422585217 L -6517500.707714798,3133968.364083267 L -6512548.99412533,3127156.8682066654 L -6510548.694195266,3119531.4205098217 L -6505102.276788714,3113726.6841395614 L -6496209.741905675,3109740.279546187 L -6492437.569640655,3105694.109140919 L -6493785.537354671,3101612.548242367 L -6491893.9965671105,3097994.9614341184 L -6486773.745268584,3094853.2110299612 L -6483865.746210591,3089910.6203157622 L -6483175.342728692,3083156.736871522 L -6481251.18533033,3079811.5142825614 L -6477826.886474038,3077318.2129347078 L -6477451.739790064,3072661.318081683 L -6479370.553852868,3058225.9197711 L -6479131.328267153,3046401.7582504777 L -6476734.285671901,3037206.5654973905 L -6473750.144082206,3031641.3500794624 L -6471630.398338521,3030259.442865353 L -6469673.513009865,3026962.788957891 L -6468901.734980196,3021413.6801688108 L -6465705.64108003,3016254.074266354 L -6450198.056776091,3005638.0288412953 L -6444354.896704353,2999891.3446049434 L -6443865.6475423165,2994654.816757188 L -6441528.38351362,2987558.879294396 L -6432315.248497098,2972314.7194359046 L -6429488.735306365,2965181.4147453513 L -6429233.257074994,2961609.884161454 L -6425971.929953225,2957918.8012682493 L -6414878.052139748,2949466.220188829 L -6408850.101713291,2941500.5950719453 L -6407898.876664463,2934044.806272073 L -6410573.10479179,2925581.9412803636 L -6416889.150060419,2916137.6036565565 L -6436679.974411611,2892510.8099767147 L -6452056.980952849,2881791.2813955005 L -6471722.79351588,2872938.031958688 L -6484670.140851064,2870072.166316742 L -6490893.790942334,2873177.9941279097 L -6497204.492875404,2870743.5496513722 L -6503596.680675737,2862747.8218729915 L -6514375.301691285,2856457.1728227455 L -6537128.337692485,2849558.4924704195 L -6588695.199371126,2822078.6626971946 L -6609366.449575001,2808816.8871157872 L -6616318.463094532,2800638.620845869 L -6635598.330982981,2785952.3499339838 L -6667200.3759463215,2764812.3443162995 L -6691448.321389385,2754526.772231903 L -6708358.197318846,2755109.8977621854 L -6735427.089978101,2748970.0704756244 L -6772660.4540222,2736127.093752974 L -6794152.462831695,2723662.8432214134 L -6799919.591691222,2711599.9687824133 L -6813687.697632024,2699522.560880394 L -6835457.003293085,2687442.5152826137 L -6846762.944736523,2679492.777118601 L -6847599.955987796,2675667.4403253556 L -6854051.922354684,2670694.758834886 L -6866129.641827792,2664551.92140363 L -6879381.447970295,2654047.1017191387 L -6893796.431472097,2639188.7637929884 L -6909222.529908775,2616236.506647001 L -6925648.611331249,2585212.0301124477 L -6943276.052698364,2564333.963828823 L -6962093.833380531,2553552.0556504773 L -6971491.870071263,2546430.7284693695 L -6971459.25346046,2542953.290308097 L -6974274.857341095,2539605.8504505637 L -6971774.510258386,2533629.090156737 L -6964920.235251772,2510165.227517369 L -6955000.444107693,2476176.3041427867 L -6944716.415589739,2441039.937269929 L -6932606.079505829,2399752.033611619 L -6932589.826860173,2370523.803563071 L -6932568.008239977,2339787.187383367 L -6915348.330167638,2314528.016164703 L -6903123.780286175,2296622.8976170225 L -6892562.566236145,2279591.5369703234 L -6881870.885742905,2250473.994559782 L -6874739.536523705,2231060.3799297316 L -6847464.034889539,2226466.7508437247 L -6801175.164227879,2216371.8273115386 L -6778106.871428752,2211355.23827131 L -6729442.554153055,2200761.1879854114 L -6679990.206202033,2190000.1840514964 L -6628059.218469008,2189320.5894354703 L -6577927.376346183,2188664.016664773 L -6539030.787790142,2212738.920082348 L -6509320.283614363,2231152.69409944 L -6476587.566583036,2251467.6820301637 L -6474348.152386747,2255847.726814521 L -6472108.626870969,2272892.0880155964 L -6474315.535775945,2292545.977098791 z" /></g>
</svg>
