<?xml version="1.0" encoding="UTF-8"?>
<svg xmlns="http://www.w3.org/2000/svg" viewBox="5649975.1142213745 -3018076.630483479 95099.90702622198 195711.19351631822">
  <g id="map"><path fill-rule="evenodd" fill="currentColor"    d="M 5707124.203085335,-2827577.878807184 L 5697111.905444406,-2825067.1064163893 L 5687686.706797921,-2822365.4369671606 L 5679826.994150463,-2822437.161971661 L 5673510.948881834,-2823501.081452205 L 5669314.64935689,-2826095.2147895372 L 5661226.620433814,-2836446.4978136206 L 5655519.381460334,-2849881.832674497 L 5659030.732158426,-2857379.687198871 L 5660237.324119135,-2862064.6441937406 L 5652508.077914885,-2897555.0402385136 L 5649975.1142213745,-2924865.952549441 L 5650899.17731445,-2930468.961802289 L 5655323.681795519,-2936923.0730896117 L 5662672.4379802365,-2951190.1000901703 L 5666586.097318057,-2964946.0206225542 L 5677641.903865681,-2996783.0087126307 L 5689328.224009159,-3009062.814082405 L 5706493.689489481,-3018076.630483479 L 5720604.3255034555,-3000459.878536857 L 5737747.861044092,-2986996.912291402 L 5740998.390175256,-2971982.7832939844 L 5735954.17008894,-2959764.2269995916 L 5731323.167952449,-2940331.9650977585 L 5734095.245912183,-2931407.9952638573 L 5735127.956828273,-2923692.5942681637 L 5739791.686895057,-2910726.3772395006 L 5744303.131898436,-2893927.7950026155 L 5745075.0212475965,-2882241.262718668 L 5742628.998076395,-2871427.119247596 L 5736671.624207103,-2862346.2809821744 L 5724930.980152118,-2835052.7655100874 L 5721430.427444632,-2832217.793898626 L 5707124.203085335,-2827577.878807184 z" /></g>
</svg>
