<?xml version="1.0" encoding="UTF-8"?>
<svg xmlns="http://www.w3.org/2000/svg" viewBox="2253306.5347808124 -6150800.490028331 1053534.5626759706 736162.0776964342">
  <g id="map"><path fill-rule="evenodd" fill="currentColor"    d="M 3140601.1340052304,-5692714.839217314 L 3152309.272768904,-5676334.812154482 L 3167180.888821941,-5667638.238755252 L 3201631.1542767165,-5658456.239019476 L 3204696.7817336726,-5659536.917093075 L 3205044.655142401,-5661266.177623972 L 3202642.157892101,-5663636.961471936 L 3202283.4864927647,-5666695.661242036 L 3203968.418305412,-5670435.699281731 L 3208708.179584408,-5670628.970871876 L 3216502.770329753,-5667282.842020265 L 3231319.951151792,-5672128.589648989 L 3253149.0353794075,-5685179.192073197 L 3273206.135952577,-5687834.954879014 L 3291458.636260496,-5680086.637239079 L 3300840.308986081,-5671077.263021367 L 3306841.097456783,-5662532.5420823125 L 3304971.375289419,-5651990.379039453 L 3303808.0866106288,-5645428.932279437 L 3298992.2941194214,-5618316.632805276 L 3295665.733776046,-5608225.184500473 L 3290328.075512,-5596902.87662622 L 3233635.507879783,-5583435.933760064 L 3237288.2343311827,-5589906.476675727 L 3235961.9739178712,-5601258.348857498 L 3233581.1839682753,-5609829.530632381 L 3238875.427630913,-5617594.316808317 L 3226112.759330955,-5620406.953950658 L 3220535.8754811934,-5616142.1487852605 L 3216187.513531827,-5608723.986927109 L 3220046.737638648,-5591660.875265641 L 3213839.3401930328,-5582241.913506778 L 3211458.5502434373,-5576970.166172289 L 3211175.9100563135,-5564533.334051682 L 3207512.3856143067,-5559157.260622738 L 3206784.022186046,-5553303.735997652 L 3215817.932822393,-5554822.123581988 L 3211763.0090507567,-5544099.926352232 L 3194782.445244642,-5523537.25253242 L 3188792.4547645464,-5511309.901065007 L 3190260.090931165,-5462941.41715824 L 3182704.725771535,-5434144.561240114 L 3182106.8287864844,-5425638.876221731 L 3164082.644754182,-5425368.153816738 L 3158712.2585598426,-5426030.104934756 L 3141655.6635415154,-5430357.53258715 L 3122511.7167513235,-5438001.034671333 L 3111260.210538884,-5452854.593017823 L 3104063.51677859,-5463485.394211164 L 3087843.9330115374,-5458681.841651354 L 3084745.6889437796,-5459965.585082504 L 3080310.275152612,-5465102.198807464 L 3068080.381935591,-5468548.27792899 L 3052980.560926428,-5468616.392237827 L 3019062.8479156066,-5488086.072939888 L 3015301.473641193,-5491381.7318742145 L 2988678.3042230736,-5488093.519419527 L 2948770.712051648,-5478448.112548569 L 2918331.7331281174,-5466568.075358285 L 2886892.659899299,-5445432.383609598 L 2874141.0122289294,-5429431.674242168 L 2859367.2460083007,-5420945.425187751 L 2838320.849120452,-5414638.412331897 L 2800761.43028782,-5417028.3413171405 L 2761636.5254561617,-5425052.141298073 L 2719598.1669114623,-5433677.7289647665 L 2696910.3641318665,-5428912.364829914 L 2666188.7450212114,-5432488.007347542 L 2619856.348438652,-5442808.769711671 L 2585351.6477528787,-5445945.0583781125 L 2551336.196229141,-5439862.1291913465 L 2545618.0479455628,-5444505.008978929 L 2544367.818744464,-5449829.034271388 L 2545683.2811671677,-5457383.125101848 L 2550477.366357671,-5463462.650497852 L 2558717.6803441523,-5468072.111106623 L 2563066.0422935192,-5472752.032679744 L 2563522.674844753,-5477517.553920237 L 2554271.3572428874,-5485162.5564495595 L 2535323.1101175104,-5495702.02118729 L 2527517.721381558,-5502315.24436132 L 2525604.473293294,-5503946.531004778 L 2525093.5168305533,-5509882.408385343 L 2521158.1501920293,-5514545.641032149 L 2513798.4846972134,-5517949.686784294 L 2508102.0437143403,-5524122.845823162 L 2504079.736553507,-5533078.074430381 L 2504949.475735075,-5541524.184246878 L 2510700.240629455,-5549444.138795991 L 2518059.906124271,-5552884.220090994 L 2527039.3815296195,-5551816.221544722 L 2530779.048503329,-5554066.726474779 L 2529278.7957259077,-5559630.6964636985 L 2520505.929295472,-5566741.300413369 L 2504427.6099622357,-5575394.502412664 L 2488066.761761367,-5570676.980603397 L 2471401.4547531786,-5552624.708026067 L 2459388.8571821856,-5549695.750789956 L 2452029.1916873697,-5561875.474723804 L 2438929.55928878,-5569110.079232404 L 2420111.778606613,-5571387.888942205 L 2408523.3082955424,-5576052.209658263 L 2404174.8350266847,-5583099.203175119 L 2395945.541669792,-5588535.45210765 L 2377790.8911942802,-5594273.805482508 L 2377551.6656085653,-5599793.41345653 L 2380497.7359324093,-5601089.4930152 L 2386933.4496536413,-5601611.149940221 L 2395586.7589509655,-5602777.093664974 L 2396967.3432757836,-5605899.7421985455 L 2397065.193108191,-5608754.799452071 L 2390249.1006869185,-5612393.93197427 L 2383345.956423846,-5614867.032991106 L 2379758.4631940513,-5617340.654406962 L 2377453.815776158,-5620068.686022651 L 2376997.294544415,-5622935.944024713 L 2379019.301775184,-5624889.060258457 L 2381780.47042482,-5625019.77652056 L 2384541.7503939476,-5626711.699437731 L 2386074.619782171,-5633359.454034177 L 2389792.4681356843,-5638833.780881315 L 2392455.8982724044,-5640790.346840841 L 2392281.905908295,-5644835.443735978 L 2389520.7372586587,-5648620.393754224 L 2385737.544364049,-5651882.332918443 L 2380204.1864351872,-5653864.806807635 L 2362919.275141244,-5659590.986029101 L 2354168.116011512,-5667568.772302853 L 2348830.3464279748,-5667854.711695591 L 2340361.827485367,-5672283.109112723 L 2331230.1783361044,-5679220.07047561 L 2323326.939767745,-5689081.760524908 L 2314782.2782934345,-5695481.410130931 L 2312575.4807079486,-5698109.270133766 L 2312379.781043134,-5700598.296928874 L 2313945.1557226693,-5703359.36404948 L 2313890.8318111617,-5706377.625793568 L 2311640.508304776,-5716075.058486382 L 2313140.761082197,-5726350.853366762 L 2312749.361752568,-5735992.21675193 L 2312662.4212302584,-5740345.546987328 L 2311009.994708923,-5741669.751467617 L 2309531.560551698,-5740213.13737024 L 2307411.7034885213,-5738367.10570894 L 2305346.1703368523,-5738024.5161641985 L 2299051.832368928,-5745067.316618635 L 2291083.360578964,-5759458.231472753 L 2285680.4690933125,-5764260.544969441 L 2275146.4169990355,-5770862.806356457 L 2266308.3173469943,-5776422.024794693 L 2259937.8368473677,-5788475.090194323 L 2253306.5347808124,-5797768.59510001 L 2257665.8060402772,-5801689.525028318 L 2282951.805734988,-5807142.43196266 L 2294703.4704195615,-5801767.916373546 L 2299975.895462003,-5803721.177488146 L 2305139.6726814304,-5808084.397214972 L 2307955.276562065,-5811562.339979223 L 2308477.031015413,-5815269.300221018 L 2311020.9040190205,-5819897.5430365475 L 2319565.5654933313,-5822067.182860185 L 2342144.720449912,-5819253.048445247 L 2351254.6622984707,-5825723.629439797 L 2354624.637243255,-5829255.740945332 L 2356679.261084827,-5837048.658115731 L 2359060.0510344226,-5843319.428324082 L 2367158.989267596,-5846669.367882118 L 2367017.613514289,-5852394.754394537 L 2365789.202933385,-5858637.018286614 L 2370496.3476015786,-5872565.913896672 L 2373355.477403113,-5878292.315930923 L 2377932.155628097,-5880389.36185675 L 2383465.513556958,-5884782.790456223 L 2393042.8859473574,-5893940.6773805255 L 2390814.381061167,-5901910.119980781 L 2392749.4477696265,-5907822.540423186 L 2402739.9267903594,-5922243.346227524 L 2410360.5251715947,-5936162.418002112 L 2410230.0587283853,-5943142.1219665045 L 2411338.912176177,-5949241.962464663 L 2418057.1547650415,-5955928.880545386 L 2425145.089382831,-5964650.439062526 L 2434483.347507006,-5991933.40302363 L 2437809.9078503815,-5996527.589238928 L 2443941.1627642936,-6001734.252883057 L 2448507.0429986706,-6006903.755607444 L 2448996.1808412164,-6024900.805946399 L 2453257.6022682735,-6030108.4025028255 L 2461487.006944657,-6035947.435377276 L 2469629.471098731,-6045362.853996716 L 2476260.773165286,-6056492.266151827 L 2481381.0244638138,-6061694.628347407 L 2488153.7022836762,-6063084.55190868 L 2495502.458468395,-6067458.033721626 L 2503731.8631447777,-6069099.82138482 L 2511689.536944135,-6066948.651258963 L 2516755.3530116645,-6068064.662077293 L 2524365.1534022926,-6073484.313589916 L 2543846.064291116,-6093981.06792147 L 2546618.14225085,-6098086.255840823 L 2550651.3587217806,-6100910.698102485 L 2566446.9265484014,-6107943.4259844 L 2570458.3243991374,-6115030.712998503 L 2575872.1251948867,-6121407.750232751 L 2582905.7359011685,-6120927.653979503 L 2605789.238345579,-6105189.689088385 L 2630336.0766214216,-6106164.450522963 L 2634825.814324096,-6105579.58037896 L 2636271.6318705194,-6105254.725184789 L 2639272.0261058705,-6103963.410127039 L 2671874.276693987,-6096179.384959752 L 2676940.2040810077,-6097047.602656331 L 2678320.8997253166,-6097672.275175407 L 2691453.037415217,-6091239.940459661 L 2703052.5283558764,-6092091.383479501 L 2714075.7182926987,-6096552.583192693 L 2725555.540780755,-6098061.825275699 L 2736111.3001757367,-6095392.49826978 L 2744134.2071966985,-6086335.696459662 L 2764941.3784988327,-6067158.958313184 L 2771116.0480141537,-6060030.093443184 L 2780660.9151132414,-6061080.505134169 L 2791205.765198125,-6064652.664037016 L 2801870.2837356115,-6077474.610819104 L 2834668.233988543,-6092026.44697599 L 2859715.1194170294,-6095627.759203998 L 2884142.28924027,-6101462.663253585 L 2912417.8851797245,-6105612.016672486 L 2920603.763935208,-6117567.899457451 L 2925137.027558782,-6125713.3209017245 L 2928333.121458948,-6140820.430671488 L 2943552.6109207137,-6145200.9506014865 L 2958032.827644121,-6148294.060112258 L 2963207.4028541553,-6150196.177733397 L 2973763.273568628,-6150800.490028331 L 2981949.1523241107,-6149518.676397753 L 2994603.0614815643,-6142051.995483657 L 3003484.687054505,-6132684.998154274 L 3006985.1284425,-6125257.491441167 L 3014573.1102129323,-6114786.760294902 L 3022552.491312994,-6100082.650657568 L 3031325.3577434304,-6080567.605319171 L 3033249.6264612833,-6070701.333718053 L 3036565.277494561,-6060062.523899405 L 3043131.346339511,-6047129.305853611 L 3055633.08175305,-6032830.154594955 L 3057372.4487966946,-6030116.4820546415 L 3063047.071159373,-6020058.339601333 L 3073983.4318933766,-5997834.958169511 L 3083125.879033246,-5988952.04689609 L 3091116.1694434057,-5979301.668788865 L 3094942.7769394247,-5969590.114036007 L 3100671.8345331005,-5960783.780824851 L 3114075.8144195187,-5949130.388495428 L 3124935.921302329,-5938552.051924745 L 3133643.665830651,-5908203.652037387 L 3139731.5061431536,-5894281.413015661 L 3143601.528240582,-5883642.557288707 L 3141731.694753727,-5862142.890364085 L 3144145.101314125,-5852962.828451288 L 3139166.1144494144,-5836221.8051152695 L 3130208.4576642616,-5802599.421434703 L 3128045.074680185,-5775960.558928417 L 3129588.742059015,-5761628.785954654 L 3129806.1490245345,-5752435.3442293005 L 3131969.532008611,-5746579.322931859 L 3134339.4126481093,-5734489.659457756 L 3134730.811977738,-5723979.004342168 L 3131512.8994573774,-5720978.188568929 L 3127001.4544539982,-5718506.871663073 L 3125262.087410353,-5716315.934843336 L 3129403.951704298,-5711570.563200449 L 3135035.1594655667,-5702769.972541404 L 3140601.1340052304,-5692714.839217314 z" /></g>
</svg>
