<?xml version="1.0" encoding="UTF-8"?>
<svg xmlns="http://www.w3.org/2000/svg" viewBox="2097154.900182401 -5807503.453200184 460616.89844848076 610183.4672082886">
  <g id="map"><path fill-rule="evenodd" fill="currentColor"    d="M 2377790.8911942802,-5594273.805482508 L 2395945.541669792,-5588535.45210765 L 2404174.8350266847,-5583099.203175119 L 2408523.3082955424,-5576052.209658263 L 2420111.778606613,-5571387.888942205 L 2438929.55928878,-5569110.079232404 L 2452029.1916873697,-5561875.474723804 L 2459388.8571821856,-5549695.750789956 L 2471401.4547531786,-5552624.708026067 L 2488066.761761367,-5570676.980603397 L 2504427.6099622357,-5575394.502412664 L 2520505.929295472,-5566741.300413369 L 2529278.7957259077,-5559630.6964636985 L 2530779.048503329,-5554066.726474779 L 2527039.3815296195,-5551816.221544722 L 2518059.906124271,-5552884.220090994 L 2510700.240629455,-5549444.138795991 L 2504949.475735075,-5541524.184246878 L 2504079.736553507,-5533078.074430381 L 2508102.0437143403,-5524122.845823162 L 2513798.4846972134,-5517949.686784294 L 2521158.1501920293,-5514545.641032149 L 2525093.5168305533,-5509882.408385343 L 2525604.473293294,-5503946.531004778 L 2527517.721381558,-5502315.24436132 L 2523332.331166713,-5499584.446403256 L 2518777.4715619246,-5495527.661309858 L 2516200.981947514,-5488464.765132634 L 2515537.8517408585,-5477101.351270651 L 2501242.425372168,-5468230.933835591 L 2495872.1504973187,-5466590.826764897 L 2493447.834626823,-5460728.245468323 L 2489708.2789726043,-5444127.971286661 L 2490175.7095144456,-5431659.842036476 L 2492099.8669128073,-5425315.458632034 L 2492980.404084982,-5420155.869711046 L 2497600.608230866,-5413819.387873988 L 2501807.705746416,-5404093.752449301 L 2504590.6930162483,-5391282.230501837 L 2510765.47385106,-5381408.022981145 L 2526615.4769086787,-5371686.476149763 L 2534475.189556138,-5366033.387070151 L 2540280.389681516,-5357858.924938326 L 2544715.6921531926,-5350460.392098224 L 2557771.7986308816,-5340629.451525067 L 2556782.6136356927,-5333616.986759367 L 2553923.483834158,-5326758.581371295 L 2550912.1802887097,-5323543.480441728 L 2544411.344665364,-5314751.922775905 L 2538073.4807765395,-5309801.885704256 L 2527637.27851467,-5294322.375245818 L 2511156.7618611986,-5293491.542307586 L 2507221.5065421658,-5292252.797622218 L 2500992.401795846,-5288026.348174728 L 2497926.7743388903,-5280312.430868597 L 2500861.9353526365,-5274114.779914835 L 2500601.002466217,-5267854.707356085 L 2497589.698920768,-5255686.710085358 L 2501579.3894707994,-5242715.459987158 L 2507384.5895961775,-5236763.5586113455 L 2508297.743379155,-5233335.800821913 L 2507308.447064475,-5227264.7558672195 L 2498644.228457053,-5214928.26031063 L 2496013.4149311357,-5210368.63099412 L 2487327.489023009,-5208126.521534184 L 2484359.71139846,-5209295.387489645 L 2479869.9736957857,-5213530.798945556 L 2475717.200091743,-5214781.078040944 L 2465357.140361576,-5209787.877934319 L 2454823.088267299,-5206722.687942952 L 2446528.450369311,-5209045.3127212 L 2438353.480923925,-5209346.728159541 L 2432667.837931659,-5207288.501488298 L 2428395.5071945037,-5206494.80663593 L 2420003.130783599,-5201168.099374371 L 2406533.917675576,-5197319.985991895 L 2400326.5202299613,-5198127.65053389 L 2398000.1655113637,-5203136.826707812 L 2395477.99980846,-5210302.528448203 L 2396706.410389364,-5213552.790380158 L 2405598.9452724033,-5219195.5827531135 L 2406620.8581978856,-5224591.407498849 L 2419046.4510797216,-5250597.897479543 L 2421438.039019924,-5259078.25740063 L 2421525.0908617247,-5261849.967323337 L 2418285.4710406587,-5263690.858026751 L 2411458.469309289,-5263616.96108456 L 2381193.4827498673,-5274211.044333492 L 2382574.067074686,-5286366.022888324 L 2373681.6435111375,-5292920.377884461 L 2364104.1598012475,-5298774.184159247 L 2362495.259200812,-5305307.566920451 L 2351852.5592835215,-5318521.9190471405 L 2344057.9685381763,-5325939.801524029 L 2334111.0154383434,-5329647.370050145 L 2325544.6466633286,-5335084.6091674445 L 2320391.778753998,-5338408.0964958025 L 2318097.929326712,-5344596.416157482 L 2318097.929326712,-5348259.000987285 L 2315510.641721695,-5351796.304236942 L 2311368.77742775,-5351415.687309993 L 2304378.692642368,-5346490.929612599 L 2295757.999955846,-5342254.852180236 L 2294257.747178425,-5339168.436148238 L 2297366.900556281,-5331836.742255684 L 2299595.405442471,-5327183.0153469285 L 2298584.401827087,-5322776.946031953 L 2295855.7384687625,-5317175.839390154 L 2279277.483302374,-5304824.808207625 L 2277418.4478061264,-5300496.302021771 L 2280581.9250954897,-5293580.562025328 L 2278581.7364849164,-5290369.247216263 L 2264721.124047264,-5285817.604754193 L 2265090.7047566976,-5289590.69599852 L 2264231.8748852275,-5295679.910264375 L 2256274.3124053613,-5302151.682076006 L 2245077.130104429,-5307179.366926863 L 2220160.711119152,-5324406.707032978 L 2210583.338728753,-5326676.715399958 L 2202027.767944345,-5328694.303350757 L 2189765.258116521,-5336962.385779096 L 2183470.920148597,-5338408.0964958025 L 2176470.037372608,-5344335.3817373635 L 2161228.729290647,-5364299.282498021 L 2148270.472645365,-5375195.315110002 L 2139421.4636832266,-5380711.689750665 L 2136942.8239012235,-5386089.11976289 L 2136399.3621471706,-5391619.5042871265 L 2136703.7096349993,-5393501.216950843 L 2143400.2449231595,-5401346.932806037 L 2148553.1128324894,-5402487.614669146 L 2155184.5262185354,-5402742.758128954 L 2159554.5954686073,-5398765.933082861 L 2165305.4716824787,-5397918.356858844 L 2168501.4542631535,-5403005.440284465 L 2170186.497395291,-5410340.9589413535 L 2169414.7193656215,-5419682.0456521325 L 2155597.6328488695,-5441452.0958999 L 2143704.7037304793,-5456673.616932183 L 2142345.8267063657,-5460033.481097552 L 2144911.295691188,-5462880.925682572 L 2149053.159985133,-5464414.530787458 L 2153499.483086398,-5463137.74645722 L 2165098.862707566,-5462042.440380349 L 2176241.721096991,-5463447.488053602 L 2180046.5099728145,-5467157.618099908 L 2180057.419282912,-5472169.718874112 L 2175980.7882105717,-5476821.36257493 L 2162957.298343685,-5489381.386075445 L 2152792.826958842,-5500456.665789393 L 2140845.5739289443,-5508963.575073771 L 2131974.7463466106,-5512380.783673499 L 2129354.8421307905,-5516695.760967507 L 2128256.8979930966,-5521317.011853603 L 2129246.1943077766,-5529820.637871916 L 2129811.4746820247,-5540617.448061954 L 2131920.422435103,-5547415.878736816 L 2139910.7128452626,-5560264.276033409 L 2147563.9278373006,-5573910.881299416 L 2152303.6891162964,-5587057.362563584 L 2154793.1268889066,-5599279.713508428 L 2153879.9731059293,-5602792.332674798 L 2149879.373245801,-5605393.238240572 L 2141432.5616038977,-5608033.248011948 L 2129713.6248496175,-5605730.79962162 L 2119755.762439687,-5601288.978859854 L 2115863.921722063,-5600951.426256188 L 2114570.2779195546,-5606421.519681443 L 2116135.6525990893,-5608839.220020678 L 2119255.7152870432,-5608547.445761906 L 2121810.3862812584,-5607518.922343313 L 2124560.7569402875,-5609998.392650237 L 2126202.2741515255,-5617394.470524003 L 2122071.319167678,-5643147.845715388 L 2129507.1271941965,-5645436.6668300675 L 2129626.684327308,-5649190.918718452 L 2130311.5218346682,-5652468.5461038295 L 2137997.353437508,-5647972.695193828 L 2148803.136408811,-5647895.643959745 L 2158271.8609761964,-5648797.721605968 L 2159706.8805320123,-5651334.698062728 L 2159598.1213895073,-5655037.530054258 L 2157630.4380702456,-5657900.458148258 L 2154282.1704261657,-5660239.36432513 L 2151836.1472549643,-5663822.178139348 L 2145444.0707741245,-5665390.267052497 L 2125430.3848023647,-5674718.567145042 L 2115592.190845037,-5684637.289932664 L 2115918.24563357,-5695155.858790749 L 2118777.3754351046,-5700931.6701418 L 2122223.4929115917,-5702963.784328895 L 2121201.57998611,-5704911.031653231 L 2109917.4571628678,-5709800.403140117 L 2105927.766612837,-5716611.072925694 L 2109200.0030447054,-5725363.209693121 L 2103329.5696977223,-5743103.4647494145 L 2097154.900182401,-5754065.719317627 L 2103220.921874708,-5758825.952342799 L 2104057.9331259825,-5765557.118918755 L 2104536.2729779207,-5769416.926671007 L 2107036.6200606287,-5769362.1885932535 L 2116820.6014259406,-5773896.189521896 L 2120375.366725442,-5777571.869591376 L 2122440.899877111,-5781875.098475225 L 2124789.0732159046,-5782939.57046193 L 2131355.142060855,-5778268.128380063 L 2138269.0843145344,-5777853.50657703 L 2146031.058449077,-5780810.914546212 L 2151836.1472549643,-5784920.1074100835 L 2158804.524739642,-5788334.101743833 L 2161968.0020290054,-5790683.881384465 L 2166001.218499936,-5794358.82740836 L 2174154.480644617,-5805251.249455741 L 2183362.272325583,-5807503.453200184 L 2195722.6319858143,-5804725.4481815 L 2209072.287960725,-5803760.382077112 L 2219051.8576713605,-5806263.569218968 L 2244359.675986266,-5803117.2238319125 L 2249784.2747726226,-5800567.865932324 L 2253306.5347808124,-5797768.59510001 L 2259937.8368473677,-5788475.090194323 L 2266308.3173469943,-5776422.024794693 L 2275146.4169990355,-5770862.806356457 L 2285680.4690933125,-5764260.544969441 L 2291083.360578964,-5759458.231472753 L 2299051.832368928,-5745067.316618635 L 2305346.1703368523,-5738024.5161641985 L 2307411.7034885213,-5738367.10570894 L 2309531.560551698,-5740213.13737024 L 2311009.994708923,-5741669.751467617 L 2312662.4212302584,-5740345.546987328 L 2312749.361752568,-5735992.21675193 L 2313140.761082197,-5726350.853366762 L 2311640.508304776,-5716075.058486382 L 2313890.8318111617,-5706377.625793568 L 2313945.1557226693,-5703359.36404948 L 2312379.781043134,-5700598.296928874 L 2312575.4807079486,-5698109.270133766 L 2314782.2782934345,-5695481.410130931 L 2323326.939767745,-5689081.760524908 L 2331230.1783361044,-5679220.07047561 L 2340361.827485367,-5672283.109112723 L 2348830.3464279748,-5667854.711695591 L 2354168.116011512,-5667568.772302853 L 2362919.275141244,-5659590.986029101 L 2380204.1864351872,-5653864.806807635 L 2385737.544364049,-5651882.332918443 L 2389520.7372586587,-5648620.393754224 L 2392281.905908295,-5644835.443735978 L 2392455.8982724044,-5640790.346840841 L 2389792.4681356843,-5638833.780881315 L 2386074.619782171,-5633359.454034177 L 2384541.7503939476,-5626711.699437731 L 2381780.47042482,-5625019.77652056 L 2379019.301775184,-5624889.060258457 L 2376997.294544415,-5622935.944024713 L 2377453.815776158,-5620068.686022651 L 2379758.4631940513,-5617340.654406962 L 2383345.956423846,-5614867.032991106 L 2390249.1006869185,-5612393.93197427 L 2397065.193108191,-5608754.799452071 L 2396967.3432757836,-5605899.7421985455 L 2395586.7589509655,-5602777.093664974 L 2386933.4496536413,-5601611.149940221 L 2380497.7359324093,-5601089.4930152 L 2377551.6656085653,-5599793.41345653 L 2377790.8911942802,-5594273.805482508 z" /></g>
</svg>
