<?xml version="1.0" encoding="UTF-8"?>
<svg xmlns="http://www.w3.org/2000/svg" viewBox="3212415.229947315 118348.98293211381 224748.04065911658 194427.5570035543">
  <g id="map"><path fill-rule="evenodd" fill="currentColor"    d="M 3292491.347176585,154514.43078913755 L 3296133.1643178873,154427.3534159254 L 3320147.338830285,148685.87712130282 L 3322538.9267704873,150480.06138580045 L 3326409.060187406,161626.25657495996 L 3328452.7747188793,163246.591825265 L 3331801.0423629605,163648.92121526564 L 3338530.1942619225,161093.42234073958 L 3350890.553922154,152372.13529404948 L 3356282.6474171984,147076.5440456128 L 3362631.3092966294,139627.94534821835 L 3370741.156839901,131233.67634329552 L 3375263.5111533776,123915.9614727603 L 3379688.015634447,119631.94065844773 L 3385482.306449728,118348.98293211381 L 3391896.201550764,118675.20534673278 L 3396353.322642636,118816.49426354904 L 3392689.7982006287,120567.07882118753 L 3391928.818161566,125927.44515111909 L 3396146.7136677234,134506.51153088317 L 3409931.294893164,152241.6316510173 L 3418704.1613236,155503.90792865856 L 3424433.218917276,162398.2836019742 L 3430042.71937784,174023.52517463962 L 3431705.9438897823,188563.94085046844 L 3429390.387161791,206053.03363410133 L 3430771.0828060997,219061.92775049797 L 3435836.8988736295,227590.10766839352 L 3437163.2706064316,238653.30121166658 L 3434760.66203664,252252.24899043943 L 3431836.4103329917,260390.37163833715 L 3428379.3835464064,263088.5774279954 L 3424465.8355280785,264089.6373103903 L 3419160.7938748337,263175.7033615161 L 3412681.6655521933,264328.9567618597 L 3405637.1455358127,266885.8432151964 L 3401212.641054744,267255.8593888091 L 3398462.2703957143,266755.26259382564 L 3393265.987884975,264579.19528254436 L 3385058.290509296,257550.60991847145 L 3369751.860525221,261434.8651899647 L 3365609.996231276,261347.74023369435 L 3359989.697780105,264688.0480519055 L 3355423.8175457283,268800.88997743814 L 3352640.830275896,269094.7004887954 L 3349814.4284046553,268528.8065765716 L 3336627.855483756,260237.95972345545 L 3331811.9516730574,260510.02846511267 L 3329833.3590436983,283806.13546329545 L 3327626.5614582123,296734.2450459953 L 3324908.807409985,302502.2778401784 L 3315472.6994534023,308074.6297146666 L 3305971.4695947054,311231.0252320879 L 3300775.0757644754,311013.24811026483 L 3279880.9639400323,312754.69507723657 L 3271705.883175156,312776.5399356681 L 3267205.3474818743,310871.8157722972 L 3261334.9141348912,297670.2326786025 L 3250257.400286562,291793.6417667472 L 3239625.498359878,289051.22853994404 L 3235298.8437112155,289812.99223196955 L 3231450.4175950014,296723.43536784826 L 3229863.2242952706,302926.77143372316 L 3219557.488476611,298671.4200163735 L 3216459.2444088524,293436.8868000799 L 3216176.604221729,284578.6797452611 L 3212415.229947315,272445.9858284562 L 3214502.4703996885,267277.5857503287 L 3218546.4848612263,263937.33317887766 L 3227102.055645634,257528.8849192987 L 3240114.636202424,248661.98943442214 L 3242908.5327823535,244419.1074889605 L 3244745.7496584053,237369.67348293416 L 3243919.536397738,220965.5098337034 L 3242669.4185161293,207118.92002491173 L 3244213.085894959,202191.83295005874 L 3250148.641144057,191489.60190104303 L 3258117.112934021,180537.78592573473 L 3267411.845137296,168955.7664230175 L 3273010.4362877617,167824.8116373776 L 3280359.3037919714,163442.2443148304 L 3288132.0759171206,156950.27057179142 L 3292491.347176585,154514.43078913755 z" /></g>
</svg>
