<?xml version="1.0" encoding="UTF-8"?>
<svg xmlns="http://www.w3.org/2000/svg" viewBox="3853458.9817125155 -3779665.8820372475 2340470.5866278717 1931848.8500467904">
  <g id="map"><g><path fill-rule="evenodd" fill="currentColor"    d="M 4107874.0006265114,-2922868.390680529 L 4104927.9303026674,-2922868.390680529 L 4097122.541566716,-2931209.2608947004 L 4092534.954031633,-2937356.711348372 L 4087882.1332749478,-2941482.4598155166 L 4066531.3888992704,-2949815.7941658553 L 4063639.753806424,-2955193.142312695 L 4066901.0809281943,-2960578.506204486 L 4069184.021045383,-2955223.272345313 L 4073043.245152204,-2952070.2020777827 L 4090719.5557757774,-2944530.852169958 L 4110406.964320021,-2928103.457418585 L 4113787.8485749043,-2926761.3645119835 L 4107874.0006265114,-2922868.390680529 z" /><path fill-rule="evenodd" fill="currentColor"    d="M 4674048.82698328,-1887747.0745989461 L 4682658.721679194,-1887100.1426545857 L 4679114.754370299,-1890806.2514362733 L 4678353.774331236,-1892634.0782014315 L 4682093.441304945,-1897965.085416864 L 4694388.5677435715,-1886935.565062786 L 4694029.896344236,-1873892.2494866024 L 4692986.2761180485,-1870909.031458735 L 4689637.897154477,-1873710.694349478 L 4687485.4234805,-1876456.0167865094 L 4686811.495283237,-1879417.2037505556 L 4683408.792408159,-1882617.1178381112 L 4671428.922767459,-1880523.5674044313 L 4663982.316750335,-1884103.7663950021 L 4653328.7075229455,-1895086.5305622986 L 4650491.285022115,-1903007.647828907 L 4654948.406113987,-1904552.4318251458 L 4659633.843481476,-1908363.8518473848 L 4662612.530416122,-1914636.1515189053 L 4659883.867057798,-1921120.596893413 L 4666210.821636525,-1920086.1084035398 L 4669624.322502209,-1913425.9067725893 L 4670287.4527088655,-1898283.0099144327 L 4671244.132412742,-1895075.1361561548 L 4669483.058068393,-1891618.018994653 L 4674048.82698328,-1887747.0745989461 z" /><path fill-rule="evenodd" fill="currentColor"    d="M 5786124.083477615,-2154481.8210983574 L 5760000.9612121405,-2150762.8139913487 L 5734617.000365531,-2147153.724817291 L 5706058.764238953,-2143091.3497924893 L 5671728.055917289,-2138208.4772672188 L 5644811.337001948,-2134377.755401145 L 5605523.349116277,-2128790.8524697167 L 5570312.103622437,-2123791.0225093598 L 5537264.129793185,-2119096.4737361004 L 5504205.246653834,-2114397.3926254106 L 5476071.026467687,-2110404.925311483 L 5459329.576927797,-2105759.4468904585 L 5439609.551772749,-2095594.8564718934 L 5409344.565213327,-2080010.9924388668 L 5378492.479659463,-2064141.658336234 L 5362501.212168028,-2055925.5947668042 L 5345748.96463753,-2034851.1101749807 L 5337269.536384824,-2024190.6323416755 L 5321941.399100045,-2004928.7495275112 L 5310352.817469483,-1990411.2152036252 L 5296535.730952731,-1973077.5113591047 L 5290502.325871226,-1957653.7069923864 L 5281196.684357854,-1933850.679703217 L 5273162.979346285,-1927857.0897185244 L 5259987.315735484,-1920120.2141961765 L 5247996.536784686,-1914619.1610814151 L 5229309.222545728,-1915408.9976288364 L 5218655.501998849,-1930023.5119682043 L 5207360.581185001,-1945529.8135774361 L 5201696.756812929,-1951761.6831284927 L 5196619.920115812,-1952108.9548817298 L 5177856.574664642,-1950139.5239065827 L 5155244.803097258,-1947766.3048465368 L 5128578.107758239,-1950316.0018093148 L 5097813.074046174,-1953258.7570453945 L 5068972.197732472,-1956014.0795673395 L 5054633.24544288,-1958080.7163165924 L 5035717.614928306,-1968160.9381192985 L 5030836.477896003,-1970166.2131719098 L 5025857.602350782,-1970638.9759742592 L 5003419.711828018,-1970889.7125289699 L 4981188.430280166,-1971134.618137888 L 4958891.9155107085,-1967944.5318257932 L 4937541.282454522,-1969112.2185737665 L 4915418.648729684,-1967266.6285357077 L 4907624.16930383,-1963416.3690270996 L 4898970.748687015,-1963644.1598386145 L 4893567.857201363,-1960244.4621414854 L 4888817.186612269,-1958655.8280704846 L 4883185.978851001,-1961559.8419636353 L 4876272.036597321,-1960922.1426305817 L 4866107.565212479,-1963416.3690270996 L 4859476.263145924,-1969989.5715204917 L 4853225.451098899,-1975772.7221469816 L 4846768.030076963,-1978958.2636474404 L 4839527.921715259,-1980964.557600389 L 4833266.2003581375,-1981004.4799676775 L 4825265.111957371,-1977476.543402443 L 4820373.06561497,-1974063.2028289037 L 4807990.998654034,-1962698.8380085363 L 4807480.042191293,-1958655.8280704846 L 4813111.249952561,-1951864.1504437993 L 4811382.792219014,-1948693.9516273984 L 4804099.15793641,-1944704.7362756138 L 4801870.65305022,-1933981.4822208795 L 4800783.506903132,-1928095.9165825972 L 4799707.270066143,-1914073.6121279567 L 4802946.778567718,-1902996.2493289465 L 4807273.544535871,-1898930.2690471548 L 4807480.042191293,-1894183.8327542064 L 4805110.161551795,-1884699.5925769145 L 4798402.7169535365,-1881766.0554175118 L 4793499.872620529,-1872757.8735110827 L 4790477.771084473,-1868550.057509619 L 4785216.144032638,-1863753.3220315569 L 4764398.063420406,-1847817.031990457 L 4763343.645203613,-1857075.8974551605 L 4756755.757738466,-1870806.9419210877 L 4756277.417886528,-1880506.487018334 L 4753211.790429572,-1890227.3490327445 L 4747493.642145993,-1897715.1911398391 L 4736970.499361815,-1905518.0205480277 L 4735992.112357234,-1916130.6634099488 L 4728295.371444295,-1926629.1115827535 L 4718087.4854580425,-1935084.8905317474 L 4712423.661085972,-1950720.1346685642 L 4708140.421038719,-1971516.3918138584 L 4681234.611433475,-1998880.9339985554 L 4647588.740619171,-2024179.169015888 L 4637348.238022117,-2038445.8560611128 L 4620606.788482226,-2067546.956277834 L 4612159.976840323,-2090574.5737223176 L 4589646.055105346,-2117111.1852945387 L 4588678.577410863,-2127315.425315229 L 4585341.10775739,-2139776.596466221 L 4580144.82524665,-2153648.3028700324 L 4577013.964568089,-2164613.436138051 L 4554445.607602114,-2212727.4657426933 L 4547162.084639002,-2220420.661018516 L 4540900.36328188,-2231187.3268039506 L 4539280.553371347,-2239523.23846038 L 4537291.16275138,-2244085.261304101 L 4521343.3098613545,-2251999.2163301464 L 4506460.895817711,-2272255.834923322 L 4461759.107136291,-2304559.314765361 L 4439875.698997168,-2307769.614053326 L 4422536.352472225,-2319328.892522717 L 4409773.795491759,-2334458.6509521827 L 4396141.499329723,-2360547.5625074203 L 4372192.558038931,-2388775.6551630367 L 4351874.635898834,-2428923.4555228585 L 4358234.207088362,-2443556.5160692227 L 4357831.898448636,-2453871.766426105 L 4351591.99571171,-2471227.7157761357 L 4344775.791970947,-2484649.7530338303 L 4340112.173223653,-2497332.3769534878 L 4343819.1122670695,-2515541.420362334 L 4345243.222512787,-2535959.68711454 L 4349243.822372916,-2546818.371360344 L 4352135.457465762,-2558748.1188909695 L 4348363.285200742,-2582774.4909743154 L 4341612.314681584,-2595655.1215536078 L 4342286.354198337,-2604235.833727476 L 4334644.048516396,-2608427.69501708 L 4328425.741760685,-2617758.503090368 L 4334904.870083326,-2617734.941697944 L 4323153.316718243,-2630696.0460201604 L 4318848.369370285,-2637895.108878868 L 4314412.955579118,-2655531.3345808033 L 4308738.333216441,-2669007.9239878836 L 4290507.540209226,-2699629.3069694284 L 4281810.704991002,-2718336.7056043977 L 4262297.177491376,-2742565.1112424023 L 4241120.425479809,-2760478.2314841156 L 4227672.91967249,-2768593.771902023 L 4221204.7006599475,-2776016.235455017 L 4210214.016014436,-2776272.502244511 L 4198234.146373738,-2786882.480784674 L 4189863.477263537,-2787287.911707115 L 4179274.9899382624,-2788987.417600677 L 4166795.073144919,-2809443.8782532536 L 4156500.246636357,-2828630.0329018882 L 4138954.2911365023,-2853654.2751988834 L 4143357.0883168676,-2860195.2976057595 L 4148466.541624788,-2870839.5692371516 L 4145922.6686211796,-2884767.404209388 L 4143128.7720412505,-2894264.138002961 L 4135388.6165269036,-2911543.8767073574 L 4109993.8576896884,-2954704.772711017 L 4103253.7964806277,-2961042.858225964 L 4092404.4875884242,-2968313.0715067843 L 4085707.9523002645,-2987057.303215593 L 4082664.0321440133,-3003895.5847203014 L 4065248.654406859,-3012076.9617543747 L 4035288.015335267,-3072934.822804733 L 4017937.870819718,-3094244.3943895027 L 4011067.3431674484,-3108612.8710550014 L 3990988.5352935744,-3132277.43131887 L 3981117.6134059527,-3155841.386738114 L 3960897.541098263,-3177607.9687584783 L 3943362.4949085065,-3215451.9427220947 L 3916271.894948547,-3253369.927786008 L 3904900.720283504,-3259948.447847434 L 3876983.9070628765,-3262671.920148944 L 3865243.1516884007,-3265457.5408166754 L 3854437.3687170977,-3257108.452731019 L 3853458.9817125155,-3267688.9754308215 L 3860927.406349836,-3282313.135984163 L 3871678.865409632,-3313087.6208228557 L 3873820.429773513,-3340120.8327811067 L 3890703.1437472207,-3420718.106013284 L 3914412.970771789,-3416559.1612735055 L 3933937.2962620216,-3413130.8726302315 L 3962452.1177871907,-3408127.1002835957 L 3991956.1243075496,-3402944.6436661654 L 4009219.328300789,-3399912.153790529 L 4015122.2669390836,-3401194.7452341393 L 4038984.2677075663,-3420955.0228802683 L 4060497.9838177655,-3438815.5344918775 L 4073380.2092508357,-3460703.5776045616 L 4085860.1260441793,-3481927.1689578006 L 4091578.274327757,-3486339.0495311175 L 4110700.5138172433,-3490326.001257493 L 4141019.8242881717,-3496647.6619049194 L 4171056.494571976,-3502915.896642649 L 4173448.19383167,-3505056.300645669 L 4180449.0766076585,-3522147.825020178 L 4189352.5208007954,-3543883.092232872 L 4191167.919056652,-3546162.6122809635 L 4193374.827961629,-3548379.5938130766 L 4214877.746081221,-3560573.247839966 L 4227922.943248812,-3567983.4559358214 L 4209322.569532163,-3589873.8339754734 L 4191787.634661898,-3610555.560124714 L 4172143.6407190636,-3633757.4876316213 L 4155500.0410115793,-3651832.010643345 L 4130540.0961054023,-3678961.9228422237 L 4114211.8645153353,-3696746.1550147096 L 4142824.4245534223,-3705182.3887280696 L 4173741.6320094,-3714301.0004082955 L 4204963.298272699,-3723515.9434032883 L 4242544.535725527,-3734617.5847777403 L 4271939.78310338,-3743304.1261461037 L 4315815.3585241325,-3756287.8687228025 L 4337263.952732217,-3762644.079191434 L 4341133.974829645,-3764291.3519471628 L 4357647.108093919,-3779665.8820372475 L 4382498.293857591,-3775360.012356532 L 4419840.417044194,-3768894.5148496814 L 4455877.875798701,-3762656.942508841 L 4493893.927182567,-3755301.498771929 L 4506091.203788786,-3749320.464591745 L 4542770.085449243,-3727323.943622445 L 4566599.469606924,-3713056.2062963755 L 4594429.342305243,-3696421.098006526 L 4629227.592488239,-3675646.08709311 L 4653122.098548033,-3661400.402861029 L 4683702.34190538,-3643191.2522655674 L 4707542.524053668,-3622417.174750355 L 4737731.479400878,-3596150.581099615 L 4770899.010363243,-3567365.265782622 L 4798217.92659882,-3545035.439057948 L 4835809.962042255,-3514349.778022564 L 4872869.333722243,-3484183.038440407 L 4909146.018062465,-3454712.283039247 L 4938215.210651784,-3431161.617472524 L 4974959.325533846,-3401425.1863601645 L 4977818.455335381,-3400310.6388535057 L 5014975.676847777,-3396930.085687813 L 5064917.273960835,-3392399.1884299098 L 5115097.9853401175,-3387851.257709439 L 5160375.852386393,-3383752.5525134318 L 5179856.763275215,-3387900.942206643 L 5201381.500015004,-3385145.5203190343 L 5230037.585973989,-3381458.050369713 L 5247463.87302124,-3378977.565981649 L 5280240.004653976,-3374316.1785623436 L 5290045.693319993,-3355023.099941433 L 5293600.569938986,-3341521.6440981254 L 5296927.01896287,-3328380.771657077 L 5306743.616938984,-3316360.12679195 L 5329083.65762934,-3316650.9283075617 L 5348858.0066958945,-3316910.8177230647 L 5373252.671227824,-3317294.388770755 L 5392592.20636334,-3317597.6293155695 L 5398832.220419756,-3305685.692534446 L 5401560.88377808,-3293809.010983465 L 5413062.413566842,-3265697.88584869 L 5429466.787688611,-3243815.944774444 L 5433391.245017037,-3235855.237682308 L 5436043.877163149,-3223867.763283933 L 5433195.656671713,-3219413.4457145473 L 5432075.893913824,-3214260.5963562224 L 5444240.55390924,-3202285.847520935 L 5464330.271093211,-3192178.8520079767 L 5472190.095060161,-3189622.6624745117 L 5481093.427933807,-3185167.254059736 L 5474146.869069326,-3178257.0465469854 L 5485996.272266815,-3162318.2179996073 L 5499769.832862668,-3146098.1830655616 L 5514510.982472494,-3142444.7335063526 L 5534415.9093017485,-3117957.9960375368 L 5564430.872284848,-3102112.0285488735 L 5582650.755981965,-3081386.679088548 L 5580965.712849827,-3080997.418030742 L 5575617.145275682,-3083102.046022522 L 5568909.700677425,-3085943.1343281874 L 5566876.784136558,-3083363.667023348 L 5567235.566855385,-3074679.550485425 L 5569018.45981993,-3064481.8809887995 L 5578302.282713107,-3055663.647760703 L 5586564.304000293,-3049320.5617710953 L 5589782.105201164,-3037339.9365545 L 5583281.269577818,-3011538.2191465236 L 5581030.946071432,-3011556.441360417 L 5576660.76550187,-3013790.0136797144 L 5571975.32813438,-3014304.6630638894 L 5569496.799671868,-3012833.5409191935 L 5574997.540989927,-2994298.1054024845 L 5580476.463687791,-2980097.9025654923 L 5587086.058453641,-2968868.3889932362 L 5592576.001781093,-2952444.0360079147 L 5597283.1464492865,-2945440.6674175863 L 5616644.500204997,-2928013.2330273637 L 5622580.055454095,-2913461.728872769 L 5628080.796772154,-2886393.841349421 L 5640212.951476258,-2871301.134813676 L 5646746.403710407,-2859710.021795474 L 5655519.381460334,-2849881.832674497 L 5661226.620433814,-2836446.4978136206 L 5669314.64935689,-2826095.2147895372 L 5673510.948881834,-2823501.081452205 L 5679826.994150463,-2822437.161971661 L 5687686.706797921,-2822365.4369671606 L 5697111.905444406,-2825067.1064163893 L 5707124.203085335,-2827577.878807184 L 5714973.117742186,-2822329.5745906522 L 5723071.94465587,-2823118.566240006 L 5723865.541305736,-2818242.3022781424 L 5718473.559130182,-2811629.5583318253 L 5711787.821832628,-2794940.210863479 L 5721289.163010816,-2792309.539524356 L 5730366.488248571,-2791009.2124746484 L 5736823.909270507,-2788337.4408520656 L 5740563.464924727,-2788319.6102316445 L 5740563.464924727,-2784867.206676851 L 5740987.480865157,-2769052.274024638 L 5743259.511672249,-2763020.126425394 L 5747347.0520546865,-2757674.8109430824 L 5753478.306968599,-2749695.7683646735 L 5759598.652572414,-2741714.934171913 L 5765719.109495718,-2733738.1444150214 L 5771850.36440963,-2725771.2233284567 L 5777970.821332935,-2717808.433380055 L 5784102.0762468465,-2709843.5625106627 L 5790222.421850661,-2701882.799792814 L 5796342.878773966,-2693931.8363337214 L 5802474.133687878,-2685979.000725428 L 5808594.479291692,-2678035.9299251507 L 5814725.734205604,-2670090.9641598184 L 5820846.19112891,-2662155.8500776268 L 5826966.536732723,-2654224.509800001 L 5833097.791646634,-2646291.2404947523 L 5839218.24856994,-2638361.722582055 L 5845338.594173754,-2630442.1090891114 L 5850404.521560775,-2623895.4052221933 L 5859764.486985655,-2622650.218918673 L 5862743.173920301,-2622260.6794961896 L 5871168.278261499,-2621139.490985387 L 5884267.799340597,-2619398.700852697 L 5901259.27245681,-2617150.871638488 L 5921348.989640782,-2614484.5187917696 L 5943797.678154154,-2611511.810211733 L 5967790.034046355,-2608333.3824007628 L 5992565.188597815,-2605049.4425161066 L 6017329.433839177,-2601771.951184174 L 6041321.78973138,-2598595.401704271 L 6063759.680254144,-2595625.558495914 L 6083860.195428722,-2592962.686823842 L 6100851.668544935,-2590712.550543233 L 6113940.391633427,-2588980.8825126397 L 6122376.293965232,-2587861.956476499 L 6125354.980899878,-2587473.23872577 L 6134182.282561312,-2586307.2607595203 L 6135867.32569345,-2586601.7625552816 L 6143259.607799068,-2596273.7859177925 L 6151434.577244453,-2582621.485988459 L 6158207.255064317,-2571292.4199061664 L 6167523.805887788,-2555744.3320689187 L 6177427.23306672,-2539241.823984497 L 6186885.048324008,-2523477.038351555 L 6193929.568340387,-2511747.9511980503 L 6190189.901366678,-2499570.1773412623 L 6186113.2702943375,-2486294.4959860127 L 6182036.639221997,-2473029.183707167 L 6177960.008149657,-2459774.055277832 L 6173883.377077316,-2446528.926065216 L 6169806.634685485,-2433293.970580831 L 6165730.003613145,-2420068.8851180887 L 6161653.372540804,-2406853.844269375 L 6157576.741468464,-2393642.821071698 L 6153511.01970622,-2380447.4425414638 L 6149423.479323783,-2367261.678241073 L 6145346.848251442,-2354085.702917021 L 6141281.015169709,-2340919.215225235 L 6137204.384097368,-2327762.389985562 L 6133116.955034421,-2314615.0453485083 L 6129051.121952686,-2301477.000013666 L 6124963.581570249,-2288348.428906473 L 6120049.939246634,-2272550.7996795317 L 6108222.243349849,-2268351.9594789012 L 6089067.387249559,-2261558.2776485067 L 6069923.5517788585,-2254772.8574473667 L 6050768.695678569,-2247989.88704135 L 6031624.860207868,-2241209.23961434 L 6012470.11542707,-2234431.143195864 L 5993315.25932678,-2227655.470955466 L 5974171.423856079,-2220876.425699033 L 5955016.56775579,-2214105.578350029 L 5935872.732285089,-2207337.011628222 L 5916717.876184801,-2200570.953211339 L 5897563.131404001,-2193801.49604052 L 5878419.18461381,-2187040.194716801 L 5859264.439833011,-2180281.2582708257 L 5840120.493042818,-2173524.5604419815 L 5820965.748262021,-2166770.328562077 L 5801811.003481222,-2160018.4363564327 L 5786124.083477615,-2154481.8210983574 z" /><path fill-rule="evenodd" fill="currentColor"    d="M 4073793.31588117,-2963552.3916627876 L 4072749.695654982,-2961875.368522694 L 4068053.348977396,-2966207.060448326 L 4068335.98916452,-2975768.0428988063 L 4072369.205635451,-2981197.205657439 L 4072053.9488375247,-2973763.58196461 L 4073804.1138717765,-2966279.4762127027 L 4073793.31588117,-2963552.3916627876 z" /></g></g>
</svg>
