<?xml version="1.0" encoding="UTF-8"?>
<svg xmlns="http://www.w3.org/2000/svg" viewBox="17329944.369429987 737334.7800589959 1252529.0617790446 589285.8936988754">
  <g id="map"><g><path fill-rule="evenodd" fill="currentColor"    d="M 17776352.893351577,950596.0324121104 L 17771047.85169833,952123.9237301601 L 17763166.32043068,947991.0653892579 L 17759742.02157439,944232.126044887 L 17761383.538785625,938363.7035399353 L 17765992.833621413,936143.951376771 L 17771221.844062444,940077.9645799329 L 17771743.59851579,944122.2855985044 L 17776352.893351577,950596.0324121104 z" /><path fill-rule="evenodd" fill="currentColor"    d="M 18582473.43120903,1307622.2794968176 L 18572635.125932213,1309464.9918383139 L 18568754.194524687,1309009.8451712208 L 18562242.44959124,1299176.0048958808 L 18567080.060702648,1296956.6414082372 L 18574265.845152844,1297811.1422002013 L 18576450.935437627,1303593.1490459389 L 18582473.43120903,1307622.2794968176 z" /><path fill-rule="evenodd" fill="currentColor"    d="M 18493863.561815552,1204653.1456296304 L 18484971.02693251,1206611.8946279285 L 18482144.62506127,1206058.5700741373 L 18475491.50437452,1207109.8150760245 L 18468349.24584522,1215266.7075474306 L 18463065.91149268,1214126.5764189444 L 18458924.047198735,1214425.461842781 L 18455771.479219474,1207707.4651958984 L 18455706.245997865,1204454.0588961453 L 18460772.173384886,1204974.1570175006 L 18463435.492202114,1198445.9689058554 L 18468925.435529567,1195193.441959684 L 18481687.992510036,1193700.1081633468 L 18493026.550564274,1195824.0757744745 L 18497081.36301642,1197317.5017107488 L 18493493.981106117,1203225.7975772247 L 18493863.561815552,1204653.1456296304 z" /><path fill-rule="evenodd" fill="currentColor"    d="M 17875268.60988321,1322711.2396664948 L 17867506.635748666,1326620.6737578714 L 17860440.408431582,1324654.6930785167 L 17855037.516945932,1321689.4654944022 L 17850645.629075665,1312939.7374587934 L 17841198.72312848,1307489.061854588 L 17827762.126631252,1305213.5367370106 L 17822250.476003096,1301439.9587004252 L 17820815.456447285,1299575.5545230797 L 17811509.926253397,1297899.8888785974 L 17808813.87950588,1293172.9104167325 L 17809596.566845644,1288258.1730643017 L 17811118.526923772,1285673.470321588 L 17819728.421619687,1288047.3360215249 L 17861070.92202744,1311118.989283161 L 17870909.227304254,1318269.2386220854 L 17875268.60988321,1322711.2396664948 z" /><path fill-rule="evenodd" fill="currentColor"    d="M 17983424.62338712,1076602.5531467355 L 17984653.033968024,1088689.2507113868 L 17984087.753593776,1092869.806570649 L 17975640.94195187,1083990.800902436 L 17971694.666003253,1087134.0287529153 L 17968052.96018144,1082921.1329659014 L 17968302.983757764,1073746.849635318 L 17968857.354821913,1063968.5266243266 L 17967215.837610673,1056562.014638292 L 17962976.123484325,1045873.504569184 L 17967726.794073418,1047570.2332521038 L 17983424.62338712,1076602.5531467355 z" /><path fill-rule="evenodd" fill="currentColor"    d="M 17720790.997787345,1019946.7233045244 L 17719290.85632942,1020222.0496517373 L 17714061.845888387,1018845.7749840274 L 17707713.184008952,1018383.3067482214 L 17703843.050592035,1014474.974220982 L 17708441.547437217,1008882.9093183983 L 17714246.6362431,1005239.5591960864 L 17716910.066379823,1006175.1336550266 L 17719399.504152432,1008508.5844443581 L 17725226.411578514,1009400.161857444 L 17725846.01586427,1016588.7277024188 L 17720790.997787345,1019946.7233045244 z" /><path fill-rule="evenodd" fill="currentColor"    d="M 17829838.457773533,1005514.7855946224 L 17836241.55488396,1007099.6839959983 L 17839339.79895172,1006846.5379305443 L 17846666.84783573,1012911.7695972082 L 17856483.445811845,1021840.5602253256 L 17852471.936641622,1026454.3784506615 L 17844514.374161754,1024097.9023343006 L 17841840.14603443,1025033.8007290326 L 17840970.40685286,1024417.2329187763 L 17839296.27303082,1019935.7869570055 L 17830621.145113297,1015498.8062289397 L 17822848.37298815,1015124.532987175 L 17821837.369372766,1009851.4810658426 L 17829838.457773533,1005514.7855946224 z" /><path fill-rule="evenodd" fill="currentColor"    d="M 17562149.925416324,920697.1206903367 L 17569140.010201707,929902.9847317762 L 17577173.715213276,950420.2169516564 L 17575727.786347363,957488.6323239671 L 17569966.112142883,957884.339510895 L 17568368.12085255,962315.1593203594 L 17560562.7321166,952365.8204382348 L 17550180.853766233,949672.7278513621 L 17542603.7813059,943561.7210096938 L 17540005.584390786,931452.2018146926 L 17539277.220962524,923816.7870242045 L 17533287.23048243,922509.569088867 L 17516274.050065514,924420.970727527 L 17510827.63265896,930946.81578323 L 17503033.153233107,928870.3161148864 L 17501380.72671177,923014.8586430273 L 17502598.33930207,917259.0369596987 L 17512958.399032235,911591.7870039803 L 17515078.25609541,904300.2363699753 L 17525405.699214775,891740.2597537973 L 17531776.1797144,889610.7155218773 L 17543821.282576703,894133.4030731688 L 17545321.535354126,911998.2135417796 L 17549659.099312887,917841.1991454434 L 17562149.925416324,920697.1206903367 z" /><path fill-rule="evenodd" fill="currentColor"    d="M 17610830.38401819,985961.0588027685 L 17608384.47216648,986390.0406202882 L 17605775.365941267,981901.8343594886 L 17611852.296943672,969759.4033814636 L 17614787.457957417,979525.8477045093 L 17616689.908055075,983188.7803030165 L 17610830.38401819,985961.0588027685 z" /><path fill-rule="evenodd" fill="currentColor"    d="M 17600492.03158873,970441.2544636148 L 17589534.07487351,979327.8361364728 L 17581532.986472744,976325.1132704751 L 17575042.948840007,968703.7101465252 L 17577173.715213276,959522.4823794187 L 17578380.307173986,957092.8162198818 L 17581609.01768495,956565.1796789871 L 17584805.11158512,954685.238824356 L 17588305.664292604,950629.0119605433 L 17600220.300711703,953849.7610046762 L 17603198.98764635,956081.4528905783 L 17596089.23440836,961710.4484694566 L 17598459.11504786,963513.5727562947 L 17600002.893746182,966196.5019834506 L 17600492.03158873,970441.2544636148 z" /><path fill-rule="evenodd" fill="currentColor"    d="M 17520459.440280356,973740.5332950688 L 17520470.349590454,975390.2133048043 L 17514328.185366444,972222.790179471 L 17500793.739036817,957026.847224933 L 17503185.326977022,951948.1020342278 L 17515578.30324805,942100.0780816083 L 17519404.91074407,940803.2318432261 L 17522905.463451557,946902.9326192274 L 17519850.63398521,955905.5024246129 L 17515795.71021357,958203.1594568694 L 17514143.395011727,966669.4213031303 L 17520459.440280356,973740.5332950688 z" /><path fill-rule="evenodd" fill="currentColor"    d="M 17442416.239591952,884814.0093553376 L 17440285.47321868,886361.5658961427 L 17436567.624865167,880292.1226322843 L 17433860.668807544,878393.5896119582 L 17433936.811339248,871633.9374629993 L 17422717.92173761,860629.6127807216 L 17421772.04002434,853038.7676668275 L 17428283.896277275,845602.748611959 L 17437045.85339761,849934.8866806172 L 17445731.89062523,859269.2621414327 L 17455907.160000682,862319.0404743169 L 17453809.010238208,868506.8211511765 L 17444655.653788242,879633.6845399134 L 17442416.239591952,884814.0093553376 z" /><path fill-rule="evenodd" fill="currentColor"    d="M 17433067.07215768,912755.9715692422 L 17431708.195133567,915534.6397007805 L 17425913.904318284,901664.9387635554 L 17426207.453815505,894682.3294648401 L 17427207.659440283,890203.4259505253 L 17429327.40518397,888831.3123634597 L 17434012.84255146,904278.1980894264 L 17433067.07215768,912755.9715692422 z" /><path fill-rule="evenodd" fill="currentColor"    d="M 17496293.092024043,905617.8302111296 L 17493857.978162944,907319.9196437338 L 17481747.642079033,906672.000390418 L 17472518.143097363,895077.4751060521 L 17472594.17430957,886493.2943599444 L 17479845.191981375,878613.0620959478 L 17488596.351111107,877219.3788037057 L 17493390.5476211,880270.2082601272 L 17497880.285323776,886855.5495728779 L 17499489.18592421,895253.1839226492 L 17498478.182308827,902664.1480580226 L 17496293.092024043,905617.8302111296 z" /><path fill-rule="evenodd" fill="currentColor"    d="M 17348012.079383187,792081.277963701 L 17336825.695072863,794765.3425989085 L 17329944.369429987,791161.0818156739 L 17332999.087576848,782606.0473958915 L 17336782.280471455,778148.3841010113 L 17350773.248032823,786034.5099893089 L 17348012.079383187,792081.277963701 z" /><path fill-rule="evenodd" fill="currentColor"    d="M 17549006.767096836,978854.8873809916 L 17548756.743520517,982814.8015480649 L 17542375.46503028,981582.7229615097 L 17528134.3625731,975621.2052054534 L 17527645.224730555,972893.6445891964 L 17535754.960954335,971892.8287741833 L 17541647.10160202,972640.7074608166 L 17546539.036624935,976116.0795001386 L 17549006.767096836,978854.8873809916 z" /><path fill-rule="evenodd" fill="currentColor"    d="M 17783332.180146355,1036763.0332154657 L 17807846.2904919,1054886.9000730035 L 17818391.251896277,1053233.8615416572 L 17850591.30516416,1053564.4862040419 L 17869582.966890942,1066503.7137823664 L 17880747.532581076,1072445.8043652303 L 17887020.163248293,1084046.024232602 L 17894771.228072736,1086692.885947769 L 17899543.605962537,1092605.0348018217 L 17902283.06731147,1103383.797007067 L 17900358.909913108,1105138.2245760334 L 17890498.897335585,1109155.0649651096 L 17883389.25541709,1110821.5028887799 L 17864734.557788935,1106992.1751189742 L 17846862.547500547,1098694.5803395098 L 17811379.45981019,1097690.583311237 L 17794833.709935114,1095329.7655887413 L 17789158.976252943,1092163.827967547 L 17783897.460520603,1087939.1897704187 L 17775548.498711105,1077859.478163669 L 17769025.844467565,1066040.7982838133 L 17767960.516940672,1059107.7763900943 L 17767416.94386713,1045917.6170061119 L 17769438.9510979,1041114.1650123876 L 17776200.719607662,1036311.4110471082 L 17783332.180146355,1036763.0332154657 z" /><path fill-rule="evenodd" fill="currentColor"    d="M 17797660.223125845,953563.9552245795 L 17797855.811471168,956169.3721080067 L 17782897.254895825,946759.996235664 L 17771547.898850977,935264.9484998548 L 17739217.49045938,922751.1894671243 L 17732270.820275404,916336.4334125445 L 17726433.114858717,915534.6397007805 L 17709843.83906274,905079.7912253519 L 17693569.931384176,898041.7946516401 L 17683612.06897425,888941.1294026345 L 17681079.10528074,885220.0847976403 L 17675089.114800643,883003.0663901631 L 17664870.31950429,873016.4426838987 L 17654934.275714558,866389.2368040989 L 17651422.925016467,854289.2045668002 L 17641780.31940446,845953.685061981 L 17639399.529454865,842312.9412749744 L 17670229.796388533,849002.6159027771 L 17684525.222757228,862264.1070108092 L 17696733.408673543,869768.5637516904 L 17700973.122799896,875189.161696151 L 17711974.605436012,882618.9258542799 L 17721845.527323633,883299.3220607949 L 17731727.24720186,890785.2405436714 L 17740728.541227404,892805.1250995052 L 17747827.2738358,896724.3080353397 L 17793648.71395562,930232.6247597187 L 17788180.589248363,939132.9408741391 L 17794268.429560866,945595.0260305039 L 17797660.223125845,953563.9552245795 z" /><path fill-rule="evenodd" fill="currentColor"    d="M 17531341.365783364,818248.4606372113 L 17534896.131082866,822205.4139164708 L 17526286.347706437,828947.2372453816 L 17514926.082351495,825285.6440150609 L 17512480.059180297,821503.8831504163 L 17512186.509683073,819498.0086441597 L 17504261.56381401,820791.362499222 L 17488465.884667896,817492.214744316 L 17466506.44531656,801426.7500999313 L 17443296.776764125,771194.3718471925 L 17420935.028773066,754453.452289161 L 17416760.54786832,749253.7563439328 L 17416216.974794775,740628.8921838951 L 17419206.57103952,737334.7800589959 L 17433099.68876848,740935.4067872592 L 17451047.841588575,754727.1991926339 L 17480530.029488735,769069.9195566495 L 17488574.643810403,776385.2072140634 L 17493684.09711832,793943.7073622186 L 17498684.679964244,799169.6840448491 L 17514578.208942764,812647.9324810952 L 17522981.494663768,815804.3393643533 L 17527427.817765035,816374.2532904617 L 17531341.365783364,818248.4606372113 z" /><path fill-rule="evenodd" fill="currentColor"    d="M 17894542.91179712,928771.4269040445 L 17922177.084830627,962315.1593203594 L 17921079.14069293,968263.8738908919 L 17917328.675728615,972101.8415694209 L 17916241.529581524,983375.7709380529 L 17919720.263668817,987710.2464290156 L 17927275.628828447,989690.5775495463 L 17940103.41903052,1001717.6815581097 L 17945223.78164854,1016445.5526401576 L 17945680.30288028,1020970.6942973685 L 17951007.16315372,1027665.7094731951 L 17951213.660809144,1041753.2151502329 L 17963400.139424756,1061323.1246520309 L 17964465.46695165,1070736.9230484085 L 17963334.90620315,1074970.599650545 L 17958268.97881613,1072523.0258800664 L 17943701.82157041,1050324.8238445402 L 17927058.221862927,1040750.7063432854 L 17925155.771765273,1036630.8395799483 L 17908349.200323265,1023701.4488365366 L 17897064.966180537,1001948.8201312709 L 17884878.59888441,963282.6469865576 L 17890607.65647809,954124.6496493799 L 17876844.893872846,935385.7934714233 L 17877497.114769403,930375.5070399815 L 17883313.11288539,931518.1319432636 L 17887346.329356316,931287.3769256102 L 17889281.284745287,929057.069950595 L 17894542.91179712,928771.4269040445 z" /><path fill-rule="evenodd" fill="currentColor"    d="M 18002068.411705177,1162696.1281171988 L 18016070.288576648,1169350.1562383866 L 18024223.55072133,1168255.7981652787 L 18036301.381513927,1172832.3386919082 L 18045487.354574695,1170223.4711588128 L 18051216.412168372,1176138.1338971641 L 18065729.245502584,1199231.5335642616 L 18065816.186024893,1206733.5977713475 L 18075317.527203083,1212067.8861624473 L 18067294.731501605,1213075.114575757 L 18056162.782422278,1210319.2761832518 L 18047520.271115564,1212200.7157451252 L 18038508.17909941,1207718.4573421117 L 18023277.780327547,1205394.5471244594 L 18010025.974185046,1200017.116203641 L 17982315.76993933,1182971.5925117275 L 17982467.943683244,1174468.6683237783 L 17977999.913281277,1170311.8792315314 L 17976651.945567258,1159767.4127536274 L 17966737.49775874,1156430.1105472234 L 17955159.825438276,1155811.2752760195 L 17954224.964354593,1150828.0573302526 L 17956366.52871847,1142001.4447624704 L 17964998.130715095,1142133.8952245605 L 17975390.918375555,1145801.3040744506 L 17995219.702673104,1158684.328073608 L 18000133.34499672,1160883.5756887319 L 18002068.411705177,1162696.1281171988 z" /></g></g>
</svg>
