<?xml version="1.0" encoding="UTF-8"?>
<svg xmlns="http://www.w3.org/2000/svg" viewBox="2429580.503173998 -2535848.1092905924 1868406.3709826465 1567496.2910351865">
  <g id="map"><path fill-rule="evenodd" fill="currentColor"    d="M 3793559.522189526,-1058071.7560204363 L 3793407.348445611,-1058071.7560204363 L 3772719.7342765895,-1058148.9487409093 L 3772382.7701779585,-1058297.691872244 L 3772045.6947598364,-1058622.8296408178 L 3771741.3472720073,-1059162.8510146942 L 3771371.766562573,-1059901.2874043146 L 3770556.3512925133,-1063108.6777474578 L 3770143.2446621796,-1068096.7003724354 L 3770838.9914796376,-1076723.8177321034 L 3773165.457517726,-1086985.1735389347 L 3780318.6253571203,-1101403.2586778572 L 3780688.2060665535,-1102594.9134595208 L 3780775.1465888633,-1103267.9830651588 L 3780775.1465888633,-1104051.3442922428 L 3780112.016382208,-1106622.4397997158 L 3779285.8031215398,-1108846.1052630486 L 3778872.6964912065,-1112212.1421070392 L 3780112.016382208,-1119701.3617812353 L 3780231.5735153197,-1122025.070646813 L 3780057.6924707005,-1125016.966846986 L 3779503.210087059,-1126910.4724914674 L 3774513.425231742,-1139405.694964474 L 3772861.1100298967,-1141388.4011476107 L 3724647.9706503856,-1181207.8157649243 L 3715831.578299049,-1192007.5979067164 L 3714885.8079052693,-1192748.7263985958 L 3713700.811925775,-1193323.924666743 L 3689219.206871536,-1202395.9529946037 L 3688023.412901435,-1203308.737819831 L 3688175.58664535,-1204642.1544706682 L 3688936.566684413,-1206368.3763268797 L 3691882.6370082563,-1211608.54008219 L 3692295.74363859,-1212997.5908142575 L 3692708.850268924,-1215117.204123887 L 3681674.7510220045,-1299253.7325863086 L 3681707.3676328068,-1300912.877820318 L 3682207.41478545,-1302011.4842916157 L 3682620.521415784,-1302688.6003357896 L 3684077.2482723044,-1304481.0162003017 L 3685349.184774108,-1306340.1398647423 L 3686805.911630629,-1309587.0777520728 L 3687175.4923400627,-1310808.19028014 L 3688697.4524181886,-1325865.3612735015 L 3688577.8952850765,-1339063.058917148 L 3695035.204987522,-1361077.2785074248 L 3695730.95180498,-1370446.870835301 L 3642582.462801148,-1371108.745574939 L 3642256.296693124,-1370624.8956008572 L 3642212.8820917155,-1370046.5182779415 L 3642354.146525532,-1369390.247719269 L 3642430.289057235,-1368683.992630884 L 3642386.7631363347,-1367204.680388463 L 3641962.858515394,-1364474.4808701063 L 3641854.099372888,-1363034.3184472031 L 3641908.423284395,-1361560.9757030024 L 3642712.929244358,-1356285.1300196121 L 3644115.332189372,-1352316.381344063 L 3644343.537145498,-1350993.579825474 L 3644408.770367103,-1349548.4780629338 L 3644234.8893224844,-1346808.7087545313 L 3570268.319706421,-1346475.2457503635 L 3599554.9192612604,-1313406.0824108375 L 3599902.792669989,-1312734.3068592013 L 3600413.63781324,-1310935.8516790902 L 3600620.246788151,-1309620.384326527 L 3601174.617852302,-1297994.203802098 L 3599598.33386267,-1279606.3593178852 L 3599946.207271399,-1267791.4995914877 L 3601652.9577042414,-1260120.552184467 L 3609578.0148927956,-1245033.2850986372 L 3609067.058430054,-1242213.790649203 L 3607208.1342532975,-1238658.0572119497 L 3554766.1900575315,-1193854.955137151 L 3553309.4632010106,-1191742.209133826 L 3546004.1216177014,-1173081.1681756505 L 3539068.360743827,-1162226.3449105043 L 3535981.025986166,-1159120.9075977239 L 3523805.4566806527,-1143895.8381461417 L 3475940.1907098694,-1096206.836403217 L 3468102.1853631153,-1093007.6151405205 L 3444262.0032148273,-1091700.487293908 L 3431651.619978275,-1091353.0420096365 L 3430216.600422459,-1090994.5306343934 L 3428075.036058578,-1090172.813752893 L 3426759.5736358734,-1088942.9262541167 L 3425205.1082664365,-1088021.9769726445 L 3423672.238878213,-1088518.2522206756 L 3421889.345913668,-1089814.3136114723 L 3392417.956004112,-1116511.1929397434 L 3339921.6878968384,-1150259.0985015894 L 3334899.286430718,-1147187.7369291037 L 3305188.7822549385,-1132674.4670855561 L 3299057.5273410263,-1128909.0031572613 L 3295665.733776046,-1126248.050909207 L 3295491.741411936,-1110004.8869484654 L 3290317.166201901,-1101745.2609462102 L 3280935.493476317,-1092742.9553582561 L 3255247.1851418796,-1087034.75423172 L 3241886.6198568707,-1082132.5657996812 L 3228221.7070840336,-1074849.3406345516 L 3225993.202197843,-1073024.6308278071 L 3225993.202197843,-1073046.6460503777 L 3220731.5751460083,-1067997.4754288762 L 3210393.2227165457,-1057796.2785725154 L 3209273.571278147,-1049867.517238283 L 3210958.503090794,-1042788.6901534405 L 3122392.159618212,-1043075.1173430685 L 3116532.635581326,-1048738.2083388476 L 3104237.5091427,-1073664.0935292223 L 3103683.0267590587,-1073884.588708294 L 3094660.1367523004,-1072335.6172102063 L 3013888.272705572,-1075262.7970730164 L 3002343.216995911,-1072644.2775202733 L 2979264.0148866866,-1062326.1619292318 L 2967631.907335225,-1060623.259991193 L 2955684.6543053277,-1065329.786264486 L 2913178.8652187875,-1115037.6573459532 L 2903992.892158017,-1120976.353875132 L 2900655.422504544,-1124177.8772141342 L 2894371.9938467178,-1132845.5567102898 L 2885305.5779190594,-1138036.1870494417 L 2882229.041152006,-1141813.5718001835 L 2881261.452138031,-1147115.902643768 L 2881533.294334548,-1158032.410998458 L 2878521.990789099,-1164867.8955696637 L 2871825.455500939,-1166454.0526594678 L 2814730.690548486,-1154910.707572393 L 2806555.7211031,-1156203.5764377397 L 2794564.9421523027,-1154153.745930385 L 2790444.785159062,-1152115.2342551537 L 2785618.0833577565,-1145552.7789788852 L 2784639.6963531747,-1138776.183099248 L 2784791.8700970886,-1131917.97338766 L 2783313.4359398633,-1125138.3888504456 L 2778964.962671006,-1117631.5580096778 L 2762691.054992446,-1100763.3262846954 L 2759081.854461947,-1093426.8048067642 L 2759853.7438111077,-1074865.9375162413 L 2758788.304964725,-1065500.6807957205 L 2756309.776502213,-1061163.3092552256 L 2749221.8418844235,-1054027.3654449577 L 2746656.261580111,-1049922.6916227548 L 2745460.4676100095,-1044149.3224896758 L 2745069.0682803807,-1031944.3411753193 L 2743808.041088674,-1026212.1617577071 L 2734926.415515733,-1011849.4516635658 L 2732828.265753261,-1006786.0130357165 L 2732317.30929052,-996424.5026905733 L 2730882.4010541947,-993277.4508844132 L 2705085.3335772525,-985091.9561034583 L 2695442.7279652483,-979861.2755812615 L 2689528.8800168554,-971804.8770401148 L 2688072.1531603346,-968351.8182554059 L 2677027.255922808,-971244.0623561955 L 2662981.8531304393,-973317.0868136192 L 2635967.28438269,-975879.6788765661 L 2625270.149234402,-979635.7794458587 L 2620160.807245972,-985267.9155473073 L 2621780.5058370144,-999621.2657925469 L 2619127.9850103925,-1002708.1719359619 L 2614790.5323711233,-1005267.1719164063 L 2611866.169347984,-1011486.1462213731 L 2612474.975643132,-1018955.8120894642 L 2626705.168790218,-1035551.425127331 L 2629662.0371046686,-1044430.231637907 L 2631901.451300957,-1075273.8617797724 L 2633401.704078378,-1086163.5439652076 L 2632292.850630586,-1098876.5838117304 L 2621019.637117442,-1122290.052449544 L 2611181.3318406236,-1138593.9818393625 L 2595113.9218174852,-1162767.880666599 L 2588830.3818401685,-1170676.6073320906 L 2556380.3049959657,-1203972.7202361939 L 2552640.7493417477,-1208902.5702285864 L 2544770.127384191,-1222999.2820770738 L 2548640.149481619,-1235396.1051715026 L 2553412.5273714173,-1253891.9702156817 L 2553977.8077456653,-1262420.46651779 L 2551738.393549377,-1271239.5765704752 L 2543541.605483796,-1277870.6431989449 L 2536236.263900487,-1278630.376584999 L 2532964.1387881096,-1282024.1846857995 L 2526658.891510088,-1286888.0978807781 L 2520386.3721623598,-1290665.517146743 L 2514831.1956133028,-1297933.1831509473 L 2510961.1735158744,-1308121.7369972933 L 2513700.634864806,-1344585.9560757761 L 2511852.5086786565,-1349459.584224601 L 2503557.982100159,-1350799.0516729828 L 2501622.9153916994,-1353422.383473251 L 2501959.879490331,-1360421.2024964364 L 2497481.051097754,-1381226.958064259 L 2492469.447622241,-1398445.2994298267 L 2495165.4943697634,-1407954.8164874646 L 2488251.5521160834,-1420965.6550122395 L 2475010.543964187,-1426559.515656883 L 2462519.717860746,-1424860.0428831642 L 2449104.9399837214,-1422269.317162636 L 2441027.709051252,-1422982.442577938 L 2435461.7345115882,-1425406.058833902 L 2431591.601094669,-1430181.540746172 L 2429580.503173998,-1435810.5146615007 L 2431417.7200500504,-1444284.0150099064 L 2438755.6782441614,-1459843.8920549254 L 2447941.651304932,-1472655.0345768142 L 2466618.1675532823,-1484310.6800412887 L 2471586.245107895,-1490520.1000463685 L 2474423.5562892337,-1497412.389089199 L 2474923.6034418778,-1505328.847162244 L 2473673.485560269,-1513666.8797619932 L 2471553.6284970925,-1521274.9800334598 L 2466052.887179034,-1531390.7308957747 L 2461008.667092718,-1543295.1225007433 L 2460878.2006495087,-1551258.651368549 L 2463302.5165200043,-1557029.7742765674 L 2468303.21068542,-1563961.4516663887 L 2478206.6378643527,-1571774.2299460422 L 2480587.4278139486,-1573337.0626992865 L 2486805.62325017,-1577527.4443192924 L 2492241.2426661146,-1580586.7536125807 L 2505797.396296447,-1588841.5885113876 L 2508982.5808865153,-1592793.464243643 L 2507830.312837314,-1597542.1557779775 L 2504503.7524939384,-1601428.0523167748 L 2499046.425777289,-1606845.7146226065 L 2497937.5723294974,-1613498.7441989314 L 2496339.58103916,-1624884.6894460702 L 2493523.9771585255,-1632126.280735824 L 2491501.9699277566,-1637449.3373560826 L 2495361.194034578,-1641442.3909597313 L 2501101.0496188602,-1646980.9384462882 L 2508254.2174582547,-1650362.98886098 L 2519364.4592368775,-1653279.1837657972 L 2523712.821186244,-1657235.378900912 L 2524995.6669981456,-1664851.6750021551 L 2524636.8842793196,-1672087.936566379 L 2528615.6655192524,-1677492.6112209645 L 2533996.849704199,-1689048.245298085 L 2538323.504352861,-1694321.531555312 L 2545563.7240340556,-1700339.038479454 L 2552814.630386367,-1707889.7313551414 L 2556043.3408973347,-1716659.7174270768 L 2556956.4946803115,-1725105.8978784995 L 2552988.6227504765,-1750716.1842650725 L 2561370.2011707746,-1761431.9963416003 L 2572056.4270089655,-1770300.5766736602 L 2587449.79751535,-1769685.1751415906 L 2611333.5055845375,-1771621.8594380144 L 2627585.7059623925,-1775326.263974727 L 2639185.085583561,-1775207.7130671544 L 2665656.081257766,-1770413.5523571467 L 2667797.6456216467,-1771559.760032368 L 2668417.361226893,-1772497.050603341 L 2669819.652852416,-1779279.8457304076 L 2669808.854861809,-1796400.7329918728 L 2669765.328940909,-1848100.3641775418 L 2669721.9143394995,-1899912.7065637116 L 2669689.297728697,-1951852.7263048096 L 2669645.771807797,-2003912.98543117 L 2669602.2458868967,-2056108.5884773552 L 2669558.8312854874,-2108431.895143097 L 2669515.305364587,-2160892.5031079077 L 2669471.779443687,-2213494.331222848 L 2669471.779443687,-2228244.0088853454 L 2669471.779443687,-2242999.4723132174 L 2669471.779443687,-2257766.477791463 L 2669471.779443687,-2272550.7996795317 L 2696932.071432572,-2272539.3089972977 L 2724392.363421456,-2272521.895296476 L 2751863.453400948,-2272504.600072296 L 2779312.836079735,-2272492.990958211 L 2779671.6187985614,-2272707.0499683977 L 2780008.582897193,-2272915.188284835 L 2780356.456305922,-2273123.4473885717 L 2780704.3297146508,-2273337.5136353816 L 2780726.148334846,-2332468.101791399 L 2780747.855635551,-2391785.4622827335 L 2780769.5629362552,-2451307.0372205954 L 2780791.27023696,-2511026.9850914697 L 2823318.877943696,-2511021.1022296473 L 2865846.374330941,-2511015.219369857 L 2908373.8707181863,-2511003.4536563745 L 2950901.3671054314,-2510997.5708026816 L 2993428.974812167,-2510991.808009197 L 3035956.4711994124,-2510985.925159527 L 3078483.967586658,-2510980.042311889 L 3121000.6659832955,-2510968.2766227094 L 3163539.071680639,-2510962.393781168 L 3206066.5680678836,-2510956.6309995884 L 3248583.2664645216,-2510950.7481620703 L 3291110.7628517672,-2510938.98249313 L 3333649.16854911,-2510938.98249313 L 3376165.755626257,-2510927.3368900404 L 3418693.363332993,-2510915.5712372744 L 3461220.8597202385,-2510909.6884139404 L 3474190.0256756176,-2510909.6884139404 L 3479919.0832692934,-2511800.779223945 L 3490811.806762906,-2534186.793110146 L 3495464.6275195926,-2535848.1092905924 L 3502585.1787481843,-2534533.1576743815 L 3505020.2926092874,-2529280.023253047 L 3502824.2930144086,-2521693.6785494527 L 3499269.5277149067,-2511026.9850914697 L 3520109.315627843,-2511026.9850914697 L 3556636.023544386,-2511032.7478968576 L 3593151.8221508306,-2511044.5136305806 L 3629689.439377472,-2511044.5136305806 L 3666205.2379839164,-2511056.2793724323 L 3702731.9459004593,-2511062.1622464065 L 3739258.6538170027,-2511067.9250636995 L 3775785.361733545,-2511073.807941697 L 3812301.160339991,-2511079.6908217273 L 3848827.868256534,-2511085.5737037887 L 3885354.5761730764,-2511091.4565878836 L 3921881.2840896198,-2511097.3394740103 L 3958407.9920061626,-2511103.102303207 L 3994923.901932098,-2511108.9851933573 L 4031461.407839248,-2511114.86808554 L 4067977.317765184,-2511120.7509797546 L 4104504.0256817266,-2511132.5167742805 L 4105754.1435633358,-2483789.3226596853 L 4110689.604507146,-2461954.1861358336 L 4127854.958667978,-2430796.3146730675 L 4142389.6106223837,-2414051.86769851 L 4147607.7117533186,-2404826.1355807562 L 4148118.6682160595,-2400544.1512076426 L 4147455.5380094033,-2396577.714592578 L 4143030.9222088438,-2401138.381918601 L 4135584.316191718,-2404255.168411776 L 4134529.786655433,-2389707.0147455516 L 4136280.063009176,-2379353.5603867993 L 4138041.137353526,-2359948.8473070045 L 4144150.6849667327,-2339102.131394126 L 4139737.0897957613,-2319874.0134375426 L 4140324.0774707147,-2287335.3496544217 L 4148053.4349944536,-2248394.259811541 L 4146477.151004821,-2223564.6904811296 L 4159065.715621178,-2165769.4819627837 L 4171284.810847593,-2133769.010964611 L 4178003.164755949,-2125891.8344869544 L 4185547.6206054813,-2121696.192007883 L 4200060.453939691,-2118981.7742824513 L 4221443.814926171,-2102720.4022369874 L 4238380.852811386,-2085567.1564409009 L 4244403.459902284,-2076597.976077125 L 4252600.247967865,-2066762.7718980452 L 4258209.637108938,-2068519.9026492957 L 4261655.754585425,-2071135.952437827 L 4267200.021824384,-2063203.1418137476 L 4294040.598208022,-2046088.8657087712 L 4297986.874156645,-2038142.9242691977 L 4288344.26854464,-2030354.2568162933 L 4277168.793544413,-2016949.6429389277 L 4274353.189663779,-2011623.2504832684 L 4273059.54586127,-2008455.5582291088 L 4271744.083438566,-2004489.3425421824 L 4268808.922424819,-2000546.7779838967 L 4262405.936633881,-1995104.8243565352 L 4259894.680241076,-1992732.1937604747 L 4258361.922172342,-1989002.8456965876 L 4254524.405366227,-1986573.9209674012 L 4250349.924461478,-1986442.7966357144 L 4246675.490709375,-1984772.346158776 L 4241153.042090611,-1982195.765334574 L 4232956.254025029,-1983518.2231015689 L 4224585.58491483,-1981169.773376455 L 4221519.957457874,-1978211.7298258818 L 4214888.544071828,-1975635.9462042893 L 4208246.332695175,-1975083.1329565302 L 4205919.977976576,-1974205.6866943918 L 4199636.54931875,-1969830.0819349943 L 4191928.899095715,-1963735.3701531482 L 4182938.62569976,-1959857.2924201167 L 4179764.239100298,-1958587.4948437142 L 4175611.4654962556,-1954391.599126889 L 4169241.0963161197,-1933480.9892326961 L 4164577.366249335,-1928010.6791949433 L 4156717.6536018765,-1927470.5008428302 L 4146520.565606231,-1927447.7947822171 L 4137693.2639447963,-1925645.4749496134 L 4125669.8683831966,-1927959.4437675625 L 4119821.2536564083,-1927680.9114657613 L 4118288.4955876763,-1923218.1272317236 L 4116125.1126035997,-1905296.5397575062 L 4116451.2787116235,-1897624.3740511735 L 4111667.9915117277,-1888530.252465438 L 4106330.3332476816,-1877176.4105925623 L 4108298.016566943,-1857999.7296079195 L 4109222.0796600184,-1839048.94439704 L 4099438.0982947065,-1810547.711317744 L 4098057.5139698884,-1804021.573951079 L 4088153.9754714645,-1781443.2621071548 L 4083109.755385149,-1773056.0890515728 L 4070510.281458694,-1730967.5579161923 L 4065585.6185054905,-1718045.536977935 L 4055008.151809804,-1704426.602945382 L 4057388.9417593996,-1682296.462106103 L 4059910.9961428125,-1658848.4194163997 L 4062302.5840830156,-1636741.8168254679 L 4065868.2586926143,-1603699.2481163547 L 4056921.399898068,-1572888.9562861475 L 4057269.273306797,-1556100.5278239914 L 4050985.8446489708,-1531351.557009964 L 4046050.38370516,-1519922.0703435533 L 4041658.4958348926,-1513119.1507753695 L 4037951.445471987,-1506127.9534738518 L 4031124.4437406166,-1490721.1685763684 L 4025330.1529253363,-1470394.8437534613 L 4022764.5726210237,-1449581.2391784955 L 4022568.984275699,-1437499.443963192 L 4021438.3122077123,-1431987.1306404031 L 4019470.7402079413,-1428498.6315986929 L 4006121.08423303,-1426197.3152313286 L 3987531.508506989,-1423751.2684285748 L 3977508.412875454,-1421032.5139113555 L 3970790.170286589,-1416776.5550631415 L 3962539.0583095006,-1406919.0982198003 L 3946232.422700648,-1379936.2739576166 L 3937676.963235731,-1363417.9527140697 L 3924283.781339919,-1340818.6489897752 L 3908683.9131781138,-1324838.0246838029 L 3905389.969445541,-1317075.5790120403 L 3902824.3891412285,-1302610.8642234448 L 3897062.71493675,-1279756.0413879396 L 3891811.997195013,-1263506.8614981454 L 3892746.9695981853,-1250456.8424311723 L 3887822.306644982,-1227810.1237698717 L 3888550.670073242,-1216777.6472676273 L 3883082.5453659855,-1210629.1211841423 L 3875722.87987117,-1204808.1553408108 L 3870722.185705755,-1203336.3846120543 L 3860003.343256761,-1209992.7746845346 L 3851850.08111208,-1216749.989550533 L 3848523.5207687044,-1218521.1492562944 L 3841413.87885021,-1214292.6235513545 L 3832890.924676605,-1208056.0426103799 L 3823150.469232193,-1193418.0551115428 L 3815551.689471154,-1178636.933643552 L 3819910.9607306193,-1147336.8359525267 L 3819508.6520908917,-1140471.5697778342 L 3817312.763815504,-1132994.7095264215 L 3805485.067918719,-1109684.8453164815 L 3802571.6142056766,-1102324.5365627971 L 3798255.8688671133,-1088347.2545048592 L 3793689.9886327353,-1063935.455159493 L 3793559.522189526,-1058071.7560204363 z" /></g>
</svg>
