<?xml version="1.0" encoding="UTF-8"?>
<svg xmlns="http://www.w3.org/2000/svg" viewBox="1240897.0655470737 -10762247.48266101 1448077.4434056315 3332862.4029958295">
  <g id="map"><g><path fill-rule="evenodd" fill="currentColor"    d="M 2123582.3699357053,-7932931.909565874 L 2114374.5782547398,-7927950.640992739 L 2108960.7774589905,-7913230.947389031 L 2101503.262131768,-7910746.297407506 L 2094350.0942923732,-7905851.127292015 L 2091795.423298159,-7859508.95945955 L 2104818.9131650454,-7841975.524476692 L 2097665.745325651,-7839524.515257982 L 2091121.3837814054,-7834282.040083031 L 2086446.8557240143,-7826535.94923701 L 2081663.568524118,-7809892.228633436 L 2063693.8197228138,-7800475.1959368065 L 2056888.5252921486,-7793515.286629816 L 2046854.5203505154,-7778053.893400409 L 2041625.5099094827,-7755668.945064066 L 2031461.1498441307,-7746139.508755467 L 2020046.5605776794,-7743888.523874435 L 2026743.0958658394,-7762194.754495845 L 2035516.0736157664,-7777143.692076908 L 2027080.0599644708,-7787413.186128011 L 2022003.3345868434,-7803515.882128193 L 2015448.0637324997,-7815891.783967707 L 2020666.1648634346,-7829738.098239439 L 2018100.584559122,-7852484.709715024 L 2018948.5051204946,-7874752.6950229695 L 2026558.3055111223,-7886017.839399958 L 2035276.848030052,-7895216.759143088 L 2048854.8202805799,-7916408.905383962 L 2063574.1512702112,-7931808.6468853755 L 2084109.5916953185,-7938743.892738104 L 2093382.616597889,-7932349.765932536 L 2097383.105138527,-7946380.779108028 L 2104003.6092144754,-7949583.230675224 L 2110221.8046506965,-7946339.929620606 L 2123582.3699357053,-7932931.909565874 z" /><path fill-rule="evenodd" fill="currentColor"    d="M 1839945.9846884748,-7616470.101815738 L 1834227.725085406,-7606379.236413768 L 1829161.9090178765,-7607093.204560606 L 1825781.024762994,-7620555.444344372 L 1824987.428113129,-7655303.981019451 L 1827009.4353438977,-7672530.284727325 L 1851284.4314232238,-7734990.44399982 L 1862122.8310053295,-7740115.053547772 L 1877364.0277677993,-7778674.277654284 L 1881473.386770433,-7795891.293807721 L 1888082.9815362836,-7811429.22673178 L 1891985.6202445147,-7825347.990304774 L 1895257.8566763827,-7830977.084820152 L 1902367.4985948768,-7828338.241833954 L 1905530.97588424,-7825770.826258836 L 1898040.8439462148,-7817661.478720773 L 1898910.4718082913,-7807120.041265617 L 1898388.7173549433,-7802753.078445731 L 1879483.8848309757,-7757095.304348382 L 1874428.8667540532,-7727593.385329835 L 1867721.4221557956,-7720412.113219222 L 1839945.9846884748,-7616470.101815738 z" /><path fill-rule="evenodd" fill="currentColor"    d="M 1267737.6419307122,-8188285.098519907 L 1276912.8170008755,-8160856.547282438 L 1285022.664544147,-8157299.810524183 L 1296067.5617816742,-8164425.767103141 L 1303796.9193054142,-8184419.391391814 L 1308210.5144763861,-8214521.595279209 L 1313363.4937052066,-8243309.451132975 L 1307264.7440826064,-8274228.856828469 L 1300752.999149163,-8301490.443800077 L 1300296.4779174197,-8309518.728738896 L 1317385.6895465492,-8332622.112691345 L 1322614.6999875817,-8351465.881569259 L 1328278.5243596525,-8369448.306028706 L 1334529.3364066766,-8375578.690369196 L 1343834.9779200496,-8376976.413571253 L 1354673.377502155,-8380369.513550118 L 1368338.2902749924,-8392446.955904992 L 1380590.0021122093,-8408657.531889603 L 1389949.9675370895,-8423551.31013963 L 1393124.2428170594,-8453112.089218237 L 1393254.7092602693,-8468008.648630582 L 1397374.86625351,-8479088.068509523 L 1401364.5568035408,-8500779.399836155 L 1397483.625396015,-8522236.716939254 L 1385405.7946034172,-8554907.35513502 L 1370860.3446584048,-8601098.658396402 L 1368577.5158607073,-8626439.971786572 L 1375208.8179272625,-8631150.603140749 L 1387884.43438542,-8635359.368371196 L 1411865.992287015,-8636583.080697581 L 1414431.5725913274,-8639581.607345292 L 1416855.7771423326,-8650721.939975195 L 1422258.6686279844,-8665880.320713427 L 1428031.2521425602,-8676936.583278542 L 1431977.416771691,-8692783.2526621 L 1433879.866869348,-8707167.878849266 L 1420160.6301850034,-8728889.173122628 L 1402190.7700642084,-8751189.087908484 L 1390025.998749301,-8758595.633868927 L 1368349.1995850902,-8777437.403819041 L 1353129.7101233245,-8793229.838723635 L 1361848.2526422539,-8853656.820873389 L 1368338.2902749924,-8898953.25861757 L 1369381.9105011795,-8910010.00616782 L 1369621.136086894,-8927182.052189661 L 1348585.6485091432,-9000874.800376285 L 1349400.952459713,-9017365.819387104 L 1351401.2523897775,-9032246.13975523 L 1349150.9288833912,-9057694.744455034 L 1347922.5183024877,-9080534.882581262 L 1351531.7188329871,-9087475.505321892 L 1360119.7949087066,-9100406.612179993 L 1351933.9161532233,-9120513.654788416 L 1351270.7859465678,-9122146.601006739 L 1335822.980209185,-9172136.203776868 L 1359445.7553919533,-9221978.924435273 L 1355336.5077088105,-9247893.261144128 L 1369447.143722784,-9266753.731142858 L 1395135.4520572217,-9310147.442632616 L 1409583.0521698266,-9334665.547449393 L 1412648.6796267827,-9338960.190854901 L 1424084.9761939389,-9349764.174146919 L 1445772.7959877383,-9362596.639090588 L 1469808.6778008405,-9368860.154096114 L 1480505.7016296384,-9368785.549835443 L 1521815.6967460774,-9360087.949094407 L 1554080.983235563,-9353323.766669687 L 1558777.2185936589,-9360112.871388197 L 1565517.2798027191,-9374058.922641497 L 1574192.407720239,-9393968.925855733 L 1574953.3877593018,-9416175.249246843 L 1571822.527080741,-9448917.713777918 L 1567115.3824125472,-9468585.930304587 L 1544394.8517026587,-9481395.66854678 L 1519543.6659389865,-9499001.42041643 L 1550102.2019956296,-9555044.132870637 L 1571289.8633172952,-9594199.618521687 L 1597706.4237605021,-9653518.716697741 L 1605925.0304462789,-9678350.794773487 L 1611871.4950054737,-9688230.467611805 L 1619644.2671306233,-9780729.819433719 L 1624797.1350399533,-9806824.495959373 L 1629112.8803785176,-9820491.830642143 L 1629178.1136001223,-9834557.794985734 L 1626373.4190295858,-9858334.841066856 L 1618948.5203131654,-9912336.60301251 L 1660660.7127498407,-9919042.268383928 L 1674249.4829909755,-9922848.085996537 L 1686859.8662275283,-9929334.99080541 L 1711526.2616364835,-9946172.858662795 L 1723647.5070304906,-9961089.687375309 L 1716874.8292106276,-10012216.553225884 L 1731800.7691751714,-10029611.326318225 L 1768218.8292687002,-10090514.214966241 L 1807571.9390564843,-10149342.884815797 L 1826031.0483393157,-10171740.285807233 L 1827944.2964275796,-10182707.941034948 L 1829455.3471956078,-10200382.037518708 L 1821258.6704495177,-10228229.000726292 L 1812453.0760887878,-10245540.81265891 L 1795298.5199185628,-10278453.69303803 L 1802658.2967328692,-10301501.32382672 L 1815301.2965802243,-10305991.933524795 L 1831999.2201992155,-10315067.927228846 L 1845022.7100661024,-10334868.30528808 L 1846294.646567906,-10337424.05408785 L 1868341.1377610418,-10415871.573426656 L 1911412.2072218305,-10455955.797460778 L 1928566.6520725645,-10477914.976126537 L 1955298.5806331886,-10461406.413399355 L 1994477.809376354,-10436572.690044515 L 2011904.0964236052,-10473150.433194485 L 2017665.7706280837,-10486767.7010295 L 2023416.5355224637,-10506878.757562654 L 2021111.888104571,-10541803.243630556 L 2020122.5917898908,-10587427.719690733 L 2021851.1608429288,-10605846.226314567 L 2037483.6456155377,-10614062.961020662 L 2045897.840646638,-10616189.194442982 L 2089447.2499593652,-10597224.110401733 L 2100405.3179940735,-10597550.330967259 L 2120929.8491090834,-10594999.906485705 L 2143900.292075803,-10586687.397970567 L 2192015.581622907,-10564614.58416076 L 2211920.5084521617,-10555498.57657708 L 2223030.6389112934,-10553729.7055608 L 2232618.9206117904,-10563994.604268081 L 2253110.835115998,-10590390.413046077 L 2222921.9910882795,-10609990.487029003 L 2242805.0992973386,-10629885.125442779 L 2253110.835115998,-10650002.383836918 L 2261949.04608753,-10674812.02998128 L 2265134.2306775977,-10703958.480194198 L 2263916.618087301,-10719688.265775774 L 2257817.9797841916,-10730416.676154029 L 2239380.689121556,-10757281.146348966 L 2281158.1147798356,-10761138.631801762 L 2295649.240813341,-10762247.48266101 L 2326033.784505874,-10744525.259353647 L 2327360.0449191853,-10740692.33859659 L 2327577.451884704,-10731475.327963253 L 2328642.890731087,-10721938.511818778 L 2358125.0786312497,-10697815.4472418 L 2366626.3255041507,-10685079.482299184 L 2384726.5407486646,-10665772.904436354 L 2389520.7372586587,-10655369.85527419 L 2406283.8940992537,-10643220.446026456 L 2418307.178341363,-10630257.769448895 L 2432352.581133732,-10619759.473583147 L 2448746.1572648943,-10603470.55929297 L 2470749.12253713,-10590523.925175717 L 2489338.5869436804,-10586302.256051091 L 2536127.6160774734,-10564186.547198543 L 2544106.997177535,-10557031.765755186 L 2557608.82689636,-10541685.439402707 L 2571241.1230583955,-10523966.439245487 L 2580666.3217048803,-10487716.43553477 L 2595809.6686349437,-10485833.740958523 L 2599918.9163180864,-10473398.02333269 L 2613138.105849788,-10452150.2803812 L 2631466.6373699186,-10433458.493452912 L 2630803.5071632625,-10427176.248287868 L 2616214.5312973503,-10410009.385441493 L 2614649.156617815,-10386812.783201026 L 2616029.7409426337,-10357303.178527249 L 2620606.530487108,-10333326.833716746 L 2620128.1906351694,-10326336.800011354 L 2616508.0807945724,-10318100.482070548 L 2612159.718845206,-10305195.989965566 L 2610605.1421562773,-10293947.312090356 L 2610985.632175809,-10288443.385774225 L 2612453.1570229367,-10285451.985227063 L 2620138.9886257765,-10285225.280425625 L 2633912.660541119,-10282575.331049673 L 2642011.598774293,-10277604.086837832 L 2646609.9842999815,-10250319.502288124 L 2645055.518930544,-10245089.733195987 L 2633445.229999278,-10232784.86142803 L 2630042.5271242,-10223030.002293598 L 2629705.5630255686,-10208717.417418672 L 2631760.1868671402,-10193021.8696445 L 2635749.8774171714,-10175491.95026577 L 2644838.000645534,-10156796.084228892 L 2657122.3290935536,-10137290.129997239 L 2665188.6507159253,-10121340.099886082 L 2669004.348901846,-10110123.47858543 L 2670395.842536762,-10102292.515272265 L 2664862.4846079,-10092457.292638445 L 2659883.609062681,-10073048.976738663 L 2658959.545969606,-10050884.954061307 L 2656698.313153122,-10036471.83314935 L 2645881.620871721,-10016687.104050547 L 2638402.3982437933,-10009682.609789245 L 2636271.6318705194,-9999270.268940546 L 2635358.478087542,-9981829.128117107 L 2637554.477682421,-9960629.856414435 L 2638304.548411386,-9946334.844568597 L 2640609.1958292793,-9936057.308063604 L 2644000.989394259,-9929362.014971318 L 2661351.133909808,-9917536.544599866 L 2671069.882053515,-9893383.169017468 L 2677124.9944357243,-9874066.859820463 L 2688974.508952705,-9823753.468282072 L 2659481.3004229534,-9817496.570193877 L 2637315.2520967065,-9830069.526989395 L 2626259.4455490815,-9823766.777554888 L 2606919.7990940753,-9823501.683342725 L 2584960.35974274,-9818556.639860222 L 2577557.168327024,-9808729.881546587 L 2571741.1702110386,-9804787.437510349 L 2551368.8128399434,-9818649.464670936 L 2532137.9255274422,-9841614.475745598 L 2518081.724744466,-9824098.431084838 L 2508982.5808865153,-9820783.417938767 L 2500807.6114411294,-9836630.212852376 L 2493665.352911833,-9839208.192786708 L 2489806.128805012,-9833920.167846883 L 2486425.244550129,-9819921.723009428 L 2481044.0603651823,-9808928.55281552 L 2479641.6574201686,-9801983.828645315 L 2478706.796336487,-9774023.633360827 L 2477304.393391473,-9767560.971395493 L 2458627.8771431227,-9771166.80782135 L 2459747.6399010117,-9763851.692323085 L 2463813.361663255,-9760170.754204618 L 2465454.990193983,-9755533.028118534 L 2458682.3123741206,-9749441.59733295 L 2440136.2625689795,-9750018.8945814 L 2438244.72178142,-9743565.171154788 L 2443462.822912355,-9733371.62726057 L 2439397.101150112,-9724461.305065196 L 2435624.8175656004,-9720957.836959561 L 2413480.476540058,-9715431.773639368 L 2400663.4843285927,-9716698.525431126 L 2396999.959886586,-9710940.874316327 L 2395978.1582805947,-9703466.963274881 L 2398402.3628315995,-9696143.961739257 L 2404055.2778935726,-9692251.274776679 L 2405914.20207033,-9687606.020738345 L 2405522.9140601913,-9677558.57384078 L 2400815.7693919977,-9675740.36838411 L 2387455.204106989,-9693396.805505954 L 2383389.482344746,-9692485.590847956 L 2386444.2004916044,-9683301.938627897 L 2394075.7081829375,-9673299.457664752 L 2398489.303353909,-9663103.871976228 L 2402348.52746073,-9650852.573835583 L 2401598.456731765,-9641581.033573875 L 2385009.1809357884,-9611716.22294777 L 2370409.4070792687,-9592916.118995098 L 2359516.5722661656,-9576021.927959995 L 2353091.8791745226,-9558159.34999696 L 2360527.57588155,-9549174.876900459 L 2368800.506478834,-9536228.896580711 L 2374616.504594819,-9511409.99199439 L 2381552.265468694,-9489358.397234734 L 2395554.142340163,-9468346.29209579 L 2392738.5384595287,-9456227.01483288 L 2389477.211337758,-9446818.22441301 L 2366180.6022630143,-9426145.012856781 L 2339763.9305003164,-9395104.578258257 L 2311292.6348960474,-9316278.138383966 L 2301824.0216481527,-9305783.868459268 L 2276896.693352778,-9292536.64216112 L 2267732.427592713,-9279744.015674712 L 2249175.579796965,-9264560.417957539 L 2216779.8268642696,-9251548.955182994 L 2202082.203175343,-9233448.353610296 L 2195450.7897892967,-9214772.925137278 L 2188069.4169937763,-9213446.993250443 L 2180753.16610037,-9220736.93682796 L 2170991.0033552544,-9226169.610774023 L 2169719.06685345,-9213994.327578777 L 2170132.1734837843,-9205070.821777515 L 2154510.486701782,-9218301.972402139 L 2147139.911896869,-9206164.496015996 L 2141378.2376923906,-9185936.406530498 L 2118896.9325682167,-9158785.105363473 L 2094665.3510903001,-9163663.633217957 L 2091947.597042073,-9158881.768111879 L 2098394.108753911,-9155418.053188667 L 2099372.4957584934,-9151087.92977326 L 2094969.8098976198,-9148785.231841693 L 2088305.7799007713,-9149026.182837391 L 2078021.8627023068,-9143676.070569325 L 2071259.9828730512,-9144097.438781597 L 2068053.0909822783,-9131315.72754059 L 2062824.0805412463,-9115844.354740277 L 2049137.4604677039,-9109451.90271382 L 2042071.233150619,-9108133.34877241 L 2038581.7010727224,-9099365.046155266 L 2059638.8959511784,-9097521.59080232 L 2057953.8528190402,-9090105.255124522 L 2057475.5129671015,-9082696.347686594 L 2055301.3319924183,-9074758.524733024 L 2031363.3000117235,-9063338.314660685 L 2027677.9569495213,-9054351.030859716 L 2022677.374103597,-9048785.613755448 L 2012034.562866815,-9049106.727956282 L 2012425.9621964442,-9054291.583842097 L 2014165.3292400888,-9060158.74883108 L 1998304.4168723722,-9059635.013035309 L 1993358.1579379549,-9072539.85424488 L 1990346.8543925064,-9069224.854846636 L 1992129.6360375604,-9058813.644147266 L 1996282.4096416035,-9048001.269388635 L 2000902.6137874876,-9032174.974303683 L 1997152.1488231714,-9022184.327698769 L 1992955.8492982285,-9017235.660506573 L 1996010.678764577,-9012668.74747055 L 2004479.1977071846,-9009192.445773715 L 2007903.6078829672,-9002964.980608752 L 1997858.6936312364,-8997628.269703291 L 1985324.4529263861,-8979345.468999567 L 1972333.4683508114,-8978898.233951194 L 1964386.8151810425,-8966853.847256642 L 1955950.8015297467,-8966888.987521851 L 1949091.1831875744,-8974473.432293206 L 1938100.609861554,-8980711.214921575 L 1934556.6425526598,-8969721.953857454 L 1933991.3621784113,-8960991.917755077 L 1940187.8503139282,-8938949.432319263 L 1952015.5462107135,-8921936.15714709 L 1962973.502925931,-8914605.386541381 L 1955092.0829777673,-8909660.181669777 L 1949221.6496307838,-8898685.508966759 L 1942144.6243230922,-8864516.912472354 L 1938296.3095263692,-8851112.096187763 L 1934121.828621621,-8827511.773347137 L 1936763.4401381456,-8807654.16716656 L 1938883.297201322,-8797912.33720517 L 1944242.7740855643,-8784710.533053996 L 1929675.505520356,-8786406.597462455 L 1914293.0443240697,-8794124.87806407 L 1916434.6086879503,-8778112.89725121 L 1906987.7027407608,-8759234.995533757 L 1908748.77708511,-8742627.779216852 L 1910716.460404372,-8731823.716399308 L 1907792.097381233,-8713996.22169863 L 1912238.4204824977,-8708403.724986462 L 1914651.7157234051,-8697809.02313724 L 1910672.934483472,-8690000.173743285 L 1912444.9181379192,-8683284.810165357 L 1913108.048344575,-8659547.248941392 L 1916130.2612001214,-8622572.57841051 L 1915021.4077523295,-8614776.762346596 L 1923479.0173848395,-8582818.859246392 L 1921511.3340655777,-8571648.302812543 L 1920369.975326474,-8557439.394192725 L 1932491.1094009907,-8543812.4755174 L 1943307.8016823914,-8544034.308223335 L 1954265.8697170995,-8544245.02146299 L 1958451.1486124545,-8540830.988145992 L 1962647.4481373976,-8531206.991130605 L 1966028.33239228,-8519860.52933044 L 1975051.3337185287,-8520800.002332577 L 1989455.4079102338,-8530033.88844051 L 1998826.2826452116,-8532236.330496008 L 2005011.8614706304,-8514492.160644539 L 2021840.2515328315,-8491119.917440332 L 2031635.03088875,-8480670.601035524 L 2048278.6305962338,-8475176.979253536 L 2065813.6767859901,-8456408.782348298 L 2063356.7443046917,-8433854.096935248 L 2070672.9951980978,-8426332.896461414 L 2091360.60936712,-8417457.212108394 L 2098676.7489410355,-8405501.819137005 L 2102188.099639128,-8395325.616519406 L 2107634.5170456795,-8386899.475315885 L 2114004.997545306,-8361495.076963761 L 2111787.2906497223,-8345884.370821036 L 2103449.126830834,-8340522.631224143 L 2083761.7182865895,-8323847.658091715 L 2074988.7405366625,-8311419.861264372 L 2068107.4148937855,-8303689.70051188 L 2048550.36147326,-8287140.471020763 L 2041386.395643259,-8284175.223232053 L 2034526.7773010868,-8275586.303870114 L 2027895.4752345316,-8271835.268717752 L 2021959.808665943,-8273993.77516139 L 1999772.053038991,-8258470.389220729 L 2001500.5107725381,-8251850.331705206 L 2018513.6911894558,-8249048.379805103 L 2027188.8191069756,-8252372.350957308 L 2033863.647094431,-8260166.417293694 L 2041158.079367642,-8261958.765607528 L 2047811.2000543927,-8260486.486722398 L 2054866.51806138,-8266633.845620179 L 2060399.875990241,-8269089.842993753 L 2066118.0242738188,-8266142.525163512 L 2072499.3027640528,-8251413.452535102 L 2059258.405931647,-8243756.316705165 L 2049865.8238959643,-8243405.143495434 L 2045278.2363608824,-8219336.559563541 L 2039592.7046881071,-8209021.2648241585 L 2035516.0736157664,-8204064.667205964 L 2014676.28570283,-8193865.590279694 L 2000924.3210881923,-8180956.864650916 L 1984715.6466312376,-8170578.508814487 L 1977638.6213235457,-8172834.3060995145 L 1966974.1027860597,-8162298.864165923 L 1943275.185071589,-8149843.999730323 L 1931132.2323768772,-8133098.8670607265 L 1903878.5493629046,-8118149.062723917 L 1889996.2296245478,-8106007.960989137 L 1852284.5257285105,-8105370.718443506 L 1816268.7742747085,-8108035.387341909 L 1804962.9441507624,-8102268.308093372 L 1816518.7978510307,-8100482.578436307 L 1824617.7360842046,-8094825.596509821 L 1834325.5749178133,-8097184.057649974 L 1857143.9554601093,-8094356.1729200315 L 1868884.7108345851,-8091279.262073273 L 1883951.9152329455,-8071512.50530503 L 1872874.290065125,-8064495.292149011 L 1853686.928673524,-8059114.685459111 L 1860883.6224338189,-8031214.333768544 L 1866819.177682916,-8012461.773176586 L 1859046.4055577663,-8001170.823718162 L 1858470.2158734202,-7950012.870143554 L 1847566.5830697098,-7949040.872059569 L 1842935.4696137283,-7927981.360117018 L 1846370.6777801178,-7917264.642010804 L 1846098.9469030916,-7892433.526432613 L 1848370.9777101823,-7877174.6707316935 L 1853719.545284327,-7863150.225736891 L 1851338.7553347312,-7848555.961522971 L 1834097.3699616871,-7814504.569516765 L 1834488.6579718255,-7798579.0576735 L 1837586.902039584,-7789136.036027418 L 1839880.75146687,-7774063.583203381 L 1832042.7461201157,-7745173.349785024 L 1826509.3881912543,-7721116.881103323 L 1819932.2987167155,-7700928.10144315 L 1805212.9677270842,-7676773.841361752 L 1797885.9188430705,-7658769.6964979945 L 1780742.2719829434,-7602858.64640102 L 1772241.1364295334,-7591809.293065846 L 1761815.7321582711,-7583330.184110768 L 1750194.6452363979,-7591174.714401874 L 1739541.0360090097,-7595451.6372993 L 1726528.3441327296,-7594933.968302806 L 1706145.1887710274,-7588500.423629375 L 1675488.8028819768,-7592775.856743816 L 1645528.1638103845,-7590715.90710848 L 1637951.0913500497,-7585163.813382913 L 1642495.152964231,-7565018.512748142 L 1631450.1444072132,-7562382.585435427 L 1620655.270746008,-7568103.208722424 L 1611153.9295678204,-7561273.861457143 L 1603218.0743886589,-7553790.221863528 L 1587629.0042174596,-7536062.333580896 L 1582410.903086525,-7525166.33952378 L 1581062.935372509,-7504684.9460170185 L 1589248.8141279924,-7486366.543308529 L 1596510.6297904006,-7464969.604834547 L 1577812.4062413455,-7439227.768632564 L 1567376.2039794761,-7438356.694754701 L 1536915.629074731,-7445489.876791669 L 1482930.0175001342,-7429385.079665181 L 1434445.1472435964,-7442118.8518884005 L 1440543.7855467058,-7455899.943049924 L 1440337.287891284,-7466045.295327299 L 1443076.7492402159,-7481678.269860181 L 1444707.357141356,-7497699.623165734 L 1444250.8359096127,-7508440.951980466 L 1440695.9592906204,-7519903.174309548 L 1428737.796950625,-7534928.417771959 L 1401799.3707345792,-7585856.431917318 L 1393830.8989446154,-7607455.222215055 L 1388286.6317056562,-7616470.101815738 L 1392276.322255687,-7616959.939133728 L 1414464.18920213,-7605342.458218845 L 1419638.7644121645,-7606770.468305325 L 1425074.2725086184,-7611134.266458172 L 1418453.8797521612,-7627780.84669596 L 1412768.2367598945,-7635327.3448389685 L 1408909.0126530733,-7646626.517767708 L 1421899.9972286483,-7649685.184322154 L 1431281.669954233,-7649006.516463905 L 1438195.6122079124,-7661744.442606142 L 1434205.9216578817,-7682383.050376953 L 1424128.502114839,-7688747.567382572 L 1415714.3070837385,-7691516.4569741255 L 1399581.6638389956,-7724086.324739722 L 1382753.273776795,-7741010.843848942 L 1352738.3107936953,-7806648.066075984 L 1341758.646777773,-7852030.174521082 L 1331550.64947203,-7847707.765256893 L 1326593.4812275148,-7867552.161884942 L 1323038.7159280132,-7886393.16259517 L 1322332.0598004574,-7900277.844147202 L 1306329.8829989245,-7908242.456476198 L 1305677.6621023666,-7917998.386732029 L 1302796.8250001275,-7961688.328322784 L 1285631.3595198046,-7967574.033364265 L 1274532.0270512798,-7992222.2718850905 L 1272553.5457414107,-8039080.523252569 L 1261247.604297974,-8047639.284042982 L 1252148.571759513,-8045265.610001628 L 1252572.5876999449,-8056934.4425347885 L 1254746.768674628,-8067904.394210547 L 1249430.817711286,-8111527.155322349 L 1247658.8340568389,-8151567.950457605 L 1243343.0887182744,-8163699.1920506265 L 1240897.0655470737,-8177928.285889852 L 1243093.0651419526,-8190240.023539927 L 1246310.866342823,-8197323.518128905 L 1257388.4915106434,-8199185.47889995 L 1267737.6419307122,-8188285.098519907 z" /><path fill-rule="evenodd" fill="currentColor"    d="M 2132474.9048187444,-7951077.224157373 L 2130474.6048886804,-7938018.378927327 L 2124702.021374104,-7939009.464586718 L 2119440.5056417603,-7948651.940324984 L 2130083.2055590507,-7963400.352432356 L 2146368.0225477084,-7962600.65957152 L 2151966.6136981742,-7959526.129473329 L 2132474.9048187444,-7951077.224157373 z" /><path fill-rule="evenodd" fill="currentColor"    d="M 2050083.2308614836,-8186679.605182674 L 2045147.7699176727,-8184620.079246816 L 2042701.7467464723,-8185274.731251668 L 2045745.6669027235,-8195324.715079731 L 2048006.8997192075,-8199672.170142102 L 2055507.8296478395,-8203736.397416484 L 2057801.679075126,-8203027.219381587 L 2050083.2308614836,-8186679.605182674 z" /><path fill-rule="evenodd" fill="currentColor"    d="M 2070031.5722921472,-8282751.992912065 L 2067237.6757122178,-8275500.9225112405 L 2064432.9811416813,-8284389.36702306 L 2065552.7438995705,-8286134.091595858 L 2067465.9919878345,-8294917.445804969 L 2072868.8834734864,-8299742.095831116 L 2081500.5967895964,-8296846.884434734 L 2081446.161558599,-8294649.44093234 L 2073195.0495815105,-8287536.701935549 L 2070031.5722921472,-8282751.992912065 z" /></g></g>
</svg>
