<?xml version="1.0" encoding="UTF-8"?>
<svg xmlns="http://www.w3.org/2000/svg" viewBox="1489256.9720788607 -5919786.534132141 349319.2262754028 230573.120083726">
  <g id="map"><path fill-rule="evenodd" fill="currentColor"    d="M 1838576.1983542636,-5860823.98157452 L 1828716.1857767403,-5864788.9058645675 L 1816866.6712597592,-5866440.137131021 L 1814638.166373569,-5864299.178445824 L 1809876.5864743777,-5862119.114291419 L 1807463.2912334702,-5858226.52809414 L 1809311.306100129,-5842925.306604399 L 1806430.46899789,-5840301.667134838 L 1792961.2558898672,-5841814.372059292 L 1788515.0441080928,-5840057.399729204 L 1781187.9952240798,-5829420.910303253 L 1773686.9539759567,-5824952.920016625 L 1764142.19819636,-5821768.356846571 L 1757097.6781799796,-5817924.93271144 L 1748183.435996236,-5814585.890441774 L 1740584.6562351964,-5812575.22191151 L 1737584.1506803543,-5807943.096029102 L 1735757.8431144,-5802811.165695736 L 1736236.1829663387,-5797870.555177685 L 1743954.6311799812,-5788122.543079344 L 1744998.251406168,-5777736.076644399 L 1744161.1288354027,-5765049.344892811 L 1742389.1451809553,-5758287.391516148 L 1739345.3363441948,-5753792.664570097 L 1720342.7653073107,-5747974.708724035 L 1700633.5381428709,-5737603.952883892 L 1700176.905591637,-5735229.267356831 L 1709167.2903070832,-5726016.370594747 L 1709526.07302591,-5723722.475380684 L 1702090.2649993917,-5718491.275906334 L 1701361.9015711313,-5713247.71319702 L 1702209.8221325036,-5707184.680994568 L 1706155.9867616342,-5700947.235273914 L 1707580.0970073526,-5695349.664378229 L 1696741.6974252472,-5691281.580149083 L 1682087.4883377296,-5692769.10860027 L 1664737.343822181,-5700567.167906465 L 1658660.4128197765,-5699419.599068468 L 1652768.2721720883,-5695396.1719947 L 1646756.5743912884,-5697124.744265398 L 1640136.1816348308,-5701932.182052123 L 1630776.2162099506,-5711943.147636511 L 1626221.2452856717,-5718087.227993315 L 1624351.4117988169,-5724640.026371698 L 1621796.740804602,-5725588.728752546 L 1617915.6980775853,-5723683.622475502 L 1614708.8061868127,-5715717.733405539 L 1606044.5875793907,-5701497.9089647075 L 1599652.3997790592,-5697636.284095304 L 1589977.1775562528,-5698458.111377507 L 1576420.9126064295,-5698225.496110138 L 1567995.9195847223,-5697062.669262001 L 1557668.365145867,-5702079.591903811 L 1555168.1293826501,-5701117.818191195 L 1555146.3107624548,-5697822.363567309 L 1551308.9052758287,-5692614.235442157 L 1544971.0413870045,-5689213.414048415 L 1515640.9159112652,-5696892.163668657 L 1511488.253626713,-5703266.425072117 L 1518097.8483925636,-5706292.124805837 L 1527283.8214533336,-5714506.02103398 L 1533534.7448198483,-5713612.733048917 L 1541187.959811886,-5715344.832365143 L 1544525.3181458684,-5718841.072999417 L 1539676.7977243671,-5729283.3709368445 L 1527490.430428246,-5742176.192087779 L 1521011.3021056054,-5747078.220064197 L 1512096.9486023707,-5750329.639140794 L 1510564.1905336382,-5753808.3222517455 L 1515499.6514774486,-5774208.937037872 L 1514010.3080101253,-5777110.343901552 L 1503835.0386346756,-5776148.281819887 L 1501443.339374982,-5778283.669064093 L 1500617.1261143144,-5781828.297340015 L 1501302.0749411653,-5786689.562610454 L 1508161.6932833376,-5794640.837935789 L 1515793.2009746705,-5801705.106859251 L 1517836.9155061443,-5805667.155980981 L 1517565.1846291176,-5808767.304402713 L 1507792.112573904,-5811907.781108817 L 1501899.971926216,-5815128.044995544 L 1497225.4438688247,-5816243.507954651 L 1494018.4406585614,-5814436.763554611 L 1491637.6507089655,-5816471.348088659 L 1489256.9720788607,-5822373.747643999 L 1491626.8527183586,-5831380.2965468485 L 1500421.5377689907,-5839710.693618053 L 1509857.5344060825,-5847118.7170089325 L 1518076.0297723683,-5852520.936049703 L 1522815.902370855,-5854840.674341001 L 1525077.0238678479,-5864117.499262802 L 1529968.9588907585,-5863153.837297746 L 1539698.616344563,-5862656.1133751115 L 1550547.925236766,-5860547.609943069 L 1560657.9613906112,-5857958.159672494 L 1569550.4962736503,-5854682.784765238 L 1588226.9012025099,-5851258.877817045 L 1605218.374318723,-5849192.510882422 L 1610338.6256172506,-5847284.221477455 L 1614524.0158320956,-5847434.066255148 L 1619676.8837414258,-5844635.554653965 L 1622720.6925781863,-5846771.732860001 L 1624927.601483163,-5850509.515402401 L 1634189.7170756354,-5854927.458252072 L 1642712.5599297502,-5860697.68076346 L 1648702.5504098455,-5868052.186989905 L 1652050.8180539254,-5873862.778555567 L 1657910.342090811,-5877983.797514461 L 1664161.1541378351,-5879170.6157598635 L 1669868.504430806,-5881236.263169897 L 1693947.8008453175,-5883991.000191481 L 1718690.3387859755,-5881829.872201339 L 1730496.327382056,-5885883.437654586 L 1740214.9642062718,-5892989.479835781 L 1754423.4500526527,-5894986.951594705 L 1755162.7227910112,-5895074.133222686 L 1776393.798714086,-5889614.048748496 L 1778024.5179347163,-5892791.46193104 L 1778937.6717176936,-5894194.23927421 L 1778535.363077967,-5909712.1649267385 L 1785253.7169863225,-5916782.0791492965 L 1791471.9124225439,-5919786.534132141 L 1812681.3923644049,-5918808.756129696 L 1815453.4703241389,-5914040.928506041 L 1816562.3237719305,-5906647.7675034115 L 1818453.8645594902,-5896754.943784035 L 1821987.0338777776,-5894019.894392841 L 1823921.9892667462,-5890129.042522176 L 1823552.4085573128,-5883294.290357797 L 1827694.2728512578,-5878197.52314153 L 1837402.111684867,-5864409.676170112 L 1838576.1983542636,-5860823.98157452 z" /></g>
</svg>
