<?xml version="1.0" encoding="UTF-8"?>
<svg xmlns="http://www.w3.org/2000/svg" viewBox="1877146.62080228 -6376894.743401317 631846.8693943326 309307.206475365">
  <g id="map"><path fill-rule="evenodd" fill="currentColor"    d="M 2508993.4901966127,-6287206.9275394725 L 2507373.68028608,-6280190.31833582 L 2502818.709361801,-6272020.086461482 L 2497122.268378927,-6263592.88430518 L 2492382.507099931,-6253421.81574501 L 2486055.5525212046,-6231714.9527962925 L 2481891.9809265547,-6221722.164462487 L 2464933.1244211444,-6201960.533705102 L 2463704.7138402406,-6174552.830231072 L 2461421.7737230523,-6172547.038342165 L 2423090.4655412594,-6163285.736748897 L 2418024.5381542393,-6164708.635771322 L 2412806.4370233044,-6170034.38614207 L 2409914.8019304583,-6173906.089805349 L 2408121.1109753065,-6176763.889220371 L 2404794.550631931,-6184342.927713994 L 2400402.662761664,-6189721.948122105 L 2393890.917828221,-6194119.5800356325 L 2387955.251259633,-6199225.611321054 L 2380280.32896689,-6199430.95227329 L 2359571.007497164,-6192224.112390587 L 2345199.43859677,-6191436.404942521 L 2335611.1568962736,-6193750.334916153 L 2322859.509225904,-6198117.091205462 L 2297986.5048420364,-6198798.632363698 L 2280940.7078143163,-6194964.853668003 L 2279266.5739922766,-6189623.509634242 L 2263547.0373778674,-6156166.597137641 L 2240706.949534867,-6143871.020153358 L 2220867.367246708,-6131283.768606182 L 2215105.69304223,-6128734.345911571 L 2205245.6804647064,-6132684.998154274 L 2194015.8815529714,-6140159.871844989 L 2184688.532738894,-6144050.6380814975 L 2177883.2383082286,-6142337.487264563 L 2170447.4302817103,-6133866.49394256 L 2167055.6367167304,-6125290.002249118 L 2144585.240902654,-6119015.8678383585 L 2105514.659982503,-6115315.305502282 L 2091904.1824406637,-6106903.579783476 L 2087251.3616839773,-6096787.875896538 L 2087055.6620191624,-6089018.481490322 L 2090360.4037423427,-6082414.280927258 L 2086196.8321476926,-6074722.495198267 L 2084370.5245817383,-6071518.272711818 L 2056768.9681590365,-6069835.77109214 L 2019959.5087358789,-6067587.536925952 L 1997956.5434636436,-6068161.713329212 L 1977247.221993917,-6068703.46489238 L 1963147.4952900407,-6075289.025562495 L 1945938.615208309,-6088175.476910171 L 1927751.3481219944,-6105344.046662487 L 1926001.183087743,-6105750.080216136 L 1923294.2270301227,-6107577.884887498 L 1911868.7284535733,-6108861.590136124 L 1908835.7176074197,-6107845.924651667 L 1901997.917885443,-6113437.236070764 L 1899986.7086452811,-6120716.193525527 L 1889387.4233293994,-6139874.452723042 L 1877451.0796095997,-6171466.624539203 L 1877146.62080228,-6180605.760143348 L 1881799.441558967,-6191034.51402818 L 1886126.096207629,-6199003.963012444 L 1886734.902502777,-6205337.172143417 L 1887213.2423547162,-6207063.026171788 L 1890789.8262744134,-6220215.527318019 L 1899475.7521825398,-6237742.83634582 L 1907531.2758143041,-6247936.182979903 L 1913412.5071518943,-6251298.169110958 L 1925479.3173149037,-6248233.536302671 L 1946156.0221738282,-6245690.132510631 L 1962049.551152347,-6248068.451485448 L 1976866.7319743854,-6255901.515890999 L 1984922.1442866593,-6262757.182913122 L 1991803.5812490273,-6269966.382567104 L 1994097.3193568226,-6274645.904325537 L 1997152.1488231714,-6276891.508640981 L 2009414.6586509952,-6281060.856678319 L 2013317.4086787163,-6285921.015934006 L 2014926.3092791515,-6295134.527927459 L 2015991.636806043,-6305422.38797165 L 2018513.6911894558,-6313050.952138137 L 2021666.3704882124,-6318645.578885819 L 2044365.0825779056,-6332106.360143604 L 2046397.8877992816,-6336837.43651027 L 2050039.7049405833,-6341454.195307719 L 2056747.149538841,-6346616.643217318 L 2063258.8944722845,-6354081.765397261 L 2070151.1294252593,-6358666.201896834 L 2079021.957007594,-6358155.858554193 L 2087207.835763077,-6359101.337816644 L 2093589.1142533107,-6361712.798914585 L 2096393.920143338,-6361980.590346796 L 2108188.999429321,-6359837.812659754 L 2110308.856492497,-6351272.170576265 L 2111548.065064008,-6342364.441697633 L 2131703.015469584,-6343007.591428779 L 2142921.9050712213,-6362089.4580664765 L 2148727.1051965994,-6364391.955598683 L 2158065.2520012837,-6371043.222016093 L 2164229.2348454893,-6376894.743401317 L 2168468.9489718415,-6373230.754586091 L 2174600.2038857536,-6360950.960197906 L 2181090.1301990016,-6351071.496753837 L 2184829.7971727108,-6347176.429829774 L 2185231.9944929467,-6344143.657842204 L 2189004.2780774585,-6342331.088200849 L 2196342.2362715695,-6341228.786878626 L 2201223.373303873,-6338248.081171206 L 2202680.100160394,-6329087.388641454 L 2202788.7479834077,-6320794.595381475 L 2200495.0098756123,-6314865.405486036 L 2199299.215905511,-6309614.381094007 L 2204375.9412831385,-6307559.686183199 L 2211800.839999559,-6309547.763027497 L 2217051.557741296,-6312509.964758581 L 2232803.7109665074,-6305680.21797392 L 2238369.685506171,-6320927.839502966 L 2244609.699562588,-6328720.40341419 L 2252719.435786369,-6332348.266373179 L 2260068.3032905776,-6337112.811579262 L 2266797.4551895405,-6340485.563385307 L 2271439.47795562,-6340285.147135576 L 2273439.6665661936,-6341696.370738407 L 2279212.250080769,-6341329.005661129 L 2285897.8760588313,-6339792.506006701 L 2294975.2012965875,-6341587.767192529 L 2307542.169931731,-6337864.113473681 L 2315391.084588583,-6330813.578163897 L 2323066.006881325,-6328428.56851864 L 2331838.9846312525,-6328837.208515258 L 2337839.7731019547,-6332723.781496765 L 2346547.517630277,-6346132.0155477505 L 2352863.562898906,-6345923.079830762 L 2362756.1920872317,-6348045.533553232 L 2376725.452347898,-6347928.632326063 L 2408914.596305681,-6345054.1957263965 L 2416980.917928052,-6339917.843755758 L 2436798.904234997,-6333341.077332231 L 2445430.5062316167,-6325760.857507742 L 2449267.9117182423,-6316722.027949306 L 2451268.211648307,-6310487.790967146 L 2471575.3357977974,-6300900.235447547 L 2501688.1486133044,-6288667.408793887 L 2508993.4901966127,-6287206.9275394725 z" /></g>
</svg>
