<?xml version="1.0" encoding="UTF-8"?>
<svg xmlns="http://www.w3.org/2000/svg" viewBox="-1479733.9235999687 -1118498.0784551296 335013.0019161054 347796.53418946976">
  <g id="map"><g><path fill-rule="evenodd" fill="currentColor"    d="M -1144720.9216838633,-948034.9604383827 L -1145003.5618709873,-944539.9283671167 L -1148221.3630718577,-928419.8601166786 L -1153249.2191930267,-914595.5392321034 L -1156559.5268907463,-911185.476600035 L -1170719.0321611783,-907550.5505564546 L -1176741.639252076,-901461.8839538053 L -1181943.3764178639,-881823.2323462638 L -1185269.9367612393,-866422.1548067217 L -1190151.073793543,-863843.9469175385 L -1210941.88113053,-841583.6125663101 L -1224541.5606817629,-833140.7003456707 L -1234021.083239755,-825905.0581537031 L -1243006.0133001523,-816456.4076244694 L -1254311.9547435895,-807278.0622422657 L -1266443.9981282037,-791801.9530064757 L -1275113.6713906748,-775711.6672541988 L -1281011.2666934114,-770701.5442656599 L -1285462.9331302345,-775235.2825502561 L -1306161.3452898634,-791117.2206262386 L -1327952.3582516285,-801771.8767130299 L -1374420.675932446,-819530.894862349 L -1389895.6436255823,-824523.7909545061 L -1389341.161241941,-830832.8088296392 L -1384003.5029778942,-842345.8427357515 L -1392656.8122752185,-855901.6907465984 L -1389297.6353210409,-865736.3865473553 L -1392656.8122752185,-865747.3965096276 L -1399309.9329619694,-859817.778699629 L -1413491.145533106,-861534.5876550914 L -1422878.3842332303,-869987.9958141866 L -1430553.306525973,-873087.7938232791 L -1433901.5741700528,-877351.0813291455 L -1438820.6711487167,-899666.698526496 L -1442359.2951220532,-909801.7096467558 L -1449468.9370405474,-916056.383196617 L -1463737.2014534844,-917594.0942146131 L -1469612.9781360256,-931232.4729358556 L -1477516.216704385,-941797.8072728042 L -1476233.3708924833,-948309.8119902 L -1469786.8591806449,-947936.0278137195 L -1464737.2957587712,-943210.0354164449 L -1456616.6502248927,-941237.3851933592 L -1446511.9574066056,-952684.599377381 L -1437461.7941246033,-958884.8251886796 L -1435363.7556816223,-964316.2494093727 L -1436467.1544743655,-967296.1601282906 L -1441962.4411373753,-962667.0011797034 L -1456975.3216242285,-963859.9074648381 L -1460693.2812972332,-959698.447718306 L -1467395.271240442,-958362.5703209443 L -1472580.7557605745,-971760.8449348359 L -1472330.7321842527,-979652.3368130695 L -1470189.1678203717,-988342.820020731 L -1455062.0735359646,-989833.6589541562 L -1453773.884388505,-992628.2393494735 L -1464264.4105618813,-994493.313421886 L -1477391.204916224,-1004601.2033927421 L -1479733.9235999687,-1011568.7717154671 L -1473227.633321574,-1013924.5145903716 L -1467009.326565862,-1012884.2644097917 L -1461611.889735259,-1011381.6528293842 L -1455757.8203534225,-1013869.5028579419 L -1450273.3316810194,-1017695.1385862911 L -1447001.2065686418,-1022583.8228802086 L -1442565.7927774747,-1035711.136007363 L -1428351.9635955356,-1040100.7305694119 L -1419975.7285107959,-1048148.6879658765 L -1412023.6206859783,-1060628.7902380477 L -1408376.3488896275,-1069403.0166929401 L -1405093.3144671523,-1073774.3974102247 L -1403027.781315483,-1077567.3737645755 L -1401495.0232467505,-1081735.634639086 L -1397934.6919727093,-1085556.8483352945 L -1394205.9343090977,-1094844.3579604982 L -1391656.7179699317,-1103312.0488152383 L -1383476.2938694975,-1107378.412341152 L -1366751.096975262,-1110953.9532288206 L -1351678.4379218526,-1104807.2645280287 L -1327234.9041334656,-1110159.3713110578 L -1325935.8056759082,-1118100.7605832126 L -1303557.8050391902,-1118233.1240400665 L -1277048.738099134,-1118376.678456151 L -1254975.0849502452,-1118498.0784551296 L -1247408.810480517,-1116373.184227117 L -1244647.53051139,-1110451.8423750156 L -1237391.1695040304,-1101165.99432807 L -1229797.7330785487,-1094745.063108196 L -1220405.1510428663,-1080660.3842125968 L -1209463.4469733047,-1064271.5889787655 L -1197641.2057315684,-1049476.447043273 L -1190064.0219517425,-1041455.7425082617 L -1189194.3940896655,-1038646.6149217654 L -1189743.3104987673,-1035463.3362803592 L -1193482.9774724762,-1027946.5017455198 L -1196679.071372642,-1019814.5853665577 L -1196352.9052646179,-1016759.4110781797 L -1194108.0364132808,-1015229.0360404622 L -1181764.040718196,-1012691.6158952779 L -1180628.0253146507,-1003632.7564484476 L -1180611.661349504,-991098.8806037827 L -1174616.3275338507,-979404.8780686926 L -1168914.4318959285,-970820.6409455362 L -1169202.5267381014,-967752.5390212534 L -1183155.534353112,-953080.262257338 L -1188596.4971046147,-938517.5274169497 L -1191357.6657542512,-934424.3312952509 L -1192466.5192020428,-931166.5432354198 L -1189667.2792865555,-929639.3869893124 L -1185846.1264455854,-930606.1447697971 L -1180432.325649836,-929392.103814076 L -1175279.4577405062,-928963.6929338844 L -1168457.9106641852,-934188.047739264 L -1157103.0999642897,-947562.3594193006 L -1153276.492468271,-949200.1089150712 L -1144720.9216838633,-948034.9604383827 z" /><path fill-rule="evenodd" fill="currentColor"    d="M -1394396.1793188634,-830142.1576630701 L -1396015.9892293965,-827215.0805947424 L -1403424.6353001609,-834429.0218182353 L -1441766.7414725607,-845246.4243820598 L -1430944.7058556017,-850993.1891924734 L -1404321.4251179916,-852698.7865536637 L -1396412.7318945834,-849348.0739737645 L -1392885.1285508354,-846545.9592650961 L -1391564.3227925736,-841232.7077331805 L -1394396.1793188634,-830142.1576630701 z" /></g></g>
</svg>
