<?xml version="1.0" encoding="UTF-8"?>
<svg xmlns="http://www.w3.org/2000/svg" viewBox="-1952059.0721316137 -1883479.6012779083 684973.6510974593 500416.67215768807">
  <g id="map"><path fill-rule="evenodd" fill="currentColor"    d="M -1367071.8084282372,-1667201.658017546 L -1356597.5349005165,-1648683.1827704506 L -1358858.7677170003,-1639824.9427279697 L -1361261.264967301,-1626882.9693619057 L -1355341.9623638592,-1617465.53020191 L -1348400.858154426,-1611333.1905749126 L -1343443.57859042,-1605695.8827284572 L -1337969.999228115,-1597917.766294827 L -1337078.6640653333,-1582458.2475040364 L -1338073.3037155713,-1571309.2869912938 L -1334507.6291059717,-1566274.248016227 L -1331480.072914867,-1559913.109643564 L -1332088.7678905248,-1554600.273034227 L -1334072.8151749333,-1549915.3569444243 L -1340747.6431623888,-1543703.6538389856 L -1341867.2946007876,-1532151.4256892607 L -1331056.0569744355,-1518161.075422502 L -1324098.588799856,-1510553.8415377443 L -1324169.2766765098,-1506189.4065456097 L -1322228.7553130016,-1501412.2684127463 L -1317097.5947043763,-1495837.12562841 L -1313945.0267251106,-1497149.838952429 L -1310477.2019479186,-1501702.7773382713 L -1308922.6252589906,-1504842.7345525115 L -1299595.276444913,-1503451.5020531153 L -1295197.9339195972,-1502021.2079260682 L -1289229.7620596974,-1492888.0660147609 L -1287039.2171198672,-1486817.7481125554 L -1285604.1975640513,-1479191.238326905 L -1279375.092817732,-1469669.3352649533 L -1273955.9486864246,-1462956.8668132392 L -1272819.9332828792,-1458772.8363397347 L -1267971.4128613782,-1453105.7674308019 L -1270982.716406827,-1440532.00297932 L -1270640.1863336563,-1434093.8329063526 L -1273950.4940313757,-1417216.6680429499 L -1274673.4028045873,-1409246.7215333094 L -1274472.2484847237,-1406306.6024284654 L -1267085.4210341545,-1400299.0946793351 L -1267862.6537188732,-1391766.1012046447 L -1275358.2403119474,-1393268.7411201575 L -1288376.386843276,-1394264.9958445127 L -1314472.2358335075,-1389818.2422794949 L -1323430.0039381515,-1391643.5726687573 L -1340551.9434975742,-1391042.5632740837 L -1352749.2201037933,-1388599.4421677024 L -1368251.349752683,-1383062.9291202202 L -1380258.3813491361,-1384437.2750923864 L -1386748.4189818748,-1388799.7988087267 L -1395303.9897662825,-1388504.8487729987 L -1404941.1407232378,-1390831.0218024533 L -1415208.8052760463,-1395044.2408404625 L -1424590.4780016309,-1397181.684254152 L -1434706.0801300157,-1404948.0043575778 L -1439440.386753963,-1406345.488860542 L -1442761.4924422894,-1404302.0251862651 L -1445555.389022219,-1401713.1193569473 L -1448479.6407258676,-1400115.4201037225 L -1453974.9273888774,-1401523.8491026468 L -1456040.4605405466,-1406802.0946860432 L -1454322.8007976064,-1411908.7180498103 L -1453806.5009993073,-1415785.1273523935 L -1456382.8792942266,-1417896.2438159985 L -1462568.5694391367,-1418603.671982045 L -1472542.684494723,-1418587.015678882 L -1488626.4584830077,-1420185.7219306873 L -1492322.5995358166,-1421171.8227936297 L -1528332.8963345697,-1422503.3344704045 L -1565691.272166829,-1422659.3090220813 L -1597347.7523611663,-1422787.4438264316 L -1637304.21378905,-1422965.7837686508 L -1665405.9286838856,-1423077.14694918 L -1691621.4461267197,-1423188.6246587622 L -1711863.3370546054,-1412810.93199524 L -1733779.3618045312,-1401568.4301194448 L -1763250.751714087,-1395584.229976287 L -1797162.8987503685,-1397810.7490069629 L -1807995.954996916,-1396202.0890292854 L -1819214.8445985527,-1391209.5407688655 L -1827455.1585850338,-1387581.1543755599 L -1839146.933383561,-1385411.0126171825 L -1854241.4110571654,-1387202.6815789766 L -1860350.847350882,-1386117.661708871 L -1864139.4949005402,-1391231.766513016 L -1868482.4021948583,-1399530.8842269836 L -1865748.3955009754,-1405604.94494147 L -1856546.0584750588,-1409514.0507960753 L -1842696.3553475044,-1414626.622091227 L -1835445.3376757028,-1411997.79760805 L -1831200.1688943012,-1411869.7101851688 L -1830412.0268994852,-1415150.2023756497 L -1831765.4492685497,-1416899.1882615746 L -1842207.106185468,-1421350.038732555 L -1847642.6142819219,-1427222.5344612114 L -1852116.09933894,-1423784.7010621035 L -1855980.7781008105,-1416581.5978577542 L -1859193.1246466318,-1414431.6792357971 L -1863921.9766155302,-1412409.8938930705 L -1866601.7707173966,-1417311.353662699 L -1867764.9480766952,-1422074.3231946274 L -1865601.565092619,-1425745.997465274 L -1866710.4185404107,-1446402.8097773069 L -1865422.2293929511,-1457422.8496292862 L -1866085.3595996066,-1467063.3503617998 L -1859540.9980553607,-1473414.1108361776 L -1853333.6006097465,-1477349.0402383632 L -1829074.8571760764,-1477711.8913210947 L -1806528.3188302973,-1478052.4543151753 L -1784791.7410995304,-1477829.184452913 L -1762663.6527196437,-1477611.4037360991 L -1760451.4004791086,-1496903.993610193 L -1753455.8610386776,-1498417.881919633 L -1742965.3348653014,-1500412.272884928 L -1723430.1000649713,-1502764.265069848 L -1701655.3397488622,-1505010.3783505368 L -1697013.4283022734,-1508799.0573207354 L -1693404.2277717742,-1515204.0134997459 L -1691121.3989740761,-1520950.715261754 L -1686615.2973062554,-1523382.7951569578 L -1680522.113658195,-1521453.831110323 L -1672531.8232480353,-1518440.5417716352 L -1664259.0039702423,-1513778.6017951327 L -1654768.5721021525,-1509458.4044481579 L -1648447.072178475,-1506742.6048099734 L -1633271.1086376095,-1499942.9510883521 L -1607294.7054609992,-1490469.7759547867 L -1585943.9610853216,-1486689.3245771232 L -1560130.7522822144,-1493614.1774888877 L -1541497.7619547637,-1498065.9724310648 L -1539182.2052267727,-1506362.5515996865 L -1542090.2042847655,-1514460.5052780304 L -1555956.2713774664,-1521889.9715978126 L -1574833.8306261897,-1521051.3605883103 L -1580628.0101219798,-1519061.079496502 L -1589422.6951726114,-1516590.232379853 L -1594711.4841802,-1515606.3978170664 L -1603609.473718288,-1517339.2937759166 L -1614909.8491871855,-1523751.8628035476 L -1622019.6024251701,-1530216.226203652 L -1631961.1008699543,-1533247.6610417638 L -1643745.3821653302,-1536279.4357516817 L -1662644.6487147582,-1549585.1316514872 L -1672515.5706023795,-1551969.4704346005 L -1681853.8287265548,-1552669.0742442573 L -1699796.4155721054,-1550032.8452319948 L -1717309.6431416664,-1542914.6725339296 L -1726528.3441327296,-1526788.0723310125 L -1744063.2790029955,-1527022.9624094975 L -1781291.188392045,-1527537.4142844786 L -1815480.6322798927,-1528007.2094443594 L -1843707.3589628886,-1526911.1860875112 L -1846544.670144228,-1538623.4091256124 L -1853230.407441781,-1547956.5306280553 L -1864090.5143245913,-1555915.8289029908 L -1866487.556919843,-1563311.8956336246 L -1862807.7798321804,-1569763.436311925 L -1852311.799003755,-1575073.6903861738 L -1849920.0997440612,-1578866.515297118 L -1855415.3864070715,-1578300.7007246313 L -1863726.3882702065,-1574883.2374228546 L -1869248.8368889699,-1574692.6711064335 L -1869917.4217506743,-1584918.4299781383 L -1879130.6680866887,-1598130.894089167 L -1889517.889772609,-1620518.2845233711 L -1901269.554457183,-1629695.4025131047 L -1911140.3650253129,-1647817.9519747845 L -1921446.2121634635,-1654773.8905543513 L -1930925.7347214557,-1658022.2037460334 L -1939013.7636445316,-1657353.3550152786 L -1941970.7432784731,-1649081.9813182165 L -1952059.0721316137,-1660995.464363638 L -1938274.4909061738,-1665262.013769302 L -1908814.010306715,-1680214.9747033885 L -1874999.6017833506,-1723105.356963175 L -1844647.6747016194,-1773987.8878658193 L -1840696.0554174397,-1786013.6894736008 L -1836999.9143646313,-1795151.5566578566 L -1834553.8911934302,-1815983.7846883223 L -1830205.5292440637,-1828421.9425248702 L -1826123.4435166742,-1830782.4135783312 L -1820975.918942902,-1840323.242187766 L -1814763.1781617298,-1857047.5760228727 L -1807718.7694648409,-1866332.9972238312 L -1799853.4908428418,-1868164.3903086097 L -1793722.2359289299,-1867359.283526167 L -1789352.0553593675,-1863912.0394877458 L -1776545.972458,-1861786.2243331722 L -1755309.4418798767,-1860969.853323181 L -1738899.6131030587,-1863464.2199661117 L -1727311.0314724972,-1869270.1964354636 L -1712091.5420107318,-1872219.0476772566 L -1693230.3467271551,-1872292.8029788581 L -1683310.5555830754,-1874731.627231146 L -1682332.0572590027,-1879530.7191032616 L -1679875.236097195,-1880977.422465732 L -1675939.9807781621,-1879071.200441871 L -1672232.9304152553,-1879825.7223012864 L -1668748.7416729166,-1883246.9528932394 L -1665286.2602312826,-1883479.6012779083 L -1661845.597409844,-1880529.2608693778 L -1646050.0295832234,-1879644.1188461066 L -1617888.536121832,-1880812.8902218556 L -1591879.6276539098,-1872020.5483974088 L -1568006.8288948198,-1853279.0537198654 L -1555695.338491047,-1840781.9697743407 L -1554928.9037969352,-1834530.384644611 L -1550971.829857707,-1828229.5078195638 L -1543829.5713284104,-1821885.169520092 L -1537301.4624298203,-1820713.7639586618 L -1531382.2711458697,-1824709.0499605117 L -1526740.2483797902,-1824278.9261043288 L -1523370.2734350055,-1819423.6414146048 L -1516564.9790043402,-1818427.9105953649 L -1508993.3611990542,-1821409.7858129735 L -1503590.358393912,-1820385.5771622194 L -1502606.6280537716,-1817500.0066527221 L -1501361.853507721,-1815961.0757198043 L -1497703.7837207636,-1815276.573046717 L -1492757.4134668552,-1811577.158190408 L -1485843.471213176,-1801652.5000746434 L -1480217.6067874655,-1787804.7557256417 L -1475874.6994931474,-1770052.1939636532 L -1470134.7325893738,-1760399.2077884844 L -1463003.383370175,-1758830.1719869024 L -1458872.3170668366,-1755184.74606517 L -1458051.5584612177,-1750964.4798753955 L -1455980.6819739908,-1748098.6658555118 L -1452556.271798208,-1746502.3702188367 L -1446522.8667167034,-1747455.6524670306 L -1439456.6393996186,-1741465.8083710554 L -1431868.657629186,-1728464.9727032473 L -1430667.4090040356,-1722603.805048968 L -1431863.2029741372,-1719459.7060783599 L -1431401.2270873452,-1717166.6844410584 L -1426357.11832052,-1714975.287685899 L -1421584.629111231,-1710722.622113676 L -1417681.9904030003,-1704330.8892312676 L -1409262.340716851,-1698661.3847600576 L -1396342.1553374205,-1693696.773901359 L -1387025.60451395,-1686279.7378583879 L -1381329.1635310766,-1676412.7110339063 L -1369512.376944389,-1668118.1077318706 L -1367071.8084282372,-1667201.658017546 z" /></g>
</svg>
