<?xml version="1.0" encoding="UTF-8"?>
<svg xmlns="http://www.w3.org/2000/svg" viewBox="4560142.048584988 -1343852.395391712 1160592.6320421863 1532601.2074387562">
  <g id="map"><path fill-rule="evenodd" fill="currentColor"    d="M 4623400.685062155,188748.81204704422 L 4623944.258135699,179602.55224212605 L 4622193.981781957,175045.82073802094 L 4611627.313076877,161376.15284225674 L 4591907.28792183,135876.6055840646 L 4576992.145947893,116609.32082505045 L 4561729.241884719,96886.52584757528 L 4561674.917973211,81121.92450305508 L 4561490.016299004,34211.31523515856 L 4561120.43558957,-59601.322770437764 L 4560761.764190234,-153432.42408697188 L 4560392.072161309,-247296.62644587623 L 4560207.281806593,-294247.5956870164 L 4560142.048584988,-313451.28037981637 L 4561729.241884719,-316547.9538800829 L 4579122.912321167,-333784.55811870744 L 4602147.790518885,-356592.7872003553 L 4632391.069777601,-399952.14756244014 L 4648806.353209469,-423504.2544251324 L 4662503.771273618,-443155.45098541724 L 4665993.414671006,-449132.8733162817 L 4678103.750754915,-461034.2156641282 L 4700845.988765508,-468146.43175207457 L 4714956.624779481,-469329.15984939947 L 4763539.344868426,-478229.83114860806 L 4770779.453230131,-481827.4895507505 L 4775019.167356484,-485943.0983889594 L 4779052.272507924,-495347.0734418786 L 4788520.997075308,-508525.48210812133 L 4800729.182991626,-517588.5249243161 L 4823917.032923864,-529417.9971594771 L 4846659.270934457,-539465.3539867827 L 4851692.581710676,-541101.8156546288 L 4879044.114557056,-547408.2463763339 L 4885751.559155313,-549568.6839052599 L 4896818.275013035,-551778.2365614201 L 4901188.455582598,-551827.4005566142 L 4939193.597656366,-549617.7347005211 L 4968925.920452341,-547893.7136584449 L 4999538.7804204915,-546120.6840248553 L 5002756.581621362,-547473.7200299896 L 5024161.649908547,-570903.6275300276 L 5058188.122061873,-608214.2740956396 L 5079908.447146985,-632019.8235288804 L 5113456.4681288805,-668829.5492195841 L 5139264.33359643,-695413.8015639598 L 5167779.043802109,-724827.4694278652 L 5195478.450057217,-751722.2243971617 L 5228809.064073594,-784101.1420720258 L 5249801.137049936,-804500.2095538832 L 5282425.094938758,-836221.7255576153 L 5313461.970847339,-866416.6497466653 L 5340911.353526127,-893134.380666989 L 5357446.194091105,-918445.3016681481 L 5373698.394468959,-943330.9023999949 L 5391048.538984509,-969924.3754254848 L 5411975.378739245,-1002031.4262860112 L 5431673.696593587,-1032258.2083021587 L 5447762.81391743,-1056969.745107267 L 5447762.81391743,-1069651.0321637525 L 5447784.521218135,-1097150.015444315 L 5447784.521218135,-1115893.0400097808 L 5447795.430528233,-1167896.5283256075 L 5447806.33983833,-1199712.8055937518 L 5447806.33983833,-1230102.3501173076 L 5447817.137828938,-1261428.4291286524 L 5461568.991124084,-1262836.2458430394 L 5497878.292075108,-1270995.6980355063 L 5526132.180713858,-1283283.0840237294 L 5578226.251500895,-1292185.494293886 L 5617872.910785901,-1314716.137230752 L 5624786.853039581,-1325593.198506351 L 5636766.833999772,-1339313.0386403587 L 5654171.302426827,-1343852.395391712 L 5698590.450921123,-1327731.3269209017 L 5705667.476228814,-1326448.477730534 L 5703101.895924501,-1316703.66407621 L 5701579.935846375,-1306773.083495911 L 5692469.993997818,-1289439.6132304817 L 5686675.703182537,-1270191.8655681838 L 5690904.619318283,-1240812.5273644167 L 5692948.333849756,-1193218.9202498898 L 5691904.713623569,-1186311.4180051151 L 5688969.552609824,-1179510.4801266496 L 5687741.142028919,-1174153.48722788 L 5682946.945518926,-1172279.6673262815 L 5680837.997765847,-1169200.8515547838 L 5684327.641163234,-1167973.951005814 L 5698253.375503001,-1173158.4890708555 L 5697949.028015172,-1178830.4367405686 L 5698775.2412758395,-1181639.1265671519 L 5710211.5378429955,-1175303.3911575577 L 5718386.618607871,-1172649.9629711355 L 5720734.680627175,-1166691.6314944252 L 5720104.167031321,-1162607.6259617794 L 5707145.91038604,-1164486.5901384493 L 5700536.3156201895,-1167647.8487334976 L 5681294.630317081,-1162452.9174827426 L 5669510.349021705,-1156838.9392432263 L 5665988.200333006,-1147513.6514557654 L 5663237.718354485,-1110319.3938324985 L 5658682.858749697,-1086180.0328504858 L 5657813.11956813,-1054308.3455317884 L 5642245.756697635,-1033210.8773153778 L 5636995.038955898,-1018339.2248508069 L 5613817.987014266,-988584.9242017197 L 5601729.358231061,-963167.2408672539 L 5597783.19360193,-950766.445777026 L 5577421.745540933,-915930.0799984861 L 5549504.932320305,-889253.9464162578 L 5539394.784846969,-855205.0666882709 L 5529371.689215434,-833869.7907130348 L 5518109.385012386,-814500.1160501658 L 5493453.787594038,-780119.7760983894 L 5480810.787746684,-756216.0164831668 L 5464971.693999162,-714811.5005458636 L 5460144.8808783665,-688579.387896173 L 5415584.467950254,-612571.7164141563 L 5369382.537810905,-552018.3582936495 L 5340585.187418102,-501120.8646184647 L 5288947.749182299,-442098.4926999283 L 5218525.14687513,-365956.957391469 L 5126393.017473457,-275617.7316409921 L 5101357.041355069,-257202.4532398384 L 5000495.46012437,-201539.17398672103 L 4935095.259283321,-154856.95025026886 L 4901699.41204534,-123116.7603301645 L 4866618.52167522,-95500.21789650839 L 4838799.558286998,-69201.00402395094 L 4754690.224586797,19557.084066423322 L 4746015.207988769,27916.902358172247 L 4737840.127223892,35787.622961154935 L 4727251.751218108,50822.67209248581 L 4719881.176413194,56780.25812565644 L 4699791.4592292225,82154.72001731006 L 4687246.309214275,95309.95160305507 L 4673179.199121201,108324.30379638028 L 4667211.027261302,117511.7172623017 L 4662982.111125556,128091.25709042835 L 4658296.673758067,133973.72978516965 L 4645610.259309303,159212.08660705303 L 4634456.491609779,175741.830636843 L 4623400.685062155,188748.81204704422 z" /></g>
</svg>
