<?xml version="1.0" encoding="UTF-8"?>
<svg xmlns="http://www.w3.org/2000/svg" viewBox="4748493.73645128 -1288835.0284947527 699323.4013776574 395700.6478277637">
  <g id="map"><path fill-rule="evenodd" fill="currentColor"    d="M 5447817.137828938,-1261428.4291286524 L 5447806.33983833,-1230102.3501173076 L 5447806.33983833,-1199712.8055937518 L 5447795.430528233,-1167896.5283256075 L 5447784.521218135,-1115893.0400097808 L 5447784.521218135,-1097150.015444315 L 5447762.81391743,-1069651.0321637525 L 5447762.81391743,-1056969.745107267 L 5431673.696593587,-1032258.2083021587 L 5411975.378739245,-1002031.4262860112 L 5391048.538984509,-969924.3754254848 L 5373698.394468959,-943330.9023999949 L 5357446.194091105,-918445.3016681481 L 5340911.353526127,-893134.380666989 L 5303003.949965275,-893134.380666989 L 5266042.428117693,-893134.380666989 L 5229591.862732853,-893134.380666989 L 5223058.299179213,-896400.422831743 L 5192467.25783126,-906748.9136093317 L 5153646.70048743,-919884.2256377377 L 5105477.087028818,-936187.9469922154 L 5071211.611928759,-947793.2005672386 L 5034641.378091317,-959929.2414883412 L 4997527.68249982,-972244.7501598482 L 4968414.963989601,-981918.2799829564 L 4932149.188959477,-993970.6154615365 L 4900601.467907645,-1004447.138436235 L 4896252.994638788,-1007017.1802969545 L 4878772.383680029,-1023018.7145892223 L 4855812.738703916,-1044066.6295365554 L 4851420.850833649,-1044441.2875410328 L 4840451.984808334,-1048815.2697441946 L 4830635.3868322205,-1060187.8401777777 L 4820481.8247574745,-1074728.0820034181 L 4811056.62611099,-1092919.3950060366 L 4806958.287737944,-1105325.7962765463 L 4794413.026403505,-1110551.1790930142 L 4788379.621322001,-1120314.0397461876 L 4776997.648666352,-1134811.2794853759 L 4769105.319408091,-1141852.254774287 L 4766300.513518063,-1147994.2139306357 L 4762658.696376761,-1160695.716544717 L 4756146.951443318,-1174518.368475254 L 4749917.846696999,-1183104.3096842214 L 4748493.73645128,-1186775.9750006357 L 4748841.6098600095,-1189198.1822875633 L 4760364.958268966,-1207950.8797378675 L 4765561.352099196,-1214646.822370467 L 4771475.200047589,-1221133.7934995526 L 4776290.992538796,-1227599.7888125435 L 4778139.118724946,-1232029.234318515 L 4792151.904906513,-1254152.4023242402 L 4804479.647955941,-1273606.9286766546 L 4814122.253567946,-1288835.0284947527 L 4835853.487963155,-1271417.036825054 L 4856997.62336392,-1236127.0676923366 L 4881664.018772875,-1207652.0512344302 L 4915668.672306006,-1181202.2673016097 L 4929148.794724126,-1172268.573233962 L 4941085.138443925,-1167553.9010513525 L 5003028.4238178795,-1168288.9634613069 L 5046969.1211407455,-1192411.4050536004 L 5086844.096701369,-1209876.4996558034 L 5100291.6025086865,-1213501.2717489153 L 5123425.239848909,-1208720.0040593 L 5148961.263119942,-1207292.485938806 L 5171931.817406151,-1201975.4864459923 L 5183596.4302489245,-1203314.2898377876 L 5229059.198969407,-1223646.9839230774 L 5257628.2330865925,-1243437.9168254072 L 5277098.234665317,-1251847.3945152196 L 5284762.358967452,-1251936.1285959294 L 5311331.2044740645,-1244811.723633085 L 5345477.122441012,-1247913.8327164173 L 5392190.009043103,-1265025.5595409605 L 5407072.534406237,-1268473.3430722833 L 5418410.981140986,-1268717.202655662 L 5443870.973199807,-1261023.9044521535 L 5447817.137828938,-1261428.4291286524 z" /></g>
</svg>
