<?xml version="1.0" encoding="UTF-8"?>
<svg xmlns="http://www.w3.org/2000/svg" viewBox="-6462596.487702174 -668408.6859801684 452403.8577372441 463296.5679648394">
  <g id="map"><path fill-rule="evenodd" fill="currentColor"    d="M -6028613.55666242,-597431.0825636706 L -6037989.886052446,-589520.8852291973 L -6048170.610082945,-578249.4741602958 L -6061590.842615019,-558811.2562837313 L -6060998.400285017,-552700.2903919574 L -6063944.470608861,-547773.71523714 L -6064651.015416926,-539039.8216676145 L -6063699.901687588,-529297.9163149366 L -6060259.127546659,-522894.91720430827 L -6058682.843557026,-510723.02331485 L -6061302.747772846,-499779.6882972539 L -6060308.108122609,-493417.1328680437 L -6057563.192118628,-483326.45664392173 L -6055361.737868699,-472582.97318196547 L -6055600.963454415,-468239.07597338705 L -6052345.090987693,-464718.3298641456 L -6049339.242097293,-461268.59788732807 L -6050295.81048168,-451677.6235643928 L -6039696.636485289,-434601.4874447844 L -6033233.760808303,-427165.1059006301 L -6023808.562161819,-419914.4949223997 L -6020378.697330988,-412833.20495338197 L -6015062.857687136,-404292.869709192 L -6011910.1783883795,-403290.659004001 L -6010192.62996493,-399848.6399574394 L -6011915.633043429,-393264.4104707068 L -6012317.830363664,-384121.15173369774 L -6018286.113543055,-373503.16551155143 L -6032184.685927068,-354039.61416045454 L -6033864.274404157,-349515.8426233244 L -6030255.073873657,-333398.196913323 L -6032190.140582116,-320161.65128696937 L -6033016.353842784,-313810.49694808765 L -6039832.4462640565,-302203.0491098932 L -6056003.160774651,-274099.81785750936 L -6065303.347632973,-269040.2168127764 L -6070912.736774048,-260928.93949340165 L -6074527.3919595955,-260847.27403716635 L -6078571.406421134,-260091.11855997363 L -6079854.252233036,-259084.73665715673 L -6084930.977610663,-259171.74894134546 L -6088888.051549892,-262767.59343373467 L -6089502.3125000885,-267016.4239483673 L -6091649.331519018,-271885.53892553237 L -6096617.409073631,-273343.5966216435 L -6106058.860365773,-271651.6671705962 L -6108776.614414,-272859.46997047146 L -6114396.912865169,-278093.2470918782 L -6119055.188276906,-283773.4865611287 L -6120196.658335499,-289268.8589690374 L -6123218.871191046,-288746.56879085954 L -6130399.089666703,-283773.4865611287 L -6135274.772043958,-282756.02568814467 L -6139139.450805828,-284045.48668638564 L -6143466.10545449,-283680.99995027593 L -6154413.2641791,-278348.9684234191 L -6160865.230545988,-277135.772449905 L -6165469.182046216,-271771.33280615584 L -6195924.413615403,-269334.0277889437 L -6203898.228740926,-267930.380797848 L -6222063.788526534,-277217.335273778 L -6226760.023884631,-280236.97455038974 L -6229157.177799373,-280666.74896188476 L -6231173.7303750925,-280166.21844955767 L -6233168.575650108,-278109.62661475135 L -6236158.060575362,-266439.73035895504 L -6238913.88588944,-263278.98442301253 L -6243664.556478534,-260705.89151342644 L -6248295.669934516,-256049.25237468284 L -6249219.6217081,-251539.58277842886 L -6242088.272488901,-249059.1455397604 L -6236125.44396456,-240301.4341259663 L -6229657.224952016,-233279.35057672384 L -6224466.285776835,-227089.74283503188 L -6225167.487249342,-220084.4462935908 L -6226058.933731615,-210153.5537350823 L -6229809.39869593,-206765.40596812376 L -6236109.191318904,-205112.11801532898 L -6259177.48411803,-209914.30980885687 L -6276842.996750997,-214205.2638426234 L -6284300.51207822,-215146.11225773813 L -6287637.870412203,-216239.33788307 L -6292040.667592566,-219877.8258062024 L -6296530.405295241,-223249.83431925488 L -6303710.735090389,-224468.19695275323 L -6312298.922485599,-226747.1073482371 L -6318620.4224092765,-235482.2914063102 L -6325153.8746434245,-247933.0740171762 L -6327458.522061318,-253557.71638743993 L -6332567.975369238,-258997.72442116012 L -6337584.922180309,-266728.07688124786 L -6339112.336913484,-273577.5824485748 L -6342906.327798701,-279861.46618849225 L -6344890.263763618,-281972.57123173797 L -6347825.424777364,-290531.18896365765 L -6348434.231072513,-293708.9055693245 L -6349880.048618936,-294111.5299877945 L -6351940.127115556,-296848.5825185502 L -6355995.050887192,-306006.81418898096 L -6356913.659325218,-308281.4799129746 L -6358696.5522897625,-309092.27786258765 L -6363425.404258661,-315524.78619775997 L -6367181.323878027,-317756.03783675586 L -6368567.362857893,-321048.6512072571 L -6368246.762724409,-330029.0138725687 L -6370257.86064508,-334454.0605551841 L -6370877.464930835,-342869.1954401417 L -6370997.133383438,-346249.6631381928 L -6372926.745436849,-349973.0503760781 L -6376150.001292768,-352428.245543239 L -6376704.372356919,-358509.1538583046 L -6377487.059696686,-373535.83806871297 L -6379014.474429861,-376154.9155543826 L -6392586.99202534,-375969.6923893474 L -6393956.77835955,-374499.62715753936 L -6399821.645731994,-373612.11124367604 L -6406393.169231994,-373448.7484414908 L -6412307.017180387,-375468.7773844791 L -6417204.518177837,-378098.7185537475 L -6418248.138404024,-381354.8986532437 L -6417508.865665666,-391799.4590139872 L -6425401.194923927,-399706.98640120955 L -6437902.930337465,-409488.90977623075 L -6441675.213921978,-421902.7524819183 L -6446257.346802011,-429649.2274834769 L -6460117.959239663,-445858.04776697245 L -6462574.780401469,-456985.1931812028 L -6462596.487702174,-464827.3778895065 L -6457726.259979968,-472032.5510772222 L -6450937.329514449,-484700.18899078155 L -6448148.887589568,-496219.44152208156 L -6446094.2637479985,-502211.37529121526 L -6442582.913049906,-510063.24090430455 L -6439386.819149739,-520233.5227821676 L -6441821.933010843,-526505.3912388671 L -6445942.090004083,-532646.957632688 L -6447295.512373148,-537239.7425176301 L -6443295.02383251,-543965.8208724507 L -6439267.262016628,-548706.6689542122 L -6434723.200402447,-549377.7324848685 L -6428923.454932117,-552220.1550109098 L -6424368.484007837,-556306.7133262309 L -6417438.177789011,-557381.6906982978 L -6408763.049871491,-557807.2162481239 L -6391092.1939029675,-557818.1673059824 L -6382058.394586112,-559558.7359023736 L -6379248.245360527,-562843.6472639232 L -6379672.149981467,-569135.4037521768 L -6375187.866933841,-574854.7674017218 L -6370464.3583005015,-577256.2280894683 L -6368567.362857893,-579144.5924348311 L -6368290.177325818,-581245.951903925 L -6369529.49721682,-583183.6088585166 L -6371404.785358723,-584449.9224897467 L -6376340.246302534,-584886.5645584221 L -6380672.355606246,-594788.8823227935 L -6377704.5779816955,-599107.2198132325 L -6373877.970485678,-607067.6199833886 L -6372807.076984246,-611550.5743814616 L -6366893.229035853,-618616.8050829677 L -6365485.482755282,-616432.4258447811 L -6360886.985910102,-629283.2919902392 L -6360354.322146656,-639732.9197283182 L -6356853.880758663,-650047.743292645 L -6351516.222494615,-662276.8350767498 L -6341851.798262416,-668343.0942577992 L -6285768.148244838,-662172.9732718529 L -6260117.911176252,-656309.5410333091 L -6227162.332524358,-646250.4823941316 L -6222493.147802524,-635493.818479518 L -6222259.488191349,-646250.4823941316 L -6223862.934136735,-657123.6869418068 L -6214763.901598275,-664850.8283237417 L -6194744.872290958,-667561.5955690048 L -6164795.142529462,-663839.81969837 L -6139079.672239272,-668408.6859801684 L -6104058.560435708,-667834.8167618718 L -6050899.162121779,-659052.6118695469 L -6027097.051239342,-653063.8065626753 L -6017285.907918277,-647643.6575860514 L -6015416.074431422,-637864.6643951165 L -6016367.299480251,-625378.0922891528 L -6020210.270941417,-613450.8437831077 L -6028613.55666242,-597431.0825636706 z" /></g>
</svg>
