<?xml version="1.0" encoding="UTF-8"?>
<svg xmlns="http://www.w3.org/2000/svg" viewBox="2688072.1531603346 -1371108.745574939 1237983.611834032 982282.6229318351">
  <g id="map"><path fill-rule="evenodd" fill="currentColor"    d="M 3782199.256834581,-470217.5559577723 L 3756097.953189301,-443994.59881581616 L 3736823.5399559,-424631.9598371833 L 3733605.73875503,-421886.35270407324 L 3728017.9455951704,-418312.9408154126 L 3709645.8881541397,-418231.2796658514 L 3690697.752348253,-420502.7569756883 L 3673238.8486901997,-432269.75899886846 L 3655519.012145725,-423155.61450087297 L 3644278.3039238933,-420279.4110915221 L 3637581.7686357326,-419217.2422242988 L 3621753.5841983096,-417740.97953065723 L 3599598.33386267,-412860.42383017973 L 3589553.5309304297,-406738.2610992548 L 3584118.0228339755,-401885.4614468704 L 3579617.3758212035,-392986.5867203657 L 3577356.254324211,-392060.88469416753 L 3573290.4212424774,-393117.30097337544 L 3567593.980259604,-396684.4586295603 L 3555744.5770621137,-401858.2455571694 L 3549787.2031928203,-413181.8079392404 L 3544264.754574057,-420028.8448429615 L 3539742.4002605802,-423618.7201605375 L 3520913.710268315,-412332.11123454577 L 3511814.677729855,-409668.61536639364 L 3504335.3437824366,-409989.98911553563 L 3490692.249629794,-416362.9090886161 L 3475614.1359213362,-421755.6008333854 L 3467863.0710968915,-421717.55787353386 L 3456252.782165625,-414957.52703615825 L 3443044.501944022,-404815.6740620248 L 3436228.298203259,-394783.81064024486 L 3432934.3544706856,-388826.12264310394 L 3430521.059229778,-393580.26720132446 L 3428303.352334195,-398018.75884018245 L 3423878.8478531255,-403715.5237400249 L 3417497.4580434007,-405932.233529028 L 3411681.4599274155,-404821.13970753446 L 3404897.9841169454,-403715.5237400249 L 3401854.0639606942,-406901.6760041028 L 3401201.8430641363,-414728.72765713854 L 3399353.7168779867,-421897.2858889938 L 3396168.5322879185,-427306.68737367773 L 3386417.16753341,-432683.815657429 L 3361283.3415826135,-443624.12303066254 L 3341965.5137478034,-465465.0380971879 L 3332235.856293998,-475608.0692681705 L 3325137.1236856026,-482154.4757847026 L 3315081.411443264,-499327.1258275718 L 3303612.3869458144,-511159.2331634053 L 3289719.269216851,-516645.1169586589 L 3280544.094146688,-513940.26672064397 L 3271107.986190105,-501273.6200960886 L 3253301.2091233227,-489382.9934837127 L 3245126.2396779372,-488968.6712626796 L 3234657.420805265,-495417.9746362498 L 3221514.2624857756,-500008.7061859759 L 3197880.6893124003,-502009.5973305084 L 3188140.233867989,-496372.0761825333 L 3175366.767577424,-487256.92042558093 L 3164539.165985925,-481822.0193240617 L 3157820.92339706,-481206.00707847864 L 3151570.000030546,-483370.1076075609 L 3144471.2674221494,-484542.10536227643 L 3138329.10319814,-484732.8998351979 L 3125696.9013413917,-493057.388450079 L 3119152.539797146,-499152.71184715413 L 3114793.268537681,-505035.76115754014 L 3107661.9193184827,-509038.0650916564 L 3099312.9575089873,-512369.8229229064 L 3093355.5836396944,-517610.4154290645 L 3090387.8060151455,-524149.3603234092 L 3085691.459337559,-532537.8190962857 L 3079560.204423647,-540098.1268747965 L 3060285.9025097364,-553682.3596701834 L 3054524.2283052583,-561686.7872391072 L 3050523.62844513,-569506.569535598 L 3042631.299186868,-578129.4254456878 L 3034206.19484567,-589679.1875988822 L 3031510.2594176386,-606576.1548584991 L 3031129.7693981067,-620189.6789644504 L 3029379.4930443643,-626486.8087153104 L 3025802.909124667,-632789.9168972084 L 3021650.135520624,-638137.7558594467 L 3014910.0743115637,-644168.88905907 L 2999201.4470072524,-652905.3513609204 L 2982970.9539301023,-663041.9259215359 L 2975165.5651941504,-668944.2797282299 L 2960391.798973521,-671103.1563877624 L 2951553.6993214805,-676891.5453231435 L 2944117.891294962,-689629.1051358823 L 2941117.497059611,-699837.4741484617 L 2933638.1631121924,-707761.5501045156 L 2930442.0692120264,-713509.7388631635 L 2928659.287566972,-720128.2973408945 L 2934583.933505972,-740295.1462268083 L 2925984.9481201544,-747436.7205084934 L 2913157.157918083,-756708.5985958584 L 2903981.9828479197,-766841.6121694163 L 2898372.4823873555,-776160.6929371989 L 2881946.4009648818,-788466.2116848605 L 2846061.1159542897,-806839.7627265368 L 2825362.59247517,-818588.2026093164 L 2814034.9437310277,-829149.9810042569 L 2804153.2238527997,-839461.8278988487 L 2803174.836848218,-843716.6070281806 L 2809556.1153384517,-854020.5370290991 L 2810523.5930329356,-862511.0272500855 L 2805294.693911394,-871875.288658741 L 2783791.7757918024,-889511.9124586928 L 2766658.926922282,-908928.7382081008 L 2753678.9629762955,-915001.9929927051 L 2722435.589412292,-920389.4853522901 L 2713466.91199755,-922525.992033823 L 2704106.9465726702,-926233.5712851367 L 2694866.5382809024,-934979.265111352 L 2691703.060991539,-945331.221071354 L 2696258.031915818,-961891.8270472629 L 2693355.4875128744,-966971.7546316825 L 2688072.1531603346,-968351.8182554059 L 2689528.8800168554,-971804.8770401148 L 2695442.7279652483,-979861.2755812615 L 2705085.3335772525,-985091.9561034583 L 2730882.4010541947,-993277.4508844132 L 2732317.30929052,-996424.5026905733 L 2732828.265753261,-1006786.0130357165 L 2734926.415515733,-1011849.4516635658 L 2743808.041088674,-1026212.1617577071 L 2745069.0682803807,-1031944.3411753193 L 2745460.4676100095,-1044149.3224896758 L 2746656.261580111,-1049922.6916227548 L 2749221.8418844235,-1054027.3654449577 L 2756309.776502213,-1061163.3092552256 L 2758788.304964725,-1065500.6807957205 L 2759853.7438111077,-1074865.9375162413 L 2759081.854461947,-1093426.8048067642 L 2762691.054992446,-1100763.3262846954 L 2778964.962671006,-1117631.5580096778 L 2783313.4359398633,-1125138.3888504456 L 2784791.8700970886,-1131917.97338766 L 2784639.6963531747,-1138776.183099248 L 2785618.0833577565,-1145552.7789788852 L 2790444.785159062,-1152115.2342551537 L 2794564.9421523027,-1154153.745930385 L 2806555.7211031,-1156203.5764377397 L 2814730.690548486,-1154910.707572393 L 2871825.455500939,-1166454.0526594678 L 2878521.990789099,-1164867.8955696637 L 2881533.294334548,-1158032.410998458 L 2881261.452138031,-1147115.902643768 L 2882229.041152006,-1141813.5718001835 L 2885305.5779190594,-1138036.1870494417 L 2894371.9938467178,-1132845.5567102898 L 2900655.422504544,-1124177.8772141342 L 2903992.892158017,-1120976.353875132 L 2913178.8652187875,-1115037.6573459532 L 2955684.6543053277,-1065329.786264486 L 2967631.907335225,-1060623.259991193 L 2979264.0148866866,-1062326.1619292318 L 3002343.216995911,-1072644.2775202733 L 3013888.272705572,-1075262.7970730164 L 3094660.1367523004,-1072335.6172102063 L 3103683.0267590587,-1073884.588708294 L 3104237.5091427,-1073664.0935292223 L 3116532.635581326,-1048738.2083388476 L 3122392.159618212,-1043075.1173430685 L 3210958.503090794,-1042788.6901534405 L 3209273.571278147,-1049867.517238283 L 3210393.2227165457,-1057796.2785725154 L 3220731.5751460083,-1067997.4754288762 L 3225993.202197843,-1073046.6460503777 L 3225993.202197843,-1073024.6308278071 L 3228221.7070840336,-1074849.3406345516 L 3241886.6198568707,-1082132.5657996812 L 3255247.1851418796,-1087034.75423172 L 3280935.493476317,-1092742.9553582561 L 3290317.166201901,-1101745.2609462102 L 3295491.741411936,-1110004.8869484654 L 3295665.733776046,-1126248.050909207 L 3299057.5273410263,-1128909.0031572613 L 3305188.7822549385,-1132674.4670855561 L 3334899.286430718,-1147187.7369291037 L 3339921.6878968384,-1150259.0985015894 L 3392417.956004112,-1116511.1929397434 L 3421889.345913668,-1089814.3136114723 L 3423672.238878213,-1088518.2522206756 L 3425205.1082664365,-1088021.9769726445 L 3426759.5736358734,-1088942.9262541167 L 3428075.036058578,-1090172.813752893 L 3430216.600422459,-1090994.5306343934 L 3431651.619978275,-1091353.0420096365 L 3444262.0032148273,-1091700.487293908 L 3468102.1853631153,-1093007.6151405205 L 3475940.1907098694,-1096206.836403217 L 3523805.4566806527,-1143895.8381461417 L 3535981.025986166,-1159120.9075977239 L 3539068.360743827,-1162226.3449105043 L 3546004.1216177014,-1173081.1681756505 L 3553309.4632010106,-1191742.209133826 L 3554766.1900575315,-1193854.955137151 L 3607208.1342532975,-1238658.0572119497 L 3609067.058430054,-1242213.790649203 L 3609578.0148927956,-1245033.2850986372 L 3601652.9577042414,-1260120.552184467 L 3599946.207271399,-1267791.4995914877 L 3599598.33386267,-1279606.3593178852 L 3601174.617852302,-1297994.203802098 L 3600620.246788151,-1309620.384326527 L 3600413.63781324,-1310935.8516790902 L 3599902.792669989,-1312734.3068592013 L 3599554.9192612604,-1313406.0824108375 L 3570268.319706421,-1346475.2457503635 L 3644234.8893224844,-1346808.7087545313 L 3644408.770367103,-1349548.4780629338 L 3644343.537145498,-1350993.579825474 L 3644115.332189372,-1352316.381344063 L 3642712.929244358,-1356285.1300196121 L 3641908.423284395,-1361560.9757030024 L 3641854.099372888,-1363034.3184472031 L 3641962.858515394,-1364474.4808701063 L 3642386.7631363347,-1367204.680388463 L 3642430.289057235,-1368683.992630884 L 3642354.146525532,-1369390.247719269 L 3642212.8820917155,-1370046.5182779415 L 3642256.296693124,-1370624.8956008572 L 3642582.462801148,-1371108.745574939 L 3695730.95180498,-1370446.870835301 L 3695035.204987522,-1361077.2785074248 L 3688577.8952850765,-1339063.058917148 L 3688697.4524181886,-1325865.3612735015 L 3687175.4923400627,-1310808.19028014 L 3686805.911630629,-1309587.0777520728 L 3685349.184774108,-1306340.1398647423 L 3684077.2482723044,-1304481.0162003017 L 3682620.521415784,-1302688.6003357896 L 3682207.41478545,-1302011.4842916157 L 3681707.3676328068,-1300912.877820318 L 3681674.7510220045,-1299253.7325863086 L 3692708.850268924,-1215117.204123887 L 3692295.74363859,-1212997.5908142575 L 3691882.6370082563,-1211608.54008219 L 3688936.566684413,-1206368.3763268797 L 3688175.58664535,-1204642.1544706682 L 3688023.412901435,-1203308.737819831 L 3689219.206871536,-1202395.9529946037 L 3713700.811925775,-1193323.924666743 L 3714885.8079052693,-1192748.7263985958 L 3715831.578299049,-1192007.5979067164 L 3724647.9706503856,-1181207.8157649243 L 3772861.1100298967,-1141388.4011476107 L 3774513.425231742,-1139405.694964474 L 3779503.210087059,-1126910.4724914674 L 3780057.6924707005,-1125016.966846986 L 3780231.5735153197,-1122025.070646813 L 3780112.016382208,-1119701.3617812353 L 3778872.6964912065,-1112212.1421070392 L 3779285.8031215398,-1108846.1052630486 L 3780112.016382208,-1106622.4397997158 L 3780775.1465888633,-1104051.3442922428 L 3780775.1465888633,-1103267.9830651588 L 3780688.2060665535,-1102594.9134595208 L 3780318.6253571203,-1101403.2586778572 L 3773165.457517726,-1086985.1735389347 L 3770838.9914796376,-1076723.8177321034 L 3770143.2446621796,-1068096.7003724354 L 3770556.3512925133,-1063108.6777474578 L 3771371.766562573,-1059901.2874043146 L 3771741.3472720073,-1059162.8510146942 L 3772045.6947598364,-1058622.8296408178 L 3772382.7701779585,-1058297.691872244 L 3772719.7342765895,-1058148.9487409093 L 3793407.348445611,-1058071.7560204363 L 3793559.522189526,-1058071.7560204363 L 3793450.763047021,-1053498.3610471478 L 3794276.9763076887,-1030655.7412638312 L 3794994.541745342,-1010671.6234136771 L 3796168.517095248,-978062.8594140242 L 3796190.335715443,-969561.4377784753 L 3795385.829755481,-958961.8298951326 L 3792961.6252044756,-954800.7346118914 L 3787058.6865661805,-948815.3993450052 L 3779666.293141071,-943347.4456725118 L 3760935.564300704,-941951.7558064964 L 3745324.6755093094,-942116.5083495736 L 3734247.1616609804,-943336.4168234672 L 3719114.612721524,-943825.5152087165 L 3704830.0956629314,-942644.0808016905 L 3699622.792522603,-938045.0299021255 L 3691936.9609197634,-921696.6409029765 L 3680805.0118404357,-898014.3630209877 L 3674945.5991230416,-888013.5939204738 L 3673423.639044916,-882168.9302790171 L 3675173.804079168,-878689.9282794655 L 3682533.580893474,-873652.8762104128 L 3698698.8407490198,-866564.8371993253 L 3717212.162623867,-862417.6737237811 L 3731018.451150012,-860624.1083934078 L 3740443.6497964966,-858676.9432446226 L 3747694.556148808,-856493.9751979714 L 3774002.468769001,-838359.7625139442 L 3782405.8658094937,-829944.7984612676 L 3787134.717778392,-822468.5185652048 L 3788221.863925479,-814500.1160501658 L 3792015.854810696,-806505.4861503758 L 3807170.1110508568,-790668.0662399551 L 3815953.8867913904,-781499.839473661 L 3838783.0653242934,-769787.2182577862 L 3847512.5171533204,-756495.1532692034 L 3855970.2381053213,-750030.9832871705 L 3863971.3265060876,-743096.9715201185 L 3868265.364543947,-732738.5464610336 L 3878157.9937322726,-702746.6061661143 L 3884811.114419024,-687032.1105607356 L 3891616.2975301985,-674185.8476590379 L 3894355.8701986205,-653282.3545444997 L 3899737.054383567,-643950.372722223 L 3905303.0289232302,-632566.0698094786 L 3914489.001984001,-622281.3474393643 L 3924283.781339919,-614433.7668969653 L 3926055.7649943666,-612336.8668997419 L 3905585.6691103554,-592162.9947965035 L 3882636.82212485,-569550.1573328242 L 3856089.795238432,-543393.0110938955 L 3827183.685703125,-514927.3102381689 L 3804550.0955155464,-492419.52145386813 L 3782199.256834581,-470217.5559577723 z" /></g>
</svg>
