<?xml version="1.0" encoding="UTF-8"?>
<svg xmlns="http://www.w3.org/2000/svg" viewBox="-10030543.796025556 -1623722.9010777753 266117.7030226216 145246.1948245566">
  <g id="map"><path fill-rule="evenodd" fill="currentColor"    d="M -9947798.905324008,-1621988.6504336263 L -9944977.846788323,-1621455.4563297771 L -9926372.018416628,-1615585.8815339764 L -9920849.569797864,-1616724.8929144943 L -9913794.251790877,-1612006.3448221947 L -9910424.1655266,-1608309.670521016 L -9907456.387902053,-1603228.1093673953 L -9892775.128178272,-1593000.92440881 L -9890285.579086171,-1588533.3756123492 L -9879311.258405808,-1582508.7434243273 L -9874886.753924737,-1577897.2597641896 L -9870212.225867348,-1575997.9804651008 L -9861031.596142134,-1574233.2983649117 L -9853171.883494677,-1571802.2208515038 L -9852258.729711698,-1570110.659812021 L -9851514.002318293,-1563267.0557526166 L -9849845.3231513,-1557500.0850788783 L -9846111.11083264,-1557125.051099049 L -9841588.756519163,-1559924.346858088 L -9826863.970874485,-1567640.7346166754 L -9812927.21590513,-1572765.7455649215 L -9805072.957912719,-1569696.2174893124 L -9800425.591811081,-1563278.2943857554 L -9795115.095502788,-1560411.4502719005 L -9784091.794246474,-1562169.5917394229 L -9774101.31522574,-1561598.4008810266 L -9766219.783958085,-1555988.5159730888 L -9764426.093002934,-1552736.2500127351 L -9769236.542158583,-1534086.649025402 L -9770981.363857279,-1526111.4719932978 L -9771834.7390737,-1519362.995666315 L -9769002.771227919,-1517602.0368205737 L -9766241.602578282,-1514980.3293014187 L -9766839.499563333,-1511347.376885097 L -9775433.030294102,-1505373.5910095049 L -9778123.622386575,-1503842.6146014358 L -9776155.939067313,-1492329.5404564717 L -9782542.672212593,-1485382.7087886059 L -9788418.448895136,-1480380.2601279656 L -9798724.296033287,-1479018.1484037596 L -9816226.614292748,-1478476.7062532187 L -9842550.89087809,-1484137.558409356 L -9861966.568545308,-1491860.4700257827 L -9872440.842073027,-1491910.6822583093 L -9869125.07972026,-1489358.551733379 L -9860852.260442466,-1487733.5405896408 L -9849981.244249558,-1482267.2500311756 L -9853112.10492812,-1480754.3551299106 L -9892633.752424965,-1492111.7608557772 L -9938341.09006672,-1514404.6428127587 L -9965681.713603001,-1517959.8064687962 L -9996957.703777807,-1523796.522275043 L -10015465.682317099,-1537890.487400946 L -10029353.456710503,-1544005.7303746706 L -10030543.796025556,-1549333.310380921 L -10030413.329582347,-1555266.4692956023 L -10024113.648278864,-1563211.0920176308 L -10012372.89290439,-1573914.0137844435 L -10004583.756814092,-1579449.210320439 L -10000936.48501774,-1580536.2613897498 L -9995789.07176346,-1579964.7879975087 L -9990853.610819649,-1583052.2693028622 L -9986597.644047642,-1590433.5631603647 L -9982162.230256474,-1595187.335816244 L -9970916.178699084,-1600003.6460375125 L -9968345.14373972,-1601910.2986918662 L -9969220.226256847,-1606043.5837439608 L -9971660.794773,-1614065.3248067359 L -9971291.214063566,-1619008.698498941 L -9967605.871001363,-1621287.0755000168 L -9963192.275830392,-1621730.4998872401 L -9954060.626681129,-1623722.9010777753 L -9950098.09808685,-1623324.3854477482 L -9947798.905324008,-1621988.6504336263 z" /></g>
</svg>
