<?xml version="1.0" encoding="UTF-8"?>
<svg xmlns="http://www.w3.org/2000/svg" viewBox="3981280.6964599653 -4480623.23071662 734110.7422505547 675591.5777474535">
  <g id="map"><path fill-rule="evenodd" fill="currentColor"    d="M 3995554.4155279514,-4289145.260156953 L 4003892.4680273496,-4288252.675991737 L 4021677.537793427,-4277453.181289394 L 4024601.7894970756,-4277788.486673788 L 4029982.973682023,-4292031.609779211 L 4035201.074812958,-4296866.271807878 L 4046191.7594584674,-4301105.179007653 L 4049290.0035262266,-4324209.386109051 L 4054421.052815361,-4328654.355599596 L 4060606.7429602705,-4331032.414362166 L 4070107.972818967,-4331477.151282075 L 4078380.903416251,-4332865.157412838 L 4078902.6578695993,-4336942.854407819 L 4067335.8948592334,-4363745.855439529 L 4068357.807784716,-4370519.6287267655 L 4073945.4896250833,-4397562.542067273 L 4077456.8403231762,-4408164.219122463 L 4080816.017277354,-4411618.893650728 L 4093948.266286746,-4410247.759854054 L 4112342.031028481,-4405483.875603355 L 4117190.5514499824,-4397704.996620346 L 4126191.734156036,-4390798.833141823 L 4139682.6545647625,-4391252.71283959 L 4155228.310134553,-4389958.700107901 L 4167392.97012997,-4389504.875372562 L 4177100.8089635787,-4394363.091625869 L 4199006.035722897,-4403441.969632224 L 4209877.051915805,-4406481.282621361 L 4219747.973803427,-4410519.247843771 L 4251480.485209975,-4425394.667104922 L 4264188.718278935,-4424252.812764491 L 4272885.55349716,-4422288.854240932 L 4279538.674183911,-4419924.401795025 L 4294486.32144916,-4409752.204386329 L 4306824.973808686,-4399467.786096851 L 4315478.3944255,-4396416.865621138 L 4331045.645976504,-4396633.857184908 L 4353526.951100679,-4394674.845603242 L 4381161.235453674,-4394817.261624418 L 4397282.969388318,-4397684.586348375 L 4417883.53171554,-4402736.556106868 L 4454605.9392968975,-4414891.39415593 L 4502916.928508816,-4440345.592845981 L 4531333.788882087,-4452734.3685481185 L 4543574.591409206,-4454192.801075076 L 4559522.444299232,-4454336.017183895 L 4575470.185869768,-4451085.377556941 L 4593559.603123675,-4448775.743109707 L 4601897.766942563,-4448980.133723982 L 4621487.3256544,-4451541.838748803 L 4646871.286501009,-4456701.317841018 L 4662819.028071544,-4460928.85068233 L 4682082.531994848,-4467867.247532968 L 4694105.927556448,-4479413.832612094 L 4697986.858963973,-4480623.23071662 L 4702976.755138782,-4478518.94226741 L 4705314.019167478,-4477726.392611904 L 4710249.480111288,-4471157.171803774 L 4715380.529400422,-4454254.219051772 L 4715391.43871052,-4452359.638726988 L 4714391.344405234,-4447556.45723796 L 4701835.285080188,-4433690.612467962 L 4684767.669432272,-4414884.579746395 L 4672526.866905153,-4403041.747999123 L 4651882.778657031,-4383104.960140392 L 4636478.498840549,-4378840.476231972 L 4610496.75232838,-4371669.182984018 L 4603528.374843704,-4364712.2472887235 L 4597049.246521062,-4353498.761172932 L 4593244.346325749,-4338176.640487177 L 4592124.694887349,-4328593.65545495 L 4591439.746060498,-4310724.289715561 L 4597516.6770629035,-4292226.296881098 L 4603354.493799085,-4274503.707416438 L 4604104.564528049,-4262793.860194665 L 4603517.576853096,-4251257.224687457 L 4597864.550471632,-4238964.310591833 L 4591744.204867817,-4222128.1520757675 L 4588189.328248826,-4203113.490452411 L 4586319.494761971,-4167604.366729797 L 4586276.080160561,-4137456.5521991784 L 4585776.033007919,-4132532.496033978 L 4575122.312461039,-4111318.9630502495 L 4562653.304977793,-4086559.891875323 L 4556869.92347261,-4080828.068186051 L 4529529.188616837,-4073473.2899690233 L 4499699.015988455,-4055386.566516407 L 4466357.603981471,-4035202.8590145526 L 4436081.708111952,-4016908.321048965 L 4404294.7614744045,-3997740.5473970226 L 4371333.728167461,-3977893.402533636 L 4347776.186206298,-3963731.1662127157 L 4316250.17245517,-3944814.4046810293 L 4287539.762584677,-3926753.7249827464 L 4258448.862694653,-3908481.043470611 L 4236348.047590011,-3894623.4596662866 L 4202767.409997311,-3872738.993514189 L 4183101.5974342804,-3859925.1113717384 L 4154173.780598268,-3841110.7837689673 L 4128724.6978495456,-3824574.6069218554 L 4098600.975723941,-3805031.652969166 L 4060845.8572264947,-3810834.556570857 L 4048920.311497302,-3814206.9484532294 L 4039147.2394420886,-3823511.747816479 L 4031961.566311382,-3828479.3458837043 L 4014122.172633797,-3833584.4955524425 L 4002653.148136348,-3851146.9357572515 L 3995782.7318035685,-3857373.0553932874 L 3983824.569463574,-3860170.5940897483 L 3988942.8170112665,-3871448.725169009 L 3989897.9382422725,-3878850.4826438674 L 3995031.325240713,-3887923.5309291077 L 3991808.0693847947,-3893892.695516596 L 3990256.053044155,-3906547.2256653383 L 3987987.8070997507,-3909651.136115584 L 3987152.131682366,-3912993.8218052895 L 3988942.8170112665,-3917052.8787491084 L 3988226.5874075033,-3921231.2116993982 L 3986197.121770851,-3923021.9094352215 L 3985242.0005398444,-3929349.295817768 L 3983570.649705074,-3934005.2046670006 L 3984406.3251224584,-3939735.5130476668 L 3987032.7971882354,-3943436.4472255665 L 3989772.7038151305,-3950606.8695192346 L 3992934.511312132,-3952751.178621126 L 3998011.2366897585,-3957239.6816519126 L 3999326.699112463,-3961899.3315128507 L 4003892.4680273496,-3966476.0575954774 L 4009980.308339852,-3970206.662780297 L 4011339.185363965,-3973220.745318542 L 4010469.4461823967,-3974943.3174366704 L 4004349.100578583,-3978304.611159751 L 4001087.7734568124,-3984252.7365563246 L 4003990.3178597563,-3992929.1786784395 L 4005958.0011790185,-3995635.3840314737 L 4009599.81832032,-3999826.676331021 L 4017763.989775099,-4006211.300201717 L 4024177.884876135,-4007271.3720091986 L 4029700.3334948984,-4007277.9391314676 L 4039049.38960968,-4006747.890660898 L 4046300.407281482,-4005602.774852898 L 4048137.624157535,-4007251.6706649824 L 4047887.600581213,-4009365.670761999 L 4038919.0344859613,-4014603.0276082307 L 4038429.785323925,-4018775.1070420127 L 4040658.4015296064,-4023250.1424100306 L 4047007.0634090374,-4030323.2012089533 L 4054573.3378787655,-4035498.1663150256 L 4058432.5619855877,-4036436.2678633705 L 4067074.9619728136,-4046853.018729561 L 4072619.229211773,-4058547.9805966774 L 4063650.6631165217,-4087007.97139744 L 4058215.0437005763,-4091569.2731786803 L 4049409.5606593387,-4095486.103038289 L 4044224.076139206,-4096086.225939662 L 4043821.87881897,-4097939.7446280965 L 4050768.4376834515,-4105178.564314354 L 4055703.8986272626,-4111477.4868433997 L 4050235.773920006,-4117489.111323449 L 4040484.409165497,-4120304.5190020124 L 4036842.5920241945,-4114099.6760710273 L 4024319.1493099513,-4113524.9713762384 L 4004860.0570413237,-4113604.2485698233 L 3996293.5769468183,-4143800.2449465683 L 3995021.751764506,-4156902.7631287063 L 3995249.956720632,-4172079.1035528188 L 4001163.8046690244,-4194340.230422373 L 3998380.8173991926,-4204658.488939517 L 3998152.612443066,-4211620.348157971 L 3996641.4503555475,-4221200.9952131165 L 3981280.6964599653,-4241830.717103369 L 3989651.365570165,-4279893.9240608 L 3995554.4155279514,-4289145.260156953 z" /></g>
</svg>
