<?xml version="1.0" encoding="UTF-8"?>
<svg xmlns="http://www.w3.org/2000/svg" viewBox="3427248.82279791 2967281.2230572286 147541.85122198798 194969.7172952108">
  <g id="map"><path fill-rule="evenodd" fill="currentColor"    d="M 3556462.0311802756,2993832.573695305 L 3558712.354686662,2995646.3741065026 L 3568963.766593815,3001354.961961433 L 3569887.82968689,3012730.6448241062 L 3568898.53337221,3025738.9134473167 L 3566833.000220541,3033956.8660826553 L 3567604.8895697016,3042143.1121535343 L 3570898.8333022743,3054898.723444846 L 3574018.784670737,3063631.512483757 L 3574790.674019898,3103427.8020671294 L 3571311.9399326076,3101600.4481642246 L 3564984.985353882,3099895.064464375 L 3561636.7177098016,3100686.7350734915 L 3558571.0902528455,3118555.7217387953 L 3556222.916914052,3145181.696670728 L 3557592.591928772,3161737.0350634344 L 3533567.619425768,3162250.9403524394 L 3503172.166423137,3160440.329233172 L 3481408.315417126,3153285.7533301325 L 3457959.532598468,3137509.7949496317 L 3444011.9796385057,3112958.5013774117 L 3437913.3413353963,3097556.6082901857 L 3429390.387161791,3096667.5974804745 L 3428009.8028369728,3094049.648410827 L 3427248.82279791,3075287.52886432 L 3427422.703842529,3055602.9695671545 L 3429009.8971422594,3050382.623215219 L 3444805.5762883713,3026199.3901720634 L 3454611.2649543877,3011193.2410101555 L 3460709.903257497,2996686.294111096 L 3473983.4167007054,2979693.1838954417 L 3488213.6098477915,2968838.1073957756 L 3493496.9442003304,2967281.2230572286 L 3497117.054040928,2967727.7428966886 L 3522196.5560802165,2982652.88580379 L 3547917.3697059657,2996807.280339598 L 3553505.162865825,2995211.011693601 L 3556462.0311802756,2993832.573695305 z" /></g>
</svg>
