<?xml version="1.0" encoding="UTF-8"?>
<svg xmlns="http://www.w3.org/2000/svg" viewBox="1497051.451504715 -2685949.3944805637 1172768.201347701 1851432.6869819474">
  <g id="map"><path fill-rule="evenodd" fill="currentColor"    d="M 2669471.779443687,-2213494.331222848 L 2669515.305364587,-2160892.5031079077 L 2669558.8312854874,-2108431.895143097 L 2669602.2458868967,-2056108.5884773552 L 2669645.771807797,-2003912.98543117 L 2669689.297728697,-1951852.7263048096 L 2669721.9143394995,-1899912.7065637116 L 2669765.328940909,-1848100.3641775418 L 2669808.854861809,-1796400.7329918728 L 2669819.652852416,-1779279.8457304076 L 2668417.361226893,-1772497.050603341 L 2667797.6456216467,-1771559.760032368 L 2665656.081257766,-1770413.5523571467 L 2639185.085583561,-1775207.7130671544 L 2627585.7059623925,-1775326.263974727 L 2611333.5055845375,-1771621.8594380144 L 2587449.79751535,-1769685.1751415906 L 2572056.4270089655,-1770300.5766736602 L 2561370.2011707746,-1761431.9963416003 L 2552988.6227504765,-1750716.1842650725 L 2556956.4946803115,-1725105.8978784995 L 2556043.3408973347,-1716659.7174270768 L 2552814.630386367,-1707889.7313551414 L 2545563.7240340556,-1700339.038479454 L 2538323.504352861,-1694321.531555312 L 2533996.849704199,-1689048.245298085 L 2528615.6655192524,-1677492.6112209645 L 2524636.8842793196,-1672087.936566379 L 2524995.6669981456,-1664851.6750021551 L 2523712.821186244,-1657235.378900912 L 2519364.4592368775,-1653279.1837657972 L 2508254.2174582547,-1650362.98886098 L 2501101.0496188602,-1646980.9384462882 L 2495361.194034578,-1641442.3909597313 L 2491501.9699277566,-1637449.3373560826 L 2493523.9771585255,-1632126.280735824 L 2496339.58103916,-1624884.6894460702 L 2497937.5723294974,-1613498.7441989314 L 2499046.425777289,-1606845.7146226065 L 2504503.7524939384,-1601428.0523167748 L 2507830.312837314,-1597542.1557779775 L 2508982.5808865153,-1592793.464243643 L 2505797.396296447,-1588841.5885113876 L 2492241.2426661146,-1580586.7536125807 L 2486805.62325017,-1577527.4443192924 L 2480587.4278139486,-1573337.0626992865 L 2478206.6378643527,-1571774.2299460422 L 2468303.21068542,-1563961.4516663887 L 2463302.5165200043,-1557029.7742765674 L 2460878.2006495087,-1551258.651368549 L 2461008.667092718,-1543295.1225007433 L 2466052.887179034,-1531390.7308957747 L 2471553.6284970925,-1521274.9800334598 L 2473673.485560269,-1513666.8797619932 L 2474923.6034418778,-1505328.847162244 L 2474423.5562892337,-1497412.389089199 L 2471586.245107895,-1490520.1000463685 L 2466618.1675532823,-1484310.6800412887 L 2447941.651304932,-1472655.0345768142 L 2438755.6782441614,-1459843.8920549254 L 2431417.7200500504,-1444284.0150099064 L 2429580.503173998,-1435810.5146615007 L 2431591.601094669,-1430181.540746172 L 2435461.7345115882,-1425406.058833902 L 2441027.709051252,-1422982.442577938 L 2449104.9399837214,-1422269.317162636 L 2462519.717860746,-1424860.0428831642 L 2475010.543964187,-1426559.515656883 L 2488251.5521160834,-1420965.6550122395 L 2495165.4943697634,-1407954.8164874646 L 2492469.447622241,-1398445.2994298267 L 2497481.051097754,-1381226.958064259 L 2501959.879490331,-1360421.2024964364 L 2501622.9153916994,-1353422.383473251 L 2503557.982100159,-1350799.0516729828 L 2511852.5086786565,-1349459.584224601 L 2513700.634864806,-1344585.9560757761 L 2510961.1735158744,-1308121.7369972933 L 2514831.1956133028,-1297933.1831509473 L 2520386.3721623598,-1290665.517146743 L 2526658.891510088,-1286888.0978807781 L 2532964.1387881096,-1282024.1846857995 L 2536236.263900487,-1278630.376584999 L 2543541.605483796,-1277870.6431989449 L 2551738.393549377,-1271239.5765704752 L 2553977.8077456653,-1262420.46651779 L 2553412.5273714173,-1253891.9702156817 L 2548640.149481619,-1235396.1051715026 L 2544770.127384191,-1222999.2820770738 L 2540019.456795097,-1223851.7387537963 L 2530311.6179614877,-1226896.6786694317 L 2518494.7200553096,-1229537.6416582454 L 2504003.705341295,-1231680.4092467178 L 2490197.4168151505,-1226608.7944092676 L 2475293.295470802,-1220104.2195213097 L 2470586.0394831174,-1215255.5996130628 L 2466422.4678884675,-1212388.854097674 L 2459845.4897334194,-1212842.6571606474 L 2453833.7919526193,-1212007.02499989 L 2450561.666840242,-1207397.5334600399 L 2445115.24943369,-1202257.6097526087 L 2423590.512693903,-1191625.9959983455 L 2419046.4510797216,-1187760.2629615527 L 2416361.313642297,-1183922.705694078 L 2416361.313642297,-1179742.7124312993 L 2418546.4039270775,-1171107.7882969745 L 2418502.878006178,-1160347.6139199836 L 2413708.7928156746,-1151667.766153528 L 2408142.818276011,-1145834.4484252764 L 2401804.9543871866,-1143603.0987597888 L 2396489.003423845,-1142387.9390630638 L 2393021.1786466525,-1138754.1288941104 L 2381791.379734918,-1119044.4964522056 L 2376942.859313417,-1115401.93852337 L 2367082.8467358937,-1116019.9701815844 L 2338763.83619503,-1086488.8054960337 L 2335948.2323143953,-1077798.8440164933 L 2325577.263274131,-1065478.5570224207 L 2312466.721565444,-1051768.3140323847 L 2300769.492111868,-1045162.8611707143 L 2299823.7217180887,-1042612.4803698072 L 2296681.95172943,-1040001.5769281607 L 2289496.278598724,-1037021.8948982263 L 2264471.100470942,-1020348.6643253864 L 2234477.844788547,-1021036.7651119173 L 2221215.2406554366,-1014491.4328876479 L 2208322.105912269,-1011585.2292009719 L 2189471.708619299,-1008376.4838659305 L 2183807.8842472285,-1008679.2337789158 L 2159630.73800031,-1007330.853037492 L 2131268.2015385455,-1007820.6967964981 L 2120397.1853456376,-1005459.7852485944 L 2110200.097349992,-999131.520287852 L 2102633.822880264,-993596.5395037925 L 2101524.969432472,-991731.5059341986 L 2102666.4394910666,-989399.0084684526 L 2102383.7993039424,-987545.2043260348 L 2122212.5836014943,-973960.4793846532 L 2127169.7518460094,-967285.1251209324 L 2122179.9669906916,-960830.8127192798 L 2119788.379050489,-959868.7846582456 L 2119505.738863365,-959489.495995422 L 2116277.028352397,-954344.4942909599 L 2104655.8301110333,-939023.0007699612 L 2086957.8121867557,-920878.3284607823 L 2077913.103559802,-915693.8950998773 L 2074282.1957285975,-912322.2103257328 L 2069607.6676712069,-900297.9903901035 L 2066552.8382048577,-898623.5964433152 L 2054409.8855101457,-897064.6091951118 L 2030341.387086241,-895752.6593128928 L 1997086.9156015667,-891828.051475813 L 1977127.6648608053,-890521.7594526083 L 1964723.7792796737,-891619.5323589798 L 1947275.7849317174,-883326.7449120898 L 1941014.063574596,-881203.0953654987 L 1937198.2540691842,-880489.6895921166 L 1919924.252085338,-872445.862201935 L 1905563.5924950421,-859965.833197421 L 1900443.341196515,-857596.4548122553 L 1880223.1575693341,-852303.8858460401 L 1872189.4525577647,-843727.4996331963 L 1868471.6042042514,-843014.7690773936 L 1855513.2362394787,-854333.1215191197 L 1846675.1365874377,-864622.8207445829 L 1842359.2799293823,-875019.1475163088 L 1841815.8181753296,-878344.2562056106 L 1839358.8856940314,-877724.1655867264 L 1832249.2437755372,-873120.7165116032 L 1826128.898171723,-867881.3553996815 L 1823291.4756708934,-857903.5586093547 L 1802386.4545363523,-851152.2229734897 L 1784525.3535580623,-845388.9312994782 L 1776393.798714086,-838140.4752445092 L 1763859.5580092357,-834516.7074986163 L 1747857.3812077024,-835991.444726436 L 1735388.2624049662,-838979.3413945604 L 1723234.4004001569,-839960.7129629052 L 1729061.3078262398,-849013.622005989 L 1731311.6313326259,-855764.544189045 L 1731887.8210169717,-864024.9303036003 L 1730996.3745346991,-869625.9840198536 L 1723723.649562193,-872418.4457485668 L 1719103.4454163092,-876813.2608988468 L 1708645.4245342442,-902889.2458404043 L 1697883.1674838415,-929716.22731222 L 1682728.9112436806,-956158.339981201 L 1666226.6872895043,-973042.0741185138 L 1654290.2322502139,-983331.8393279561 L 1650452.826763588,-984646.428315021 L 1644332.369840283,-987897.2573864192 L 1640049.2411125212,-990884.3647895997 L 1618154.9236633002,-1008866.3402131461 L 1595467.0095642137,-1028965.2642720388 L 1589651.0114482285,-1038162.0343985268 L 1578279.9481026772,-1051861.968409002 L 1565615.1296351263,-1065996.663007452 L 1559027.2421699807,-1072429.3214304785 L 1555939.9074123197,-1084040.4906028423 L 1564701.975852149,-1094524.4464757352 L 1574029.3246662267,-1107792.2262547286 L 1585552.6730751833,-1116599.4690543069 L 1600467.7037296293,-1117201.131234681 L 1625036.249306177,-1113586.2196543757 L 1651518.1542904798,-1112300.407930581 L 1677760.8336890677,-1115043.1955683574 L 1684566.128119733,-1116952.6886608964 L 1691295.2800186956,-1116798.1758590117 L 1705416.825342767,-1113724.2179309733 L 1730007.0782200196,-1114403.0277791994 L 1742693.603988275,-1119773.0287492203 L 1729006.9839147325,-1128892.495270048 L 1714309.2489063153,-1143415.3305473002 L 1700524.7790003656,-1159308.7583978015 L 1692165.0192002633,-1173700.1929502324 L 1684511.804208226,-1192267.5517555298 L 1677434.6675810434,-1215222.3891779492 L 1673118.9222424787,-1245000.0451118818 L 1673771.1431390368,-1261888.4628572713 L 1675967.142733916,-1273928.493162558 L 1683370.3341496314,-1293544.6621597365 L 1678478.2878072304,-1305058.165951015 L 1679554.5246442198,-1314355.278351776 L 1678837.070526057,-1328131.240018939 L 1676456.2805764612,-1335140.9067364137 L 1666878.908186062,-1358041.8218560356 L 1664976.458088405,-1360549.0690269605 L 1656507.9391457972,-1376381.5972372668 L 1652768.2721720883,-1402904.6377161262 L 1643212.6070823935,-1420414.1320005723 L 1627851.853186811,-1428894.2993221465 L 1619111.6033671775,-1439199.6606115557 L 1615937.2167677167,-1457417.2519505627 L 1609871.1950754095,-1462220.3521934403 L 1585726.5541198023,-1468570.0220759194 L 1565593.4223344217,-1468703.9625052898 L 1550939.2132469043,-1489280.3239535447 L 1532143.2511849324,-1515718.2422478858 L 1514651.7309160763,-1540346.5468743758 L 1503454.548615144,-1589643.1886538493 L 1497051.451504715,-1617925.66689817 L 1504335.0857873186,-1626529.3533690053 L 1518663.128766812,-1646683.1869239076 L 1537002.5695970405,-1685295.0934589177 L 1578312.5647134795,-1745131.776012117 L 1599434.9928135402,-1775806.2566883273 L 1641592.9084913516,-1821709.7098324967 L 1693404.2277717742,-1878248.621810143 L 1722592.9774942058,-1910164.6301124147 L 1727311.0314724972,-1968428.6783254782 L 1732300.816327815,-2030205.7748112753 L 1736084.0092224246,-2077038.9231429012 L 1740769.4465899132,-2132677.998714806 L 1744704.701908946,-2179296.926462696 L 1747563.8317104804,-2213327.115553869 L 1751618.7554821162,-2261668.144855385 L 1755086.5802593085,-2270965.981583987 L 1775415.4117095037,-2308980.846236736 L 1777013.514319332,-2314087.414997104 L 1773241.2307348205,-2320459.7693012655 L 1744204.654756303,-2352853.97900521 L 1735149.0368192517,-2360105.844457753 L 1729941.8449984146,-2376968.2236899035 L 1737399.3603256375,-2386441.508976624 L 1702481.5530095298,-2441016.5011292715 L 1693817.3344021079,-2447702.9361484973 L 1690034.2528269894,-2454397.681351539 L 1689588.529585853,-2464263.422301342 L 1688968.9253000978,-2502171.3749849596 L 1679695.9003975273,-2561828.9114974807 L 1667455.0978704079,-2631558.0099681863 L 1708471.543489625,-2651463.339830992 L 1739606.1579111235,-2666611.069902245 L 1779339.86903793,-2685949.3944805637 L 1816181.833752399,-2666137.704247765 L 1869515.2244304381,-2637493.4712815774 L 1922848.5037889862,-2608899.3869697615 L 1976170.9851569275,-2580355.031131694 L 2029504.3758349665,-2551859.626005809 L 2082837.6551935147,-2523412.519842275 L 2136160.136561456,-2495012.945896577 L 2189493.527239495,-2466660.50232501 L 2242826.806598043,-2438354.4318302893 L 2296160.197276082,-2410088.253230536 L 2349493.47663463,-2381878.765705133 L 2402826.8673126693,-2353702.2079996997 L 2456160.257990708,-2325575.360261012 L 2509482.6280391584,-2297491.7685772204 L 2562816.0187171972,-2269450.704347493 L 2616149.4093952365,-2241451.7986967093 L 2669471.779443687,-2213494.331222848 z" /></g>
</svg>
