<?xml version="1.0" encoding="UTF-8"?>
<svg xmlns="http://www.w3.org/2000/svg" viewBox="5750684.410388669 5832883.572048534 2103514.471371929 563296.4467508318">
  <g id="map"><g><path fill-rule="evenodd" fill="currentColor"    d="M 7701623.719762393,6293473.62205172 L 7710559.780566332,6294470.194367611 L 7716027.905273588,6292909.06334854 L 7740596.450850137,6270504.4797170805 L 7747032.0532518765,6269941.4542193785 L 7746423.35827622,6287082.54169745 L 7752739.403544849,6294802.354608099 L 7744749.22445418,6296779.089087419 L 7729605.766204625,6295931.763243581 L 7726137.941427434,6305754.979931884 L 7741422.664110805,6318354.093185658 L 7749032.353181942,6320086.440831515 L 7755250.659937655,6319936.492356226 L 7766839.130248725,6317071.778304631 L 7776155.681072194,6312543.200221515 L 7790581.462564606,6302030.461066662 L 7799191.35726052,6297975.288595222 L 7815563.114771486,6297792.5556322355 L 7824086.068945092,6287845.87823863 L 7828010.526273518,6284809.424352446 L 7837587.898663918,6285240.758195356 L 7846273.824572045,6289107.2681126185 L 7851459.309092176,6298124.846731881 L 7854198.881760598,6309115.184357393 L 7852122.439298833,6320036.457709615 L 7846360.876413845,6330638.50074813 L 7835761.591097962,6337129.5634264145 L 7838164.088348265,6344878.82139757 L 7835348.484467629,6348822.805499322 L 7830032.533504288,6349040.201192939 L 7825499.269880714,6347251.732619039 L 7818835.351203354,6338147.899127663 L 7810823.35349249,6333257.697887759 L 7791603.375490086,6333591.391492645 L 7782971.773493468,6334208.751036474 L 7781471.520716046,6341170.297970962 L 7776905.751801159,6346516.361327049 L 7772144.171901969,6349458.061794694 L 7765643.336278624,6348170.994513981 L 7764447.542308522,6351146.834486512 L 7767904.457775616,6358440.330865855 L 7776329.562116814,6367683.388895314 L 7790853.304761122,6374136.214133648 L 7799365.349624629,6375460.758053868 L 7800539.436294026,6363177.6985963825 L 7810823.35349249,6361737.828993486 L 7819944.204651147,6365388.391592524 L 7826553.7994169975,6374454.710561257 L 7821172.6152320495,6377423.061444945 L 7816432.853953054,6382238.543652872 L 7815454.466948471,6388467.316343518 L 7806203.149346606,6395238.778972847 L 7800724.226648743,6395961.568732878 L 7783341.3542029,6392650.399338338 L 7773003.001773439,6385008.167669023 L 7770535.271301533,6379620.679378784 L 7764164.902121398,6377590.872946957 L 7756968.208361103,6384538.162560966 L 7749271.578767656,6386049.183701278 L 7734215.172359903,6380275.111671288 L 7720311.03400135,6370967.876980024 L 7711614.198783126,6367465.509554448 L 7698090.661763596,6365220.82427948 L 7690611.439135668,6386384.984122845 L 7680262.177396109,6395339.473491061 L 7666868.995500298,6396180.0187993655 L 7660422.483788459,6394415.022857936 L 7656867.718488958,6386099.561502481 L 7657802.579572639,6377221.760783233 L 7659955.053246617,6368738.897180852 L 7664162.150762168,6360063.721323587 L 7666803.762278692,6350595.001256739 L 7665673.201530197,6341671.400350028 L 7660835.590418793,6335126.586874661 L 7663390.261413008,6323419.091123281 L 7658650.500134013,6314257.816693194 L 7660292.01734525,6307518.123858315 L 7668064.7894704,6302894.913578614 L 7664770.957057317,6298872.677201455 L 7660639.890753978,6297809.229425602 L 7657683.022439528,6292477.337468285 L 7655389.173012242,6286053.70995815 L 7658400.476557691,6273966.7235883605 L 7662890.214260363,6262343.598872529 L 7662346.64118682,6249232.90939348 L 7669945.532267352,6236868.465116219 L 7676446.367890697,6223072.565097758 L 7681316.595612903,6217573.487971173 L 7687415.345235502,6216767.082940642 L 7690089.573362829,6220618.968289562 L 7691404.924466042,6228146.58118451 L 7689013.336525842,6233025.746690622 L 7694709.777508713,6235252.061738305 L 7696199.120976037,6251314.751426773 L 7692633.446366438,6257893.893505404 L 7692111.580593599,6264279.705584726 L 7684686.681877177,6277844.539322719 L 7686849.953541764,6288775.331968289 L 7701623.719762393,6293473.62205172 z" /><path fill-rule="evenodd" fill="currentColor"    d="M 7712483.937964695,6284859.199051326 L 7705602.501002328,6286203.056943395 L 7703482.75525864,6280679.48633809 L 7703743.57682557,6273370.216154027 L 7699916.969329552,6267573.596254943 L 7697753.697664966,6261135.832329911 L 7699656.147762622,6255016.974015699 L 7710701.04500015,6254322.779178587 L 7722093.926965896,6256290.066369772 L 7724985.673378233,6266580.3615224 L 7716799.683303259,6280679.48633809 L 7712483.937964695,6284859.199051326 z" /><path fill-rule="evenodd" fill="currentColor"    d="M 5770197.937888294,5851132.552714887 L 5762088.201664514,5852552.441354696 L 5754837.183992712,5849224.004275944 L 5750684.410388669,5840427.675623714 L 5759881.4040790275,5832883.572048534 L 5764588.548747221,5838048.82329424 L 5768067.282834511,5843831.7160802195 L 5770197.937888294,5851132.552714887 z" /></g></g>
</svg>
