<?xml version="1.0" encoding="UTF-8"?>
<svg xmlns="http://www.w3.org/2000/svg" viewBox="-10039.45959668217 -1245221.6078384393 207957.72186276704 566072.4976305953">
  <g id="map"><path fill-rule="evenodd" fill="currentColor"    d="M 100241.86562545333,-1231342.7010543307 L 97382.8471434097,-1219152.1012708743 L 91490.70649572172,-1204061.214429541 L 87664.09899970294,-1199264.7284286742 L 84978.96156227839,-1162624.262539314 L 86826.97642893752,-1159557.3793295214 L 88185.9647725418,-1158651.1717869195 L 106677.57934668486,-1146259.7847915834 L 130930.86812530617,-1130013.2395166587 L 148063.60567533574,-1118547.8141385054 L 149487.71592105407,-1114700.9575919367 L 149737.73949737576,-1090663.582710135 L 149955.14646289503,-1070036.8873656073 L 153499.11377178968,-1058237.088570071 L 154260.09381085253,-1046804.5018684388 L 158554.13184871222,-1038156.5073271989 L 174360.72030492153,-1021493.7390956082 L 178132.8925699424,-1011662.3314822827 L 178535.2012096693,-980218.7829339908 L 178850.45800759582,-956378.1950438386 L 180850.64661816938,-923937.600608223 L 180850.64661816938,-896861.5748976456 L 180850.64661816938,-862659.0901389682 L 180861.5559282671,-822605.4592487882 L 180861.5559282671,-780880.9654338789 L 170425.3536663977,-780333.4283904101 L 176110.88533917337,-767389.1215149247 L 177089.27234375547,-755646.7612720078 L 178437.351377262,-751815.2621185305 L 175610.83818653,-746134.19932352 L 177948.10221522558,-737482.4808259117 L 182481.36583880006,-734270.5821172761 L 194048.12884916592,-716873.7014213632 L 197918.26226608487,-702128.7282337374 L 179328.79785953453,-697223.6795617241 L 180633.2396526501,-693412.6086189369 L 145900.33401075006,-685583.4010384281 L 132159.2787062099,-679149.110207844 L 131920.164439986,-685375.7096575781 L 126865.03504357263,-686496.3560009801 L 120722.98213905377,-688595.7353501631 L 116874.55602283949,-691827.0214041625 L 111558.60505949754,-699208.6521343369 L 109645.35697123353,-705005.1588120698 L 101546.41873805971,-705929.3920783974 L 91555.93971732658,-712404.9281231934 L 82032.89123843439,-719822.0087518909 L 78728.1495152545,-727234.5686721657 L 79641.30329823172,-730659.4065120451 L 78173.6671316132,-734183.0649020736 L 74890.63270913796,-735501.6647336482 L 66313.35462402545,-752275.0725691698 L 61008.3129707812,-759035.0280395425 L 58507.965888073486,-764465.6235082138 L 59377.59375015055,-768659.3020844758 L 58225.32570094937,-774326.2609649622 L 59899.4595229894,-778904.04944491 L 64508.75435877569,-781642.2779927482 L 65954.57190519873,-784993.84506672 L 66367.67853553257,-792021.0378752367 L 68965.87545064757,-806598.6210608858 L 70661.8278928831,-820862.6365543155 L 65791.60017067737,-824808.7969396331 L 59812.51900067986,-825921.4472520243 L 56725.07292352841,-830005.0838674078 L 55540.188263524804,-836742.4718731933 L 55659.74539663678,-842554.1443100944 L 67367.88416031013,-862922.4140511617 L 64965.38691000969,-909856.6996547505 L 66704.7539536546,-917028.3561686213 L 72031.50290760353,-921965.8155596778 L 76597.38314198043,-927678.2602576179 L 76401.68347716586,-933375.0169989127 L 68596.2947412139,-947414.0184640808 L 53800.82121987991,-958181.2067361134 L 46234.546750151894,-966900.2528863375 L 42147.006367713686,-974702.7636903758 L 41473.078170451205,-978898.814284977 L 50441.64426570209,-985036.9830110199 L 54409.62751502832,-989283.5305548254 L 54909.6746676717,-994179.7389206662 L 51246.15022566508,-1003115.4643897011 L 51887.461812125126,-1019021.8795943838 L 55344.48859871023,-1030964.0721552445 L 58888.4559076049,-1046424.4059006217 L 58518.87519817123,-1050958.3823033266 L 49822.03997994673,-1060187.8401777777 L 45114.78399226236,-1061449.871371922 L 41299.085806341325,-1060783.073157579 L 32210.85125848767,-1054721.5817772984 L 28938.726146110188,-1054065.8449274008 L 26884.10230453874,-1055856.7063253545 L 25981.746512168465,-1058297.691872244 L 29156.13311162945,-1061918.2622309434 L 28003.865062428278,-1066437.6794097037 L 30667.183879657354,-1070384.1377863642 L 36439.76739423334,-1072186.7069993478 L 38135.60851697807,-1074171.2456321141 L 30362.83639182854,-1076067.7064044601 L 29449.68260885131,-1078752.7421199216 L 30004.05367300182,-1081371.6812077002 L 32243.467869290107,-1081867.8692816272 L 34700.40035058845,-1081719.0347634656 L 36059.27737470193,-1083593.8502942766 L 37244.162034705536,-1096736.3196652362 L 38189.93242848518,-1101325.9781239314 L 39168.31943306727,-1110402.1176106425 L 40375.02271326636,-1145630.153016226 L 42147.006367713686,-1149259.2281880607 L 42397.02994403538,-1151894.271429654 L 36939.81454687673,-1153601.3664335848 L 24046.791123199786,-1163060.7774411314 L 16502.223954176465,-1170333.9529847624 L 9936.155109226012,-1177785.48746824 L 4391.887870267023,-1182684.078121417 L -6424.804411133785,-1190243.3615234536 L -9609.98900120172,-1195049.6903320125 L -10039.45959668217,-1199862.1281841325 L -6745.515864109206,-1209500.2517983897 L -1543.6673788303249,-1219788.6197834215 L 1049.0748812358102,-1234487.896640934 L -527.2091083969436,-1238408.7493167904 L -7636.96234638174,-1245221.6078384393 L 17730.634535080237,-1240003.8757478485 L 53898.6710522872,-1231198.682815374 L 54627.03448054759,-1229631.7590734828 L 54844.441446066856,-1227001.7870866794 L 61127.87010389317,-1227051.676849762 L 71574.98167586033,-1230185.4696564116 L 100241.86562545333,-1231342.7010543307 z" /></g>
</svg>
