<?xml version="1.0" encoding="UTF-8"?>
<svg xmlns="http://www.w3.org/2000/svg" viewBox="10839615.858861903 -2323376.9512794646 920288.2491421625 1694880.1544098742">
  <g id="map"><g><path fill-rule="evenodd" fill="currentColor"    d="M 11422097.20950803,-1308915.4974090469 L 11420259.99263198,-1297056.5213658684 L 11413900.532761943,-1301917.157424816 L 11415422.381520577,-1307921.9075806555 L 11417922.728603283,-1310641.651477575 L 11422097.20950803,-1308915.4974090469 z" /><path fill-rule="evenodd" fill="currentColor"    d="M 11402094.54416586,-1344424.8124813403 L 11402453.215565195,-1341696.5384582137 L 11396680.74337011,-1343769.0942312772 L 11394658.736139342,-1342796.6950674467 L 11388201.315117406,-1343524.6544250194 L 11385016.130527338,-1359292.6300770298 L 11385472.65175908,-1362995.3745456757 L 11390082.05791436,-1361833.3434317848 L 11396680.74337011,-1354000.5576037816 L 11400050.718314895,-1348564.8553742983 L 11402094.54416586,-1344424.8124813403 z" /><path fill-rule="evenodd" fill="currentColor"    d="M 10954848.897673503,-882454.279114753 L 10953664.0130135,-874179.6483513295 L 10949098.132779123,-874294.8243634682 L 10944445.312022436,-869000.5034112645 L 10942292.838348458,-868298.2941944448 L 10938509.75677334,-885154.2223331373 L 10942858.118722707,-908780.4145864199 L 10945162.766140599,-912162.9669075598 L 10948380.67866096,-905903.4376235114 L 10957729.734775744,-903092.4194733166 L 10953707.427614909,-889478.9781514278 L 10954848.897673503,-882454.279114753 z" /><path fill-rule="evenodd" fill="currentColor"    d="M 11145581.375489393,-2310580.4359482005 L 11144744.252918627,-2303580.113427823 L 11147505.532887755,-2302125.8842724385 L 11151332.140383773,-2305370.5297158863 L 11156224.075406684,-2313304.9020657283 L 11161561.84499022,-2317780.67136872 L 11167345.226495404,-2318801.2451893725 L 11173487.390719412,-2313397.624127861 L 11179988.22634276,-2301569.7811138416 L 11186673.963640312,-2294850.764764611 L 11189783.005698677,-2294121.1333144307 L 11192055.036505768,-2288718.9369024723 L 11192402.909914495,-2283538.306462458 L 11189228.634634526,-2272597.117862173 L 11183847.45044958,-2259876.1348666092 L 11176215.942758247,-2244160.369933231 L 11178716.289840955,-2230962.156255212 L 11189119.875492021,-2220207.313024412 L 11201578.08498466,-2213874.9412694937 L 11214764.657905558,-2215633.6636367277 L 11221765.65200104,-2218846.005867305 L 11227483.800284617,-2223939.7119702813 L 11232810.660558056,-2226339.835523043 L 11239539.81245702,-2226980.329314275 L 11260488.35951246,-2223247.3340237676 L 11266858.728692597,-2219601.6587260976 L 11267848.025007276,-2212312.2800845103 L 11265260.737402258,-2193582.663765038 L 11268489.336593736,-2179855.219182688 L 11274425.003162324,-2165407.135385257 L 11275142.457280487,-2152245.647042079 L 11267815.408396473,-2130553.4200311718 L 11261694.951473169,-2110049.349669893 L 11255107.175327513,-2100094.6225976776 L 11249997.722019594,-2093692.0625552402 L 11248497.580561664,-2089348.3895861097 L 11248899.7778819,-2085246.2782087817 L 11253596.013239995,-2079088.9838781448 L 11258575.000104707,-2071153.0695338938 L 11259825.117986314,-2063569.3784505946 L 11259292.45422287,-2054249.5562598966 L 11255878.953357184,-2041475.301672517 L 11243159.810978124,-2013821.0103223934 L 11233082.391435083,-1988900.1995534338 L 11238354.816477526,-1983905.8234833435 L 11248356.204808356,-1980269.1967329108 L 11254976.708884304,-1976718.624252561 L 11261912.358438687,-1978992.462902396 L 11276631.80074781,-1993701.747771645 L 11289318.326516066,-2004654.8202615376 L 11305059.570431178,-2015596.5493549532 L 11306016.250135057,-2016549.9730762867 L 11319800.720041005,-2024607.5273874274 L 11326105.967319027,-2032011.266553755 L 11329519.468184713,-2041458.0923118098 L 11334400.493897526,-2045116.868346486 L 11340727.448476253,-2042984.513161249 L 11348739.446187116,-2047089.4820108777 L 11358436.375710629,-2057435.7518882602 L 11365883.093047244,-2062218.9646972727 L 11371090.28486808,-2061423.5011346228 L 11380374.219080748,-2054993.1957512368 L 11393756.38034697,-2042927.2615566265 L 11405660.218775459,-2035748.304270218 L 11416096.421037327,-2033462.5608287195 L 11421184.055725053,-2028977.4751382603 L 11420944.941458829,-2022294.4737231748 L 11423249.588876724,-2018051.6395805303 L 11428130.725909026,-2016253.0904480156 L 11430293.997573612,-2016972.444698214 L 11429750.424500069,-2020204.3496365487 L 11434468.478478359,-2024938.803493105 L 11444469.866809191,-2031177.070014473 L 11454623.428883936,-2034845.375561083 L 11464950.8720033,-2035936.8534051783 L 11471625.699990755,-2040886.5623887577 L 11476061.113781923,-2053734.7177026442 L 11482442.392272156,-2063517.9291308639 L 11488138.83325503,-2067941.873119643 L 11495205.060572114,-2070168.5082152344 L 11497031.36813807,-2073276.9909773462 L 11493617.867272384,-2077262.214889358 L 11493933.12407031,-2081311.0946839945 L 11497998.845832553,-2085406.6580261483 L 11506760.914272383,-2087159.7734439655 L 11520230.127380406,-2086552.4663292435 L 11536003.987906322,-2082376.4337982845 L 11554104.314470327,-2074628.2559412753 L 11565964.626977913,-2072143.5408494642 L 11571617.542039888,-2074920.2366731432 L 11582651.641286809,-2062928.439352611 L 11599066.924718674,-2036188.3719697054 L 11613144.944121845,-2016001.8134180757 L 11624885.699496321,-2002343.9767068475 L 11637256.96846665,-1991865.3444235157 L 11650236.932412637,-1984561.491375569 L 11659564.281226715,-1974633.0273236048 L 11668065.528099615,-1955809.105806585 L 11661716.754900694,-1929807.372418883 L 11659999.206477243,-1907369.7524481239 L 11660781.893817011,-1879837.108875658 L 11668435.10880905,-1858759.2295174417 L 11682969.649443962,-1844123.5957214797 L 11691416.461085867,-1832299.6154599818 L 11693797.251035463,-1823288.5476641778 L 11705103.08115941,-1815559.5014388089 L 11725355.881397393,-1809111.1728009938 L 11733770.076428492,-1803269.5673601103 L 11730356.575562807,-1798028.7799086832 L 11730095.642676389,-1791952.5773172972 L 11732954.772477923,-1785030.617009496 L 11739977.473874107,-1779308.07147014 L 11751152.837554844,-1774778.505952954 L 11757795.048931496,-1770001.3151468132 L 11759904.108004065,-1764982.4279141452 L 11759664.882418351,-1756821.2642176177 L 11757077.594813334,-1745537.8056243467 L 11752413.86474655,-1736870.13700576 L 11745673.91485698,-1730826.7163809154 L 11744858.49958692,-1726063.986435879 L 11743140.95116347,-1718789.303945958 L 11743140.95116347,-1703908.6001878476 L 11747924.127043875,-1693995.0879364582 L 11749402.672520591,-1681418.8911143134 L 11746771.858994674,-1671148.8841534667 L 11744227.985991068,-1650188.7781357574 L 11743912.72919314,-1642071.4776197271 L 11741488.524642136,-1635107.7635284783 L 11735596.383994447,-1628381.7531358902 L 11726638.727209294,-1622067.153542091 L 11715669.749864487,-1616455.533770264 L 11708951.507275622,-1613969.9554681724 L 11707375.22328599,-1612803.0310594873 L 11702570.22878539,-1606469.8598510546 L 11696797.645270813,-1600323.2492208749 L 11692296.998258041,-1600317.7368077838 L 11688927.023313256,-1603424.3969954317 L 11686589.759284561,-1607445.8070408567 L 11685176.55834894,-1616253.516264553 L 11675055.612884996,-1620608.0464909761 L 11663945.371106375,-1623346.7996320415 L 11641322.690228894,-1619003.0671680693 L 11623048.482620269,-1616651.9220484158 L 11602578.275416767,-1619631.6002769615 L 11583271.356892055,-1615866.3779381514 L 11575205.035269683,-1615310.9038011008 L 11565942.91967721,-1615872.008581443 L 11557006.85887327,-1615799.0401363748 L 11548494.925329253,-1617179.385414156 L 11532742.772104042,-1622572.3147316123 L 11526731.074323243,-1622151.4038514523 L 11514044.548554987,-1617689.966476745 L 11500803.651722582,-1614553.4375085004 L 11488106.216644228,-1612404.6848615212 L 11469364.578493763,-1603205.712687517 L 11455808.31354394,-1589906.644164647 L 11451796.915693205,-1580513.8841856758 L 11445067.763794241,-1571057.2598986786 L 11435729.505670065,-1556083.7890732717 L 11423651.78619696,-1541762.0107589937 L 11415226.793175252,-1535233.369158489 L 11417542.238583753,-1531385.1182595335 L 11415465.907441476,-1526726.5729240566 L 11402290.243830675,-1524652.0515905402 L 11392027.922613423,-1523818.9665499378 L 11390179.907746766,-1521492.9907217324 L 11391408.318327667,-1492681.377077236 L 11394995.700237973,-1481787.1439954666 L 11401637.911614627,-1468642.5921101011 L 11405986.384883484,-1461450.4943799884 L 11409215.095394453,-1440124.9869525176 L 11410204.28038964,-1422052.0741122854 L 11424684.497113049,-1410638.9360817934 L 11432881.28517863,-1401924.738621936 L 11438708.192604713,-1394259.5243312598 L 11436675.276063846,-1389372.9538976534 L 11433207.451286653,-1374818.5204377447 L 11436588.335541537,-1355929.363883797 L 11456786.70054852,-1315232.420492547 L 11458547.886212362,-1312345.7317880276 L 11456145.388962062,-1312023.7797211525 L 11452960.093052503,-1319857.1789254479 L 11442708.792464841,-1333035.5991246721 L 11439523.496555282,-1347125.4450627733 L 11427489.303003075,-1362650.6890377677 L 11420727.53449331,-1368822.941688668 L 11418575.060819332,-1363673.7115912691 L 11414726.634703118,-1358141.8982819829 L 11402909.848116431,-1366114.803099229 L 11392788.902652487,-1374468.1180546375 L 11383428.937227609,-1390619.5958128346 L 11382244.052567603,-1386868.886466916 L 11380145.902805133,-1383474.7362914344 L 11369524.910188545,-1396168.6878319606 L 11358414.668409923,-1406301.0146462657 L 11348413.280079091,-1409926.1121498854 L 11342238.61056377,-1413301.0591184143 L 11336302.943995181,-1418676.1156031038 L 11323823.02720184,-1424263.8303009863 L 11292797.060603356,-1416230.700984416 L 11253313.37305287,-1422469.9033111075 L 11238115.7022113,-1416492.5043314185 L 11231886.597464982,-1420208.0836765827 L 11228049.080658866,-1427133.408331612 L 11231734.423721068,-1438965.5081078582 L 11232571.434972342,-1463721.166682829 L 11237267.781649929,-1481133.9431932427 L 11235060.984064443,-1494373.709519921 L 11237365.631482335,-1500613.2988249327 L 11239115.796516588,-1509128.6716802476 L 11232864.984469565,-1512610.465159523 L 11204980.787859738,-1519351.7753620755 L 11199066.939911345,-1524719.1575581597 L 11191663.74849563,-1518569.1132815965 L 11158180.960735338,-1515136.930943223 L 11145570.466179296,-1509994.9582861199 L 11133894.944026424,-1500110.5651000934 L 11130894.549791072,-1487560.3976949884 L 11137634.611000134,-1479302.8213017823 L 11141961.265648795,-1464948.6144870706 L 11129948.779397294,-1433636.798883331 L 11127937.681476623,-1424341.8792515802 L 11132579.59292321,-1386106.4937651984 L 11130731.466737062,-1365152.8510561974 L 11124187.105192814,-1351110.2517807067 L 11113816.13615255,-1338496.3167654553 L 11109543.805415396,-1317131.0653241049 L 11101390.543270715,-1307239.3371244564 L 11090465.203166299,-1284641.8738428636 L 11083116.33566209,-1256518.5141501294 L 11077887.325221058,-1243515.5110010444 L 11074832.6070742,-1219583.8896348486 L 11052329.594649322,-1183281.3044489592 L 11047046.26029678,-1162790.0628722068 L 11039001.645975113,-1155059.8388333218 L 11041817.24985575,-1148955.358226205 L 11042295.589707687,-1138726.4197836756 L 11039479.985827053,-1111450.6462287034 L 11038523.306123175,-1088838.112644087 L 11041926.008998254,-1076767.852453496 L 11052720.88265946,-1052776.6336945253 L 11050133.595054442,-1045823.9768538187 L 11048894.27516344,-1035925.8895049266 L 11057971.600401197,-1031437.625238781 L 11064472.547344035,-1030116.1115618196 L 11101205.752915997,-1041450.2149756813 L 11113642.255107932,-1038536.5234805373 L 11118316.78316532,-1027963.078700447 L 11121338.996020868,-1018746.6742007261 L 11127568.100767188,-968984.0997000219 L 11130785.901968058,-959747.8712548377 L 11138210.800684478,-950958.8088326603 L 11146342.355528455,-941610.9991111176 L 11149103.635497581,-943287.0121156853 L 11149636.299261026,-946754.4813767797 L 11150147.255723769,-950650.9608207531 L 11157409.071386177,-941231.8710360568 L 11163051.188457543,-923657.5025785079 L 11182434.24951396,-830810.9171047062 L 11188021.931354327,-819026.7167230591 L 11192642.135500211,-806636.997182213 L 11180857.854204835,-812680.8142049145 L 11177672.669614768,-833283.2841514933 L 11174291.785359884,-841951.0266770016 L 11170128.213765236,-843228.5759154359 L 11163540.32630009,-843075.0705954874 L 11163116.310359657,-846759.7816929434 L 11168051.771303467,-853482.9818369803 L 11167279.993273798,-861545.596641241 L 11160518.224764032,-868166.6170870169 L 11149560.156729326,-862911.4047456894 L 11149842.79691645,-848437.8264893919 L 11154756.550559554,-837351.0267729368 L 11173291.6910546,-812609.5517930919 L 11179096.779860487,-802254.0032031545 L 11186467.354665399,-799284.6835097815 L 11197207.904415099,-800922.7527501686 L 11210057.513237366,-790377.7557403324 L 11220178.458701309,-780585.3261226497 L 11245257.960740598,-765587.8447943586 L 11260455.742901657,-767181.0157230729 L 11276881.824324131,-770898.6747486165 L 11287894.216270348,-769918.6362340415 L 11298699.99924165,-766075.1309570465 L 11311647.457896326,-753594.1067443048 L 11332237.22223294,-722289.0568778005 L 11365839.567126343,-696261.2860535268 L 11362197.749985041,-689814.9770067387 L 11360730.225137915,-679963.6724144166 L 11347478.41899541,-666829.2434295538 L 11345369.471242331,-659222.0503564731 L 11340520.95082083,-649588.7387744804 L 11331291.45183916,-644447.601978052 L 11323366.394650606,-643469.5946777624 L 11318789.71642562,-644387.5180375642 L 11315626.23913626,-646310.5681043124 L 11310212.43834051,-655391.4434339377 L 11307472.976991577,-658172.8597758232 L 11305168.329573685,-658817.7041923023 L 11288263.796979781,-652539.2050012257 L 11271881.130158717,-645567.5009819919 L 11268848.119312564,-639339.5511681613 L 11264488.848053098,-632074.4143889775 L 11259705.560853202,-629201.2973873143 L 11255955.095888887,-628496.7968695904 L 11252367.602659091,-632762.6211587691 L 11246073.264691167,-638312.6200353464 L 11241224.855589157,-643518.824749861 L 11242464.064160667,-651927.2127064106 L 11251682.765151732,-664271.5081617105 L 11252900.266422536,-672912.2973741113 L 11251726.29107263,-687731.901741962 L 11249225.943989925,-696299.5843995846 L 11246540.8065525,-696605.7481002089 L 11242018.452239022,-697989.2158713179 L 11229234.07663836,-696616.7225419782 L 11222841.888838027,-706274.0233112997 L 11220308.92514452,-716862.7231325045 L 11215938.744574957,-720658.9848866519 L 11211612.089926295,-722967.4271342698 L 11202023.808225796,-719307.7971709657 L 11194718.466642488,-721495.8613464708 L 11170399.94464226,-730725.0682773056 L 11161050.888527479,-745608.8731992273 L 11156061.103672162,-746046.663299975 L 11151625.689880995,-744388.4368657444 L 11149897.120827958,-741001.0807044742 L 11147309.83322294,-723864.6137160221 L 11145211.794779958,-718634.960028649 L 11117327.486850642,-753139.7778500855 L 11098107.508848239,-767350.774373647 L 11100814.46490586,-793094.600830536 L 11094965.738859579,-798106.8768266361 L 11087693.013887074,-798605.348952586 L 11082192.272569016,-805727.5358007825 L 11087084.318911416,-821081.8470036647 L 11079528.953751786,-818149.8045804319 L 11069070.932869721,-818697.8588363486 L 11060548.090015607,-822945.3431652489 L 11054068.961692965,-844177.1305362736 L 11049981.421310527,-850658.7257956913 L 11041045.360506589,-861781.3917632743 L 11029272.099840801,-861781.3917632743 L 11025380.259123178,-867124.3360951465 L 11026315.120206859,-880857.4046219641 L 11017727.04413114,-889281.3728026438 L 11006432.0119978,-896153.4352073442 L 10997104.663183723,-900188.146100672 L 10987625.14062573,-922333.753969647 L 10980145.806678312,-927766.1220903934 L 10973786.235488784,-932182.8391713947 L 10964948.135836741,-929205.3485593381 L 10962078.09672511,-921229.8353966388 L 10956175.158086816,-913502.8334612946 L 10949467.713488558,-914485.7726068271 L 10943314.751273941,-918901.1677301177 L 10935824.619335916,-941050.5794369602 L 10934574.390134815,-954619.2735334673 L 10936226.816656152,-979866.7947326773 L 10945597.691391129,-1002521.093750924 L 10950652.709468052,-1038778.8152954554 L 10958642.88855872,-1061604.1575656412 L 10964187.155797679,-1069347.927447601 L 10971862.078090422,-1100526.0660036816 L 10987516.381483227,-1140416.375147309 L 10989288.365137672,-1148971.9884217079 L 10992451.842427036,-1158568.3377862305 L 10994843.430367239,-1167625.663475118 L 10995626.229026496,-1181909.9865936397 L 10993604.221795728,-1189447.0154420964 L 10993604.221795728,-1193677.9063133586 L 10996908.963518908,-1199060.0083941657 L 11008062.61989894,-1208111.3439063027 L 11023456.101724816,-1223032.5001601882 L 11041795.542555043,-1244047.2175012608 L 11060569.79731631,-1276301.492664404 L 11069908.055440487,-1295037.0527322302 L 11073832.512768913,-1301639.7471465042 L 11077985.175053464,-1303704.0742508282 L 11084399.18147399,-1310125.4436271845 L 11088812.776644964,-1317231.0091546634 L 11089062.800221285,-1320817.7144370847 L 11078844.004924934,-1355912.62874713 L 11072158.378946872,-1367365.9445674708 L 11068766.585381893,-1380898.6988206643 L 11066972.89442674,-1390675.2160890775 L 11064515.961945442,-1399658.9179143826 L 11065722.665225642,-1408127.3637211423 L 11062037.43348293,-1413412.3853900891 L 11053731.886274844,-1420102.2078070394 L 11045100.284278223,-1430014.3410659656 L 11039947.416368894,-1446246.7067451342 L 11039947.416368894,-1455314.4305949192 L 11034424.96775013,-1463246.976112598 L 11032587.750874078,-1471561.205269399 L 11035892.492597258,-1479503.80897095 L 11040240.965866115,-1486371.070050127 L 11039740.91871347,-1516562.298957582 L 11038001.551669829,-1525591.4356940475 L 11035859.875986455,-1541734.051389345 L 11030228.668225188,-1553889.3839578782 L 11022260.196435222,-1568155.9667763705 L 11013237.306428466,-1579936.7884158415 L 10989592.712625502,-1601276.569774111 L 10972764.433882792,-1615540.9518330048 L 10964415.472073296,-1628527.6469669128 L 10953859.601358823,-1643486.9510065436 L 10946282.528898489,-1654245.6463272911 L 10936694.247197991,-1667859.485643953 L 10931813.110165687,-1686426.0839123814 L 10929117.174737658,-1706194.7218069506 L 10930573.901594179,-1712733.4467296603 L 10935161.489129258,-1717031.4614342009 L 10941162.277599962,-1720519.0023378788 L 10945978.181410661,-1721324.6985565906 L 10959642.982864005,-1730420.8203021921 L 10969122.61674149,-1729648.6438317706 L 10971307.707026271,-1731610.2444625078 L 10972231.658799857,-1735753.7741460158 L 10971035.864829754,-1753796.781342388 L 10971448.97146009,-1777941.2443169537 L 10973210.045804435,-1797616.0558037828 L 10975253.8716554,-1810593.0027704083 L 11000365.990305495,-1825671.2075148253 L 11005660.12264864,-1832192.134977378 L 11008214.904962346,-1839269.8856029678 L 11008193.08634215,-1845511.406044762 L 11006084.138589071,-1850417.509578051 L 11002311.85500456,-1853131.6682006004 L 10986037.947325999,-1840119.340459741 L 10982863.56072654,-1843019.1389977096 L 10975395.136089219,-1864416.6453829862 L 10972177.334888348,-1870937.3703891372 L 10967546.332751857,-1878747.8583536744 L 10962534.729276344,-1889676.82455921 L 10961762.839927183,-1908608.1663734291 L 10958164.548706783,-1917994.6986786923 L 10937868.333867388,-1938019.8598572612 L 10928747.482708734,-1948767.9646205169 L 10916332.799136994,-1964321.9480915398 L 10901439.475783253,-1982993.8064131157 L 10886263.512242386,-2000272.9059335415 L 10879153.870323895,-2011326.437942444 L 10876631.70462099,-2013815.2815130663 L 10875751.167448817,-2018074.4425460547 L 10880360.462284602,-2029977.262032351 L 10878110.250097707,-2041926.847654786 L 10870522.268327273,-2057893.390168206 L 10867282.64850621,-2067770.1437208317 L 10868369.794653295,-2071559.5461807651 L 10864706.158891799,-2073042.369699949 L 10856302.873170795,-2072212.1299615384 L 10848171.31832682,-2079690.3196449275 L 10840365.929590868,-2095485.9260230714 L 10839615.858861903,-2098265.9500686885 L 10842192.237156821,-2098214.295071563 L 10851976.218522133,-2095480.1743239656 L 10855335.39547631,-2095892.8922571554 L 10862260.247040087,-2099527.0776116857 L 10872750.773213465,-2103345.342192339 L 10879001.585260488,-2104612.5435279356 L 10881023.592491258,-2106510.7359228753 L 10881925.948283628,-2110341.844532664 L 10876588.290019581,-2146906.5834292513 L 10877490.534492461,-2154521.9674333427 L 10887481.013513193,-2170302.5640329174 L 10886328.745463992,-2186262.82750217 L 10888916.033069009,-2209164.4363064826 L 10900004.456227437,-2224862.764211783 L 10908331.710736228,-2232053.0467622727 L 10910984.23156285,-2243380.674121528 L 10914767.313137969,-2245771.788187938 L 10921670.457401041,-2244876.459972168 L 10935922.357848832,-2236422.7936759237 L 10941999.288851235,-2236018.67716684 L 10950641.800157955,-2236243.789570457 L 10959958.239661934,-2236867.355447902 L 10964285.005630087,-2237681.308904513 L 10993984.711815258,-2245933.4935614164 L 11000539.871350111,-2246805.685521423 L 11006801.592707234,-2245754.3993239896 L 11011356.563631512,-2246147.1313165347 L 11015955.060476694,-2249936.705769024 L 11019227.185589071,-2256616.339925668 L 11022934.235951977,-2277983.013310134 L 11025054.093015153,-2281755.8097548615 L 11028891.60982127,-2284805.7978215953 L 11035185.947789194,-2286849.1624069884 L 11042545.61328401,-2286675.484853927 L 11052209.926196719,-2282560.21740654 L 11058243.442597713,-2282380.7723397803 L 11065070.444329083,-2284105.484220176 L 11070897.351755166,-2287051.768515847 L 11074723.959251186,-2290791.6656585694 L 11076474.124285437,-2295285.0941679496 L 11074897.840295803,-2303933.6024286035 L 11070495.043115439,-2314783.168379194 L 11071712.655705737,-2316087.599014966 L 11079811.59393891,-2313687.428113689 L 11091726.230358005,-2311032.586247125 L 11100792.646285662,-2311623.757800208 L 11106717.403544154,-2313507.7989670276 L 11112489.875739237,-2318633.085291299 L 11119740.89341104,-2323376.9512794646 L 11126861.444639632,-2322309.7978322217 L 11132351.276647594,-2318053.2067522225 L 11145581.375489393,-2310580.4359482005 z" /><path fill-rule="evenodd" fill="currentColor"    d="M 11140200.191304445,-1084619.4933483386 L 11139123.954467455,-1082733.5602266677 L 11134808.20912889,-1086317.929905453 L 11131731.672361838,-1090371.2666210933 L 11130100.953141205,-1095561.4575977484 L 11136786.69043876,-1095346.258487941 L 11140080.634171335,-1090542.2735168205 L 11140200.191304445,-1084619.4933483386 z" /><path fill-rule="evenodd" fill="currentColor"    d="M 11139819.701284913,-1072126.0818556957 L 11140330.657747656,-1065737.6091439845 L 11137928.160497354,-1058060.8091119844 L 11127763.68911251,-1053570.0154457944 L 11124295.86433532,-1059713.9401439799 L 11125219.927428395,-1069182.5472985466 L 11126785.30210793,-1071558.3326065333 L 11136732.366527252,-1071089.7115558418 L 11139819.701284913,-1072126.0818556957 z" /><path fill-rule="evenodd" fill="currentColor"    d="M 11094443.984406233,-727590.1970785497 L 11092324.127343055,-726939.1097328406 L 11088160.555748405,-735983.1906314582 L 11093432.980790848,-749127.8811449937 L 11098705.405833289,-733039.5267354746 L 11094443.984406233,-727590.1970785497 z" /><path fill-rule="evenodd" fill="currentColor"    d="M 10975210.345734501,-886037.8661473148 L 10973873.176011093,-884138.9856581953 L 10968242.079569314,-905667.3053817253 L 10976580.132068712,-899908.1961426906 L 10975210.345734501,-886037.8661473148 z" /><path fill-rule="evenodd" fill="currentColor"    d="M 10943543.067549556,-1011821.9471972365 L 10937226.910961438,-1010622.0266493061 L 10938074.83152281,-1016775.8706757025 L 10939770.783965046,-1020662.440430959 L 10942836.411422001,-1021702.8912714354 L 10944097.438613709,-1015080.4546498301 L 10943543.067549556,-1011821.9471972365 z" /><path fill-rule="evenodd" fill="currentColor"    d="M 11029359.04036311,-847604.2996915363 L 11032250.786775446,-834067.1656691517 L 11028184.953693714,-836830.1616969148 L 11024825.776739536,-842735.0473726119 L 11024869.302660437,-851409.980112979 L 11025651.990000203,-852621.9626119788 L 11029359.04036311,-847604.2996915363 z" /></g></g>
</svg>
