<?xml version="1.0" encoding="UTF-8"?>
<svg xmlns="http://www.w3.org/2000/svg" viewBox="7497324.179006075 -5017521.318226432 864856.820021145 622365.2209855933">
  <g id="map"><g><path fill-rule="evenodd" fill="currentColor"    d="M 7542895.595549571,-4463138.878928763 L 7547244.068818428,-4473307.814825006 L 7549059.467074287,-4507209.138405222 L 7554538.5010916395,-4518956.797288149 L 7570942.9865329,-4540079.639605436 L 7579476.738697113,-4556206.283933936 L 7589097.52568892,-4569318.606376434 L 7596054.993863502,-4573729.81963598 L 7602458.09097393,-4584075.935849014 L 7607708.808715667,-4595938.476111461 L 7609187.242872892,-4603402.616951274 L 7608719.812331051,-4609281.025554614 L 7606806.452923296,-4613072.66550106 L 7597707.420384835,-4621117.1258810265 L 7585771.076665037,-4633687.962535313 L 7579433.212776213,-4646538.102201957 L 7575954.478688923,-4662957.21473074 L 7575052.234216044,-4674409.877897174 L 7586260.214507581,-4706016.629707915 L 7584477.432862528,-4711311.4878848465 L 7581248.7223515585,-4716231.5773667265 L 7574660.834886413,-4719321.826227525 L 7565224.72692983,-4720657.474063178 L 7555886.5801251475,-4719237.90655823 L 7543961.034395955,-4719126.062481492 L 7535709.922418865,-4720902.252113423 L 7533720.531798898,-4722888.624757564 L 7532687.70956332,-4737322.758911251 L 7530578.76181024,-4740461.500446161 L 7527034.794501347,-4743222.676999867 L 7502977.205387538,-4749883.579890327 L 7498215.625488347,-4752759.549954458 L 7497324.179006075,-4756408.452316386 L 7505847.1331796795,-4788582.462107641 L 7509564.981533195,-4791011.86512789 L 7513141.565452891,-4796252.818830016 L 7518794.4805148635,-4801863.104064673 L 7538449.383767798,-4811074.845881259 L 7559550.104567152,-4807088.647116723 L 7578313.450018322,-4802807.867206885 L 7596989.966266673,-4800516.649337915 L 7603458.185279216,-4798987.0561249135 L 7614144.411117407,-4797711.418861005 L 7621297.578956801,-4798846.176687094 L 7626157.0086884005,-4802610.474663826 L 7634973.401039737,-4813036.740643503 L 7637669.44778726,-4828703.652259674 L 7640854.6323773265,-4842554.42476525 L 7646192.290641373,-4843630.4928201595 L 7651573.47482632,-4842172.131092778 L 7654128.145820534,-4844975.668983465 L 7655215.291967622,-4848785.837382568 L 7656313.236105316,-4852030.489700695 L 7658520.033690802,-4852746.217125398 L 7662390.16710772,-4849147.059633869 L 7664596.964693206,-4850110.528196925 L 7666434.181569261,-4852505.313658737 L 7665890.608495716,-4855389.717999153 L 7661498.720625449,-4860246.169281433 L 7657606.879907824,-4867879.547894256 L 7657976.460617258,-4870519.957749243 L 7659302.832350059,-4873260.540755783 L 7670858.686050328,-4875859.763631132 L 7676109.403792066,-4876314.344972877 L 7677935.71135802,-4879020.881280003 L 7677261.783160757,-4883334.565461673 L 7672902.400581803,-4885772.914481218 L 7657063.306834281,-4884429.3314029 L 7640941.572899637,-4884734.926654208 L 7639017.415501275,-4887365.707344808 L 7639930.569284252,-4890253.134400439 L 7642365.683145355,-4892522.418707547 L 7675674.589861028,-4898343.848436743 L 7693329.193183896,-4896322.334417497 L 7706461.330873796,-4893241.075726699 L 7711646.815393928,-4894770.945881747 L 7705482.943869215,-4907902.041790263 L 7713821.107688102,-4909134.831155942 L 7714908.142515699,-4913632.820060209 L 7704004.509711989,-4948617.028206881 L 7709983.590881987,-4951708.489855523 L 7715995.288662786,-4958618.081025426 L 7715484.332200045,-4971705.698829832 L 7720811.192473485,-4978091.019419122 L 7727116.328432015,-4982469.867254662 L 7736508.910467699,-4978047.953715379 L 7751000.036501204,-4965116.693043458 L 7755718.090479495,-4962608.419300218 L 7760403.527846984,-4961877.486337043 L 7767121.770435848,-4965883.540025917 L 7792994.869125003,-4978686.756637977 L 7807540.319070016,-4985888.1594682885 L 7824879.665594957,-4996380.391234189 L 7827869.150520211,-5000436.575591825 L 7833848.231690208,-5016418.970076216 L 7837109.558811979,-5017521.318226432 L 7841512.355992343,-5015799.378410379 L 7856731.845454108,-4999293.00219498 L 7865537.328495347,-4988718.473800371 L 7865537.328495347,-4985105.326327944 L 7863026.183422033,-4982383.697404219 L 7863515.321264579,-4979734.5662132185 L 7875962.7327666115,-4974008.264855137 L 7875973.530757217,-4971390.045405145 L 7873136.219575878,-4966399.698290831 L 7871625.168807851,-4963654.653821647 L 7870103.208729725,-4962493.80845587 L 7853459.60902224,-4948066.052182601 L 7834957.085138001,-4932066.515011155 L 7834348.278842852,-4929980.883611542 L 7833522.176901675,-4925996.623673195 L 7833728.674557097,-4921921.17551319 L 7836696.452181644,-4918596.406036963 L 7844675.833281707,-4916256.8526887465 L 7851763.767899495,-4913212.146069487 L 7855351.1498098,-4904838.4678134 L 7859460.397492942,-4897112.406033662 L 7865069.8979535075,-4895219.255237276 L 7892486.66402149,-4900088.1321902415 L 7899009.318265034,-4900714.738150897 L 7899335.484373056,-4898059.1174944285 L 7897715.674462524,-4893241.075726699 L 7874582.037122301,-4885019.274112846 L 7864091.510948925,-4878075.990145758 L 7861841.187442539,-4865793.330414522 L 7859069.109482804,-4862239.123783985 L 7854351.055504514,-4859331.382997505 L 7849709.144057924,-4858664.843103552 L 7842610.300130038,-4873097.230335136 L 7834543.978507666,-4876101.234643042 L 7822911.982275695,-4881188.185703469 L 7800321.918009016,-4891078.268430542 L 7788668.214476341,-4895375.78936728 L 7766230.323953577,-4888930.20831195 L 7740074.585077298,-4880093.7781143645 L 7735997.954004957,-4874716.347377419 L 7733225.876045223,-4868958.361992467 L 7733475.899621544,-4864580.023561468 L 7735356.642418498,-4858742.82160433 L 7734062.9986159885,-4854284.073460721 L 7729127.537672178,-4852838.37150118 L 7721724.346256463,-4858253.614656265 L 7715245.2179338215,-4861373.829406166 L 7712081.740644459,-4854000.460694379 L 7708287.749759241,-4840848.641420026 L 7706548.382715596,-4831284.155145138 L 7712244.71237898,-4817505.412205467 L 7714179.77908744,-4797126.625649841 L 7724626.890659406,-4798233.02777933 L 7732617.069750075,-4798176.593407179 L 7747706.09276863,-4804196.9449626105 L 7755294.074539063,-4804359.129718917 L 7766991.303992639,-4801736.189442923 L 7787461.511196142,-4801207.4680176135 L 7803681.094963194,-4802293.239642677 L 7807594.642981522,-4801856.02914582 L 7811410.452486934,-4805699.168074457 L 7815660.964603893,-4804373.283099234 L 7819618.038543122,-4799698.989484601 L 7836011.614674283,-4805367.680366206 L 7848154.567368995,-4806157.6358326385 L 7855590.375395516,-4804500.231149943 L 7860025.789186681,-4802843.1008132845 L 7867907.209134846,-4789406.281945293 L 7873973.230827152,-4781044.6155406805 L 7881343.805632066,-4778371.585020828 L 7904227.419395967,-4780840.590730762 L 7910923.954684126,-4792596.50017391 L 7916826.893322422,-4795505.922305379 L 7926252.091968908,-4796407.803945216 L 7934057.59202435,-4798641.7895488655 L 7940254.080159866,-4803463.608043022 L 7948689.982491672,-4807674.166845516 L 7956038.849995881,-4808513.572679926 L 7959680.555817692,-4805410.000407869 L 7961278.65842752,-4801320.226853928 L 7959995.812615618,-4796013.274856115 L 7959713.172428494,-4790490.775969227 L 7964496.45962839,-4786780.186485158 L 7978563.569721464,-4785914.344185792 L 7985194.983107509,-4782444.804372874 L 7985542.856516239,-4775924.067664898 L 7984466.619679249,-4765683.881972245 L 7990358.649007448,-4761568.260072858 L 7993402.569163699,-4761224.133163313 L 8014003.2428104095,-4772064.385782007 L 8019764.805695397,-4772240.0162211405 L 8024374.211850676,-4766266.9913156815 L 8031407.711237466,-4759089.744689788 L 8040604.593608334,-4751440.774470502 L 8042811.502513311,-4752612.276465285 L 8046975.07410796,-4760957.237978579 L 8054823.988764813,-4770040.106421988 L 8069575.936365247,-4772992.238656106 L 8077718.400519322,-4775846.732775715 L 8086241.243373435,-4777112.536350393 L 8112125.251372688,-4773428.049525644 L 8120691.620147702,-4772950.0551244095 L 8138487.487904388,-4773646.034032942 L 8152478.566785249,-4775467.123585309 L 8163740.982307787,-4780911.047982746 L 8169448.221281266,-4785288.002995328 L 8178688.629573035,-4787864.396712199 L 8190396.768336709,-4787434.879742204 L 8196636.782393125,-4786174.838667915 L 8197158.536846474,-4778652.91558942 L 8195691.011999344,-4764426.563957364 L 8193929.826335506,-4754555.741139142 L 8203181.143937371,-4736657.2556974 L 8209116.699186469,-4728052.265013666 L 8214889.171381552,-4721979.259820077 L 8215965.408218542,-4717182.234768563 L 8214769.6142484415,-4713268.073833253 L 8207583.829798245,-4709460.005034062 L 8205007.451503323,-4705388.073644948 L 8203811.657533225,-4700822.305415965 L 8206116.304951116,-4695525.90705449 L 8210269.07855516,-4678636.603932518 L 8215563.210898306,-4665516.637688725 L 8223075.161456527,-4659251.466966425 L 8234304.960368263,-4655095.222197972 L 8240490.539193681,-4655970.882345602 L 8244915.04367475,-4665746.132533089 L 8252263.9111789595,-4673254.353651388 L 8258493.015925278,-4672732.307735478 L 8268526.90954742,-4673052.488930534 L 8294867.550097906,-4664535.893759011 L 8320577.565733048,-4651725.774801498 L 8328067.6976710735,-4644656.824108976 L 8330698.511196991,-4636697.911295606 L 8323588.757959006,-4618312.6617615055 L 8323925.8333771285,-4606569.720269043 L 8325545.531968171,-4594073.212588957 L 8331426.763305761,-4584807.485301936 L 8336807.947490709,-4568946.456359827 L 8337862.477026994,-4555820.931654845 L 8340199.741055689,-4551912.54120269 L 8342091.281843248,-4547338.763508075 L 8339199.646750402,-4535346.18726203 L 8337188.43751024,-4523271.273998961 L 8339590.934760539,-4519251.742754659 L 8347450.758727489,-4513293.771513294 L 8359811.118387721,-4502196.0652872855 L 8362180.99902722,-4493004.643000357 L 8357756.49454615,-4487171.057871607 L 8349896.6705792,-4480103.940715133 L 8339851.86764696,-4474011.088229479 L 8336862.382721707,-4471443.926817996 L 8335090.3990672575,-4472891.242909997 L 8330089.704901843,-4479038.014175758 L 8318968.553813122,-4488989.836618508 L 8311043.607944058,-4494236.062461995 L 8295998.110846403,-4492539.518131546 L 8287170.80918497,-4494393.415458398 L 8276495.381337385,-4497636.981724555 L 8266548.428237553,-4497171.651633099 L 8260297.616190528,-4491150.990723714 L 8256242.692418892,-4485126.91771347 L 8246295.627999569,-4483274.653806528 L 8231945.877719371,-4478648.637890571 L 8209768.920083026,-4471464.339710258 L 8199071.896254227,-4472522.508699082 L 8196180.149841891,-4475629.536528666 L 8198550.030481388,-4479775.951823129 L 8206170.628862625,-4485126.91771347 L 8208007.845738676,-4491616.054122827 L 8206540.209572058,-4497636.981724555 L 8199474.093574463,-4499279.677802459 L 8196745.430216138,-4500224.28491103 L 8193636.388157774,-4501463.422112211 L 8179906.24216333,-4505058.421315131 L 8168948.174128623,-4503736.675854195 L 8149826.045958627,-4496199.85103026 L 8114690.831677,-4476462.773517002 L 8099275.642550419,-4463207.054781003 L 8088187.219391991,-4443157.174838946 L 8054943.545897924,-4436724.9292824315 L 8032092.660064317,-4425251.980802086 L 8008545.916093761,-4406603.429016337 L 7992967.75523266,-4396579.574172691 L 7985368.864152129,-4395156.097240839 L 7977780.882381697,-4396945.677482499 L 7970192.900611263,-4401942.986943713 L 7962778.79988545,-4417540.02671232 L 7956212.7310405,-4441210.068589792 L 7951875.16708174,-4456899.0202478925 L 7954310.280942842,-4477063.85847996 L 7957082.470222066,-4500059.9749234775 L 7959908.872093308,-4523484.002555017 L 7964485.550318291,-4550598.659732818 L 7968290.450513607,-4560267.728077956 L 7968497.059488519,-4566734.718307253 L 7965126.973224243,-4569987.013981611 L 7957984.714694946,-4569807.911521425 L 7947059.26327104,-4566197.447457583 L 7939297.400455989,-4565570.478502821 L 7934688.105620204,-4567906.0030696355 L 7935166.445472143,-4580543.290851311 L 7940721.510701708,-4603506.406174435 L 7932165.939917301,-4622883.302197155 L 7909488.935128312,-4638626.321584968 L 7890203.723904303,-4644101.406919705 L 7874288.598944571,-4639292.413379316 L 7860917.124349463,-4626777.0250949925 L 7850089.634077456,-4606583.459152202 L 7838870.6331563275,-4590088.301662364 L 7827238.636924357,-4577280.762447495 L 7818944.11034586,-4571124.224436193 L 7816258.861588945,-4568753.541979181 L 7814563.020466201,-4563338.866524073 L 7820748.599291619,-4546334.8297853265 L 7820357.31128148,-4532090.916626214 L 7813367.226496099,-4520609.722800525 L 7805703.102193962,-4515137.723557813 L 7797343.34239386,-4515658.749755511 L 7790690.221707109,-4518319.041262259 L 7785754.7607633,-4523113.486723777 L 7772426.812089092,-4524417.024372288 L 7750706.487003982,-4522235.3730911305 L 7735824.0729603395,-4516481.409001661 L 7727812.075249475,-4507168.033296469 L 7725485.720530876,-4494913.411719366 L 7728877.514095856,-4479728.097642804 L 7727181.561653621,-4468106.11166427 L 7720430.702453953,-4460042.371147593 L 7714875.525904897,-4455419.692790945 L 7710527.16395553,-4454226.860090809 L 7701101.965309046,-4461194.934764925 L 7686610.839275539,-4476319.396669457 L 7676642.06755551,-4484511.793301996 L 7671228.266759763,-4485755.938524297 L 7668271.398445312,-4484935.544930456 L 7664944.8381019365,-4483363.535986899 L 7663064.206624474,-4481402.1437852075 L 7661422.578093746,-4476906.764544367 L 7656780.666647157,-4475131.052573019 L 7650236.305102911,-4476531.175451914 L 7644213.809331505,-4475185.599331336 L 7640637.225411807,-4470440.388290725 L 7630559.694549276,-4464707.873298731 L 7612796.443403392,-4458289.883041061 L 7603066.897269077,-4451439.687972571 L 7601425.380057841,-4444171.652356132 L 7598772.859231218,-4440930.9638890335 L 7593337.239815273,-4442108.634913586 L 7577269.829792135,-4432112.559094297 L 7565050.8458852125,-4435207.592684854 L 7551298.992590065,-4448060.476801018 L 7543678.394208829,-4458658.120219828 L 7542895.595549571,-4463138.878928763 z" /><path fill-rule="evenodd" fill="currentColor"    d="M 7865004.664731903,-5002997.765648088 L 7861689.0136986235,-5002674.025142764 L 7855677.315917823,-5009662.847050035 L 7853590.07546545,-5014538.626189431 L 7856046.8966272585,-5016001.0844344245 L 7861199.7645365875,-5012586.516551962 L 7864635.084022468,-5006567.28753939 L 7865004.664731903,-5002997.765648088 z" /><path fill-rule="evenodd" fill="currentColor"    d="M 7870472.7894391585,-4840586.718586682 L 7860504.01771913,-4835004.196537953 L 7854655.402992341,-4835605.40812565 L 7850100.432068063,-4841004.319904368 L 7846828.306955687,-4846059.105153664 L 7846110.8528375225,-4848913.351691332 L 7847774.077349465,-4848870.8467401145 L 7855492.525563107,-4846576.139093047 L 7866298.30853441,-4844961.602926187 L 7870092.299419627,-4843566.841796452 L 7870472.7894391585,-4840586.718586682 z" /></g></g>
</svg>
