<?xml version="1.0" encoding="UTF-8"?>
<svg xmlns="http://www.w3.org/2000/svg" viewBox="13807660.872827461 909197.7236107178 362875.49122522585 154561.31325786398">
  <g id="map"><g><path fill-rule="evenodd" fill="currentColor"    d="M 13986859.204243785,909197.7236107178 L 13979445.103517972,928529.661154861 L 13971389.691205699,924399.0350365991 L 13979956.059980715,913546.6941307244 L 13984076.216973953,910328.8967833908 L 13986859.204243785,909197.7236107178 z" /><path fill-rule="evenodd" fill="currentColor"    d="M 13922524.33092963,1063759.0368685818 L 13918676.016132904,1049079.7393230274 L 13914599.385060566,1042777.7475254659 L 13911403.291160401,1039197.4151307192 L 13910327.05432341,1034736.4133836137 L 13910500.935368028,1030121.6375133555 L 13912436.002076488,1027996.1198624367 L 13926122.62215003,1027423.4854368143 L 13931569.039556582,1019880.6542812851 L 13931525.513635682,1010820.1886296368 L 13928786.05228675,1007760.1704537276 L 13926111.824159423,1006472.3444903872 L 13911957.66222455,1013264.0405551173 L 13907902.738452913,1012042.0961741784 L 13905478.533901908,1009576.3380647876 L 13906283.03986187,999538.6644957726 L 13917936.743394546,990141.6799699852 L 13927818.574592268,973124.6227855989 L 13934754.224146651,966350.5379828451 L 13950908.68601159,959984.2944304358 L 13957442.138245739,958192.2393841104 L 14004470.281645754,948826.4295892277 L 14015689.171247391,948188.818565089 L 14045497.636575071,948463.6710954324 L 14085372.61213569,946419.3143332626 L 14095243.534023313,945144.3977113172 L 14108027.798304485,941012.0930493703 L 14120399.067274814,935902.2575824893 L 14126965.247439256,931880.749417226 L 14133835.663772034,928969.2055474514 L 14144087.075679189,932627.8205988108 L 14161491.655425733,935407.7346333069 L 14166187.890783828,937836.1829034952 L 14170536.364052687,941209.926947591 L 14150327.089735605,959115.7271437757 L 14128139.22278916,973938.4058900925 L 14114474.310016325,978425.8703738735 L 14100331.168711038,981461.7473752515 L 14089547.09304044,987193.1542505557 L 14080458.858492587,996182.3525747793 L 14068837.771570712,1001244.4770132792 L 14055727.229862025,1002950.3605680242 L 14044540.956871191,1005646.8768925152 L 14034387.394796446,1010930.3166103818 L 14020255.051481768,1019990.8069623018 L 14014536.903198188,1020915.6729510886 L 14008481.67949649,1020695.475571277 L 13996773.540732816,1024163.9782986344 L 13960355.591958778,1037115.5141372257 L 13938341.717376446,1051525.9420625067 L 13922524.33092963,1063759.0368685818 z" /><path fill-rule="evenodd" fill="currentColor"    d="M 13807660.872827461,1044540.4523622233 L 13825674.258869156,1034901.53480814 L 13853091.02493714,1027478.5157220555 L 13852406.07611029,1032918.9952379367 L 13849590.472229656,1041466.684768922 L 13845437.809945103,1045476.8333228519 L 13839165.179277884,1052682.9771219706 L 13835045.022284644,1054280.8116505423 L 13818597.122241972,1052693.9225170345 L 13816477.265178798,1053740.8581184824 L 13813650.863307556,1052980.4221465834 L 13809454.563782612,1048352.5651079764 L 13807660.872827461,1044540.4523622233 z" /></g></g>
</svg>
