<?xml version="1.0" encoding="UTF-8"?>
<svg xmlns="http://www.w3.org/2000/svg" viewBox="5843588.429139502 -5278312.824910862 1573550.9848142872 1091196.214082037">
  <g id="map"><g><path fill-rule="evenodd" fill="currentColor"    d="M 5912130.288649717,-4693503.025103226 L 5911086.668423532,-4686802.385848035 L 5905042.354031929,-4706959.4652117295 L 5901998.545195169,-4729228.082994457 L 5905868.567292596,-4735515.572832587 L 5910195.3332607495,-4735158.419962856 L 5906075.176267509,-4727107.466709888 L 5912130.288649717,-4693503.025103226 z" /><path fill-rule="evenodd" fill="currentColor"    d="M 6231380.228030514,-5059985.401110242 L 6260829.910639366,-5058299.1726614805 L 6287311.815623668,-5056786.901130641 L 6320011.916044192,-5054913.079706686 L 6329719.754877802,-5053155.452186062 L 6341406.07502128,-5051528.320599121 L 6347211.275146658,-5051282.482544536 L 6352364.1430559885,-5057770.851003847 L 6355766.734611575,-5061331.690186255 L 6358441.074058393,-5064147.911968327 L 6357886.591674752,-5067334.31406723 L 6353744.727380806,-5070036.4016688615 L 6347232.9824473625,-5079031.900868439 L 6343525.932084455,-5111575.556641699 L 6341210.486675956,-5139514.445341026 L 6348961.440180909,-5148232.0111268405 L 6357853.975063949,-5154559.737858693 L 6370681.8765855115,-5173641.500631706 L 6377563.202228389,-5179539.009184264 L 6387705.854993035,-5184421.106319141 L 6421590.951393055,-5185696.989976046 L 6435853.761150944,-5189459.711896848 L 6440495.672597531,-5195653.4459434375 L 6448007.623155753,-5211324.534413925 L 6450486.151618265,-5224105.535037439 L 6454693.249133815,-5229953.496717172 L 6459748.267210738,-5234308.671444494 L 6464933.7517308695,-5234139.147754688 L 6474967.7566725025,-5230373.426959891 L 6482588.355053738,-5228281.203683405 L 6488023.863150192,-5225438.20022146 L 6492959.324094002,-5220925.210056101 L 6497775.227904702,-5213067.333811777 L 6498514.389323569,-5207898.606463329 L 6500732.096219152,-5204892.717920235 L 6504558.70371517,-5204834.027468446 L 6507406.924206608,-5204789.934624504 L 6509341.9909150675,-5205928.889972125 L 6510613.927416871,-5208560.237681296 L 6509624.631102191,-5212067.278345901 L 6503080.269557945,-5222095.506795713 L 6488665.286056143,-5240295.881327728 L 6479250.996719756,-5247711.279048857 L 6474565.559352267,-5251735.1280085575 L 6473402.381992969,-5255531.477518376 L 6479511.818286685,-5261317.814422178 L 6485436.575545175,-5264615.224556734 L 6495840.161196242,-5262138.38708889 L 6509646.338402895,-5260792.957949485 L 6515788.502626906,-5263683.589449322 L 6522104.659215026,-5278312.824910862 L 6537791.46789914,-5262811.09809325 L 6554152.4274195,-5245460.293854042 L 6560153.215890203,-5242257.964600988 L 6571839.647353172,-5240421.256336705 L 6581558.395496879,-5239764.793137314 L 6585613.207949024,-5237899.122101246 L 6590016.0051293885,-5233409.46075394 L 6598636.809135401,-5214479.4895868385 L 6607290.118432726,-5209530.563162717 L 6618063.284793226,-5205951.014270761 L 6652741.9778431095,-5206259.555790881 L 6663395.587070499,-5205296.939466747 L 6672103.22027933,-5196402.179980878 L 6677517.021075079,-5192746.872951117 L 6679843.487113168,-5189606.351380788 L 6679256.388118724,-5185689.630927974 L 6677125.733064941,-5180733.630228173 L 6676853.890868423,-5171180.860134669 L 6676288.610494174,-5163795.85917237 L 6673527.330525048,-5160291.9091056865 L 6672690.319273774,-5157015.939406835 L 6675005.876001764,-5154150.482310582 L 6691073.286024902,-5147121.780671758 L 6696486.97550116,-5139587.381452753 L 6700552.8085828945,-5136209.140367618 L 6701520.286277379,-5131533.993039365 L 6698802.532229151,-5128420.8853551475 L 6691258.076379619,-5129973.729185027 L 6687583.642627515,-5125046.584085099 L 6687583.642627515,-5116226.358526091 L 6692975.624803069,-5107945.2919039205 L 6694530.201491996,-5100376.289252753 L 6690975.436192495,-5093096.435507989 L 6686822.662588451,-5082839.955214793 L 6686670.488844537,-5075580.624758258 L 6689149.01730705,-5071434.847067732 L 6701433.3457550695,-5063952.46687521 L 6729817.589517538,-5045087.35317395 L 6736340.243761078,-5044277.983039091 L 6763202.638764912,-5048657.884386953 L 6775704.374178452,-5049091.689849454 L 6783053.130363169,-5046178.607873236 L 6803838.594364598,-5043497.683478076 L 6810448.18913045,-5040492.349415757 L 6817470.890526634,-5040290.1335276365 L 6827102.58682854,-5041164.115167332 L 6833625.241072081,-5049604.8786993325 L 6836951.801415457,-5051528.320599121 L 6839876.053119104,-5052931.198049764 L 6845811.719687693,-5053148.194209848 L 6862237.801110167,-5047783.225902117 L 6879533.621714209,-5036477.223919713 L 6890991.73690156,-5026172.379491537 L 6896633.853972927,-5016858.418644376 L 6903765.203192125,-4996689.638089467 L 6912386.007198137,-4965740.265426976 L 6922789.592849204,-4944904.106891928 L 6934986.869455423,-4934109.569681452 L 6943553.238230439,-4914317.238505089 L 6950967.338956254,-4871208.521949426 L 6955598.341092743,-4862402.255547718 L 6960305.4857609365,-4857821.204234646 L 6974242.240730292,-4845400.560289759 L 7002756.95093597,-4824872.933556769 L 7019596.138988778,-4812775.54679345 L 7045621.522741336,-4793477.057355083 L 7069461.704889625,-4775832.763594733 L 7093367.120259518,-4748656.237442294 L 7098139.498149317,-4744694.713427114 L 7119164.076416969,-4730033.15916864 L 7142569.444634217,-4715029.20926985 L 7158952.111455283,-4718419.79777929 L 7183629.4161743345,-4695379.463185909 L 7193674.219106576,-4686844.211900037 L 7197913.933232928,-4683931.073827505 L 7215807.65082202,-4674862.428525756 L 7244300.653726995,-4655915.235209144 L 7280251.171959191,-4628821.386986893 L 7303993.615594563,-4613183.355068417 L 7310450.925297008,-4611363.435026466 L 7316864.9317175355,-4611453.417291569 L 7323735.348050314,-4614809.820952584 L 7331182.06538693,-4617461.050071612 L 7343879.389145793,-4613986.138036927 L 7357642.151751037,-4607738.440594427 L 7366360.805589458,-4603001.629376566 L 7376438.2251325,-4596118.031148944 L 7384417.606232561,-4589625.753181157 L 7390472.718614771,-4586622.73142542 L 7411040.77565068,-4580950.331431525 L 7414573.833649477,-4577549.82284358 L 7416813.247845766,-4573757.35149774 L 7417139.4139537895,-4569828.517320843 L 7405594.35824413,-4549202.402217096 L 7404007.164944399,-4522955.701830252 L 7403931.133732188,-4503236.716890231 L 7405224.777534695,-4487793.199394831 L 7399615.277074131,-4487266.834182694 L 7386080.830744503,-4490549.100370755 L 7359153.202519065,-4497075.784984095 L 7336030.585808432,-4510168.709075451 L 7320930.653479778,-4518737.419434479 L 7318571.682150378,-4517571.647983498 L 7311799.004330514,-4511717.50965993 L 7307146.183573828,-4504517.304610972 L 7303450.042521019,-4490583.277070575 L 7297546.992563234,-4474174.991658724 L 7269564.946121,-4473560.366944068 L 7245746.471273417,-4472324.513399399 L 7230374.919387227,-4466120.307443566 L 7215318.512979475,-4457533.061182454 L 7211546.229394963,-4447372.460505471 L 7208284.902273192,-4434200.799638256 L 7199511.924523266,-4404344.155693407 L 7191521.745432596,-4377196.10529861 L 7187434.205050158,-4359617.454731216 L 7181335.56674705,-4347599.410474349 L 7164300.6790294275,-4331773.56074638 L 7144971.941884518,-4321132.756701083 L 7134709.731986758,-4316139.130617434 L 7130165.559053086,-4309930.73730007 L 7129165.4647478005,-4304075.367907417 L 7125523.647606499,-4302287.679715798 L 7117555.175816533,-4303336.116435732 L 7109140.980785433,-4302321.3965682965 L 7090671.073511995,-4296194.631706348 L 7070679.206160432,-4288675.45541607 L 7046708.557568935,-4281154.607372222 L 7033043.644796097,-4281161.337634497 L 7027597.227389544,-4279478.077537279 L 7025216.548759439,-4275703.499470312 L 7027597.227389544,-4268573.5397606455 L 7029912.784117536,-4263296.0095747085 L 7032021.843190106,-4256421.77648159 L 7026412.342729541,-4250862.602193865 L 7022498.794711214,-4241349.532141185 L 7019433.167254256,-4224629.96659089 L 7010931.920381356,-4219627.042865225 L 6997321.442839515,-4211500.380047183 L 6982254.127121665,-4200816.305036794 L 6978405.812324941,-4198632.744564038 L 6969774.210328322,-4195611.15556557 L 6961153.40632231,-4196529.621425734 L 6953337.219595751,-4198093.601352849 L 6944846.882032948,-4195351.671096765 L 6936074.015602512,-4187116.6108288253 L 6931997.273210681,-4189610.363336676 L 6929953.558679206,-4197940.519465854 L 6925529.054198137,-4203353.109260372 L 6911787.998893596,-4215599.552718257 L 6900014.738227809,-4224343.016699832 L 6894916.1942299865,-4224916.787320784 L 6884110.4112586845,-4222675.166186397 L 6870608.581539859,-4221027.648634553 L 6859617.896894348,-4222788.561625567 L 6850910.152366025,-4226278.023806468 L 6837440.939258003,-4238302.928007075 L 6832538.094924994,-4244778.093706637 L 6828863.772492381,-4249759.077071755 L 6819655.980811414,-4248401.634871031 L 6817079.491197005,-4253839.12734453 L 6816709.910487571,-4260182.973161295 L 6819286.2887824895,-4267896.920872671 L 6818557.92535423,-4282422.305077887 L 6813405.0574449,-4292877.479085043 L 6807513.028116702,-4297423.779775985 L 6808241.391544963,-4300607.887403781 L 6810817.769839883,-4307893.4109840635 L 6814133.420873161,-4314268.854217895 L 6814090.006271752,-4326869.362034119 L 6809980.758588609,-4340556.799587678 L 6808339.241377371,-4360326.811208102 L 6809404.568904262,-4379652.707098406 L 6803805.977753796,-4389403.180207512 L 6757973.62832388,-4389457.426757666 L 6717163.791679575,-4388718.948130956 L 6714869.94225229,-4390927.460496001 L 6699019.93919467,-4415359.930043961 L 6686159.532381796,-4433935.532683844 L 6673451.2993128365,-4444907.157034907 L 6644349.490112714,-4458426.31223202 L 6630434.553763554,-4464073.401449583 L 6618498.098724265,-4474407.145930057 L 6608746.845289245,-4485728.497704144 L 6606224.790905833,-4501278.62182917 L 6604246.198276473,-4506387.0668587815 L 6601441.503705937,-4510525.15430737 L 6598364.966938883,-4512361.600817077 L 6594657.916575977,-4511943.617776448 L 6560859.872017758,-4530051.773682065 L 6547303.718387426,-4534810.393712104 L 6534541.050087468,-4530978.633030266 L 6528909.8423262,-4530319.474606692 L 6517810.509857675,-4535469.8358350685 L 6505037.04356711,-4528486.619873804 L 6499579.82816995,-4528040.580632203 L 6491948.320478618,-4529708.58101291 L 6485653.982510694,-4532324.356548872 L 6468640.802093777,-4548824.210943515 L 6454367.083025791,-4555504.372763603 L 6444083.165827327,-4559785.781229335 L 6424308.705441281,-4566052.6938376585 L 6403207.9846419245,-4569325.521690766 L 6392391.292360525,-4572040.91499423 L 6384585.903624573,-4575660.333272507 L 6382585.603694509,-4578004.910972964 L 6382694.362837014,-4584075.935849014 L 6382107.26384257,-4592049.589982466 L 6379509.066927454,-4597859.268439975 L 6374171.408663408,-4604827.013399569 L 6366757.419257086,-4610041.990685052 L 6354005.6602672255,-4609128.86760216 L 6334818.298875624,-4609564.6630389225 L 6320120.563867207,-4614809.820952584 L 6308466.860334531,-4615744.286811481 L 6294454.074152965,-4614747.450642225 L 6282941.635054106,-4614719.809375431 L 6274734.048997918,-4610906.875700002 L 6269972.469098726,-4606458.96004431 L 6266950.36756267,-4592829.937711311 L 6264178.1782834465,-4590792.699084883 L 6259362.385792238,-4589798.411016947 L 6252948.379371711,-4590502.647276896 L 6239490.075573787,-4590385.271236708 L 6216226.0831098445,-4592802.355085401 L 6186961.19085571,-4593527.590444244 L 6164969.023574082,-4586650.297576432 L 6147586.262447731,-4576791.245805602 L 6130986.188661147,-4565660.06333247 L 6111450.953860817,-4548102.09392508 L 6105721.896267141,-4540320.154429931 L 6094209.457168282,-4509298.556523364 L 6089110.91317046,-4504846.066847793 L 6082457.792483709,-4501278.62182917 L 6075696.023973944,-4500648.670820376 L 6062313.75138823,-4496069.7985877395 L 6044626.64277405,-4488511.1653831955 L 6032581.539911746,-4485550.834126473 L 6001696.837747078,-4487102.726767702 L 5999881.439491222,-4496911.524281499 L 5994315.464951558,-4532853.13134279 L 5991608.508893938,-4569249.735742348 L 5991793.299248654,-4586056.722691264 L 5995011.2117690155,-4619856.830693016 L 5994761.076873204,-4636926.761438379 L 5993445.72576999,-4652427.289991282 L 5994728.460262401,-4667638.272440518 L 5997196.190734306,-4684774.24246964 L 5998489.945856306,-4702218.283725148 L 5996630.910360057,-4714407.251933694 L 5990651.8291900605,-4724252.825200999 L 5980541.793036215,-4736447.098336935 L 5978943.801745878,-4743671.27079818 L 5978367.612061532,-4751735.289397631 L 5968681.4805286275,-4752654.374911517 L 5959984.645310403,-4761006.417486657 L 5952809.770170304,-4765557.42378025 L 5937372.873743019,-4770609.362339928 L 5929632.718228673,-4770869.460403142 L 5922566.490911587,-4767152.150525599 L 5917370.208400848,-4759700.509768818 L 5913739.1892501535,-4771452.8702776255 L 5913826.241091954,-4783753.668227944 L 5926164.893451479,-4809219.103687107 L 5933883.230345632,-4801785.569002223 L 5943308.428992117,-4798803.884373599 L 5955299.207942914,-4798352.825581854 L 5967072.579928192,-4800326.375779609 L 5964767.9325103,-4809056.840153792 L 5959299.807803043,-4814017.832393473 L 5952505.422682475,-4817929.134636337 L 5950081.106811979,-4829467.076812607 L 5950950.845993548,-4841443.1028074 L 5954179.556504515,-4852781.627524639 L 5950505.12275241,-4857353.240623503 L 5944928.23890265,-4860182.411798365 L 5932056.9227796765,-4859841.991526919 L 5915358.9991606865,-4862841.9838133445 L 5898541.5184085835,-4864140.218295315 L 5894606.15177006,-4850762.275260025 L 5903890.085982728,-4833214.683944794 L 5896019.464025171,-4841832.471782597 L 5888605.363299358,-4853235.153011873 L 5878190.9796576835,-4873793.099752474 L 5871483.535059425,-4897930.969380024 L 5870287.629769834,-4924054.943990078 L 5875973.272762099,-4945712.443536737 L 5883224.179114411,-4966084.362872189 L 5887605.268994071,-4992225.359909017 L 5893638.674075576,-5017960.96424478 L 5899672.07915708,-5006423.266862663 L 5906564.314110055,-4996092.800467467 L 5916098.2718990445,-4986556.162022378 L 5921305.463719881,-4984279.462784791 L 5936992.383723488,-4980344.81127515 L 5947091.6218867265,-4981823.611915783 L 5957853.99025662,-4987454.16132892 L 5968420.547642208,-4985608.085680359 L 5977160.908781333,-4975012.667337758 L 5984955.499526679,-4963153.022585272 L 5996783.195423462,-4960659.630528227 L 6021145.132025098,-4969231.566366828 L 6032733.71365566,-4971189.2604656555 L 6042789.425897998,-4967267.069923896 L 6047974.91041813,-4966543.129355744 L 6053258.24477067,-4967202.616340001 L 6048681.455226195,-4977732.095363927 L 6046811.733058832,-4987971.313445609 L 6052932.078662645,-4993389.74428585 L 6072152.056665049,-4987633.653409365 L 6084392.859192168,-4991470.718803948 L 6087512.921880122,-4993634.120739284 L 6090295.909149954,-4996294.098387171 L 6091763.433997082,-5005156.654815894 L 6091176.446322128,-5014257.5796734765 L 6089589.253022398,-5022840.91014023 L 6086001.759792604,-5030378.150317741 L 6077174.56945066,-5040933.037876307 L 6042930.690331815,-5066139.364164535 L 6031407.4532423485,-5076211.331057344 L 6021808.262231754,-5089255.330196018 L 6015687.916627941,-5107705.160286687 L 6010719.839073327,-5126970.537877394 L 6006110.544237541,-5141295.261886877 L 5994163.1798881525,-5174644.866269361 L 5989510.470450956,-5178615.7160230735 L 5983683.563024874,-5180381.937656523 L 5969496.784479197,-5181429.998886215 L 5955136.124888902,-5178996.758692661 L 5931654.725459442,-5173245.973539407 L 5918207.219652124,-5175040.451512605 L 5911989.024215901,-5171481.076094647 L 5896595.653709517,-5157418.130437134 L 5889388.050639125,-5145376.3680727985 L 5879321.540406181,-5117908.154587372 L 5886963.84608812,-5109072.739519255 L 5886822.581654303,-5103283.909176797 L 5881028.290839023,-5062902.647433499 L 5884550.439527721,-5043374.865646342 L 5883278.614345408,-5041929.8754874235 L 5880517.334376282,-5046453.180003411 L 5871798.7918573525,-5066392.848496623 L 5856448.835952377,-5090750.844235553 L 5843588.429139502,-5128136.650094466 L 5866189.291396788,-5152652.223887128 L 5885518.028541697,-5170060.757272242 L 5901324.505678415,-5180579.77250886 L 5906151.207479721,-5183138.036864431 L 5927773.794051915,-5191866.177860273 L 5955679.697962446,-5199743.185942714 L 5976226.047697651,-5205554.139290956 L 6003055.714771192,-5210508.36636807 L 6011828.692521119,-5211427.539217318 L 6024721.715944796,-5211324.534413925 L 6035179.62550737,-5206656.460313943 L 6041517.489396195,-5203011.794498551 L 6063890.1466973545,-5188007.261911031 L 6086719.325230257,-5172704.081614506 L 6106298.085951487,-5155765.9014092535 L 6111853.151181052,-5148867.5123598715 L 6114962.304558909,-5140631.116330408 L 6117266.951976802,-5132562.212938662 L 6133910.440364796,-5107014.294014759 L 6140639.703583249,-5095333.548923593 L 6150358.340407465,-5080148.685004753 L 6158163.840462907,-5072768.188838304 L 6165806.146144846,-5063648.333707715 L 6170926.397443375,-5056142.94239873 L 6176785.92148026,-5052584.162436289 L 6183265.0498029,-5051173.930741942 L 6198114.847235742,-5053553.316115826 L 6215976.059533523,-5058291.910821569 L 6226651.376061616,-5060267.628946906 L 6231380.228030514,-5059985.401110242 z" /></g></g>
</svg>
