<?xml version="1.0" encoding="UTF-8"?>
<svg xmlns="http://www.w3.org/2000/svg" viewBox="834406.9317875153 -4486658.305382937 449767.8121952594 953587.6622477691">
  <g id="map"><g><path fill-rule="evenodd" fill="currentColor"    d="M 1280685.1005853873,-3919477.632390735 L 1280445.8749996724,-3915970.9991409546 L 1276521.5289907372,-3890755.14823254 L 1275630.0825084646,-3881688.529018674 L 1275042.983514021,-3866362.5511009973 L 1275042.983514021,-3847957.702418901 L 1283935.5183970602,-3832417.5840452313 L 1284174.7439827747,-3825605.496925093 L 1280728.5151867967,-3817734.8391701304 L 1264367.6669859276,-3808711.2539770934 L 1243245.2388858672,-3797058.8616876234 L 1225090.5884103554,-3786002.253350975 L 1205185.6615811007,-3773903.694286427 L 1199087.0232779912,-3766092.596736228 L 1189227.0107004677,-3760080.7467944953 L 1180975.8987233797,-3754065.3378869956 L 1179486.5552560566,-3748321.8160578054 L 1173713.9717414805,-3737418.6206568424 L 1166158.6065818502,-3728710.776053198 L 1147264.7946874711,-3724627.5607283083 L 1143764.2419799857,-3722027.5352076096 L 1135013.0828502541,-3708971.8438487295 L 1130990.7756894208,-3703836.509676594 L 1125990.0815240054,-3693126.1088110018 L 1132414.8859351391,-3665386.3581596077 L 1140285.507892696,-3636922.408954471 L 1141807.4679708215,-3625065.8764342396 L 1141698.8201478072,-3615221.554850492 L 1137285.1136573448,-3604625.816761351 L 1127218.6034243999,-3589444.159210711 L 1119848.0286194864,-3578333.5193973766 L 1105683.0686940057,-3558341.5990598667 L 1101508.587789258,-3553432.072438907 L 1091757.2230347488,-3547617.3818874722 L 1072895.9164316813,-3539891.827378258 L 1059622.402988473,-3533070.643135168 L 1052860.6344787078,-3563511.597011005 L 1047077.2529735249,-3589551.576517795 L 1042315.6730743335,-3611068.285327637 L 1033923.2966634284,-3649037.908877176 L 1026813.5434254438,-3681374.5484648836 L 1019714.8108170474,-3713707.3476729463 L 1013268.299105209,-3743131.4061248284 L 1006778.2614724704,-3772813.1480544973 L 1003984.3648925407,-3777150.1696820688 L 984514.3633138154,-3791185.5466568037 L 966577.119803823,-3804131.2260466022 L 947900.714874963,-3818874.461375094 L 927669.6219376845,-3834880.5382974744 L 924419.2041260117,-3855060.4460334424 L 914037.4370951401,-3885579.844678517 L 903079.369060432,-3902649.3379013184 L 898970.121377289,-3907131.4297156865 L 876891.0135733511,-3918172.2298177723 L 864139.2545834908,-3926285.785201869 L 860649.722505594,-3930998.1168682664 L 858181.9920336887,-3943493.225755287 L 849093.757485835,-3968354.299300929 L 838722.7884455706,-3990988.171954966 L 834917.8882502563,-4006329.096003936 L 834406.9317875153,-4025648.865943412 L 836439.8483283821,-4039618.757208756 L 840962.202641859,-4045598.8471489134 L 862562.970593858,-4063025.488600325 L 872553.4496145912,-4084029.656272971 L 884924.71858492,-4091912.096718255 L 895632.651723816,-4097853.9581128997 L 904296.9816507287,-4104775.8573446893 L 912015.3185448804,-4115916.5209360393 L 917896.5498824705,-4127802.412618313 L 918907.6648173459,-4140661.03769417 L 921375.2839697602,-4161094.537906534 L 925299.7412981864,-4175386.482336428 L 934442.2997575471,-4191619.121110832 L 930615.6922615285,-4204671.719468405 L 925778.0811501251,-4218800.067063374 L 927180.4840951387,-4243287.675774977 L 925962.8715048418,-4253243.839743073 L 922049.3234865135,-4262064.125536971 L 918059.6329364827,-4273384.478142815 L 917907.4591925683,-4282824.801471945 L 921755.7739892917,-4307637.997632492 L 924701.8443131356,-4326627.017414942 L 929376.3723705268,-4351372.183537242 L 927734.8551592892,-4358313.700287526 L 924256.1210719994,-4363495.759318959 L 913798.2115094253,-4368964.325669713 L 913667.7450662157,-4372264.368123896 L 916244.2346806261,-4375910.581282369 L 931702.8384086154,-4388007.848234784 L 940008.2742972109,-4405809.571949593 L 946965.7424717905,-4409528.273701228 L 957488.9965754601,-4415984.815740941 L 957086.6879357334,-4422934.466774436 L 954738.6259164307,-4430357.863253912 L 982231.4231966272,-4438773.239159736 L 1008430.6879938056,-4460853.845514505 L 1017681.8942761807,-4466270.393177071 L 1078461.890971345,-4486658.305382937 L 1086354.331549097,-4485243.115030444 L 1095214.2498213337,-4482263.12950966 L 1092659.467507628,-4474659.864255821 L 1089148.116809536,-4468617.961622591 L 1094300.9847188657,-4457989.940512873 L 1101660.7615331723,-4464455.533086384 L 1099769.2207456129,-4468815.887326991 L 1099345.2048051814,-4474591.474470382 L 1111868.6475194246,-4475096.926026819 L 1122924.4540670495,-4474188.697009782 L 1135056.6087711542,-4467839.853279701 L 1134208.688209782,-4443831.251196913 L 1150384.746055934,-4420359.208958355 L 1145840.6844417527,-4408693.474910379 L 1159092.4905842564,-4401793.808647121 L 1170876.6605601416,-4410064.408593766 L 1176790.5085085342,-4422315.991723332 L 1198489.1262929407,-4429392.193962419 L 1219100.59793026,-4447372.460505471 L 1230515.1871967113,-4449218.571177498 L 1233091.6768111219,-4434466.073226923 L 1238614.1254298852,-4421568.553369642 L 1230808.7366939334,-4417030.639131017 L 1220861.7835941005,-4403347.0875462685 L 1202044.002911933,-4368687.106305644 L 1184704.6563869913,-4358516.363952448 L 1171713.783130907,-4345204.154520245 L 1167517.4836059636,-4335749.794927928 L 1166245.5471041598,-4324748.031108241 L 1169496.0762353234,-4305083.506802129 L 1178964.6894832177,-4285119.040382396 L 1189890.1409071232,-4273069.484000142 L 1200434.9909920068,-4269303.70963951 L 1224992.738577948,-4250354.312128077 L 1224590.5412577118,-4239097.850680915 L 1228025.7494241016,-4225730.830488269 L 1229330.302536708,-4209514.612944453 L 1237885.7620016248,-4196582.777298672 L 1219600.6450829033,-4168454.033776443 L 1209621.075372268,-4148172.5993727804 L 1190107.5478726428,-4120271.489593821 L 1172735.5847368983,-4102182.196903975 L 1135502.3320122906,-4075362.6016071364 L 1126370.5715435368,-4066471.945362634 L 1120413.308993735,-4057253.075380603 L 1117652.0290246075,-4047660.786019794 L 1118652.1233298944,-4036364.113798386 L 1130892.9258570136,-4008684.9984075883 L 1147177.7428456706,-3992373.5584346526 L 1163767.0186416474,-3983573.551825237 L 1192586.1876546456,-3987120.25298327 L 1191596.8913399659,-3976509.624875728 L 1193651.5151815373,-3963783.237766149 L 1205381.3612459155,-3964383.012171022 L 1213208.5686020628,-3966358.6692882543 L 1219839.870668618,-3978735.353232801 L 1233928.6880623964,-3970258.8971425146 L 1241244.9389558027,-3944417.315411184 L 1253170.4846849954,-3936369.157081556 L 1254561.978319911,-3933371.1787773324 L 1250354.880804361,-3931407.662485969 L 1247071.8463818857,-3928430.530635772 L 1250593.9950705853,-3926350.864437443 L 1262149.960090344,-3923141.121673884 L 1269107.4282649236,-3925194.1319474047 L 1280685.1005853873,-3919477.632390735 z" /><path fill-rule="evenodd" fill="currentColor"    d="M 1255464.2227927907,-4130474.8970610313 L 1238277.161331254,-4120707.64806429 L 1241549.2864436316,-4129224.5332907303 L 1252887.8444978711,-4139488.994875093 L 1255801.2982109128,-4137032.8907368532 L 1255464.2227927907,-4130474.8970610313 z" /><path fill-rule="evenodd" fill="currentColor"    d="M 1219796.344747718,-3991543.591356146 L 1216872.0930440694,-3990922.861751048 L 1211490.9088591228,-3987277.0532805403 L 1208642.688367686,-3986871.945623762 L 1200554.6594446097,-3990955.5168066034 L 1197467.2133674584,-3990929.285689071 L 1193575.3726498347,-3993798.4684137665 L 1194890.8350725388,-4009431.0860695774 L 1196151.862264245,-4013863.17359564 L 1215828.4728178824,-4014458.9957238683 L 1226503.7893459757,-4005105.4992320053 L 1228254.0656997187,-4002652.1331008333 L 1228699.7889408548,-3999977.087268892 L 1223742.5093768488,-3994739.715405282 L 1219796.344747718,-3991543.591356146 z" /></g></g>
</svg>
