<?xml version="1.0" encoding="UTF-8"?>
<svg xmlns="http://www.w3.org/2000/svg" viewBox="-19521247.95158978 2103827.036007991 160353.3887784034 341860.9335702667">
  <g id="map"><g><path fill-rule="evenodd" fill="currentColor"    d="M -19498935.07285518,2412081.588361946 L -19497347.87955545,2412093.2871420374 L -19495597.714521196,2408549.6272178823 L -19489613.178696144,2407267.6007949696 L -19490270.854247756,2411055.7071034843 L -19498342.63052517,2423346.5704135736 L -19503435.719867952,2418541.2111705258 L -19518252.90068999,2410694.382847217 L -19521247.95158978,2404622.2080985764 L -19516317.83398153,2400019.9658163697 L -19516823.335789222,2403724.907339696 L -19514355.605317317,2405402.9683363046 L -19506001.300172262,2406043.9024015195 L -19498500.258924138,2409353.8353285734 L -19503147.62502578,2410449.5650938055 L -19498935.07285518,2412081.588361946 z" /><path fill-rule="evenodd" fill="currentColor"    d="M -19364416.82281957,2112521.477305594 L -19368623.920335118,2119486.7623829357 L -19370629.563600738,2119383.4603068247 L -19375505.245977994,2115344.052573493 L -19377288.13894254,2112624.7438122374 L -19369863.128906626,2104457.764754871 L -19366036.52141061,2103827.036007991 L -19360894.56281138,2106556.5399807547 L -19361128.333742045,2108896.444754441 L -19364416.82281957,2112521.477305594 z" /><path fill-rule="evenodd" fill="currentColor"    d="M -19471241.12125512,2427744.850496777 L -19471855.270885825,2445687.9695782578 L -19477296.233637325,2437455.4099278008 L -19477899.585277427,2433638.3090713853 L -19472393.389304318,2428094.934766442 L -19471241.12125512,2427744.850496777 z" /></g></g>
</svg>
