<?xml version="1.0" encoding="UTF-8"?>
<svg xmlns="http://www.w3.org/2000/svg" viewBox="2857453.8866005456 -5174959.89300206 2131572.6603458654 897506.7117126659">
  <g id="map"><g><path fill-rule="evenodd" fill="currentColor"    d="M 2890969.4022911307,-4885772.914481218 L 2865389.7417797074,-4881280.604648954 L 2857453.8866005456,-4885708.992600867 L 2865465.8843114097,-4894507.595479979 L 2880370.116975249,-4899959.95774548 L 2885218.5260772593,-4900586.555572102 L 2891752.089630898,-4891818.09226891 L 2890969.4022911307,-4885772.914481218 z" /><path fill-rule="evenodd" fill="currentColor"    d="M 4620878.630678742,-5088972.103817669 L 4628281.822094458,-5085974.429488945 L 4642218.465744322,-5082150.724691159 L 4650860.97705104,-5077538.057292011 L 4655774.619374655,-5076327.291673811 L 4667156.5920303045,-5085727.712202613 L 4684071.922614814,-5085495.565927746 L 4698921.831367146,-5084399.857574628 L 4706585.84434979,-5082658.542699743 L 4715978.426385473,-5079539.5544807995 L 4727338.691740417,-5077436.6346144155 L 4731958.895886302,-5081925.795721588 L 4738579.39996225,-5095188.200325479 L 4741144.980266563,-5096888.187395442 L 4742971.287832517,-5098094.399409568 L 4751385.482863617,-5099126.183474599 L 4759364.863963679,-5098108.834395442 L 4763126.238238093,-5095849.3533424 L 4766887.6125125075,-5085241.578753217 L 4776356.225760401,-5081447.133456482 L 4793097.675300293,-5064524.4292608015 L 4803327.268587249,-5057749.214884114 L 4805805.908369252,-5054905.820410764 L 4802435.933424468,-5051484.928247347 L 4803751.284527681,-5047277.239205393 L 4809610.808564567,-5041763.728759289 L 4817829.303930853,-5039697.859052321 L 4826700.020193696,-5040427.409105573 L 4831526.833314492,-5038419.5039047105 L 4834983.748781586,-5035307.666439446 L 4835897.013884055,-5030941.03785676 L 4835657.7882983405,-5028156.031552346 L 4837418.86264269,-5021889.14517055 L 4844343.714206466,-5013054.703892698 L 4852605.7354936525,-5007654.218579158 L 4857052.058594918,-5001875.403207774 L 4864270.348336426,-4982024.762575473 L 4867183.802049467,-4971060.155136992 L 4866096.767221871,-4960523.474860178 L 4861085.163746358,-4949718.926569434 L 4850116.297721043,-4936289.013301807 L 4852834.05176927,-4930680.774409091 L 4855290.872931077,-4923262.8568941085 L 4854464.65967041,-4917897.374127483 L 4862226.633804953,-4900778.90297915 L 4865759.691803749,-4890167.769591077 L 4862802.823489298,-4887714.064845199 L 4860900.373391641,-4884322.61551295 L 4874869.633652307,-4876158.11210517 L 4891600.173882101,-4869306.21807025 L 4898655.4918890875,-4867993.063498607 L 4917875.469891491,-4871137.569712344 L 4930257.648171918,-4871812.072675506 L 4942541.865300446,-4865324.990920808 L 4960446.492199637,-4849621.745927719 L 4979742.612733743,-4829170.1262401175 L 4983580.129539859,-4822951.10790918 L 4985265.061352506,-4820224.344965843 L 4989026.546946411,-4815274.296613954 L 4985123.796918689,-4815366.105219398 L 4978764.225729161,-4819800.52517781 L 4963414.269824185,-4832366.103153103 L 4955576.264477431,-4826964.773870166 L 4948814.495967666,-4817632.527048045 L 4941400.395241852,-4782318.135235217 L 4935399.60677115,-4778561.442676683 L 4924822.140075465,-4778666.888690343 L 4911863.772110691,-4779883.919486647 L 4902949.529926948,-4778118.351029072 L 4900644.882509055,-4775881.8718322525 L 4901818.96917845,-4772078.349729298 L 4904460.692014466,-4766295.047020897 L 4906330.41418183,-4758977.458810355 L 4906863.189264766,-4752991.168806119 L 4911559.424622863,-4747576.242077088 L 4917875.469891491,-4742437.649897208 L 4918158.110078615,-4737161.651183348 L 4917190.632384132,-4729732.108232634 L 4915733.905527609,-4724070.863885253 L 4914146.712227879,-4720867.303920062 L 4917071.075251019,-4712275.709040044 L 4923930.693593191,-4702099.621687912 L 4928300.874162754,-4698212.132967163 L 4926670.154942122,-4678880.372530069 L 4929246.644556533,-4670331.126197361 L 4931214.327875795,-4658528.415310594 L 4930431.529216536,-4638945.437814271 L 4931290.359088007,-4634138.7169319065 L 4933638.532426801,-4632495.4191659205 L 4939889.344473825,-4631767.436502339 L 4946020.599387736,-4629951.183462091 L 4948140.456450913,-4626749.3515040595 L 4948107.83984011,-4624414.252517237 L 4940454.624848072,-4615453.532964514 L 4939552.3803751925,-4609094.299441783 L 4936899.859548571,-4600139.806342203 L 4934725.678573887,-4594874.51028119 L 4927887.76753242,-4584910.94662311 L 4923539.294263562,-4574791.472928551 L 4921582.520254398,-4566445.480282108 L 4922876.1640569065,-4562512.501808566 L 4935486.547293459,-4561328.005222585 L 4942335.367645024,-4555332.284907298 L 4960533.432721946,-4543413.002504435 L 4963729.526622112,-4538588.684095104 L 4958761.560386989,-4531246.3577209925 L 4958848.500909299,-4528177.778194031 L 4961196.674248093,-4524286.761655327 L 4962305.416376393,-4517482.475537358 L 4961859.804454748,-4509928.887199742 L 4961957.542967664,-4499970.951388894 L 4965305.921931235,-4498335.015543319 L 4977666.281591467,-4489003.561276134 L 4986460.9666420985,-4479659.814861556 L 4986754.404819828,-4476776.950486835 L 4982471.276092067,-4469409.686728955 L 4983406.137175749,-4460922.146288106 L 4983232.25613113,-4458978.610122919 L 4979427.355935816,-4462170.214697779 L 4972567.737593644,-4463329.856248653 L 4965512.419586657,-4463670.885791894 L 4961066.207804882,-4461188.090523408 L 4953271.617059537,-4454526.835423502 L 4942802.798186866,-4447263.51474403 L 4934301.662633456,-4440604.189307186 L 4929431.43491125,-4436044.476807713 L 4925409.127750417,-4436779.417535317 L 4922267.357761758,-4440760.744301916 L 4920506.283417408,-4446330.477191852 L 4921256.354146374,-4467389.535497252 L 4919408.339279714,-4473990.670404073 L 4915451.265340487,-4478621.355507063 L 4910798.4445838,-4481265.417000307 L 4905254.177344841,-4482748.374706416 L 4899525.231070656,-4482898.697487161 L 4891382.766916581,-4476708.686839861 L 4879848.620517018,-4470310.653865737 L 4861965.700918533,-4470829.461338158 L 4849964.1239771275,-4472031.022972347 L 4844158.92385175,-4473246.285879009 L 4820884.022077711,-4483055.880866669 L 4816024.703665603,-4483315.665490943 L 4807349.575748082,-4487287.277777285 L 4797032.9306193255,-4490439.707664894 L 4779682.786103777,-4484470.776954372 L 4772170.946865046,-4485892.583674292 L 4761647.6927613765,-4491068.906369354 L 4757918.935097765,-4489673.710492124 L 4746156.472422585,-4473908.719804285 L 4726164.60507102,-4457062.658088659 L 4715380.529400422,-4454254.219051772 L 4710249.480111288,-4471157.171803774 L 4705314.019167478,-4477726.392611904 L 4702976.755138782,-4478518.94226741 L 4697986.858963973,-4480623.23071662 L 4694105.927556448,-4479413.832612094 L 4682082.531994848,-4467867.247532968 L 4662819.028071544,-4460928.85068233 L 4646871.286501009,-4456701.317841018 L 4621487.3256544,-4451541.838748803 L 4601897.766942563,-4448980.133723982 L 4593559.603123675,-4448775.743109707 L 4575470.185869768,-4451085.377556941 L 4559522.444299232,-4454336.017183895 L 4543574.591409206,-4454192.801075076 L 4531333.788882087,-4452734.3685481185 L 4502916.928508816,-4440345.592845981 L 4454605.9392968975,-4414891.39415593 L 4417883.53171554,-4402736.556106868 L 4397282.969388318,-4397684.586348375 L 4381161.235453674,-4394817.261624418 L 4353526.951100679,-4394674.845603242 L 4331045.645976504,-4396633.857184908 L 4315478.3944255,-4396416.865621138 L 4306824.973808686,-4399467.786096851 L 4294486.32144916,-4409752.204386329 L 4279538.674183911,-4419924.401795025 L 4272885.55349716,-4422288.854240932 L 4264188.718278935,-4424252.812764491 L 4251480.485209975,-4425394.667104922 L 4219747.973803427,-4410519.247843771 L 4209877.051915805,-4406481.282621361 L 4199006.035722897,-4403441.969632224 L 4177100.8089635787,-4394363.091625869 L 4167392.97012997,-4389504.875372562 L 4155228.310134553,-4389958.700107901 L 4139682.6545647625,-4391252.71283959 L 4126191.734156036,-4390798.833141823 L 4117190.5514499824,-4397704.996620346 L 4112342.031028481,-4405483.875603355 L 4093948.266286746,-4410247.759854054 L 4080816.017277354,-4411618.893650728 L 4077456.8403231762,-4408164.219122463 L 4073945.4896250833,-4397562.542067273 L 4068357.807784716,-4370519.6287267655 L 4067335.8948592334,-4363745.855439529 L 4078902.6578695993,-4336942.854407819 L 4078380.903416251,-4332865.157412838 L 4070107.972818967,-4331477.151282075 L 4060606.7429602705,-4331032.414362166 L 4054421.052815361,-4328654.355599596 L 4049290.0035262266,-4324209.386109051 L 4046191.7594584674,-4301105.179007653 L 4035201.074812958,-4296866.271807878 L 4029982.973682023,-4292031.609779211 L 4024601.7894970756,-4277788.486673788 L 4021677.537793427,-4277453.181289394 L 4003892.4680273496,-4288252.675991737 L 3995554.4155279514,-4289145.260156953 L 4002707.583367345,-4300366.129906878 L 3994934.699922705,-4322532.9460667595 L 3986455.3829894904,-4343342.236695577 L 3994456.3600707664,-4356679.250358462 L 4011034.7265566452,-4372785.199550456 L 4028482.832224092,-4391679.552184801 L 4028450.21561329,-4403353.755659424 L 4027547.85982092,-4412270.671597967 L 4022547.1656555044,-4418443.408103251 L 4012948.0859644003,-4426652.338357424 L 3996880.6759412624,-4417886.4019451095 L 3985411.762763304,-4408218.422156864 L 3977921.5195057876,-4406257.420678676 L 3969779.166671204,-4400749.341222586 L 3965822.0927319755,-4390819.091500475 L 3956005.4947558623,-4383084.577737898 L 3939948.994042821,-4380058.707027038 L 3915793.5550966077,-4388332.873004103 L 3889855.2231858494,-4400939.337792215 L 3875168.3974875286,-4411164.146449229 L 3863188.5278468286,-4413601.323425856 L 3851806.55519118,-4409107.530268658 L 3818215.008288383,-4384079.894417887 L 3787471.7931965142,-4347612.815679329 L 3779840.285505181,-4341318.904063075 L 3750879.8520583664,-4325690.793430754 L 3731735.9052681746,-4320452.856178995 L 3722723.813252024,-4321671.248402038 L 3684620.821345848,-4314800.390990314 L 3665694.281521176,-4313797.960342251 L 3650703.108335027,-4305560.767447162 L 3621644.825055805,-4314490.806912472 L 3604272.8619200606,-4325919.876687155 L 3593814.9523574864,-4337542.885374222 L 3576758.2460196693,-4362597.011505883 L 3564669.728555955,-4374530.446382164 L 3537502.9860642925,-4385271.678492871 L 3490148.67655625,-4411415.221224809 L 3477690.4670636123,-4414287.153782471 L 3445370.856662619,-4418035.944939575 L 3411279.2626071796,-4420399.977389815 L 3404376.118344107,-4410872.20648004 L 3401756.2141282875,-4373218.090675579 L 3395918.5087115974,-4362874.073566594 L 3393418.1616288894,-4343416.4198886 L 3389243.6807241417,-4337819.302958136 L 3382699.3191798963,-4334145.681705846 L 3372469.6145734484,-4340280.311795642 L 3365370.881965052,-4342991.496636138 L 3348846.8393906797,-4334988.084024528 L 3316125.0316694514,-4323771.7051055115 L 3304971.375289419,-4322203.011150338 L 3267042.2644278626,-4336295.780658634 L 3253159.9446895053,-4345359.317357257 L 3244213.085894959,-4355416.373701721 L 3241190.873039413,-4372426.709672628 L 3235559.6652781446,-4382123.321181366 L 3234733.452017477,-4388786.786702964 L 3232526.6544319913,-4396464.345164036 L 3224884.348750051,-4399501.670054961 L 3216676.6513743717,-4393705.745303894 L 3207882.077643231,-4393942.94605654 L 3196837.0690862136,-4397494.786572877 L 3170779.1800423423,-4411795.459247888 L 3150754.696079976,-4412929.163561591 L 3138720.3912082785,-4395474.676381219 L 3129360.425783398,-4389931.6448983215 L 3119109.1251957365,-4388278.770884397 L 3118522.0262012924,-4393238.160186066 L 3126294.7983264425,-4404520.600760403 L 3095105.859993437,-4402438.179397228 L 3078636.141330572,-4393848.009605084 L 3065786.643827795,-4395183.304499863 L 3056154.836206398,-4399060.909266842 L 3057600.765072312,-4403808.308538118 L 3067373.837127526,-4405551.820819842 L 3075853.1540607405,-4409412.904670739 L 3109651.3099384494,-4412555.697959114 L 3117543.6391967107,-4415713.049234266 L 3126186.150503428,-4427998.437129945 L 3141927.3944185413,-4438603.193608799 L 3143927.694348606,-4443157.174838946 L 3131828.1562553034,-4443218.389352626 L 3080027.6349654878,-4440141.368834118 L 3044468.51606292,-4441836.338264306 L 3040250.509237272,-4436582.090562536 L 3034901.941663128,-4435840.33564569 L 3033423.5075059026,-4450145.026328068 L 3039043.805957073,-4456803.519470883 L 3046610.080426801,-4456183.204293213 L 3065188.7468427443,-4461972.413604751 L 3063525.4110113117,-4473888.162330611 L 3050219.2809573007,-4481948.788781044 L 3047512.4362191716,-4486706.191094265 L 3037858.9212970696,-4487820.6456036065 L 3030031.713940922,-4493490.384237419 L 3028324.9635080798,-4507825.594085215 L 3022095.8587617604,-4523579.97068529 L 3013192.5258881147,-4531212.0480808625 L 3014290.4700258086,-4535401.0482227905 L 3030607.903625268,-4540711.829709807 L 3033988.7878801506,-4562815.452258625 L 3031499.350107541,-4576411.907494142 L 3023291.652731862,-4577570.444033543 L 2999375.4393713623,-4588314.015412703 L 2992113.512389464,-4587167.989395198 L 2984188.5665203994,-4598985.674885404 L 2970317.1560921404,-4607482.616777209 L 2963446.62843987,-4604370.601720974 L 2959141.681091913,-4600533.888124294 L 2952716.876680779,-4602372.569030918 L 2941943.710320278,-4609751.397669995 L 2931366.1323051015,-4613736.962477059 L 2926669.8969470058,-4618658.799797036 L 2932561.926275203,-4631836.7253950145 L 2940660.8645083765,-4631524.787075766 L 2942139.409985093,-4641859.7150515895 L 2935747.222184762,-4659112.37627408 L 2936366.826470517,-4667979.239652801 L 2943433.0537876016,-4670407.659959002 L 2951477.5567897772,-4668737.586967042 L 2959598.202323656,-4658417.235880734 L 2962250.834469769,-4648440.6312956475 L 2960544.0840369267,-4638730.466619056 L 2965696.951946256,-4629334.244402455 L 2969360.476388263,-4626964.072139372 L 2971828.2068601684,-4636850.477490678 L 2975274.3243366554,-4638730.466619056 L 2980014.0856156517,-4634409.264277877 L 2990200.2643011995,-4632245.7949577635 L 3016606.026753799,-4638321.138675313 L 3021682.7521314267,-4643469.828786131 L 3002332.3076858134,-4642886.900904085 L 2995255.2823781217,-4647704.548559114 L 2987569.450775282,-4658493.680506222 L 2982840.5988063836,-4668299.271884052 L 2981992.56692552,-4673115.072269513 L 2979318.3387981933,-4680161.9294806365 L 2982264.4091220377,-4683938.066645517 L 2995516.2152645416,-4689604.825512592 L 3007148.211496512,-4705478.886508916 L 3002299.691075011,-4710081.802343457 L 2996755.535155543,-4712254.815179735 L 2990732.9280646453,-4710640.679820586 L 2985025.577771674,-4716084.691564892 L 2984286.4163528066,-4723665.116247412 L 2988852.185267693,-4729802.065937302 L 2989330.525119631,-4738247.420584973 L 2974382.877854383,-4759075.798744278 L 2970208.3969496354,-4763618.740846656 L 2973426.198150506,-4770440.669238443 L 2984840.7874169573,-4781874.877882468 L 2995711.914929356,-4796048.48457532 L 2994407.3618167494,-4800714.000617742 L 2986373.6568051805,-4802624.625572554 L 2948194.5223673023,-4796534.651088214 L 2933355.522925068,-4791251.289648909 L 2906895.436560961,-4788843.02585096 L 2904992.9864633037,-4796548.793417504 L 2905590.8834483544,-4803498.843956872 L 2911526.550016943,-4816171.020863594 L 2910982.9769433993,-4847482.644924353 L 2914494.3276414913,-4864501.999203179 L 2929191.951330418,-4869575.876704956 L 2947227.0446728175,-4894649.98162708 L 2976470.118306757,-4924276.254491671 L 3006974.219132402,-4923705.301081297 L 3019171.607058112,-4931895.0605309075 L 3037304.438913428,-4932373.589852158 L 3040598.3826460014,-4926417.844190716 L 3042653.0064875726,-4920722.439962319 L 3058568.242766796,-4912541.966697981 L 3086669.8463421413,-4913839.586228964 L 3093496.848073511,-4917062.837362399 L 3100084.735538657,-4921571.462253387 L 3087093.862282573,-4936160.366898456 L 3091246.635886616,-4940277.448485674 L 3103019.896552403,-4940763.561012058 L 3115782.5648523606,-4937325.271024362 L 3116369.552527314,-4933981.098131049 L 3112977.7589623337,-4929402.432581476 L 3109031.594333203,-4921378.854906567 L 3112782.17061701,-4919837.69342791 L 3149123.9768593456,-4924683.075352023 L 3187107.411632409,-4920800.909347737 L 3199196.0404156134,-4922905.934254414 L 3229058.8296547984,-4922741.80095585 L 3234407.397228943,-4927774.323129388 L 3225373.486592597,-4934095.376272744 L 3216535.386940555,-4936296.184766354 L 3210588.922381361,-4939376.739726619 L 3204653.367132263,-4943852.695034738 L 3223590.704947542,-4958002.002801788 L 3234287.840095831,-4960724.041035206 L 3284772.898962943,-4969425.115360621 L 3322321.5198049676,-4973785.829233044 L 3322799.859656907,-4977021.635121167 L 3317386.058861157,-4977028.836465567 L 3268868.5719938166,-4984250.636041003 L 3257182.251850339,-4989846.532471761 L 3240940.849463091,-5003177.691630541 L 3237418.700774392,-5006948.797854416 L 3233331.1603919542,-5013458.006214127 L 3235766.274253057,-5027348.074264747 L 3238766.6684884075,-5038520.665745929 L 3244756.658968503,-5045000.626422353 L 3264139.7200249187,-5045990.630368158 L 3330605.248392859,-5034614.574327736 L 3377981.2652016045,-5041431.443855043 L 3429760.0791907157,-5024867.006691184 L 3479277.660363342,-5028228.1290181475 L 3489496.4556596926,-5035661.328099517 L 3501889.4319307264,-5059659.752450864 L 3571844.6036960543,-5099642.191472677 L 3596337.0067408984,-5120559.01013668 L 3622579.7974589784,-5132022.477052348 L 3667607.6409289306,-5144777.587057582 L 3705243.202293265,-5161667.02858888 L 3715994.6613530614,-5163612.906990994 L 3806343.897790189,-5155539.2382125165 L 3868406.6289777635,-5154515.877517801 L 3896899.6318827374,-5170463.349354766 L 3913423.674457109,-5165105.545754429 L 3911880.0070782793,-5159407.024255991 L 3908879.612842928,-5154537.732816042 L 3909770.94800571,-5144682.628981341 L 3919467.9888487128,-5130228.902800921 L 3929328.0014262353,-5120398.810471471 L 3958299.344183148,-5106316.030377635 L 3998576.5170640065,-5118192.235625252 L 4005066.5546967452,-5116867.043452993 L 4013263.342762327,-5113547.635025242 L 4027450.009988512,-5075464.524659304 L 4038495.0185455307,-5062048.344720125 L 4052627.361860209,-5052931.198049764 L 4064237.650791474,-5051137.796442213 L 4072858.3434779965,-5060643.994969493 L 4079533.1714654523,-5064480.978504686 L 4094078.621410465,-5066103.173849222 L 4117929.7128688497,-5053047.027475983 L 4126191.734156036,-5039582.337208092 L 4166795.073144919,-5029187.608194549 L 4204050.144489722,-5023987.256699253 L 4220128.463822958,-5012622.507469343 L 4272559.498708627,-5001213.569136081 L 4292138.259429857,-5002983.324558619 L 4325001.3315849025,-5014949.219514881 L 4388923.098268725,-5028054.9778095 L 4431396.2707444625,-5009763.709626146 L 4442887.002542617,-5007395.042387555 L 4452801.339031648,-5008971.58315922 L 4467075.058099633,-5003940.461477433 L 4482305.345552006,-5006639.2249705475 L 4529311.781651318,-5028199.319515692 L 4544009.405340245,-5040441.758066016 L 4559587.677520838,-5043606.001220316 L 4573404.764037589,-5050942.614321349 L 4610224.910131863,-5075029.681344408 L 4620878.630678742,-5088972.103817669 z" /><path fill-rule="evenodd" fill="currentColor"    d="M 3118554.642812095,-5156343.3629693035 L 3115532.5412760396,-5139266.347160075 L 3122544.333362126,-5120493.378665065 L 3138970.5261040907,-5094476.366098732 L 3155505.3666690695,-5081374.48940031 L 3222340.4757464435,-5049048.308427803 L 3234635.7135045603,-5046286.955621567 L 3231841.816924631,-5033084.417816483 L 3227819.5097637977,-5021362.953395152 L 3223395.0052827275,-5013551.679776985 L 3203816.2445614976,-5008532.49095588 L 3149776.3090753937,-5022891.262080279 L 3136111.396302556,-5024254.112170969 L 3126468.790690552,-5021391.742611794 L 3108618.487702869,-5010951.725357043 L 3088822.3200161196,-5014300.805721618 L 3061220.7635934185,-5008381.364074198 L 3053513.224689874,-4988761.586611108 L 3034347.5705989776,-4966335.250421294 L 3002799.7382276542,-4948244.9694607435 L 2980253.1998818754,-4938583.270873874 L 2946400.8314121505,-4904012.183615961 L 2931039.966197077,-4883889.066746198 L 2924560.8378744363,-4879987.25447368 L 2916875.0062715965,-4876903.949858142 L 2919462.4051961047,-4886555.008097847 L 2923267.1940719276,-4895397.214622701 L 2922397.566209851,-4902067.829371746 L 2922560.6492638625,-4911779.127331564 L 2933855.5700777113,-4922813.124795639 L 2944117.891294962,-4930823.684046777 L 2974491.636996888,-4945347.526523113 L 2982481.816087557,-4957421.897898292 L 2958663.3412399744,-4957135.4516872335 L 2934486.1949930554,-4954450.334044945 L 2919266.70553129,-4956168.665899027 L 2906047.515999588,-4955180.566267581 L 2901851.2164746453,-4965754.504714327 L 2898644.3245838727,-4972121.689499934 L 2902068.7347596553,-4974108.6123047685 L 2906460.6226299223,-4975486.106412904 L 2914222.4854449746,-4986786.097287722 L 2921158.2463188493,-4995129.366984738 L 2931159.63464968,-5005631.559738502 L 2933725.2149539925,-5011909.499121798 L 2933725.2149539925,-5017766.44905079 L 2931333.515694299,-5021831.5638729585 L 2930866.0851524584,-5026662.788941546 L 2930561.7376646292,-5033495.796412199 L 2931116.1087287795,-5047624.232497559 L 2954021.4297933853,-5063083.540383893 L 2961359.3879874963,-5064719.885933828 L 2963870.533060811,-5071782.709204238 L 2962185.601248164,-5088180.898235084 L 2959022.123958801,-5101437.496076579 L 2954923.674266265,-5102324.331543109 L 2949412.1349575995,-5106199.707689002 L 2945792.0251170015,-5110687.866189768 L 2940008.643611819,-5115600.326806419 L 2930028.9625816927,-5118614.570084878 L 2929702.907793159,-5122809.845030653 L 2930735.618709248,-5127006.958076378 L 2934420.9617714505,-5131300.586829706 L 2951238.4425235535,-5135005.443818334 L 2953227.83314352,-5138040.448076916 L 2955499.863950611,-5145522.479926943 L 2958837.333604084,-5153185.642773243 L 2962805.205533919,-5155722.035522189 L 2969914.8474524138,-5155488.03762849 L 2983405.879180632,-5157257.162147589 L 2992809.2592069213,-5159758.09264094 L 3002147.517331097,-5165003.042049894 L 3006930.8045309926,-5169767.93283181 L 3027150.876838683,-5172535.655950728 L 3032825.610520852,-5174959.89300206 L 3038456.8182821204,-5172901.756854337 L 3046023.0927518485,-5164732.4016038105 L 3058481.3022444868,-5153024.8955590455 L 3065166.928222549,-5149123.190867057 L 3070178.531698062,-5150934.979236437 L 3079223.2403250155,-5155188.325102763 L 3087876.54962234,-5155217.517467303 L 3094866.634407722,-5154472.017378557 L 3098236.7206719974,-5158178.53644945 L 3103498.2364043416,-5158975.545369973 L 3118554.642812095,-5156343.3629693035 z" /></g></g>
</svg>
