<?xml version="1.0" encoding="UTF-8"?>
<svg xmlns="http://www.w3.org/2000/svg" viewBox="-6891355.974275436 -1269027.706217732 153689.47010104544 142829.4014515311">
  <g id="map"><g><path fill-rule="evenodd" fill="currentColor"    d="M -6763360.2671638755,-1252357.221593798 L -6769410.036210528,-1251232.5034101626 L -6768703.380082972,-1255748.1756587967 L -6758087.842121435,-1263562.2548768455 L -6741819.277778433,-1268816.9948844821 L -6737666.504174391,-1269027.706217732 L -6740003.768203085,-1262027.053118893 L -6763360.2671638755,-1252357.221593798 z" /><path fill-rule="evenodd" fill="currentColor"    d="M -6791836.906103704,-1134076.9056435472 L -6809888.3634112505,-1127710.9570211447 L -6856911.052156218,-1126198.304766201 L -6876391.963045041,-1128506.0319392115 L -6891355.974275436,-1126706.2839113981 L -6864123.998562168,-1140565.4460853282 L -6860922.450006953,-1146414.4229598811 L -6849361.030332146,-1147513.6514557654 L -6846072.541254622,-1149259.2281880607 L -6842224.226457898,-1179864.320798169 L -6843729.822570877,-1187157.5234193702 L -6846018.217343115,-1191178.0240716003 L -6850703.654710603,-1194076.1824886398 L -6861210.544849127,-1198031.1019463032 L -6862977.073848525,-1200149.7855983048 L -6856372.933737723,-1203535.578144395 L -6842235.135767996,-1205405.6518389427 L -6831679.376373015,-1209074.1447894608 L -6809828.473525204,-1209810.089340091 L -6799229.299528813,-1213053.0134853541 L -6781319.217974574,-1213993.7392984421 L -6790124.812335303,-1199934.0706353392 L -6794244.858009052,-1194690.1439707954 L -6792641.412063667,-1182031.6025251655 L -6794663.419294436,-1173445.9250503972 L -6792315.245955643,-1162591.1025659852 L -6786977.587691596,-1155463.2205258308 L -6790445.412468788,-1148458.2660176493 L -6790945.570940923,-1137864.9598009072 L -6791836.906103704,-1134076.9056435472 z" /></g></g>
</svg>
