<?xml version="1.0" encoding="UTF-8"?>
<svg xmlns="http://www.w3.org/2000/svg" viewBox="13167682.559908643 -2909794.5562959644 405392.0783023741 407271.58909681113">
  <g id="map"><g><path fill-rule="evenodd" fill="currentColor"    d="M 13470636.772990683,-2586171.83028076 L 13463744.538037712,-2572033.6826830786 L 13458232.887409551,-2557108.0141443 L 13456004.382523362,-2543035.565459048 L 13456123.939656474,-2528528.867407453 L 13454547.655666841,-2515447.6301102834 L 13451829.901618615,-2502522.9671991533 L 13441024.00732782,-2506244.048553112 L 13435164.594610427,-2515500.349535276 L 13433816.51557692,-2530706.1092772246 L 13425978.510230165,-2549092.073289138 L 13423043.349216416,-2554368.964991943 L 13411748.31708308,-2564663.366218164 L 13401486.10718532,-2569798.0659136036 L 13393539.34269606,-2577400.2668103892 L 13394582.962922247,-2576776.5208821427 L 13388712.640894756,-2587025.675839215 L 13384255.519802883,-2597941.29042681 L 13375047.728121918,-2628983.7410890847 L 13371873.341522457,-2636495.226978608 L 13367622.718086008,-2643354.128450668 L 13366405.2168152,-2650139.167060916 L 13367861.943671722,-2657684.0530518848 L 13371829.815601554,-2668966.470510599 L 13374254.131472051,-2680351.520164375 L 13372297.357462889,-2695828.7843821133 L 13373047.428191854,-2711172.789226319 L 13376036.913117107,-2717992.384404337 L 13428435.331391973,-2811826.7263096618 L 13442654.726548452,-2831870.9455786087 L 13451395.087687576,-2841717.418787943 L 13458700.429270886,-2852827.7699752925 L 13465657.897445463,-2866901.0565215442 L 13474180.740299579,-2879775.377673541 L 13480279.378602687,-2883741.3385341344 L 13510337.867506688,-2895309.00149158 L 13519708.630922176,-2906362.622616882 L 13527220.581480395,-2909794.5562959644 L 13535743.424334511,-2909602.265432729 L 13541244.16565257,-2904319.543099406 L 13546147.009985577,-2898065.6455650944 L 13551289.079904301,-2894684.485117557 L 13564595.209958311,-2888578.5560349636 L 13570422.117384395,-2882679.2148506995 L 13573074.638211017,-2872518.2915369524 L 13564975.699977843,-2862885.639246469 L 13560953.39281701,-2854205.221889773 L 13560203.322088044,-2844619.978183233 L 13561649.13963447,-2831655.639031127 L 13561833.929989185,-2818660.5497127967 L 13551702.186534634,-2788206.2763564773 L 13540831.059022233,-2769266.7098090053 L 13537906.807318587,-2759835.294687651 L 13534601.954275915,-2736465.9673066903 L 13528220.675785681,-2713036.1783793173 L 13522774.25837913,-2683384.1723934533 L 13513903.542116288,-2652894.17816763 L 13508870.231340067,-2640157.6507517523 L 13502597.60067285,-2627980.2138072937 L 13487606.427486701,-2604996.319481723 L 13470636.772990683,-2586171.83028076 z" /><path fill-rule="evenodd" fill="currentColor"    d="M 13181053.923184259,-2817160.883197545 L 13185924.150906466,-2809019.8890597224 L 13183869.527064893,-2803980.9728392675 L 13168552.187770719,-2806667.4318019385 L 13167682.559908643,-2811593.7209991375 L 13173476.739404434,-2810680.080656807 L 13181053.923184259,-2817160.883197545 z" /></g></g>
</svg>
