<?xml version="1.0" encoding="UTF-8"?>
<svg xmlns="http://www.w3.org/2000/svg" viewBox="3264270.1864681286 110759.77682065479 1240114.2668878152 1202668.4747693003">
  <g id="map"><g><path fill-rule="evenodd" fill="currentColor"    d="M 4396728.487004677,688688.6695920341 L 4405251.441178283,712519.7432126357 L 4404153.497040588,716983.0363319512 L 4398141.799259788,719718.0457733977 L 4395000.0292711295,719947.8176540282 L 4391260.36229742,716140.7372465876 L 4388618.750780896,708089.7273522684 L 4384052.87054652,710003.8331759828 L 4376269.189111272,700389.8128049506 L 4368561.650207727,699930.4261517186 L 4361756.3557770625,688459.1334758495 L 4364419.785913781,678454.9050312984 L 4362876.1185349515,661424.3452420956 L 4371181.554423547,652703.1425164517 L 4375856.082480938,638028.563884594 L 4381226.468675278,648047.9314359828 L 4382454.879256182,663675.8527458591 L 4389694.987617886,682062.8219633438 L 4395771.91862029,687748.3609297764 L 4396728.487004677,688688.6695920341 z" /><path fill-rule="evenodd" fill="currentColor"    d="M 4437755.841933992,546818.9860820301 L 4438418.9721406475,552449.327920524 L 4436712.221707805,557752.684474227 L 4437081.802417238,574647.4307676074 L 4436418.6722105825,585858.2315294661 L 4430059.101021054,601394.7983796981 L 4424873.616500922,606920.2359806556 L 4420231.705054333,605314.9118645741 L 4416426.91617851,602759.734245198 L 4413459.0272344705,598501.2071936916 L 4419503.341626072,570008.6131561066 L 4416426.91617851,549154.0439676237 L 4428374.169208407,551150.8398114811 L 4437755.841933992,546818.9860820301 z" /><path fill-rule="evenodd" fill="currentColor"    d="M 3664628.953994284,1051966.6810383885 L 3658323.7067162623,1048969.5058384968 L 3646452.596218068,1042359.1096818193 L 3629950.2609444004,1036520.7537493531 L 3616448.4312255746,1030000.4050791941 L 3610447.642754873,1023646.4237463443 L 3597772.0262967153,1021223.9287599836 L 3586813.9582620068,1020177.9657404972 L 3576671.3054973595,1014287.8419066544 L 3566159.0720232786,1013616.3145782358 L 3555831.517584423,1012108.1523728087 L 3553526.87016653,1008211.4714593173 L 3553168.087447703,999505.7592506034 L 3549548.088926597,997227.8112547244 L 3541970.905146771,995004.9756781136 L 3533806.845011483,995115.0610765569 L 3528827.8581467723,996369.4018642979 L 3525892.6971330256,995742.2266952234 L 3519120.019313163,990614.7569425087 L 3512825.681345239,984101.8883079265 L 3510444.891395644,973718.4599158346 L 3500911.044926144,967032.2215561161 L 3489931.2695907312,961754.3575515519 L 3459405.3501448906,962304.1256066564 L 3454622.0629449943,960698.863292336 L 3447381.954583291,955443.8469568235 L 3438880.8190298807,946748.9665185979 L 3432053.817298511,936825.2695138067 L 3426053.0288278083,923355.3586550499 L 3423204.808336372,915238.0617713346 L 3419834.722072096,905200.6667202029 L 3412366.4087542663,890192.4102120019 L 3401799.7400491876,868956.6852499803 L 3393646.477904507,851569.0152728779 L 3384862.5908444817,832872.1499237487 L 3381275.208934177,819180.1470649074 L 3374448.2072028075,804034.5559532471 L 3363261.8228924824,785432.0703656855 L 3357597.9985204116,778159.3747033715 L 3351412.4196949922,771654.2362554142 L 3335334.1003617565,759106.2171082334 L 3317114.3279841314,746637.786361388 L 3307265.1133972146,738232.1971650792 L 3294013.3072547107,713307.4369354048 L 3288469.0400157515,704283.32183002 L 3284620.7252190285,688404.3808456907 L 3281707.271505987,671939.4380426685 L 3282903.0654760883,665271.6671077941 L 3294654.7301606615,644070.6517186663 L 3295839.614820665,638104.9758720072 L 3294404.7065843395,630064.315357228 L 3288643.032379862,613177.8556545187 L 3284338.0850319043,602126.4059520267 L 3281305.074185751,592692.5915794728 L 3275032.443518531,576994.226277257 L 3266422.548822616,555417.3546703449 L 3264270.1864681286,546000.6884570706 L 3264520.21004445,538941.7339587868 L 3269183.8287917436,520309.9187747099 L 3273260.4598640837,501082.78745708615 L 3273151.8120410694,495794.14278258156 L 3308167.357870094,496524.7111266795 L 3313929.0320745725,492304.9671806832 L 3333714.401770714,479941.398654611 L 3355967.3906192714,455165.15177542414 L 3360413.6024010456,444844.57858276967 L 3369480.1296481946,428957.37106531305 L 3378372.6645312337,421069.26797681063 L 3381786.1653969185,415600.3100083395 L 3384112.520115516,407026.9423540865 L 3386895.507385349,399772.34778142517 L 3398571.02953822,389022.0747271792 L 3409931.294893164,380788.6090516528 L 3409115.8796231034,377445.353294457 L 3407594.030864468,374962.4006089493 L 3409278.962677115,372838.899977869 L 3415486.3601227296,368602.94985086174 L 3427553.170285739,364726.4195267924 L 3429912.25293463,356473.0432271142 L 3429879.6363238273,347087.9110491999 L 3427922.862314664,341840.4589851648 L 3428292.443024097,335798.5386972892 L 3426444.3168379473,332423.82746914326 L 3418562.8968897834,331574.7579340547 L 3406854.75812611,326894.0006496123 L 3396918.6030168836,324923.747965943 L 3390298.0989409355,322202.4960273775 L 3387841.2777791284,320123.5320524426 L 3386786.7482428434,314496.1653409178 L 3388711.016960696,308368.5220383048 L 3389732.818566688,306605.4007841085 L 3392276.6915702955,300042.7153694144 L 3387939.127611535,296092.2407918267 L 3386808.5668630386,294166.02311417396 L 3388787.0481729074,291031.8673107572 L 3398994.9341591597,270171.8991649951 L 3401212.641054744,267255.8593888091 L 3405637.1455358127,266885.8432151964 L 3412681.6655521933,264328.9567618597 L 3419160.7938748337,263175.7033615161 L 3424465.8355280785,264089.6373103903 L 3428379.3835464064,263088.5774279954 L 3431836.4103329917,260390.37163833715 L 3434760.66203664,252252.24899043943 L 3437163.2706064316,238653.30121166658 L 3435836.8988736295,227590.10766839352 L 3430771.0828060997,219061.92775049797 L 3429390.387161791,206053.03363410133 L 3431705.9438897823,188563.94085046844 L 3430042.71937784,174023.52517463962 L 3424433.218917276,162398.2836019742 L 3418704.1613236,155503.90792865856 L 3409931.294893164,152241.6316510173 L 3396146.7136677234,134506.51153088317 L 3391928.818161566,125927.44515111909 L 3392689.7982006287,120567.07882118753 L 3396353.322642636,118816.49426354904 L 3397462.1760904277,118283.73848636536 L 3406235.042520864,119088.38373801955 L 3414475.356507345,117044.20769900274 L 3422182.8954108893,112162.39391585089 L 3429662.229358308,110759.77682065479 L 3431271.129958743,111216.36717299541 L 3433619.3032975364,111553.49399236329 L 3445305.623441015,111553.49399236329 L 3465101.7911277637,111553.49399236329 L 3484887.049504415,111553.49399236329 L 3504683.2171911653,111553.49399236329 L 3524468.586887308,111553.49399236329 L 3544253.8452639594,111553.49399236329 L 3564050.012950709,111553.49399236329 L 3583835.3826468512,111553.49399236329 L 3603620.6410235036,111553.49399236329 L 3623416.808710252,111553.49399236329 L 3643202.0670869043,111553.49399236329 L 3662987.436783046,111553.49399236329 L 3682783.604469796,111553.49399236329 L 3702568.8628464476,111553.49399236329 L 3722354.2325425902,111553.49399236329 L 3742150.4002293395,111553.49399236329 L 3761935.6586059914,111553.49399236329 L 3774089.5206108005,111553.49399236329 L 3782568.948863506,111553.49399236329 L 3790602.6538750753,115761.25957676044 L 3799516.896058819,120740.99097804693 L 3823237.5210739938,133995.44187563471 L 3846968.9440797768,147239.67050853188 L 3870700.47840505,160495.33534680493 L 3894431.901410832,173740.77994787204 L 3918163.4357361053,186997.8876903803 L 3941884.0607512817,200255.80313048212 L 3965615.4837570637,213503.6681826056 L 3989347.018082337,226763.3702661714 L 4013067.643097512,240024.052069931 L 4036788.2681126883,253274.85307828954 L 4060530.6004285687,266526.85819197906 L 4084251.2254437436,279790.82169704186 L 4107982.759769017,293055.9945568558 L 4131714.182774799,306311.512372143 L 4155445.717100072,319579.27533822774 L 4179177.2514253464,332837.4960104704 L 4190493.9908593893,339173.23237226304 L 4192200.741292232,341916.71092696546 L 4194168.3132920037,354001.4842337907 L 4195407.633183004,361557.8133834307 L 4194722.795675645,368200.0814339489 L 4188439.367017818,379514.52416159766 L 4186580.331521571,385428.0794384807 L 4186526.0076100635,389533.98315467883 L 4188069.674988894,391145.8976886712 L 4193418.2425630377,391734.10269667726 L 4197973.213487318,394413.4108740616 L 4199658.256619454,396526.5253890425 L 4203136.990706746,405044.45062082645 L 4207572.404497912,409314.5588528329 L 4217595.500129447,416548.09349495533 L 4234684.711758577,428881.1678687188 L 4251774.034707197,441215.84362337796 L 4268863.357655818,453552.0555032014 L 4285952.569284947,465890.0730709604 L 4303041.892233567,478219.0027916783 L 4320131.103862696,490560.4345824736 L 4337220.426811316,502903.81138898106 L 4354309.749759938,515249.0680869917 L 4362626.094958629,521247.8978687653 L 4366148.2436473295,522938.5894906848 L 4363930.536751746,532330.6015253395 L 4355179.377622014,555122.8037831801 L 4354679.33046937,564617.0807119142 L 4351254.920293588,575793.5460861281 L 4347950.178570407,583183.6088585166 L 4339035.936386664,615274.7821784274 L 4331556.602439245,627289.7226840607 L 4321337.807142896,655446.1663268172 L 4319718.108551853,676989.9467899683 L 4325349.204993631,692078.5177748248 L 4327436.445446005,706230.2302783225 L 4339394.607786,720100.9620814106 L 4348961.182185792,725057.1500286184 L 4355429.401198335,731403.5403506231 L 4366887.5163856875,745893.4475749707 L 4373442.787240031,760430.9115103575 L 4394043.349567252,767569.7571043689 L 4402251.046942931,783876.5947365145 L 4399261.450698187,795104.9272415184 L 4389705.785608492,804407.0784925937 L 4380769.836124044,819487.009163048 L 4373573.25368324,839297.3305672224 L 4373410.1706292275,869603.9622873282 L 4378247.781740632,864995.9162945437 L 4389151.414544342,872423.9515104577 L 4390553.817489356,894759.1099866338 L 4379313.109267523,920773.9454960568 L 4375856.082480938,932935.5411120582 L 4375301.7114167875,943385.9341268296 L 4383465.882871566,974565.3652132396 L 4395826.242531798,990449.7032767042 L 4394902.179438722,995423.121471988 L 4391695.287547951,999593.7695716094 L 4412850.332258813,1027720.740092255 L 4411089.146594972,1052198.1104866066 L 4419014.203783527,1071266.1634736066 L 4422492.937870816,1087795.865561638 L 4427711.039001752,1100481.8905655066 L 4428711.133307039,1109232.3617967966 L 4422188.479063497,1118945.1368447877 L 4437614.577500176,1121373.8159217811 L 4446680.993427834,1129323.0595986547 L 4450953.3241649885,1136931.7063907767 L 4462096.071234923,1136600.45924647 L 4468129.5876359185,1141802.600320941 L 4476826.422854143,1146099.6043340543 L 4496057.310166644,1158872.2897245882 L 4501264.501987481,1165293.459476558 L 4503156.0427750405,1168996.4217571584 L 4504384.453355944,1171417.2819137352 L 4491458.813321465,1181290.8163522535 L 4471282.1556151835,1196686.953805724 L 4451518.604539237,1211791.2350899521 L 4432418.183669945,1222174.3957511827 L 4418764.180207205,1226979.6768744837 L 4404186.113651391,1229670.5400612806 L 4390347.208514444,1236027.3745750627 L 4377258.485425952,1246008.2639363403 L 4360495.328585356,1251038.5864528932 L 4340068.647302753,1251082.838905486 L 4318609.255104061,1258075.5882862404 L 4297301.925329793,1271289.53329375 L 4284887.241758055,1279007.4108607038 L 4265221.540514516,1267409.0332109053 L 4249795.553397329,1263728.5490891365 L 4232064.807542758,1264116.5343780774 L 4221259.024571454,1265546.6031306358 L 4217378.093163928,1268040.9168678788 L 4214008.006899653,1275126.0991897169 L 4211138.079107512,1286804.9478697556 L 4199506.082875541,1298021.9301702073 L 4179122.8161943476,1308754.5385053076 L 4160326.854132376,1312773.1873677091 L 4143128.7720412505,1310053.2593237432 L 4131496.7758092796,1305579.8602021758 L 4125409.046816268,1299331.460467067 L 4116472.986012329,1296468.3817846419 L 4104645.2901155436,1296956.6414082372 L 4093339.4599915966,1301395.6372022082 L 4082511.8584000985,1309797.9442017665 L 4065237.745096762,1313428.251589955 L 4041528.0293916836,1312306.965492379 L 4028798.0890220185,1308254.9573118975 L 4027036.9033581787,1301273.4692908349 L 4016655.136327307,1293095.3111956518 L 3997630.746670227,1283710.1487736176 L 3983617.960488661,1283510.4725800848 L 3974627.687092705,1292507.2447581536 L 3966419.9897170267,1298177.2664587314 L 3959005.888991213,1300485.5828054657 L 3952331.172323249,1300762.9829825591 L 3946428.1223654626,1299031.8000795578 L 3942742.8906227513,1298310.4449202102 L 3916511.00921477,1297356.1631214332 L 3891670.7327611963,1297733.418040124 L 3890909.7527221334,1293827.569049866 L 3889170.3856784888,1284708.4347815881 L 3884006.608459061,1276767.3014280114 L 3879549.487367189,1272043.4350107 L 3874016.1294383276,1270790.5372060658 L 3871004.825892879,1270879.209214941 L 3868591.41933248,1267220.5830422319 L 3865732.4008504367,1259128.5845963925 L 3861503.5960341822,1252235.2391011552 L 3855894.0955736185,1246528.8921735066 L 3852534.91861944,1241233.4786504898 L 3851393.4485608465,1236359.6861259777 L 3852284.895043118,1230999.326307788 L 3857481.288873349,1217690.9313892033 L 3859122.8060845863,1208581.6351937456 L 3858535.707090142,1199242.636279843 L 3855720.103209508,1189673.764372158 L 3849828.073881311,1178294.20141658 L 3850491.204087966,1175021.3742051779 L 3848490.9041579026,1167260.9669953403 L 3848284.406502481,1161834.0903302582 L 3849425.7652415843,1155059.8388333218 L 3848306.113803185,1146154.8076878 L 3843218.479115461,1127158.9826156192 L 3843218.479115461,1122301.131082026 L 3837848.2042406113,1113106.1117347197 L 3821356.7782770423,1091380.602571753 L 3820584.888927881,1088556.8792888669 L 3794722.699548825,1066680.1446362082 L 3784373.4378092648,1061896.2533767975 L 3780644.6801456534,1065996.663007452 L 3779253.1865107375,1069788.8694016894 L 3780340.3326578247,1076789.9827429308 L 3779709.8190619713,1080274.4216743177 L 3778622.6729148845,1081851.3822728805 L 3772491.418000972,1081619.7744341614 L 3768632.193894151,1080814.7477410596 L 3758837.4145382326,1074937.631611825 L 3751205.9068469,1073493.2755572358 L 3732268.56903162,1074551.7270274358 L 3725615.44834487,1075929.9594602177 L 3720397.347213935,1074606.8237570992 L 3710374.2515823995,1064574.7665877445 L 3698622.698217317,1062469.3905976377 L 3688066.938822335,1061951.3319686777 L 3670651.449765691,1050567.301193389 L 3666564.020702744,1051096.1530095555 L 3664628.953994284,1051966.6810383885 z" /><path fill-rule="evenodd" fill="currentColor"    d="M 4420644.811684667,890927.8851604025 L 4414622.31591326,892398.8703779271 L 4412274.142574467,890971.836427829 L 4408578.001521657,886284.7993963802 L 4415002.805932792,882289.6329595455 L 4421231.910679111,874530.7956147116 L 4435701.21809242,863152.7113331499 L 4440636.679036231,855649.4132711914 L 4442441.27930148,854047.9428460522 L 4441397.659075294,862911.4047456894 L 4433233.487620515,882300.6468138098 L 4426265.110135838,883562.7619260085 L 4420644.811684667,890927.8851604025 z" /></g></g>
</svg>
