<?xml version="1.0" encoding="UTF-8"?>
<svg xmlns="http://www.w3.org/2000/svg" viewBox="2463704.7138402406 -6864308.573211755 2003359.4349492956 1205852.3341922788">
  <g id="map"><g><path fill-rule="evenodd" fill="currentColor"    d="M 4254002.539593387,-5957014.653104235 L 4249991.141742652,-5955178.67950713 L 4211072.845885906,-5957733.289577844 L 4203551.65580995,-5956909.02917002 L 4179307.606549065,-5954252.828590281 L 4156652.420380271,-5928519.755087644 L 4143150.5906614466,-5928591.300147166 L 4124115.4030137598,-5921893.540513945 L 4111254.8848813944,-5913580.004898601 L 4095981.071508121,-5895581.492311362 L 4084164.284921434,-5903655.621465858 L 4069705.775498731,-5903425.511242888 L 4055595.1394847576,-5898531.088721139 L 4038614.575678642,-5886524.8833617335 L 4029167.669731452,-5884402.696265073 L 4010273.7465175823,-5887855.44486966 L 3988259.8719352493,-5880967.028837827 L 3940731.6813825886,-5841680.27540387 L 3924751.3232012517,-5813085.727527655 L 3918935.325085266,-5807503.453200184 L 3910912.418064304,-5800544.415892104 L 3902335.1399791916,-5797031.627262341 L 3897801.9876751075,-5797353.059719299 L 3920424.557233099,-5817634.293204912 L 3927371.227417071,-5825251.692797015 L 3928567.021387172,-5830876.629222935 L 3928686.5785202845,-5839954.951412808 L 3921826.960178112,-5851243.046694641 L 3903313.638303264,-5823277.88593503 L 3892790.384199595,-5819229.54878206 L 3879440.728224684,-5810832.101287483 L 3878788.507328126,-5792148.959140154 L 3880299.5580961537,-5778322.921428521 L 3885789.5014236053,-5760949.501293351 L 3896368.526592163,-5737726.116735356 L 3890218.5700037978,-5736977.052221463 L 3873887.778065443,-5746880.254334527 L 3873259.7134983866,-5763109.384333022 L 3861325.5961684035,-5776656.210685695 L 3843110.499209391,-5776656.210685695 L 3834945.1032402134,-5774848.878754586 L 3824267.3376833224,-5790223.9184591295 L 3809820.8507656264,-5796562.665081272 L 3799143.0852087354,-5794751.108581538 L 3787837.1437652973,-5797468.502097092 L 3763340.955857765,-5813790.576127971 L 3747010.1639194107,-5815606.037334046 L 3746382.099352355,-5803812.440898248 L 3739682.6697574346,-5795785.183417302 L 3729072.4751314553,-5792995.1274872115 L 3721397.552838712,-5789587.197204485 L 3702873.321653767,-5800513.095729845 L 3696057.1179130045,-5808555.25671704 L 3667064.067855387,-5800207.127668858 L 3650931.424610644,-5801446.32351286 L 3615296.163176373,-5793770.919716618 L 3598946.112966112,-5801265.934633294 L 3566202.4866246874,-5822271.504529222 L 3553896.4508759636,-5826502.299538504 L 3543438.5413133893,-5825605.562376675 L 3537731.191020418,-5832529.410407573 L 3544732.185115898,-5835993.454466917 L 3552863.7399598747,-5836402.9094470395 L 3561299.6422916795,-5838938.76088364 L 3563680.432241275,-5842610.118754238 L 3563169.475778534,-5849523.600909667 L 3546167.204671714,-5854769.567118943 L 3530349.818224898,-5856276.84002857 L 3520326.7225933624,-5862498.245180233 L 3512673.5076013245,-5869625.03386567 L 3530610.7511113174,-5869735.598581488 L 3548634.935143619,-5864346.58066693 L 3576856.095852076,-5862356.069180927 L 3602446.554354106,-5856789.882446368 L 3608860.4494551425,-5863714.518145972 L 3623732.0655081794,-5875729.2200377835 L 3626569.376689518,-5879558.424449394 L 3601642.1597136334,-5871332.5478588585 L 3576388.665310235,-5876575.671790171 L 3567159.1663285648,-5883911.711595179 L 3559364.57558322,-5894669.890529524 L 3556092.4504708424,-5906949.330616218 L 3558223.2168441163,-5918411.392098294 L 3555494.553485792,-5939133.571969764 L 3547167.298977001,-5957613.430955137 L 3544210.4306625496,-5967775.387334632 L 3535415.7456119177,-5976884.766858274 L 3544069.054909243,-5956288.228317077 L 3547297.7654202105,-5942607.999229886 L 3552504.9572410476,-5930023.791449913 L 3551276.5466601434,-5896754.943784035 L 3548069.6547693713,-5885091.548032064 L 3537687.776419009,-5882154.412742465 L 3524044.570946876,-5883903.928704106 L 3510140.5439078147,-5887522.745012613 L 3513619.277995105,-5905798.4070363585 L 3506216.086579388,-5899474.928972567 L 3495758.1770168147,-5881695.325946548 L 3486561.2946459465,-5879051.991534847 L 3466134.5020438535,-5880990.85598616 L 3428227.209802492,-5869253.527187984 L 3425618.21489677,-5856482.118060384 L 3419921.7739138966,-5839230.2644216195 L 3414421.0325958384,-5829200.631467142 L 3412692.4635428004,-5823160.012612648 L 3396527.203687255,-5797251.105602988 L 3394461.7818550766,-5794805.52211369 L 3363968.4790200377,-5759021.1467378335 L 3360087.5476125125,-5756336.28101798 L 3340323.996536565,-5748029.315226166 L 3328637.565073597,-5740758.422387017 L 3319679.7969689523,-5737518.311600648 L 3304525.652048283,-5741124.570182542 L 3298220.4047702607,-5735984.403563877 L 3295241.717835615,-5729617.976291902 L 3295187.3939241073,-5716479.015326829 L 3302884.1348370453,-5707044.974808877 L 3309189.2707955763,-5675731.675583156 L 3306841.097456783,-5662532.5420823125 L 3300840.308986081,-5671077.263021367 L 3291458.636260496,-5680086.637239079 L 3273206.135952577,-5687834.954879014 L 3253149.0353794075,-5685179.192073197 L 3231319.951151792,-5672128.589648989 L 3216502.770329753,-5667282.842020265 L 3208708.179584408,-5670628.970871876 L 3203968.418305412,-5670435.699281731 L 3202283.4864927647,-5666695.661242036 L 3202642.157892101,-5663636.961471936 L 3205044.655142401,-5661266.177623972 L 3204696.7817336726,-5659536.917093075 L 3201631.1542767165,-5658456.239019476 L 3167180.888821941,-5667638.238755252 L 3152309.272768904,-5676334.812154482 L 3140601.1340052304,-5692714.839217314 L 3146428.041431314,-5698024.006955692 L 3151493.9688183344,-5700357.843927195 L 3169420.303018229,-5701722.826116387 L 3172496.728465792,-5703398.287498004 L 3172801.187273111,-5707184.680994568 L 3174138.35699652,-5712090.722721927 L 3173660.0171445813,-5719315.023781092 L 3171670.626524615,-5726949.6088583 L 3179541.2484821714,-5738110.162314958 L 3191260.185236452,-5747374.538289806 L 3198130.712888722,-5756664.073451325 L 3199185.2424250063,-5770284.458232597 L 3211512.9854744356,-5776930.449903143 L 3222449.234888948,-5788357.519465318 L 3225134.3723263727,-5800826.7842065375 L 3228960.9798223916,-5808673.096084306 L 3222003.5116478116,-5826691.097921861 L 3220535.8754811934,-5838592.260089687 L 3220188.0020724647,-5848577.362521489 L 3223634.1195489517,-5854130.435953766 L 3233820.2982344995,-5860358.084506448 L 3244550.049993591,-5865191.774444984 L 3248996.261775365,-5864717.879945303 L 3250616.0716858977,-5861645.223670607 L 3251040.087626329,-5841349.480107938 L 3253181.6519902106,-5840963.3528213985 L 3256606.0621659933,-5843492.7699953625 L 3262204.6533164587,-5855440.421980858 L 3266063.8774232804,-5851960.806711794 L 3271999.4326723777,-5850643.5850436045 L 3276445.7557736426,-5853720.1559888255 L 3279337.3908664887,-5853365.155639546 L 3282924.8840962835,-5850280.794077427 L 3290056.2333154827,-5845936.217546734 L 3296720.15199284,-5844493.666971574 L 3302242.711931094,-5847386.755074657 L 3306949.8565992876,-5852552.441354696 L 3311972.258065408,-5850785.571866049 L 3321538.8324652007,-5836702.0703439815 L 3326006.7515476793,-5838261.419391904 L 3348009.828139405,-5841105.183652794 L 3351553.7954483,-5844934.995205965 L 3354173.6996641196,-5848411.833743654 L 3331159.6194570092,-5867127.580915499 L 3332322.9081357988,-5881077.898567713 L 3333181.6266877777,-5897103.745880708 L 3330463.8726395513,-5906631.836156235 L 3325985.0442469744,-5914191.754883818 L 3308384.8761551036,-5922982.902448417 L 3294806.9039045754,-5932093.32432233 L 3291936.9761124346,-5936202.218123041 L 3291567.2840835103,-5941540.178318985 L 3290991.205718655,-5949832.364463736 L 3285599.1122236107,-5956958.734391236 L 3285142.5909918672,-5962996.431936966 L 3288577.799158257,-5972412.828739268 L 3289414.8104095315,-5982455.830463157 L 3288284.249661035,-5986420.241184118 L 3285109.974381065,-5989657.244411531 L 3278989.5174577595,-5989969.735634005 L 3270944.9031360927,-5995781.759395367 L 3265422.4545173296,-6003620.201083861 L 3250594.3643851937,-6014929.045582528 L 3246050.302771012,-6016769.795210687 L 3243278.1134917866,-6022374.622599727 L 3241951.8530784757,-6029077.909318114 L 3245061.0064563323,-6037405.829888452 L 3248974.55447466,-6050243.819989042 L 3251724.9251336893,-6062308.795318415 L 3251768.4510545894,-6069504.146987517 L 3249952.9414792424,-6087316.288293049 L 3242223.695274993,-6100959.409262255 L 3238614.494744493,-6102769.731858729 L 3232374.4806880765,-6098930.233262682 L 3225297.455380385,-6095716.980607474 L 3219709.7735400167,-6098727.292166392 L 3213328.3837302923,-6106131.845791399 L 3203087.8811332374,-6126771.792428712 L 3183922.2270423407,-6130909.056148965 L 3175997.281173277,-6131894.755248862 L 3168496.2399251536,-6121928.5375963915 L 3166148.066586361,-6124956.230488891 L 3164039.118833282,-6131324.477447405 L 3160082.0448940536,-6133866.49394256 L 3154853.0344530214,-6130917.230911853 L 3153341.983684993,-6133752.509205789 L 3155592.307191379,-6142370.063000251 L 3149341.495144355,-6146637.220350269 L 3134622.052835233,-6146539.277606488 L 3126794.9567985763,-6149722.656836222 L 3125859.9843954034,-6156207.424584434 L 3121228.9822589126,-6160473.294730536 L 3112869.1111393194,-6162525.313220309 L 3104770.172906146,-6167833.280671613 L 3096910.4602586864,-6176387.1770953685 L 3085158.795574113,-6181966.096824196 L 3069493.5828712117,-6184547.910072767 L 3068210.848378801,-6185474.169489541 L 3066765.0308323773,-6186703.965102791 L 3056654.883359041,-6180884.321159257 L 3050578.063676127,-6176280.6742362585 L 3043131.346339511,-6179147.490772928 L 3031064.536176502,-6168872.513773454 L 3006572.021812166,-6168340.649225258 L 2994559.535560664,-6168954.290469175 L 2988602.161691371,-6171507.525222938 L 2965599.102113849,-6155929.66793736 L 2963207.4028541553,-6150196.177733397 L 2958032.827644121,-6148294.060112258 L 2943552.6109207137,-6145200.9506014865 L 2928333.121458948,-6140820.430671488 L 2925137.027558782,-6125713.3209017245 L 2920603.763935208,-6117567.899457451 L 2912417.8851797245,-6105612.016672486 L 2884142.28924027,-6101462.663253585 L 2859715.1194170294,-6095627.759203998 L 2834668.233988543,-6092026.44697599 L 2801870.2837356115,-6077474.610819104 L 2791205.765198125,-6064652.664037016 L 2780660.9151132414,-6061080.505134169 L 2771116.0480141537,-6060030.093443184 L 2764941.3784988327,-6067158.958313184 L 2744134.2071966985,-6086335.696459662 L 2736111.3001757367,-6095392.49826978 L 2725555.540780755,-6098061.825275699 L 2714075.7182926987,-6096552.583192693 L 2703052.5283558764,-6092091.383479501 L 2691453.037415217,-6091239.940459661 L 2678320.8997253166,-6097672.275175407 L 2676940.2040810077,-6097047.602656331 L 2671874.276693987,-6096179.384959752 L 2639272.0261058705,-6103963.410127039 L 2636271.6318705194,-6105254.725184789 L 2634825.814324096,-6105579.58037896 L 2630336.0766214216,-6106164.450522963 L 2605789.238345579,-6105189.689088385 L 2582905.7359011685,-6120927.653979503 L 2575872.1251948867,-6121407.750232751 L 2570458.3243991374,-6115030.712998503 L 2566446.9265484014,-6107943.4259844 L 2550651.3587217806,-6100910.698102485 L 2546618.14225085,-6098086.255840823 L 2544324.4041430545,-6100253.207605453 L 2543258.9652966717,-6106367.401126746 L 2544454.8705862644,-6111770.812537175 L 2542117.495238078,-6116892.975209406 L 2536105.9087767685,-6122709.8613193 L 2534649.181920248,-6125110.944253594 L 2527126.43337142,-6124679.486541627 L 2525071.6982103577,-6124109.688899941 L 2524321.6274813926,-6124240.048856096 L 2513863.717918819,-6129182.187312571 L 2506927.9570449437,-6141089.512362466 L 2496209.11459595,-6147428.993244633 L 2488012.326530369,-6149559.472096057 L 2484283.568866757,-6154671.509960645 L 2481881.0716164573,-6161478.815934121 L 2479326.4006222426,-6166622.621441514 L 2479022.0531344134,-6167105.289651545 L 2477271.776780671,-6174896.761176327 L 2474760.5203878656,-6175699.20885408 L 2474314.7971467287,-6175912.201378182 L 2463704.7138402406,-6174552.830231072 L 2464933.1244211444,-6201960.533705102 L 2481891.9809265547,-6221722.164462487 L 2486055.5525212046,-6231714.9527962925 L 2492382.507099931,-6253421.81574501 L 2497122.268378927,-6263592.88430518 L 2502818.709361801,-6272020.086461482 L 2507373.68028608,-6280190.31833582 L 2508993.4901966127,-6287206.9275394725 L 2513591.875722301,-6287970.275328947 L 2527093.816760618,-6281641.265422829 L 2539171.5362337246,-6278383.308057456 L 2542508.894567707,-6281467.206536256 L 2543878.680901918,-6285514.451709797 L 2543324.1985182767,-6288659.080921242 L 2533648.9762954703,-6298008.466792524 L 2527582.954603163,-6303959.003031065 L 2527213.3738937294,-6307626.288532909 L 2529398.4641785105,-6315847.800869098 L 2530561.6415378097,-6325094.10458838 L 2529170.147902894,-6335110.009915249 L 2522571.462447141,-6357335.741171075 L 2521321.2332460415,-6366820.6542024845 L 2527637.27851467,-6378354.054057934 L 2548183.6282498757,-6405894.163079078 L 2555032.33728195,-6416259.788175158 L 2564392.30270683,-6428815.201513833 L 2589787.061544046,-6458902.0963235665 L 2605832.764266479,-6476451.422302533 L 2616692.8711492894,-6486174.59345595 L 2632597.1981184147,-6503109.151124937 L 2639576.48491319,-6511883.457314235 L 2668623.8588823145,-6517596.034104747 L 2672222.150102716,-6525805.018794317 L 2677527.303075451,-6534800.00210481 L 2681679.9653600035,-6538655.641731332 L 2682212.74044294,-6553830.2460698895 L 2676820.6469478956,-6572406.484228165 L 2672483.0829891358,-6578977.253271429 L 2669265.2817882653,-6583455.408608557 L 2671341.6129305414,-6587643.38503354 L 2674559.525450903,-6588839.107922602 L 2678527.397380738,-6589432.717533288 L 2683441.151023844,-6593916.567025557 L 2682332.297576052,-6598816.168830336 L 2670080.585738835,-6610763.236226808 L 2664775.5440855906,-6619972.295723956 L 2656470.1081969957,-6643651.199264862 L 2639630.808824697,-6668328.073683737 L 2634314.8578613554,-6676323.91982657 L 2633553.877822292,-6683883.57489985 L 2636010.8103035907,-6691450.412688685 L 2633695.2535755998,-6701099.778783658 L 2627726.9703962095,-6713424.2088138275 L 2628672.8521094797,-6714760.8253242 L 2628096.662425134,-6730002.593027016 L 2632336.376551486,-6733294.242291792 L 2639032.9118396463,-6735527.563105888 L 2648479.817786836,-6734774.206154534 L 2656557.048719305,-6732418.801465822 L 2666232.2709421115,-6725443.745371691 L 2669254.3724781675,-6726563.552723408 L 2685789.2130431463,-6739715.167694477 L 2702845.9193809642,-6759491.652616824 L 2707705.237793072,-6770963.722378135 L 2711955.8612295226,-6776208.348785794 L 2726794.860671757,-6779008.216987725 L 2739720.5007062363,-6780170.604982072 L 2747938.996072522,-6779950.378725894 L 2768115.653778803,-6781905.7498415895 L 2780073.8161187978,-6784073.083072734 L 2790412.16854826,-6787571.954669794 L 2812730.5019379123,-6788876.5892935 L 2847582.9647129243,-6786531.7917941725 L 2870455.6691667275,-6786364.280650151 L 2885990.4154264196,-6784504.742451959 L 2924039.0834210883,-6773955.164268073 L 2938204.0433465694,-6772045.855115165 L 2944781.021501617,-6766460.8906250615 L 2957413.2233583652,-6764386.106395302 L 2980405.4849452805,-6758771.3298876975 L 3000375.5336766494,-6755767.855531531 L 3013877.363395475,-6756997.2410099795 L 3021432.7285551047,-6755416.662406113 L 3035695.538312993,-6730554.006959237 L 3038608.9920260347,-6727657.170892557 L 3044327.1403096127,-6727071.010553348 L 3055980.955161779,-6729214.974861205 L 3072570.1196382646,-6728409.689904967 L 3082408.4249150837,-6723178.263913618 L 3080962.6073686606,-6708420.508306851 L 3083549.894973678,-6706282.188587992 L 3088148.3918188573,-6707102.449073626 L 3093442.524162004,-6715433.420833136 L 3097888.8472632687,-6724079.042864541 L 3101204.4982965463,-6726755.995930653 L 3118141.5361817614,-6720913.591724864 L 3125881.6916961083,-6721857.815055718 L 3133024.0615448956,-6728418.471795009 L 3137405.040105065,-6729529.905431749 L 3149406.72836596,-6724866.343313253 L 3164212.999877901,-6721604.244613814 L 3176171.162217896,-6721394.374486077 L 3183628.677545119,-6717845.308547043 L 3189053.3876509657,-6702451.704970454 L 3193782.239619864,-6699294.46362876 L 3198348.119854241,-6698317.852525736 L 3205251.2641173135,-6712070.461812548 L 3211512.9854744356,-6717408.406291046 L 3220198.9113825625,-6721341.907799312 L 3225786.5932229306,-6723064.531760671 L 3229721.9598614546,-6727928.492660754 L 3235027.0015146984,-6732681.316232732 L 3239625.498359878,-6733057.8890903145 L 3243365.165333587,-6731219.302829605 L 3247659.203371447,-6724647.611249999 L 3253920.924728568,-6709686.389038071 L 3261530.6137997056,-6694682.972451684 L 3266835.6554529504,-6689246.617743615 L 3280544.094146688,-6693846.4705395335 L 3289838.8263499634,-6698527.129245344 L 3306862.9160769787,-6699416.615208053 L 3329431.1617234615,-6702713.434334422 L 3346683.5677260943,-6707006.458781898 L 3357478.4413872994,-6706264.672484869 L 3364022.8029315453,-6701500.974506746 L 3373980.665341476,-6692286.669020645 L 3376698.4193897024,-6679080.723912516 L 3389624.170743673,-6669961.244888333 L 3400201.637439359,-6668310.638818966 L 3403810.8379698587,-6677802.1265531 L 3409996.528114768,-6684405.852266065 L 3407680.9713867777,-6693489.194171765 L 3406637.3511605905,-6705077.776071198 L 3402006.237704609,-6715852.859392375 L 3398918.9029469485,-6727464.706376997 L 3404582.7273190194,-6744080.545407579 L 3410768.3061444387,-6758657.098762264 L 3413866.550212197,-6766583.874791702 L 3423661.329568115,-6781192.273343729 L 3433727.951120551,-6791645.436224131 L 3448751.740917502,-6808481.692533657 L 3459731.516252915,-6814051.521293986 L 3469656.7620520433,-6811513.6429128675 L 3475168.4126802,-6809215.317391819 L 3489420.31312799,-6819200.352424306 L 3514771.5460443054,-6819695.877097487 L 3535883.176153759,-6818421.602725448 L 3538003.033216935,-6818120.779320292 L 3548374.0022571995,-6812954.887701772 L 3559310.2516717124,-6808561.332772675 L 3566854.8188407356,-6808269.744717721 L 3575834.294246085,-6809277.225124417 L 3586357.4370302637,-6815139.427350026 L 3593706.304534472,-6820766.959428551 L 3602631.344708823,-6849478.40418261 L 3605784.0240075793,-6853609.973222857 L 3610697.6663311943,-6855867.809001295 L 3618763.9879535665,-6856107.774224691 L 3634070.4179376406,-6850748.856885281 L 3651996.7521375353,-6845935.0025776215 L 3662378.630487898,-6846609.842186856 L 3690067.2387523996,-6861915.1810627235 L 3705504.0238601943,-6864308.573211755 L 3723843.464690422,-6860705.270658457 L 3741824.2341213156,-6860491.7652006615 L 3755391.2970617455,-6862706.886194038 L 3764696.9385751183,-6857396.935794638 L 3776187.5590537814,-6845721.887921155 L 3786569.4374041436,-6828373.751614473 L 3797451.36290715,-6796444.761398691 L 3829151.369022387,-6760519.536439868 L 3829694.8307764395,-6753520.338073998 L 3827085.8358707177,-6749027.167831702 L 3811485.8563894206,-6744667.932876375 L 3798342.809389422,-6742318.278568033 L 3797712.295793569,-6736184.475564828 L 3801201.8278714656,-6729547.47163917 L 3807224.4349623634,-6719847.017865594 L 3808159.296046045,-6707373.087006245 L 3807854.948558217,-6695911.913060812 L 3810453.1454733317,-6685798.517519153 L 3815475.5469394512,-6681690.731009356 L 3816106.060535305,-6676610.813494828 L 3810290.062419319,-6670413.053414575 L 3808670.2525087865,-6666590.818744659 L 3810931.4853252703,-6664532.7755680345 L 3839522.3380626515,-6663334.68233804 L 3853524.21493412,-6657303.140426231 L 3864156.116860804,-6651813.639047135 L 3869504.6844349485,-6651302.138529038 L 3881549.787297253,-6654831.094867316 L 3895095.031617488,-6657060.272753268 L 3903313.638303264,-6657355.197127347 L 3906487.913583235,-6653313.526465239 L 3909020.8772767447,-6642698.592963034 L 3913782.345856446,-6632088.538156085 L 3918228.6689577107,-6629062.093038577 L 3926142.8168361676,-6629572.207193913 L 3930904.2854158683,-6629062.093038577 L 3933448.158419476,-6625034.527126327 L 3930589.028617941,-6618979.287201727 L 3931219.5422137943,-6612436.746314276 L 3934709.1856111824,-6604382.3976573255 L 3938840.1405950296,-6585802.836365002 L 3942645.0407903437,-6580283.482358242 L 3945178.0044838535,-6573265.155396832 L 3945178.0044838535,-6565248.863550304 L 3942003.6178843924,-6558251.748377848 L 3939785.9109888095,-6552759.403860805 L 3942003.6178843924,-6540271.826713983 L 3950559.188668801,-6526308.777270555 L 3956907.850548232,-6522825.934789498 L 3961984.575925859,-6510383.457105783 L 3971181.458296727,-6506413.27618498 L 3984813.7544587622,-6516845.482339218 L 3995282.5733314343,-6522322.388364956 L 4008371.2964199255,-6519276.419901012 L 4020459.92520313,-6517331.577799827 L 4028591.4800471067,-6510221.499865624 L 4034592.2685178085,-6500444.661266137 L 4041571.5553125837,-6494990.559572237 L 4048561.640097966,-6497840.450348838 L 4063139.7066537812,-6494990.559572237 L 4069803.6253311383,-6487049.76442565 L 4076456.746017889,-6482589.774865058 L 4085023.114792904,-6489029.985839043 L 4092002.2902681883,-6496972.677974984 L 4117538.4248587117,-6505289.080471557 L 4133431.842517739,-6507375.897334252 L 4137867.2563089062,-6509011.632889952 L 4147194.605122984,-6514960.931491079 L 4157022.0010897056,-6518918.092988797 L 4165892.8286720393,-6517843.380013649 L 4174633.0784916733,-6505493.500058974 L 4183645.1705078245,-6496972.677974984 L 4186178.1342013343,-6483583.382616876 L 4197212.233448255,-6465188.396833695 L 4224607.2922155345,-6440079.775956217 L 4235358.751275331,-6432436.21794637 L 4242664.092858639,-6433786.982556905 L 4246479.79104456,-6435788.287168226 L 4248251.774699007,-6438406.861851374 L 4249904.201220343,-6450674.276661575 L 4253372.025997535,-6455193.447502143 L 4258927.202546592,-6455345.839404949 L 4280364.887444579,-6440054.337117682 L 4291583.777046216,-6438415.339778897 L 4302248.295583702,-6438119.655525555 L 4316598.045863899,-6426267.18930775 L 4332371.906389816,-6415973.34354796 L 4344547.475695331,-6414886.496381142 L 4354255.314528939,-6418914.355079322 L 4360919.344525787,-6421367.4000866255 L 4365039.390199537,-6417439.491457104 L 4368844.290394851,-6408595.949712204 L 4375182.154283676,-6401721.159701012 L 4382476.586556886,-6399761.588959363 L 4392978.022040361,-6399307.458517565 L 4411208.815047575,-6385998.80620333 L 4428352.350588212,-6372484.6909975335 L 4439071.193037205,-6371738.865477593 L 4448159.427585058,-6375703.91720631 L 4456193.132596628,-6376727.117592392 L 4461759.107136291,-6373314.532096874 L 4463346.300436022,-6367448.868609234 L 4459215.345452175,-6359628.535479763 L 4459215.345452175,-6348404.976511685 L 4466825.034523311,-6337680.512680122 L 4467064.148789536,-6327153.083690056 L 4464889.9678148525,-6317654.500462466 L 4460574.222476288,-6308915.51394405 L 4450148.818205026,-6296920.289983378 L 4440506.212593021,-6285738.373921104 L 4426004.288568908,-6281069.177060223 L 4417883.53171554,-6276203.662102286 L 4420014.298088813,-6268004.051156684 L 4425319.339742058,-6260358.304188499 L 4437614.577500176,-6254182.28824616 L 4451572.928450744,-6249687.301146571 L 4453181.829051179,-6244724.146937604 L 4451051.173997396,-6242239.60293221 L 4442104.31520285,-6239937.270035543 L 4429722.136922423,-6242297.410131765 L 4425601.979929183,-6237965.497827688 L 4419894.740955702,-6230750.557966238 L 4416089.8407603875,-6217779.272548642 L 4413230.822278344,-6205780.973004515 L 4426667.418775565,-6202527.307483257 L 4434483.716821615,-6197632.663480543 L 4436918.830682717,-6187794.709295395 L 4439712.615943156,-6176862.179271157 L 4440517.121903119,-6167031.572504485 L 4436070.798801854,-6162255.555809956 L 4435799.067924827,-6157375.77461785 L 4437897.2176872995,-6154973.819042436 L 4443669.689882384,-6153887.4299438745 L 4448094.194363454,-6151706.704114529 L 4448442.067772184,-6146531.087905701 L 4439984.458139673,-6134909.61656719 L 4432070.310261216,-6112730.007001862 L 4427819.686824766,-6100943.116761682 L 4428145.85293279,-6088167.342766838 L 4423384.384353089,-6081077.794216365 L 4414763.580347077,-6080478.540983303 L 4384987.842949692,-6079239.5311074825 L 4359103.83495044,-6079846.824323688 L 4347895.854658901,-6081685.2171983 L 4330360.808469144,-6082786.88206209 L 4321674.882561018,-6079782.1460544085 L 4310173.241452766,-6059424.19582023 L 4301454.698933836,-6051454.368513232 L 4287018.00813133,-6044265.962431364 L 4271200.621684513,-6042209.810735934 L 4262134.094437364,-6033828.927983837 L 4258948.909847296,-6020701.671055251 L 4258698.886270975,-6009080.159786813 L 4257220.452113749,-6003283.218406042 L 4253785.132627868,-5998203.928441582 L 4252556.722046965,-5994595.067876885 L 4253295.994785323,-5990610.837402219 L 4256970.428537427,-5989160.301499712 L 4261394.933018497,-5987349.52337322 L 4261394.933018497,-5984457.820309366 L 4259677.273275557,-5980838.601610619 L 4254763.51963245,-5976868.706690318 L 4252556.722046965,-5970725.411233637 L 4253056.769199608,-5964234.944112489 L 4254002.539593387,-5957014.653104235 z" /><path fill-rule="evenodd" fill="currentColor"    d="M 3563582.582408868,-5813085.727527655 L 3578932.5383138433,-5805172.666532673 L 3563267.325610941,-5807283.720352949 L 3528849.565447477,-5814719.415033248 L 3513673.6019066116,-5821752.739601358 L 3509760.053888283,-5829617.6673014965 L 3507542.3469926994,-5840348.940274771 L 3516010.865935307,-5829066.887673902 L 3521979.1491146977,-5824135.0913337795 L 3563582.582408868,-5813085.727527655 z" /></g></g>
</svg>
