<?xml version="1.0" encoding="UTF-8"?>
<svg xmlns="http://www.w3.org/2000/svg" viewBox="3290817.2133545456 -470217.5559577723 602940.7598590245 633866.477173038">
  <g id="map"><path fill-rule="evenodd" fill="currentColor"    d="M 3774089.5206108005,111553.49399236329 L 3761935.6586059914,111553.49399236329 L 3742150.4002293395,111553.49399236329 L 3722354.2325425902,111553.49399236329 L 3702568.8628464476,111553.49399236329 L 3682783.604469796,111553.49399236329 L 3662987.436783046,111553.49399236329 L 3643202.0670869043,111553.49399236329 L 3623416.808710252,111553.49399236329 L 3603620.6410235036,111553.49399236329 L 3583835.3826468512,111553.49399236329 L 3564050.012950709,111553.49399236329 L 3544253.8452639594,111553.49399236329 L 3524468.586887308,111553.49399236329 L 3504683.2171911653,111553.49399236329 L 3484887.049504415,111553.49399236329 L 3465101.7911277637,111553.49399236329 L 3445305.623441015,111553.49399236329 L 3433619.3032975364,111553.49399236329 L 3431271.129958743,111216.36717299541 L 3429662.229358308,110759.77682065479 L 3422182.8954108893,112162.39391585089 L 3414475.356507345,117044.20769900274 L 3406235.042520864,119088.38373801955 L 3397462.1760904277,118283.73848636536 L 3396353.322642636,118816.49426354904 L 3391896.201550764,118675.20534673278 L 3385482.306449728,118348.98293211381 L 3379688.015634447,119631.94065844773 L 3375263.5111533776,123915.9614727603 L 3370741.156839901,131233.67634329552 L 3362631.3092966294,139627.94534821835 L 3356282.6474171984,147076.5440456128 L 3350890.553922154,152372.13529404948 L 3338530.1942619225,161093.42234073958 L 3331801.0423629605,163648.92121526564 L 3328452.7747188793,163246.591825265 L 3326409.060187406,161626.25657495996 L 3322538.9267704873,150480.06138580045 L 3320147.338830285,148685.87712130282 L 3296133.1643178873,154427.3534159254 L 3292491.347176585,154514.43078913755 L 3292828.3112752168,151045.4996866291 L 3291056.43894026,124840.2002721642 L 3290817.2133545456,108802.7129426664 L 3293948.0740331057,98756.46792734788 L 3295774.3815990607,87177.56411968452 L 3295970.081263875,76958.03313087267 L 3300383.7877543373,59585.06941536281 L 3298753.068533707,49170.19479914974 L 3304449.50951658,12643.008127003512 L 3305949.7622940014,6701.991176519729 L 3308156.559879487,-10947.1640994516 L 3311722.234489086,-16388.139508337736 L 3314853.095167647,-18518.80254939087 L 3318951.433540692,-29346.481665860094 L 3326832.9648083467,-46637.15964741858 L 3332290.291524996,-55551.68858963115 L 3331105.2955455016,-75022.82907367374 L 3331975.03472707,-88264.8130901023 L 3333225.152608678,-91200.26461314785 L 3344857.148840649,-96130.80263961523 L 3359946.1718592043,-108373.18010425307 L 3366316.652358832,-122768.82229303246 L 3375328.744374982,-131956.7389895202 L 3392776.7387229386,-137915.33497378434 L 3392809.355333741,-137942.50328095956 L 3444512.0267911493,-187356.7135499635 L 3468580.5252150535,-213998.53845152646 L 3479038.4347776277,-227649.92430599552 L 3479408.1268065525,-232539.6962738509 L 3481408.315417126,-238979.69598517145 L 3477212.127211673,-244000.23935772254 L 3472211.433046258,-248558.60646050904 L 3470537.299224218,-252768.95345815225 L 3466221.5538856536,-254863.3058096744 L 3460046.773050841,-254776.29589228547 L 3455948.4346777964,-257833.48082141532 L 3451306.411911717,-263833.9402623704 L 3446664.500465128,-267609.3866720303 L 3431988.584076906,-267293.8526691878 L 3420693.5519435667,-273414.349440043 L 3420834.927696874,-281760.3004894553 L 3425248.5228678463,-298219.85954680166 L 3433836.7102630557,-317059.42931480956 L 3434293.2314947997,-322256.88928096014 L 3433086.5282146,-326698.0440511732 L 3431021.106382422,-330497.07119633607 L 3427140.063655405,-334263.5540761849 L 3423520.0651342985,-338770.46691770514 L 3426335.6690149326,-352324.783357893 L 3431738.560500584,-365619.3274910207 L 3436163.0649816543,-372256.3746559274 L 3440489.719630316,-379705.10622472514 L 3439250.5110588055,-385809.2650811501 L 3432934.3544706856,-388826.12264310394 L 3436228.298203259,-394783.81064024486 L 3443044.501944022,-404815.6740620248 L 3456252.782165625,-414957.52703615825 L 3467863.0710968915,-421717.55787353386 L 3475614.1359213362,-421755.6008333854 L 3490692.249629794,-416362.9090886161 L 3504335.3437824366,-409989.98911553563 L 3511814.677729855,-409668.61536639364 L 3520913.710268315,-412332.11123454577 L 3539742.4002605802,-423618.7201605375 L 3544264.754574057,-420028.8448429615 L 3549787.2031928203,-413181.8079392404 L 3555744.5770621137,-401858.2455571694 L 3567593.980259604,-396684.4586295603 L 3573290.4212424774,-393117.30097337544 L 3577356.254324211,-392060.88469416753 L 3579617.3758212035,-392986.5867203657 L 3584118.0228339755,-401885.4614468704 L 3589553.5309304297,-406738.2610992548 L 3599598.33386267,-412860.42383017973 L 3621753.5841983096,-417740.97953065723 L 3637581.7686357326,-419217.2422242988 L 3644278.3039238933,-420279.4110915221 L 3655519.012145725,-423155.61450087297 L 3673238.8486901997,-432269.75899886846 L 3690697.752348253,-420502.7569756883 L 3709645.8881541397,-418231.2796658514 L 3728017.9455951704,-418312.9408154126 L 3733605.73875503,-421886.35270407324 L 3736823.5399559,-424631.9598371833 L 3756097.953189301,-443994.59881581616 L 3782199.256834581,-470217.5559577723 L 3799560.3106602277,-433272.1563696932 L 3805539.3918302255,-431109.27197256085 L 3804702.380578951,-427884.1723766945 L 3803234.7444123323,-424773.5375604417 L 3814595.0097672776,-415867.15207729384 L 3828596.8866387457,-411220.9460906078 L 3833586.671494063,-406656.609519741 L 3834043.304045297,-401711.23526289884 L 3829325.2500670063,-380124.29874198494 L 3830194.989248574,-373971.51027039555 L 3834717.3435620503,-352335.70931705745 L 3843033.6887607435,-347485.35346622515 L 3850447.678167066,-325723.83891092683 L 3865373.61813161,-316493.4516057271 L 3867515.182495491,-313837.69178927224 L 3870961.4112914694,-303285.84792238736 L 3875527.1802063556,-291739.1495706759 L 3879114.67343615,-289056.68879749184 L 3881288.8544108337,-288381.95857393375 L 3885691.6515911985,-276123.7063647526 L 3883158.6878976882,-269241.550249097 L 3886604.8053741753,-248324.76956520716 L 3892181.6892239377,-229635.1351624303 L 3893681.8306818674,-207303.807907104 L 3893757.97321357,-197471.46302032005 L 3893562.273548755,-191456.9705918377 L 3892312.0443476564,-182962.9748007061 L 3889637.816220329,-178052.8212764806 L 3884865.4383305307,-173289.4350842622 L 3879593.013288089,-165774.941670698 L 3874983.607132812,-157722.28343242503 L 3872091.9720399654,-153764.02966339665 L 3874342.295546352,-141704.8928299759 L 3873766.1058620056,-138551.4525940253 L 3872537.6952811023,-137012.88094323844 L 3865765.017461239,-135180.70168942938 L 3857122.506154522,-131956.7389895202 L 3851871.788412785,-128743.61018977105 L 3844446.8896963643,-122632.87604247019 L 3838489.5158270714,-116016.77998097811 L 3830597.1865688097,-96549.41167402905 L 3817432.3209486157,-81404.58763110716 L 3815203.8160624257,-76414.42076732777 L 3802778.2231805893,-67369.13681652756 L 3797299.189163235,-56231.20885100291 L 3793831.253066552,-42576.79317280669 L 3789004.5512652467,-32787.18534396664 L 3778535.7323925756,-19345.01945032043 L 3776122.3258321765,1891.5408152866441 L 3776448.491940201,44289.0379646727 L 3773730.7378919735,92581.10355505891 L 3774089.5206108005,111553.49399236329 z" /></g>
</svg>
