<?xml version="1.0" encoding="UTF-8"?>
<svg xmlns="http://www.w3.org/2000/svg" viewBox="-6505303.431108579 3516548.5911918185 591390.249494316 638205.8522503902">
  <g id="map"><path fill-rule="evenodd" fill="currentColor"    d="M -5941188.571928941,3994236.4847232327 L -5946640.443990542,3999192.2397882966 L -5952527.12998318,4008586.7479417757 L -5959435.617581811,4031149.404627963 L -5982634.488143638,4062354.8000820316 L -5987352.542121929,4079991.630688945 L -6012393.972895367,4098434.482138926 L -6030015.959607433,4119220.5554636833 L -6041544.651351948,4118705.1410341877 L -6051921.075047261,4127617.244072805 L -6111695.52278209,4154754.4434422087 L -6133160.36963583,4149637.0821957216 L -6149053.898614349,4149729.9166140114 L -6163827.553515487,4137767.699407278 L -6197506.152260084,4133439.1250270703 L -6218633.923695703,4138217.9630613723 L -6247018.278777663,4151373.5124077066 L -6255557.485596924,4151174.6500832816 L -6261715.90246659,4150472.212593807 L -6277065.858371565,4145012.354878288 L -6285441.982136814,4133399.4161195187 L -6329089.241281949,4120026.8854892044 L -6364213.546253478,4089703.707357366 L -6405708.331724633,4089123.6330437628 L -6437506.187672278,4093079.179176165 L -6442419.829995893,4089070.8514073743 L -6445637.631196762,4081308.9702333882 L -6452214.609351812,4070090.6009264765 L -6479577.051508289,4043458.4950935557 L -6501079.969627881,4017045.8110541357 L -6505303.431108579,3991151.5829235925 L -6502319.2895188825,3963046.6473839725 L -6495867.323151995,3929873.5383174405 L -6496997.883900492,3919529.505712074 L -6489056.57406628,3913633.917956278 L -6481196.861418822,3912452.658868908 L -6473625.132294046,3903888.051287861 L -6466847.111138624,3890975.402008078 L -6465694.731769932,3881196.537707592 L -6470956.358821767,3863124.065720897 L -6474587.266652972,3837904.969009826 L -6478924.830611731,3825386.459951175 L -6470227.995393506,3805636.2785203145 L -6469858.414684073,3796030.569885475 L -6474875.361495145,3787601.3054331574 L -6476234.238519258,3778947.0344709866 L -6473935.0457564145,3770080.9768907065 L -6474386.112333108,3761541.6914499956 L -6477571.408242667,3753367.2987676067 L -6475174.254327925,3746606.3314685053 L -6467200.439202403,3741256.6746373144 L -6461243.065333109,3733057.500023823 L -6457307.698694586,3722027.5352076096 L -6455291.146118866,3713611.5240386515 L -6455193.296286458,3707804.2947834423 L -6457606.702846857,3702344.1070715287 L -6462525.79982552,3697192.3718604357 L -6460248.314363381,3686971.8550444795 L -6450779.701115486,3671695.104546859 L -6444659.244192181,3658140.1860012277 L -6441881.711577399,3646314.255706174 L -6442066.501932115,3636782.8833633442 L -6445208.271920773,3629528.1607716167 L -6443876.556852413,3624622.2670829995 L -6438060.558736429,3622036.981268457 L -6435446.109175657,3614398.4668677268 L -6436332.101002881,3595404.626684697 L -6442338.344128633,3579747.9164821943 L -6437739.847283454,3567365.265782622 L -6424547.8197075045,3553066.615898589 L -6417666.494064629,3541528.5615742705 L -6417095.759035331,3532756.0209218813 L -6412991.966007238,3527711.7943150634 L -6406692.173384264,3537172.9137431406 L -6387939.6259237025,3539677.8402973735 L -6369083.773975683,3540030.276370275 L -6366018.146518728,3537638.6992311114 L -6358625.86441311,3522129.0306543577 L -6348852.792357896,3517692.1500247503 L -6338226.34508626,3516548.5911918185 L -6326588.894199241,3517340.334205177 L -6314228.534539009,3527598.5927430466 L -6279223.786700592,3561197.431457192 L -6253502.8617553525,3584585.590589986 L -6245675.654399205,3595632.2539448254 L -6238881.269278637,3603904.621129943 L -6233777.381945257,3611625.3712697336 L -6235946.108264891,3631696.5995773557 L -6235619.942156867,3640500.5958516314 L -6234413.238876668,3643038.91814933 L -6228548.371504225,3643254.6820418816 L -6219829.828985295,3641795.0997760766 L -6212491.870791185,3637518.7232083594 L -6206768.267852558,3631075.1147824605 L -6201158.767391994,3625813.740635153 L -6196625.503768419,3623000.0741969333 L -6194983.986557181,3618742.8910679244 L -6192385.789642067,3614335.054913086 L -6189700.652204641,3613385.3407247663 L -6184613.017516917,3616652.8487853226 L -6172616.8952305615,3628133.548725738 L -6163322.051707795,3638749.3780521387 L -6161033.768255049,3644828.832666101 L -6157446.275025254,3651165.161120615 L -6153625.122184285,3656691.5934488974 L -6150918.2774461545,3662080.56415576 L -6141889.821464857,3669112.707655625 L -6132720.101049743,3673590.953552471 L -6126583.391480782,3669036.379931843 L -6110994.321309582,3683660.2409196733 L -6076668.9563234765,3695917.472550581 L -6070352.911054848,3703338.978305567 L -6064428.265115849,3713892.460678319 L -6052432.031510003,3729886.8808404393 L -6035804.795767665,3744315.203703088 L -6022433.321172559,3750396.165852669 L -6009600.076315438,3753879.609892511 L -6002414.291865242,3757056.6609473135 L -5997506.104196675,3762592.757316977 L -5989668.098849921,3768554.6467034942 L -5984727.183251061,3770773.5497709853 L -5983042.140118923,3776110.707943888 L -5977981.667386952,3787794.000494614 L -5972692.878379364,3802587.776273622 L -5966914.951529229,3816331.2309762575 L -5954413.216115691,3829549.2493914654 L -5940313.489411814,3839839.9529664023 L -5925675.644289444,3845685.79427045 L -5917440.7849580115,3852916.2531688833 L -5913913.181614263,3860409.7296069334 L -5923762.284881689,3871581.189734479 L -5934453.965374929,3885625.2019049353 L -5943928.144597363,3896678.0988770975 L -5953684.852687431,3904407.0323115787 L -5956913.563198398,3909739.7782345912 L -5959082.400837524,3918009.846100039 L -5958973.641695019,3961899.3315128507 L -5959783.49099054,3978271.9919940704 L -5959082.400837524,3982633.2186615486 L -5957690.907202607,3985545.946654801 L -5951537.833668501,3989909.931953866 L -5944189.077483783,3993582.8130985796 L -5941188.571928941,3994236.4847232327 z" /></g>
</svg>
