<?xml version="1.0" encoding="UTF-8"?>
<svg xmlns="http://www.w3.org/2000/svg" viewBox="6231184.639685191 -5709381.168424149 1910379.3849862497 1246242.2894953862">
  <g id="map"><g><path fill-rule="evenodd" fill="currentColor"    d="M 7897759.089063932,-5198303.899264413 L 7901346.582293728,-5200991.797412571 L 7907695.24417316,-5203717.172282013 L 7918153.153735733,-5198502.107806752 L 7927360.945416698,-5191954.243693026 L 7929546.035701482,-5188924.106380824 L 7929122.13108054,-5185411.042585814 L 7907271.339552219,-5172638.090794508 L 7893704.276611789,-5166671.561849771 L 7887725.19544179,-5165595.900370313 L 7886083.678230552,-5163920.226706642 L 7881789.528873201,-5149400.719758852 L 7873375.3338421015,-5146793.16405277 L 7862591.258171504,-5142346.359455792 L 7855025.095021266,-5135669.348063762 L 7843012.4974502735,-5119881.685135682 L 7812508.396624628,-5096997.255116467 L 7812062.673383492,-5092319.3169600675 L 7814726.103520212,-5088522.080939633 L 7824651.34931934,-5085901.899895546 L 7837761.891028027,-5078879.669407345 L 7844838.916335718,-5073398.711168246 L 7864265.391993545,-5080482.453176075 L 7869048.67919344,-5078915.907702881 L 7874114.6065804595,-5071601.504708313 L 7879463.174154604,-5051137.796442213 L 7888149.100062732,-5045571.468481535 L 7899520.274727774,-5041294.154044375 L 7906575.592734761,-5039900.0625749435 L 7916011.589371852,-5034881.7223495385 L 7928556.850706291,-5033004.893532983 L 7936949.227117196,-5034859.989501512 L 7947439.753290573,-5030558.584062311 L 7949146.5037234165,-5032427.549056133 L 7950537.9973583305,-5062902.647433499 L 7959343.591719061,-5057799.896829805 L 7964420.317096686,-5057886.738442471 L 7968866.640197954,-5061621.221703464 L 7971171.287615846,-5066689.799991268 L 7972660.631083169,-5076784.020807479 L 7970725.5643747095,-5086859.83991326 L 7974650.021703136,-5091455.264602442 L 7977704.739849994,-5092500.911672214 L 7979955.063356381,-5091280.97635685 L 7981303.142389886,-5088689.034444355 L 7981683.632409417,-5079539.5544807995 L 7988032.2942888485,-5075682.02790686 L 7991902.316386277,-5073471.295127932 L 7995609.366749184,-5065740.981529087 L 7999196.859978978,-5058378.756856561 L 8001490.598086774,-5041149.765136572 L 8010383.1329698125,-5039972.395364915 L 8020841.042532387,-5036672.114600501 L 8027852.945937964,-5039900.0625749435 L 8033288.45403442,-5038000.669627478 L 8035147.378211176,-5029829.776470635 L 8035114.761600372,-5022206.439010064 L 8035854.03433873,-5016166.790467663 L 8038723.9621308725,-5014444.943114447 L 8047833.903979431,-5018234.738434347 L 8055530.6448923685,-5018753.676077129 L 8062575.053589258,-5015136.44874804 L 8071326.212718989,-5009641.170580327 L 8084067.062398752,-4995215.649517396 L 8088285.0692243995,-4993174.079794469 L 8107505.047226803,-4992031.211239007 L 8111473.030476129,-4989113.706223713 L 8118082.62524198,-4989128.126771347 L 8125213.974461179,-4991729.324361111 L 8141031.360907995,-4987080.62241547 L 8141564.024671441,-4984451.836723494 L 8138889.796544114,-4980832.9171664305 L 8101145.476037274,-4960910.37905648 L 8098362.488767442,-4954793.888330295 L 8090654.949863898,-4947014.301439279 L 8082251.664142895,-4942594.019900024 L 8078174.921751064,-4942436.733468603 L 8059759.449708624,-4950305.757392096 L 8057596.066724546,-4948409.529347361 L 8056085.01595652,-4945233.117359574 L 8056161.158488222,-4941757.531059381 L 8060194.263639662,-4933466.643465658 L 8058335.339462904,-4928245.6325861225 L 8054823.988764813,-4924483.244247113 L 8043278.933055152,-4927781.488384894 L 8041126.459381172,-4929888.007385663 L 8040919.96172575,-4932195.107833842 L 8036473.6386244865,-4932202.130015944 L 8029614.020282314,-4929888.007385663 L 8016405.740060709,-4915579.455895395 L 8011785.535914825,-4908101.536852416 L 8010067.876171886,-4903591.919768055 L 8004175.735524199,-4901020.983130913 L 7997794.457033965,-4900052.552314072 L 7989695.51880079,-4893305.04631098 L 7980770.36730695,-4888105.253484093 L 7977911.348824906,-4891931.882612124 L 7976139.365170458,-4896215.635861067 L 7973802.101141764,-4897546.680793623 L 7968301.359823704,-4896543.023339599 L 7961615.62252615,-4896357.900859045 L 7954603.830440063,-4901170.463297119 L 7945559.121813111,-4906013.824567848 L 7937601.559333245,-4907723.85685427 L 7914206.989106603,-4905436.779271781 L 7902640.226096235,-4903050.606624141 L 7899009.318265034,-4900714.738150897 L 7892486.66402149,-4900088.1321902415 L 7865069.8979535075,-4895219.255237276 L 7859460.397492942,-4897112.406033662 L 7855351.1498098,-4904838.4678134 L 7851763.767899495,-4913212.146069487 L 7844675.833281707,-4916256.8526887465 L 7836696.452181644,-4918596.406036963 L 7833728.674557097,-4921921.17551319 L 7833522.176901675,-4925996.623673195 L 7834348.278842852,-4929980.883611542 L 7834957.085138001,-4932066.515011155 L 7853459.60902224,-4948066.052182601 L 7870103.208729725,-4962493.80845587 L 7871625.168807851,-4963654.653821647 L 7873136.219575878,-4966399.698290831 L 7875973.530757217,-4971390.045405145 L 7875962.7327666115,-4974008.264855137 L 7863515.321264579,-4979734.5662132185 L 7863026.183422033,-4982383.697404219 L 7865537.328495347,-4985105.326327944 L 7865537.328495347,-4988718.473800371 L 7856731.845454108,-4999293.00219498 L 7841512.355992343,-5015799.378410379 L 7837109.558811979,-5017521.318226432 L 7833848.231690208,-5016418.970076216 L 7827869.150520211,-5000436.575591825 L 7824879.665594957,-4996380.391234189 L 7807540.319070016,-4985888.1594682885 L 7792994.869125003,-4978686.756637977 L 7767121.770435848,-4965883.540025917 L 7760403.527846984,-4961877.486337043 L 7755718.090479495,-4962608.419300218 L 7751000.036501204,-4965116.693043458 L 7736508.910467699,-4978047.953715379 L 7727116.328432015,-4982469.867254662 L 7720811.192473485,-4978091.019419122 L 7715484.332200045,-4971705.698829832 L 7715995.288662786,-4958618.081025426 L 7709983.590881987,-4951708.489855523 L 7704004.509711989,-4948617.028206881 L 7714908.142515699,-4913632.820060209 L 7713821.107688102,-4909134.831155942 L 7705482.943869215,-4907902.041790263 L 7711646.815393928,-4894770.945881747 L 7706461.330873796,-4893241.075726699 L 7693329.193183896,-4896322.334417497 L 7675674.589861028,-4898343.848436743 L 7642365.683145355,-4892522.418707547 L 7639930.569284252,-4890253.134400439 L 7639017.415501275,-4887365.707344808 L 7640941.572899637,-4884734.926654208 L 7657063.306834281,-4884429.3314029 L 7672902.400581803,-4885772.914481218 L 7677261.783160757,-4883334.565461673 L 7677935.71135802,-4879020.881280003 L 7676109.403792066,-4876314.344972877 L 7670858.686050328,-4875859.763631132 L 7659302.832350059,-4873260.540755783 L 7657976.460617258,-4870519.957749243 L 7657606.879907824,-4867879.547894256 L 7661498.720625449,-4860246.169281433 L 7665890.608495716,-4855389.717999153 L 7666434.181569261,-4852505.313658737 L 7664596.964693206,-4850110.528196925 L 7662390.16710772,-4849147.059633869 L 7658520.033690802,-4852746.217125398 L 7656313.236105316,-4852030.489700695 L 7655215.291967622,-4848785.837382568 L 7654128.145820534,-4844975.668983465 L 7651573.47482632,-4842172.131092778 L 7646192.290641373,-4843630.4928201595 L 7640854.6323773265,-4842554.42476525 L 7637669.44778726,-4828703.652259674 L 7634973.401039737,-4813036.740643503 L 7626157.0086884005,-4802610.474663826 L 7621297.578956801,-4798846.176687094 L 7614144.411117407,-4797711.418861005 L 7603458.185279216,-4798987.0561249135 L 7596989.966266673,-4800516.649337915 L 7578313.450018322,-4802807.867206885 L 7559550.104567152,-4807088.647116723 L 7538449.383767798,-4811074.845881259 L 7518794.4805148635,-4801863.104064673 L 7513141.565452891,-4796252.818830016 L 7509564.981533195,-4791011.86512789 L 7505847.1331796795,-4788582.462107641 L 7497324.179006075,-4756408.452316386 L 7498215.625488347,-4752759.549954458 L 7502977.205387538,-4749883.579890327 L 7527034.794501347,-4743222.676999867 L 7530578.76181024,-4740461.500446161 L 7532687.70956332,-4737322.758911251 L 7533720.531798898,-4722888.624757564 L 7535709.922418865,-4720902.252113423 L 7543961.034395955,-4719126.062481492 L 7555886.5801251475,-4719237.90655823 L 7565224.72692983,-4720657.474063178 L 7574660.834886413,-4719321.826227525 L 7581248.7223515585,-4716231.5773667265 L 7584477.432862528,-4711311.4878848465 L 7586260.214507581,-4706016.629707915 L 7575052.234216044,-4674409.877897174 L 7575954.478688923,-4662957.21473074 L 7579433.212776213,-4646538.102201957 L 7585771.076665037,-4633687.962535313 L 7597707.420384835,-4621117.1258810265 L 7606806.452923296,-4613072.66550106 L 7608719.812331051,-4609281.025554614 L 7609187.242872892,-4603402.616951274 L 7607708.808715667,-4595938.476111461 L 7602458.09097393,-4584075.935849014 L 7596054.993863502,-4573729.81963598 L 7589097.52568892,-4569318.606376434 L 7579476.738697113,-4556206.283933936 L 7570942.9865329,-4540079.639605436 L 7554538.5010916395,-4518956.797288149 L 7549059.467074287,-4507209.138405222 L 7547244.068818428,-4473307.814825006 L 7542895.595549571,-4463138.878928763 L 7542221.667352309,-4466993.741327491 L 7536329.526704621,-4470829.461338158 L 7526023.790885962,-4470167.360693432 L 7519240.203756002,-4472003.757721037 L 7515989.785944328,-4476339.819008546 L 7507575.590913228,-4475131.052573019 L 7493997.72998219,-4468358.539205574 L 7480169.734155341,-4471942.23638744 L 7466070.007451464,-4485878.863076996 L 7439229.319748336,-4490986.822656206 L 7405224.777534695,-4487793.199394831 L 7403931.133732188,-4503236.716890231 L 7404007.164944399,-4522955.701830252 L 7405594.35824413,-4549202.402217096 L 7417139.4139537895,-4569828.517320843 L 7416813.247845766,-4573757.35149774 L 7414573.833649477,-4577549.82284358 L 7411040.77565068,-4580950.331431525 L 7390472.718614771,-4586622.73142542 L 7384417.606232561,-4589625.753181157 L 7376438.2251325,-4596118.031148944 L 7366360.805589458,-4603001.629376566 L 7357642.151751037,-4607738.440594427 L 7343879.389145793,-4613986.138036927 L 7331182.06538693,-4617461.050071612 L 7323735.348050314,-4614809.820952584 L 7316864.9317175355,-4611453.417291569 L 7310450.925297008,-4611363.435026466 L 7303993.615594563,-4613183.355068417 L 7280251.171959191,-4628821.386986893 L 7244300.653726995,-4655915.235209144 L 7215807.65082202,-4674862.428525756 L 7197913.933232928,-4683931.073827505 L 7193674.219106576,-4686844.211900037 L 7183629.4161743345,-4695379.463185909 L 7158952.111455283,-4718419.79777929 L 7142569.444634217,-4715029.20926985 L 7119164.076416969,-4730033.15916864 L 7098139.498149317,-4744694.713427114 L 7093367.120259518,-4748656.237442294 L 7069461.704889625,-4775832.763594733 L 7045621.522741336,-4793477.057355083 L 7019596.138988778,-4812775.54679345 L 7002756.95093597,-4824872.933556769 L 6974242.240730292,-4845400.560289759 L 6960305.4857609365,-4857821.204234646 L 6955598.341092743,-4862402.255547718 L 6950967.338956254,-4871208.521949426 L 6943553.238230439,-4914317.238505089 L 6934986.869455423,-4934109.569681452 L 6922789.592849204,-4944904.106891928 L 6912386.007198137,-4965740.265426976 L 6903765.203192125,-4996689.638089467 L 6896633.853972927,-5016858.418644376 L 6890991.73690156,-5026172.379491537 L 6879533.621714209,-5036477.223919713 L 6862237.801110167,-5047783.225902117 L 6845811.719687693,-5053148.194209848 L 6839876.053119104,-5052931.198049764 L 6836951.801415457,-5051528.320599121 L 6833625.241072081,-5049604.8786993325 L 6827102.58682854,-5041164.115167332 L 6817470.890526634,-5040290.1335276365 L 6810448.18913045,-5040492.349415757 L 6803838.594364598,-5043497.683478076 L 6783053.130363169,-5046178.607873236 L 6775704.374178452,-5049091.689849454 L 6763202.638764912,-5048657.884386953 L 6736340.243761078,-5044277.983039091 L 6729817.589517538,-5045087.35317395 L 6701433.3457550695,-5063952.46687521 L 6689149.01730705,-5071434.847067732 L 6686670.488844537,-5075580.624758258 L 6686822.662588451,-5082839.955214793 L 6690975.436192495,-5093096.435507989 L 6694530.201491996,-5100376.289252753 L 6692975.624803069,-5107945.2919039205 L 6687583.642627515,-5116226.358526091 L 6687583.642627515,-5125046.584085099 L 6691258.076379619,-5129973.729185027 L 6698802.532229151,-5128420.8853551475 L 6701520.286277379,-5131533.993039365 L 6700552.8085828945,-5136209.140367618 L 6696486.97550116,-5139587.381452753 L 6691073.286024902,-5147121.780671758 L 6675005.876001764,-5154150.482310582 L 6672690.319273774,-5157015.939406835 L 6673527.330525048,-5160291.9091056865 L 6676288.610494174,-5163795.85917237 L 6676853.890868423,-5171180.860134669 L 6677125.733064941,-5180733.630228173 L 6679256.388118724,-5185689.630927974 L 6679843.487113168,-5189606.351380788 L 6677517.021075079,-5192746.872951117 L 6672103.22027933,-5196402.179980878 L 6663395.587070499,-5205296.939466747 L 6652741.9778431095,-5206259.555790881 L 6618063.284793226,-5205951.014270761 L 6607290.118432726,-5209530.563162717 L 6598636.809135401,-5214479.4895868385 L 6590016.0051293885,-5233409.46075394 L 6585613.207949024,-5237899.122101246 L 6581558.395496879,-5239764.793137314 L 6571839.647353172,-5240421.256336705 L 6560153.215890203,-5242257.964600988 L 6554152.4274195,-5245460.293854042 L 6537791.46789914,-5262811.09809325 L 6522104.659215026,-5278312.824910862 L 6515788.502626906,-5263683.589449322 L 6509646.338402895,-5260792.957949485 L 6495840.161196242,-5262138.38708889 L 6485436.575545175,-5264615.224556734 L 6479511.818286685,-5261317.814422178 L 6473402.381992969,-5255531.477518376 L 6474565.559352267,-5251735.1280085575 L 6479250.996719756,-5247711.279048857 L 6488665.286056143,-5240295.881327728 L 6503080.269557945,-5222095.506795713 L 6509624.631102191,-5212067.278345901 L 6510613.927416871,-5208560.237681296 L 6509341.9909150675,-5205928.889972125 L 6507406.924206608,-5204789.934624504 L 6504558.70371517,-5204834.027468446 L 6500732.096219152,-5204892.717920235 L 6498514.389323569,-5207898.606463329 L 6497775.227904702,-5213067.333811777 L 6492959.324094002,-5220925.210056101 L 6488023.863150192,-5225438.20022146 L 6482588.355053738,-5228281.203683405 L 6474967.7566725025,-5230373.426959891 L 6464933.7517308695,-5234139.147754688 L 6459748.267210738,-5234308.671444494 L 6454693.249133815,-5229953.496717172 L 6450486.151618265,-5224105.535037439 L 6448007.623155753,-5211324.534413925 L 6440495.672597531,-5195653.4459434375 L 6435853.761150944,-5189459.711896848 L 6421590.951393055,-5185696.989976046 L 6387705.854993035,-5184421.106319141 L 6377563.202228389,-5179539.009184264 L 6370681.8765855115,-5173641.500631706 L 6357853.975063949,-5154559.737858693 L 6348961.440180909,-5148232.0111268405 L 6341210.486675956,-5139514.445341026 L 6343525.932084455,-5111575.556641699 L 6347232.9824473625,-5079031.900868439 L 6353744.727380806,-5070036.4016688615 L 6357886.591674752,-5067334.31406723 L 6358441.074058393,-5064147.911968327 L 6355766.734611575,-5061331.690186255 L 6352364.1430559885,-5057770.851003847 L 6347211.275146658,-5051282.482544536 L 6341406.07502128,-5051528.320599121 L 6329719.754877802,-5053155.452186062 L 6320011.916044192,-5054913.079706686 L 6287311.815623668,-5056786.901130641 L 6260829.910639366,-5058299.1726614805 L 6231380.228030514,-5059985.401110242 L 6231369.430039908,-5094069.669843419 L 6231347.611419712,-5128282.498751205 L 6231336.813429105,-5162610.703025875 L 6231325.904119007,-5197063.00940317 L 6231314.99480891,-5231640.875430593 L 6231304.196818302,-5266345.778702726 L 6231293.2875082055,-5301179.217260817 L 6231282.378198108,-5336142.710002064 L 6231271.5802075,-5371230.291215144 L 6231260.670897403,-5406458.505951587 L 6231249.872906796,-5441829.024012451 L 6231238.963596698,-5477328.354469028 L 6231228.054286599,-5512965.661473968 L 6231217.256295993,-5548742.598235057 L 6231195.437675797,-5584660.841977688 L 6231184.639685191,-5620722.094442867 L 6245077.757414154,-5625204.35740948 L 6262601.894293814,-5630865.991019211 L 6279441.193666112,-5636300.326154913 L 6299433.061017675,-5642762.644899316 L 6322044.832585059,-5650070.068592919 L 6341319.13449897,-5656318.346479326 L 6364322.305395983,-5663768.241892254 L 6381868.149576346,-5669454.209789809 L 6398348.666229819,-5674803.608739406 L 6419427.568408978,-5681138.862381569 L 6452192.902051108,-5691010.44026683 L 6470467.109659731,-5696512.268572419 L 6488937.016933169,-5702079.591903811 L 6506559.003645236,-5707401.953088452 L 6518343.17362112,-5709381.168424149 L 6530997.082778574,-5701784.7746307235 L 6546368.745984254,-5691343.615062454 L 6561740.409189934,-5680906.855136586 L 6577133.779696318,-5670489.8339019455 L 6592505.442901998,-5660085.052054491 L 6607877.106107678,-5649684.41331962 L 6623270.587933554,-5639303.677578096 L 6638642.251139233,-5628934.740683913 L 6654013.803025423,-5618577.876793403 L 6669396.3755412,-5608240.432701039 L 6684768.038746881,-5597899.574077351 L 6700150.611262659,-5587578.054185669 L 6715533.072458945,-5577268.443723966 L 6730904.735664626,-5566970.388903077 L 6746287.308180403,-5556676.503754916 L 6761669.76937669,-5546401.918300822 L 6777041.43258237,-5536138.769128043 L 6791369.475561863,-5526587.110494603 L 6797761.663362193,-5519515.429431906 L 6801294.721360992,-5503938.91620722 L 6808382.655978779,-5491571.221778898 L 6820710.39902821,-5478183.269511887 L 6833353.510195055,-5464505.205936097 L 6849029.520888564,-5446457.761708941 L 6859911.446391569,-5433956.2524123 L 6870999.869549996,-5421223.564385488 L 6889295.895778815,-5400251.414312364 L 6900721.283035875,-5387182.963921914 L 6909820.426893825,-5386755.783157217 L 6928290.334167264,-5389858.048133843 L 6952945.820266122,-5394011.01564312 L 6972437.640465042,-5397295.744279111 L 6996005.980416812,-5401271.937363312 L 7018432.961629479,-5405054.586434537 L 7036174.505474658,-5408050.415885181 L 7062645.501148862,-5405782.734488066 L 7088790.442034533,-5403538.3590685055 L 7107542.989495097,-5401924.7869338775 L 7125925.844926735,-5400341.460455682 L 7147689.695932745,-5398480.940934107 L 7159865.265238259,-5397438.297817326 L 7173780.201587418,-5396245.708491518 L 7179672.342235106,-5399388.644580664 L 7191695.737796706,-5405820.404179934 L 7203045.093841554,-5411895.997000635 L 7214818.35450734,-5418200.982579588 L 7225243.758778602,-5421396.520062216 L 7236114.77497151,-5411294.904072951 L 7245213.807509972,-5399703.780530311 L 7254791.179900371,-5387497.53131234 L 7265879.71437829,-5375741.502359031 L 7276565.940216481,-5368769.760641176 L 7291002.631018987,-5359360.358114847 L 7299297.268916976,-5343254.053158689 L 7310374.894084795,-5321809.800430756 L 7317658.5283674,-5307729.03685341 L 7325159.458296033,-5293261.553298598 L 7336074.00040984,-5298967.220718227 L 7347716.905951908,-5305062.534102951 L 7358250.958046185,-5310574.661706854 L 7356979.021544381,-5292720.174762808 L 7355826.75349518,-5276520.776522766 L 7354065.56783134,-5252067.400655637 L 7352630.659595015,-5232060.880687663 L 7348814.850089604,-5208251.47069635 L 7348554.028522674,-5190156.570123036 L 7348336.510237663,-5174286.048525106 L 7348151.719882946,-5161710.921835212 L 7368589.310475647,-5161147.665487915 L 7383689.242804302,-5160730.787343654 L 7402593.964008778,-5160211.475250947 L 7404420.271574732,-5144427.069335933 L 7406964.14457834,-5122299.899862795 L 7410823.368685162,-5102287.856084513 L 7414062.877186735,-5085531.829125426 L 7418922.306918336,-5063901.752634157 L 7421520.39251396,-5052359.921549534 L 7426086.272748336,-5038802.268013353 L 7430554.303150306,-5035538.609589749 L 7437729.178290404,-5033365.862156106 L 7462710.830497287,-5034982.699418711 L 7483452.768577815,-5036318.41605086 L 7499770.202177276,-5037379.698315475 L 7517185.579914428,-5038506.171733085 L 7540232.276732342,-5040001.239879669 L 7548026.756158195,-5036549.383289918 L 7554777.726677354,-5038968.363945085 L 7562572.206103209,-5041380.847599198 L 7568768.694238725,-5031539.871390607 L 7571921.373537483,-5026547.422320325 L 7576334.968708454,-5021384.508390351 L 7582314.049878451,-5016562.991326089 L 7579781.086184941,-5006480.904359718 L 7576074.035822033,-4991801.29946722 L 7575030.415595848,-4984250.636041003 L 7582227.109356142,-4976131.942513086 L 7587564.767620187,-4971390.045405145 L 7602218.976707705,-4961748.65056909 L 7615927.304081951,-4956369.289570687 L 7624906.779487302,-4954786.849965441 L 7633473.1482623145,-4956841.827347356 L 7636593.210950269,-4962314.630810607 L 7635810.412291012,-4969848.205066179 L 7631679.457307164,-4977760.902868462 L 7631983.804794992,-4987195.52199173 L 7634745.084764118,-4994108.611314963 L 7643507.1532039475,-5006667.970609189 L 7651779.9724817425,-5018523.132097907 L 7664477.407560096,-5030623.458276628 L 7679588.137879355,-5042630.593321733 L 7685882.475847281,-5051376.374172345 L 7688274.063787482,-5066617.267039624 L 7698144.985675105,-5075268.850163293 L 7708798.594902492,-5080467.896067607 L 7722050.4010449955,-5084973.034359338 L 7725681.420195691,-5092602.641903697 L 7743955.627804314,-5105574.329836777 L 7754946.201130335,-5111990.297320617 L 7768774.196957185,-5115745.835653312 L 7787907.234437279,-5124208.678349762 L 7803007.055446441,-5134130.218345169 L 7817509.0907900445,-5152893.336306688 L 7828978.003968002,-5165171.484392898 L 7838675.044811005,-5172755.224814719 L 7846806.599654981,-5173011.544876229 L 7852492.131327758,-5166891.145410154 L 7857405.773651372,-5166378.841603508 L 7860634.48416234,-5169182.161042597 L 7866113.518179693,-5177091.697988448 L 7871983.840207186,-5186276.2700711675 L 7877473.783534637,-5190112.5454402985 L 7888138.3020721255,-5192071.766264463 L 7897759.089063932,-5198303.899264413 z M 7865004.664731903,-5002997.765648088 L 7864635.084022468,-5006567.28753939 L 7861199.7645365875,-5012586.516551962 L 7856046.8966272585,-5016001.0844344245 L 7853590.07546545,-5014538.626189431 L 7855677.315917823,-5009662.847050035 L 7861689.0136986235,-5002674.025142764 L 7865004.664731903,-5002997.765648088 z" /><path fill-rule="evenodd" fill="currentColor"    d="M 7926632.581988438,-4850344.264272691 L 7921077.516758872,-4849019.542329047 L 7910837.014161818,-4849232.072078647 L 7904988.39943503,-4850712.652765877 L 7908543.164734531,-4862501.472348092 L 7908673.631177742,-4864856.673529336 L 7908249.726556801,-4865204.385818491 L 7905292.74692286,-4866779.632972003 L 7900835.625830987,-4871591.934523742 L 7899302.867762255,-4878736.706051041 L 7901042.234805899,-4885325.033184894 L 7904292.652617573,-4888098.1169928685 L 7906368.9837598475,-4887642.994258721 L 7912630.7051169695,-4877557.4586944785 L 7918185.770346535,-4874616.862875047 L 7929143.838381244,-4872941.048175581 L 7923643.097063186,-4863012.243926049 L 7927687.1115247235,-4852406.051518858 L 7926632.581988438,-4850344.264272691 z" /><path fill-rule="evenodd" fill="currentColor"    d="M 7990478.317460048,-4858714.505318176 L 7987499.630525404,-4852455.682464914 L 7982259.710774274,-4853950.967177097 L 7978150.463091129,-4858111.895802505 L 7979520.249425342,-4861387.918705624 L 7985673.211639958,-4863175.388394894 L 7988880.214850222,-4864963.180010984 L 7991619.676199152,-4865261.055503288 L 7990478.317460048,-4858714.505318176 z" /></g></g>
</svg>
