<?xml version="1.0" encoding="UTF-8"?>
<svg xmlns="http://www.w3.org/2000/svg" viewBox="-6829842.159496962 -1500747.3932083226 25547.04390061926 75870.57632037788">
  <g id="map"><g><path fill-rule="evenodd" fill="currentColor"    d="M -6809915.525367004,-1477801.1758144319 L -6813187.650479382,-1475992.677263492 L -6821357.276589209,-1483685.3203762118 L -6820373.434929578,-1492619.9540427953 L -6815432.519330719,-1497535.2565450056 L -6810763.445928376,-1500428.977318208 L -6805958.451427775,-1500747.3932083226 L -6804295.115596343,-1493346.0584992077 L -6805463.74761069,-1482920.477328009 L -6809915.525367004,-1477801.1758144319 z" /><path fill-rule="evenodd" fill="currentColor"    d="M -6815671.7449164335,-1459118.6543877232 L -6817454.526561487,-1457869.0681405712 L -6816617.515310213,-1457869.0681405712 L -6817454.526561487,-1457021.3046588246 L -6818014.463600178,-1457863.5846139994 L -6818900.455427402,-1458382.3537660753 L -6820025.561520849,-1458611.0675999133 L -6821319.205323358,-1458577.5943812046 L -6821319.205323358,-1459431.0024261263 L -6819661.435466464,-1458906.6161285688 L -6817133.815108512,-1459419.9205239157 L -6817123.0171179045,-1460345.9026533018 L -6817867.633191821,-1461182.682914746 L -6818210.051945501,-1461768.4666563608 L -6817275.190861819,-1462672.244944457 L -6814182.401449109,-1464675.2850602467 L -6812883.302991552,-1465735.3654942394 L -6812731.129247638,-1465300.107218249 L -6812676.69401664,-1464887.252257678 L -6812524.520272726,-1464496.6853619914 L -6812057.089730885,-1464106.1238632228 L -6813649.737685664,-1462555.1291898964 L -6815671.7449164335,-1459118.6543877232 z" /><path fill-rule="evenodd" fill="currentColor"    d="M -6827711.393123688,-1424932.502088972 L -6828841.953872185,-1424876.8168879447 L -6829842.159496962,-1425266.8437598697 L -6829575.771955495,-1425612.2581259299 L -6828309.290108739,-1425890.8063701498 L -6827716.847778738,-1426643.0483442163 L -6827928.8000892075,-1427651.621841503 L -6827874.476177701,-1428766.1375377604 L -6826868.927217364,-1429451.4616011356 L -6826097.0378682045,-1429523.9322886178 L -6825754.619114524,-1429094.8171615934 L -6825537.212149004,-1428052.8699400413 L -6826124.199823959,-1427250.3793005368 L -6826771.077384957,-1426604.0207472262 L -6827091.788837933,-1425606.6666482084 L -6827711.393123688,-1424932.502088972 z" /></g></g>
</svg>
