<?xml version="1.0" encoding="UTF-8"?>
<svg xmlns="http://www.w3.org/2000/svg" viewBox="-8167089.249951867 -1365959.1258205192 1506965.8993132366 1289370.8115008466">
  <g id="map"><g><path fill-rule="evenodd" fill="currentColor"    d="M -6770584.011560433,-1021620.3577759883 L -6783966.284146147,-1017920.8438214264 L -6783748.877180628,-1020937.6589308318 L -6780166.838605882,-1026168.0712605747 L -6773220.2797414,-1027643.719800313 L -6770605.830180628,-1029433.2677351513 L -6766175.871044511,-1030639.1631891861 L -6763648.36200605,-1030424.4382746174 L -6761082.781701737,-1028943.1611117952 L -6767154.258049093,-1025997.3479016133 L -6770584.011560433,-1021620.3577759883 z" /><path fill-rule="evenodd" fill="currentColor"    d="M -7107678.799273864,-1246966.5938208709 L -7104107.670009215,-1232145.5857533806 L -7105200.270811352,-1229365.963102451 L -7115277.690354394,-1219356.9421613344 L -7123729.956651346,-1218637.3405764357 L -7130535.251082011,-1218991.5848724323 L -7135709.826292046,-1220928.9418234043 L -7142357.492323747,-1227433.6761529492 L -7148820.256681242,-1225484.9469078674 L -7164800.726182071,-1227743.6781907028 L -7169236.139973237,-1230019.3441805094 L -7163257.058803241,-1237993.3915413425 L -7152250.121512073,-1241216.803841567 L -7148233.26900629,-1241875.9756291031 L -7145020.811140977,-1236979.972084197 L -7137003.470094553,-1232749.1227955932 L -7127599.978748773,-1232317.1651677766 L -7125262.714720079,-1239870.936168581 L -7112549.026996069,-1251077.2789786893 L -7107678.799273864,-1246966.5938208709 z" /><path fill-rule="evenodd" fill="currentColor"    d="M -7259422.2933563525,-1221499.0606166287 L -7265423.081827055,-1218952.8161956526 L -7276424.564463173,-1221499.0606166287 L -7281925.305781231,-1225064.1940620232 L -7278424.864393236,-1229138.9496127064 L -7269423.681687184,-1229138.9496127064 L -7260987.668035888,-1224195.0403468432 L -7259422.2933563525,-1221499.0606166287 z" /><path fill-rule="evenodd" fill="currentColor"    d="M -6790255.167459022,-991071.3900696713 L -6797163.766377144,-988782.8671064866 L -6798191.022638184,-1000083.4079032664 L -6796109.236840859,-1003131.9184589708 L -6784341.319510629,-1012223.6946173154 L -6781118.06365471,-1013946.4967584672 L -6778753.637670261,-1012036.5727085217 L -6779346.080000263,-1009614.887279193 L -6773698.619593339,-1005536.7632126451 L -6775062.951272502,-1000342.0339612765 L -6781183.296876315,-994669.4254791432 L -6790255.167459022,-991071.3900696713 z" /><path fill-rule="evenodd" fill="currentColor"    d="M -6681120.76695053,-955256.8672118997 L -6660427.809445948,-927870.5215248659 L -6660123.350638631,-924854.8496767527 L -6662368.2194899665,-921427.5803597026 L -6675255.899578086,-915007.503874249 L -6678136.736680325,-911679.7295678708 L -6682778.648126914,-899485.4637269095 L -6699003.686549015,-892794.1087369589 L -6710217.121495604,-884407.9374767287 L -6717772.486655233,-877054.7511695884 L -6721539.315584696,-874091.8900385839 L -6736345.698416128,-872467.885266244 L -6741101.82366027,-867842.9311530283 L -6747086.248165825,-853949.2145871407 L -6751467.338045485,-848141.676879358 L -6759169.4222939825,-841325.907809912 L -6759234.655515587,-837142.7474442569 L -6748602.753588903,-821947.8106703282 L -6746689.505500639,-817179.8654059767 L -6749988.90388826,-809968.4246765795 L -6749668.192435286,-804861.8514253743 L -6744091.308585524,-798703.9669028216 L -6737411.02594302,-797301.5679356185 L -6730926.44296533,-799865.406708209 L -6722849.323352352,-799640.7908096594 L -6717582.2416454675,-798008.260025988 L -6715402.606015734,-796211.4255678764 L -6715022.115996203,-791506.1394279609 L -6718365.040304725,-781505.3351258656 L -6723142.872849573,-775054.5086902706 L -6744412.020038499,-765155.3904591051 L -6753869.835295786,-759423.7102898 L -6759087.936426721,-755203.4010349518 L -6770546.051614072,-757464.0717897651 L -6776389.211685812,-757288.8512899114 L -6780868.0400783885,-754026.4681728799 L -6783585.794126615,-751218.7025274114 L -6791277.080384504,-750529.0017056362 L -6802153.551232462,-748821.4328543572 L -6806697.612846643,-746933.2382021392 L -6810219.872854833,-742046.2703349998 L -6813155.033868578,-735036.6157572587 L -6810703.667361821,-726632.7842055042 L -6807300.964486741,-719143.6761542589 L -6807442.34024005,-712262.6697458944 L -6804816.981369182,-693133.7840480214 L -6808241.391544963,-688666.8356305538 L -6815530.369163125,-683604.3722944319 L -6824232.6590364,-674683.3197680664 L -6833994.821781514,-662287.803251706 L -6832434.90175703,-658730.1876007494 L -6809100.110096943,-632686.2155261138 L -6785368.68709116,-606199.4232725701 L -6761783.983174243,-579886.9188025207 L -6758424.806220066,-578713.4632455532 L -6753973.139783244,-575673.3897683534 L -6749858.437445052,-566466.8889306963 L -6746461.189225022,-556699.6034345652 L -6746390.501348367,-551647.2817156003 L -6749032.224184383,-545296.9194489827 L -6754772.079768666,-537987.1170518862 L -6761740.457253343,-532068.759746821 L -6771942.888584548,-527050.819306714 L -6780052.736127818,-522316.79225985555 L -6786749.271415979,-509796.0015424349 L -6790804.195187614,-505390.1982340408 L -6794527.498196177,-503612.6684028687 L -6801892.618346041,-501976.879645332 L -6813801.9114295775,-502353.189653387 L -6821667.078732087,-503340.09048369277 L -6831402.079521448,-493973.2771511962 L -6843854.945678528,-490538.6630473245 L -6852187.543522879,-477761.0873482224 L -6881865.542407346,-467628.63050357054 L -6910891.209075767,-459737.20031214715 L -6918854.226210682,-456620.1328469686 L -6947521.221479765,-463132.4051621585 L -6954413.456432739,-461099.61940292915 L -6962360.109602509,-455050.64709784667 L -6969687.2698060125,-450358.8708813847 L -6975872.848631431,-450064.5897775859 L -6981080.040452268,-447639.8480402323 L -6984178.284520027,-438981.91990108014 L -6986923.311843498,-409151.1399984907 L -6997207.229041964,-400284.30953130533 L -7009638.276578847,-400338.7404744324 L -7018172.02874306,-410659.95800446585 L -7028292.974207002,-418465.44207997655 L -7045936.779539265,-436966.0786475839 L -7050828.714562175,-439379.6034792386 L -7055405.3927871585,-439265.23022165004 L -7071771.806962567,-433778.82633529644 L -7079544.5790877165,-436159.687411915 L -7085811.755099886,-439036.3725461951 L -7096280.573972558,-438115.5915385103 L -7114946.069591321,-437903.1392419211 L -7126838.998709711,-437728.84838184796 L -7132617.036879337,-442784.9785832063 L -7137998.221064283,-453116.14280568913 L -7141623.674240438,-456816.2228499604 L -7145874.186357398,-459797.1342575067 L -7152907.79706368,-461301.29983741784 L -7182949.922002533,-461263.1289617028 L -7188608.291719555,-461252.3027221776 L -7192761.065323597,-463241.45121853147 L -7198533.537518683,-472103.3210315216 L -7204849.694106804,-476267.57669560896 L -7212241.976212421,-476447.41279486567 L -7215492.394024093,-471563.72950070584 L -7202659.149166974,-455606.5430094715 L -7198919.482193264,-446958.6822294283 L -7187667.975980824,-434459.8950485796 L -7155092.887348462,-408007.3270697892 L -7149059.482266956,-399608.94440948515 L -7149722.612473613,-388880.5475448787 L -7149912.857483377,-372463.224314358 L -7148809.458690635,-356930.2785716475 L -7140427.880270337,-334655.49166207726 L -7128654.508285059,-311987.45247506094 L -7125452.959729845,-297539.6241857395 L -7127643.504669675,-286863.91092524 L -7129882.918865963,-281183.6610703523 L -7129632.895289642,-278653.71752235404 L -7127219.488729242,-276368.6161366688 L -7116006.053782654,-273087.88395978586 L -7092448.511821493,-271036.85026214144 L -7078207.409364308,-271026.0425209651 L -7056459.922323442,-268572.3710849737 L -7054856.476378056,-260607.9599585671 L -7056981.676776791,-247470.74970077598 L -7061275.826134142,-240013.13503443945 L -7064770.812867087,-237837.42840593422 L -7076609.418073971,-236107.77753833286 L -7089062.17291156,-228047.03154193715 L -7107135.22620032,-220089.90419638655 L -7117451.8713290775,-219007.5718027111 L -7121751.364021986,-217452.0850603458 L -7125393.181163288,-215064.58004491183 L -7128393.57539864,-212040.67298804602 L -7131910.38075178,-197123.4231625848 L -7137231.786370171,-180282.20548599964 L -7147271.134647363,-170282.49585334517 L -7158310.688549331,-162017.67052904508 L -7169545.942116114,-161082.5095510453 L -7178552.579477218,-161740.39571628807 L -7183031.519189285,-159315.42330208124 L -7189499.738201828,-152508.095215249 L -7198745.601148645,-144042.7432982006 L -7205882.405022892,-139530.07208431745 L -7215503.303334192,-139954.18979876922 L -7225760.058576902,-135789.64534513903 L -7238723.769877233,-128966.51729191061 L -7247317.411927491,-123361.37490703657 L -7254649.915466554,-113798.7131618107 L -7265151.350950029,-103741.53761703367 L -7275935.426620626,-96701.60288074877 L -7281099.203840055,-87998.5114475207 L -7288464.323989919,-76952.57807878587 L -7297666.6610158365,-76588.31431967259 L -7298405.822434703,-83214.79328134835 L -7293986.772608683,-93891.13996278023 L -7298775.514463628,-103094.57501900523 L -7307532.1282484075,-108025.25663878131 L -7311625.0119664045,-109482.19526594192 L -7315707.0976937935,-108878.75522539037 L -7326083.521389107,-104339.51414922677 L -7338835.2803789675,-96087.38310924558 L -7346678.74038077,-90145.73984390966 L -7353772.1296536075,-87427.72244798834 L -7368371.903510128,-84970.56556947938 L -7380667.029948754,-83709.42812529813 L -7385727.502680726,-85405.41828427947 L -7394870.061140087,-91472.13468324844 L -7415997.9438951975,-110449.92809490481 L -7444605.049278232,-136159.31004371116 L -7446773.886917359,-143602.3627753499 L -7445545.476336455,-151214.08471080934 L -7450736.415511637,-162322.2277545027 L -7453769.426357789,-174148.58353086936 L -7456351.259307758,-178221.3133605969 L -7457085.077391067,-187063.14896032904 L -7463292.36351719,-202991.17600133762 L -7468374.654869358,-216038.0680535336 L -7473038.273616651,-222667.9459539043 L -7471076.044952437,-228318.9363328219 L -7473038.273616651,-233964.75893687544 L -7476826.92116631,-238566.2998433934 L -7482365.622430729,-253372.78009900896 L -7480403.393766517,-259753.87461872588 L -7481876.484588183,-266146.0363926246 L -7486540.1033354765,-270525.43325829104 L -7493166.062066474,-275231.53849083185 L -7501998.818382957,-285062.9567096613 L -7512554.577777937,-294394.4710145798 L -7517957.469263589,-298083.7899154496 L -7521637.357670742,-299552.9256405333 L -7524827.99691586,-308401.1767813036 L -7527279.363422619,-311105.8646413242 L -7532682.25490827,-311840.4464545872 L -7543727.263465287,-315530.2475287525 L -7554038.453938996,-311105.8646413242 L -7554277.568205221,-317984.63771425147 L -7551331.609200868,-322164.3761791897 L -7515718.055067301,-354986.84587309853 L -7497769.90224721,-370083.8635242403 L -7495840.290193801,-372310.7911319256 L -7494269.460859218,-375806.4375564486 L -7493041.0502783125,-380478.2550734351 L -7497112.226695605,-385820.1943562626 L -7513918.909457101,-411177.32968293526 L -7519756.614873791,-415943.4565483616 L -7525480.217812417,-419843.65381971427 L -7532057.195967466,-430493.720896738 L -7539927.817925023,-455295.83906690317 L -7545591.642297094,-467764.91719033715 L -7547309.302040033,-477325.0541082276 L -7546950.519321207,-488134.5623591513 L -7549054.1237387275,-496437.5070748322 L -7553614.437998565,-502222.3184378986 L -7553614.437998565,-519933.6357242549 L -7549054.1237387275,-549574.1588215745 L -7547928.906325788,-572115.1783378182 L -7550233.553743682,-587533.975304387 L -7546173.2866364885,-599276.3899812247 L -7535731.629719571,-607329.7361858571 L -7529904.722293488,-619774.6191427275 L -7528687.221022681,-636619.153861013 L -7522436.297656165,-650462.8867871566 L -7511157.629487974,-661304.032868711 L -7507314.658026809,-671999.5486784299 L -7510902.151256602,-682549.2753812727 L -7512059.873960853,-689322.8657053573 L -7521642.701006302,-696212.1253477212 L -7539351.628240677,-701045.9737380362 L -7554049.363249093,-701598.3238462696 L -7562920.079511939,-696228.4749172891 L -7585651.4082124345,-691252.9284044949 L -7622243.349350582,-686665.8711327892 L -7651709.395924579,-686693.1906576266 L -7674054.779950494,-691329.4066309406 L -7691057.051057314,-689782.1694594163 L -7702699.956599383,-682051.8502172282 L -7710896.744664963,-680302.5541451444 L -7715647.415254057,-684544.7274489581 L -7720794.828508337,-685709.1358489175 L -7728594.762589241,-683019.4987852365 L -7729942.8416227475,-684244.0002816926 L -7747260.369527495,-705136.4232293996 L -7763306.072249927,-724504.6857361187 L -7781699.836991664,-747573.57613969 L -7802941.9335443275,-774222.1943556996 L -7806746.72242015,-775979.9159033073 L -7813307.4479295425,-775804.7466892683 L -7821987.919182621,-775344.7340222475 L -7835500.658211543,-778110.0291597666 L -7844757.319148967,-781981.7767201408 L -7851981.174865014,-785727.7371254764 L -7865287.304919027,-790465.476901893 L -7874424.408723338,-791281.5600569808 L -7882610.287478821,-789884.8598052054 L -7905162.28047965,-780557.9605044859 L -7918000.979991819,-779692.6984317509 L -7927931.680445995,-779522.9001369136 L -7954571.21382926,-784139.50140386 L -7972801.895516985,-784873.381425437 L -7993995.011493701,-781833.9537459889 L -8003056.084085799,-780097.9062278809 L -8015742.609854055,-784840.5175567691 L -8024385.009841282,-792048.4095268311 L -8032445.876808604,-809195.8075080091 L -8038126.065145821,-822726.1245079313 L -8047991.532378394,-825450.0944585685 L -8058933.2364479555,-827757.7341564868 L -8064314.420632903,-832225.2548090399 L -8067543.131143872,-840015.6209491387 L -8068320.363828589,-850006.090852481 L -8067200.6010707,-866263.0700644867 L -8066162.435499562,-872094.73055744 L -8064656.839386582,-889654.5531263739 L -8058607.070339931,-898826.7510116514 L -8054813.079454716,-903279.0656715934 L -8055541.442882976,-910641.8608403484 L -8058454.896596017,-925744.7816623254 L -8061373.8049641065,-936424.128814295 L -8073527.555649428,-948546.0596637789 L -8089078.665874265,-964068.8806168697 L -8095769.746507376,-988925.94537776 L -8103656.73243008,-1018306.1916447178 L -8109858.675220645,-1021256.9643618888 L -8115685.471327239,-1019781.5509498841 L -8121887.414117803,-1021256.9643618888 L -8127355.53882506,-1033073.1691592028 L -8132823.663532316,-1035287.0463845856 L -8141542.317370736,-1031140.3428637097 L -8147825.746028562,-1027908.0477473319 L -8163806.215529392,-1024951.2603766016 L -8167089.249951867,-1027908.0477473319 L -8165991.305814172,-1031597.3195713406 L -8159234.880639965,-1042331.4713928482 L -8151288.227470196,-1056049.5645591193 L -8142047.8191784285,-1068581.7661552401 L -8133454.17712817,-1081404.7677391418 L -8127051.191337231,-1095064.9764739212 L -8122691.920077766,-1122251.3903093827 L -8119686.071187366,-1141023.860048433 L -8111777.377963958,-1174463.120930836 L -8097286.251930454,-1201184.3072567007 L -8091823.581878246,-1213495.718070482 L -8078707.696834001,-1229515.416379512 L -8072668.837097446,-1238220.4652478434 L -8064662.294041631,-1245066.525118785 L -8042664.672104955,-1254390.7080232138 L -8016373.123449909,-1300441.1490001157 L -8010339.607048913,-1307766.5234656448 L -7983776.21619735,-1314638.3714505092 L -7963360.444224845,-1320007.0509966 L -7948233.349940437,-1325632.0950034652 L -7943265.2723858245,-1328614.4183416485 L -7939275.693155285,-1329997.3417307732 L -7942580.434878464,-1324654.6930785167 L -7949831.452550266,-1317858.4226488175 L -7958049.9479165515,-1313716.9070992214 L -8000381.744638981,-1303326.748298051 L -8004708.5106071355,-1301123.6863918519 L -8010209.251925195,-1296801.3110849583 L -8010241.868535996,-1286904.6824716302 L -8009100.3984774025,-1279140.5095558243 L -7996647.532320322,-1253698.0375810822 L -7991788.213908214,-1247426.4250478751 L -7975106.65425437,-1233640.6129965764 L -7978900.645139586,-1231735.8626640625 L -7985048.152699154,-1231503.2764519185 L -7980542.162350823,-1213456.9556871408 L -7970301.548434278,-1201073.7271727163 L -7969845.027202534,-1193274.1976161064 L -7977693.941859387,-1169084.8267453676 L -7992016.53018383,-1154623.4223286542 L -8002175.546913625,-1137798.6857996897 L -8010073.330826936,-1131106.428087243 L -8027564.851095791,-1098049.15865485 L -8014253.2663867315,-1078388.817238249 L -8012361.7255991725,-1068421.920668959 L -8000870.993801018,-1054247.7484500203 L -7993369.952552894,-1049597.626483574 L -7988369.25838748,-1043879.3582802758 L -7990663.1078147665,-1034207.6685288516 L -7986075.520279686,-1021113.8854492455 L -7980129.0557204895,-1014194.2760741848 L -7972649.721773071,-1011425.6144178029 L -7963420.222791401,-1011464.1653884007 L -7936851.3772847885,-1020183.4903200758 L -7930557.039316864,-1024108.8398157507 L -7926545.641466129,-1031101.7730066478 L -7913239.511412119,-1045289.5553446265 L -7912413.29815145,-1063632.2825739055 L -7909548.8250143565,-1085650.6980469262 L -7912782.878860885,-1100040.5909754375 L -7926752.250441041,-1120540.3488440695 L -7932872.596044856,-1135126.1126205781 L -7946722.299172411,-1148717.897978213 L -7955201.727425116,-1171970.052903343 L -7958702.1688131085,-1179211.8980067712 L -7961332.982339026,-1189247.9034712396 L -7964311.669273673,-1207021.3129813615 L -7955016.9370703995,-1213473.6167061324 L -7955951.798154081,-1228042.6843336043 L -7933111.710311079,-1232051.461266982 L -7883702.888280958,-1255753.7363756658 L -7853100.826303414,-1261760.996657581 L -7818248.363528402,-1274432.987953922 L -7810171.132595932,-1280687.6518827626 L -7803175.593155503,-1291103.7003109069 L -7797767.247014802,-1292301.9466826292 L -7779601.798548683,-1282534.3714384374 L -7770633.12113394,-1285928.5916786795 L -7767083.699169998,-1293550.2293795405 L -7772030.069423906,-1308410.3438336877 L -7782449.907720629,-1308415.9136647065 L -7813802.040427137,-1303015.9123763086 L -7816867.667884093,-1309409.40539188 L -7816856.869893488,-1315004.8045830042 L -7824259.949989712,-1332741.1905623036 L -7819650.655153925,-1346108.5544425403 L -7814938.055830682,-1356907.75922372 L -7805947.671115236,-1361260.7136123462 L -7792804.624115239,-1365959.1258205192 L -7782830.397740159,-1358753.4076955137 L -7776791.538003606,-1351877.2244660659 L -7773508.503581131,-1345208.2332068377 L -7771274.544039891,-1327148.1864118786 L -7765915.067155649,-1308859.9119319932 L -7760294.768704479,-1296152.1589899512 L -7751353.364564982,-1286577.5359635255 L -7744477.382257663,-1287204.2289226875 L -7739569.083269606,-1288801.743721854 L -7706934.216070686,-1290953.9652790206 L -7687121.795738283,-1284431.0605861149 L -7661895.574610127,-1281103.552044712 L -7638321.668683818,-1267209.4577049639 L -7614100.996515999,-1250368.1123364295 L -7607926.215681186,-1238098.6482915126 L -7605882.501149712,-1226359.576393407 L -7600012.067802728,-1218504.4857533844 L -7605871.591839615,-1210424.3330417296 L -7602708.1145502515,-1196897.097394181 L -7595783.262986474,-1183281.3044489592 L -7585303.534803703,-1174628.9770381486 L -7555435.402228961,-1172290.6482170313 L -7523121.246483018,-1178139.3106516832 L -7473244.882591564,-1183425.0071950704 L -7457188.270559032,-1187981.5645531914 L -7374606.462911497,-1190425.9426717374 L -7358870.56233194,-1183900.510114321 L -7357343.258918258,-1177387.5114340973 L -7357158.468563541,-1172390.1556207913 L -7330584.168401879,-1148038.4468176498 L -7308776.791474969,-1144724.2990079944 L -7290241.650979925,-1136915.194853213 L -7271097.815509224,-1132724.1090020004 L -7250138.470463176,-1126811.091528163 L -7238359.643822848,-1127556.3988226373 L -7229537.796816463,-1129632.3047157945 L -7219123.301855298,-1129980.1096768896 L -7145412.210470605,-1170676.6073320906 L -7105933.97757517,-1169626.4677907005 L -7099851.703237207,-1172274.1202796835 L -7094600.98549547,-1175839.5805986372 L -7109162.688086138,-1182037.1511206308 L -7142025.871560674,-1184425.8470526112 L -7152000.097935753,-1180273.421704289 L -7157642.103687627,-1190757.6946331777 L -7146928.715893682,-1190475.6656204981 L -7110358.48205624,-1193998.8150557757 L -7068428.882654045,-1191675.8339422739 L -7034266.712041441,-1199143.0518470225 L -7017079.5392604135,-1200382.1565433433 L -7007197.819382186,-1198905.1379894507 L -6979993.005624672,-1203745.8770120149 L -6928779.47200981,-1198053.306604775 L -6888393.539986445,-1202750.0281303728 L -6893057.27005323,-1196001.0223479224 L -6906309.076195734,-1191913.584578439 L -6927735.851783623,-1190624.9481606192 L -6944107.609294591,-1180759.9783545467 L -6979014.61862009,-1182584.5413970395 L -7003507.021664936,-1179018.3927946542 L -6995647.309017476,-1176270.825069967 L -6995652.763672525,-1166161.1277428316 L -6992304.384708955,-1164121.8129269357 L -6988776.781365207,-1164044.5118792427 L -6980433.274210759,-1156557.1830096063 L -6978155.788748619,-1151662.2223361132 L -6975459.742001097,-1141344.176449052 L -6979139.630408252,-1130206.4786714183 L -6984248.972396681,-1125237.7652597476 L -6974296.564641799,-1126877.3454736131 L -6968654.447570432,-1132111.222670366 L -6969480.6608311,-1137368.0208485832 L -6968654.447570432,-1143459.4446777734 L -6963072.220385114,-1141553.9897595237 L -6959153.2177117355,-1138803.7791492676 L -6946439.529987727,-1109668.233061531 L -6937476.307228035,-1094375.5620465411 L -6935182.569120239,-1094954.723536996 L -6933051.802746965,-1095495.2597348178 L -6930388.372610244,-1098424.231689828 L -6926425.955335458,-1105618.2292255065 L -6923006.999814724,-1101055.610428203 L -6920952.375973153,-1099306.9108777803 L -6918881.388166435,-1098749.7122723171 L -6920767.474298946,-1105270.6546181778 L -6918223.712614828,-1113624.8726822743 L -6919098.795131954,-1116544.3105865885 L -6915125.4685470695,-1117178.9770516837 L -6910391.161923123,-1116069.702514232 L -6903645.646059014,-1113768.2961133325 L -6891633.159807512,-1104189.3070639384 L -6883691.8499733005,-1094265.1981732456 L -6883012.355801499,-1088727.8779546376 L -6880142.428009357,-1085617.6078091543 L -6874951.488834177,-1082342.1561610848 L -6872413.070485618,-1077225.4778374333 L -6871945.639943777,-1085275.6394017395 L -6875000.469410125,-1091143.4016731062 L -6875750.54013909,-1097850.552227155 L -6860107.146056384,-1098148.4622640454 L -6856041.31297465,-1106970.0270560603 L -6847518.470120535,-1101657.020219321 L -6824928.405853856,-1077435.0411595085 L -6816584.898699409,-1073432.5354443693 L -6791978.281857011,-1068785.637846279 L -6776470.697553072,-1057146.0196105444 L -6767387.917660267,-1046699.8030567229 L -6772785.465810361,-1035749.7103418526 L -6787265.682533768,-1030281.3265664722 L -6793065.428004098,-1023448.1987402554 L -6796397.33168303,-1016742.8387504712 L -6796451.655594539,-1009994.6328112157 L -6800838.200129247,-1002163.3936267353 L -6801490.421025805,-999406.7056067787 L -6804110.325241626,-988370.3087444913 L -6810067.699110918,-975082.3011605154 L -6818014.463600178,-961001.2667640599 L -6859362.4186629765,-960676.9092890559 L -6849143.623366627,-954899.6830045186 L -6839756.495985993,-950683.9404112074 L -6824330.508868806,-939621.8794939629 L -6812057.089730885,-948309.8119902 L -6794494.8815853745,-948930.7668346429 L -6775486.8558934415,-958577.0329081477 L -6768333.799373538,-960077.7382369826 L -6732769.11449643,-955026.0986321139 L -6724197.291066366,-962117.2284414126 L -6717044.123226974,-964200.84048546 L -6697813.235914471,-962875.8558824889 L -6681120.76695053,-955256.8672118997 z" /></g></g>
</svg>
