<?xml version="1.0" encoding="UTF-8"?>
<svg xmlns="http://www.w3.org/2000/svg" viewBox="11368774.72814009 -2673820.282344031 814578.2588094547 1714743.057709468">
  <g id="map"><g><path fill-rule="evenodd" fill="currentColor"    d="M 11584347.593729042,-1163093.937854785 L 11586467.450792221,-1157468.768683078 L 11585662.944832258,-1144315.6088689312 L 11581325.380873498,-1131410.0345940152 L 11582608.226685397,-1125789.8236605187 L 11579281.666342022,-1122190.684048855 L 11571900.18222701,-1146359.2192066049 L 11562529.418811524,-1156822.3053794624 L 11560474.794969954,-1160861.5078460872 L 11565921.212376503,-1160568.6292669035 L 11575650.758510819,-1167183.545881986 L 11580314.377258113,-1167343.8213576984 L 11584347.593729042,-1163093.937854785 z" /><path fill-rule="evenodd" fill="currentColor"    d="M 12019461.085517295,-2452551.365259825 L 12014242.98438636,-2451470.589490623 L 12001252.111130277,-2451254.3945345264 L 11989913.664395528,-2440339.2580725094 L 11982064.749738675,-2435821.029928978 L 11969845.65451226,-2432015.877781148 L 11956822.164645372,-2425872.1973928777 L 11953060.79037096,-2415042.940216089 L 11952745.533573033,-2407203.5138467248 L 11950625.676509857,-2398458.953751219 L 11929524.9557105,-2385766.2371507157 L 11923622.017072205,-2387058.394818288 L 11919556.183990473,-2391791.3049795693 L 11913327.079244154,-2390830.624452029 L 11909119.981728602,-2388467.120250838 L 11904108.48957258,-2388787.219365235 L 11898520.69641272,-2385917.619785345 L 11891215.354829412,-2386814.0220290725 L 11884497.112240547,-2390818.9396908716 L 11880594.362212826,-2391866.9024952548 L 11875941.541456139,-2391913.525097976 L 11875061.004283965,-2387169.0193089657 L 11881942.441246334,-2368779.2376760105 L 11883736.132201483,-2360315.0967673915 L 11861178.684545608,-2335514.866647584 L 11863635.617026906,-2319549.195425769 L 11857526.0694137,-2307282.769857604 L 11843893.773251666,-2297439.5758570107 L 11818314.22405973,-2272088.098009754 L 11806790.875650777,-2271532.894844695 L 11798094.040432552,-2265813.379878443 L 11779156.70261727,-2224222.341744844 L 11778950.093642361,-2209994.561934163 L 11775971.518027203,-2199591.3683515694 L 11776612.829613663,-2189602.7091135397 L 11768296.484414972,-2169986.084665515 L 11759686.701038545,-2161668.8560252194 L 11757762.432320694,-2150969.747050745 L 11770035.851458617,-2128968.8658492076 L 11771394.728482729,-2125088.2073819153 L 11778515.279711321,-2113284.534245083 L 11781972.306497905,-2104864.913000364 L 11787429.521895066,-2096448.8306029935 L 11807171.365670307,-2074611.0186558932 L 11815955.14141084,-2067936.1292460272 L 11826532.71942602,-2063397.6858965093 L 11845720.080817617,-2043773.4073121755 L 11855417.01034113,-2031279.9239636248 L 11851003.415170157,-2022768.5263968452 L 11853177.59614484,-2004751.8169897532 L 11839480.066761201,-2010065.002455673 L 11841110.785981832,-2007941.8572790923 L 11857395.602970488,-1998116.5219596277 L 11881768.448882224,-1963610.1018670378 L 11902967.019513985,-1946611.0855759755 L 11924535.170855183,-1927288.6201409409 L 11931264.322754145,-1908948.9315094189 L 11950712.617032167,-1896829.4788396284 L 11972335.092284871,-1879258.3761781391 L 11971389.32189109,-1875315.9345518728 L 11977248.845927976,-1870602.7642437834 L 11991794.295872988,-1861287.3661118955 L 12000588.98092362,-1851448.7562741975 L 12004002.481789304,-1842095.91893883 L 12009372.756664153,-1840606.3647440355 L 12015417.071055757,-1842900.2399733933 L 12021472.294757457,-1843795.0719366218 L 12025777.242105413,-1843098.482693325 L 12032299.785029463,-1832848.8521116378 L 12041398.928887414,-1823684.693902821 L 12045768.998137487,-1815270.8959769902 L 12049312.96544638,-1816396.7210670651 L 12052269.945080323,-1815123.8719447018 L 12053009.106499191,-1808087.5112222827 L 12054346.2762226,-1803456.2350264487 L 12066510.936218016,-1789957.7348760571 L 12072316.136343395,-1777257.7449232356 L 12086828.969677605,-1756680.1547208733 L 12097558.721436696,-1744996.3958377056 L 12105190.117808538,-1738415.0942836879 L 12113930.478947662,-1732794.070211102 L 12122496.847722678,-1710013.0132459418 L 12127138.759169266,-1689368.9761875274 L 12136324.843549527,-1666487.6588948618 L 12143271.402414009,-1656510.3846904628 L 12143510.627999723,-1637690.8557051243 L 12149109.21915019,-1618324.098614731 L 12155131.714921597,-1605263.991047322 L 12156903.698576044,-1591924.6064002314 L 12158751.824762193,-1585310.7308452658 L 12161056.472180087,-1580345.7688775507 L 12167589.924414236,-1557751.9833821664 L 12165894.083291491,-1547273.7832298528 L 12161328.203057112,-1557556.036794778 L 12161882.685440753,-1527280.187128169 L 12165894.083291491,-1511280.303774935 L 12164089.48302624,-1491664.9977576295 L 12168285.671231693,-1484785.2263505044 L 12175765.00517911,-1462644.365637952 L 12181015.722920848,-1454700.9085442317 L 12180580.90898981,-1427651.621841503 L 12183352.986949544,-1414025.0296579592 L 12176286.759632459,-1422141.1846419587 L 12171177.41764403,-1431401.9565029521 L 12164328.597292464,-1426509.3048677496 L 12158197.342378553,-1419294.460610504 L 12167742.209477639,-1390257.8386057 L 12156849.374664536,-1393018.3148474093 L 12157838.670979217,-1354006.0217943324 L 12162350.115982594,-1344897.093064391 L 12162676.28209062,-1340535.317357283 L 12161350.02167731,-1335318.6119059878 L 12158338.718131859,-1341024.2651847783 L 12157708.204536008,-1346897.5948979966 L 12155990.544793067,-1345597.2197241585 L 12156077.485315375,-1342574.452977247 L 12152446.577484172,-1335696.4378803442 L 12151359.542656576,-1327175.9385112117 L 12155273.090674905,-1319934.9576647913 L 12155936.220881559,-1314410.8735419626 L 12153109.707690828,-1307577.8356645636 L 12148576.555386743,-1300341.2583964486 L 12138238.091637792,-1299386.915562665 L 12135879.120308392,-1285262.9631905768 L 12132346.062309593,-1270274.9727475902 L 12113876.155036155,-1267896.851762443 L 12100461.26583964,-1254712.0830180652 L 12083872.101363154,-1249797.4995709981 L 12069098.335142523,-1236725.232660637 L 12052748.284932263,-1224654.4441293022 L 12042116.383005576,-1223054.607776329 L 12033071.674378624,-1220458.479208492 L 12022657.17941746,-1200409.8009731593 L 12005263.508981012,-1198114.142910952 L 11974020.135417007,-1181733.1120399537 L 11963540.51855373,-1173849.5167662194 L 11953984.853464033,-1170770.6765530978 L 11940298.122071002,-1163950.5737912185 L 11937352.16306665,-1166382.1794349675 L 11932797.19214237,-1172235.4041829451 L 11920958.586935487,-1175264.6717144116 L 11915164.296120206,-1181827.0977664574 L 11913490.162298165,-1190282.0976418222 L 11911924.78761863,-1193633.7292053988 L 11909370.005304925,-1188849.7962254102 L 11907413.23129576,-1168742.1879071442 L 11905336.900153484,-1164171.6116416652 L 11900281.882076561,-1162187.6398509317 L 11890334.817657238,-1167902.0746815419 L 11880833.587798541,-1179488.4005877336 L 11867309.93945952,-1171483.6185010967 L 11871451.803753465,-1170499.7895741353 L 11877615.786597671,-1171157.5968880337 L 11882377.255177371,-1169156.7054846438 L 11886421.269638909,-1161430.6362440672 L 11886280.005205093,-1157225.7070592463 L 11884181.855442623,-1152341.742370664 L 11871506.238984464,-1151562.7731862564 L 11854601.706390562,-1153280.9404640985 L 11851525.280942997,-1152623.465259736 L 11866929.44943999,-1145094.307293577 L 11881018.378153259,-1140747.7704075722 L 11887280.09951038,-1135981.9659552644 L 11887280.09951038,-1132056.0407925167 L 11879365.951631924,-1125695.9855799286 L 11873245.60602811,-1117918.549669979 L 11873125.937575506,-1113095.0358724126 L 11872984.67314169,-1107709.3953011965 L 11866168.469400927,-1103052.7395737434 L 11861907.047973868,-1103979.5948138009 L 11849861.945111565,-1112068.6117046555 L 11815052.896937963,-1143956.580736329 L 11820303.614679698,-1134954.8991465466 L 11856351.982744304,-1098689.0445556655 L 11862689.735313637,-1086759.06833419 L 11863592.091106007,-1078344.6677296306 L 11859885.0407431,-1074105.0851587993 L 11853753.785829188,-1069121.9269035147 L 11841947.797233108,-1068747.1437176717 L 11822575.645486789,-1082220.7607406543 L 11791593.204809206,-1114563.068684349 L 11781048.243404832,-1118972.717869269 L 11812389.466801241,-1082011.283974832 L 11817520.627409866,-1073041.226917493 L 11822814.759753015,-1062678.8733571297 L 11821303.708984986,-1056523.4198363558 L 11818607.662237464,-1050760.1332536833 L 11744315.037832867,-1016528.1882637192 L 11733226.503354948,-1001783.7210172833 L 11724421.02031371,-983612.3265573587 L 11709832.044447798,-973498.5150905761 L 11701276.47366339,-964250.2692447562 L 11676512.339741519,-959077.224634563 L 11662988.691402497,-960698.863292336 L 11677001.477584064,-977474.4797255835 L 11668348.168286739,-983694.7834030127 L 11667913.24303621,-1026933.4034948425 L 11671315.945911288,-1074397.2759628007 L 11677773.366933225,-1098126.4324303803 L 11687111.51373791,-1104045.8077133903 L 11698852.269112386,-1107698.4340565382 L 11699113.201998804,-1112703.3141443033 L 11697950.024639506,-1118404.2590538561 L 11691644.777361484,-1126513.0633230198 L 11684741.63309841,-1130261.6577407934 L 11674435.897279752,-1131868.3325735033 L 11666500.042100588,-1141813.5718001835 L 11660455.727708988,-1141404.914731839 L 11651084.9642935,-1138102.4614863438 L 11645431.937912036,-1142371.4250279753 L 11643355.60676976,-1149071.4303642455 L 11634680.47885224,-1157341.6929619275 L 11624689.999831507,-1165403.9258400185 L 11629212.354144985,-1166664.0138630162 L 11634452.273896113,-1171301.2497883174 L 11640039.955736483,-1177260.363858589 L 11653998.306687051,-1178084.0573871823 L 11668000.29487801,-1177807.6791529537 L 11671913.842896339,-1179355.6971918412 L 11677555.959967704,-1185669.9726430846 L 11686752.842338573,-1193788.5758810584 L 11693710.310513152,-1198291.101270648 L 11695351.82772439,-1201931.1853668327 L 11692568.84045456,-1210496.297743716 L 11691025.173075728,-1219279.404013487 L 11693634.16798145,-1222058.1922501614 L 11706298.986449001,-1220491.6947874823 L 11720192.104177965,-1216401.3228917029 L 11723572.988432847,-1214552.7468031752 L 11731574.076833613,-1225313.2890880564 L 11733715.752516985,-1226619.7926991752 L 11738944.651638528,-1226597.682738587 L 11752729.232863966,-1228579.700164327 L 11766220.153272694,-1231431.2669092088 L 11772601.431762928,-1230971.6568977747 L 11778797.919898445,-1223724.4187430178 L 11783537.681177441,-1216639.2455573268 L 11785972.795038546,-1216063.654671277 L 11792984.698444122,-1219085.6727818192 L 11798768.079949304,-1215305.4719999828 L 11810867.506723115,-1209124.0081000736 L 11818118.524394918,-1208858.3734870155 L 11814509.323864417,-1223259.472376474 L 11818564.247636054,-1233502.2552419272 L 11817781.448976796,-1236315.3399219108 L 11810943.64925482,-1241028.5038596883 L 11787799.213923989,-1259882.2048240013 L 11783842.13998476,-1265496.6552357625 L 11784385.713058306,-1274366.448239998 L 11783613.823709145,-1287387.3432636023 L 11781537.492566867,-1295575.1712742073 L 11781885.365975596,-1300368.9868146132 L 11783331.183522021,-1304198.0143628188 L 11787603.514259174,-1305718.6391430055 L 11791690.943322122,-1306234.7748543133 L 11794995.796364792,-1309592.6477910823 L 11800540.063603753,-1318180.434601744 L 11811324.13927435,-1317414.297190291 L 11826489.193505118,-1312534.561847222 L 11837697.28511615,-1309520.4647088174 L 11844306.879881999,-1310108.8469065465 L 11845785.314039223,-1311335.5500229436 L 11845589.61437441,-1315948.5914147834 L 11846372.301714176,-1335663.1034547165 L 11845937.487783138,-1339840.7676279654 L 11855482.243562736,-1341785.4098056073 L 11870103.83603945,-1342202.1185745925 L 11877800.576952387,-1343352.364221605 L 11884986.250083093,-1351666.071709376 L 11903467.06666663,-1354528.539539688 L 11916827.631951638,-1365731.1346466998 L 11928883.53280455,-1377254.9324920226 L 11934797.380752943,-1380325.7065008688 L 11942320.24062126,-1382328.5499542719 L 11947929.629762335,-1382039.247119808 L 11954974.038459225,-1375369.193558626 L 11960833.562496107,-1379379.9342636461 L 11967562.714395072,-1387225.0182922042 L 11971084.974403262,-1394888.4130002793 L 11973020.04111172,-1407225.2938832217 L 11971693.78069841,-1426152.6966513344 L 11968127.99476932,-1440972.3631409053 L 11964790.636435337,-1452090.7033885228 L 11964105.798927978,-1463202.2997722658 L 11971911.18766393,-1485499.91976424 L 11978586.015651384,-1509793.7493676944 L 11977303.169839483,-1519396.542113659 L 11970030.444866978,-1534573.283153294 L 11962649.072071455,-1553072.1313890389 L 11954539.224528184,-1573415.5337299178 L 11951495.304371934,-1576451.7618574323 L 11949321.12339725,-1582121.9930588715 L 11948081.80350625,-1588746.3118825592 L 11951299.71602661,-1609560.4857684395 L 11951756.237258352,-1616550.9123253017 L 11961105.404692626,-1626035.3797931427 L 11966084.280237846,-1636904.664407875 L 11970769.717605336,-1648890.9806498087 L 11969008.643260986,-1655234.703517888 L 11968378.129665133,-1668163.1308182075 L 11969573.923635235,-1674432.958425192 L 11967367.014730256,-1679511.891546594 L 11964660.169992128,-1686881.8364349713 L 11966432.153646575,-1691670.685700459 L 11972998.222491525,-1695773.6357652936 L 11976824.829987543,-1702855.6769495343 L 11981727.674320552,-1711088.738547308 L 11983891.057304628,-1718631.5717500874 L 11980390.615916634,-1724936.8137944473 L 11973998.428116303,-1734372.5951937067 L 11962344.613264136,-1742943.377870702 L 11948897.21877631,-1753881.3673322333 L 11942287.624010459,-1760607.9580608518 L 11937080.320870131,-1767471.966900377 L 11932286.235679626,-1775473.1522701562 L 11929655.422153711,-1781861.2533323579 L 11932210.093147926,-1786041.9233331294 L 11951332.332637412,-1795660.3179004022 L 11954821.864715308,-1799125.3997650985 L 11956843.871946078,-1804474.017157998 L 11955311.113877345,-1809705.0285106632 L 11950158.245968016,-1812527.4130836274 L 11944189.962788627,-1814456.3089164891 L 11935384.479747387,-1820515.7156446034 L 11918947.489014816,-1837151.9538520274 L 11911402.92184579,-1840861.189661129 L 11903467.06666663,-1845653.0572688344 L 11899249.05984098,-1850689.5025610155 L 11894607.148394393,-1864513.01641421 L 11892530.817252116,-1865749.0406244178 L 11887986.755637934,-1861576.4401571667 L 11882192.464822656,-1857189.2996125715 L 11877354.853711251,-1857937.3967322367 L 11872941.14722079,-1861842.8791670965 L 11870832.199467711,-1867104.0429625222 L 11865951.062435407,-1874323.3181727184 L 11860667.728082865,-1880205.7814152662 L 11859276.234447952,-1900003.5330763354 L 11858417.515895972,-1906466.5512400996 L 11855775.793059958,-1915482.8971586954 L 11851666.545376815,-1918710.7465097215 L 11847285.566816645,-1921120.596893413 L 11836979.719678495,-1937559.1149810352 L 11829870.077760002,-1946076.153328731 L 11800561.770904455,-1969220.4857069396 L 11796919.953763153,-1972917.9986370148 L 11789038.4224955,-1982452.2419042068 L 11775319.185811156,-1995971.807029408 L 11765513.497145139,-2006886.092392282 L 11758371.238615843,-2018177.2316082742 L 11755077.29488327,-2027983.4691915286 L 11754055.493277278,-2035639.6932592278 L 11746271.811842032,-2046614.8711549302 L 11739553.457933675,-2055616.6647950043 L 11733074.329611035,-2058539.912494584 L 11725671.138195317,-2059758.4951231321 L 11718963.69359706,-2065114.559284503 L 11706722.891069941,-2077233.5996331917 L 11701298.292283585,-2085040.027177218 L 11698102.198383419,-2090299.6175326274 L 11698232.66482663,-2095715.1736557072 L 11701178.735150473,-2104733.03223248 L 11704733.500449976,-2109871.505489455 L 11704853.057583086,-2113886.894031357 L 11701363.52550519,-2117162.771615351 L 11687785.553254662,-2122975.9612041637 L 11656987.902931796,-2131805.1852025073 L 11645497.171133641,-2138535.9721344784 L 11634887.087827152,-2147176.673818125 L 11626853.382815585,-2153033.1938570784 L 11589315.671283657,-2177973.167388717 L 11577933.698628008,-2182140.544025943 L 11568138.807952598,-2186573.794221155 L 11565160.232337443,-2190875.4833936924 L 11565692.896100888,-2195005.41292931 L 11569660.768030724,-2198081.789048977 L 11580292.669957409,-2204501.2417619526 L 11584228.036595931,-2211833.6941508283 L 11582966.898084735,-2221470.542789211 L 11578727.295277873,-2231198.7922524805 L 11580792.71711005,-2234586.95870781 L 11584217.127285834,-2234973.783940972 L 11591381.093115835,-2235262.371113795 L 11606154.859336464,-2235810.828910274 L 11638039.655806419,-2226951.494812444 L 11642670.7692624,-2227920.9016680582 L 11659955.680556342,-2243998.5614787354 L 11666478.334799886,-2253628.701604683 L 11667967.678267207,-2261662.343661324 L 11671381.179132892,-2266773.3004520866 L 11680523.737592254,-2275177.020934972 L 11680665.00202607,-2282843.8484481378 L 11676153.557022693,-2293072.9907940305 L 11671609.49540851,-2297028.326106036 L 11667695.83607069,-2298737.0831906716 L 11655009.310302436,-2297370.0648723366 L 11652585.10575143,-2299669.641367749 L 11650910.97192939,-2307300.2162699793 L 11650302.165634243,-2311989.0353590534 L 11646116.886738887,-2317450.190546064 L 11632462.771956656,-2322100.983240128 L 11620885.210955685,-2323417.576561979 L 11618167.345587967,-2325395.495616887 L 11622624.57799933,-2330663.38899706 L 11630505.997947492,-2335874.7975066225 L 11636528.60503839,-2338881.5921402476 L 11641257.457007287,-2344275.288430763 L 11642148.903489562,-2349798.47156874 L 11636267.672151972,-2354713.138629978 L 11628592.749859229,-2360158.097793172 L 11616145.338357197,-2370558.6989924693 L 11598969.074886268,-2381622.78508182 L 11588511.165323693,-2385382.183978103 L 11583021.333315732,-2384870.0067478633 L 11564094.79349106,-2375362.7684566383 L 11553908.614805512,-2369180.4406634094 L 11545440.095862906,-2358158.890816178 L 11536601.996210862,-2355793.8594221286 L 11527655.137416316,-2360646.3583795805 L 11517512.373332178,-2365645.423112694 L 11489367.243835934,-2372884.9361466267 L 11477539.547939148,-2378963.6874108417 L 11452971.0023626,-2416051.5011131754 L 11449340.094531396,-2423614.8607381713 L 11451688.26787019,-2432167.6568818144 L 11453384.108992934,-2444414.8307226724 L 11455840.930154743,-2452358.60823598 L 11460189.4034236,-2459949.2983660754 L 11461363.490092997,-2466707.3240668774 L 11460298.051246613,-2473309.9799979567 L 11456743.285947112,-2477094.8266765983 L 11452123.081801228,-2478212.4324160446 L 11448676.96432474,-2479710.355860775 L 11445415.637202969,-2488413.7132644495 L 11443447.953883708,-2487283.815164242 L 11440425.852347653,-2476702.8969757683 L 11436805.742507055,-2472900.52686399 L 11431989.838696357,-2471005.405208437 L 11428282.899652941,-2472672.325045001 L 11425923.817004051,-2476913.5386118763 L 11424858.489477158,-2484093.6689116363 L 11422455.992226858,-2493736.289280222 L 11419433.890690804,-2500038.817234046 L 11408856.312675625,-2506455.053348882 L 11403866.527820308,-2514784.988498112 L 11388136.0818958,-2532930.6349541857 L 11374960.418285,-2545661.123798364 L 11368774.72814009,-2557113.9130808106 L 11374177.730945231,-2561382.037374298 L 11380972.116065798,-2567568.771871184 L 11388233.931728208,-2577206.0894838693 L 11396419.810483692,-2589340.204423535 L 11399833.311349377,-2596745.1303111785 L 11402225.010609072,-2599738.58975825 L 11407008.186489476,-2601925.2540550483 L 11412161.165718297,-2600728.8052288513 L 11421216.672335856,-2595825.9849964967 L 11434848.968497891,-2589563.9553049603 L 11446991.921192603,-2582168.146159905 L 11451905.67483571,-2574722.7239334174 L 11458689.150646178,-2567586.359299496 L 11463896.453786505,-2565427.8215779974 L 11466505.448692229,-2565998.3855851316 L 11474354.36334908,-2571363.026415955 L 11481083.515248043,-2576752.897341413 L 11481224.891001351,-2582868.778436906 L 11487432.177127475,-2588362.4907443626 L 11495552.933980845,-2597410.9000260634 L 11499368.632166764,-2603552.0422426015 L 11502271.17656971,-2604200.46034358 L 11505543.413001576,-2602379.135476694 L 11518338.586592846,-2583404.490898842 L 11520784.609764049,-2582268.217451164 L 11524393.810294546,-2585111.9410701357 L 11529437.919061372,-2599933.1520278486 L 11534949.569689527,-2605680.1709062736 L 11536852.019787185,-2604230.0387651874 L 11567769.227243165,-2576270.309493591 L 11570715.297567006,-2576494.0048176046 L 11574041.857910383,-2577747.5256451685 L 11576205.12957497,-2582044.5649758033 L 11578640.243436072,-2591719.71773103 L 11583227.830971153,-2602090.267477766 L 11593153.076770283,-2607867.5029116734 L 11600882.434294023,-2608987.9061933504 L 11603752.362086164,-2604047.2570420853 L 11610438.099383717,-2597228.3145067743 L 11618613.068829102,-2596267.8730806843 L 11635876.272822341,-2608345.216732693 L 11641518.389893707,-2610267.563353434 L 11647551.794975212,-2610049.328632867 L 11653737.485120121,-2610532.9029939603 L 11659607.807147615,-2615156.9256171244 L 11665804.295283131,-2621275.209086858 L 11667924.15234631,-2633323.6786703276 L 11669239.61476901,-2644140.0334902867 L 11673490.126885971,-2648519.481563158 L 11678545.144962894,-2651445.662496135 L 11688068.193441786,-2655537.26887877 L 11709592.930181574,-2666043.0570206074 L 11715126.288110435,-2671020.242764455 L 11719202.919182776,-2673820.282344031 L 11727562.678982876,-2669268.283352574 L 11737542.360013004,-2660505.4029276767 L 11743597.472395211,-2653905.176653062 L 11747641.486856753,-2646775.8883820283 L 11749565.755574604,-2640807.5197069123 L 11765491.789844433,-2635638.8082248624 L 11775634.442609081,-2628310.7664702157 L 11782385.41312824,-2622685.63205291 L 11789027.624504892,-2622945.2501334427 L 11795669.835881546,-2624456.144680066 L 11799974.783229504,-2628966.088149014 L 11807486.622468233,-2629060.5195091898 L 11816390.06666137,-2628399.269634486 L 11820347.029281108,-2626592.9085691515 L 11827630.663563712,-2616236.506647001 L 11830924.607296284,-2614791.2420973475 L 11837501.585451333,-2615516.818341849 L 11850057.644776378,-2619192.186890579 L 11860178.590240322,-2620938.87679474 L 11869331.94669029,-2616820.5441575204 L 11886725.617126739,-2605302.8658946953 L 11881833.682103828,-2597098.707768673 L 11877963.6600064,-2588268.292658586 L 11870342.950305674,-2582032.749457101 L 11864700.944553798,-2580490.4141601305 L 11861135.2699442,-2571827.759661056 L 11859569.783945173,-2559065.61202988 L 11861493.941343535,-2552600.0279253297 L 11865896.7385239,-2550531.6299448377 L 11870723.440325204,-2546213.329927481 L 11872691.123644467,-2540539.583615476 L 11873343.455860516,-2527918.592855049 L 11873082.522974094,-2513712.063396677 L 11873734.743870655,-2508992.8365984224 L 11877528.73475587,-2509866.299786447 L 11881072.702064764,-2511566.2960781436 L 11888269.39582506,-2509362.0962211625 L 11897216.254619606,-2505675.6208603573 L 11902858.26037148,-2501937.024193612 L 11907956.804369304,-2502394.0892129405 L 11911902.968998434,-2498732.3925564936 L 11913392.312465757,-2491710.074027352 L 11918045.133222444,-2486833.0276684356 L 11931057.825098725,-2477592.210397141 L 11941472.208740398,-2476819.9597289027 L 11950277.803101128,-2464631.7217279486 L 11959442.068861194,-2468631.076736987 L 11963660.07568684,-2463368.9279171615 L 11982543.089590613,-2465233.8770304183 L 11995707.843891317,-2470157.393314794 L 12000469.423790509,-2468976.1150175547 L 12012307.9176779,-2458827.126833047 L 12019461.085517295,-2452551.365259825 z" /><path fill-rule="evenodd" fill="currentColor"    d="M 11868603.58326203,-970287.2035790548 L 11865461.924592862,-970028.8768213162 L 11863092.043953365,-972327.2972653077 L 11873180.372806503,-979696.2645537384 L 11872169.36919112,-974812.7954174242 L 11872506.333289752,-972349.2573001151 L 11868603.58326203,-970287.2035790548 z" /><path fill-rule="evenodd" fill="currentColor"    d="M 11929851.121818524,-1163812.3833951184 L 11920512.86369435,-1156954.923883774 L 11919860.642797792,-1162718.1971034878 L 11927981.28833167,-1166431.8681524962 L 11930840.306813715,-1169361.136213597 L 11932884.132664679,-1169305.8967854332 L 11929851.121818524,-1163812.3833951184 z" /><path fill-rule="evenodd" fill="currentColor"    d="M 11896226.958304925,-2369919.0396300126 L 11894944.223812515,-2367616.4069940327 L 11889269.490130346,-2373257.1668616286 L 11885519.02516603,-2375694.3077103943 L 11888399.862268267,-2383287.0822518193 L 11895052.87163553,-2374984.6567984833 L 11896226.958304925,-2369919.0396300126 z" /><path fill-rule="evenodd" fill="currentColor"    d="M 11978281.556844065,-2417748.16751106 L 11962246.76343173,-2402810.2323545557 L 11956104.71052721,-2403049.098047798 L 11961561.92592437,-2419958.1744616074 L 11964203.648760384,-2423976.449944414 L 11973824.435752194,-2418179.6141823297 L 11978281.556844065,-2417748.16751106 z" /><path fill-rule="evenodd" fill="currentColor"    d="M 11969215.140916407,-2383129.8820665004 L 11963007.743470792,-2380022.6317735603 L 11955626.370675271,-2380371.7742464137 L 11964464.470327312,-2386197.0254391283 L 11968954.208029987,-2393409.925120779 L 11972552.61056988,-2395937.1225111648 L 11972530.791949684,-2389637.149165414 L 11969215.140916407,-2383129.8820665004 z" /><path fill-rule="evenodd" fill="currentColor"    d="M 11914675.158277659,-2361738.9816396013 L 11910076.66143248,-2361268.1896577515 L 11901238.56178044,-2370930.8814289137 L 11906000.03036014,-2376031.6906433147 L 11916055.742602477,-2372431.2420235234 L 11918360.390020372,-2370105.0637030667 L 11918306.066108864,-2368017.5840040296 L 11915892.659548467,-2363407.2675614757 L 11914675.158277659,-2361738.9816396013 z" /></g></g>
</svg>
