<?xml version="1.0" encoding="UTF-8"?>
<svg xmlns="http://www.w3.org/2000/svg" viewBox="18537597.76148299 1540906.054704682 375170.61766385287 760791.1528755454">
  <g id="map"><g><path fill-rule="evenodd" fill="currentColor"    d="M 18562057.659236528,1669253.8428028144 L 18569221.62506653,1707349.1654078527 L 18577570.586876024,1707270.278611862 L 18581832.119622573,1705243.0677012615 L 18586745.761946186,1696314.0613211237 L 18588941.761541065,1682290.8166109945 L 18593311.942110628,1680288.1296762822 L 18598769.157507785,1681784.570715114 L 18596399.276868287,1686251.6210780877 L 18597986.47016802,1697473.5725194728 L 18602204.365674175,1703677.739628621 L 18605009.171564203,1704803.9262036593 L 18610618.560705274,1734158.3013447504 L 18612705.801157653,1740315.3931555976 L 18612575.334714442,1745244.5164015244 L 18600812.87203926,1756234.2958274956 L 18583299.644469697,1755907.0143784846 L 18570960.992110174,1762476.1584174251 L 18563449.15287144,1762047.1829039245 L 18563525.184083655,1754609.2583904348 L 18556839.558105595,1748696.63996333 L 18549284.192945965,1736041.4046678317 L 18551154.026432816,1713589.5280086729 L 18537728.227926202,1671930.5040418468 L 18537597.76148299,1661529.4915202255 L 18542196.258328173,1647952.7971628816 L 18546696.905340943,1647345.999490503 L 18552795.543644056,1658685.4301632405 L 18562057.659236528,1669253.8428028144 z" /><path fill-rule="evenodd" fill="currentColor"    d="M 18636274.25242891,1815830.9630313439 L 18641405.41303754,1818342.9747729376 L 18644199.198297977,1818342.9747729376 L 18645873.332120016,1823978.9684652993 L 18661821.185010042,1835232.3933599573 L 18666202.274889704,1834915.3619680647 L 18669887.506632414,1841076.4650099978 L 18676736.32698398,1844191.574754444 L 18678584.341850635,1850468.5660317382 L 18683487.186183646,1856860.585820721 L 18674931.72671873,1864603.6984493101 L 18658418.593454454,1862540.1632707256 L 18648949.86888707,1871328.6603576483 L 18640372.590801958,1869082.9882808572 L 18638905.06595483,1864467.6174792575 L 18640100.85992493,1862925.6176537487 L 18634991.5179365,1851159.8121467498 L 18632686.759199113,1833194.146354762 L 18629229.843732025,1822620.7473007478 L 18625490.17675831,1818105.3183625 L 18617750.021243967,1822054.8359108036 L 18614629.95855601,1822711.2619685803 L 18607215.96914969,1814043.4073544482 L 18610727.31984778,1796445.9967807375 L 18612564.536723834,1791415.7724523789 L 18618597.94180534,1790455.04066833 L 18627729.5909546,1795078.0505498855 L 18636274.25242891,1815830.9630313439 z" /><path fill-rule="evenodd" fill="currentColor"    d="M 18751409.441408105,1895092.227767575 L 18754725.092441384,1896818.0835341967 L 18752898.78487543,1901633.35694998 L 18737603.264201455,1896136.8177464516 L 18725308.137762826,1898271.6138583897 L 18721872.818276946,1898021.8323943515 L 18718209.29383494,1893570.7773270225 L 18715513.247087415,1884773.389208239 L 18716741.768987812,1878600.3053132433 L 18721916.344197847,1874300.5506612596 L 18723851.410906307,1873597.3247757307 L 18727699.72570303,1878917.9522051588 L 18731221.98571122,1882537.7505907142 L 18734635.486576904,1884092.4938477257 L 18742419.16801215,1892764.634729681 L 18751409.441408105,1895092.227767575 z" /><path fill-rule="evenodd" fill="currentColor"    d="M 18734700.71979851,1843727.094092464 L 18721981.577419452,1844916.6197853072 L 18704087.859830357,1841302.9934833793 L 18696891.166070063,1836274.3143738909 L 18693771.2147016,1831224.0218446928 L 18699956.79352702,1827487.9538062222 L 18708827.62110935,1825722.0925302072 L 18719916.044267785,1814179.186736748 L 18723753.561073896,1818603.2293228176 L 18727884.516057745,1831529.7556501757 L 18732363.455769815,1835424.88714101 L 18734841.984232325,1839343.417168323 L 18734700.71979851,1843727.094092464 z" /><path fill-rule="evenodd" fill="currentColor"    d="M 18751300.79358509,1984031.3281404353 L 18762389.21674352,2000672.2649204256 L 18766792.013923883,2001984.43117106 L 18760073.660015527,2013923.778414013 L 18746137.016365666,2014997.0863451576 L 18729689.116322994,2011902.9992869121 L 18735722.5214045,2007804.8724890924 L 18732602.570036035,2003171.2937052578 L 18727634.492481425,2002235.5398352575 L 18721938.051498547,2004449.3756617883 L 18719285.530671928,2003696.2128813276 L 18722927.34781323,1996017.3649077748 L 18732080.81558269,1985205.6208067467 L 18734787.66032082,1984350.5219432514 L 18737244.481482625,1984236.4568894927 L 18739636.18074232,1985182.853526699 L 18751300.79358509,1984031.3281404353 z" /><path fill-rule="evenodd" fill="currentColor"    d="M 18691803.531382337,1739492.2005230973 L 18684335.106745016,1744793.32701442 L 18670528.929538365,1744285.6625061096 L 18665408.678239834,1741296.7247057601 L 18682334.918134443,1725184.8426616343 L 18701957.093457088,1721860.0363245595 L 18691803.531382337,1739492.2005230973 z" /><path fill-rule="evenodd" fill="currentColor"    d="M 18725373.370984435,1801296.3319982262 L 18723514.33548818,1801443.383824187 L 18721633.70401072,1796118.1546558808 L 18715350.275352895,1767793.7427550144 L 18719481.230336744,1742480.9129463362 L 18722101.13455256,1747839.1941198674 L 18731482.80727815,1792252.119345591 L 18730210.982095834,1799532.4775008569 L 18725373.370984435,1801296.3319982262 z" /><path fill-rule="evenodd" fill="currentColor"    d="M 18722731.648148414,1727112.260363986 L 18720807.490750056,1734259.7904886904 L 18716198.19591427,1725985.0387785223 L 18713273.832891125,1691113.534933354 L 18714469.62686123,1687883.3692162104 L 18716861.326120924,1687635.8343763386 L 18722481.624572095,1711899.7741149324 L 18722731.648148414,1727112.260363986 z" /><path fill-rule="evenodd" fill="currentColor"    d="M 18614727.808388416,1772796.3438429674 L 18612705.801157653,1775800.7049093305 L 18600899.92388106,1768301.9101106103 L 18603606.76861919,1761053.899190268 L 18616445.46813136,1763650.3033611155 L 18614727.808388416,1772796.3438429674 z" /><path fill-rule="evenodd" fill="currentColor"    d="M 18655461.613820516,1604170.3954361135 L 18650830.61168402,1609992.4492726026 L 18638252.73373878,1608074.0580818912 L 18635274.158123624,1606537.173292955 L 18636078.552764095,1596880.5157225162 L 18639231.232062854,1593550.2942499837 L 18646732.16199149,1590534.471083254 L 18657027.09981954,1595310.6519947345 L 18655461.613820516,1604170.3954361135 z" /><path fill-rule="evenodd" fill="currentColor"    d="M 18644775.387982324,1563575.0877668895 L 18643144.780081183,1564706.212917275 L 18640568.290466774,1563821.4242068557 L 18633969.60501102,1549948.9413486125 L 18635643.73883306,1545326.3810481082 L 18643905.760120247,1540906.054704682 L 18651276.33492516,1548605.7126625646 L 18651972.081742615,1552881.8363023228 L 18651917.646511618,1556520.3758177964 L 18650787.08576312,1559666.8094401027 L 18645862.53412941,1560976.8821164782 L 18644775.387982324,1563575.0877668895 z" /><path fill-rule="evenodd" fill="currentColor"    d="M 18912768.379146844,2295151.9003139823 L 18908854.831128515,2301697.2075802274 L 18902832.224037617,2301616.0531925256 L 18895092.068523273,2296993.571354933 L 18896559.70468989,2291202.6581435027 L 18905332.571120325,2290183.731298271 L 18907876.444123935,2290565.77782877 L 18912768.379146844,2295151.9003139823 z" /><path fill-rule="evenodd" fill="currentColor"    d="M 18867686.211765386,2218632.675495998 L 18861804.980427794,2231475.8563322644 L 18851651.41835305,2228486.4019972235 L 18842150.07717486,2219209.476233347 L 18837203.706920955,2211101.4914784012 L 18840541.176574428,2195564.2777287858 L 18845400.494986534,2192856.819026056 L 18850477.33168365,2193743.92698538 L 18853064.61928867,2208910.83662256 L 18867686.211765386,2218632.675495998 z" /><path fill-rule="evenodd" fill="currentColor"    d="M 18850216.398797233,2147900.699130852 L 18845085.238188613,2153590.734911236 L 18840606.409796033,2152969.977048324 L 18811537.217206713,2139788.1254861327 L 18812754.82979701,2134366.2295402554 L 18811558.92450742,2120542.613227151 L 18814755.018407583,2113037.815183126 L 18822777.925428547,2109951.7348675895 L 18829007.030174863,2111546.4046651702 L 18832811.81905069,2122597.240608303 L 18841465.239667505,2127097.336187313 L 18835388.3086651,2130897.9562363005 L 18845965.775360785,2139259.679784907 L 18850216.398797233,2147900.699130852 z" /></g></g>
</svg>
