<?xml version="1.0" encoding="UTF-8"?>
<svg xmlns="http://www.w3.org/2000/svg" viewBox="2229672.850287947 -5351796.304236942 191852.24057377782 212690.47018005885">
  <g id="map"><path fill-rule="evenodd" fill="currentColor"    d="M 2264721.124047264,-5285817.604754193 L 2278581.7364849164,-5290369.247216263 L 2280581.9250954897,-5293580.562025328 L 2277418.4478061264,-5300496.302021771 L 2279277.483302374,-5304824.808207625 L 2295855.7384687625,-5317175.839390154 L 2298584.401827087,-5322776.946031953 L 2299595.405442471,-5327183.0153469285 L 2297366.900556281,-5331836.742255684 L 2294257.747178425,-5339168.436148238 L 2295757.999955846,-5342254.852180236 L 2304378.692642368,-5346490.929612599 L 2311368.77742775,-5351415.687309993 L 2315510.641721695,-5351796.304236942 L 2318097.929326712,-5348259.000987285 L 2318097.929326712,-5344596.416157482 L 2320391.778753998,-5338408.0964958025 L 2325544.6466633286,-5335084.6091674445 L 2334111.0154383434,-5329647.370050145 L 2344057.9685381763,-5325939.801524029 L 2351852.5592835215,-5318521.9190471405 L 2362495.259200812,-5305307.566920451 L 2364104.1598012475,-5298774.184159247 L 2373681.6435111375,-5292920.377884461 L 2382574.067074686,-5286366.022888324 L 2381193.4827498673,-5274211.044333492 L 2411458.469309289,-5263616.96108456 L 2418285.4710406587,-5263690.858026751 L 2421525.0908617247,-5261849.967323337 L 2421438.039019924,-5259078.25740063 L 2419046.4510797216,-5250597.897479543 L 2406620.8581978856,-5224591.407498849 L 2405598.9452724033,-5219195.5827531135 L 2396706.410389364,-5213552.790380158 L 2395477.99980846,-5210302.528448203 L 2398000.1655113637,-5203136.826707812 L 2400326.5202299613,-5198127.65053389 L 2400141.729875244,-5198149.6062552165 L 2381073.9256167556,-5193965.10211067 L 2374638.211895524,-5189056.164514529 L 2370833.4230197007,-5180484.457024407 L 2369615.8104294036,-5176029.411567928 L 2366245.8354846193,-5175897.534285455 L 2360647.244334153,-5180315.893553999 L 2353570.1077069705,-5187229.7485986715 L 2344362.4273454957,-5186672.339560562 L 2313010.294638987,-5171627.588519959 L 2309922.9598813266,-5163729.930053514 L 2309227.2130638687,-5146654.3617044985 L 2307096.446690595,-5142054.384616615 L 2303748.1790465144,-5139105.834056883 L 2290789.922401233,-5140959.5210473975 L 2289420.1360670216,-5142076.360906926 L 2291115.9771897662,-5148619.17115534 L 2290442.048992504,-5162939.864987005 L 2284593.434265716,-5186701.628631245 L 2280429.751351575,-5194500.992088623 L 2271841.675275856,-5202255.166647298 L 2265155.9379783026,-5207347.3576704245 L 2253165.159027505,-5211890.773497278 L 2247066.5207243958,-5224989.0814742325 L 2237913.164274428,-5239897.56238272 L 2233510.367094063,-5243313.047650813 L 2234216.9119021283,-5244796.074759485 L 2236325.9709746977,-5256056.040737563 L 2233706.0667588776,-5264275.0883029215 L 2229672.850287947,-5271272.770970614 L 2232434.130257074,-5275521.399693516 L 2240859.1232787813,-5275476.975305168 L 2247827.5007634587,-5274699.658314838 L 2250338.757156264,-5281401.373636135 L 2264721.124047264,-5285817.604754193 z" /></g>
</svg>
