<?xml version="1.0" encoding="UTF-8"?>
<svg xmlns="http://www.w3.org/2000/svg" viewBox="4736535.574111285 -2154481.8210983574 1331615.994013127 772448.1571880677">
  <g id="map"><g><path fill-rule="evenodd" fill="currentColor"    d="M 5909466.969832489,-1879933.5464227388 L 5853339.682574521,-1859258.0316505963 L 5838533.41106258,-1850077.6389884683 L 5825096.703245868,-1838743.2256191892 L 5815030.193012923,-1824578.8876716823 L 5807985.672996543,-1799724.6725428205 L 5813334.240570688,-1777014.956477577 L 5812823.284107947,-1764863.9290235662 L 5798332.269393933,-1756821.2642176177 L 5784808.621054912,-1751015.2022845363 L 5769774.033267354,-1742187.66122371 L 5760631.474807993,-1739977.127776448 L 5753163.050170672,-1732929.3814865595 L 5744498.83156325,-1728047.804240325 L 5713190.224777642,-1715290.8209380123 L 5678979.07358909,-1705428.8518408963 L 5624645.588605764,-1693601.1020834423 L 5603664.424939521,-1680811.280434067 L 5584553.206079622,-1672037.2632237435 L 5555549.246711907,-1669400.0884307127 L 5515728.595062791,-1657229.7390810417 L 5493605.961337953,-1647492.11742955 L 5466113.164057757,-1631649.1011228857 L 5460003.616444549,-1626635.9204823074 L 5455176.914643245,-1614979.854275176 L 5446719.193691243,-1604921.8139002603 L 5430162.5345060695,-1588432.4754194943 L 5417736.941624233,-1579970.2961154475 L 5409431.505735638,-1579522.076794304 L 5393320.569791599,-1574894.366262967 L 5374263.674843208,-1573947.6285438067 L 5342215.7953192415,-1579735.0546069464 L 5333986.501962349,-1575689.9184132612 L 5327202.914832388,-1569276.1610727657 L 5302525.610113336,-1557981.5259226344 L 5277402.693472638,-1535423.5392409451 L 5259019.726721508,-1529438.863595321 L 5229309.222545728,-1522348.4476264026 L 5208512.849234202,-1512973.7783594104 L 5194554.498283633,-1509212.563744387 L 5176573.7288527405,-1507251.0672289664 L 5143308.348057968,-1508195.4612795452 L 5111760.627006136,-1504814.8130907773 L 5082550.058663509,-1498457.0086739168 L 5068819.912669065,-1486421.272373248 L 5053187.427896458,-1467392.5850862686 L 5027618.676695133,-1459537.0233177245 L 5021596.1809237255,-1452715.3626895123 L 5013682.033045268,-1438703.5015945162 L 4997114.575869487,-1435086.0006235302 L 4982134.200673945,-1432756.3096866747 L 4966827.77068987,-1438859.5635744056 L 4937965.187075463,-1421957.3730804378 L 4927039.846971047,-1419160.750947175 L 4910472.278475774,-1418481.145700465 L 4898709.815800595,-1414944.0771658204 L 4890241.2968579875,-1415952.2451861063 L 4879729.063383906,-1422559.0151214008 L 4857356.406082747,-1430554.8617463284 L 4841017.265182582,-1425344.7812968842 L 4839647.478848371,-1441345.9381662707 L 4812556.8788884105,-1490263.2193881061 L 4818198.884640287,-1532928.866179795 L 4818177.177339581,-1538964.6135008025 L 4812795.993154635,-1558037.5933073666 L 4796652.551919285,-1575476.9733430413 L 4797130.780451733,-1597592.5660455993 L 4791727.888966081,-1613431.4125930218 L 4787433.850928222,-1629700.9212248595 L 4788825.344563137,-1634035.3186144624 L 4789086.277449557,-1637954.8033859963 L 4780835.165472469,-1663069.703930648 L 4778073.885503341,-1668163.1308182075 L 4777051.972577859,-1673426.3260092335 L 4779758.92863548,-1677453.2156361325 L 4779661.078803072,-1682122.0284236963 L 4775279.988923412,-1689841.60951597 L 4770670.6940876255,-1704527.9676369675 L 4748646.021514685,-1716045.5792655419 L 4753103.142606557,-1726836.0481159333 L 4757397.180644417,-1723054.6935156416 L 4763191.471459698,-1719842.9167302186 L 4764365.446809604,-1726830.5077438063 L 4764463.296642011,-1732066.8428707763 L 4755255.616280536,-1764762.3094725462 L 4768887.80112308,-1808432.4330804867 L 4764398.063420406,-1847817.031990457 L 4785216.144032638,-1863753.3220315569 L 4790477.771084473,-1868550.057509619 L 4793499.872620529,-1872757.8735110827 L 4798402.7169535365,-1881766.0554175118 L 4805110.161551795,-1884699.5925769145 L 4807480.042191293,-1894183.8327542064 L 4807273.544535871,-1898930.2690471548 L 4802946.778567718,-1902996.2493289465 L 4799707.270066143,-1914073.6121279567 L 4800783.506903132,-1928095.9165825972 L 4801870.65305022,-1933981.4822208795 L 4804099.15793641,-1944704.7362756138 L 4811382.792219014,-1948693.9516273984 L 4813111.249952561,-1951864.1504437993 L 4807480.042191293,-1958655.8280704846 L 4807990.998654034,-1962698.8380085363 L 4820373.06561497,-1974063.2028289037 L 4825265.111957371,-1977476.543402443 L 4833266.2003581375,-1981004.4799676775 L 4839527.921715259,-1980964.557600389 L 4846768.030076963,-1978958.2636474404 L 4853225.451098899,-1975772.7221469816 L 4859476.263145924,-1969989.5715204917 L 4866107.565212479,-1963416.3690270996 L 4876272.036597321,-1960922.1426305817 L 4883185.978851001,-1961559.8419636353 L 4888817.186612269,-1958655.8280704846 L 4893567.857201363,-1960244.4621414854 L 4898970.748687015,-1963644.1598386145 L 4907624.16930383,-1963416.3690270996 L 4915418.648729684,-1967266.6285357077 L 4937541.282454522,-1969112.2185737665 L 4958891.9155107085,-1967944.5318257932 L 4981188.430280166,-1971134.618137888 L 5003419.711828018,-1970889.7125289699 L 5025857.602350782,-1970638.9759742592 L 5030836.477896003,-1970166.2131719098 L 5035717.614928306,-1968160.9381192985 L 5054633.24544288,-1958080.7163165924 L 5068972.197732472,-1956014.0795673395 L 5097813.074046174,-1953258.7570453945 L 5128578.107758239,-1950316.0018093148 L 5155244.803097258,-1947766.3048465368 L 5177856.574664642,-1950139.5239065827 L 5196619.920115812,-1952108.9548817298 L 5201696.756812929,-1951761.6831284927 L 5207360.581185001,-1945529.8135774361 L 5218655.501998849,-1930023.5119682043 L 5229309.222545728,-1915408.9976288364 L 5247996.536784686,-1914619.1610814151 L 5259987.315735484,-1920120.2141961765 L 5273162.979346285,-1927857.0897185244 L 5281196.684357854,-1933850.679703217 L 5290502.325871226,-1957653.7069923864 L 5296535.730952731,-1973077.5113591047 L 5310352.817469483,-1990411.2152036252 L 5321941.399100045,-2004928.7495275112 L 5337269.536384824,-2024190.6323416755 L 5345748.96463753,-2034851.1101749807 L 5362501.212168028,-2055925.5947668042 L 5378492.479659463,-2064141.658336234 L 5409344.565213327,-2080010.9924388668 L 5439609.551772749,-2095594.8564718934 L 5459329.576927797,-2105759.4468904585 L 5476071.026467687,-2110404.925311483 L 5504205.246653834,-2114397.3926254106 L 5537264.129793185,-2119096.4737361004 L 5570312.103622437,-2123791.0225093598 L 5605523.349116277,-2128790.8524697167 L 5644811.337001948,-2134377.755401145 L 5671728.055917289,-2138208.4772672188 L 5706058.764238953,-2143091.3497924893 L 5734617.000365531,-2147153.724817291 L 5760000.9612121405,-2150762.8139913487 L 5786124.083477615,-2154481.8210983574 L 5791048.635111329,-2142729.4222935154 L 5795984.09605514,-2130978.3880771766 L 5800908.647688853,-2119234.2079700837 L 5805833.310642055,-2107497.073154035 L 5810768.660266375,-2095766.8222286673 L 5815693.32321958,-2084049.0426248852 L 5820617.8748532925,-2072332.4252711202 L 5825542.426487005,-2060628.1857431247 L 5830477.887430815,-2048925.0282198132 L 5835402.550384019,-2037234.1555738791 L 5840327.102017731,-2025544.2850646123 L 5845262.562961543,-2013860.9951170017 L 5850187.114595256,-2002184.125997176 L 5855111.666228969,-1990519.5911467727 L 5860047.127172778,-1978855.7829337465 L 5864971.790125982,-1967198.2677753766 L 5869787.582617191,-1955820.5320511328 L 5877734.34710645,-1952034.9303884679 L 5882452.401084741,-1941285.3137407452 L 5889214.169594506,-1925929.8028449316 L 5895965.028794173,-1910590.8211992865 L 5902715.99931333,-1895256.8660077488 L 5909466.969832489,-1879933.5464227388 z" /><path fill-rule="evenodd" fill="currentColor"    d="M 4741123.161646368,-1724192.973294961 L 4737611.810948275,-1721629.0052942147 L 4736535.574111285,-1726114.6561940978 L 4738840.332848669,-1736187.9347490678 L 4742471.240679874,-1739097.4753670397 L 4744938.971151779,-1731644.0705455649 L 4743373.485152753,-1727523.6412582316 L 4741123.161646368,-1724192.973294961 z" /><path fill-rule="evenodd" fill="currentColor"    d="M 4759560.452309003,-1540312.9744827426 L 4752200.786814187,-1536799.677370336 L 4757234.097590405,-1545891.6082206392 L 4762386.9654997345,-1547760.655875214 L 4763821.985055551,-1547396.875902293 L 4759560.452309003,-1540312.9744827426 z" /><path fill-rule="evenodd" fill="currentColor"    d="M 4763071.803007095,-1570945.184899836 L 4761604.278159968,-1568508.7895984787 L 4759582.270929199,-1569040.90027673 L 4752679.126666127,-1575124.0573939688 L 4760256.1991264615,-1581959.4907487072 L 4764289.415597392,-1575622.6844928553 L 4763071.803007095,-1570945.184899836 z" /><path fill-rule="evenodd" fill="currentColor"    d="M 5984890.266305073,-1418269.4068971137 L 5991749.884647245,-1416899.1882615746 L 6002186.086909114,-1420848.709354945 L 6032113.998050414,-1421372.4013730388 L 6068151.568124412,-1408684.2431726023 L 6061346.273693746,-1405337.765287639 L 6057313.168542306,-1400761.193499304 L 6041452.2561745895,-1396580.562567447 L 6025667.486338575,-1386779.8826660714 L 5979954.8053612625,-1382033.6639102898 L 5966539.9161647465,-1384687.629148323 L 5955527.524218531,-1394153.7419402222 L 5935089.933625831,-1406445.7271440853 L 5943178.073868398,-1414281.2239361121 L 5944895.622291847,-1417873.997925612 L 5947906.925837296,-1421322.1995510736 L 5959484.59815776,-1427278.2241666198 L 5971007.946566717,-1426319.874037088 L 5984890.266305073,-1418269.4068971137 z" /></g></g>
</svg>
