<?xml version="1.0" encoding="UTF-8"?>
<svg xmlns="http://www.w3.org/2000/svg" viewBox="1830933.8926723236 2529098.060200407 2386705.0220585335 3406920.9810020803">
  <g id="map"><g><path fill-rule="evenodd" fill="currentColor"    d="M 3268879.4813039145,2534826.6293574586 L 3270281.7729294375,2534685.7238407033 L 3302079.6288770824,2529098.060200407 L 3328713.707605299,2533652.6530044493 L 3360783.29442997,2546512.9003159227 L 3390809.055403677,2551072.202523412 L 3418802.011156007,2547323.69208605 L 3441565.956467305,2546465.979300188 L 3459079.295356357,2548522.2051494597 L 3472863.765262306,2552987.9335852154 L 3482952.0941154473,2559865.2109258967 L 3483539.0817903997,2566204.236662727 L 3484321.7691301676,2569086.297838716 L 3489648.6294036075,2585836.213478055 L 3497584.4845827688,2610880.8582784636 L 3502856.9096252103,2634038.2241136488 L 3510097.017986914,2665853.643046159 L 3509868.8130307877,2683591.5054269773 L 3511640.6853657444,2690452.720413701 L 3518152.5416186787,2699024.5433412204 L 3526110.104098545,2713760.226968439 L 3528827.8581467723,2722130.6914434307 L 3531502.0862740986,2728390.7302370667 L 3539916.2813051995,2740276.2401087345 L 3546449.8448588382,2758311.564375945 L 3551983.202787699,2782220.297862532 L 3556722.9640666954,2793705.2680035243 L 3558505.8570312406,2799349.570588589 L 3560647.4213951216,2809641.0182471857 L 3560353.8718978995,2831380.5703421207 L 3560484.338341109,2856600.943981776 L 3560636.5120850233,2884815.4585864292 L 3560777.887838331,2908141.6989223445 L 3559929.9672769587,2919962.787195276 L 3560506.045641814,2953565.3477179385 L 3553352.989121911,2971107.546361813 L 3554244.324284692,2984888.2128806687 L 3556462.0311802756,2993832.573695305 L 3553505.162865825,2995211.011693601 L 3547917.3697059657,2996807.280339598 L 3522196.5560802165,2982652.88580379 L 3497117.054040928,2967727.7428966886 L 3493496.9442003304,2967281.2230572286 L 3488213.6098477915,2968838.1073957756 L 3473983.4167007054,2979693.1838954417 L 3460709.903257497,2996686.294111096 L 3454611.2649543877,3011193.2410101555 L 3444805.5762883713,3026199.3901720634 L 3429009.8971422594,3050382.623215219 L 3427422.703842529,3055602.9695671545 L 3427248.82279791,3075287.52886432 L 3428009.8028369728,3094049.648410827 L 3429390.387161791,3096667.5974804745 L 3437913.3413353963,3097556.6082901857 L 3444011.9796385057,3112958.5013774117 L 3457959.532598468,3137509.7949496317 L 3481408.315417126,3153285.7533301325 L 3503172.166423137,3160440.329233172 L 3533567.619425768,3162250.9403524394 L 3557592.591928772,3161737.0350634344 L 3556222.916914052,3145181.696670728 L 3558571.0902528455,3118555.7217387953 L 3561636.7177098016,3100686.7350734915 L 3564984.985353882,3099895.064464375 L 3571311.9399326076,3101600.4481642246 L 3574790.674019898,3103427.8020671294 L 3584444.0776225086,3102684.6313387607 L 3601576.9264920293,3106193.733801286 L 3615404.810999388,3105803.7904623887 L 3627765.2819791096,3105462.645667442 L 3648670.303113652,3104865.599723559 L 3660867.5797198704,3104658.3551946874 L 3656747.422726629,3133492.2567918706 L 3640799.569836603,3178753.250983697 L 3635364.06174015,3199555.929798247 L 3621753.5841983096,3274175.684892341 L 3603990.2217329363,3311937.176359139 L 3594032.3593230057,3327557.076463278 L 3565256.7162309075,3355240.279292682 L 3557255.627830141,3360863.2769324183 L 3550145.9859116473,3364464.2289293767 L 3537535.6026750947,3367643.852412052 L 3488213.6098477915,3423861.4691167073 L 3469819.845106055,3451061.259451936 L 3453502.4115065956,3490815.1155346194 L 3437282.8277395433,3512691.5915875933 L 3413453.4435818624,3559482.6148404595 L 3392157.1344371834,3595733.3797868215 L 3371719.5438444824,3628868.87478726 L 3336377.7205879437,3674647.0805733367 L 3320690.800584337,3687914.46791155 L 3310102.4245785535,3693992.7129072086 L 3282022.528303914,3720686.2009865534 L 3242495.4261520198,3763720.838945857 L 3212230.439592598,3801996.210753723 L 3166974.279847028,3845582.4339516195 L 3140775.1263693403,3864714.071744753 L 3101432.814572164,3902461.2710835356 L 3090463.837227357,3908052.76970051 L 3046120.9425842552,3943258.916151246 L 3014246.9441049085,3964689.4539025775 L 2962620.415179203,3989583.281467722 L 2942117.5913648973,3996563.659655071 L 2893143.5832658135,3990105.980231139 L 2872695.083363016,3993556.5759808766 L 2855616.6697244933,4008626.021219193 L 2854029.5877442537,4030297.014010521 L 2846909.036515662,4033549.9243622236 L 2836114.0515349656,4032579.151965891 L 2801881.1930457093,4023531.853220394 L 2783313.4359398633,4025262.131480998 L 2772474.9250382674,4036829.9656924168 L 2763745.4732092405,4051509.833987395 L 2737959.4263618863,4052258.86371629 L 2692040.1364096613,4037066.0565498737 L 2638032.8175343596,4027831.65788169 L 2625531.082120821,4026809.013717309 L 2599353.635943838,4038063.416394631 L 2590200.1681743795,4039703.9690929917 L 2552064.5596574014,4037289.252236957 L 2530909.5149465385,4030178.970924135 L 2510678.5333287506,4030152.7840569317 L 2495165.4943697634,4036029.550643863 L 2476358.6229976937,4038089.755833774 L 2425536.4887124603,4078951.059953567 L 2399293.8093138724,4079003.7942852234 L 2376649.421135686,4083746.305210307 L 2365419.6222239514,4083588.171424224 L 2344405.841946905,4077871.0718235415 L 2336578.7459102487,4078252.993889365 L 2324620.583570253,4080821.4584548594 L 2312640.713929554,4088029.4433037066 L 2285376.121605484,4091153.956226963 L 2274776.836289602,4097299.9415750448 L 2228683.553973267,4134802.323824418 L 2218182.2298092833,4133306.7173756035 L 2209691.8922464806,4130858.6102231476 L 2185753.860265786,4130408.642836722 L 2158652.350995728,4110420.748907047 L 2148270.472645365,4111688.765207292 L 2151053.4599151975,4105706.6067925123 L 2151890.5824859627,4095110.215200085 L 2146172.4342023847,4087634.0978676802 L 2142302.3007854656,4084299.7909096484 L 2131670.398858782,4084919.154968856 L 2126017.4837968084,4075909.069780865 L 2109743.4647987583,4075053.1772341714 L 2104112.36835698,4077331.2513166917 L 2096296.0703109305,4077792.18063262 L 2095600.323493473,4068682.4000378423 L 2096219.9277792277,4062946.566163797 L 2095741.5879272895,4054138.0465597766 L 2093784.8139181254,4043340.315507475 L 2087479.5666401032,4039900.8728114525 L 2082641.9555287003,4038457.170486159 L 2071118.7184392344,4039192.1697637676 L 2063182.8632600727,4040347.24532259 L 2059454.1055964613,4043484.712574294 L 2055192.5728499135,4051391.5706516327 L 2055138.2489384061,4075474.508803385 L 2049431.0099649255,4068563.957444002 L 2042940.972332187,4054138.0465597766 L 2040864.52987042,4038772.1835648404 L 2043201.9052186063,4020622.6078188433 L 2055518.7389579376,4013745.3002415155 L 2054562.0592540598,4001507.4264382813 L 2051953.0643483382,3990903.1884631943 L 2038201.2110531912,3963789.7801061277 L 2032830.824858851,3951409.621827664 L 2021155.4140254713,3943024.6112805232 L 2012078.0887877152,3922855.2006167383 L 2002924.621018257,3915542.5834108265 L 1999119.7208229424,3901462.6816343223 L 1990194.6806485914,3890197.8981252634 L 1987172.467793045,3872421.977102007 L 1992097.1307462489,3862232.0565181575 L 1999880.7008620051,3856688.260962624 L 2007816.556041167,3865489.8914614157 L 2017665.7706280837,3862051.12149898 L 2031678.5568096503,3849222.926886912 L 2039962.2853975405,3829781.16692741 L 2040473.2418602817,3798742.9925211906 L 2038342.4754870078,3779396.292721377 L 2027221.435717778,3729554.392237672 L 2021970.717976041,3718131.744369242 L 1996912.9232374565,3682615.98552291 L 1967843.730648137,3635222.4864534987 L 1931066.9991552723,3560856.9286134844 L 1913477.7403734992,3516385.307564686 L 1886865.3689459867,3427092.993234021 L 1863427.3841179358,3376839.316470865 L 1834630.033725133,3330096.1742837033 L 1830933.8926723236,3327061.742504052 L 1835336.578533198,3321391.1894192314 L 1850817.0008813827,3310626.1045337846 L 1857861.4095782721,3307719.684440045 L 1861601.0765519813,3309055.2928522434 L 1865242.8936932834,3306099.8350264872 L 1868775.9516920804,3298831.6011639833 L 1869558.6390318475,3292011.745105188 L 1871298.0060754926,3282368.7469232227 L 1874755.0328620777,3276605.8936098707 L 1878549.023747294,3265112.430995893 L 1885006.4447692304,3257755.253126664 L 1898693.0648427722,3252889.679138502 L 1909064.0338830368,3259344.694050094 L 1913412.5071518943,3265691.8266777643 L 1915206.1981070465,3274064.657117027 L 1919793.7856421282,3278111.129616817 L 1927164.3604470415,3277827.35312017 L 1932360.6429577807,3282985.9173727687 L 1935371.9465032297,3293580.5605830546 L 1934763.140208081,3301266.2691526436 L 1930566.9520026287,3306038.0483570695 L 1931154.0509970726,3312308.317518959 L 1936502.5072517262,3320103.777644191 L 1938709.416156703,3327507.6183274635 L 1942296.7980670072,3337282.469223879 L 1961092.8714484693,3342984.5612569577 L 1970278.8445092393,3346196.2323166733 L 1986118.0495762515,3347287.664005098 L 2001087.4041422047,3351654.1632770104 L 2015187.1308460806,3359323.8899312797 L 2038353.3847971056,3361173.616915013 L 2070586.0546757884,3357238.3950541993 L 2097122.2835715984,3359001.135939492 L 2117972.8694751416,3366476.332782402 L 2133072.801803795,3367855.1337629226 L 2142432.7672286755,3363135.5005874773 L 2146487.6910003107,3356307.5471592783 L 2145237.461799212,3347386.8548879395 L 2149879.373245801,3341744.822801773 L 2160402.6273494703,3339352.258303696 L 2168827.620371178,3332648.0625513555 L 2175165.4842600017,3321613.9038579995 L 2189819.5820280286,3312654.640783168 L 2212790.136314239,3305753.6814195793 L 2224215.6348907882,3305988.669871355 L 2224215.6348907882,3288158.7233869107 L 2224215.6348907882,3232030.375181367 L 2224215.6348907882,3176132.0728604393 L 2224215.6348907882,3120470.7131742644 L 2224215.6348907882,3065016.5131253726 L 2224215.6348907882,3009776.9705080017 L 2224215.6348907882,2954759.103800948 L 2224215.6348907882,2899933.6670421585 L 2224215.6348907882,2848349.1849952335 L 2229575.000455539,2852061.2783689513 L 2264818.9738796717,2879415.5241580033 L 2274331.113048466,2893819.6995291375 L 2279060.0763368546,2902949.5647890815 L 2294214.2212575246,2936200.4941837997 L 2305509.2533908645,2966074.340332472 L 2314684.428461028,2988634.4858084205 L 2315380.1752784853,2998959.938340824 L 2316673.8190809945,3009062.814082405 L 2317967.4628835027,3014026.07318484 L 2317119.54232213,3019523.975808753 L 2310662.1213001944,3031835.2472363063 L 2304074.345154539,3041269.7220286257 L 2296160.197276082,3054158.083878598 L 2295399.217237019,3071202.5074171503 L 2297790.805177222,3091298.305988084 L 2302650.2349088206,3101308.0535491947 L 2308748.87321193,3104597.4675547346 L 2323337.737758352,3099602.7051170752 L 2332578.14605012,3101137.5343965786 L 2345612.5452271043,3104963.046877828 L 2388357.4485798683,3102599.425576156 L 2393521.225799296,3103829.9065406895 L 2409653.869044039,3105267.620360188 L 2415045.962539084,3103610.575408901 L 2419872.664340389,3099359.11851902 L 2425460.3461807575,3087293.919056109 L 2430461.0403461726,3083339.2488594134 L 2439516.6582832243,3081295.4976223055 L 2450246.4100423153,3078047.9751869743 L 2459149.742915961,3071117.4904599288 L 2473249.4696198376,3047324.0494193113 L 2501448.9230275895,3026235.747488659 L 2510102.3436444043,3021195.610440883 L 2515559.5590415634,3015527.571117541 L 2520299.320320559,3007900.928689509 L 2530181.1515182783,2981420.614136797 L 2537649.5761555987,2959390.3308141655 L 2540193.337839716,2949020.2538233115 L 2546857.3678365643,2932094.216405243 L 2554923.689458936,2921298.2298977743 L 2562805.1094071,2915608.4002180514 L 2566751.385355721,2914153.279944469 L 2576904.8361109756,2911243.3419562783 L 2589961.0539081558,2908526.3686252083 L 2603680.2905925005,2911579.9511337136 L 2618399.621582132,2918110.2435322404 L 2635010.604678813,2929144.652032849 L 2652012.9871051237,2942789.7356599453 L 2659840.0831417805,2949731.4858425325 L 2668275.9854735853,2952841.8313947488 L 2683299.7752705365,2953926.9957204983 L 2693148.9898574534,2953685.8549094624 L 2708466.217832135,2967269.111720137 L 2716217.2826565797,2968126.075264999 L 2733545.719871424,2972242.2738864664 L 2754950.8994781,2976480.5698831063 L 2768430.910576729,2975997.5514510297 L 2782867.7126987274,2968645.0482309354 L 2793282.096340401,2968331.239807922 L 2806740.511457817,2968922.6488282117 L 2821525.075669054,2966907.0120716165 L 2832374.384561257,2963757.492340532 L 2840669.022459245,2957376.0003633066 L 2847974.3640425536,2950394.485669153 L 2856366.851772949,2929626.261587897 L 2861204.4628843525,2912926.7100153733 L 2868694.594822378,2893747.636312645 L 2877880.5678831483,2867794.1299523255 L 2881152.8043150166,2849726.108623894 L 2884522.7792598014,2844757.6312244884 L 2897850.727934007,2839240.225581719 L 2908873.9178708303,2835447.461710778 L 2938519.3001444954,2828355.0185813154 L 2944596.2311469004,2824576.948990288 L 2950140.4983858597,2816079.5402123327 L 2963076.936410946,2801677.076906616 L 2979035.6986110695,2789661.360635838 L 2987265.1032874533,2782780.6528185946 L 3002354.014986518,2724613.124238535 L 3004180.4338719635,2717452.2091072053 L 3015149.299897278,2702060.736663139 L 3021921.9777171416,2695562.0447071143 L 3026281.248976606,2695443.5491291974 L 3032477.7371121226,2691389.125636849 L 3040511.442123692,2683402.0060832924 L 3050067.1072133863,2678474.231532018 L 3061144.6210617153,2676626.6299090665 L 3068319.6075213053,2671322.094073257 L 3071602.6419437807,2662599.5356883556 L 3077299.082926654,2658364.1797585683 L 3085419.7284605326,2658600.7470047246 L 3090039.9326064163,2655832.8965566014 L 3091181.4026650107,2650038.6810832447 L 3096084.246998019,2645085.6145016025 L 3104759.2635960476,2640961.1882875543 L 3109303.43652972,2636081.7694824627 L 3109716.543160054,2630448.034239181 L 3120054.895589516,2616755.542678422 L 3140340.201118811,2595012.8307801113 L 3159440.6219881023,2582915.801796123 L 3177377.8654980953,2580455.091500497 L 3194369.3386143083,2575934.8926681066 L 3210436.748637446,2569356.881784997 L 3222231.8279234287,2559030.334717104 L 3229765.485782355,2544985.628316806 L 3242723.7424276364,2537151.4997226465 L 3268879.4813039145,2534826.6293574586 z M 3198978.633450094,3516661.69431859 L 3217252.841058718,3508496.6625165422 L 3225514.862345904,3503474.5188906607 L 3231493.9435159015,3499382.9781183423 L 3239179.775118742,3493147.814829085 L 3241843.205255462,3478017.8751758914 L 3244093.5287618474,3465170.8427935597 L 3249985.5580900447,3458852.1103790365 L 3256008.1651809425,3454649.793658533 L 3260943.626124753,3447998.8369357176 L 3267096.5883393697,3432022.8938916875 L 3271314.5951650175,3416403.3974499237 L 3271760.318406154,3410021.235408178 L 3269553.4095011773,3403480.207110589 L 3265661.6801030445,3396494.3518959004 L 3261813.25398683,3387086.140216466 L 3257182.251850339,3385618.1975526307 L 3248083.107992388,3380345.1994437403 L 3234722.65402687,3369755.8005883205 L 3223112.3650956033,3360565.27604657 L 3212263.0562034003,3347176.0275232513 L 3207805.9351115287,3344993.3993917177 L 3197293.590317956,3335956.339047815 L 3192771.23600448,3330765.0192664475 L 3189596.96072451,3324560.4986343514 L 3186607.3644797653,3322517.6023767428 L 3181889.310501474,3324089.998743549 L 3169474.6269297358,3326838.810190748 L 3142840.548201519,3337679.0649691587 L 3126338.3242473425,3347672.112192989 L 3112477.71180969,3359534.910983401 L 3098062.728307888,3364079.2921369653 L 3087506.9689129065,3368016.554488234 L 3079147.097793313,3381626.004823068 L 3071330.799747263,3394303.4095176486 L 3064308.098351079,3405734.941674026 L 3060285.9025097364,3410893.620254108 L 3056611.4687576317,3414234.0052810768 L 3052926.1256954297,3421553.7840356445 L 3045349.053235095,3433720.6885200143 L 3038413.29236122,3441913.393464728 L 3028716.362837709,3446374.031641564 L 3016225.536734268,3452148.930145194 L 3011964.1153072105,3455512.6348566585 L 3011387.9256228646,3460440.8229288426 L 3015845.0467147366,3471930.811045963 L 3020149.9940626943,3483029.9004726834 L 3027172.6954588783,3496007.8913444444 L 3032314.654058111,3505520.781425921 L 3040435.2995919893,3517139.2090517404 L 3045185.970181083,3523951.9561657663 L 3044555.45658523,3535385.8432992524 L 3046153.5591950584,3539488.9932602183 L 3048871.3132432853,3544223.1370966625 L 3051110.727439573,3545432.130658172 L 3053654.4891236904,3547132.526051922 L 3060394.5503327507,3550420.4690239974 L 3062014.3602432837,3552612.907049487 L 3066743.2122121817,3556519.906253887 L 3071265.5665256586,3563643.977051624 L 3079832.046620164,3573447.7191705396 L 3089463.7429220704,3580909.7604618776 L 3106020.290787754,3583991.8071910967 L 3118967.749442429,3586379.66025263 L 3123272.696790387,3584926.7377119777 L 3127675.4939707513,3578914.3623729805 L 3131273.7851911527,3571226.4487566724 L 3132426.164559845,3561512.6339949677 L 3136557.119543693,3556343.4566652686 L 3152059.249192582,3531661.4747787053 L 3160593.0013567945,3522531.313393429 L 3165822.011797827,3521877.4977776357 L 3172561.9616873963,3520130.29272731 L 3181139.239772509,3519376.2138395146 L 3187564.044183643,3520105.194655813 L 3188955.537818559,3519828.733025633 L 3198978.633450094,3516661.69431859 z" /><path fill-rule="evenodd" fill="currentColor"    d="M 4214214.615874566,5932977.03961203 L 4209431.328674669,5936019.041202487 L 4186928.2049302994,5933343.269621848 L 4184504.000379294,5927071.541823927 L 4191146.211755947,5917449.718923914 L 4195059.759774276,5913397.301698727 L 4206713.574626442,5915590.154785352 L 4215986.599529013,5923396.436284136 L 4217638.914730857,5926037.227504292 L 4214214.615874566,5932977.03961203 z" /></g></g>
</svg>
