<?xml version="1.0" encoding="UTF-8"?>
<svg xmlns="http://www.w3.org/2000/svg" viewBox="2446680.6241132254 915238.0617713346 1300502.9755728417 1127169.0253216494">
  <g id="map"><path fill-rule="evenodd" fill="currentColor"    d="M 3383677.7061844785,1763424.4172527995 L 3367490.7390282284,1763469.6174221977 L 3339019.443423959,1763537.3600373007 L 3309482.8202927983,1763605.1028464232 L 3282511.7774659498,1769634.29711692 L 3260313.1125288997,1778850.5641788058 L 3233896.4407662023,1793280.7537788404 L 3225264.838769583,1798944.5558035003 L 3218590.0107821273,1803309.1704241082 L 3214415.529877379,1808907.5487898844 L 3212317.380114908,1821206.052954502 L 3212317.380114908,1840204.2412981791 L 3209643.1519875806,1853891.0040509119 L 3201609.4469760116,1866429.376490539 L 3201620.3562861094,1866406.7331315991 L 3161451.8312282646,1881607.2110819216 L 3135176.5352188745,1894036.2933026399 L 3109401.2863621274,1908744.4019878793 L 3089844.232941602,1927851.5004327942 L 3076505.4862767886,1951357.5306884346 L 3054372.054561344,1980497.167993815 L 3031868.930816974,2005773.2314838797 L 3007941.808146377,2032679.6777804268 L 2981122.939063444,2042407.087092984 L 2958598.1080183694,2040189.204965006 L 2931420.456216608,2029274.5396055905 L 2909841.506884805,2027217.9907413546 L 2893850.1280738786,2034016.7990929796 L 2879087.271163347,2031925.493356984 L 2865542.0268431124,2020958.1080687284 L 2854192.5594787756,2016972.444698214 L 2845006.5864180047,2019941.6808881399 L 2833276.740353627,2019427.6970919326 L 2811795.52953474,2013398.6025374162 L 2793249.5910490896,1994796.7982856557 L 2783182.969496654,1987109.8694811016 L 2775464.521283011,1984179.4829680445 L 2753254.947035864,1981181.0964890744 L 2702269.7296966184,1976895.3218020753 L 2696953.778733276,1977886.9094421118 L 2675777.0267217085,1981545.8907261232 L 2649316.9403576017,1986129.1757544056 L 2626574.702347008,1990713.454675168 L 2602723.6108886227,1995526.8636029228 L 2580568.471872473,1976120.267710562 L 2555434.534602186,1954112.6092108476 L 2529398.4641785105,1929591.3514731904 L 2509808.7941471823,1910380.5752025223 L 2500177.0978452764,1899316.47061862 L 2482989.925064249,1884716.676184716 L 2470618.65609392,1877579.195343421 L 2465802.863602712,1873982.9695291754 L 2453507.6258445955,1835175.805136184 L 2446778.4739456326,1799577.6316146234 L 2446778.4739456326,1772796.3438429674 L 2446767.6759550255,1735714.3998625681 L 2446756.766644928,1698689.515729073 L 2446745.8573348303,1661720.5882905107 L 2446735.0593442232,1624806.0627449928 L 2446724.1500341254,1587944.8540381724 L 2446702.442733421,1551135.4263117157 L 2446702.442733421,1514365.4933661257 L 2446691.5334233227,1477656.1029472717 L 2446680.6241132254,1459843.8920549254 L 2472358.023137565,1459843.8920549254 L 2501459.8323376873,1459843.8920549254 L 2531887.9019511207,1459843.8920549254 L 2564968.492391176,1459843.8920549254 L 2598049.0828312314,1459843.8920549254 L 2631129.6732712877,1459843.8920549254 L 2654208.875380512,1459843.8920549254 L 2660253.189772114,1459531.4252219412 L 2667547.622045325,1458415.8267544783 L 2668112.902419573,1454812.5089454404 L 2658579.055950074,1436780.366920355 L 2659035.5771818175,1430415.6219225088 L 2661579.4501854256,1418191.4883172305 L 2665514.816823949,1407654.0872157027 L 2670700.3013440813,1393791.9416587155 L 2671276.3797089364,1385644.7371444174 L 2667091.100813582,1359114.6719704696 L 2667471.590833113,1344330.357236497 L 2668710.9107241146,1328975.44207918 L 2669874.088083414,1314427.4725339916 L 2668439.0685275975,1304292.348027238 L 2670200.1428719475,1298765.4376651312 L 2673298.386939706,1290865.2379471778 L 2674929.106160336,1281946.4989002356 L 2676864.172868795,1278109.1226037068 L 2676277.073874352,1274560.503863309 L 2674515.9995300025,1267918.9893848798 L 2672787.541796455,1253066.4310926176 L 2670363.2259259596,1232427.9608029507 L 2667939.0213749544,1217569.0756218666 L 2671972.126526395,1218399.4038529012 L 2680397.2308675926,1219805.2839199263 L 2684484.771250031,1227079.3430230748 L 2686865.4498801357,1235052.8021613874 L 2692507.566951502,1235506.7976125493 L 2707281.3331721313,1240247.524071147 L 2712379.877169954,1246839.1855114074 L 2715782.468725541,1261057.1606409461 L 2713738.7541940673,1268340.2882426742 L 2708977.1742948764,1274238.933095644 L 2713738.7541940673,1279439.983629711 L 2723609.676081689,1282911.4514460822 L 2729393.0575868716,1281868.9268776304 L 2746058.3645950602,1272154.3644994295 L 2752722.2832724177,1270435.7380594565 L 2761430.02780074,1268550.882955493 L 2769278.8311381014,1266045.4051747457 L 2791444.99078384,1261611.3976027183 L 2803566.124858356,1259671.6661003216 L 2810371.4192890213,1256202.5687738813 L 2815132.999188213,1256202.5687738813 L 2818535.5907438,1258984.4453554677 L 2815469.963286844,1269038.7186471976 L 2814448.050361362,1278064.7198761923 L 2818687.7644877145,1294937.1791132549 L 2821883.85838788,1302838.390634352 L 2829004.4096164717,1308576.870839273 L 2834189.894136604,1311563.139346664 L 2839973.2756417873,1317658.5313018782 L 2851877.114070275,1316603.7219279632 L 2878152.4100796655,1325243.3596814177 L 2886131.7911797278,1329241.9471718029 L 2897198.50703745,1333207.83170676 L 2905036.512384204,1334696.5345156724 L 2932116.2030340666,1337729.6783264074 L 2942139.409985093,1339774.2036417455 L 2960696.257780841,1342529.9592341206 L 2975535.2572230753,1342974.558174179 L 2986036.5813870584,1341752.0687962777 L 2993428.974812167,1339285.275657953 L 2997929.5105054486,1336529.6964380678 L 3000016.7509578224,1334196.538077174 L 3003049.7618039763,1325754.2439682786 L 3008594.029042935,1307466.8968577788 L 3010757.4120270116,1302028.1904045315 L 3016247.244034973,1299508.962569253 L 3023346.0879628593,1297855.4586923616 L 3027487.9522568053,1300796.2802583033 L 3032129.863703394,1321078.6913628376 L 3052784.861261613,1339396.327737636 L 3059840.1792686,1354778.7592696194 L 3065003.845168537,1367944.270504995 L 3069504.492181309,1371559.22964339 L 3077353.406838161,1376086.7697328017 L 3089876.849552404,1377688.7614912833 L 3101074.031853337,1378144.9266938851 L 3124609.866513795,1387636.7689708006 L 3143362.413974358,1395205.6551807462 L 3156766.3938607755,1400616.3949164504 L 3162908.558084785,1404725.1884041613 L 3167202.5961226453,1411496.5147616642 L 3169757.26711686,1416732.0650069122 L 3173855.6054899055,1430293.0457800943 L 3178269.3119803676,1441017.004643988 L 3185455.0964305643,1443068.647785977 L 3191858.0822215024,1443893.7308146 L 3198217.6534110312,1451220.7262208909 L 3203011.8499210253,1457668.348910197 L 3212545.6963905245,1473380.6200644444 L 3219546.690486004,1484265.9701906587 L 3221840.4285937995,1494842.9368458474 L 3229852.426304664,1501903.927098722 L 3240690.825886769,1504909.7919492244 L 3250735.6288190093,1505278.6105508457 L 3256508.2123335856,1502127.390412556 L 3270771.022091474,1496641.5626953584 L 3281859.445249901,1490363.7525419132 L 3289958.383483075,1488185.8443158062 L 3294741.6706829714,1489514.8935843345 L 3298426.902425682,1493859.879248739 L 3300361.969134142,1502373.1678223503 L 3300818.601685376,1507111.3335407746 L 3308710.9309436376,1511626.8880971603 L 3314559.545670425,1509827.2840849909 L 3316799.0711862044,1504641.5633422628 L 3316929.426309923,1502004.5025289855 L 3316907.7190092183,1478872.954907834 L 3316886.0117085134,1458828.5873620855 L 3316853.3950977116,1439980.1066225946 L 3316831.5764775155,1417021.70789725 L 3316820.7784869093,1397031.4311875743 L 3316799.0711862044,1380570.4431786307 L 3316777.2525660093,1363406.907076571 L 3311711.3251789887,1364385.429542337 L 3305297.4300779523,1368289.1302351067 L 3290578.0990883214,1368756.2005040108 L 3284838.132184548,1371692.7245730464 L 3283033.5319192978,1376097.933936403 L 3284175.0019778917,1381872.3209999506 L 3284468.5514751137,1389684.6664620286 L 3282316.077801135,1393368.9350185394 L 3275858.6567791994,1394827.1992155917 L 3266531.307965121,1391810.5535426568 L 3249550.7441590065,1387870.5109565891 L 3235429.1988349347,1385433.2340317094 L 3225308.364690483,1375063.2121712533 L 3211567.3093859423,1359426.0708766559 L 3202598.7432906916,1351543.820052754 L 3180910.923496892,1335251.9439057272 L 3177236.6010642787,1331963.5467834028 L 3170659.6229092306,1324332.614359886 L 3165017.5058378642,1311396.5965480707 L 3162256.225868737,1302816.228899075 L 3159625.4123428194,1296435.0890462769 L 3156712.069949269,1286926.9467303825 L 3161940.9690708104,1272320.7026737833 L 3169300.745885117,1244534.6888029843 L 3174605.7875383613,1224532.6765727531 L 3177530.0392420096,1209699.481320389 L 3188064.091336286,1194618.2124933444 L 3188803.3640746446,1181135.912278211 L 3184563.649948292,1163834.4530781389 L 3185650.7960953787,1154286.3544908941 L 3186357.3409034437,1130062.8777972222 L 3186955.2378884945,1109706.8819927117 L 3187085.704331704,1099819.9431359484 L 3184204.8672294654,1082601.3225676084 L 3177116.932611676,1063549.6611205991 L 3161495.245829674,1037027.4218110034 L 3161549.681060672,1031366.1238880396 L 3170855.2112545543,1025121.9792717184 L 3185574.6535636764,1014166.7700152039 L 3192782.145314577,1007672.0298324832 L 3201413.747311197,998427.2255595713 L 3205283.8807281163,993739.6344245045 L 3213741.490360626,981890.7955199719 L 3219111.765235475,972288.7827703438 L 3220970.800731723,959863.2681174894 L 3216926.786270185,948067.9380302537 L 3225177.898247273,945759.7923998946 L 3252268.498207233,941583.540629654 L 3282120.3781363205,936979.0879752332 L 3313559.4513651384,932122.4210544709 L 3345302.872081785,927233.3288201353 L 3376046.1984931454,922498.5454716868 L 3403919.5971123637,918203.7046674405 L 3423204.808336372,915238.0617713346 L 3426053.0288278083,923355.3586550499 L 3432053.817298511,936825.2695138067 L 3438880.8190298807,946748.9665185979 L 3447381.954583291,955443.8469568235 L 3454622.0629449943,960698.863292336 L 3459405.3501448906,962304.1256066564 L 3489931.2695907312,961754.3575515519 L 3500911.044926144,967032.2215561161 L 3510444.891395644,973718.4599158346 L 3512825.681345239,984101.8883079265 L 3519120.019313163,990614.7569425087 L 3525892.6971330256,995742.2266952234 L 3528827.8581467723,996369.4018642979 L 3533806.845011483,995115.0610765569 L 3541970.905146771,995004.9756781136 L 3549548.088926597,997227.8112547244 L 3553168.087447703,999505.7592506034 L 3553526.87016653,1008211.4714593173 L 3555831.517584423,1012108.1523728087 L 3566159.0720232786,1013616.3145782358 L 3576671.3054973595,1014287.8419066544 L 3586813.9582620068,1020177.9657404972 L 3597772.0262967153,1021223.9287599836 L 3610447.642754873,1023646.4237463443 L 3616448.4312255746,1030000.4050791941 L 3629950.2609444004,1036520.7537493531 L 3646452.596218068,1042359.1096818193 L 3658323.7067162623,1048969.5058384968 L 3664628.953994284,1051966.6810383885 L 3665009.4440138154,1054963.9736208597 L 3668096.7787714754,1060628.7902380477 L 3671303.781981739,1064707.054809495 L 3671553.805558061,1070725.9725450752 L 3673097.472936891,1076282.7958650042 L 3677750.293693578,1077661.0908191334 L 3681609.5178003986,1078013.9432427858 L 3685175.1924099987,1074000.4253947218 L 3690023.7128314995,1074099.6658759562 L 3695328.7544847443,1076657.6528360585 L 3697220.295272303,1083075.5056874226 L 3701373.068876346,1091722.513354715 L 3708102.220775308,1097624.381685906 L 3712613.777098179,1103317.585284961 L 3711069.9983998574,1113691.102818354 L 3708221.7779084207,1123184.2671419769 L 3717353.5383771746,1132558.4477460815 L 3729213.8508847626,1141471.195358409 L 3732420.742775535,1145425.745650642 L 3733388.331789511,1158651.1717869195 L 3735182.0227446617,1163149.2807304435 L 3743248.3443670333,1174159.0345717922 L 3747183.599686067,1181467.6886593157 L 3746911.86880904,1185703.1544657797 L 3725278.4842462386,1207519.2394071599 L 3718418.8659040667,1209633.0713501363 L 3711939.737581425,1210872.5566180036 L 3706134.5374560463,1215366.3390807735 L 3702634.0960680526,1220015.5701589559 L 3703906.032569856,1222473.3523562928 L 3706188.9726870446,1229969.4500005825 L 3711243.990763968,1241765.1485496822 L 3715820.668988951,1250019.0944865576 L 3712004.9708030308,1260369.9107824282 L 3703416.7834078195,1277942.7546425199 L 3699448.9114779844,1279506.5338018835 L 3698742.255350429,1292817.8642805067 L 3701373.068876346,1297677.9658315836 L 3705634.490303403,1301484.3939057349 L 3707373.857347048,1310541.7286190165 L 3707504.3237902587,1322955.5151757807 L 3707047.802558515,1332985.6586806574 L 3701634.0017627655,1358525.470706115 L 3711407.0738179795,1380815.2957963264 L 3714733.634161354,1383252.1956291432 L 3728246.261870787,1383407.9625238082 L 3730572.727908876,1385310.8455233786 L 3727333.10808781,1391654.7426910838 L 3721484.493361022,1398155.8396871474 L 3717842.67621972,1401507.2024998437 L 3700644.7054480854,1409113.0578155061 L 3675945.6934283287,1417545.3311326404 L 3670781.9162089005,1425634.5099357055 L 3667487.972476328,1437393.6189877929 L 3670260.161755553,1444284.0150099064 L 3673543.196178028,1448265.149278242 L 3672477.8686511368,1458527.3275057806 L 3670325.394977158,1469362.3598265478 L 3671053.758405418,1477890.574913566 L 3669933.995647528,1485449.719100687 L 3666705.2851365604,1489157.4930590428 L 3662378.630487898,1500551.8581859632 L 3657051.770214458,1511995.6824355857 L 3652844.7840183987,1517227.4427108327 L 3646648.1845633914,1522672.7290390225 L 3636853.4052074724,1527269.0780850598 L 3637038.19556219,1529550.7648689318 L 3648137.5280307145,1534841.8063019658 L 3650996.657832249,1538500.3566264475 L 3652029.3687483384,1540995.5449532853 L 3649648.690118233,1543423.8120670123 L 3647398.3666118477,1546814.8840581402 L 3652507.7086002766,1550318.372576637 L 3658758.631966791,1553273.662242234 L 3664672.479915184,1560898.5626096416 L 3669933.995647528,1571561.3164888741 L 3671455.955725654,1575292.1393354028 L 3672662.6590058524,1576759.9475607742 L 3674575.907094117,1576939.169647594 L 3678261.2501563192,1575370.6161858279 L 3685077.3425775915,1569533.7918247455 L 3690023.7128314995,1567439.0948412898 L 3696002.7940014973,1575751.5305353792 L 3672108.1766222115,1583965.7073629342 L 3659573.9359173616,1588269.9339484125 L 3623808.2080398817,1600570.0457483984 L 3592597.451086681,1611305.1572240873 L 3584476.6942333113,1613347.1908833114 L 3568289.727077062,1618598.9936717886 L 3560234.314764788,1621809.002204713 L 3532045.659347642,1631194.3515209751 L 3520261.489371757,1635865.8389503085 L 3510781.966813765,1640515.6409948678 L 3487474.4484289237,1647480.8421568905 L 3465471.371837198,1654032.165153977 L 3441457.308644291,1660787.4512628566 L 3414540.58972895,1668365.5629881823 L 3399440.657400296,1673819.990446027 L 3389243.6807241417,1678544.450397614 L 3365392.589265757,1688085.96242843 L 3364272.826507867,1690415.6735550996 L 3364631.609226694,1696910.7566015988 L 3367653.710762749,1710322.7148333667 L 3373611.0846320423,1722513.6745258386 L 3378611.778797458,1729535.8612700943 L 3381873.1059192284,1747568.4038311103 L 3383677.7061844785,1763424.4172527995 z" /></g>
</svg>
