<?xml version="1.0" encoding="UTF-8"?>
<svg xmlns="http://www.w3.org/2000/svg" viewBox="2807925.396117821 1763424.4172527995 866367.8707891717 796440.7936730972">
  <g id="map"><path fill-rule="evenodd" fill="currentColor"    d="M 3482952.0941154473,2559865.2109258967 L 3472863.765262306,2552987.9335852154 L 3459079.295356357,2548522.2051494597 L 3441565.956467305,2546465.979300188 L 3418802.011156007,2547323.69208605 L 3390809.055403677,2551072.202523412 L 3360783.29442997,2546512.9003159227 L 3328713.707605299,2533652.6530044493 L 3302079.6288770824,2529098.060200407 L 3270281.7729294375,2534685.7238407033 L 3268879.4813039145,2534826.6293574586 L 3263356.92136566,2530471.364726044 L 3254670.9954575337,2521071.8774233414 L 3240158.1621233243,2519417.896425731 L 3236222.7954848,2517224.448900545 L 3232983.286983225,2513729.5947011495 L 3230863.429920049,2509274.2222694224 L 3230026.3073492832,2504315.9600667898 L 3232418.0066089765,2488887.9233378316 L 3231113.4534963705,2487155.051784283 L 3227232.5220888443,2485305.233766867 L 3219285.757599585,2483455.7346681617 L 3200185.3367302935,2476457.151652561 L 3176171.162217896,2469707.1734010098 L 3137165.925838841,2462293.2251812476 L 3122022.467589287,2460340.9682795904 L 3118511.228210686,2458084.9175603827 L 3114119.229020928,2452405.2717515975 L 3106640.0063930005,2434747.1465150504 L 3099595.597696111,2423089.8708132813 L 3082821.5315454174,2405123.2605741327 L 3080147.3034180906,2399542.319240995 L 3080984.3146693655,2385300.6542007904 L 3082223.6345603666,2373803.913351106 L 3084028.2348256167,2364046.695150311 L 3083212.9308750466,2354922.328377658 L 3082973.705289332,2343595.8900291133 L 3083506.3690527775,2336002.462937381 L 3081245.2475557844,2332717.562199475 L 3075157.407243282,2330408.133896359 L 3057828.970028438,2329363.7404585173 L 3036880.5342924874,2329827.881526617 L 3036195.5854656366,2318319.927223923 L 3034206.19484567,2300538.537124159 L 3030281.737517244,2290311.079266024 L 3025465.945026036,2284996.8832368827 L 3015845.0467147366,2279452.649082078 L 2996353.226515816,2271862.555836638 L 2969806.199629399,2260332.733684154 L 2947139.992831018,2243276.7092285333 L 2921136.5390181444,2222082.0455500623 L 2913015.782164775,2218413.4414547435 L 2903427.611783769,2198537.022167561 L 2888816.9286171515,2164561.607687406 L 2889762.6990109314,2153245.9193268768 L 2887555.7901059547,2147716.865730114 L 2873369.122879769,2131058.702653738 L 2870227.352891111,2122413.5249309028 L 2867727.005808403,2113680.3484859676 L 2845137.0528612146,2089325.507157275 L 2837451.221258375,2078705.3440369223 L 2831602.606531587,2065068.7319238642 L 2825775.6991055035,2054175.1703671792 L 2820861.9454623978,2049782.7813158901 L 2814426.3430606574,2042372.783904608 L 2809958.3126586876,2033925.4002480952 L 2807925.396117821,2027629.2139978802 L 2809599.6412593517,2019187.8423309105 L 2811795.52953474,2013398.6025374162 L 2833276.740353627,2019427.6970919326 L 2845006.5864180047,2019941.6808881399 L 2854192.5594787756,2016972.444698214 L 2865542.0268431124,2020958.1080687284 L 2879087.271163347,2031925.493356984 L 2893850.1280738786,2034016.7990929796 L 2909841.506884805,2027217.9907413546 L 2931420.456216608,2029274.5396055905 L 2958598.1080183694,2040189.204965006 L 2981122.939063444,2042407.087092984 L 3007941.808146377,2032679.6777804268 L 3031868.930816974,2005773.2314838797 L 3054372.054561344,1980497.167993815 L 3076505.4862767886,1951357.5306884346 L 3089844.232941602,1927851.5004327942 L 3109401.2863621274,1908744.4019878793 L 3135176.5352188745,1894036.2933026399 L 3161451.8312282646,1881607.2110819216 L 3201620.3562861094,1866406.7331315991 L 3201609.4469760116,1866429.376490539 L 3209643.1519875806,1853891.0040509119 L 3212317.380114908,1840204.2412981791 L 3212317.380114908,1821206.052954502 L 3214415.529877379,1808907.5487898844 L 3218590.0107821273,1803309.1704241082 L 3225264.838769583,1798944.5558035003 L 3233896.4407662023,1793280.7537788404 L 3260313.1125288997,1778850.5641788058 L 3282511.7774659498,1769634.29711692 L 3309482.8202927983,1763605.1028464232 L 3339019.443423959,1763537.3600373007 L 3367490.7390282284,1763469.6174221977 L 3383677.7061844785,1763424.4172527995 L 3383906.0224600947,1781663.5366529517 L 3385156.1403417033,1802201.0049859574 L 3388319.617631066,1804179.9917590627 L 3409735.595228349,1804632.3222577341 L 3444088.1221702085,1806079.9319327888 L 3477201.217901576,1807459.7620239411 L 3498345.4646218317,1822371.8048333526 L 3505433.399239621,1825541.0397556885 L 3527447.273821954,1829537.0523971608 L 3555527.1700965944,1854435.077000143 L 3589303.5073541077,1856747.1853183857 L 3612534.883207247,1864524.3951897977 L 3633005.0904107494,1873086.8203517136 L 3644800.169696732,1883332.133063163 L 3652420.768077967,1885658.619254377 L 3662737.4132067244,1886419.0597014723 L 3667759.8146728454,1887361.1912544996 L 3666629.2539243484,1894762.954967542 L 3659769.635582176,1907278.895520189 L 3660671.8800550555,1925224.8115392863 L 3670129.6953123426,1950128.217247515 L 3671401.631814147,1971812.6445034484 L 3668499.087411203,2010110.7078518765 L 3668596.825924119,2047255.2997862427 L 3669607.829539504,2060536.668455046 L 3671151.6082378253,2069349.874388412 L 3673140.9988577915,2074170.24161727 L 3672771.306828867,2079678.8252498868 L 3667140.099067599,2095296.8251044159 L 3662596.037453417,2111764.3233933575 L 3662443.8637095024,2118362.103114439 L 3660693.5873557595,2122998.999685664 L 3657345.31971168,2127131.7835288593 L 3642593.372111246,2134745.292754927 L 3640060.408417736,2139454.963056203 L 3640114.732329243,2147981.2003420107 L 3641984.565816098,2155154.312494261 L 3647517.923744959,2157798.9393405584 L 3654192.751732415,2161858.5913825105 L 3656823.5652583325,2167230.598596995 L 3656845.2725590374,2172891.6198432515 L 3654725.4154958604,2183378.2805455714 L 3648789.8602467626,2200761.1879854114 L 3654703.7081951555,2220766.795459182 L 3661345.9195718095,2233749.9678173633 L 3670499.2760217767,2248810.117399068 L 3674293.2669069925,2258090.0962330922 L 3674086.769251571,2264761.147532354 L 3672738.690218065,2271237.8277285127 L 3659030.3628438185,2298777.654007211 L 3649148.5316460994,2315907.827618694 L 3637092.630793188,2334272.8745859703 L 3621144.7779031615,2345802.571011546 L 3617035.5302200182,2351355.2489290866 L 3615394.0130087812,2357688.1923620505 L 3615970.202693127,2371489.110009091 L 3615230.9299547686,2385929.3013333767 L 3601587.7244826364,2408164.961795276 L 3610067.1527353413,2427336.4674970116 L 3608132.086026882,2429098.3890476585 L 3603533.7005011938,2431852.507572014 L 3583900.615868456,2453445.3023843938 L 3564039.2149601015,2475310.546186853 L 3549526.381625892,2491311.93498884 L 3533024.0463522244,2509532.083184525 L 3514521.5224679844,2529966.668964906 L 3498715.0453312653,2547441.121172573 L 3482952.0941154473,2559865.2109258967 z" /></g>
</svg>
